%TF.GenerationSoftware,KiCad,Pcbnew,10.0.3*%
%TF.CreationDate,2026-08-03T17:03:01+05:45*%
%TF.ProjectId,rasberry pi pico,72617362-6572-4727-9920-706920706963,rev?*%
%TF.SameCoordinates,Original*%
%TF.FileFunction,Copper,L2,Inr*%
%TF.FilePolarity,Positive*%
%FSLAX46Y46*%
G04 Gerber Fmt 4.6, Leading zero omitted, Abs format (unit mm)*
G04 Created by KiCad (PCBNEW 10.0.3) date 2026-08-03 17:03:01*
%MOMM*%
%LPD*%
G01*
G04 APERTURE LIST*
G04 Aperture macros list*
%AMFreePoly0*
4,1,13,0.528536,0.723536,0.530000,0.720000,0.530000,-0.800000,0.528536,-0.803536,0.525000,-0.805000,-1.475000,-0.805000,-1.478536,-0.803536,-1.480000,-0.800000,-1.480000,0.720000,-1.478536,0.723536,-1.475000,0.725000,0.525000,0.725000,0.528536,0.723536,0.528536,0.723536,$1*%
%AMFreePoly1*
4,1,13,1.478536,0.723536,1.480000,0.720000,1.480000,-0.800000,1.478536,-0.803536,1.475000,-0.805000,-0.525000,-0.805000,-0.528536,-0.803536,-0.530000,-0.800000,-0.530000,0.720000,-0.528536,0.723536,-0.525000,0.725000,1.475000,0.725000,1.478536,0.723536,1.478536,0.723536,$1*%
%AMFreePoly2*
4,1,127,0.653536,2.053536,0.655000,2.050000,0.655000,-0.500000,0.654994,-0.500238,0.652994,-0.542238,0.652950,-0.542707,0.649950,-0.563707,0.649903,-0.563981,0.645903,-0.583981,0.645864,-0.584158,0.640864,-0.605158,0.640789,-0.605437,0.634789,-0.625437,0.634692,-0.625729,0.627692,-0.644729,0.627642,-0.644857,0.619642,-0.664857,0.619519,-0.665140,0.610519,-0.684140,0.610371,-0.684428,
0.600371,-0.702428,0.600266,-0.702607,0.589266,-0.720607,0.589198,-0.720716,0.578198,-0.737716,0.577972,-0.738037,0.564972,-0.755037,0.564763,-0.755293,0.550763,-0.771293,0.550655,-0.771412,0.536655,-0.786412,0.536412,-0.786655,0.521412,-0.800655,0.521293,-0.800763,0.505293,-0.814763,0.505037,-0.814972,0.488037,-0.827972,0.487716,-0.828198,0.470716,-0.839198,0.470607,-0.839266,
0.452607,-0.850266,0.452428,-0.850371,0.434428,-0.860371,0.434140,-0.860519,0.415140,-0.869519,0.414857,-0.869642,0.394857,-0.877642,0.394729,-0.877692,0.375729,-0.884692,0.375437,-0.884789,0.355437,-0.890789,0.355158,-0.890864,0.334158,-0.895864,0.333981,-0.895903,0.313981,-0.899903,0.313707,-0.899950,0.292707,-0.902950,0.292238,-0.902994,0.250238,-0.904994,0.250000,-0.905000,
-0.250000,-0.905000,-0.250238,-0.904994,-0.292238,-0.902994,-0.292707,-0.902950,-0.313707,-0.899950,-0.313981,-0.899903,-0.333981,-0.895903,-0.334158,-0.895864,-0.355158,-0.890864,-0.355437,-0.890789,-0.375437,-0.884789,-0.375729,-0.884692,-0.394729,-0.877692,-0.394857,-0.877642,-0.414857,-0.869642,-0.415140,-0.869519,-0.434140,-0.860519,-0.434428,-0.860371,-0.452428,-0.850371,-0.452607,-0.850266,
-0.470607,-0.839266,-0.470716,-0.839198,-0.487716,-0.828198,-0.488037,-0.827972,-0.505037,-0.814972,-0.505293,-0.814763,-0.521293,-0.800763,-0.521412,-0.800655,-0.536412,-0.786655,-0.536655,-0.786412,-0.550655,-0.771412,-0.550763,-0.771293,-0.564763,-0.755293,-0.564972,-0.755037,-0.577972,-0.738037,-0.578198,-0.737716,-0.589198,-0.720716,-0.589266,-0.720607,-0.600266,-0.702607,-0.600371,-0.702428,
-0.610371,-0.684428,-0.610519,-0.684140,-0.619519,-0.665140,-0.619642,-0.664857,-0.627642,-0.644857,-0.627692,-0.644729,-0.634692,-0.625729,-0.634789,-0.625437,-0.640789,-0.605437,-0.640864,-0.605158,-0.645864,-0.584158,-0.645903,-0.583981,-0.649903,-0.563981,-0.649950,-0.563707,-0.652950,-0.542707,-0.652994,-0.542238,-0.654994,-0.500238,-0.655000,-0.500000,-0.655000,1.345000,-1.175000,1.345000,
-1.178536,1.346464,-1.180000,1.350000,-1.180000,2.050000,-1.178536,2.053536,-1.175000,2.055000,0.650000,2.055000,0.653536,2.053536,0.653536,2.053536,$1*%
%AMFreePoly3*
4,1,127,1.178536,2.053536,1.180000,2.050000,1.180000,1.350000,1.178536,1.346464,1.175000,1.345000,0.655000,1.345000,0.655000,-0.500000,0.654994,-0.500238,0.652994,-0.542238,0.652950,-0.542707,0.649950,-0.563707,0.649903,-0.563981,0.645903,-0.583981,0.645864,-0.584158,0.640864,-0.605158,0.640789,-0.605437,0.634789,-0.625437,0.634692,-0.625729,0.627692,-0.644729,0.627642,-0.644857,
0.619642,-0.664857,0.619519,-0.665140,0.610519,-0.684140,0.610371,-0.684428,0.600371,-0.702428,0.600266,-0.702607,0.589266,-0.720607,0.589198,-0.720716,0.578198,-0.737716,0.577972,-0.738037,0.564972,-0.755037,0.564763,-0.755293,0.550763,-0.771293,0.550655,-0.771412,0.536655,-0.786412,0.536412,-0.786655,0.521412,-0.800655,0.521293,-0.800763,0.505293,-0.814763,0.505037,-0.814972,
0.488037,-0.827972,0.487716,-0.828198,0.470716,-0.839198,0.470607,-0.839266,0.452607,-0.850266,0.452428,-0.850371,0.434428,-0.860371,0.434140,-0.860519,0.415140,-0.869519,0.414857,-0.869642,0.394857,-0.877642,0.394729,-0.877692,0.375729,-0.884692,0.375437,-0.884789,0.355437,-0.890789,0.355158,-0.890864,0.334158,-0.895864,0.333981,-0.895903,0.313981,-0.899903,0.313707,-0.899950,
0.292707,-0.902950,0.292238,-0.902994,0.250238,-0.904994,0.250000,-0.905000,-0.250000,-0.905000,-0.250238,-0.904994,-0.292238,-0.902994,-0.292707,-0.902950,-0.313707,-0.899950,-0.313981,-0.899903,-0.333981,-0.895903,-0.334158,-0.895864,-0.355158,-0.890864,-0.355437,-0.890789,-0.375437,-0.884789,-0.375729,-0.884692,-0.394729,-0.877692,-0.394857,-0.877642,-0.414857,-0.869642,-0.415140,-0.869519,
-0.434140,-0.860519,-0.434428,-0.860371,-0.452428,-0.850371,-0.452607,-0.850266,-0.470607,-0.839266,-0.470716,-0.839198,-0.487716,-0.828198,-0.488037,-0.827972,-0.505037,-0.814972,-0.505293,-0.814763,-0.521293,-0.800763,-0.521412,-0.800655,-0.536412,-0.786655,-0.536655,-0.786412,-0.550655,-0.771412,-0.550763,-0.771293,-0.564763,-0.755293,-0.564972,-0.755037,-0.577972,-0.738037,-0.578198,-0.737716,
-0.589198,-0.720716,-0.589266,-0.720607,-0.600266,-0.702607,-0.600371,-0.702428,-0.610371,-0.684428,-0.610519,-0.684140,-0.619519,-0.665140,-0.619642,-0.664857,-0.627642,-0.644857,-0.627692,-0.644729,-0.634692,-0.625729,-0.634789,-0.625437,-0.640789,-0.605437,-0.640864,-0.605158,-0.645864,-0.584158,-0.645903,-0.583981,-0.649903,-0.563981,-0.649950,-0.563707,-0.652950,-0.542707,-0.652994,-0.542238,
-0.654994,-0.500238,-0.655000,-0.500000,-0.655000,2.050000,-0.653536,2.053536,-0.650000,2.055000,1.175000,2.055000,1.178536,2.053536,1.178536,2.053536,$1*%
G04 Aperture macros list end*
%TA.AperFunction,ComponentPad*%
%ADD10R,1.000000X1.000000*%
%TD*%
%TA.AperFunction,ComponentPad*%
%ADD11C,1.000000*%
%TD*%
%TA.AperFunction,ComponentPad*%
%ADD12FreePoly0,180.000000*%
%TD*%
%TA.AperFunction,ComponentPad*%
%ADD13FreePoly1,180.000000*%
%TD*%
%TA.AperFunction,ComponentPad*%
%ADD14FreePoly2,180.000000*%
%TD*%
%TA.AperFunction,ComponentPad*%
%ADD15FreePoly3,180.000000*%
%TD*%
%TA.AperFunction,ComponentPad*%
%ADD16R,1.700000X1.700000*%
%TD*%
%TA.AperFunction,ComponentPad*%
%ADD17C,1.700000*%
%TD*%
%TA.AperFunction,ViaPad*%
%ADD18C,0.600000*%
%TD*%
%TA.AperFunction,Conductor*%
%ADD19C,0.127000*%
%TD*%
G04 APERTURE END LIST*
D10*
%TO.N,/SWCLK*%
%TO.C,J1*%
X188685000Y-94950000D03*
D11*
%TO.N,GND*%
X189955000Y-94950000D03*
%TO.N,/SWDIO*%
X191225000Y-94950000D03*
%TD*%
D12*
%TO.N,GND*%
%TO.C,J4*%
X193175000Y-50025000D03*
D13*
X188325000Y-50025000D03*
D14*
X193475000Y-46925000D03*
D15*
X188025000Y-46925000D03*
%TD*%
D16*
%TO.N,/GPIO0*%
%TO.C,J2*%
X180550000Y-46700000D03*
D17*
%TO.N,/GPIO1*%
X180550000Y-49240000D03*
%TO.N,GND*%
X180550000Y-51780000D03*
%TO.N,/GPIO2*%
X180550000Y-54320000D03*
%TO.N,/GPIO3*%
X180550000Y-56860000D03*
%TO.N,/GPIO4*%
X180550000Y-59400000D03*
%TO.N,/GPIO5*%
X180550000Y-61940000D03*
%TO.N,GND*%
X180550000Y-64480000D03*
%TO.N,/GPIO6*%
X180550000Y-67020000D03*
%TO.N,/GPIO7*%
X180550000Y-69560000D03*
%TO.N,/GPIO8*%
X180550000Y-72100000D03*
%TO.N,/GPIO9*%
X180550000Y-74640000D03*
%TO.N,GND*%
X180550000Y-77180000D03*
%TO.N,/GPIO10*%
X180550000Y-79720000D03*
%TO.N,/GPIO11*%
X180550000Y-82260000D03*
%TO.N,/GPIO12*%
X180550000Y-84800000D03*
%TO.N,/GPIO13*%
X180550000Y-87340000D03*
%TO.N,GND*%
X180550000Y-89880000D03*
%TO.N,/GPIO14*%
X180550000Y-92420000D03*
%TO.N,/GPIO15*%
X180550000Y-94960000D03*
%TD*%
D16*
%TO.N,/GPIO16*%
%TO.C,J3*%
X198900000Y-94765000D03*
D17*
%TO.N,/GPIO17*%
X198900000Y-92225000D03*
%TO.N,GND*%
X198900000Y-89685000D03*
%TO.N,/GPIO18*%
X198900000Y-87145000D03*
%TO.N,/GPIO19*%
X198900000Y-84605000D03*
%TO.N,/GPIO20*%
X198900000Y-82065000D03*
%TO.N,/GPIO21*%
X198900000Y-79525000D03*
%TO.N,GND*%
X198900000Y-76985000D03*
%TO.N,/GPIO22*%
X198900000Y-74445000D03*
%TO.N,/RUN*%
X198900000Y-71905000D03*
%TO.N,/GPIO26_ADC0*%
X198900000Y-69365000D03*
%TO.N,/GPIO27_ADC1*%
X198900000Y-66825000D03*
%TO.N,GND*%
X198900000Y-64285000D03*
%TO.N,/GPIO28_ADC2*%
X198900000Y-61745000D03*
%TO.N,/ADC_VREF*%
X198900000Y-59205000D03*
%TO.N,GND*%
X198900000Y-56665000D03*
%TO.N,/3V3_EN*%
X198900000Y-54125000D03*
%TO.N,GND*%
X198900000Y-51585000D03*
%TO.N,/VSYS*%
X198900000Y-49045000D03*
%TO.N,/VBUS*%
X198900000Y-46505000D03*
%TD*%
D18*
%TO.N,+3V3*%
X185300000Y-73750000D03*
X185612500Y-75225000D03*
X188750000Y-75400000D03*
X192325000Y-76700000D03*
X193440661Y-66322086D03*
X185462500Y-71950000D03*
X191646875Y-70207850D03*
X194662500Y-71725000D03*
X196575000Y-67712500D03*
X196525000Y-66362500D03*
X189898316Y-64334302D03*
%TO.N,GND*%
X190562500Y-53200000D03*
%TO.N,+3V3*%
X188187500Y-59950000D03*
X190075000Y-58425000D03*
X190075000Y-58400000D03*
X190099000Y-54925000D03*
X192412500Y-53625000D03*
%TO.N,GND*%
X183725000Y-73625000D03*
X183887500Y-75225000D03*
X192725000Y-81825000D03*
X189762500Y-60150000D03*
X187925000Y-58400000D03*
X183925000Y-64000000D03*
%TO.N,/GPIO23*%
X191350000Y-53950000D03*
X193012876Y-55462876D03*
X194196751Y-57850001D03*
X192839331Y-62555092D03*
X192850000Y-60650025D03*
X193038511Y-64313016D03*
X193138499Y-68389045D03*
X193142180Y-72017179D03*
X191294512Y-72425000D03*
X193224999Y-74652458D03*
%TO.N,/GPIO24*%
X193822943Y-74288500D03*
%TO.N,/VSYS*%
X191150000Y-54825000D03*
X189665500Y-53925000D03*
%TO.N,/USB_DM*%
X191400000Y-49750000D03*
X193350000Y-67425000D03*
%TO.N,/USB_DP*%
X192125000Y-67537500D03*
X190797516Y-50850000D03*
%TO.N,GND*%
X189475000Y-50100000D03*
X183887500Y-50850000D03*
X194300000Y-51750000D03*
X194487500Y-53625000D03*
%TO.N,/GPIO28_ADC2*%
X193850000Y-72725000D03*
%TO.N,GND*%
X196525000Y-64637500D03*
X192375831Y-64087500D03*
X186525000Y-67025000D03*
X183925000Y-71950000D03*
X188875000Y-69175000D03*
X190750000Y-73825000D03*
%TO.N,/GPIO25*%
X193225002Y-73825000D03*
X189350000Y-68300000D03*
%TO.N,GND*%
X182606001Y-85955751D03*
X193900000Y-62025000D03*
X195375000Y-63712500D03*
X192525000Y-84925000D03*
X190050000Y-94025000D03*
X191225000Y-74425000D03*
X187775000Y-83137500D03*
X190300000Y-76752000D03*
%TO.N,/XIN*%
X191200000Y-80187500D03*
X190321737Y-78882971D03*
%TO.N,/XR*%
X189675000Y-82100000D03*
X190625000Y-83500000D03*
%TO.N,/GPIO2*%
X182939277Y-70714582D03*
%TO.N,/GPIO3*%
X186675000Y-73100000D03*
%TO.N,/GPIO26_ADC0*%
X195625000Y-73375000D03*
X197502000Y-72593065D03*
%TO.N,/GPIO27_ADC1*%
X195698000Y-72625000D03*
%TO.N,/3V3_EN*%
X195350000Y-54773000D03*
X190237500Y-61950000D03*
%TO.N,/RUN*%
X193025000Y-76825000D03*
X197425000Y-74523000D03*
%TO.N,Net-(U2-LX2)*%
X191049414Y-59224999D03*
X195175000Y-56200000D03*
%TO.N,/GPIO29_ADC3*%
X194625000Y-66420000D03*
X195525225Y-71918827D03*
%TO.N,/XOUT*%
X191200000Y-82012500D03*
X189737500Y-80212500D03*
%TO.N,/QSPI_SS*%
X187500000Y-63150000D03*
X188025000Y-71000000D03*
%TO.N,/QSPI_SD1*%
X187025000Y-63725000D03*
X188700000Y-72625000D03*
%TO.N,/QSPI_SD2*%
X186775000Y-64425003D03*
X189209733Y-72064769D03*
%TO.N,/GPIO24*%
X188511500Y-53375000D03*
%TO.N,+3V3*%
X191325000Y-76950000D03*
X186825000Y-71271425D03*
X188039407Y-68591601D03*
%TD*%
%TO.N,GND*%
D19*
X190562500Y-57812500D02*
X190562500Y-53200000D01*
X191150000Y-58400000D02*
X190562500Y-57812500D01*
X189762500Y-59787500D02*
X191150000Y-58400000D01*
X189762500Y-60150000D02*
X189762500Y-59787500D01*
X183725000Y-72150000D02*
X183925000Y-71950000D01*
X183725000Y-73625000D02*
X183725000Y-72150000D01*
X183887500Y-73787500D02*
X183725000Y-73625000D01*
X183887500Y-75225000D02*
X183887500Y-73787500D01*
X182505000Y-75225000D02*
X183887500Y-75225000D01*
X180550000Y-77180000D02*
X182505000Y-75225000D01*
X192725000Y-79177000D02*
X190300000Y-76752000D01*
X192725000Y-81825000D02*
X192725000Y-79177000D01*
X194060000Y-81825000D02*
X192725000Y-81825000D01*
X198900000Y-76985000D02*
X194060000Y-81825000D01*
X188012500Y-58400000D02*
X189762500Y-60150000D01*
X187925000Y-58400000D02*
X188012500Y-58400000D01*
X183445000Y-64480000D02*
X183925000Y-64000000D01*
X180550000Y-64480000D02*
X183445000Y-64480000D01*
%TD*%
M02*
