%TF.GenerationSoftware,KiCad,Pcbnew,10.0.3*%
%TF.CreationDate,2026-08-03T17:03:01+05:45*%
%TF.ProjectId,rasberry pi pico,72617362-6572-4727-9920-706920706963,rev?*%
%TF.SameCoordinates,Original*%
%TF.FileFunction,Copper,L4,Bot*%
%TF.FilePolarity,Positive*%
%FSLAX46Y46*%
G04 Gerber Fmt 4.6, Leading zero omitted, Abs format (unit mm)*
G04 Created by KiCad (PCBNEW 10.0.3) date 2026-08-03 17:03:01*
%MOMM*%
%LPD*%
G01*
G04 APERTURE LIST*
G04 Aperture macros list*
%AMFreePoly0*
4,1,13,0.528536,0.723536,0.530000,0.720000,0.530000,-0.800000,0.528536,-0.803536,0.525000,-0.805000,-1.475000,-0.805000,-1.478536,-0.803536,-1.480000,-0.800000,-1.480000,0.720000,-1.478536,0.723536,-1.475000,0.725000,0.525000,0.725000,0.528536,0.723536,0.528536,0.723536,$1*%
%AMFreePoly1*
4,1,13,1.478536,0.723536,1.480000,0.720000,1.480000,-0.800000,1.478536,-0.803536,1.475000,-0.805000,-0.525000,-0.805000,-0.528536,-0.803536,-0.530000,-0.800000,-0.530000,0.720000,-0.528536,0.723536,-0.525000,0.725000,1.475000,0.725000,1.478536,0.723536,1.478536,0.723536,$1*%
%AMFreePoly2*
4,1,127,0.653536,2.053536,0.655000,2.050000,0.655000,-0.500000,0.654994,-0.500238,0.652994,-0.542238,0.652950,-0.542707,0.649950,-0.563707,0.649903,-0.563981,0.645903,-0.583981,0.645864,-0.584158,0.640864,-0.605158,0.640789,-0.605437,0.634789,-0.625437,0.634692,-0.625729,0.627692,-0.644729,0.627642,-0.644857,0.619642,-0.664857,0.619519,-0.665140,0.610519,-0.684140,0.610371,-0.684428,
0.600371,-0.702428,0.600266,-0.702607,0.589266,-0.720607,0.589198,-0.720716,0.578198,-0.737716,0.577972,-0.738037,0.564972,-0.755037,0.564763,-0.755293,0.550763,-0.771293,0.550655,-0.771412,0.536655,-0.786412,0.536412,-0.786655,0.521412,-0.800655,0.521293,-0.800763,0.505293,-0.814763,0.505037,-0.814972,0.488037,-0.827972,0.487716,-0.828198,0.470716,-0.839198,0.470607,-0.839266,
0.452607,-0.850266,0.452428,-0.850371,0.434428,-0.860371,0.434140,-0.860519,0.415140,-0.869519,0.414857,-0.869642,0.394857,-0.877642,0.394729,-0.877692,0.375729,-0.884692,0.375437,-0.884789,0.355437,-0.890789,0.355158,-0.890864,0.334158,-0.895864,0.333981,-0.895903,0.313981,-0.899903,0.313707,-0.899950,0.292707,-0.902950,0.292238,-0.902994,0.250238,-0.904994,0.250000,-0.905000,
-0.250000,-0.905000,-0.250238,-0.904994,-0.292238,-0.902994,-0.292707,-0.902950,-0.313707,-0.899950,-0.313981,-0.899903,-0.333981,-0.895903,-0.334158,-0.895864,-0.355158,-0.890864,-0.355437,-0.890789,-0.375437,-0.884789,-0.375729,-0.884692,-0.394729,-0.877692,-0.394857,-0.877642,-0.414857,-0.869642,-0.415140,-0.869519,-0.434140,-0.860519,-0.434428,-0.860371,-0.452428,-0.850371,-0.452607,-0.850266,
-0.470607,-0.839266,-0.470716,-0.839198,-0.487716,-0.828198,-0.488037,-0.827972,-0.505037,-0.814972,-0.505293,-0.814763,-0.521293,-0.800763,-0.521412,-0.800655,-0.536412,-0.786655,-0.536655,-0.786412,-0.550655,-0.771412,-0.550763,-0.771293,-0.564763,-0.755293,-0.564972,-0.755037,-0.577972,-0.738037,-0.578198,-0.737716,-0.589198,-0.720716,-0.589266,-0.720607,-0.600266,-0.702607,-0.600371,-0.702428,
-0.610371,-0.684428,-0.610519,-0.684140,-0.619519,-0.665140,-0.619642,-0.664857,-0.627642,-0.644857,-0.627692,-0.644729,-0.634692,-0.625729,-0.634789,-0.625437,-0.640789,-0.605437,-0.640864,-0.605158,-0.645864,-0.584158,-0.645903,-0.583981,-0.649903,-0.563981,-0.649950,-0.563707,-0.652950,-0.542707,-0.652994,-0.542238,-0.654994,-0.500238,-0.655000,-0.500000,-0.655000,1.345000,-1.175000,1.345000,
-1.178536,1.346464,-1.180000,1.350000,-1.180000,2.050000,-1.178536,2.053536,-1.175000,2.055000,0.650000,2.055000,0.653536,2.053536,0.653536,2.053536,$1*%
%AMFreePoly3*
4,1,127,1.178536,2.053536,1.180000,2.050000,1.180000,1.350000,1.178536,1.346464,1.175000,1.345000,0.655000,1.345000,0.655000,-0.500000,0.654994,-0.500238,0.652994,-0.542238,0.652950,-0.542707,0.649950,-0.563707,0.649903,-0.563981,0.645903,-0.583981,0.645864,-0.584158,0.640864,-0.605158,0.640789,-0.605437,0.634789,-0.625437,0.634692,-0.625729,0.627692,-0.644729,0.627642,-0.644857,
0.619642,-0.664857,0.619519,-0.665140,0.610519,-0.684140,0.610371,-0.684428,0.600371,-0.702428,0.600266,-0.702607,0.589266,-0.720607,0.589198,-0.720716,0.578198,-0.737716,0.577972,-0.738037,0.564972,-0.755037,0.564763,-0.755293,0.550763,-0.771293,0.550655,-0.771412,0.536655,-0.786412,0.536412,-0.786655,0.521412,-0.800655,0.521293,-0.800763,0.505293,-0.814763,0.505037,-0.814972,
0.488037,-0.827972,0.487716,-0.828198,0.470716,-0.839198,0.470607,-0.839266,0.452607,-0.850266,0.452428,-0.850371,0.434428,-0.860371,0.434140,-0.860519,0.415140,-0.869519,0.414857,-0.869642,0.394857,-0.877642,0.394729,-0.877692,0.375729,-0.884692,0.375437,-0.884789,0.355437,-0.890789,0.355158,-0.890864,0.334158,-0.895864,0.333981,-0.895903,0.313981,-0.899903,0.313707,-0.899950,
0.292707,-0.902950,0.292238,-0.902994,0.250238,-0.904994,0.250000,-0.905000,-0.250000,-0.905000,-0.250238,-0.904994,-0.292238,-0.902994,-0.292707,-0.902950,-0.313707,-0.899950,-0.313981,-0.899903,-0.333981,-0.895903,-0.334158,-0.895864,-0.355158,-0.890864,-0.355437,-0.890789,-0.375437,-0.884789,-0.375729,-0.884692,-0.394729,-0.877692,-0.394857,-0.877642,-0.414857,-0.869642,-0.415140,-0.869519,
-0.434140,-0.860519,-0.434428,-0.860371,-0.452428,-0.850371,-0.452607,-0.850266,-0.470607,-0.839266,-0.470716,-0.839198,-0.487716,-0.828198,-0.488037,-0.827972,-0.505037,-0.814972,-0.505293,-0.814763,-0.521293,-0.800763,-0.521412,-0.800655,-0.536412,-0.786655,-0.536655,-0.786412,-0.550655,-0.771412,-0.550763,-0.771293,-0.564763,-0.755293,-0.564972,-0.755037,-0.577972,-0.738037,-0.578198,-0.737716,
-0.589198,-0.720716,-0.589266,-0.720607,-0.600266,-0.702607,-0.600371,-0.702428,-0.610371,-0.684428,-0.610519,-0.684140,-0.619519,-0.665140,-0.619642,-0.664857,-0.627642,-0.644857,-0.627692,-0.644729,-0.634692,-0.625729,-0.634789,-0.625437,-0.640789,-0.605437,-0.640864,-0.605158,-0.645864,-0.584158,-0.645903,-0.583981,-0.649903,-0.563981,-0.649950,-0.563707,-0.652950,-0.542707,-0.652994,-0.542238,
-0.654994,-0.500238,-0.655000,-0.500000,-0.655000,2.050000,-0.653536,2.053536,-0.650000,2.055000,1.175000,2.055000,1.178536,2.053536,1.178536,2.053536,$1*%
G04 Aperture macros list end*
%TA.AperFunction,ComponentPad*%
%ADD10R,1.000000X1.000000*%
%TD*%
%TA.AperFunction,ComponentPad*%
%ADD11C,1.000000*%
%TD*%
%TA.AperFunction,ComponentPad*%
%ADD12FreePoly0,180.000000*%
%TD*%
%TA.AperFunction,ComponentPad*%
%ADD13FreePoly1,180.000000*%
%TD*%
%TA.AperFunction,ComponentPad*%
%ADD14FreePoly2,180.000000*%
%TD*%
%TA.AperFunction,ComponentPad*%
%ADD15FreePoly3,180.000000*%
%TD*%
%TA.AperFunction,ComponentPad*%
%ADD16R,1.700000X1.700000*%
%TD*%
%TA.AperFunction,ComponentPad*%
%ADD17C,1.700000*%
%TD*%
%TA.AperFunction,ViaPad*%
%ADD18C,0.600000*%
%TD*%
%TA.AperFunction,Conductor*%
%ADD19C,0.127000*%
%TD*%
%TA.AperFunction,Conductor*%
%ADD20C,0.150000*%
%TD*%
%TA.AperFunction,Conductor*%
%ADD21C,0.200000*%
%TD*%
G04 APERTURE END LIST*
D10*
%TO.P,J1,1,Pin_1_1*%
%TO.N,/SWCLK*%
X188685000Y-94950000D03*
D11*
%TO.P,J1,2,Pin_2_2*%
%TO.N,GND*%
X189955000Y-94950000D03*
%TO.P,J1,3,Pin_3_3*%
%TO.N,/SWDIO*%
X191225000Y-94950000D03*
%TD*%
D12*
%TO.P,J4,SH1,SHIELD_SH1*%
%TO.N,GND*%
X193175000Y-50025000D03*
D13*
%TO.P,J4,SH2,SHIELD__1_SH2*%
X188325000Y-50025000D03*
D14*
%TO.P,J4,SH3,SHIELD__2_SH3*%
X193475000Y-46925000D03*
D15*
%TO.P,J4,SH6,SHIELD__5_SH6*%
X188025000Y-46925000D03*
%TD*%
D16*
%TO.P,J2,1,Pin_1_1*%
%TO.N,/GPIO0*%
X180550000Y-46700000D03*
D17*
%TO.P,J2,2,Pin_2_2*%
%TO.N,/GPIO1*%
X180550000Y-49240000D03*
%TO.P,J2,3,Pin_3_3*%
%TO.N,GND*%
X180550000Y-51780000D03*
%TO.P,J2,4,Pin_4_4*%
%TO.N,/GPIO2*%
X180550000Y-54320000D03*
%TO.P,J2,5,Pin_5_5*%
%TO.N,/GPIO3*%
X180550000Y-56860000D03*
%TO.P,J2,6,Pin_6_6*%
%TO.N,/GPIO4*%
X180550000Y-59400000D03*
%TO.P,J2,7,Pin_7_7*%
%TO.N,/GPIO5*%
X180550000Y-61940000D03*
%TO.P,J2,8,Pin_8_8*%
%TO.N,GND*%
X180550000Y-64480000D03*
%TO.P,J2,9,Pin_9_9*%
%TO.N,/GPIO6*%
X180550000Y-67020000D03*
%TO.P,J2,10,Pin_10_10*%
%TO.N,/GPIO7*%
X180550000Y-69560000D03*
%TO.P,J2,11,Pin_11_11*%
%TO.N,/GPIO8*%
X180550000Y-72100000D03*
%TO.P,J2,12,Pin_12_12*%
%TO.N,/GPIO9*%
X180550000Y-74640000D03*
%TO.P,J2,13,Pin_13_13*%
%TO.N,GND*%
X180550000Y-77180000D03*
%TO.P,J2,14,Pin_14_14*%
%TO.N,/GPIO10*%
X180550000Y-79720000D03*
%TO.P,J2,15,Pin_15_15*%
%TO.N,/GPIO11*%
X180550000Y-82260000D03*
%TO.P,J2,16,Pin_16_16*%
%TO.N,/GPIO12*%
X180550000Y-84800000D03*
%TO.P,J2,17,Pin_17_17*%
%TO.N,/GPIO13*%
X180550000Y-87340000D03*
%TO.P,J2,18,Pin_18_18*%
%TO.N,GND*%
X180550000Y-89880000D03*
%TO.P,J2,19,Pin_19_19*%
%TO.N,/GPIO14*%
X180550000Y-92420000D03*
%TO.P,J2,20,Pin_20_20*%
%TO.N,/GPIO15*%
X180550000Y-94960000D03*
%TD*%
D16*
%TO.P,J3,1,Pin_1_1*%
%TO.N,/GPIO16*%
X198900000Y-94765000D03*
D17*
%TO.P,J3,2,Pin_2_2*%
%TO.N,/GPIO17*%
X198900000Y-92225000D03*
%TO.P,J3,3,Pin_3_3*%
%TO.N,GND*%
X198900000Y-89685000D03*
%TO.P,J3,4,Pin_4_4*%
%TO.N,/GPIO18*%
X198900000Y-87145000D03*
%TO.P,J3,5,Pin_5_5*%
%TO.N,/GPIO19*%
X198900000Y-84605000D03*
%TO.P,J3,6,Pin_6_6*%
%TO.N,/GPIO20*%
X198900000Y-82065000D03*
%TO.P,J3,7,Pin_7_7*%
%TO.N,/GPIO21*%
X198900000Y-79525000D03*
%TO.P,J3,8,Pin_8_8*%
%TO.N,GND*%
X198900000Y-76985000D03*
%TO.P,J3,9,Pin_9_9*%
%TO.N,/GPIO22*%
X198900000Y-74445000D03*
%TO.P,J3,10,Pin_10_10*%
%TO.N,/RUN*%
X198900000Y-71905000D03*
%TO.P,J3,11,Pin_11_11*%
%TO.N,/GPIO26_ADC0*%
X198900000Y-69365000D03*
%TO.P,J3,12,Pin_12_12*%
%TO.N,/GPIO27_ADC1*%
X198900000Y-66825000D03*
%TO.P,J3,13,Pin_13_13*%
%TO.N,GND*%
X198900000Y-64285000D03*
%TO.P,J3,14,Pin_14_14*%
%TO.N,/GPIO28_ADC2*%
X198900000Y-61745000D03*
%TO.P,J3,15,Pin_15_15*%
%TO.N,/ADC_VREF*%
X198900000Y-59205000D03*
%TO.P,J3,16,Pin_16_16*%
%TO.N,GND*%
X198900000Y-56665000D03*
%TO.P,J3,17,Pin_17_17*%
%TO.N,/3V3_EN*%
X198900000Y-54125000D03*
%TO.P,J3,18,Pin_18_18*%
%TO.N,GND*%
X198900000Y-51585000D03*
%TO.P,J3,19,Pin_19_19*%
%TO.N,/VSYS*%
X198900000Y-49045000D03*
%TO.P,J3,20,Pin_20_20*%
%TO.N,/VBUS*%
X198900000Y-46505000D03*
%TD*%
D18*
%TO.N,+3V3*%
X185300000Y-73750000D03*
X185612500Y-75225000D03*
X188750000Y-75400000D03*
X192325000Y-76700000D03*
X193440661Y-66322086D03*
X185462500Y-71950000D03*
X191646875Y-70207850D03*
X194662500Y-71725000D03*
X196575000Y-67712500D03*
X196525000Y-66362500D03*
X189898316Y-64334302D03*
%TO.N,GND*%
X190562500Y-53200000D03*
%TO.N,+3V3*%
X188187500Y-59950000D03*
X190075000Y-58425000D03*
X190075000Y-58400000D03*
X190099000Y-54925000D03*
X192412500Y-53625000D03*
%TO.N,GND*%
X183725000Y-73625000D03*
X183887500Y-75225000D03*
X192725000Y-81825000D03*
X189762500Y-60150000D03*
X187925000Y-58400000D03*
X183925000Y-64000000D03*
%TO.N,/GPIO23*%
X191350000Y-53950000D03*
X193012876Y-55462876D03*
X194196751Y-57850001D03*
X192839331Y-62555092D03*
X192850000Y-60650025D03*
X193038511Y-64313016D03*
X193138499Y-68389045D03*
X193142180Y-72017179D03*
X191294512Y-72425000D03*
X193224999Y-74652458D03*
%TO.N,/GPIO24*%
X193822943Y-74288500D03*
%TO.N,/VSYS*%
X191150000Y-54825000D03*
X189665500Y-53925000D03*
%TO.N,/USB_DM*%
X191400000Y-49750000D03*
X193350000Y-67425000D03*
%TO.N,/USB_DP*%
X192125000Y-67537500D03*
X190797516Y-50850000D03*
%TO.N,GND*%
X189475000Y-50100000D03*
X183887500Y-50850000D03*
X194300000Y-51750000D03*
X194487500Y-53625000D03*
%TO.N,/GPIO28_ADC2*%
X193850000Y-72725000D03*
%TO.N,GND*%
X196525000Y-64637500D03*
X192375831Y-64087500D03*
X186525000Y-67025000D03*
X183925000Y-71950000D03*
X188875000Y-69175000D03*
X190750000Y-73825000D03*
%TO.N,/GPIO25*%
X193225002Y-73825000D03*
X189350000Y-68300000D03*
%TO.N,GND*%
X182606001Y-85955751D03*
X193900000Y-62025000D03*
X195375000Y-63712500D03*
X192525000Y-84925000D03*
X190050000Y-94025000D03*
X191225000Y-74425000D03*
X187775000Y-83137500D03*
X190300000Y-76752000D03*
%TO.N,/XIN*%
X191200000Y-80187500D03*
X190321737Y-78882971D03*
%TO.N,/XR*%
X189675000Y-82100000D03*
X190625000Y-83500000D03*
%TO.N,/GPIO2*%
X182939277Y-70714582D03*
%TO.N,/GPIO3*%
X186675000Y-73100000D03*
%TO.N,/GPIO26_ADC0*%
X195625000Y-73375000D03*
X197502000Y-72593065D03*
%TO.N,/GPIO27_ADC1*%
X195698000Y-72625000D03*
%TO.N,/3V3_EN*%
X195350000Y-54773000D03*
X190237500Y-61950000D03*
%TO.N,/RUN*%
X193025000Y-76825000D03*
X197425000Y-74523000D03*
%TO.N,Net-(U2-LX2)*%
X191049414Y-59224999D03*
X195175000Y-56200000D03*
%TO.N,/GPIO29_ADC3*%
X194625000Y-66420000D03*
X195525225Y-71918827D03*
%TO.N,/XOUT*%
X191200000Y-82012500D03*
X189737500Y-80212500D03*
%TO.N,/QSPI_SS*%
X187500000Y-63150000D03*
X188025000Y-71000000D03*
%TO.N,/QSPI_SD1*%
X187025000Y-63725000D03*
X188700000Y-72625000D03*
%TO.N,/QSPI_SD2*%
X186775000Y-64425003D03*
X189209733Y-72064769D03*
%TO.N,/GPIO24*%
X188511500Y-53375000D03*
%TO.N,+3V3*%
X191325000Y-76950000D03*
X186825000Y-71271425D03*
X188039407Y-68591601D03*
%TD*%
%TO.N,/GPIO24*%
D19*
X192675000Y-72205488D02*
X193856012Y-73386500D01*
X192675000Y-68125000D02*
X192675000Y-72205488D01*
X192057012Y-68125000D02*
X192675000Y-68125000D01*
X191661500Y-67729488D02*
X191933012Y-68001000D01*
X188825000Y-64558526D02*
X188825000Y-64892988D01*
X188748001Y-64481527D02*
X188825000Y-64558526D01*
X191933012Y-68001000D02*
X192057012Y-68125000D01*
X188748000Y-53611500D02*
X188748001Y-64481527D01*
X188511500Y-53375000D02*
X188748000Y-53611500D01*
X188825000Y-64892988D02*
X191661500Y-67729488D01*
%TO.N,/VSYS*%
D20*
X191150000Y-54421752D02*
X191150000Y-54825000D01*
X190875000Y-54146752D02*
X191150000Y-54421752D01*
X189690500Y-53950000D02*
X190750000Y-53950000D01*
X190875000Y-54075000D02*
X190875000Y-54146752D01*
X189665500Y-53925000D02*
X189690500Y-53950000D01*
X190750000Y-53950000D02*
X190875000Y-54075000D01*
%TO.N,/GPIO23*%
D19*
X192862876Y-55462876D02*
X191350000Y-53950000D01*
X193012876Y-55462876D02*
X192862876Y-55462876D01*
X192850000Y-59196752D02*
X194196751Y-57850001D01*
X192850000Y-60650025D02*
X192850000Y-59196752D01*
X193038511Y-62754272D02*
X192839331Y-62555092D01*
X193038511Y-64313016D02*
X193038511Y-62754272D01*
%TO.N,GND*%
X192375831Y-62025000D02*
X193900000Y-62025000D01*
X192375831Y-64087500D02*
X192375831Y-62025000D01*
%TO.N,/GPIO23*%
X193142180Y-68392726D02*
X193138499Y-68389045D01*
X193142180Y-72017179D02*
X193142180Y-68392726D01*
X191425000Y-72425000D02*
X191294512Y-72425000D01*
X191526987Y-72323013D02*
X191425000Y-72425000D01*
X193224999Y-74652458D02*
X192761502Y-74188961D01*
X192761502Y-73557528D02*
X191526987Y-72323013D01*
X192761502Y-74188961D02*
X192761502Y-73557528D01*
%TO.N,/GPIO24*%
X193822943Y-74288500D02*
X193856012Y-74255431D01*
X193856012Y-74255431D02*
X193856012Y-73386500D01*
%TO.N,/GPIO25*%
X189350000Y-69825000D02*
X189350000Y-68300000D01*
X193225002Y-73700002D02*
X189350000Y-69825000D01*
X193225002Y-73825000D02*
X193225002Y-73700002D01*
%TO.N,/USB_DM*%
X191400000Y-50903004D02*
X191400000Y-49750000D01*
X189202000Y-64293474D02*
X189202000Y-52766542D01*
X191883526Y-66975000D02*
X189202000Y-64293474D01*
X190259271Y-51709271D02*
X190593733Y-51709271D01*
X192900000Y-66975000D02*
X191883526Y-66975000D01*
X189202000Y-52766542D02*
X190259271Y-51709271D01*
X193350000Y-67425000D02*
X192900000Y-66975000D01*
X190593733Y-51709271D02*
X191400000Y-50903004D01*
%TO.N,/USB_DP*%
X188975000Y-64387500D02*
X192125000Y-67537500D01*
X190797516Y-50850000D02*
X188975000Y-52672516D01*
X188975000Y-52672516D02*
X188975000Y-64387500D01*
%TO.N,GND*%
X183887500Y-50537500D02*
X183887500Y-50850000D01*
X186700000Y-51375000D02*
X185450000Y-50125000D01*
X184300000Y-50125000D02*
X183887500Y-50537500D01*
X189525000Y-51375000D02*
X186700000Y-51375000D01*
X185450000Y-50125000D02*
X184300000Y-50125000D01*
X189525000Y-50150000D02*
X189525000Y-51375000D01*
X189475000Y-50100000D02*
X189525000Y-50150000D01*
X181480000Y-50850000D02*
X183887500Y-50850000D01*
X180550000Y-51780000D02*
X181480000Y-50850000D01*
X194300000Y-51750000D02*
X194088500Y-51538500D01*
X194088500Y-51538500D02*
X194088500Y-50035412D01*
X196860000Y-53625000D02*
X194487500Y-53625000D01*
X198900000Y-51585000D02*
X196860000Y-53625000D01*
%TO.N,/GPIO28_ADC2*%
X198644512Y-61745000D02*
X193850000Y-66539512D01*
X193850000Y-66539512D02*
X193850000Y-72725000D01*
X198900000Y-61745000D02*
X198644512Y-61745000D01*
%TO.N,GND*%
X196877500Y-64285000D02*
X196525000Y-64637500D01*
X198900000Y-64285000D02*
X196877500Y-64285000D01*
X183925000Y-69625000D02*
X186525000Y-67025000D01*
X183925000Y-71950000D02*
X183925000Y-69625000D01*
D20*
X188875000Y-69700000D02*
X188875000Y-69175000D01*
X190750000Y-71575000D02*
X188875000Y-69700000D01*
X190750000Y-73825000D02*
X190750000Y-71575000D01*
X194140000Y-84925000D02*
X192525000Y-84925000D01*
X182606001Y-85955751D02*
X184956749Y-85955751D01*
X193900000Y-62025000D02*
X193900000Y-62237500D01*
X198900000Y-89685000D02*
X194140000Y-84925000D01*
X190050000Y-94025000D02*
X189125000Y-93100000D01*
X184375000Y-93100000D02*
X181155000Y-89880000D01*
X190300000Y-75350000D02*
X191225000Y-74425000D01*
X184956749Y-85955751D02*
X187775000Y-83137500D01*
X181155000Y-89880000D02*
X180550000Y-89880000D01*
X189125000Y-93100000D02*
X184375000Y-93100000D01*
X190300000Y-76752000D02*
X190300000Y-75350000D01*
X193900000Y-62237500D02*
X195375000Y-63712500D01*
%TO.N,/XIN*%
D21*
X190321737Y-78882971D02*
X190321737Y-79309237D01*
X190321737Y-79309237D02*
X191200000Y-80187500D01*
%TO.N,/XR*%
X190625000Y-83050000D02*
X189675000Y-82100000D01*
X190625000Y-83500000D02*
X190625000Y-83050000D01*
%TO.N,/GPIO2*%
D20*
X182939277Y-70714582D02*
X182939277Y-56709277D01*
X182939277Y-56709277D02*
X180550000Y-54320000D01*
%TO.N,/GPIO3*%
X182060000Y-56860000D02*
X180550000Y-56860000D01*
X182450000Y-57300000D02*
X182475000Y-57275000D01*
X182450000Y-72025000D02*
X182450000Y-57300000D01*
X182850000Y-72425000D02*
X182450000Y-72025000D01*
X182475000Y-57275000D02*
X182060000Y-56860000D01*
X186000000Y-72425000D02*
X182850000Y-72425000D01*
X186675000Y-73100000D02*
X186000000Y-72425000D01*
%TO.N,/GPIO26_ADC0*%
X197502000Y-72593065D02*
X196720065Y-73375000D01*
X196720065Y-73375000D02*
X195625000Y-73375000D01*
%TO.N,/GPIO27_ADC1*%
X195698000Y-72625000D02*
X196623000Y-71700000D01*
X196623000Y-71700000D02*
X197525000Y-71700000D01*
X197525000Y-68200000D02*
X198900000Y-66825000D01*
X197525000Y-71700000D02*
X197525000Y-68200000D01*
%TO.N,/3V3_EN*%
X195350000Y-54773000D02*
X194829661Y-54773000D01*
X190237500Y-59365161D02*
X190237500Y-61950000D01*
X196475000Y-54125000D02*
X198900000Y-54125000D01*
X195827000Y-54773000D02*
X196475000Y-54125000D01*
X195350000Y-54773000D02*
X195827000Y-54773000D01*
X194829661Y-54773000D02*
X190237500Y-59365161D01*
%TO.N,/RUN*%
X197425000Y-74523000D02*
X195327000Y-74523000D01*
X195327000Y-74523000D02*
X193025000Y-76825000D01*
%TO.N,Net-(U2-LX2)*%
X191049414Y-59224999D02*
X192150001Y-59224999D01*
X192150001Y-59224999D02*
X195175000Y-56200000D01*
%TO.N,/GPIO29_ADC3*%
X195825000Y-66775000D02*
X195470000Y-66420000D01*
X195825000Y-71619052D02*
X195825000Y-66775000D01*
X195470000Y-66420000D02*
X194625000Y-66420000D01*
X195525225Y-71918827D02*
X195825000Y-71619052D01*
%TO.N,/XOUT*%
D21*
X189737500Y-80550000D02*
X191200000Y-82012500D01*
X189737500Y-80212500D02*
X189737500Y-80550000D01*
%TO.N,/QSPI_SS*%
D20*
X187500000Y-70475000D02*
X187500000Y-63150000D01*
X188025000Y-71000000D02*
X187500000Y-70475000D01*
%TO.N,/QSPI_SD1*%
X187550000Y-70878554D02*
X187250000Y-70578554D01*
X188700000Y-72625000D02*
X187550000Y-71475000D01*
X187250000Y-63950000D02*
X187025000Y-63725000D01*
X187250000Y-70578554D02*
X187250000Y-63950000D01*
X187550000Y-71475000D02*
X187550000Y-70878554D01*
%TO.N,/QSPI_SD2*%
X187000000Y-64650003D02*
X186775000Y-64425003D01*
X188550000Y-73275000D02*
X188185723Y-72910723D01*
X189200000Y-73275000D02*
X188550000Y-73275000D01*
X187300000Y-70982108D02*
X187000000Y-70682107D01*
X187300000Y-71578554D02*
X187300000Y-70982108D01*
X187000000Y-70682107D02*
X187000000Y-64650003D01*
X188185723Y-72910723D02*
X188185723Y-72464277D01*
X189209733Y-72064769D02*
X189209733Y-73265267D01*
X189209733Y-73265267D02*
X189200000Y-73275000D01*
X188185723Y-72464277D02*
X187300000Y-71578554D01*
%TO.N,/GPIO24*%
D19*
X193856012Y-73386500D02*
X193866988Y-73386500D01*
%TD*%
M02*
