%TF.GenerationSoftware,KiCad,Pcbnew,10.0.3*%
%TF.CreationDate,2026-08-03T17:03:01+05:45*%
%TF.ProjectId,rasberry pi pico,72617362-6572-4727-9920-706920706963,rev?*%
%TF.SameCoordinates,Original*%
%TF.FileFunction,Copper,L1,Top*%
%TF.FilePolarity,Positive*%
%FSLAX46Y46*%
G04 Gerber Fmt 4.6, Leading zero omitted, Abs format (unit mm)*
G04 Created by KiCad (PCBNEW 10.0.3) date 2026-08-03 17:03:01*
%MOMM*%
%LPD*%
G01*
G04 APERTURE LIST*
G04 Aperture macros list*
%AMRoundRect*
0 Rectangle with rounded corners*
0 $1 Rounding radius*
0 $2 $3 $4 $5 $6 $7 $8 $9 X,Y pos of 4 corners*
0 Add a 4 corners polygon primitive as box body*
4,1,4,$2,$3,$4,$5,$6,$7,$8,$9,$2,$3,0*
0 Add four circle primitives for the rounded corners*
1,1,$1+$1,$2,$3*
1,1,$1+$1,$4,$5*
1,1,$1+$1,$6,$7*
1,1,$1+$1,$8,$9*
0 Add four rect primitives between the rounded corners*
20,1,$1+$1,$2,$3,$4,$5,0*
20,1,$1+$1,$4,$5,$6,$7,0*
20,1,$1+$1,$6,$7,$8,$9,0*
20,1,$1+$1,$8,$9,$2,$3,0*%
%AMFreePoly0*
4,1,13,0.528536,0.723536,0.530000,0.720000,0.530000,-0.800000,0.528536,-0.803536,0.525000,-0.805000,-1.475000,-0.805000,-1.478536,-0.803536,-1.480000,-0.800000,-1.480000,0.720000,-1.478536,0.723536,-1.475000,0.725000,0.525000,0.725000,0.528536,0.723536,0.528536,0.723536,$1*%
%AMFreePoly1*
4,1,13,1.478536,0.723536,1.480000,0.720000,1.480000,-0.800000,1.478536,-0.803536,1.475000,-0.805000,-0.525000,-0.805000,-0.528536,-0.803536,-0.530000,-0.800000,-0.530000,0.720000,-0.528536,0.723536,-0.525000,0.725000,1.475000,0.725000,1.478536,0.723536,1.478536,0.723536,$1*%
%AMFreePoly2*
4,1,127,0.653536,2.053536,0.655000,2.050000,0.655000,-0.500000,0.654994,-0.500238,0.652994,-0.542238,0.652950,-0.542707,0.649950,-0.563707,0.649903,-0.563981,0.645903,-0.583981,0.645864,-0.584158,0.640864,-0.605158,0.640789,-0.605437,0.634789,-0.625437,0.634692,-0.625729,0.627692,-0.644729,0.627642,-0.644857,0.619642,-0.664857,0.619519,-0.665140,0.610519,-0.684140,0.610371,-0.684428,
0.600371,-0.702428,0.600266,-0.702607,0.589266,-0.720607,0.589198,-0.720716,0.578198,-0.737716,0.577972,-0.738037,0.564972,-0.755037,0.564763,-0.755293,0.550763,-0.771293,0.550655,-0.771412,0.536655,-0.786412,0.536412,-0.786655,0.521412,-0.800655,0.521293,-0.800763,0.505293,-0.814763,0.505037,-0.814972,0.488037,-0.827972,0.487716,-0.828198,0.470716,-0.839198,0.470607,-0.839266,
0.452607,-0.850266,0.452428,-0.850371,0.434428,-0.860371,0.434140,-0.860519,0.415140,-0.869519,0.414857,-0.869642,0.394857,-0.877642,0.394729,-0.877692,0.375729,-0.884692,0.375437,-0.884789,0.355437,-0.890789,0.355158,-0.890864,0.334158,-0.895864,0.333981,-0.895903,0.313981,-0.899903,0.313707,-0.899950,0.292707,-0.902950,0.292238,-0.902994,0.250238,-0.904994,0.250000,-0.905000,
-0.250000,-0.905000,-0.250238,-0.904994,-0.292238,-0.902994,-0.292707,-0.902950,-0.313707,-0.899950,-0.313981,-0.899903,-0.333981,-0.895903,-0.334158,-0.895864,-0.355158,-0.890864,-0.355437,-0.890789,-0.375437,-0.884789,-0.375729,-0.884692,-0.394729,-0.877692,-0.394857,-0.877642,-0.414857,-0.869642,-0.415140,-0.869519,-0.434140,-0.860519,-0.434428,-0.860371,-0.452428,-0.850371,-0.452607,-0.850266,
-0.470607,-0.839266,-0.470716,-0.839198,-0.487716,-0.828198,-0.488037,-0.827972,-0.505037,-0.814972,-0.505293,-0.814763,-0.521293,-0.800763,-0.521412,-0.800655,-0.536412,-0.786655,-0.536655,-0.786412,-0.550655,-0.771412,-0.550763,-0.771293,-0.564763,-0.755293,-0.564972,-0.755037,-0.577972,-0.738037,-0.578198,-0.737716,-0.589198,-0.720716,-0.589266,-0.720607,-0.600266,-0.702607,-0.600371,-0.702428,
-0.610371,-0.684428,-0.610519,-0.684140,-0.619519,-0.665140,-0.619642,-0.664857,-0.627642,-0.644857,-0.627692,-0.644729,-0.634692,-0.625729,-0.634789,-0.625437,-0.640789,-0.605437,-0.640864,-0.605158,-0.645864,-0.584158,-0.645903,-0.583981,-0.649903,-0.563981,-0.649950,-0.563707,-0.652950,-0.542707,-0.652994,-0.542238,-0.654994,-0.500238,-0.655000,-0.500000,-0.655000,1.345000,-1.175000,1.345000,
-1.178536,1.346464,-1.180000,1.350000,-1.180000,2.050000,-1.178536,2.053536,-1.175000,2.055000,0.650000,2.055000,0.653536,2.053536,0.653536,2.053536,$1*%
%AMFreePoly3*
4,1,127,1.178536,2.053536,1.180000,2.050000,1.180000,1.350000,1.178536,1.346464,1.175000,1.345000,0.655000,1.345000,0.655000,-0.500000,0.654994,-0.500238,0.652994,-0.542238,0.652950,-0.542707,0.649950,-0.563707,0.649903,-0.563981,0.645903,-0.583981,0.645864,-0.584158,0.640864,-0.605158,0.640789,-0.605437,0.634789,-0.625437,0.634692,-0.625729,0.627692,-0.644729,0.627642,-0.644857,
0.619642,-0.664857,0.619519,-0.665140,0.610519,-0.684140,0.610371,-0.684428,0.600371,-0.702428,0.600266,-0.702607,0.589266,-0.720607,0.589198,-0.720716,0.578198,-0.737716,0.577972,-0.738037,0.564972,-0.755037,0.564763,-0.755293,0.550763,-0.771293,0.550655,-0.771412,0.536655,-0.786412,0.536412,-0.786655,0.521412,-0.800655,0.521293,-0.800763,0.505293,-0.814763,0.505037,-0.814972,
0.488037,-0.827972,0.487716,-0.828198,0.470716,-0.839198,0.470607,-0.839266,0.452607,-0.850266,0.452428,-0.850371,0.434428,-0.860371,0.434140,-0.860519,0.415140,-0.869519,0.414857,-0.869642,0.394857,-0.877642,0.394729,-0.877692,0.375729,-0.884692,0.375437,-0.884789,0.355437,-0.890789,0.355158,-0.890864,0.334158,-0.895864,0.333981,-0.895903,0.313981,-0.899903,0.313707,-0.899950,
0.292707,-0.902950,0.292238,-0.902994,0.250238,-0.904994,0.250000,-0.905000,-0.250000,-0.905000,-0.250238,-0.904994,-0.292238,-0.902994,-0.292707,-0.902950,-0.313707,-0.899950,-0.313981,-0.899903,-0.333981,-0.895903,-0.334158,-0.895864,-0.355158,-0.890864,-0.355437,-0.890789,-0.375437,-0.884789,-0.375729,-0.884692,-0.394729,-0.877692,-0.394857,-0.877642,-0.414857,-0.869642,-0.415140,-0.869519,
-0.434140,-0.860519,-0.434428,-0.860371,-0.452428,-0.850371,-0.452607,-0.850266,-0.470607,-0.839266,-0.470716,-0.839198,-0.487716,-0.828198,-0.488037,-0.827972,-0.505037,-0.814972,-0.505293,-0.814763,-0.521293,-0.800763,-0.521412,-0.800655,-0.536412,-0.786655,-0.536655,-0.786412,-0.550655,-0.771412,-0.550763,-0.771293,-0.564763,-0.755293,-0.564972,-0.755037,-0.577972,-0.738037,-0.578198,-0.737716,
-0.589198,-0.720716,-0.589266,-0.720607,-0.600266,-0.702607,-0.600371,-0.702428,-0.610371,-0.684428,-0.610519,-0.684140,-0.619519,-0.665140,-0.619642,-0.664857,-0.627642,-0.644857,-0.627692,-0.644729,-0.634692,-0.625729,-0.634789,-0.625437,-0.640789,-0.605437,-0.640864,-0.605158,-0.645864,-0.584158,-0.645903,-0.583981,-0.649903,-0.563981,-0.649950,-0.563707,-0.652950,-0.542707,-0.652994,-0.542238,
-0.654994,-0.500238,-0.655000,-0.500000,-0.655000,2.050000,-0.653536,2.053536,-0.650000,2.055000,1.175000,2.055000,1.178536,2.053536,1.178536,2.053536,$1*%
G04 Aperture macros list end*
%TA.AperFunction,SMDPad,CuDef*%
%ADD10RoundRect,0.237500X-0.300000X-0.237500X0.300000X-0.237500X0.300000X0.237500X-0.300000X0.237500X0*%
%TD*%
%TA.AperFunction,SMDPad,CuDef*%
%ADD11RoundRect,0.237500X-0.250000X-0.237500X0.250000X-0.237500X0.250000X0.237500X-0.250000X0.237500X0*%
%TD*%
%TA.AperFunction,SMDPad,CuDef*%
%ADD12RoundRect,0.162500X-0.162500X0.650000X-0.162500X-0.650000X0.162500X-0.650000X0.162500X0.650000X0*%
%TD*%
%TA.AperFunction,SMDPad,CuDef*%
%ADD13RoundRect,0.237500X0.250000X0.237500X-0.250000X0.237500X-0.250000X-0.237500X0.250000X-0.237500X0*%
%TD*%
%TA.AperFunction,SMDPad,CuDef*%
%ADD14RoundRect,0.200000X-0.250000X-0.200000X0.250000X-0.200000X0.250000X0.200000X-0.250000X0.200000X0*%
%TD*%
%TA.AperFunction,SMDPad,CuDef*%
%ADD15RoundRect,0.218750X-0.218750X-0.256250X0.218750X-0.256250X0.218750X0.256250X-0.218750X0.256250X0*%
%TD*%
%TA.AperFunction,SMDPad,CuDef*%
%ADD16RoundRect,0.237500X-0.237500X0.300000X-0.237500X-0.300000X0.237500X-0.300000X0.237500X0.300000X0*%
%TD*%
%TA.AperFunction,SMDPad,CuDef*%
%ADD17RoundRect,0.237500X0.237500X-0.300000X0.237500X0.300000X-0.237500X0.300000X-0.237500X-0.300000X0*%
%TD*%
%TA.AperFunction,SMDPad,CuDef*%
%ADD18RoundRect,0.237500X0.237500X-0.250000X0.237500X0.250000X-0.237500X0.250000X-0.237500X-0.250000X0*%
%TD*%
%TA.AperFunction,SMDPad,CuDef*%
%ADD19RoundRect,0.237500X0.300000X0.237500X-0.300000X0.237500X-0.300000X-0.237500X0.300000X-0.237500X0*%
%TD*%
%TA.AperFunction,SMDPad,CuDef*%
%ADD20RoundRect,0.250000X-0.337500X-0.475000X0.337500X-0.475000X0.337500X0.475000X-0.337500X0.475000X0*%
%TD*%
%TA.AperFunction,SMDPad,CuDef*%
%ADD21R,0.300000X0.850000*%
%TD*%
%TA.AperFunction,SMDPad,CuDef*%
%ADD22R,2.000000X1.200000*%
%TD*%
%TA.AperFunction,SMDPad,CuDef*%
%ADD23RoundRect,0.237500X-0.237500X0.250000X-0.237500X-0.250000X0.237500X-0.250000X0.237500X0.250000X0*%
%TD*%
%TA.AperFunction,SMDPad,CuDef*%
%ADD24C,2.500000*%
%TD*%
%TA.AperFunction,ComponentPad*%
%ADD25R,1.000000X1.000000*%
%TD*%
%TA.AperFunction,ComponentPad*%
%ADD26C,1.000000*%
%TD*%
%TA.AperFunction,SMDPad,CuDef*%
%ADD27RoundRect,0.100000X-0.100000X0.155000X-0.100000X-0.155000X0.100000X-0.155000X0.100000X0.155000X0*%
%TD*%
%TA.AperFunction,SMDPad,CuDef*%
%ADD28RoundRect,0.250000X0.300000X-0.300000X0.300000X0.300000X-0.300000X0.300000X-0.300000X-0.300000X0*%
%TD*%
%TA.AperFunction,SMDPad,CuDef*%
%ADD29RoundRect,0.250000X0.450000X0.275000X-0.450000X0.275000X-0.450000X-0.275000X0.450000X-0.275000X0*%
%TD*%
%TA.AperFunction,SMDPad,CuDef*%
%ADD30RoundRect,0.050000X-0.387500X-0.050000X0.387500X-0.050000X0.387500X0.050000X-0.387500X0.050000X0*%
%TD*%
%TA.AperFunction,SMDPad,CuDef*%
%ADD31RoundRect,0.050000X-0.050000X-0.387500X0.050000X-0.387500X0.050000X0.387500X-0.050000X0.387500X0*%
%TD*%
%TA.AperFunction,HeatsinkPad*%
%ADD32R,3.200000X3.200000*%
%TD*%
%TA.AperFunction,SMDPad,CuDef*%
%ADD33R,0.400000X1.750000*%
%TD*%
%TA.AperFunction,ComponentPad*%
%ADD34FreePoly0,180.000000*%
%TD*%
%TA.AperFunction,ComponentPad*%
%ADD35FreePoly1,180.000000*%
%TD*%
%TA.AperFunction,ComponentPad*%
%ADD36FreePoly2,180.000000*%
%TD*%
%TA.AperFunction,SMDPad,CuDef*%
%ADD37R,1.475000X2.500000*%
%TD*%
%TA.AperFunction,ComponentPad*%
%ADD38FreePoly3,180.000000*%
%TD*%
%TA.AperFunction,SMDPad,CuDef*%
%ADD39RoundRect,0.250001X1.549999X-0.499999X1.549999X0.499999X-1.549999X0.499999X-1.549999X-0.499999X0*%
%TD*%
%TA.AperFunction,ComponentPad*%
%ADD40R,1.700000X1.700000*%
%TD*%
%TA.AperFunction,ComponentPad*%
%ADD41C,1.700000*%
%TD*%
%TA.AperFunction,ViaPad*%
%ADD42C,0.600000*%
%TD*%
%TA.AperFunction,Conductor*%
%ADD43C,0.150000*%
%TD*%
%TA.AperFunction,Conductor*%
%ADD44C,0.127000*%
%TD*%
%TA.AperFunction,Conductor*%
%ADD45C,0.200000*%
%TD*%
G04 APERTURE END LIST*
D10*
%TO.P,C5,2*%
%TO.N,+3V3*%
X184962500Y-72050000D03*
%TO.P,C5,1*%
%TO.N,GND*%
X183237500Y-72050000D03*
%TD*%
D11*
%TO.P,R10,1*%
%TO.N,/GPIO24*%
X189012500Y-51725000D03*
%TO.P,R10,2*%
%TO.N,/VBUS*%
X190837500Y-51725000D03*
%TD*%
D12*
%TO.P,U3,1,~{CS}_1*%
%TO.N,/QSPI_SS*%
X187502500Y-61812500D03*
%TO.P,U3,2,DO/IO_{1}_2*%
%TO.N,/QSPI_SD1*%
X186232500Y-61812500D03*
%TO.P,U3,3,~{WP}/IO_{2}_3*%
%TO.N,/QSPI_SD2*%
X184962500Y-61812500D03*
%TO.P,U3,4,GND_4*%
%TO.N,GND*%
X183692500Y-61812500D03*
%TO.P,U3,5,DI/IO_{0}_5*%
%TO.N,/QSPI_SD0*%
X183692500Y-68987500D03*
%TO.P,U3,6,CLK_6*%
%TO.N,/QSPI_SCLK*%
X184962500Y-68987500D03*
%TO.P,U3,7,~{HOLD}/~{RESET}/IO_{3}_7*%
%TO.N,/QSPI_SD3*%
X186232500Y-68987500D03*
%TO.P,U3,8,VCC_8*%
%TO.N,+3V3*%
X187502500Y-68987500D03*
%TD*%
D10*
%TO.P,C14,1*%
%TO.N,+3V3*%
X189675000Y-64900000D03*
%TO.P,C14,2*%
%TO.N,GND*%
X191400000Y-64900000D03*
%TD*%
D13*
%TO.P,R12,1*%
%TO.N,/QSPI_SS*%
X184887500Y-59950000D03*
%TO.P,R12,2*%
%TO.N,Net-(R12-Pad2)*%
X183062500Y-59950000D03*
%TD*%
D14*
%TO.P,Y1,1,1_1*%
%TO.N,/XIN*%
X189300000Y-84637500D03*
%TO.P,Y1,2,G_2*%
%TO.N,GND*%
X190700000Y-84637500D03*
%TO.P,Y1,3,3_3*%
%TO.N,/XR*%
X190700000Y-83537500D03*
%TO.P,Y1,4,G_4*%
%TO.N,GND*%
X189300000Y-83537500D03*
%TD*%
D15*
%TO.P,D1,1,K_1*%
%TO.N,GND*%
X183887500Y-50850000D03*
%TO.P,D1,2,A_2*%
%TO.N,Net-(D1-A)*%
X185462500Y-50850000D03*
%TD*%
D13*
%TO.P,R8,1*%
%TO.N,GND*%
X194237500Y-51825000D03*
%TO.P,R8,2*%
%TO.N,/GPIO23*%
X192412500Y-51825000D03*
%TD*%
D16*
%TO.P,C8,1*%
%TO.N,+1V1*%
X192725000Y-80100000D03*
%TO.P,C8,2*%
%TO.N,GND*%
X192725000Y-81825000D03*
%TD*%
D17*
%TO.P,C9,1*%
%TO.N,/XIN*%
X187775000Y-84862500D03*
%TO.P,C9,2*%
%TO.N,GND*%
X187775000Y-83137500D03*
%TD*%
%TO.P,C15,1*%
%TO.N,Net-(Q1-D)*%
X193775000Y-63612500D03*
%TO.P,C15,2*%
%TO.N,GND*%
X193775000Y-61887500D03*
%TD*%
D13*
%TO.P,R15,1*%
%TO.N,Net-(Q1-D)*%
X191525000Y-63450000D03*
%TO.P,R15,2*%
%TO.N,/VSYS*%
X189700000Y-63450000D03*
%TD*%
D16*
%TO.P,C10,1*%
%TO.N,/XR*%
X192525000Y-83200000D03*
%TO.P,C10,2*%
%TO.N,GND*%
X192525000Y-84925000D03*
%TD*%
D11*
%TO.P,R13,1*%
%TO.N,/QSPI_SS*%
X186362500Y-59950000D03*
%TO.P,R13,2*%
%TO.N,+3V3*%
X188187500Y-59950000D03*
%TD*%
D18*
%TO.P,R2,1*%
%TO.N,/ADC_VREF*%
X196600000Y-72812500D03*
%TO.P,R2,2*%
%TO.N,/ADC_AVDD*%
X196600000Y-70987500D03*
%TD*%
D19*
%TO.P,C13,1*%
%TO.N,+3V3*%
X185612500Y-75225000D03*
%TO.P,C13,2*%
%TO.N,GND*%
X183887500Y-75225000D03*
%TD*%
D20*
%TO.P,C12,1*%
%TO.N,GND*%
X189787500Y-60150000D03*
%TO.P,C12,2*%
%TO.N,/VSYS*%
X191862500Y-60150000D03*
%TD*%
D10*
%TO.P,C4,1*%
%TO.N,GND*%
X188875000Y-69175000D03*
%TO.P,C4,2*%
%TO.N,+1V1*%
X190600000Y-69175000D03*
%TD*%
D16*
%TO.P,C3,1*%
%TO.N,GND*%
X196525000Y-64637500D03*
%TO.P,C3,2*%
%TO.N,+3V3*%
X196525000Y-66362500D03*
%TD*%
D21*
%TO.P,U2,1,VOUT_1*%
%TO.N,+3V3*%
X190150000Y-58400000D03*
%TO.P,U2,2,LX2_2*%
%TO.N,Net-(U2-LX2)*%
X190650000Y-58400000D03*
%TO.P,U2,3,GND_3*%
%TO.N,GND*%
X191150000Y-58400000D03*
%TO.P,U2,4,LX1_4*%
%TO.N,Net-(U2-LX1)*%
X191650000Y-58400000D03*
%TO.P,U2,5,VIN_5*%
%TO.N,/VSYS*%
X192150000Y-58400000D03*
%TO.P,U2,6,EN_6*%
%TO.N,/3V3_EN*%
X192150000Y-55950000D03*
%TO.P,U2,7,PS_7*%
%TO.N,/GPIO23*%
X191650000Y-55950000D03*
%TO.P,U2,8,VINA_8*%
%TO.N,/VSYS*%
X191150000Y-55950000D03*
%TO.P,U2,9,GND__1_9*%
%TO.N,GND*%
X190650000Y-55950000D03*
%TO.P,U2,10,FB_10*%
%TO.N,+3V3*%
X190150000Y-55950000D03*
D22*
%TO.P,U2,11,EXP_11*%
%TO.N,unconnected-(U2-EXP-Pad11)*%
X191150000Y-57175000D03*
%TD*%
D23*
%TO.P,R5,1*%
%TO.N,/XIN*%
X191200000Y-80187500D03*
%TO.P,R5,2*%
%TO.N,/XOUT*%
X191200000Y-82012500D03*
%TD*%
D17*
%TO.P,C6,1*%
%TO.N,/ADC_AVDD*%
X195100000Y-69437500D03*
%TO.P,C6,2*%
%TO.N,GND*%
X195100000Y-67712500D03*
%TD*%
D24*
%TO.P,TP6,1,1_1*%
%TO.N,Net-(R12-Pad2)*%
X184625000Y-53325000D03*
%TD*%
D18*
%TO.P,R14,1*%
%TO.N,GND*%
X195375000Y-63712500D03*
%TO.P,R14,2*%
%TO.N,Net-(Q1-D)*%
X195375000Y-61887500D03*
%TD*%
D23*
%TO.P,R7,1*%
%TO.N,Net-(D1-A)*%
X187200000Y-52287500D03*
%TO.P,R7,2*%
%TO.N,/GPIO25*%
X187200000Y-54112500D03*
%TD*%
D18*
%TO.P,R1,1*%
%TO.N,+3V3*%
X196475000Y-75987500D03*
%TO.P,R1,2*%
%TO.N,/ADC_VREF*%
X196475000Y-74162500D03*
%TD*%
D11*
%TO.P,R9,1*%
%TO.N,/3V3_EN*%
X190237500Y-61950000D03*
%TO.P,R9,2*%
%TO.N,/VSYS*%
X192062500Y-61950000D03*
%TD*%
D25*
%TO.P,J1,1,Pin_1_1*%
%TO.N,/SWCLK*%
X188685000Y-94950000D03*
D26*
%TO.P,J1,2,Pin_2_2*%
%TO.N,GND*%
X189955000Y-94950000D03*
%TO.P,J1,3,Pin_3_3*%
%TO.N,/SWDIO*%
X191225000Y-94950000D03*
%TD*%
D17*
%TO.P,C1,1*%
%TO.N,GND*%
X196575000Y-69437500D03*
%TO.P,C1,2*%
%TO.N,+3V3*%
X196575000Y-67712500D03*
%TD*%
D10*
%TO.P,C2,1*%
%TO.N,GND*%
X189562500Y-66375000D03*
%TO.P,C2,2*%
%TO.N,+1V1*%
X191287500Y-66375000D03*
%TD*%
D13*
%TO.P,R11,1*%
%TO.N,GND*%
X190562500Y-53200000D03*
%TO.P,R11,2*%
%TO.N,/GPIO24*%
X188737500Y-53200000D03*
%TD*%
D27*
%TO.P,Q1,1,G_1*%
%TO.N,+3V3*%
X193625000Y-66420000D03*
%TO.P,Q1,2,S_2*%
%TO.N,/GPIO29_ADC3*%
X194625000Y-66420000D03*
%TO.P,Q1,3,D_3*%
%TO.N,Net-(Q1-D)*%
X194125000Y-65130000D03*
%TD*%
D23*
%TO.P,R3,1*%
%TO.N,/USB_DP*%
X192125000Y-67537500D03*
%TO.P,R3,2*%
%TO.N,/USB_DPX*%
X192125000Y-69362500D03*
%TD*%
D28*
%TO.P,D2,1,K_1*%
%TO.N,/VSYS*%
X196575000Y-54275000D03*
%TO.P,D2,2,A_2*%
%TO.N,/VBUS*%
X196575000Y-51475000D03*
%TD*%
D29*
%TO.P,SW1,1,1_1*%
%TO.N,GND*%
X187650000Y-58245000D03*
X184050000Y-58245000D03*
%TO.P,SW1,2,2_2*%
%TO.N,Net-(R12-Pad2)*%
X187650000Y-56805000D03*
X184050000Y-56805000D03*
%TD*%
D30*
%TO.P,U1,1,IOVDD_1*%
%TO.N,+3V3*%
X187787500Y-71825000D03*
%TO.P,U1,2,GPIO0_2*%
%TO.N,/GPIO0*%
X187787500Y-72225000D03*
%TO.P,U1,3,GPIO1_3*%
%TO.N,/GPIO1*%
X187787500Y-72625000D03*
%TO.P,U1,4,GPIO2_4*%
%TO.N,/GPIO2*%
X187787500Y-73025000D03*
%TO.P,U1,5,GPIO3_5*%
%TO.N,/GPIO3*%
X187787500Y-73425000D03*
%TO.P,U1,6,GPIO4_6*%
%TO.N,/GPIO4*%
X187787500Y-73825000D03*
%TO.P,U1,7,GPIO5_7*%
%TO.N,/GPIO5*%
X187787500Y-74225000D03*
%TO.P,U1,8,GPIO6_8*%
%TO.N,/GPIO6*%
X187787500Y-74625000D03*
%TO.P,U1,9,GPIO7_9*%
%TO.N,/GPIO7*%
X187787500Y-75025000D03*
%TO.P,U1,10,IOVDD_10*%
%TO.N,+3V3*%
X187787500Y-75425000D03*
%TO.P,U1,11,GPIO8_11*%
%TO.N,/GPIO8*%
X187787500Y-75825000D03*
%TO.P,U1,12,GPIO9_12*%
%TO.N,/GPIO9*%
X187787500Y-76225000D03*
%TO.P,U1,13,GPIO10_13*%
%TO.N,/GPIO10*%
X187787500Y-76625000D03*
%TO.P,U1,14,GPIO11_14*%
%TO.N,/GPIO11*%
X187787500Y-77025000D03*
D31*
%TO.P,U1,15,GPIO12_15*%
%TO.N,/GPIO12*%
X188625000Y-77862500D03*
%TO.P,U1,16,GPIO13_16*%
%TO.N,/GPIO13*%
X189025000Y-77862500D03*
%TO.P,U1,17,GPIO14_17*%
%TO.N,/GPIO14*%
X189425000Y-77862500D03*
%TO.P,U1,18,GPIO15_18*%
%TO.N,/GPIO15*%
X189825000Y-77862500D03*
%TO.P,U1,19,TESTEN_19*%
%TO.N,GND*%
X190225000Y-77862500D03*
%TO.P,U1,20,XIN_20*%
%TO.N,/XIN*%
X190625000Y-77862500D03*
%TO.P,U1,21,XOUT_21*%
%TO.N,/XOUT*%
X191025000Y-77862500D03*
%TO.P,U1,22,IOVDD_22*%
%TO.N,+3V3*%
X191425000Y-77862500D03*
%TO.P,U1,23,DVDD_23*%
%TO.N,+1V1*%
X191825000Y-77862500D03*
%TO.P,U1,24,SWCLK_24*%
%TO.N,/SWCLK*%
X192225000Y-77862500D03*
%TO.P,U1,25,SWDIO_25*%
%TO.N,/SWDIO*%
X192625000Y-77862500D03*
%TO.P,U1,26,RUN_26*%
%TO.N,/RUN*%
X193025000Y-77862500D03*
%TO.P,U1,27,GPIO16_27*%
%TO.N,/GPIO16*%
X193425000Y-77862500D03*
%TO.P,U1,28,GPIO17_28*%
%TO.N,/GPIO17*%
X193825000Y-77862500D03*
D30*
%TO.P,U1,29,GPIO18_29*%
%TO.N,/GPIO18*%
X194662500Y-77025000D03*
%TO.P,U1,30,GPIO19_30*%
%TO.N,/GPIO19*%
X194662500Y-76625000D03*
%TO.P,U1,31,GPIO20_31*%
%TO.N,/GPIO20*%
X194662500Y-76225000D03*
%TO.P,U1,32,GPIO21_32*%
%TO.N,/GPIO21*%
X194662500Y-75825000D03*
%TO.P,U1,33,IOVDD_33*%
%TO.N,+3V3*%
X194662500Y-75425000D03*
%TO.P,U1,34,GPIO22_34*%
%TO.N,/GPIO22*%
X194662500Y-75025000D03*
%TO.P,U1,35,GPIO23_35*%
%TO.N,/GPIO23*%
X194662500Y-74625000D03*
%TO.P,U1,36,GPIO24_36*%
%TO.N,/GPIO24*%
X194662500Y-74225000D03*
%TO.P,U1,37,GPIO25_37*%
%TO.N,/GPIO25*%
X194662500Y-73825000D03*
%TO.P,U1,38,GPIO26/ADC0_38*%
%TO.N,/GPIO26_ADC0*%
X194662500Y-73425000D03*
%TO.P,U1,39,GPIO27/ADC1_39*%
%TO.N,/GPIO27_ADC1*%
X194662500Y-73025000D03*
%TO.P,U1,40,GPIO28/ADC2_40*%
%TO.N,/GPIO28_ADC2*%
X194662500Y-72625000D03*
%TO.P,U1,41,GPIO29/ADC3_41*%
%TO.N,/GPIO29_ADC3*%
X194662500Y-72225000D03*
%TO.P,U1,42,IOVDD_42*%
%TO.N,+3V3*%
X194662500Y-71825000D03*
D31*
%TO.P,U1,43,ADC_AVDD_43*%
%TO.N,/ADC_AVDD*%
X193825000Y-70987500D03*
%TO.P,U1,44,VREG_VIN_44*%
%TO.N,+3V3*%
X193425000Y-70987500D03*
%TO.P,U1,45,VREG_VOUT_45*%
%TO.N,+1V1*%
X193025000Y-70987500D03*
%TO.P,U1,46,USB_DM_46*%
%TO.N,/USB_DMX*%
X192625000Y-70987500D03*
%TO.P,U1,47,USB_DP_47*%
%TO.N,/USB_DPX*%
X192225000Y-70987500D03*
%TO.P,U1,48,USB_VDD_48*%
%TO.N,+3V3*%
X191825000Y-70987500D03*
%TO.P,U1,49,IOVDD_49*%
X191425000Y-70987500D03*
%TO.P,U1,50,DVDD_50*%
%TO.N,+1V1*%
X191025000Y-70987500D03*
%TO.P,U1,51,QSPI_SD3_51*%
%TO.N,/QSPI_SD3*%
X190625000Y-70987500D03*
%TO.P,U1,52,QSPI_SCLK_52*%
%TO.N,/QSPI_SCLK*%
X190225000Y-70987500D03*
%TO.P,U1,53,QSPI_SD0_53*%
%TO.N,/QSPI_SD0*%
X189825000Y-70987500D03*
%TO.P,U1,54,QSPI_SD2_54*%
%TO.N,/QSPI_SD2*%
X189425000Y-70987500D03*
%TO.P,U1,55,QSPI_SD1_55*%
%TO.N,/QSPI_SD1*%
X189025000Y-70987500D03*
%TO.P,U1,56,~{QSPI_SS}_56*%
%TO.N,/QSPI_SS*%
X188625000Y-70987500D03*
D32*
%TO.P,U1,57,GND_57*%
%TO.N,GND*%
X191225000Y-74425000D03*
%TD*%
D23*
%TO.P,R4,1*%
%TO.N,/USB_DM*%
X193600000Y-67537500D03*
%TO.P,R4,2*%
%TO.N,/USB_DMX*%
X193600000Y-69362500D03*
%TD*%
D20*
%TO.P,C11,1*%
%TO.N,+3V3*%
X192412500Y-53625000D03*
%TO.P,C11,2*%
%TO.N,GND*%
X194487500Y-53625000D03*
%TD*%
D19*
%TO.P,C7,1*%
%TO.N,+3V3*%
X185300000Y-73750000D03*
%TO.P,C7,2*%
%TO.N,GND*%
X183575000Y-73750000D03*
%TD*%
D18*
%TO.P,R6,1*%
%TO.N,/XR*%
X189675000Y-82100000D03*
%TO.P,R6,2*%
%TO.N,/XOUT*%
X189675000Y-80275000D03*
%TD*%
D33*
%TO.P,J4,1,VBUS_1*%
%TO.N,/VBUS*%
X192050000Y-49750000D03*
%TO.P,J4,2,D-_2*%
%TO.N,/USB_DM*%
X191400000Y-49750000D03*
%TO.P,J4,3,D+_3*%
%TO.N,/USB_DP*%
X190750000Y-49750000D03*
%TO.P,J4,4,ID_4*%
%TO.N,unconnected-(J4-ID-Pad4)*%
X190100000Y-49750000D03*
%TO.P,J4,5,GND_5*%
%TO.N,GND*%
X189450000Y-49750000D03*
D34*
%TO.P,J4,SH1,SHIELD_SH1*%
X193175000Y-50025000D03*
D35*
%TO.P,J4,SH2,SHIELD__1_SH2*%
X188325000Y-50025000D03*
D36*
%TO.P,J4,SH3,SHIELD__2_SH3*%
X193475000Y-46925000D03*
D37*
%TO.P,J4,SH4,SHIELD__3_SH4*%
X189812500Y-46675000D03*
%TO.P,J4,SH5,SHIELD__4_SH5*%
X191687500Y-46675000D03*
D38*
%TO.P,J4,SH6,SHIELD__5_SH6*%
X188025000Y-46925000D03*
%TD*%
D39*
%TO.P,L1,1,1_1*%
%TO.N,Net-(U2-LX1)*%
X195175000Y-59250000D03*
%TO.P,L1,2,2_2*%
%TO.N,Net-(U2-LX2)*%
X195175000Y-56200000D03*
%TD*%
D40*
%TO.P,J2,1,Pin_1_1*%
%TO.N,/GPIO0*%
X180550000Y-46700000D03*
D41*
%TO.P,J2,2,Pin_2_2*%
%TO.N,/GPIO1*%
X180550000Y-49240000D03*
%TO.P,J2,3,Pin_3_3*%
%TO.N,GND*%
X180550000Y-51780000D03*
%TO.P,J2,4,Pin_4_4*%
%TO.N,/GPIO2*%
X180550000Y-54320000D03*
%TO.P,J2,5,Pin_5_5*%
%TO.N,/GPIO3*%
X180550000Y-56860000D03*
%TO.P,J2,6,Pin_6_6*%
%TO.N,/GPIO4*%
X180550000Y-59400000D03*
%TO.P,J2,7,Pin_7_7*%
%TO.N,/GPIO5*%
X180550000Y-61940000D03*
%TO.P,J2,8,Pin_8_8*%
%TO.N,GND*%
X180550000Y-64480000D03*
%TO.P,J2,9,Pin_9_9*%
%TO.N,/GPIO6*%
X180550000Y-67020000D03*
%TO.P,J2,10,Pin_10_10*%
%TO.N,/GPIO7*%
X180550000Y-69560000D03*
%TO.P,J2,11,Pin_11_11*%
%TO.N,/GPIO8*%
X180550000Y-72100000D03*
%TO.P,J2,12,Pin_12_12*%
%TO.N,/GPIO9*%
X180550000Y-74640000D03*
%TO.P,J2,13,Pin_13_13*%
%TO.N,GND*%
X180550000Y-77180000D03*
%TO.P,J2,14,Pin_14_14*%
%TO.N,/GPIO10*%
X180550000Y-79720000D03*
%TO.P,J2,15,Pin_15_15*%
%TO.N,/GPIO11*%
X180550000Y-82260000D03*
%TO.P,J2,16,Pin_16_16*%
%TO.N,/GPIO12*%
X180550000Y-84800000D03*
%TO.P,J2,17,Pin_17_17*%
%TO.N,/GPIO13*%
X180550000Y-87340000D03*
%TO.P,J2,18,Pin_18_18*%
%TO.N,GND*%
X180550000Y-89880000D03*
%TO.P,J2,19,Pin_19_19*%
%TO.N,/GPIO14*%
X180550000Y-92420000D03*
%TO.P,J2,20,Pin_20_20*%
%TO.N,/GPIO15*%
X180550000Y-94960000D03*
%TD*%
D40*
%TO.P,J3,1,Pin_1_1*%
%TO.N,/GPIO16*%
X198900000Y-94765000D03*
D41*
%TO.P,J3,2,Pin_2_2*%
%TO.N,/GPIO17*%
X198900000Y-92225000D03*
%TO.P,J3,3,Pin_3_3*%
%TO.N,GND*%
X198900000Y-89685000D03*
%TO.P,J3,4,Pin_4_4*%
%TO.N,/GPIO18*%
X198900000Y-87145000D03*
%TO.P,J3,5,Pin_5_5*%
%TO.N,/GPIO19*%
X198900000Y-84605000D03*
%TO.P,J3,6,Pin_6_6*%
%TO.N,/GPIO20*%
X198900000Y-82065000D03*
%TO.P,J3,7,Pin_7_7*%
%TO.N,/GPIO21*%
X198900000Y-79525000D03*
%TO.P,J3,8,Pin_8_8*%
%TO.N,GND*%
X198900000Y-76985000D03*
%TO.P,J3,9,Pin_9_9*%
%TO.N,/GPIO22*%
X198900000Y-74445000D03*
%TO.P,J3,10,Pin_10_10*%
%TO.N,/RUN*%
X198900000Y-71905000D03*
%TO.P,J3,11,Pin_11_11*%
%TO.N,/GPIO26_ADC0*%
X198900000Y-69365000D03*
%TO.P,J3,12,Pin_12_12*%
%TO.N,/GPIO27_ADC1*%
X198900000Y-66825000D03*
%TO.P,J3,13,Pin_13_13*%
%TO.N,GND*%
X198900000Y-64285000D03*
%TO.P,J3,14,Pin_14_14*%
%TO.N,/GPIO28_ADC2*%
X198900000Y-61745000D03*
%TO.P,J3,15,Pin_15_15*%
%TO.N,/ADC_VREF*%
X198900000Y-59205000D03*
%TO.P,J3,16,Pin_16_16*%
%TO.N,GND*%
X198900000Y-56665000D03*
%TO.P,J3,17,Pin_17_17*%
%TO.N,/3V3_EN*%
X198900000Y-54125000D03*
%TO.P,J3,18,Pin_18_18*%
%TO.N,GND*%
X198900000Y-51585000D03*
%TO.P,J3,19,Pin_19_19*%
%TO.N,/VSYS*%
X198900000Y-49045000D03*
%TO.P,J3,20,Pin_20_20*%
%TO.N,/VBUS*%
X198900000Y-46505000D03*
%TD*%
D42*
%TO.N,+3V3*%
X185300000Y-73750000D03*
X185612500Y-75225000D03*
X188750000Y-75400000D03*
X192325000Y-76700000D03*
X193440661Y-66322086D03*
X185462500Y-71950000D03*
X191646875Y-70207850D03*
X194662500Y-71725000D03*
X196575000Y-67712500D03*
X196525000Y-66362500D03*
X189898316Y-64334302D03*
%TO.N,GND*%
X190562500Y-53200000D03*
%TO.N,+3V3*%
X188187500Y-59950000D03*
X190075000Y-58425000D03*
X190075000Y-58400000D03*
X190099000Y-54925000D03*
X192412500Y-53625000D03*
%TO.N,GND*%
X183725000Y-73625000D03*
X183887500Y-75225000D03*
X192725000Y-81825000D03*
X189762500Y-60150000D03*
X187925000Y-58400000D03*
X183925000Y-64000000D03*
%TO.N,/GPIO23*%
X191350000Y-53950000D03*
X193012876Y-55462876D03*
X194196751Y-57850001D03*
X192839331Y-62555092D03*
X192850000Y-60650025D03*
X193038511Y-64313016D03*
X193138499Y-68389045D03*
X193142180Y-72017179D03*
X191294512Y-72425000D03*
X193224999Y-74652458D03*
%TO.N,/GPIO24*%
X193822943Y-74288500D03*
%TO.N,/VSYS*%
X191150000Y-54825000D03*
X189665500Y-53925000D03*
%TO.N,/USB_DM*%
X191400000Y-49750000D03*
X193350000Y-67425000D03*
%TO.N,/USB_DP*%
X192125000Y-67537500D03*
X190797516Y-50850000D03*
%TO.N,GND*%
X189475000Y-50100000D03*
X183887500Y-50850000D03*
X194300000Y-51750000D03*
X194487500Y-53625000D03*
%TO.N,/GPIO28_ADC2*%
X193850000Y-72725000D03*
%TO.N,GND*%
X196525000Y-64637500D03*
X192375831Y-64087500D03*
X186525000Y-67025000D03*
X183925000Y-71950000D03*
X188875000Y-69175000D03*
X190750000Y-73825000D03*
%TO.N,/GPIO25*%
X193225002Y-73825000D03*
X189350000Y-68300000D03*
%TO.N,GND*%
X182606001Y-85955751D03*
X193900000Y-62025000D03*
X195375000Y-63712500D03*
X192525000Y-84925000D03*
X190050000Y-94025000D03*
X191225000Y-74425000D03*
X187775000Y-83137500D03*
X190300000Y-76752000D03*
%TO.N,/XIN*%
X191200000Y-80187500D03*
X190321737Y-78882971D03*
%TO.N,/XR*%
X189675000Y-82100000D03*
X190625000Y-83500000D03*
%TO.N,/GPIO2*%
X182939277Y-70714582D03*
%TO.N,/GPIO3*%
X186675000Y-73100000D03*
%TO.N,/GPIO26_ADC0*%
X195625000Y-73375000D03*
X197502000Y-72593065D03*
%TO.N,/GPIO27_ADC1*%
X195698000Y-72625000D03*
%TO.N,/3V3_EN*%
X195350000Y-54773000D03*
X190237500Y-61950000D03*
%TO.N,/RUN*%
X193025000Y-76825000D03*
X197425000Y-74523000D03*
%TO.N,Net-(U2-LX2)*%
X191049414Y-59224999D03*
X195175000Y-56200000D03*
%TO.N,/GPIO29_ADC3*%
X194625000Y-66420000D03*
X195525225Y-71918827D03*
%TO.N,/XOUT*%
X191200000Y-82012500D03*
X189737500Y-80212500D03*
%TO.N,/QSPI_SS*%
X187500000Y-63150000D03*
X188025000Y-71000000D03*
%TO.N,/QSPI_SD1*%
X187025000Y-63725000D03*
X188700000Y-72625000D03*
%TO.N,/QSPI_SD2*%
X186775000Y-64425003D03*
X189209733Y-72064769D03*
%TO.N,/GPIO24*%
X188511500Y-53375000D03*
%TO.N,+3V3*%
X191325000Y-76950000D03*
X186825000Y-71271425D03*
X188039407Y-68591601D03*
%TD*%
%TO.N,/GPIO2*%
D43*
X185937500Y-71753248D02*
X185579626Y-71395374D01*
%TO.N,/GPIO9*%
X182425000Y-76515000D02*
X180550000Y-74640000D01*
X182425000Y-76935659D02*
X182425000Y-76515000D01*
X182864339Y-77374999D02*
X182425000Y-76935659D01*
X186332107Y-77350000D02*
X186307106Y-77375000D01*
X186600000Y-77350000D02*
X186332107Y-77350000D01*
X186600000Y-76952710D02*
X186600000Y-77350000D01*
X187327710Y-76225000D02*
X186600000Y-76952710D01*
X186307106Y-77375000D02*
X182864339Y-77374999D01*
X187787500Y-76225000D02*
X187327710Y-76225000D01*
%TO.N,/GPIO8*%
X180950000Y-72500000D02*
X180550000Y-72100000D01*
X180975000Y-72500000D02*
X180950000Y-72500000D01*
X181775000Y-73300000D02*
X180975000Y-72500000D01*
X181775000Y-75400000D02*
X181775000Y-73300000D01*
X182675000Y-76300000D02*
X181775000Y-75400000D01*
X186350000Y-76978553D02*
X186203553Y-77125000D01*
X187350000Y-75825000D02*
X186350000Y-76825000D01*
X186350000Y-76825000D02*
X186350000Y-76978553D01*
X182967893Y-77125000D02*
X182675000Y-76832106D01*
X187787500Y-75825000D02*
X187350000Y-75825000D01*
X182675000Y-76832106D02*
X182675000Y-76300000D01*
X186203553Y-77125000D02*
X182967893Y-77125000D01*
%TO.N,/GPIO7*%
X181714277Y-70724278D02*
X180550000Y-69560000D01*
X181714277Y-72885722D02*
X181714277Y-70724278D01*
X182139277Y-75410723D02*
X182139277Y-73310723D01*
X182925000Y-76196446D02*
X182139277Y-75410723D01*
X182925000Y-76728553D02*
X182925000Y-76196446D01*
X182139277Y-73310723D02*
X181714277Y-72885722D01*
X183071447Y-76875000D02*
X182925000Y-76728553D01*
X186100000Y-76728553D02*
X185953553Y-76875000D01*
X185953553Y-76875000D02*
X183071447Y-76875000D01*
X187148223Y-75226777D02*
X187148223Y-75673223D01*
X187148223Y-75673223D02*
X186100000Y-76721447D01*
X186100000Y-76721447D02*
X186100000Y-76728553D01*
X187350000Y-75025000D02*
X187148223Y-75226777D01*
X187787500Y-75025000D02*
X187350000Y-75025000D01*
%TO.N,/GPIO6*%
X187750000Y-74662500D02*
X187787500Y-74625000D01*
X187750000Y-74625000D02*
X187750000Y-74662500D01*
X187396446Y-74625000D02*
X187750000Y-74625000D01*
X186898223Y-75123223D02*
X187396446Y-74625000D01*
X186898223Y-75569669D02*
X186898223Y-75123223D01*
X185850000Y-76617893D02*
X186898223Y-75569669D01*
X185850000Y-76625000D02*
X185850000Y-76617893D01*
X183175000Y-76625000D02*
X185850000Y-76625000D01*
X181964277Y-72782169D02*
X182389277Y-73207170D01*
X182389277Y-75175000D02*
X183175000Y-75960723D01*
X181964277Y-70620724D02*
X181964277Y-72782169D01*
X182389277Y-73207170D02*
X182389277Y-75175000D01*
X181650000Y-68120000D02*
X181650000Y-70306447D01*
X181650000Y-70306447D02*
X181964277Y-70620724D01*
X183175000Y-75960723D02*
X183175000Y-76625000D01*
X180550000Y-67020000D02*
X181650000Y-68120000D01*
%TO.N,+3V3*%
D44*
X188725000Y-75425000D02*
X188750000Y-75400000D01*
X187787500Y-75425000D02*
X188725000Y-75425000D01*
X191325000Y-77762500D02*
X191425000Y-77862500D01*
X191325000Y-76950000D02*
X191325000Y-77762500D01*
X192494512Y-76700000D02*
X192325000Y-76700000D01*
X193769512Y-75425000D02*
X192494512Y-76700000D01*
X194662500Y-75425000D02*
X193769512Y-75425000D01*
X196475000Y-75987500D02*
X195912500Y-75425000D01*
X195912500Y-75425000D02*
X194662500Y-75425000D01*
X191825000Y-70987500D02*
X191425000Y-70987500D01*
X191646875Y-70809375D02*
X191825000Y-70987500D01*
X191646875Y-70207850D02*
X191646875Y-70809375D01*
X193425000Y-71425000D02*
X193425000Y-70987500D01*
X193725000Y-71725000D02*
X193425000Y-71425000D01*
X194662500Y-71725000D02*
X193725000Y-71725000D01*
X189898316Y-64676684D02*
X189675000Y-64900000D01*
X189898316Y-64334302D02*
X189898316Y-64676684D01*
X190075000Y-58400000D02*
X190150000Y-58400000D01*
X189663500Y-58400000D02*
X190075000Y-58400000D01*
X189613500Y-56036500D02*
X189613500Y-58450000D01*
X189613500Y-58450000D02*
X189663500Y-58400000D01*
X189700000Y-55950000D02*
X189613500Y-56036500D01*
X190150000Y-55950000D02*
X189700000Y-55950000D01*
X190099000Y-55899000D02*
X190150000Y-55950000D01*
X190099000Y-54925000D02*
X190099000Y-55899000D01*
%TO.N,/VSYS*%
D43*
X190975000Y-60150000D02*
X191862500Y-60150000D01*
X190550000Y-59725000D02*
X190975000Y-60150000D01*
X190075000Y-59250000D02*
X190307968Y-59250000D01*
X189375000Y-58550000D02*
X190075000Y-59250000D01*
X189375000Y-54215500D02*
X189375000Y-58550000D01*
X190307968Y-59250000D02*
X190550000Y-59492032D01*
X189665500Y-53925000D02*
X189375000Y-54215500D01*
X190550000Y-59492032D02*
X190550000Y-59725000D01*
%TO.N,+1V1*%
D45*
X190127000Y-72598000D02*
X191162500Y-71562500D01*
X189402000Y-72598000D02*
X190127000Y-72598000D01*
X189325000Y-72675000D02*
X189402000Y-72598000D01*
X189398000Y-76252000D02*
X189325000Y-76179000D01*
X191825000Y-78325000D02*
X191825000Y-76252000D01*
X191825000Y-76252000D02*
X189398000Y-76252000D01*
X189325000Y-76179000D02*
X189325000Y-72675000D01*
%TO.N,GND*%
D44*
X187770000Y-58245000D02*
X187925000Y-58400000D01*
X187650000Y-58245000D02*
X187770000Y-58245000D01*
X183925000Y-64000000D02*
X183692500Y-63767500D01*
X183692500Y-63767500D02*
X183692500Y-61812500D01*
X197886500Y-52598500D02*
X198900000Y-51585000D01*
X197886500Y-55651500D02*
X197886500Y-52598500D01*
X198900000Y-56665000D02*
X197886500Y-55651500D01*
%TO.N,/GPIO23*%
X191350000Y-53950000D02*
X191650000Y-53650000D01*
D43*
X191650000Y-54282968D02*
X191650000Y-53650000D01*
D44*
X193012876Y-56679580D02*
X193012876Y-55462876D01*
X194183297Y-57850001D02*
X193012876Y-56679580D01*
X194196751Y-57850001D02*
X194183297Y-57850001D01*
%TO.N,/VSYS*%
D43*
X195825000Y-54576248D02*
X195823752Y-54575000D01*
X195825000Y-54969752D02*
X195825000Y-54576248D01*
X195546752Y-55248000D02*
X195825000Y-54969752D01*
X195153248Y-55248000D02*
X195546752Y-55248000D01*
X194928248Y-55023000D02*
X195153248Y-55248000D01*
X194869447Y-55023000D02*
X194928248Y-55023000D01*
X194621446Y-54775000D02*
X194869447Y-55023000D01*
X193863479Y-54775000D02*
X194621446Y-54775000D01*
X193738478Y-54650000D02*
X193863479Y-54775000D01*
X193036522Y-54775000D02*
X193161522Y-54650000D01*
X193029000Y-54775000D02*
X193036522Y-54775000D01*
X192150000Y-58400000D02*
X192502000Y-58048000D01*
X196275000Y-54575000D02*
X196575000Y-54275000D01*
X192502000Y-58048000D02*
X192502000Y-55302000D01*
X195823752Y-54575000D02*
X196275000Y-54575000D01*
X192502000Y-55302000D02*
X193029000Y-54775000D01*
X193161522Y-54650000D02*
X193738478Y-54650000D01*
%TO.N,/3V3_EN*%
X194973000Y-54773000D02*
X195350000Y-54773000D01*
X193967032Y-54525000D02*
X194725000Y-54525000D01*
X193842032Y-54400000D02*
X193967032Y-54525000D01*
X192932968Y-54525000D02*
X193057968Y-54400000D01*
X192150000Y-54525000D02*
X192932968Y-54525000D01*
X193057968Y-54400000D02*
X193842032Y-54400000D01*
X194725000Y-54525000D02*
X194973000Y-54773000D01*
X192150000Y-55950000D02*
X192150000Y-54525000D01*
%TO.N,/GPIO23*%
D44*
X192839331Y-60660694D02*
X192850000Y-60650025D01*
X192839331Y-62555092D02*
X192839331Y-60660694D01*
X192886500Y-64465027D02*
X193038511Y-64313016D01*
X192886500Y-68137046D02*
X192886500Y-64465027D01*
X193138499Y-68389045D02*
X192886500Y-68137046D01*
X191294512Y-72425000D02*
X192734359Y-72425000D01*
X192734359Y-72425000D02*
X193142180Y-72017179D01*
%TO.N,+1V1*%
D45*
X191225000Y-71625000D02*
X191162500Y-71562500D01*
X192779940Y-71625000D02*
X191225000Y-71625000D01*
X192925000Y-71479940D02*
X192779940Y-71625000D01*
X192925000Y-71475000D02*
X192925000Y-71479940D01*
X193025000Y-71375000D02*
X192925000Y-71475000D01*
X193025000Y-70987500D02*
X193025000Y-71375000D01*
%TO.N,/GPIO23*%
D44*
X193324541Y-74752000D02*
X193224999Y-74652458D01*
X194535500Y-74752000D02*
X193324541Y-74752000D01*
X194662500Y-74625000D02*
X194535500Y-74752000D01*
%TO.N,/GPIO24*%
X193886443Y-74225000D02*
X193822943Y-74288500D01*
X194662500Y-74225000D02*
X193886443Y-74225000D01*
%TO.N,/GPIO25*%
X193225002Y-73825000D02*
X194662500Y-73825000D01*
%TO.N,/VSYS*%
D43*
X191150000Y-55950000D02*
X191150000Y-54825000D01*
%TO.N,/GPIO23*%
X192412500Y-52362500D02*
X192412500Y-51825000D01*
X191892032Y-52725000D02*
X192050000Y-52725000D01*
X191650000Y-52967032D02*
X191892032Y-52725000D01*
X191650000Y-53650000D02*
X191650000Y-53125000D01*
X191650000Y-53125000D02*
X191650000Y-52967032D01*
X191650000Y-55950000D02*
X191650000Y-54282968D01*
X192050000Y-52725000D02*
X192412500Y-52362500D01*
%TO.N,GND*%
D44*
X190650000Y-55225000D02*
X190650000Y-55950000D01*
X190562500Y-55137500D02*
X190650000Y-55225000D01*
X190562500Y-54175000D02*
X190562500Y-55137500D01*
X190562500Y-54650000D02*
X190562500Y-54712500D01*
X190562500Y-53200000D02*
X190562500Y-54650000D01*
%TO.N,/USB_DM*%
X193462500Y-67537500D02*
X193350000Y-67425000D01*
X193600000Y-67537500D02*
X193462500Y-67537500D01*
%TO.N,/USB_DP*%
X190750000Y-50986500D02*
X190797516Y-51034016D01*
X190750000Y-49750000D02*
X190750000Y-50986500D01*
X190797516Y-51034016D02*
X190797516Y-50850000D01*
%TO.N,GND*%
X189812500Y-46675000D02*
X191687500Y-46675000D01*
X189450000Y-50075000D02*
X189475000Y-50100000D01*
X189450000Y-49750000D02*
X189450000Y-50075000D01*
X189736500Y-52374000D02*
X189736500Y-46751000D01*
X190562500Y-53200000D02*
X189736500Y-52374000D01*
X189736500Y-46751000D02*
X189812500Y-46675000D01*
X189450000Y-50425000D02*
X189450000Y-49750000D01*
X190186500Y-51161500D02*
X189450000Y-50425000D01*
X190186500Y-52824000D02*
X190186500Y-51161500D01*
X190562500Y-53200000D02*
X190186500Y-52824000D01*
X194237500Y-51812500D02*
X194300000Y-51750000D01*
X194237500Y-51825000D02*
X194237500Y-51812500D01*
X194487500Y-53625000D02*
X194487500Y-52075000D01*
X194487500Y-52075000D02*
X194237500Y-51825000D01*
%TO.N,/VBUS*%
X198900000Y-46691148D02*
X198900000Y-46505000D01*
X196575000Y-51475000D02*
X196575000Y-49016148D01*
X196575000Y-49016148D02*
X198900000Y-46691148D01*
X191399185Y-51163315D02*
X190837500Y-51725000D01*
X196263315Y-51163315D02*
X191399185Y-51163315D01*
X196575000Y-51475000D02*
X196263315Y-51163315D01*
X192050000Y-50512500D02*
X192050000Y-49750000D01*
X190837500Y-51725000D02*
X192050000Y-50512500D01*
%TO.N,/GPIO24*%
X188737500Y-52000000D02*
X189012500Y-51725000D01*
X188737500Y-53200000D02*
X188737500Y-52000000D01*
%TO.N,/GPIO28_ADC2*%
X194562500Y-72725000D02*
X194662500Y-72625000D01*
X193850000Y-72725000D02*
X194562500Y-72725000D01*
%TO.N,GND*%
X191563331Y-64900000D02*
X192375831Y-64087500D01*
X191400000Y-64900000D02*
X191563331Y-64900000D01*
X189925000Y-66375000D02*
X191400000Y-64900000D01*
X189562500Y-66375000D02*
X189925000Y-66375000D01*
X189813500Y-68848000D02*
X189486500Y-69175000D01*
X189486500Y-69175000D02*
X188875000Y-69175000D01*
X189813500Y-66626000D02*
X189813500Y-68848000D01*
X189562500Y-66375000D02*
X189813500Y-66626000D01*
X188875000Y-68480488D02*
X188875000Y-69175000D01*
X187419512Y-67025000D02*
X188875000Y-68480488D01*
X186525000Y-67025000D02*
X187419512Y-67025000D01*
D43*
X191225000Y-74300000D02*
X190750000Y-73825000D01*
X191225000Y-74425000D02*
X191225000Y-74300000D01*
%TO.N,/GPIO25*%
D44*
X188861500Y-67811500D02*
X189350000Y-68300000D01*
X188861500Y-55774000D02*
X188861500Y-67811500D01*
X187200000Y-54112500D02*
X188861500Y-55774000D01*
%TO.N,GND*%
X189750000Y-60125000D02*
X189775000Y-60150000D01*
X189787500Y-60150000D02*
X189775000Y-60150000D01*
X186800000Y-57388500D02*
X186800000Y-57395000D01*
X186800000Y-57395000D02*
X187650000Y-58245000D01*
X184906500Y-57388500D02*
X186800000Y-57388500D01*
X184050000Y-58245000D02*
X184906500Y-57388500D01*
%TO.N,Net-(R12-Pad2)*%
X184625000Y-56230000D02*
X184050000Y-56805000D01*
X184625000Y-53325000D02*
X184625000Y-56230000D01*
%TO.N,GND*%
D43*
X193775000Y-61887500D02*
X194437500Y-61225000D01*
X189955000Y-94120000D02*
X190050000Y-94025000D01*
X189300000Y-83537500D02*
X188175000Y-83537500D01*
X195100000Y-66062500D02*
X195100000Y-67712500D01*
X193775000Y-61900000D02*
X193900000Y-62025000D01*
X193775000Y-61887500D02*
X193775000Y-61900000D01*
X196525000Y-64637500D02*
X195100000Y-66062500D01*
X194437500Y-61225000D02*
X195789944Y-61225000D01*
X190225000Y-77862500D02*
X190225000Y-76827000D01*
X195100000Y-67962500D02*
X196575000Y-69437500D01*
X190225000Y-76827000D02*
X190300000Y-76752000D01*
X180550000Y-89880000D02*
X182606001Y-87823999D01*
X195789944Y-61225000D02*
X196525000Y-61960056D01*
X189955000Y-94950000D02*
X189955000Y-94120000D01*
X195100000Y-67712500D02*
X195100000Y-67962500D01*
X188175000Y-83537500D02*
X187775000Y-83137500D01*
X182606001Y-87823999D02*
X182606001Y-85955751D01*
X196525000Y-61960056D02*
X196525000Y-64637500D01*
%TO.N,+1V1*%
D45*
X190600000Y-69175000D02*
X190600000Y-66675000D01*
X190900000Y-66375000D02*
X191287500Y-66375000D01*
X190600000Y-69175000D02*
X191025000Y-69600000D01*
X191025000Y-71425000D02*
X191025000Y-70987500D01*
X191162500Y-71562500D02*
X191025000Y-71425000D01*
X191025000Y-69600000D02*
X191025000Y-70987500D01*
X190600000Y-66675000D02*
X190900000Y-66375000D01*
X191825000Y-79200000D02*
X191825000Y-78325000D01*
X192725000Y-80100000D02*
X191825000Y-79200000D01*
X191825000Y-78325000D02*
X191825000Y-77862500D01*
%TO.N,/ADC_AVDD*%
D43*
X195100000Y-69487500D02*
X196600000Y-70987500D01*
X193825000Y-70987500D02*
X195100000Y-69712500D01*
X195100000Y-69437500D02*
X195100000Y-69487500D01*
X195100000Y-69712500D02*
X195100000Y-69437500D01*
%TO.N,/XIN*%
D45*
X191200000Y-80187500D02*
X190498000Y-80889500D01*
X187775000Y-84862500D02*
X189075000Y-84862500D01*
X189977000Y-83960500D02*
X189300000Y-84637500D01*
X190498000Y-80889500D02*
X190498000Y-82680088D01*
X190625000Y-77862500D02*
X190625000Y-78579708D01*
X189075000Y-84862500D02*
X189300000Y-84637500D01*
X190498000Y-82680088D02*
X189977000Y-83201088D01*
X190625000Y-78579708D02*
X190321737Y-78882971D01*
X189977000Y-83201088D02*
X189977000Y-83960500D01*
%TO.N,/XR*%
X190662500Y-83537500D02*
X190625000Y-83500000D01*
X190700000Y-83537500D02*
X190662500Y-83537500D01*
X191037500Y-83200000D02*
X190700000Y-83537500D01*
X192525000Y-83200000D02*
X191037500Y-83200000D01*
%TO.N,/VSYS*%
D43*
X197150000Y-58567032D02*
X197150000Y-59932968D01*
X189700000Y-63450000D02*
X190187500Y-63450000D01*
X196907968Y-60175000D02*
X191887500Y-60175000D01*
X190187500Y-63450000D02*
X192150000Y-61487500D01*
X191887500Y-60175000D02*
X191862500Y-60150000D01*
X197300000Y-50645000D02*
X198900000Y-49045000D01*
X192225000Y-58325000D02*
X196907968Y-58325000D01*
X191862500Y-61775000D02*
X191862500Y-60150000D01*
X197150000Y-59932968D02*
X196907968Y-60175000D01*
X191687500Y-61950000D02*
X192062500Y-61950000D01*
X196575000Y-54275000D02*
X197300000Y-53550000D01*
X190187500Y-63450000D02*
X191862500Y-61775000D01*
X197300000Y-53550000D02*
X197300000Y-50645000D01*
X192150000Y-58400000D02*
X192225000Y-58325000D01*
X196907968Y-58325000D02*
X197150000Y-58567032D01*
X190187500Y-63450000D02*
X191687500Y-61950000D01*
%TO.N,Net-(Q1-D)*%
X195375000Y-61887500D02*
X195375000Y-62012500D01*
X193775000Y-64780000D02*
X194125000Y-65130000D01*
X195375000Y-62012500D02*
X193775000Y-63612500D01*
X193775000Y-63612500D02*
X193775000Y-64780000D01*
X193775000Y-63612500D02*
X191687500Y-63612500D01*
X191687500Y-63612500D02*
X191525000Y-63450000D01*
%TO.N,Net-(D1-A)*%
X185462500Y-50850000D02*
X185762500Y-50850000D01*
X185762500Y-50850000D02*
X187200000Y-52287500D01*
%TO.N,/SWDIO*%
X193713000Y-94950000D02*
X196413000Y-92250000D01*
X191225000Y-94950000D02*
X193713000Y-94950000D01*
X195657026Y-78777000D02*
X195655026Y-78779000D01*
X193146232Y-78779000D02*
X192625000Y-78257768D01*
X196413000Y-79532974D02*
X195657026Y-78777000D01*
X196413000Y-92250000D02*
X196413000Y-79532974D01*
X195655026Y-78779000D02*
X193146232Y-78779000D01*
X192625000Y-78257768D02*
X192625000Y-77862500D01*
%TO.N,/SWCLK*%
X188685000Y-93940000D02*
X189075000Y-93550000D01*
X189075000Y-93550000D02*
X194721262Y-93550000D01*
X192225000Y-78257768D02*
X192225000Y-77862500D01*
X196136000Y-79647712D02*
X195544288Y-79056000D01*
X193031494Y-79056000D02*
X192637747Y-78662252D01*
X194721262Y-93550000D02*
X196136000Y-92135262D01*
X195544288Y-79056000D02*
X193031494Y-79056000D01*
X196136000Y-92135262D02*
X196136000Y-79647712D01*
X192637747Y-78662252D02*
X192629484Y-78662252D01*
X192629484Y-78662252D02*
X192225000Y-78257768D01*
X188685000Y-94950000D02*
X188685000Y-93940000D01*
%TO.N,/GPIO10*%
X182622049Y-78517002D02*
X181189051Y-79950000D01*
X187787500Y-76723000D02*
X187294232Y-76723000D01*
X180780000Y-79950000D02*
X180550000Y-79720000D01*
X181189051Y-79950000D02*
X180780000Y-79950000D01*
X186873000Y-77033263D02*
X186873000Y-78517000D01*
X187787500Y-76625000D02*
X187787500Y-76723000D01*
X186873000Y-78517000D02*
X182622049Y-78517002D01*
X187158262Y-76748000D02*
X186873000Y-77033263D01*
X187269232Y-76748000D02*
X187158262Y-76748000D01*
X187294232Y-76723000D02*
X187269232Y-76748000D01*
%TO.N,/GPIO15*%
X183358000Y-92152000D02*
X183358000Y-79902000D01*
X183358000Y-79902000D02*
X188223000Y-79902000D01*
X180550000Y-94960000D02*
X183358000Y-92152000D01*
X189825000Y-78300000D02*
X189825000Y-77862500D01*
X188223000Y-79902000D02*
X189825000Y-78300000D01*
%TO.N,/GPIO12*%
X182527000Y-82823000D02*
X180550000Y-84800000D01*
X182527000Y-79395526D02*
X182527000Y-82823000D01*
X188625000Y-78316524D02*
X187870524Y-79071000D01*
X188625000Y-77862500D02*
X188625000Y-78316524D01*
X182851525Y-79071000D02*
X182527000Y-79395526D01*
X187870524Y-79071000D02*
X182851525Y-79071000D01*
%TO.N,/GPIO11*%
X182736787Y-78794001D02*
X182250000Y-79280789D01*
X187150000Y-77148000D02*
X187150000Y-78794000D01*
X187273000Y-77025000D02*
X187150000Y-77148000D01*
X187150000Y-78794000D02*
X182736787Y-78794001D01*
X182250000Y-80560000D02*
X180550000Y-82260000D01*
X187787500Y-77025000D02*
X187273000Y-77025000D01*
X182250000Y-79280789D02*
X182250000Y-80560000D01*
%TO.N,/GPIO4*%
X182739214Y-72850000D02*
X182464277Y-72575063D01*
X181825000Y-62861446D02*
X181825000Y-60675000D01*
X186575000Y-73825000D02*
X185600000Y-72850000D01*
X182464277Y-70413617D02*
X182150000Y-70099339D01*
X185600000Y-72850000D02*
X182739214Y-72850000D01*
X182464277Y-72575063D02*
X182464277Y-70413617D01*
X182150000Y-67912893D02*
X181850000Y-67612892D01*
X181850000Y-67612892D02*
X181850000Y-62886447D01*
X181850000Y-62886447D02*
X181825000Y-62861446D01*
X182150000Y-70099339D02*
X182150000Y-67912893D01*
X187787500Y-73825000D02*
X186575000Y-73825000D01*
X181825000Y-60675000D02*
X180550000Y-59400000D01*
%TO.N,/GPIO1*%
X180550000Y-49240000D02*
X181490000Y-49240000D01*
X182150000Y-60628554D02*
X182075000Y-60703554D01*
X182150000Y-49900000D02*
X182150000Y-60628554D01*
X182100000Y-66825000D02*
X182100000Y-66835723D01*
X182100002Y-62782898D02*
X182100000Y-62865741D01*
X181490000Y-49240000D02*
X182150000Y-49900000D01*
X182075000Y-60703554D02*
X182075000Y-62757894D01*
X182075000Y-62757894D02*
X182100002Y-62782898D01*
X182100000Y-62865741D02*
X182100000Y-66825000D01*
%TO.N,/GPIO13*%
X182804000Y-85086000D02*
X180550000Y-87340000D01*
X187985262Y-79348000D02*
X182966263Y-79348000D01*
X182804000Y-79510263D02*
X182804000Y-85086000D01*
X189025000Y-77862500D02*
X189025000Y-78257768D01*
X189025000Y-78257768D02*
X189050247Y-78283015D01*
X182966263Y-79348000D02*
X182804000Y-79510263D01*
X189050247Y-78283015D02*
X187985262Y-79348000D01*
%TO.N,/GPIO3*%
X187787500Y-73425000D02*
X187000000Y-73425000D01*
X187000000Y-73425000D02*
X186675000Y-73100000D01*
%TO.N,/GPIO14*%
X183081000Y-89889000D02*
X180550000Y-92420000D01*
X189425000Y-78300000D02*
X188100000Y-79625000D01*
X189425000Y-77862500D02*
X189425000Y-78300000D01*
X188100000Y-79625000D02*
X183081000Y-79625000D01*
X183081000Y-79625000D02*
X183081000Y-89889000D01*
%TO.N,/GPIO26_ADC0*%
X197827000Y-70438000D02*
X197827000Y-72268065D01*
X197827000Y-72268065D02*
X197502000Y-72593065D01*
X198900000Y-69365000D02*
X197827000Y-70438000D01*
X195625000Y-73375000D02*
X194712500Y-73375000D01*
X194712500Y-73375000D02*
X194662500Y-73425000D01*
%TO.N,/GPIO18*%
X194700000Y-77062500D02*
X195117740Y-77062500D01*
X197244000Y-85489000D02*
X198900000Y-87145000D01*
X195117740Y-77062500D02*
X197244000Y-79188760D01*
X197244000Y-79188760D02*
X197244000Y-85489000D01*
X194662500Y-77025000D02*
X194700000Y-77062500D01*
%TO.N,/GPIO27_ADC1*%
X194662500Y-73025000D02*
X195100000Y-73025000D01*
X195500000Y-72625000D02*
X195698000Y-72625000D01*
X195100000Y-73025000D02*
X195500000Y-72625000D01*
%TO.N,/GPIO22*%
X198320000Y-75025000D02*
X194662500Y-75025000D01*
X198900000Y-74445000D02*
X198320000Y-75025000D01*
%TO.N,/GPIO17*%
X196967000Y-90292000D02*
X196967000Y-79303498D01*
X195526002Y-77862500D02*
X193825000Y-77862500D01*
X198900000Y-92225000D02*
X196967000Y-90292000D01*
X196967000Y-79303498D02*
X195526002Y-77862500D01*
%TO.N,/RUN*%
X193025000Y-76825000D02*
X193025000Y-77862500D01*
X198900000Y-71905000D02*
X197425000Y-73380000D01*
X197425000Y-73380000D02*
X197425000Y-74523000D01*
%TO.N,/GPIO20*%
D45*
X195099070Y-76225000D02*
X197823000Y-78948930D01*
X197823000Y-80988000D02*
X198900000Y-82065000D01*
X197823000Y-78948930D02*
X197823000Y-80988000D01*
X194662500Y-76225000D02*
X195099070Y-76225000D01*
%TO.N,/GPIO16*%
D43*
X195771764Y-78500000D02*
X195050764Y-78500000D01*
D45*
X193425000Y-77862500D02*
X193425000Y-78075000D01*
D43*
X195048764Y-78502000D02*
X193669232Y-78502000D01*
X193425000Y-78257768D02*
X193425000Y-77862500D01*
X195050764Y-78500000D02*
X195048764Y-78502000D01*
X193669232Y-78502000D02*
X193425000Y-78257768D01*
X196690000Y-79418236D02*
X195771764Y-78500000D01*
X198900000Y-94765000D02*
X196690000Y-92555000D01*
X196690000Y-92555000D02*
X196690000Y-79418236D01*
%TO.N,/ADC_VREF*%
X196475000Y-74162500D02*
X196475000Y-72937500D01*
X196600000Y-72475000D02*
X197550000Y-71525000D01*
X197550000Y-71525000D02*
X197550000Y-60555000D01*
X196475000Y-72937500D02*
X196600000Y-72812500D01*
X196600000Y-72812500D02*
X196600000Y-72475000D01*
X197550000Y-60555000D02*
X198900000Y-59205000D01*
%TO.N,/GPIO19*%
X195071978Y-76625000D02*
X197521000Y-79074022D01*
X197521000Y-79074022D02*
X197521000Y-83226000D01*
X197521000Y-83226000D02*
X198900000Y-84605000D01*
X194662500Y-76625000D02*
X195071978Y-76625000D01*
%TO.N,/GPIO21*%
D45*
X195161518Y-75825000D02*
X198861518Y-79525000D01*
X198861518Y-79525000D02*
X198900000Y-79525000D01*
X194662500Y-75825000D02*
X195161518Y-75825000D01*
%TO.N,Net-(U2-LX1)*%
D43*
X191650000Y-58400000D02*
X191650000Y-58975000D01*
X191650000Y-58975000D02*
X191925000Y-59250000D01*
X191925000Y-59250000D02*
X195175000Y-59250000D01*
%TO.N,Net-(U2-LX2)*%
X190650000Y-58400000D02*
X190650000Y-58825585D01*
X190650000Y-58825585D02*
X191049414Y-59224999D01*
%TO.N,/GPIO29_ADC3*%
X195219052Y-72225000D02*
X195525225Y-71918827D01*
X194662500Y-72225000D02*
X195219052Y-72225000D01*
%TO.N,/USB_DPX*%
X192225000Y-69462500D02*
X192125000Y-69362500D01*
X192225000Y-70987500D02*
X192225000Y-69462500D01*
%TO.N,/USB_DMX*%
X192625000Y-70337500D02*
X193600000Y-69362500D01*
X192625000Y-70987500D02*
X192625000Y-70337500D01*
%TO.N,/XOUT*%
D45*
X191025000Y-77862500D02*
X191025000Y-78925000D01*
X191025000Y-78925000D02*
X189675000Y-80275000D01*
%TO.N,Net-(R12-Pad2)*%
D43*
X184050000Y-56805000D02*
X184395000Y-57150000D01*
X183062500Y-57792500D02*
X183062500Y-59950000D01*
X184050000Y-56805000D02*
X183062500Y-57792500D01*
X184395000Y-57150000D02*
X187305000Y-57150000D01*
X187305000Y-57150000D02*
X187650000Y-56805000D01*
%TO.N,/QSPI_SS*%
X187502500Y-61327500D02*
X187502500Y-61812500D01*
X187500000Y-63150000D02*
X187500000Y-61815000D01*
X188037500Y-70987500D02*
X188025000Y-71000000D01*
X184887500Y-59950000D02*
X186362500Y-59950000D01*
X187500000Y-61815000D02*
X187502500Y-61812500D01*
X184887500Y-59950000D02*
X186125000Y-59950000D01*
X186125000Y-59950000D02*
X187502500Y-61327500D01*
X188625000Y-70987500D02*
X188037500Y-70987500D01*
%TO.N,/QSPI_SD0*%
X189825000Y-70630416D02*
X189825000Y-70987500D01*
X188480416Y-70375000D02*
X189569584Y-70375000D01*
X183692500Y-69607444D02*
X184560057Y-70475000D01*
X189569584Y-70375000D02*
X189825000Y-70630416D01*
X188380416Y-70475000D02*
X188480416Y-70375000D01*
X183692500Y-68987500D02*
X183692500Y-69607444D01*
X184560057Y-70475000D02*
X188380416Y-70475000D01*
%TO.N,/QSPI_SCLK*%
X189923138Y-70375000D02*
X190075000Y-70375000D01*
X190225000Y-70525000D02*
X190225000Y-70987500D01*
X184962500Y-68987500D02*
X184344305Y-69605695D01*
X188376863Y-70125000D02*
X189673138Y-70125000D01*
X184344305Y-69605695D02*
X184344305Y-69905695D01*
X190075000Y-70375000D02*
X190225000Y-70525000D01*
X184663610Y-70225000D02*
X188276862Y-70225000D01*
X184344305Y-69905695D02*
X184663610Y-70225000D01*
X188276862Y-70225000D02*
X188376863Y-70125000D01*
X189673138Y-70125000D02*
X189923138Y-70375000D01*
%TO.N,/QSPI_SD3*%
X190625000Y-70987500D02*
X190625000Y-70550000D01*
X187809300Y-69975000D02*
X186407501Y-69975000D01*
X187909300Y-69875000D02*
X187809300Y-69975000D01*
X186232500Y-69799999D02*
X186232500Y-68987500D01*
X189950000Y-69875000D02*
X187909300Y-69875000D01*
X190625000Y-70550000D02*
X189950000Y-69875000D01*
X186407501Y-69975000D02*
X186232500Y-69799999D01*
%TO.N,/QSPI_SD1*%
X186232500Y-62932500D02*
X186232500Y-61812500D01*
X189025000Y-71577750D02*
X188700000Y-71902750D01*
X188700000Y-71902750D02*
X188700000Y-72625000D01*
X187025000Y-63725000D02*
X186232500Y-62932500D01*
X189025000Y-70987500D02*
X189025000Y-71577750D01*
%TO.N,/QSPI_SD2*%
X186775000Y-64425003D02*
X184962500Y-62612503D01*
X189425000Y-70987500D02*
X189425000Y-71849502D01*
X189425000Y-71849502D02*
X189209733Y-72064769D01*
X184962500Y-62612503D02*
X184962500Y-61812500D01*
%TO.N,/GPIO24*%
D44*
X188737500Y-53200000D02*
X188686500Y-53200000D01*
X188686500Y-53200000D02*
X188511500Y-53375000D01*
%TO.N,/GPIO5*%
D43*
X187175000Y-74492892D02*
X184447052Y-74492892D01*
X187787500Y-74225000D02*
X187430416Y-74225000D01*
X187430416Y-74225000D02*
X187175000Y-74480416D01*
X187175000Y-74480416D02*
X187175000Y-74492892D01*
X182900000Y-74575000D02*
X182639277Y-74314277D01*
X184447052Y-74492892D02*
X184364944Y-74575000D01*
X181600000Y-67716446D02*
X181600000Y-62990000D01*
X184364944Y-74575000D02*
X182900000Y-74575000D01*
X182639277Y-74314277D02*
X182639277Y-73103617D01*
X181900000Y-70202893D02*
X181900000Y-68016446D01*
X182639277Y-73103617D02*
X182214277Y-72678617D01*
X182214277Y-72678617D02*
X182214277Y-70517170D01*
X182214277Y-70517170D02*
X181900000Y-70202893D01*
X181900000Y-68016446D02*
X181600000Y-67716446D01*
X181600000Y-62990000D02*
X180550000Y-61940000D01*
%TO.N,GND*%
D44*
X183737500Y-72137500D02*
X183925000Y-71950000D01*
X183237500Y-72050000D02*
X183325000Y-72137500D01*
X183325000Y-72137500D02*
X183737500Y-72137500D01*
%TO.N,/GPIO2*%
D43*
X182950000Y-71350000D02*
X182950000Y-70725305D01*
X182950000Y-70725305D02*
X182939277Y-70714582D01*
X185937500Y-71987500D02*
X185937500Y-71753248D01*
X187787500Y-73025000D02*
X187150000Y-73025000D01*
X186325000Y-72275000D02*
X186225000Y-72275000D01*
X187150000Y-73025000D02*
X187150000Y-72903248D01*
X186225000Y-72275000D02*
X185937500Y-71987500D01*
X187150000Y-72903248D02*
X186871752Y-72625000D01*
X186871752Y-72625000D02*
X186675000Y-72625000D01*
X186675000Y-72625000D02*
X186325000Y-72275000D01*
X182925000Y-71375000D02*
X182950000Y-71350000D01*
X182925000Y-71400000D02*
X182925000Y-71375000D01*
X185579626Y-71395374D02*
X185575000Y-71400000D01*
X185575000Y-71400000D02*
X182925000Y-71400000D01*
%TO.N,/GPIO1*%
X183100000Y-70203554D02*
X183100000Y-70239582D01*
X182100000Y-66825000D02*
X182400000Y-67125000D01*
X186328554Y-72025000D02*
X186428554Y-72025000D01*
X183414277Y-70517830D02*
X183414277Y-71150000D01*
X182400000Y-67125000D02*
X182400000Y-69503554D01*
X183414277Y-71150000D02*
X185100000Y-71150000D01*
X183100000Y-70239582D02*
X183136029Y-70239582D01*
X182400000Y-69503554D02*
X183100000Y-70203554D01*
X183136029Y-70239582D02*
X183414277Y-70517830D01*
X185100000Y-71150000D02*
X185150000Y-71100000D01*
X185150000Y-71100000D02*
X185637805Y-71100000D01*
X185637805Y-71100000D02*
X186187500Y-71649695D01*
X186187500Y-71649695D02*
X186187500Y-71883946D01*
X186187500Y-71883946D02*
X186328554Y-72025000D01*
X186428554Y-72025000D02*
X186732107Y-72328553D01*
X186732107Y-72328553D02*
X187114944Y-72328553D01*
X187114944Y-72328553D02*
X187411390Y-72625000D01*
X187411390Y-72625000D02*
X187787500Y-72625000D01*
%TO.N,/GPIO0*%
X187787500Y-72225000D02*
X187364944Y-72225000D01*
X186437500Y-71546140D02*
X185741358Y-70850000D01*
X185741358Y-70850000D02*
X185046446Y-70850000D01*
X187364944Y-72225000D02*
X187218497Y-72078553D01*
X186437500Y-71775000D02*
X186437500Y-71546140D01*
X187218497Y-72078553D02*
X186835660Y-72078553D01*
X186835660Y-72078553D02*
X186532106Y-71775000D01*
X184996446Y-70900000D02*
X183664277Y-70900000D01*
X186532106Y-71775000D02*
X186437500Y-71775000D01*
X185046446Y-70850000D02*
X184996446Y-70900000D01*
X183664277Y-70900000D02*
X183664277Y-70414276D01*
X183664277Y-70414276D02*
X182714277Y-69464277D01*
X182714277Y-69464277D02*
X182714277Y-60839277D01*
X182714277Y-60839277D02*
X182400000Y-60525000D01*
X182400000Y-60525000D02*
X182400000Y-47350000D01*
X182400000Y-47350000D02*
X182412500Y-47337500D01*
X182412500Y-47337500D02*
X181775000Y-46700000D01*
X181775000Y-46700000D02*
X180550000Y-46700000D01*
%TO.N,+3V3*%
X187787500Y-71825000D02*
X187378575Y-71825000D01*
X187378575Y-71825000D02*
X186825000Y-71271425D01*
X187502500Y-68987500D02*
X187643508Y-68987500D01*
X187643508Y-68987500D02*
X188039407Y-68591601D01*
%TD*%
%TA.AperFunction,Conductor*%
%TO.N,GND*%
G36*
X195321585Y-79651185D02*
G01*
X195342227Y-79667819D01*
X195524181Y-79849773D01*
X195557666Y-79911096D01*
X195560500Y-79937454D01*
X195560500Y-91845520D01*
X195540815Y-91912559D01*
X195524181Y-91933201D01*
X194519201Y-92938181D01*
X194457878Y-92971666D01*
X194431520Y-92974500D01*
X188999233Y-92974500D01*
X188852863Y-93013719D01*
X188721635Y-93089485D01*
X188721632Y-93089487D01*
X188224487Y-93586632D01*
X188224485Y-93586635D01*
X188148719Y-93717863D01*
X188109500Y-93864234D01*
X188108439Y-93872294D01*
X188105386Y-93871892D01*
X188089815Y-93924923D01*
X188037011Y-93970678D01*
X188028834Y-93974066D01*
X187942669Y-94006203D01*
X187942664Y-94006206D01*
X187827455Y-94092452D01*
X187827452Y-94092455D01*
X187741206Y-94207664D01*
X187741202Y-94207671D01*
X187690908Y-94342517D01*
X187684501Y-94402116D01*
X187684500Y-94402135D01*
X187684500Y-95497870D01*
X187684501Y-95497876D01*
X187690908Y-95557483D01*
X187718764Y-95632167D01*
X187723748Y-95701859D01*
X187690263Y-95763182D01*
X187628939Y-95796666D01*
X187602582Y-95799500D01*
X186055100Y-95799500D01*
X185988061Y-95779815D01*
X185942306Y-95727011D01*
X185932362Y-95657853D01*
X185954782Y-95602615D01*
X186003322Y-95535803D01*
X186008996Y-95527994D01*
X186091211Y-95366639D01*
X186147171Y-95194409D01*
X186166013Y-95075445D01*
X186175500Y-95015551D01*
X186175500Y-94834448D01*
X186159019Y-94730397D01*
X186147171Y-94655591D01*
X186103713Y-94521838D01*
X186091212Y-94483363D01*
X186091211Y-94483360D01*
X186034299Y-94371666D01*
X186008996Y-94322006D01*
X185969139Y-94267147D01*
X185902558Y-94175505D01*
X185902554Y-94175500D01*
X185774499Y-94047445D01*
X185774494Y-94047441D01*
X185627997Y-93941006D01*
X185627996Y-93941005D01*
X185627994Y-93941004D01*
X185562999Y-93907887D01*
X185466639Y-93858788D01*
X185466636Y-93858787D01*
X185294410Y-93802829D01*
X185115551Y-93774500D01*
X185115546Y-93774500D01*
X184934454Y-93774500D01*
X184934449Y-93774500D01*
X184755589Y-93802829D01*
X184583363Y-93858787D01*
X184583360Y-93858788D01*
X184422002Y-93941006D01*
X184275505Y-94047441D01*
X184275500Y-94047445D01*
X184147445Y-94175500D01*
X184147441Y-94175505D01*
X184041006Y-94322002D01*
X183958788Y-94483360D01*
X183958787Y-94483363D01*
X183902829Y-94655589D01*
X183874500Y-94834448D01*
X183874500Y-95015551D01*
X183902829Y-95194410D01*
X183958787Y-95366636D01*
X183958788Y-95366639D01*
X183987972Y-95423914D01*
X184039733Y-95525500D01*
X184041006Y-95527997D01*
X184095218Y-95602615D01*
X184118698Y-95668422D01*
X184102872Y-95736475D01*
X184052766Y-95785170D01*
X183994900Y-95799500D01*
X181840304Y-95799500D01*
X181773265Y-95779815D01*
X181727510Y-95727011D01*
X181717566Y-95657853D01*
X181729818Y-95619207D01*
X181801557Y-95478412D01*
X181867246Y-95276243D01*
X181900500Y-95066287D01*
X181900500Y-94853713D01*
X181867246Y-94643757D01*
X181844836Y-94574789D01*
X181842842Y-94504949D01*
X181875085Y-94448793D01*
X183818515Y-92505365D01*
X183894281Y-92374135D01*
X183933500Y-92227766D01*
X183933500Y-92076233D01*
X183933500Y-82788345D01*
X186800000Y-82788345D01*
X186800000Y-82887500D01*
X187525000Y-82887500D01*
X187525000Y-82100000D01*
X187488361Y-82100000D01*
X187488343Y-82100001D01*
X187387347Y-82110319D01*
X187223699Y-82164546D01*
X187223688Y-82164551D01*
X187076965Y-82255052D01*
X187076961Y-82255055D01*
X186955055Y-82376961D01*
X186955052Y-82376965D01*
X186864551Y-82523688D01*
X186864546Y-82523699D01*
X186810319Y-82687347D01*
X186800000Y-82788345D01*
X183933500Y-82788345D01*
X183933500Y-80601500D01*
X183953185Y-80534461D01*
X184005989Y-80488706D01*
X184057500Y-80477500D01*
X188298764Y-80477500D01*
X188298766Y-80477500D01*
X188445135Y-80438281D01*
X188513499Y-80398811D01*
X188581399Y-80382337D01*
X188647426Y-80405189D01*
X188690617Y-80460110D01*
X188699500Y-80506195D01*
X188699500Y-80574168D01*
X188699501Y-80574187D01*
X188709825Y-80675252D01*
X188741922Y-80772112D01*
X188749506Y-80795000D01*
X188764092Y-80839015D01*
X188764093Y-80839018D01*
X188786390Y-80875167D01*
X188852803Y-80982840D01*
X188854661Y-80985851D01*
X188968629Y-81099819D01*
X189002114Y-81161142D01*
X188997130Y-81230834D01*
X188968629Y-81275181D01*
X188854661Y-81389148D01*
X188764093Y-81535981D01*
X188764092Y-81535984D01*
X188709826Y-81699747D01*
X188709826Y-81699748D01*
X188709825Y-81699748D01*
X188699500Y-81800815D01*
X188699500Y-82182155D01*
X188679815Y-82249194D01*
X188627011Y-82294949D01*
X188557853Y-82304893D01*
X188494297Y-82275868D01*
X188487819Y-82269836D01*
X188473038Y-82255055D01*
X188473034Y-82255052D01*
X188326311Y-82164551D01*
X188326300Y-82164546D01*
X188162652Y-82110319D01*
X188061654Y-82100000D01*
X188025000Y-82100000D01*
X188025000Y-83013500D01*
X188005315Y-83080539D01*
X187952511Y-83126294D01*
X187901000Y-83137500D01*
X187775000Y-83137500D01*
X187775000Y-83263500D01*
X187755315Y-83330539D01*
X187702511Y-83376294D01*
X187651000Y-83387500D01*
X186800001Y-83387500D01*
X186800001Y-83486654D01*
X186810319Y-83587652D01*
X186864546Y-83751300D01*
X186864551Y-83751311D01*
X186955052Y-83898034D01*
X186955055Y-83898038D01*
X186968982Y-83911965D01*
X187002467Y-83973288D01*
X186997483Y-84042980D01*
X186968984Y-84087325D01*
X186954661Y-84101648D01*
X186864093Y-84248481D01*
X186864092Y-84248484D01*
X186809826Y-84412247D01*
X186809826Y-84412248D01*
X186809825Y-84412248D01*
X186799500Y-84513315D01*
X186799500Y-85211669D01*
X186799501Y-85211687D01*
X186809825Y-85312752D01*
X186830503Y-85375152D01*
X186864092Y-85476516D01*
X186954660Y-85623350D01*
X187076650Y-85745340D01*
X187223484Y-85835908D01*
X187387247Y-85890174D01*
X187488323Y-85900500D01*
X188061676Y-85900499D01*
X188061684Y-85900498D01*
X188061687Y-85900498D01*
X188130751Y-85893443D01*
X188162753Y-85890174D01*
X188326516Y-85835908D01*
X188473350Y-85745340D01*
X188595340Y-85623350D01*
X188645077Y-85542712D01*
X188697024Y-85495990D01*
X188765987Y-85484767D01*
X188787494Y-85489422D01*
X188922804Y-85531586D01*
X188993384Y-85538000D01*
X188993387Y-85538000D01*
X189606613Y-85538000D01*
X189606616Y-85538000D01*
X189677196Y-85531586D01*
X189839606Y-85480978D01*
X189936334Y-85422503D01*
X190003887Y-85404667D01*
X190064633Y-85422503D01*
X190160604Y-85480519D01*
X190160603Y-85480519D01*
X190322894Y-85531090D01*
X190322892Y-85531090D01*
X190393418Y-85537499D01*
X190449999Y-85537498D01*
X190450000Y-85537498D01*
X190450000Y-84761500D01*
X190469685Y-84694461D01*
X190522489Y-84648706D01*
X190574000Y-84637500D01*
X190826000Y-84637500D01*
X190893039Y-84657185D01*
X190938794Y-84709989D01*
X190950000Y-84761500D01*
X190950000Y-85537499D01*
X191006581Y-85537499D01*
X191077102Y-85531091D01*
X191077107Y-85531090D01*
X191239396Y-85480518D01*
X191384874Y-85392574D01*
X191390002Y-85388557D01*
X191454914Y-85362708D01*
X191523497Y-85376057D01*
X191573976Y-85424365D01*
X191584181Y-85447164D01*
X191614546Y-85538800D01*
X191614551Y-85538811D01*
X191705052Y-85685534D01*
X191705055Y-85685538D01*
X191826961Y-85807444D01*
X191826965Y-85807447D01*
X191973688Y-85897948D01*
X191973699Y-85897953D01*
X192137347Y-85952180D01*
X192238352Y-85962499D01*
X192275000Y-85962499D01*
X192775000Y-85962499D01*
X192811640Y-85962499D01*
X192811654Y-85962498D01*
X192912652Y-85952180D01*
X193076300Y-85897953D01*
X193076311Y-85897948D01*
X193223034Y-85807447D01*
X193223038Y-85807444D01*
X193344944Y-85685538D01*
X193344947Y-85685534D01*
X193435448Y-85538811D01*
X193435453Y-85538800D01*
X193489680Y-85375152D01*
X193499999Y-85274154D01*
X193500000Y-85274141D01*
X193500000Y-85175000D01*
X192775000Y-85175000D01*
X192775000Y-85962499D01*
X192275000Y-85962499D01*
X192275000Y-85049000D01*
X192294685Y-84981961D01*
X192347489Y-84936206D01*
X192399000Y-84925000D01*
X192525000Y-84925000D01*
X192525000Y-84799000D01*
X192544685Y-84731961D01*
X192597489Y-84686206D01*
X192649000Y-84675000D01*
X193499999Y-84675000D01*
X193499999Y-84575860D01*
X193499998Y-84575845D01*
X193489680Y-84474847D01*
X193435453Y-84311199D01*
X193435448Y-84311188D01*
X193344947Y-84164465D01*
X193344944Y-84164461D01*
X193331017Y-84150534D01*
X193297532Y-84089211D01*
X193302516Y-84019519D01*
X193331017Y-83975172D01*
X193345340Y-83960850D01*
X193435908Y-83814016D01*
X193490174Y-83650253D01*
X193500500Y-83549177D01*
X193500499Y-82850824D01*
X193490174Y-82749747D01*
X193486993Y-82740150D01*
X193484590Y-82670325D01*
X193517019Y-82613463D01*
X193544946Y-82585536D01*
X193635448Y-82438811D01*
X193635453Y-82438800D01*
X193689680Y-82275152D01*
X193699999Y-82174154D01*
X193700000Y-82174141D01*
X193700000Y-82075000D01*
X192849000Y-82075000D01*
X192781961Y-82055315D01*
X192736206Y-82002511D01*
X192725000Y-81951000D01*
X192725000Y-81699000D01*
X192744685Y-81631961D01*
X192797489Y-81586206D01*
X192849000Y-81575000D01*
X193699999Y-81575000D01*
X193699999Y-81475860D01*
X193699998Y-81475845D01*
X193689680Y-81374847D01*
X193635453Y-81211199D01*
X193635448Y-81211188D01*
X193544947Y-81064465D01*
X193544944Y-81064461D01*
X193531017Y-81050534D01*
X193497532Y-80989211D01*
X193502516Y-80919519D01*
X193531017Y-80875172D01*
X193545340Y-80860850D01*
X193635908Y-80714016D01*
X193690174Y-80550253D01*
X193700500Y-80449177D01*
X193700499Y-79755499D01*
X193720183Y-79688461D01*
X193772987Y-79642706D01*
X193824499Y-79631500D01*
X195254546Y-79631500D01*
X195321585Y-79651185D01*
G37*
%TD.AperFunction*%
%TA.AperFunction,Conductor*%
G36*
X182424834Y-86381559D02*
G01*
X182480767Y-86423431D01*
X182505184Y-86488895D01*
X182505500Y-86497741D01*
X182505500Y-89599257D01*
X182485815Y-89666296D01*
X182469181Y-89686938D01*
X182111681Y-90044437D01*
X182050358Y-90077922D01*
X181980666Y-90072938D01*
X181924733Y-90031066D01*
X181900316Y-89965602D01*
X181900000Y-89956756D01*
X181900000Y-89773753D01*
X181866757Y-89563872D01*
X181866757Y-89563869D01*
X181801095Y-89361782D01*
X181704624Y-89172449D01*
X181665270Y-89118282D01*
X181665269Y-89118282D01*
X181032962Y-89750589D01*
X181015925Y-89687007D01*
X180950099Y-89572993D01*
X180857007Y-89479901D01*
X180742993Y-89414075D01*
X180679407Y-89397036D01*
X181311716Y-88764728D01*
X181257547Y-88725373D01*
X181257547Y-88725372D01*
X181248500Y-88720763D01*
X181197706Y-88672788D01*
X181180912Y-88604966D01*
X181203451Y-88538832D01*
X181248508Y-88499793D01*
X181257816Y-88495051D01*
X181360308Y-88420587D01*
X181429786Y-88370109D01*
X181429788Y-88370106D01*
X181429792Y-88370104D01*
X181580104Y-88219792D01*
X181580106Y-88219788D01*
X181580109Y-88219786D01*
X181705048Y-88047820D01*
X181705047Y-88047820D01*
X181705051Y-88047816D01*
X181801557Y-87858412D01*
X181867246Y-87656243D01*
X181900500Y-87446287D01*
X181900500Y-87233713D01*
X181867246Y-87023757D01*
X181844836Y-86954789D01*
X181842842Y-86884949D01*
X181875085Y-86828793D01*
X182293820Y-86410059D01*
X182355142Y-86376575D01*
X182424834Y-86381559D01*
G37*
%TD.AperFunction*%
%TA.AperFunction,Conductor*%
G36*
X197680523Y-87833585D02*
G01*
X197684147Y-87833064D01*
X197712839Y-87846167D01*
X197742221Y-87857607D01*
X197745678Y-87861164D01*
X197747703Y-87862089D01*
X197766816Y-87882914D01*
X197775472Y-87894827D01*
X197869896Y-88024792D01*
X198020213Y-88175109D01*
X198192179Y-88300048D01*
X198192181Y-88300049D01*
X198192184Y-88300051D01*
X198201493Y-88304794D01*
X198252290Y-88352766D01*
X198269087Y-88420587D01*
X198246552Y-88486722D01*
X198201505Y-88525760D01*
X198192446Y-88530376D01*
X198192440Y-88530380D01*
X198138282Y-88569727D01*
X198138282Y-88569728D01*
X198770591Y-89202037D01*
X198707007Y-89219075D01*
X198592993Y-89284901D01*
X198499901Y-89377993D01*
X198434075Y-89492007D01*
X198417037Y-89555591D01*
X197784728Y-88923282D01*
X197784727Y-88923282D01*
X197766819Y-88947932D01*
X197711489Y-88990598D01*
X197641876Y-88996577D01*
X197580080Y-88963972D01*
X197545723Y-88903133D01*
X197542500Y-88875047D01*
X197542500Y-87955802D01*
X197551383Y-87925546D01*
X197558528Y-87894827D01*
X197561153Y-87892275D01*
X197562185Y-87888763D01*
X197586013Y-87868115D01*
X197608634Y-87846132D01*
X197612222Y-87845404D01*
X197614989Y-87843008D01*
X197646201Y-87838520D01*
X197677112Y-87832257D01*
X197680523Y-87833585D01*
G37*
%TD.AperFunction*%
%TA.AperFunction,Conductor*%
G36*
X181665270Y-77941717D02*
G01*
X181665270Y-77941716D01*
X181704622Y-77887554D01*
X181801095Y-77698217D01*
X181866756Y-77496133D01*
X181870365Y-77473345D01*
X181900293Y-77410210D01*
X181959603Y-77373277D01*
X182029466Y-77374273D01*
X182080520Y-77405059D01*
X182403823Y-77728363D01*
X182450157Y-77774697D01*
X182483642Y-77836020D01*
X182478658Y-77905712D01*
X182436786Y-77961645D01*
X182406833Y-77976197D01*
X182407420Y-77977612D01*
X182399914Y-77980720D01*
X182268684Y-78056487D01*
X182268681Y-78056489D01*
X182161532Y-78163639D01*
X181620214Y-78704956D01*
X181558891Y-78738441D01*
X181489199Y-78733457D01*
X181444852Y-78704956D01*
X181429786Y-78689890D01*
X181257817Y-78564949D01*
X181248504Y-78560204D01*
X181197707Y-78512230D01*
X181180912Y-78444409D01*
X181203449Y-78378274D01*
X181248507Y-78339232D01*
X181257555Y-78334622D01*
X181311716Y-78295270D01*
X181311717Y-78295270D01*
X180679409Y-77662962D01*
X180742993Y-77645925D01*
X180857007Y-77580099D01*
X180950099Y-77487007D01*
X181015925Y-77372993D01*
X181032962Y-77309409D01*
X181665270Y-77941717D01*
G37*
%TD.AperFunction*%
%TA.AperFunction,Conductor*%
G36*
X198194939Y-75620185D02*
G01*
X198240694Y-75672989D01*
X198250638Y-75742147D01*
X198221613Y-75805703D01*
X198196197Y-75827251D01*
X198196387Y-75827513D01*
X198192907Y-75830040D01*
X198192681Y-75830233D01*
X198192439Y-75830381D01*
X198138282Y-75869727D01*
X198138282Y-75869728D01*
X198770591Y-76502037D01*
X198707007Y-76519075D01*
X198592993Y-76584901D01*
X198499901Y-76677993D01*
X198434075Y-76792007D01*
X198417037Y-76855591D01*
X197784728Y-76223282D01*
X197784727Y-76223282D01*
X197745380Y-76277440D01*
X197745378Y-76277443D01*
X197679019Y-76407679D01*
X197631045Y-76458474D01*
X197563224Y-76475269D01*
X197497089Y-76452731D01*
X197453638Y-76398016D01*
X197445177Y-76338780D01*
X197445760Y-76333071D01*
X197450500Y-76286677D01*
X197450499Y-75724499D01*
X197470183Y-75657461D01*
X197522987Y-75611706D01*
X197574499Y-75600500D01*
X198127900Y-75600500D01*
X198194939Y-75620185D01*
G37*
%TD.AperFunction*%
%TA.AperFunction,Conductor*%
G36*
X190671250Y-72975584D02*
G01*
X190699167Y-72977581D01*
X190706492Y-72982289D01*
X190712390Y-72983411D01*
X190721100Y-72991677D01*
X190743515Y-73006082D01*
X190784219Y-73046786D01*
X190784223Y-73046789D01*
X190915326Y-73134390D01*
X190915339Y-73134397D01*
X191013365Y-73175000D01*
X191061015Y-73194737D01*
X191215665Y-73225499D01*
X191215668Y-73225500D01*
X191215670Y-73225500D01*
X191373356Y-73225500D01*
X191373357Y-73225499D01*
X191528009Y-73194737D01*
X191673691Y-73134394D01*
X191804801Y-73046789D01*
X191804804Y-73046786D01*
X191826272Y-73025319D01*
X191887595Y-72991834D01*
X191913953Y-72989000D01*
X192629561Y-72989000D01*
X192696600Y-73008685D01*
X192742355Y-73061489D01*
X192752299Y-73130647D01*
X192723274Y-73194203D01*
X192717242Y-73200681D01*
X192603215Y-73314707D01*
X192603212Y-73314711D01*
X192515611Y-73445814D01*
X192515604Y-73445827D01*
X192455266Y-73591498D01*
X192455263Y-73591510D01*
X192424502Y-73746153D01*
X192424502Y-73903846D01*
X192455263Y-74058489D01*
X192455266Y-74058501D01*
X192510261Y-74191273D01*
X192517730Y-74260743D01*
X192510262Y-74286177D01*
X192493590Y-74326429D01*
X192455262Y-74418961D01*
X192455261Y-74418964D01*
X192455261Y-74418965D01*
X192455260Y-74418968D01*
X192424499Y-74573611D01*
X192424499Y-74731304D01*
X192455260Y-74885947D01*
X192455263Y-74885959D01*
X192515601Y-75031630D01*
X192515608Y-75031643D01*
X192603209Y-75162746D01*
X192603212Y-75162750D01*
X192714706Y-75274244D01*
X192714710Y-75274247D01*
X192833620Y-75353701D01*
X192878425Y-75407313D01*
X192887132Y-75476638D01*
X192856977Y-75539666D01*
X192852410Y-75544484D01*
X192528740Y-75868154D01*
X192528647Y-75868204D01*
X192528596Y-75868298D01*
X192497975Y-75884952D01*
X192467417Y-75901639D01*
X192467279Y-75901648D01*
X192467218Y-75901682D01*
X192466755Y-75901685D01*
X192432010Y-75904142D01*
X192424368Y-75903582D01*
X192403842Y-75899500D01*
X192368572Y-75899500D01*
X192364049Y-75899169D01*
X192335404Y-75888431D01*
X192306059Y-75879815D01*
X192300529Y-75875359D01*
X192298624Y-75874645D01*
X192297087Y-75872585D01*
X192285417Y-75863181D01*
X192193717Y-75771481D01*
X192193709Y-75771475D01*
X192056790Y-75692426D01*
X192056786Y-75692424D01*
X192056784Y-75692423D01*
X191904057Y-75651500D01*
X191904056Y-75651500D01*
X190049500Y-75651500D01*
X189982461Y-75631815D01*
X189936706Y-75579011D01*
X189925500Y-75527500D01*
X189925500Y-73322501D01*
X189945185Y-73255462D01*
X189997989Y-73209707D01*
X190049500Y-73198501D01*
X190206054Y-73198501D01*
X190206057Y-73198501D01*
X190358785Y-73157577D01*
X190427157Y-73118102D01*
X190495716Y-73078520D01*
X190573274Y-73000961D01*
X190578949Y-72996477D01*
X190604905Y-72986013D01*
X190629475Y-72972597D01*
X190636872Y-72973126D01*
X190643751Y-72970353D01*
X190671250Y-72975584D01*
G37*
%TD.AperFunction*%
%TA.AperFunction,Conductor*%
G36*
X183885539Y-61832185D02*
G01*
X183931294Y-61884989D01*
X183942500Y-61936500D01*
X183942500Y-63121914D01*
X183975292Y-63118935D01*
X183975302Y-63118932D01*
X184128893Y-63071072D01*
X184128894Y-63071071D01*
X184262865Y-62990082D01*
X184330420Y-62972245D01*
X184391164Y-62990081D01*
X184525898Y-63071531D01*
X184615476Y-63099444D01*
X184666265Y-63130148D01*
X185938181Y-64402064D01*
X185971666Y-64463387D01*
X185974500Y-64489745D01*
X185974500Y-64503849D01*
X186005261Y-64658492D01*
X186005264Y-64658504D01*
X186065602Y-64804175D01*
X186065609Y-64804188D01*
X186153210Y-64935291D01*
X186153213Y-64935295D01*
X186264707Y-65046789D01*
X186264711Y-65046792D01*
X186395814Y-65134393D01*
X186395827Y-65134400D01*
X186522037Y-65186677D01*
X186541503Y-65194740D01*
X186696153Y-65225502D01*
X186696156Y-65225503D01*
X186696158Y-65225503D01*
X186853844Y-65225503D01*
X186853845Y-65225502D01*
X187008497Y-65194740D01*
X187154179Y-65134397D01*
X187285289Y-65046792D01*
X187396789Y-64935292D01*
X187484394Y-64804182D01*
X187544737Y-64658500D01*
X187575500Y-64503845D01*
X187575500Y-64357940D01*
X187595185Y-64290901D01*
X187611819Y-64270259D01*
X187626618Y-64255460D01*
X187646789Y-64235289D01*
X187734394Y-64104179D01*
X187794737Y-63958497D01*
X187795706Y-63953621D01*
X187828087Y-63891712D01*
X187869877Y-63863247D01*
X187879174Y-63859396D01*
X187879173Y-63859396D01*
X187879179Y-63859394D01*
X188010289Y-63771789D01*
X188012617Y-63769461D01*
X188085819Y-63696260D01*
X188147142Y-63662775D01*
X188216834Y-63667759D01*
X188272767Y-63709631D01*
X188297184Y-63775095D01*
X188297500Y-63783941D01*
X188297500Y-67675661D01*
X188293405Y-67689604D01*
X188294191Y-67704114D01*
X188283759Y-67722455D01*
X188277815Y-67742700D01*
X188266833Y-67752215D01*
X188259649Y-67764848D01*
X188240955Y-67774639D01*
X188225011Y-67788455D01*
X188209498Y-67791115D01*
X188197755Y-67797266D01*
X188173595Y-67797272D01*
X188162513Y-67799173D01*
X188155849Y-67798580D01*
X188118249Y-67791101D01*
X188071774Y-67791101D01*
X188066288Y-67790613D01*
X188043715Y-67781745D01*
X188013125Y-67773218D01*
X187999279Y-67764848D01*
X187939102Y-67728469D01*
X187785387Y-67680570D01*
X187785385Y-67680569D01*
X187785383Y-67680569D01*
X187738617Y-67676319D01*
X187718591Y-67674500D01*
X187718588Y-67674500D01*
X187286401Y-67674500D01*
X187219617Y-67680568D01*
X187219606Y-67680571D01*
X187065900Y-67728467D01*
X186931650Y-67809625D01*
X186864095Y-67827461D01*
X186803350Y-67809625D01*
X186669102Y-67728469D01*
X186544378Y-67689604D01*
X186515387Y-67680570D01*
X186515385Y-67680569D01*
X186515383Y-67680569D01*
X186468617Y-67676319D01*
X186448591Y-67674500D01*
X186448588Y-67674500D01*
X186016401Y-67674500D01*
X185949617Y-67680568D01*
X185949606Y-67680571D01*
X185795900Y-67728467D01*
X185661650Y-67809625D01*
X185594095Y-67827461D01*
X185533350Y-67809625D01*
X185399102Y-67728469D01*
X185274378Y-67689604D01*
X185245387Y-67680570D01*
X185245385Y-67680569D01*
X185245383Y-67680569D01*
X185198617Y-67676319D01*
X185178591Y-67674500D01*
X185178588Y-67674500D01*
X184746401Y-67674500D01*
X184679617Y-67680568D01*
X184679606Y-67680571D01*
X184525900Y-67728467D01*
X184391650Y-67809625D01*
X184324095Y-67827461D01*
X184263350Y-67809625D01*
X184129102Y-67728469D01*
X184004378Y-67689604D01*
X183975387Y-67680570D01*
X183975385Y-67680569D01*
X183975383Y-67680569D01*
X183928617Y-67676319D01*
X183908591Y-67674500D01*
X183908588Y-67674500D01*
X183476401Y-67674500D01*
X183476399Y-67674501D01*
X183424996Y-67679171D01*
X183356451Y-67665633D01*
X183306106Y-67617185D01*
X183289777Y-67555680D01*
X183289777Y-63243814D01*
X183309462Y-63176775D01*
X183362266Y-63131020D01*
X183425000Y-63120323D01*
X183442500Y-63121913D01*
X183442500Y-61936500D01*
X183462185Y-61869461D01*
X183514989Y-61823706D01*
X183566500Y-61812500D01*
X183818500Y-61812500D01*
X183885539Y-61832185D01*
G37*
%TD.AperFunction*%
%TA.AperFunction,Conductor*%
G36*
X195568039Y-63732185D02*
G01*
X195613794Y-63784989D01*
X195625000Y-63836500D01*
X195625000Y-64706000D01*
X195605315Y-64773039D01*
X195584078Y-64791440D01*
X195586319Y-64793681D01*
X195550000Y-64830000D01*
X195550000Y-64986638D01*
X195550001Y-64986655D01*
X195560319Y-65087652D01*
X195614546Y-65251300D01*
X195614551Y-65251311D01*
X195705052Y-65398034D01*
X195705055Y-65398038D01*
X195718982Y-65411965D01*
X195752467Y-65473288D01*
X195747483Y-65542980D01*
X195718984Y-65587325D01*
X195704661Y-65601648D01*
X195614093Y-65748481D01*
X195614092Y-65748484D01*
X195559826Y-65912247D01*
X195559826Y-65912248D01*
X195559825Y-65912248D01*
X195553556Y-65973612D01*
X195527159Y-66038304D01*
X195469977Y-66078454D01*
X195400166Y-66081316D01*
X195339890Y-66045982D01*
X195327096Y-66029898D01*
X195246792Y-65909715D01*
X195246786Y-65909707D01*
X195135292Y-65798213D01*
X195135288Y-65798210D01*
X195004185Y-65710609D01*
X195004176Y-65710604D01*
X194857984Y-65650050D01*
X194803581Y-65606209D01*
X194781516Y-65539915D01*
X194790875Y-65488038D01*
X194810044Y-65441762D01*
X194825500Y-65324361D01*
X194825499Y-64935640D01*
X194825454Y-64935295D01*
X194810078Y-64818492D01*
X194820844Y-64749457D01*
X194867225Y-64697201D01*
X194934494Y-64678317D01*
X194972021Y-64684602D01*
X194987348Y-64689680D01*
X195088352Y-64699999D01*
X195125000Y-64699999D01*
X195125000Y-63836500D01*
X195144685Y-63769461D01*
X195197489Y-63723706D01*
X195249000Y-63712500D01*
X195501000Y-63712500D01*
X195568039Y-63732185D01*
G37*
%TD.AperFunction*%
%TA.AperFunction,Conductor*%
G36*
X196917539Y-60770185D02*
G01*
X196963294Y-60822989D01*
X196974500Y-60874500D01*
X196974500Y-63479323D01*
X196954815Y-63546362D01*
X196902011Y-63592117D01*
X196837900Y-63602681D01*
X196811661Y-63600001D01*
X196811642Y-63600000D01*
X196775000Y-63600000D01*
X196775000Y-64513500D01*
X196755315Y-64580539D01*
X196702511Y-64626294D01*
X196651000Y-64637500D01*
X196399000Y-64637500D01*
X196331961Y-64617815D01*
X196286206Y-64565011D01*
X196275000Y-64513500D01*
X196275000Y-63594000D01*
X196294685Y-63526961D01*
X196315920Y-63508559D01*
X196313680Y-63506319D01*
X196349999Y-63470000D01*
X196349999Y-63413360D01*
X196349998Y-63413345D01*
X196339680Y-63312347D01*
X196285453Y-63148699D01*
X196285448Y-63148688D01*
X196194947Y-63001965D01*
X196194944Y-63001961D01*
X196081017Y-62888034D01*
X196047532Y-62826711D01*
X196052516Y-62757019D01*
X196081013Y-62712676D01*
X196195340Y-62598350D01*
X196285908Y-62451516D01*
X196340174Y-62287753D01*
X196350500Y-62186677D01*
X196350499Y-61588324D01*
X196340174Y-61487247D01*
X196285908Y-61323484D01*
X196195340Y-61176650D01*
X196073350Y-61054660D01*
X195952367Y-60980037D01*
X195905645Y-60928091D01*
X195894422Y-60859128D01*
X195922266Y-60795046D01*
X195980334Y-60756190D01*
X196017466Y-60750500D01*
X196832202Y-60750500D01*
X196850500Y-60750500D01*
X196917539Y-60770185D01*
G37*
%TD.AperFunction*%
%TA.AperFunction,Conductor*%
G36*
X198434075Y-56857993D02*
G01*
X198499901Y-56972007D01*
X198592993Y-57065099D01*
X198707007Y-57130925D01*
X198770589Y-57147962D01*
X198138282Y-57780269D01*
X198138282Y-57780270D01*
X198192452Y-57819626D01*
X198192451Y-57819626D01*
X198201495Y-57824234D01*
X198252292Y-57872208D01*
X198269087Y-57940029D01*
X198246550Y-58006164D01*
X198201499Y-58045202D01*
X198192182Y-58049949D01*
X198020213Y-58174890D01*
X197869893Y-58325210D01*
X197867495Y-58328018D01*
X197808982Y-58366203D01*
X197739114Y-58366692D01*
X197680073Y-58329329D01*
X197665829Y-58309473D01*
X197632135Y-58251114D01*
X197610515Y-58213667D01*
X197503365Y-58106517D01*
X197261333Y-57864485D01*
X197158623Y-57805185D01*
X197130104Y-57788719D01*
X197040887Y-57764814D01*
X196983734Y-57749500D01*
X196983733Y-57749500D01*
X195094707Y-57749500D01*
X195065592Y-57740951D01*
X195035905Y-57734671D01*
X195032397Y-57731203D01*
X195027668Y-57729815D01*
X195007803Y-57706890D01*
X194986217Y-57685550D01*
X194983952Y-57679365D01*
X194981913Y-57677011D01*
X194973694Y-57652552D01*
X194973371Y-57651111D01*
X194966488Y-57616504D01*
X194964635Y-57612032D01*
X194962293Y-57601552D01*
X194963911Y-57576935D01*
X194961291Y-57552399D01*
X194966164Y-57542679D01*
X194966878Y-57531833D01*
X194981548Y-57511999D01*
X194992609Y-57489942D01*
X195001963Y-57484400D01*
X195008428Y-57475661D01*
X195031494Y-57466906D01*
X195052723Y-57454331D01*
X195070494Y-57452104D01*
X195073751Y-57450869D01*
X195076209Y-57451388D01*
X195083306Y-57450500D01*
X196775003Y-57450500D01*
X196775008Y-57450500D01*
X196877797Y-57439999D01*
X197044334Y-57384814D01*
X197193655Y-57292711D01*
X197317711Y-57168655D01*
X197390869Y-57050047D01*
X197442815Y-57003325D01*
X197511778Y-56992104D01*
X197575860Y-57019947D01*
X197614337Y-57076829D01*
X197648904Y-57183217D01*
X197745375Y-57372550D01*
X197784728Y-57426716D01*
X198417037Y-56794408D01*
X198434075Y-56857993D01*
G37*
%TD.AperFunction*%
%TA.AperFunction,Conductor*%
G36*
X197740931Y-54841066D02*
G01*
X197773393Y-54871967D01*
X197869890Y-55004786D01*
X198020213Y-55155109D01*
X198192179Y-55280048D01*
X198192181Y-55280049D01*
X198192184Y-55280051D01*
X198201493Y-55284794D01*
X198252290Y-55332766D01*
X198269087Y-55400587D01*
X198246552Y-55466722D01*
X198201505Y-55505760D01*
X198192446Y-55510376D01*
X198192440Y-55510380D01*
X198138282Y-55549727D01*
X198138282Y-55549728D01*
X198770591Y-56182037D01*
X198707007Y-56199075D01*
X198592993Y-56264901D01*
X198499901Y-56357993D01*
X198434075Y-56472007D01*
X198417037Y-56535590D01*
X197784728Y-55903282D01*
X197784727Y-55903282D01*
X197745380Y-55957440D01*
X197745375Y-55957448D01*
X197709984Y-56026907D01*
X197662010Y-56077703D01*
X197594189Y-56094498D01*
X197528054Y-56071960D01*
X197484603Y-56017245D01*
X197475500Y-55970612D01*
X197475500Y-55649997D01*
X197475499Y-55649984D01*
X197464999Y-55547204D01*
X197464999Y-55547203D01*
X197409814Y-55380666D01*
X197354804Y-55291482D01*
X197336364Y-55224091D01*
X197357286Y-55157428D01*
X197372652Y-55138715D01*
X197467712Y-55043656D01*
X197559814Y-54894334D01*
X197559817Y-54894322D01*
X197560688Y-54892457D01*
X197561634Y-54891382D01*
X197563605Y-54888187D01*
X197564150Y-54888523D01*
X197606856Y-54840014D01*
X197674048Y-54820856D01*
X197740931Y-54841066D01*
G37*
%TD.AperFunction*%
%TA.AperFunction,Conductor*%
G36*
X195469582Y-51747000D02*
G01*
X195515337Y-51799804D01*
X195525901Y-51838714D01*
X195535000Y-51927796D01*
X195535001Y-51927799D01*
X195577256Y-52055315D01*
X195590186Y-52094334D01*
X195682288Y-52243656D01*
X195806344Y-52367712D01*
X195955666Y-52459814D01*
X196122203Y-52514999D01*
X196224991Y-52525500D01*
X196600500Y-52525499D01*
X196667539Y-52545183D01*
X196713294Y-52597987D01*
X196724500Y-52649499D01*
X196724500Y-53100500D01*
X196704815Y-53167539D01*
X196652011Y-53213294D01*
X196600500Y-53224500D01*
X196224998Y-53224500D01*
X196224980Y-53224501D01*
X196122203Y-53235000D01*
X196122200Y-53235001D01*
X195955668Y-53290185D01*
X195955663Y-53290187D01*
X195806342Y-53382289D01*
X195786680Y-53401952D01*
X195725357Y-53435437D01*
X195655665Y-53430453D01*
X195599732Y-53388581D01*
X195575315Y-53323117D01*
X195574999Y-53314271D01*
X195574999Y-53100028D01*
X195574998Y-53100013D01*
X195564505Y-52997302D01*
X195509358Y-52830880D01*
X195509356Y-52830875D01*
X195417315Y-52681654D01*
X195293344Y-52557683D01*
X195293340Y-52557680D01*
X195216550Y-52510315D01*
X195169825Y-52458367D01*
X195158604Y-52389405D01*
X195163941Y-52365773D01*
X195214680Y-52212651D01*
X195224999Y-52111654D01*
X195225000Y-52111641D01*
X195225000Y-52075000D01*
X194361500Y-52075000D01*
X194352814Y-52072449D01*
X194343853Y-52073738D01*
X194319812Y-52062759D01*
X194294461Y-52055315D01*
X194288533Y-52048474D01*
X194280297Y-52044713D01*
X194266007Y-52022478D01*
X194248706Y-52002511D01*
X194246418Y-51991996D01*
X194242523Y-51985935D01*
X194237500Y-51951000D01*
X194237500Y-51851315D01*
X194257185Y-51784276D01*
X194309989Y-51738521D01*
X194361500Y-51727315D01*
X195402543Y-51727315D01*
X195469582Y-51747000D01*
G37*
%TD.AperFunction*%
%TA.AperFunction,Conductor*%
G36*
X186869781Y-45801917D02*
G01*
X186874705Y-45800884D01*
X186902971Y-45811662D01*
X186931994Y-45820185D01*
X186935287Y-45823986D01*
X186939989Y-45825779D01*
X186957941Y-45850130D01*
X186977749Y-45872989D01*
X186978464Y-45877968D01*
X186981450Y-45882017D01*
X186983387Y-45912201D01*
X186987693Y-45942147D01*
X186985690Y-45948090D01*
X186985925Y-45951743D01*
X186973350Y-45984721D01*
X186968803Y-45992905D01*
X186960949Y-46007608D01*
X186960629Y-46008232D01*
X186953570Y-46022543D01*
X186944598Y-46041484D01*
X186938273Y-46055373D01*
X186938045Y-46055895D01*
X186931838Y-46070723D01*
X186923811Y-46090790D01*
X186920859Y-46098348D01*
X186920760Y-46098607D01*
X186918717Y-46104060D01*
X186911764Y-46122932D01*
X186906609Y-46137615D01*
X186906419Y-46138183D01*
X186901713Y-46153038D01*
X186895718Y-46173017D01*
X186891794Y-46186806D01*
X186891652Y-46187333D01*
X186888010Y-46201694D01*
X186883007Y-46222706D01*
X186881027Y-46231351D01*
X186880970Y-46231609D01*
X186878994Y-46241031D01*
X186875003Y-46260987D01*
X186872334Y-46275416D01*
X186872253Y-46275888D01*
X186870171Y-46289203D01*
X186867177Y-46310168D01*
X186864410Y-46333346D01*
X186864321Y-46334282D01*
X186862583Y-46358495D01*
X186860583Y-46400504D01*
X186860145Y-46412877D01*
X186860136Y-46413303D01*
X186860000Y-46425000D01*
X186860000Y-47250000D01*
X187045502Y-47250000D01*
X187112541Y-47269685D01*
X187158296Y-47322489D01*
X187167119Y-47349809D01*
X187183143Y-47430366D01*
X187183146Y-47430378D01*
X187244520Y-47578548D01*
X187251989Y-47648017D01*
X187220714Y-47710496D01*
X187160625Y-47746148D01*
X187129959Y-47750000D01*
X186840380Y-47750000D01*
X186822269Y-47759888D01*
X186802556Y-47762543D01*
X186796011Y-47762893D01*
X186656740Y-47798442D01*
X186649669Y-47801371D01*
X186554923Y-47853106D01*
X186449722Y-47951049D01*
X186449721Y-47951051D01*
X186376370Y-48074672D01*
X186373445Y-48081732D01*
X186355455Y-48132728D01*
X186335000Y-48275001D01*
X186335000Y-48975002D01*
X186337894Y-49028990D01*
X186347969Y-49068463D01*
X186350559Y-49116775D01*
X186335000Y-49224996D01*
X186335000Y-49735000D01*
X187350500Y-49735000D01*
X187417539Y-49754685D01*
X187463294Y-49807489D01*
X187474500Y-49859000D01*
X187474500Y-50111000D01*
X187454815Y-50178039D01*
X187402011Y-50223794D01*
X187350500Y-50235000D01*
X186374242Y-50235000D01*
X186307203Y-50215315D01*
X186268704Y-50176098D01*
X186249281Y-50144609D01*
X186130391Y-50025719D01*
X186130387Y-50025716D01*
X185987295Y-49937455D01*
X185987289Y-49937452D01*
X185987287Y-49937451D01*
X185827685Y-49884564D01*
X185827683Y-49884563D01*
X185729181Y-49874500D01*
X185729174Y-49874500D01*
X185195826Y-49874500D01*
X185195818Y-49874500D01*
X185097316Y-49884563D01*
X185097315Y-49884564D01*
X185018219Y-49910773D01*
X184937715Y-49937450D01*
X184937704Y-49937455D01*
X184794612Y-50025716D01*
X184794607Y-50025719D01*
X184762327Y-50058000D01*
X184701003Y-50091485D01*
X184631312Y-50086499D01*
X184586967Y-50058000D01*
X184555080Y-50026114D01*
X184412077Y-49937908D01*
X184412072Y-49937906D01*
X184252583Y-49885057D01*
X184154150Y-49875000D01*
X184137500Y-49875000D01*
X184137500Y-50726000D01*
X184117815Y-50793039D01*
X184065011Y-50838794D01*
X184013500Y-50850000D01*
X183761500Y-50850000D01*
X183694461Y-50830315D01*
X183648706Y-50777511D01*
X183637500Y-50726000D01*
X183637500Y-49874999D01*
X183620856Y-49875000D01*
X183522415Y-49885057D01*
X183362927Y-49937906D01*
X183362922Y-49937908D01*
X183219919Y-50026114D01*
X183187181Y-50058853D01*
X183125858Y-50092338D01*
X183056166Y-50087354D01*
X183000233Y-50045482D01*
X182975816Y-49980018D01*
X182975500Y-49971172D01*
X182975500Y-48197475D01*
X182995185Y-48130436D01*
X183047989Y-48084681D01*
X183117147Y-48074737D01*
X183180703Y-48103762D01*
X183209984Y-48141179D01*
X183215617Y-48152235D01*
X183216006Y-48152998D01*
X183322441Y-48299494D01*
X183322445Y-48299499D01*
X183450500Y-48427554D01*
X183450505Y-48427558D01*
X183574238Y-48517454D01*
X183597006Y-48533996D01*
X183702484Y-48587740D01*
X183758360Y-48616211D01*
X183758363Y-48616212D01*
X183809014Y-48632669D01*
X183930591Y-48672171D01*
X184013429Y-48685291D01*
X184109449Y-48700500D01*
X184109454Y-48700500D01*
X184290551Y-48700500D01*
X184377259Y-48686765D01*
X184469409Y-48672171D01*
X184641639Y-48616211D01*
X184802994Y-48533996D01*
X184949501Y-48427553D01*
X185077553Y-48299501D01*
X185183996Y-48152994D01*
X185266211Y-47991639D01*
X185322171Y-47819409D01*
X185339421Y-47710496D01*
X185350500Y-47640551D01*
X185350500Y-47459448D01*
X185325245Y-47300000D01*
X185322171Y-47280591D01*
X185285498Y-47167721D01*
X185266212Y-47108363D01*
X185266211Y-47108360D01*
X185225403Y-47028271D01*
X185183996Y-46947006D01*
X185132139Y-46875630D01*
X185077558Y-46800505D01*
X185077554Y-46800500D01*
X184949499Y-46672445D01*
X184949494Y-46672441D01*
X184802997Y-46566006D01*
X184802996Y-46566005D01*
X184802994Y-46566004D01*
X184751300Y-46539664D01*
X184641639Y-46483788D01*
X184641636Y-46483787D01*
X184469410Y-46427829D01*
X184290551Y-46399500D01*
X184290546Y-46399500D01*
X184109454Y-46399500D01*
X184109449Y-46399500D01*
X183930589Y-46427829D01*
X183758363Y-46483787D01*
X183758360Y-46483788D01*
X183597002Y-46566006D01*
X183450505Y-46672441D01*
X183450500Y-46672445D01*
X183322445Y-46800500D01*
X183322441Y-46800505D01*
X183216004Y-46947004D01*
X183148843Y-47078814D01*
X183100869Y-47129609D01*
X183033048Y-47146404D01*
X182966913Y-47123866D01*
X182930972Y-47084518D01*
X182873017Y-46984137D01*
X182873016Y-46984136D01*
X182873015Y-46984134D01*
X182765866Y-46876985D01*
X182765865Y-46876984D01*
X182761535Y-46872654D01*
X182761524Y-46872644D01*
X182128367Y-46239487D01*
X182128365Y-46239485D01*
X182040502Y-46188757D01*
X181997134Y-46163718D01*
X181992404Y-46162451D01*
X181932744Y-46126086D01*
X181902216Y-46063238D01*
X181900499Y-46042677D01*
X181900499Y-45924500D01*
X181920184Y-45857461D01*
X181972988Y-45811706D01*
X182024499Y-45800500D01*
X186864955Y-45800500D01*
X186869781Y-45801917D01*
G37*
%TD.AperFunction*%
%TA.AperFunction,Conductor*%
G36*
X195370203Y-48322703D02*
G01*
X195376681Y-48328735D01*
X195475500Y-48427554D01*
X195475505Y-48427558D01*
X195599238Y-48517454D01*
X195622006Y-48533996D01*
X195727484Y-48587740D01*
X195783360Y-48616211D01*
X195783363Y-48616212D01*
X195960225Y-48673677D01*
X195959553Y-48675742D01*
X196012305Y-48705975D01*
X196044519Y-48767975D01*
X196042610Y-48823923D01*
X196011000Y-48941896D01*
X196011000Y-50386848D01*
X196008125Y-50396638D01*
X196009390Y-50406764D01*
X195998447Y-50429596D01*
X195991315Y-50453887D01*
X195982800Y-50462245D01*
X195979194Y-50469771D01*
X195952097Y-50492386D01*
X195808670Y-50580853D01*
X195743573Y-50599315D01*
X195289000Y-50599315D01*
X195221961Y-50579630D01*
X195176206Y-50526826D01*
X195165000Y-50475315D01*
X195165000Y-50235000D01*
X194149500Y-50235000D01*
X194082461Y-50215315D01*
X194036706Y-50162511D01*
X194025500Y-50111000D01*
X194025500Y-49859000D01*
X194045185Y-49791961D01*
X194097989Y-49746206D01*
X194149500Y-49735000D01*
X195165000Y-49735000D01*
X195165000Y-49224997D01*
X195162106Y-49171015D01*
X195162106Y-49171014D01*
X195152029Y-49131536D01*
X195149439Y-49083220D01*
X195165000Y-48974997D01*
X195165000Y-48416416D01*
X195184685Y-48349377D01*
X195237489Y-48303622D01*
X195306647Y-48293678D01*
X195370203Y-48322703D01*
G37*
%TD.AperFunction*%
%TA.AperFunction,Conductor*%
G36*
X193947996Y-48005174D02*
G01*
X193983648Y-48065263D01*
X193987500Y-48095929D01*
X193987500Y-49135349D01*
X193967815Y-49202388D01*
X193915011Y-49248143D01*
X193845853Y-49258087D01*
X193782297Y-49229062D01*
X193775819Y-49223030D01*
X193717162Y-49164373D01*
X193577869Y-49071301D01*
X193577864Y-49071299D01*
X193577863Y-49071298D01*
X193514163Y-49044912D01*
X193476546Y-49029330D01*
X193460980Y-49016786D01*
X193442797Y-49008482D01*
X193434332Y-48995311D01*
X193422143Y-48985488D01*
X193415830Y-48966520D01*
X193405023Y-48949704D01*
X193401060Y-48922141D01*
X193400079Y-48919194D01*
X193400000Y-48914769D01*
X193400000Y-48714000D01*
X193419685Y-48646961D01*
X193472489Y-48601206D01*
X193477351Y-48600148D01*
X193487500Y-48590000D01*
X193487500Y-48166930D01*
X193507185Y-48099891D01*
X193559989Y-48054136D01*
X193587309Y-48045313D01*
X193669870Y-48028890D01*
X193730374Y-48016855D01*
X193816047Y-47981367D01*
X193885517Y-47973899D01*
X193947996Y-48005174D01*
G37*
%TD.AperFunction*%
%TA.AperFunction,Conductor*%
G36*
X187683952Y-47981367D02*
G01*
X187769626Y-48016855D01*
X187824562Y-48027782D01*
X187912691Y-48045313D01*
X187974602Y-48077698D01*
X188009176Y-48138413D01*
X188012500Y-48166930D01*
X188012500Y-48590000D01*
X188027673Y-48605173D01*
X188043039Y-48609685D01*
X188048966Y-48616525D01*
X188057203Y-48620287D01*
X188071492Y-48642521D01*
X188088794Y-48662489D01*
X188091081Y-48673003D01*
X188094977Y-48679065D01*
X188100000Y-48714000D01*
X188100000Y-48914769D01*
X188080315Y-48981808D01*
X188027511Y-49027563D01*
X188023454Y-49029330D01*
X187922137Y-49071298D01*
X187922130Y-49071301D01*
X187782837Y-49164373D01*
X187782834Y-49164376D01*
X187724181Y-49223030D01*
X187662858Y-49256515D01*
X187593166Y-49251531D01*
X187537233Y-49209659D01*
X187512816Y-49144195D01*
X187512500Y-49135349D01*
X187512500Y-48095929D01*
X187532185Y-48028890D01*
X187584989Y-47983135D01*
X187654147Y-47973191D01*
X187683952Y-47981367D01*
G37*
%TD.AperFunction*%
%TA.AperFunction,Conductor*%
G36*
X191630539Y-46444685D02*
G01*
X191676294Y-46497489D01*
X191687500Y-46549000D01*
X191687500Y-46801000D01*
X191667815Y-46868039D01*
X191615011Y-46913794D01*
X191563500Y-46925000D01*
X189936500Y-46925000D01*
X189869461Y-46905315D01*
X189823706Y-46852511D01*
X189812500Y-46801000D01*
X189812500Y-46549000D01*
X189832185Y-46481961D01*
X189884989Y-46436206D01*
X189936500Y-46425000D01*
X191563500Y-46425000D01*
X191630539Y-46444685D01*
G37*
%TD.AperFunction*%
%TD*%
M02*
