%TF.GenerationSoftware,KiCad,Pcbnew,10.0.3*%
%TF.CreationDate,2026-08-03T17:03:01+05:45*%
%TF.ProjectId,rasberry pi pico,72617362-6572-4727-9920-706920706963,rev?*%
%TF.SameCoordinates,Original*%
%TF.FileFunction,Paste,Top*%
%TF.FilePolarity,Positive*%
%FSLAX46Y46*%
G04 Gerber Fmt 4.6, Leading zero omitted, Abs format (unit mm)*
G04 Created by KiCad (PCBNEW 10.0.3) date 2026-08-03 17:03:01*
%MOMM*%
%LPD*%
G01*
G04 APERTURE LIST*
G04 Aperture macros list*
%AMRoundRect*
0 Rectangle with rounded corners*
0 $1 Rounding radius*
0 $2 $3 $4 $5 $6 $7 $8 $9 X,Y pos of 4 corners*
0 Add a 4 corners polygon primitive as box body*
4,1,4,$2,$3,$4,$5,$6,$7,$8,$9,$2,$3,0*
0 Add four circle primitives for the rounded corners*
1,1,$1+$1,$2,$3*
1,1,$1+$1,$4,$5*
1,1,$1+$1,$6,$7*
1,1,$1+$1,$8,$9*
0 Add four rect primitives between the rounded corners*
20,1,$1+$1,$2,$3,$4,$5,0*
20,1,$1+$1,$4,$5,$6,$7,0*
20,1,$1+$1,$6,$7,$8,$9,0*
20,1,$1+$1,$8,$9,$2,$3,0*%
G04 Aperture macros list end*
%ADD10C,0.010000*%
%ADD11RoundRect,0.237500X-0.300000X-0.237500X0.300000X-0.237500X0.300000X0.237500X-0.300000X0.237500X0*%
%ADD12RoundRect,0.237500X-0.250000X-0.237500X0.250000X-0.237500X0.250000X0.237500X-0.250000X0.237500X0*%
%ADD13RoundRect,0.162500X-0.162500X0.650000X-0.162500X-0.650000X0.162500X-0.650000X0.162500X0.650000X0*%
%ADD14RoundRect,0.237500X0.250000X0.237500X-0.250000X0.237500X-0.250000X-0.237500X0.250000X-0.237500X0*%
%ADD15RoundRect,0.200000X-0.250000X-0.200000X0.250000X-0.200000X0.250000X0.200000X-0.250000X0.200000X0*%
%ADD16RoundRect,0.218750X-0.218750X-0.256250X0.218750X-0.256250X0.218750X0.256250X-0.218750X0.256250X0*%
%ADD17RoundRect,0.237500X-0.237500X0.300000X-0.237500X-0.300000X0.237500X-0.300000X0.237500X0.300000X0*%
%ADD18RoundRect,0.237500X0.237500X-0.300000X0.237500X0.300000X-0.237500X0.300000X-0.237500X-0.300000X0*%
%ADD19RoundRect,0.237500X0.237500X-0.250000X0.237500X0.250000X-0.237500X0.250000X-0.237500X-0.250000X0*%
%ADD20RoundRect,0.237500X0.300000X0.237500X-0.300000X0.237500X-0.300000X-0.237500X0.300000X-0.237500X0*%
%ADD21RoundRect,0.250000X-0.337500X-0.475000X0.337500X-0.475000X0.337500X0.475000X-0.337500X0.475000X0*%
%ADD22R,0.300000X0.850000*%
%ADD23RoundRect,0.237500X-0.237500X0.250000X-0.237500X-0.250000X0.237500X-0.250000X0.237500X0.250000X0*%
%ADD24RoundRect,0.100000X-0.100000X0.155000X-0.100000X-0.155000X0.100000X-0.155000X0.100000X0.155000X0*%
%ADD25RoundRect,0.250000X0.300000X-0.300000X0.300000X0.300000X-0.300000X0.300000X-0.300000X-0.300000X0*%
%ADD26RoundRect,0.250000X0.450000X0.275000X-0.450000X0.275000X-0.450000X-0.275000X0.450000X-0.275000X0*%
%ADD27RoundRect,0.249999X-0.395001X-0.395001X0.395001X-0.395001X0.395001X0.395001X-0.395001X0.395001X0*%
%ADD28RoundRect,0.050000X-0.387500X-0.050000X0.387500X-0.050000X0.387500X0.050000X-0.387500X0.050000X0*%
%ADD29RoundRect,0.050000X-0.050000X-0.387500X0.050000X-0.387500X0.050000X0.387500X-0.050000X0.387500X0*%
%ADD30R,0.400000X1.750000*%
%ADD31R,1.475000X2.500000*%
%ADD32RoundRect,0.250001X1.549999X-0.499999X1.549999X0.499999X-1.549999X0.499999X-1.549999X-0.499999X0*%
G04 APERTURE END LIST*
D10*
%TO.C,U2*%
X190517544Y-57554472D02*
X190517544Y-56795528D01*
X191782456Y-56795528D01*
X191782456Y-57554472D01*
X190517544Y-57554472D01*
G36*
X191782456Y-57554472D02*
G01*
X190517544Y-57554472D01*
X190517544Y-56795528D01*
X191782456Y-56795528D01*
X191782456Y-57554472D01*
G37*
%TD*%
D11*
%TO.C,C5*%
X184962500Y-72050000D03*
X183237500Y-72050000D03*
%TD*%
D12*
%TO.C,R10*%
X189012500Y-51725000D03*
X190837500Y-51725000D03*
%TD*%
D13*
%TO.C,U3*%
X187502500Y-61812500D03*
X186232500Y-61812500D03*
X184962500Y-61812500D03*
X183692500Y-61812500D03*
X183692500Y-68987500D03*
X184962500Y-68987500D03*
X186232500Y-68987500D03*
X187502500Y-68987500D03*
%TD*%
D11*
%TO.C,C14*%
X189675000Y-64900000D03*
X191400000Y-64900000D03*
%TD*%
D14*
%TO.C,R12*%
X184887500Y-59950000D03*
X183062500Y-59950000D03*
%TD*%
D15*
%TO.C,Y1*%
X189300000Y-84637500D03*
X190700000Y-84637500D03*
X190700000Y-83537500D03*
X189300000Y-83537500D03*
%TD*%
D16*
%TO.C,D1*%
X183887500Y-50850000D03*
X185462500Y-50850000D03*
%TD*%
D14*
%TO.C,R8*%
X194237500Y-51825000D03*
X192412500Y-51825000D03*
%TD*%
D17*
%TO.C,C8*%
X192725000Y-80100000D03*
X192725000Y-81825000D03*
%TD*%
D18*
%TO.C,C9*%
X187775000Y-84862500D03*
X187775000Y-83137500D03*
%TD*%
%TO.C,C15*%
X193775000Y-63612500D03*
X193775000Y-61887500D03*
%TD*%
D14*
%TO.C,R15*%
X191525000Y-63450000D03*
X189700000Y-63450000D03*
%TD*%
D17*
%TO.C,C10*%
X192525000Y-83200000D03*
X192525000Y-84925000D03*
%TD*%
D12*
%TO.C,R13*%
X186362500Y-59950000D03*
X188187500Y-59950000D03*
%TD*%
D19*
%TO.C,R2*%
X196600000Y-72812500D03*
X196600000Y-70987500D03*
%TD*%
D20*
%TO.C,C13*%
X185612500Y-75225000D03*
X183887500Y-75225000D03*
%TD*%
D21*
%TO.C,C12*%
X189787500Y-60150000D03*
X191862500Y-60150000D03*
%TD*%
D11*
%TO.C,C4*%
X188875000Y-69175000D03*
X190600000Y-69175000D03*
%TD*%
D17*
%TO.C,C3*%
X196525000Y-64637500D03*
X196525000Y-66362500D03*
%TD*%
D22*
%TO.C,U2*%
X190150000Y-58400000D03*
X190650000Y-58400000D03*
X191150000Y-58400000D03*
X191650000Y-58400000D03*
X192150000Y-58400000D03*
X192150000Y-55950000D03*
X191650000Y-55950000D03*
X191150000Y-55950000D03*
X190650000Y-55950000D03*
X190150000Y-55950000D03*
%TD*%
D23*
%TO.C,R5*%
X191200000Y-80187500D03*
X191200000Y-82012500D03*
%TD*%
D18*
%TO.C,C6*%
X195100000Y-69437500D03*
X195100000Y-67712500D03*
%TD*%
D19*
%TO.C,R14*%
X195375000Y-63712500D03*
X195375000Y-61887500D03*
%TD*%
D23*
%TO.C,R7*%
X187200000Y-52287500D03*
X187200000Y-54112500D03*
%TD*%
D19*
%TO.C,R1*%
X196475000Y-75987500D03*
X196475000Y-74162500D03*
%TD*%
D12*
%TO.C,R9*%
X190237500Y-61950000D03*
X192062500Y-61950000D03*
%TD*%
D18*
%TO.C,C1*%
X196575000Y-69437500D03*
X196575000Y-67712500D03*
%TD*%
D11*
%TO.C,C2*%
X189562500Y-66375000D03*
X191287500Y-66375000D03*
%TD*%
D14*
%TO.C,R11*%
X190562500Y-53200000D03*
X188737500Y-53200000D03*
%TD*%
D24*
%TO.C,Q1*%
X193625000Y-66420000D03*
X194625000Y-66420000D03*
X194125000Y-65130000D03*
%TD*%
D23*
%TO.C,R3*%
X192125000Y-67537500D03*
X192125000Y-69362500D03*
%TD*%
D25*
%TO.C,D2*%
X196575000Y-54275000D03*
X196575000Y-51475000D03*
%TD*%
D26*
%TO.C,SW1*%
X187650000Y-58245000D03*
X184050000Y-58245000D03*
X187650000Y-56805000D03*
X184050000Y-56805000D03*
%TD*%
D27*
%TO.C,U1*%
X190425000Y-73625000D03*
X190425000Y-75225000D03*
X192025000Y-73625000D03*
X192025000Y-75225000D03*
D28*
X187787500Y-71825000D03*
X187787500Y-72225000D03*
X187787500Y-72625000D03*
X187787500Y-73025000D03*
X187787500Y-73425000D03*
X187787500Y-73825000D03*
X187787500Y-74225000D03*
X187787500Y-74625000D03*
X187787500Y-75025000D03*
X187787500Y-75425000D03*
X187787500Y-75825000D03*
X187787500Y-76225000D03*
X187787500Y-76625000D03*
X187787500Y-77025000D03*
D29*
X188625000Y-77862500D03*
X189025000Y-77862500D03*
X189425000Y-77862500D03*
X189825000Y-77862500D03*
X190225000Y-77862500D03*
X190625000Y-77862500D03*
X191025000Y-77862500D03*
X191425000Y-77862500D03*
X191825000Y-77862500D03*
X192225000Y-77862500D03*
X192625000Y-77862500D03*
X193025000Y-77862500D03*
X193425000Y-77862500D03*
X193825000Y-77862500D03*
D28*
X194662500Y-77025000D03*
X194662500Y-76625000D03*
X194662500Y-76225000D03*
X194662500Y-75825000D03*
X194662500Y-75425000D03*
X194662500Y-75025000D03*
X194662500Y-74625000D03*
X194662500Y-74225000D03*
X194662500Y-73825000D03*
X194662500Y-73425000D03*
X194662500Y-73025000D03*
X194662500Y-72625000D03*
X194662500Y-72225000D03*
X194662500Y-71825000D03*
D29*
X193825000Y-70987500D03*
X193425000Y-70987500D03*
X193025000Y-70987500D03*
X192625000Y-70987500D03*
X192225000Y-70987500D03*
X191825000Y-70987500D03*
X191425000Y-70987500D03*
X191025000Y-70987500D03*
X190625000Y-70987500D03*
X190225000Y-70987500D03*
X189825000Y-70987500D03*
X189425000Y-70987500D03*
X189025000Y-70987500D03*
X188625000Y-70987500D03*
%TD*%
D23*
%TO.C,R4*%
X193600000Y-67537500D03*
X193600000Y-69362500D03*
%TD*%
D21*
%TO.C,C11*%
X192412500Y-53625000D03*
X194487500Y-53625000D03*
%TD*%
D20*
%TO.C,C7*%
X185300000Y-73750000D03*
X183575000Y-73750000D03*
%TD*%
D19*
%TO.C,R6*%
X189675000Y-82100000D03*
X189675000Y-80275000D03*
%TD*%
D30*
%TO.C,J4*%
X192050000Y-49750000D03*
X191400000Y-49750000D03*
X190750000Y-49750000D03*
X190100000Y-49750000D03*
X189450000Y-49750000D03*
D31*
X189812500Y-46675000D03*
X191687500Y-46675000D03*
%TD*%
D32*
%TO.C,L1*%
X195175000Y-59250000D03*
X195175000Y-56200000D03*
%TD*%
M02*
