%TF.GenerationSoftware,KiCad,Pcbnew,10.0.3*%
%TF.CreationDate,2026-08-03T17:03:01+05:45*%
%TF.ProjectId,rasberry pi pico,72617362-6572-4727-9920-706920706963,rev?*%
%TF.SameCoordinates,Original*%
%TF.FileFunction,Profile,NP*%
%FSLAX46Y46*%
G04 Gerber Fmt 4.6, Leading zero omitted, Abs format (unit mm)*
G04 Created by KiCad (PCBNEW 10.0.3) date 2026-08-03 17:03:01*
%MOMM*%
%LPD*%
G01*
G04 APERTURE LIST*
%TA.AperFunction,Profile*%
%ADD10C,0.050000*%
%TD*%
%TA.AperFunction,Profile*%
%ADD11C,0.010000*%
%TD*%
G04 APERTURE END LIST*
D10*
X179200000Y-45300000D02*
X200200000Y-45300000D01*
X200200000Y-96300000D01*
X179200000Y-96300000D01*
X179200000Y-45300000D01*
%TO.C,J4*%
D11*
X187650000Y-47175000D02*
X187650000Y-46675000D01*
X187975000Y-50225000D02*
X187975000Y-49825000D01*
X188400000Y-46675000D02*
X188400000Y-47175000D01*
X188675000Y-49825000D02*
X188675000Y-50225000D01*
X192825000Y-49825000D02*
X192825000Y-50225000D01*
X193100000Y-46675000D02*
X193100000Y-47175000D01*
X193525000Y-50225000D02*
X193525000Y-49825000D01*
X193850000Y-47175000D02*
X193850000Y-46675000D01*
X187650000Y-46675000D02*
G75*
G02*
X188025000Y-46300000I375000J0D01*
G01*
X187975000Y-49825000D02*
G75*
G02*
X188325000Y-49475000I350000J0D01*
G01*
X188025000Y-46300000D02*
G75*
G02*
X188400000Y-46675000I0J-375000D01*
G01*
X188025000Y-47550000D02*
G75*
G02*
X187650000Y-47175000I0J375000D01*
G01*
X188325000Y-49475000D02*
G75*
G02*
X188675000Y-49825000I0J-350000D01*
G01*
X188325000Y-50575000D02*
G75*
G02*
X187975000Y-50225000I0J350000D01*
G01*
X188400000Y-47175000D02*
G75*
G02*
X188025000Y-47550000I-375000J0D01*
G01*
X188675000Y-50225000D02*
G75*
G02*
X188325000Y-50575000I-350000J0D01*
G01*
X192825000Y-49825000D02*
G75*
G02*
X193175000Y-49475000I350001J-1D01*
G01*
X193100000Y-46675000D02*
G75*
G02*
X193475000Y-46300000I375000J0D01*
G01*
X193175000Y-49475000D02*
G75*
G02*
X193525000Y-49825000I-1J-350001D01*
G01*
X193175000Y-50575000D02*
G75*
G02*
X192825000Y-50225000I1J350001D01*
G01*
X193475000Y-46300000D02*
G75*
G02*
X193850000Y-46675000I0J-375000D01*
G01*
X193475000Y-47550000D02*
G75*
G02*
X193100000Y-47175000I0J375000D01*
G01*
X193525000Y-50225000D02*
G75*
G02*
X193175000Y-50575000I-350001J1D01*
G01*
X193850000Y-47175000D02*
G75*
G02*
X193475000Y-47550000I-375000J0D01*
G01*
%TD*%
M02*
