%TF.GenerationSoftware,KiCad,Pcbnew,10.0.3*%
%TF.CreationDate,2026-08-03T17:03:01+05:45*%
%TF.ProjectId,rasberry pi pico,72617362-6572-4727-9920-706920706963,rev?*%
%TF.SameCoordinates,Original*%
%TF.FileFunction,Legend,Top*%
%TF.FilePolarity,Positive*%
%FSLAX46Y46*%
G04 Gerber Fmt 4.6, Leading zero omitted, Abs format (unit mm)*
G04 Created by KiCad (PCBNEW 10.0.3) date 2026-08-03 17:03:01*
%MOMM*%
%LPD*%
G01*
G04 APERTURE LIST*
%ADD10C,0.100000*%
%ADD11C,0.200000*%
%ADD12C,0.250000*%
%ADD13C,0.150000*%
%ADD14C,0.120000*%
%ADD15C,0.000000*%
%ADD16C,0.127000*%
G04 APERTURE END LIST*
D10*
X188768646Y-93601371D02*
X188768646Y-93001371D01*
X188768646Y-93001371D02*
X188911503Y-93001371D01*
X188911503Y-93001371D02*
X188997217Y-93029942D01*
X188997217Y-93029942D02*
X189054360Y-93087085D01*
X189054360Y-93087085D02*
X189082931Y-93144228D01*
X189082931Y-93144228D02*
X189111503Y-93258514D01*
X189111503Y-93258514D02*
X189111503Y-93344228D01*
X189111503Y-93344228D02*
X189082931Y-93458514D01*
X189082931Y-93458514D02*
X189054360Y-93515657D01*
X189054360Y-93515657D02*
X188997217Y-93572800D01*
X188997217Y-93572800D02*
X188911503Y-93601371D01*
X188911503Y-93601371D02*
X188768646Y-93601371D01*
X189368646Y-93287085D02*
X189568646Y-93287085D01*
X189654360Y-93601371D02*
X189368646Y-93601371D01*
X189368646Y-93601371D02*
X189368646Y-93001371D01*
X189368646Y-93001371D02*
X189654360Y-93001371D01*
X190111503Y-93287085D02*
X190197217Y-93315657D01*
X190197217Y-93315657D02*
X190225788Y-93344228D01*
X190225788Y-93344228D02*
X190254360Y-93401371D01*
X190254360Y-93401371D02*
X190254360Y-93487085D01*
X190254360Y-93487085D02*
X190225788Y-93544228D01*
X190225788Y-93544228D02*
X190197217Y-93572800D01*
X190197217Y-93572800D02*
X190140074Y-93601371D01*
X190140074Y-93601371D02*
X189911503Y-93601371D01*
X189911503Y-93601371D02*
X189911503Y-93001371D01*
X189911503Y-93001371D02*
X190111503Y-93001371D01*
X190111503Y-93001371D02*
X190168646Y-93029942D01*
X190168646Y-93029942D02*
X190197217Y-93058514D01*
X190197217Y-93058514D02*
X190225788Y-93115657D01*
X190225788Y-93115657D02*
X190225788Y-93172800D01*
X190225788Y-93172800D02*
X190197217Y-93229942D01*
X190197217Y-93229942D02*
X190168646Y-93258514D01*
X190168646Y-93258514D02*
X190111503Y-93287085D01*
X190111503Y-93287085D02*
X189911503Y-93287085D01*
X190511503Y-93001371D02*
X190511503Y-93487085D01*
X190511503Y-93487085D02*
X190540074Y-93544228D01*
X190540074Y-93544228D02*
X190568646Y-93572800D01*
X190568646Y-93572800D02*
X190625788Y-93601371D01*
X190625788Y-93601371D02*
X190740074Y-93601371D01*
X190740074Y-93601371D02*
X190797217Y-93572800D01*
X190797217Y-93572800D02*
X190825788Y-93544228D01*
X190825788Y-93544228D02*
X190854360Y-93487085D01*
X190854360Y-93487085D02*
X190854360Y-93001371D01*
X191454359Y-93029942D02*
X191397217Y-93001371D01*
X191397217Y-93001371D02*
X191311502Y-93001371D01*
X191311502Y-93001371D02*
X191225788Y-93029942D01*
X191225788Y-93029942D02*
X191168645Y-93087085D01*
X191168645Y-93087085D02*
X191140074Y-93144228D01*
X191140074Y-93144228D02*
X191111502Y-93258514D01*
X191111502Y-93258514D02*
X191111502Y-93344228D01*
X191111502Y-93344228D02*
X191140074Y-93458514D01*
X191140074Y-93458514D02*
X191168645Y-93515657D01*
X191168645Y-93515657D02*
X191225788Y-93572800D01*
X191225788Y-93572800D02*
X191311502Y-93601371D01*
X191311502Y-93601371D02*
X191368645Y-93601371D01*
X191368645Y-93601371D02*
X191454359Y-93572800D01*
X191454359Y-93572800D02*
X191482931Y-93544228D01*
X191482931Y-93544228D02*
X191482931Y-93344228D01*
X191482931Y-93344228D02*
X191368645Y-93344228D01*
X197112217Y-48858609D02*
X197421741Y-48858609D01*
X197421741Y-48858609D02*
X197255074Y-49049085D01*
X197255074Y-49049085D02*
X197326503Y-49049085D01*
X197326503Y-49049085D02*
X197374122Y-49072895D01*
X197374122Y-49072895D02*
X197397931Y-49096704D01*
X197397931Y-49096704D02*
X197421741Y-49144323D01*
X197421741Y-49144323D02*
X197421741Y-49263371D01*
X197421741Y-49263371D02*
X197397931Y-49310990D01*
X197397931Y-49310990D02*
X197374122Y-49334800D01*
X197374122Y-49334800D02*
X197326503Y-49358609D01*
X197326503Y-49358609D02*
X197183646Y-49358609D01*
X197183646Y-49358609D02*
X197136027Y-49334800D01*
X197136027Y-49334800D02*
X197112217Y-49310990D01*
X197659836Y-49358609D02*
X197755074Y-49358609D01*
X197755074Y-49358609D02*
X197802693Y-49334800D01*
X197802693Y-49334800D02*
X197826502Y-49310990D01*
X197826502Y-49310990D02*
X197874121Y-49239561D01*
X197874121Y-49239561D02*
X197897931Y-49144323D01*
X197897931Y-49144323D02*
X197897931Y-48953847D01*
X197897931Y-48953847D02*
X197874121Y-48906228D01*
X197874121Y-48906228D02*
X197850312Y-48882419D01*
X197850312Y-48882419D02*
X197802693Y-48858609D01*
X197802693Y-48858609D02*
X197707455Y-48858609D01*
X197707455Y-48858609D02*
X197659836Y-48882419D01*
X197659836Y-48882419D02*
X197636026Y-48906228D01*
X197636026Y-48906228D02*
X197612217Y-48953847D01*
X197612217Y-48953847D02*
X197612217Y-49072895D01*
X197612217Y-49072895D02*
X197636026Y-49120514D01*
X197636026Y-49120514D02*
X197659836Y-49144323D01*
X197659836Y-49144323D02*
X197707455Y-49168133D01*
X197707455Y-49168133D02*
X197802693Y-49168133D01*
X197802693Y-49168133D02*
X197850312Y-49144323D01*
X197850312Y-49144323D02*
X197874121Y-49120514D01*
X197874121Y-49120514D02*
X197897931Y-49072895D01*
X197424122Y-46325276D02*
X197424122Y-46658609D01*
X197305074Y-46134800D02*
X197186027Y-46491942D01*
X197186027Y-46491942D02*
X197495550Y-46491942D01*
X197781264Y-46158609D02*
X197828883Y-46158609D01*
X197828883Y-46158609D02*
X197876502Y-46182419D01*
X197876502Y-46182419D02*
X197900312Y-46206228D01*
X197900312Y-46206228D02*
X197924121Y-46253847D01*
X197924121Y-46253847D02*
X197947931Y-46349085D01*
X197947931Y-46349085D02*
X197947931Y-46468133D01*
X197947931Y-46468133D02*
X197924121Y-46563371D01*
X197924121Y-46563371D02*
X197900312Y-46610990D01*
X197900312Y-46610990D02*
X197876502Y-46634800D01*
X197876502Y-46634800D02*
X197828883Y-46658609D01*
X197828883Y-46658609D02*
X197781264Y-46658609D01*
X197781264Y-46658609D02*
X197733645Y-46634800D01*
X197733645Y-46634800D02*
X197709836Y-46610990D01*
X197709836Y-46610990D02*
X197686026Y-46563371D01*
X197686026Y-46563371D02*
X197662217Y-46468133D01*
X197662217Y-46468133D02*
X197662217Y-46349085D01*
X197662217Y-46349085D02*
X197686026Y-46253847D01*
X197686026Y-46253847D02*
X197709836Y-46206228D01*
X197709836Y-46206228D02*
X197733645Y-46182419D01*
X197733645Y-46182419D02*
X197781264Y-46158609D01*
X181736027Y-49281228D02*
X181759836Y-49257419D01*
X181759836Y-49257419D02*
X181807455Y-49233609D01*
X181807455Y-49233609D02*
X181926503Y-49233609D01*
X181926503Y-49233609D02*
X181974122Y-49257419D01*
X181974122Y-49257419D02*
X181997931Y-49281228D01*
X181997931Y-49281228D02*
X182021741Y-49328847D01*
X182021741Y-49328847D02*
X182021741Y-49376466D01*
X182021741Y-49376466D02*
X181997931Y-49447895D01*
X181997931Y-49447895D02*
X181712217Y-49733609D01*
X181712217Y-49733609D02*
X182021741Y-49733609D01*
X181946741Y-46958609D02*
X181661027Y-46958609D01*
X181803884Y-46958609D02*
X181803884Y-46458609D01*
X181803884Y-46458609D02*
X181756265Y-46530038D01*
X181756265Y-46530038D02*
X181708646Y-46577657D01*
X181708646Y-46577657D02*
X181661027Y-46601466D01*
X184156265Y-49908609D02*
X184108646Y-49884800D01*
X184108646Y-49884800D02*
X184084836Y-49837180D01*
X184084836Y-49837180D02*
X184084836Y-49408609D01*
X184537217Y-49884800D02*
X184489598Y-49908609D01*
X184489598Y-49908609D02*
X184394360Y-49908609D01*
X184394360Y-49908609D02*
X184346741Y-49884800D01*
X184346741Y-49884800D02*
X184322932Y-49837180D01*
X184322932Y-49837180D02*
X184322932Y-49646704D01*
X184322932Y-49646704D02*
X184346741Y-49599085D01*
X184346741Y-49599085D02*
X184394360Y-49575276D01*
X184394360Y-49575276D02*
X184489598Y-49575276D01*
X184489598Y-49575276D02*
X184537217Y-49599085D01*
X184537217Y-49599085D02*
X184561027Y-49646704D01*
X184561027Y-49646704D02*
X184561027Y-49694323D01*
X184561027Y-49694323D02*
X184322932Y-49741942D01*
X184989598Y-49908609D02*
X184989598Y-49408609D01*
X184989598Y-49884800D02*
X184941979Y-49908609D01*
X184941979Y-49908609D02*
X184846741Y-49908609D01*
X184846741Y-49908609D02*
X184799122Y-49884800D01*
X184799122Y-49884800D02*
X184775312Y-49860990D01*
X184775312Y-49860990D02*
X184751503Y-49813371D01*
X184751503Y-49813371D02*
X184751503Y-49670514D01*
X184751503Y-49670514D02*
X184775312Y-49622895D01*
X184775312Y-49622895D02*
X184799122Y-49599085D01*
X184799122Y-49599085D02*
X184846741Y-49575276D01*
X184846741Y-49575276D02*
X184941979Y-49575276D01*
X184941979Y-49575276D02*
X184989598Y-49599085D01*
D11*
X185567219Y-48880326D02*
X186376742Y-48880326D01*
X186376742Y-48880326D02*
X186471980Y-48832707D01*
X186471980Y-48832707D02*
X186519600Y-48785088D01*
X186519600Y-48785088D02*
X186567219Y-48689850D01*
X186567219Y-48689850D02*
X186567219Y-48499374D01*
X186567219Y-48499374D02*
X186519600Y-48404136D01*
X186519600Y-48404136D02*
X186471980Y-48356517D01*
X186471980Y-48356517D02*
X186376742Y-48308898D01*
X186376742Y-48308898D02*
X185567219Y-48308898D01*
X186519600Y-47880326D02*
X186567219Y-47737469D01*
X186567219Y-47737469D02*
X186567219Y-47499374D01*
X186567219Y-47499374D02*
X186519600Y-47404136D01*
X186519600Y-47404136D02*
X186471980Y-47356517D01*
X186471980Y-47356517D02*
X186376742Y-47308898D01*
X186376742Y-47308898D02*
X186281504Y-47308898D01*
X186281504Y-47308898D02*
X186186266Y-47356517D01*
X186186266Y-47356517D02*
X186138647Y-47404136D01*
X186138647Y-47404136D02*
X186091028Y-47499374D01*
X186091028Y-47499374D02*
X186043409Y-47689850D01*
X186043409Y-47689850D02*
X185995790Y-47785088D01*
X185995790Y-47785088D02*
X185948171Y-47832707D01*
X185948171Y-47832707D02*
X185852933Y-47880326D01*
X185852933Y-47880326D02*
X185757695Y-47880326D01*
X185757695Y-47880326D02*
X185662457Y-47832707D01*
X185662457Y-47832707D02*
X185614838Y-47785088D01*
X185614838Y-47785088D02*
X185567219Y-47689850D01*
X185567219Y-47689850D02*
X185567219Y-47451755D01*
X185567219Y-47451755D02*
X185614838Y-47308898D01*
X186043409Y-46546993D02*
X186091028Y-46404136D01*
X186091028Y-46404136D02*
X186138647Y-46356517D01*
X186138647Y-46356517D02*
X186233885Y-46308898D01*
X186233885Y-46308898D02*
X186376742Y-46308898D01*
X186376742Y-46308898D02*
X186471980Y-46356517D01*
X186471980Y-46356517D02*
X186519600Y-46404136D01*
X186519600Y-46404136D02*
X186567219Y-46499374D01*
X186567219Y-46499374D02*
X186567219Y-46880326D01*
X186567219Y-46880326D02*
X185567219Y-46880326D01*
X185567219Y-46880326D02*
X185567219Y-46546993D01*
X185567219Y-46546993D02*
X185614838Y-46451755D01*
X185614838Y-46451755D02*
X185662457Y-46404136D01*
X185662457Y-46404136D02*
X185757695Y-46356517D01*
X185757695Y-46356517D02*
X185852933Y-46356517D01*
X185852933Y-46356517D02*
X185948171Y-46404136D01*
X185948171Y-46404136D02*
X185995790Y-46451755D01*
X185995790Y-46451755D02*
X186043409Y-46546993D01*
X186043409Y-46546993D02*
X186043409Y-46880326D01*
D10*
X182771704Y-58773496D02*
X182795514Y-58702068D01*
X182795514Y-58702068D02*
X182819323Y-58678258D01*
X182819323Y-58678258D02*
X182866942Y-58654449D01*
X182866942Y-58654449D02*
X182938371Y-58654449D01*
X182938371Y-58654449D02*
X182985990Y-58678258D01*
X182985990Y-58678258D02*
X183009800Y-58702068D01*
X183009800Y-58702068D02*
X183033609Y-58749687D01*
X183033609Y-58749687D02*
X183033609Y-58940163D01*
X183033609Y-58940163D02*
X182533609Y-58940163D01*
X182533609Y-58940163D02*
X182533609Y-58773496D01*
X182533609Y-58773496D02*
X182557419Y-58725877D01*
X182557419Y-58725877D02*
X182581228Y-58702068D01*
X182581228Y-58702068D02*
X182628847Y-58678258D01*
X182628847Y-58678258D02*
X182676466Y-58678258D01*
X182676466Y-58678258D02*
X182724085Y-58702068D01*
X182724085Y-58702068D02*
X182747895Y-58725877D01*
X182747895Y-58725877D02*
X182771704Y-58773496D01*
X182771704Y-58773496D02*
X182771704Y-58940163D01*
X182533609Y-58344925D02*
X182533609Y-58249687D01*
X182533609Y-58249687D02*
X182557419Y-58202068D01*
X182557419Y-58202068D02*
X182605038Y-58154449D01*
X182605038Y-58154449D02*
X182700276Y-58130639D01*
X182700276Y-58130639D02*
X182866942Y-58130639D01*
X182866942Y-58130639D02*
X182962180Y-58154449D01*
X182962180Y-58154449D02*
X183009800Y-58202068D01*
X183009800Y-58202068D02*
X183033609Y-58249687D01*
X183033609Y-58249687D02*
X183033609Y-58344925D01*
X183033609Y-58344925D02*
X183009800Y-58392544D01*
X183009800Y-58392544D02*
X182962180Y-58440163D01*
X182962180Y-58440163D02*
X182866942Y-58463972D01*
X182866942Y-58463972D02*
X182700276Y-58463972D01*
X182700276Y-58463972D02*
X182605038Y-58440163D01*
X182605038Y-58440163D02*
X182557419Y-58392544D01*
X182557419Y-58392544D02*
X182533609Y-58344925D01*
X182533609Y-57821115D02*
X182533609Y-57725877D01*
X182533609Y-57725877D02*
X182557419Y-57678258D01*
X182557419Y-57678258D02*
X182605038Y-57630639D01*
X182605038Y-57630639D02*
X182700276Y-57606829D01*
X182700276Y-57606829D02*
X182866942Y-57606829D01*
X182866942Y-57606829D02*
X182962180Y-57630639D01*
X182962180Y-57630639D02*
X183009800Y-57678258D01*
X183009800Y-57678258D02*
X183033609Y-57725877D01*
X183033609Y-57725877D02*
X183033609Y-57821115D01*
X183033609Y-57821115D02*
X183009800Y-57868734D01*
X183009800Y-57868734D02*
X182962180Y-57916353D01*
X182962180Y-57916353D02*
X182866942Y-57940162D01*
X182866942Y-57940162D02*
X182700276Y-57940162D01*
X182700276Y-57940162D02*
X182605038Y-57916353D01*
X182605038Y-57916353D02*
X182557419Y-57868734D01*
X182557419Y-57868734D02*
X182533609Y-57821115D01*
X182533609Y-57463971D02*
X182533609Y-57178257D01*
X183033609Y-57321114D02*
X182533609Y-57321114D01*
X183009800Y-57035400D02*
X183033609Y-56963972D01*
X183033609Y-56963972D02*
X183033609Y-56844924D01*
X183033609Y-56844924D02*
X183009800Y-56797305D01*
X183009800Y-56797305D02*
X182985990Y-56773496D01*
X182985990Y-56773496D02*
X182938371Y-56749686D01*
X182938371Y-56749686D02*
X182890752Y-56749686D01*
X182890752Y-56749686D02*
X182843133Y-56773496D01*
X182843133Y-56773496D02*
X182819323Y-56797305D01*
X182819323Y-56797305D02*
X182795514Y-56844924D01*
X182795514Y-56844924D02*
X182771704Y-56940162D01*
X182771704Y-56940162D02*
X182747895Y-56987781D01*
X182747895Y-56987781D02*
X182724085Y-57011591D01*
X182724085Y-57011591D02*
X182676466Y-57035400D01*
X182676466Y-57035400D02*
X182628847Y-57035400D01*
X182628847Y-57035400D02*
X182581228Y-57011591D01*
X182581228Y-57011591D02*
X182557419Y-56987781D01*
X182557419Y-56987781D02*
X182533609Y-56940162D01*
X182533609Y-56940162D02*
X182533609Y-56821115D01*
X182533609Y-56821115D02*
X182557419Y-56749686D01*
X182771704Y-56535401D02*
X182771704Y-56368734D01*
X183033609Y-56297306D02*
X183033609Y-56535401D01*
X183033609Y-56535401D02*
X182533609Y-56535401D01*
X182533609Y-56535401D02*
X182533609Y-56297306D01*
X183033609Y-55844925D02*
X183033609Y-56083020D01*
X183033609Y-56083020D02*
X182533609Y-56083020D01*
X181995514Y-67499687D02*
X181971704Y-67523497D01*
X181971704Y-67523497D02*
X181947895Y-67571116D01*
X181947895Y-67571116D02*
X181947895Y-67618735D01*
X181947895Y-67618735D02*
X181971704Y-67666354D01*
X181971704Y-67666354D02*
X181995514Y-67690163D01*
X181995514Y-67690163D02*
X182043133Y-67713973D01*
X182043133Y-67713973D02*
X182090752Y-67713973D01*
X182090752Y-67713973D02*
X182138371Y-67690163D01*
X182138371Y-67690163D02*
X182162180Y-67666354D01*
X182162180Y-67666354D02*
X182185990Y-67618735D01*
X182185990Y-67618735D02*
X182185990Y-67571116D01*
X182185990Y-67571116D02*
X182162180Y-67523497D01*
X182162180Y-67523497D02*
X182138371Y-67499687D01*
X181947895Y-67499687D02*
X182138371Y-67499687D01*
X182138371Y-67499687D02*
X182162180Y-67475878D01*
X182162180Y-67475878D02*
X182162180Y-67452068D01*
X182162180Y-67452068D02*
X182138371Y-67404449D01*
X182138371Y-67404449D02*
X182090752Y-67380639D01*
X182090752Y-67380639D02*
X181971704Y-67380639D01*
X181971704Y-67380639D02*
X181900276Y-67428259D01*
X181900276Y-67428259D02*
X181852657Y-67499687D01*
X181852657Y-67499687D02*
X181828847Y-67594925D01*
X181828847Y-67594925D02*
X181852657Y-67690163D01*
X181852657Y-67690163D02*
X181900276Y-67761592D01*
X181900276Y-67761592D02*
X181971704Y-67809211D01*
X181971704Y-67809211D02*
X182066942Y-67833020D01*
X182066942Y-67833020D02*
X182162180Y-67809211D01*
X182162180Y-67809211D02*
X182233609Y-67761592D01*
X182233609Y-67761592D02*
X182281228Y-67690163D01*
X182281228Y-67690163D02*
X182305038Y-67594925D01*
X182305038Y-67594925D02*
X182281228Y-67499687D01*
X182281228Y-67499687D02*
X182233609Y-67428259D01*
X181781228Y-67190163D02*
X181757419Y-67166354D01*
X181757419Y-67166354D02*
X181733609Y-67118735D01*
X181733609Y-67118735D02*
X181733609Y-66999687D01*
X181733609Y-66999687D02*
X181757419Y-66952068D01*
X181757419Y-66952068D02*
X181781228Y-66928259D01*
X181781228Y-66928259D02*
X181828847Y-66904449D01*
X181828847Y-66904449D02*
X181876466Y-66904449D01*
X181876466Y-66904449D02*
X181947895Y-66928259D01*
X181947895Y-66928259D02*
X182233609Y-67213973D01*
X182233609Y-67213973D02*
X182233609Y-66904449D01*
X181733609Y-66594926D02*
X181733609Y-66547307D01*
X181733609Y-66547307D02*
X181757419Y-66499688D01*
X181757419Y-66499688D02*
X181781228Y-66475878D01*
X181781228Y-66475878D02*
X181828847Y-66452069D01*
X181828847Y-66452069D02*
X181924085Y-66428259D01*
X181924085Y-66428259D02*
X182043133Y-66428259D01*
X182043133Y-66428259D02*
X182138371Y-66452069D01*
X182138371Y-66452069D02*
X182185990Y-66475878D01*
X182185990Y-66475878D02*
X182209800Y-66499688D01*
X182209800Y-66499688D02*
X182233609Y-66547307D01*
X182233609Y-66547307D02*
X182233609Y-66594926D01*
X182233609Y-66594926D02*
X182209800Y-66642545D01*
X182209800Y-66642545D02*
X182185990Y-66666354D01*
X182185990Y-66666354D02*
X182138371Y-66690164D01*
X182138371Y-66690164D02*
X182043133Y-66713973D01*
X182043133Y-66713973D02*
X181924085Y-66713973D01*
X181924085Y-66713973D02*
X181828847Y-66690164D01*
X181828847Y-66690164D02*
X181781228Y-66666354D01*
X181781228Y-66666354D02*
X181757419Y-66642545D01*
X181757419Y-66642545D02*
X181733609Y-66594926D01*
X181781228Y-66237783D02*
X181757419Y-66213974D01*
X181757419Y-66213974D02*
X181733609Y-66166355D01*
X181733609Y-66166355D02*
X181733609Y-66047307D01*
X181733609Y-66047307D02*
X181757419Y-65999688D01*
X181757419Y-65999688D02*
X181781228Y-65975879D01*
X181781228Y-65975879D02*
X181828847Y-65952069D01*
X181828847Y-65952069D02*
X181876466Y-65952069D01*
X181876466Y-65952069D02*
X181947895Y-65975879D01*
X181947895Y-65975879D02*
X182233609Y-66261593D01*
X182233609Y-66261593D02*
X182233609Y-65952069D01*
X181733609Y-65642546D02*
X181733609Y-65594927D01*
X181733609Y-65594927D02*
X181757419Y-65547308D01*
X181757419Y-65547308D02*
X181781228Y-65523498D01*
X181781228Y-65523498D02*
X181828847Y-65499689D01*
X181828847Y-65499689D02*
X181924085Y-65475879D01*
X181924085Y-65475879D02*
X182043133Y-65475879D01*
X182043133Y-65475879D02*
X182138371Y-65499689D01*
X182138371Y-65499689D02*
X182185990Y-65523498D01*
X182185990Y-65523498D02*
X182209800Y-65547308D01*
X182209800Y-65547308D02*
X182233609Y-65594927D01*
X182233609Y-65594927D02*
X182233609Y-65642546D01*
X182233609Y-65642546D02*
X182209800Y-65690165D01*
X182209800Y-65690165D02*
X182185990Y-65713974D01*
X182185990Y-65713974D02*
X182138371Y-65737784D01*
X182138371Y-65737784D02*
X182043133Y-65761593D01*
X182043133Y-65761593D02*
X181924085Y-65761593D01*
X181924085Y-65761593D02*
X181828847Y-65737784D01*
X181828847Y-65737784D02*
X181781228Y-65713974D01*
X181781228Y-65713974D02*
X181757419Y-65690165D01*
X181757419Y-65690165D02*
X181733609Y-65642546D01*
X184022419Y-92374687D02*
X183546228Y-92708020D01*
X184022419Y-92946115D02*
X183022419Y-92946115D01*
X183022419Y-92946115D02*
X183022419Y-92565163D01*
X183022419Y-92565163D02*
X183070038Y-92469925D01*
X183070038Y-92469925D02*
X183117657Y-92422306D01*
X183117657Y-92422306D02*
X183212895Y-92374687D01*
X183212895Y-92374687D02*
X183355752Y-92374687D01*
X183355752Y-92374687D02*
X183450990Y-92422306D01*
X183450990Y-92422306D02*
X183498609Y-92469925D01*
X183498609Y-92469925D02*
X183546228Y-92565163D01*
X183546228Y-92565163D02*
X183546228Y-92946115D01*
X184022419Y-91517544D02*
X183498609Y-91517544D01*
X183498609Y-91517544D02*
X183403371Y-91565163D01*
X183403371Y-91565163D02*
X183355752Y-91660401D01*
X183355752Y-91660401D02*
X183355752Y-91850877D01*
X183355752Y-91850877D02*
X183403371Y-91946115D01*
X183974800Y-91517544D02*
X184022419Y-91612782D01*
X184022419Y-91612782D02*
X184022419Y-91850877D01*
X184022419Y-91850877D02*
X183974800Y-91946115D01*
X183974800Y-91946115D02*
X183879561Y-91993734D01*
X183879561Y-91993734D02*
X183784323Y-91993734D01*
X183784323Y-91993734D02*
X183689085Y-91946115D01*
X183689085Y-91946115D02*
X183641466Y-91850877D01*
X183641466Y-91850877D02*
X183641466Y-91612782D01*
X183641466Y-91612782D02*
X183593847Y-91517544D01*
X183974800Y-91088972D02*
X184022419Y-90993734D01*
X184022419Y-90993734D02*
X184022419Y-90803258D01*
X184022419Y-90803258D02*
X183974800Y-90708020D01*
X183974800Y-90708020D02*
X183879561Y-90660401D01*
X183879561Y-90660401D02*
X183831942Y-90660401D01*
X183831942Y-90660401D02*
X183736704Y-90708020D01*
X183736704Y-90708020D02*
X183689085Y-90803258D01*
X183689085Y-90803258D02*
X183689085Y-90946115D01*
X183689085Y-90946115D02*
X183641466Y-91041353D01*
X183641466Y-91041353D02*
X183546228Y-91088972D01*
X183546228Y-91088972D02*
X183498609Y-91088972D01*
X183498609Y-91088972D02*
X183403371Y-91041353D01*
X183403371Y-91041353D02*
X183355752Y-90946115D01*
X183355752Y-90946115D02*
X183355752Y-90803258D01*
X183355752Y-90803258D02*
X183403371Y-90708020D01*
X183355752Y-90231829D02*
X184355752Y-90231829D01*
X183403371Y-90231829D02*
X183355752Y-90136591D01*
X183355752Y-90136591D02*
X183355752Y-89946115D01*
X183355752Y-89946115D02*
X183403371Y-89850877D01*
X183403371Y-89850877D02*
X183450990Y-89803258D01*
X183450990Y-89803258D02*
X183546228Y-89755639D01*
X183546228Y-89755639D02*
X183831942Y-89755639D01*
X183831942Y-89755639D02*
X183927180Y-89803258D01*
X183927180Y-89803258D02*
X183974800Y-89850877D01*
X183974800Y-89850877D02*
X184022419Y-89946115D01*
X184022419Y-89946115D02*
X184022419Y-90136591D01*
X184022419Y-90136591D02*
X183974800Y-90231829D01*
X184022419Y-89327067D02*
X183022419Y-89327067D01*
X183403371Y-89327067D02*
X183355752Y-89231829D01*
X183355752Y-89231829D02*
X183355752Y-89041353D01*
X183355752Y-89041353D02*
X183403371Y-88946115D01*
X183403371Y-88946115D02*
X183450990Y-88898496D01*
X183450990Y-88898496D02*
X183546228Y-88850877D01*
X183546228Y-88850877D02*
X183831942Y-88850877D01*
X183831942Y-88850877D02*
X183927180Y-88898496D01*
X183927180Y-88898496D02*
X183974800Y-88946115D01*
X183974800Y-88946115D02*
X184022419Y-89041353D01*
X184022419Y-89041353D02*
X184022419Y-89231829D01*
X184022419Y-89231829D02*
X183974800Y-89327067D01*
X183974800Y-88041353D02*
X184022419Y-88136591D01*
X184022419Y-88136591D02*
X184022419Y-88327067D01*
X184022419Y-88327067D02*
X183974800Y-88422305D01*
X183974800Y-88422305D02*
X183879561Y-88469924D01*
X183879561Y-88469924D02*
X183498609Y-88469924D01*
X183498609Y-88469924D02*
X183403371Y-88422305D01*
X183403371Y-88422305D02*
X183355752Y-88327067D01*
X183355752Y-88327067D02*
X183355752Y-88136591D01*
X183355752Y-88136591D02*
X183403371Y-88041353D01*
X183403371Y-88041353D02*
X183498609Y-87993734D01*
X183498609Y-87993734D02*
X183593847Y-87993734D01*
X183593847Y-87993734D02*
X183689085Y-88469924D01*
X184022419Y-87565162D02*
X183355752Y-87565162D01*
X183546228Y-87565162D02*
X183450990Y-87517543D01*
X183450990Y-87517543D02*
X183403371Y-87469924D01*
X183403371Y-87469924D02*
X183355752Y-87374686D01*
X183355752Y-87374686D02*
X183355752Y-87279448D01*
X184022419Y-86946114D02*
X183355752Y-86946114D01*
X183546228Y-86946114D02*
X183450990Y-86898495D01*
X183450990Y-86898495D02*
X183403371Y-86850876D01*
X183403371Y-86850876D02*
X183355752Y-86755638D01*
X183355752Y-86755638D02*
X183355752Y-86660400D01*
X183355752Y-86422304D02*
X184022419Y-86184209D01*
X183355752Y-85946114D02*
X184022419Y-86184209D01*
X184022419Y-86184209D02*
X184260514Y-86279447D01*
X184260514Y-86279447D02*
X184308133Y-86327066D01*
X184308133Y-86327066D02*
X184355752Y-86422304D01*
X184022419Y-84803256D02*
X183022419Y-84803256D01*
X183022419Y-84803256D02*
X183022419Y-84422304D01*
X183022419Y-84422304D02*
X183070038Y-84327066D01*
X183070038Y-84327066D02*
X183117657Y-84279447D01*
X183117657Y-84279447D02*
X183212895Y-84231828D01*
X183212895Y-84231828D02*
X183355752Y-84231828D01*
X183355752Y-84231828D02*
X183450990Y-84279447D01*
X183450990Y-84279447D02*
X183498609Y-84327066D01*
X183498609Y-84327066D02*
X183546228Y-84422304D01*
X183546228Y-84422304D02*
X183546228Y-84803256D01*
X184022419Y-83803256D02*
X183355752Y-83803256D01*
X183022419Y-83803256D02*
X183070038Y-83850875D01*
X183070038Y-83850875D02*
X183117657Y-83803256D01*
X183117657Y-83803256D02*
X183070038Y-83755637D01*
X183070038Y-83755637D02*
X183022419Y-83803256D01*
X183022419Y-83803256D02*
X183117657Y-83803256D01*
X184022419Y-82565161D02*
X183022419Y-82565161D01*
X183022419Y-82565161D02*
X183022419Y-82184209D01*
X183022419Y-82184209D02*
X183070038Y-82088971D01*
X183070038Y-82088971D02*
X183117657Y-82041352D01*
X183117657Y-82041352D02*
X183212895Y-81993733D01*
X183212895Y-81993733D02*
X183355752Y-81993733D01*
X183355752Y-81993733D02*
X183450990Y-82041352D01*
X183450990Y-82041352D02*
X183498609Y-82088971D01*
X183498609Y-82088971D02*
X183546228Y-82184209D01*
X183546228Y-82184209D02*
X183546228Y-82565161D01*
X184022419Y-81565161D02*
X183355752Y-81565161D01*
X183022419Y-81565161D02*
X183070038Y-81612780D01*
X183070038Y-81612780D02*
X183117657Y-81565161D01*
X183117657Y-81565161D02*
X183070038Y-81517542D01*
X183070038Y-81517542D02*
X183022419Y-81565161D01*
X183022419Y-81565161D02*
X183117657Y-81565161D01*
X183974800Y-80660400D02*
X184022419Y-80755638D01*
X184022419Y-80755638D02*
X184022419Y-80946114D01*
X184022419Y-80946114D02*
X183974800Y-81041352D01*
X183974800Y-81041352D02*
X183927180Y-81088971D01*
X183927180Y-81088971D02*
X183831942Y-81136590D01*
X183831942Y-81136590D02*
X183546228Y-81136590D01*
X183546228Y-81136590D02*
X183450990Y-81088971D01*
X183450990Y-81088971D02*
X183403371Y-81041352D01*
X183403371Y-81041352D02*
X183355752Y-80946114D01*
X183355752Y-80946114D02*
X183355752Y-80755638D01*
X183355752Y-80755638D02*
X183403371Y-80660400D01*
X184022419Y-80088971D02*
X183974800Y-80184209D01*
X183974800Y-80184209D02*
X183927180Y-80231828D01*
X183927180Y-80231828D02*
X183831942Y-80279447D01*
X183831942Y-80279447D02*
X183546228Y-80279447D01*
X183546228Y-80279447D02*
X183450990Y-80231828D01*
X183450990Y-80231828D02*
X183403371Y-80184209D01*
X183403371Y-80184209D02*
X183355752Y-80088971D01*
X183355752Y-80088971D02*
X183355752Y-79946114D01*
X183355752Y-79946114D02*
X183403371Y-79850876D01*
X183403371Y-79850876D02*
X183450990Y-79803257D01*
X183450990Y-79803257D02*
X183546228Y-79755638D01*
X183546228Y-79755638D02*
X183831942Y-79755638D01*
X183831942Y-79755638D02*
X183927180Y-79803257D01*
X183927180Y-79803257D02*
X183974800Y-79850876D01*
X183974800Y-79850876D02*
X184022419Y-79946114D01*
X184022419Y-79946114D02*
X184022419Y-80088971D01*
D12*
X187360901Y-88765809D02*
X187503758Y-88813428D01*
X187503758Y-88813428D02*
X187551377Y-88861047D01*
X187551377Y-88861047D02*
X187598996Y-88956285D01*
X187598996Y-88956285D02*
X187598996Y-89099142D01*
X187598996Y-89099142D02*
X187551377Y-89194380D01*
X187551377Y-89194380D02*
X187503758Y-89242000D01*
X187503758Y-89242000D02*
X187408520Y-89289619D01*
X187408520Y-89289619D02*
X187027568Y-89289619D01*
X187027568Y-89289619D02*
X187027568Y-88289619D01*
X187027568Y-88289619D02*
X187360901Y-88289619D01*
X187360901Y-88289619D02*
X187456139Y-88337238D01*
X187456139Y-88337238D02*
X187503758Y-88384857D01*
X187503758Y-88384857D02*
X187551377Y-88480095D01*
X187551377Y-88480095D02*
X187551377Y-88575333D01*
X187551377Y-88575333D02*
X187503758Y-88670571D01*
X187503758Y-88670571D02*
X187456139Y-88718190D01*
X187456139Y-88718190D02*
X187360901Y-88765809D01*
X187360901Y-88765809D02*
X187027568Y-88765809D01*
X188218044Y-88813428D02*
X188218044Y-89289619D01*
X187884711Y-88289619D02*
X188218044Y-88813428D01*
X188218044Y-88813428D02*
X188551377Y-88289619D01*
X188884711Y-89194380D02*
X188932330Y-89242000D01*
X188932330Y-89242000D02*
X188884711Y-89289619D01*
X188884711Y-89289619D02*
X188837092Y-89242000D01*
X188837092Y-89242000D02*
X188884711Y-89194380D01*
X188884711Y-89194380D02*
X188884711Y-89289619D01*
X188884711Y-88670571D02*
X188932330Y-88718190D01*
X188932330Y-88718190D02*
X188884711Y-88765809D01*
X188884711Y-88765809D02*
X188837092Y-88718190D01*
X188837092Y-88718190D02*
X188884711Y-88670571D01*
X188884711Y-88670571D02*
X188884711Y-88765809D01*
G36*
X190729714Y-88414970D02*
G01*
X190786125Y-88471381D01*
X190821615Y-88613341D01*
X190821615Y-88915896D01*
X190786125Y-89057855D01*
X190729711Y-89114269D01*
X190679012Y-89139619D01*
X190547553Y-89139619D01*
X190496852Y-89114268D01*
X190440438Y-89057855D01*
X190404949Y-88915896D01*
X190404949Y-88613341D01*
X190440439Y-88471381D01*
X190496849Y-88414970D01*
X190547553Y-88389619D01*
X190679012Y-88389619D01*
X190729714Y-88414970D01*
G37*
G36*
X189729713Y-88414969D02*
G01*
X189748645Y-88433902D01*
X189773996Y-88484603D01*
X189773996Y-88568443D01*
X189748645Y-88619144D01*
X189729713Y-88638077D01*
X189679012Y-88663428D01*
X189452568Y-88663428D01*
X189452568Y-88389619D01*
X189679012Y-88389619D01*
X189729713Y-88414969D01*
G37*
G36*
X193630330Y-88853904D02*
G01*
X193500996Y-88853904D01*
X193565662Y-88659903D01*
X193630330Y-88853904D01*
G37*
G36*
X195053758Y-89514619D02*
G01*
X189077568Y-89514619D01*
X189077568Y-88264619D01*
X189202568Y-88264619D01*
X189202568Y-89264619D01*
X189204970Y-89289005D01*
X189223634Y-89334065D01*
X189258122Y-89368553D01*
X189303182Y-89387217D01*
X189351954Y-89387217D01*
X189397014Y-89368553D01*
X189431502Y-89334065D01*
X189450166Y-89289005D01*
X189452568Y-89264619D01*
X189452568Y-88913428D01*
X189500581Y-88913428D01*
X189796592Y-89336302D01*
X189812544Y-89354902D01*
X189853675Y-89381114D01*
X189901706Y-89389590D01*
X189949324Y-89379040D01*
X189989279Y-89351071D01*
X190015491Y-89309941D01*
X190023967Y-89261909D01*
X190013417Y-89214292D01*
X190001400Y-89192936D01*
X189788188Y-88888347D01*
X189859659Y-88852613D01*
X189870157Y-88846003D01*
X189873204Y-88844742D01*
X189876635Y-88841926D01*
X189880397Y-88839558D01*
X189882560Y-88837063D01*
X189892146Y-88829197D01*
X189939765Y-88781579D01*
X189947634Y-88771990D01*
X189950126Y-88769829D01*
X189952491Y-88766071D01*
X189955310Y-88762637D01*
X189956573Y-88759586D01*
X189963180Y-88749092D01*
X190010799Y-88653854D01*
X190019557Y-88630968D01*
X190019875Y-88626487D01*
X190021594Y-88622338D01*
X190023996Y-88597952D01*
X190154949Y-88597952D01*
X190154949Y-88931285D01*
X190155368Y-88935539D01*
X190155097Y-88937361D01*
X190156446Y-88946489D01*
X190157351Y-88955671D01*
X190158055Y-88957372D01*
X190158681Y-88961602D01*
X190206300Y-89152078D01*
X190214545Y-89175153D01*
X190220077Y-89182619D01*
X190223634Y-89191207D01*
X190239179Y-89210149D01*
X190334417Y-89305388D01*
X190344005Y-89313257D01*
X190346167Y-89315749D01*
X190349924Y-89318114D01*
X190353359Y-89320933D01*
X190356409Y-89322196D01*
X190366904Y-89328803D01*
X190462142Y-89376422D01*
X190485028Y-89385180D01*
X190489508Y-89385498D01*
X190493658Y-89387217D01*
X190518044Y-89389619D01*
X190708520Y-89389619D01*
X190732906Y-89387217D01*
X190737054Y-89385498D01*
X190741536Y-89385180D01*
X190764422Y-89376422D01*
X190859659Y-89328804D01*
X190870155Y-89322196D01*
X190873205Y-89320933D01*
X190876639Y-89318114D01*
X190880397Y-89315749D01*
X190882558Y-89313257D01*
X190892147Y-89305388D01*
X190987385Y-89210149D01*
X191002930Y-89191207D01*
X191006487Y-89182618D01*
X191012019Y-89175153D01*
X191020264Y-89152078D01*
X191067883Y-88961602D01*
X191068508Y-88957372D01*
X191069213Y-88955671D01*
X191070117Y-88946491D01*
X191071467Y-88937362D01*
X191071195Y-88935539D01*
X191071615Y-88931285D01*
X191071615Y-88597952D01*
X191071195Y-88593697D01*
X191071467Y-88591875D01*
X191070117Y-88582745D01*
X191069213Y-88573566D01*
X191068508Y-88571864D01*
X191067883Y-88567635D01*
X191039748Y-88455095D01*
X191202568Y-88455095D01*
X191202568Y-88550333D01*
X191204970Y-88574719D01*
X191206688Y-88578867D01*
X191207007Y-88583349D01*
X191215765Y-88606235D01*
X191263383Y-88701472D01*
X191269992Y-88711970D01*
X191271254Y-88715017D01*
X191274069Y-88718448D01*
X191276438Y-88722210D01*
X191278932Y-88724373D01*
X191286799Y-88733959D01*
X191334417Y-88781578D01*
X191344005Y-88789447D01*
X191346167Y-88791939D01*
X191349924Y-88794304D01*
X191353359Y-88797123D01*
X191356409Y-88798386D01*
X191366904Y-88804993D01*
X191462142Y-88852612D01*
X191463927Y-88853295D01*
X191464652Y-88853832D01*
X191474881Y-88857487D01*
X191485028Y-88861370D01*
X191485927Y-88861433D01*
X191487727Y-88862077D01*
X191664893Y-88906368D01*
X191729713Y-88938778D01*
X191748645Y-88957711D01*
X191773996Y-89008412D01*
X191773996Y-89044633D01*
X191748644Y-89095336D01*
X191729713Y-89114268D01*
X191679012Y-89139619D01*
X191490711Y-89139619D01*
X191367096Y-89098415D01*
X191343202Y-89092982D01*
X191294553Y-89096439D01*
X191250928Y-89118251D01*
X191218973Y-89155097D01*
X191203550Y-89201366D01*
X191207007Y-89250015D01*
X191228819Y-89293640D01*
X191265665Y-89325595D01*
X191288040Y-89335585D01*
X191430896Y-89383204D01*
X191442989Y-89385953D01*
X191446039Y-89387217D01*
X191450460Y-89387652D01*
X191454790Y-89388637D01*
X191458081Y-89388403D01*
X191470425Y-89389619D01*
X191708520Y-89389619D01*
X191732906Y-89387217D01*
X191737054Y-89385498D01*
X191741536Y-89385180D01*
X191764422Y-89376422D01*
X191859659Y-89328804D01*
X191870155Y-89322196D01*
X191873205Y-89320933D01*
X191876638Y-89318114D01*
X191880397Y-89315749D01*
X191882559Y-89313255D01*
X191892147Y-89305387D01*
X191939766Y-89257768D01*
X191947633Y-89248180D01*
X191950126Y-89246019D01*
X191952492Y-89242259D01*
X191955311Y-89238825D01*
X191956573Y-89235776D01*
X191963180Y-89225282D01*
X192010799Y-89130044D01*
X192019557Y-89107158D01*
X192019875Y-89102677D01*
X192021594Y-89098528D01*
X192023996Y-89074142D01*
X192023996Y-88978904D01*
X192021594Y-88954518D01*
X192019875Y-88950368D01*
X192019557Y-88945888D01*
X192010799Y-88923002D01*
X191963180Y-88827764D01*
X191956573Y-88817269D01*
X191955310Y-88814219D01*
X191952491Y-88810784D01*
X191950126Y-88807027D01*
X191947634Y-88804865D01*
X191939765Y-88795277D01*
X191892146Y-88747659D01*
X191882560Y-88739792D01*
X191880397Y-88737298D01*
X191876635Y-88734929D01*
X191873204Y-88732114D01*
X191870157Y-88730852D01*
X191859659Y-88724243D01*
X191764422Y-88676625D01*
X191762636Y-88675941D01*
X191761912Y-88675405D01*
X191751682Y-88671749D01*
X191741536Y-88667867D01*
X191740636Y-88667803D01*
X191738837Y-88667160D01*
X191561672Y-88622868D01*
X191496851Y-88590458D01*
X191477918Y-88571526D01*
X191452568Y-88520825D01*
X191452568Y-88484603D01*
X191477918Y-88433901D01*
X191496851Y-88414969D01*
X191547553Y-88389619D01*
X191735856Y-88389619D01*
X191859467Y-88430823D01*
X191883361Y-88436256D01*
X191932011Y-88432799D01*
X191975635Y-88410987D01*
X192007591Y-88374141D01*
X192023014Y-88327872D01*
X192019557Y-88279222D01*
X192012255Y-88264619D01*
X192202568Y-88264619D01*
X192202568Y-89264619D01*
X192204970Y-89289005D01*
X192223634Y-89334065D01*
X192258122Y-89368553D01*
X192303182Y-89387217D01*
X192351954Y-89387217D01*
X192397014Y-89368553D01*
X192431502Y-89334065D01*
X192450166Y-89289005D01*
X192452568Y-89264619D01*
X192452568Y-88865809D01*
X192773996Y-88865809D01*
X192773996Y-89264619D01*
X192776398Y-89289005D01*
X192795062Y-89334065D01*
X192829550Y-89368553D01*
X192874610Y-89387217D01*
X192923382Y-89387217D01*
X192968442Y-89368553D01*
X193002930Y-89334065D01*
X193021594Y-89289005D01*
X193023996Y-89264619D01*
X193023996Y-89248985D01*
X193108312Y-89248985D01*
X193111769Y-89297634D01*
X193133581Y-89341259D01*
X193170427Y-89373214D01*
X193216696Y-89388637D01*
X193265345Y-89385180D01*
X193308970Y-89363368D01*
X193340925Y-89326522D01*
X193350915Y-89304147D01*
X193417663Y-89103904D01*
X193713663Y-89103904D01*
X193780410Y-89304147D01*
X193790401Y-89326522D01*
X193822356Y-89363368D01*
X193865980Y-89385180D01*
X193914630Y-89388637D01*
X193960899Y-89373214D01*
X193997745Y-89341258D01*
X194019557Y-89297634D01*
X194023014Y-89248984D01*
X194017581Y-89225090D01*
X193697424Y-88264619D01*
X194107330Y-88264619D01*
X194107330Y-89264619D01*
X194109732Y-89289005D01*
X194128396Y-89334065D01*
X194162884Y-89368553D01*
X194207944Y-89387217D01*
X194256716Y-89387217D01*
X194301776Y-89368553D01*
X194336264Y-89334065D01*
X194354928Y-89289005D01*
X194357330Y-89264619D01*
X194357330Y-88735313D01*
X194695228Y-89326636D01*
X194698874Y-89331773D01*
X194699824Y-89334065D01*
X194702158Y-89336399D01*
X194709412Y-89346618D01*
X194722556Y-89356797D01*
X194734312Y-89368553D01*
X194741672Y-89371601D01*
X194747973Y-89376481D01*
X194764014Y-89380855D01*
X194779372Y-89387217D01*
X194787339Y-89387217D01*
X194795028Y-89389314D01*
X194811523Y-89387217D01*
X194828144Y-89387217D01*
X194835504Y-89384168D01*
X194843411Y-89383163D01*
X194857845Y-89374914D01*
X194873204Y-89368553D01*
X194878838Y-89362918D01*
X194885757Y-89358965D01*
X194895936Y-89345820D01*
X194907692Y-89334065D01*
X194910740Y-89326704D01*
X194915620Y-89320404D01*
X194919995Y-89304361D01*
X194926356Y-89289005D01*
X194927584Y-89276535D01*
X194928453Y-89273350D01*
X194928140Y-89270890D01*
X194928758Y-89264619D01*
X194928758Y-88264619D01*
X194926356Y-88240233D01*
X194907692Y-88195173D01*
X194873204Y-88160685D01*
X194828144Y-88142021D01*
X194779372Y-88142021D01*
X194734312Y-88160685D01*
X194699824Y-88195173D01*
X194681160Y-88240233D01*
X194678758Y-88264619D01*
X194678758Y-88793923D01*
X194340860Y-88202602D01*
X194337213Y-88197464D01*
X194336264Y-88195173D01*
X194333929Y-88192838D01*
X194326676Y-88182620D01*
X194313531Y-88172440D01*
X194301776Y-88160685D01*
X194294415Y-88157636D01*
X194288115Y-88152757D01*
X194272073Y-88148382D01*
X194256716Y-88142021D01*
X194248749Y-88142021D01*
X194241060Y-88139924D01*
X194224565Y-88142021D01*
X194207944Y-88142021D01*
X194200583Y-88145069D01*
X194192677Y-88146075D01*
X194178242Y-88154323D01*
X194162884Y-88160685D01*
X194157249Y-88166319D01*
X194150331Y-88170273D01*
X194140151Y-88183417D01*
X194128396Y-88195173D01*
X194125347Y-88202533D01*
X194120468Y-88208834D01*
X194116093Y-88224875D01*
X194109732Y-88240233D01*
X194108503Y-88252704D01*
X194107635Y-88255889D01*
X194107947Y-88258348D01*
X194107330Y-88264619D01*
X193697424Y-88264619D01*
X193684248Y-88225091D01*
X193674258Y-88202716D01*
X193668406Y-88195968D01*
X193664412Y-88187980D01*
X193652574Y-88177713D01*
X193642303Y-88165870D01*
X193634311Y-88161874D01*
X193627566Y-88156024D01*
X193612698Y-88151068D01*
X193598678Y-88144058D01*
X193589768Y-88143424D01*
X193581297Y-88140601D01*
X193565662Y-88141711D01*
X193550029Y-88140601D01*
X193541557Y-88143424D01*
X193532647Y-88144058D01*
X193518625Y-88151069D01*
X193503760Y-88156024D01*
X193497014Y-88161874D01*
X193489023Y-88165870D01*
X193478754Y-88177710D01*
X193466914Y-88187979D01*
X193462918Y-88195969D01*
X193457068Y-88202716D01*
X193447077Y-88225091D01*
X193113745Y-89225091D01*
X193108312Y-89248985D01*
X193023996Y-89248985D01*
X193023996Y-88264619D01*
X193021594Y-88240233D01*
X193002930Y-88195173D01*
X192968442Y-88160685D01*
X192923382Y-88142021D01*
X192874610Y-88142021D01*
X192829550Y-88160685D01*
X192795062Y-88195173D01*
X192776398Y-88240233D01*
X192773996Y-88264619D01*
X192773996Y-88615809D01*
X192452568Y-88615809D01*
X192452568Y-88264619D01*
X192450166Y-88240233D01*
X192431502Y-88195173D01*
X192397014Y-88160685D01*
X192351954Y-88142021D01*
X192303182Y-88142021D01*
X192258122Y-88160685D01*
X192223634Y-88195173D01*
X192204970Y-88240233D01*
X192202568Y-88264619D01*
X192012255Y-88264619D01*
X191997745Y-88235598D01*
X191960899Y-88203643D01*
X191938524Y-88193652D01*
X191795667Y-88146034D01*
X191783576Y-88143284D01*
X191780525Y-88142021D01*
X191776102Y-88141585D01*
X191771773Y-88140601D01*
X191768482Y-88140834D01*
X191756139Y-88139619D01*
X191518044Y-88139619D01*
X191493658Y-88142021D01*
X191489508Y-88143739D01*
X191485028Y-88144058D01*
X191462142Y-88152816D01*
X191366904Y-88200435D01*
X191356409Y-88207041D01*
X191353359Y-88208305D01*
X191349924Y-88211123D01*
X191346167Y-88213489D01*
X191344005Y-88215980D01*
X191334417Y-88223850D01*
X191286799Y-88271469D01*
X191278932Y-88281054D01*
X191276438Y-88283218D01*
X191274069Y-88286979D01*
X191271254Y-88290411D01*
X191269992Y-88293457D01*
X191263383Y-88303956D01*
X191215765Y-88399193D01*
X191207007Y-88422079D01*
X191206688Y-88426560D01*
X191204970Y-88430709D01*
X191202568Y-88455095D01*
X191039748Y-88455095D01*
X191020264Y-88377159D01*
X191012019Y-88354084D01*
X191006485Y-88346615D01*
X191002929Y-88338030D01*
X190987384Y-88319088D01*
X190892146Y-88223850D01*
X190882560Y-88215983D01*
X190880397Y-88213489D01*
X190876635Y-88211120D01*
X190873204Y-88208305D01*
X190870157Y-88207043D01*
X190859659Y-88200434D01*
X190764422Y-88152816D01*
X190741536Y-88144058D01*
X190737054Y-88143739D01*
X190732906Y-88142021D01*
X190708520Y-88139619D01*
X190518044Y-88139619D01*
X190493658Y-88142021D01*
X190489508Y-88143739D01*
X190485028Y-88144058D01*
X190462142Y-88152816D01*
X190366904Y-88200435D01*
X190356407Y-88207042D01*
X190353360Y-88208305D01*
X190349928Y-88211121D01*
X190346167Y-88213489D01*
X190344003Y-88215983D01*
X190334418Y-88223850D01*
X190239180Y-88319088D01*
X190223635Y-88338030D01*
X190220078Y-88346615D01*
X190214545Y-88354084D01*
X190206300Y-88377159D01*
X190158681Y-88567635D01*
X190158055Y-88571864D01*
X190157351Y-88573566D01*
X190156446Y-88582747D01*
X190155097Y-88591876D01*
X190155368Y-88593697D01*
X190154949Y-88597952D01*
X190023996Y-88597952D01*
X190023996Y-88455095D01*
X190021594Y-88430709D01*
X190019875Y-88426559D01*
X190019557Y-88422079D01*
X190010799Y-88399193D01*
X189963180Y-88303955D01*
X189956573Y-88293460D01*
X189955310Y-88290410D01*
X189952491Y-88286975D01*
X189950126Y-88283218D01*
X189947634Y-88281056D01*
X189939765Y-88271468D01*
X189892146Y-88223850D01*
X189882560Y-88215983D01*
X189880397Y-88213489D01*
X189876635Y-88211120D01*
X189873204Y-88208305D01*
X189870157Y-88207043D01*
X189859659Y-88200434D01*
X189764422Y-88152816D01*
X189741536Y-88144058D01*
X189737054Y-88143739D01*
X189732906Y-88142021D01*
X189708520Y-88139619D01*
X189327568Y-88139619D01*
X189303182Y-88142021D01*
X189258122Y-88160685D01*
X189223634Y-88195173D01*
X189204970Y-88240233D01*
X189202568Y-88264619D01*
X189077568Y-88264619D01*
X189077568Y-88014619D01*
X195053758Y-88014619D01*
X195053758Y-89514619D01*
G37*
D13*
X192679819Y-57891666D02*
X192679819Y-58367856D01*
X192679819Y-58367856D02*
X191679819Y-58367856D01*
X192679819Y-57034523D02*
X192679819Y-57605951D01*
X192679819Y-57320237D02*
X191679819Y-57320237D01*
X191679819Y-57320237D02*
X191822676Y-57415475D01*
X191822676Y-57415475D02*
X191917914Y-57510713D01*
X191917914Y-57510713D02*
X191965533Y-57605951D01*
%TO.C,C5*%
D14*
X183953733Y-72560000D02*
X184246267Y-72560000D01*
X183953733Y-71540000D02*
X184246267Y-71540000D01*
%TO.C,R10*%
X189670276Y-51202500D02*
X190179724Y-51202500D01*
X189670276Y-52247500D02*
X190179724Y-52247500D01*
%TO.C,U3*%
X182837500Y-62640000D02*
X183107500Y-62640000D01*
X182837500Y-68160000D02*
X182837500Y-62640000D01*
X183107500Y-68160000D02*
X182837500Y-68160000D01*
X188087500Y-62640000D02*
X188357500Y-62640000D01*
X188357500Y-62640000D02*
X188357500Y-68160000D01*
X188357500Y-68160000D02*
X188087500Y-68160000D01*
X188097500Y-61810000D02*
X188567500Y-61470000D01*
X188567500Y-62150000D01*
X188097500Y-61810000D01*
G36*
X188567500Y-62150000D02*
G01*
X188097500Y-61810000D01*
X188567500Y-61470000D01*
X188567500Y-62150000D01*
G37*
%TO.C,C14*%
X190391233Y-64390000D02*
X190683767Y-64390000D01*
X190391233Y-65410000D02*
X190683767Y-65410000D01*
%TO.C,R12*%
X184229724Y-59427500D02*
X183720276Y-59427500D01*
X184229724Y-60472500D02*
X183720276Y-60472500D01*
%TO.C,Y1*%
X188590000Y-82877500D02*
X188590000Y-85297500D01*
X188590000Y-85297500D02*
X191410000Y-85297500D01*
%TO.C,D1*%
X183190000Y-50115000D02*
X183190000Y-51585000D01*
X183190000Y-51585000D02*
X185475000Y-51585000D01*
X185475000Y-50115000D02*
X183190000Y-50115000D01*
%TO.C,R8*%
X193579724Y-51302500D02*
X193070276Y-51302500D01*
X193579724Y-52347500D02*
X193070276Y-52347500D01*
%TO.C,C8*%
X192215000Y-80816233D02*
X192215000Y-81108767D01*
X193235000Y-80816233D02*
X193235000Y-81108767D01*
%TO.C,C9*%
X187265000Y-84146267D02*
X187265000Y-83853733D01*
X188285000Y-84146267D02*
X188285000Y-83853733D01*
%TO.C,C15*%
X193265000Y-62896267D02*
X193265000Y-62603733D01*
X194285000Y-62896267D02*
X194285000Y-62603733D01*
%TO.C,R15*%
X190867224Y-62927500D02*
X190357776Y-62927500D01*
X190867224Y-63972500D02*
X190357776Y-63972500D01*
%TO.C,C10*%
X192015000Y-83916233D02*
X192015000Y-84208767D01*
X193035000Y-83916233D02*
X193035000Y-84208767D01*
%TO.C,R13*%
X187020276Y-59427500D02*
X187529724Y-59427500D01*
X187020276Y-60472500D02*
X187529724Y-60472500D01*
%TO.C,R2*%
X196077500Y-72154724D02*
X196077500Y-71645276D01*
X197122500Y-72154724D02*
X197122500Y-71645276D01*
%TO.C,C13*%
X184896267Y-74715000D02*
X184603733Y-74715000D01*
X184896267Y-75735000D02*
X184603733Y-75735000D01*
%TO.C,C12*%
X190563748Y-59415000D02*
X191086252Y-59415000D01*
X190563748Y-60885000D02*
X191086252Y-60885000D01*
%TO.C,C4*%
X189591233Y-68665000D02*
X189883767Y-68665000D01*
X189591233Y-69685000D02*
X189883767Y-69685000D01*
%TO.C,C3*%
X196015000Y-65353733D02*
X196015000Y-65646267D01*
X197035000Y-65353733D02*
X197035000Y-65646267D01*
%TO.C,U2*%
D11*
X190250000Y-59500000D02*
G75*
G02*
X190050000Y-59500000I-100000J0D01*
G01*
X190050000Y-59500000D02*
G75*
G02*
X190250000Y-59500000I100000J0D01*
G01*
%TO.C,R5*%
D14*
X190677500Y-80845276D02*
X190677500Y-81354724D01*
X191722500Y-80845276D02*
X191722500Y-81354724D01*
%TO.C,C6*%
X194590000Y-68721267D02*
X194590000Y-68428733D01*
X195610000Y-68721267D02*
X195610000Y-68428733D01*
%TO.C,TP6*%
X186075000Y-53325000D02*
G75*
G02*
X183175000Y-53325000I-1450000J0D01*
G01*
X183175000Y-53325000D02*
G75*
G02*
X186075000Y-53325000I1450000J0D01*
G01*
%TO.C,R14*%
X194852500Y-63054724D02*
X194852500Y-62545276D01*
X195897500Y-63054724D02*
X195897500Y-62545276D01*
%TO.C,R7*%
X186677500Y-52945276D02*
X186677500Y-53454724D01*
X187722500Y-52945276D02*
X187722500Y-53454724D01*
%TO.C,R1*%
X195952500Y-75329724D02*
X195952500Y-74820276D01*
X196997500Y-75329724D02*
X196997500Y-74820276D01*
%TO.C,R9*%
X190895276Y-61427500D02*
X191404724Y-61427500D01*
X190895276Y-62472500D02*
X191404724Y-62472500D01*
%TO.C,J1*%
X187875000Y-96110000D02*
X187875000Y-94950000D01*
X188685000Y-96110000D02*
X187875000Y-96110000D01*
X189495000Y-93790000D02*
X191970000Y-93790000D01*
X189495000Y-94283292D02*
X189495000Y-93790000D01*
X189495000Y-96110000D02*
X189495000Y-95616708D01*
X189495000Y-96110000D02*
X191970000Y-96110000D01*
X191970000Y-94632077D02*
X191970000Y-93790000D01*
X191970000Y-96110000D02*
X191970000Y-95267923D01*
%TO.C,C1*%
X196065000Y-68721267D02*
X196065000Y-68428733D01*
X197085000Y-68721267D02*
X197085000Y-68428733D01*
%TO.C,C2*%
X190278733Y-65865000D02*
X190571267Y-65865000D01*
X190278733Y-66885000D02*
X190571267Y-66885000D01*
%TO.C,R11*%
X189904724Y-52677500D02*
X189395276Y-52677500D01*
X189904724Y-53722500D02*
X189395276Y-53722500D01*
%TO.C,Q1*%
X193025000Y-64575000D02*
X193025000Y-66975000D01*
X193025000Y-66975000D02*
X195225000Y-66975000D01*
X195225000Y-64575000D02*
X193025000Y-64575000D01*
X195225000Y-66975000D02*
X195225000Y-64575000D01*
%TO.C,R3*%
X191602500Y-68195276D02*
X191602500Y-68704724D01*
X192647500Y-68195276D02*
X192647500Y-68704724D01*
%TO.C,D2*%
X195375000Y-50575000D02*
X195375000Y-55175000D01*
X195375000Y-55175000D02*
X197775000Y-55175000D01*
X197775000Y-50575000D02*
X195375000Y-50575000D01*
X197775000Y-55175000D02*
X197775000Y-50575000D01*
D10*
X195375000Y-53475000D02*
X195375000Y-54275000D01*
X195075000Y-54275000D01*
X195075000Y-53475000D01*
X195375000Y-53475000D01*
G36*
X195375000Y-54275000D02*
G01*
X195075000Y-54275000D01*
X195075000Y-53475000D01*
X195375000Y-53475000D01*
X195375000Y-54275000D01*
G37*
X198075000Y-53475000D02*
X198075000Y-54275000D01*
X197775000Y-54275000D01*
X197775000Y-53475000D01*
X198075000Y-53475000D01*
G36*
X198075000Y-54275000D02*
G01*
X197775000Y-54275000D01*
X197775000Y-53475000D01*
X198075000Y-53475000D01*
X198075000Y-54275000D01*
G37*
%TO.C,SW1*%
D14*
X187600000Y-59075000D02*
X184100000Y-59075000D01*
X187600000Y-59075000D02*
X187600000Y-59035000D01*
X188400000Y-59035000D02*
X187600000Y-59035000D01*
%TO.C,U1*%
X187615000Y-70815000D02*
X188265000Y-70815000D01*
X187615000Y-71465000D02*
X187615000Y-70815000D01*
X187615000Y-78035000D02*
X187615000Y-77385000D01*
X188265000Y-78035000D02*
X187615000Y-78035000D01*
X194185000Y-70815000D02*
X194835000Y-70815000D01*
X194835000Y-70815000D02*
X194835000Y-71465000D01*
X194835000Y-77385000D02*
X194835000Y-78035000D01*
X194835000Y-78035000D02*
X194185000Y-78035000D01*
X187085000Y-71825000D02*
X186755000Y-72065000D01*
X186755000Y-71585000D01*
X187085000Y-71825000D01*
G36*
X187085000Y-71825000D02*
G01*
X186755000Y-72065000D01*
X186755000Y-71585000D01*
X187085000Y-71825000D01*
G37*
%TO.C,R4*%
X193077500Y-68195276D02*
X193077500Y-68704724D01*
X194122500Y-68195276D02*
X194122500Y-68704724D01*
D15*
%TO.C,G\u002A\u002A\u002A*%
G36*
X190631022Y-90001499D02*
G01*
X190628091Y-90004430D01*
X190625161Y-90001499D01*
X190628091Y-89998569D01*
X190631022Y-90001499D01*
G37*
G36*
X189327920Y-89704097D02*
G01*
X189330589Y-89709211D01*
X189341970Y-89715463D01*
X189359224Y-89722002D01*
X189379512Y-89727976D01*
X189399995Y-89732534D01*
X189417833Y-89734824D01*
X189428800Y-89734351D01*
X189453147Y-89733060D01*
X189479487Y-89739955D01*
X189497595Y-89748290D01*
X189514667Y-89753741D01*
X189537478Y-89756756D01*
X189548066Y-89757046D01*
X189580415Y-89760769D01*
X189608342Y-89773469D01*
X189634370Y-89796011D01*
X189651161Y-89807978D01*
X189670020Y-89811029D01*
X189692468Y-89816248D01*
X189717813Y-89830909D01*
X189744741Y-89853516D01*
X189771934Y-89882572D01*
X189798077Y-89916580D01*
X189821854Y-89954046D01*
X189841949Y-89993472D01*
X189851788Y-90017709D01*
X189859146Y-90037043D01*
X189865368Y-90051868D01*
X189868934Y-90058697D01*
X189872675Y-90055842D01*
X189879152Y-90044278D01*
X189887116Y-90026317D01*
X189889062Y-90021433D01*
X189909653Y-89975334D01*
X189933749Y-89932446D01*
X189960227Y-89894058D01*
X189987967Y-89861458D01*
X190015848Y-89835932D01*
X190042748Y-89818770D01*
X190067546Y-89811259D01*
X190072241Y-89811029D01*
X190090622Y-89808745D01*
X190105189Y-89800058D01*
X190112724Y-89792685D01*
X190134812Y-89774262D01*
X190160166Y-89761011D01*
X190185037Y-89754554D01*
X190199951Y-89754907D01*
X190217513Y-89755054D01*
X190239238Y-89748789D01*
X190251981Y-89743349D01*
X190274143Y-89734421D01*
X190291717Y-89730956D01*
X190309897Y-89731961D01*
X190310865Y-89732104D01*
X190331535Y-89733056D01*
X190354509Y-89729188D01*
X190376072Y-89722688D01*
X190397079Y-89715876D01*
X190411376Y-89712743D01*
X190423313Y-89713085D01*
X190437239Y-89716695D01*
X190445570Y-89719416D01*
X190467295Y-89725301D01*
X190484032Y-89725954D01*
X190496188Y-89723348D01*
X190528100Y-89717689D01*
X190557294Y-89721580D01*
X190574960Y-89728429D01*
X190594947Y-89735335D01*
X190619483Y-89740553D01*
X190632668Y-89742113D01*
X190664503Y-89747847D01*
X190683712Y-89757315D01*
X190699927Y-89765914D01*
X190720688Y-89769621D01*
X190733534Y-89770004D01*
X190770973Y-89774319D01*
X190803416Y-89786628D01*
X190822862Y-89800594D01*
X190840377Y-89810551D01*
X190864809Y-89814493D01*
X190897615Y-89820129D01*
X190922701Y-89832966D01*
X190938606Y-89851861D01*
X190945927Y-89871468D01*
X190946536Y-89891854D01*
X190940993Y-89916354D01*
X190937512Y-89933994D01*
X190940331Y-89948581D01*
X190943923Y-89956302D01*
X190952311Y-89984412D01*
X190950942Y-90014246D01*
X190943236Y-90035489D01*
X190936468Y-90055223D01*
X190933134Y-90080474D01*
X190932979Y-90086479D01*
X190931332Y-90109470D01*
X190925204Y-90127767D01*
X190914619Y-90145085D01*
X190899345Y-90174380D01*
X190893466Y-90202600D01*
X190889947Y-90224110D01*
X190882474Y-90240061D01*
X190869202Y-90255593D01*
X190856903Y-90270267D01*
X190849129Y-90283534D01*
X190847737Y-90288918D01*
X190842619Y-90311799D01*
X190829153Y-90336543D01*
X190809464Y-90359753D01*
X190796338Y-90370947D01*
X190775669Y-90389040D01*
X190763641Y-90406848D01*
X190760381Y-90415564D01*
X190748983Y-90436497D01*
X190729605Y-90455867D01*
X190705889Y-90470570D01*
X190689161Y-90476313D01*
X190673302Y-90484361D01*
X190663838Y-90499163D01*
X190647674Y-90523145D01*
X190622384Y-90541525D01*
X190597547Y-90551039D01*
X190582418Y-90555820D01*
X190573462Y-90560070D01*
X190572415Y-90561383D01*
X190577041Y-90565890D01*
X190589441Y-90574949D01*
X190607396Y-90586982D01*
X190617835Y-90593667D01*
X190651531Y-90617699D01*
X190686335Y-90647308D01*
X190719460Y-90679747D01*
X190748116Y-90712272D01*
X190769517Y-90742134D01*
X190770887Y-90744419D01*
X190795480Y-90794512D01*
X190815221Y-90851534D01*
X190828985Y-90911301D01*
X190835650Y-90969630D01*
X190836100Y-90987216D01*
X190839762Y-91021635D01*
X190851522Y-91049060D01*
X190872683Y-91072050D01*
X190883422Y-91080129D01*
X190907450Y-91099651D01*
X190934198Y-91125954D01*
X190960583Y-91155634D01*
X190983522Y-91185288D01*
X190996025Y-91204458D01*
X191029553Y-91271527D01*
X191051746Y-91339450D01*
X191062979Y-91409568D01*
X191064622Y-91449604D01*
X191059404Y-91520406D01*
X191043357Y-91587545D01*
X191016217Y-91651800D01*
X190977719Y-91713952D01*
X190972107Y-91721596D01*
X190952946Y-91750358D01*
X190941014Y-91776690D01*
X190936069Y-91794695D01*
X190931073Y-91814096D01*
X190923100Y-91840917D01*
X190913256Y-91871591D01*
X190902829Y-91902035D01*
X190893168Y-91930150D01*
X190885170Y-91955110D01*
X190879595Y-91974415D01*
X190877205Y-91985561D01*
X190877168Y-91986308D01*
X190874788Y-92001623D01*
X190868370Y-92024561D01*
X190858999Y-92052205D01*
X190847757Y-92081636D01*
X190835729Y-92109934D01*
X190824000Y-92134181D01*
X190818771Y-92143562D01*
X190778208Y-92201481D01*
X190728736Y-92254929D01*
X190672812Y-92301611D01*
X190612891Y-92339231D01*
X190604845Y-92343382D01*
X190580009Y-92356815D01*
X190550001Y-92374453D01*
X190519182Y-92393678D01*
X190499354Y-92406750D01*
X190435516Y-92447804D01*
X190376371Y-92480952D01*
X190319439Y-92507558D01*
X190305756Y-92513150D01*
X190275792Y-92526956D01*
X190249424Y-92542591D01*
X190234549Y-92554102D01*
X190173433Y-92603495D01*
X190108821Y-92643081D01*
X190042050Y-92672103D01*
X190006150Y-92682968D01*
X189969936Y-92690074D01*
X189927308Y-92695031D01*
X189882603Y-92697599D01*
X189840157Y-92697539D01*
X189804307Y-92694612D01*
X189801742Y-92694229D01*
X189730339Y-92678242D01*
X189663677Y-92652924D01*
X189600184Y-92617519D01*
X189538284Y-92571272D01*
X189528557Y-92562932D01*
X189507465Y-92546240D01*
X189485515Y-92531585D01*
X189467079Y-92521858D01*
X189465314Y-92521160D01*
X189426671Y-92504895D01*
X189382655Y-92483490D01*
X189337134Y-92459015D01*
X189293980Y-92433539D01*
X189280979Y-92425013D01*
X189548135Y-92425013D01*
X189550864Y-92441774D01*
X189561425Y-92460668D01*
X189579862Y-92483158D01*
X189625046Y-92525262D01*
X189677545Y-92560254D01*
X189735324Y-92587451D01*
X189796348Y-92606173D01*
X189858582Y-92615737D01*
X189919993Y-92615464D01*
X189958005Y-92609793D01*
X189999071Y-92598214D01*
X190040673Y-92581309D01*
X190081305Y-92560206D01*
X190119466Y-92536032D01*
X190153651Y-92509915D01*
X190182356Y-92482982D01*
X190204077Y-92456360D01*
X190217311Y-92431177D01*
X190220777Y-92412794D01*
X190215089Y-92392329D01*
X190198677Y-92372883D01*
X190172522Y-92354833D01*
X190137605Y-92338560D01*
X190094907Y-92324441D01*
X190045406Y-92312855D01*
X189990085Y-92304181D01*
X189929924Y-92298797D01*
X189924815Y-92298514D01*
X189871739Y-92297974D01*
X189818074Y-92301591D01*
X189765336Y-92308917D01*
X189715044Y-92319507D01*
X189668712Y-92332916D01*
X189627860Y-92348696D01*
X189594003Y-92366402D01*
X189568660Y-92385589D01*
X189553346Y-92405809D01*
X189552367Y-92408008D01*
X189548135Y-92425013D01*
X189280979Y-92425013D01*
X189260948Y-92411876D01*
X189234158Y-92393888D01*
X189206551Y-92376586D01*
X189181869Y-92362255D01*
X189167668Y-92354898D01*
X189100786Y-92317391D01*
X189040576Y-92271636D01*
X188987954Y-92218724D01*
X188943837Y-92159744D01*
X188909142Y-92095786D01*
X188884787Y-92027940D01*
X188881387Y-92014628D01*
X188875615Y-91992708D01*
X188867086Y-91963153D01*
X188856833Y-91929418D01*
X188845982Y-91895247D01*
X188975795Y-91895247D01*
X188975809Y-91897415D01*
X188977733Y-91942272D01*
X188983489Y-91982120D01*
X188994048Y-92020900D01*
X189010377Y-92062553D01*
X189023219Y-92090297D01*
X189038982Y-92120751D01*
X189054724Y-92145248D01*
X189073735Y-92168387D01*
X189094661Y-92190162D01*
X189144758Y-92234207D01*
X189196753Y-92268723D01*
X189249669Y-92293347D01*
X189302525Y-92307716D01*
X189354343Y-92311469D01*
X189403281Y-92304467D01*
X189429978Y-92295869D01*
X189448506Y-92284958D01*
X189462410Y-92269076D01*
X189471322Y-92253521D01*
X189482404Y-92220310D01*
X189486210Y-92180103D01*
X189483105Y-92134789D01*
X189473457Y-92086259D01*
X189457632Y-92036403D01*
X189435998Y-91987109D01*
X189411180Y-91943728D01*
X189383709Y-91907197D01*
X189355639Y-91877070D01*
X189547074Y-91877070D01*
X189549943Y-91929418D01*
X189562711Y-91981315D01*
X189585671Y-92031682D01*
X189619115Y-92079440D01*
X189640397Y-92102538D01*
X189688806Y-92142609D01*
X189743019Y-92172981D01*
X189801820Y-92193340D01*
X189863990Y-92203372D01*
X189928313Y-92202763D01*
X189988775Y-92192427D01*
X190037180Y-92175487D01*
X190055037Y-92165902D01*
X190265779Y-92165902D01*
X190266226Y-92207253D01*
X190272490Y-92242901D01*
X190284640Y-92271447D01*
X190302744Y-92291493D01*
X190305053Y-92293087D01*
X190336114Y-92307589D01*
X190374373Y-92316277D01*
X190416679Y-92318844D01*
X190459880Y-92314978D01*
X190481382Y-92310394D01*
X190539823Y-92289452D01*
X190596425Y-92258069D01*
X190649276Y-92217525D01*
X190696466Y-92169102D01*
X190701600Y-92162893D01*
X190722798Y-92136280D01*
X190738122Y-92115367D01*
X190749460Y-92097071D01*
X190758697Y-92078308D01*
X190767721Y-92055996D01*
X190768871Y-92052955D01*
X190782054Y-92008483D01*
X190789777Y-91961266D01*
X190792316Y-91913047D01*
X190789946Y-91865569D01*
X190782940Y-91820577D01*
X190771574Y-91779815D01*
X190756122Y-91745025D01*
X190736860Y-91717953D01*
X190714061Y-91700341D01*
X190713270Y-91699950D01*
X190686872Y-91692314D01*
X190654701Y-91690842D01*
X190620898Y-91695453D01*
X190598475Y-91702258D01*
X190558511Y-91722105D01*
X190514160Y-91752269D01*
X190465900Y-91792403D01*
X190438627Y-91817864D01*
X190406011Y-91850337D01*
X190380472Y-91878321D01*
X190359882Y-91904587D01*
X190342118Y-91931906D01*
X190325051Y-91963049D01*
X190320795Y-91971456D01*
X190298658Y-92021625D01*
X190282063Y-92071688D01*
X190271081Y-92120247D01*
X190265779Y-92165902D01*
X190055037Y-92165902D01*
X190084838Y-92149906D01*
X190129194Y-92117620D01*
X190167689Y-92080568D01*
X190197768Y-92040689D01*
X190204568Y-92028841D01*
X190223334Y-91983059D01*
X190234819Y-91931950D01*
X190238565Y-91879376D01*
X190234118Y-91829198D01*
X190230212Y-91811665D01*
X190211294Y-91761776D01*
X190182552Y-91714116D01*
X190145881Y-91671024D01*
X190103176Y-91634838D01*
X190070603Y-91614813D01*
X190031862Y-91596230D01*
X189996747Y-91583752D01*
X189961068Y-91576391D01*
X189920633Y-91573157D01*
X189892581Y-91572786D01*
X189860037Y-91573333D01*
X189835239Y-91575059D01*
X189814230Y-91578521D01*
X189793053Y-91584278D01*
X189779598Y-91588728D01*
X189721362Y-91613995D01*
X189670979Y-91646370D01*
X189628740Y-91684772D01*
X189594937Y-91728124D01*
X189569863Y-91775343D01*
X189553811Y-91825352D01*
X189547074Y-91877070D01*
X189355639Y-91877070D01*
X189348593Y-91869508D01*
X189308604Y-91833038D01*
X189266514Y-91800165D01*
X189225093Y-91773266D01*
X189194197Y-91757601D01*
X189158380Y-91745188D01*
X189121651Y-91737546D01*
X189088291Y-91735429D01*
X189075025Y-91736554D01*
X189044547Y-91745074D01*
X189020340Y-91761407D01*
X189000372Y-91787144D01*
X188992974Y-91800715D01*
X188984972Y-91817622D01*
X188979874Y-91832033D01*
X188977058Y-91847443D01*
X188975906Y-91867349D01*
X188975795Y-91895247D01*
X188845982Y-91895247D01*
X188845891Y-91894961D01*
X188842857Y-91885694D01*
X188832653Y-91854070D01*
X188823541Y-91824552D01*
X188816305Y-91799778D01*
X188811730Y-91782386D01*
X188810807Y-91778004D01*
X188804281Y-91759533D01*
X188791181Y-91736166D01*
X188778024Y-91717296D01*
X188738342Y-91656949D01*
X188709969Y-91595273D01*
X188692495Y-91531082D01*
X188687212Y-91479752D01*
X188791429Y-91479752D01*
X188800702Y-91541329D01*
X188820628Y-91601913D01*
X188829477Y-91621222D01*
X188842709Y-91644727D01*
X188858838Y-91668382D01*
X188876040Y-91690028D01*
X188892491Y-91707506D01*
X188906368Y-91718657D01*
X188914243Y-91721574D01*
X188924582Y-91718666D01*
X188938975Y-91711560D01*
X188941231Y-91710220D01*
X188960569Y-91692677D01*
X188979196Y-91664830D01*
X188996682Y-91628095D01*
X189012598Y-91583886D01*
X189026513Y-91533619D01*
X189037998Y-91478709D01*
X189046622Y-91420570D01*
X189051955Y-91360617D01*
X189052829Y-91342992D01*
X189053107Y-91317576D01*
X189163077Y-91317576D01*
X189164182Y-91379250D01*
X189176014Y-91437190D01*
X189198466Y-91490818D01*
X189223588Y-91529682D01*
X189261527Y-91570269D01*
X189305783Y-91601438D01*
X189355261Y-91622850D01*
X189408867Y-91634169D01*
X189465506Y-91635056D01*
X189524083Y-91625175D01*
X189528972Y-91623868D01*
X189584872Y-91602784D01*
X189638600Y-91571624D01*
X189688231Y-91532029D01*
X189731842Y-91485642D01*
X189767510Y-91434103D01*
X189780853Y-91408840D01*
X189803573Y-91349618D01*
X189816349Y-91289121D01*
X189819237Y-91228930D01*
X189817885Y-91217581D01*
X189954549Y-91217581D01*
X189955854Y-91259497D01*
X189960721Y-91295800D01*
X189970155Y-91330690D01*
X189985156Y-91368366D01*
X189996212Y-91391933D01*
X190029175Y-91447416D01*
X190070668Y-91497405D01*
X190119032Y-91540538D01*
X190172611Y-91575451D01*
X190229747Y-91600780D01*
X190261287Y-91609944D01*
X190291181Y-91614336D01*
X190327325Y-91615671D01*
X190364965Y-91614100D01*
X190399347Y-91609771D01*
X190419506Y-91605001D01*
X190469884Y-91583552D01*
X190513409Y-91553276D01*
X190549581Y-91515195D01*
X190577898Y-91470334D01*
X190597857Y-91419717D01*
X190608957Y-91364368D01*
X190610681Y-91305824D01*
X190688618Y-91305824D01*
X190690795Y-91358588D01*
X190696160Y-91413549D01*
X190704550Y-91468943D01*
X190715801Y-91523007D01*
X190729750Y-91573977D01*
X190746232Y-91620089D01*
X190761560Y-91653107D01*
X190780150Y-91683335D01*
X190798297Y-91702083D01*
X190816696Y-91709536D01*
X190836041Y-91705881D01*
X190857029Y-91691303D01*
X190867117Y-91681313D01*
X190901621Y-91636134D01*
X190926793Y-91584259D01*
X190942710Y-91525467D01*
X190949446Y-91459541D01*
X190949704Y-91443216D01*
X190949287Y-91411487D01*
X190947566Y-91387261D01*
X190943932Y-91366341D01*
X190937777Y-91344531D01*
X190933602Y-91332087D01*
X190911035Y-91280414D01*
X190881092Y-91232419D01*
X190845922Y-91191317D01*
X190829268Y-91176179D01*
X190798059Y-91151999D01*
X190772848Y-91136869D01*
X190752487Y-91130547D01*
X190735831Y-91132790D01*
X190721734Y-91143355D01*
X190715066Y-91152011D01*
X190702853Y-91178350D01*
X190694483Y-91213942D01*
X190689792Y-91257021D01*
X190688618Y-91305824D01*
X190610681Y-91305824D01*
X190610696Y-91305310D01*
X190602574Y-91243569D01*
X190600713Y-91235163D01*
X190595492Y-91218403D01*
X190586470Y-91194934D01*
X190575138Y-91168503D01*
X190568099Y-91153301D01*
X190555146Y-91127495D01*
X190542740Y-91106669D01*
X190528469Y-91087548D01*
X190509920Y-91066856D01*
X190488149Y-91044754D01*
X190439686Y-91001605D01*
X190391601Y-90969342D01*
X190342295Y-90947295D01*
X190290172Y-90934795D01*
X190233635Y-90931173D01*
X190218003Y-90931604D01*
X190188657Y-90933307D01*
X190166897Y-90935969D01*
X190148587Y-90940518D01*
X190129591Y-90947886D01*
X190114239Y-90954949D01*
X190074262Y-90976776D01*
X190042685Y-91001132D01*
X190016189Y-91030842D01*
X190003258Y-91049437D01*
X189977676Y-91096649D01*
X189961909Y-91145279D01*
X189955028Y-91198532D01*
X189954549Y-91217581D01*
X189817885Y-91217581D01*
X189812289Y-91170623D01*
X189795558Y-91115781D01*
X189769297Y-91066283D01*
X189734409Y-91023509D01*
X189694022Y-90990232D01*
X189649218Y-90966246D01*
X189601076Y-90951347D01*
X189550674Y-90945331D01*
X189499094Y-90947991D01*
X189447414Y-90959123D01*
X189396715Y-90978521D01*
X189348075Y-91005981D01*
X189302574Y-91041298D01*
X189261292Y-91084266D01*
X189225309Y-91134681D01*
X189204170Y-91173627D01*
X189192388Y-91199590D01*
X189182072Y-91224882D01*
X189174780Y-91245570D01*
X189172805Y-91252745D01*
X189163077Y-91317576D01*
X189053107Y-91317576D01*
X189053483Y-91283111D01*
X189050109Y-91233925D01*
X189042617Y-91195089D01*
X189030918Y-91166260D01*
X189014923Y-91147093D01*
X189000048Y-91138849D01*
X188991140Y-91136859D01*
X188981815Y-91138325D01*
X188969465Y-91144309D01*
X188951483Y-91155875D01*
X188941623Y-91162653D01*
X188893686Y-91202733D01*
X188854484Y-91249664D01*
X188824338Y-91302138D01*
X188803567Y-91358849D01*
X188792491Y-91418490D01*
X188791429Y-91479752D01*
X188687212Y-91479752D01*
X188685507Y-91463187D01*
X188685331Y-91449604D01*
X188690941Y-91374763D01*
X188707678Y-91303597D01*
X188735568Y-91236026D01*
X188767077Y-91182804D01*
X188785687Y-91157981D01*
X188808143Y-91131904D01*
X188831829Y-91107287D01*
X188854130Y-91086847D01*
X188872428Y-91073302D01*
X188872645Y-91073173D01*
X188886289Y-91062228D01*
X188896623Y-91046514D01*
X188904325Y-91024200D01*
X188905953Y-91015487D01*
X189019795Y-91015487D01*
X189021265Y-91026586D01*
X189030033Y-91034392D01*
X189046813Y-91034911D01*
X189070556Y-91028292D01*
X189098456Y-91015606D01*
X189136211Y-90993597D01*
X189179614Y-90964397D01*
X189226754Y-90929621D01*
X189275719Y-90890887D01*
X189324598Y-90849809D01*
X189371479Y-90808005D01*
X189414450Y-90767089D01*
X189438045Y-90742693D01*
X189572412Y-90742693D01*
X189576562Y-90769910D01*
X189591566Y-90797936D01*
X189609977Y-90820201D01*
X189643519Y-90848584D01*
X189686525Y-90872970D01*
X189737232Y-90892732D01*
X189793879Y-90907242D01*
X189854702Y-90915873D01*
X189883790Y-90917703D01*
X189900519Y-90917450D01*
X189924512Y-90915998D01*
X189951407Y-90913632D01*
X189959979Y-90912722D01*
X190004918Y-90905810D01*
X190049233Y-90895549D01*
X190089039Y-90882969D01*
X190116517Y-90871176D01*
X190149791Y-90849690D01*
X190176239Y-90823459D01*
X190194394Y-90794419D01*
X190202791Y-90764508D01*
X190203195Y-90756675D01*
X190197578Y-90725953D01*
X190181479Y-90694672D01*
X190156027Y-90663886D01*
X190134699Y-90645371D01*
X190226638Y-90645371D01*
X190230929Y-90658250D01*
X190243066Y-90677499D01*
X190261945Y-90701919D01*
X190286460Y-90730311D01*
X190315507Y-90761477D01*
X190347980Y-90794220D01*
X190382776Y-90827339D01*
X190418788Y-90859638D01*
X190443481Y-90880581D01*
X190504097Y-90929284D01*
X190557732Y-90969373D01*
X190604248Y-91000754D01*
X190643507Y-91023334D01*
X190673994Y-91036561D01*
X190694241Y-91042712D01*
X190707277Y-91043639D01*
X190714675Y-91037809D01*
X190718005Y-91023686D01*
X190718840Y-90999737D01*
X190718845Y-90992785D01*
X190713664Y-90927083D01*
X190698183Y-90866788D01*
X190672120Y-90811222D01*
X190635194Y-90759709D01*
X190611131Y-90733828D01*
X190566010Y-90694639D01*
X190518355Y-90664778D01*
X190466505Y-90643614D01*
X190408797Y-90630519D01*
X190343570Y-90624861D01*
X190322709Y-90624521D01*
X190284475Y-90625184D01*
X190256815Y-90627537D01*
X190238674Y-90631810D01*
X190228998Y-90638230D01*
X190226638Y-90645371D01*
X190134699Y-90645371D01*
X190122348Y-90634649D01*
X190081571Y-90608016D01*
X190034824Y-90585039D01*
X190008678Y-90574938D01*
X189968827Y-90564394D01*
X189923020Y-90557888D01*
X189875582Y-90555658D01*
X189830839Y-90557939D01*
X189798700Y-90563465D01*
X189749636Y-90579736D01*
X189700490Y-90603207D01*
X189655500Y-90631615D01*
X189626088Y-90655678D01*
X189597075Y-90686598D01*
X189579217Y-90715263D01*
X189572412Y-90742693D01*
X189438045Y-90742693D01*
X189451599Y-90728679D01*
X189481016Y-90694390D01*
X189485851Y-90688105D01*
X189501685Y-90664878D01*
X189509823Y-90646707D01*
X189509666Y-90633118D01*
X189500613Y-90623635D01*
X189482063Y-90617783D01*
X189453416Y-90615085D01*
X189414070Y-90615068D01*
X189394427Y-90615737D01*
X189325013Y-90623072D01*
X189262740Y-90639316D01*
X189206695Y-90664861D01*
X189155966Y-90700102D01*
X189120383Y-90733633D01*
X189086605Y-90776232D01*
X189058062Y-90825610D01*
X189037181Y-90877294D01*
X189031598Y-90897279D01*
X189027505Y-90918466D01*
X189024021Y-90944098D01*
X189021403Y-90970957D01*
X189019909Y-90995825D01*
X189019795Y-91015487D01*
X188905953Y-91015487D01*
X188910072Y-90993451D01*
X188913640Y-90962365D01*
X188924087Y-90889572D01*
X188940678Y-90824710D01*
X188954366Y-90788023D01*
X188978457Y-90743325D01*
X189011854Y-90698199D01*
X189052458Y-90654939D01*
X189098175Y-90615838D01*
X189135102Y-90590281D01*
X189154247Y-90577991D01*
X189168881Y-90567901D01*
X189176668Y-90561649D01*
X189177345Y-90560653D01*
X189172435Y-90557072D01*
X189159765Y-90552067D01*
X189152676Y-90549825D01*
X189126933Y-90539248D01*
X189105228Y-90524820D01*
X189090450Y-90508742D01*
X189086089Y-90499131D01*
X189080458Y-90488889D01*
X189067660Y-90478987D01*
X189045999Y-90467972D01*
X189019107Y-90452371D01*
X188998697Y-90433679D01*
X188986646Y-90413924D01*
X188984183Y-90401160D01*
X188979722Y-90392903D01*
X188968223Y-90381304D01*
X188957231Y-90372605D01*
X188935628Y-90353494D01*
X188917805Y-90331018D01*
X188905935Y-90308407D01*
X188902134Y-90290642D01*
X188897875Y-90276480D01*
X188887430Y-90262333D01*
X188886925Y-90261854D01*
X188866116Y-90235952D01*
X188856268Y-90206853D01*
X188855249Y-90192432D01*
X188852052Y-90171326D01*
X188841343Y-90149501D01*
X188836202Y-90141845D01*
X188824162Y-90122291D01*
X188818336Y-90104244D01*
X188816585Y-90081602D01*
X188812258Y-90047638D01*
X188803527Y-90022012D01*
X188794736Y-90001580D01*
X188794132Y-89998569D01*
X188865622Y-89998569D01*
X188875554Y-90014686D01*
X188884767Y-90026614D01*
X188899705Y-90042897D01*
X188917269Y-90060173D01*
X188918717Y-90061519D01*
X188935406Y-90077545D01*
X188944175Y-90087901D01*
X188946187Y-90094329D01*
X188943158Y-90098210D01*
X188931844Y-90101276D01*
X188915388Y-90101090D01*
X188912390Y-90100677D01*
X188898365Y-90099393D01*
X188890826Y-90100559D01*
X188890413Y-90101288D01*
X188894262Y-90106911D01*
X188904689Y-90118970D01*
X188920014Y-90135582D01*
X188935097Y-90151324D01*
X188954536Y-90171434D01*
X188966702Y-90184759D01*
X188972523Y-90192883D01*
X188972929Y-90197391D01*
X188968851Y-90199869D01*
X188964306Y-90201125D01*
X188948106Y-90203010D01*
X188937204Y-90201969D01*
X188927900Y-90201489D01*
X188925576Y-90203787D01*
X188929899Y-90209977D01*
X188941342Y-90221203D01*
X188957616Y-90235510D01*
X188976431Y-90250945D01*
X188995499Y-90265553D01*
X189009346Y-90275297D01*
X189022471Y-90284418D01*
X189026721Y-90289357D01*
X189023108Y-90292232D01*
X189018137Y-90293701D01*
X189001948Y-90296496D01*
X188987113Y-90297539D01*
X188969531Y-90297777D01*
X188990043Y-90314896D01*
X189004802Y-90325559D01*
X189026203Y-90339014D01*
X189050374Y-90352865D01*
X189058423Y-90357181D01*
X189082354Y-90370588D01*
X189095549Y-90380235D01*
X189098210Y-90386575D01*
X189090539Y-90390060D01*
X189073557Y-90391142D01*
X189060590Y-90392666D01*
X189054564Y-90396258D01*
X189054510Y-90396667D01*
X189059703Y-90402336D01*
X189073684Y-90410436D01*
X189094060Y-90419885D01*
X189118436Y-90429602D01*
X189144418Y-90438505D01*
X189152676Y-90441004D01*
X189171386Y-90447201D01*
X189184588Y-90452980D01*
X189189305Y-90456909D01*
X189184459Y-90462454D01*
X189172608Y-90469120D01*
X189170772Y-90469918D01*
X189158836Y-90475411D01*
X189156697Y-90479124D01*
X189163258Y-90483604D01*
X189164573Y-90484312D01*
X189176197Y-90488271D01*
X189195594Y-90492676D01*
X189218891Y-90496668D01*
X189222666Y-90497203D01*
X189255592Y-90501713D01*
X189278555Y-90504987D01*
X189293184Y-90507504D01*
X189301111Y-90509741D01*
X189303968Y-90512175D01*
X189303385Y-90515283D01*
X189300994Y-90519543D01*
X189300722Y-90520045D01*
X189290524Y-90530755D01*
X189281616Y-90535454D01*
X189268424Y-90539816D01*
X189283075Y-90544113D01*
X189298759Y-90546104D01*
X189323078Y-90546103D01*
X189353152Y-90544297D01*
X189386101Y-90540876D01*
X189419044Y-90536030D01*
X189426661Y-90534670D01*
X189486237Y-90519278D01*
X189537985Y-90496880D01*
X189581259Y-90467930D01*
X189615412Y-90432880D01*
X189639797Y-90392184D01*
X189643764Y-90382577D01*
X189654059Y-90355620D01*
X189637060Y-90337488D01*
X189602192Y-90303850D01*
X189557627Y-90266672D01*
X189504550Y-90226763D01*
X189444148Y-90184933D01*
X189377608Y-90141990D01*
X189306116Y-90098744D01*
X189230859Y-90056004D01*
X189198999Y-90038712D01*
X189173076Y-90024620D01*
X189156601Y-90015078D01*
X189149794Y-90010083D01*
X189152877Y-90009629D01*
X189166072Y-90013712D01*
X189189601Y-90022327D01*
X189223686Y-90035471D01*
X189230329Y-90038071D01*
X189327647Y-90079277D01*
X189422779Y-90125507D01*
X189513161Y-90175373D01*
X189596234Y-90227486D01*
X189650173Y-90265687D01*
X189707599Y-90308714D01*
X189724305Y-90298137D01*
X189761160Y-90268742D01*
X189787724Y-90233756D01*
X189803977Y-90193205D01*
X189807339Y-90177011D01*
X189807695Y-90157743D01*
X189934767Y-90157743D01*
X189938542Y-90200710D01*
X189952447Y-90239298D01*
X189976056Y-90272463D01*
X190008943Y-90299162D01*
X190020957Y-90305964D01*
X190029639Y-90309902D01*
X190037187Y-90310555D01*
X190046294Y-90306920D01*
X190059657Y-90297995D01*
X190076730Y-90285232D01*
X190151777Y-90232358D01*
X190234665Y-90181059D01*
X190321539Y-90133702D01*
X190332129Y-90128356D01*
X190367157Y-90111253D01*
X190403640Y-90094183D01*
X190439971Y-90077820D01*
X190474545Y-90062837D01*
X190505757Y-90049909D01*
X190532000Y-90039708D01*
X190551669Y-90032908D01*
X190563158Y-90030184D01*
X190565307Y-90030532D01*
X190564254Y-90033584D01*
X190562639Y-90033733D01*
X190555883Y-90036520D01*
X190540730Y-90044259D01*
X190518919Y-90056014D01*
X190492189Y-90070850D01*
X190465519Y-90085974D01*
X190386723Y-90132611D01*
X190314553Y-90178427D01*
X190249954Y-90222752D01*
X190193871Y-90264919D01*
X190147251Y-90304261D01*
X190121858Y-90328627D01*
X190106034Y-90345157D01*
X190097144Y-90356216D01*
X190093838Y-90364628D01*
X190094767Y-90373214D01*
X190097082Y-90380458D01*
X190109913Y-90407375D01*
X190129199Y-90435999D01*
X190151507Y-90461737D01*
X190169555Y-90477404D01*
X190217992Y-90506717D01*
X190270580Y-90527950D01*
X190329005Y-90541584D01*
X190394953Y-90548103D01*
X190419023Y-90548780D01*
X190473684Y-90549469D01*
X190455405Y-90534088D01*
X190444754Y-90523849D01*
X190440083Y-90516723D01*
X190440315Y-90515518D01*
X190447116Y-90513536D01*
X190462991Y-90510683D01*
X190485365Y-90507386D01*
X190504731Y-90504892D01*
X190531703Y-90501097D01*
X190555479Y-90496811D01*
X190572890Y-90492655D01*
X190579427Y-90490247D01*
X190592896Y-90483038D01*
X190577299Y-90477839D01*
X190562353Y-90470792D01*
X190559114Y-90463539D01*
X190567571Y-90456103D01*
X190587712Y-90448511D01*
X190591503Y-90447425D01*
X190615716Y-90439767D01*
X190640040Y-90430527D01*
X190661952Y-90420859D01*
X190678929Y-90411918D01*
X190688448Y-90404859D01*
X190689628Y-90402527D01*
X190684481Y-90398910D01*
X190671852Y-90397131D01*
X190669462Y-90397092D01*
X190652728Y-90395615D01*
X190647322Y-90391250D01*
X190653239Y-90384096D01*
X190670472Y-90374250D01*
X190670870Y-90374056D01*
X190689439Y-90364258D01*
X190710506Y-90351946D01*
X190731651Y-90338698D01*
X190750455Y-90326093D01*
X190764499Y-90315710D01*
X190771365Y-90309127D01*
X190771677Y-90308261D01*
X190766425Y-90305391D01*
X190753089Y-90302974D01*
X190744378Y-90302178D01*
X190717079Y-90300392D01*
X190760830Y-90266937D01*
X190781438Y-90250793D01*
X190799496Y-90235948D01*
X190812204Y-90224735D01*
X190815411Y-90221518D01*
X190821346Y-90214353D01*
X190820837Y-90210835D01*
X190811992Y-90209667D01*
X190797942Y-90209552D01*
X190769644Y-90209552D01*
X190814615Y-90163340D01*
X190832812Y-90144110D01*
X190847477Y-90127604D01*
X190856921Y-90115787D01*
X190859587Y-90110963D01*
X190854420Y-90107413D01*
X190840495Y-90107903D01*
X190839330Y-90108084D01*
X190819946Y-90110272D01*
X190809335Y-90108568D01*
X190807530Y-90102143D01*
X190814562Y-90090166D01*
X190830462Y-90071806D01*
X190841153Y-90060587D01*
X190858643Y-90042033D01*
X190872549Y-90026296D01*
X190881127Y-90015409D01*
X190883029Y-90011775D01*
X190877744Y-90008967D01*
X190863895Y-90008308D01*
X190853726Y-90008966D01*
X190835789Y-90009970D01*
X190826852Y-90008177D01*
X190824423Y-90003084D01*
X190824423Y-90003071D01*
X190827172Y-89992965D01*
X190834364Y-89976022D01*
X190844420Y-89955460D01*
X190855759Y-89934497D01*
X190866798Y-89916351D01*
X190867663Y-89915055D01*
X190878516Y-89898938D01*
X190810445Y-89898938D01*
X190783768Y-89898610D01*
X190761997Y-89897719D01*
X190747435Y-89896401D01*
X190742374Y-89894863D01*
X190746063Y-89888367D01*
X190755185Y-89877472D01*
X190757683Y-89874809D01*
X190772993Y-89858829D01*
X190746287Y-89854824D01*
X190726482Y-89854193D01*
X190699823Y-89856352D01*
X190670667Y-89860668D01*
X190643367Y-89866508D01*
X190623696Y-89872658D01*
X190615644Y-89872483D01*
X190613263Y-89865399D01*
X190616391Y-89854663D01*
X190624864Y-89843533D01*
X190625161Y-89843262D01*
X190632775Y-89836115D01*
X190636785Y-89831096D01*
X190636081Y-89828283D01*
X190629555Y-89827750D01*
X190616097Y-89829575D01*
X190594598Y-89833832D01*
X190563948Y-89840599D01*
X190523038Y-89849950D01*
X190521135Y-89850388D01*
X190510494Y-89850192D01*
X190508603Y-89843436D01*
X190515362Y-89831241D01*
X190523696Y-89821605D01*
X190532890Y-89810247D01*
X190532532Y-89805385D01*
X190531022Y-89805201D01*
X190513051Y-89807968D01*
X190488347Y-89815397D01*
X190460355Y-89826341D01*
X190441438Y-89835086D01*
X190423110Y-89843309D01*
X190408781Y-89848206D01*
X190401879Y-89848765D01*
X190396861Y-89839696D01*
X190399421Y-89826423D01*
X190406328Y-89815850D01*
X190412815Y-89806851D01*
X190413555Y-89802592D01*
X190406851Y-89803326D01*
X190393202Y-89809163D01*
X190375341Y-89818597D01*
X190356004Y-89830122D01*
X190337926Y-89842231D01*
X190328355Y-89849528D01*
X190313746Y-89860739D01*
X190304896Y-89864901D01*
X190299035Y-89863006D01*
X190296913Y-89860781D01*
X190292540Y-89849036D01*
X190292347Y-89834525D01*
X190292997Y-89822236D01*
X190290994Y-89816896D01*
X190290880Y-89816889D01*
X190282579Y-89820727D01*
X190268108Y-89831116D01*
X190249632Y-89846365D01*
X190229318Y-89864787D01*
X190228650Y-89865421D01*
X190211568Y-89879614D01*
X190200134Y-89883851D01*
X190193666Y-89878040D01*
X190191484Y-89862092D01*
X190191474Y-89860498D01*
X190190176Y-89847075D01*
X190186993Y-89840473D01*
X190186391Y-89840332D01*
X190180525Y-89844332D01*
X190168513Y-89855176D01*
X190152198Y-89871131D01*
X190136329Y-89887411D01*
X190117867Y-89906010D01*
X190102103Y-89920544D01*
X190090860Y-89929418D01*
X190086187Y-89931298D01*
X190081463Y-89923840D01*
X190077081Y-89910138D01*
X190076895Y-89909309D01*
X190072766Y-89890510D01*
X190052692Y-89913771D01*
X190016476Y-89960309D01*
X189985035Y-90009777D01*
X189960016Y-90059246D01*
X189943065Y-90105788D01*
X189941548Y-90111439D01*
X189934767Y-90157743D01*
X189807695Y-90157743D01*
X189807962Y-90143329D01*
X189800639Y-90103823D01*
X189786153Y-90060490D01*
X189765288Y-90015326D01*
X189738829Y-89970326D01*
X189711018Y-89931790D01*
X189691661Y-89908725D01*
X189677815Y-89895408D01*
X189668966Y-89891534D01*
X189664603Y-89896795D01*
X189663927Y-89903680D01*
X189662562Y-89916718D01*
X189658112Y-89922298D01*
X189649590Y-89920034D01*
X189636011Y-89909545D01*
X189616388Y-89890445D01*
X189608267Y-89882029D01*
X189589649Y-89862989D01*
X189573767Y-89847580D01*
X189562451Y-89837524D01*
X189557748Y-89834471D01*
X189554364Y-89839619D01*
X189552700Y-89852250D01*
X189552665Y-89854637D01*
X189551023Y-89869301D01*
X189547017Y-89878218D01*
X189546481Y-89878625D01*
X189539519Y-89876770D01*
X189526939Y-89868318D01*
X189511333Y-89855039D01*
X189509698Y-89853506D01*
X189492322Y-89837856D01*
X189476319Y-89824774D01*
X189465272Y-89817166D01*
X189455526Y-89812749D01*
X189453344Y-89816018D01*
X189455044Y-89824102D01*
X189454657Y-89840666D01*
X189450631Y-89849392D01*
X189445787Y-89854749D01*
X189440226Y-89855621D01*
X189431363Y-89851153D01*
X189416609Y-89840493D01*
X189411198Y-89836379D01*
X189389613Y-89820874D01*
X189368700Y-89807491D01*
X189351177Y-89797841D01*
X189339762Y-89793533D01*
X189338711Y-89793447D01*
X189338908Y-89797793D01*
X189344043Y-89808449D01*
X189345158Y-89810375D01*
X189351046Y-89824763D01*
X189351629Y-89836460D01*
X189351477Y-89836897D01*
X189348276Y-89841477D01*
X189342026Y-89841789D01*
X189330219Y-89837326D01*
X189313602Y-89829228D01*
X189288760Y-89818088D01*
X189261587Y-89807968D01*
X189245923Y-89803223D01*
X189212440Y-89794479D01*
X189229993Y-89814471D01*
X189239924Y-89828215D01*
X189244535Y-89839609D01*
X189244352Y-89842789D01*
X189240832Y-89847089D01*
X189233196Y-89847330D01*
X189218612Y-89843340D01*
X189210836Y-89840738D01*
X189188289Y-89833786D01*
X189165793Y-89828023D01*
X189157072Y-89826243D01*
X189138971Y-89822727D01*
X189124229Y-89819308D01*
X189122209Y-89818743D01*
X189116110Y-89817845D01*
X189116970Y-89821881D01*
X189125281Y-89832578D01*
X189126604Y-89834156D01*
X189138887Y-89850193D01*
X189142820Y-89860036D01*
X189137757Y-89864192D01*
X189123050Y-89863164D01*
X189098052Y-89857459D01*
X189097071Y-89857204D01*
X189069849Y-89851492D01*
X189041842Y-89847919D01*
X189016202Y-89846659D01*
X188996080Y-89847885D01*
X188985585Y-89851062D01*
X188982764Y-89856583D01*
X188988858Y-89865563D01*
X188993195Y-89869843D01*
X189002595Y-89879476D01*
X189003792Y-89884566D01*
X188997654Y-89888094D01*
X188987441Y-89889929D01*
X188968662Y-89891444D01*
X188944467Y-89892426D01*
X188929573Y-89892666D01*
X188872032Y-89893078D01*
X188883388Y-89909194D01*
X188895846Y-89929171D01*
X188908544Y-89953095D01*
X188918755Y-89975630D01*
X188922289Y-89985383D01*
X188923845Y-89993077D01*
X188920637Y-89996993D01*
X188910135Y-89998399D01*
X188895994Y-89998569D01*
X188865622Y-89998569D01*
X188794132Y-89998569D01*
X188791730Y-89986584D01*
X188794444Y-89972300D01*
X188802587Y-89954450D01*
X188809919Y-89936959D01*
X188810819Y-89923293D01*
X188808448Y-89914242D01*
X188802887Y-89883423D01*
X188807813Y-89855911D01*
X188822154Y-89833066D01*
X188844838Y-89816253D01*
X188874791Y-89806834D01*
X188894181Y-89805297D01*
X188912064Y-89803264D01*
X188921189Y-89797876D01*
X188921547Y-89797128D01*
X188930859Y-89786793D01*
X188948853Y-89777167D01*
X188972495Y-89769360D01*
X188998752Y-89764480D01*
X189013756Y-89763432D01*
X189037179Y-89761981D01*
X189053098Y-89758122D01*
X189065660Y-89750735D01*
X189068146Y-89748725D01*
X189082355Y-89739658D01*
X189099598Y-89735542D01*
X189116162Y-89734840D01*
X189146904Y-89731392D01*
X189166993Y-89723687D01*
X189195519Y-89711318D01*
X189223900Y-89708460D01*
X189251370Y-89713130D01*
X189271248Y-89717380D01*
X189284089Y-89717297D01*
X189292395Y-89713826D01*
X189305316Y-89707049D01*
X189317798Y-89702557D01*
X189326453Y-89701276D01*
X189327920Y-89704097D01*
G37*
%TO.C,C11*%
D14*
X193188748Y-52890000D02*
X193711252Y-52890000D01*
X193188748Y-54360000D02*
X193711252Y-54360000D01*
%TO.C,C7*%
X184583767Y-73240000D02*
X184291233Y-73240000D01*
X184583767Y-74260000D02*
X184291233Y-74260000D01*
%TO.C,R6*%
X189152500Y-81442224D02*
X189152500Y-80932776D01*
X190197500Y-81442224D02*
X190197500Y-80932776D01*
%TO.C,J4*%
D16*
X187000000Y-47960000D02*
X187000000Y-45225000D01*
X194500000Y-45225000D02*
X194500000Y-47960000D01*
D11*
X192150000Y-51425000D02*
G75*
G02*
X191950000Y-51425000I-100000J0D01*
G01*
X191950000Y-51425000D02*
G75*
G02*
X192150000Y-51425000I100000J0D01*
G01*
%TO.C,L1*%
D14*
X193065000Y-59835000D02*
X193065000Y-55615000D01*
X193115000Y-59835000D02*
X193065000Y-59835000D01*
X197235000Y-55615000D02*
X197285000Y-55615000D01*
X197285000Y-55615000D02*
X197285000Y-59835000D01*
%TD*%
M02*
