%TF.GenerationSoftware,KiCad,Pcbnew,10.0.3*%
%TF.CreationDate,2026-08-03T17:03:01+05:45*%
%TF.ProjectId,rasberry pi pico,72617362-6572-4727-9920-706920706963,rev?*%
%TF.SameCoordinates,Original*%
%TF.FileFunction,Legend,Bot*%
%TF.FilePolarity,Positive*%
%FSLAX46Y46*%
G04 Gerber Fmt 4.6, Leading zero omitted, Abs format (unit mm)*
G04 Created by KiCad (PCBNEW 10.0.3) date 2026-08-03 17:03:01*
%MOMM*%
%LPD*%
G01*
G04 APERTURE LIST*
%ADD10C,0.100000*%
%ADD11C,0.010000*%
%ADD12C,0.120000*%
G04 APERTURE END LIST*
D10*
X187470000Y-88530000D02*
X192470000Y-88530000D01*
X192470000Y-93530000D01*
X187470000Y-93530000D01*
X187470000Y-88530000D01*
G36*
X189846228Y-66627318D02*
G01*
X189807516Y-66704741D01*
X189771372Y-66740886D01*
X189693949Y-66779598D01*
X189574699Y-66779598D01*
X189497275Y-66740886D01*
X189461130Y-66704742D01*
X189422419Y-66627319D01*
X189422419Y-66308170D01*
X189846228Y-66308170D01*
X189846228Y-66627318D01*
G37*
G36*
X190036704Y-64998321D02*
G01*
X189530532Y-64829598D01*
X190036704Y-64660874D01*
X190036704Y-64998321D01*
G37*
G36*
X190036704Y-61331654D02*
G01*
X189530532Y-61162931D01*
X190036704Y-60994207D01*
X190036704Y-61331654D01*
G37*
G36*
X189846228Y-60341603D02*
G01*
X189807516Y-60419026D01*
X189771372Y-60455171D01*
X189693949Y-60493883D01*
X189574699Y-60493883D01*
X189497275Y-60455171D01*
X189461130Y-60419027D01*
X189422419Y-60341604D01*
X189422419Y-60022455D01*
X189846228Y-60022455D01*
X189846228Y-60341603D01*
G37*
G36*
X190322419Y-59202437D02*
G01*
X190281099Y-59326396D01*
X190199942Y-59407552D01*
X190116872Y-59449088D01*
X189937692Y-59493883D01*
X189807145Y-59493883D01*
X189627966Y-59449088D01*
X189544892Y-59407551D01*
X189463739Y-59326398D01*
X189422419Y-59202436D01*
X189422419Y-59022455D01*
X190322419Y-59022455D01*
X190322419Y-59202437D01*
G37*
G36*
X189846228Y-57293984D02*
G01*
X189807516Y-57371407D01*
X189771372Y-57407552D01*
X189693949Y-57446264D01*
X189574699Y-57446264D01*
X189497275Y-57407552D01*
X189461130Y-57371408D01*
X189422419Y-57293985D01*
X189422419Y-56974836D01*
X189846228Y-56974836D01*
X189846228Y-57293984D01*
G37*
G36*
X190322419Y-54773866D02*
G01*
X190281099Y-54897825D01*
X190199942Y-54978981D01*
X190116872Y-55020517D01*
X189937692Y-55065312D01*
X189807145Y-55065312D01*
X189627966Y-55020517D01*
X189544892Y-54978980D01*
X189463739Y-54897827D01*
X189422419Y-54773865D01*
X189422419Y-54593884D01*
X190322419Y-54593884D01*
X190322419Y-54773866D01*
G37*
G36*
X190036704Y-54045940D02*
G01*
X189530532Y-53877217D01*
X190036704Y-53708493D01*
X190036704Y-54045940D01*
G37*
G36*
X190628768Y-67419281D02*
G01*
X189211308Y-67419281D01*
X189211308Y-67239036D01*
X189326225Y-67239036D01*
X189326225Y-67277304D01*
X189353285Y-67304364D01*
X189372419Y-67308170D01*
X190372419Y-67308170D01*
X190391553Y-67304364D01*
X190418613Y-67277304D01*
X190418613Y-67239036D01*
X190391553Y-67211976D01*
X190372419Y-67208170D01*
X189372419Y-67208170D01*
X189353285Y-67211976D01*
X189326225Y-67239036D01*
X189211308Y-67239036D01*
X189211308Y-66258170D01*
X189322419Y-66258170D01*
X189322419Y-66639122D01*
X189322907Y-66641578D01*
X189322545Y-66642667D01*
X189324661Y-66650394D01*
X189326225Y-66658256D01*
X189327036Y-66659067D01*
X189327698Y-66661483D01*
X189375316Y-66756720D01*
X189380231Y-66763053D01*
X189384683Y-66769715D01*
X189432301Y-66817334D01*
X189438967Y-66821788D01*
X189445296Y-66826700D01*
X189540534Y-66874319D01*
X189542949Y-66874980D01*
X189543761Y-66875792D01*
X189551622Y-66877355D01*
X189559350Y-66879472D01*
X189560438Y-66879109D01*
X189562895Y-66879598D01*
X189705752Y-66879598D01*
X189708208Y-66879109D01*
X189709297Y-66879472D01*
X189717024Y-66877355D01*
X189724886Y-66875792D01*
X189725697Y-66874980D01*
X189728113Y-66874319D01*
X189823350Y-66826701D01*
X189829683Y-66821785D01*
X189836345Y-66817334D01*
X189883964Y-66769716D01*
X189888418Y-66763049D01*
X189893330Y-66756721D01*
X189940949Y-66661483D01*
X189941610Y-66659067D01*
X189942422Y-66658256D01*
X189943985Y-66650394D01*
X189946102Y-66642667D01*
X189945739Y-66641578D01*
X189946228Y-66639122D01*
X189946228Y-66592297D01*
X190343746Y-66870560D01*
X190361604Y-66878414D01*
X190399290Y-66871764D01*
X190421235Y-66840413D01*
X190414585Y-66802727D01*
X190401092Y-66788636D01*
X189946228Y-66470231D01*
X189946228Y-66308170D01*
X190372419Y-66308170D01*
X190391553Y-66304364D01*
X190418613Y-66277304D01*
X190418613Y-66239036D01*
X190391553Y-66211976D01*
X190372419Y-66208170D01*
X189372419Y-66208170D01*
X189353285Y-66211976D01*
X189326225Y-66239036D01*
X189322419Y-66258170D01*
X189211308Y-66258170D01*
X189211308Y-65353408D01*
X189322419Y-65353408D01*
X189322419Y-65924836D01*
X189326225Y-65943970D01*
X189353285Y-65971030D01*
X189391553Y-65971030D01*
X189418613Y-65943970D01*
X189422419Y-65924836D01*
X189422419Y-65689122D01*
X190372419Y-65689122D01*
X190391553Y-65685316D01*
X190418613Y-65658256D01*
X190418613Y-65619988D01*
X190391553Y-65592928D01*
X190372419Y-65589122D01*
X189422419Y-65589122D01*
X189422419Y-65353408D01*
X189418613Y-65334274D01*
X189391553Y-65307214D01*
X189353285Y-65307214D01*
X189326225Y-65334274D01*
X189322419Y-65353408D01*
X189211308Y-65353408D01*
X189211308Y-64826054D01*
X189322545Y-64826054D01*
X189323726Y-64829598D01*
X189322545Y-64833142D01*
X189329632Y-64847318D01*
X189334646Y-64862358D01*
X189337988Y-64864028D01*
X189339659Y-64867371D01*
X189356608Y-64877032D01*
X190356607Y-65210365D01*
X190375963Y-65212805D01*
X190410191Y-65195691D01*
X190422293Y-65159387D01*
X190405178Y-65125158D01*
X190388230Y-65115497D01*
X190136704Y-65031655D01*
X190136704Y-64627540D01*
X190388230Y-64543699D01*
X190405178Y-64534038D01*
X190422293Y-64499809D01*
X190410191Y-64463505D01*
X190375963Y-64446391D01*
X190356607Y-64448831D01*
X189356608Y-64782164D01*
X189339659Y-64791825D01*
X189337988Y-64795167D01*
X189334646Y-64796838D01*
X189329632Y-64811877D01*
X189322545Y-64826054D01*
X189211308Y-64826054D01*
X189211308Y-63572369D01*
X189326225Y-63572369D01*
X189326225Y-63610637D01*
X189353285Y-63637697D01*
X189372419Y-63641503D01*
X189798609Y-63641503D01*
X189798609Y-64112931D01*
X189372419Y-64112931D01*
X189353285Y-64116737D01*
X189326225Y-64143797D01*
X189326225Y-64182065D01*
X189353285Y-64209125D01*
X189372419Y-64212931D01*
X190372419Y-64212931D01*
X190391553Y-64209125D01*
X190418613Y-64182065D01*
X190418613Y-64143797D01*
X190391553Y-64116737D01*
X190372419Y-64112931D01*
X189898609Y-64112931D01*
X189898609Y-63641503D01*
X190372419Y-63641503D01*
X190391553Y-63637697D01*
X190418613Y-63610637D01*
X190418613Y-63572369D01*
X190391553Y-63545309D01*
X190372419Y-63541503D01*
X189372419Y-63541503D01*
X189353285Y-63545309D01*
X189326225Y-63572369D01*
X189211308Y-63572369D01*
X189211308Y-62572369D01*
X189326225Y-62572369D01*
X189326225Y-62610637D01*
X189353285Y-62637697D01*
X189372419Y-62641503D01*
X189823137Y-62641503D01*
X189337064Y-63127576D01*
X189326225Y-63143797D01*
X189326225Y-63182065D01*
X189353285Y-63209125D01*
X189391553Y-63209125D01*
X189407774Y-63198286D01*
X189805681Y-62800378D01*
X190342419Y-63202931D01*
X190360010Y-63211367D01*
X190397894Y-63205955D01*
X190420855Y-63175340D01*
X190415443Y-63137456D01*
X190402419Y-63122931D01*
X189877110Y-62728949D01*
X189964557Y-62641503D01*
X190372419Y-62641503D01*
X190391553Y-62637697D01*
X190418613Y-62610637D01*
X190418613Y-62572369D01*
X190391553Y-62545309D01*
X190372419Y-62541503D01*
X189372419Y-62541503D01*
X189353285Y-62545309D01*
X189326225Y-62572369D01*
X189211308Y-62572369D01*
X189211308Y-61591503D01*
X190417657Y-61591503D01*
X190417657Y-62353407D01*
X190421463Y-62372541D01*
X190448523Y-62399601D01*
X190486791Y-62399601D01*
X190513851Y-62372541D01*
X190517657Y-62353407D01*
X190517657Y-61591503D01*
X190513851Y-61572369D01*
X190486791Y-61545309D01*
X190448523Y-61545309D01*
X190421463Y-61572369D01*
X190417657Y-61591503D01*
X189211308Y-61591503D01*
X189211308Y-61159387D01*
X189322545Y-61159387D01*
X189323726Y-61162931D01*
X189322545Y-61166475D01*
X189329632Y-61180651D01*
X189334646Y-61195691D01*
X189337988Y-61197361D01*
X189339659Y-61200704D01*
X189356608Y-61210365D01*
X190356607Y-61543698D01*
X190375963Y-61546138D01*
X190410191Y-61529024D01*
X190422293Y-61492720D01*
X190405178Y-61458491D01*
X190388230Y-61448830D01*
X190136704Y-61364988D01*
X190136704Y-60960873D01*
X190388230Y-60877032D01*
X190405178Y-60867371D01*
X190422293Y-60833142D01*
X190410191Y-60796838D01*
X190375963Y-60779724D01*
X190356607Y-60782164D01*
X189356608Y-61115497D01*
X189339659Y-61125158D01*
X189337988Y-61128500D01*
X189334646Y-61130171D01*
X189329632Y-61145210D01*
X189322545Y-61159387D01*
X189211308Y-61159387D01*
X189211308Y-59972455D01*
X189322419Y-59972455D01*
X189322419Y-60353407D01*
X189322907Y-60355863D01*
X189322545Y-60356952D01*
X189324661Y-60364679D01*
X189326225Y-60372541D01*
X189327036Y-60373352D01*
X189327698Y-60375768D01*
X189375316Y-60471005D01*
X189380231Y-60477338D01*
X189384683Y-60484000D01*
X189432301Y-60531619D01*
X189438967Y-60536073D01*
X189445296Y-60540985D01*
X189540534Y-60588604D01*
X189542949Y-60589265D01*
X189543761Y-60590077D01*
X189551622Y-60591640D01*
X189559350Y-60593757D01*
X189560438Y-60593394D01*
X189562895Y-60593883D01*
X189705752Y-60593883D01*
X189708208Y-60593394D01*
X189709297Y-60593757D01*
X189717024Y-60591640D01*
X189724886Y-60590077D01*
X189725697Y-60589265D01*
X189728113Y-60588604D01*
X189823350Y-60540986D01*
X189829683Y-60536070D01*
X189836345Y-60531619D01*
X189883964Y-60484001D01*
X189888418Y-60477334D01*
X189893330Y-60471006D01*
X189940949Y-60375768D01*
X189941610Y-60373352D01*
X189942422Y-60372541D01*
X189943985Y-60364679D01*
X189946102Y-60356952D01*
X189945739Y-60355863D01*
X189946228Y-60353407D01*
X189946228Y-60306582D01*
X190343746Y-60584845D01*
X190361604Y-60592699D01*
X190399290Y-60586049D01*
X190421235Y-60554698D01*
X190414585Y-60517012D01*
X190401092Y-60502921D01*
X189946228Y-60184516D01*
X189946228Y-60022455D01*
X190372419Y-60022455D01*
X190391553Y-60018649D01*
X190418613Y-59991589D01*
X190418613Y-59953321D01*
X190391553Y-59926261D01*
X190372419Y-59922455D01*
X189372419Y-59922455D01*
X189353285Y-59926261D01*
X189326225Y-59953321D01*
X189322419Y-59972455D01*
X189211308Y-59972455D01*
X189211308Y-58972455D01*
X189322419Y-58972455D01*
X189322419Y-59210550D01*
X189323982Y-59218412D01*
X189324985Y-59226361D01*
X189372604Y-59369218D01*
X189373844Y-59371393D01*
X189373844Y-59372541D01*
X189378297Y-59379205D01*
X189382265Y-59386166D01*
X189383291Y-59386679D01*
X189384683Y-59388762D01*
X189479921Y-59484000D01*
X189486580Y-59488450D01*
X189492915Y-59493366D01*
X189588153Y-59540985D01*
X189593434Y-59542431D01*
X189598387Y-59544771D01*
X189788863Y-59592390D01*
X189794980Y-59592687D01*
X189800990Y-59593883D01*
X189943847Y-59593883D01*
X189949856Y-59592687D01*
X189955974Y-59592390D01*
X190146450Y-59544771D01*
X190151402Y-59542431D01*
X190156684Y-59540985D01*
X190251921Y-59493367D01*
X190258249Y-59488455D01*
X190264916Y-59484001D01*
X190360155Y-59388762D01*
X190361545Y-59386680D01*
X190362573Y-59386167D01*
X190366543Y-59379201D01*
X190370994Y-59372541D01*
X190370994Y-59371393D01*
X190372234Y-59369218D01*
X190419853Y-59226362D01*
X190420855Y-59218411D01*
X190422419Y-59210550D01*
X190422419Y-58972455D01*
X190418613Y-58953321D01*
X190391553Y-58926261D01*
X190372419Y-58922455D01*
X189372419Y-58922455D01*
X189353285Y-58926261D01*
X189326225Y-58953321D01*
X189322419Y-58972455D01*
X189211308Y-58972455D01*
X189211308Y-57905702D01*
X189326225Y-57905702D01*
X189326225Y-57943970D01*
X189353285Y-57971030D01*
X189372419Y-57974836D01*
X190170139Y-57974836D01*
X190247561Y-58013547D01*
X190283708Y-58049693D01*
X190322419Y-58127115D01*
X190322419Y-58293984D01*
X190283708Y-58371406D01*
X190247561Y-58407552D01*
X190170139Y-58446264D01*
X189372419Y-58446264D01*
X189353285Y-58450070D01*
X189326225Y-58477130D01*
X189326225Y-58515398D01*
X189353285Y-58542458D01*
X189372419Y-58546264D01*
X190181942Y-58546264D01*
X190184398Y-58545775D01*
X190185487Y-58546138D01*
X190193214Y-58544021D01*
X190201076Y-58542458D01*
X190201887Y-58541646D01*
X190204303Y-58540985D01*
X190299540Y-58493367D01*
X190305868Y-58488455D01*
X190312535Y-58484001D01*
X190360155Y-58436382D01*
X190364609Y-58429715D01*
X190369521Y-58423387D01*
X190417140Y-58328149D01*
X190417801Y-58325733D01*
X190418613Y-58324922D01*
X190420176Y-58317060D01*
X190422293Y-58309333D01*
X190421930Y-58308244D01*
X190422419Y-58305788D01*
X190422419Y-58115312D01*
X190421930Y-58112855D01*
X190422293Y-58111767D01*
X190420176Y-58104039D01*
X190418613Y-58096178D01*
X190417801Y-58095366D01*
X190417140Y-58092951D01*
X190369521Y-57997713D01*
X190364609Y-57991384D01*
X190360155Y-57984718D01*
X190312535Y-57937099D01*
X190305868Y-57932644D01*
X190299540Y-57927733D01*
X190204303Y-57880115D01*
X190201887Y-57879453D01*
X190201076Y-57878642D01*
X190193214Y-57877078D01*
X190185487Y-57874962D01*
X190184398Y-57875324D01*
X190181942Y-57874836D01*
X189372419Y-57874836D01*
X189353285Y-57878642D01*
X189326225Y-57905702D01*
X189211308Y-57905702D01*
X189211308Y-56924836D01*
X189322419Y-56924836D01*
X189322419Y-57305788D01*
X189322907Y-57308244D01*
X189322545Y-57309333D01*
X189324661Y-57317060D01*
X189326225Y-57324922D01*
X189327036Y-57325733D01*
X189327698Y-57328149D01*
X189375316Y-57423386D01*
X189380231Y-57429719D01*
X189384683Y-57436381D01*
X189432301Y-57484000D01*
X189438967Y-57488454D01*
X189445296Y-57493366D01*
X189540534Y-57540985D01*
X189542949Y-57541646D01*
X189543761Y-57542458D01*
X189551622Y-57544021D01*
X189559350Y-57546138D01*
X189560438Y-57545775D01*
X189562895Y-57546264D01*
X189705752Y-57546264D01*
X189708208Y-57545775D01*
X189709297Y-57546138D01*
X189717024Y-57544021D01*
X189724886Y-57542458D01*
X189725697Y-57541646D01*
X189728113Y-57540985D01*
X189823350Y-57493367D01*
X189829683Y-57488451D01*
X189836345Y-57484000D01*
X189883964Y-57436382D01*
X189888418Y-57429715D01*
X189893330Y-57423387D01*
X189940949Y-57328149D01*
X189941610Y-57325733D01*
X189942422Y-57324922D01*
X189943985Y-57317060D01*
X189946102Y-57309333D01*
X189945739Y-57308244D01*
X189946228Y-57305788D01*
X189946228Y-57258963D01*
X190343746Y-57537226D01*
X190361604Y-57545080D01*
X190399290Y-57538430D01*
X190421235Y-57507079D01*
X190414585Y-57469393D01*
X190401092Y-57455302D01*
X189946228Y-57136897D01*
X189946228Y-56974836D01*
X190372419Y-56974836D01*
X190391553Y-56971030D01*
X190418613Y-56943970D01*
X190418613Y-56905702D01*
X190391553Y-56878642D01*
X190372419Y-56874836D01*
X189372419Y-56874836D01*
X189353285Y-56878642D01*
X189326225Y-56905702D01*
X189322419Y-56924836D01*
X189211308Y-56924836D01*
X189211308Y-56429512D01*
X189707177Y-56429512D01*
X189707177Y-56467780D01*
X189718016Y-56484001D01*
X189765634Y-56531620D01*
X189781855Y-56542459D01*
X189781856Y-56542459D01*
X189820124Y-56542459D01*
X189836345Y-56531620D01*
X189883964Y-56484002D01*
X189894803Y-56467781D01*
X189894803Y-56429512D01*
X189894803Y-56429511D01*
X190230986Y-56429511D01*
X190230986Y-56429512D01*
X190230986Y-56467781D01*
X190241825Y-56484002D01*
X190289445Y-56531621D01*
X190305666Y-56542459D01*
X190343934Y-56542459D01*
X190343935Y-56542459D01*
X190343937Y-56542456D01*
X190360155Y-56531620D01*
X190407774Y-56484002D01*
X190418613Y-56467781D01*
X190418613Y-56429512D01*
X190418613Y-56429511D01*
X190407774Y-56413290D01*
X190360155Y-56365672D01*
X190343937Y-56354835D01*
X190343935Y-56354833D01*
X190305666Y-56354833D01*
X190289445Y-56365671D01*
X190241825Y-56413290D01*
X190230986Y-56429511D01*
X189894803Y-56429511D01*
X189883964Y-56413290D01*
X189836345Y-56365672D01*
X189820124Y-56354833D01*
X189781855Y-56354833D01*
X189765634Y-56365672D01*
X189718016Y-56413291D01*
X189707178Y-56429511D01*
X189707177Y-56429512D01*
X189211308Y-56429512D01*
X189211308Y-55543884D01*
X189322419Y-55543884D01*
X189322419Y-56020074D01*
X189326225Y-56039208D01*
X189353285Y-56066268D01*
X189391553Y-56066268D01*
X189418613Y-56039208D01*
X189422419Y-56020074D01*
X189422419Y-55593884D01*
X189798609Y-55593884D01*
X189798609Y-55877217D01*
X189802415Y-55896351D01*
X189829475Y-55923411D01*
X189867743Y-55923411D01*
X189894803Y-55896351D01*
X189898609Y-55877217D01*
X189898609Y-55593884D01*
X190322419Y-55593884D01*
X190322419Y-56020074D01*
X190326225Y-56039208D01*
X190353285Y-56066268D01*
X190391553Y-56066268D01*
X190418613Y-56039208D01*
X190422419Y-56020074D01*
X190422419Y-55543884D01*
X190418613Y-55524750D01*
X190391553Y-55497690D01*
X190372419Y-55493884D01*
X189372419Y-55493884D01*
X189353285Y-55497690D01*
X189326225Y-55524750D01*
X189322419Y-55543884D01*
X189211308Y-55543884D01*
X189211308Y-54543884D01*
X189322419Y-54543884D01*
X189322419Y-54781979D01*
X189323982Y-54789841D01*
X189324985Y-54797790D01*
X189372604Y-54940647D01*
X189373844Y-54942822D01*
X189373844Y-54943970D01*
X189378297Y-54950634D01*
X189382265Y-54957595D01*
X189383291Y-54958108D01*
X189384683Y-54960191D01*
X189479921Y-55055429D01*
X189486580Y-55059879D01*
X189492915Y-55064795D01*
X189588153Y-55112414D01*
X189593434Y-55113860D01*
X189598387Y-55116200D01*
X189788863Y-55163819D01*
X189794980Y-55164116D01*
X189800990Y-55165312D01*
X189943847Y-55165312D01*
X189949856Y-55164116D01*
X189955974Y-55163819D01*
X190146450Y-55116200D01*
X190151402Y-55113860D01*
X190156684Y-55112414D01*
X190251921Y-55064796D01*
X190258249Y-55059884D01*
X190264916Y-55055430D01*
X190360155Y-54960191D01*
X190361545Y-54958109D01*
X190362573Y-54957596D01*
X190366543Y-54950630D01*
X190370994Y-54943970D01*
X190370994Y-54942822D01*
X190372234Y-54940647D01*
X190419853Y-54797791D01*
X190420855Y-54789840D01*
X190422419Y-54781979D01*
X190422419Y-54543884D01*
X190418613Y-54524750D01*
X190391553Y-54497690D01*
X190372419Y-54493884D01*
X189372419Y-54493884D01*
X189353285Y-54497690D01*
X189326225Y-54524750D01*
X189322419Y-54543884D01*
X189211308Y-54543884D01*
X189211308Y-53873673D01*
X189322545Y-53873673D01*
X189323726Y-53877217D01*
X189322545Y-53880761D01*
X189329632Y-53894937D01*
X189334646Y-53909977D01*
X189337988Y-53911647D01*
X189339659Y-53914990D01*
X189356608Y-53924651D01*
X190356607Y-54257984D01*
X190375963Y-54260424D01*
X190410191Y-54243310D01*
X190422293Y-54207006D01*
X190405178Y-54172777D01*
X190388230Y-54163116D01*
X190136704Y-54079274D01*
X190136704Y-53675159D01*
X190388230Y-53591318D01*
X190405178Y-53581657D01*
X190422293Y-53547428D01*
X190410191Y-53511124D01*
X190375963Y-53494010D01*
X190356607Y-53496450D01*
X189356608Y-53829783D01*
X189339659Y-53839444D01*
X189337988Y-53842786D01*
X189334646Y-53844457D01*
X189329632Y-53859496D01*
X189322545Y-53873673D01*
X189211308Y-53873673D01*
X189211308Y-52541688D01*
X189322467Y-52541688D01*
X189326225Y-52552022D01*
X189326225Y-52563018D01*
X189332507Y-52569300D01*
X189335545Y-52577653D01*
X189351275Y-52589193D01*
X189968469Y-52877217D01*
X189351275Y-53165241D01*
X189335545Y-53176781D01*
X189332507Y-53185133D01*
X189326225Y-53191416D01*
X189326225Y-53202411D01*
X189322467Y-53212746D01*
X189326225Y-53220798D01*
X189326225Y-53229684D01*
X189333999Y-53237458D01*
X189338650Y-53247424D01*
X189347002Y-53250461D01*
X189353285Y-53256744D01*
X189372419Y-53260550D01*
X190372419Y-53260550D01*
X190391553Y-53256744D01*
X190418613Y-53229684D01*
X190418613Y-53191416D01*
X190391553Y-53164356D01*
X190372419Y-53160550D01*
X189597797Y-53160550D01*
X190107849Y-52922526D01*
X190118238Y-52914903D01*
X190120473Y-52914091D01*
X190121059Y-52912833D01*
X190123578Y-52910986D01*
X190129422Y-52894913D01*
X190136656Y-52879413D01*
X190135857Y-52877217D01*
X190136656Y-52875021D01*
X190129422Y-52859520D01*
X190123578Y-52843448D01*
X190121059Y-52841600D01*
X190120473Y-52840343D01*
X190118238Y-52839530D01*
X190107849Y-52831908D01*
X189597797Y-52593884D01*
X190372419Y-52593884D01*
X190391553Y-52590078D01*
X190418613Y-52563018D01*
X190418613Y-52524750D01*
X190391553Y-52497690D01*
X190372419Y-52493884D01*
X189372419Y-52493884D01*
X189353285Y-52497690D01*
X189347002Y-52503972D01*
X189338650Y-52507010D01*
X189333999Y-52516975D01*
X189326225Y-52524750D01*
X189326225Y-52533635D01*
X189322467Y-52541688D01*
X189211308Y-52541688D01*
X189211308Y-52382773D01*
X190628768Y-52382773D01*
X190628768Y-67419281D01*
G37*
X182507419Y-46466741D02*
X182483609Y-46419122D01*
X182483609Y-46419122D02*
X182483609Y-46347693D01*
X182483609Y-46347693D02*
X182507419Y-46276265D01*
X182507419Y-46276265D02*
X182555038Y-46228646D01*
X182555038Y-46228646D02*
X182602657Y-46204836D01*
X182602657Y-46204836D02*
X182697895Y-46181027D01*
X182697895Y-46181027D02*
X182769323Y-46181027D01*
X182769323Y-46181027D02*
X182864561Y-46204836D01*
X182864561Y-46204836D02*
X182912180Y-46228646D01*
X182912180Y-46228646D02*
X182959800Y-46276265D01*
X182959800Y-46276265D02*
X182983609Y-46347693D01*
X182983609Y-46347693D02*
X182983609Y-46395312D01*
X182983609Y-46395312D02*
X182959800Y-46466741D01*
X182959800Y-46466741D02*
X182935990Y-46490550D01*
X182935990Y-46490550D02*
X182769323Y-46490550D01*
X182769323Y-46490550D02*
X182769323Y-46395312D01*
X182983609Y-46704836D02*
X182483609Y-46704836D01*
X182483609Y-46704836D02*
X182483609Y-46895312D01*
X182483609Y-46895312D02*
X182507419Y-46942931D01*
X182507419Y-46942931D02*
X182531228Y-46966741D01*
X182531228Y-46966741D02*
X182578847Y-46990550D01*
X182578847Y-46990550D02*
X182650276Y-46990550D01*
X182650276Y-46990550D02*
X182697895Y-46966741D01*
X182697895Y-46966741D02*
X182721704Y-46942931D01*
X182721704Y-46942931D02*
X182745514Y-46895312D01*
X182745514Y-46895312D02*
X182745514Y-46704836D01*
X182483609Y-47300074D02*
X182483609Y-47347693D01*
X182483609Y-47347693D02*
X182507419Y-47395312D01*
X182507419Y-47395312D02*
X182531228Y-47419122D01*
X182531228Y-47419122D02*
X182578847Y-47442931D01*
X182578847Y-47442931D02*
X182674085Y-47466741D01*
X182674085Y-47466741D02*
X182793133Y-47466741D01*
X182793133Y-47466741D02*
X182888371Y-47442931D01*
X182888371Y-47442931D02*
X182935990Y-47419122D01*
X182935990Y-47419122D02*
X182959800Y-47395312D01*
X182959800Y-47395312D02*
X182983609Y-47347693D01*
X182983609Y-47347693D02*
X182983609Y-47300074D01*
X182983609Y-47300074D02*
X182959800Y-47252455D01*
X182959800Y-47252455D02*
X182935990Y-47228646D01*
X182935990Y-47228646D02*
X182888371Y-47204836D01*
X182888371Y-47204836D02*
X182793133Y-47181027D01*
X182793133Y-47181027D02*
X182674085Y-47181027D01*
X182674085Y-47181027D02*
X182578847Y-47204836D01*
X182578847Y-47204836D02*
X182531228Y-47228646D01*
X182531228Y-47228646D02*
X182507419Y-47252455D01*
X182507419Y-47252455D02*
X182483609Y-47300074D01*
X183593258Y-49027419D02*
X183640877Y-49003609D01*
X183640877Y-49003609D02*
X183712306Y-49003609D01*
X183712306Y-49003609D02*
X183783734Y-49027419D01*
X183783734Y-49027419D02*
X183831353Y-49075038D01*
X183831353Y-49075038D02*
X183855163Y-49122657D01*
X183855163Y-49122657D02*
X183878972Y-49217895D01*
X183878972Y-49217895D02*
X183878972Y-49289323D01*
X183878972Y-49289323D02*
X183855163Y-49384561D01*
X183855163Y-49384561D02*
X183831353Y-49432180D01*
X183831353Y-49432180D02*
X183783734Y-49479800D01*
X183783734Y-49479800D02*
X183712306Y-49503609D01*
X183712306Y-49503609D02*
X183664687Y-49503609D01*
X183664687Y-49503609D02*
X183593258Y-49479800D01*
X183593258Y-49479800D02*
X183569449Y-49455990D01*
X183569449Y-49455990D02*
X183569449Y-49289323D01*
X183569449Y-49289323D02*
X183664687Y-49289323D01*
X183355163Y-49503609D02*
X183355163Y-49003609D01*
X183355163Y-49003609D02*
X183164687Y-49003609D01*
X183164687Y-49003609D02*
X183117068Y-49027419D01*
X183117068Y-49027419D02*
X183093258Y-49051228D01*
X183093258Y-49051228D02*
X183069449Y-49098847D01*
X183069449Y-49098847D02*
X183069449Y-49170276D01*
X183069449Y-49170276D02*
X183093258Y-49217895D01*
X183093258Y-49217895D02*
X183117068Y-49241704D01*
X183117068Y-49241704D02*
X183164687Y-49265514D01*
X183164687Y-49265514D02*
X183355163Y-49265514D01*
X182593258Y-49503609D02*
X182878972Y-49503609D01*
X182736115Y-49503609D02*
X182736115Y-49003609D01*
X182736115Y-49003609D02*
X182783734Y-49075038D01*
X182783734Y-49075038D02*
X182831353Y-49122657D01*
X182831353Y-49122657D02*
X182878972Y-49146466D01*
X183673258Y-51687419D02*
X183720877Y-51663609D01*
X183720877Y-51663609D02*
X183792306Y-51663609D01*
X183792306Y-51663609D02*
X183863734Y-51687419D01*
X183863734Y-51687419D02*
X183911353Y-51735038D01*
X183911353Y-51735038D02*
X183935163Y-51782657D01*
X183935163Y-51782657D02*
X183958972Y-51877895D01*
X183958972Y-51877895D02*
X183958972Y-51949323D01*
X183958972Y-51949323D02*
X183935163Y-52044561D01*
X183935163Y-52044561D02*
X183911353Y-52092180D01*
X183911353Y-52092180D02*
X183863734Y-52139800D01*
X183863734Y-52139800D02*
X183792306Y-52163609D01*
X183792306Y-52163609D02*
X183744687Y-52163609D01*
X183744687Y-52163609D02*
X183673258Y-52139800D01*
X183673258Y-52139800D02*
X183649449Y-52115990D01*
X183649449Y-52115990D02*
X183649449Y-51949323D01*
X183649449Y-51949323D02*
X183744687Y-51949323D01*
X183435163Y-52163609D02*
X183435163Y-51663609D01*
X183435163Y-51663609D02*
X183149449Y-52163609D01*
X183149449Y-52163609D02*
X183149449Y-51663609D01*
X182911353Y-52163609D02*
X182911353Y-51663609D01*
X182911353Y-51663609D02*
X182792305Y-51663609D01*
X182792305Y-51663609D02*
X182720877Y-51687419D01*
X182720877Y-51687419D02*
X182673258Y-51735038D01*
X182673258Y-51735038D02*
X182649448Y-51782657D01*
X182649448Y-51782657D02*
X182625639Y-51877895D01*
X182625639Y-51877895D02*
X182625639Y-51949323D01*
X182625639Y-51949323D02*
X182649448Y-52044561D01*
X182649448Y-52044561D02*
X182673258Y-52092180D01*
X182673258Y-52092180D02*
X182720877Y-52139800D01*
X182720877Y-52139800D02*
X182792305Y-52163609D01*
X182792305Y-52163609D02*
X182911353Y-52163609D01*
X183553258Y-54137419D02*
X183600877Y-54113609D01*
X183600877Y-54113609D02*
X183672306Y-54113609D01*
X183672306Y-54113609D02*
X183743734Y-54137419D01*
X183743734Y-54137419D02*
X183791353Y-54185038D01*
X183791353Y-54185038D02*
X183815163Y-54232657D01*
X183815163Y-54232657D02*
X183838972Y-54327895D01*
X183838972Y-54327895D02*
X183838972Y-54399323D01*
X183838972Y-54399323D02*
X183815163Y-54494561D01*
X183815163Y-54494561D02*
X183791353Y-54542180D01*
X183791353Y-54542180D02*
X183743734Y-54589800D01*
X183743734Y-54589800D02*
X183672306Y-54613609D01*
X183672306Y-54613609D02*
X183624687Y-54613609D01*
X183624687Y-54613609D02*
X183553258Y-54589800D01*
X183553258Y-54589800D02*
X183529449Y-54565990D01*
X183529449Y-54565990D02*
X183529449Y-54399323D01*
X183529449Y-54399323D02*
X183624687Y-54399323D01*
X183315163Y-54613609D02*
X183315163Y-54113609D01*
X183315163Y-54113609D02*
X183124687Y-54113609D01*
X183124687Y-54113609D02*
X183077068Y-54137419D01*
X183077068Y-54137419D02*
X183053258Y-54161228D01*
X183053258Y-54161228D02*
X183029449Y-54208847D01*
X183029449Y-54208847D02*
X183029449Y-54280276D01*
X183029449Y-54280276D02*
X183053258Y-54327895D01*
X183053258Y-54327895D02*
X183077068Y-54351704D01*
X183077068Y-54351704D02*
X183124687Y-54375514D01*
X183124687Y-54375514D02*
X183315163Y-54375514D01*
X182838972Y-54161228D02*
X182815163Y-54137419D01*
X182815163Y-54137419D02*
X182767544Y-54113609D01*
X182767544Y-54113609D02*
X182648496Y-54113609D01*
X182648496Y-54113609D02*
X182600877Y-54137419D01*
X182600877Y-54137419D02*
X182577068Y-54161228D01*
X182577068Y-54161228D02*
X182553258Y-54208847D01*
X182553258Y-54208847D02*
X182553258Y-54256466D01*
X182553258Y-54256466D02*
X182577068Y-54327895D01*
X182577068Y-54327895D02*
X182862782Y-54613609D01*
X182862782Y-54613609D02*
X182553258Y-54613609D01*
X183523258Y-56777419D02*
X183570877Y-56753609D01*
X183570877Y-56753609D02*
X183642306Y-56753609D01*
X183642306Y-56753609D02*
X183713734Y-56777419D01*
X183713734Y-56777419D02*
X183761353Y-56825038D01*
X183761353Y-56825038D02*
X183785163Y-56872657D01*
X183785163Y-56872657D02*
X183808972Y-56967895D01*
X183808972Y-56967895D02*
X183808972Y-57039323D01*
X183808972Y-57039323D02*
X183785163Y-57134561D01*
X183785163Y-57134561D02*
X183761353Y-57182180D01*
X183761353Y-57182180D02*
X183713734Y-57229800D01*
X183713734Y-57229800D02*
X183642306Y-57253609D01*
X183642306Y-57253609D02*
X183594687Y-57253609D01*
X183594687Y-57253609D02*
X183523258Y-57229800D01*
X183523258Y-57229800D02*
X183499449Y-57205990D01*
X183499449Y-57205990D02*
X183499449Y-57039323D01*
X183499449Y-57039323D02*
X183594687Y-57039323D01*
X183285163Y-57253609D02*
X183285163Y-56753609D01*
X183285163Y-56753609D02*
X183094687Y-56753609D01*
X183094687Y-56753609D02*
X183047068Y-56777419D01*
X183047068Y-56777419D02*
X183023258Y-56801228D01*
X183023258Y-56801228D02*
X182999449Y-56848847D01*
X182999449Y-56848847D02*
X182999449Y-56920276D01*
X182999449Y-56920276D02*
X183023258Y-56967895D01*
X183023258Y-56967895D02*
X183047068Y-56991704D01*
X183047068Y-56991704D02*
X183094687Y-57015514D01*
X183094687Y-57015514D02*
X183285163Y-57015514D01*
X182832782Y-56753609D02*
X182523258Y-56753609D01*
X182523258Y-56753609D02*
X182689925Y-56944085D01*
X182689925Y-56944085D02*
X182618496Y-56944085D01*
X182618496Y-56944085D02*
X182570877Y-56967895D01*
X182570877Y-56967895D02*
X182547068Y-56991704D01*
X182547068Y-56991704D02*
X182523258Y-57039323D01*
X182523258Y-57039323D02*
X182523258Y-57158371D01*
X182523258Y-57158371D02*
X182547068Y-57205990D01*
X182547068Y-57205990D02*
X182570877Y-57229800D01*
X182570877Y-57229800D02*
X182618496Y-57253609D01*
X182618496Y-57253609D02*
X182761353Y-57253609D01*
X182761353Y-57253609D02*
X182808972Y-57229800D01*
X182808972Y-57229800D02*
X182832782Y-57205990D01*
X183683258Y-59277419D02*
X183730877Y-59253609D01*
X183730877Y-59253609D02*
X183802306Y-59253609D01*
X183802306Y-59253609D02*
X183873734Y-59277419D01*
X183873734Y-59277419D02*
X183921353Y-59325038D01*
X183921353Y-59325038D02*
X183945163Y-59372657D01*
X183945163Y-59372657D02*
X183968972Y-59467895D01*
X183968972Y-59467895D02*
X183968972Y-59539323D01*
X183968972Y-59539323D02*
X183945163Y-59634561D01*
X183945163Y-59634561D02*
X183921353Y-59682180D01*
X183921353Y-59682180D02*
X183873734Y-59729800D01*
X183873734Y-59729800D02*
X183802306Y-59753609D01*
X183802306Y-59753609D02*
X183754687Y-59753609D01*
X183754687Y-59753609D02*
X183683258Y-59729800D01*
X183683258Y-59729800D02*
X183659449Y-59705990D01*
X183659449Y-59705990D02*
X183659449Y-59539323D01*
X183659449Y-59539323D02*
X183754687Y-59539323D01*
X183445163Y-59753609D02*
X183445163Y-59253609D01*
X183445163Y-59253609D02*
X183254687Y-59253609D01*
X183254687Y-59253609D02*
X183207068Y-59277419D01*
X183207068Y-59277419D02*
X183183258Y-59301228D01*
X183183258Y-59301228D02*
X183159449Y-59348847D01*
X183159449Y-59348847D02*
X183159449Y-59420276D01*
X183159449Y-59420276D02*
X183183258Y-59467895D01*
X183183258Y-59467895D02*
X183207068Y-59491704D01*
X183207068Y-59491704D02*
X183254687Y-59515514D01*
X183254687Y-59515514D02*
X183445163Y-59515514D01*
X182730877Y-59420276D02*
X182730877Y-59753609D01*
X182849925Y-59229800D02*
X182968972Y-59586942D01*
X182968972Y-59586942D02*
X182659449Y-59586942D01*
X183493258Y-61747419D02*
X183540877Y-61723609D01*
X183540877Y-61723609D02*
X183612306Y-61723609D01*
X183612306Y-61723609D02*
X183683734Y-61747419D01*
X183683734Y-61747419D02*
X183731353Y-61795038D01*
X183731353Y-61795038D02*
X183755163Y-61842657D01*
X183755163Y-61842657D02*
X183778972Y-61937895D01*
X183778972Y-61937895D02*
X183778972Y-62009323D01*
X183778972Y-62009323D02*
X183755163Y-62104561D01*
X183755163Y-62104561D02*
X183731353Y-62152180D01*
X183731353Y-62152180D02*
X183683734Y-62199800D01*
X183683734Y-62199800D02*
X183612306Y-62223609D01*
X183612306Y-62223609D02*
X183564687Y-62223609D01*
X183564687Y-62223609D02*
X183493258Y-62199800D01*
X183493258Y-62199800D02*
X183469449Y-62175990D01*
X183469449Y-62175990D02*
X183469449Y-62009323D01*
X183469449Y-62009323D02*
X183564687Y-62009323D01*
X183255163Y-62223609D02*
X183255163Y-61723609D01*
X183255163Y-61723609D02*
X183064687Y-61723609D01*
X183064687Y-61723609D02*
X183017068Y-61747419D01*
X183017068Y-61747419D02*
X182993258Y-61771228D01*
X182993258Y-61771228D02*
X182969449Y-61818847D01*
X182969449Y-61818847D02*
X182969449Y-61890276D01*
X182969449Y-61890276D02*
X182993258Y-61937895D01*
X182993258Y-61937895D02*
X183017068Y-61961704D01*
X183017068Y-61961704D02*
X183064687Y-61985514D01*
X183064687Y-61985514D02*
X183255163Y-61985514D01*
X182517068Y-61723609D02*
X182755163Y-61723609D01*
X182755163Y-61723609D02*
X182778972Y-61961704D01*
X182778972Y-61961704D02*
X182755163Y-61937895D01*
X182755163Y-61937895D02*
X182707544Y-61914085D01*
X182707544Y-61914085D02*
X182588496Y-61914085D01*
X182588496Y-61914085D02*
X182540877Y-61937895D01*
X182540877Y-61937895D02*
X182517068Y-61961704D01*
X182517068Y-61961704D02*
X182493258Y-62009323D01*
X182493258Y-62009323D02*
X182493258Y-62128371D01*
X182493258Y-62128371D02*
X182517068Y-62175990D01*
X182517068Y-62175990D02*
X182540877Y-62199800D01*
X182540877Y-62199800D02*
X182588496Y-62223609D01*
X182588496Y-62223609D02*
X182707544Y-62223609D01*
X182707544Y-62223609D02*
X182755163Y-62199800D01*
X182755163Y-62199800D02*
X182778972Y-62175990D01*
X183523258Y-64287419D02*
X183570877Y-64263609D01*
X183570877Y-64263609D02*
X183642306Y-64263609D01*
X183642306Y-64263609D02*
X183713734Y-64287419D01*
X183713734Y-64287419D02*
X183761353Y-64335038D01*
X183761353Y-64335038D02*
X183785163Y-64382657D01*
X183785163Y-64382657D02*
X183808972Y-64477895D01*
X183808972Y-64477895D02*
X183808972Y-64549323D01*
X183808972Y-64549323D02*
X183785163Y-64644561D01*
X183785163Y-64644561D02*
X183761353Y-64692180D01*
X183761353Y-64692180D02*
X183713734Y-64739800D01*
X183713734Y-64739800D02*
X183642306Y-64763609D01*
X183642306Y-64763609D02*
X183594687Y-64763609D01*
X183594687Y-64763609D02*
X183523258Y-64739800D01*
X183523258Y-64739800D02*
X183499449Y-64715990D01*
X183499449Y-64715990D02*
X183499449Y-64549323D01*
X183499449Y-64549323D02*
X183594687Y-64549323D01*
X183285163Y-64763609D02*
X183285163Y-64263609D01*
X183285163Y-64263609D02*
X182999449Y-64763609D01*
X182999449Y-64763609D02*
X182999449Y-64263609D01*
X182761353Y-64763609D02*
X182761353Y-64263609D01*
X182761353Y-64263609D02*
X182642305Y-64263609D01*
X182642305Y-64263609D02*
X182570877Y-64287419D01*
X182570877Y-64287419D02*
X182523258Y-64335038D01*
X182523258Y-64335038D02*
X182499448Y-64382657D01*
X182499448Y-64382657D02*
X182475639Y-64477895D01*
X182475639Y-64477895D02*
X182475639Y-64549323D01*
X182475639Y-64549323D02*
X182499448Y-64644561D01*
X182499448Y-64644561D02*
X182523258Y-64692180D01*
X182523258Y-64692180D02*
X182570877Y-64739800D01*
X182570877Y-64739800D02*
X182642305Y-64763609D01*
X182642305Y-64763609D02*
X182761353Y-64763609D01*
X183463258Y-66827419D02*
X183510877Y-66803609D01*
X183510877Y-66803609D02*
X183582306Y-66803609D01*
X183582306Y-66803609D02*
X183653734Y-66827419D01*
X183653734Y-66827419D02*
X183701353Y-66875038D01*
X183701353Y-66875038D02*
X183725163Y-66922657D01*
X183725163Y-66922657D02*
X183748972Y-67017895D01*
X183748972Y-67017895D02*
X183748972Y-67089323D01*
X183748972Y-67089323D02*
X183725163Y-67184561D01*
X183725163Y-67184561D02*
X183701353Y-67232180D01*
X183701353Y-67232180D02*
X183653734Y-67279800D01*
X183653734Y-67279800D02*
X183582306Y-67303609D01*
X183582306Y-67303609D02*
X183534687Y-67303609D01*
X183534687Y-67303609D02*
X183463258Y-67279800D01*
X183463258Y-67279800D02*
X183439449Y-67255990D01*
X183439449Y-67255990D02*
X183439449Y-67089323D01*
X183439449Y-67089323D02*
X183534687Y-67089323D01*
X183225163Y-67303609D02*
X183225163Y-66803609D01*
X183225163Y-66803609D02*
X183034687Y-66803609D01*
X183034687Y-66803609D02*
X182987068Y-66827419D01*
X182987068Y-66827419D02*
X182963258Y-66851228D01*
X182963258Y-66851228D02*
X182939449Y-66898847D01*
X182939449Y-66898847D02*
X182939449Y-66970276D01*
X182939449Y-66970276D02*
X182963258Y-67017895D01*
X182963258Y-67017895D02*
X182987068Y-67041704D01*
X182987068Y-67041704D02*
X183034687Y-67065514D01*
X183034687Y-67065514D02*
X183225163Y-67065514D01*
X182510877Y-66803609D02*
X182606115Y-66803609D01*
X182606115Y-66803609D02*
X182653734Y-66827419D01*
X182653734Y-66827419D02*
X182677544Y-66851228D01*
X182677544Y-66851228D02*
X182725163Y-66922657D01*
X182725163Y-66922657D02*
X182748972Y-67017895D01*
X182748972Y-67017895D02*
X182748972Y-67208371D01*
X182748972Y-67208371D02*
X182725163Y-67255990D01*
X182725163Y-67255990D02*
X182701353Y-67279800D01*
X182701353Y-67279800D02*
X182653734Y-67303609D01*
X182653734Y-67303609D02*
X182558496Y-67303609D01*
X182558496Y-67303609D02*
X182510877Y-67279800D01*
X182510877Y-67279800D02*
X182487068Y-67255990D01*
X182487068Y-67255990D02*
X182463258Y-67208371D01*
X182463258Y-67208371D02*
X182463258Y-67089323D01*
X182463258Y-67089323D02*
X182487068Y-67041704D01*
X182487068Y-67041704D02*
X182510877Y-67017895D01*
X182510877Y-67017895D02*
X182558496Y-66994085D01*
X182558496Y-66994085D02*
X182653734Y-66994085D01*
X182653734Y-66994085D02*
X182701353Y-67017895D01*
X182701353Y-67017895D02*
X182725163Y-67041704D01*
X182725163Y-67041704D02*
X182748972Y-67089323D01*
X183533258Y-69287419D02*
X183580877Y-69263609D01*
X183580877Y-69263609D02*
X183652306Y-69263609D01*
X183652306Y-69263609D02*
X183723734Y-69287419D01*
X183723734Y-69287419D02*
X183771353Y-69335038D01*
X183771353Y-69335038D02*
X183795163Y-69382657D01*
X183795163Y-69382657D02*
X183818972Y-69477895D01*
X183818972Y-69477895D02*
X183818972Y-69549323D01*
X183818972Y-69549323D02*
X183795163Y-69644561D01*
X183795163Y-69644561D02*
X183771353Y-69692180D01*
X183771353Y-69692180D02*
X183723734Y-69739800D01*
X183723734Y-69739800D02*
X183652306Y-69763609D01*
X183652306Y-69763609D02*
X183604687Y-69763609D01*
X183604687Y-69763609D02*
X183533258Y-69739800D01*
X183533258Y-69739800D02*
X183509449Y-69715990D01*
X183509449Y-69715990D02*
X183509449Y-69549323D01*
X183509449Y-69549323D02*
X183604687Y-69549323D01*
X183295163Y-69763609D02*
X183295163Y-69263609D01*
X183295163Y-69263609D02*
X183104687Y-69263609D01*
X183104687Y-69263609D02*
X183057068Y-69287419D01*
X183057068Y-69287419D02*
X183033258Y-69311228D01*
X183033258Y-69311228D02*
X183009449Y-69358847D01*
X183009449Y-69358847D02*
X183009449Y-69430276D01*
X183009449Y-69430276D02*
X183033258Y-69477895D01*
X183033258Y-69477895D02*
X183057068Y-69501704D01*
X183057068Y-69501704D02*
X183104687Y-69525514D01*
X183104687Y-69525514D02*
X183295163Y-69525514D01*
X182842782Y-69263609D02*
X182509449Y-69263609D01*
X182509449Y-69263609D02*
X182723734Y-69763609D01*
X183383258Y-71927419D02*
X183430877Y-71903609D01*
X183430877Y-71903609D02*
X183502306Y-71903609D01*
X183502306Y-71903609D02*
X183573734Y-71927419D01*
X183573734Y-71927419D02*
X183621353Y-71975038D01*
X183621353Y-71975038D02*
X183645163Y-72022657D01*
X183645163Y-72022657D02*
X183668972Y-72117895D01*
X183668972Y-72117895D02*
X183668972Y-72189323D01*
X183668972Y-72189323D02*
X183645163Y-72284561D01*
X183645163Y-72284561D02*
X183621353Y-72332180D01*
X183621353Y-72332180D02*
X183573734Y-72379800D01*
X183573734Y-72379800D02*
X183502306Y-72403609D01*
X183502306Y-72403609D02*
X183454687Y-72403609D01*
X183454687Y-72403609D02*
X183383258Y-72379800D01*
X183383258Y-72379800D02*
X183359449Y-72355990D01*
X183359449Y-72355990D02*
X183359449Y-72189323D01*
X183359449Y-72189323D02*
X183454687Y-72189323D01*
X183145163Y-72403609D02*
X183145163Y-71903609D01*
X183145163Y-71903609D02*
X182954687Y-71903609D01*
X182954687Y-71903609D02*
X182907068Y-71927419D01*
X182907068Y-71927419D02*
X182883258Y-71951228D01*
X182883258Y-71951228D02*
X182859449Y-71998847D01*
X182859449Y-71998847D02*
X182859449Y-72070276D01*
X182859449Y-72070276D02*
X182883258Y-72117895D01*
X182883258Y-72117895D02*
X182907068Y-72141704D01*
X182907068Y-72141704D02*
X182954687Y-72165514D01*
X182954687Y-72165514D02*
X183145163Y-72165514D01*
X182573734Y-72117895D02*
X182621353Y-72094085D01*
X182621353Y-72094085D02*
X182645163Y-72070276D01*
X182645163Y-72070276D02*
X182668972Y-72022657D01*
X182668972Y-72022657D02*
X182668972Y-71998847D01*
X182668972Y-71998847D02*
X182645163Y-71951228D01*
X182645163Y-71951228D02*
X182621353Y-71927419D01*
X182621353Y-71927419D02*
X182573734Y-71903609D01*
X182573734Y-71903609D02*
X182478496Y-71903609D01*
X182478496Y-71903609D02*
X182430877Y-71927419D01*
X182430877Y-71927419D02*
X182407068Y-71951228D01*
X182407068Y-71951228D02*
X182383258Y-71998847D01*
X182383258Y-71998847D02*
X182383258Y-72022657D01*
X182383258Y-72022657D02*
X182407068Y-72070276D01*
X182407068Y-72070276D02*
X182430877Y-72094085D01*
X182430877Y-72094085D02*
X182478496Y-72117895D01*
X182478496Y-72117895D02*
X182573734Y-72117895D01*
X182573734Y-72117895D02*
X182621353Y-72141704D01*
X182621353Y-72141704D02*
X182645163Y-72165514D01*
X182645163Y-72165514D02*
X182668972Y-72213133D01*
X182668972Y-72213133D02*
X182668972Y-72308371D01*
X182668972Y-72308371D02*
X182645163Y-72355990D01*
X182645163Y-72355990D02*
X182621353Y-72379800D01*
X182621353Y-72379800D02*
X182573734Y-72403609D01*
X182573734Y-72403609D02*
X182478496Y-72403609D01*
X182478496Y-72403609D02*
X182430877Y-72379800D01*
X182430877Y-72379800D02*
X182407068Y-72355990D01*
X182407068Y-72355990D02*
X182383258Y-72308371D01*
X182383258Y-72308371D02*
X182383258Y-72213133D01*
X182383258Y-72213133D02*
X182407068Y-72165514D01*
X182407068Y-72165514D02*
X182430877Y-72141704D01*
X182430877Y-72141704D02*
X182478496Y-72117895D01*
X183443258Y-74447419D02*
X183490877Y-74423609D01*
X183490877Y-74423609D02*
X183562306Y-74423609D01*
X183562306Y-74423609D02*
X183633734Y-74447419D01*
X183633734Y-74447419D02*
X183681353Y-74495038D01*
X183681353Y-74495038D02*
X183705163Y-74542657D01*
X183705163Y-74542657D02*
X183728972Y-74637895D01*
X183728972Y-74637895D02*
X183728972Y-74709323D01*
X183728972Y-74709323D02*
X183705163Y-74804561D01*
X183705163Y-74804561D02*
X183681353Y-74852180D01*
X183681353Y-74852180D02*
X183633734Y-74899800D01*
X183633734Y-74899800D02*
X183562306Y-74923609D01*
X183562306Y-74923609D02*
X183514687Y-74923609D01*
X183514687Y-74923609D02*
X183443258Y-74899800D01*
X183443258Y-74899800D02*
X183419449Y-74875990D01*
X183419449Y-74875990D02*
X183419449Y-74709323D01*
X183419449Y-74709323D02*
X183514687Y-74709323D01*
X183205163Y-74923609D02*
X183205163Y-74423609D01*
X183205163Y-74423609D02*
X183014687Y-74423609D01*
X183014687Y-74423609D02*
X182967068Y-74447419D01*
X182967068Y-74447419D02*
X182943258Y-74471228D01*
X182943258Y-74471228D02*
X182919449Y-74518847D01*
X182919449Y-74518847D02*
X182919449Y-74590276D01*
X182919449Y-74590276D02*
X182943258Y-74637895D01*
X182943258Y-74637895D02*
X182967068Y-74661704D01*
X182967068Y-74661704D02*
X183014687Y-74685514D01*
X183014687Y-74685514D02*
X183205163Y-74685514D01*
X182681353Y-74923609D02*
X182586115Y-74923609D01*
X182586115Y-74923609D02*
X182538496Y-74899800D01*
X182538496Y-74899800D02*
X182514687Y-74875990D01*
X182514687Y-74875990D02*
X182467068Y-74804561D01*
X182467068Y-74804561D02*
X182443258Y-74709323D01*
X182443258Y-74709323D02*
X182443258Y-74518847D01*
X182443258Y-74518847D02*
X182467068Y-74471228D01*
X182467068Y-74471228D02*
X182490877Y-74447419D01*
X182490877Y-74447419D02*
X182538496Y-74423609D01*
X182538496Y-74423609D02*
X182633734Y-74423609D01*
X182633734Y-74423609D02*
X182681353Y-74447419D01*
X182681353Y-74447419D02*
X182705163Y-74471228D01*
X182705163Y-74471228D02*
X182728972Y-74518847D01*
X182728972Y-74518847D02*
X182728972Y-74637895D01*
X182728972Y-74637895D02*
X182705163Y-74685514D01*
X182705163Y-74685514D02*
X182681353Y-74709323D01*
X182681353Y-74709323D02*
X182633734Y-74733133D01*
X182633734Y-74733133D02*
X182538496Y-74733133D01*
X182538496Y-74733133D02*
X182490877Y-74709323D01*
X182490877Y-74709323D02*
X182467068Y-74685514D01*
X182467068Y-74685514D02*
X182443258Y-74637895D01*
X183563258Y-76967419D02*
X183610877Y-76943609D01*
X183610877Y-76943609D02*
X183682306Y-76943609D01*
X183682306Y-76943609D02*
X183753734Y-76967419D01*
X183753734Y-76967419D02*
X183801353Y-77015038D01*
X183801353Y-77015038D02*
X183825163Y-77062657D01*
X183825163Y-77062657D02*
X183848972Y-77157895D01*
X183848972Y-77157895D02*
X183848972Y-77229323D01*
X183848972Y-77229323D02*
X183825163Y-77324561D01*
X183825163Y-77324561D02*
X183801353Y-77372180D01*
X183801353Y-77372180D02*
X183753734Y-77419800D01*
X183753734Y-77419800D02*
X183682306Y-77443609D01*
X183682306Y-77443609D02*
X183634687Y-77443609D01*
X183634687Y-77443609D02*
X183563258Y-77419800D01*
X183563258Y-77419800D02*
X183539449Y-77395990D01*
X183539449Y-77395990D02*
X183539449Y-77229323D01*
X183539449Y-77229323D02*
X183634687Y-77229323D01*
X183325163Y-77443609D02*
X183325163Y-76943609D01*
X183325163Y-76943609D02*
X183039449Y-77443609D01*
X183039449Y-77443609D02*
X183039449Y-76943609D01*
X182801353Y-77443609D02*
X182801353Y-76943609D01*
X182801353Y-76943609D02*
X182682305Y-76943609D01*
X182682305Y-76943609D02*
X182610877Y-76967419D01*
X182610877Y-76967419D02*
X182563258Y-77015038D01*
X182563258Y-77015038D02*
X182539448Y-77062657D01*
X182539448Y-77062657D02*
X182515639Y-77157895D01*
X182515639Y-77157895D02*
X182515639Y-77229323D01*
X182515639Y-77229323D02*
X182539448Y-77324561D01*
X182539448Y-77324561D02*
X182563258Y-77372180D01*
X182563258Y-77372180D02*
X182610877Y-77419800D01*
X182610877Y-77419800D02*
X182682305Y-77443609D01*
X182682305Y-77443609D02*
X182801353Y-77443609D01*
X183933258Y-79467419D02*
X183980877Y-79443609D01*
X183980877Y-79443609D02*
X184052306Y-79443609D01*
X184052306Y-79443609D02*
X184123734Y-79467419D01*
X184123734Y-79467419D02*
X184171353Y-79515038D01*
X184171353Y-79515038D02*
X184195163Y-79562657D01*
X184195163Y-79562657D02*
X184218972Y-79657895D01*
X184218972Y-79657895D02*
X184218972Y-79729323D01*
X184218972Y-79729323D02*
X184195163Y-79824561D01*
X184195163Y-79824561D02*
X184171353Y-79872180D01*
X184171353Y-79872180D02*
X184123734Y-79919800D01*
X184123734Y-79919800D02*
X184052306Y-79943609D01*
X184052306Y-79943609D02*
X184004687Y-79943609D01*
X184004687Y-79943609D02*
X183933258Y-79919800D01*
X183933258Y-79919800D02*
X183909449Y-79895990D01*
X183909449Y-79895990D02*
X183909449Y-79729323D01*
X183909449Y-79729323D02*
X184004687Y-79729323D01*
X183695163Y-79943609D02*
X183695163Y-79443609D01*
X183695163Y-79443609D02*
X183504687Y-79443609D01*
X183504687Y-79443609D02*
X183457068Y-79467419D01*
X183457068Y-79467419D02*
X183433258Y-79491228D01*
X183433258Y-79491228D02*
X183409449Y-79538847D01*
X183409449Y-79538847D02*
X183409449Y-79610276D01*
X183409449Y-79610276D02*
X183433258Y-79657895D01*
X183433258Y-79657895D02*
X183457068Y-79681704D01*
X183457068Y-79681704D02*
X183504687Y-79705514D01*
X183504687Y-79705514D02*
X183695163Y-79705514D01*
X182933258Y-79943609D02*
X183218972Y-79943609D01*
X183076115Y-79943609D02*
X183076115Y-79443609D01*
X183076115Y-79443609D02*
X183123734Y-79515038D01*
X183123734Y-79515038D02*
X183171353Y-79562657D01*
X183171353Y-79562657D02*
X183218972Y-79586466D01*
X182623735Y-79443609D02*
X182576116Y-79443609D01*
X182576116Y-79443609D02*
X182528497Y-79467419D01*
X182528497Y-79467419D02*
X182504687Y-79491228D01*
X182504687Y-79491228D02*
X182480878Y-79538847D01*
X182480878Y-79538847D02*
X182457068Y-79634085D01*
X182457068Y-79634085D02*
X182457068Y-79753133D01*
X182457068Y-79753133D02*
X182480878Y-79848371D01*
X182480878Y-79848371D02*
X182504687Y-79895990D01*
X182504687Y-79895990D02*
X182528497Y-79919800D01*
X182528497Y-79919800D02*
X182576116Y-79943609D01*
X182576116Y-79943609D02*
X182623735Y-79943609D01*
X182623735Y-79943609D02*
X182671354Y-79919800D01*
X182671354Y-79919800D02*
X182695163Y-79895990D01*
X182695163Y-79895990D02*
X182718973Y-79848371D01*
X182718973Y-79848371D02*
X182742782Y-79753133D01*
X182742782Y-79753133D02*
X182742782Y-79634085D01*
X182742782Y-79634085D02*
X182718973Y-79538847D01*
X182718973Y-79538847D02*
X182695163Y-79491228D01*
X182695163Y-79491228D02*
X182671354Y-79467419D01*
X182671354Y-79467419D02*
X182623735Y-79443609D01*
X183943258Y-82007419D02*
X183990877Y-81983609D01*
X183990877Y-81983609D02*
X184062306Y-81983609D01*
X184062306Y-81983609D02*
X184133734Y-82007419D01*
X184133734Y-82007419D02*
X184181353Y-82055038D01*
X184181353Y-82055038D02*
X184205163Y-82102657D01*
X184205163Y-82102657D02*
X184228972Y-82197895D01*
X184228972Y-82197895D02*
X184228972Y-82269323D01*
X184228972Y-82269323D02*
X184205163Y-82364561D01*
X184205163Y-82364561D02*
X184181353Y-82412180D01*
X184181353Y-82412180D02*
X184133734Y-82459800D01*
X184133734Y-82459800D02*
X184062306Y-82483609D01*
X184062306Y-82483609D02*
X184014687Y-82483609D01*
X184014687Y-82483609D02*
X183943258Y-82459800D01*
X183943258Y-82459800D02*
X183919449Y-82435990D01*
X183919449Y-82435990D02*
X183919449Y-82269323D01*
X183919449Y-82269323D02*
X184014687Y-82269323D01*
X183705163Y-82483609D02*
X183705163Y-81983609D01*
X183705163Y-81983609D02*
X183514687Y-81983609D01*
X183514687Y-81983609D02*
X183467068Y-82007419D01*
X183467068Y-82007419D02*
X183443258Y-82031228D01*
X183443258Y-82031228D02*
X183419449Y-82078847D01*
X183419449Y-82078847D02*
X183419449Y-82150276D01*
X183419449Y-82150276D02*
X183443258Y-82197895D01*
X183443258Y-82197895D02*
X183467068Y-82221704D01*
X183467068Y-82221704D02*
X183514687Y-82245514D01*
X183514687Y-82245514D02*
X183705163Y-82245514D01*
X182943258Y-82483609D02*
X183228972Y-82483609D01*
X183086115Y-82483609D02*
X183086115Y-81983609D01*
X183086115Y-81983609D02*
X183133734Y-82055038D01*
X183133734Y-82055038D02*
X183181353Y-82102657D01*
X183181353Y-82102657D02*
X183228972Y-82126466D01*
X182467068Y-82483609D02*
X182752782Y-82483609D01*
X182609925Y-82483609D02*
X182609925Y-81983609D01*
X182609925Y-81983609D02*
X182657544Y-82055038D01*
X182657544Y-82055038D02*
X182705163Y-82102657D01*
X182705163Y-82102657D02*
X182752782Y-82126466D01*
X194327419Y-94306741D02*
X194303609Y-94259122D01*
X194303609Y-94259122D02*
X194303609Y-94187693D01*
X194303609Y-94187693D02*
X194327419Y-94116265D01*
X194327419Y-94116265D02*
X194375038Y-94068646D01*
X194375038Y-94068646D02*
X194422657Y-94044836D01*
X194422657Y-94044836D02*
X194517895Y-94021027D01*
X194517895Y-94021027D02*
X194589323Y-94021027D01*
X194589323Y-94021027D02*
X194684561Y-94044836D01*
X194684561Y-94044836D02*
X194732180Y-94068646D01*
X194732180Y-94068646D02*
X194779800Y-94116265D01*
X194779800Y-94116265D02*
X194803609Y-94187693D01*
X194803609Y-94187693D02*
X194803609Y-94235312D01*
X194803609Y-94235312D02*
X194779800Y-94306741D01*
X194779800Y-94306741D02*
X194755990Y-94330550D01*
X194755990Y-94330550D02*
X194589323Y-94330550D01*
X194589323Y-94330550D02*
X194589323Y-94235312D01*
X194803609Y-94544836D02*
X194303609Y-94544836D01*
X194303609Y-94544836D02*
X194303609Y-94735312D01*
X194303609Y-94735312D02*
X194327419Y-94782931D01*
X194327419Y-94782931D02*
X194351228Y-94806741D01*
X194351228Y-94806741D02*
X194398847Y-94830550D01*
X194398847Y-94830550D02*
X194470276Y-94830550D01*
X194470276Y-94830550D02*
X194517895Y-94806741D01*
X194517895Y-94806741D02*
X194541704Y-94782931D01*
X194541704Y-94782931D02*
X194565514Y-94735312D01*
X194565514Y-94735312D02*
X194565514Y-94544836D01*
X194803609Y-95306741D02*
X194803609Y-95021027D01*
X194803609Y-95163884D02*
X194303609Y-95163884D01*
X194303609Y-95163884D02*
X194375038Y-95116265D01*
X194375038Y-95116265D02*
X194422657Y-95068646D01*
X194422657Y-95068646D02*
X194446466Y-95021027D01*
X194303609Y-95735312D02*
X194303609Y-95640074D01*
X194303609Y-95640074D02*
X194327419Y-95592455D01*
X194327419Y-95592455D02*
X194351228Y-95568645D01*
X194351228Y-95568645D02*
X194422657Y-95521026D01*
X194422657Y-95521026D02*
X194517895Y-95497217D01*
X194517895Y-95497217D02*
X194708371Y-95497217D01*
X194708371Y-95497217D02*
X194755990Y-95521026D01*
X194755990Y-95521026D02*
X194779800Y-95544836D01*
X194779800Y-95544836D02*
X194803609Y-95592455D01*
X194803609Y-95592455D02*
X194803609Y-95687693D01*
X194803609Y-95687693D02*
X194779800Y-95735312D01*
X194779800Y-95735312D02*
X194755990Y-95759121D01*
X194755990Y-95759121D02*
X194708371Y-95782931D01*
X194708371Y-95782931D02*
X194589323Y-95782931D01*
X194589323Y-95782931D02*
X194541704Y-95759121D01*
X194541704Y-95759121D02*
X194517895Y-95735312D01*
X194517895Y-95735312D02*
X194494085Y-95687693D01*
X194494085Y-95687693D02*
X194494085Y-95592455D01*
X194494085Y-95592455D02*
X194517895Y-95544836D01*
X194517895Y-95544836D02*
X194541704Y-95521026D01*
X194541704Y-95521026D02*
X194589323Y-95497217D01*
X197053258Y-91897419D02*
X197100877Y-91873609D01*
X197100877Y-91873609D02*
X197172306Y-91873609D01*
X197172306Y-91873609D02*
X197243734Y-91897419D01*
X197243734Y-91897419D02*
X197291353Y-91945038D01*
X197291353Y-91945038D02*
X197315163Y-91992657D01*
X197315163Y-91992657D02*
X197338972Y-92087895D01*
X197338972Y-92087895D02*
X197338972Y-92159323D01*
X197338972Y-92159323D02*
X197315163Y-92254561D01*
X197315163Y-92254561D02*
X197291353Y-92302180D01*
X197291353Y-92302180D02*
X197243734Y-92349800D01*
X197243734Y-92349800D02*
X197172306Y-92373609D01*
X197172306Y-92373609D02*
X197124687Y-92373609D01*
X197124687Y-92373609D02*
X197053258Y-92349800D01*
X197053258Y-92349800D02*
X197029449Y-92325990D01*
X197029449Y-92325990D02*
X197029449Y-92159323D01*
X197029449Y-92159323D02*
X197124687Y-92159323D01*
X196815163Y-92373609D02*
X196815163Y-91873609D01*
X196815163Y-91873609D02*
X196624687Y-91873609D01*
X196624687Y-91873609D02*
X196577068Y-91897419D01*
X196577068Y-91897419D02*
X196553258Y-91921228D01*
X196553258Y-91921228D02*
X196529449Y-91968847D01*
X196529449Y-91968847D02*
X196529449Y-92040276D01*
X196529449Y-92040276D02*
X196553258Y-92087895D01*
X196553258Y-92087895D02*
X196577068Y-92111704D01*
X196577068Y-92111704D02*
X196624687Y-92135514D01*
X196624687Y-92135514D02*
X196815163Y-92135514D01*
X196053258Y-92373609D02*
X196338972Y-92373609D01*
X196196115Y-92373609D02*
X196196115Y-91873609D01*
X196196115Y-91873609D02*
X196243734Y-91945038D01*
X196243734Y-91945038D02*
X196291353Y-91992657D01*
X196291353Y-91992657D02*
X196338972Y-92016466D01*
X195886592Y-91873609D02*
X195553259Y-91873609D01*
X195553259Y-91873609D02*
X195767544Y-92373609D01*
X197013258Y-89417419D02*
X197060877Y-89393609D01*
X197060877Y-89393609D02*
X197132306Y-89393609D01*
X197132306Y-89393609D02*
X197203734Y-89417419D01*
X197203734Y-89417419D02*
X197251353Y-89465038D01*
X197251353Y-89465038D02*
X197275163Y-89512657D01*
X197275163Y-89512657D02*
X197298972Y-89607895D01*
X197298972Y-89607895D02*
X197298972Y-89679323D01*
X197298972Y-89679323D02*
X197275163Y-89774561D01*
X197275163Y-89774561D02*
X197251353Y-89822180D01*
X197251353Y-89822180D02*
X197203734Y-89869800D01*
X197203734Y-89869800D02*
X197132306Y-89893609D01*
X197132306Y-89893609D02*
X197084687Y-89893609D01*
X197084687Y-89893609D02*
X197013258Y-89869800D01*
X197013258Y-89869800D02*
X196989449Y-89845990D01*
X196989449Y-89845990D02*
X196989449Y-89679323D01*
X196989449Y-89679323D02*
X197084687Y-89679323D01*
X196775163Y-89893609D02*
X196775163Y-89393609D01*
X196775163Y-89393609D02*
X196489449Y-89893609D01*
X196489449Y-89893609D02*
X196489449Y-89393609D01*
X196251353Y-89893609D02*
X196251353Y-89393609D01*
X196251353Y-89393609D02*
X196132305Y-89393609D01*
X196132305Y-89393609D02*
X196060877Y-89417419D01*
X196060877Y-89417419D02*
X196013258Y-89465038D01*
X196013258Y-89465038D02*
X195989448Y-89512657D01*
X195989448Y-89512657D02*
X195965639Y-89607895D01*
X195965639Y-89607895D02*
X195965639Y-89679323D01*
X195965639Y-89679323D02*
X195989448Y-89774561D01*
X195989448Y-89774561D02*
X196013258Y-89822180D01*
X196013258Y-89822180D02*
X196060877Y-89869800D01*
X196060877Y-89869800D02*
X196132305Y-89893609D01*
X196132305Y-89893609D02*
X196251353Y-89893609D01*
X197013258Y-86817419D02*
X197060877Y-86793609D01*
X197060877Y-86793609D02*
X197132306Y-86793609D01*
X197132306Y-86793609D02*
X197203734Y-86817419D01*
X197203734Y-86817419D02*
X197251353Y-86865038D01*
X197251353Y-86865038D02*
X197275163Y-86912657D01*
X197275163Y-86912657D02*
X197298972Y-87007895D01*
X197298972Y-87007895D02*
X197298972Y-87079323D01*
X197298972Y-87079323D02*
X197275163Y-87174561D01*
X197275163Y-87174561D02*
X197251353Y-87222180D01*
X197251353Y-87222180D02*
X197203734Y-87269800D01*
X197203734Y-87269800D02*
X197132306Y-87293609D01*
X197132306Y-87293609D02*
X197084687Y-87293609D01*
X197084687Y-87293609D02*
X197013258Y-87269800D01*
X197013258Y-87269800D02*
X196989449Y-87245990D01*
X196989449Y-87245990D02*
X196989449Y-87079323D01*
X196989449Y-87079323D02*
X197084687Y-87079323D01*
X196775163Y-87293609D02*
X196775163Y-86793609D01*
X196775163Y-86793609D02*
X196584687Y-86793609D01*
X196584687Y-86793609D02*
X196537068Y-86817419D01*
X196537068Y-86817419D02*
X196513258Y-86841228D01*
X196513258Y-86841228D02*
X196489449Y-86888847D01*
X196489449Y-86888847D02*
X196489449Y-86960276D01*
X196489449Y-86960276D02*
X196513258Y-87007895D01*
X196513258Y-87007895D02*
X196537068Y-87031704D01*
X196537068Y-87031704D02*
X196584687Y-87055514D01*
X196584687Y-87055514D02*
X196775163Y-87055514D01*
X196013258Y-87293609D02*
X196298972Y-87293609D01*
X196156115Y-87293609D02*
X196156115Y-86793609D01*
X196156115Y-86793609D02*
X196203734Y-86865038D01*
X196203734Y-86865038D02*
X196251353Y-86912657D01*
X196251353Y-86912657D02*
X196298972Y-86936466D01*
X195727544Y-87007895D02*
X195775163Y-86984085D01*
X195775163Y-86984085D02*
X195798973Y-86960276D01*
X195798973Y-86960276D02*
X195822782Y-86912657D01*
X195822782Y-86912657D02*
X195822782Y-86888847D01*
X195822782Y-86888847D02*
X195798973Y-86841228D01*
X195798973Y-86841228D02*
X195775163Y-86817419D01*
X195775163Y-86817419D02*
X195727544Y-86793609D01*
X195727544Y-86793609D02*
X195632306Y-86793609D01*
X195632306Y-86793609D02*
X195584687Y-86817419D01*
X195584687Y-86817419D02*
X195560878Y-86841228D01*
X195560878Y-86841228D02*
X195537068Y-86888847D01*
X195537068Y-86888847D02*
X195537068Y-86912657D01*
X195537068Y-86912657D02*
X195560878Y-86960276D01*
X195560878Y-86960276D02*
X195584687Y-86984085D01*
X195584687Y-86984085D02*
X195632306Y-87007895D01*
X195632306Y-87007895D02*
X195727544Y-87007895D01*
X195727544Y-87007895D02*
X195775163Y-87031704D01*
X195775163Y-87031704D02*
X195798973Y-87055514D01*
X195798973Y-87055514D02*
X195822782Y-87103133D01*
X195822782Y-87103133D02*
X195822782Y-87198371D01*
X195822782Y-87198371D02*
X195798973Y-87245990D01*
X195798973Y-87245990D02*
X195775163Y-87269800D01*
X195775163Y-87269800D02*
X195727544Y-87293609D01*
X195727544Y-87293609D02*
X195632306Y-87293609D01*
X195632306Y-87293609D02*
X195584687Y-87269800D01*
X195584687Y-87269800D02*
X195560878Y-87245990D01*
X195560878Y-87245990D02*
X195537068Y-87198371D01*
X195537068Y-87198371D02*
X195537068Y-87103133D01*
X195537068Y-87103133D02*
X195560878Y-87055514D01*
X195560878Y-87055514D02*
X195584687Y-87031704D01*
X195584687Y-87031704D02*
X195632306Y-87007895D01*
X196863258Y-84247419D02*
X196910877Y-84223609D01*
X196910877Y-84223609D02*
X196982306Y-84223609D01*
X196982306Y-84223609D02*
X197053734Y-84247419D01*
X197053734Y-84247419D02*
X197101353Y-84295038D01*
X197101353Y-84295038D02*
X197125163Y-84342657D01*
X197125163Y-84342657D02*
X197148972Y-84437895D01*
X197148972Y-84437895D02*
X197148972Y-84509323D01*
X197148972Y-84509323D02*
X197125163Y-84604561D01*
X197125163Y-84604561D02*
X197101353Y-84652180D01*
X197101353Y-84652180D02*
X197053734Y-84699800D01*
X197053734Y-84699800D02*
X196982306Y-84723609D01*
X196982306Y-84723609D02*
X196934687Y-84723609D01*
X196934687Y-84723609D02*
X196863258Y-84699800D01*
X196863258Y-84699800D02*
X196839449Y-84675990D01*
X196839449Y-84675990D02*
X196839449Y-84509323D01*
X196839449Y-84509323D02*
X196934687Y-84509323D01*
X196625163Y-84723609D02*
X196625163Y-84223609D01*
X196625163Y-84223609D02*
X196434687Y-84223609D01*
X196434687Y-84223609D02*
X196387068Y-84247419D01*
X196387068Y-84247419D02*
X196363258Y-84271228D01*
X196363258Y-84271228D02*
X196339449Y-84318847D01*
X196339449Y-84318847D02*
X196339449Y-84390276D01*
X196339449Y-84390276D02*
X196363258Y-84437895D01*
X196363258Y-84437895D02*
X196387068Y-84461704D01*
X196387068Y-84461704D02*
X196434687Y-84485514D01*
X196434687Y-84485514D02*
X196625163Y-84485514D01*
X195863258Y-84723609D02*
X196148972Y-84723609D01*
X196006115Y-84723609D02*
X196006115Y-84223609D01*
X196006115Y-84223609D02*
X196053734Y-84295038D01*
X196053734Y-84295038D02*
X196101353Y-84342657D01*
X196101353Y-84342657D02*
X196148972Y-84366466D01*
X195625163Y-84723609D02*
X195529925Y-84723609D01*
X195529925Y-84723609D02*
X195482306Y-84699800D01*
X195482306Y-84699800D02*
X195458497Y-84675990D01*
X195458497Y-84675990D02*
X195410878Y-84604561D01*
X195410878Y-84604561D02*
X195387068Y-84509323D01*
X195387068Y-84509323D02*
X195387068Y-84318847D01*
X195387068Y-84318847D02*
X195410878Y-84271228D01*
X195410878Y-84271228D02*
X195434687Y-84247419D01*
X195434687Y-84247419D02*
X195482306Y-84223609D01*
X195482306Y-84223609D02*
X195577544Y-84223609D01*
X195577544Y-84223609D02*
X195625163Y-84247419D01*
X195625163Y-84247419D02*
X195648973Y-84271228D01*
X195648973Y-84271228D02*
X195672782Y-84318847D01*
X195672782Y-84318847D02*
X195672782Y-84437895D01*
X195672782Y-84437895D02*
X195648973Y-84485514D01*
X195648973Y-84485514D02*
X195625163Y-84509323D01*
X195625163Y-84509323D02*
X195577544Y-84533133D01*
X195577544Y-84533133D02*
X195482306Y-84533133D01*
X195482306Y-84533133D02*
X195434687Y-84509323D01*
X195434687Y-84509323D02*
X195410878Y-84485514D01*
X195410878Y-84485514D02*
X195387068Y-84437895D01*
X196963258Y-81807419D02*
X197010877Y-81783609D01*
X197010877Y-81783609D02*
X197082306Y-81783609D01*
X197082306Y-81783609D02*
X197153734Y-81807419D01*
X197153734Y-81807419D02*
X197201353Y-81855038D01*
X197201353Y-81855038D02*
X197225163Y-81902657D01*
X197225163Y-81902657D02*
X197248972Y-81997895D01*
X197248972Y-81997895D02*
X197248972Y-82069323D01*
X197248972Y-82069323D02*
X197225163Y-82164561D01*
X197225163Y-82164561D02*
X197201353Y-82212180D01*
X197201353Y-82212180D02*
X197153734Y-82259800D01*
X197153734Y-82259800D02*
X197082306Y-82283609D01*
X197082306Y-82283609D02*
X197034687Y-82283609D01*
X197034687Y-82283609D02*
X196963258Y-82259800D01*
X196963258Y-82259800D02*
X196939449Y-82235990D01*
X196939449Y-82235990D02*
X196939449Y-82069323D01*
X196939449Y-82069323D02*
X197034687Y-82069323D01*
X196725163Y-82283609D02*
X196725163Y-81783609D01*
X196725163Y-81783609D02*
X196534687Y-81783609D01*
X196534687Y-81783609D02*
X196487068Y-81807419D01*
X196487068Y-81807419D02*
X196463258Y-81831228D01*
X196463258Y-81831228D02*
X196439449Y-81878847D01*
X196439449Y-81878847D02*
X196439449Y-81950276D01*
X196439449Y-81950276D02*
X196463258Y-81997895D01*
X196463258Y-81997895D02*
X196487068Y-82021704D01*
X196487068Y-82021704D02*
X196534687Y-82045514D01*
X196534687Y-82045514D02*
X196725163Y-82045514D01*
X196248972Y-81831228D02*
X196225163Y-81807419D01*
X196225163Y-81807419D02*
X196177544Y-81783609D01*
X196177544Y-81783609D02*
X196058496Y-81783609D01*
X196058496Y-81783609D02*
X196010877Y-81807419D01*
X196010877Y-81807419D02*
X195987068Y-81831228D01*
X195987068Y-81831228D02*
X195963258Y-81878847D01*
X195963258Y-81878847D02*
X195963258Y-81926466D01*
X195963258Y-81926466D02*
X195987068Y-81997895D01*
X195987068Y-81997895D02*
X196272782Y-82283609D01*
X196272782Y-82283609D02*
X195963258Y-82283609D01*
X195653735Y-81783609D02*
X195606116Y-81783609D01*
X195606116Y-81783609D02*
X195558497Y-81807419D01*
X195558497Y-81807419D02*
X195534687Y-81831228D01*
X195534687Y-81831228D02*
X195510878Y-81878847D01*
X195510878Y-81878847D02*
X195487068Y-81974085D01*
X195487068Y-81974085D02*
X195487068Y-82093133D01*
X195487068Y-82093133D02*
X195510878Y-82188371D01*
X195510878Y-82188371D02*
X195534687Y-82235990D01*
X195534687Y-82235990D02*
X195558497Y-82259800D01*
X195558497Y-82259800D02*
X195606116Y-82283609D01*
X195606116Y-82283609D02*
X195653735Y-82283609D01*
X195653735Y-82283609D02*
X195701354Y-82259800D01*
X195701354Y-82259800D02*
X195725163Y-82235990D01*
X195725163Y-82235990D02*
X195748973Y-82188371D01*
X195748973Y-82188371D02*
X195772782Y-82093133D01*
X195772782Y-82093133D02*
X195772782Y-81974085D01*
X195772782Y-81974085D02*
X195748973Y-81878847D01*
X195748973Y-81878847D02*
X195725163Y-81831228D01*
X195725163Y-81831228D02*
X195701354Y-81807419D01*
X195701354Y-81807419D02*
X195653735Y-81783609D01*
X182647419Y-94226741D02*
X182623609Y-94179122D01*
X182623609Y-94179122D02*
X182623609Y-94107693D01*
X182623609Y-94107693D02*
X182647419Y-94036265D01*
X182647419Y-94036265D02*
X182695038Y-93988646D01*
X182695038Y-93988646D02*
X182742657Y-93964836D01*
X182742657Y-93964836D02*
X182837895Y-93941027D01*
X182837895Y-93941027D02*
X182909323Y-93941027D01*
X182909323Y-93941027D02*
X183004561Y-93964836D01*
X183004561Y-93964836D02*
X183052180Y-93988646D01*
X183052180Y-93988646D02*
X183099800Y-94036265D01*
X183099800Y-94036265D02*
X183123609Y-94107693D01*
X183123609Y-94107693D02*
X183123609Y-94155312D01*
X183123609Y-94155312D02*
X183099800Y-94226741D01*
X183099800Y-94226741D02*
X183075990Y-94250550D01*
X183075990Y-94250550D02*
X182909323Y-94250550D01*
X182909323Y-94250550D02*
X182909323Y-94155312D01*
X183123609Y-94464836D02*
X182623609Y-94464836D01*
X182623609Y-94464836D02*
X182623609Y-94655312D01*
X182623609Y-94655312D02*
X182647419Y-94702931D01*
X182647419Y-94702931D02*
X182671228Y-94726741D01*
X182671228Y-94726741D02*
X182718847Y-94750550D01*
X182718847Y-94750550D02*
X182790276Y-94750550D01*
X182790276Y-94750550D02*
X182837895Y-94726741D01*
X182837895Y-94726741D02*
X182861704Y-94702931D01*
X182861704Y-94702931D02*
X182885514Y-94655312D01*
X182885514Y-94655312D02*
X182885514Y-94464836D01*
X183123609Y-95226741D02*
X183123609Y-94941027D01*
X183123609Y-95083884D02*
X182623609Y-95083884D01*
X182623609Y-95083884D02*
X182695038Y-95036265D01*
X182695038Y-95036265D02*
X182742657Y-94988646D01*
X182742657Y-94988646D02*
X182766466Y-94941027D01*
X182623609Y-95679121D02*
X182623609Y-95441026D01*
X182623609Y-95441026D02*
X182861704Y-95417217D01*
X182861704Y-95417217D02*
X182837895Y-95441026D01*
X182837895Y-95441026D02*
X182814085Y-95488645D01*
X182814085Y-95488645D02*
X182814085Y-95607693D01*
X182814085Y-95607693D02*
X182837895Y-95655312D01*
X182837895Y-95655312D02*
X182861704Y-95679121D01*
X182861704Y-95679121D02*
X182909323Y-95702931D01*
X182909323Y-95702931D02*
X183028371Y-95702931D01*
X183028371Y-95702931D02*
X183075990Y-95679121D01*
X183075990Y-95679121D02*
X183099800Y-95655312D01*
X183099800Y-95655312D02*
X183123609Y-95607693D01*
X183123609Y-95607693D02*
X183123609Y-95488645D01*
X183123609Y-95488645D02*
X183099800Y-95441026D01*
X183099800Y-95441026D02*
X183075990Y-95417217D01*
X183973258Y-92187419D02*
X184020877Y-92163609D01*
X184020877Y-92163609D02*
X184092306Y-92163609D01*
X184092306Y-92163609D02*
X184163734Y-92187419D01*
X184163734Y-92187419D02*
X184211353Y-92235038D01*
X184211353Y-92235038D02*
X184235163Y-92282657D01*
X184235163Y-92282657D02*
X184258972Y-92377895D01*
X184258972Y-92377895D02*
X184258972Y-92449323D01*
X184258972Y-92449323D02*
X184235163Y-92544561D01*
X184235163Y-92544561D02*
X184211353Y-92592180D01*
X184211353Y-92592180D02*
X184163734Y-92639800D01*
X184163734Y-92639800D02*
X184092306Y-92663609D01*
X184092306Y-92663609D02*
X184044687Y-92663609D01*
X184044687Y-92663609D02*
X183973258Y-92639800D01*
X183973258Y-92639800D02*
X183949449Y-92615990D01*
X183949449Y-92615990D02*
X183949449Y-92449323D01*
X183949449Y-92449323D02*
X184044687Y-92449323D01*
X183735163Y-92663609D02*
X183735163Y-92163609D01*
X183735163Y-92163609D02*
X183544687Y-92163609D01*
X183544687Y-92163609D02*
X183497068Y-92187419D01*
X183497068Y-92187419D02*
X183473258Y-92211228D01*
X183473258Y-92211228D02*
X183449449Y-92258847D01*
X183449449Y-92258847D02*
X183449449Y-92330276D01*
X183449449Y-92330276D02*
X183473258Y-92377895D01*
X183473258Y-92377895D02*
X183497068Y-92401704D01*
X183497068Y-92401704D02*
X183544687Y-92425514D01*
X183544687Y-92425514D02*
X183735163Y-92425514D01*
X182973258Y-92663609D02*
X183258972Y-92663609D01*
X183116115Y-92663609D02*
X183116115Y-92163609D01*
X183116115Y-92163609D02*
X183163734Y-92235038D01*
X183163734Y-92235038D02*
X183211353Y-92282657D01*
X183211353Y-92282657D02*
X183258972Y-92306466D01*
X182544687Y-92330276D02*
X182544687Y-92663609D01*
X182663735Y-92139800D02*
X182782782Y-92496942D01*
X182782782Y-92496942D02*
X182473259Y-92496942D01*
X184103258Y-89517419D02*
X184150877Y-89493609D01*
X184150877Y-89493609D02*
X184222306Y-89493609D01*
X184222306Y-89493609D02*
X184293734Y-89517419D01*
X184293734Y-89517419D02*
X184341353Y-89565038D01*
X184341353Y-89565038D02*
X184365163Y-89612657D01*
X184365163Y-89612657D02*
X184388972Y-89707895D01*
X184388972Y-89707895D02*
X184388972Y-89779323D01*
X184388972Y-89779323D02*
X184365163Y-89874561D01*
X184365163Y-89874561D02*
X184341353Y-89922180D01*
X184341353Y-89922180D02*
X184293734Y-89969800D01*
X184293734Y-89969800D02*
X184222306Y-89993609D01*
X184222306Y-89993609D02*
X184174687Y-89993609D01*
X184174687Y-89993609D02*
X184103258Y-89969800D01*
X184103258Y-89969800D02*
X184079449Y-89945990D01*
X184079449Y-89945990D02*
X184079449Y-89779323D01*
X184079449Y-89779323D02*
X184174687Y-89779323D01*
X183865163Y-89993609D02*
X183865163Y-89493609D01*
X183865163Y-89493609D02*
X183579449Y-89993609D01*
X183579449Y-89993609D02*
X183579449Y-89493609D01*
X183341353Y-89993609D02*
X183341353Y-89493609D01*
X183341353Y-89493609D02*
X183222305Y-89493609D01*
X183222305Y-89493609D02*
X183150877Y-89517419D01*
X183150877Y-89517419D02*
X183103258Y-89565038D01*
X183103258Y-89565038D02*
X183079448Y-89612657D01*
X183079448Y-89612657D02*
X183055639Y-89707895D01*
X183055639Y-89707895D02*
X183055639Y-89779323D01*
X183055639Y-89779323D02*
X183079448Y-89874561D01*
X183079448Y-89874561D02*
X183103258Y-89922180D01*
X183103258Y-89922180D02*
X183150877Y-89969800D01*
X183150877Y-89969800D02*
X183222305Y-89993609D01*
X183222305Y-89993609D02*
X183341353Y-89993609D01*
X184083258Y-86857419D02*
X184130877Y-86833609D01*
X184130877Y-86833609D02*
X184202306Y-86833609D01*
X184202306Y-86833609D02*
X184273734Y-86857419D01*
X184273734Y-86857419D02*
X184321353Y-86905038D01*
X184321353Y-86905038D02*
X184345163Y-86952657D01*
X184345163Y-86952657D02*
X184368972Y-87047895D01*
X184368972Y-87047895D02*
X184368972Y-87119323D01*
X184368972Y-87119323D02*
X184345163Y-87214561D01*
X184345163Y-87214561D02*
X184321353Y-87262180D01*
X184321353Y-87262180D02*
X184273734Y-87309800D01*
X184273734Y-87309800D02*
X184202306Y-87333609D01*
X184202306Y-87333609D02*
X184154687Y-87333609D01*
X184154687Y-87333609D02*
X184083258Y-87309800D01*
X184083258Y-87309800D02*
X184059449Y-87285990D01*
X184059449Y-87285990D02*
X184059449Y-87119323D01*
X184059449Y-87119323D02*
X184154687Y-87119323D01*
X183845163Y-87333609D02*
X183845163Y-86833609D01*
X183845163Y-86833609D02*
X183654687Y-86833609D01*
X183654687Y-86833609D02*
X183607068Y-86857419D01*
X183607068Y-86857419D02*
X183583258Y-86881228D01*
X183583258Y-86881228D02*
X183559449Y-86928847D01*
X183559449Y-86928847D02*
X183559449Y-87000276D01*
X183559449Y-87000276D02*
X183583258Y-87047895D01*
X183583258Y-87047895D02*
X183607068Y-87071704D01*
X183607068Y-87071704D02*
X183654687Y-87095514D01*
X183654687Y-87095514D02*
X183845163Y-87095514D01*
X183083258Y-87333609D02*
X183368972Y-87333609D01*
X183226115Y-87333609D02*
X183226115Y-86833609D01*
X183226115Y-86833609D02*
X183273734Y-86905038D01*
X183273734Y-86905038D02*
X183321353Y-86952657D01*
X183321353Y-86952657D02*
X183368972Y-86976466D01*
X182916592Y-86833609D02*
X182607068Y-86833609D01*
X182607068Y-86833609D02*
X182773735Y-87024085D01*
X182773735Y-87024085D02*
X182702306Y-87024085D01*
X182702306Y-87024085D02*
X182654687Y-87047895D01*
X182654687Y-87047895D02*
X182630878Y-87071704D01*
X182630878Y-87071704D02*
X182607068Y-87119323D01*
X182607068Y-87119323D02*
X182607068Y-87238371D01*
X182607068Y-87238371D02*
X182630878Y-87285990D01*
X182630878Y-87285990D02*
X182654687Y-87309800D01*
X182654687Y-87309800D02*
X182702306Y-87333609D01*
X182702306Y-87333609D02*
X182845163Y-87333609D01*
X182845163Y-87333609D02*
X182892782Y-87309800D01*
X182892782Y-87309800D02*
X182916592Y-87285990D01*
X184103258Y-84377419D02*
X184150877Y-84353609D01*
X184150877Y-84353609D02*
X184222306Y-84353609D01*
X184222306Y-84353609D02*
X184293734Y-84377419D01*
X184293734Y-84377419D02*
X184341353Y-84425038D01*
X184341353Y-84425038D02*
X184365163Y-84472657D01*
X184365163Y-84472657D02*
X184388972Y-84567895D01*
X184388972Y-84567895D02*
X184388972Y-84639323D01*
X184388972Y-84639323D02*
X184365163Y-84734561D01*
X184365163Y-84734561D02*
X184341353Y-84782180D01*
X184341353Y-84782180D02*
X184293734Y-84829800D01*
X184293734Y-84829800D02*
X184222306Y-84853609D01*
X184222306Y-84853609D02*
X184174687Y-84853609D01*
X184174687Y-84853609D02*
X184103258Y-84829800D01*
X184103258Y-84829800D02*
X184079449Y-84805990D01*
X184079449Y-84805990D02*
X184079449Y-84639323D01*
X184079449Y-84639323D02*
X184174687Y-84639323D01*
X183865163Y-84853609D02*
X183865163Y-84353609D01*
X183865163Y-84353609D02*
X183674687Y-84353609D01*
X183674687Y-84353609D02*
X183627068Y-84377419D01*
X183627068Y-84377419D02*
X183603258Y-84401228D01*
X183603258Y-84401228D02*
X183579449Y-84448847D01*
X183579449Y-84448847D02*
X183579449Y-84520276D01*
X183579449Y-84520276D02*
X183603258Y-84567895D01*
X183603258Y-84567895D02*
X183627068Y-84591704D01*
X183627068Y-84591704D02*
X183674687Y-84615514D01*
X183674687Y-84615514D02*
X183865163Y-84615514D01*
X183103258Y-84853609D02*
X183388972Y-84853609D01*
X183246115Y-84853609D02*
X183246115Y-84353609D01*
X183246115Y-84353609D02*
X183293734Y-84425038D01*
X183293734Y-84425038D02*
X183341353Y-84472657D01*
X183341353Y-84472657D02*
X183388972Y-84496466D01*
X182912782Y-84401228D02*
X182888973Y-84377419D01*
X182888973Y-84377419D02*
X182841354Y-84353609D01*
X182841354Y-84353609D02*
X182722306Y-84353609D01*
X182722306Y-84353609D02*
X182674687Y-84377419D01*
X182674687Y-84377419D02*
X182650878Y-84401228D01*
X182650878Y-84401228D02*
X182627068Y-84448847D01*
X182627068Y-84448847D02*
X182627068Y-84496466D01*
X182627068Y-84496466D02*
X182650878Y-84567895D01*
X182650878Y-84567895D02*
X182936592Y-84853609D01*
X182936592Y-84853609D02*
X182627068Y-84853609D01*
X197053258Y-79057419D02*
X197100877Y-79033609D01*
X197100877Y-79033609D02*
X197172306Y-79033609D01*
X197172306Y-79033609D02*
X197243734Y-79057419D01*
X197243734Y-79057419D02*
X197291353Y-79105038D01*
X197291353Y-79105038D02*
X197315163Y-79152657D01*
X197315163Y-79152657D02*
X197338972Y-79247895D01*
X197338972Y-79247895D02*
X197338972Y-79319323D01*
X197338972Y-79319323D02*
X197315163Y-79414561D01*
X197315163Y-79414561D02*
X197291353Y-79462180D01*
X197291353Y-79462180D02*
X197243734Y-79509800D01*
X197243734Y-79509800D02*
X197172306Y-79533609D01*
X197172306Y-79533609D02*
X197124687Y-79533609D01*
X197124687Y-79533609D02*
X197053258Y-79509800D01*
X197053258Y-79509800D02*
X197029449Y-79485990D01*
X197029449Y-79485990D02*
X197029449Y-79319323D01*
X197029449Y-79319323D02*
X197124687Y-79319323D01*
X196815163Y-79533609D02*
X196815163Y-79033609D01*
X196815163Y-79033609D02*
X196624687Y-79033609D01*
X196624687Y-79033609D02*
X196577068Y-79057419D01*
X196577068Y-79057419D02*
X196553258Y-79081228D01*
X196553258Y-79081228D02*
X196529449Y-79128847D01*
X196529449Y-79128847D02*
X196529449Y-79200276D01*
X196529449Y-79200276D02*
X196553258Y-79247895D01*
X196553258Y-79247895D02*
X196577068Y-79271704D01*
X196577068Y-79271704D02*
X196624687Y-79295514D01*
X196624687Y-79295514D02*
X196815163Y-79295514D01*
X196338972Y-79081228D02*
X196315163Y-79057419D01*
X196315163Y-79057419D02*
X196267544Y-79033609D01*
X196267544Y-79033609D02*
X196148496Y-79033609D01*
X196148496Y-79033609D02*
X196100877Y-79057419D01*
X196100877Y-79057419D02*
X196077068Y-79081228D01*
X196077068Y-79081228D02*
X196053258Y-79128847D01*
X196053258Y-79128847D02*
X196053258Y-79176466D01*
X196053258Y-79176466D02*
X196077068Y-79247895D01*
X196077068Y-79247895D02*
X196362782Y-79533609D01*
X196362782Y-79533609D02*
X196053258Y-79533609D01*
X195577068Y-79533609D02*
X195862782Y-79533609D01*
X195719925Y-79533609D02*
X195719925Y-79033609D01*
X195719925Y-79033609D02*
X195767544Y-79105038D01*
X195767544Y-79105038D02*
X195815163Y-79152657D01*
X195815163Y-79152657D02*
X195862782Y-79176466D01*
X197053258Y-76787419D02*
X197100877Y-76763609D01*
X197100877Y-76763609D02*
X197172306Y-76763609D01*
X197172306Y-76763609D02*
X197243734Y-76787419D01*
X197243734Y-76787419D02*
X197291353Y-76835038D01*
X197291353Y-76835038D02*
X197315163Y-76882657D01*
X197315163Y-76882657D02*
X197338972Y-76977895D01*
X197338972Y-76977895D02*
X197338972Y-77049323D01*
X197338972Y-77049323D02*
X197315163Y-77144561D01*
X197315163Y-77144561D02*
X197291353Y-77192180D01*
X197291353Y-77192180D02*
X197243734Y-77239800D01*
X197243734Y-77239800D02*
X197172306Y-77263609D01*
X197172306Y-77263609D02*
X197124687Y-77263609D01*
X197124687Y-77263609D02*
X197053258Y-77239800D01*
X197053258Y-77239800D02*
X197029449Y-77215990D01*
X197029449Y-77215990D02*
X197029449Y-77049323D01*
X197029449Y-77049323D02*
X197124687Y-77049323D01*
X196815163Y-77263609D02*
X196815163Y-76763609D01*
X196815163Y-76763609D02*
X196529449Y-77263609D01*
X196529449Y-77263609D02*
X196529449Y-76763609D01*
X196291353Y-77263609D02*
X196291353Y-76763609D01*
X196291353Y-76763609D02*
X196172305Y-76763609D01*
X196172305Y-76763609D02*
X196100877Y-76787419D01*
X196100877Y-76787419D02*
X196053258Y-76835038D01*
X196053258Y-76835038D02*
X196029448Y-76882657D01*
X196029448Y-76882657D02*
X196005639Y-76977895D01*
X196005639Y-76977895D02*
X196005639Y-77049323D01*
X196005639Y-77049323D02*
X196029448Y-77144561D01*
X196029448Y-77144561D02*
X196053258Y-77192180D01*
X196053258Y-77192180D02*
X196100877Y-77239800D01*
X196100877Y-77239800D02*
X196172305Y-77263609D01*
X196172305Y-77263609D02*
X196291353Y-77263609D01*
X197043258Y-74347419D02*
X197090877Y-74323609D01*
X197090877Y-74323609D02*
X197162306Y-74323609D01*
X197162306Y-74323609D02*
X197233734Y-74347419D01*
X197233734Y-74347419D02*
X197281353Y-74395038D01*
X197281353Y-74395038D02*
X197305163Y-74442657D01*
X197305163Y-74442657D02*
X197328972Y-74537895D01*
X197328972Y-74537895D02*
X197328972Y-74609323D01*
X197328972Y-74609323D02*
X197305163Y-74704561D01*
X197305163Y-74704561D02*
X197281353Y-74752180D01*
X197281353Y-74752180D02*
X197233734Y-74799800D01*
X197233734Y-74799800D02*
X197162306Y-74823609D01*
X197162306Y-74823609D02*
X197114687Y-74823609D01*
X197114687Y-74823609D02*
X197043258Y-74799800D01*
X197043258Y-74799800D02*
X197019449Y-74775990D01*
X197019449Y-74775990D02*
X197019449Y-74609323D01*
X197019449Y-74609323D02*
X197114687Y-74609323D01*
X196805163Y-74823609D02*
X196805163Y-74323609D01*
X196805163Y-74323609D02*
X196614687Y-74323609D01*
X196614687Y-74323609D02*
X196567068Y-74347419D01*
X196567068Y-74347419D02*
X196543258Y-74371228D01*
X196543258Y-74371228D02*
X196519449Y-74418847D01*
X196519449Y-74418847D02*
X196519449Y-74490276D01*
X196519449Y-74490276D02*
X196543258Y-74537895D01*
X196543258Y-74537895D02*
X196567068Y-74561704D01*
X196567068Y-74561704D02*
X196614687Y-74585514D01*
X196614687Y-74585514D02*
X196805163Y-74585514D01*
X196328972Y-74371228D02*
X196305163Y-74347419D01*
X196305163Y-74347419D02*
X196257544Y-74323609D01*
X196257544Y-74323609D02*
X196138496Y-74323609D01*
X196138496Y-74323609D02*
X196090877Y-74347419D01*
X196090877Y-74347419D02*
X196067068Y-74371228D01*
X196067068Y-74371228D02*
X196043258Y-74418847D01*
X196043258Y-74418847D02*
X196043258Y-74466466D01*
X196043258Y-74466466D02*
X196067068Y-74537895D01*
X196067068Y-74537895D02*
X196352782Y-74823609D01*
X196352782Y-74823609D02*
X196043258Y-74823609D01*
X195852782Y-74371228D02*
X195828973Y-74347419D01*
X195828973Y-74347419D02*
X195781354Y-74323609D01*
X195781354Y-74323609D02*
X195662306Y-74323609D01*
X195662306Y-74323609D02*
X195614687Y-74347419D01*
X195614687Y-74347419D02*
X195590878Y-74371228D01*
X195590878Y-74371228D02*
X195567068Y-74418847D01*
X195567068Y-74418847D02*
X195567068Y-74466466D01*
X195567068Y-74466466D02*
X195590878Y-74537895D01*
X195590878Y-74537895D02*
X195876592Y-74823609D01*
X195876592Y-74823609D02*
X195567068Y-74823609D01*
X197069449Y-72373609D02*
X197236115Y-72135514D01*
X197355163Y-72373609D02*
X197355163Y-71873609D01*
X197355163Y-71873609D02*
X197164687Y-71873609D01*
X197164687Y-71873609D02*
X197117068Y-71897419D01*
X197117068Y-71897419D02*
X197093258Y-71921228D01*
X197093258Y-71921228D02*
X197069449Y-71968847D01*
X197069449Y-71968847D02*
X197069449Y-72040276D01*
X197069449Y-72040276D02*
X197093258Y-72087895D01*
X197093258Y-72087895D02*
X197117068Y-72111704D01*
X197117068Y-72111704D02*
X197164687Y-72135514D01*
X197164687Y-72135514D02*
X197355163Y-72135514D01*
X196855163Y-71873609D02*
X196855163Y-72278371D01*
X196855163Y-72278371D02*
X196831353Y-72325990D01*
X196831353Y-72325990D02*
X196807544Y-72349800D01*
X196807544Y-72349800D02*
X196759925Y-72373609D01*
X196759925Y-72373609D02*
X196664687Y-72373609D01*
X196664687Y-72373609D02*
X196617068Y-72349800D01*
X196617068Y-72349800D02*
X196593258Y-72325990D01*
X196593258Y-72325990D02*
X196569449Y-72278371D01*
X196569449Y-72278371D02*
X196569449Y-71873609D01*
X196331353Y-72373609D02*
X196331353Y-71873609D01*
X196331353Y-71873609D02*
X196045639Y-72373609D01*
X196045639Y-72373609D02*
X196045639Y-71873609D01*
X197003258Y-69327419D02*
X197050877Y-69303609D01*
X197050877Y-69303609D02*
X197122306Y-69303609D01*
X197122306Y-69303609D02*
X197193734Y-69327419D01*
X197193734Y-69327419D02*
X197241353Y-69375038D01*
X197241353Y-69375038D02*
X197265163Y-69422657D01*
X197265163Y-69422657D02*
X197288972Y-69517895D01*
X197288972Y-69517895D02*
X197288972Y-69589323D01*
X197288972Y-69589323D02*
X197265163Y-69684561D01*
X197265163Y-69684561D02*
X197241353Y-69732180D01*
X197241353Y-69732180D02*
X197193734Y-69779800D01*
X197193734Y-69779800D02*
X197122306Y-69803609D01*
X197122306Y-69803609D02*
X197074687Y-69803609D01*
X197074687Y-69803609D02*
X197003258Y-69779800D01*
X197003258Y-69779800D02*
X196979449Y-69755990D01*
X196979449Y-69755990D02*
X196979449Y-69589323D01*
X196979449Y-69589323D02*
X197074687Y-69589323D01*
X196765163Y-69803609D02*
X196765163Y-69303609D01*
X196765163Y-69303609D02*
X196574687Y-69303609D01*
X196574687Y-69303609D02*
X196527068Y-69327419D01*
X196527068Y-69327419D02*
X196503258Y-69351228D01*
X196503258Y-69351228D02*
X196479449Y-69398847D01*
X196479449Y-69398847D02*
X196479449Y-69470276D01*
X196479449Y-69470276D02*
X196503258Y-69517895D01*
X196503258Y-69517895D02*
X196527068Y-69541704D01*
X196527068Y-69541704D02*
X196574687Y-69565514D01*
X196574687Y-69565514D02*
X196765163Y-69565514D01*
X196288972Y-69351228D02*
X196265163Y-69327419D01*
X196265163Y-69327419D02*
X196217544Y-69303609D01*
X196217544Y-69303609D02*
X196098496Y-69303609D01*
X196098496Y-69303609D02*
X196050877Y-69327419D01*
X196050877Y-69327419D02*
X196027068Y-69351228D01*
X196027068Y-69351228D02*
X196003258Y-69398847D01*
X196003258Y-69398847D02*
X196003258Y-69446466D01*
X196003258Y-69446466D02*
X196027068Y-69517895D01*
X196027068Y-69517895D02*
X196312782Y-69803609D01*
X196312782Y-69803609D02*
X196003258Y-69803609D01*
X195574687Y-69303609D02*
X195669925Y-69303609D01*
X195669925Y-69303609D02*
X195717544Y-69327419D01*
X195717544Y-69327419D02*
X195741354Y-69351228D01*
X195741354Y-69351228D02*
X195788973Y-69422657D01*
X195788973Y-69422657D02*
X195812782Y-69517895D01*
X195812782Y-69517895D02*
X195812782Y-69708371D01*
X195812782Y-69708371D02*
X195788973Y-69755990D01*
X195788973Y-69755990D02*
X195765163Y-69779800D01*
X195765163Y-69779800D02*
X195717544Y-69803609D01*
X195717544Y-69803609D02*
X195622306Y-69803609D01*
X195622306Y-69803609D02*
X195574687Y-69779800D01*
X195574687Y-69779800D02*
X195550878Y-69755990D01*
X195550878Y-69755990D02*
X195527068Y-69708371D01*
X195527068Y-69708371D02*
X195527068Y-69589323D01*
X195527068Y-69589323D02*
X195550878Y-69541704D01*
X195550878Y-69541704D02*
X195574687Y-69517895D01*
X195574687Y-69517895D02*
X195622306Y-69494085D01*
X195622306Y-69494085D02*
X195717544Y-69494085D01*
X195717544Y-69494085D02*
X195765163Y-69517895D01*
X195765163Y-69517895D02*
X195788973Y-69541704D01*
X195788973Y-69541704D02*
X195812782Y-69589323D01*
X195431831Y-69851228D02*
X195050878Y-69851228D01*
X194955640Y-69660752D02*
X194717545Y-69660752D01*
X195003259Y-69803609D02*
X194836593Y-69303609D01*
X194836593Y-69303609D02*
X194669926Y-69803609D01*
X194408022Y-69303609D02*
X194360403Y-69303609D01*
X194360403Y-69303609D02*
X194312784Y-69327419D01*
X194312784Y-69327419D02*
X194288974Y-69351228D01*
X194288974Y-69351228D02*
X194265165Y-69398847D01*
X194265165Y-69398847D02*
X194241355Y-69494085D01*
X194241355Y-69494085D02*
X194241355Y-69613133D01*
X194241355Y-69613133D02*
X194265165Y-69708371D01*
X194265165Y-69708371D02*
X194288974Y-69755990D01*
X194288974Y-69755990D02*
X194312784Y-69779800D01*
X194312784Y-69779800D02*
X194360403Y-69803609D01*
X194360403Y-69803609D02*
X194408022Y-69803609D01*
X194408022Y-69803609D02*
X194455641Y-69779800D01*
X194455641Y-69779800D02*
X194479450Y-69755990D01*
X194479450Y-69755990D02*
X194503260Y-69708371D01*
X194503260Y-69708371D02*
X194527069Y-69613133D01*
X194527069Y-69613133D02*
X194527069Y-69494085D01*
X194527069Y-69494085D02*
X194503260Y-69398847D01*
X194503260Y-69398847D02*
X194479450Y-69351228D01*
X194479450Y-69351228D02*
X194455641Y-69327419D01*
X194455641Y-69327419D02*
X194408022Y-69303609D01*
X197003258Y-66797419D02*
X197050877Y-66773609D01*
X197050877Y-66773609D02*
X197122306Y-66773609D01*
X197122306Y-66773609D02*
X197193734Y-66797419D01*
X197193734Y-66797419D02*
X197241353Y-66845038D01*
X197241353Y-66845038D02*
X197265163Y-66892657D01*
X197265163Y-66892657D02*
X197288972Y-66987895D01*
X197288972Y-66987895D02*
X197288972Y-67059323D01*
X197288972Y-67059323D02*
X197265163Y-67154561D01*
X197265163Y-67154561D02*
X197241353Y-67202180D01*
X197241353Y-67202180D02*
X197193734Y-67249800D01*
X197193734Y-67249800D02*
X197122306Y-67273609D01*
X197122306Y-67273609D02*
X197074687Y-67273609D01*
X197074687Y-67273609D02*
X197003258Y-67249800D01*
X197003258Y-67249800D02*
X196979449Y-67225990D01*
X196979449Y-67225990D02*
X196979449Y-67059323D01*
X196979449Y-67059323D02*
X197074687Y-67059323D01*
X196765163Y-67273609D02*
X196765163Y-66773609D01*
X196765163Y-66773609D02*
X196574687Y-66773609D01*
X196574687Y-66773609D02*
X196527068Y-66797419D01*
X196527068Y-66797419D02*
X196503258Y-66821228D01*
X196503258Y-66821228D02*
X196479449Y-66868847D01*
X196479449Y-66868847D02*
X196479449Y-66940276D01*
X196479449Y-66940276D02*
X196503258Y-66987895D01*
X196503258Y-66987895D02*
X196527068Y-67011704D01*
X196527068Y-67011704D02*
X196574687Y-67035514D01*
X196574687Y-67035514D02*
X196765163Y-67035514D01*
X196288972Y-66821228D02*
X196265163Y-66797419D01*
X196265163Y-66797419D02*
X196217544Y-66773609D01*
X196217544Y-66773609D02*
X196098496Y-66773609D01*
X196098496Y-66773609D02*
X196050877Y-66797419D01*
X196050877Y-66797419D02*
X196027068Y-66821228D01*
X196027068Y-66821228D02*
X196003258Y-66868847D01*
X196003258Y-66868847D02*
X196003258Y-66916466D01*
X196003258Y-66916466D02*
X196027068Y-66987895D01*
X196027068Y-66987895D02*
X196312782Y-67273609D01*
X196312782Y-67273609D02*
X196003258Y-67273609D01*
X195836592Y-66773609D02*
X195503259Y-66773609D01*
X195503259Y-66773609D02*
X195717544Y-67273609D01*
X195431831Y-67321228D02*
X195050878Y-67321228D01*
X194955640Y-67130752D02*
X194717545Y-67130752D01*
X195003259Y-67273609D02*
X194836593Y-66773609D01*
X194836593Y-66773609D02*
X194669926Y-67273609D01*
X194241355Y-67273609D02*
X194527069Y-67273609D01*
X194384212Y-67273609D02*
X194384212Y-66773609D01*
X194384212Y-66773609D02*
X194431831Y-66845038D01*
X194431831Y-66845038D02*
X194479450Y-66892657D01*
X194479450Y-66892657D02*
X194527069Y-66916466D01*
X197288972Y-64350752D02*
X197050877Y-64350752D01*
X197336591Y-64493609D02*
X197169925Y-63993609D01*
X197169925Y-63993609D02*
X197003258Y-64493609D01*
X196574687Y-64017419D02*
X196622306Y-63993609D01*
X196622306Y-63993609D02*
X196693735Y-63993609D01*
X196693735Y-63993609D02*
X196765163Y-64017419D01*
X196765163Y-64017419D02*
X196812782Y-64065038D01*
X196812782Y-64065038D02*
X196836592Y-64112657D01*
X196836592Y-64112657D02*
X196860401Y-64207895D01*
X196860401Y-64207895D02*
X196860401Y-64279323D01*
X196860401Y-64279323D02*
X196836592Y-64374561D01*
X196836592Y-64374561D02*
X196812782Y-64422180D01*
X196812782Y-64422180D02*
X196765163Y-64469800D01*
X196765163Y-64469800D02*
X196693735Y-64493609D01*
X196693735Y-64493609D02*
X196646116Y-64493609D01*
X196646116Y-64493609D02*
X196574687Y-64469800D01*
X196574687Y-64469800D02*
X196550878Y-64445990D01*
X196550878Y-64445990D02*
X196550878Y-64279323D01*
X196550878Y-64279323D02*
X196646116Y-64279323D01*
X196336592Y-64493609D02*
X196336592Y-63993609D01*
X196336592Y-63993609D02*
X196050878Y-64493609D01*
X196050878Y-64493609D02*
X196050878Y-63993609D01*
X195812782Y-64493609D02*
X195812782Y-63993609D01*
X195812782Y-63993609D02*
X195693734Y-63993609D01*
X195693734Y-63993609D02*
X195622306Y-64017419D01*
X195622306Y-64017419D02*
X195574687Y-64065038D01*
X195574687Y-64065038D02*
X195550877Y-64112657D01*
X195550877Y-64112657D02*
X195527068Y-64207895D01*
X195527068Y-64207895D02*
X195527068Y-64279323D01*
X195527068Y-64279323D02*
X195550877Y-64374561D01*
X195550877Y-64374561D02*
X195574687Y-64422180D01*
X195574687Y-64422180D02*
X195622306Y-64469800D01*
X195622306Y-64469800D02*
X195693734Y-64493609D01*
X195693734Y-64493609D02*
X195812782Y-64493609D01*
X197033258Y-61557419D02*
X197080877Y-61533609D01*
X197080877Y-61533609D02*
X197152306Y-61533609D01*
X197152306Y-61533609D02*
X197223734Y-61557419D01*
X197223734Y-61557419D02*
X197271353Y-61605038D01*
X197271353Y-61605038D02*
X197295163Y-61652657D01*
X197295163Y-61652657D02*
X197318972Y-61747895D01*
X197318972Y-61747895D02*
X197318972Y-61819323D01*
X197318972Y-61819323D02*
X197295163Y-61914561D01*
X197295163Y-61914561D02*
X197271353Y-61962180D01*
X197271353Y-61962180D02*
X197223734Y-62009800D01*
X197223734Y-62009800D02*
X197152306Y-62033609D01*
X197152306Y-62033609D02*
X197104687Y-62033609D01*
X197104687Y-62033609D02*
X197033258Y-62009800D01*
X197033258Y-62009800D02*
X197009449Y-61985990D01*
X197009449Y-61985990D02*
X197009449Y-61819323D01*
X197009449Y-61819323D02*
X197104687Y-61819323D01*
X196795163Y-62033609D02*
X196795163Y-61533609D01*
X196795163Y-61533609D02*
X196604687Y-61533609D01*
X196604687Y-61533609D02*
X196557068Y-61557419D01*
X196557068Y-61557419D02*
X196533258Y-61581228D01*
X196533258Y-61581228D02*
X196509449Y-61628847D01*
X196509449Y-61628847D02*
X196509449Y-61700276D01*
X196509449Y-61700276D02*
X196533258Y-61747895D01*
X196533258Y-61747895D02*
X196557068Y-61771704D01*
X196557068Y-61771704D02*
X196604687Y-61795514D01*
X196604687Y-61795514D02*
X196795163Y-61795514D01*
X196318972Y-61581228D02*
X196295163Y-61557419D01*
X196295163Y-61557419D02*
X196247544Y-61533609D01*
X196247544Y-61533609D02*
X196128496Y-61533609D01*
X196128496Y-61533609D02*
X196080877Y-61557419D01*
X196080877Y-61557419D02*
X196057068Y-61581228D01*
X196057068Y-61581228D02*
X196033258Y-61628847D01*
X196033258Y-61628847D02*
X196033258Y-61676466D01*
X196033258Y-61676466D02*
X196057068Y-61747895D01*
X196057068Y-61747895D02*
X196342782Y-62033609D01*
X196342782Y-62033609D02*
X196033258Y-62033609D01*
X195747544Y-61747895D02*
X195795163Y-61724085D01*
X195795163Y-61724085D02*
X195818973Y-61700276D01*
X195818973Y-61700276D02*
X195842782Y-61652657D01*
X195842782Y-61652657D02*
X195842782Y-61628847D01*
X195842782Y-61628847D02*
X195818973Y-61581228D01*
X195818973Y-61581228D02*
X195795163Y-61557419D01*
X195795163Y-61557419D02*
X195747544Y-61533609D01*
X195747544Y-61533609D02*
X195652306Y-61533609D01*
X195652306Y-61533609D02*
X195604687Y-61557419D01*
X195604687Y-61557419D02*
X195580878Y-61581228D01*
X195580878Y-61581228D02*
X195557068Y-61628847D01*
X195557068Y-61628847D02*
X195557068Y-61652657D01*
X195557068Y-61652657D02*
X195580878Y-61700276D01*
X195580878Y-61700276D02*
X195604687Y-61724085D01*
X195604687Y-61724085D02*
X195652306Y-61747895D01*
X195652306Y-61747895D02*
X195747544Y-61747895D01*
X195747544Y-61747895D02*
X195795163Y-61771704D01*
X195795163Y-61771704D02*
X195818973Y-61795514D01*
X195818973Y-61795514D02*
X195842782Y-61843133D01*
X195842782Y-61843133D02*
X195842782Y-61938371D01*
X195842782Y-61938371D02*
X195818973Y-61985990D01*
X195818973Y-61985990D02*
X195795163Y-62009800D01*
X195795163Y-62009800D02*
X195747544Y-62033609D01*
X195747544Y-62033609D02*
X195652306Y-62033609D01*
X195652306Y-62033609D02*
X195604687Y-62009800D01*
X195604687Y-62009800D02*
X195580878Y-61985990D01*
X195580878Y-61985990D02*
X195557068Y-61938371D01*
X195557068Y-61938371D02*
X195557068Y-61843133D01*
X195557068Y-61843133D02*
X195580878Y-61795514D01*
X195580878Y-61795514D02*
X195604687Y-61771704D01*
X195604687Y-61771704D02*
X195652306Y-61747895D01*
X195461831Y-62081228D02*
X195080878Y-62081228D01*
X194985640Y-61890752D02*
X194747545Y-61890752D01*
X195033259Y-62033609D02*
X194866593Y-61533609D01*
X194866593Y-61533609D02*
X194699926Y-62033609D01*
X194557069Y-61581228D02*
X194533260Y-61557419D01*
X194533260Y-61557419D02*
X194485641Y-61533609D01*
X194485641Y-61533609D02*
X194366593Y-61533609D01*
X194366593Y-61533609D02*
X194318974Y-61557419D01*
X194318974Y-61557419D02*
X194295165Y-61581228D01*
X194295165Y-61581228D02*
X194271355Y-61628847D01*
X194271355Y-61628847D02*
X194271355Y-61676466D01*
X194271355Y-61676466D02*
X194295165Y-61747895D01*
X194295165Y-61747895D02*
X194580879Y-62033609D01*
X194580879Y-62033609D02*
X194271355Y-62033609D01*
X197238972Y-59400752D02*
X197000877Y-59400752D01*
X197286591Y-59543609D02*
X197119925Y-59043609D01*
X197119925Y-59043609D02*
X196953258Y-59543609D01*
X196786592Y-59543609D02*
X196786592Y-59043609D01*
X196786592Y-59043609D02*
X196667544Y-59043609D01*
X196667544Y-59043609D02*
X196596116Y-59067419D01*
X196596116Y-59067419D02*
X196548497Y-59115038D01*
X196548497Y-59115038D02*
X196524687Y-59162657D01*
X196524687Y-59162657D02*
X196500878Y-59257895D01*
X196500878Y-59257895D02*
X196500878Y-59329323D01*
X196500878Y-59329323D02*
X196524687Y-59424561D01*
X196524687Y-59424561D02*
X196548497Y-59472180D01*
X196548497Y-59472180D02*
X196596116Y-59519800D01*
X196596116Y-59519800D02*
X196667544Y-59543609D01*
X196667544Y-59543609D02*
X196786592Y-59543609D01*
X196000878Y-59495990D02*
X196024687Y-59519800D01*
X196024687Y-59519800D02*
X196096116Y-59543609D01*
X196096116Y-59543609D02*
X196143735Y-59543609D01*
X196143735Y-59543609D02*
X196215163Y-59519800D01*
X196215163Y-59519800D02*
X196262782Y-59472180D01*
X196262782Y-59472180D02*
X196286592Y-59424561D01*
X196286592Y-59424561D02*
X196310401Y-59329323D01*
X196310401Y-59329323D02*
X196310401Y-59257895D01*
X196310401Y-59257895D02*
X196286592Y-59162657D01*
X196286592Y-59162657D02*
X196262782Y-59115038D01*
X196262782Y-59115038D02*
X196215163Y-59067419D01*
X196215163Y-59067419D02*
X196143735Y-59043609D01*
X196143735Y-59043609D02*
X196096116Y-59043609D01*
X196096116Y-59043609D02*
X196024687Y-59067419D01*
X196024687Y-59067419D02*
X196000878Y-59091228D01*
X195905640Y-59591228D02*
X195524687Y-59591228D01*
X195477068Y-59043609D02*
X195310402Y-59543609D01*
X195310402Y-59543609D02*
X195143735Y-59043609D01*
X194691355Y-59543609D02*
X194858021Y-59305514D01*
X194977069Y-59543609D02*
X194977069Y-59043609D01*
X194977069Y-59043609D02*
X194786593Y-59043609D01*
X194786593Y-59043609D02*
X194738974Y-59067419D01*
X194738974Y-59067419D02*
X194715164Y-59091228D01*
X194715164Y-59091228D02*
X194691355Y-59138847D01*
X194691355Y-59138847D02*
X194691355Y-59210276D01*
X194691355Y-59210276D02*
X194715164Y-59257895D01*
X194715164Y-59257895D02*
X194738974Y-59281704D01*
X194738974Y-59281704D02*
X194786593Y-59305514D01*
X194786593Y-59305514D02*
X194977069Y-59305514D01*
X194477069Y-59281704D02*
X194310402Y-59281704D01*
X194238974Y-59543609D02*
X194477069Y-59543609D01*
X194477069Y-59543609D02*
X194477069Y-59043609D01*
X194477069Y-59043609D02*
X194238974Y-59043609D01*
X193858021Y-59281704D02*
X194024688Y-59281704D01*
X194024688Y-59543609D02*
X194024688Y-59043609D01*
X194024688Y-59043609D02*
X193786593Y-59043609D01*
X197292782Y-56303609D02*
X196983258Y-56303609D01*
X196983258Y-56303609D02*
X197149925Y-56494085D01*
X197149925Y-56494085D02*
X197078496Y-56494085D01*
X197078496Y-56494085D02*
X197030877Y-56517895D01*
X197030877Y-56517895D02*
X197007068Y-56541704D01*
X197007068Y-56541704D02*
X196983258Y-56589323D01*
X196983258Y-56589323D02*
X196983258Y-56708371D01*
X196983258Y-56708371D02*
X197007068Y-56755990D01*
X197007068Y-56755990D02*
X197030877Y-56779800D01*
X197030877Y-56779800D02*
X197078496Y-56803609D01*
X197078496Y-56803609D02*
X197221353Y-56803609D01*
X197221353Y-56803609D02*
X197268972Y-56779800D01*
X197268972Y-56779800D02*
X197292782Y-56755990D01*
X196840401Y-56303609D02*
X196673735Y-56803609D01*
X196673735Y-56803609D02*
X196507068Y-56303609D01*
X196388021Y-56303609D02*
X196078497Y-56303609D01*
X196078497Y-56303609D02*
X196245164Y-56494085D01*
X196245164Y-56494085D02*
X196173735Y-56494085D01*
X196173735Y-56494085D02*
X196126116Y-56517895D01*
X196126116Y-56517895D02*
X196102307Y-56541704D01*
X196102307Y-56541704D02*
X196078497Y-56589323D01*
X196078497Y-56589323D02*
X196078497Y-56708371D01*
X196078497Y-56708371D02*
X196102307Y-56755990D01*
X196102307Y-56755990D02*
X196126116Y-56779800D01*
X196126116Y-56779800D02*
X196173735Y-56803609D01*
X196173735Y-56803609D02*
X196316592Y-56803609D01*
X196316592Y-56803609D02*
X196364211Y-56779800D01*
X196364211Y-56779800D02*
X196388021Y-56755990D01*
X197402782Y-53823609D02*
X197093258Y-53823609D01*
X197093258Y-53823609D02*
X197259925Y-54014085D01*
X197259925Y-54014085D02*
X197188496Y-54014085D01*
X197188496Y-54014085D02*
X197140877Y-54037895D01*
X197140877Y-54037895D02*
X197117068Y-54061704D01*
X197117068Y-54061704D02*
X197093258Y-54109323D01*
X197093258Y-54109323D02*
X197093258Y-54228371D01*
X197093258Y-54228371D02*
X197117068Y-54275990D01*
X197117068Y-54275990D02*
X197140877Y-54299800D01*
X197140877Y-54299800D02*
X197188496Y-54323609D01*
X197188496Y-54323609D02*
X197331353Y-54323609D01*
X197331353Y-54323609D02*
X197378972Y-54299800D01*
X197378972Y-54299800D02*
X197402782Y-54275990D01*
X196950401Y-53823609D02*
X196783735Y-54323609D01*
X196783735Y-54323609D02*
X196617068Y-53823609D01*
X196498021Y-53823609D02*
X196188497Y-53823609D01*
X196188497Y-53823609D02*
X196355164Y-54014085D01*
X196355164Y-54014085D02*
X196283735Y-54014085D01*
X196283735Y-54014085D02*
X196236116Y-54037895D01*
X196236116Y-54037895D02*
X196212307Y-54061704D01*
X196212307Y-54061704D02*
X196188497Y-54109323D01*
X196188497Y-54109323D02*
X196188497Y-54228371D01*
X196188497Y-54228371D02*
X196212307Y-54275990D01*
X196212307Y-54275990D02*
X196236116Y-54299800D01*
X196236116Y-54299800D02*
X196283735Y-54323609D01*
X196283735Y-54323609D02*
X196426592Y-54323609D01*
X196426592Y-54323609D02*
X196474211Y-54299800D01*
X196474211Y-54299800D02*
X196498021Y-54275990D01*
X196093260Y-54371228D02*
X195712307Y-54371228D01*
X195593260Y-54061704D02*
X195426593Y-54061704D01*
X195355165Y-54323609D02*
X195593260Y-54323609D01*
X195593260Y-54323609D02*
X195593260Y-53823609D01*
X195593260Y-53823609D02*
X195355165Y-53823609D01*
X195140879Y-54323609D02*
X195140879Y-53823609D01*
X195140879Y-53823609D02*
X194855165Y-54323609D01*
X194855165Y-54323609D02*
X194855165Y-53823609D01*
X196993258Y-51417419D02*
X197040877Y-51393609D01*
X197040877Y-51393609D02*
X197112306Y-51393609D01*
X197112306Y-51393609D02*
X197183734Y-51417419D01*
X197183734Y-51417419D02*
X197231353Y-51465038D01*
X197231353Y-51465038D02*
X197255163Y-51512657D01*
X197255163Y-51512657D02*
X197278972Y-51607895D01*
X197278972Y-51607895D02*
X197278972Y-51679323D01*
X197278972Y-51679323D02*
X197255163Y-51774561D01*
X197255163Y-51774561D02*
X197231353Y-51822180D01*
X197231353Y-51822180D02*
X197183734Y-51869800D01*
X197183734Y-51869800D02*
X197112306Y-51893609D01*
X197112306Y-51893609D02*
X197064687Y-51893609D01*
X197064687Y-51893609D02*
X196993258Y-51869800D01*
X196993258Y-51869800D02*
X196969449Y-51845990D01*
X196969449Y-51845990D02*
X196969449Y-51679323D01*
X196969449Y-51679323D02*
X197064687Y-51679323D01*
X196755163Y-51893609D02*
X196755163Y-51393609D01*
X196755163Y-51393609D02*
X196469449Y-51893609D01*
X196469449Y-51893609D02*
X196469449Y-51393609D01*
X196231353Y-51893609D02*
X196231353Y-51393609D01*
X196231353Y-51393609D02*
X196112305Y-51393609D01*
X196112305Y-51393609D02*
X196040877Y-51417419D01*
X196040877Y-51417419D02*
X195993258Y-51465038D01*
X195993258Y-51465038D02*
X195969448Y-51512657D01*
X195969448Y-51512657D02*
X195945639Y-51607895D01*
X195945639Y-51607895D02*
X195945639Y-51679323D01*
X195945639Y-51679323D02*
X195969448Y-51774561D01*
X195969448Y-51774561D02*
X195993258Y-51822180D01*
X195993258Y-51822180D02*
X196040877Y-51869800D01*
X196040877Y-51869800D02*
X196112305Y-51893609D01*
X196112305Y-51893609D02*
X196231353Y-51893609D01*
X197396591Y-48873609D02*
X197229925Y-49373609D01*
X197229925Y-49373609D02*
X197063258Y-48873609D01*
X196920401Y-49349800D02*
X196848973Y-49373609D01*
X196848973Y-49373609D02*
X196729925Y-49373609D01*
X196729925Y-49373609D02*
X196682306Y-49349800D01*
X196682306Y-49349800D02*
X196658497Y-49325990D01*
X196658497Y-49325990D02*
X196634687Y-49278371D01*
X196634687Y-49278371D02*
X196634687Y-49230752D01*
X196634687Y-49230752D02*
X196658497Y-49183133D01*
X196658497Y-49183133D02*
X196682306Y-49159323D01*
X196682306Y-49159323D02*
X196729925Y-49135514D01*
X196729925Y-49135514D02*
X196825163Y-49111704D01*
X196825163Y-49111704D02*
X196872782Y-49087895D01*
X196872782Y-49087895D02*
X196896592Y-49064085D01*
X196896592Y-49064085D02*
X196920401Y-49016466D01*
X196920401Y-49016466D02*
X196920401Y-48968847D01*
X196920401Y-48968847D02*
X196896592Y-48921228D01*
X196896592Y-48921228D02*
X196872782Y-48897419D01*
X196872782Y-48897419D02*
X196825163Y-48873609D01*
X196825163Y-48873609D02*
X196706116Y-48873609D01*
X196706116Y-48873609D02*
X196634687Y-48897419D01*
X196325164Y-49135514D02*
X196325164Y-49373609D01*
X196491830Y-48873609D02*
X196325164Y-49135514D01*
X196325164Y-49135514D02*
X196158497Y-48873609D01*
X196015640Y-49349800D02*
X195944212Y-49373609D01*
X195944212Y-49373609D02*
X195825164Y-49373609D01*
X195825164Y-49373609D02*
X195777545Y-49349800D01*
X195777545Y-49349800D02*
X195753736Y-49325990D01*
X195753736Y-49325990D02*
X195729926Y-49278371D01*
X195729926Y-49278371D02*
X195729926Y-49230752D01*
X195729926Y-49230752D02*
X195753736Y-49183133D01*
X195753736Y-49183133D02*
X195777545Y-49159323D01*
X195777545Y-49159323D02*
X195825164Y-49135514D01*
X195825164Y-49135514D02*
X195920402Y-49111704D01*
X195920402Y-49111704D02*
X195968021Y-49087895D01*
X195968021Y-49087895D02*
X195991831Y-49064085D01*
X195991831Y-49064085D02*
X196015640Y-49016466D01*
X196015640Y-49016466D02*
X196015640Y-48968847D01*
X196015640Y-48968847D02*
X195991831Y-48921228D01*
X195991831Y-48921228D02*
X195968021Y-48897419D01*
X195968021Y-48897419D02*
X195920402Y-48873609D01*
X195920402Y-48873609D02*
X195801355Y-48873609D01*
X195801355Y-48873609D02*
X195729926Y-48897419D01*
X197416591Y-45703609D02*
X197249925Y-46203609D01*
X197249925Y-46203609D02*
X197083258Y-45703609D01*
X196749925Y-45941704D02*
X196678497Y-45965514D01*
X196678497Y-45965514D02*
X196654687Y-45989323D01*
X196654687Y-45989323D02*
X196630878Y-46036942D01*
X196630878Y-46036942D02*
X196630878Y-46108371D01*
X196630878Y-46108371D02*
X196654687Y-46155990D01*
X196654687Y-46155990D02*
X196678497Y-46179800D01*
X196678497Y-46179800D02*
X196726116Y-46203609D01*
X196726116Y-46203609D02*
X196916592Y-46203609D01*
X196916592Y-46203609D02*
X196916592Y-45703609D01*
X196916592Y-45703609D02*
X196749925Y-45703609D01*
X196749925Y-45703609D02*
X196702306Y-45727419D01*
X196702306Y-45727419D02*
X196678497Y-45751228D01*
X196678497Y-45751228D02*
X196654687Y-45798847D01*
X196654687Y-45798847D02*
X196654687Y-45846466D01*
X196654687Y-45846466D02*
X196678497Y-45894085D01*
X196678497Y-45894085D02*
X196702306Y-45917895D01*
X196702306Y-45917895D02*
X196749925Y-45941704D01*
X196749925Y-45941704D02*
X196916592Y-45941704D01*
X196416592Y-45703609D02*
X196416592Y-46108371D01*
X196416592Y-46108371D02*
X196392782Y-46155990D01*
X196392782Y-46155990D02*
X196368973Y-46179800D01*
X196368973Y-46179800D02*
X196321354Y-46203609D01*
X196321354Y-46203609D02*
X196226116Y-46203609D01*
X196226116Y-46203609D02*
X196178497Y-46179800D01*
X196178497Y-46179800D02*
X196154687Y-46155990D01*
X196154687Y-46155990D02*
X196130878Y-46108371D01*
X196130878Y-46108371D02*
X196130878Y-45703609D01*
X195916591Y-46179800D02*
X195845163Y-46203609D01*
X195845163Y-46203609D02*
X195726115Y-46203609D01*
X195726115Y-46203609D02*
X195678496Y-46179800D01*
X195678496Y-46179800D02*
X195654687Y-46155990D01*
X195654687Y-46155990D02*
X195630877Y-46108371D01*
X195630877Y-46108371D02*
X195630877Y-46060752D01*
X195630877Y-46060752D02*
X195654687Y-46013133D01*
X195654687Y-46013133D02*
X195678496Y-45989323D01*
X195678496Y-45989323D02*
X195726115Y-45965514D01*
X195726115Y-45965514D02*
X195821353Y-45941704D01*
X195821353Y-45941704D02*
X195868972Y-45917895D01*
X195868972Y-45917895D02*
X195892782Y-45894085D01*
X195892782Y-45894085D02*
X195916591Y-45846466D01*
X195916591Y-45846466D02*
X195916591Y-45798847D01*
X195916591Y-45798847D02*
X195892782Y-45751228D01*
X195892782Y-45751228D02*
X195868972Y-45727419D01*
X195868972Y-45727419D02*
X195821353Y-45703609D01*
X195821353Y-45703609D02*
X195702306Y-45703609D01*
X195702306Y-45703609D02*
X195630877Y-45727419D01*
D11*
%TO.C,REF\u002A\u002A*%
X190160813Y-69524315D02*
X190096330Y-69525975D01*
X190049697Y-69528945D01*
X190029349Y-69532088D01*
X189999583Y-69540065D01*
X189999583Y-70460530D01*
X190209119Y-70453259D01*
X190418953Y-70453523D01*
X190613141Y-70470382D01*
X190797580Y-70505075D01*
X190978168Y-70558839D01*
X191160803Y-70632911D01*
X191236511Y-70668879D01*
X191417062Y-70767977D01*
X191579702Y-70879326D01*
X191732099Y-71008408D01*
X191791378Y-71065705D01*
X191948015Y-71240861D01*
X192083527Y-71431520D01*
X192197234Y-71636394D01*
X192288456Y-71854193D01*
X192356515Y-72083629D01*
X192376674Y-72176197D01*
X192388823Y-72260244D01*
X192396934Y-72363234D01*
X192401015Y-72477965D01*
X192401074Y-72597234D01*
X192397116Y-72713837D01*
X192389149Y-72820571D01*
X192377181Y-72910233D01*
X192375943Y-72917031D01*
X192320089Y-73145759D01*
X192240701Y-73363965D01*
X192139069Y-73570177D01*
X192016478Y-73762928D01*
X191874219Y-73940748D01*
X191713579Y-74102168D01*
X191535845Y-74245719D01*
X191342307Y-74369931D01*
X191134252Y-74473336D01*
X190950763Y-74542535D01*
X190847623Y-74574118D01*
X190752893Y-74598129D01*
X190660130Y-74615463D01*
X190562894Y-74627016D01*
X190454742Y-74633680D01*
X190329233Y-74636352D01*
X190274089Y-74636504D01*
X189999583Y-74636186D01*
X189999583Y-75553164D01*
X190029349Y-75561141D01*
X190054749Y-75564138D01*
X190101744Y-75566203D01*
X190165490Y-75567382D01*
X190241142Y-75567723D01*
X190323854Y-75567274D01*
X190408783Y-75566083D01*
X190491083Y-75564197D01*
X190565909Y-75561663D01*
X190628417Y-75558531D01*
X190673762Y-75554847D01*
X190674271Y-75554789D01*
X190787271Y-75538341D01*
X190914872Y-75513706D01*
X191047338Y-75483083D01*
X191174934Y-75448667D01*
X191256016Y-75423536D01*
X191520553Y-75322498D01*
X191771277Y-75199513D01*
X192007195Y-75055777D01*
X192227320Y-74892487D01*
X192430660Y-74710838D01*
X192616227Y-74512026D01*
X192783030Y-74297247D01*
X192930079Y-74067698D01*
X193056385Y-73824573D01*
X193160958Y-73569070D01*
X193242808Y-73302383D01*
X193300945Y-73025709D01*
X193314162Y-72936875D01*
X193322618Y-72852107D01*
X193328437Y-72748118D01*
X193331618Y-72632009D01*
X193332161Y-72510887D01*
X193330066Y-72391854D01*
X193325334Y-72282014D01*
X193317963Y-72188472D01*
X193314162Y-72156354D01*
X193263241Y-71873706D01*
X193187795Y-71600614D01*
X193088081Y-71337714D01*
X192964354Y-71085637D01*
X192816872Y-70845017D01*
X192738048Y-70734218D01*
X192559770Y-70516723D01*
X192363767Y-70318344D01*
X192151402Y-70139882D01*
X191924041Y-69982133D01*
X191683047Y-69845897D01*
X191429787Y-69731971D01*
X191165623Y-69641153D01*
X190891921Y-69574241D01*
X190701120Y-69542813D01*
X190648646Y-69537490D01*
X190579782Y-69532930D01*
X190499419Y-69529212D01*
X190412450Y-69526413D01*
X190323764Y-69524612D01*
X190238255Y-69523887D01*
X190160813Y-69524315D01*
G36*
X190323764Y-69524612D02*
G01*
X190412450Y-69526413D01*
X190499419Y-69529212D01*
X190579782Y-69532930D01*
X190648646Y-69537490D01*
X190701120Y-69542813D01*
X190891921Y-69574241D01*
X191165623Y-69641153D01*
X191429787Y-69731971D01*
X191683047Y-69845897D01*
X191924041Y-69982133D01*
X192151402Y-70139882D01*
X192363767Y-70318344D01*
X192559770Y-70516723D01*
X192738048Y-70734218D01*
X192816872Y-70845017D01*
X192964354Y-71085637D01*
X193088081Y-71337714D01*
X193187795Y-71600614D01*
X193263241Y-71873706D01*
X193314162Y-72156354D01*
X193317963Y-72188472D01*
X193325334Y-72282014D01*
X193330066Y-72391854D01*
X193332161Y-72510887D01*
X193331618Y-72632009D01*
X193328437Y-72748118D01*
X193322618Y-72852107D01*
X193314162Y-72936875D01*
X193300945Y-73025709D01*
X193242808Y-73302383D01*
X193160958Y-73569070D01*
X193056385Y-73824573D01*
X192930079Y-74067698D01*
X192783030Y-74297247D01*
X192616227Y-74512026D01*
X192430660Y-74710838D01*
X192227320Y-74892487D01*
X192007195Y-75055777D01*
X191771277Y-75199513D01*
X191520553Y-75322498D01*
X191256016Y-75423536D01*
X191174934Y-75448667D01*
X191047338Y-75483083D01*
X190914872Y-75513706D01*
X190787271Y-75538341D01*
X190674271Y-75554789D01*
X190673762Y-75554847D01*
X190628417Y-75558531D01*
X190565909Y-75561663D01*
X190491083Y-75564197D01*
X190408783Y-75566083D01*
X190323854Y-75567274D01*
X190241142Y-75567723D01*
X190165490Y-75567382D01*
X190101744Y-75566203D01*
X190054749Y-75564138D01*
X190029349Y-75561141D01*
X189999583Y-75553164D01*
X189999583Y-74636186D01*
X190274089Y-74636504D01*
X190329233Y-74636352D01*
X190454742Y-74633680D01*
X190562894Y-74627016D01*
X190660130Y-74615463D01*
X190752893Y-74598129D01*
X190847623Y-74574118D01*
X190950763Y-74542535D01*
X191134252Y-74473336D01*
X191342307Y-74369931D01*
X191535845Y-74245719D01*
X191713579Y-74102168D01*
X191874219Y-73940748D01*
X192016478Y-73762928D01*
X192139069Y-73570177D01*
X192240701Y-73363965D01*
X192320089Y-73145759D01*
X192375943Y-72917031D01*
X192377181Y-72910233D01*
X192389149Y-72820571D01*
X192397116Y-72713837D01*
X192401074Y-72597234D01*
X192401015Y-72477965D01*
X192396934Y-72363234D01*
X192388823Y-72260244D01*
X192376674Y-72176197D01*
X192356515Y-72083629D01*
X192288456Y-71854193D01*
X192197234Y-71636394D01*
X192083527Y-71431520D01*
X191948015Y-71240861D01*
X191791378Y-71065705D01*
X191732099Y-71008408D01*
X191579702Y-70879326D01*
X191417062Y-70767977D01*
X191236511Y-70668879D01*
X191160803Y-70632911D01*
X190978168Y-70558839D01*
X190797580Y-70505075D01*
X190613141Y-70470382D01*
X190418953Y-70453523D01*
X190209119Y-70453259D01*
X189999583Y-70460530D01*
X189999583Y-69540065D01*
X190029349Y-69532088D01*
X190049697Y-69528945D01*
X190096330Y-69525975D01*
X190160813Y-69524315D01*
X190238255Y-69523887D01*
X190323764Y-69524612D01*
G37*
X184866665Y-70456406D02*
X185161015Y-70456695D01*
X185262990Y-70457120D01*
X185343645Y-70458408D01*
X185408112Y-70460914D01*
X185461524Y-70464996D01*
X185509012Y-70471008D01*
X185555711Y-70479308D01*
X185589611Y-70486436D01*
X185819451Y-70549754D01*
X186038768Y-70636012D01*
X186245799Y-70744009D01*
X186438780Y-70872544D01*
X186615951Y-71020418D01*
X186775547Y-71186430D01*
X186915807Y-71369379D01*
X186940446Y-71406449D01*
X186992244Y-71493402D01*
X187045145Y-71594820D01*
X187096164Y-71703866D01*
X187142318Y-71813702D01*
X187180625Y-71917488D01*
X187208102Y-72008388D01*
X187214196Y-72033984D01*
X187223561Y-72076979D01*
X185461979Y-72076979D01*
X185461979Y-73016250D01*
X187223561Y-73016250D01*
X187214196Y-73059244D01*
X187189136Y-73150611D01*
X187151648Y-73256469D01*
X187104815Y-73369878D01*
X187051718Y-73483892D01*
X186995440Y-73591569D01*
X186939064Y-73685967D01*
X186929608Y-73700319D01*
X186785866Y-73891791D01*
X186624667Y-74063630D01*
X186447010Y-74215163D01*
X186253891Y-74345719D01*
X186046309Y-74454624D01*
X185825262Y-74541206D01*
X185591745Y-74604794D01*
X185586044Y-74606021D01*
X185533462Y-74616622D01*
X185485042Y-74624513D01*
X185435391Y-74630078D01*
X185379119Y-74633702D01*
X185310832Y-74635769D01*
X185225141Y-74636664D01*
X185154401Y-74636799D01*
X184866667Y-74636776D01*
X184866667Y-75569479D01*
X185154401Y-75567762D01*
X185246376Y-75566709D01*
X185336109Y-75564766D01*
X185417842Y-75562126D01*
X185485821Y-75558981D01*
X185534289Y-75555526D01*
X185541354Y-75554789D01*
X185766763Y-75518594D01*
X185998614Y-75461376D01*
X186230575Y-75385284D01*
X186456315Y-75292465D01*
X186669501Y-75185068D01*
X186725303Y-75153135D01*
X186888844Y-75047667D01*
X187054786Y-74923545D01*
X187216573Y-74786431D01*
X187367650Y-74641982D01*
X187501460Y-74495859D01*
X187538007Y-74451607D01*
X187699327Y-74230012D01*
X187840652Y-73992378D01*
X187960975Y-73741089D01*
X188059289Y-73478532D01*
X188134588Y-73207092D01*
X188185865Y-72929155D01*
X188188410Y-72910416D01*
X188195359Y-72838751D01*
X188200292Y-72748046D01*
X188203208Y-72644923D01*
X188204105Y-72536009D01*
X188202981Y-72427925D01*
X188199834Y-72327298D01*
X188194662Y-72240752D01*
X188188617Y-72182812D01*
X188136661Y-71897894D01*
X188061431Y-71622354D01*
X187963609Y-71357809D01*
X187843879Y-71105877D01*
X187702924Y-70868177D01*
X187541427Y-70646325D01*
X187538007Y-70642079D01*
X187357720Y-70439121D01*
X187158578Y-70252656D01*
X186943027Y-70084214D01*
X186713515Y-69935325D01*
X186472491Y-69807517D01*
X186222400Y-69702322D01*
X185965691Y-69621267D01*
X185865381Y-69596769D01*
X185741470Y-69570938D01*
X185626300Y-69551592D01*
X185512480Y-69537981D01*
X185392615Y-69529356D01*
X185259313Y-69524968D01*
X185147787Y-69524008D01*
X184866667Y-69523750D01*
X184866665Y-70456406D01*
G36*
X185147787Y-69524008D02*
G01*
X185259313Y-69524968D01*
X185392615Y-69529356D01*
X185512480Y-69537981D01*
X185626300Y-69551592D01*
X185741470Y-69570938D01*
X185865381Y-69596769D01*
X185965691Y-69621267D01*
X186222400Y-69702322D01*
X186472491Y-69807517D01*
X186713515Y-69935325D01*
X186943027Y-70084214D01*
X187158578Y-70252656D01*
X187357720Y-70439121D01*
X187538007Y-70642079D01*
X187541427Y-70646325D01*
X187702924Y-70868177D01*
X187843879Y-71105877D01*
X187963609Y-71357809D01*
X188061431Y-71622354D01*
X188136661Y-71897894D01*
X188188617Y-72182812D01*
X188194662Y-72240752D01*
X188199834Y-72327298D01*
X188202981Y-72427925D01*
X188204105Y-72536009D01*
X188203208Y-72644923D01*
X188200292Y-72748046D01*
X188195359Y-72838751D01*
X188188410Y-72910416D01*
X188185865Y-72929155D01*
X188134588Y-73207092D01*
X188059289Y-73478532D01*
X187960975Y-73741089D01*
X187840652Y-73992378D01*
X187699327Y-74230012D01*
X187538007Y-74451607D01*
X187501460Y-74495859D01*
X187367650Y-74641982D01*
X187216573Y-74786431D01*
X187054786Y-74923545D01*
X186888844Y-75047667D01*
X186725303Y-75153135D01*
X186669501Y-75185068D01*
X186456315Y-75292465D01*
X186230575Y-75385284D01*
X185998614Y-75461376D01*
X185766763Y-75518594D01*
X185541354Y-75554789D01*
X185534289Y-75555526D01*
X185485821Y-75558981D01*
X185417842Y-75562126D01*
X185336109Y-75564766D01*
X185246376Y-75566709D01*
X185154401Y-75567762D01*
X184866667Y-75569479D01*
X184866667Y-74636776D01*
X185154401Y-74636799D01*
X185225141Y-74636664D01*
X185310832Y-74635769D01*
X185379119Y-74633702D01*
X185435391Y-74630078D01*
X185485042Y-74624513D01*
X185533462Y-74616622D01*
X185586044Y-74606021D01*
X185591745Y-74604794D01*
X185825262Y-74541206D01*
X186046309Y-74454624D01*
X186253891Y-74345719D01*
X186447010Y-74215163D01*
X186624667Y-74063630D01*
X186785866Y-73891791D01*
X186929608Y-73700319D01*
X186939064Y-73685967D01*
X186995440Y-73591569D01*
X187051718Y-73483892D01*
X187104815Y-73369878D01*
X187151648Y-73256469D01*
X187189136Y-73150611D01*
X187214196Y-73059244D01*
X187223561Y-73016250D01*
X185461979Y-73016250D01*
X185461979Y-72076979D01*
X187223561Y-72076979D01*
X187214196Y-72033984D01*
X187208102Y-72008388D01*
X187180625Y-71917488D01*
X187142318Y-71813702D01*
X187096164Y-71703866D01*
X187045145Y-71594820D01*
X186992244Y-71493402D01*
X186940446Y-71406449D01*
X186915807Y-71369379D01*
X186775547Y-71186430D01*
X186615951Y-71020418D01*
X186438780Y-70872544D01*
X186245799Y-70744009D01*
X186038768Y-70636012D01*
X185819451Y-70549754D01*
X185589611Y-70486436D01*
X185555711Y-70479308D01*
X185509012Y-70471008D01*
X185461524Y-70464996D01*
X185408112Y-70460914D01*
X185343645Y-70458408D01*
X185262990Y-70457120D01*
X185161015Y-70456695D01*
X184866665Y-70456406D01*
X184866667Y-69523750D01*
X185147787Y-69524008D01*
G37*
X187132685Y-78140688D02*
X186872920Y-78183841D01*
X186625785Y-78257261D01*
X186387879Y-78362170D01*
X186155797Y-78499794D01*
X185951246Y-78650899D01*
X185888760Y-78704985D01*
X185821917Y-78768951D01*
X185755668Y-78837296D01*
X185694961Y-78904521D01*
X185644743Y-78965126D01*
X185609966Y-79013608D01*
X185595576Y-79044469D01*
X185595448Y-79046365D01*
X185608826Y-79062228D01*
X185645688Y-79094884D01*
X185701131Y-79140596D01*
X185770250Y-79195628D01*
X185848143Y-79256243D01*
X185929903Y-79318703D01*
X186010628Y-79379273D01*
X186085413Y-79434215D01*
X186149355Y-79479792D01*
X186197548Y-79512269D01*
X186225089Y-79527907D01*
X186228537Y-79528759D01*
X186246720Y-79515531D01*
X186276569Y-79482203D01*
X186296138Y-79456903D01*
X186386238Y-79354630D01*
X186503377Y-79253108D01*
X186639951Y-79158296D01*
X186771045Y-79084708D01*
X186971613Y-79003250D01*
X187181710Y-78953921D01*
X187396851Y-78936741D01*
X187612553Y-78951729D01*
X187824329Y-78998906D01*
X188027696Y-79078290D01*
X188029488Y-79079158D01*
X188227674Y-79193577D01*
X188400762Y-79331487D01*
X188547415Y-79490761D01*
X188666293Y-79669269D01*
X188756058Y-79864884D01*
X188815372Y-80075478D01*
X188842895Y-80298924D01*
X188844774Y-80375301D01*
X188829550Y-80602148D01*
X188783208Y-80813224D01*
X188705197Y-81009802D01*
X188594970Y-81193157D01*
X188451976Y-81364564D01*
X188393455Y-81422566D01*
X188245266Y-81548148D01*
X188091754Y-81647016D01*
X187923527Y-81724349D01*
X187739191Y-81783206D01*
X187646318Y-81800387D01*
X187530399Y-81810580D01*
X187402718Y-81813784D01*
X187274560Y-81809998D01*
X187157209Y-81799224D01*
X187068781Y-81783211D01*
X186894363Y-81725863D01*
X186720960Y-81642905D01*
X186557202Y-81539711D01*
X186411723Y-81421657D01*
X186302918Y-81306364D01*
X186253931Y-81250317D01*
X186216118Y-81215809D01*
X186193464Y-81206417D01*
X186192137Y-81207027D01*
X186174173Y-81219434D01*
X186132801Y-81248515D01*
X186073155Y-81290628D01*
X186000367Y-81342130D01*
X185919572Y-81399380D01*
X185835903Y-81458734D01*
X185754496Y-81516551D01*
X185680482Y-81569190D01*
X185618997Y-81613007D01*
X185575175Y-81644360D01*
X185554148Y-81659608D01*
X185553579Y-81660043D01*
X185558585Y-81676742D01*
X185583160Y-81713464D01*
X185622841Y-81764742D01*
X185673166Y-81825105D01*
X185729670Y-81889087D01*
X185787891Y-81951219D01*
X185807573Y-81971240D01*
X186016223Y-82155915D01*
X186245296Y-82312689D01*
X186492563Y-82440384D01*
X186755792Y-82537824D01*
X186992382Y-82596363D01*
X187077360Y-82608774D01*
X187184907Y-82618509D01*
X187305180Y-82625266D01*
X187428339Y-82628742D01*
X187544540Y-82628638D01*
X187643942Y-82624651D01*
X187706276Y-82618232D01*
X187990931Y-82558407D01*
X188257154Y-82468928D01*
X188505875Y-82349339D01*
X188738021Y-82199187D01*
X188954522Y-82018015D01*
X188978822Y-81994820D01*
X189166734Y-81789424D01*
X189325845Y-81566096D01*
X189455446Y-81327676D01*
X189554833Y-81077001D01*
X189623299Y-80816911D01*
X189660138Y-80550246D01*
X189664644Y-80279844D01*
X189636110Y-80008544D01*
X189573831Y-79739185D01*
X189554916Y-79678589D01*
X189468848Y-79452523D01*
X189364164Y-79247465D01*
X189236226Y-79055989D01*
X189080400Y-78870666D01*
X188996076Y-78783448D01*
X188782442Y-78592827D01*
X188557801Y-78435372D01*
X188321198Y-78310689D01*
X188071679Y-78218383D01*
X187808289Y-78158058D01*
X187530075Y-78129321D01*
X187408483Y-78126575D01*
X187132685Y-78140688D01*
G36*
X187530075Y-78129321D02*
G01*
X187808289Y-78158058D01*
X188071679Y-78218383D01*
X188321198Y-78310689D01*
X188557801Y-78435372D01*
X188782442Y-78592827D01*
X188996076Y-78783448D01*
X189080400Y-78870666D01*
X189236226Y-79055989D01*
X189364164Y-79247465D01*
X189468848Y-79452523D01*
X189554916Y-79678589D01*
X189573831Y-79739185D01*
X189636110Y-80008544D01*
X189664644Y-80279844D01*
X189660138Y-80550246D01*
X189623299Y-80816911D01*
X189554833Y-81077001D01*
X189455446Y-81327676D01*
X189325845Y-81566096D01*
X189166734Y-81789424D01*
X188978822Y-81994820D01*
X188954522Y-82018015D01*
X188738021Y-82199187D01*
X188505875Y-82349339D01*
X188257154Y-82468928D01*
X187990931Y-82558407D01*
X187706276Y-82618232D01*
X187643942Y-82624651D01*
X187544540Y-82628638D01*
X187428339Y-82628742D01*
X187305180Y-82625266D01*
X187184907Y-82618509D01*
X187077360Y-82608774D01*
X186992382Y-82596363D01*
X186755792Y-82537824D01*
X186492563Y-82440384D01*
X186245296Y-82312689D01*
X186016223Y-82155915D01*
X185807573Y-81971240D01*
X185787891Y-81951219D01*
X185729670Y-81889087D01*
X185673166Y-81825105D01*
X185622841Y-81764742D01*
X185583160Y-81713464D01*
X185558585Y-81676742D01*
X185553579Y-81660043D01*
X185554148Y-81659608D01*
X185575175Y-81644360D01*
X185618997Y-81613007D01*
X185680482Y-81569190D01*
X185754496Y-81516551D01*
X185835903Y-81458734D01*
X185919572Y-81399380D01*
X186000367Y-81342130D01*
X186073155Y-81290628D01*
X186132801Y-81248515D01*
X186174173Y-81219434D01*
X186192137Y-81207027D01*
X186193464Y-81206417D01*
X186216118Y-81215809D01*
X186253931Y-81250317D01*
X186302918Y-81306364D01*
X186411723Y-81421657D01*
X186557202Y-81539711D01*
X186720960Y-81642905D01*
X186894363Y-81725863D01*
X187068781Y-81783211D01*
X187157209Y-81799224D01*
X187274560Y-81809998D01*
X187402718Y-81813784D01*
X187530399Y-81810580D01*
X187646318Y-81800387D01*
X187739191Y-81783206D01*
X187923527Y-81724349D01*
X188091754Y-81647016D01*
X188245266Y-81548148D01*
X188393455Y-81422566D01*
X188451976Y-81364564D01*
X188594970Y-81193157D01*
X188705197Y-81009802D01*
X188783208Y-80813224D01*
X188829550Y-80602148D01*
X188844774Y-80375301D01*
X188842895Y-80298924D01*
X188815372Y-80075478D01*
X188756058Y-79864884D01*
X188666293Y-79669269D01*
X188547415Y-79490761D01*
X188400762Y-79331487D01*
X188227674Y-79193577D01*
X188029488Y-79079158D01*
X188027696Y-79078290D01*
X187824329Y-78998906D01*
X187612553Y-78951729D01*
X187396851Y-78936741D01*
X187181710Y-78953921D01*
X186971613Y-79003250D01*
X186771045Y-79084708D01*
X186639951Y-79158296D01*
X186503377Y-79253108D01*
X186386238Y-79354630D01*
X186296138Y-79456903D01*
X186276569Y-79482203D01*
X186246720Y-79515531D01*
X186228537Y-79528759D01*
X186225089Y-79527907D01*
X186197548Y-79512269D01*
X186149355Y-79479792D01*
X186085413Y-79434215D01*
X186010628Y-79379273D01*
X185929903Y-79318703D01*
X185848143Y-79256243D01*
X185770250Y-79195628D01*
X185701131Y-79140596D01*
X185645688Y-79094884D01*
X185608826Y-79062228D01*
X185595448Y-79046365D01*
X185595576Y-79044469D01*
X185609966Y-79013608D01*
X185644743Y-78965126D01*
X185694961Y-78904521D01*
X185755668Y-78837296D01*
X185821917Y-78768951D01*
X185888760Y-78704985D01*
X185951246Y-78650899D01*
X186155797Y-78499794D01*
X186387879Y-78362170D01*
X186625785Y-78257261D01*
X186872920Y-78183841D01*
X187132685Y-78140688D01*
X187408483Y-78126575D01*
X187530075Y-78129321D01*
G37*
X186968494Y-76448821D02*
X186614094Y-76504114D01*
X186506345Y-76527914D01*
X186150346Y-76629902D01*
X185806159Y-76763983D01*
X185476340Y-76928735D01*
X185163448Y-77122733D01*
X184870040Y-77344554D01*
X184606309Y-77585121D01*
X184550112Y-77643233D01*
X184487041Y-77711560D01*
X184421368Y-77785095D01*
X184357366Y-77858831D01*
X184299306Y-77927761D01*
X184251462Y-77986879D01*
X184218105Y-78031177D01*
X184203508Y-78055648D01*
X184203202Y-78057536D01*
X184216545Y-78071738D01*
X184250304Y-78098365D01*
X184277650Y-78117999D01*
X184316815Y-78146025D01*
X184377372Y-78190319D01*
X184452756Y-78246035D01*
X184536402Y-78308328D01*
X184592161Y-78350103D01*
X184671755Y-78409319D01*
X184741828Y-78460380D01*
X184797540Y-78499847D01*
X184834052Y-78524279D01*
X184846161Y-78530688D01*
X184861798Y-78517938D01*
X184894953Y-78483060D01*
X184941042Y-78431107D01*
X184995481Y-78367133D01*
X185006019Y-78354482D01*
X185220283Y-78123421D01*
X185458282Y-77916129D01*
X185716851Y-77733931D01*
X185992825Y-77578151D01*
X186283037Y-77450114D01*
X186584322Y-77351145D01*
X186893515Y-77282569D01*
X187207449Y-77245710D01*
X187522958Y-77241894D01*
X187646005Y-77249669D01*
X187979212Y-77294807D01*
X188299620Y-77371717D01*
X188605606Y-77478968D01*
X188895548Y-77615128D01*
X189167823Y-77778767D01*
X189420808Y-77968453D01*
X189652882Y-78182754D01*
X189862420Y-78420239D01*
X190047802Y-78679477D01*
X190207403Y-78959036D01*
X190339602Y-79257485D01*
X190442776Y-79573392D01*
X190486948Y-79755874D01*
X190502753Y-79833025D01*
X190514590Y-79900432D01*
X190523038Y-79965456D01*
X190528676Y-80035455D01*
X190532083Y-80117789D01*
X190533837Y-80219816D01*
X190534516Y-80348895D01*
X190534542Y-80361242D01*
X190534113Y-80506353D01*
X190531921Y-80623330D01*
X190527574Y-80719044D01*
X190520681Y-80800369D01*
X190510851Y-80874177D01*
X190502623Y-80921793D01*
X190425361Y-81243563D01*
X190316917Y-81552331D01*
X190178913Y-81846073D01*
X190012968Y-82122761D01*
X189820705Y-82380370D01*
X189603744Y-82616875D01*
X189363706Y-82830248D01*
X189102212Y-83018465D01*
X188820884Y-83179499D01*
X188623068Y-83270772D01*
X188309673Y-83383571D01*
X187990042Y-83462017D01*
X187665379Y-83505992D01*
X187336888Y-83515377D01*
X187005771Y-83490054D01*
X186774983Y-83451999D01*
X186471045Y-83373528D01*
X186171704Y-83262064D01*
X185881441Y-83119650D01*
X185604736Y-82948326D01*
X185493284Y-82867971D01*
X185384933Y-82779869D01*
X185267267Y-82673273D01*
X185149293Y-82557140D01*
X185040016Y-82440427D01*
X184948446Y-82332091D01*
X184928928Y-82306773D01*
X184884297Y-82249434D01*
X184846584Y-82204591D01*
X184821152Y-82178443D01*
X184814317Y-82174276D01*
X184795489Y-82184085D01*
X184754055Y-82211010D01*
X184695550Y-82251297D01*
X184625507Y-82301192D01*
X184601261Y-82318793D01*
X184516397Y-82380178D01*
X184429459Y-82442206D01*
X184350337Y-82497871D01*
X184288921Y-82540167D01*
X184285997Y-82542138D01*
X184231368Y-82580721D01*
X184190192Y-82613241D01*
X184169508Y-82634026D01*
X184168348Y-82636924D01*
X184179567Y-82665837D01*
X184212132Y-82715496D01*
X184262611Y-82781875D01*
X184327573Y-82860952D01*
X184403584Y-82948704D01*
X184487213Y-83041106D01*
X184575028Y-83134135D01*
X184663598Y-83223768D01*
X184695416Y-83254826D01*
X184956830Y-83483328D01*
X185242338Y-83688226D01*
X185548798Y-83867953D01*
X185873070Y-84020940D01*
X186212010Y-84145619D01*
X186562478Y-84240424D01*
X186742828Y-84276447D01*
X186837979Y-84291558D01*
X186933390Y-84302836D01*
X187037313Y-84310887D01*
X187158002Y-84316320D01*
X187303708Y-84319741D01*
X187338414Y-84320263D01*
X187453778Y-84321488D01*
X187560769Y-84321923D01*
X187653173Y-84321598D01*
X187724775Y-84320542D01*
X187769362Y-84318785D01*
X187776345Y-84318149D01*
X188104677Y-84268891D01*
X188409499Y-84201721D01*
X188698615Y-84114431D01*
X188979834Y-84004815D01*
X189133931Y-83934226D01*
X189455663Y-83760090D01*
X189758022Y-83557707D01*
X190039426Y-83329013D01*
X190298297Y-83075942D01*
X190533054Y-82800427D01*
X190742116Y-82504403D01*
X190923904Y-82189804D01*
X191076837Y-81858563D01*
X191199336Y-81512615D01*
X191244544Y-81350966D01*
X191257470Y-81298661D01*
X191269613Y-81244344D01*
X191282106Y-81181960D01*
X191296084Y-81105458D01*
X191312681Y-81008784D01*
X191333030Y-80885885D01*
X191342181Y-80829828D01*
X191351450Y-80772897D01*
X192926414Y-80772897D01*
X192926414Y-83640401D01*
X193325310Y-83905821D01*
X193430456Y-83975486D01*
X193526145Y-84038313D01*
X193608495Y-84091801D01*
X193673624Y-84133448D01*
X193717652Y-84160750D01*
X193736696Y-84171205D01*
X193736966Y-84171242D01*
X193738177Y-84153989D01*
X193739358Y-84103288D01*
X193740502Y-84020726D01*
X193741604Y-83907889D01*
X193742660Y-83766364D01*
X193743662Y-83597738D01*
X193744608Y-83403596D01*
X193745490Y-83185526D01*
X193746304Y-82945113D01*
X193747044Y-82683946D01*
X193747705Y-82403610D01*
X193748283Y-82105691D01*
X193748771Y-81791777D01*
X193749164Y-81463453D01*
X193749457Y-81122307D01*
X193749645Y-80769926D01*
X193749722Y-80407894D01*
X193749724Y-80343724D01*
X193749724Y-76516207D01*
X192067035Y-76516207D01*
X191777194Y-76516289D01*
X191520643Y-76516548D01*
X191295641Y-76517008D01*
X191100445Y-76517692D01*
X190933310Y-76518622D01*
X190792496Y-76519822D01*
X190676258Y-76521313D01*
X190582854Y-76523120D01*
X190510541Y-76525265D01*
X190457576Y-76527771D01*
X190422216Y-76530661D01*
X190402719Y-76533956D01*
X190397340Y-76537682D01*
X190397527Y-76538104D01*
X190411190Y-76557454D01*
X190443044Y-76600927D01*
X190490212Y-76664650D01*
X190549819Y-76744751D01*
X190618991Y-76837358D01*
X190694853Y-76938597D01*
X190696656Y-76941000D01*
X190982605Y-77322000D01*
X192926414Y-77322000D01*
X192926414Y-79967104D01*
X192140012Y-79967104D01*
X191950641Y-79967166D01*
X191793339Y-79967109D01*
X191665144Y-79966565D01*
X191563091Y-79965167D01*
X191484217Y-79962549D01*
X191425559Y-79958345D01*
X191384151Y-79952186D01*
X191357032Y-79943708D01*
X191341237Y-79932541D01*
X191333803Y-79918321D01*
X191331765Y-79900680D01*
X191332161Y-79879251D01*
X191332345Y-79867148D01*
X191327370Y-79810430D01*
X191313537Y-79727235D01*
X191292478Y-79624511D01*
X191265828Y-79509205D01*
X191235223Y-79388266D01*
X191202296Y-79268642D01*
X191168683Y-79157282D01*
X191156693Y-79120447D01*
X191025021Y-78779900D01*
X190862623Y-78454452D01*
X190671256Y-78146068D01*
X190452673Y-77856719D01*
X190208632Y-77588372D01*
X189940887Y-77342995D01*
X189651195Y-77122557D01*
X189341312Y-76929026D01*
X189084074Y-76796780D01*
X188750901Y-76659760D01*
X188405123Y-76553846D01*
X188050366Y-76479417D01*
X187690257Y-76436851D01*
X187328424Y-76426527D01*
X186968494Y-76448821D01*
G36*
X187690257Y-76436851D02*
G01*
X188050366Y-76479417D01*
X188405123Y-76553846D01*
X188750901Y-76659760D01*
X189084074Y-76796780D01*
X189341312Y-76929026D01*
X189651195Y-77122557D01*
X189940887Y-77342995D01*
X190208632Y-77588372D01*
X190452673Y-77856719D01*
X190671256Y-78146068D01*
X190862623Y-78454452D01*
X191025021Y-78779900D01*
X191156693Y-79120447D01*
X191168683Y-79157282D01*
X191202296Y-79268642D01*
X191235223Y-79388266D01*
X191265828Y-79509205D01*
X191292478Y-79624511D01*
X191313537Y-79727235D01*
X191327370Y-79810430D01*
X191332345Y-79867148D01*
X191332161Y-79879251D01*
X191331765Y-79900680D01*
X191333803Y-79918321D01*
X191341237Y-79932541D01*
X191357032Y-79943708D01*
X191384151Y-79952186D01*
X191425559Y-79958345D01*
X191484217Y-79962549D01*
X191563091Y-79965167D01*
X191665144Y-79966565D01*
X191793339Y-79967109D01*
X191950641Y-79967166D01*
X192140012Y-79967104D01*
X192926414Y-79967104D01*
X192926414Y-77322000D01*
X190982605Y-77322000D01*
X190696656Y-76941000D01*
X190694853Y-76938597D01*
X190618991Y-76837358D01*
X190549819Y-76744751D01*
X190490212Y-76664650D01*
X190443044Y-76600927D01*
X190411190Y-76557454D01*
X190397527Y-76538104D01*
X190397340Y-76537682D01*
X190402719Y-76533956D01*
X190422216Y-76530661D01*
X190457576Y-76527771D01*
X190510541Y-76525265D01*
X190582854Y-76523120D01*
X190676258Y-76521313D01*
X190792496Y-76519822D01*
X190933310Y-76518622D01*
X191100445Y-76517692D01*
X191295641Y-76517008D01*
X191520643Y-76516548D01*
X191777194Y-76516289D01*
X192067035Y-76516207D01*
X193749724Y-76516207D01*
X193749724Y-80343724D01*
X193749722Y-80407894D01*
X193749645Y-80769926D01*
X193749457Y-81122307D01*
X193749164Y-81463453D01*
X193748771Y-81791777D01*
X193748283Y-82105691D01*
X193747705Y-82403610D01*
X193747044Y-82683946D01*
X193746304Y-82945113D01*
X193745490Y-83185526D01*
X193744608Y-83403596D01*
X193743662Y-83597738D01*
X193742660Y-83766364D01*
X193741604Y-83907889D01*
X193740502Y-84020726D01*
X193739358Y-84103288D01*
X193738177Y-84153989D01*
X193736966Y-84171242D01*
X193736696Y-84171205D01*
X193717652Y-84160750D01*
X193673624Y-84133448D01*
X193608495Y-84091801D01*
X193526145Y-84038313D01*
X193430456Y-83975486D01*
X193325310Y-83905821D01*
X192926414Y-83640401D01*
X192926414Y-80772897D01*
X191351450Y-80772897D01*
X191342181Y-80829828D01*
X191333030Y-80885885D01*
X191312681Y-81008784D01*
X191296084Y-81105458D01*
X191282106Y-81181960D01*
X191269613Y-81244344D01*
X191257470Y-81298661D01*
X191244544Y-81350966D01*
X191199336Y-81512615D01*
X191076837Y-81858563D01*
X190923904Y-82189804D01*
X190742116Y-82504403D01*
X190533054Y-82800427D01*
X190298297Y-83075942D01*
X190039426Y-83329013D01*
X189758022Y-83557707D01*
X189455663Y-83760090D01*
X189133931Y-83934226D01*
X188979834Y-84004815D01*
X188698615Y-84114431D01*
X188409499Y-84201721D01*
X188104677Y-84268891D01*
X187776345Y-84318149D01*
X187769362Y-84318785D01*
X187724775Y-84320542D01*
X187653173Y-84321598D01*
X187560769Y-84321923D01*
X187453778Y-84321488D01*
X187338414Y-84320263D01*
X187303708Y-84319741D01*
X187158002Y-84316320D01*
X187037313Y-84310887D01*
X186933390Y-84302836D01*
X186837979Y-84291558D01*
X186742828Y-84276447D01*
X186562478Y-84240424D01*
X186212010Y-84145619D01*
X185873070Y-84020940D01*
X185548798Y-83867953D01*
X185242338Y-83688226D01*
X184956830Y-83483328D01*
X184695416Y-83254826D01*
X184663598Y-83223768D01*
X184575028Y-83134135D01*
X184487213Y-83041106D01*
X184403584Y-82948704D01*
X184327573Y-82860952D01*
X184262611Y-82781875D01*
X184212132Y-82715496D01*
X184179567Y-82665837D01*
X184168348Y-82636924D01*
X184169508Y-82634026D01*
X184190192Y-82613241D01*
X184231368Y-82580721D01*
X184285997Y-82542138D01*
X184288921Y-82540167D01*
X184350337Y-82497871D01*
X184429459Y-82442206D01*
X184516397Y-82380178D01*
X184601261Y-82318793D01*
X184625507Y-82301192D01*
X184695550Y-82251297D01*
X184754055Y-82211010D01*
X184795489Y-82184085D01*
X184814317Y-82174276D01*
X184821152Y-82178443D01*
X184846584Y-82204591D01*
X184884297Y-82249434D01*
X184928928Y-82306773D01*
X184948446Y-82332091D01*
X185040016Y-82440427D01*
X185149293Y-82557140D01*
X185267267Y-82673273D01*
X185384933Y-82779869D01*
X185493284Y-82867971D01*
X185604736Y-82948326D01*
X185881441Y-83119650D01*
X186171704Y-83262064D01*
X186471045Y-83373528D01*
X186774983Y-83451999D01*
X187005771Y-83490054D01*
X187336888Y-83515377D01*
X187665379Y-83505992D01*
X187990042Y-83462017D01*
X188309673Y-83383571D01*
X188623068Y-83270772D01*
X188820884Y-83179499D01*
X189102212Y-83018465D01*
X189363706Y-82830248D01*
X189603744Y-82616875D01*
X189820705Y-82380370D01*
X190012968Y-82122761D01*
X190178913Y-81846073D01*
X190316917Y-81552331D01*
X190425361Y-81243563D01*
X190502623Y-80921793D01*
X190510851Y-80874177D01*
X190520681Y-80800369D01*
X190527574Y-80719044D01*
X190531921Y-80623330D01*
X190534113Y-80506353D01*
X190534542Y-80361242D01*
X190534516Y-80348895D01*
X190533837Y-80219816D01*
X190532083Y-80117789D01*
X190528676Y-80035455D01*
X190523038Y-79965456D01*
X190514590Y-79900432D01*
X190502753Y-79833025D01*
X190486948Y-79755874D01*
X190442776Y-79573392D01*
X190339602Y-79257485D01*
X190207403Y-78959036D01*
X190047802Y-78679477D01*
X189862420Y-78420239D01*
X189652882Y-78182754D01*
X189420808Y-77968453D01*
X189167823Y-77778767D01*
X188895548Y-77615128D01*
X188605606Y-77478968D01*
X188299620Y-77371717D01*
X187979212Y-77294807D01*
X187646005Y-77249669D01*
X187522958Y-77241894D01*
X187207449Y-77245710D01*
X186893515Y-77282569D01*
X186584322Y-77351145D01*
X186283037Y-77450114D01*
X185992825Y-77578151D01*
X185716851Y-77733931D01*
X185458282Y-77916129D01*
X185220283Y-78123421D01*
X185006019Y-78354482D01*
X184995481Y-78367133D01*
X184941042Y-78431107D01*
X184894953Y-78483060D01*
X184861798Y-78517938D01*
X184846161Y-78530688D01*
X184834052Y-78524279D01*
X184797540Y-78499847D01*
X184741828Y-78460380D01*
X184671755Y-78409319D01*
X184592161Y-78350103D01*
X184536402Y-78308328D01*
X184452756Y-78246035D01*
X184377372Y-78190319D01*
X184316815Y-78146025D01*
X184277650Y-78117999D01*
X184250304Y-78098365D01*
X184216545Y-78071738D01*
X184203202Y-78057536D01*
X184203508Y-78055648D01*
X184218105Y-78031177D01*
X184251462Y-77986879D01*
X184299306Y-77927761D01*
X184357366Y-77858831D01*
X184421368Y-77785095D01*
X184487041Y-77711560D01*
X184550112Y-77643233D01*
X184606309Y-77585121D01*
X184870040Y-77344554D01*
X185163448Y-77122733D01*
X185476340Y-76928735D01*
X185806159Y-76763983D01*
X186150346Y-76629902D01*
X186506345Y-76527914D01*
X186614094Y-76504114D01*
X186968494Y-76448821D01*
X187328424Y-76426527D01*
X187690257Y-76436851D01*
G37*
%TO.C,J2*%
D12*
X179170000Y-47970000D02*
X179170000Y-96340000D01*
X181930000Y-45320000D02*
X180550000Y-45320000D01*
X181930000Y-46700000D02*
X181930000Y-45320000D01*
X181930000Y-47970000D02*
X179170000Y-47970000D01*
X181930000Y-47970000D02*
X181930000Y-96340000D01*
X181930000Y-96340000D02*
X179170000Y-96340000D01*
%TO.C,J3*%
X197520000Y-45125000D02*
X200280000Y-45125000D01*
X197520000Y-93495000D02*
X197520000Y-45125000D01*
X197520000Y-93495000D02*
X200280000Y-93495000D01*
X197520000Y-94765000D02*
X197520000Y-96145000D01*
X197520000Y-96145000D02*
X198900000Y-96145000D01*
X200280000Y-93495000D02*
X200280000Y-45125000D01*
%TD*%
M02*
