%TF.GenerationSoftware,KiCad,Pcbnew,10.0.3*%
%TF.CreationDate,2026-06-25T19:54:13+05:45*%
%TF.ProjectId,USB2UART,55534232-5541-4525-942e-6b696361645f,rev?*%
%TF.SameCoordinates,Original*%
%TF.FileFunction,Legend,Top*%
%TF.FilePolarity,Positive*%
%FSLAX46Y46*%
G04 Gerber Fmt 4.6, Leading zero omitted, Abs format (unit mm)*
G04 Created by KiCad (PCBNEW 10.0.3) date 2026-06-25 19:54:13*
%MOMM*%
%LPD*%
G01*
G04 APERTURE LIST*
%ADD10C,0.100000*%
%ADD11C,0.150000*%
%ADD12C,0.120000*%
G04 APERTURE END LIST*
D10*
X129848609Y-86612782D02*
X129896228Y-86469925D01*
X129896228Y-86469925D02*
X129943847Y-86422306D01*
X129943847Y-86422306D02*
X130039085Y-86374687D01*
X130039085Y-86374687D02*
X130181942Y-86374687D01*
X130181942Y-86374687D02*
X130277180Y-86422306D01*
X130277180Y-86422306D02*
X130324800Y-86469925D01*
X130324800Y-86469925D02*
X130372419Y-86565163D01*
X130372419Y-86565163D02*
X130372419Y-86946115D01*
X130372419Y-86946115D02*
X129372419Y-86946115D01*
X129372419Y-86946115D02*
X129372419Y-86612782D01*
X129372419Y-86612782D02*
X129420038Y-86517544D01*
X129420038Y-86517544D02*
X129467657Y-86469925D01*
X129467657Y-86469925D02*
X129562895Y-86422306D01*
X129562895Y-86422306D02*
X129658133Y-86422306D01*
X129658133Y-86422306D02*
X129753371Y-86469925D01*
X129753371Y-86469925D02*
X129800990Y-86517544D01*
X129800990Y-86517544D02*
X129848609Y-86612782D01*
X129848609Y-86612782D02*
X129848609Y-86946115D01*
X129896228Y-85755639D02*
X130372419Y-85755639D01*
X129372419Y-86088972D02*
X129896228Y-85755639D01*
X129896228Y-85755639D02*
X129372419Y-85422306D01*
X130277180Y-85088972D02*
X130324800Y-85041353D01*
X130324800Y-85041353D02*
X130372419Y-85088972D01*
X130372419Y-85088972D02*
X130324800Y-85136591D01*
X130324800Y-85136591D02*
X130277180Y-85088972D01*
X130277180Y-85088972D02*
X130372419Y-85088972D01*
X129753371Y-85088972D02*
X129800990Y-85041353D01*
X129800990Y-85041353D02*
X129848609Y-85088972D01*
X129848609Y-85088972D02*
X129800990Y-85136591D01*
X129800990Y-85136591D02*
X129753371Y-85088972D01*
X129753371Y-85088972D02*
X129848609Y-85088972D01*
X130372419Y-84041354D02*
X129896228Y-84374687D01*
X130372419Y-84612782D02*
X129372419Y-84612782D01*
X129372419Y-84612782D02*
X129372419Y-84231830D01*
X129372419Y-84231830D02*
X129420038Y-84136592D01*
X129420038Y-84136592D02*
X129467657Y-84088973D01*
X129467657Y-84088973D02*
X129562895Y-84041354D01*
X129562895Y-84041354D02*
X129705752Y-84041354D01*
X129705752Y-84041354D02*
X129800990Y-84088973D01*
X129800990Y-84088973D02*
X129848609Y-84136592D01*
X129848609Y-84136592D02*
X129896228Y-84231830D01*
X129896228Y-84231830D02*
X129896228Y-84612782D01*
X129705752Y-83184211D02*
X130372419Y-83184211D01*
X129705752Y-83612782D02*
X130229561Y-83612782D01*
X130229561Y-83612782D02*
X130324800Y-83565163D01*
X130324800Y-83565163D02*
X130372419Y-83469925D01*
X130372419Y-83469925D02*
X130372419Y-83327068D01*
X130372419Y-83327068D02*
X130324800Y-83231830D01*
X130324800Y-83231830D02*
X130277180Y-83184211D01*
X130372419Y-82279449D02*
X129372419Y-82279449D01*
X130324800Y-82279449D02*
X130372419Y-82374687D01*
X130372419Y-82374687D02*
X130372419Y-82565163D01*
X130372419Y-82565163D02*
X130324800Y-82660401D01*
X130324800Y-82660401D02*
X130277180Y-82708020D01*
X130277180Y-82708020D02*
X130181942Y-82755639D01*
X130181942Y-82755639D02*
X129896228Y-82755639D01*
X129896228Y-82755639D02*
X129800990Y-82708020D01*
X129800990Y-82708020D02*
X129753371Y-82660401D01*
X129753371Y-82660401D02*
X129705752Y-82565163D01*
X129705752Y-82565163D02*
X129705752Y-82374687D01*
X129705752Y-82374687D02*
X129753371Y-82279449D01*
X130372419Y-81803258D02*
X129705752Y-81803258D01*
X129896228Y-81803258D02*
X129800990Y-81755639D01*
X129800990Y-81755639D02*
X129753371Y-81708020D01*
X129753371Y-81708020D02*
X129705752Y-81612782D01*
X129705752Y-81612782D02*
X129705752Y-81517544D01*
X130372419Y-80755639D02*
X129848609Y-80755639D01*
X129848609Y-80755639D02*
X129753371Y-80803258D01*
X129753371Y-80803258D02*
X129705752Y-80898496D01*
X129705752Y-80898496D02*
X129705752Y-81088972D01*
X129705752Y-81088972D02*
X129753371Y-81184210D01*
X130324800Y-80755639D02*
X130372419Y-80850877D01*
X130372419Y-80850877D02*
X130372419Y-81088972D01*
X130372419Y-81088972D02*
X130324800Y-81184210D01*
X130324800Y-81184210D02*
X130229561Y-81231829D01*
X130229561Y-81231829D02*
X130134323Y-81231829D01*
X130134323Y-81231829D02*
X130039085Y-81184210D01*
X130039085Y-81184210D02*
X129991466Y-81088972D01*
X129991466Y-81088972D02*
X129991466Y-80850877D01*
X129991466Y-80850877D02*
X129943847Y-80755639D01*
D11*
X108119819Y-87163220D02*
X108929342Y-87163220D01*
X108929342Y-87163220D02*
X109024580Y-87115601D01*
X109024580Y-87115601D02*
X109072200Y-87067982D01*
X109072200Y-87067982D02*
X109119819Y-86972744D01*
X109119819Y-86972744D02*
X109119819Y-86782268D01*
X109119819Y-86782268D02*
X109072200Y-86687030D01*
X109072200Y-86687030D02*
X109024580Y-86639411D01*
X109024580Y-86639411D02*
X108929342Y-86591792D01*
X108929342Y-86591792D02*
X108119819Y-86591792D01*
X109072200Y-86163220D02*
X109119819Y-86020363D01*
X109119819Y-86020363D02*
X109119819Y-85782268D01*
X109119819Y-85782268D02*
X109072200Y-85687030D01*
X109072200Y-85687030D02*
X109024580Y-85639411D01*
X109024580Y-85639411D02*
X108929342Y-85591792D01*
X108929342Y-85591792D02*
X108834104Y-85591792D01*
X108834104Y-85591792D02*
X108738866Y-85639411D01*
X108738866Y-85639411D02*
X108691247Y-85687030D01*
X108691247Y-85687030D02*
X108643628Y-85782268D01*
X108643628Y-85782268D02*
X108596009Y-85972744D01*
X108596009Y-85972744D02*
X108548390Y-86067982D01*
X108548390Y-86067982D02*
X108500771Y-86115601D01*
X108500771Y-86115601D02*
X108405533Y-86163220D01*
X108405533Y-86163220D02*
X108310295Y-86163220D01*
X108310295Y-86163220D02*
X108215057Y-86115601D01*
X108215057Y-86115601D02*
X108167438Y-86067982D01*
X108167438Y-86067982D02*
X108119819Y-85972744D01*
X108119819Y-85972744D02*
X108119819Y-85734649D01*
X108119819Y-85734649D02*
X108167438Y-85591792D01*
X108596009Y-84829887D02*
X108643628Y-84687030D01*
X108643628Y-84687030D02*
X108691247Y-84639411D01*
X108691247Y-84639411D02*
X108786485Y-84591792D01*
X108786485Y-84591792D02*
X108929342Y-84591792D01*
X108929342Y-84591792D02*
X109024580Y-84639411D01*
X109024580Y-84639411D02*
X109072200Y-84687030D01*
X109072200Y-84687030D02*
X109119819Y-84782268D01*
X109119819Y-84782268D02*
X109119819Y-85163220D01*
X109119819Y-85163220D02*
X108119819Y-85163220D01*
X108119819Y-85163220D02*
X108119819Y-84829887D01*
X108119819Y-84829887D02*
X108167438Y-84734649D01*
X108167438Y-84734649D02*
X108215057Y-84687030D01*
X108215057Y-84687030D02*
X108310295Y-84639411D01*
X108310295Y-84639411D02*
X108405533Y-84639411D01*
X108405533Y-84639411D02*
X108500771Y-84687030D01*
X108500771Y-84687030D02*
X108548390Y-84734649D01*
X108548390Y-84734649D02*
X108596009Y-84829887D01*
X108596009Y-84829887D02*
X108596009Y-85163220D01*
X108738866Y-84163220D02*
X108738866Y-83401316D01*
X108215057Y-82972744D02*
X108167438Y-82925125D01*
X108167438Y-82925125D02*
X108119819Y-82829887D01*
X108119819Y-82829887D02*
X108119819Y-82591792D01*
X108119819Y-82591792D02*
X108167438Y-82496554D01*
X108167438Y-82496554D02*
X108215057Y-82448935D01*
X108215057Y-82448935D02*
X108310295Y-82401316D01*
X108310295Y-82401316D02*
X108405533Y-82401316D01*
X108405533Y-82401316D02*
X108548390Y-82448935D01*
X108548390Y-82448935D02*
X109119819Y-83020363D01*
X109119819Y-83020363D02*
X109119819Y-82401316D01*
X108738866Y-81972744D02*
X108738866Y-81210840D01*
X108119819Y-80734649D02*
X108929342Y-80734649D01*
X108929342Y-80734649D02*
X109024580Y-80687030D01*
X109024580Y-80687030D02*
X109072200Y-80639411D01*
X109072200Y-80639411D02*
X109119819Y-80544173D01*
X109119819Y-80544173D02*
X109119819Y-80353697D01*
X109119819Y-80353697D02*
X109072200Y-80258459D01*
X109072200Y-80258459D02*
X109024580Y-80210840D01*
X109024580Y-80210840D02*
X108929342Y-80163221D01*
X108929342Y-80163221D02*
X108119819Y-80163221D01*
X108834104Y-79734649D02*
X108834104Y-79258459D01*
X109119819Y-79829887D02*
X108119819Y-79496554D01*
X108119819Y-79496554D02*
X109119819Y-79163221D01*
X109119819Y-78258459D02*
X108643628Y-78591792D01*
X109119819Y-78829887D02*
X108119819Y-78829887D01*
X108119819Y-78829887D02*
X108119819Y-78448935D01*
X108119819Y-78448935D02*
X108167438Y-78353697D01*
X108167438Y-78353697D02*
X108215057Y-78306078D01*
X108215057Y-78306078D02*
X108310295Y-78258459D01*
X108310295Y-78258459D02*
X108453152Y-78258459D01*
X108453152Y-78258459D02*
X108548390Y-78306078D01*
X108548390Y-78306078D02*
X108596009Y-78353697D01*
X108596009Y-78353697D02*
X108643628Y-78448935D01*
X108643628Y-78448935D02*
X108643628Y-78829887D01*
X108119819Y-77972744D02*
X108119819Y-77401316D01*
X109119819Y-77687030D02*
X108119819Y-77687030D01*
X126083333Y-80874819D02*
X125750000Y-80398628D01*
X125511905Y-80874819D02*
X125511905Y-79874819D01*
X125511905Y-79874819D02*
X125892857Y-79874819D01*
X125892857Y-79874819D02*
X125988095Y-79922438D01*
X125988095Y-79922438D02*
X126035714Y-79970057D01*
X126035714Y-79970057D02*
X126083333Y-80065295D01*
X126083333Y-80065295D02*
X126083333Y-80208152D01*
X126083333Y-80208152D02*
X126035714Y-80303390D01*
X126035714Y-80303390D02*
X125988095Y-80351009D01*
X125988095Y-80351009D02*
X125892857Y-80398628D01*
X125892857Y-80398628D02*
X125511905Y-80398628D01*
X126464286Y-79970057D02*
X126511905Y-79922438D01*
X126511905Y-79922438D02*
X126607143Y-79874819D01*
X126607143Y-79874819D02*
X126845238Y-79874819D01*
X126845238Y-79874819D02*
X126940476Y-79922438D01*
X126940476Y-79922438D02*
X126988095Y-79970057D01*
X126988095Y-79970057D02*
X127035714Y-80065295D01*
X127035714Y-80065295D02*
X127035714Y-80160533D01*
X127035714Y-80160533D02*
X126988095Y-80303390D01*
X126988095Y-80303390D02*
X126416667Y-80874819D01*
X126416667Y-80874819D02*
X127035714Y-80874819D01*
X126833333Y-72374819D02*
X126500000Y-71898628D01*
X126261905Y-72374819D02*
X126261905Y-71374819D01*
X126261905Y-71374819D02*
X126642857Y-71374819D01*
X126642857Y-71374819D02*
X126738095Y-71422438D01*
X126738095Y-71422438D02*
X126785714Y-71470057D01*
X126785714Y-71470057D02*
X126833333Y-71565295D01*
X126833333Y-71565295D02*
X126833333Y-71708152D01*
X126833333Y-71708152D02*
X126785714Y-71803390D01*
X126785714Y-71803390D02*
X126738095Y-71851009D01*
X126738095Y-71851009D02*
X126642857Y-71898628D01*
X126642857Y-71898628D02*
X126261905Y-71898628D01*
X127785714Y-72374819D02*
X127214286Y-72374819D01*
X127500000Y-72374819D02*
X127500000Y-71374819D01*
X127500000Y-71374819D02*
X127404762Y-71517676D01*
X127404762Y-71517676D02*
X127309524Y-71612914D01*
X127309524Y-71612914D02*
X127214286Y-71660533D01*
X114844819Y-86333333D02*
X115559104Y-86333333D01*
X115559104Y-86333333D02*
X115701961Y-86380952D01*
X115701961Y-86380952D02*
X115797200Y-86476190D01*
X115797200Y-86476190D02*
X115844819Y-86619047D01*
X115844819Y-86619047D02*
X115844819Y-86714285D01*
X114940057Y-85904761D02*
X114892438Y-85857142D01*
X114892438Y-85857142D02*
X114844819Y-85761904D01*
X114844819Y-85761904D02*
X114844819Y-85523809D01*
X114844819Y-85523809D02*
X114892438Y-85428571D01*
X114892438Y-85428571D02*
X114940057Y-85380952D01*
X114940057Y-85380952D02*
X115035295Y-85333333D01*
X115035295Y-85333333D02*
X115130533Y-85333333D01*
X115130533Y-85333333D02*
X115273390Y-85380952D01*
X115273390Y-85380952D02*
X115844819Y-85952380D01*
X115844819Y-85952380D02*
X115844819Y-85333333D01*
X126666666Y-47954819D02*
X126666666Y-48669104D01*
X126666666Y-48669104D02*
X126619047Y-48811961D01*
X126619047Y-48811961D02*
X126523809Y-48907200D01*
X126523809Y-48907200D02*
X126380952Y-48954819D01*
X126380952Y-48954819D02*
X126285714Y-48954819D01*
X127666666Y-48954819D02*
X127095238Y-48954819D01*
X127380952Y-48954819D02*
X127380952Y-47954819D01*
X127380952Y-47954819D02*
X127285714Y-48097676D01*
X127285714Y-48097676D02*
X127190476Y-48192914D01*
X127190476Y-48192914D02*
X127095238Y-48240533D01*
X110011905Y-75914819D02*
X110011905Y-74914819D01*
X110011905Y-74914819D02*
X110250000Y-74914819D01*
X110250000Y-74914819D02*
X110392857Y-74962438D01*
X110392857Y-74962438D02*
X110488095Y-75057676D01*
X110488095Y-75057676D02*
X110535714Y-75152914D01*
X110535714Y-75152914D02*
X110583333Y-75343390D01*
X110583333Y-75343390D02*
X110583333Y-75486247D01*
X110583333Y-75486247D02*
X110535714Y-75676723D01*
X110535714Y-75676723D02*
X110488095Y-75771961D01*
X110488095Y-75771961D02*
X110392857Y-75867200D01*
X110392857Y-75867200D02*
X110250000Y-75914819D01*
X110250000Y-75914819D02*
X110011905Y-75914819D01*
X110916667Y-74914819D02*
X111535714Y-74914819D01*
X111535714Y-74914819D02*
X111202381Y-75295771D01*
X111202381Y-75295771D02*
X111345238Y-75295771D01*
X111345238Y-75295771D02*
X111440476Y-75343390D01*
X111440476Y-75343390D02*
X111488095Y-75391009D01*
X111488095Y-75391009D02*
X111535714Y-75486247D01*
X111535714Y-75486247D02*
X111535714Y-75724342D01*
X111535714Y-75724342D02*
X111488095Y-75819580D01*
X111488095Y-75819580D02*
X111440476Y-75867200D01*
X111440476Y-75867200D02*
X111345238Y-75914819D01*
X111345238Y-75914819D02*
X111059524Y-75914819D01*
X111059524Y-75914819D02*
X110964286Y-75867200D01*
X110964286Y-75867200D02*
X110916667Y-75819580D01*
X129954819Y-75238094D02*
X128954819Y-75238094D01*
X128954819Y-75238094D02*
X128954819Y-74999999D01*
X128954819Y-74999999D02*
X129002438Y-74857142D01*
X129002438Y-74857142D02*
X129097676Y-74761904D01*
X129097676Y-74761904D02*
X129192914Y-74714285D01*
X129192914Y-74714285D02*
X129383390Y-74666666D01*
X129383390Y-74666666D02*
X129526247Y-74666666D01*
X129526247Y-74666666D02*
X129716723Y-74714285D01*
X129716723Y-74714285D02*
X129811961Y-74761904D01*
X129811961Y-74761904D02*
X129907200Y-74857142D01*
X129907200Y-74857142D02*
X129954819Y-74999999D01*
X129954819Y-74999999D02*
X129954819Y-75238094D01*
X129050057Y-74285713D02*
X129002438Y-74238094D01*
X129002438Y-74238094D02*
X128954819Y-74142856D01*
X128954819Y-74142856D02*
X128954819Y-73904761D01*
X128954819Y-73904761D02*
X129002438Y-73809523D01*
X129002438Y-73809523D02*
X129050057Y-73761904D01*
X129050057Y-73761904D02*
X129145295Y-73714285D01*
X129145295Y-73714285D02*
X129240533Y-73714285D01*
X129240533Y-73714285D02*
X129383390Y-73761904D01*
X129383390Y-73761904D02*
X129954819Y-74333332D01*
X129954819Y-74333332D02*
X129954819Y-73714285D01*
X125491905Y-63744819D02*
X125491905Y-62744819D01*
X125491905Y-62744819D02*
X125730000Y-62744819D01*
X125730000Y-62744819D02*
X125872857Y-62792438D01*
X125872857Y-62792438D02*
X125968095Y-62887676D01*
X125968095Y-62887676D02*
X126015714Y-62982914D01*
X126015714Y-62982914D02*
X126063333Y-63173390D01*
X126063333Y-63173390D02*
X126063333Y-63316247D01*
X126063333Y-63316247D02*
X126015714Y-63506723D01*
X126015714Y-63506723D02*
X125968095Y-63601961D01*
X125968095Y-63601961D02*
X125872857Y-63697200D01*
X125872857Y-63697200D02*
X125730000Y-63744819D01*
X125730000Y-63744819D02*
X125491905Y-63744819D01*
X127015714Y-63744819D02*
X126444286Y-63744819D01*
X126730000Y-63744819D02*
X126730000Y-62744819D01*
X126730000Y-62744819D02*
X126634762Y-62887676D01*
X126634762Y-62887676D02*
X126539524Y-62982914D01*
X126539524Y-62982914D02*
X126444286Y-63030533D01*
X110378221Y-63609580D02*
X110330602Y-63657200D01*
X110330602Y-63657200D02*
X110187745Y-63704819D01*
X110187745Y-63704819D02*
X110092507Y-63704819D01*
X110092507Y-63704819D02*
X109949650Y-63657200D01*
X109949650Y-63657200D02*
X109854412Y-63561961D01*
X109854412Y-63561961D02*
X109806793Y-63466723D01*
X109806793Y-63466723D02*
X109759174Y-63276247D01*
X109759174Y-63276247D02*
X109759174Y-63133390D01*
X109759174Y-63133390D02*
X109806793Y-62942914D01*
X109806793Y-62942914D02*
X109854412Y-62847676D01*
X109854412Y-62847676D02*
X109949650Y-62752438D01*
X109949650Y-62752438D02*
X110092507Y-62704819D01*
X110092507Y-62704819D02*
X110187745Y-62704819D01*
X110187745Y-62704819D02*
X110330602Y-62752438D01*
X110330602Y-62752438D02*
X110378221Y-62800057D01*
X111235364Y-63038152D02*
X111235364Y-63704819D01*
X110997269Y-62657200D02*
X110759174Y-63371485D01*
X110759174Y-63371485D02*
X111378221Y-63371485D01*
X120583333Y-80109580D02*
X120535714Y-80157200D01*
X120535714Y-80157200D02*
X120392857Y-80204819D01*
X120392857Y-80204819D02*
X120297619Y-80204819D01*
X120297619Y-80204819D02*
X120154762Y-80157200D01*
X120154762Y-80157200D02*
X120059524Y-80061961D01*
X120059524Y-80061961D02*
X120011905Y-79966723D01*
X120011905Y-79966723D02*
X119964286Y-79776247D01*
X119964286Y-79776247D02*
X119964286Y-79633390D01*
X119964286Y-79633390D02*
X120011905Y-79442914D01*
X120011905Y-79442914D02*
X120059524Y-79347676D01*
X120059524Y-79347676D02*
X120154762Y-79252438D01*
X120154762Y-79252438D02*
X120297619Y-79204819D01*
X120297619Y-79204819D02*
X120392857Y-79204819D01*
X120392857Y-79204819D02*
X120535714Y-79252438D01*
X120535714Y-79252438D02*
X120583333Y-79300057D01*
X120916667Y-79204819D02*
X121535714Y-79204819D01*
X121535714Y-79204819D02*
X121202381Y-79585771D01*
X121202381Y-79585771D02*
X121345238Y-79585771D01*
X121345238Y-79585771D02*
X121440476Y-79633390D01*
X121440476Y-79633390D02*
X121488095Y-79681009D01*
X121488095Y-79681009D02*
X121535714Y-79776247D01*
X121535714Y-79776247D02*
X121535714Y-80014342D01*
X121535714Y-80014342D02*
X121488095Y-80109580D01*
X121488095Y-80109580D02*
X121440476Y-80157200D01*
X121440476Y-80157200D02*
X121345238Y-80204819D01*
X121345238Y-80204819D02*
X121059524Y-80204819D01*
X121059524Y-80204819D02*
X120964286Y-80157200D01*
X120964286Y-80157200D02*
X120916667Y-80109580D01*
X117609580Y-78916666D02*
X117657200Y-78964285D01*
X117657200Y-78964285D02*
X117704819Y-79107142D01*
X117704819Y-79107142D02*
X117704819Y-79202380D01*
X117704819Y-79202380D02*
X117657200Y-79345237D01*
X117657200Y-79345237D02*
X117561961Y-79440475D01*
X117561961Y-79440475D02*
X117466723Y-79488094D01*
X117466723Y-79488094D02*
X117276247Y-79535713D01*
X117276247Y-79535713D02*
X117133390Y-79535713D01*
X117133390Y-79535713D02*
X116942914Y-79488094D01*
X116942914Y-79488094D02*
X116847676Y-79440475D01*
X116847676Y-79440475D02*
X116752438Y-79345237D01*
X116752438Y-79345237D02*
X116704819Y-79202380D01*
X116704819Y-79202380D02*
X116704819Y-79107142D01*
X116704819Y-79107142D02*
X116752438Y-78964285D01*
X116752438Y-78964285D02*
X116800057Y-78916666D01*
X116800057Y-78535713D02*
X116752438Y-78488094D01*
X116752438Y-78488094D02*
X116704819Y-78392856D01*
X116704819Y-78392856D02*
X116704819Y-78154761D01*
X116704819Y-78154761D02*
X116752438Y-78059523D01*
X116752438Y-78059523D02*
X116800057Y-78011904D01*
X116800057Y-78011904D02*
X116895295Y-77964285D01*
X116895295Y-77964285D02*
X116990533Y-77964285D01*
X116990533Y-77964285D02*
X117133390Y-78011904D01*
X117133390Y-78011904D02*
X117704819Y-78583332D01*
X117704819Y-78583332D02*
X117704819Y-77964285D01*
X127833333Y-54859580D02*
X127785714Y-54907200D01*
X127785714Y-54907200D02*
X127642857Y-54954819D01*
X127642857Y-54954819D02*
X127547619Y-54954819D01*
X127547619Y-54954819D02*
X127404762Y-54907200D01*
X127404762Y-54907200D02*
X127309524Y-54811961D01*
X127309524Y-54811961D02*
X127261905Y-54716723D01*
X127261905Y-54716723D02*
X127214286Y-54526247D01*
X127214286Y-54526247D02*
X127214286Y-54383390D01*
X127214286Y-54383390D02*
X127261905Y-54192914D01*
X127261905Y-54192914D02*
X127309524Y-54097676D01*
X127309524Y-54097676D02*
X127404762Y-54002438D01*
X127404762Y-54002438D02*
X127547619Y-53954819D01*
X127547619Y-53954819D02*
X127642857Y-53954819D01*
X127642857Y-53954819D02*
X127785714Y-54002438D01*
X127785714Y-54002438D02*
X127833333Y-54050057D01*
X128785714Y-54954819D02*
X128214286Y-54954819D01*
X128500000Y-54954819D02*
X128500000Y-53954819D01*
X128500000Y-53954819D02*
X128404762Y-54097676D01*
X128404762Y-54097676D02*
X128309524Y-54192914D01*
X128309524Y-54192914D02*
X128214286Y-54240533D01*
X117638095Y-62404819D02*
X117638095Y-63214342D01*
X117638095Y-63214342D02*
X117685714Y-63309580D01*
X117685714Y-63309580D02*
X117733333Y-63357200D01*
X117733333Y-63357200D02*
X117828571Y-63404819D01*
X117828571Y-63404819D02*
X118019047Y-63404819D01*
X118019047Y-63404819D02*
X118114285Y-63357200D01*
X118114285Y-63357200D02*
X118161904Y-63309580D01*
X118161904Y-63309580D02*
X118209523Y-63214342D01*
X118209523Y-63214342D02*
X118209523Y-62404819D01*
X119209523Y-63404819D02*
X118638095Y-63404819D01*
X118923809Y-63404819D02*
X118923809Y-62404819D01*
X118923809Y-62404819D02*
X118828571Y-62547676D01*
X118828571Y-62547676D02*
X118733333Y-62642914D01*
X118733333Y-62642914D02*
X118638095Y-62690533D01*
%TO.C,R2*%
D12*
X128170000Y-79420000D02*
X124330000Y-79420000D01*
X128170000Y-77580000D02*
X124330000Y-77580000D01*
%TO.C,R1*%
X128920000Y-70920000D02*
X125080000Y-70920000D01*
X128920000Y-69080000D02*
X125080000Y-69080000D01*
%TO.C,J2*%
X118500000Y-84890000D02*
X124610000Y-84890000D01*
X124610000Y-87110000D02*
X124610000Y-84890000D01*
X118500000Y-87110000D02*
X118500000Y-84890000D01*
X118500000Y-87110000D02*
X124610000Y-87110000D01*
X117500000Y-87110000D02*
X116390000Y-87110000D01*
X116390000Y-87110000D02*
X116390000Y-86000000D01*
%TO.C,J1*%
X114500000Y-47947500D02*
X114160000Y-47477500D01*
X114840000Y-47477500D01*
X114500000Y-47947500D01*
G36*
X114500000Y-47947500D02*
G01*
X114160000Y-47477500D01*
X114840000Y-47477500D01*
X114500000Y-47947500D01*
G37*
X124760000Y-49767500D02*
X124760000Y-47947500D01*
X114800000Y-47947500D02*
X124760000Y-47947500D01*
X111240000Y-49767500D02*
X111240000Y-47947500D01*
X111240000Y-47947500D02*
X114200000Y-47947500D01*
%TO.C,D3*%
X109078563Y-71420000D02*
G75*
G02*
X112310000Y-71264484I1671437J-1080000D01*
G01*
X109709039Y-71420000D02*
G75*
G02*
X111790961Y-71420000I1040961J-1080000D01*
G01*
X111790961Y-73580000D02*
G75*
G02*
X109709039Y-73580000I-1040961J1080000D01*
G01*
X112310000Y-73735516D02*
G75*
G02*
X109078563Y-73580000I-1560000J1235516D01*
G01*
X112310000Y-71420000D02*
X112310000Y-71264000D01*
X112310000Y-73736000D02*
X112310000Y-73580000D01*
%TO.C,D2*%
X124690000Y-73514000D02*
X124690000Y-73670000D01*
X124690000Y-75830000D02*
X124690000Y-75986000D01*
X124690000Y-73514484D02*
G75*
G02*
X127921437Y-73670000I1560000J-1235516D01*
G01*
X125209039Y-73670000D02*
G75*
G02*
X127290961Y-73670000I1040961J-1080000D01*
G01*
X127290961Y-75830000D02*
G75*
G02*
X125209039Y-75830000I-1040961J1080000D01*
G01*
X127921437Y-75830000D02*
G75*
G02*
X124690000Y-75985516I-1671437J1080000D01*
G01*
%TO.C,D1*%
X127901437Y-67330000D02*
G75*
G02*
X124670000Y-67485516I-1671437J1080000D01*
G01*
X127270961Y-67330000D02*
G75*
G02*
X125189039Y-67330000I-1040961J1080000D01*
G01*
X125189039Y-65170000D02*
G75*
G02*
X127270961Y-65170000I1040961J-1080000D01*
G01*
X124670000Y-65014484D02*
G75*
G02*
X127901437Y-65170000I1560000J-1235516D01*
G01*
X124670000Y-67330000D02*
X124670000Y-67486000D01*
X124670000Y-65014000D02*
X124670000Y-65170000D01*
%TO.C,C4*%
X113164888Y-67000000D02*
G75*
G02*
X107924888Y-67000000I-2620000J0D01*
G01*
X107924888Y-67000000D02*
G75*
G02*
X113164888Y-67000000I2620000J0D01*
G01*
X113144888Y-66717000D02*
X113144888Y-67283000D01*
X113104888Y-66483000D02*
X113104888Y-67517000D01*
X113064888Y-66323000D02*
X113064888Y-67677000D01*
X113024888Y-66195000D02*
X113024888Y-67805000D01*
X112984888Y-66086000D02*
X112984888Y-67914000D01*
X112944888Y-65989000D02*
X112944888Y-68011000D01*
X112904888Y-65902000D02*
X112904888Y-68098000D01*
X112864888Y-65823000D02*
X112864888Y-68177000D01*
X112824888Y-65749000D02*
X112824888Y-68251000D01*
X112784888Y-65681000D02*
X112784888Y-68319000D01*
X112744888Y-65617000D02*
X112744888Y-68383000D01*
X112704888Y-65557000D02*
X112704888Y-68443000D01*
X112664888Y-65501000D02*
X112664888Y-68499000D01*
X112624888Y-65447000D02*
X112624888Y-68553000D01*
X112584888Y-65396000D02*
X112584888Y-68604000D01*
X112544888Y-68040000D02*
X112544888Y-68652000D01*
X112544888Y-65348000D02*
X112544888Y-65960000D01*
X112504888Y-68040000D02*
X112504888Y-68699000D01*
X112504888Y-65301000D02*
X112504888Y-65960000D01*
X112464888Y-68040000D02*
X112464888Y-68743000D01*
X112464888Y-65257000D02*
X112464888Y-65960000D01*
X112424888Y-68040000D02*
X112424888Y-68785000D01*
X112424888Y-65215000D02*
X112424888Y-65960000D01*
X112384888Y-68040000D02*
X112384888Y-68825000D01*
X112384888Y-65175000D02*
X112384888Y-65960000D01*
X112344888Y-68040000D02*
X112344888Y-68864000D01*
X112344888Y-65136000D02*
X112344888Y-65960000D01*
X112304888Y-68040000D02*
X112304888Y-68901000D01*
X112304888Y-65099000D02*
X112304888Y-65960000D01*
X112264888Y-68040000D02*
X112264888Y-68936000D01*
X112264888Y-65064000D02*
X112264888Y-65960000D01*
X112224888Y-68040000D02*
X112224888Y-68970000D01*
X112224888Y-65030000D02*
X112224888Y-65960000D01*
X112184888Y-68040000D02*
X112184888Y-69003000D01*
X112184888Y-64997000D02*
X112184888Y-65960000D01*
X112144888Y-68040000D02*
X112144888Y-69035000D01*
X112144888Y-64965000D02*
X112144888Y-65960000D01*
X112104888Y-68040000D02*
X112104888Y-69065000D01*
X112104888Y-64935000D02*
X112104888Y-65960000D01*
X112064888Y-68040000D02*
X112064888Y-69094000D01*
X112064888Y-64906000D02*
X112064888Y-65960000D01*
X112024888Y-68040000D02*
X112024888Y-69122000D01*
X112024888Y-64878000D02*
X112024888Y-65960000D01*
X111984888Y-68040000D02*
X111984888Y-69149000D01*
X111984888Y-64851000D02*
X111984888Y-65960000D01*
X111944888Y-68040000D02*
X111944888Y-69175000D01*
X111944888Y-64825000D02*
X111944888Y-65960000D01*
X111904888Y-68040000D02*
X111904888Y-69199000D01*
X111904888Y-64801000D02*
X111904888Y-65960000D01*
X111864888Y-68040000D02*
X111864888Y-69223000D01*
X111864888Y-64777000D02*
X111864888Y-65960000D01*
X111824888Y-68040000D02*
X111824888Y-69246000D01*
X111824888Y-64754000D02*
X111824888Y-65960000D01*
X111784888Y-68040000D02*
X111784888Y-69268000D01*
X111784888Y-64732000D02*
X111784888Y-65960000D01*
X111744888Y-68040000D02*
X111744888Y-69289000D01*
X111744888Y-64711000D02*
X111744888Y-65960000D01*
X111704888Y-68040000D02*
X111704888Y-69309000D01*
X111704888Y-64691000D02*
X111704888Y-65960000D01*
X111664888Y-68040000D02*
X111664888Y-69329000D01*
X111664888Y-64671000D02*
X111664888Y-65960000D01*
X111624888Y-68040000D02*
X111624888Y-69347000D01*
X111624888Y-64653000D02*
X111624888Y-65960000D01*
X111584888Y-68040000D02*
X111584888Y-69365000D01*
X111584888Y-64635000D02*
X111584888Y-65960000D01*
X111544888Y-68040000D02*
X111544888Y-69382000D01*
X111544888Y-64618000D02*
X111544888Y-65960000D01*
X111504888Y-68040000D02*
X111504888Y-69398000D01*
X111504888Y-64602000D02*
X111504888Y-65960000D01*
X111464888Y-68040000D02*
X111464888Y-69413000D01*
X111464888Y-64587000D02*
X111464888Y-65960000D01*
X111424888Y-68040000D02*
X111424888Y-69428000D01*
X111424888Y-64572000D02*
X111424888Y-65960000D01*
X111384888Y-68040000D02*
X111384888Y-69442000D01*
X111384888Y-64558000D02*
X111384888Y-65960000D01*
X111344888Y-68040000D02*
X111344888Y-69455000D01*
X111344888Y-64545000D02*
X111344888Y-65960000D01*
X111304888Y-68040000D02*
X111304888Y-69467000D01*
X111304888Y-64533000D02*
X111304888Y-65960000D01*
X111264888Y-68040000D02*
X111264888Y-69479000D01*
X111264888Y-64521000D02*
X111264888Y-65960000D01*
X111224888Y-68040000D02*
X111224888Y-69490000D01*
X111224888Y-64510000D02*
X111224888Y-65960000D01*
X111184888Y-68040000D02*
X111184888Y-69501000D01*
X111184888Y-64499000D02*
X111184888Y-65960000D01*
X111144888Y-68040000D02*
X111144888Y-69510000D01*
X111144888Y-64490000D02*
X111144888Y-65960000D01*
X111104888Y-68040000D02*
X111104888Y-69519000D01*
X111104888Y-64481000D02*
X111104888Y-65960000D01*
X111064888Y-68040000D02*
X111064888Y-69528000D01*
X111064888Y-64472000D02*
X111064888Y-65960000D01*
X111024888Y-68040000D02*
X111024888Y-69536000D01*
X111024888Y-64464000D02*
X111024888Y-65960000D01*
X110984888Y-68040000D02*
X110984888Y-69543000D01*
X110984888Y-64457000D02*
X110984888Y-65960000D01*
X110944888Y-68040000D02*
X110944888Y-69549000D01*
X110944888Y-64451000D02*
X110944888Y-65960000D01*
X110904888Y-68040000D02*
X110904888Y-69555000D01*
X110904888Y-64445000D02*
X110904888Y-65960000D01*
X110864888Y-68040000D02*
X110864888Y-69560000D01*
X110864888Y-64440000D02*
X110864888Y-65960000D01*
X110824888Y-68040000D02*
X110824888Y-69565000D01*
X110824888Y-64435000D02*
X110824888Y-65960000D01*
X110784888Y-68040000D02*
X110784888Y-69569000D01*
X110784888Y-64431000D02*
X110784888Y-65960000D01*
X110744888Y-68040000D02*
X110744888Y-69572000D01*
X110744888Y-64428000D02*
X110744888Y-65960000D01*
X110704888Y-68040000D02*
X110704888Y-69575000D01*
X110704888Y-64425000D02*
X110704888Y-65960000D01*
X110664888Y-68040000D02*
X110664888Y-69577000D01*
X110664888Y-64423000D02*
X110664888Y-65960000D01*
X110624888Y-68040000D02*
X110624888Y-69579000D01*
X110624888Y-64421000D02*
X110624888Y-65960000D01*
X110584888Y-68040000D02*
X110584888Y-69580000D01*
X110584888Y-64420000D02*
X110584888Y-65960000D01*
X110544888Y-68040000D02*
X110544888Y-69580000D01*
X110544888Y-64420000D02*
X110544888Y-65960000D01*
X107990113Y-65275000D02*
X107990113Y-65775000D01*
X107740113Y-65525000D02*
X108240113Y-65525000D01*
%TO.C,C3*%
X123870000Y-83620000D02*
X117630000Y-83620000D01*
X123870000Y-83085000D02*
X123870000Y-83620000D01*
X123870000Y-80880000D02*
X123870000Y-81415000D01*
X117630000Y-83620000D02*
X117630000Y-83085000D01*
X117630000Y-81415000D02*
X117630000Y-80880000D01*
X117630000Y-80880000D02*
X123870000Y-80880000D01*
%TO.C,C2*%
X113380000Y-81870000D02*
X113380000Y-75630000D01*
X113915000Y-81870000D02*
X113380000Y-81870000D01*
X116120000Y-81870000D02*
X115585000Y-81870000D01*
X113380000Y-75630000D02*
X113915000Y-75630000D01*
X115585000Y-75630000D02*
X116120000Y-75630000D01*
X116120000Y-75630000D02*
X116120000Y-81870000D01*
%TO.C,C1*%
X126630000Y-62020000D02*
X126630000Y-55780000D01*
X127165000Y-62020000D02*
X126630000Y-62020000D01*
X129370000Y-62020000D02*
X128835000Y-62020000D01*
X126630000Y-55780000D02*
X127165000Y-55780000D01*
X128835000Y-55780000D02*
X129370000Y-55780000D01*
X129370000Y-55780000D02*
X129370000Y-62020000D01*
%TO.C,U1*%
X114900000Y-64310000D02*
X114560000Y-63840000D01*
X115240000Y-63840000D01*
X114900000Y-64310000D01*
G36*
X114900000Y-64310000D02*
G01*
X114560000Y-63840000D01*
X115240000Y-63840000D01*
X114900000Y-64310000D01*
G37*
X121160000Y-74210000D02*
X115640000Y-74210000D01*
X121160000Y-73685000D02*
X121160000Y-74210000D01*
X121160000Y-63790000D02*
X121160000Y-64315000D01*
X115640000Y-74210000D02*
X115640000Y-73685000D01*
X115640000Y-64315000D02*
X115640000Y-63790000D01*
X115640000Y-63790000D02*
X121160000Y-63790000D01*
%TD*%
M02*
