%TF.GenerationSoftware,KiCad,Pcbnew,10.0.3*%
%TF.CreationDate,2026-06-25T19:54:13+05:45*%
%TF.ProjectId,USB2UART,55534232-5541-4525-942e-6b696361645f,rev?*%
%TF.SameCoordinates,Original*%
%TF.FileFunction,Copper,L1,Top*%
%TF.FilePolarity,Positive*%
%FSLAX46Y46*%
G04 Gerber Fmt 4.6, Leading zero omitted, Abs format (unit mm)*
G04 Created by KiCad (PCBNEW 10.0.3) date 2026-06-25 19:54:13*
%MOMM*%
%LPD*%
G01*
G04 APERTURE LIST*
G04 Aperture macros list*
%AMRoundRect*
0 Rectangle with rounded corners*
0 $1 Rounding radius*
0 $2 $3 $4 $5 $6 $7 $8 $9 X,Y pos of 4 corners*
0 Add a 4 corners polygon primitive as box body*
4,1,4,$2,$3,$4,$5,$6,$7,$8,$9,$2,$3,0*
0 Add four circle primitives for the rounded corners*
1,1,$1+$1,$2,$3*
1,1,$1+$1,$4,$5*
1,1,$1+$1,$6,$7*
1,1,$1+$1,$8,$9*
0 Add four rect primitives between the rounded corners*
20,1,$1+$1,$2,$3,$4,$5,0*
20,1,$1+$1,$4,$5,$6,$7,0*
20,1,$1+$1,$6,$7,$8,$9,0*
20,1,$1+$1,$8,$9,$2,$3,0*%
G04 Aperture macros list end*
%TA.AperFunction,ComponentPad*%
%ADD10C,1.400000*%
%TD*%
%TA.AperFunction,ComponentPad*%
%ADD11C,1.350000*%
%TD*%
%TA.AperFunction,ComponentPad*%
%ADD12R,1.350000X1.350000*%
%TD*%
%TA.AperFunction,ComponentPad*%
%ADD13C,3.500000*%
%TD*%
%TA.AperFunction,ComponentPad*%
%ADD14C,1.524000*%
%TD*%
%TA.AperFunction,ComponentPad*%
%ADD15RoundRect,0.250000X-0.512000X-0.512000X0.512000X-0.512000X0.512000X0.512000X-0.512000X0.512000X0*%
%TD*%
%TA.AperFunction,ComponentPad*%
%ADD16C,1.800000*%
%TD*%
%TA.AperFunction,ComponentPad*%
%ADD17R,1.800000X1.800000*%
%TD*%
%TA.AperFunction,ComponentPad*%
%ADD18C,1.600000*%
%TD*%
%TA.AperFunction,ComponentPad*%
%ADD19RoundRect,0.250000X-0.550000X-0.550000X0.550000X-0.550000X0.550000X0.550000X-0.550000X0.550000X0*%
%TD*%
%TA.AperFunction,SMDPad,CuDef*%
%ADD20RoundRect,0.100000X-0.850000X-0.100000X0.850000X-0.100000X0.850000X0.100000X-0.850000X0.100000X0*%
%TD*%
%TA.AperFunction,ViaPad*%
%ADD21C,0.600000*%
%TD*%
%TA.AperFunction,Conductor*%
%ADD22C,0.400000*%
%TD*%
G04 APERTURE END LIST*
D10*
%TO.P,R2,1*%
%TO.N,Net-(D2-A)*%
X128790000Y-78500000D03*
%TO.P,R2,2*%
%TO.N,VCC*%
X123710000Y-78500000D03*
%TD*%
%TO.P,R1,1*%
%TO.N,Net-(D1-A)*%
X129540000Y-70000000D03*
%TO.P,R1,2*%
%TO.N,VCC*%
X124460000Y-70000000D03*
%TD*%
D11*
%TO.P,J2,4,Pin_4_4*%
%TO.N,VCC*%
X123500000Y-86000000D03*
%TO.P,J2,3,Pin_3_3*%
%TO.N,Net-(J2-Pin_3)*%
X121500000Y-86000000D03*
%TO.P,J2,2,Pin_2_2*%
%TO.N,Net-(J2-Pin_2)*%
X119500000Y-86000000D03*
D12*
%TO.P,J2,1,Pin_1_1*%
%TO.N,GND*%
X117500000Y-86000000D03*
%TD*%
D13*
%TO.P,J1,SH,Shield_SH*%
%TO.N,GND*%
X124570000Y-51777500D03*
X111430000Y-51777500D03*
D14*
%TO.P,J1,4,GND_4*%
X121500000Y-49067500D03*
%TO.P,J1,3,D+_3*%
%TO.N,Net-(J1-D+)*%
X119000000Y-49067500D03*
%TO.P,J1,2,D-_2*%
%TO.N,Net-(J1-D-)*%
X117000000Y-49067500D03*
D15*
%TO.P,J1,1,VBUS_1*%
%TO.N,VCC*%
X114500000Y-49067500D03*
%TD*%
D16*
%TO.P,D3,2,A_2*%
%TO.N,VCC*%
X109480000Y-72500000D03*
D17*
%TO.P,D3,1,K_1*%
%TO.N,GND*%
X112020000Y-72500000D03*
%TD*%
%TO.P,D2,1,K_1*%
%TO.N,Net-(D2-K)*%
X124980000Y-74750000D03*
D16*
%TO.P,D2,2,A_2*%
%TO.N,Net-(D2-A)*%
X127520000Y-74750000D03*
%TD*%
%TO.P,D1,2,A_2*%
%TO.N,Net-(D1-A)*%
X127500000Y-66250000D03*
D17*
%TO.P,D1,1,K_1*%
%TO.N,Net-(D1-K)*%
X124960000Y-66250000D03*
%TD*%
D18*
%TO.P,C4,2*%
%TO.N,GND*%
X111544888Y-67000000D03*
D19*
%TO.P,C4,1*%
%TO.N,VCC*%
X109544888Y-67000000D03*
%TD*%
D18*
%TO.P,C3,2*%
%TO.N,VCC*%
X123250000Y-82250000D03*
%TO.P,C3,1*%
%TO.N,GND*%
X118250000Y-82250000D03*
%TD*%
%TO.P,C2,2*%
%TO.N,Net-(U1-3V3OUT)*%
X114750000Y-81250000D03*
%TO.P,C2,1*%
%TO.N,GND*%
X114750000Y-76250000D03*
%TD*%
%TO.P,C1,2*%
%TO.N,GND*%
X128000000Y-61400000D03*
%TO.P,C1,1*%
%TO.N,VCC*%
X128000000Y-56400000D03*
%TD*%
D20*
%TO.P,U1,28,OSCO_28*%
%TO.N,unconnected-(U1-OSCO-Pad28)*%
X121900000Y-64775000D03*
%TO.P,U1,27,OSCI_27*%
%TO.N,unconnected-(U1-OSCI-Pad27)*%
X121900000Y-65425000D03*
%TO.P,U1,26,TEST_26*%
%TO.N,GND*%
X121900000Y-66075000D03*
%TO.P,U1,25,AGND_25*%
X121900000Y-66725000D03*
%TO.P,U1,24*%
%TO.N,N/C*%
X121900000Y-67375000D03*
%TO.P,U1,23,CBUS0_23*%
%TO.N,Net-(D2-K)*%
X121900000Y-68025000D03*
%TO.P,U1,22,CBUS1_22*%
%TO.N,Net-(D1-K)*%
X121900000Y-68675000D03*
%TO.P,U1,21,GND_21*%
%TO.N,GND*%
X121900000Y-69325000D03*
%TO.P,U1,20,VCC_20*%
%TO.N,VCC*%
X121900000Y-69975000D03*
%TO.P,U1,19,~{RESET}_19*%
%TO.N,unconnected-(U1-~{RESET}-Pad19)*%
X121900000Y-70625000D03*
%TO.P,U1,18,GND_18*%
%TO.N,GND*%
X121900000Y-71275000D03*
%TO.P,U1,17,3V3OUT_17*%
%TO.N,Net-(U1-3V3OUT)*%
X121900000Y-71925000D03*
%TO.P,U1,16,USBD-_16*%
%TO.N,Net-(J1-D-)*%
X121900000Y-72575000D03*
%TO.P,U1,15,USBD+_15*%
%TO.N,Net-(J1-D+)*%
X121900000Y-73225000D03*
%TO.P,U1,14,CBUS3_14*%
%TO.N,unconnected-(U1-CBUS3-Pad14)*%
X114900000Y-73225000D03*
%TO.P,U1,13,CBUS2_13*%
%TO.N,unconnected-(U1-CBUS2-Pad13)*%
X114900000Y-72575000D03*
%TO.P,U1,12,CBUS4_12*%
%TO.N,unconnected-(U1-CBUS4-Pad12)*%
X114900000Y-71925000D03*
%TO.P,U1,11,CTS_11*%
%TO.N,unconnected-(U1-CTS-Pad11)*%
X114900000Y-71275000D03*
%TO.P,U1,10,DCD_10*%
%TO.N,unconnected-(U1-DCD-Pad10)*%
X114900000Y-70625000D03*
%TO.P,U1,9,DCR_9*%
%TO.N,unconnected-(U1-DCR-Pad9)*%
X114900000Y-69975000D03*
%TO.P,U1,8*%
%TO.N,N/C*%
X114900000Y-69325000D03*
%TO.P,U1,7,GND_7*%
%TO.N,GND*%
X114900000Y-68675000D03*
%TO.P,U1,6,RI_6*%
%TO.N,unconnected-(U1-RI-Pad6)*%
X114900000Y-68025000D03*
%TO.P,U1,5,RXD_5*%
%TO.N,Net-(J2-Pin_2)*%
X114900000Y-67375000D03*
%TO.P,U1,4,VCCIO_4*%
%TO.N,VCC*%
X114900000Y-66725000D03*
%TO.P,U1,3,RTS_3*%
%TO.N,unconnected-(U1-RTS-Pad3)*%
X114900000Y-66075000D03*
%TO.P,U1,2,DTR_2*%
%TO.N,unconnected-(U1-DTR-Pad2)*%
X114900000Y-65425000D03*
%TO.P,U1,1,TXD_1*%
%TO.N,Net-(J2-Pin_3)*%
X114900000Y-64775000D03*
%TD*%
D21*
%TO.N,GND*%
X127450000Y-70025000D03*
X123225000Y-69275000D03*
X126125000Y-72100000D03*
X123450000Y-70950000D03*
X120000000Y-66325000D03*
X117750000Y-64675000D03*
X112775000Y-68875000D03*
%TO.N,Net-(J1-D-)*%
X120100000Y-51900000D03*
%TO.N,Net-(U1-3V3OUT)*%
X123575000Y-71925000D03*
%TO.N,Net-(D2-K)*%
X120400000Y-68500000D03*
X120700000Y-74500000D03*
%TD*%
%TO.N,GND*%
D22*
X120075000Y-66750000D02*
X120075000Y-66825000D01*
X120100000Y-66725000D02*
X120075000Y-66750000D01*
X121900000Y-66725000D02*
X120100000Y-66725000D01*
X123175000Y-69325000D02*
X123225000Y-69275000D01*
X121900000Y-69325000D02*
X123175000Y-69325000D01*
X123125000Y-71275000D02*
X123450000Y-70950000D01*
X121900000Y-71275000D02*
X123125000Y-71275000D01*
X120250000Y-66075000D02*
X120000000Y-66325000D01*
X121900000Y-66075000D02*
X120250000Y-66075000D01*
X121900000Y-66075000D02*
X121900000Y-66725000D01*
X112975000Y-68675000D02*
X114900000Y-68675000D01*
X112775000Y-68875000D02*
X112975000Y-68675000D01*
%TO.N,Net-(J1-D-)*%
X126273000Y-58073000D02*
X120100000Y-51900000D01*
X123811712Y-72575000D02*
X126273000Y-70113712D01*
X121900000Y-72575000D02*
X123811712Y-72575000D01*
X126273000Y-70113712D02*
X126273000Y-58073000D01*
%TO.N,Net-(J1-D+)*%
X120554000Y-69540712D02*
X119000000Y-67986712D01*
X119000000Y-67986712D02*
X119000000Y-49067500D01*
X120950001Y-73225000D02*
X120554000Y-72828999D01*
X120554000Y-72828999D02*
X120554000Y-69540712D01*
X121900000Y-73225000D02*
X120950001Y-73225000D01*
%TO.N,Net-(U1-3V3OUT)*%
X121900000Y-71925000D02*
X123575000Y-71925000D01*
%TO.N,VCC*%
X124435000Y-69975000D02*
X124460000Y-70000000D01*
X121900000Y-69975000D02*
X124435000Y-69975000D01*
%TO.N,Net-(D2-K)*%
X121250000Y-74750000D02*
X124980000Y-74750000D01*
X120700000Y-74500000D02*
X121250000Y-74750000D01*
X120875000Y-68025000D02*
X121900000Y-68025000D01*
X120400000Y-68500000D02*
X120875000Y-68025000D01*
%TO.N,VCC*%
X110500000Y-65250000D02*
X109544888Y-67000000D01*
X112250000Y-65250000D02*
X110500000Y-65250000D01*
X113950001Y-66725000D02*
X112250000Y-65250000D01*
X114900000Y-66725000D02*
X113950001Y-66725000D01*
%TO.N,Net-(J2-Pin_3)*%
X120027000Y-70777000D02*
X120027000Y-84527000D01*
X120027000Y-84527000D02*
X121500000Y-86000000D01*
X116750000Y-65675001D02*
X116750000Y-67500000D01*
X115849999Y-64775000D02*
X116750000Y-65675001D01*
X114900000Y-64775000D02*
X115849999Y-64775000D01*
X116750000Y-67500000D02*
X120027000Y-70777000D01*
%TO.N,Net-(J2-Pin_2)*%
X115806640Y-67375000D02*
X114900000Y-67375000D01*
X119500000Y-71068360D02*
X115806640Y-67375000D01*
X119500000Y-86000000D02*
X119500000Y-71068360D01*
%TO.N,Net-(D1-K)*%
X124960000Y-66564999D02*
X124960000Y-66250000D01*
X122849999Y-68675000D02*
X124960000Y-66564999D01*
X121900000Y-68675000D02*
X122849999Y-68675000D01*
%TD*%
%TA.AperFunction,Conductor*%
%TO.N,GND*%
G36*
X119905703Y-52696805D02*
G01*
X119912166Y-52702823D01*
X122762125Y-55552781D01*
X125536181Y-58326837D01*
X125569666Y-58388160D01*
X125572500Y-58414518D01*
X125572500Y-64725500D01*
X125552815Y-64792539D01*
X125500011Y-64838294D01*
X125448500Y-64849500D01*
X124012129Y-64849500D01*
X124012123Y-64849501D01*
X123952516Y-64855908D01*
X123817671Y-64906202D01*
X123817664Y-64906206D01*
X123702455Y-64992452D01*
X123702452Y-64992455D01*
X123616206Y-65107664D01*
X123616203Y-65107669D01*
X123576596Y-65213861D01*
X123557600Y-65239235D01*
X123540020Y-65265600D01*
X123536817Y-65266997D01*
X123534724Y-65269794D01*
X123505032Y-65280868D01*
X123475982Y-65293546D01*
X123472532Y-65292990D01*
X123469260Y-65294211D01*
X123438296Y-65287475D01*
X123407002Y-65282434D01*
X123404400Y-65280101D01*
X123400987Y-65279359D01*
X123378573Y-65256945D01*
X123354980Y-65235792D01*
X123353627Y-65231999D01*
X123351582Y-65229954D01*
X123340863Y-65203444D01*
X123338593Y-65195201D01*
X123335044Y-65168238D01*
X123323487Y-65140339D01*
X123321444Y-65132917D01*
X123321910Y-65105373D01*
X123318965Y-65077986D01*
X123322581Y-65065667D01*
X123322626Y-65063058D01*
X123323916Y-65061122D01*
X123326435Y-65052545D01*
X123326584Y-65052185D01*
X123335044Y-65031762D01*
X123350500Y-64914361D01*
X123350499Y-64635640D01*
X123350499Y-64635638D01*
X123350499Y-64635636D01*
X123335046Y-64518246D01*
X123335044Y-64518239D01*
X123335044Y-64518238D01*
X123274536Y-64372159D01*
X123178282Y-64246718D01*
X123052841Y-64150464D01*
X122934438Y-64101420D01*
X122906762Y-64089956D01*
X122906760Y-64089955D01*
X122789370Y-64074501D01*
X122789367Y-64074500D01*
X122789361Y-64074500D01*
X122789354Y-64074500D01*
X121010636Y-64074500D01*
X120893246Y-64089953D01*
X120893237Y-64089956D01*
X120747160Y-64150463D01*
X120621718Y-64246718D01*
X120525463Y-64372160D01*
X120464956Y-64518237D01*
X120464955Y-64518239D01*
X120449500Y-64635638D01*
X120449500Y-64914363D01*
X120464953Y-65031753D01*
X120464957Y-65031765D01*
X120473566Y-65052550D01*
X120481033Y-65122019D01*
X120473566Y-65147450D01*
X120464957Y-65168234D01*
X120464955Y-65168239D01*
X120449500Y-65285638D01*
X120449500Y-65564363D01*
X120464953Y-65681753D01*
X120464956Y-65681762D01*
X120473837Y-65703203D01*
X120481304Y-65772673D01*
X120473838Y-65798103D01*
X120465443Y-65818370D01*
X120457987Y-65875000D01*
X120500500Y-65875000D01*
X120567539Y-65894685D01*
X120581761Y-65905338D01*
X120591239Y-65913561D01*
X120621718Y-65953282D01*
X120747159Y-66049536D01*
X120748701Y-66050175D01*
X120756958Y-66057338D01*
X120773892Y-66083724D01*
X120792386Y-66109052D01*
X120792615Y-66112896D01*
X120794696Y-66116139D01*
X120794676Y-66147496D01*
X120796541Y-66178798D01*
X120794654Y-66182157D01*
X120794652Y-66186009D01*
X120777689Y-66212367D01*
X120762329Y-66239719D01*
X120758924Y-66241525D01*
X120756841Y-66244763D01*
X120728313Y-66257770D01*
X120700611Y-66272471D01*
X120694770Y-66273063D01*
X120693268Y-66273749D01*
X120691102Y-66273436D01*
X120675697Y-66275000D01*
X120457990Y-66275000D01*
X120457988Y-66275001D01*
X120465442Y-66331627D01*
X120465443Y-66331629D01*
X120474108Y-66352549D01*
X120481576Y-66422018D01*
X120474109Y-66447449D01*
X120465443Y-66468370D01*
X120457987Y-66525000D01*
X120675697Y-66525000D01*
X120701016Y-66532434D01*
X120727138Y-66536174D01*
X120734012Y-66542123D01*
X120742736Y-66544685D01*
X120760014Y-66564625D01*
X120779971Y-66581896D01*
X120782538Y-66590619D01*
X120788491Y-66597489D01*
X120792246Y-66623606D01*
X120799697Y-66648923D01*
X120797141Y-66657647D01*
X120798435Y-66666647D01*
X120787472Y-66690651D01*
X120780054Y-66715975D01*
X120771815Y-66724935D01*
X120769410Y-66730203D01*
X120756958Y-66742662D01*
X120748701Y-66749824D01*
X120747159Y-66750464D01*
X120621718Y-66846718D01*
X120591239Y-66886438D01*
X120581761Y-66894662D01*
X120560940Y-66904186D01*
X120542447Y-66917690D01*
X120524634Y-66920794D01*
X120518223Y-66923727D01*
X120512503Y-66922908D01*
X120500500Y-66925000D01*
X120457990Y-66925000D01*
X120457988Y-66925001D01*
X120465441Y-66981622D01*
X120465445Y-66981634D01*
X120473837Y-67001895D01*
X120481304Y-67071364D01*
X120473838Y-67096794D01*
X120464956Y-67118238D01*
X120464955Y-67118239D01*
X120449501Y-67235629D01*
X120449500Y-67235645D01*
X120449500Y-67408480D01*
X120429815Y-67475519D01*
X120413181Y-67496161D01*
X120205412Y-67703929D01*
X120202256Y-67706176D01*
X120201148Y-67707995D01*
X120187918Y-67716387D01*
X120171921Y-67727780D01*
X120167023Y-67730159D01*
X120166503Y-67730263D01*
X120020821Y-67790606D01*
X119962742Y-67829412D01*
X119955094Y-67833129D01*
X119928680Y-67837572D01*
X119903116Y-67845577D01*
X119894748Y-67843281D01*
X119886192Y-67844721D01*
X119861568Y-67834178D01*
X119835736Y-67827092D01*
X119824795Y-67818435D01*
X119821962Y-67817222D01*
X119820461Y-67815005D01*
X119813223Y-67809278D01*
X119736819Y-67732874D01*
X119703334Y-67671551D01*
X119700500Y-67645193D01*
X119700500Y-52790518D01*
X119720185Y-52723479D01*
X119772989Y-52677724D01*
X119842147Y-52667780D01*
X119905703Y-52696805D01*
G37*
%TD.AperFunction*%
%TA.AperFunction,Conductor*%
G36*
X130442539Y-47520185D02*
G01*
X130488294Y-47572989D01*
X130499500Y-47624500D01*
X130499500Y-68969854D01*
X130479815Y-69036893D01*
X130427011Y-69082648D01*
X130357853Y-69092592D01*
X130302614Y-69070172D01*
X130169199Y-68973240D01*
X130000836Y-68887454D01*
X129821118Y-68829059D01*
X129634486Y-68799500D01*
X129634481Y-68799500D01*
X129445519Y-68799500D01*
X129445514Y-68799500D01*
X129258881Y-68829059D01*
X129079163Y-68887454D01*
X128910800Y-68973240D01*
X128844564Y-69021364D01*
X128757927Y-69084310D01*
X128757925Y-69084312D01*
X128757924Y-69084312D01*
X128624312Y-69217924D01*
X128624312Y-69217925D01*
X128624310Y-69217927D01*
X128623448Y-69219114D01*
X128513240Y-69370800D01*
X128427454Y-69539163D01*
X128369059Y-69718881D01*
X128339500Y-69905513D01*
X128339500Y-70094486D01*
X128369059Y-70281118D01*
X128427454Y-70460836D01*
X128478111Y-70560255D01*
X128513240Y-70629199D01*
X128624310Y-70782073D01*
X128757927Y-70915690D01*
X128910801Y-71026760D01*
X128990347Y-71067290D01*
X129079163Y-71112545D01*
X129079165Y-71112545D01*
X129079168Y-71112547D01*
X129175497Y-71143846D01*
X129258881Y-71170940D01*
X129445514Y-71200500D01*
X129445519Y-71200500D01*
X129634486Y-71200500D01*
X129821118Y-71170940D01*
X130000832Y-71112547D01*
X130169199Y-71026760D01*
X130302616Y-70929826D01*
X130368420Y-70906347D01*
X130436474Y-70922172D01*
X130485169Y-70972278D01*
X130499500Y-71030145D01*
X130499500Y-87375500D01*
X130479815Y-87442539D01*
X130427011Y-87488294D01*
X130375500Y-87499500D01*
X107874500Y-87499500D01*
X107807461Y-87479815D01*
X107761706Y-87427011D01*
X107750500Y-87375500D01*
X107750500Y-81147648D01*
X113449500Y-81147648D01*
X113449500Y-81352351D01*
X113481522Y-81554534D01*
X113544781Y-81749223D01*
X113608691Y-81874653D01*
X113637712Y-81931609D01*
X113637715Y-81931613D01*
X113758028Y-82097213D01*
X113902786Y-82241971D01*
X114057749Y-82354556D01*
X114068390Y-82362287D01*
X114151030Y-82404394D01*
X114250776Y-82455218D01*
X114250778Y-82455218D01*
X114250781Y-82455220D01*
X114296608Y-82470110D01*
X114445465Y-82518477D01*
X114546557Y-82534488D01*
X114647648Y-82550500D01*
X114647649Y-82550500D01*
X114852351Y-82550500D01*
X114852352Y-82550500D01*
X115054534Y-82518477D01*
X115249219Y-82455220D01*
X115431610Y-82362287D01*
X115586160Y-82250001D01*
X115597213Y-82241971D01*
X115597215Y-82241968D01*
X115597219Y-82241966D01*
X115741966Y-82097219D01*
X115750987Y-82084801D01*
X115761793Y-82069930D01*
X115823103Y-81985542D01*
X115862287Y-81931610D01*
X115955220Y-81749219D01*
X116018477Y-81554534D01*
X116050500Y-81352352D01*
X116050500Y-81147648D01*
X116018477Y-80945466D01*
X115955220Y-80750781D01*
X115955218Y-80750778D01*
X115955218Y-80750776D01*
X115921503Y-80684607D01*
X115862287Y-80568390D01*
X115854556Y-80557749D01*
X115741971Y-80402786D01*
X115597213Y-80258028D01*
X115431613Y-80137715D01*
X115431612Y-80137714D01*
X115431610Y-80137713D01*
X115374653Y-80108691D01*
X115249223Y-80044781D01*
X115054534Y-79981522D01*
X114879995Y-79953878D01*
X114852352Y-79949500D01*
X114647648Y-79949500D01*
X114623329Y-79953351D01*
X114445465Y-79981522D01*
X114250776Y-80044781D01*
X114068386Y-80137715D01*
X113902786Y-80258028D01*
X113758028Y-80402786D01*
X113637715Y-80568386D01*
X113544781Y-80750776D01*
X113481522Y-80945465D01*
X113449500Y-81147648D01*
X107750500Y-81147648D01*
X107750500Y-76147682D01*
X113450000Y-76147682D01*
X113450000Y-76352317D01*
X113482009Y-76554417D01*
X113545244Y-76749031D01*
X113638141Y-76931350D01*
X113638147Y-76931359D01*
X113670523Y-76975921D01*
X113670524Y-76975922D01*
X114350000Y-76296446D01*
X114350000Y-76302661D01*
X114377259Y-76404394D01*
X114429920Y-76495606D01*
X114504394Y-76570080D01*
X114595606Y-76622741D01*
X114697339Y-76650000D01*
X114703553Y-76650000D01*
X114024076Y-77329474D01*
X114068650Y-77361859D01*
X114250968Y-77454755D01*
X114445582Y-77517990D01*
X114647683Y-77550000D01*
X114852317Y-77550000D01*
X115054417Y-77517990D01*
X115249031Y-77454755D01*
X115431349Y-77361859D01*
X115475921Y-77329474D01*
X114796447Y-76650000D01*
X114802661Y-76650000D01*
X114904394Y-76622741D01*
X114995606Y-76570080D01*
X115070080Y-76495606D01*
X115122741Y-76404394D01*
X115150000Y-76302661D01*
X115150000Y-76296448D01*
X115829474Y-76975922D01*
X115829474Y-76975921D01*
X115861859Y-76931349D01*
X115954755Y-76749031D01*
X116017990Y-76554417D01*
X116050000Y-76352317D01*
X116050000Y-76147682D01*
X116017990Y-75945582D01*
X115954755Y-75750968D01*
X115861859Y-75568650D01*
X115829474Y-75524077D01*
X115829474Y-75524076D01*
X115150000Y-76203551D01*
X115150000Y-76197339D01*
X115122741Y-76095606D01*
X115070080Y-76004394D01*
X114995606Y-75929920D01*
X114904394Y-75877259D01*
X114802661Y-75850000D01*
X114796446Y-75850000D01*
X115475922Y-75170524D01*
X115475921Y-75170523D01*
X115431359Y-75138147D01*
X115431350Y-75138141D01*
X115249031Y-75045244D01*
X115054417Y-74982009D01*
X114852317Y-74950000D01*
X114647683Y-74950000D01*
X114445582Y-74982009D01*
X114250968Y-75045244D01*
X114068644Y-75138143D01*
X114024077Y-75170523D01*
X114024077Y-75170524D01*
X114703554Y-75850000D01*
X114697339Y-75850000D01*
X114595606Y-75877259D01*
X114504394Y-75929920D01*
X114429920Y-76004394D01*
X114377259Y-76095606D01*
X114350000Y-76197339D01*
X114350000Y-76203553D01*
X113670524Y-75524077D01*
X113670523Y-75524077D01*
X113638143Y-75568644D01*
X113545244Y-75750968D01*
X113482009Y-75945582D01*
X113450000Y-76147682D01*
X107750500Y-76147682D01*
X107750500Y-72389778D01*
X108079500Y-72389778D01*
X108079500Y-72610221D01*
X108113985Y-72827952D01*
X108182103Y-73037603D01*
X108182104Y-73037606D01*
X108282187Y-73234025D01*
X108411752Y-73412358D01*
X108411756Y-73412363D01*
X108567636Y-73568243D01*
X108567641Y-73568247D01*
X108674027Y-73645540D01*
X108745978Y-73697815D01*
X108833710Y-73742517D01*
X108942393Y-73797895D01*
X108942396Y-73797896D01*
X109032353Y-73827124D01*
X109152049Y-73866015D01*
X109369778Y-73900500D01*
X109369779Y-73900500D01*
X109590221Y-73900500D01*
X109590222Y-73900500D01*
X109807951Y-73866015D01*
X110017606Y-73797895D01*
X110214022Y-73697815D01*
X110392365Y-73568242D01*
X110442924Y-73517682D01*
X110504245Y-73484198D01*
X110573936Y-73489182D01*
X110629870Y-73531053D01*
X110646786Y-73562030D01*
X110676646Y-73642087D01*
X110676649Y-73642093D01*
X110762809Y-73757187D01*
X110762812Y-73757190D01*
X110877906Y-73843350D01*
X110877913Y-73843354D01*
X111012620Y-73893596D01*
X111012627Y-73893598D01*
X111072155Y-73899999D01*
X111072172Y-73900000D01*
X111770000Y-73900000D01*
X111770000Y-72875277D01*
X111846306Y-72919333D01*
X111960756Y-72950000D01*
X112079244Y-72950000D01*
X112193694Y-72919333D01*
X112270000Y-72875277D01*
X112270000Y-73900000D01*
X112967828Y-73900000D01*
X112967844Y-73899999D01*
X113027372Y-73893598D01*
X113027379Y-73893596D01*
X113162086Y-73843354D01*
X113162093Y-73843350D01*
X113277187Y-73757190D01*
X113277188Y-73757189D01*
X113350759Y-73658911D01*
X113406692Y-73617039D01*
X113476384Y-73612055D01*
X113537707Y-73645540D01*
X113548399Y-73657730D01*
X113621718Y-73753282D01*
X113747159Y-73849536D01*
X113893238Y-73910044D01*
X114010639Y-73925500D01*
X115789360Y-73925499D01*
X115789363Y-73925499D01*
X115906753Y-73910046D01*
X115906757Y-73910044D01*
X115906762Y-73910044D01*
X116052841Y-73849536D01*
X116178282Y-73753282D01*
X116274536Y-73627841D01*
X116335044Y-73481762D01*
X116350500Y-73364361D01*
X116350499Y-73085640D01*
X116335044Y-72968238D01*
X116326434Y-72947454D01*
X116318965Y-72877986D01*
X116326435Y-72852545D01*
X116335044Y-72831762D01*
X116350500Y-72714361D01*
X116350499Y-72435640D01*
X116335044Y-72318238D01*
X116326434Y-72297454D01*
X116318965Y-72227986D01*
X116326435Y-72202545D01*
X116335044Y-72181762D01*
X116350500Y-72064361D01*
X116350499Y-71785640D01*
X116335044Y-71668238D01*
X116326434Y-71647454D01*
X116318965Y-71577986D01*
X116326435Y-71552545D01*
X116335044Y-71531762D01*
X116350500Y-71414361D01*
X116350499Y-71135640D01*
X116335044Y-71018238D01*
X116326434Y-70997454D01*
X116318965Y-70927986D01*
X116326435Y-70902545D01*
X116335044Y-70881762D01*
X116350500Y-70764361D01*
X116350499Y-70485640D01*
X116335044Y-70368238D01*
X116335042Y-70368234D01*
X116326435Y-70347455D01*
X116318965Y-70277986D01*
X116326435Y-70252545D01*
X116335044Y-70231762D01*
X116350500Y-70114361D01*
X116350499Y-69835640D01*
X116335044Y-69718238D01*
X116335042Y-69718234D01*
X116326435Y-69697455D01*
X116318965Y-69627986D01*
X116326435Y-69602545D01*
X116335044Y-69581762D01*
X116350500Y-69464361D01*
X116350499Y-69208877D01*
X116370183Y-69141839D01*
X116422987Y-69096084D01*
X116492146Y-69086140D01*
X116555701Y-69115165D01*
X116562180Y-69121197D01*
X118763181Y-71322198D01*
X118796666Y-71383521D01*
X118799500Y-71409879D01*
X118799500Y-80890970D01*
X118779815Y-80958009D01*
X118727011Y-81003764D01*
X118657853Y-81013708D01*
X118637182Y-81008901D01*
X118554420Y-80982010D01*
X118352317Y-80950000D01*
X118147683Y-80950000D01*
X117945582Y-80982009D01*
X117750968Y-81045244D01*
X117568644Y-81138143D01*
X117524077Y-81170523D01*
X117524077Y-81170524D01*
X118203553Y-81850000D01*
X118197339Y-81850000D01*
X118095606Y-81877259D01*
X118004394Y-81929920D01*
X117929920Y-82004394D01*
X117877259Y-82095606D01*
X117850000Y-82197339D01*
X117850000Y-82203553D01*
X117170524Y-81524077D01*
X117170523Y-81524077D01*
X117138143Y-81568644D01*
X117045244Y-81750968D01*
X116982009Y-81945582D01*
X116950000Y-82147682D01*
X116950000Y-82352317D01*
X116982009Y-82554417D01*
X117045244Y-82749031D01*
X117138141Y-82931350D01*
X117138147Y-82931359D01*
X117170523Y-82975921D01*
X117170524Y-82975922D01*
X117850000Y-82296446D01*
X117850000Y-82302661D01*
X117877259Y-82404394D01*
X117929920Y-82495606D01*
X118004394Y-82570080D01*
X118095606Y-82622741D01*
X118197339Y-82650000D01*
X118203552Y-82650000D01*
X117524076Y-83329474D01*
X117568650Y-83361859D01*
X117750968Y-83454755D01*
X117945582Y-83517990D01*
X118147683Y-83550000D01*
X118352317Y-83550000D01*
X118554417Y-83517990D01*
X118637181Y-83491098D01*
X118707022Y-83489103D01*
X118766855Y-83525183D01*
X118797684Y-83587883D01*
X118799500Y-83609029D01*
X118799500Y-84952335D01*
X118779815Y-85019374D01*
X118727011Y-85065129D01*
X118657853Y-85075073D01*
X118594297Y-85046048D01*
X118576234Y-85026647D01*
X118532187Y-84967809D01*
X118417093Y-84881649D01*
X118417086Y-84881645D01*
X118282379Y-84831403D01*
X118282372Y-84831401D01*
X118222844Y-84825000D01*
X117750000Y-84825000D01*
X117750000Y-85684314D01*
X117745606Y-85679920D01*
X117654394Y-85627259D01*
X117552661Y-85600000D01*
X117447339Y-85600000D01*
X117345606Y-85627259D01*
X117254394Y-85679920D01*
X117250000Y-85684314D01*
X117250000Y-84825000D01*
X116777155Y-84825000D01*
X116717627Y-84831401D01*
X116717620Y-84831403D01*
X116582913Y-84881645D01*
X116582906Y-84881649D01*
X116467812Y-84967809D01*
X116467809Y-84967812D01*
X116381649Y-85082906D01*
X116381645Y-85082913D01*
X116331403Y-85217620D01*
X116331401Y-85217627D01*
X116325000Y-85277155D01*
X116325000Y-85750000D01*
X117184314Y-85750000D01*
X117179920Y-85754394D01*
X117127259Y-85845606D01*
X117100000Y-85947339D01*
X117100000Y-86052661D01*
X117127259Y-86154394D01*
X117179920Y-86245606D01*
X117184314Y-86250000D01*
X116325000Y-86250000D01*
X116325000Y-86722844D01*
X116331401Y-86782372D01*
X116331403Y-86782379D01*
X116381645Y-86917086D01*
X116381649Y-86917093D01*
X116467809Y-87032187D01*
X116467812Y-87032190D01*
X116582906Y-87118350D01*
X116582913Y-87118354D01*
X116717620Y-87168596D01*
X116717627Y-87168598D01*
X116777155Y-87174999D01*
X116777172Y-87175000D01*
X117250000Y-87175000D01*
X117250000Y-86315686D01*
X117254394Y-86320080D01*
X117345606Y-86372741D01*
X117447339Y-86400000D01*
X117552661Y-86400000D01*
X117654394Y-86372741D01*
X117745606Y-86320080D01*
X117750000Y-86315686D01*
X117750000Y-87175000D01*
X118222828Y-87175000D01*
X118222844Y-87174999D01*
X118282372Y-87168598D01*
X118282379Y-87168596D01*
X118417086Y-87118354D01*
X118417093Y-87118350D01*
X118532186Y-87032190D01*
X118595836Y-86947167D01*
X118651770Y-86905296D01*
X118721462Y-86900312D01*
X118767986Y-86921158D01*
X118883904Y-87005378D01*
X118964763Y-87046577D01*
X119048764Y-87089379D01*
X119048767Y-87089380D01*
X119136750Y-87117967D01*
X119224736Y-87146555D01*
X119407486Y-87175500D01*
X119407487Y-87175500D01*
X119592513Y-87175500D01*
X119592514Y-87175500D01*
X119775264Y-87146555D01*
X119951235Y-87089379D01*
X120116096Y-87005378D01*
X120265787Y-86896621D01*
X120396621Y-86765787D01*
X120399680Y-86761576D01*
X120455006Y-86718909D01*
X120524619Y-86712926D01*
X120586415Y-86745529D01*
X120600315Y-86761570D01*
X120603379Y-86765787D01*
X120734213Y-86896621D01*
X120883904Y-87005378D01*
X120964763Y-87046577D01*
X121048764Y-87089379D01*
X121048767Y-87089380D01*
X121136750Y-87117967D01*
X121224736Y-87146555D01*
X121407486Y-87175500D01*
X121407487Y-87175500D01*
X121592513Y-87175500D01*
X121592514Y-87175500D01*
X121775264Y-87146555D01*
X121951235Y-87089379D01*
X122116096Y-87005378D01*
X122265787Y-86896621D01*
X122396621Y-86765787D01*
X122399680Y-86761576D01*
X122455006Y-86718909D01*
X122524619Y-86712926D01*
X122586415Y-86745529D01*
X122600315Y-86761570D01*
X122603379Y-86765787D01*
X122734213Y-86896621D01*
X122883904Y-87005378D01*
X122964763Y-87046577D01*
X123048764Y-87089379D01*
X123048767Y-87089380D01*
X123136750Y-87117967D01*
X123224736Y-87146555D01*
X123407486Y-87175500D01*
X123407487Y-87175500D01*
X123592513Y-87175500D01*
X123592514Y-87175500D01*
X123775264Y-87146555D01*
X123951235Y-87089379D01*
X124116096Y-87005378D01*
X124265787Y-86896621D01*
X124396621Y-86765787D01*
X124505378Y-86616096D01*
X124589379Y-86451235D01*
X124646555Y-86275264D01*
X124675500Y-86092514D01*
X124675500Y-85907486D01*
X124646555Y-85724736D01*
X124589379Y-85548765D01*
X124589379Y-85548764D01*
X124505377Y-85383903D01*
X124499999Y-85376501D01*
X124396621Y-85234213D01*
X124265787Y-85103379D01*
X124116096Y-84994622D01*
X123951235Y-84910620D01*
X123951232Y-84910619D01*
X123775265Y-84853445D01*
X123636097Y-84831403D01*
X123592514Y-84824500D01*
X123407486Y-84824500D01*
X123363915Y-84831401D01*
X123224734Y-84853445D01*
X123048767Y-84910619D01*
X123048764Y-84910620D01*
X122883903Y-84994622D01*
X122839825Y-85026647D01*
X122734213Y-85103379D01*
X122734211Y-85103381D01*
X122734210Y-85103381D01*
X122603381Y-85234210D01*
X122600314Y-85238432D01*
X122544981Y-85281094D01*
X122475367Y-85287069D01*
X122413574Y-85254459D01*
X122399686Y-85238432D01*
X122396621Y-85234213D01*
X122265787Y-85103379D01*
X122116096Y-84994622D01*
X121951235Y-84910620D01*
X121951232Y-84910619D01*
X121775265Y-84853445D01*
X121636097Y-84831403D01*
X121592514Y-84824500D01*
X121407486Y-84824500D01*
X121407482Y-84824500D01*
X121390179Y-84827240D01*
X121320886Y-84818283D01*
X121283104Y-84792447D01*
X120763819Y-84273162D01*
X120730334Y-84211839D01*
X120727500Y-84185481D01*
X120727500Y-82147648D01*
X121949500Y-82147648D01*
X121949500Y-82352351D01*
X121981522Y-82554534D01*
X122044781Y-82749223D01*
X122108691Y-82874653D01*
X122137585Y-82931359D01*
X122137715Y-82931613D01*
X122258028Y-83097213D01*
X122402786Y-83241971D01*
X122523226Y-83329474D01*
X122568390Y-83362287D01*
X122684607Y-83421503D01*
X122750776Y-83455218D01*
X122750778Y-83455218D01*
X122750781Y-83455220D01*
X122855062Y-83489103D01*
X122945465Y-83518477D01*
X122987805Y-83525183D01*
X123147648Y-83550500D01*
X123147649Y-83550500D01*
X123352351Y-83550500D01*
X123352352Y-83550500D01*
X123554534Y-83518477D01*
X123749219Y-83455220D01*
X123931610Y-83362287D01*
X124024590Y-83294732D01*
X124097213Y-83241971D01*
X124097215Y-83241968D01*
X124097219Y-83241966D01*
X124241966Y-83097219D01*
X124241968Y-83097215D01*
X124241971Y-83097213D01*
X124294732Y-83024590D01*
X124362287Y-82931610D01*
X124455220Y-82749219D01*
X124518477Y-82554534D01*
X124550500Y-82352352D01*
X124550500Y-82147648D01*
X124542257Y-82095606D01*
X124518477Y-81945465D01*
X124487458Y-81850000D01*
X124455220Y-81750781D01*
X124455218Y-81750778D01*
X124455218Y-81750776D01*
X124421503Y-81684607D01*
X124362287Y-81568390D01*
X124330092Y-81524077D01*
X124241971Y-81402786D01*
X124097213Y-81258028D01*
X123931613Y-81137715D01*
X123931612Y-81137714D01*
X123931610Y-81137713D01*
X123874653Y-81108691D01*
X123749223Y-81044781D01*
X123554534Y-80981522D01*
X123379995Y-80953878D01*
X123352352Y-80949500D01*
X123147648Y-80949500D01*
X123123329Y-80953351D01*
X122945465Y-80981522D01*
X122750776Y-81044781D01*
X122568386Y-81137715D01*
X122402786Y-81258028D01*
X122258028Y-81402786D01*
X122137715Y-81568386D01*
X122044781Y-81750776D01*
X121981522Y-81945465D01*
X121949500Y-82147648D01*
X120727500Y-82147648D01*
X120727500Y-78405513D01*
X122509500Y-78405513D01*
X122509500Y-78594486D01*
X122539059Y-78781118D01*
X122597454Y-78960836D01*
X122683240Y-79129199D01*
X122794310Y-79282073D01*
X122927927Y-79415690D01*
X123080801Y-79526760D01*
X123160347Y-79567290D01*
X123249163Y-79612545D01*
X123249165Y-79612545D01*
X123249168Y-79612547D01*
X123345497Y-79643846D01*
X123428881Y-79670940D01*
X123615514Y-79700500D01*
X123615519Y-79700500D01*
X123804486Y-79700500D01*
X123991118Y-79670940D01*
X124170832Y-79612547D01*
X124339199Y-79526760D01*
X124492073Y-79415690D01*
X124625690Y-79282073D01*
X124736760Y-79129199D01*
X124822547Y-78960832D01*
X124880940Y-78781118D01*
X124910500Y-78594486D01*
X124910500Y-78405513D01*
X127589500Y-78405513D01*
X127589500Y-78594486D01*
X127619059Y-78781118D01*
X127677454Y-78960836D01*
X127763240Y-79129199D01*
X127874310Y-79282073D01*
X128007927Y-79415690D01*
X128160801Y-79526760D01*
X128240347Y-79567290D01*
X128329163Y-79612545D01*
X128329165Y-79612545D01*
X128329168Y-79612547D01*
X128425497Y-79643846D01*
X128508881Y-79670940D01*
X128695514Y-79700500D01*
X128695519Y-79700500D01*
X128884486Y-79700500D01*
X129071118Y-79670940D01*
X129250832Y-79612547D01*
X129419199Y-79526760D01*
X129572073Y-79415690D01*
X129705690Y-79282073D01*
X129816760Y-79129199D01*
X129902547Y-78960832D01*
X129960940Y-78781118D01*
X129990500Y-78594486D01*
X129990500Y-78405513D01*
X129960940Y-78218881D01*
X129902545Y-78039163D01*
X129816759Y-77870800D01*
X129705690Y-77717927D01*
X129572073Y-77584310D01*
X129419199Y-77473240D01*
X129382920Y-77454755D01*
X129250836Y-77387454D01*
X129071118Y-77329059D01*
X128884486Y-77299500D01*
X128884481Y-77299500D01*
X128695519Y-77299500D01*
X128695514Y-77299500D01*
X128508881Y-77329059D01*
X128329163Y-77387454D01*
X128160800Y-77473240D01*
X128099208Y-77517990D01*
X128007927Y-77584310D01*
X128007925Y-77584312D01*
X128007924Y-77584312D01*
X127874312Y-77717924D01*
X127874312Y-77717925D01*
X127874310Y-77717927D01*
X127826610Y-77783579D01*
X127763240Y-77870800D01*
X127677454Y-78039163D01*
X127619059Y-78218881D01*
X127589500Y-78405513D01*
X124910500Y-78405513D01*
X124880940Y-78218881D01*
X124822545Y-78039163D01*
X124736759Y-77870800D01*
X124625690Y-77717927D01*
X124492073Y-77584310D01*
X124339199Y-77473240D01*
X124302920Y-77454755D01*
X124170836Y-77387454D01*
X123991118Y-77329059D01*
X123804486Y-77299500D01*
X123804481Y-77299500D01*
X123615519Y-77299500D01*
X123615514Y-77299500D01*
X123428881Y-77329059D01*
X123249163Y-77387454D01*
X123080800Y-77473240D01*
X123019208Y-77517990D01*
X122927927Y-77584310D01*
X122927925Y-77584312D01*
X122927924Y-77584312D01*
X122794312Y-77717924D01*
X122794312Y-77717925D01*
X122794310Y-77717927D01*
X122746610Y-77783579D01*
X122683240Y-77870800D01*
X122597454Y-78039163D01*
X122539059Y-78218881D01*
X122509500Y-78405513D01*
X120727500Y-78405513D01*
X120727500Y-75475348D01*
X120747185Y-75408309D01*
X120799989Y-75362554D01*
X120869147Y-75352610D01*
X120901728Y-75361976D01*
X120911497Y-75366304D01*
X120918189Y-75370775D01*
X120970417Y-75392407D01*
X120971783Y-75393013D01*
X120971821Y-75393045D01*
X120972848Y-75393491D01*
X121022940Y-75416261D01*
X121034603Y-75418995D01*
X121045672Y-75423580D01*
X121101688Y-75434722D01*
X121157284Y-75447756D01*
X121169254Y-75448162D01*
X121181007Y-75450500D01*
X121238125Y-75450500D01*
X121295191Y-75452437D01*
X121297053Y-75452131D01*
X121317104Y-75450500D01*
X123455501Y-75450500D01*
X123522540Y-75470185D01*
X123568295Y-75522989D01*
X123579501Y-75574500D01*
X123579501Y-75697876D01*
X123585908Y-75757483D01*
X123636202Y-75892328D01*
X123636206Y-75892335D01*
X123722452Y-76007544D01*
X123722455Y-76007547D01*
X123837664Y-76093793D01*
X123837671Y-76093797D01*
X123972517Y-76144091D01*
X123972516Y-76144091D01*
X123979444Y-76144835D01*
X124032127Y-76150500D01*
X125927872Y-76150499D01*
X125987483Y-76144091D01*
X126122331Y-76093796D01*
X126237546Y-76007546D01*
X126323796Y-75892331D01*
X126323798Y-75892326D01*
X126353601Y-75812420D01*
X126395471Y-75756486D01*
X126460936Y-75732068D01*
X126529209Y-75746919D01*
X126557464Y-75768071D01*
X126607636Y-75818243D01*
X126607641Y-75818247D01*
X126651346Y-75850000D01*
X126785978Y-75947815D01*
X126914375Y-76013237D01*
X126982393Y-76047895D01*
X126982396Y-76047896D01*
X127087221Y-76081955D01*
X127192049Y-76116015D01*
X127409778Y-76150500D01*
X127409779Y-76150500D01*
X127630221Y-76150500D01*
X127630222Y-76150500D01*
X127847951Y-76116015D01*
X128057606Y-76047895D01*
X128254022Y-75947815D01*
X128432365Y-75818242D01*
X128588242Y-75662365D01*
X128717815Y-75484022D01*
X128817895Y-75287606D01*
X128886015Y-75077951D01*
X128920500Y-74860222D01*
X128920500Y-74639778D01*
X128886015Y-74422049D01*
X128817895Y-74212394D01*
X128817895Y-74212393D01*
X128734895Y-74049500D01*
X128717815Y-74015978D01*
X128659501Y-73935715D01*
X128588247Y-73837641D01*
X128588243Y-73837636D01*
X128432363Y-73681756D01*
X128432358Y-73681752D01*
X128254025Y-73552187D01*
X128254024Y-73552186D01*
X128254022Y-73552185D01*
X128136791Y-73492452D01*
X128057606Y-73452104D01*
X128057603Y-73452103D01*
X127847952Y-73383985D01*
X127724044Y-73364360D01*
X127630222Y-73349500D01*
X127409778Y-73349500D01*
X127337201Y-73360995D01*
X127192047Y-73383985D01*
X126982396Y-73452103D01*
X126982393Y-73452104D01*
X126785974Y-73552187D01*
X126607641Y-73681752D01*
X126607636Y-73681756D01*
X126557463Y-73731929D01*
X126496140Y-73765413D01*
X126426448Y-73760428D01*
X126370515Y-73718557D01*
X126353601Y-73687580D01*
X126323797Y-73607671D01*
X126323793Y-73607664D01*
X126237547Y-73492455D01*
X126237544Y-73492452D01*
X126122335Y-73406206D01*
X126122328Y-73406202D01*
X125987482Y-73355908D01*
X125987483Y-73355908D01*
X125927883Y-73349501D01*
X125927881Y-73349500D01*
X125927873Y-73349500D01*
X125927865Y-73349500D01*
X124322230Y-73349500D01*
X124255191Y-73329815D01*
X124209436Y-73277011D01*
X124199492Y-73207853D01*
X124228517Y-73144297D01*
X124253345Y-73122394D01*
X124258255Y-73119114D01*
X126817114Y-70560255D01*
X126893775Y-70445523D01*
X126946580Y-70318040D01*
X126959608Y-70252545D01*
X126973500Y-70182708D01*
X126973500Y-67722174D01*
X126993185Y-67655135D01*
X127045989Y-67609380D01*
X127115147Y-67599436D01*
X127135816Y-67604242D01*
X127172049Y-67616015D01*
X127389778Y-67650500D01*
X127389779Y-67650500D01*
X127610221Y-67650500D01*
X127610222Y-67650500D01*
X127827951Y-67616015D01*
X128037606Y-67547895D01*
X128234022Y-67447815D01*
X128412365Y-67318242D01*
X128568242Y-67162365D01*
X128697815Y-66984022D01*
X128797895Y-66787606D01*
X128866015Y-66577951D01*
X128900500Y-66360222D01*
X128900500Y-66139778D01*
X128866015Y-65922049D01*
X128797895Y-65712394D01*
X128797895Y-65712393D01*
X128743687Y-65606006D01*
X128697815Y-65515978D01*
X128664899Y-65470673D01*
X128568247Y-65337641D01*
X128568243Y-65337636D01*
X128412363Y-65181756D01*
X128412358Y-65181752D01*
X128234025Y-65052187D01*
X128234024Y-65052186D01*
X128234022Y-65052185D01*
X128116791Y-64992452D01*
X128037606Y-64952104D01*
X128037603Y-64952103D01*
X127827952Y-64883985D01*
X127719086Y-64866742D01*
X127610222Y-64849500D01*
X127389778Y-64849500D01*
X127362313Y-64853850D01*
X127172049Y-64883984D01*
X127135816Y-64895757D01*
X127065975Y-64897751D01*
X127006143Y-64861669D01*
X126975316Y-64798967D01*
X126973500Y-64777825D01*
X126973500Y-62504456D01*
X126993185Y-62437417D01*
X127045989Y-62391662D01*
X127115147Y-62381718D01*
X127170386Y-62404138D01*
X127318650Y-62511859D01*
X127500968Y-62604755D01*
X127695582Y-62667990D01*
X127897683Y-62700000D01*
X128102317Y-62700000D01*
X128304417Y-62667990D01*
X128499031Y-62604755D01*
X128681349Y-62511859D01*
X128725921Y-62479474D01*
X128046447Y-61800000D01*
X128052661Y-61800000D01*
X128154394Y-61772741D01*
X128245606Y-61720080D01*
X128320080Y-61645606D01*
X128372741Y-61554394D01*
X128400000Y-61452661D01*
X128400000Y-61446448D01*
X129079474Y-62125922D01*
X129079474Y-62125921D01*
X129111859Y-62081349D01*
X129204755Y-61899031D01*
X129267990Y-61704417D01*
X129300000Y-61502317D01*
X129300000Y-61297682D01*
X129267990Y-61095582D01*
X129204755Y-60900968D01*
X129111859Y-60718650D01*
X129079474Y-60674077D01*
X129079474Y-60674076D01*
X128400000Y-61353551D01*
X128400000Y-61347339D01*
X128372741Y-61245606D01*
X128320080Y-61154394D01*
X128245606Y-61079920D01*
X128154394Y-61027259D01*
X128052661Y-61000000D01*
X128046446Y-61000000D01*
X128725922Y-60320524D01*
X128725921Y-60320523D01*
X128681359Y-60288147D01*
X128681350Y-60288141D01*
X128499031Y-60195244D01*
X128304417Y-60132009D01*
X128102317Y-60100000D01*
X127897683Y-60100000D01*
X127695582Y-60132009D01*
X127500968Y-60195244D01*
X127318647Y-60288142D01*
X127170385Y-60395861D01*
X127104579Y-60419341D01*
X127036525Y-60403516D01*
X126987830Y-60353410D01*
X126973500Y-60295543D01*
X126973500Y-58004004D01*
X126946581Y-57868677D01*
X126946580Y-57868676D01*
X126946580Y-57868672D01*
X126946578Y-57868667D01*
X126893778Y-57741195D01*
X126893771Y-57741182D01*
X126817115Y-57626459D01*
X126795874Y-57605218D01*
X126719542Y-57528886D01*
X125488304Y-56297648D01*
X126699500Y-56297648D01*
X126699500Y-56502351D01*
X126731522Y-56704534D01*
X126794781Y-56899223D01*
X126887715Y-57081613D01*
X127008028Y-57247213D01*
X127152786Y-57391971D01*
X127307749Y-57504556D01*
X127318390Y-57512287D01*
X127434607Y-57571503D01*
X127500776Y-57605218D01*
X127500778Y-57605218D01*
X127500781Y-57605220D01*
X127566145Y-57626458D01*
X127695465Y-57668477D01*
X127796557Y-57684488D01*
X127897648Y-57700500D01*
X127897649Y-57700500D01*
X128102351Y-57700500D01*
X128102352Y-57700500D01*
X128304534Y-57668477D01*
X128499219Y-57605220D01*
X128681610Y-57512287D01*
X128774590Y-57444732D01*
X128847213Y-57391971D01*
X128847215Y-57391968D01*
X128847219Y-57391966D01*
X128991966Y-57247219D01*
X128991968Y-57247215D01*
X128991971Y-57247213D01*
X129044732Y-57174590D01*
X129112287Y-57081610D01*
X129205220Y-56899219D01*
X129268477Y-56704534D01*
X129300500Y-56502352D01*
X129300500Y-56297648D01*
X129268477Y-56095466D01*
X129205220Y-55900781D01*
X129205218Y-55900778D01*
X129205218Y-55900776D01*
X129171503Y-55834607D01*
X129112287Y-55718390D01*
X129104556Y-55707749D01*
X128991971Y-55552786D01*
X128847213Y-55408028D01*
X128681613Y-55287715D01*
X128681612Y-55287714D01*
X128681610Y-55287713D01*
X128624653Y-55258691D01*
X128499223Y-55194781D01*
X128304534Y-55131522D01*
X128129995Y-55103878D01*
X128102352Y-55099500D01*
X127897648Y-55099500D01*
X127873329Y-55103351D01*
X127695465Y-55131522D01*
X127500776Y-55194781D01*
X127318386Y-55287715D01*
X127152786Y-55408028D01*
X127008028Y-55552786D01*
X126887715Y-55718386D01*
X126794781Y-55900776D01*
X126731522Y-56095465D01*
X126699500Y-56297648D01*
X125488304Y-56297648D01*
X120896071Y-51705414D01*
X120869191Y-51665185D01*
X120854631Y-51630033D01*
X122320000Y-51630033D01*
X122320000Y-51924966D01*
X122320001Y-51924983D01*
X122358496Y-52217384D01*
X122358499Y-52217397D01*
X122434835Y-52502290D01*
X122434838Y-52502300D01*
X122547704Y-52774781D01*
X122547709Y-52774792D01*
X122695174Y-53030207D01*
X122695180Y-53030215D01*
X122811777Y-53182167D01*
X123597912Y-52396032D01*
X123692829Y-52526675D01*
X123820825Y-52654671D01*
X123951466Y-52749586D01*
X123165331Y-53535721D01*
X123317284Y-53652319D01*
X123317292Y-53652325D01*
X123572707Y-53799790D01*
X123572718Y-53799795D01*
X123845199Y-53912661D01*
X123845209Y-53912664D01*
X124130102Y-53989000D01*
X124130115Y-53989003D01*
X124422516Y-54027498D01*
X124422534Y-54027500D01*
X124717466Y-54027500D01*
X124717483Y-54027498D01*
X125009884Y-53989003D01*
X125009897Y-53989000D01*
X125294790Y-53912664D01*
X125294800Y-53912661D01*
X125567281Y-53799795D01*
X125567292Y-53799790D01*
X125822707Y-53652325D01*
X125822725Y-53652313D01*
X125974667Y-53535722D01*
X125974667Y-53535720D01*
X125188533Y-52749586D01*
X125319175Y-52654671D01*
X125447171Y-52526675D01*
X125542086Y-52396033D01*
X126328220Y-53182167D01*
X126328222Y-53182167D01*
X126444813Y-53030225D01*
X126444825Y-53030207D01*
X126592290Y-52774792D01*
X126592295Y-52774781D01*
X126705161Y-52502300D01*
X126705164Y-52502290D01*
X126781500Y-52217397D01*
X126781503Y-52217384D01*
X126819998Y-51924983D01*
X126820000Y-51924966D01*
X126820000Y-51630033D01*
X126819998Y-51630016D01*
X126781503Y-51337615D01*
X126781500Y-51337602D01*
X126705164Y-51052709D01*
X126705161Y-51052699D01*
X126592295Y-50780218D01*
X126592290Y-50780207D01*
X126444825Y-50524792D01*
X126444819Y-50524784D01*
X126328221Y-50372831D01*
X125542086Y-51158966D01*
X125447171Y-51028325D01*
X125319175Y-50900329D01*
X125188532Y-50805412D01*
X125974667Y-50019277D01*
X125822715Y-49902680D01*
X125822707Y-49902674D01*
X125567292Y-49755209D01*
X125567281Y-49755204D01*
X125294800Y-49642338D01*
X125294790Y-49642335D01*
X125009897Y-49565999D01*
X125009884Y-49565996D01*
X124717483Y-49527501D01*
X124717466Y-49527500D01*
X124422534Y-49527500D01*
X124422516Y-49527501D01*
X124130115Y-49565996D01*
X124130102Y-49565999D01*
X123845209Y-49642335D01*
X123845199Y-49642338D01*
X123572718Y-49755204D01*
X123572707Y-49755209D01*
X123317292Y-49902674D01*
X123317276Y-49902685D01*
X123165331Y-50019275D01*
X123165331Y-50019277D01*
X123951466Y-50805412D01*
X123820825Y-50900329D01*
X123692829Y-51028325D01*
X123597912Y-51158966D01*
X122811777Y-50372831D01*
X122811775Y-50372831D01*
X122695185Y-50524776D01*
X122695174Y-50524792D01*
X122547709Y-50780207D01*
X122547704Y-50780218D01*
X122434838Y-51052699D01*
X122434835Y-51052709D01*
X122358499Y-51337602D01*
X122358496Y-51337615D01*
X122320001Y-51630016D01*
X122320000Y-51630033D01*
X120854631Y-51630033D01*
X120809397Y-51520827D01*
X120809390Y-51520814D01*
X120721789Y-51389711D01*
X120721786Y-51389707D01*
X120610292Y-51278213D01*
X120610288Y-51278210D01*
X120479185Y-51190609D01*
X120479172Y-51190602D01*
X120333501Y-51130264D01*
X120333489Y-51130261D01*
X120178845Y-51099500D01*
X120178842Y-51099500D01*
X120021158Y-51099500D01*
X120021155Y-51099500D01*
X119866510Y-51130261D01*
X119860676Y-51132031D01*
X119859873Y-51129385D01*
X119802056Y-51135396D01*
X119739687Y-51103902D01*
X119704245Y-51043689D01*
X119700500Y-51013444D01*
X119700500Y-50182273D01*
X119700821Y-50181179D01*
X119700519Y-50180079D01*
X119710648Y-50147713D01*
X119720185Y-50115234D01*
X119721157Y-50114131D01*
X119721387Y-50113398D01*
X119726449Y-50108131D01*
X119744968Y-50087138D01*
X119748197Y-50084438D01*
X119822464Y-50030481D01*
X119962981Y-49889964D01*
X120079787Y-49729194D01*
X120139796Y-49611419D01*
X120187769Y-49560624D01*
X120255590Y-49543829D01*
X120321725Y-49566366D01*
X120360765Y-49611420D01*
X120420641Y-49728932D01*
X120447730Y-49766215D01*
X120447731Y-49766216D01*
X121049697Y-49164249D01*
X121071349Y-49245053D01*
X121131909Y-49349946D01*
X121217554Y-49435591D01*
X121322447Y-49496151D01*
X121403250Y-49517802D01*
X120801283Y-50119768D01*
X120801283Y-50119769D01*
X120838567Y-50146858D01*
X121015562Y-50237042D01*
X121204477Y-50298424D01*
X121400679Y-50329500D01*
X121599321Y-50329500D01*
X121795520Y-50298424D01*
X121795523Y-50298424D01*
X121984437Y-50237042D01*
X122161425Y-50146862D01*
X122198716Y-50119768D01*
X121596750Y-49517802D01*
X121677553Y-49496151D01*
X121782446Y-49435591D01*
X121868091Y-49349946D01*
X121928651Y-49245053D01*
X121950302Y-49164249D01*
X122552268Y-49766215D01*
X122579362Y-49728925D01*
X122669542Y-49551937D01*
X122730924Y-49363023D01*
X122730924Y-49363020D01*
X122762000Y-49166821D01*
X122762000Y-48968178D01*
X122730924Y-48771979D01*
X122730924Y-48771976D01*
X122669542Y-48583062D01*
X122579358Y-48406067D01*
X122552268Y-48368783D01*
X121950302Y-48970749D01*
X121928651Y-48889947D01*
X121868091Y-48785054D01*
X121782446Y-48699409D01*
X121677553Y-48638849D01*
X121596749Y-48617197D01*
X122198716Y-48015231D01*
X122198715Y-48015230D01*
X122161432Y-47988141D01*
X121984437Y-47897957D01*
X121795522Y-47836575D01*
X121599321Y-47805500D01*
X121400679Y-47805500D01*
X121204479Y-47836575D01*
X121204476Y-47836575D01*
X121015562Y-47897957D01*
X120838564Y-47988143D01*
X120801283Y-48015229D01*
X120801282Y-48015230D01*
X121403250Y-48617197D01*
X121322447Y-48638849D01*
X121217554Y-48699409D01*
X121131909Y-48785054D01*
X121071349Y-48889947D01*
X121049697Y-48970750D01*
X120447730Y-48368782D01*
X120447729Y-48368783D01*
X120420641Y-48406066D01*
X120360764Y-48523580D01*
X120312790Y-48574375D01*
X120244968Y-48591170D01*
X120178834Y-48568632D01*
X120139796Y-48523580D01*
X120079787Y-48405806D01*
X119962981Y-48245036D01*
X119822464Y-48104519D01*
X119661694Y-47987713D01*
X119484632Y-47897494D01*
X119484629Y-47897493D01*
X119295637Y-47836087D01*
X119197498Y-47820543D01*
X119099361Y-47805000D01*
X118900639Y-47805000D01*
X118835214Y-47815362D01*
X118704362Y-47836087D01*
X118515370Y-47897493D01*
X118515367Y-47897494D01*
X118338305Y-47987713D01*
X118177533Y-48104521D01*
X118087681Y-48194374D01*
X118026358Y-48227859D01*
X117956666Y-48222875D01*
X117912319Y-48194374D01*
X117822466Y-48104521D01*
X117822464Y-48104519D01*
X117661694Y-47987713D01*
X117484632Y-47897494D01*
X117484629Y-47897493D01*
X117295637Y-47836087D01*
X117197498Y-47820543D01*
X117099361Y-47805000D01*
X116900639Y-47805000D01*
X116835214Y-47815362D01*
X116704362Y-47836087D01*
X116515370Y-47897493D01*
X116515367Y-47897494D01*
X116338305Y-47987713D01*
X116177533Y-48104521D01*
X116037020Y-48245034D01*
X115947416Y-48368363D01*
X115892085Y-48411028D01*
X115822472Y-48417007D01*
X115760677Y-48384401D01*
X115729392Y-48334481D01*
X115699753Y-48245036D01*
X115696814Y-48236166D01*
X115604712Y-48086844D01*
X115480656Y-47962788D01*
X115331334Y-47870686D01*
X115164797Y-47815501D01*
X115164795Y-47815500D01*
X115062010Y-47805000D01*
X113937998Y-47805000D01*
X113937981Y-47805001D01*
X113835203Y-47815500D01*
X113835200Y-47815501D01*
X113668668Y-47870685D01*
X113668663Y-47870687D01*
X113519342Y-47962789D01*
X113395289Y-48086842D01*
X113303187Y-48236163D01*
X113303185Y-48236168D01*
X113283363Y-48295988D01*
X113248001Y-48402703D01*
X113248001Y-48402704D01*
X113248000Y-48402704D01*
X113237500Y-48505483D01*
X113237500Y-49629501D01*
X113237501Y-49629518D01*
X113248000Y-49732296D01*
X113248001Y-49732299D01*
X113303185Y-49898831D01*
X113303187Y-49898836D01*
X113305558Y-49902680D01*
X113395288Y-50048156D01*
X113519344Y-50172212D01*
X113668666Y-50264314D01*
X113835203Y-50319499D01*
X113937991Y-50330000D01*
X115062008Y-50329999D01*
X115164797Y-50319499D01*
X115331334Y-50264314D01*
X115480656Y-50172212D01*
X115604712Y-50048156D01*
X115696814Y-49898834D01*
X115729393Y-49800515D01*
X115769164Y-49743073D01*
X115833680Y-49716250D01*
X115902456Y-49728565D01*
X115947416Y-49766636D01*
X116037019Y-49889964D01*
X116177536Y-50030481D01*
X116338306Y-50147287D01*
X116406970Y-50182273D01*
X116515367Y-50237505D01*
X116515370Y-50237506D01*
X116597872Y-50264312D01*
X116704364Y-50298913D01*
X116900639Y-50330000D01*
X116900640Y-50330000D01*
X117099360Y-50330000D01*
X117099361Y-50330000D01*
X117295636Y-50298913D01*
X117484632Y-50237505D01*
X117661694Y-50147287D01*
X117822464Y-50030481D01*
X117912319Y-49940626D01*
X117916667Y-49938251D01*
X117919373Y-49934098D01*
X117947035Y-49921669D01*
X117973642Y-49907141D01*
X117978584Y-49907494D01*
X117983106Y-49905463D01*
X118013089Y-49909962D01*
X118043334Y-49912125D01*
X118048642Y-49915296D01*
X118052202Y-49915831D01*
X118067913Y-49926811D01*
X118081776Y-49935094D01*
X118084815Y-49937760D01*
X118177536Y-50030481D01*
X118252996Y-50085305D01*
X118257276Y-50089060D01*
X118273056Y-50113948D01*
X118291051Y-50137284D01*
X118292397Y-50144453D01*
X118294689Y-50148068D01*
X118294638Y-50156384D01*
X118299500Y-50182273D01*
X118299500Y-67759481D01*
X118279815Y-67826520D01*
X118227011Y-67872275D01*
X118157853Y-67882219D01*
X118094297Y-67853194D01*
X118087819Y-67847162D01*
X117486819Y-67246162D01*
X117453334Y-67184839D01*
X117450500Y-67158481D01*
X117450500Y-65606006D01*
X117438706Y-65546719D01*
X117438706Y-65546718D01*
X117423580Y-65470673D01*
X117423578Y-65470668D01*
X117370777Y-65343193D01*
X117294112Y-65228455D01*
X116296544Y-64230887D01*
X116181806Y-64154222D01*
X116054331Y-64101421D01*
X116054321Y-64101418D01*
X115918995Y-64074500D01*
X115918993Y-64074500D01*
X115918992Y-64074500D01*
X114831007Y-64074500D01*
X114831004Y-64074500D01*
X114010636Y-64074500D01*
X113893246Y-64089953D01*
X113893237Y-64089956D01*
X113747160Y-64150463D01*
X113621718Y-64246718D01*
X113525463Y-64372160D01*
X113464956Y-64518237D01*
X113464955Y-64518239D01*
X113449500Y-64635638D01*
X113449500Y-64914363D01*
X113464953Y-65031753D01*
X113464957Y-65031765D01*
X113473566Y-65052550D01*
X113476845Y-65083057D01*
X113482293Y-65113257D01*
X113480743Y-65119326D01*
X113481033Y-65122019D01*
X113473565Y-65147450D01*
X113473564Y-65147454D01*
X113467276Y-65162634D01*
X113423435Y-65217037D01*
X113357140Y-65239101D01*
X113289441Y-65221821D01*
X113271452Y-65208840D01*
X112731104Y-64740010D01*
X112724687Y-64734031D01*
X112696542Y-64705886D01*
X112682289Y-64696363D01*
X112669914Y-64686919D01*
X112656965Y-64675684D01*
X112656966Y-64675684D01*
X112656963Y-64675682D01*
X112622378Y-64655958D01*
X112614920Y-64651347D01*
X112581811Y-64629224D01*
X112581806Y-64629222D01*
X112565971Y-64622662D01*
X112565971Y-64622663D01*
X112558762Y-64619677D01*
X112537099Y-64607323D01*
X112495177Y-64593339D01*
X112491126Y-64591661D01*
X112491124Y-64591659D01*
X112454336Y-64576422D01*
X112454322Y-64576418D01*
X112437501Y-64573071D01*
X112437501Y-64573070D01*
X112429848Y-64571547D01*
X112406202Y-64563661D01*
X112362373Y-64558126D01*
X112358054Y-64557267D01*
X112358049Y-64557267D01*
X112318996Y-64549500D01*
X112318993Y-64549500D01*
X112294046Y-64549500D01*
X112269304Y-64546376D01*
X112225220Y-64549500D01*
X110544112Y-64549500D01*
X110530882Y-64548792D01*
X110506140Y-64546137D01*
X110474175Y-64549004D01*
X110474173Y-64549004D01*
X110468642Y-64549500D01*
X110431007Y-64549500D01*
X110400110Y-64555645D01*
X110393501Y-64556238D01*
X110393490Y-64556240D01*
X110368710Y-64558463D01*
X110368706Y-64558463D01*
X110368706Y-64558464D01*
X110337906Y-64567514D01*
X110327150Y-64570158D01*
X110295674Y-64576419D01*
X110295670Y-64576420D01*
X110272681Y-64585940D01*
X110272682Y-64585941D01*
X110266547Y-64588482D01*
X110236315Y-64597367D01*
X110202976Y-64614813D01*
X110197839Y-64616942D01*
X110197837Y-64616942D01*
X110168191Y-64629223D01*
X110168187Y-64629225D01*
X110147494Y-64643051D01*
X110136111Y-64649807D01*
X110114061Y-64661347D01*
X110089069Y-64681495D01*
X110089068Y-64681494D01*
X110084735Y-64684986D01*
X110053458Y-64705886D01*
X110031186Y-64728156D01*
X110026022Y-64732320D01*
X110026016Y-64732327D01*
X110006633Y-64747954D01*
X109986060Y-64772581D01*
X109978585Y-64780756D01*
X109955890Y-64803452D01*
X109955880Y-64803465D01*
X109942060Y-64824145D01*
X109942061Y-64824146D01*
X109938372Y-64829666D01*
X109918171Y-64853850D01*
X109900141Y-64886883D01*
X109897057Y-64891499D01*
X109879226Y-64918187D01*
X109869703Y-64941177D01*
X109863987Y-64953127D01*
X109491886Y-65634905D01*
X109442491Y-65684320D01*
X109383042Y-65699500D01*
X108944886Y-65699500D01*
X108944868Y-65699501D01*
X108842091Y-65710000D01*
X108842088Y-65710001D01*
X108675556Y-65765185D01*
X108675551Y-65765187D01*
X108526230Y-65857289D01*
X108402177Y-65981342D01*
X108310075Y-66130663D01*
X108310073Y-66130668D01*
X108291735Y-66186009D01*
X108254889Y-66297203D01*
X108254889Y-66297204D01*
X108254888Y-66297204D01*
X108244388Y-66399983D01*
X108244388Y-67600001D01*
X108244389Y-67600018D01*
X108254888Y-67702796D01*
X108254889Y-67702799D01*
X108283986Y-67790606D01*
X108310074Y-67869334D01*
X108402176Y-68018656D01*
X108526232Y-68142712D01*
X108675554Y-68234814D01*
X108842091Y-68289999D01*
X108944879Y-68300500D01*
X110144896Y-68300499D01*
X110247685Y-68289999D01*
X110414222Y-68234814D01*
X110563544Y-68142712D01*
X110632767Y-68073489D01*
X110694090Y-68040004D01*
X110763782Y-68044988D01*
X110793334Y-68060853D01*
X110863534Y-68111857D01*
X111045856Y-68204755D01*
X111240470Y-68267990D01*
X111442571Y-68300000D01*
X111647205Y-68300000D01*
X111849305Y-68267990D01*
X112043919Y-68204755D01*
X112226237Y-68111859D01*
X112270809Y-68079474D01*
X111591335Y-67400000D01*
X111597549Y-67400000D01*
X111699282Y-67372741D01*
X111790494Y-67320080D01*
X111864968Y-67245606D01*
X111917629Y-67154394D01*
X111944888Y-67052661D01*
X111944888Y-67046447D01*
X112624362Y-67725921D01*
X112656747Y-67681349D01*
X112749643Y-67499031D01*
X112812878Y-67304417D01*
X112844888Y-67102317D01*
X112844888Y-66965326D01*
X112864573Y-66898287D01*
X112917377Y-66852532D01*
X112986535Y-66842588D01*
X113050089Y-66871612D01*
X113406764Y-67181080D01*
X113444500Y-67239882D01*
X113449500Y-67274738D01*
X113449500Y-67514363D01*
X113464953Y-67631753D01*
X113464957Y-67631765D01*
X113473566Y-67652550D01*
X113481033Y-67722019D01*
X113473566Y-67747450D01*
X113464957Y-67768234D01*
X113464955Y-67768239D01*
X113449500Y-67885638D01*
X113449500Y-68164363D01*
X113464953Y-68281753D01*
X113464956Y-68281762D01*
X113473837Y-68303203D01*
X113481304Y-68372673D01*
X113473838Y-68398103D01*
X113465443Y-68418370D01*
X113457987Y-68475000D01*
X113500500Y-68475000D01*
X113529880Y-68483627D01*
X113559818Y-68490108D01*
X113563930Y-68493625D01*
X113567539Y-68494685D01*
X113588094Y-68511231D01*
X113593888Y-68517014D01*
X113621718Y-68553282D01*
X113658540Y-68581536D01*
X113664246Y-68587231D01*
X113677304Y-68611088D01*
X113693341Y-68633052D01*
X113693831Y-68641284D01*
X113697792Y-68648521D01*
X113695878Y-68675651D01*
X113697496Y-68702798D01*
X113693457Y-68709989D01*
X113692877Y-68718217D01*
X113676599Y-68740006D01*
X113663283Y-68763719D01*
X113652146Y-68773369D01*
X113621718Y-68796718D01*
X113621717Y-68796719D01*
X113621716Y-68796720D01*
X113598875Y-68826487D01*
X113542447Y-68867690D01*
X113500500Y-68875000D01*
X113457990Y-68875000D01*
X113457988Y-68875001D01*
X113465441Y-68931622D01*
X113465445Y-68931634D01*
X113473837Y-68951895D01*
X113481304Y-69021364D01*
X113473838Y-69046794D01*
X113464956Y-69068238D01*
X113464955Y-69068239D01*
X113449500Y-69185638D01*
X113449500Y-69464363D01*
X113464953Y-69581753D01*
X113464957Y-69581765D01*
X113473566Y-69602550D01*
X113481033Y-69672019D01*
X113473566Y-69697450D01*
X113464957Y-69718234D01*
X113464955Y-69718239D01*
X113449500Y-69835638D01*
X113449500Y-70114363D01*
X113464953Y-70231753D01*
X113464957Y-70231765D01*
X113473566Y-70252550D01*
X113481033Y-70322019D01*
X113473566Y-70347450D01*
X113464957Y-70368234D01*
X113464955Y-70368239D01*
X113449500Y-70485638D01*
X113449500Y-70764363D01*
X113464953Y-70881753D01*
X113464957Y-70881765D01*
X113473566Y-70902550D01*
X113481033Y-70972019D01*
X113480838Y-70973075D01*
X113478458Y-70985640D01*
X113464956Y-71018238D01*
X113449500Y-71135639D01*
X113449500Y-71138540D01*
X113447802Y-71147506D01*
X113435178Y-71172187D01*
X113425629Y-71198212D01*
X113419491Y-71202858D01*
X113415986Y-71209711D01*
X113392024Y-71223648D01*
X113369919Y-71240381D01*
X113362243Y-71240971D01*
X113355590Y-71244841D01*
X113327897Y-71243611D01*
X113300255Y-71245736D01*
X113292059Y-71242019D01*
X113285790Y-71241741D01*
X113275683Y-71234593D01*
X113251657Y-71223698D01*
X113162088Y-71156646D01*
X113162086Y-71156645D01*
X113027379Y-71106403D01*
X113027372Y-71106401D01*
X112967844Y-71100000D01*
X112270000Y-71100000D01*
X112270000Y-72124722D01*
X112193694Y-72080667D01*
X112079244Y-72050000D01*
X111960756Y-72050000D01*
X111846306Y-72080667D01*
X111770000Y-72124722D01*
X111770000Y-71100000D01*
X111072155Y-71100000D01*
X111012627Y-71106401D01*
X111012620Y-71106403D01*
X110877913Y-71156645D01*
X110877906Y-71156649D01*
X110762812Y-71242809D01*
X110762809Y-71242812D01*
X110676649Y-71357906D01*
X110676643Y-71357918D01*
X110646785Y-71437969D01*
X110604914Y-71493903D01*
X110539449Y-71518319D01*
X110471176Y-71503467D01*
X110442923Y-71482316D01*
X110392363Y-71431756D01*
X110392358Y-71431752D01*
X110214025Y-71302187D01*
X110214024Y-71302186D01*
X110214022Y-71302185D01*
X110103236Y-71245736D01*
X110017606Y-71202104D01*
X110017603Y-71202103D01*
X109807952Y-71133985D01*
X109672597Y-71112547D01*
X109590222Y-71099500D01*
X109369778Y-71099500D01*
X109297201Y-71110995D01*
X109152047Y-71133985D01*
X108942396Y-71202103D01*
X108942393Y-71202104D01*
X108745974Y-71302187D01*
X108567641Y-71431752D01*
X108567636Y-71431756D01*
X108411756Y-71587636D01*
X108411752Y-71587641D01*
X108282187Y-71765974D01*
X108182104Y-71962393D01*
X108182103Y-71962396D01*
X108113985Y-72172047D01*
X108079500Y-72389778D01*
X107750500Y-72389778D01*
X107750500Y-51630033D01*
X109180000Y-51630033D01*
X109180000Y-51924966D01*
X109180001Y-51924983D01*
X109218496Y-52217384D01*
X109218499Y-52217397D01*
X109294835Y-52502290D01*
X109294838Y-52502300D01*
X109407704Y-52774781D01*
X109407709Y-52774792D01*
X109555174Y-53030207D01*
X109555180Y-53030215D01*
X109671777Y-53182167D01*
X110457912Y-52396032D01*
X110552829Y-52526675D01*
X110680825Y-52654671D01*
X110811466Y-52749586D01*
X110025331Y-53535721D01*
X110177284Y-53652319D01*
X110177292Y-53652325D01*
X110432707Y-53799790D01*
X110432718Y-53799795D01*
X110705199Y-53912661D01*
X110705209Y-53912664D01*
X110990102Y-53989000D01*
X110990115Y-53989003D01*
X111282516Y-54027498D01*
X111282534Y-54027500D01*
X111577466Y-54027500D01*
X111577483Y-54027498D01*
X111869884Y-53989003D01*
X111869897Y-53989000D01*
X112154790Y-53912664D01*
X112154800Y-53912661D01*
X112427281Y-53799795D01*
X112427292Y-53799790D01*
X112682707Y-53652325D01*
X112682725Y-53652313D01*
X112834667Y-53535722D01*
X112834667Y-53535720D01*
X112048533Y-52749586D01*
X112179175Y-52654671D01*
X112307171Y-52526675D01*
X112402086Y-52396033D01*
X113188220Y-53182167D01*
X113188222Y-53182167D01*
X113304813Y-53030225D01*
X113304825Y-53030207D01*
X113452290Y-52774792D01*
X113452295Y-52774781D01*
X113565161Y-52502300D01*
X113565164Y-52502290D01*
X113641500Y-52217397D01*
X113641503Y-52217384D01*
X113679998Y-51924983D01*
X113680000Y-51924966D01*
X113680000Y-51630033D01*
X113679998Y-51630016D01*
X113641503Y-51337615D01*
X113641500Y-51337602D01*
X113565164Y-51052709D01*
X113565161Y-51052699D01*
X113452295Y-50780218D01*
X113452290Y-50780207D01*
X113304825Y-50524792D01*
X113304819Y-50524784D01*
X113188221Y-50372831D01*
X112402086Y-51158966D01*
X112307171Y-51028325D01*
X112179175Y-50900329D01*
X112048532Y-50805412D01*
X112834667Y-50019277D01*
X112682715Y-49902680D01*
X112682707Y-49902674D01*
X112427292Y-49755209D01*
X112427281Y-49755204D01*
X112154800Y-49642338D01*
X112154790Y-49642335D01*
X111869897Y-49565999D01*
X111869884Y-49565996D01*
X111577483Y-49527501D01*
X111577466Y-49527500D01*
X111282534Y-49527500D01*
X111282516Y-49527501D01*
X110990115Y-49565996D01*
X110990102Y-49565999D01*
X110705209Y-49642335D01*
X110705199Y-49642338D01*
X110432718Y-49755204D01*
X110432707Y-49755209D01*
X110177292Y-49902674D01*
X110177276Y-49902685D01*
X110025331Y-50019275D01*
X110025331Y-50019277D01*
X110811466Y-50805412D01*
X110680825Y-50900329D01*
X110552829Y-51028325D01*
X110457912Y-51158966D01*
X109671777Y-50372831D01*
X109671775Y-50372831D01*
X109555185Y-50524776D01*
X109555174Y-50524792D01*
X109407709Y-50780207D01*
X109407704Y-50780218D01*
X109294838Y-51052699D01*
X109294835Y-51052709D01*
X109218499Y-51337602D01*
X109218496Y-51337615D01*
X109180001Y-51630016D01*
X109180000Y-51630033D01*
X107750500Y-51630033D01*
X107750500Y-47624500D01*
X107770185Y-47557461D01*
X107822989Y-47511706D01*
X107874500Y-47500500D01*
X130375500Y-47500500D01*
X130442539Y-47520185D01*
G37*
%TD.AperFunction*%
%TD*%
M02*
