%TF.GenerationSoftware,KiCad,Pcbnew,10.0.3*%
%TF.CreationDate,2026-06-25T19:54:17+05:45*%
%TF.ProjectId,USB2UART,55534232-5541-4525-942e-6b696361645f,rev?*%
%TF.SameCoordinates,Original*%
%TF.FileFunction,Plated,1,4,PTH,Drill*%
%TF.FilePolarity,Positive*%
%FSLAX46Y46*%
G04 Gerber Fmt 4.6, Leading zero omitted, Abs format (unit mm)*
G04 Created by KiCad (PCBNEW 10.0.3) date 2026-06-25 19:54:17*
%MOMM*%
%LPD*%
G01*
G04 APERTURE LIST*
%TA.AperFunction,ViaDrill*%
%ADD10C,0.300000*%
%TD*%
%TA.AperFunction,ComponentDrill*%
%ADD11C,0.700000*%
%TD*%
%TA.AperFunction,ComponentDrill*%
%ADD12C,0.800000*%
%TD*%
%TA.AperFunction,ComponentDrill*%
%ADD13C,0.900000*%
%TD*%
%TA.AperFunction,ComponentDrill*%
%ADD14C,0.920000*%
%TD*%
%TA.AperFunction,ComponentDrill*%
%ADD15C,2.300000*%
%TD*%
G04 APERTURE END LIST*
D10*
X112775000Y-68875000D03*
X117750000Y-64675000D03*
X120000000Y-66325000D03*
X120100000Y-51900000D03*
X120400000Y-68500000D03*
X120700000Y-74500000D03*
X123225000Y-69275000D03*
X123450000Y-70950000D03*
X123575000Y-71925000D03*
X126125000Y-72100000D03*
X127450000Y-70025000D03*
D11*
%TO.C,R2*%
X123710000Y-78500000D03*
%TO.C,R1*%
X124460000Y-70000000D03*
%TO.C,R2*%
X128790000Y-78500000D03*
%TO.C,R1*%
X129540000Y-70000000D03*
D12*
%TO.C,C4*%
X109544888Y-67000000D03*
X111544888Y-67000000D03*
%TO.C,C2*%
X114750000Y-76250000D03*
X114750000Y-81250000D03*
%TO.C,J2*%
X117500000Y-86000000D03*
%TO.C,C3*%
X118250000Y-82250000D03*
%TO.C,J2*%
X119500000Y-86000000D03*
X121500000Y-86000000D03*
%TO.C,C3*%
X123250000Y-82250000D03*
%TO.C,J2*%
X123500000Y-86000000D03*
%TO.C,C1*%
X128000000Y-56400000D03*
X128000000Y-61400000D03*
D13*
%TO.C,D3*%
X109480000Y-72500000D03*
X112020000Y-72500000D03*
%TO.C,D1*%
X124960000Y-66250000D03*
%TO.C,D2*%
X124980000Y-74750000D03*
%TO.C,D1*%
X127500000Y-66250000D03*
%TO.C,D2*%
X127520000Y-74750000D03*
D14*
%TO.C,J1*%
X114500000Y-49067500D03*
X117000000Y-49067500D03*
X119000000Y-49067500D03*
X121500000Y-49067500D03*
D15*
X111430000Y-51777500D03*
X124570000Y-51777500D03*
M02*
