%TF.GenerationSoftware,KiCad,Pcbnew,10.0.3*%
%TF.CreationDate,2026-06-25T19:54:13+05:45*%
%TF.ProjectId,USB2UART,55534232-5541-4525-942e-6b696361645f,rev?*%
%TF.SameCoordinates,Original*%
%TF.FileFunction,Copper,L4,Bot*%
%TF.FilePolarity,Positive*%
%FSLAX46Y46*%
G04 Gerber Fmt 4.6, Leading zero omitted, Abs format (unit mm)*
G04 Created by KiCad (PCBNEW 10.0.3) date 2026-06-25 19:54:13*
%MOMM*%
%LPD*%
G01*
G04 APERTURE LIST*
G04 Aperture macros list*
%AMRoundRect*
0 Rectangle with rounded corners*
0 $1 Rounding radius*
0 $2 $3 $4 $5 $6 $7 $8 $9 X,Y pos of 4 corners*
0 Add a 4 corners polygon primitive as box body*
4,1,4,$2,$3,$4,$5,$6,$7,$8,$9,$2,$3,0*
0 Add four circle primitives for the rounded corners*
1,1,$1+$1,$2,$3*
1,1,$1+$1,$4,$5*
1,1,$1+$1,$6,$7*
1,1,$1+$1,$8,$9*
0 Add four rect primitives between the rounded corners*
20,1,$1+$1,$2,$3,$4,$5,0*
20,1,$1+$1,$4,$5,$6,$7,0*
20,1,$1+$1,$6,$7,$8,$9,0*
20,1,$1+$1,$8,$9,$2,$3,0*%
G04 Aperture macros list end*
%TA.AperFunction,ComponentPad*%
%ADD10C,1.400000*%
%TD*%
%TA.AperFunction,ComponentPad*%
%ADD11C,1.350000*%
%TD*%
%TA.AperFunction,ComponentPad*%
%ADD12R,1.350000X1.350000*%
%TD*%
%TA.AperFunction,ComponentPad*%
%ADD13C,3.500000*%
%TD*%
%TA.AperFunction,ComponentPad*%
%ADD14C,1.524000*%
%TD*%
%TA.AperFunction,ComponentPad*%
%ADD15RoundRect,0.250000X-0.512000X-0.512000X0.512000X-0.512000X0.512000X0.512000X-0.512000X0.512000X0*%
%TD*%
%TA.AperFunction,ComponentPad*%
%ADD16C,1.800000*%
%TD*%
%TA.AperFunction,ComponentPad*%
%ADD17R,1.800000X1.800000*%
%TD*%
%TA.AperFunction,ComponentPad*%
%ADD18C,1.600000*%
%TD*%
%TA.AperFunction,ComponentPad*%
%ADD19RoundRect,0.250000X-0.550000X-0.550000X0.550000X-0.550000X0.550000X0.550000X-0.550000X0.550000X0*%
%TD*%
%TA.AperFunction,ViaPad*%
%ADD20C,0.600000*%
%TD*%
%TA.AperFunction,Conductor*%
%ADD21C,0.400000*%
%TD*%
%TA.AperFunction,Conductor*%
%ADD22C,0.600000*%
%TD*%
G04 APERTURE END LIST*
D10*
%TO.P,R2,1*%
%TO.N,Net-(D2-A)*%
X128790000Y-78500000D03*
%TO.P,R2,2*%
%TO.N,VCC*%
X123710000Y-78500000D03*
%TD*%
%TO.P,R1,1*%
%TO.N,Net-(D1-A)*%
X129540000Y-70000000D03*
%TO.P,R1,2*%
%TO.N,VCC*%
X124460000Y-70000000D03*
%TD*%
D11*
%TO.P,J2,4,Pin_4_4*%
%TO.N,VCC*%
X123500000Y-86000000D03*
%TO.P,J2,3,Pin_3_3*%
%TO.N,Net-(J2-Pin_3)*%
X121500000Y-86000000D03*
%TO.P,J2,2,Pin_2_2*%
%TO.N,Net-(J2-Pin_2)*%
X119500000Y-86000000D03*
D12*
%TO.P,J2,1,Pin_1_1*%
%TO.N,GND*%
X117500000Y-86000000D03*
%TD*%
D13*
%TO.P,J1,SH,Shield_SH*%
%TO.N,GND*%
X124570000Y-51777500D03*
X111430000Y-51777500D03*
D14*
%TO.P,J1,4,GND_4*%
X121500000Y-49067500D03*
%TO.P,J1,3,D+_3*%
%TO.N,Net-(J1-D+)*%
X119000000Y-49067500D03*
%TO.P,J1,2,D-_2*%
%TO.N,Net-(J1-D-)*%
X117000000Y-49067500D03*
D15*
%TO.P,J1,1,VBUS_1*%
%TO.N,VCC*%
X114500000Y-49067500D03*
%TD*%
D16*
%TO.P,D3,2,A_2*%
%TO.N,VCC*%
X109480000Y-72500000D03*
D17*
%TO.P,D3,1,K_1*%
%TO.N,GND*%
X112020000Y-72500000D03*
%TD*%
%TO.P,D2,1,K_1*%
%TO.N,Net-(D2-K)*%
X124980000Y-74750000D03*
D16*
%TO.P,D2,2,A_2*%
%TO.N,Net-(D2-A)*%
X127520000Y-74750000D03*
%TD*%
%TO.P,D1,2,A_2*%
%TO.N,Net-(D1-A)*%
X127500000Y-66250000D03*
D17*
%TO.P,D1,1,K_1*%
%TO.N,Net-(D1-K)*%
X124960000Y-66250000D03*
%TD*%
D18*
%TO.P,C4,2*%
%TO.N,GND*%
X111544888Y-67000000D03*
D19*
%TO.P,C4,1*%
%TO.N,VCC*%
X109544888Y-67000000D03*
%TD*%
D18*
%TO.P,C3,2*%
%TO.N,VCC*%
X123250000Y-82250000D03*
%TO.P,C3,1*%
%TO.N,GND*%
X118250000Y-82250000D03*
%TD*%
%TO.P,C2,2*%
%TO.N,Net-(U1-3V3OUT)*%
X114750000Y-81250000D03*
%TO.P,C2,1*%
%TO.N,GND*%
X114750000Y-76250000D03*
%TD*%
%TO.P,C1,2*%
%TO.N,GND*%
X128000000Y-61400000D03*
%TO.P,C1,1*%
%TO.N,VCC*%
X128000000Y-56400000D03*
%TD*%
D20*
%TO.N,GND*%
X127450000Y-70025000D03*
X123225000Y-69275000D03*
X126125000Y-72100000D03*
X123450000Y-70950000D03*
X120000000Y-66325000D03*
X117750000Y-64675000D03*
X112775000Y-68875000D03*
%TO.N,Net-(J1-D-)*%
X120100000Y-51900000D03*
%TO.N,Net-(U1-3V3OUT)*%
X123575000Y-71925000D03*
%TO.N,Net-(D2-K)*%
X120400000Y-68500000D03*
X120700000Y-74500000D03*
%TD*%
%TO.N,GND*%
D21*
X126398000Y-68973000D02*
X127450000Y-70025000D01*
X123527000Y-68973000D02*
X126398000Y-68973000D01*
X123225000Y-69275000D02*
X123527000Y-68973000D01*
X123450000Y-70950000D02*
X123486712Y-70950000D01*
X124636712Y-72100000D02*
X126125000Y-72100000D01*
X123486712Y-70950000D02*
X124636712Y-72100000D01*
X119400000Y-66325000D02*
X117750000Y-64675000D01*
X120000000Y-66325000D02*
X119400000Y-66325000D01*
X111544888Y-67644888D02*
X112775000Y-68875000D01*
X111544888Y-67000000D02*
X111544888Y-67644888D01*
%TO.N,Net-(J1-D-)*%
X118275000Y-51950000D02*
X117000000Y-50675000D01*
X117000000Y-50675000D02*
X117000000Y-49067500D01*
X118325000Y-51900000D02*
X118275000Y-51950000D01*
X120100000Y-51900000D02*
X118325000Y-51900000D01*
%TO.N,Net-(U1-3V3OUT)*%
X115575000Y-81250000D02*
X114750000Y-81250000D01*
X124025000Y-72350000D02*
X123975000Y-73200000D01*
X123575000Y-71925000D02*
X124025000Y-72350000D01*
X123975000Y-73200000D02*
X115575000Y-81250000D01*
%TO.N,Net-(D2-K)*%
X120500000Y-70700000D02*
X120400000Y-68500000D01*
X120700000Y-74500000D02*
X120500000Y-70700000D01*
%TO.N,VCC*%
D22*
X123710000Y-78500000D02*
X123500000Y-78290000D01*
%TO.N,Net-(D2-A)*%
X127520000Y-77230000D02*
X128790000Y-78500000D01*
X127520000Y-74750000D02*
X127520000Y-77230000D01*
%TO.N,VCC*%
X109480000Y-67064888D02*
X109544888Y-67000000D01*
X109480000Y-72500000D02*
X109480000Y-67064888D01*
X123250000Y-85750000D02*
X123500000Y-86000000D01*
%TO.N,Net-(D1-A)*%
X127500000Y-67960000D02*
X129540000Y-70000000D01*
X127500000Y-66250000D02*
X127500000Y-67960000D01*
%TD*%
%TA.AperFunction,Conductor*%
%TO.N,VCC*%
G36*
X130442539Y-47520185D02*
G01*
X130488294Y-47572989D01*
X130499500Y-47624500D01*
X130499500Y-68969854D01*
X130479815Y-69036893D01*
X130427011Y-69082648D01*
X130357853Y-69092592D01*
X130302614Y-69070172D01*
X130169199Y-68973240D01*
X130000836Y-68887454D01*
X129821118Y-68829059D01*
X129634486Y-68799500D01*
X129634481Y-68799500D01*
X129522940Y-68799500D01*
X129455901Y-68779815D01*
X129435259Y-68763181D01*
X128336819Y-67664741D01*
X128322115Y-67637813D01*
X128305523Y-67611995D01*
X128304631Y-67605794D01*
X128303334Y-67603418D01*
X128300500Y-67577060D01*
X128300500Y-67462697D01*
X128320185Y-67395658D01*
X128351616Y-67362378D01*
X128412361Y-67318245D01*
X128412361Y-67318244D01*
X128412365Y-67318242D01*
X128568242Y-67162365D01*
X128697815Y-66984022D01*
X128797895Y-66787606D01*
X128866015Y-66577951D01*
X128900500Y-66360222D01*
X128900500Y-66139778D01*
X128866015Y-65922049D01*
X128824664Y-65794781D01*
X128797896Y-65712396D01*
X128797895Y-65712393D01*
X128748580Y-65615609D01*
X128697815Y-65515978D01*
X128639501Y-65435715D01*
X128568247Y-65337641D01*
X128568243Y-65337636D01*
X128412363Y-65181756D01*
X128412358Y-65181752D01*
X128234025Y-65052187D01*
X128234024Y-65052186D01*
X128234022Y-65052185D01*
X128116791Y-64992452D01*
X128037606Y-64952104D01*
X128037603Y-64952103D01*
X127827952Y-64883985D01*
X127719086Y-64866742D01*
X127610222Y-64849500D01*
X127389778Y-64849500D01*
X127317201Y-64860995D01*
X127172047Y-64883985D01*
X126962396Y-64952103D01*
X126962393Y-64952104D01*
X126765974Y-65052187D01*
X126587641Y-65181752D01*
X126587636Y-65181756D01*
X126537463Y-65231929D01*
X126476140Y-65265413D01*
X126406448Y-65260428D01*
X126350515Y-65218557D01*
X126333601Y-65187580D01*
X126303797Y-65107671D01*
X126303793Y-65107664D01*
X126217547Y-64992455D01*
X126217544Y-64992452D01*
X126102335Y-64906206D01*
X126102328Y-64906202D01*
X125967482Y-64855908D01*
X125967483Y-64855908D01*
X125907883Y-64849501D01*
X125907881Y-64849500D01*
X125907873Y-64849500D01*
X125907864Y-64849500D01*
X124012129Y-64849500D01*
X124012123Y-64849501D01*
X123952516Y-64855908D01*
X123817671Y-64906202D01*
X123817664Y-64906206D01*
X123702455Y-64992452D01*
X123702452Y-64992455D01*
X123616206Y-65107664D01*
X123616202Y-65107671D01*
X123565908Y-65242517D01*
X123559501Y-65302116D01*
X123559500Y-65302135D01*
X123559500Y-67197870D01*
X123559501Y-67197876D01*
X123565908Y-67257483D01*
X123616202Y-67392328D01*
X123616206Y-67392335D01*
X123702452Y-67507544D01*
X123702455Y-67507547D01*
X123817664Y-67593793D01*
X123817671Y-67593797D01*
X123952517Y-67644091D01*
X123952516Y-67644091D01*
X123959444Y-67644835D01*
X124012127Y-67650500D01*
X125907872Y-67650499D01*
X125967483Y-67644091D01*
X126102331Y-67593796D01*
X126217546Y-67507546D01*
X126303796Y-67392331D01*
X126311103Y-67372741D01*
X126333601Y-67312420D01*
X126351665Y-67288287D01*
X126367730Y-67262783D01*
X126372388Y-67260604D01*
X126375471Y-67256486D01*
X126403715Y-67245950D01*
X126431019Y-67233180D01*
X126436116Y-67233865D01*
X126440936Y-67232068D01*
X126470391Y-67238475D01*
X126500265Y-67242493D01*
X126505541Y-67246121D01*
X126509209Y-67246919D01*
X126530129Y-67261303D01*
X126533926Y-67264533D01*
X126587635Y-67318242D01*
X126652235Y-67365176D01*
X126655846Y-67368248D01*
X126672503Y-67393655D01*
X126691050Y-67417707D01*
X126692165Y-67423647D01*
X126694154Y-67426680D01*
X126694226Y-67434618D01*
X126699500Y-67462697D01*
X126699500Y-68038846D01*
X126721265Y-68148266D01*
X126715038Y-68217857D01*
X126672175Y-68273035D01*
X126606285Y-68296279D01*
X126575457Y-68294074D01*
X126466997Y-68272500D01*
X126466994Y-68272500D01*
X126466993Y-68272500D01*
X123458007Y-68272500D01*
X123458003Y-68272500D01*
X123355633Y-68292862D01*
X123355621Y-68292865D01*
X123349591Y-68294065D01*
X123322671Y-68299420D01*
X123296511Y-68310256D01*
X123290949Y-68312559D01*
X123290945Y-68312561D01*
X123195191Y-68352223D01*
X123089910Y-68422570D01*
X123089906Y-68422573D01*
X123081101Y-68428457D01*
X123080457Y-68428887D01*
X123029247Y-68480095D01*
X123028056Y-68481225D01*
X123023437Y-68483590D01*
X122990186Y-68505808D01*
X122845823Y-68565604D01*
X122845814Y-68565609D01*
X122714711Y-68653210D01*
X122714707Y-68653213D01*
X122603213Y-68764707D01*
X122603210Y-68764711D01*
X122515609Y-68895814D01*
X122515602Y-68895827D01*
X122455264Y-69041498D01*
X122455261Y-69041510D01*
X122424500Y-69196153D01*
X122424500Y-69353846D01*
X122455261Y-69508489D01*
X122455264Y-69508501D01*
X122515602Y-69654172D01*
X122515609Y-69654185D01*
X122603210Y-69785288D01*
X122603213Y-69785292D01*
X122714707Y-69896786D01*
X122714711Y-69896789D01*
X122845814Y-69984390D01*
X122845827Y-69984397D01*
X122991493Y-70044733D01*
X122991503Y-70044737D01*
X122991512Y-70044738D01*
X122996774Y-70046335D01*
X123055214Y-70084631D01*
X123083672Y-70148442D01*
X123073114Y-70217510D01*
X123029673Y-70268099D01*
X122939711Y-70328210D01*
X122939707Y-70328213D01*
X122828213Y-70439707D01*
X122828210Y-70439711D01*
X122740609Y-70570814D01*
X122740602Y-70570827D01*
X122680264Y-70716498D01*
X122680261Y-70716510D01*
X122649500Y-70871153D01*
X122649500Y-71028846D01*
X122680261Y-71183489D01*
X122680264Y-71183501D01*
X122740602Y-71329172D01*
X122740609Y-71329185D01*
X122828210Y-71460288D01*
X122829459Y-71461810D01*
X122829863Y-71462762D01*
X122831595Y-71465354D01*
X122831103Y-71465682D01*
X122856771Y-71526120D01*
X122848166Y-71587925D01*
X122805261Y-71691507D01*
X122805261Y-71691510D01*
X122774500Y-71846153D01*
X122774500Y-72003846D01*
X122805261Y-72158489D01*
X122805264Y-72158501D01*
X122865602Y-72304172D01*
X122865609Y-72304185D01*
X122953210Y-72435288D01*
X122953213Y-72435292D01*
X123064707Y-72546786D01*
X123064711Y-72546789D01*
X123195814Y-72634390D01*
X123195821Y-72634394D01*
X123222409Y-72645407D01*
X123240731Y-72660171D01*
X123261522Y-72671185D01*
X123267429Y-72681685D01*
X123276812Y-72689246D01*
X123284243Y-72711572D01*
X123295780Y-72732079D01*
X123297376Y-72751028D01*
X123298878Y-72755540D01*
X123298743Y-72767249D01*
X123294707Y-72835869D01*
X123271120Y-72901637D01*
X123256717Y-72918115D01*
X121693861Y-74415852D01*
X121631840Y-74448024D01*
X121562270Y-74441559D01*
X121507240Y-74398507D01*
X121486449Y-74350519D01*
X121469737Y-74266503D01*
X121447325Y-74212396D01*
X121409396Y-74120825D01*
X121409393Y-74120820D01*
X121398065Y-74103867D01*
X121377336Y-74041492D01*
X121199679Y-70665975D01*
X121199636Y-70665089D01*
X121190343Y-70460637D01*
X121118815Y-68887033D01*
X121128124Y-68833956D01*
X121169737Y-68733497D01*
X121200500Y-68578842D01*
X121200500Y-68421158D01*
X121200500Y-68421155D01*
X121200499Y-68421153D01*
X121184193Y-68339179D01*
X121169737Y-68266503D01*
X121156422Y-68234358D01*
X121109397Y-68120827D01*
X121109390Y-68120814D01*
X121021789Y-67989711D01*
X121021786Y-67989707D01*
X120910292Y-67878213D01*
X120910288Y-67878210D01*
X120779185Y-67790609D01*
X120779172Y-67790602D01*
X120633501Y-67730264D01*
X120633489Y-67730261D01*
X120478845Y-67699500D01*
X120478842Y-67699500D01*
X120321158Y-67699500D01*
X120321155Y-67699500D01*
X120166510Y-67730261D01*
X120166498Y-67730264D01*
X120020827Y-67790602D01*
X120020814Y-67790609D01*
X119889711Y-67878210D01*
X119889707Y-67878213D01*
X119778213Y-67989707D01*
X119778210Y-67989711D01*
X119690609Y-68120814D01*
X119690602Y-68120827D01*
X119630264Y-68266498D01*
X119630261Y-68266510D01*
X119599500Y-68421153D01*
X119599500Y-68578846D01*
X119630261Y-68733489D01*
X119630264Y-68733501D01*
X119690602Y-68879171D01*
X119690609Y-68879184D01*
X119698665Y-68891240D01*
X119719435Y-68954500D01*
X119795546Y-70628937D01*
X119797204Y-70665416D01*
X119796842Y-70667920D01*
X119800319Y-70733994D01*
X119800353Y-70734733D01*
X119800356Y-70734775D01*
X119803370Y-70801071D01*
X119804400Y-70811547D01*
X119978453Y-74118561D01*
X119969186Y-74172529D01*
X119930263Y-74266501D01*
X119930261Y-74266505D01*
X119899500Y-74421153D01*
X119899500Y-74578846D01*
X119930261Y-74733489D01*
X119930264Y-74733501D01*
X119990602Y-74879172D01*
X119990609Y-74879185D01*
X120078210Y-75010288D01*
X120078213Y-75010292D01*
X120189707Y-75121786D01*
X120189711Y-75121789D01*
X120320814Y-75209390D01*
X120320827Y-75209397D01*
X120438249Y-75258034D01*
X120466503Y-75269737D01*
X120511569Y-75278701D01*
X120573478Y-75311085D01*
X120608053Y-75371800D01*
X120604314Y-75441570D01*
X120573173Y-75489845D01*
X115672307Y-80186509D01*
X115610286Y-80218681D01*
X115540716Y-80212216D01*
X115513626Y-80197300D01*
X115431613Y-80137715D01*
X115431612Y-80137714D01*
X115431610Y-80137713D01*
X115374653Y-80108691D01*
X115249223Y-80044781D01*
X115054534Y-79981522D01*
X114879995Y-79953878D01*
X114852352Y-79949500D01*
X114647648Y-79949500D01*
X114623329Y-79953351D01*
X114445465Y-79981522D01*
X114250776Y-80044781D01*
X114068386Y-80137715D01*
X113902786Y-80258028D01*
X113758028Y-80402786D01*
X113637715Y-80568386D01*
X113544781Y-80750776D01*
X113481522Y-80945465D01*
X113449500Y-81147648D01*
X113449500Y-81352351D01*
X113481522Y-81554534D01*
X113544781Y-81749223D01*
X113637715Y-81931613D01*
X113758028Y-82097213D01*
X113902786Y-82241971D01*
X114057749Y-82354556D01*
X114068390Y-82362287D01*
X114151030Y-82404394D01*
X114250776Y-82455218D01*
X114250778Y-82455218D01*
X114250781Y-82455220D01*
X114355137Y-82489127D01*
X114445465Y-82518477D01*
X114546557Y-82534488D01*
X114647648Y-82550500D01*
X114647649Y-82550500D01*
X114852351Y-82550500D01*
X114852352Y-82550500D01*
X115054534Y-82518477D01*
X115249219Y-82455220D01*
X115431610Y-82362287D01*
X115586160Y-82250001D01*
X115597213Y-82241971D01*
X115597215Y-82241968D01*
X115597219Y-82241966D01*
X115691537Y-82147648D01*
X116949500Y-82147648D01*
X116949500Y-82352351D01*
X116981522Y-82554534D01*
X117044781Y-82749223D01*
X117108691Y-82874653D01*
X117137585Y-82931359D01*
X117137715Y-82931613D01*
X117258028Y-83097213D01*
X117402786Y-83241971D01*
X117523226Y-83329474D01*
X117568390Y-83362287D01*
X117684607Y-83421503D01*
X117750776Y-83455218D01*
X117750778Y-83455218D01*
X117750781Y-83455220D01*
X117855137Y-83489127D01*
X117945465Y-83518477D01*
X118046557Y-83534488D01*
X118147648Y-83550500D01*
X118147649Y-83550500D01*
X118352351Y-83550500D01*
X118352352Y-83550500D01*
X118554534Y-83518477D01*
X118749219Y-83455220D01*
X118931610Y-83362287D01*
X119024590Y-83294732D01*
X119097213Y-83241971D01*
X119097215Y-83241968D01*
X119097219Y-83241966D01*
X119241966Y-83097219D01*
X119241968Y-83097215D01*
X119241971Y-83097213D01*
X119294732Y-83024590D01*
X119362287Y-82931610D01*
X119455220Y-82749219D01*
X119518477Y-82554534D01*
X119550500Y-82352352D01*
X119550500Y-82147682D01*
X121950000Y-82147682D01*
X121950000Y-82352317D01*
X121982009Y-82554417D01*
X122045244Y-82749031D01*
X122138141Y-82931350D01*
X122138147Y-82931359D01*
X122170523Y-82975921D01*
X122170524Y-82975922D01*
X122850000Y-82296446D01*
X122850000Y-82302661D01*
X122877259Y-82404394D01*
X122929920Y-82495606D01*
X123004394Y-82570080D01*
X123095606Y-82622741D01*
X123197339Y-82650000D01*
X123203553Y-82650000D01*
X122524076Y-83329474D01*
X122568650Y-83361859D01*
X122750968Y-83454755D01*
X122945582Y-83517990D01*
X123147683Y-83550000D01*
X123352317Y-83550000D01*
X123554417Y-83517990D01*
X123749031Y-83454755D01*
X123931349Y-83361859D01*
X123975921Y-83329474D01*
X123296447Y-82650000D01*
X123302661Y-82650000D01*
X123404394Y-82622741D01*
X123495606Y-82570080D01*
X123570080Y-82495606D01*
X123622741Y-82404394D01*
X123650000Y-82302661D01*
X123650000Y-82296447D01*
X124329474Y-82975921D01*
X124361859Y-82931349D01*
X124454755Y-82749031D01*
X124517990Y-82554417D01*
X124550000Y-82352317D01*
X124550000Y-82147682D01*
X124517990Y-81945582D01*
X124454755Y-81750968D01*
X124361859Y-81568650D01*
X124329474Y-81524077D01*
X124329474Y-81524076D01*
X123650000Y-82203551D01*
X123650000Y-82197339D01*
X123622741Y-82095606D01*
X123570080Y-82004394D01*
X123495606Y-81929920D01*
X123404394Y-81877259D01*
X123302661Y-81850000D01*
X123296446Y-81850000D01*
X123975922Y-81170524D01*
X123975921Y-81170523D01*
X123931359Y-81138147D01*
X123931350Y-81138141D01*
X123749031Y-81045244D01*
X123554417Y-80982009D01*
X123352317Y-80950000D01*
X123147683Y-80950000D01*
X122945582Y-80982009D01*
X122750968Y-81045244D01*
X122568644Y-81138143D01*
X122524077Y-81170523D01*
X122524077Y-81170524D01*
X123203554Y-81850000D01*
X123197339Y-81850000D01*
X123095606Y-81877259D01*
X123004394Y-81929920D01*
X122929920Y-82004394D01*
X122877259Y-82095606D01*
X122850000Y-82197339D01*
X122850000Y-82203553D01*
X122170524Y-81524077D01*
X122170523Y-81524077D01*
X122138143Y-81568644D01*
X122045244Y-81750968D01*
X121982009Y-81945582D01*
X121950000Y-82147682D01*
X119550500Y-82147682D01*
X119550500Y-82147648D01*
X119538364Y-82071026D01*
X119518477Y-81945465D01*
X119469300Y-81794114D01*
X119455220Y-81750781D01*
X119455218Y-81750778D01*
X119455218Y-81750776D01*
X119362419Y-81568650D01*
X119362287Y-81568390D01*
X119330092Y-81524077D01*
X119241971Y-81402786D01*
X119097213Y-81258028D01*
X118931613Y-81137715D01*
X118931612Y-81137714D01*
X118931610Y-81137713D01*
X118874653Y-81108691D01*
X118749223Y-81044781D01*
X118554534Y-80981522D01*
X118379995Y-80953878D01*
X118352352Y-80949500D01*
X118147648Y-80949500D01*
X118123329Y-80953351D01*
X117945465Y-80981522D01*
X117750776Y-81044781D01*
X117568386Y-81137715D01*
X117402786Y-81258028D01*
X117258028Y-81402786D01*
X117137715Y-81568386D01*
X117044781Y-81750776D01*
X116981522Y-81945465D01*
X116949500Y-82147648D01*
X115691537Y-82147648D01*
X115741966Y-82097219D01*
X115743758Y-82094751D01*
X115760997Y-82071026D01*
X115761013Y-82071001D01*
X115862287Y-81931610D01*
X115875406Y-81905859D01*
X115880162Y-81898995D01*
X115894933Y-81887065D01*
X115913203Y-81866503D01*
X115944654Y-81845488D01*
X115956911Y-81837299D01*
X115959120Y-81835857D01*
X115959905Y-81835356D01*
X116009868Y-81803489D01*
X116015295Y-81798288D01*
X116021542Y-81794114D01*
X116065044Y-81750612D01*
X118405283Y-79507882D01*
X123055669Y-79507882D01*
X123055670Y-79507883D01*
X123081059Y-79526329D01*
X123249362Y-79612085D01*
X123428997Y-79670451D01*
X123615553Y-79700000D01*
X123804447Y-79700000D01*
X123991002Y-79670451D01*
X124170637Y-79612085D01*
X124338937Y-79526331D01*
X124364328Y-79507883D01*
X124364328Y-79507882D01*
X123710001Y-78853554D01*
X123710000Y-78853554D01*
X123055669Y-79507882D01*
X118405283Y-79507882D01*
X119555540Y-78405552D01*
X122510000Y-78405552D01*
X122510000Y-78594447D01*
X122539548Y-78781002D01*
X122597914Y-78960637D01*
X122683666Y-79128933D01*
X122702116Y-79154328D01*
X123356446Y-78500000D01*
X123356446Y-78499999D01*
X123310369Y-78453922D01*
X123360000Y-78453922D01*
X123360000Y-78546078D01*
X123383852Y-78635095D01*
X123429930Y-78714905D01*
X123495095Y-78780070D01*
X123574905Y-78826148D01*
X123663922Y-78850000D01*
X123756078Y-78850000D01*
X123845095Y-78826148D01*
X123924905Y-78780070D01*
X123990070Y-78714905D01*
X124036148Y-78635095D01*
X124060000Y-78546078D01*
X124060000Y-78499999D01*
X124063554Y-78499999D01*
X124063554Y-78500000D01*
X124717882Y-79154328D01*
X124717883Y-79154328D01*
X124736331Y-79128937D01*
X124822085Y-78960637D01*
X124880451Y-78781002D01*
X124910000Y-78594447D01*
X124910000Y-78405552D01*
X124880451Y-78218997D01*
X124822085Y-78039362D01*
X124736329Y-77871059D01*
X124717883Y-77845670D01*
X124717882Y-77845669D01*
X124063554Y-78499999D01*
X124060000Y-78499999D01*
X124060000Y-78453922D01*
X124036148Y-78364905D01*
X123990070Y-78285095D01*
X123924905Y-78219930D01*
X123845095Y-78173852D01*
X123756078Y-78150000D01*
X123663922Y-78150000D01*
X123574905Y-78173852D01*
X123495095Y-78219930D01*
X123429930Y-78285095D01*
X123383852Y-78364905D01*
X123360000Y-78453922D01*
X123310369Y-78453922D01*
X122702116Y-77845669D01*
X122702116Y-77845670D01*
X122683669Y-77871060D01*
X122597914Y-78039362D01*
X122539548Y-78218997D01*
X122510000Y-78405552D01*
X119555540Y-78405552D01*
X120508690Y-77492116D01*
X123055669Y-77492116D01*
X123710000Y-78146446D01*
X123710001Y-78146446D01*
X124364328Y-77492116D01*
X124338933Y-77473666D01*
X124170637Y-77387914D01*
X123991002Y-77329548D01*
X123804447Y-77300000D01*
X123615553Y-77300000D01*
X123428997Y-77329548D01*
X123249362Y-77387914D01*
X123081060Y-77473669D01*
X123055670Y-77492116D01*
X123055669Y-77492116D01*
X120508690Y-77492116D01*
X123369705Y-74750310D01*
X123431725Y-74718139D01*
X123501295Y-74724604D01*
X123556325Y-74767656D01*
X123579344Y-74833625D01*
X123579500Y-74839838D01*
X123579500Y-75697870D01*
X123579501Y-75697876D01*
X123585908Y-75757483D01*
X123636202Y-75892328D01*
X123636206Y-75892335D01*
X123722452Y-76007544D01*
X123722455Y-76007547D01*
X123837664Y-76093793D01*
X123837671Y-76093797D01*
X123972517Y-76144091D01*
X123972516Y-76144091D01*
X123979444Y-76144835D01*
X124032127Y-76150500D01*
X125927872Y-76150499D01*
X125987483Y-76144091D01*
X126122331Y-76093796D01*
X126237546Y-76007546D01*
X126323796Y-75892331D01*
X126323798Y-75892326D01*
X126353601Y-75812420D01*
X126371665Y-75788287D01*
X126387730Y-75762783D01*
X126392388Y-75760604D01*
X126395471Y-75756486D01*
X126423715Y-75745950D01*
X126451019Y-75733180D01*
X126456116Y-75733865D01*
X126460936Y-75732068D01*
X126490391Y-75738475D01*
X126520265Y-75742493D01*
X126525541Y-75746121D01*
X126529209Y-75746919D01*
X126550129Y-75761303D01*
X126553926Y-75764533D01*
X126607635Y-75818242D01*
X126672235Y-75865176D01*
X126675846Y-75868248D01*
X126692503Y-75893655D01*
X126711050Y-75917707D01*
X126712165Y-75923647D01*
X126714154Y-75926680D01*
X126714226Y-75934618D01*
X126719500Y-75962697D01*
X126719500Y-77308846D01*
X126750261Y-77463489D01*
X126750264Y-77463501D01*
X126810602Y-77609172D01*
X126810609Y-77609185D01*
X126898210Y-77740288D01*
X126898213Y-77740292D01*
X127553181Y-78395259D01*
X127586666Y-78456582D01*
X127589500Y-78482940D01*
X127589500Y-78594486D01*
X127619059Y-78781118D01*
X127677454Y-78960836D01*
X127763104Y-79128933D01*
X127763240Y-79129199D01*
X127874310Y-79282073D01*
X128007927Y-79415690D01*
X128160801Y-79526760D01*
X128240347Y-79567290D01*
X128329163Y-79612545D01*
X128329165Y-79612545D01*
X128329168Y-79612547D01*
X128425497Y-79643846D01*
X128508881Y-79670940D01*
X128695514Y-79700500D01*
X128695519Y-79700500D01*
X128884486Y-79700500D01*
X129071118Y-79670940D01*
X129072623Y-79670451D01*
X129250832Y-79612547D01*
X129419199Y-79526760D01*
X129572073Y-79415690D01*
X129705690Y-79282073D01*
X129816760Y-79129199D01*
X129902547Y-78960832D01*
X129960940Y-78781118D01*
X129971427Y-78714905D01*
X129990500Y-78594486D01*
X129990500Y-78405513D01*
X129960940Y-78218881D01*
X129902545Y-78039163D01*
X129857290Y-77950347D01*
X129816760Y-77870801D01*
X129705690Y-77717927D01*
X129572073Y-77584310D01*
X129419199Y-77473240D01*
X129383829Y-77455218D01*
X129250836Y-77387454D01*
X129071118Y-77329059D01*
X128884486Y-77299500D01*
X128884481Y-77299500D01*
X128772940Y-77299500D01*
X128705901Y-77279815D01*
X128685259Y-77263181D01*
X128356819Y-76934741D01*
X128323334Y-76873418D01*
X128320500Y-76847060D01*
X128320500Y-75962697D01*
X128340185Y-75895658D01*
X128371616Y-75862378D01*
X128432361Y-75818245D01*
X128432361Y-75818244D01*
X128432365Y-75818242D01*
X128588242Y-75662365D01*
X128717815Y-75484022D01*
X128817895Y-75287606D01*
X128886015Y-75077951D01*
X128920500Y-74860222D01*
X128920500Y-74639778D01*
X128886015Y-74422049D01*
X128851955Y-74317221D01*
X128817896Y-74212396D01*
X128817895Y-74212393D01*
X128762597Y-74103867D01*
X128717815Y-74015978D01*
X128633915Y-73900499D01*
X128588247Y-73837641D01*
X128588243Y-73837636D01*
X128432363Y-73681756D01*
X128432358Y-73681752D01*
X128254025Y-73552187D01*
X128254024Y-73552186D01*
X128254022Y-73552185D01*
X128191096Y-73520122D01*
X128057606Y-73452104D01*
X128057603Y-73452103D01*
X127847952Y-73383985D01*
X127739086Y-73366742D01*
X127630222Y-73349500D01*
X127409778Y-73349500D01*
X127337201Y-73360995D01*
X127192047Y-73383985D01*
X126982396Y-73452103D01*
X126982393Y-73452104D01*
X126785974Y-73552187D01*
X126607641Y-73681752D01*
X126607636Y-73681756D01*
X126557463Y-73731929D01*
X126496140Y-73765413D01*
X126426448Y-73760428D01*
X126370515Y-73718557D01*
X126353601Y-73687580D01*
X126323797Y-73607671D01*
X126323793Y-73607664D01*
X126237547Y-73492455D01*
X126237544Y-73492452D01*
X126122335Y-73406206D01*
X126122328Y-73406202D01*
X125987482Y-73355908D01*
X125987483Y-73355908D01*
X125927883Y-73349501D01*
X125927881Y-73349500D01*
X125927873Y-73349500D01*
X125927865Y-73349500D01*
X124799425Y-73349500D01*
X124732386Y-73329815D01*
X124686631Y-73277011D01*
X124675639Y-73218218D01*
X124693345Y-72917218D01*
X124716932Y-72851451D01*
X124772332Y-72808875D01*
X124817131Y-72800500D01*
X125699684Y-72800500D01*
X125747136Y-72809939D01*
X125847356Y-72851451D01*
X125891503Y-72869737D01*
X126046153Y-72900499D01*
X126046156Y-72900500D01*
X126046158Y-72900500D01*
X126203844Y-72900500D01*
X126203845Y-72900499D01*
X126358497Y-72869737D01*
X126504179Y-72809394D01*
X126635289Y-72721789D01*
X126746789Y-72610289D01*
X126834394Y-72479179D01*
X126894737Y-72333497D01*
X126925500Y-72178842D01*
X126925500Y-72021158D01*
X126925500Y-72021155D01*
X126925499Y-72021153D01*
X126894738Y-71866510D01*
X126894737Y-71866503D01*
X126853204Y-71766233D01*
X126834397Y-71720827D01*
X126834390Y-71720814D01*
X126746789Y-71589711D01*
X126746786Y-71589707D01*
X126635292Y-71478213D01*
X126635288Y-71478210D01*
X126504185Y-71390609D01*
X126504172Y-71390602D01*
X126358501Y-71330264D01*
X126358489Y-71330261D01*
X126203845Y-71299500D01*
X126203842Y-71299500D01*
X126046158Y-71299500D01*
X126046155Y-71299500D01*
X125891510Y-71330261D01*
X125891498Y-71330264D01*
X125747136Y-71390061D01*
X125699684Y-71399500D01*
X124978231Y-71399500D01*
X124948790Y-71390855D01*
X124918804Y-71384332D01*
X124913788Y-71380577D01*
X124911192Y-71379815D01*
X124890550Y-71363181D01*
X124851493Y-71324124D01*
X124818008Y-71262801D01*
X124822992Y-71193109D01*
X124864864Y-71137176D01*
X124900860Y-71118511D01*
X124920636Y-71112085D01*
X125088937Y-71026331D01*
X125114328Y-71007883D01*
X125114328Y-71007882D01*
X124456446Y-70350000D01*
X124506078Y-70350000D01*
X124595095Y-70326148D01*
X124674905Y-70280070D01*
X124740070Y-70214905D01*
X124786148Y-70135095D01*
X124810000Y-70046078D01*
X124810000Y-69996446D01*
X125467882Y-70654328D01*
X125467883Y-70654328D01*
X125486331Y-70628937D01*
X125572085Y-70460637D01*
X125630451Y-70281002D01*
X125660000Y-70094447D01*
X125660000Y-69905552D01*
X125645958Y-69816898D01*
X125654912Y-69747605D01*
X125699908Y-69694153D01*
X125766660Y-69673513D01*
X125768431Y-69673500D01*
X126056481Y-69673500D01*
X126123520Y-69693185D01*
X126144162Y-69709819D01*
X126653928Y-70219585D01*
X126680808Y-70259814D01*
X126740602Y-70404172D01*
X126740609Y-70404185D01*
X126828210Y-70535288D01*
X126828213Y-70535292D01*
X126939707Y-70646786D01*
X126939711Y-70646789D01*
X127070814Y-70734390D01*
X127070827Y-70734397D01*
X127185934Y-70782075D01*
X127216503Y-70794737D01*
X127371153Y-70825499D01*
X127371156Y-70825500D01*
X127371158Y-70825500D01*
X127528844Y-70825500D01*
X127528845Y-70825499D01*
X127683497Y-70794737D01*
X127829179Y-70734394D01*
X127960289Y-70646789D01*
X128071789Y-70535289D01*
X128159394Y-70404179D01*
X128170673Y-70376948D01*
X128214512Y-70322546D01*
X128280806Y-70300480D01*
X128348506Y-70317758D01*
X128396117Y-70368895D01*
X128403165Y-70386082D01*
X128427454Y-70460836D01*
X128465392Y-70535292D01*
X128513240Y-70629199D01*
X128624310Y-70782073D01*
X128757927Y-70915690D01*
X128910801Y-71026760D01*
X128990347Y-71067290D01*
X129079163Y-71112545D01*
X129079165Y-71112545D01*
X129079168Y-71112547D01*
X129146649Y-71134473D01*
X129258881Y-71170940D01*
X129445514Y-71200500D01*
X129445519Y-71200500D01*
X129634486Y-71200500D01*
X129821118Y-71170940D01*
X129866470Y-71156204D01*
X130000832Y-71112547D01*
X130169199Y-71026760D01*
X130302616Y-70929826D01*
X130368420Y-70906347D01*
X130436474Y-70922172D01*
X130485169Y-70972278D01*
X130499500Y-71030145D01*
X130499500Y-87375500D01*
X130479815Y-87442539D01*
X130427011Y-87488294D01*
X130375500Y-87499500D01*
X107874500Y-87499500D01*
X107807461Y-87479815D01*
X107761706Y-87427011D01*
X107750500Y-87375500D01*
X107750500Y-85277135D01*
X116324500Y-85277135D01*
X116324500Y-86722870D01*
X116324501Y-86722876D01*
X116330908Y-86782483D01*
X116381202Y-86917328D01*
X116381206Y-86917335D01*
X116467452Y-87032544D01*
X116467455Y-87032547D01*
X116582664Y-87118793D01*
X116582671Y-87118797D01*
X116717517Y-87169091D01*
X116717516Y-87169091D01*
X116724444Y-87169835D01*
X116777127Y-87175500D01*
X118222872Y-87175499D01*
X118282483Y-87169091D01*
X118417331Y-87118796D01*
X118532546Y-87032546D01*
X118596241Y-86947459D01*
X118652174Y-86905590D01*
X118721866Y-86900606D01*
X118768392Y-86921453D01*
X118883904Y-87005378D01*
X118937224Y-87032546D01*
X119048764Y-87089379D01*
X119048767Y-87089380D01*
X119136750Y-87117967D01*
X119224736Y-87146555D01*
X119407486Y-87175500D01*
X119407487Y-87175500D01*
X119592513Y-87175500D01*
X119592514Y-87175500D01*
X119775264Y-87146555D01*
X119951235Y-87089379D01*
X120116096Y-87005378D01*
X120265787Y-86896621D01*
X120396621Y-86765787D01*
X120399680Y-86761576D01*
X120455006Y-86718909D01*
X120524619Y-86712926D01*
X120586415Y-86745529D01*
X120600315Y-86761570D01*
X120603379Y-86765787D01*
X120734213Y-86896621D01*
X120883904Y-87005378D01*
X120937224Y-87032546D01*
X121048764Y-87089379D01*
X121048767Y-87089380D01*
X121136750Y-87117967D01*
X121224736Y-87146555D01*
X121407486Y-87175500D01*
X121407487Y-87175500D01*
X121592513Y-87175500D01*
X121592514Y-87175500D01*
X121775264Y-87146555D01*
X121951235Y-87089379D01*
X122116096Y-87005378D01*
X122265787Y-86896621D01*
X122396621Y-86765787D01*
X122454112Y-86686656D01*
X122457774Y-86682466D01*
X122474867Y-86671579D01*
X123100000Y-86046446D01*
X123100000Y-86052661D01*
X123127259Y-86154394D01*
X123179920Y-86245606D01*
X123254394Y-86320080D01*
X123345606Y-86372741D01*
X123447339Y-86400000D01*
X123453553Y-86400000D01*
X122863568Y-86989983D01*
X122863568Y-86989984D01*
X122884165Y-87004949D01*
X123048956Y-87088915D01*
X123048959Y-87088916D01*
X123224852Y-87146066D01*
X123407527Y-87175000D01*
X123592473Y-87175000D01*
X123775147Y-87146066D01*
X123951040Y-87088916D01*
X123951043Y-87088915D01*
X124115836Y-87004947D01*
X124115845Y-87004942D01*
X124136430Y-86989984D01*
X124136431Y-86989983D01*
X123546448Y-86400000D01*
X123552661Y-86400000D01*
X123654394Y-86372741D01*
X123745606Y-86320080D01*
X123820080Y-86245606D01*
X123872741Y-86154394D01*
X123900000Y-86052661D01*
X123900000Y-86046447D01*
X124489983Y-86636430D01*
X124489984Y-86636430D01*
X124504942Y-86615845D01*
X124504947Y-86615836D01*
X124588915Y-86451043D01*
X124588916Y-86451040D01*
X124646066Y-86275147D01*
X124675000Y-86092473D01*
X124675000Y-85907526D01*
X124646066Y-85724852D01*
X124588916Y-85548959D01*
X124588915Y-85548956D01*
X124504949Y-85384165D01*
X124489983Y-85363568D01*
X123900000Y-85953551D01*
X123900000Y-85947339D01*
X123872741Y-85845606D01*
X123820080Y-85754394D01*
X123745606Y-85679920D01*
X123654394Y-85627259D01*
X123552661Y-85600000D01*
X123546447Y-85600000D01*
X124136431Y-85010016D01*
X124136430Y-85010015D01*
X124115834Y-84995050D01*
X123951043Y-84911084D01*
X123951040Y-84911083D01*
X123775147Y-84853933D01*
X123592473Y-84825000D01*
X123407527Y-84825000D01*
X123224852Y-84853933D01*
X123048959Y-84911083D01*
X123048956Y-84911084D01*
X122884167Y-84995049D01*
X122863568Y-85010015D01*
X123453554Y-85600000D01*
X123447339Y-85600000D01*
X123345606Y-85627259D01*
X123254394Y-85679920D01*
X123179920Y-85754394D01*
X123127259Y-85845606D01*
X123100000Y-85947339D01*
X123100000Y-85953552D01*
X122488310Y-85341862D01*
X122487844Y-85341491D01*
X122484541Y-85340536D01*
X122472885Y-85329573D01*
X122457773Y-85317532D01*
X122454109Y-85313338D01*
X122396621Y-85234213D01*
X122265787Y-85103379D01*
X122116096Y-84994622D01*
X122062778Y-84967455D01*
X121951235Y-84910620D01*
X121951232Y-84910619D01*
X121775265Y-84853445D01*
X121632972Y-84830908D01*
X121592514Y-84824500D01*
X121407486Y-84824500D01*
X121367028Y-84830908D01*
X121224734Y-84853445D01*
X121048767Y-84910619D01*
X121048764Y-84910620D01*
X120883903Y-84994622D01*
X120804188Y-85052539D01*
X120734213Y-85103379D01*
X120734211Y-85103381D01*
X120734210Y-85103381D01*
X120603381Y-85234210D01*
X120600314Y-85238432D01*
X120544981Y-85281094D01*
X120475367Y-85287069D01*
X120413574Y-85254459D01*
X120399686Y-85238432D01*
X120396621Y-85234213D01*
X120265787Y-85103379D01*
X120116096Y-84994622D01*
X120062778Y-84967455D01*
X119951235Y-84910620D01*
X119951232Y-84910619D01*
X119775265Y-84853445D01*
X119632972Y-84830908D01*
X119592514Y-84824500D01*
X119407486Y-84824500D01*
X119367028Y-84830908D01*
X119224734Y-84853445D01*
X119048767Y-84910619D01*
X119048764Y-84910620D01*
X118883900Y-84994624D01*
X118768392Y-85078545D01*
X118702586Y-85102025D01*
X118634532Y-85086199D01*
X118596241Y-85052539D01*
X118553204Y-84995050D01*
X118532546Y-84967454D01*
X118532544Y-84967453D01*
X118532544Y-84967452D01*
X118417335Y-84881206D01*
X118417328Y-84881202D01*
X118282482Y-84830908D01*
X118282483Y-84830908D01*
X118222883Y-84824501D01*
X118222881Y-84824500D01*
X118222873Y-84824500D01*
X118222864Y-84824500D01*
X116777129Y-84824500D01*
X116777123Y-84824501D01*
X116717516Y-84830908D01*
X116582671Y-84881202D01*
X116582664Y-84881206D01*
X116467455Y-84967452D01*
X116467452Y-84967455D01*
X116381206Y-85082664D01*
X116381202Y-85082671D01*
X116330908Y-85217517D01*
X116324501Y-85277116D01*
X116324500Y-85277135D01*
X107750500Y-85277135D01*
X107750500Y-76147648D01*
X113449500Y-76147648D01*
X113449500Y-76352351D01*
X113481522Y-76554534D01*
X113544781Y-76749223D01*
X113637715Y-76931613D01*
X113758028Y-77097213D01*
X113902786Y-77241971D01*
X114023328Y-77329548D01*
X114068390Y-77362287D01*
X114184607Y-77421503D01*
X114250776Y-77455218D01*
X114250778Y-77455218D01*
X114250781Y-77455220D01*
X114355137Y-77489127D01*
X114445465Y-77518477D01*
X114546557Y-77534488D01*
X114647648Y-77550500D01*
X114647649Y-77550500D01*
X114852351Y-77550500D01*
X114852352Y-77550500D01*
X115054534Y-77518477D01*
X115249219Y-77455220D01*
X115431610Y-77362287D01*
X115568019Y-77263181D01*
X115597213Y-77241971D01*
X115597215Y-77241968D01*
X115597219Y-77241966D01*
X115741966Y-77097219D01*
X115741968Y-77097215D01*
X115741971Y-77097213D01*
X115794732Y-77024590D01*
X115862287Y-76931610D01*
X115955220Y-76749219D01*
X116018477Y-76554534D01*
X116050500Y-76352352D01*
X116050500Y-76147648D01*
X116018477Y-75945466D01*
X116014952Y-75934618D01*
X115967406Y-75788287D01*
X115955220Y-75750781D01*
X115955218Y-75750778D01*
X115955218Y-75750776D01*
X115910166Y-75662358D01*
X115862287Y-75568390D01*
X115854556Y-75557749D01*
X115741971Y-75402786D01*
X115597213Y-75258028D01*
X115431613Y-75137715D01*
X115431612Y-75137714D01*
X115431610Y-75137713D01*
X115374653Y-75108691D01*
X115249223Y-75044781D01*
X115054534Y-74981522D01*
X114879995Y-74953878D01*
X114852352Y-74949500D01*
X114647648Y-74949500D01*
X114623329Y-74953351D01*
X114445465Y-74981522D01*
X114250776Y-75044781D01*
X114068386Y-75137715D01*
X113902786Y-75258028D01*
X113758028Y-75402786D01*
X113637715Y-75568386D01*
X113544781Y-75750776D01*
X113481522Y-75945465D01*
X113449500Y-76147648D01*
X107750500Y-76147648D01*
X107750500Y-72389818D01*
X108080000Y-72389818D01*
X108080000Y-72610181D01*
X108114473Y-72827835D01*
X108182567Y-73037410D01*
X108282611Y-73233756D01*
X108328932Y-73297513D01*
X109037861Y-72588584D01*
X109060667Y-72673694D01*
X109119910Y-72776306D01*
X109203694Y-72860090D01*
X109306306Y-72919333D01*
X109391414Y-72942137D01*
X108682485Y-73651065D01*
X108682485Y-73651066D01*
X108746243Y-73697388D01*
X108942589Y-73797432D01*
X109152164Y-73865526D01*
X109369819Y-73900000D01*
X109590181Y-73900000D01*
X109807835Y-73865526D01*
X110017410Y-73797432D01*
X110213760Y-73697386D01*
X110277513Y-73651066D01*
X110277514Y-73651066D01*
X109568585Y-72942138D01*
X109653694Y-72919333D01*
X109756306Y-72860090D01*
X109840090Y-72776306D01*
X109899333Y-72673694D01*
X109922138Y-72588585D01*
X110583181Y-73249628D01*
X110616666Y-73310951D01*
X110619500Y-73337308D01*
X110619500Y-73447869D01*
X110619501Y-73447876D01*
X110625908Y-73507483D01*
X110676202Y-73642328D01*
X110676206Y-73642335D01*
X110762452Y-73757544D01*
X110762455Y-73757547D01*
X110877664Y-73843793D01*
X110877671Y-73843797D01*
X111012517Y-73894091D01*
X111012516Y-73894091D01*
X111019444Y-73894835D01*
X111072127Y-73900500D01*
X112967872Y-73900499D01*
X113027483Y-73894091D01*
X113162331Y-73843796D01*
X113277546Y-73757546D01*
X113363796Y-73642331D01*
X113414091Y-73507483D01*
X113420500Y-73447873D01*
X113420499Y-71552128D01*
X113414091Y-71492517D01*
X113408755Y-71478211D01*
X113363797Y-71357671D01*
X113363793Y-71357664D01*
X113277547Y-71242455D01*
X113277544Y-71242452D01*
X113162335Y-71156206D01*
X113162328Y-71156202D01*
X113027482Y-71105908D01*
X113027483Y-71105908D01*
X112967883Y-71099501D01*
X112967881Y-71099500D01*
X112967873Y-71099500D01*
X112967864Y-71099500D01*
X111072129Y-71099500D01*
X111072123Y-71099501D01*
X111012516Y-71105908D01*
X110877671Y-71156202D01*
X110877664Y-71156206D01*
X110762455Y-71242452D01*
X110762452Y-71242455D01*
X110676206Y-71357664D01*
X110676202Y-71357671D01*
X110625908Y-71492517D01*
X110622296Y-71526120D01*
X110619501Y-71552123D01*
X110619500Y-71552135D01*
X110619500Y-71662691D01*
X110599815Y-71729730D01*
X110583181Y-71750372D01*
X109922138Y-72411414D01*
X109899333Y-72326306D01*
X109840090Y-72223694D01*
X109756306Y-72139910D01*
X109653694Y-72080667D01*
X109568583Y-72057861D01*
X110277513Y-71348932D01*
X110213756Y-71302611D01*
X110017410Y-71202567D01*
X109807835Y-71134473D01*
X109590181Y-71100000D01*
X109369819Y-71100000D01*
X109152164Y-71134473D01*
X108942589Y-71202567D01*
X108746233Y-71302616D01*
X108682485Y-71348931D01*
X108682485Y-71348932D01*
X109391414Y-72057861D01*
X109306306Y-72080667D01*
X109203694Y-72139910D01*
X109119910Y-72223694D01*
X109060667Y-72326306D01*
X109037861Y-72411414D01*
X108328932Y-71702485D01*
X108328931Y-71702485D01*
X108282616Y-71766233D01*
X108182567Y-71962589D01*
X108114473Y-72172164D01*
X108080000Y-72389818D01*
X107750500Y-72389818D01*
X107750500Y-66400013D01*
X108244888Y-66400013D01*
X108244888Y-66750000D01*
X109229202Y-66750000D01*
X109224808Y-66754394D01*
X109172147Y-66845606D01*
X109144888Y-66947339D01*
X109144888Y-67052661D01*
X109172147Y-67154394D01*
X109224808Y-67245606D01*
X109229202Y-67250000D01*
X108244889Y-67250000D01*
X108244889Y-67599986D01*
X108255382Y-67702697D01*
X108310529Y-67869119D01*
X108310531Y-67869124D01*
X108402572Y-68018345D01*
X108526542Y-68142315D01*
X108675763Y-68234356D01*
X108675768Y-68234358D01*
X108842190Y-68289505D01*
X108842197Y-68289506D01*
X108944907Y-68299999D01*
X109294887Y-68299999D01*
X109294888Y-68299998D01*
X109294888Y-67315686D01*
X109299282Y-67320080D01*
X109390494Y-67372741D01*
X109492227Y-67400000D01*
X109597549Y-67400000D01*
X109699282Y-67372741D01*
X109790494Y-67320080D01*
X109794888Y-67315686D01*
X109794888Y-68299999D01*
X110144860Y-68299999D01*
X110144874Y-68299998D01*
X110247585Y-68289505D01*
X110414007Y-68234358D01*
X110414012Y-68234356D01*
X110563233Y-68142315D01*
X110632000Y-68073549D01*
X110693323Y-68040064D01*
X110763015Y-68045048D01*
X110792562Y-68060909D01*
X110863278Y-68112287D01*
X111045669Y-68205220D01*
X111119410Y-68229180D01*
X111168772Y-68259429D01*
X111978928Y-69069585D01*
X112005808Y-69109814D01*
X112065602Y-69254172D01*
X112065609Y-69254185D01*
X112153210Y-69385288D01*
X112153213Y-69385292D01*
X112264707Y-69496786D01*
X112264711Y-69496789D01*
X112395814Y-69584390D01*
X112395827Y-69584397D01*
X112541498Y-69644735D01*
X112541503Y-69644737D01*
X112686169Y-69673513D01*
X112696153Y-69675499D01*
X112696156Y-69675500D01*
X112696158Y-69675500D01*
X112853844Y-69675500D01*
X112853845Y-69675499D01*
X113008497Y-69644737D01*
X113154179Y-69584394D01*
X113285289Y-69496789D01*
X113396789Y-69385289D01*
X113484394Y-69254179D01*
X113544737Y-69108497D01*
X113575500Y-68953842D01*
X113575500Y-68796158D01*
X113575500Y-68796155D01*
X113575499Y-68796153D01*
X113547066Y-68653211D01*
X113544737Y-68641503D01*
X113487011Y-68502139D01*
X113484397Y-68495827D01*
X113484390Y-68495814D01*
X113396789Y-68364711D01*
X113396786Y-68364707D01*
X113285292Y-68253213D01*
X113285288Y-68253210D01*
X113154185Y-68165609D01*
X113154172Y-68165602D01*
X113009814Y-68105808D01*
X112969585Y-68078928D01*
X112692219Y-67801562D01*
X112658734Y-67740239D01*
X112663718Y-67670547D01*
X112669416Y-67657586D01*
X112750104Y-67499228D01*
X112750105Y-67499224D01*
X112750108Y-67499219D01*
X112813365Y-67304534D01*
X112845388Y-67102352D01*
X112845388Y-66897648D01*
X112827958Y-66787603D01*
X112813365Y-66695465D01*
X112750106Y-66500776D01*
X112698764Y-66400013D01*
X112657175Y-66318390D01*
X112604694Y-66246155D01*
X112536859Y-66152786D01*
X112392101Y-66008028D01*
X112226501Y-65887715D01*
X112226500Y-65887714D01*
X112226498Y-65887713D01*
X112167563Y-65857684D01*
X112044111Y-65794781D01*
X111849422Y-65731522D01*
X111674883Y-65703878D01*
X111647240Y-65699500D01*
X111442536Y-65699500D01*
X111419112Y-65703210D01*
X111240353Y-65731522D01*
X111045664Y-65794781D01*
X110863279Y-65887712D01*
X110863277Y-65887713D01*
X110792564Y-65939088D01*
X110726757Y-65962567D01*
X110658703Y-65946740D01*
X110631999Y-65926450D01*
X110563233Y-65857684D01*
X110414012Y-65765643D01*
X110414007Y-65765641D01*
X110247585Y-65710494D01*
X110247578Y-65710493D01*
X110144874Y-65700000D01*
X109794888Y-65700000D01*
X109794888Y-66684314D01*
X109790494Y-66679920D01*
X109699282Y-66627259D01*
X109597549Y-66600000D01*
X109492227Y-66600000D01*
X109390494Y-66627259D01*
X109299282Y-66679920D01*
X109294888Y-66684314D01*
X109294888Y-65700000D01*
X108944916Y-65700000D01*
X108944900Y-65700001D01*
X108842190Y-65710494D01*
X108675768Y-65765641D01*
X108675763Y-65765643D01*
X108526542Y-65857684D01*
X108402572Y-65981654D01*
X108310531Y-66130875D01*
X108310529Y-66130880D01*
X108255382Y-66297302D01*
X108255381Y-66297309D01*
X108244888Y-66400013D01*
X107750500Y-66400013D01*
X107750500Y-64596153D01*
X116949500Y-64596153D01*
X116949500Y-64753846D01*
X116980261Y-64908489D01*
X116980264Y-64908501D01*
X117040602Y-65054172D01*
X117040609Y-65054185D01*
X117128210Y-65185288D01*
X117128213Y-65185292D01*
X117239707Y-65296786D01*
X117239711Y-65296789D01*
X117370814Y-65384390D01*
X117370827Y-65384397D01*
X117515187Y-65444192D01*
X117555416Y-65471072D01*
X118855886Y-66771542D01*
X118919632Y-66835288D01*
X118953459Y-66869115D01*
X119068182Y-66945771D01*
X119068189Y-66945775D01*
X119139952Y-66975500D01*
X119195671Y-66998580D01*
X119222591Y-67003934D01*
X119320073Y-67023325D01*
X119331006Y-67025500D01*
X119331007Y-67025500D01*
X119574684Y-67025500D01*
X119622136Y-67034939D01*
X119692987Y-67064286D01*
X119766503Y-67094737D01*
X119921153Y-67125499D01*
X119921156Y-67125500D01*
X119921158Y-67125500D01*
X120078844Y-67125500D01*
X120078845Y-67125499D01*
X120233497Y-67094737D01*
X120379179Y-67034394D01*
X120510289Y-66946789D01*
X120621789Y-66835289D01*
X120709394Y-66704179D01*
X120713004Y-66695465D01*
X120752546Y-66600000D01*
X120769737Y-66558497D01*
X120800500Y-66403842D01*
X120800500Y-66246158D01*
X120800500Y-66246155D01*
X120800499Y-66246153D01*
X120781926Y-66152781D01*
X120769737Y-66091503D01*
X120769735Y-66091498D01*
X120709397Y-65945827D01*
X120709390Y-65945814D01*
X120621789Y-65814711D01*
X120621786Y-65814707D01*
X120510292Y-65703213D01*
X120510288Y-65703210D01*
X120379185Y-65615609D01*
X120379172Y-65615602D01*
X120233501Y-65555264D01*
X120233489Y-65555261D01*
X120078845Y-65524500D01*
X120078842Y-65524500D01*
X119921158Y-65524500D01*
X119921155Y-65524500D01*
X119766511Y-65555260D01*
X119766502Y-65555263D01*
X119740101Y-65566198D01*
X119670631Y-65573664D01*
X119608153Y-65542386D01*
X119604972Y-65539316D01*
X118546072Y-64480416D01*
X118519192Y-64440187D01*
X118459397Y-64295827D01*
X118459390Y-64295814D01*
X118371789Y-64164711D01*
X118371786Y-64164707D01*
X118260292Y-64053213D01*
X118260288Y-64053210D01*
X118129185Y-63965609D01*
X118129172Y-63965602D01*
X117983501Y-63905264D01*
X117983489Y-63905261D01*
X117828845Y-63874500D01*
X117828842Y-63874500D01*
X117671158Y-63874500D01*
X117671155Y-63874500D01*
X117516510Y-63905261D01*
X117516498Y-63905264D01*
X117370827Y-63965602D01*
X117370814Y-63965609D01*
X117239711Y-64053210D01*
X117239707Y-64053213D01*
X117128213Y-64164707D01*
X117128210Y-64164711D01*
X117040609Y-64295814D01*
X117040602Y-64295827D01*
X116980264Y-64441498D01*
X116980261Y-64441510D01*
X116949500Y-64596153D01*
X107750500Y-64596153D01*
X107750500Y-61297648D01*
X126699500Y-61297648D01*
X126699500Y-61502351D01*
X126731522Y-61704534D01*
X126794781Y-61899223D01*
X126887715Y-62081613D01*
X127008028Y-62247213D01*
X127152786Y-62391971D01*
X127307749Y-62504556D01*
X127318390Y-62512287D01*
X127434607Y-62571503D01*
X127500776Y-62605218D01*
X127500778Y-62605218D01*
X127500781Y-62605220D01*
X127605137Y-62639127D01*
X127695465Y-62668477D01*
X127796557Y-62684488D01*
X127897648Y-62700500D01*
X127897649Y-62700500D01*
X128102351Y-62700500D01*
X128102352Y-62700500D01*
X128304534Y-62668477D01*
X128499219Y-62605220D01*
X128681610Y-62512287D01*
X128774590Y-62444732D01*
X128847213Y-62391971D01*
X128847215Y-62391968D01*
X128847219Y-62391966D01*
X128991966Y-62247219D01*
X128991968Y-62247215D01*
X128991971Y-62247213D01*
X129044732Y-62174590D01*
X129112287Y-62081610D01*
X129205220Y-61899219D01*
X129268477Y-61704534D01*
X129300500Y-61502352D01*
X129300500Y-61297648D01*
X129268477Y-61095466D01*
X129205220Y-60900781D01*
X129205218Y-60900778D01*
X129205218Y-60900776D01*
X129171503Y-60834607D01*
X129112287Y-60718390D01*
X129104556Y-60707749D01*
X128991971Y-60552786D01*
X128847213Y-60408028D01*
X128681613Y-60287715D01*
X128681612Y-60287714D01*
X128681610Y-60287713D01*
X128624653Y-60258691D01*
X128499223Y-60194781D01*
X128304534Y-60131522D01*
X128129995Y-60103878D01*
X128102352Y-60099500D01*
X127897648Y-60099500D01*
X127873329Y-60103351D01*
X127695465Y-60131522D01*
X127500776Y-60194781D01*
X127318386Y-60287715D01*
X127152786Y-60408028D01*
X127008028Y-60552786D01*
X126887715Y-60718386D01*
X126794781Y-60900776D01*
X126731522Y-61095465D01*
X126699500Y-61297648D01*
X107750500Y-61297648D01*
X107750500Y-56297682D01*
X126700000Y-56297682D01*
X126700000Y-56502317D01*
X126732009Y-56704417D01*
X126795244Y-56899031D01*
X126888141Y-57081350D01*
X126888147Y-57081359D01*
X126920523Y-57125921D01*
X126920524Y-57125922D01*
X127600000Y-56446446D01*
X127600000Y-56452661D01*
X127627259Y-56554394D01*
X127679920Y-56645606D01*
X127754394Y-56720080D01*
X127845606Y-56772741D01*
X127947339Y-56800000D01*
X127953553Y-56800000D01*
X127274076Y-57479474D01*
X127318650Y-57511859D01*
X127500968Y-57604755D01*
X127695582Y-57667990D01*
X127897683Y-57700000D01*
X128102317Y-57700000D01*
X128304417Y-57667990D01*
X128499031Y-57604755D01*
X128681349Y-57511859D01*
X128725921Y-57479474D01*
X128046447Y-56800000D01*
X128052661Y-56800000D01*
X128154394Y-56772741D01*
X128245606Y-56720080D01*
X128320080Y-56645606D01*
X128372741Y-56554394D01*
X128400000Y-56452661D01*
X128400000Y-56446448D01*
X129079474Y-57125922D01*
X129079474Y-57125921D01*
X129111859Y-57081349D01*
X129204755Y-56899031D01*
X129267990Y-56704417D01*
X129300000Y-56502317D01*
X129300000Y-56297682D01*
X129267990Y-56095582D01*
X129204755Y-55900968D01*
X129111859Y-55718650D01*
X129079474Y-55674077D01*
X129079474Y-55674076D01*
X128400000Y-56353551D01*
X128400000Y-56347339D01*
X128372741Y-56245606D01*
X128320080Y-56154394D01*
X128245606Y-56079920D01*
X128154394Y-56027259D01*
X128052661Y-56000000D01*
X128046446Y-56000000D01*
X128725922Y-55320524D01*
X128725921Y-55320523D01*
X128681359Y-55288147D01*
X128681350Y-55288141D01*
X128499031Y-55195244D01*
X128304417Y-55132009D01*
X128102317Y-55100000D01*
X127897683Y-55100000D01*
X127695582Y-55132009D01*
X127500968Y-55195244D01*
X127318644Y-55288143D01*
X127274077Y-55320523D01*
X127274077Y-55320524D01*
X127953554Y-56000000D01*
X127947339Y-56000000D01*
X127845606Y-56027259D01*
X127754394Y-56079920D01*
X127679920Y-56154394D01*
X127627259Y-56245606D01*
X127600000Y-56347339D01*
X127600000Y-56353553D01*
X126920524Y-55674077D01*
X126920523Y-55674077D01*
X126888143Y-55718644D01*
X126795244Y-55900968D01*
X126732009Y-56095582D01*
X126700000Y-56297682D01*
X107750500Y-56297682D01*
X107750500Y-51629986D01*
X109179500Y-51629986D01*
X109179500Y-51925013D01*
X109206949Y-52133501D01*
X109218007Y-52217493D01*
X109269667Y-52410292D01*
X109294361Y-52502451D01*
X109294364Y-52502461D01*
X109407254Y-52775000D01*
X109407258Y-52775010D01*
X109554761Y-53030493D01*
X109734352Y-53264540D01*
X109734358Y-53264547D01*
X109942952Y-53473141D01*
X109942959Y-53473147D01*
X110177006Y-53652738D01*
X110432489Y-53800241D01*
X110432490Y-53800241D01*
X110432493Y-53800243D01*
X110705048Y-53913139D01*
X110990007Y-53989493D01*
X111282494Y-54028000D01*
X111282501Y-54028000D01*
X111577499Y-54028000D01*
X111577506Y-54028000D01*
X111869993Y-53989493D01*
X112154952Y-53913139D01*
X112427507Y-53800243D01*
X112682994Y-53652738D01*
X112917042Y-53473146D01*
X113125646Y-53264542D01*
X113305238Y-53030494D01*
X113452743Y-52775007D01*
X113565639Y-52502452D01*
X113641993Y-52217493D01*
X113680500Y-51925006D01*
X113680500Y-51629994D01*
X113641993Y-51337507D01*
X113565639Y-51052548D01*
X113452743Y-50779993D01*
X113305238Y-50524506D01*
X113225939Y-50421162D01*
X113125647Y-50290459D01*
X113125641Y-50290452D01*
X112917047Y-50081858D01*
X112917040Y-50081852D01*
X112682993Y-49902261D01*
X112427510Y-49754758D01*
X112427500Y-49754754D01*
X112154961Y-49641864D01*
X112154954Y-49641862D01*
X112154952Y-49641861D01*
X111869993Y-49565507D01*
X111821113Y-49559071D01*
X111577513Y-49527000D01*
X111577506Y-49527000D01*
X111282494Y-49527000D01*
X111282486Y-49527000D01*
X111004085Y-49563653D01*
X110990007Y-49565507D01*
X110705048Y-49641861D01*
X110705038Y-49641864D01*
X110432499Y-49754754D01*
X110432489Y-49754758D01*
X110177006Y-49902261D01*
X109942959Y-50081852D01*
X109942952Y-50081858D01*
X109734358Y-50290452D01*
X109734352Y-50290459D01*
X109554761Y-50524506D01*
X109407258Y-50779989D01*
X109407254Y-50779999D01*
X109294364Y-51052538D01*
X109294361Y-51052548D01*
X109233896Y-51278210D01*
X109218008Y-51337504D01*
X109218006Y-51337515D01*
X109179500Y-51629986D01*
X107750500Y-51629986D01*
X107750500Y-48505513D01*
X113238000Y-48505513D01*
X113238000Y-48817500D01*
X114113176Y-48817500D01*
X114071349Y-48889947D01*
X114040000Y-49006940D01*
X114040000Y-49128060D01*
X114071349Y-49245053D01*
X114113176Y-49317500D01*
X113238001Y-49317500D01*
X113238001Y-49629486D01*
X113248494Y-49732197D01*
X113303641Y-49898619D01*
X113303643Y-49898624D01*
X113395684Y-50047845D01*
X113519654Y-50171815D01*
X113668875Y-50263856D01*
X113668880Y-50263858D01*
X113835302Y-50319005D01*
X113835309Y-50319006D01*
X113938019Y-50329499D01*
X114249999Y-50329499D01*
X114250000Y-50329498D01*
X114250000Y-49454323D01*
X114322447Y-49496151D01*
X114439440Y-49527500D01*
X114560560Y-49527500D01*
X114677553Y-49496151D01*
X114750000Y-49454323D01*
X114750000Y-50329499D01*
X115061972Y-50329499D01*
X115061986Y-50329498D01*
X115164697Y-50319005D01*
X115331119Y-50263858D01*
X115331124Y-50263856D01*
X115480345Y-50171815D01*
X115604315Y-50047845D01*
X115696356Y-49898624D01*
X115696359Y-49898617D01*
X115729030Y-49800021D01*
X115768802Y-49742576D01*
X115833317Y-49715752D01*
X115902093Y-49728066D01*
X115947054Y-49766138D01*
X116037019Y-49889964D01*
X116177536Y-50030481D01*
X116248384Y-50081955D01*
X116291051Y-50137284D01*
X116299500Y-50182273D01*
X116299500Y-50606006D01*
X116299500Y-50743994D01*
X116299500Y-50743996D01*
X116299499Y-50743996D01*
X116326418Y-50879322D01*
X116326421Y-50879332D01*
X116379222Y-51006807D01*
X116455887Y-51121545D01*
X116455888Y-51121546D01*
X117730886Y-52396543D01*
X117828457Y-52494114D01*
X117943189Y-52570775D01*
X118014952Y-52600500D01*
X118070671Y-52623580D01*
X118093124Y-52628046D01*
X118177322Y-52644794D01*
X118206004Y-52650500D01*
X118206006Y-52650500D01*
X118343996Y-52650500D01*
X118435040Y-52632389D01*
X118479328Y-52623580D01*
X118512260Y-52609938D01*
X118559713Y-52600500D01*
X119674684Y-52600500D01*
X119722136Y-52609939D01*
X119765851Y-52628046D01*
X119866503Y-52669737D01*
X120021153Y-52700499D01*
X120021156Y-52700500D01*
X120021158Y-52700500D01*
X120178844Y-52700500D01*
X120178845Y-52700499D01*
X120333497Y-52669737D01*
X120479179Y-52609394D01*
X120610289Y-52521789D01*
X120721789Y-52410289D01*
X120809394Y-52279179D01*
X120869737Y-52133497D01*
X120900500Y-51978842D01*
X120900500Y-51821158D01*
X120900500Y-51821155D01*
X120900499Y-51821153D01*
X120869739Y-51666511D01*
X120869738Y-51666508D01*
X120869737Y-51666503D01*
X120854611Y-51629986D01*
X122319500Y-51629986D01*
X122319500Y-51925013D01*
X122346949Y-52133501D01*
X122358007Y-52217493D01*
X122409667Y-52410292D01*
X122434361Y-52502451D01*
X122434364Y-52502461D01*
X122547254Y-52775000D01*
X122547258Y-52775010D01*
X122694761Y-53030493D01*
X122874352Y-53264540D01*
X122874358Y-53264547D01*
X123082952Y-53473141D01*
X123082959Y-53473147D01*
X123317006Y-53652738D01*
X123572489Y-53800241D01*
X123572490Y-53800241D01*
X123572493Y-53800243D01*
X123845048Y-53913139D01*
X124130007Y-53989493D01*
X124422494Y-54028000D01*
X124422501Y-54028000D01*
X124717499Y-54028000D01*
X124717506Y-54028000D01*
X125009993Y-53989493D01*
X125294952Y-53913139D01*
X125567507Y-53800243D01*
X125822994Y-53652738D01*
X126057042Y-53473146D01*
X126265646Y-53264542D01*
X126445238Y-53030494D01*
X126592743Y-52775007D01*
X126705639Y-52502452D01*
X126781993Y-52217493D01*
X126820500Y-51925006D01*
X126820500Y-51629994D01*
X126781993Y-51337507D01*
X126705639Y-51052548D01*
X126592743Y-50779993D01*
X126445238Y-50524506D01*
X126365939Y-50421162D01*
X126265647Y-50290459D01*
X126265641Y-50290452D01*
X126057047Y-50081858D01*
X126057040Y-50081852D01*
X125822993Y-49902261D01*
X125567510Y-49754758D01*
X125567500Y-49754754D01*
X125294961Y-49641864D01*
X125294954Y-49641862D01*
X125294952Y-49641861D01*
X125009993Y-49565507D01*
X124961113Y-49559071D01*
X124717513Y-49527000D01*
X124717506Y-49527000D01*
X124422494Y-49527000D01*
X124422486Y-49527000D01*
X124144085Y-49563653D01*
X124130007Y-49565507D01*
X123845048Y-49641861D01*
X123845038Y-49641864D01*
X123572499Y-49754754D01*
X123572489Y-49754758D01*
X123317006Y-49902261D01*
X123082959Y-50081852D01*
X123082952Y-50081858D01*
X122874358Y-50290452D01*
X122874352Y-50290459D01*
X122694761Y-50524506D01*
X122547258Y-50779989D01*
X122547254Y-50779999D01*
X122434364Y-51052538D01*
X122434361Y-51052548D01*
X122373896Y-51278210D01*
X122358008Y-51337504D01*
X122358006Y-51337515D01*
X122319500Y-51629986D01*
X120854611Y-51629986D01*
X120839565Y-51593662D01*
X120809397Y-51520827D01*
X120809390Y-51520814D01*
X120721789Y-51389711D01*
X120721786Y-51389707D01*
X120610292Y-51278213D01*
X120610288Y-51278210D01*
X120479185Y-51190609D01*
X120479172Y-51190602D01*
X120333501Y-51130264D01*
X120333489Y-51130261D01*
X120178845Y-51099500D01*
X120178842Y-51099500D01*
X120021158Y-51099500D01*
X120021155Y-51099500D01*
X119866510Y-51130261D01*
X119866498Y-51130264D01*
X119722136Y-51190061D01*
X119674684Y-51199500D01*
X118566519Y-51199500D01*
X118499480Y-51179815D01*
X118478838Y-51163181D01*
X117736819Y-50421162D01*
X117722115Y-50394234D01*
X117705523Y-50368416D01*
X117704631Y-50362215D01*
X117703334Y-50359839D01*
X117700500Y-50333481D01*
X117700500Y-50182273D01*
X117720185Y-50115234D01*
X117751614Y-50081955D01*
X117822464Y-50030481D01*
X117912319Y-49940626D01*
X117973642Y-49907141D01*
X118043334Y-49912125D01*
X118087681Y-49940626D01*
X118177536Y-50030481D01*
X118338306Y-50147287D01*
X118386445Y-50171815D01*
X118515367Y-50237505D01*
X118515370Y-50237506D01*
X118596469Y-50263856D01*
X118704364Y-50298913D01*
X118900639Y-50330000D01*
X118900640Y-50330000D01*
X119099360Y-50330000D01*
X119099361Y-50330000D01*
X119295636Y-50298913D01*
X119484632Y-50237505D01*
X119661694Y-50147287D01*
X119822464Y-50030481D01*
X119962981Y-49889964D01*
X120079787Y-49729194D01*
X120139515Y-49611970D01*
X120187490Y-49561175D01*
X120255311Y-49544380D01*
X120321445Y-49566917D01*
X120360484Y-49611969D01*
X120420213Y-49729194D01*
X120537019Y-49889964D01*
X120677536Y-50030481D01*
X120838306Y-50147287D01*
X120886445Y-50171815D01*
X121015367Y-50237505D01*
X121015370Y-50237506D01*
X121096469Y-50263856D01*
X121204364Y-50298913D01*
X121400639Y-50330000D01*
X121400640Y-50330000D01*
X121599360Y-50330000D01*
X121599361Y-50330000D01*
X121795636Y-50298913D01*
X121984632Y-50237505D01*
X122161694Y-50147287D01*
X122322464Y-50030481D01*
X122462981Y-49889964D01*
X122579787Y-49729194D01*
X122670005Y-49552132D01*
X122731413Y-49363136D01*
X122762500Y-49166861D01*
X122762500Y-48968139D01*
X122731413Y-48771864D01*
X122688194Y-48638849D01*
X122670006Y-48582870D01*
X122670005Y-48582867D01*
X122579786Y-48405805D01*
X122462981Y-48245036D01*
X122322464Y-48104519D01*
X122161694Y-47987713D01*
X121984632Y-47897494D01*
X121984629Y-47897493D01*
X121795637Y-47836087D01*
X121668768Y-47815993D01*
X121599361Y-47805000D01*
X121400639Y-47805000D01*
X121335214Y-47815362D01*
X121204362Y-47836087D01*
X121015370Y-47897493D01*
X121015367Y-47897494D01*
X120838305Y-47987713D01*
X120677533Y-48104521D01*
X120537021Y-48245033D01*
X120420213Y-48405805D01*
X120360485Y-48523028D01*
X120312510Y-48573824D01*
X120244689Y-48590619D01*
X120178554Y-48568081D01*
X120139515Y-48523028D01*
X120079786Y-48405805D01*
X119962981Y-48245036D01*
X119822464Y-48104519D01*
X119661694Y-47987713D01*
X119484632Y-47897494D01*
X119484629Y-47897493D01*
X119295637Y-47836087D01*
X119168768Y-47815993D01*
X119099361Y-47805000D01*
X118900639Y-47805000D01*
X118835214Y-47815362D01*
X118704362Y-47836087D01*
X118515370Y-47897493D01*
X118515367Y-47897494D01*
X118338305Y-47987713D01*
X118177533Y-48104521D01*
X118087681Y-48194374D01*
X118026358Y-48227859D01*
X117956666Y-48222875D01*
X117912319Y-48194374D01*
X117822466Y-48104521D01*
X117822464Y-48104519D01*
X117661694Y-47987713D01*
X117484632Y-47897494D01*
X117484629Y-47897493D01*
X117295637Y-47836087D01*
X117168768Y-47815993D01*
X117099361Y-47805000D01*
X116900639Y-47805000D01*
X116835214Y-47815362D01*
X116704362Y-47836087D01*
X116515370Y-47897493D01*
X116515367Y-47897494D01*
X116338305Y-47987713D01*
X116177533Y-48104521D01*
X116037021Y-48245033D01*
X116037021Y-48245034D01*
X116037019Y-48245036D01*
X115971672Y-48334979D01*
X115947055Y-48368861D01*
X115891725Y-48411526D01*
X115822111Y-48417505D01*
X115760316Y-48384899D01*
X115729031Y-48334979D01*
X115696358Y-48236380D01*
X115696356Y-48236375D01*
X115604315Y-48087154D01*
X115480345Y-47963184D01*
X115331124Y-47871143D01*
X115331119Y-47871141D01*
X115164697Y-47815994D01*
X115164690Y-47815993D01*
X115061986Y-47805500D01*
X114750000Y-47805500D01*
X114750000Y-48680676D01*
X114677553Y-48638849D01*
X114560560Y-48607500D01*
X114439440Y-48607500D01*
X114322447Y-48638849D01*
X114250000Y-48680676D01*
X114250000Y-47805500D01*
X113938028Y-47805500D01*
X113938012Y-47805501D01*
X113835302Y-47815994D01*
X113668880Y-47871141D01*
X113668875Y-47871143D01*
X113519654Y-47963184D01*
X113395684Y-48087154D01*
X113303643Y-48236375D01*
X113303641Y-48236380D01*
X113248494Y-48402802D01*
X113248493Y-48402809D01*
X113238000Y-48505513D01*
X107750500Y-48505513D01*
X107750500Y-47624500D01*
X107770185Y-47557461D01*
X107822989Y-47511706D01*
X107874500Y-47500500D01*
X130375500Y-47500500D01*
X130442539Y-47520185D01*
G37*
%TD.AperFunction*%
%TD*%
M02*
