%TF.GenerationSoftware,KiCad,Pcbnew,10.0.3*%
%TF.CreationDate,2026-06-25T19:54:13+05:45*%
%TF.ProjectId,USB2UART,55534232-5541-4525-942e-6b696361645f,rev?*%
%TF.SameCoordinates,Original*%
%TF.FileFunction,Soldermask,Top*%
%TF.FilePolarity,Negative*%
%FSLAX46Y46*%
G04 Gerber Fmt 4.6, Leading zero omitted, Abs format (unit mm)*
G04 Created by KiCad (PCBNEW 10.0.3) date 2026-06-25 19:54:13*
%MOMM*%
%LPD*%
G01*
G04 APERTURE LIST*
G04 APERTURE END LIST*
G36*
X118175000Y-86675000D02*
G01*
X116825000Y-86675000D01*
X116825000Y-85325000D01*
X118175000Y-85325000D01*
X118175000Y-86675000D01*
G37*
G36*
X119695942Y-85354065D02*
G01*
X119818193Y-85404703D01*
X119928215Y-85478218D01*
X120021782Y-85571785D01*
X120095297Y-85681807D01*
X120145935Y-85804058D01*
X120171750Y-85933838D01*
X120171750Y-86066162D01*
X120145935Y-86195942D01*
X120095297Y-86318193D01*
X120021782Y-86428215D01*
X119928215Y-86521782D01*
X119818193Y-86595297D01*
X119695942Y-86645935D01*
X119566162Y-86671750D01*
X119433838Y-86671750D01*
X119304058Y-86645935D01*
X119181807Y-86595297D01*
X119071785Y-86521782D01*
X118978218Y-86428215D01*
X118904703Y-86318193D01*
X118854065Y-86195942D01*
X118828250Y-86066162D01*
X118828250Y-85933838D01*
X118854065Y-85804058D01*
X118904703Y-85681807D01*
X118978218Y-85571785D01*
X119071785Y-85478218D01*
X119181807Y-85404703D01*
X119304058Y-85354065D01*
X119433838Y-85328250D01*
X119566162Y-85328250D01*
X119695942Y-85354065D01*
G37*
G36*
X121695942Y-85354065D02*
G01*
X121818193Y-85404703D01*
X121928215Y-85478218D01*
X122021782Y-85571785D01*
X122095297Y-85681807D01*
X122145935Y-85804058D01*
X122171750Y-85933838D01*
X122171750Y-86066162D01*
X122145935Y-86195942D01*
X122095297Y-86318193D01*
X122021782Y-86428215D01*
X121928215Y-86521782D01*
X121818193Y-86595297D01*
X121695942Y-86645935D01*
X121566162Y-86671750D01*
X121433838Y-86671750D01*
X121304058Y-86645935D01*
X121181807Y-86595297D01*
X121071785Y-86521782D01*
X120978218Y-86428215D01*
X120904703Y-86318193D01*
X120854065Y-86195942D01*
X120828250Y-86066162D01*
X120828250Y-85933838D01*
X120854065Y-85804058D01*
X120904703Y-85681807D01*
X120978218Y-85571785D01*
X121071785Y-85478218D01*
X121181807Y-85404703D01*
X121304058Y-85354065D01*
X121433838Y-85328250D01*
X121566162Y-85328250D01*
X121695942Y-85354065D01*
G37*
G36*
X123695942Y-85354065D02*
G01*
X123818193Y-85404703D01*
X123928215Y-85478218D01*
X124021782Y-85571785D01*
X124095297Y-85681807D01*
X124145935Y-85804058D01*
X124171750Y-85933838D01*
X124171750Y-86066162D01*
X124145935Y-86195942D01*
X124095297Y-86318193D01*
X124021782Y-86428215D01*
X123928215Y-86521782D01*
X123818193Y-86595297D01*
X123695942Y-86645935D01*
X123566162Y-86671750D01*
X123433838Y-86671750D01*
X123304058Y-86645935D01*
X123181807Y-86595297D01*
X123071785Y-86521782D01*
X122978218Y-86428215D01*
X122904703Y-86318193D01*
X122854065Y-86195942D01*
X122828250Y-86066162D01*
X122828250Y-85933838D01*
X122854065Y-85804058D01*
X122904703Y-85681807D01*
X122978218Y-85571785D01*
X123071785Y-85478218D01*
X123181807Y-85404703D01*
X123304058Y-85354065D01*
X123433838Y-85328250D01*
X123566162Y-85328250D01*
X123695942Y-85354065D01*
G37*
G36*
X118482228Y-81484448D02*
G01*
X118627117Y-81544463D01*
X118757515Y-81631592D01*
X118868408Y-81742485D01*
X118955537Y-81872883D01*
X119015552Y-82017772D01*
X119046148Y-82171586D01*
X119046148Y-82328414D01*
X119015552Y-82482228D01*
X118955537Y-82627117D01*
X118868408Y-82757515D01*
X118757515Y-82868408D01*
X118627117Y-82955537D01*
X118482228Y-83015552D01*
X118328414Y-83046148D01*
X118171586Y-83046148D01*
X118017772Y-83015552D01*
X117872883Y-82955537D01*
X117742485Y-82868408D01*
X117631592Y-82757515D01*
X117544463Y-82627117D01*
X117484448Y-82482228D01*
X117453852Y-82328414D01*
X117453852Y-82171586D01*
X117484448Y-82017772D01*
X117544463Y-81872883D01*
X117631592Y-81742485D01*
X117742485Y-81631592D01*
X117872883Y-81544463D01*
X118017772Y-81484448D01*
X118171586Y-81453852D01*
X118328414Y-81453852D01*
X118482228Y-81484448D01*
G37*
G36*
X123482228Y-81484448D02*
G01*
X123627117Y-81544463D01*
X123757515Y-81631592D01*
X123868408Y-81742485D01*
X123955537Y-81872883D01*
X124015552Y-82017772D01*
X124046148Y-82171586D01*
X124046148Y-82328414D01*
X124015552Y-82482228D01*
X123955537Y-82627117D01*
X123868408Y-82757515D01*
X123757515Y-82868408D01*
X123627117Y-82955537D01*
X123482228Y-83015552D01*
X123328414Y-83046148D01*
X123171586Y-83046148D01*
X123017772Y-83015552D01*
X122872883Y-82955537D01*
X122742485Y-82868408D01*
X122631592Y-82757515D01*
X122544463Y-82627117D01*
X122484448Y-82482228D01*
X122453852Y-82328414D01*
X122453852Y-82171586D01*
X122484448Y-82017772D01*
X122544463Y-81872883D01*
X122631592Y-81742485D01*
X122742485Y-81631592D01*
X122872883Y-81544463D01*
X123017772Y-81484448D01*
X123171586Y-81453852D01*
X123328414Y-81453852D01*
X123482228Y-81484448D01*
G37*
G36*
X114982228Y-80484448D02*
G01*
X115127117Y-80544463D01*
X115257515Y-80631592D01*
X115368408Y-80742485D01*
X115455537Y-80872883D01*
X115515552Y-81017772D01*
X115546148Y-81171586D01*
X115546148Y-81328414D01*
X115515552Y-81482228D01*
X115455537Y-81627117D01*
X115368408Y-81757515D01*
X115257515Y-81868408D01*
X115127117Y-81955537D01*
X114982228Y-82015552D01*
X114828414Y-82046148D01*
X114671586Y-82046148D01*
X114517772Y-82015552D01*
X114372883Y-81955537D01*
X114242485Y-81868408D01*
X114131592Y-81757515D01*
X114044463Y-81627117D01*
X113984448Y-81482228D01*
X113953852Y-81328414D01*
X113953852Y-81171586D01*
X113984448Y-81017772D01*
X114044463Y-80872883D01*
X114131592Y-80742485D01*
X114242485Y-80631592D01*
X114372883Y-80544463D01*
X114517772Y-80484448D01*
X114671586Y-80453852D01*
X114828414Y-80453852D01*
X114982228Y-80484448D01*
G37*
G36*
X123913199Y-77830142D02*
G01*
X124039978Y-77882655D01*
X124154075Y-77958893D01*
X124251107Y-78055925D01*
X124327345Y-78170022D01*
X124379858Y-78296801D01*
X124406629Y-78431388D01*
X124406629Y-78568612D01*
X124379858Y-78703199D01*
X124327345Y-78829978D01*
X124251107Y-78944075D01*
X124154075Y-79041107D01*
X124039978Y-79117345D01*
X123913199Y-79169858D01*
X123778612Y-79196629D01*
X123641388Y-79196629D01*
X123506801Y-79169858D01*
X123380022Y-79117345D01*
X123265925Y-79041107D01*
X123168893Y-78944075D01*
X123092655Y-78829978D01*
X123040142Y-78703199D01*
X123013371Y-78568612D01*
X123013371Y-78431388D01*
X123040142Y-78296801D01*
X123092655Y-78170022D01*
X123168893Y-78055925D01*
X123265925Y-77958893D01*
X123380022Y-77882655D01*
X123506801Y-77830142D01*
X123641388Y-77803371D01*
X123778612Y-77803371D01*
X123913199Y-77830142D01*
G37*
G36*
X128993199Y-77830142D02*
G01*
X129119978Y-77882655D01*
X129234075Y-77958893D01*
X129331107Y-78055925D01*
X129407345Y-78170022D01*
X129459858Y-78296801D01*
X129486629Y-78431388D01*
X129486629Y-78568612D01*
X129459858Y-78703199D01*
X129407345Y-78829978D01*
X129331107Y-78944075D01*
X129234075Y-79041107D01*
X129119978Y-79117345D01*
X128993199Y-79169858D01*
X128858612Y-79196629D01*
X128721388Y-79196629D01*
X128586801Y-79169858D01*
X128460022Y-79117345D01*
X128345925Y-79041107D01*
X128248893Y-78944075D01*
X128172655Y-78829978D01*
X128120142Y-78703199D01*
X128093371Y-78568612D01*
X128093371Y-78431388D01*
X128120142Y-78296801D01*
X128172655Y-78170022D01*
X128248893Y-78055925D01*
X128345925Y-77958893D01*
X128460022Y-77882655D01*
X128586801Y-77830142D01*
X128721388Y-77803371D01*
X128858612Y-77803371D01*
X128993199Y-77830142D01*
G37*
G36*
X114982228Y-75484448D02*
G01*
X115127117Y-75544463D01*
X115257515Y-75631592D01*
X115368408Y-75742485D01*
X115455537Y-75872883D01*
X115515552Y-76017772D01*
X115546148Y-76171586D01*
X115546148Y-76328414D01*
X115515552Y-76482228D01*
X115455537Y-76627117D01*
X115368408Y-76757515D01*
X115257515Y-76868408D01*
X115127117Y-76955537D01*
X114982228Y-77015552D01*
X114828414Y-77046148D01*
X114671586Y-77046148D01*
X114517772Y-77015552D01*
X114372883Y-76955537D01*
X114242485Y-76868408D01*
X114131592Y-76757515D01*
X114044463Y-76627117D01*
X113984448Y-76482228D01*
X113953852Y-76328414D01*
X113953852Y-76171586D01*
X113984448Y-76017772D01*
X114044463Y-75872883D01*
X114131592Y-75742485D01*
X114242485Y-75631592D01*
X114372883Y-75544463D01*
X114517772Y-75484448D01*
X114671586Y-75453852D01*
X114828414Y-75453852D01*
X114982228Y-75484448D01*
G37*
G36*
X125880000Y-75650000D02*
G01*
X124080000Y-75650000D01*
X124080000Y-73850000D01*
X125880000Y-73850000D01*
X125880000Y-75650000D01*
G37*
G36*
X127781256Y-73888754D02*
G01*
X127944257Y-73956271D01*
X128090954Y-74054291D01*
X128215709Y-74179046D01*
X128313729Y-74325743D01*
X128381246Y-74488744D01*
X128415666Y-74661785D01*
X128415666Y-74838215D01*
X128381246Y-75011256D01*
X128313729Y-75174257D01*
X128215709Y-75320954D01*
X128090954Y-75445709D01*
X127944257Y-75543729D01*
X127781256Y-75611246D01*
X127608215Y-75645666D01*
X127431785Y-75645666D01*
X127258744Y-75611246D01*
X127095743Y-75543729D01*
X126949046Y-75445709D01*
X126824291Y-75320954D01*
X126726271Y-75174257D01*
X126658754Y-75011256D01*
X126624334Y-74838215D01*
X126624334Y-74661785D01*
X126658754Y-74488744D01*
X126726271Y-74325743D01*
X126824291Y-74179046D01*
X126949046Y-74054291D01*
X127095743Y-73956271D01*
X127258744Y-73888754D01*
X127431785Y-73854334D01*
X127608215Y-73854334D01*
X127781256Y-73888754D01*
G37*
G36*
X115788268Y-73032612D02*
G01*
X115820711Y-73054289D01*
X115842388Y-73086732D01*
X115850000Y-73125000D01*
X115850000Y-73325000D01*
X115842388Y-73363268D01*
X115820711Y-73395711D01*
X115788268Y-73417388D01*
X115750000Y-73425000D01*
X114050000Y-73425000D01*
X114011732Y-73417388D01*
X113979289Y-73395711D01*
X113957612Y-73363268D01*
X113950000Y-73325000D01*
X113950000Y-73125000D01*
X113957612Y-73086732D01*
X113979289Y-73054289D01*
X114011732Y-73032612D01*
X114050000Y-73025000D01*
X115750000Y-73025000D01*
X115788268Y-73032612D01*
G37*
G36*
X122788268Y-73032612D02*
G01*
X122820711Y-73054289D01*
X122842388Y-73086732D01*
X122850000Y-73125000D01*
X122850000Y-73325000D01*
X122842388Y-73363268D01*
X122820711Y-73395711D01*
X122788268Y-73417388D01*
X122750000Y-73425000D01*
X121050000Y-73425000D01*
X121011732Y-73417388D01*
X120979289Y-73395711D01*
X120957612Y-73363268D01*
X120950000Y-73325000D01*
X120950000Y-73125000D01*
X120957612Y-73086732D01*
X120979289Y-73054289D01*
X121011732Y-73032612D01*
X121050000Y-73025000D01*
X122750000Y-73025000D01*
X122788268Y-73032612D01*
G37*
G36*
X112920000Y-73400000D02*
G01*
X111120000Y-73400000D01*
X111120000Y-71600000D01*
X112920000Y-71600000D01*
X112920000Y-73400000D01*
G37*
G36*
X109741256Y-71638754D02*
G01*
X109904257Y-71706271D01*
X110050954Y-71804291D01*
X110175709Y-71929046D01*
X110273729Y-72075743D01*
X110341246Y-72238744D01*
X110375666Y-72411785D01*
X110375666Y-72588215D01*
X110341246Y-72761256D01*
X110273729Y-72924257D01*
X110175709Y-73070954D01*
X110050954Y-73195709D01*
X109904257Y-73293729D01*
X109741256Y-73361246D01*
X109568215Y-73395666D01*
X109391785Y-73395666D01*
X109218744Y-73361246D01*
X109055743Y-73293729D01*
X108909046Y-73195709D01*
X108784291Y-73070954D01*
X108686271Y-72924257D01*
X108618754Y-72761256D01*
X108584334Y-72588215D01*
X108584334Y-72411785D01*
X108618754Y-72238744D01*
X108686271Y-72075743D01*
X108784291Y-71929046D01*
X108909046Y-71804291D01*
X109055743Y-71706271D01*
X109218744Y-71638754D01*
X109391785Y-71604334D01*
X109568215Y-71604334D01*
X109741256Y-71638754D01*
G37*
G36*
X115788268Y-72382612D02*
G01*
X115820711Y-72404289D01*
X115842388Y-72436732D01*
X115850000Y-72475000D01*
X115850000Y-72675000D01*
X115842388Y-72713268D01*
X115820711Y-72745711D01*
X115788268Y-72767388D01*
X115750000Y-72775000D01*
X114050000Y-72775000D01*
X114011732Y-72767388D01*
X113979289Y-72745711D01*
X113957612Y-72713268D01*
X113950000Y-72675000D01*
X113950000Y-72475000D01*
X113957612Y-72436732D01*
X113979289Y-72404289D01*
X114011732Y-72382612D01*
X114050000Y-72375000D01*
X115750000Y-72375000D01*
X115788268Y-72382612D01*
G37*
G36*
X122788268Y-72382612D02*
G01*
X122820711Y-72404289D01*
X122842388Y-72436732D01*
X122850000Y-72475000D01*
X122850000Y-72675000D01*
X122842388Y-72713268D01*
X122820711Y-72745711D01*
X122788268Y-72767388D01*
X122750000Y-72775000D01*
X121050000Y-72775000D01*
X121011732Y-72767388D01*
X120979289Y-72745711D01*
X120957612Y-72713268D01*
X120950000Y-72675000D01*
X120950000Y-72475000D01*
X120957612Y-72436732D01*
X120979289Y-72404289D01*
X121011732Y-72382612D01*
X121050000Y-72375000D01*
X122750000Y-72375000D01*
X122788268Y-72382612D01*
G37*
G36*
X115788268Y-71732612D02*
G01*
X115820711Y-71754289D01*
X115842388Y-71786732D01*
X115850000Y-71825000D01*
X115850000Y-72025000D01*
X115842388Y-72063268D01*
X115820711Y-72095711D01*
X115788268Y-72117388D01*
X115750000Y-72125000D01*
X114050000Y-72125000D01*
X114011732Y-72117388D01*
X113979289Y-72095711D01*
X113957612Y-72063268D01*
X113950000Y-72025000D01*
X113950000Y-71825000D01*
X113957612Y-71786732D01*
X113979289Y-71754289D01*
X114011732Y-71732612D01*
X114050000Y-71725000D01*
X115750000Y-71725000D01*
X115788268Y-71732612D01*
G37*
G36*
X122788268Y-71732612D02*
G01*
X122820711Y-71754289D01*
X122842388Y-71786732D01*
X122850000Y-71825000D01*
X122850000Y-72025000D01*
X122842388Y-72063268D01*
X122820711Y-72095711D01*
X122788268Y-72117388D01*
X122750000Y-72125000D01*
X121050000Y-72125000D01*
X121011732Y-72117388D01*
X120979289Y-72095711D01*
X120957612Y-72063268D01*
X120950000Y-72025000D01*
X120950000Y-71825000D01*
X120957612Y-71786732D01*
X120979289Y-71754289D01*
X121011732Y-71732612D01*
X121050000Y-71725000D01*
X122750000Y-71725000D01*
X122788268Y-71732612D01*
G37*
G36*
X115788268Y-71082612D02*
G01*
X115820711Y-71104289D01*
X115842388Y-71136732D01*
X115850000Y-71175000D01*
X115850000Y-71375000D01*
X115842388Y-71413268D01*
X115820711Y-71445711D01*
X115788268Y-71467388D01*
X115750000Y-71475000D01*
X114050000Y-71475000D01*
X114011732Y-71467388D01*
X113979289Y-71445711D01*
X113957612Y-71413268D01*
X113950000Y-71375000D01*
X113950000Y-71175000D01*
X113957612Y-71136732D01*
X113979289Y-71104289D01*
X114011732Y-71082612D01*
X114050000Y-71075000D01*
X115750000Y-71075000D01*
X115788268Y-71082612D01*
G37*
G36*
X122788268Y-71082612D02*
G01*
X122820711Y-71104289D01*
X122842388Y-71136732D01*
X122850000Y-71175000D01*
X122850000Y-71375000D01*
X122842388Y-71413268D01*
X122820711Y-71445711D01*
X122788268Y-71467388D01*
X122750000Y-71475000D01*
X121050000Y-71475000D01*
X121011732Y-71467388D01*
X120979289Y-71445711D01*
X120957612Y-71413268D01*
X120950000Y-71375000D01*
X120950000Y-71175000D01*
X120957612Y-71136732D01*
X120979289Y-71104289D01*
X121011732Y-71082612D01*
X121050000Y-71075000D01*
X122750000Y-71075000D01*
X122788268Y-71082612D01*
G37*
G36*
X115788268Y-70432612D02*
G01*
X115820711Y-70454289D01*
X115842388Y-70486732D01*
X115850000Y-70525000D01*
X115850000Y-70725000D01*
X115842388Y-70763268D01*
X115820711Y-70795711D01*
X115788268Y-70817388D01*
X115750000Y-70825000D01*
X114050000Y-70825000D01*
X114011732Y-70817388D01*
X113979289Y-70795711D01*
X113957612Y-70763268D01*
X113950000Y-70725000D01*
X113950000Y-70525000D01*
X113957612Y-70486732D01*
X113979289Y-70454289D01*
X114011732Y-70432612D01*
X114050000Y-70425000D01*
X115750000Y-70425000D01*
X115788268Y-70432612D01*
G37*
G36*
X122788268Y-70432612D02*
G01*
X122820711Y-70454289D01*
X122842388Y-70486732D01*
X122850000Y-70525000D01*
X122850000Y-70725000D01*
X122842388Y-70763268D01*
X122820711Y-70795711D01*
X122788268Y-70817388D01*
X122750000Y-70825000D01*
X121050000Y-70825000D01*
X121011732Y-70817388D01*
X120979289Y-70795711D01*
X120957612Y-70763268D01*
X120950000Y-70725000D01*
X120950000Y-70525000D01*
X120957612Y-70486732D01*
X120979289Y-70454289D01*
X121011732Y-70432612D01*
X121050000Y-70425000D01*
X122750000Y-70425000D01*
X122788268Y-70432612D01*
G37*
G36*
X124663199Y-69330142D02*
G01*
X124789978Y-69382655D01*
X124904075Y-69458893D01*
X125001107Y-69555925D01*
X125077345Y-69670022D01*
X125129858Y-69796801D01*
X125156629Y-69931388D01*
X125156629Y-70068612D01*
X125129858Y-70203199D01*
X125077345Y-70329978D01*
X125001107Y-70444075D01*
X124904075Y-70541107D01*
X124789978Y-70617345D01*
X124663199Y-70669858D01*
X124528612Y-70696629D01*
X124391388Y-70696629D01*
X124256801Y-70669858D01*
X124130022Y-70617345D01*
X124015925Y-70541107D01*
X123918893Y-70444075D01*
X123842655Y-70329978D01*
X123790142Y-70203199D01*
X123763371Y-70068612D01*
X123763371Y-69931388D01*
X123790142Y-69796801D01*
X123842655Y-69670022D01*
X123918893Y-69555925D01*
X124015925Y-69458893D01*
X124130022Y-69382655D01*
X124256801Y-69330142D01*
X124391388Y-69303371D01*
X124528612Y-69303371D01*
X124663199Y-69330142D01*
G37*
G36*
X129743199Y-69330142D02*
G01*
X129869978Y-69382655D01*
X129984075Y-69458893D01*
X130081107Y-69555925D01*
X130157345Y-69670022D01*
X130209858Y-69796801D01*
X130236629Y-69931388D01*
X130236629Y-70068612D01*
X130209858Y-70203199D01*
X130157345Y-70329978D01*
X130081107Y-70444075D01*
X129984075Y-70541107D01*
X129869978Y-70617345D01*
X129743199Y-70669858D01*
X129608612Y-70696629D01*
X129471388Y-70696629D01*
X129336801Y-70669858D01*
X129210022Y-70617345D01*
X129095925Y-70541107D01*
X128998893Y-70444075D01*
X128922655Y-70329978D01*
X128870142Y-70203199D01*
X128843371Y-70068612D01*
X128843371Y-69931388D01*
X128870142Y-69796801D01*
X128922655Y-69670022D01*
X128998893Y-69555925D01*
X129095925Y-69458893D01*
X129210022Y-69382655D01*
X129336801Y-69330142D01*
X129471388Y-69303371D01*
X129608612Y-69303371D01*
X129743199Y-69330142D01*
G37*
G36*
X115788268Y-69782612D02*
G01*
X115820711Y-69804289D01*
X115842388Y-69836732D01*
X115850000Y-69875000D01*
X115850000Y-70075000D01*
X115842388Y-70113268D01*
X115820711Y-70145711D01*
X115788268Y-70167388D01*
X115750000Y-70175000D01*
X114050000Y-70175000D01*
X114011732Y-70167388D01*
X113979289Y-70145711D01*
X113957612Y-70113268D01*
X113950000Y-70075000D01*
X113950000Y-69875000D01*
X113957612Y-69836732D01*
X113979289Y-69804289D01*
X114011732Y-69782612D01*
X114050000Y-69775000D01*
X115750000Y-69775000D01*
X115788268Y-69782612D01*
G37*
G36*
X122788268Y-69782612D02*
G01*
X122820711Y-69804289D01*
X122842388Y-69836732D01*
X122850000Y-69875000D01*
X122850000Y-70075000D01*
X122842388Y-70113268D01*
X122820711Y-70145711D01*
X122788268Y-70167388D01*
X122750000Y-70175000D01*
X121050000Y-70175000D01*
X121011732Y-70167388D01*
X120979289Y-70145711D01*
X120957612Y-70113268D01*
X120950000Y-70075000D01*
X120950000Y-69875000D01*
X120957612Y-69836732D01*
X120979289Y-69804289D01*
X121011732Y-69782612D01*
X121050000Y-69775000D01*
X122750000Y-69775000D01*
X122788268Y-69782612D01*
G37*
G36*
X115788268Y-69132612D02*
G01*
X115820711Y-69154289D01*
X115842388Y-69186732D01*
X115850000Y-69225000D01*
X115850000Y-69425000D01*
X115842388Y-69463268D01*
X115820711Y-69495711D01*
X115788268Y-69517388D01*
X115750000Y-69525000D01*
X114050000Y-69525000D01*
X114011732Y-69517388D01*
X113979289Y-69495711D01*
X113957612Y-69463268D01*
X113950000Y-69425000D01*
X113950000Y-69225000D01*
X113957612Y-69186732D01*
X113979289Y-69154289D01*
X114011732Y-69132612D01*
X114050000Y-69125000D01*
X115750000Y-69125000D01*
X115788268Y-69132612D01*
G37*
G36*
X122788268Y-69132612D02*
G01*
X122820711Y-69154289D01*
X122842388Y-69186732D01*
X122850000Y-69225000D01*
X122850000Y-69425000D01*
X122842388Y-69463268D01*
X122820711Y-69495711D01*
X122788268Y-69517388D01*
X122750000Y-69525000D01*
X121050000Y-69525000D01*
X121011732Y-69517388D01*
X120979289Y-69495711D01*
X120957612Y-69463268D01*
X120950000Y-69425000D01*
X120950000Y-69225000D01*
X120957612Y-69186732D01*
X120979289Y-69154289D01*
X121011732Y-69132612D01*
X121050000Y-69125000D01*
X122750000Y-69125000D01*
X122788268Y-69132612D01*
G37*
G36*
X115788268Y-68482612D02*
G01*
X115820711Y-68504289D01*
X115842388Y-68536732D01*
X115850000Y-68575000D01*
X115850000Y-68775000D01*
X115842388Y-68813268D01*
X115820711Y-68845711D01*
X115788268Y-68867388D01*
X115750000Y-68875000D01*
X114050000Y-68875000D01*
X114011732Y-68867388D01*
X113979289Y-68845711D01*
X113957612Y-68813268D01*
X113950000Y-68775000D01*
X113950000Y-68575000D01*
X113957612Y-68536732D01*
X113979289Y-68504289D01*
X114011732Y-68482612D01*
X114050000Y-68475000D01*
X115750000Y-68475000D01*
X115788268Y-68482612D01*
G37*
G36*
X122788268Y-68482612D02*
G01*
X122820711Y-68504289D01*
X122842388Y-68536732D01*
X122850000Y-68575000D01*
X122850000Y-68775000D01*
X122842388Y-68813268D01*
X122820711Y-68845711D01*
X122788268Y-68867388D01*
X122750000Y-68875000D01*
X121050000Y-68875000D01*
X121011732Y-68867388D01*
X120979289Y-68845711D01*
X120957612Y-68813268D01*
X120950000Y-68775000D01*
X120950000Y-68575000D01*
X120957612Y-68536732D01*
X120979289Y-68504289D01*
X121011732Y-68482612D01*
X121050000Y-68475000D01*
X122750000Y-68475000D01*
X122788268Y-68482612D01*
G37*
G36*
X115788268Y-67832612D02*
G01*
X115820711Y-67854289D01*
X115842388Y-67886732D01*
X115850000Y-67925000D01*
X115850000Y-68125000D01*
X115842388Y-68163268D01*
X115820711Y-68195711D01*
X115788268Y-68217388D01*
X115750000Y-68225000D01*
X114050000Y-68225000D01*
X114011732Y-68217388D01*
X113979289Y-68195711D01*
X113957612Y-68163268D01*
X113950000Y-68125000D01*
X113950000Y-67925000D01*
X113957612Y-67886732D01*
X113979289Y-67854289D01*
X114011732Y-67832612D01*
X114050000Y-67825000D01*
X115750000Y-67825000D01*
X115788268Y-67832612D01*
G37*
G36*
X122788268Y-67832612D02*
G01*
X122820711Y-67854289D01*
X122842388Y-67886732D01*
X122850000Y-67925000D01*
X122850000Y-68125000D01*
X122842388Y-68163268D01*
X122820711Y-68195711D01*
X122788268Y-68217388D01*
X122750000Y-68225000D01*
X121050000Y-68225000D01*
X121011732Y-68217388D01*
X120979289Y-68195711D01*
X120957612Y-68163268D01*
X120950000Y-68125000D01*
X120950000Y-67925000D01*
X120957612Y-67886732D01*
X120979289Y-67854289D01*
X121011732Y-67832612D01*
X121050000Y-67825000D01*
X122750000Y-67825000D01*
X122788268Y-67832612D01*
G37*
G36*
X110099738Y-66200964D02*
G01*
X110149928Y-66206787D01*
X110167077Y-66214359D01*
X110190559Y-66219030D01*
X110215698Y-66235827D01*
X110235584Y-66244608D01*
X110249165Y-66258189D01*
X110271665Y-66273223D01*
X110286698Y-66295722D01*
X110300279Y-66309303D01*
X110309058Y-66329186D01*
X110325858Y-66354329D01*
X110330529Y-66377812D01*
X110338100Y-66394959D01*
X110343921Y-66445139D01*
X110344888Y-66450000D01*
X110344888Y-67550000D01*
X110343920Y-67554863D01*
X110338100Y-67605040D01*
X110330529Y-67622185D01*
X110325858Y-67645671D01*
X110309057Y-67670815D01*
X110300279Y-67690696D01*
X110286700Y-67704274D01*
X110271665Y-67726777D01*
X110249162Y-67741812D01*
X110235584Y-67755391D01*
X110215703Y-67764169D01*
X110190559Y-67780970D01*
X110167073Y-67785641D01*
X110149928Y-67793212D01*
X110099749Y-67799032D01*
X110094888Y-67800000D01*
X108994888Y-67800000D01*
X108990026Y-67799032D01*
X108939847Y-67793212D01*
X108922700Y-67785641D01*
X108899217Y-67780970D01*
X108874074Y-67764170D01*
X108854191Y-67755391D01*
X108840610Y-67741810D01*
X108818111Y-67726777D01*
X108803077Y-67704277D01*
X108789496Y-67690696D01*
X108780715Y-67670810D01*
X108763918Y-67645671D01*
X108759247Y-67622189D01*
X108751675Y-67605040D01*
X108745852Y-67554849D01*
X108744888Y-67550000D01*
X108744888Y-66450000D01*
X108745852Y-66445150D01*
X108751675Y-66394959D01*
X108759247Y-66377808D01*
X108763918Y-66354329D01*
X108780714Y-66329191D01*
X108789496Y-66309303D01*
X108803079Y-66295719D01*
X108818111Y-66273223D01*
X108840607Y-66258191D01*
X108854191Y-66244608D01*
X108874079Y-66235826D01*
X108899217Y-66219030D01*
X108922696Y-66214359D01*
X108939847Y-66206787D01*
X108990039Y-66200964D01*
X108994888Y-66200000D01*
X110094888Y-66200000D01*
X110099738Y-66200964D01*
G37*
G36*
X111777116Y-66234448D02*
G01*
X111922005Y-66294463D01*
X112052403Y-66381592D01*
X112163296Y-66492485D01*
X112250425Y-66622883D01*
X112310440Y-66767772D01*
X112341036Y-66921586D01*
X112341036Y-67078414D01*
X112310440Y-67232228D01*
X112250425Y-67377117D01*
X112163296Y-67507515D01*
X112052403Y-67618408D01*
X111922005Y-67705537D01*
X111777116Y-67765552D01*
X111623302Y-67796148D01*
X111466474Y-67796148D01*
X111312660Y-67765552D01*
X111167771Y-67705537D01*
X111037373Y-67618408D01*
X110926480Y-67507515D01*
X110839351Y-67377117D01*
X110779336Y-67232228D01*
X110748740Y-67078414D01*
X110748740Y-66921586D01*
X110779336Y-66767772D01*
X110839351Y-66622883D01*
X110926480Y-66492485D01*
X111037373Y-66381592D01*
X111167771Y-66294463D01*
X111312660Y-66234448D01*
X111466474Y-66203852D01*
X111623302Y-66203852D01*
X111777116Y-66234448D01*
G37*
G36*
X115788268Y-67182612D02*
G01*
X115820711Y-67204289D01*
X115842388Y-67236732D01*
X115850000Y-67275000D01*
X115850000Y-67475000D01*
X115842388Y-67513268D01*
X115820711Y-67545711D01*
X115788268Y-67567388D01*
X115750000Y-67575000D01*
X114050000Y-67575000D01*
X114011732Y-67567388D01*
X113979289Y-67545711D01*
X113957612Y-67513268D01*
X113950000Y-67475000D01*
X113950000Y-67275000D01*
X113957612Y-67236732D01*
X113979289Y-67204289D01*
X114011732Y-67182612D01*
X114050000Y-67175000D01*
X115750000Y-67175000D01*
X115788268Y-67182612D01*
G37*
G36*
X122788268Y-67182612D02*
G01*
X122820711Y-67204289D01*
X122842388Y-67236732D01*
X122850000Y-67275000D01*
X122850000Y-67475000D01*
X122842388Y-67513268D01*
X122820711Y-67545711D01*
X122788268Y-67567388D01*
X122750000Y-67575000D01*
X121050000Y-67575000D01*
X121011732Y-67567388D01*
X120979289Y-67545711D01*
X120957612Y-67513268D01*
X120950000Y-67475000D01*
X120950000Y-67275000D01*
X120957612Y-67236732D01*
X120979289Y-67204289D01*
X121011732Y-67182612D01*
X121050000Y-67175000D01*
X122750000Y-67175000D01*
X122788268Y-67182612D01*
G37*
G36*
X125860000Y-67150000D02*
G01*
X124060000Y-67150000D01*
X124060000Y-65350000D01*
X125860000Y-65350000D01*
X125860000Y-67150000D01*
G37*
G36*
X127761256Y-65388754D02*
G01*
X127924257Y-65456271D01*
X128070954Y-65554291D01*
X128195709Y-65679046D01*
X128293729Y-65825743D01*
X128361246Y-65988744D01*
X128395666Y-66161785D01*
X128395666Y-66338215D01*
X128361246Y-66511256D01*
X128293729Y-66674257D01*
X128195709Y-66820954D01*
X128070954Y-66945709D01*
X127924257Y-67043729D01*
X127761256Y-67111246D01*
X127588215Y-67145666D01*
X127411785Y-67145666D01*
X127238744Y-67111246D01*
X127075743Y-67043729D01*
X126929046Y-66945709D01*
X126804291Y-66820954D01*
X126706271Y-66674257D01*
X126638754Y-66511256D01*
X126604334Y-66338215D01*
X126604334Y-66161785D01*
X126638754Y-65988744D01*
X126706271Y-65825743D01*
X126804291Y-65679046D01*
X126929046Y-65554291D01*
X127075743Y-65456271D01*
X127238744Y-65388754D01*
X127411785Y-65354334D01*
X127588215Y-65354334D01*
X127761256Y-65388754D01*
G37*
G36*
X115788268Y-66532612D02*
G01*
X115820711Y-66554289D01*
X115842388Y-66586732D01*
X115850000Y-66625000D01*
X115850000Y-66825000D01*
X115842388Y-66863268D01*
X115820711Y-66895711D01*
X115788268Y-66917388D01*
X115750000Y-66925000D01*
X114050000Y-66925000D01*
X114011732Y-66917388D01*
X113979289Y-66895711D01*
X113957612Y-66863268D01*
X113950000Y-66825000D01*
X113950000Y-66625000D01*
X113957612Y-66586732D01*
X113979289Y-66554289D01*
X114011732Y-66532612D01*
X114050000Y-66525000D01*
X115750000Y-66525000D01*
X115788268Y-66532612D01*
G37*
G36*
X122788268Y-66532612D02*
G01*
X122820711Y-66554289D01*
X122842388Y-66586732D01*
X122850000Y-66625000D01*
X122850000Y-66825000D01*
X122842388Y-66863268D01*
X122820711Y-66895711D01*
X122788268Y-66917388D01*
X122750000Y-66925000D01*
X121050000Y-66925000D01*
X121011732Y-66917388D01*
X120979289Y-66895711D01*
X120957612Y-66863268D01*
X120950000Y-66825000D01*
X120950000Y-66625000D01*
X120957612Y-66586732D01*
X120979289Y-66554289D01*
X121011732Y-66532612D01*
X121050000Y-66525000D01*
X122750000Y-66525000D01*
X122788268Y-66532612D01*
G37*
G36*
X115788268Y-65882612D02*
G01*
X115820711Y-65904289D01*
X115842388Y-65936732D01*
X115850000Y-65975000D01*
X115850000Y-66175000D01*
X115842388Y-66213268D01*
X115820711Y-66245711D01*
X115788268Y-66267388D01*
X115750000Y-66275000D01*
X114050000Y-66275000D01*
X114011732Y-66267388D01*
X113979289Y-66245711D01*
X113957612Y-66213268D01*
X113950000Y-66175000D01*
X113950000Y-65975000D01*
X113957612Y-65936732D01*
X113979289Y-65904289D01*
X114011732Y-65882612D01*
X114050000Y-65875000D01*
X115750000Y-65875000D01*
X115788268Y-65882612D01*
G37*
G36*
X122788268Y-65882612D02*
G01*
X122820711Y-65904289D01*
X122842388Y-65936732D01*
X122850000Y-65975000D01*
X122850000Y-66175000D01*
X122842388Y-66213268D01*
X122820711Y-66245711D01*
X122788268Y-66267388D01*
X122750000Y-66275000D01*
X121050000Y-66275000D01*
X121011732Y-66267388D01*
X120979289Y-66245711D01*
X120957612Y-66213268D01*
X120950000Y-66175000D01*
X120950000Y-65975000D01*
X120957612Y-65936732D01*
X120979289Y-65904289D01*
X121011732Y-65882612D01*
X121050000Y-65875000D01*
X122750000Y-65875000D01*
X122788268Y-65882612D01*
G37*
G36*
X115788268Y-65232612D02*
G01*
X115820711Y-65254289D01*
X115842388Y-65286732D01*
X115850000Y-65325000D01*
X115850000Y-65525000D01*
X115842388Y-65563268D01*
X115820711Y-65595711D01*
X115788268Y-65617388D01*
X115750000Y-65625000D01*
X114050000Y-65625000D01*
X114011732Y-65617388D01*
X113979289Y-65595711D01*
X113957612Y-65563268D01*
X113950000Y-65525000D01*
X113950000Y-65325000D01*
X113957612Y-65286732D01*
X113979289Y-65254289D01*
X114011732Y-65232612D01*
X114050000Y-65225000D01*
X115750000Y-65225000D01*
X115788268Y-65232612D01*
G37*
G36*
X122788268Y-65232612D02*
G01*
X122820711Y-65254289D01*
X122842388Y-65286732D01*
X122850000Y-65325000D01*
X122850000Y-65525000D01*
X122842388Y-65563268D01*
X122820711Y-65595711D01*
X122788268Y-65617388D01*
X122750000Y-65625000D01*
X121050000Y-65625000D01*
X121011732Y-65617388D01*
X120979289Y-65595711D01*
X120957612Y-65563268D01*
X120950000Y-65525000D01*
X120950000Y-65325000D01*
X120957612Y-65286732D01*
X120979289Y-65254289D01*
X121011732Y-65232612D01*
X121050000Y-65225000D01*
X122750000Y-65225000D01*
X122788268Y-65232612D01*
G37*
G36*
X115788268Y-64582612D02*
G01*
X115820711Y-64604289D01*
X115842388Y-64636732D01*
X115850000Y-64675000D01*
X115850000Y-64875000D01*
X115842388Y-64913268D01*
X115820711Y-64945711D01*
X115788268Y-64967388D01*
X115750000Y-64975000D01*
X114050000Y-64975000D01*
X114011732Y-64967388D01*
X113979289Y-64945711D01*
X113957612Y-64913268D01*
X113950000Y-64875000D01*
X113950000Y-64675000D01*
X113957612Y-64636732D01*
X113979289Y-64604289D01*
X114011732Y-64582612D01*
X114050000Y-64575000D01*
X115750000Y-64575000D01*
X115788268Y-64582612D01*
G37*
G36*
X122788268Y-64582612D02*
G01*
X122820711Y-64604289D01*
X122842388Y-64636732D01*
X122850000Y-64675000D01*
X122850000Y-64875000D01*
X122842388Y-64913268D01*
X122820711Y-64945711D01*
X122788268Y-64967388D01*
X122750000Y-64975000D01*
X121050000Y-64975000D01*
X121011732Y-64967388D01*
X120979289Y-64945711D01*
X120957612Y-64913268D01*
X120950000Y-64875000D01*
X120950000Y-64675000D01*
X120957612Y-64636732D01*
X120979289Y-64604289D01*
X121011732Y-64582612D01*
X121050000Y-64575000D01*
X122750000Y-64575000D01*
X122788268Y-64582612D01*
G37*
G36*
X128232228Y-60634448D02*
G01*
X128377117Y-60694463D01*
X128507515Y-60781592D01*
X128618408Y-60892485D01*
X128705537Y-61022883D01*
X128765552Y-61167772D01*
X128796148Y-61321586D01*
X128796148Y-61478414D01*
X128765552Y-61632228D01*
X128705537Y-61777117D01*
X128618408Y-61907515D01*
X128507515Y-62018408D01*
X128377117Y-62105537D01*
X128232228Y-62165552D01*
X128078414Y-62196148D01*
X127921586Y-62196148D01*
X127767772Y-62165552D01*
X127622883Y-62105537D01*
X127492485Y-62018408D01*
X127381592Y-61907515D01*
X127294463Y-61777117D01*
X127234448Y-61632228D01*
X127203852Y-61478414D01*
X127203852Y-61321586D01*
X127234448Y-61167772D01*
X127294463Y-61022883D01*
X127381592Y-60892485D01*
X127492485Y-60781592D01*
X127622883Y-60694463D01*
X127767772Y-60634448D01*
X127921586Y-60603852D01*
X128078414Y-60603852D01*
X128232228Y-60634448D01*
G37*
G36*
X128232228Y-55634448D02*
G01*
X128377117Y-55694463D01*
X128507515Y-55781592D01*
X128618408Y-55892485D01*
X128705537Y-56022883D01*
X128765552Y-56167772D01*
X128796148Y-56321586D01*
X128796148Y-56478414D01*
X128765552Y-56632228D01*
X128705537Y-56777117D01*
X128618408Y-56907515D01*
X128507515Y-57018408D01*
X128377117Y-57105537D01*
X128232228Y-57165552D01*
X128078414Y-57196148D01*
X127921586Y-57196148D01*
X127767772Y-57165552D01*
X127622883Y-57105537D01*
X127492485Y-57018408D01*
X127381592Y-56907515D01*
X127294463Y-56777117D01*
X127234448Y-56632228D01*
X127203852Y-56478414D01*
X127203852Y-56321586D01*
X127234448Y-56167772D01*
X127294463Y-56022883D01*
X127381592Y-55892485D01*
X127492485Y-55781592D01*
X127622883Y-55694463D01*
X127767772Y-55634448D01*
X127921586Y-55603852D01*
X128078414Y-55603852D01*
X128232228Y-55634448D01*
G37*
G36*
X111771408Y-50061126D02*
G01*
X111992519Y-50120372D01*
X112204005Y-50207973D01*
X112402248Y-50322428D01*
X112583855Y-50461780D01*
X112745720Y-50623645D01*
X112885072Y-50805252D01*
X112999527Y-51003495D01*
X113087128Y-51214981D01*
X113146374Y-51436092D01*
X113176253Y-51663045D01*
X113176253Y-51891955D01*
X113146374Y-52118908D01*
X113087128Y-52340019D01*
X112999527Y-52551505D01*
X112885072Y-52749748D01*
X112745720Y-52931355D01*
X112583855Y-53093220D01*
X112402248Y-53232572D01*
X112204005Y-53347027D01*
X111992519Y-53434628D01*
X111771408Y-53493874D01*
X111544455Y-53523753D01*
X111315545Y-53523753D01*
X111088592Y-53493874D01*
X110867481Y-53434628D01*
X110655995Y-53347027D01*
X110457752Y-53232572D01*
X110276145Y-53093220D01*
X110114280Y-52931355D01*
X109974928Y-52749748D01*
X109860473Y-52551505D01*
X109772872Y-52340019D01*
X109713626Y-52118908D01*
X109683747Y-51891955D01*
X109683747Y-51663045D01*
X109713626Y-51436092D01*
X109772872Y-51214981D01*
X109860473Y-51003495D01*
X109974928Y-50805252D01*
X110114280Y-50623645D01*
X110276145Y-50461780D01*
X110457752Y-50322428D01*
X110655995Y-50207973D01*
X110867481Y-50120372D01*
X111088592Y-50061126D01*
X111315545Y-50031247D01*
X111544455Y-50031247D01*
X111771408Y-50061126D01*
G37*
G36*
X124911408Y-50061126D02*
G01*
X125132519Y-50120372D01*
X125344005Y-50207973D01*
X125542248Y-50322428D01*
X125723855Y-50461780D01*
X125885720Y-50623645D01*
X126025072Y-50805252D01*
X126139527Y-51003495D01*
X126227128Y-51214981D01*
X126286374Y-51436092D01*
X126316253Y-51663045D01*
X126316253Y-51891955D01*
X126286374Y-52118908D01*
X126227128Y-52340019D01*
X126139527Y-52551505D01*
X126025072Y-52749748D01*
X125885720Y-52931355D01*
X125723855Y-53093220D01*
X125542248Y-53232572D01*
X125344005Y-53347027D01*
X125132519Y-53434628D01*
X124911408Y-53493874D01*
X124684455Y-53523753D01*
X124455545Y-53523753D01*
X124228592Y-53493874D01*
X124007481Y-53434628D01*
X123795995Y-53347027D01*
X123597752Y-53232572D01*
X123416145Y-53093220D01*
X123254280Y-52931355D01*
X123114928Y-52749748D01*
X123000473Y-52551505D01*
X122912872Y-52340019D01*
X122853626Y-52118908D01*
X122823747Y-51891955D01*
X122823747Y-51663045D01*
X122853626Y-51436092D01*
X122912872Y-51214981D01*
X123000473Y-51003495D01*
X123114928Y-50805252D01*
X123254280Y-50623645D01*
X123416145Y-50461780D01*
X123597752Y-50322428D01*
X123795995Y-50207973D01*
X124007481Y-50120372D01*
X124228592Y-50061126D01*
X124455545Y-50031247D01*
X124684455Y-50031247D01*
X124911408Y-50061126D01*
G37*
G36*
X115016850Y-48306464D02*
G01*
X115067040Y-48312287D01*
X115084189Y-48319859D01*
X115107671Y-48324530D01*
X115132810Y-48341327D01*
X115152696Y-48350108D01*
X115166277Y-48363689D01*
X115188777Y-48378723D01*
X115203810Y-48401222D01*
X115217391Y-48414803D01*
X115226170Y-48434686D01*
X115242970Y-48459829D01*
X115247641Y-48483312D01*
X115255212Y-48500459D01*
X115261033Y-48550639D01*
X115262000Y-48555500D01*
X115262000Y-49579500D01*
X115261032Y-49584363D01*
X115255212Y-49634540D01*
X115247641Y-49651685D01*
X115242970Y-49675171D01*
X115226169Y-49700315D01*
X115217391Y-49720196D01*
X115203812Y-49733774D01*
X115188777Y-49756277D01*
X115166274Y-49771312D01*
X115152696Y-49784891D01*
X115132815Y-49793669D01*
X115107671Y-49810470D01*
X115084185Y-49815141D01*
X115067040Y-49822712D01*
X115016861Y-49828532D01*
X115012000Y-49829500D01*
X113988000Y-49829500D01*
X113983138Y-49828532D01*
X113932959Y-49822712D01*
X113915812Y-49815141D01*
X113892329Y-49810470D01*
X113867186Y-49793670D01*
X113847303Y-49784891D01*
X113833722Y-49771310D01*
X113811223Y-49756277D01*
X113796189Y-49733777D01*
X113782608Y-49720196D01*
X113773827Y-49700310D01*
X113757030Y-49675171D01*
X113752359Y-49651689D01*
X113744787Y-49634540D01*
X113738964Y-49584349D01*
X113738000Y-49579500D01*
X113738000Y-48555500D01*
X113738964Y-48550650D01*
X113744787Y-48500459D01*
X113752359Y-48483308D01*
X113757030Y-48459829D01*
X113773826Y-48434691D01*
X113782608Y-48414803D01*
X113796191Y-48401219D01*
X113811223Y-48378723D01*
X113833719Y-48363691D01*
X113847303Y-48350108D01*
X113867191Y-48341326D01*
X113892329Y-48324530D01*
X113915808Y-48319859D01*
X113932959Y-48312287D01*
X113983151Y-48306464D01*
X113988000Y-48305500D01*
X115012000Y-48305500D01*
X115016850Y-48306464D01*
G37*
G36*
X117221197Y-48338311D02*
G01*
X117359204Y-48395476D01*
X117483408Y-48478466D01*
X117589034Y-48584092D01*
X117672024Y-48708296D01*
X117729189Y-48846303D01*
X117758331Y-48992811D01*
X117758331Y-49142189D01*
X117729189Y-49288697D01*
X117672024Y-49426704D01*
X117589034Y-49550908D01*
X117483408Y-49656534D01*
X117359204Y-49739524D01*
X117221197Y-49796689D01*
X117074689Y-49825831D01*
X116925311Y-49825831D01*
X116778803Y-49796689D01*
X116640796Y-49739524D01*
X116516592Y-49656534D01*
X116410966Y-49550908D01*
X116327976Y-49426704D01*
X116270811Y-49288697D01*
X116241669Y-49142189D01*
X116241669Y-48992811D01*
X116270811Y-48846303D01*
X116327976Y-48708296D01*
X116410966Y-48584092D01*
X116516592Y-48478466D01*
X116640796Y-48395476D01*
X116778803Y-48338311D01*
X116925311Y-48309169D01*
X117074689Y-48309169D01*
X117221197Y-48338311D01*
G37*
G36*
X119221197Y-48338311D02*
G01*
X119359204Y-48395476D01*
X119483408Y-48478466D01*
X119589034Y-48584092D01*
X119672024Y-48708296D01*
X119729189Y-48846303D01*
X119758331Y-48992811D01*
X119758331Y-49142189D01*
X119729189Y-49288697D01*
X119672024Y-49426704D01*
X119589034Y-49550908D01*
X119483408Y-49656534D01*
X119359204Y-49739524D01*
X119221197Y-49796689D01*
X119074689Y-49825831D01*
X118925311Y-49825831D01*
X118778803Y-49796689D01*
X118640796Y-49739524D01*
X118516592Y-49656534D01*
X118410966Y-49550908D01*
X118327976Y-49426704D01*
X118270811Y-49288697D01*
X118241669Y-49142189D01*
X118241669Y-48992811D01*
X118270811Y-48846303D01*
X118327976Y-48708296D01*
X118410966Y-48584092D01*
X118516592Y-48478466D01*
X118640796Y-48395476D01*
X118778803Y-48338311D01*
X118925311Y-48309169D01*
X119074689Y-48309169D01*
X119221197Y-48338311D01*
G37*
G36*
X121721197Y-48338311D02*
G01*
X121859204Y-48395476D01*
X121983408Y-48478466D01*
X122089034Y-48584092D01*
X122172024Y-48708296D01*
X122229189Y-48846303D01*
X122258331Y-48992811D01*
X122258331Y-49142189D01*
X122229189Y-49288697D01*
X122172024Y-49426704D01*
X122089034Y-49550908D01*
X121983408Y-49656534D01*
X121859204Y-49739524D01*
X121721197Y-49796689D01*
X121574689Y-49825831D01*
X121425311Y-49825831D01*
X121278803Y-49796689D01*
X121140796Y-49739524D01*
X121016592Y-49656534D01*
X120910966Y-49550908D01*
X120827976Y-49426704D01*
X120770811Y-49288697D01*
X120741669Y-49142189D01*
X120741669Y-48992811D01*
X120770811Y-48846303D01*
X120827976Y-48708296D01*
X120910966Y-48584092D01*
X121016592Y-48478466D01*
X121140796Y-48395476D01*
X121278803Y-48338311D01*
X121425311Y-48309169D01*
X121574689Y-48309169D01*
X121721197Y-48338311D01*
G37*
M02*
