%TF.GenerationSoftware,KiCad,Pcbnew,10.0.3*%
%TF.CreationDate,2026-06-27T10:41:23+05:45*%
%TF.ProjectId,esp32Drone,65737033-3244-4726-9f6e-652e6b696361,rev?*%
%TF.SameCoordinates,Original*%
%TF.FileFunction,Plated,1,4,PTH,Mixed*%
%TF.FilePolarity,Positive*%
%FSLAX46Y46*%
G04 Gerber Fmt 4.6, Leading zero omitted, Abs format (unit mm)*
G04 Created by KiCad (PCBNEW 10.0.3) date 2026-06-27 10:41:23*
%MOMM*%
%LPD*%
G01*
G04 APERTURE LIST*
%TA.AperFunction,ComponentDrill*%
%ADD10C,0.200000*%
%TD*%
%TA.AperFunction,ViaDrill*%
%ADD11C,0.300000*%
%TD*%
G04 aperture for slot hole*
%TA.AperFunction,ComponentDrill*%
%ADD12C,0.600000*%
%TD*%
%TA.AperFunction,ComponentDrill*%
%ADD13C,0.800000*%
%TD*%
%TA.AperFunction,ComponentDrill*%
%ADD14C,1.300000*%
%TD*%
G04 APERTURE END LIST*
D10*
%TO.C,U2*%
X74260000Y-95280000D03*
X74260000Y-96680000D03*
%TO.C,U5*%
X74682500Y-64932500D03*
X74682500Y-66457500D03*
X75445000Y-64170000D03*
X75445000Y-65695000D03*
X75445000Y-67220000D03*
%TO.C,U2*%
X75460000Y-95280000D03*
X75460000Y-96680000D03*
%TO.C,U5*%
X76207500Y-64932500D03*
X76207500Y-66457500D03*
%TO.C,U2*%
X76660000Y-95280000D03*
X76660000Y-96680000D03*
%TO.C,U5*%
X76970000Y-64170000D03*
X76970000Y-65695000D03*
X76970000Y-67220000D03*
X77732500Y-64932500D03*
X77732500Y-66457500D03*
%TD*%
D11*
X48260000Y-57250000D03*
X49616500Y-65786000D03*
X50245000Y-85344000D03*
X50292000Y-71025000D03*
X50370500Y-81788000D03*
X51132000Y-70355000D03*
X51132000Y-77195000D03*
X51325000Y-73052000D03*
X51925000Y-73650000D03*
X52002450Y-74372865D03*
X52832000Y-65786000D03*
X53130000Y-100630000D03*
X53135000Y-97070000D03*
X54864000Y-71247000D03*
X54864000Y-72644000D03*
X56140000Y-63647500D03*
X56330000Y-76063895D03*
X56388000Y-60960000D03*
X56388000Y-77724000D03*
X58005854Y-71677646D03*
X58007000Y-75565000D03*
X58613000Y-78897000D03*
X59425000Y-70739000D03*
X59690000Y-101473000D03*
X60518000Y-74422000D03*
X61084000Y-62174000D03*
X62611000Y-63754000D03*
X63116000Y-104963000D03*
X63881000Y-101092000D03*
X64074000Y-68961000D03*
X64770000Y-64008000D03*
X65974000Y-68961000D03*
X68137500Y-58355000D03*
X68137500Y-59625000D03*
X68137500Y-60895000D03*
X68320000Y-104180000D03*
X69596000Y-59690000D03*
X69977000Y-81915000D03*
X71120000Y-78359000D03*
X71150000Y-89750000D03*
X71177500Y-76115000D03*
X71374000Y-81915000D03*
X71550000Y-88300000D03*
X73025000Y-99770000D03*
X73025000Y-100824000D03*
X73555000Y-93505000D03*
X74300000Y-83225000D03*
X75184000Y-78759000D03*
X75460000Y-95980000D03*
X76095000Y-98455000D03*
X76207500Y-65695000D03*
X76221898Y-77895484D03*
X76303326Y-92978000D03*
X76670500Y-85344000D03*
X76670500Y-85344000D03*
X76954896Y-83979896D03*
X78100000Y-83950000D03*
X78450000Y-93450000D03*
X78700000Y-95700000D03*
X80137000Y-81788000D03*
X80452000Y-85344000D03*
X81346000Y-78486000D03*
X81377500Y-99410000D03*
X81407000Y-97390000D03*
X81412000Y-80772000D03*
X81637500Y-89281000D03*
X82725000Y-87573000D03*
X83312000Y-80772000D03*
X83350000Y-103970000D03*
X83521600Y-88100000D03*
X84201000Y-97917000D03*
X85637500Y-58355000D03*
X85979000Y-97917000D03*
X86614000Y-80264000D03*
X88345000Y-67437000D03*
X90066500Y-64262000D03*
X90932000Y-85071000D03*
X91059000Y-86995000D03*
X91459000Y-68199000D03*
X91567000Y-62865000D03*
X91821000Y-84074000D03*
X92051500Y-66548000D03*
X92130146Y-85526146D03*
X92583000Y-83928000D03*
X92837000Y-84982000D03*
X93091000Y-68199000D03*
X93472000Y-104902000D03*
X94850000Y-88550000D03*
X95504000Y-60198000D03*
X96250000Y-64008000D03*
X96483000Y-79188000D03*
X97311000Y-92777000D03*
X97372000Y-89602000D03*
X97687000Y-84926000D03*
X98171000Y-64008000D03*
X98171000Y-67018000D03*
X98421766Y-88807429D03*
X98900000Y-60280000D03*
X100203000Y-79883000D03*
X100203000Y-105029000D03*
X100584000Y-101600000D03*
X101859000Y-64135000D03*
X101934000Y-68297000D03*
%TO.C,USB_C*%
D12*
X44730000Y-70080000D02*
X45330000Y-70080000D01*
X44730000Y-78720000D02*
X45330000Y-78720000D01*
X48660000Y-70080000D02*
X49760000Y-70080000D01*
X48660000Y-78720000D02*
X49760000Y-78720000D01*
D13*
%TO.C,J5*%
X43550000Y-111250000D03*
%TO.C,J4*%
X43600000Y-49775000D03*
%TO.C,J5*%
X45550000Y-111250000D03*
%TO.C,J4*%
X45600000Y-49775000D03*
%TO.C,J3*%
X64770000Y-71708000D03*
X64770000Y-73708000D03*
X64770000Y-75708000D03*
X64770000Y-77708000D03*
X64770000Y-79708000D03*
X64770000Y-81708000D03*
%TO.C,J2*%
X89154000Y-71248000D03*
X89154000Y-73248000D03*
X89154000Y-75248000D03*
X89154000Y-77248000D03*
X89154000Y-79248000D03*
X89154000Y-81248000D03*
%TO.C,J6*%
X102650000Y-111350000D03*
%TO.C,J7*%
X102675000Y-49725000D03*
%TO.C,J6*%
X104650000Y-111350000D03*
%TO.C,J7*%
X104675000Y-49725000D03*
D14*
%TO.C,12v in*%
X73600000Y-108725000D03*
X78600000Y-108725000D03*
M02*
