%TF.GenerationSoftware,KiCad,Pcbnew,10.0.3*%
%TF.CreationDate,2026-06-27T10:41:18+05:45*%
%TF.ProjectId,esp32Drone,65737033-3244-4726-9f6e-652e6b696361,rev?*%
%TF.SameCoordinates,Original*%
%TF.FileFunction,Soldermask,Bot*%
%TF.FilePolarity,Negative*%
%FSLAX46Y46*%
G04 Gerber Fmt 4.6, Leading zero omitted, Abs format (unit mm)*
G04 Created by KiCad (PCBNEW 10.0.3) date 2026-06-27 10:41:18*
%MOMM*%
%LPD*%
G01*
G04 APERTURE LIST*
G04 APERTURE END LIST*
G36*
X105325000Y-112025000D02*
G01*
X103975000Y-112025000D01*
X103975000Y-110675000D01*
X105325000Y-110675000D01*
X105325000Y-112025000D01*
G37*
G36*
X102845942Y-110704065D02*
G01*
X102968193Y-110754703D01*
X103078215Y-110828218D01*
X103171782Y-110921785D01*
X103245297Y-111031807D01*
X103295935Y-111154058D01*
X103321750Y-111283838D01*
X103321750Y-111416162D01*
X103295935Y-111545942D01*
X103245297Y-111668193D01*
X103171782Y-111778215D01*
X103078215Y-111871782D01*
X102968193Y-111945297D01*
X102845942Y-111995935D01*
X102716162Y-112021750D01*
X102583838Y-112021750D01*
X102454058Y-111995935D01*
X102331807Y-111945297D01*
X102221785Y-111871782D01*
X102128218Y-111778215D01*
X102054703Y-111668193D01*
X102004065Y-111545942D01*
X101978250Y-111416162D01*
X101978250Y-111283838D01*
X102004065Y-111154058D01*
X102054703Y-111031807D01*
X102128218Y-110921785D01*
X102221785Y-110828218D01*
X102331807Y-110754703D01*
X102454058Y-110704065D01*
X102583838Y-110678250D01*
X102716162Y-110678250D01*
X102845942Y-110704065D01*
G37*
G36*
X44225000Y-111925000D02*
G01*
X42875000Y-111925000D01*
X42875000Y-110575000D01*
X44225000Y-110575000D01*
X44225000Y-111925000D01*
G37*
G36*
X45745942Y-110604065D02*
G01*
X45868193Y-110654703D01*
X45978215Y-110728218D01*
X46071782Y-110821785D01*
X46145297Y-110931807D01*
X46195935Y-111054058D01*
X46221750Y-111183838D01*
X46221750Y-111316162D01*
X46195935Y-111445942D01*
X46145297Y-111568193D01*
X46071782Y-111678215D01*
X45978215Y-111771782D01*
X45868193Y-111845297D01*
X45745942Y-111895935D01*
X45616162Y-111921750D01*
X45483838Y-111921750D01*
X45354058Y-111895935D01*
X45231807Y-111845297D01*
X45121785Y-111771782D01*
X45028218Y-111678215D01*
X44954703Y-111568193D01*
X44904065Y-111445942D01*
X44878250Y-111316162D01*
X44878250Y-111183838D01*
X44904065Y-111054058D01*
X44954703Y-110931807D01*
X45028218Y-110821785D01*
X45121785Y-110728218D01*
X45231807Y-110654703D01*
X45354058Y-110604065D01*
X45483838Y-110578250D01*
X45616162Y-110578250D01*
X45745942Y-110604065D01*
G37*
G36*
X74754848Y-107325964D02*
G01*
X74805040Y-107331787D01*
X74822189Y-107339359D01*
X74845670Y-107344030D01*
X74870807Y-107360826D01*
X74890695Y-107369608D01*
X74904278Y-107383191D01*
X74926776Y-107398224D01*
X74941808Y-107420721D01*
X74955391Y-107434304D01*
X74964171Y-107454189D01*
X74980970Y-107479330D01*
X74985640Y-107502811D01*
X74993212Y-107519959D01*
X74999036Y-107570163D01*
X74999999Y-107575002D01*
X74999999Y-107578458D01*
X75000000Y-107578467D01*
X75000000Y-108834829D01*
X75000000Y-109874999D01*
X74999034Y-109879851D01*
X74993212Y-109930040D01*
X74985641Y-109947185D01*
X74980970Y-109970670D01*
X74964170Y-109995812D01*
X74955391Y-110015695D01*
X74941810Y-110029275D01*
X74926776Y-110051776D01*
X74904275Y-110066810D01*
X74890695Y-110080391D01*
X74870812Y-110089170D01*
X74845670Y-110105970D01*
X74822187Y-110110640D01*
X74805040Y-110118212D01*
X74754836Y-110124036D01*
X74749998Y-110124999D01*
X74746541Y-110124999D01*
X74746533Y-110125000D01*
X72453467Y-110125000D01*
X72453466Y-110124999D01*
X72450001Y-110125000D01*
X72445149Y-110124035D01*
X72394959Y-110118212D01*
X72377812Y-110110640D01*
X72354330Y-110105970D01*
X72329189Y-110089171D01*
X72309304Y-110080391D01*
X72295721Y-110066808D01*
X72273224Y-110051776D01*
X72258191Y-110029278D01*
X72244608Y-110015695D01*
X72235826Y-109995807D01*
X72219030Y-109970670D01*
X72214360Y-109947191D01*
X72206787Y-109930040D01*
X72200963Y-109879836D01*
X72200001Y-109874998D01*
X72200000Y-109871540D01*
X72200000Y-109871532D01*
X72200000Y-107578467D01*
X72200000Y-107578466D01*
X72200000Y-107575001D01*
X72200964Y-107570151D01*
X72206787Y-107519959D01*
X72214359Y-107502808D01*
X72219030Y-107479330D01*
X72235825Y-107454193D01*
X72244608Y-107434304D01*
X72258193Y-107420718D01*
X72273224Y-107398224D01*
X72295718Y-107383193D01*
X72309304Y-107369608D01*
X72329193Y-107360825D01*
X72354330Y-107344030D01*
X72377807Y-107339360D01*
X72394959Y-107331787D01*
X72445165Y-107325963D01*
X72450002Y-107325001D01*
X72453458Y-107325000D01*
X72453467Y-107325000D01*
X74746533Y-107325000D01*
X74749999Y-107325000D01*
X74754848Y-107325964D01*
G37*
G36*
X78926824Y-107363682D02*
G01*
X79135757Y-107431569D01*
X79331498Y-107531304D01*
X79509227Y-107660432D01*
X79664568Y-107815773D01*
X79793696Y-107993502D01*
X79893431Y-108189243D01*
X79961318Y-108398176D01*
X79995684Y-108615157D01*
X79995684Y-108834843D01*
X79961318Y-109051824D01*
X79893431Y-109260757D01*
X79793696Y-109456498D01*
X79664568Y-109634227D01*
X79509227Y-109789568D01*
X79331498Y-109918696D01*
X79135757Y-110018431D01*
X78926824Y-110086318D01*
X78709843Y-110120684D01*
X78490157Y-110120684D01*
X78273176Y-110086318D01*
X78064243Y-110018431D01*
X77868502Y-109918696D01*
X77690773Y-109789568D01*
X77535432Y-109634227D01*
X77406304Y-109456498D01*
X77306569Y-109260757D01*
X77238682Y-109051824D01*
X77204316Y-108834843D01*
X77204316Y-108615157D01*
X77238682Y-108398176D01*
X77306569Y-108189243D01*
X77406304Y-107993502D01*
X77535432Y-107815773D01*
X77690773Y-107660432D01*
X77868502Y-107531304D01*
X78064243Y-107431569D01*
X78273176Y-107363682D01*
X78490157Y-107329316D01*
X78709843Y-107329316D01*
X78926824Y-107363682D01*
G37*
G36*
X59538208Y-106307254D02*
G01*
X59639943Y-106365991D01*
X59723009Y-106449057D01*
X59781746Y-106550792D01*
X59812150Y-106664263D01*
X59812150Y-106781737D01*
X59781746Y-106895208D01*
X59723009Y-106996943D01*
X59639943Y-107080009D01*
X59538208Y-107138746D01*
X59424737Y-107169150D01*
X59307263Y-107169150D01*
X59193792Y-107138746D01*
X59092057Y-107080009D01*
X59008991Y-106996943D01*
X58950254Y-106895208D01*
X58919850Y-106781737D01*
X58919850Y-106664263D01*
X58950254Y-106550792D01*
X59008991Y-106449057D01*
X59092057Y-106365991D01*
X59193792Y-106307254D01*
X59307263Y-106276850D01*
X59424737Y-106276850D01*
X59538208Y-106307254D01*
G37*
G36*
X62538208Y-106307254D02*
G01*
X62639943Y-106365991D01*
X62723009Y-106449057D01*
X62781746Y-106550792D01*
X62812150Y-106664263D01*
X62812150Y-106781737D01*
X62781746Y-106895208D01*
X62723009Y-106996943D01*
X62639943Y-107080009D01*
X62538208Y-107138746D01*
X62424737Y-107169150D01*
X62307263Y-107169150D01*
X62193792Y-107138746D01*
X62092057Y-107080009D01*
X62008991Y-106996943D01*
X61950254Y-106895208D01*
X61919850Y-106781737D01*
X61919850Y-106664263D01*
X61950254Y-106550792D01*
X62008991Y-106449057D01*
X62092057Y-106365991D01*
X62193792Y-106307254D01*
X62307263Y-106276850D01*
X62424737Y-106276850D01*
X62538208Y-106307254D01*
G37*
G36*
X65445000Y-82383000D02*
G01*
X64095000Y-82383000D01*
X64095000Y-81033000D01*
X65445000Y-81033000D01*
X65445000Y-82383000D01*
G37*
G36*
X89829000Y-81923000D02*
G01*
X88479000Y-81923000D01*
X88479000Y-80573000D01*
X89829000Y-80573000D01*
X89829000Y-81923000D01*
G37*
G36*
X64965942Y-79062065D02*
G01*
X65088193Y-79112703D01*
X65198215Y-79186218D01*
X65291782Y-79279785D01*
X65365297Y-79389807D01*
X65415935Y-79512058D01*
X65441750Y-79641838D01*
X65441750Y-79774162D01*
X65415935Y-79903942D01*
X65365297Y-80026193D01*
X65291782Y-80136215D01*
X65198215Y-80229782D01*
X65088193Y-80303297D01*
X64965942Y-80353935D01*
X64836162Y-80379750D01*
X64703838Y-80379750D01*
X64574058Y-80353935D01*
X64451807Y-80303297D01*
X64341785Y-80229782D01*
X64248218Y-80136215D01*
X64174703Y-80026193D01*
X64124065Y-79903942D01*
X64098250Y-79774162D01*
X64098250Y-79641838D01*
X64124065Y-79512058D01*
X64174703Y-79389807D01*
X64248218Y-79279785D01*
X64341785Y-79186218D01*
X64451807Y-79112703D01*
X64574058Y-79062065D01*
X64703838Y-79036250D01*
X64836162Y-79036250D01*
X64965942Y-79062065D01*
G37*
G36*
X89349942Y-78602065D02*
G01*
X89472193Y-78652703D01*
X89582215Y-78726218D01*
X89675782Y-78819785D01*
X89749297Y-78929807D01*
X89799935Y-79052058D01*
X89825750Y-79181838D01*
X89825750Y-79314162D01*
X89799935Y-79443942D01*
X89749297Y-79566193D01*
X89675782Y-79676215D01*
X89582215Y-79769782D01*
X89472193Y-79843297D01*
X89349942Y-79893935D01*
X89220162Y-79919750D01*
X89087838Y-79919750D01*
X88958058Y-79893935D01*
X88835807Y-79843297D01*
X88725785Y-79769782D01*
X88632218Y-79676215D01*
X88558703Y-79566193D01*
X88508065Y-79443942D01*
X88482250Y-79314162D01*
X88482250Y-79181838D01*
X88508065Y-79052058D01*
X88558703Y-78929807D01*
X88632218Y-78819785D01*
X88725785Y-78726218D01*
X88835807Y-78652703D01*
X88958058Y-78602065D01*
X89087838Y-78576250D01*
X89220162Y-78576250D01*
X89349942Y-78602065D01*
G37*
G36*
X45395263Y-78224278D02*
G01*
X45521342Y-78258060D01*
X45634381Y-78323323D01*
X45726677Y-78415619D01*
X45791940Y-78528658D01*
X45825722Y-78654737D01*
X45825722Y-78785263D01*
X45791940Y-78911342D01*
X45726677Y-79024381D01*
X45634381Y-79116677D01*
X45521342Y-79181940D01*
X45395263Y-79215722D01*
X45330000Y-79220000D01*
X45328029Y-79220000D01*
X44731971Y-79220000D01*
X44730000Y-79220000D01*
X44664737Y-79215722D01*
X44538658Y-79181940D01*
X44425619Y-79116677D01*
X44333323Y-79024381D01*
X44268060Y-78911342D01*
X44234278Y-78785263D01*
X44234278Y-78654737D01*
X44268060Y-78528658D01*
X44333323Y-78415619D01*
X44425619Y-78323323D01*
X44538658Y-78258060D01*
X44664737Y-78224278D01*
X44730000Y-78220000D01*
X45330000Y-78220000D01*
X45395263Y-78224278D01*
G37*
G36*
X49825263Y-78224278D02*
G01*
X49951342Y-78258060D01*
X50064381Y-78323323D01*
X50156677Y-78415619D01*
X50221940Y-78528658D01*
X50255722Y-78654737D01*
X50255722Y-78785263D01*
X50221940Y-78911342D01*
X50156677Y-79024381D01*
X50064381Y-79116677D01*
X49951342Y-79181940D01*
X49825263Y-79215722D01*
X49760000Y-79220000D01*
X49758029Y-79220000D01*
X48661971Y-79220000D01*
X48660000Y-79220000D01*
X48594737Y-79215722D01*
X48468658Y-79181940D01*
X48355619Y-79116677D01*
X48263323Y-79024381D01*
X48198060Y-78911342D01*
X48164278Y-78785263D01*
X48164278Y-78654737D01*
X48198060Y-78528658D01*
X48263323Y-78415619D01*
X48355619Y-78323323D01*
X48468658Y-78258060D01*
X48594737Y-78224278D01*
X48660000Y-78220000D01*
X49760000Y-78220000D01*
X49825263Y-78224278D01*
G37*
G36*
X64965942Y-77062065D02*
G01*
X65088193Y-77112703D01*
X65198215Y-77186218D01*
X65291782Y-77279785D01*
X65365297Y-77389807D01*
X65415935Y-77512058D01*
X65441750Y-77641838D01*
X65441750Y-77774162D01*
X65415935Y-77903942D01*
X65365297Y-78026193D01*
X65291782Y-78136215D01*
X65198215Y-78229782D01*
X65088193Y-78303297D01*
X64965942Y-78353935D01*
X64836162Y-78379750D01*
X64703838Y-78379750D01*
X64574058Y-78353935D01*
X64451807Y-78303297D01*
X64341785Y-78229782D01*
X64248218Y-78136215D01*
X64174703Y-78026193D01*
X64124065Y-77903942D01*
X64098250Y-77774162D01*
X64098250Y-77641838D01*
X64124065Y-77512058D01*
X64174703Y-77389807D01*
X64248218Y-77279785D01*
X64341785Y-77186218D01*
X64451807Y-77112703D01*
X64574058Y-77062065D01*
X64703838Y-77036250D01*
X64836162Y-77036250D01*
X64965942Y-77062065D01*
G37*
G36*
X89349942Y-76602065D02*
G01*
X89472193Y-76652703D01*
X89582215Y-76726218D01*
X89675782Y-76819785D01*
X89749297Y-76929807D01*
X89799935Y-77052058D01*
X89825750Y-77181838D01*
X89825750Y-77314162D01*
X89799935Y-77443942D01*
X89749297Y-77566193D01*
X89675782Y-77676215D01*
X89582215Y-77769782D01*
X89472193Y-77843297D01*
X89349942Y-77893935D01*
X89220162Y-77919750D01*
X89087838Y-77919750D01*
X88958058Y-77893935D01*
X88835807Y-77843297D01*
X88725785Y-77769782D01*
X88632218Y-77676215D01*
X88558703Y-77566193D01*
X88508065Y-77443942D01*
X88482250Y-77314162D01*
X88482250Y-77181838D01*
X88508065Y-77052058D01*
X88558703Y-76929807D01*
X88632218Y-76819785D01*
X88725785Y-76726218D01*
X88835807Y-76652703D01*
X88958058Y-76602065D01*
X89087838Y-76576250D01*
X89220162Y-76576250D01*
X89349942Y-76602065D01*
G37*
G36*
X48804372Y-76989739D02*
G01*
X48877847Y-77032160D01*
X48937840Y-77092153D01*
X48980261Y-77165628D01*
X49002220Y-77247579D01*
X49002220Y-77332421D01*
X48980261Y-77414372D01*
X48937840Y-77487847D01*
X48877847Y-77547840D01*
X48804372Y-77590261D01*
X48722421Y-77612220D01*
X48637579Y-77612220D01*
X48555628Y-77590261D01*
X48482153Y-77547840D01*
X48422160Y-77487847D01*
X48379739Y-77414372D01*
X48357780Y-77332421D01*
X48357780Y-77247579D01*
X48379739Y-77165628D01*
X48422160Y-77092153D01*
X48482153Y-77032160D01*
X48555628Y-76989739D01*
X48637579Y-76967780D01*
X48722421Y-76967780D01*
X48804372Y-76989739D01*
G37*
G36*
X64965942Y-75062065D02*
G01*
X65088193Y-75112703D01*
X65198215Y-75186218D01*
X65291782Y-75279785D01*
X65365297Y-75389807D01*
X65415935Y-75512058D01*
X65441750Y-75641838D01*
X65441750Y-75774162D01*
X65415935Y-75903942D01*
X65365297Y-76026193D01*
X65291782Y-76136215D01*
X65198215Y-76229782D01*
X65088193Y-76303297D01*
X64965942Y-76353935D01*
X64836162Y-76379750D01*
X64703838Y-76379750D01*
X64574058Y-76353935D01*
X64451807Y-76303297D01*
X64341785Y-76229782D01*
X64248218Y-76136215D01*
X64174703Y-76026193D01*
X64124065Y-75903942D01*
X64098250Y-75774162D01*
X64098250Y-75641838D01*
X64124065Y-75512058D01*
X64174703Y-75389807D01*
X64248218Y-75279785D01*
X64341785Y-75186218D01*
X64451807Y-75112703D01*
X64574058Y-75062065D01*
X64703838Y-75036250D01*
X64836162Y-75036250D01*
X64965942Y-75062065D01*
G37*
G36*
X89349942Y-74602065D02*
G01*
X89472193Y-74652703D01*
X89582215Y-74726218D01*
X89675782Y-74819785D01*
X89749297Y-74929807D01*
X89799935Y-75052058D01*
X89825750Y-75181838D01*
X89825750Y-75314162D01*
X89799935Y-75443942D01*
X89749297Y-75566193D01*
X89675782Y-75676215D01*
X89582215Y-75769782D01*
X89472193Y-75843297D01*
X89349942Y-75893935D01*
X89220162Y-75919750D01*
X89087838Y-75919750D01*
X88958058Y-75893935D01*
X88835807Y-75843297D01*
X88725785Y-75769782D01*
X88632218Y-75676215D01*
X88558703Y-75566193D01*
X88508065Y-75443942D01*
X88482250Y-75314162D01*
X88482250Y-75181838D01*
X88508065Y-75052058D01*
X88558703Y-74929807D01*
X88632218Y-74819785D01*
X88725785Y-74726218D01*
X88835807Y-74652703D01*
X88958058Y-74602065D01*
X89087838Y-74576250D01*
X89220162Y-74576250D01*
X89349942Y-74602065D01*
G37*
G36*
X64965942Y-73062065D02*
G01*
X65088193Y-73112703D01*
X65198215Y-73186218D01*
X65291782Y-73279785D01*
X65365297Y-73389807D01*
X65415935Y-73512058D01*
X65441750Y-73641838D01*
X65441750Y-73774162D01*
X65415935Y-73903942D01*
X65365297Y-74026193D01*
X65291782Y-74136215D01*
X65198215Y-74229782D01*
X65088193Y-74303297D01*
X64965942Y-74353935D01*
X64836162Y-74379750D01*
X64703838Y-74379750D01*
X64574058Y-74353935D01*
X64451807Y-74303297D01*
X64341785Y-74229782D01*
X64248218Y-74136215D01*
X64174703Y-74026193D01*
X64124065Y-73903942D01*
X64098250Y-73774162D01*
X64098250Y-73641838D01*
X64124065Y-73512058D01*
X64174703Y-73389807D01*
X64248218Y-73279785D01*
X64341785Y-73186218D01*
X64451807Y-73112703D01*
X64574058Y-73062065D01*
X64703838Y-73036250D01*
X64836162Y-73036250D01*
X64965942Y-73062065D01*
G37*
G36*
X89349942Y-72602065D02*
G01*
X89472193Y-72652703D01*
X89582215Y-72726218D01*
X89675782Y-72819785D01*
X89749297Y-72929807D01*
X89799935Y-73052058D01*
X89825750Y-73181838D01*
X89825750Y-73314162D01*
X89799935Y-73443942D01*
X89749297Y-73566193D01*
X89675782Y-73676215D01*
X89582215Y-73769782D01*
X89472193Y-73843297D01*
X89349942Y-73893935D01*
X89220162Y-73919750D01*
X89087838Y-73919750D01*
X88958058Y-73893935D01*
X88835807Y-73843297D01*
X88725785Y-73769782D01*
X88632218Y-73676215D01*
X88558703Y-73566193D01*
X88508065Y-73443942D01*
X88482250Y-73314162D01*
X88482250Y-73181838D01*
X88508065Y-73052058D01*
X88558703Y-72929807D01*
X88632218Y-72819785D01*
X88725785Y-72726218D01*
X88835807Y-72652703D01*
X88958058Y-72602065D01*
X89087838Y-72576250D01*
X89220162Y-72576250D01*
X89349942Y-72602065D01*
G37*
G36*
X64965942Y-71062065D02*
G01*
X65088193Y-71112703D01*
X65198215Y-71186218D01*
X65291782Y-71279785D01*
X65365297Y-71389807D01*
X65415935Y-71512058D01*
X65441750Y-71641838D01*
X65441750Y-71774162D01*
X65415935Y-71903942D01*
X65365297Y-72026193D01*
X65291782Y-72136215D01*
X65198215Y-72229782D01*
X65088193Y-72303297D01*
X64965942Y-72353935D01*
X64836162Y-72379750D01*
X64703838Y-72379750D01*
X64574058Y-72353935D01*
X64451807Y-72303297D01*
X64341785Y-72229782D01*
X64248218Y-72136215D01*
X64174703Y-72026193D01*
X64124065Y-71903942D01*
X64098250Y-71774162D01*
X64098250Y-71641838D01*
X64124065Y-71512058D01*
X64174703Y-71389807D01*
X64248218Y-71279785D01*
X64341785Y-71186218D01*
X64451807Y-71112703D01*
X64574058Y-71062065D01*
X64703838Y-71036250D01*
X64836162Y-71036250D01*
X64965942Y-71062065D01*
G37*
G36*
X89349942Y-70602065D02*
G01*
X89472193Y-70652703D01*
X89582215Y-70726218D01*
X89675782Y-70819785D01*
X89749297Y-70929807D01*
X89799935Y-71052058D01*
X89825750Y-71181838D01*
X89825750Y-71314162D01*
X89799935Y-71443942D01*
X89749297Y-71566193D01*
X89675782Y-71676215D01*
X89582215Y-71769782D01*
X89472193Y-71843297D01*
X89349942Y-71893935D01*
X89220162Y-71919750D01*
X89087838Y-71919750D01*
X88958058Y-71893935D01*
X88835807Y-71843297D01*
X88725785Y-71769782D01*
X88632218Y-71676215D01*
X88558703Y-71566193D01*
X88508065Y-71443942D01*
X88482250Y-71314162D01*
X88482250Y-71181838D01*
X88508065Y-71052058D01*
X88558703Y-70929807D01*
X88632218Y-70819785D01*
X88725785Y-70726218D01*
X88835807Y-70652703D01*
X88958058Y-70602065D01*
X89087838Y-70576250D01*
X89220162Y-70576250D01*
X89349942Y-70602065D01*
G37*
G36*
X48804372Y-71209739D02*
G01*
X48877847Y-71252160D01*
X48937840Y-71312153D01*
X48980261Y-71385628D01*
X49002220Y-71467579D01*
X49002220Y-71552421D01*
X48980261Y-71634372D01*
X48937840Y-71707847D01*
X48877847Y-71767840D01*
X48804372Y-71810261D01*
X48722421Y-71832220D01*
X48637579Y-71832220D01*
X48555628Y-71810261D01*
X48482153Y-71767840D01*
X48422160Y-71707847D01*
X48379739Y-71634372D01*
X48357780Y-71552421D01*
X48357780Y-71467579D01*
X48379739Y-71385628D01*
X48422160Y-71312153D01*
X48482153Y-71252160D01*
X48555628Y-71209739D01*
X48637579Y-71187780D01*
X48722421Y-71187780D01*
X48804372Y-71209739D01*
G37*
G36*
X45395263Y-69584278D02*
G01*
X45521342Y-69618060D01*
X45634381Y-69683323D01*
X45726677Y-69775619D01*
X45791940Y-69888658D01*
X45825722Y-70014737D01*
X45825722Y-70145263D01*
X45791940Y-70271342D01*
X45726677Y-70384381D01*
X45634381Y-70476677D01*
X45521342Y-70541940D01*
X45395263Y-70575722D01*
X45330000Y-70580000D01*
X45328029Y-70580000D01*
X44731971Y-70580000D01*
X44730000Y-70580000D01*
X44664737Y-70575722D01*
X44538658Y-70541940D01*
X44425619Y-70476677D01*
X44333323Y-70384381D01*
X44268060Y-70271342D01*
X44234278Y-70145263D01*
X44234278Y-70014737D01*
X44268060Y-69888658D01*
X44333323Y-69775619D01*
X44425619Y-69683323D01*
X44538658Y-69618060D01*
X44664737Y-69584278D01*
X44730000Y-69580000D01*
X45330000Y-69580000D01*
X45395263Y-69584278D01*
G37*
G36*
X49825263Y-69584278D02*
G01*
X49951342Y-69618060D01*
X50064381Y-69683323D01*
X50156677Y-69775619D01*
X50221940Y-69888658D01*
X50255722Y-70014737D01*
X50255722Y-70145263D01*
X50221940Y-70271342D01*
X50156677Y-70384381D01*
X50064381Y-70476677D01*
X49951342Y-70541940D01*
X49825263Y-70575722D01*
X49760000Y-70580000D01*
X49758029Y-70580000D01*
X48661971Y-70580000D01*
X48660000Y-70580000D01*
X48594737Y-70575722D01*
X48468658Y-70541940D01*
X48355619Y-70476677D01*
X48263323Y-70384381D01*
X48198060Y-70271342D01*
X48164278Y-70145263D01*
X48164278Y-70014737D01*
X48198060Y-69888658D01*
X48263323Y-69775619D01*
X48355619Y-69683323D01*
X48468658Y-69618060D01*
X48594737Y-69584278D01*
X48660000Y-69580000D01*
X49760000Y-69580000D01*
X49825263Y-69584278D01*
G37*
G36*
X44275000Y-50450000D02*
G01*
X42925000Y-50450000D01*
X42925000Y-49100000D01*
X44275000Y-49100000D01*
X44275000Y-50450000D01*
G37*
G36*
X45795942Y-49129065D02*
G01*
X45918193Y-49179703D01*
X46028215Y-49253218D01*
X46121782Y-49346785D01*
X46195297Y-49456807D01*
X46245935Y-49579058D01*
X46271750Y-49708838D01*
X46271750Y-49841162D01*
X46245935Y-49970942D01*
X46195297Y-50093193D01*
X46121782Y-50203215D01*
X46028215Y-50296782D01*
X45918193Y-50370297D01*
X45795942Y-50420935D01*
X45666162Y-50446750D01*
X45533838Y-50446750D01*
X45404058Y-50420935D01*
X45281807Y-50370297D01*
X45171785Y-50296782D01*
X45078218Y-50203215D01*
X45004703Y-50093193D01*
X44954065Y-49970942D01*
X44928250Y-49841162D01*
X44928250Y-49708838D01*
X44954065Y-49579058D01*
X45004703Y-49456807D01*
X45078218Y-49346785D01*
X45171785Y-49253218D01*
X45281807Y-49179703D01*
X45404058Y-49129065D01*
X45533838Y-49103250D01*
X45666162Y-49103250D01*
X45795942Y-49129065D01*
G37*
G36*
X105350000Y-50400000D02*
G01*
X104000000Y-50400000D01*
X104000000Y-49050000D01*
X105350000Y-49050000D01*
X105350000Y-50400000D01*
G37*
G36*
X102870942Y-49079065D02*
G01*
X102993193Y-49129703D01*
X103103215Y-49203218D01*
X103196782Y-49296785D01*
X103270297Y-49406807D01*
X103320935Y-49529058D01*
X103346750Y-49658838D01*
X103346750Y-49791162D01*
X103320935Y-49920942D01*
X103270297Y-50043193D01*
X103196782Y-50153215D01*
X103103215Y-50246782D01*
X102993193Y-50320297D01*
X102870942Y-50370935D01*
X102741162Y-50396750D01*
X102608838Y-50396750D01*
X102479058Y-50370935D01*
X102356807Y-50320297D01*
X102246785Y-50246782D01*
X102153218Y-50153215D01*
X102079703Y-50043193D01*
X102029065Y-49920942D01*
X102003250Y-49791162D01*
X102003250Y-49658838D01*
X102029065Y-49529058D01*
X102079703Y-49406807D01*
X102153218Y-49296785D01*
X102246785Y-49203218D01*
X102356807Y-49129703D01*
X102479058Y-49079065D01*
X102608838Y-49053250D01*
X102741162Y-49053250D01*
X102870942Y-49079065D01*
G37*
M02*
