%TF.GenerationSoftware,KiCad,Pcbnew,10.0.3*%
%TF.CreationDate,2026-06-27T10:41:17+05:45*%
%TF.ProjectId,esp32Drone,65737033-3244-4726-9f6e-652e6b696361,rev?*%
%TF.SameCoordinates,Original*%
%TF.FileFunction,Paste,Top*%
%TF.FilePolarity,Positive*%
%FSLAX46Y46*%
G04 Gerber Fmt 4.6, Leading zero omitted, Abs format (unit mm)*
G04 Created by KiCad (PCBNEW 10.0.3) date 2026-06-27 10:41:17*
%MOMM*%
%LPD*%
G01*
G04 APERTURE LIST*
G04 Aperture macros list*
%AMRoundRect*
0 Rectangle with rounded corners*
0 $1 Rounding radius*
0 $2 $3 $4 $5 $6 $7 $8 $9 X,Y pos of 4 corners*
0 Add a 4 corners polygon primitive as box body*
4,1,4,$2,$3,$4,$5,$6,$7,$8,$9,$2,$3,0*
0 Add four circle primitives for the rounded corners*
1,1,$1+$1,$2,$3*
1,1,$1+$1,$4,$5*
1,1,$1+$1,$6,$7*
1,1,$1+$1,$8,$9*
0 Add four rect primitives between the rounded corners*
20,1,$1+$1,$2,$3,$4,$5,0*
20,1,$1+$1,$4,$5,$6,$7,0*
20,1,$1+$1,$6,$7,$8,$9,0*
20,1,$1+$1,$8,$9,$2,$3,0*%
G04 Aperture macros list end*
%ADD10RoundRect,0.150000X-0.575000X0.150000X-0.575000X-0.150000X0.575000X-0.150000X0.575000X0.150000X0*%
%ADD11RoundRect,0.075000X-0.650000X0.075000X-0.650000X-0.075000X0.650000X-0.075000X0.650000X0.075000X0*%
%ADD12RoundRect,0.250000X0.382500X0.315000X-0.382500X0.315000X-0.382500X-0.315000X0.382500X-0.315000X0*%
%ADD13RoundRect,0.250000X-0.250000X-0.475000X0.250000X-0.475000X0.250000X0.475000X-0.250000X0.475000X0*%
%ADD14R,0.990600X0.355600*%
%ADD15RoundRect,0.150000X-0.587500X-0.150000X0.587500X-0.150000X0.587500X0.150000X-0.587500X0.150000X0*%
%ADD16RoundRect,0.250000X-0.450000X0.262500X-0.450000X-0.262500X0.450000X-0.262500X0.450000X0.262500X0*%
%ADD17RoundRect,0.250000X0.250000X0.475000X-0.250000X0.475000X-0.250000X-0.475000X0.250000X-0.475000X0*%
%ADD18RoundRect,0.243750X0.243750X0.456250X-0.243750X0.456250X-0.243750X-0.456250X0.243750X-0.456250X0*%
%ADD19RoundRect,0.250000X0.262500X0.450000X-0.262500X0.450000X-0.262500X-0.450000X0.262500X-0.450000X0*%
%ADD20RoundRect,0.250000X-0.262500X-0.450000X0.262500X-0.450000X0.262500X0.450000X-0.262500X0.450000X0*%
%ADD21RoundRect,0.225000X0.225000X-0.225000X0.225000X0.225000X-0.225000X0.225000X-0.225000X-0.225000X0*%
%ADD22RoundRect,0.062500X0.062500X-0.337500X0.062500X0.337500X-0.062500X0.337500X-0.062500X-0.337500X0*%
%ADD23RoundRect,0.062500X0.337500X-0.062500X0.337500X0.062500X-0.337500X0.062500X-0.337500X-0.062500X0*%
%ADD24RoundRect,0.250000X1.000000X0.650000X-1.000000X0.650000X-1.000000X-0.650000X1.000000X-0.650000X0*%
%ADD25RoundRect,0.225000X0.225000X0.375000X-0.225000X0.375000X-0.225000X-0.375000X0.225000X-0.375000X0*%
%ADD26RoundRect,0.225000X-0.225000X-0.375000X0.225000X-0.375000X0.225000X0.375000X-0.225000X0.375000X0*%
%ADD27R,1.000000X0.800000*%
%ADD28R,0.700000X1.500000*%
%ADD29RoundRect,0.243750X-0.243750X-0.456250X0.243750X-0.456250X0.243750X0.456250X-0.243750X0.456250X0*%
%ADD30RoundRect,0.150000X-0.512500X-0.150000X0.512500X-0.150000X0.512500X0.150000X-0.512500X0.150000X0*%
%ADD31RoundRect,0.150000X-0.150000X0.587500X-0.150000X-0.587500X0.150000X-0.587500X0.150000X0.587500X0*%
%ADD32RoundRect,0.150000X0.150000X-0.587500X0.150000X0.587500X-0.150000X0.587500X-0.150000X-0.587500X0*%
%ADD33R,2.743200X2.641600*%
%ADD34R,0.254000X0.812800*%
%ADD35R,0.812800X0.254000*%
%ADD36R,1.500000X0.900000*%
%ADD37R,0.900000X1.500000*%
%ADD38R,1.050000X1.050000*%
%ADD39RoundRect,0.250000X0.440000X-0.255000X0.440000X0.255000X-0.440000X0.255000X-0.440000X-0.255000X0*%
%ADD40RoundRect,0.150000X0.150000X-0.825000X0.150000X0.825000X-0.150000X0.825000X-0.150000X-0.825000X0*%
%ADD41RoundRect,0.250000X0.450000X-0.262500X0.450000X0.262500X-0.450000X0.262500X-0.450000X-0.262500X0*%
%ADD42R,1.000000X1.500000*%
G04 APERTURE END LIST*
D10*
%TO.C,USB_C*%
X50125000Y-71150000D03*
X50125000Y-71950000D03*
D11*
X50125000Y-73150000D03*
X50125000Y-74150000D03*
X50125000Y-74650000D03*
X50125000Y-75650000D03*
D10*
X50125000Y-76850000D03*
X50125000Y-77650000D03*
X50125000Y-77650000D03*
X50125000Y-76850000D03*
D11*
X50125000Y-76150000D03*
X50125000Y-75150000D03*
X50125000Y-73650000D03*
X50125000Y-72650000D03*
D10*
X50125000Y-71950000D03*
X50125000Y-71150000D03*
%TD*%
D12*
%TO.C,C3*%
X51221500Y-65786000D03*
X49616500Y-65786000D03*
%TD*%
D13*
%TO.C,C14*%
X78552000Y-85344000D03*
X80452000Y-85344000D03*
%TD*%
D14*
%TO.C,U4*%
X84048600Y-84937600D03*
X84048600Y-85598000D03*
X84048600Y-86258400D03*
X86385400Y-86258400D03*
X86385400Y-85598000D03*
X86385400Y-84937600D03*
%TD*%
D15*
%TO.C,Q5*%
X98900000Y-58380000D03*
X98900000Y-60280000D03*
X100775000Y-59330000D03*
%TD*%
D13*
%TO.C,C17*%
X102840000Y-100880000D03*
X104740000Y-100880000D03*
%TD*%
D16*
%TO.C,R22*%
X58166000Y-65127500D03*
X58166000Y-66952500D03*
%TD*%
D17*
%TO.C,C18*%
X104800000Y-58980000D03*
X102900000Y-58980000D03*
%TD*%
D18*
%TO.C,D4*%
X81377500Y-99410000D03*
X79502500Y-99410000D03*
%TD*%
D19*
%TO.C,R16*%
X73048500Y-81788000D03*
X71223500Y-81788000D03*
%TD*%
D20*
%TO.C,R2*%
X50245000Y-85344000D03*
X52070000Y-85344000D03*
%TD*%
D21*
%TO.C,U3*%
X96567000Y-86046000D03*
X97687000Y-86046000D03*
X98807000Y-86046000D03*
X96567000Y-84926000D03*
X97687000Y-84926000D03*
X98807000Y-84926000D03*
X96567000Y-83806000D03*
X97687000Y-83806000D03*
X98807000Y-83806000D03*
D22*
X96187000Y-87376000D03*
X96687000Y-87376000D03*
X97187000Y-87376000D03*
X97687000Y-87376000D03*
X98187000Y-87376000D03*
X98687000Y-87376000D03*
X99187000Y-87376000D03*
D23*
X100137000Y-86426000D03*
X100137000Y-85926000D03*
X100137000Y-85426000D03*
X100137000Y-84926000D03*
X100137000Y-84426000D03*
X100137000Y-83926000D03*
X100137000Y-83426000D03*
D22*
X99187000Y-82476000D03*
X98687000Y-82476000D03*
X98187000Y-82476000D03*
X97687000Y-82476000D03*
X97187000Y-82476000D03*
X96687000Y-82476000D03*
X96187000Y-82476000D03*
D23*
X95237000Y-83426000D03*
X95237000Y-83926000D03*
X95237000Y-84426000D03*
X95237000Y-84926000D03*
X95237000Y-85426000D03*
X95237000Y-85926000D03*
X95237000Y-86426000D03*
%TD*%
D20*
%TO.C,R4*%
X74225000Y-90990000D03*
X76050000Y-90990000D03*
%TD*%
D17*
%TO.C,C15*%
X55550000Y-58240000D03*
X53650000Y-58240000D03*
%TD*%
D24*
%TO.C,D1*%
X58007000Y-75565000D03*
X54007000Y-75565000D03*
%TD*%
D25*
%TO.C,D8*%
X105637500Y-55240000D03*
X102337500Y-55240000D03*
%TD*%
D17*
%TO.C,C16*%
X55230000Y-104910000D03*
X53330000Y-104910000D03*
%TD*%
D26*
%TO.C,D6*%
X48120000Y-104940000D03*
X51420000Y-104940000D03*
%TD*%
D13*
%TO.C,C1*%
X61981000Y-101092000D03*
X63881000Y-101092000D03*
%TD*%
D25*
%TO.C,D7*%
X105480000Y-104790000D03*
X102180000Y-104790000D03*
%TD*%
D27*
%TO.C,SW1*%
X57216000Y-105613000D03*
X57216000Y-107823000D03*
X64516000Y-105613000D03*
X64516000Y-107823000D03*
D28*
X58616000Y-104963000D03*
X61616000Y-104963000D03*
X63116000Y-104963000D03*
%TD*%
D13*
%TO.C,C10*%
X96271000Y-67018000D03*
X98171000Y-67018000D03*
%TD*%
%TO.C,C2*%
X64074000Y-68961000D03*
X65974000Y-68961000D03*
%TD*%
D20*
%TO.C,R20*%
X98497500Y-104990000D03*
X100322500Y-104990000D03*
%TD*%
%TO.C,R13*%
X101934000Y-68297000D03*
X103759000Y-68297000D03*
%TD*%
%TO.C,R3*%
X79387500Y-93420000D03*
X81212500Y-93420000D03*
%TD*%
D13*
%TO.C,C5*%
X83350000Y-103970000D03*
X85250000Y-103970000D03*
%TD*%
D20*
%TO.C,R12*%
X102108500Y-85919000D03*
X103933500Y-85919000D03*
%TD*%
D29*
%TO.C,D2*%
X50370500Y-81788000D03*
X52245500Y-81788000D03*
%TD*%
D17*
%TO.C,C7*%
X99272000Y-89602000D03*
X97372000Y-89602000D03*
%TD*%
D20*
%TO.C,R1*%
X53039000Y-72644000D03*
X54864000Y-72644000D03*
%TD*%
D16*
%TO.C,R24*%
X64770000Y-64977000D03*
X64770000Y-66802000D03*
%TD*%
D30*
%TO.C,U1*%
X57150000Y-70739000D03*
X57150000Y-71689000D03*
X57150000Y-72639000D03*
X59425000Y-72639000D03*
X59425000Y-70739000D03*
%TD*%
D19*
%TO.C,R17*%
X76670500Y-85344000D03*
X74845500Y-85344000D03*
%TD*%
D26*
%TO.C,D5*%
X48260000Y-57250000D03*
X51560000Y-57250000D03*
%TD*%
D31*
%TO.C,Q1*%
X60513000Y-78897000D03*
X58613000Y-78897000D03*
X59563000Y-80772000D03*
%TD*%
D17*
%TO.C,C13*%
X83312000Y-80772000D03*
X81412000Y-80772000D03*
%TD*%
D20*
%TO.C,R10*%
X88345000Y-67437000D03*
X90170000Y-67437000D03*
%TD*%
%TO.C,Rprog1*%
X66495000Y-104180000D03*
X68320000Y-104180000D03*
%TD*%
D16*
%TO.C,R21*%
X95504000Y-58373000D03*
X95504000Y-60198000D03*
%TD*%
D20*
%TO.C,R9*%
X88241500Y-62230000D03*
X90066500Y-62230000D03*
%TD*%
%TO.C,R5*%
X91647000Y-101952000D03*
X93472000Y-101952000D03*
%TD*%
D32*
%TO.C,Q2*%
X54240000Y-63647500D03*
X56140000Y-63647500D03*
X55190000Y-61772500D03*
%TD*%
%TO.C,Q4*%
X98680000Y-101547500D03*
X100580000Y-101547500D03*
X99630000Y-99672500D03*
%TD*%
D20*
%TO.C,R14*%
X81637500Y-89281000D03*
X83462500Y-89281000D03*
%TD*%
D33*
%TO.C,IMU*%
X77235685Y-80759300D03*
D34*
X75985370Y-78714600D03*
X76485496Y-78714600D03*
X76985622Y-78714600D03*
X77485748Y-78714600D03*
X77985874Y-78714600D03*
X78486000Y-78714600D03*
D35*
X79280385Y-79508985D03*
X79280385Y-80009111D03*
X79280385Y-80509237D03*
X79280385Y-81009363D03*
X79280385Y-81509489D03*
X79280385Y-82009615D03*
D34*
X78486000Y-82804000D03*
X77985874Y-82804000D03*
X77485748Y-82804000D03*
X76985622Y-82804000D03*
X76485496Y-82804000D03*
X75985370Y-82804000D03*
D35*
X75190985Y-82009615D03*
X75190985Y-81509489D03*
X75190985Y-81009363D03*
X75190985Y-80509237D03*
X75190985Y-80009111D03*
X75190985Y-79508985D03*
%TD*%
D19*
%TO.C,R8*%
X90066500Y-64262000D03*
X88241500Y-64262000D03*
%TD*%
D20*
%TO.C,R6*%
X91647000Y-104902000D03*
X93472000Y-104902000D03*
%TD*%
D17*
%TO.C,C4*%
X62418000Y-74422000D03*
X60518000Y-74422000D03*
%TD*%
D36*
%TO.C,U5*%
X68137500Y-58355000D03*
X68137500Y-59625000D03*
X68137500Y-60895000D03*
X68137500Y-62165000D03*
X68137500Y-63435000D03*
X68137500Y-64705000D03*
X68137500Y-65975000D03*
X68137500Y-67245000D03*
X68137500Y-68515000D03*
X68137500Y-69785000D03*
X68137500Y-71055000D03*
X68137500Y-72325000D03*
X68137500Y-73595000D03*
X68137500Y-74865000D03*
D37*
X71177500Y-76115000D03*
X72447500Y-76115000D03*
X73717500Y-76115000D03*
X74987500Y-76115000D03*
X76257500Y-76115000D03*
X77527500Y-76115000D03*
X78797500Y-76115000D03*
X80067500Y-76115000D03*
X81337500Y-76115000D03*
X82607500Y-76115000D03*
D36*
X85637500Y-74865000D03*
X85637500Y-73595000D03*
X85637500Y-72325000D03*
X85637500Y-71055000D03*
X85637500Y-69785000D03*
X85637500Y-68515000D03*
X85637500Y-67245000D03*
X85637500Y-65975000D03*
X85637500Y-64705000D03*
X85637500Y-63435000D03*
X85637500Y-62165000D03*
X85637500Y-60895000D03*
X85637500Y-59625000D03*
X85637500Y-58355000D03*
D38*
X74682500Y-64170000D03*
X74682500Y-65695000D03*
X74682500Y-67220000D03*
X76207500Y-64170000D03*
X76207500Y-65695000D03*
X76207500Y-67220000D03*
X77732500Y-64170000D03*
X77732500Y-65695000D03*
X77732500Y-67220000D03*
%TD*%
D13*
%TO.C,C9*%
X96271000Y-64008000D03*
X98171000Y-64008000D03*
%TD*%
D19*
%TO.C,R19*%
X54960000Y-97070000D03*
X53135000Y-97070000D03*
%TD*%
D31*
%TO.C,Q3*%
X55030000Y-100630000D03*
X53130000Y-100630000D03*
X54080000Y-102505000D03*
%TD*%
D13*
%TO.C,C11*%
X101859000Y-64135000D03*
X103759000Y-64135000D03*
%TD*%
D39*
%TO.C,U2*%
X74635000Y-96580000D03*
X76285000Y-96580000D03*
X74635000Y-95380000D03*
X76285000Y-95380000D03*
D40*
X73555000Y-98455000D03*
X74825000Y-98455000D03*
X76095000Y-98455000D03*
X77365000Y-98455000D03*
X77365000Y-93505000D03*
X76095000Y-93505000D03*
X74825000Y-93505000D03*
X73555000Y-93505000D03*
%TD*%
D18*
%TO.C,D3*%
X70897500Y-99370000D03*
X69022500Y-99370000D03*
%TD*%
D41*
%TO.C,R23*%
X62738000Y-66952500D03*
X62738000Y-65127500D03*
%TD*%
D20*
%TO.C,R11*%
X92051500Y-66548000D03*
X93876500Y-66548000D03*
%TD*%
D42*
%TO.C,D9*%
X61084000Y-62174000D03*
X62484000Y-62174000D03*
X62484000Y-58674000D03*
X61084000Y-58674000D03*
%TD*%
D20*
%TO.C,R18*%
X54355000Y-66030000D03*
X56180000Y-66030000D03*
%TD*%
D13*
%TO.C,C12*%
X81346000Y-78486000D03*
X83246000Y-78486000D03*
%TD*%
D17*
%TO.C,C8*%
X96483000Y-79188000D03*
X98383000Y-79188000D03*
%TD*%
D19*
%TO.C,R15*%
X72898000Y-78232000D03*
X71073000Y-78232000D03*
%TD*%
D17*
%TO.C,C6*%
X99211000Y-92777000D03*
X97311000Y-92777000D03*
%TD*%
D19*
%TO.C,R7*%
X59690000Y-101473000D03*
X57865000Y-101473000D03*
%TD*%
M02*
