%TF.GenerationSoftware,KiCad,Pcbnew,10.0.3*%
%TF.CreationDate,2026-07-18T14:46:18+05:45*%
%TF.ProjectId,GSM_GPS Embedded Development Board,47534d5f-4750-4532-9045-6d6265646465,rev?*%
%TF.SameCoordinates,Original*%
%TF.FileFunction,Paste,Top*%
%TF.FilePolarity,Positive*%
%FSLAX46Y46*%
G04 Gerber Fmt 4.6, Leading zero omitted, Abs format (unit mm)*
G04 Created by KiCad (PCBNEW 10.0.3) date 2026-07-18 14:46:18*
%MOMM*%
%LPD*%
G01*
G04 APERTURE LIST*
G04 Aperture macros list*
%AMRoundRect*
0 Rectangle with rounded corners*
0 $1 Rounding radius*
0 $2 $3 $4 $5 $6 $7 $8 $9 X,Y pos of 4 corners*
0 Add a 4 corners polygon primitive as box body*
4,1,4,$2,$3,$4,$5,$6,$7,$8,$9,$2,$3,0*
0 Add four circle primitives for the rounded corners*
1,1,$1+$1,$2,$3*
1,1,$1+$1,$4,$5*
1,1,$1+$1,$6,$7*
1,1,$1+$1,$8,$9*
0 Add four rect primitives between the rounded corners*
20,1,$1+$1,$2,$3,$4,$5,0*
20,1,$1+$1,$4,$5,$6,$7,0*
20,1,$1+$1,$6,$7,$8,$9,0*
20,1,$1+$1,$8,$9,$2,$3,0*%
G04 Aperture macros list end*
%ADD10RoundRect,0.250000X-0.450000X0.350000X-0.450000X-0.350000X0.450000X-0.350000X0.450000X0.350000X0*%
%ADD11RoundRect,0.090000X0.139000X0.090000X-0.139000X0.090000X-0.139000X-0.090000X0.139000X-0.090000X0*%
%ADD12RoundRect,0.075000X-0.662500X-0.075000X0.662500X-0.075000X0.662500X0.075000X-0.662500X0.075000X0*%
%ADD13RoundRect,0.075000X-0.075000X-0.662500X0.075000X-0.662500X0.075000X0.662500X-0.075000X0.662500X0*%
%ADD14RoundRect,0.100000X-0.225000X-0.100000X0.225000X-0.100000X0.225000X0.100000X-0.225000X0.100000X0*%
%ADD15RoundRect,0.250000X-0.350000X-0.450000X0.350000X-0.450000X0.350000X0.450000X-0.350000X0.450000X0*%
%ADD16RoundRect,0.090000X-0.139000X-0.090000X0.139000X-0.090000X0.139000X0.090000X-0.139000X0.090000X0*%
%ADD17RoundRect,0.250000X0.350000X0.450000X-0.350000X0.450000X-0.350000X-0.450000X0.350000X-0.450000X0*%
%ADD18R,1.550000X0.600000*%
%ADD19R,2.600000X3.100000*%
%ADD20RoundRect,0.250000X0.450000X-0.350000X0.450000X0.350000X-0.450000X0.350000X-0.450000X-0.350000X0*%
%ADD21RoundRect,0.090000X-0.090000X0.139000X-0.090000X-0.139000X0.090000X-0.139000X0.090000X0.139000X0*%
%ADD22RoundRect,0.250000X-0.850000X-0.550000X0.850000X-0.550000X0.850000X0.550000X-0.850000X0.550000X0*%
%ADD23RoundRect,0.250000X0.295000X-0.407500X0.295000X0.407500X-0.295000X0.407500X-0.295000X-0.407500X0*%
%ADD24RoundRect,0.250000X-0.325000X-0.450000X0.325000X-0.450000X0.325000X0.450000X-0.325000X0.450000X0*%
%ADD25RoundRect,0.090000X0.090000X-0.139000X0.090000X0.139000X-0.090000X0.139000X-0.090000X-0.139000X0*%
%ADD26R,0.780000X0.900000*%
%ADD27R,0.650000X0.500000*%
%ADD28R,0.550000X0.500000*%
%ADD29R,1.050000X2.200000*%
%ADD30R,1.000000X1.050000*%
%ADD31RoundRect,0.160000X-0.222500X-0.160000X0.222500X-0.160000X0.222500X0.160000X-0.222500X0.160000X0*%
%ADD32R,0.670000X0.950000*%
%ADD33R,0.330000X0.700000*%
%ADD34R,1.700000X0.500000*%
%ADD35R,1.350000X2.000000*%
%ADD36RoundRect,0.250000X-1.075000X0.425000X-1.075000X-0.425000X1.075000X-0.425000X1.075000X0.425000X0*%
%ADD37RoundRect,0.249999X0.512501X1.075001X-0.512501X1.075001X-0.512501X-1.075001X0.512501X-1.075001X0*%
%ADD38RoundRect,0.250000X-0.407500X-0.295000X0.407500X-0.295000X0.407500X0.295000X-0.407500X0.295000X0*%
%ADD39R,1.447800X0.762000*%
%ADD40R,0.762000X1.447800*%
G04 APERTURE END LIST*
D10*
%TO.C,R6*%
X108939250Y-117199997D03*
X108939250Y-119199997D03*
%TD*%
D11*
%TO.C,C17*%
X99771750Y-119512500D03*
X98906750Y-119512500D03*
%TD*%
D12*
%TO.C,U1*%
X104200000Y-76500000D03*
X104200000Y-77000000D03*
X104200000Y-77500000D03*
X104200000Y-78000000D03*
X104200000Y-78500000D03*
X104200000Y-79000000D03*
X104200000Y-79500000D03*
X104200000Y-80000000D03*
X104200000Y-80500000D03*
X104200000Y-81000000D03*
X104200000Y-81500000D03*
X104200000Y-82000000D03*
D13*
X105612500Y-83412500D03*
X106112500Y-83412500D03*
X106612500Y-83412500D03*
X107112500Y-83412500D03*
X107612500Y-83412500D03*
X108112500Y-83412500D03*
X108612500Y-83412500D03*
X109112500Y-83412500D03*
X109612500Y-83412500D03*
X110112500Y-83412500D03*
X110612500Y-83412500D03*
X111112500Y-83412500D03*
D12*
X112525000Y-82000000D03*
X112525000Y-81500000D03*
X112525000Y-81000000D03*
X112525000Y-80500000D03*
X112525000Y-80000000D03*
X112525000Y-79500000D03*
X112525000Y-79000000D03*
X112525000Y-78500000D03*
X112525000Y-78000000D03*
X112525000Y-77500000D03*
X112525000Y-77000000D03*
X112525000Y-76500000D03*
D13*
X111112500Y-75087500D03*
X110612500Y-75087500D03*
X110112500Y-75087500D03*
X109612500Y-75087500D03*
X109112500Y-75087500D03*
X108612500Y-75087500D03*
X108112500Y-75087500D03*
X107612500Y-75087500D03*
X107112500Y-75087500D03*
X106612500Y-75087500D03*
X106112500Y-75087500D03*
X105612500Y-75087500D03*
%TD*%
D14*
%TO.C,D3*%
X103639250Y-113012500D03*
X103639250Y-113662500D03*
X103639250Y-114312500D03*
X105539250Y-114312500D03*
X105539250Y-113662500D03*
X105539250Y-113012500D03*
%TD*%
D15*
%TO.C,R12*%
X85000000Y-108500000D03*
X87000000Y-108500000D03*
%TD*%
D16*
%TO.C,C19*%
X82135000Y-101250000D03*
X83000000Y-101250000D03*
%TD*%
D17*
%TO.C,R1*%
X107787500Y-72890000D03*
X105787500Y-72890000D03*
%TD*%
D18*
%TO.C,U3*%
X82650000Y-102695000D03*
X82650000Y-103965000D03*
X82650000Y-105235000D03*
X82650000Y-106505000D03*
X88050000Y-106505000D03*
X88050000Y-105235000D03*
X88050000Y-103965000D03*
X88050000Y-102695000D03*
D19*
X85350000Y-104600000D03*
%TD*%
D20*
%TO.C,R3*%
X128889250Y-131562500D03*
X128889250Y-129562500D03*
%TD*%
D21*
%TO.C,C11*%
X99539250Y-117647500D03*
X99539250Y-118512500D03*
%TD*%
D11*
%TO.C,C10*%
X117132500Y-79592500D03*
X116267500Y-79592500D03*
%TD*%
D15*
%TO.C,R11*%
X77250000Y-114000000D03*
X79250000Y-114000000D03*
%TD*%
D22*
%TO.C,C20*%
X75500000Y-95250000D03*
X78500000Y-95250000D03*
%TD*%
D11*
%TO.C,C7*%
X102612500Y-78165000D03*
X101747500Y-78165000D03*
%TD*%
D15*
%TO.C,R10*%
X77250000Y-112000000D03*
X79250000Y-112000000D03*
%TD*%
D10*
%TO.C,R2*%
X116650000Y-81692500D03*
X116650000Y-83692500D03*
%TD*%
D16*
%TO.C,C4*%
X119376400Y-93150001D03*
X120241400Y-93150001D03*
%TD*%
D23*
%TO.C,C1*%
X114650000Y-83647500D03*
X114650000Y-81692500D03*
%TD*%
D16*
%TO.C,C6*%
X102525000Y-80500000D03*
X101660000Y-80500000D03*
%TD*%
D24*
%TO.C,DZ1*%
X119616400Y-98550001D03*
X121666400Y-98550001D03*
%TD*%
D25*
%TO.C,C16*%
X112539250Y-121945000D03*
X112539250Y-121080000D03*
%TD*%
D26*
%TO.C,Q1*%
X85690000Y-99350000D03*
X85690000Y-98250000D03*
X85690000Y-97150000D03*
X85690000Y-96050000D03*
X84710000Y-99350000D03*
X84710000Y-98250000D03*
X84710000Y-97150000D03*
X84710000Y-96050000D03*
X83730000Y-99350000D03*
X83730000Y-98250000D03*
X83730000Y-97150000D03*
X83730000Y-96050000D03*
X82750000Y-99350000D03*
X82750000Y-98250000D03*
X82750000Y-97150000D03*
X82750000Y-96050000D03*
D27*
X87440000Y-99605000D03*
X87440000Y-98335000D03*
X87440000Y-97065000D03*
X87440000Y-95795000D03*
D28*
X81890000Y-99605000D03*
X81890000Y-98335000D03*
X81890000Y-97065000D03*
X81890000Y-95795000D03*
%TD*%
D11*
%TO.C,C8*%
X102652500Y-79065000D03*
X101787500Y-79065000D03*
%TD*%
D16*
%TO.C,C3*%
X119376400Y-92350001D03*
X120241400Y-92350001D03*
%TD*%
D29*
%TO.C,J3*%
X141025000Y-82425000D03*
D30*
X142500000Y-83950000D03*
D29*
X143975000Y-82425000D03*
%TD*%
D17*
%TO.C,R4*%
X121641400Y-87150001D03*
X119641400Y-87150001D03*
%TD*%
D11*
%TO.C,C9*%
X117132500Y-80392500D03*
X116267500Y-80392500D03*
%TD*%
D29*
%TO.C,J2*%
X66025000Y-84225000D03*
D30*
X67500000Y-85750000D03*
D29*
X68975000Y-84225000D03*
%TD*%
D31*
%TO.C,D2*%
X123868900Y-88750001D03*
X125013900Y-88750001D03*
%TD*%
D10*
%TO.C,R8*%
X103939250Y-117199997D03*
X103939250Y-119199997D03*
%TD*%
D17*
%TO.C,R5*%
X125641400Y-87150001D03*
X123641400Y-87150001D03*
%TD*%
D32*
%TO.C,J7*%
X110000000Y-121200000D03*
X106700000Y-121200000D03*
X104500000Y-121200000D03*
X102300000Y-121200000D03*
X108900000Y-121200000D03*
X105600000Y-121200000D03*
X103400000Y-121200000D03*
X101200000Y-121200000D03*
D33*
X100430000Y-133925000D03*
X101890000Y-133925000D03*
X102970000Y-133925000D03*
X104430000Y-133925000D03*
X105510000Y-133925000D03*
X106970000Y-133925000D03*
X108050000Y-133925000D03*
X109510000Y-133925000D03*
D34*
X99330000Y-120975000D03*
D35*
X98795000Y-125105000D03*
X111145000Y-125105000D03*
X111145000Y-132725000D03*
X98795000Y-132725000D03*
D32*
X107800000Y-121200000D03*
%TD*%
D16*
%TO.C,C14*%
X119208900Y-96150001D03*
X120073900Y-96150001D03*
%TD*%
D31*
%TO.C,D1*%
X120041400Y-88750001D03*
X121186400Y-88750001D03*
%TD*%
D36*
%TO.C,D4*%
X91000000Y-106750000D03*
X91000000Y-102250000D03*
%TD*%
D37*
%TO.C,L1*%
X79587500Y-99000000D03*
X74912500Y-99000000D03*
%TD*%
D38*
%TO.C,C13*%
X119641400Y-94750001D03*
X121596400Y-94750001D03*
%TD*%
D31*
%TO.C,D5*%
X82177500Y-108250000D03*
X83322500Y-108250000D03*
%TD*%
D39*
%TO.C,U2*%
X93882800Y-90500002D03*
X93882800Y-91500002D03*
X93882800Y-92500000D03*
X93882800Y-93500001D03*
X93882800Y-94500001D03*
X93882800Y-95500002D03*
X93882800Y-96500000D03*
X93882800Y-97500000D03*
X93882800Y-98500001D03*
X93882800Y-99500002D03*
X93882800Y-100500002D03*
X93882800Y-101500000D03*
X93882800Y-102500001D03*
X93882800Y-103500001D03*
X93882800Y-104500002D03*
X93882800Y-105500002D03*
X93882800Y-106500000D03*
D40*
X97541401Y-110158601D03*
X98541399Y-110158601D03*
X99541399Y-110158601D03*
X100541400Y-110158601D03*
X101541400Y-110158601D03*
X102541401Y-110158601D03*
X103541399Y-110158601D03*
X104541399Y-110158601D03*
X105541400Y-110158601D03*
X106541401Y-110158601D03*
X107541401Y-110158601D03*
X108541399Y-110158601D03*
X109541400Y-110158601D03*
X110541400Y-110158601D03*
X111541401Y-110158601D03*
X112541401Y-110158601D03*
X113541399Y-110158601D03*
D39*
X117200000Y-106500000D03*
X117200000Y-105500002D03*
X117200000Y-104500002D03*
X117200000Y-103500001D03*
X117200000Y-102500001D03*
X117200000Y-101500000D03*
X117200000Y-100500002D03*
X117200000Y-99500002D03*
X117200000Y-98500001D03*
X117200000Y-97500000D03*
X117200000Y-96500000D03*
X117200000Y-95500002D03*
X117200000Y-94500001D03*
X117200000Y-93500001D03*
X117200000Y-92500000D03*
X117200000Y-91500000D03*
X117200000Y-90500002D03*
D40*
X113541399Y-86841401D03*
X112541401Y-86841401D03*
X111541401Y-86841401D03*
X110541400Y-86841401D03*
X109541400Y-86841401D03*
X108541399Y-86841401D03*
X107541401Y-86841401D03*
X106541401Y-86841401D03*
X105541400Y-86841401D03*
X104541399Y-86841401D03*
X103541399Y-86841401D03*
X102541401Y-86841401D03*
X101541400Y-86841401D03*
X100541400Y-86841401D03*
X99541399Y-86841401D03*
X98541399Y-86841401D03*
X97541401Y-86841401D03*
%TD*%
D38*
%TO.C,C12*%
X119663900Y-100750001D03*
X121618900Y-100750001D03*
%TD*%
D16*
%TO.C,C5*%
X112067500Y-83500000D03*
X112932500Y-83500000D03*
%TD*%
D11*
%TO.C,C18*%
X78615000Y-110500000D03*
X77750000Y-110500000D03*
%TD*%
D31*
%TO.C,F1*%
X77677500Y-109500000D03*
X78822500Y-109500000D03*
%TD*%
D16*
%TO.C,C15*%
X119208900Y-96950001D03*
X120073900Y-96950001D03*
%TD*%
D10*
%TO.C,R9*%
X101339250Y-117199997D03*
X101339250Y-119199997D03*
%TD*%
%TO.C,R7*%
X106539250Y-117112500D03*
X106539250Y-119112500D03*
%TD*%
D16*
%TO.C,C2*%
X119376400Y-91450001D03*
X120241400Y-91450001D03*
%TD*%
M02*
