%TF.GenerationSoftware,KiCad,Pcbnew,10.0.3*%
%TF.CreationDate,2026-07-18T14:46:18+05:45*%
%TF.ProjectId,GSM_GPS Embedded Development Board,47534d5f-4750-4532-9045-6d6265646465,rev?*%
%TF.SameCoordinates,Original*%
%TF.FileFunction,Soldermask,Top*%
%TF.FilePolarity,Negative*%
%FSLAX46Y46*%
G04 Gerber Fmt 4.6, Leading zero omitted, Abs format (unit mm)*
G04 Created by KiCad (PCBNEW 10.0.3) date 2026-07-18 14:46:18*
%MOMM*%
%LPD*%
G01*
G04 APERTURE LIST*
G04 APERTURE END LIST*
G36*
X72579535Y-132805560D02*
G01*
X72760647Y-132880579D01*
X72923643Y-132989490D01*
X73062260Y-133128107D01*
X73171171Y-133291103D01*
X73246190Y-133472215D01*
X73284435Y-133664483D01*
X73284435Y-133860517D01*
X73246190Y-134052785D01*
X73171171Y-134233897D01*
X73062260Y-134396893D01*
X72923643Y-134535510D01*
X72760647Y-134644421D01*
X72579535Y-134719440D01*
X72387267Y-134757685D01*
X72191233Y-134757685D01*
X71998965Y-134719440D01*
X71817853Y-134644421D01*
X71654857Y-134535510D01*
X71516240Y-134396893D01*
X71407329Y-134233897D01*
X71332310Y-134052785D01*
X71294065Y-133860517D01*
X71294065Y-133664483D01*
X71332310Y-133472215D01*
X71407329Y-133291103D01*
X71516240Y-133128107D01*
X71654857Y-132989490D01*
X71817853Y-132880579D01*
X71998965Y-132805560D01*
X72191233Y-132767315D01*
X72387267Y-132767315D01*
X72579535Y-132805560D01*
G37*
G36*
X79079535Y-132805560D02*
G01*
X79260647Y-132880579D01*
X79423643Y-132989490D01*
X79562260Y-133128107D01*
X79671171Y-133291103D01*
X79746190Y-133472215D01*
X79784435Y-133664483D01*
X79784435Y-133860517D01*
X79746190Y-134052785D01*
X79671171Y-134233897D01*
X79562260Y-134396893D01*
X79423643Y-134535510D01*
X79260647Y-134644421D01*
X79079535Y-134719440D01*
X78887267Y-134757685D01*
X78691233Y-134757685D01*
X78498965Y-134719440D01*
X78317853Y-134644421D01*
X78154857Y-134535510D01*
X78016240Y-134396893D01*
X77907329Y-134233897D01*
X77832310Y-134052785D01*
X77794065Y-133860517D01*
X77794065Y-133664483D01*
X77832310Y-133472215D01*
X77907329Y-133291103D01*
X78016240Y-133128107D01*
X78154857Y-132989490D01*
X78317853Y-132880579D01*
X78498965Y-132805560D01*
X78691233Y-132767315D01*
X78887267Y-132767315D01*
X79079535Y-132805560D01*
G37*
G36*
X132129535Y-132755560D02*
G01*
X132310647Y-132830579D01*
X132473643Y-132939490D01*
X132612260Y-133078107D01*
X132721171Y-133241103D01*
X132796190Y-133422215D01*
X132834435Y-133614483D01*
X132834435Y-133810517D01*
X132796190Y-134002785D01*
X132721171Y-134183897D01*
X132612260Y-134346893D01*
X132473643Y-134485510D01*
X132310647Y-134594421D01*
X132129535Y-134669440D01*
X131937267Y-134707685D01*
X131741233Y-134707685D01*
X131548965Y-134669440D01*
X131367853Y-134594421D01*
X131204857Y-134485510D01*
X131066240Y-134346893D01*
X130957329Y-134183897D01*
X130882310Y-134002785D01*
X130844065Y-133810517D01*
X130844065Y-133614483D01*
X130882310Y-133422215D01*
X130957329Y-133241103D01*
X131066240Y-133078107D01*
X131204857Y-132939490D01*
X131367853Y-132830579D01*
X131548965Y-132755560D01*
X131741233Y-132717315D01*
X131937267Y-132717315D01*
X132129535Y-132755560D01*
G37*
G36*
X138629535Y-132755560D02*
G01*
X138810647Y-132830579D01*
X138973643Y-132939490D01*
X139112260Y-133078107D01*
X139221171Y-133241103D01*
X139296190Y-133422215D01*
X139334435Y-133614483D01*
X139334435Y-133810517D01*
X139296190Y-134002785D01*
X139221171Y-134183897D01*
X139112260Y-134346893D01*
X138973643Y-134485510D01*
X138810647Y-134594421D01*
X138629535Y-134669440D01*
X138437267Y-134707685D01*
X138241233Y-134707685D01*
X138048965Y-134669440D01*
X137867853Y-134594421D01*
X137704857Y-134485510D01*
X137566240Y-134346893D01*
X137457329Y-134183897D01*
X137382310Y-134002785D01*
X137344065Y-133810517D01*
X137344065Y-133614483D01*
X137382310Y-133422215D01*
X137457329Y-133241103D01*
X137566240Y-133078107D01*
X137704857Y-132939490D01*
X137867853Y-132830579D01*
X138048965Y-132755560D01*
X138241233Y-132717315D01*
X138437267Y-132717315D01*
X138629535Y-132755560D01*
G37*
G36*
X100634034Y-133480764D02*
G01*
X100667125Y-133502875D01*
X100689236Y-133535966D01*
X100697000Y-133575000D01*
X100697000Y-134275000D01*
X100689236Y-134314034D01*
X100667125Y-134347125D01*
X100634034Y-134369236D01*
X100595000Y-134377000D01*
X100265000Y-134377000D01*
X100225966Y-134369236D01*
X100192875Y-134347125D01*
X100170764Y-134314034D01*
X100163000Y-134275000D01*
X100163000Y-133575000D01*
X100170764Y-133535966D01*
X100192875Y-133502875D01*
X100225966Y-133480764D01*
X100265000Y-133473000D01*
X100595000Y-133473000D01*
X100634034Y-133480764D01*
G37*
G36*
X102094034Y-133480764D02*
G01*
X102127125Y-133502875D01*
X102149236Y-133535966D01*
X102157000Y-133575000D01*
X102157000Y-134275000D01*
X102149236Y-134314034D01*
X102127125Y-134347125D01*
X102094034Y-134369236D01*
X102055000Y-134377000D01*
X101725000Y-134377000D01*
X101685966Y-134369236D01*
X101652875Y-134347125D01*
X101630764Y-134314034D01*
X101623000Y-134275000D01*
X101623000Y-133575000D01*
X101630764Y-133535966D01*
X101652875Y-133502875D01*
X101685966Y-133480764D01*
X101725000Y-133473000D01*
X102055000Y-133473000D01*
X102094034Y-133480764D01*
G37*
G36*
X103174034Y-133480764D02*
G01*
X103207125Y-133502875D01*
X103229236Y-133535966D01*
X103237000Y-133575000D01*
X103237000Y-134275000D01*
X103229236Y-134314034D01*
X103207125Y-134347125D01*
X103174034Y-134369236D01*
X103135000Y-134377000D01*
X102805000Y-134377000D01*
X102765966Y-134369236D01*
X102732875Y-134347125D01*
X102710764Y-134314034D01*
X102703000Y-134275000D01*
X102703000Y-133575000D01*
X102710764Y-133535966D01*
X102732875Y-133502875D01*
X102765966Y-133480764D01*
X102805000Y-133473000D01*
X103135000Y-133473000D01*
X103174034Y-133480764D01*
G37*
G36*
X104634034Y-133480764D02*
G01*
X104667125Y-133502875D01*
X104689236Y-133535966D01*
X104697000Y-133575000D01*
X104697000Y-134275000D01*
X104689236Y-134314034D01*
X104667125Y-134347125D01*
X104634034Y-134369236D01*
X104595000Y-134377000D01*
X104265000Y-134377000D01*
X104225966Y-134369236D01*
X104192875Y-134347125D01*
X104170764Y-134314034D01*
X104163000Y-134275000D01*
X104163000Y-133575000D01*
X104170764Y-133535966D01*
X104192875Y-133502875D01*
X104225966Y-133480764D01*
X104265000Y-133473000D01*
X104595000Y-133473000D01*
X104634034Y-133480764D01*
G37*
G36*
X105714034Y-133480764D02*
G01*
X105747125Y-133502875D01*
X105769236Y-133535966D01*
X105777000Y-133575000D01*
X105777000Y-134275000D01*
X105769236Y-134314034D01*
X105747125Y-134347125D01*
X105714034Y-134369236D01*
X105675000Y-134377000D01*
X105345000Y-134377000D01*
X105305966Y-134369236D01*
X105272875Y-134347125D01*
X105250764Y-134314034D01*
X105243000Y-134275000D01*
X105243000Y-133575000D01*
X105250764Y-133535966D01*
X105272875Y-133502875D01*
X105305966Y-133480764D01*
X105345000Y-133473000D01*
X105675000Y-133473000D01*
X105714034Y-133480764D01*
G37*
G36*
X107174034Y-133480764D02*
G01*
X107207125Y-133502875D01*
X107229236Y-133535966D01*
X107237000Y-133575000D01*
X107237000Y-134275000D01*
X107229236Y-134314034D01*
X107207125Y-134347125D01*
X107174034Y-134369236D01*
X107135000Y-134377000D01*
X106805000Y-134377000D01*
X106765966Y-134369236D01*
X106732875Y-134347125D01*
X106710764Y-134314034D01*
X106703000Y-134275000D01*
X106703000Y-133575000D01*
X106710764Y-133535966D01*
X106732875Y-133502875D01*
X106765966Y-133480764D01*
X106805000Y-133473000D01*
X107135000Y-133473000D01*
X107174034Y-133480764D01*
G37*
G36*
X108254034Y-133480764D02*
G01*
X108287125Y-133502875D01*
X108309236Y-133535966D01*
X108317000Y-133575000D01*
X108317000Y-134275000D01*
X108309236Y-134314034D01*
X108287125Y-134347125D01*
X108254034Y-134369236D01*
X108215000Y-134377000D01*
X107885000Y-134377000D01*
X107845966Y-134369236D01*
X107812875Y-134347125D01*
X107790764Y-134314034D01*
X107783000Y-134275000D01*
X107783000Y-133575000D01*
X107790764Y-133535966D01*
X107812875Y-133502875D01*
X107845966Y-133480764D01*
X107885000Y-133473000D01*
X108215000Y-133473000D01*
X108254034Y-133480764D01*
G37*
G36*
X109714034Y-133480764D02*
G01*
X109747125Y-133502875D01*
X109769236Y-133535966D01*
X109777000Y-133575000D01*
X109777000Y-134275000D01*
X109769236Y-134314034D01*
X109747125Y-134347125D01*
X109714034Y-134369236D01*
X109675000Y-134377000D01*
X109345000Y-134377000D01*
X109305966Y-134369236D01*
X109272875Y-134347125D01*
X109250764Y-134314034D01*
X109243000Y-134275000D01*
X109243000Y-133575000D01*
X109250764Y-133535966D01*
X109272875Y-133502875D01*
X109305966Y-133480764D01*
X109345000Y-133473000D01*
X109675000Y-133473000D01*
X109714034Y-133480764D01*
G37*
G36*
X68231937Y-131817556D02*
G01*
X68242168Y-131817556D01*
X68282143Y-131825507D01*
X68384324Y-131841691D01*
X68417193Y-131852370D01*
X68444049Y-131857713D01*
X68481950Y-131873412D01*
X68540991Y-131892596D01*
X68596302Y-131920778D01*
X68634217Y-131936483D01*
X68656992Y-131951701D01*
X68687778Y-131967387D01*
X68771467Y-132028190D01*
X68805363Y-132050839D01*
X68812597Y-132058073D01*
X68821048Y-132064213D01*
X68937536Y-132180701D01*
X68943675Y-132189151D01*
X68950911Y-132196387D01*
X68973562Y-132230287D01*
X69034362Y-132313971D01*
X69050046Y-132344754D01*
X69065267Y-132367533D01*
X69080973Y-132405452D01*
X69109153Y-132460758D01*
X69128334Y-132519792D01*
X69144037Y-132557701D01*
X69149380Y-132584562D01*
X69160058Y-132617425D01*
X69176240Y-132719598D01*
X69184194Y-132759582D01*
X69184194Y-132769813D01*
X69185828Y-132780130D01*
X69185828Y-132944869D01*
X69184194Y-132955185D01*
X69184194Y-132965418D01*
X69176240Y-133005405D01*
X69160058Y-133107574D01*
X69149380Y-133140435D01*
X69144037Y-133167299D01*
X69128333Y-133205211D01*
X69109153Y-133264241D01*
X69080976Y-133319541D01*
X69065267Y-133357467D01*
X69050044Y-133380249D01*
X69034362Y-133411028D01*
X68973570Y-133494700D01*
X68950911Y-133528613D01*
X68943673Y-133535850D01*
X68937536Y-133544298D01*
X68821048Y-133660786D01*
X68812600Y-133666923D01*
X68805363Y-133674161D01*
X68771450Y-133696820D01*
X68687778Y-133757612D01*
X68656999Y-133773294D01*
X68634217Y-133788517D01*
X68596291Y-133804226D01*
X68540991Y-133832403D01*
X68481961Y-133851583D01*
X68444049Y-133867287D01*
X68417185Y-133872630D01*
X68384324Y-133883308D01*
X68282152Y-133899490D01*
X68242168Y-133907444D01*
X68231937Y-133907444D01*
X68221620Y-133909078D01*
X68056880Y-133909078D01*
X68046563Y-133907444D01*
X68036332Y-133907444D01*
X67996348Y-133899490D01*
X67894175Y-133883308D01*
X67861312Y-133872630D01*
X67834451Y-133867287D01*
X67796542Y-133851584D01*
X67737508Y-133832403D01*
X67682202Y-133804223D01*
X67644283Y-133788517D01*
X67621504Y-133773296D01*
X67590721Y-133757612D01*
X67507037Y-133696812D01*
X67473137Y-133674161D01*
X67465901Y-133666925D01*
X67457451Y-133660786D01*
X67340963Y-133544298D01*
X67334823Y-133535847D01*
X67327589Y-133528613D01*
X67304940Y-133494717D01*
X67244137Y-133411028D01*
X67228451Y-133380242D01*
X67213233Y-133357467D01*
X67197528Y-133319552D01*
X67169346Y-133264241D01*
X67150162Y-133205200D01*
X67134463Y-133167299D01*
X67129120Y-133140443D01*
X67118441Y-133107574D01*
X67102258Y-133005395D01*
X67094306Y-132965418D01*
X67094306Y-132955186D01*
X67092672Y-132944869D01*
X67092672Y-132780130D01*
X67094306Y-132769812D01*
X67094306Y-132759582D01*
X67102257Y-132719608D01*
X67118441Y-132617425D01*
X67129121Y-132584554D01*
X67134463Y-132557701D01*
X67150160Y-132519803D01*
X67169346Y-132460758D01*
X67197530Y-132405442D01*
X67213233Y-132367533D01*
X67228449Y-132344760D01*
X67244137Y-132313971D01*
X67304949Y-132230270D01*
X67327589Y-132196387D01*
X67334820Y-132189155D01*
X67340963Y-132180701D01*
X67457451Y-132064213D01*
X67465905Y-132058070D01*
X67473137Y-132050839D01*
X67507020Y-132028199D01*
X67590721Y-131967387D01*
X67621510Y-131951699D01*
X67644283Y-131936483D01*
X67682192Y-131920780D01*
X67737508Y-131892596D01*
X67796553Y-131873410D01*
X67834451Y-131857713D01*
X67861304Y-131852371D01*
X67894175Y-131841691D01*
X67996358Y-131825507D01*
X68036332Y-131817556D01*
X68046563Y-131817556D01*
X68056880Y-131815922D01*
X68221620Y-131815922D01*
X68231937Y-131817556D01*
G37*
G36*
X142481937Y-131817556D02*
G01*
X142492168Y-131817556D01*
X142532143Y-131825507D01*
X142634324Y-131841691D01*
X142667193Y-131852370D01*
X142694049Y-131857713D01*
X142731950Y-131873412D01*
X142790991Y-131892596D01*
X142846302Y-131920778D01*
X142884217Y-131936483D01*
X142906992Y-131951701D01*
X142937778Y-131967387D01*
X143021467Y-132028190D01*
X143055363Y-132050839D01*
X143062597Y-132058073D01*
X143071048Y-132064213D01*
X143187536Y-132180701D01*
X143193675Y-132189151D01*
X143200911Y-132196387D01*
X143223562Y-132230287D01*
X143284362Y-132313971D01*
X143300046Y-132344754D01*
X143315267Y-132367533D01*
X143330973Y-132405452D01*
X143359153Y-132460758D01*
X143378334Y-132519792D01*
X143394037Y-132557701D01*
X143399380Y-132584562D01*
X143410058Y-132617425D01*
X143426240Y-132719598D01*
X143434194Y-132759582D01*
X143434194Y-132769813D01*
X143435828Y-132780130D01*
X143435828Y-132944869D01*
X143434194Y-132955185D01*
X143434194Y-132965418D01*
X143426240Y-133005405D01*
X143410058Y-133107574D01*
X143399380Y-133140435D01*
X143394037Y-133167299D01*
X143378333Y-133205211D01*
X143359153Y-133264241D01*
X143330976Y-133319541D01*
X143315267Y-133357467D01*
X143300044Y-133380249D01*
X143284362Y-133411028D01*
X143223570Y-133494700D01*
X143200911Y-133528613D01*
X143193673Y-133535850D01*
X143187536Y-133544298D01*
X143071048Y-133660786D01*
X143062600Y-133666923D01*
X143055363Y-133674161D01*
X143021450Y-133696820D01*
X142937778Y-133757612D01*
X142906999Y-133773294D01*
X142884217Y-133788517D01*
X142846291Y-133804226D01*
X142790991Y-133832403D01*
X142731961Y-133851583D01*
X142694049Y-133867287D01*
X142667185Y-133872630D01*
X142634324Y-133883308D01*
X142532152Y-133899490D01*
X142492168Y-133907444D01*
X142481937Y-133907444D01*
X142471620Y-133909078D01*
X142306880Y-133909078D01*
X142296563Y-133907444D01*
X142286332Y-133907444D01*
X142246348Y-133899490D01*
X142144175Y-133883308D01*
X142111312Y-133872630D01*
X142084451Y-133867287D01*
X142046542Y-133851584D01*
X141987508Y-133832403D01*
X141932202Y-133804223D01*
X141894283Y-133788517D01*
X141871504Y-133773296D01*
X141840721Y-133757612D01*
X141757037Y-133696812D01*
X141723137Y-133674161D01*
X141715901Y-133666925D01*
X141707451Y-133660786D01*
X141590963Y-133544298D01*
X141584823Y-133535847D01*
X141577589Y-133528613D01*
X141554940Y-133494717D01*
X141494137Y-133411028D01*
X141478451Y-133380242D01*
X141463233Y-133357467D01*
X141447528Y-133319552D01*
X141419346Y-133264241D01*
X141400162Y-133205200D01*
X141384463Y-133167299D01*
X141379120Y-133140443D01*
X141368441Y-133107574D01*
X141352258Y-133005395D01*
X141344306Y-132965418D01*
X141344306Y-132955186D01*
X141342672Y-132944869D01*
X141342672Y-132780130D01*
X141344306Y-132769812D01*
X141344306Y-132759582D01*
X141352257Y-132719608D01*
X141368441Y-132617425D01*
X141379121Y-132584554D01*
X141384463Y-132557701D01*
X141400160Y-132519803D01*
X141419346Y-132460758D01*
X141447530Y-132405442D01*
X141463233Y-132367533D01*
X141478449Y-132344760D01*
X141494137Y-132313971D01*
X141554949Y-132230270D01*
X141577589Y-132196387D01*
X141584820Y-132189155D01*
X141590963Y-132180701D01*
X141707451Y-132064213D01*
X141715905Y-132058070D01*
X141723137Y-132050839D01*
X141757020Y-132028199D01*
X141840721Y-131967387D01*
X141871510Y-131951699D01*
X141894283Y-131936483D01*
X141932192Y-131920780D01*
X141987508Y-131892596D01*
X142046553Y-131873410D01*
X142084451Y-131857713D01*
X142111304Y-131852371D01*
X142144175Y-131841691D01*
X142246358Y-131825507D01*
X142286332Y-131817556D01*
X142296563Y-131817556D01*
X142306880Y-131815922D01*
X142471620Y-131815922D01*
X142481937Y-131817556D01*
G37*
G36*
X99509034Y-131630764D02*
G01*
X99542125Y-131652875D01*
X99564236Y-131685966D01*
X99572000Y-131725000D01*
X99572000Y-133725000D01*
X99564236Y-133764034D01*
X99542125Y-133797125D01*
X99509034Y-133819236D01*
X99470000Y-133827000D01*
X98120000Y-133827000D01*
X98080966Y-133819236D01*
X98047875Y-133797125D01*
X98025764Y-133764034D01*
X98018000Y-133725000D01*
X98018000Y-131725000D01*
X98025764Y-131685966D01*
X98047875Y-131652875D01*
X98080966Y-131630764D01*
X98120000Y-131623000D01*
X99470000Y-131623000D01*
X99509034Y-131630764D01*
G37*
G36*
X111859034Y-131630764D02*
G01*
X111892125Y-131652875D01*
X111914236Y-131685966D01*
X111922000Y-131725000D01*
X111922000Y-133725000D01*
X111914236Y-133764034D01*
X111892125Y-133797125D01*
X111859034Y-133819236D01*
X111820000Y-133827000D01*
X110470000Y-133827000D01*
X110430966Y-133819236D01*
X110397875Y-133797125D01*
X110375764Y-133764034D01*
X110368000Y-133725000D01*
X110368000Y-131725000D01*
X110375764Y-131685966D01*
X110397875Y-131652875D01*
X110430966Y-131630764D01*
X110470000Y-131623000D01*
X111820000Y-131623000D01*
X111859034Y-131630764D01*
G37*
G36*
X129344100Y-130963464D02*
G01*
X129394290Y-130969287D01*
X129411439Y-130976859D01*
X129434921Y-130981530D01*
X129460060Y-130998327D01*
X129479946Y-131007108D01*
X129493527Y-131020689D01*
X129516027Y-131035723D01*
X129531060Y-131058222D01*
X129544641Y-131071803D01*
X129553420Y-131091686D01*
X129570220Y-131116829D01*
X129574891Y-131140312D01*
X129582462Y-131157459D01*
X129588283Y-131207639D01*
X129589250Y-131212500D01*
X129589250Y-131912500D01*
X129588282Y-131917363D01*
X129582462Y-131967540D01*
X129574891Y-131984685D01*
X129570220Y-132008171D01*
X129553419Y-132033315D01*
X129544641Y-132053196D01*
X129531062Y-132066774D01*
X129516027Y-132089277D01*
X129493524Y-132104312D01*
X129479946Y-132117891D01*
X129460065Y-132126669D01*
X129434921Y-132143470D01*
X129411435Y-132148141D01*
X129394290Y-132155712D01*
X129344111Y-132161532D01*
X129339250Y-132162500D01*
X128439250Y-132162500D01*
X128434388Y-132161532D01*
X128384209Y-132155712D01*
X128367062Y-132148141D01*
X128343579Y-132143470D01*
X128318436Y-132126670D01*
X128298553Y-132117891D01*
X128284972Y-132104310D01*
X128262473Y-132089277D01*
X128247439Y-132066777D01*
X128233858Y-132053196D01*
X128225077Y-132033310D01*
X128208280Y-132008171D01*
X128203609Y-131984689D01*
X128196037Y-131967540D01*
X128190214Y-131917349D01*
X128189250Y-131912500D01*
X128189250Y-131212500D01*
X128190214Y-131207650D01*
X128196037Y-131157459D01*
X128203609Y-131140308D01*
X128208280Y-131116829D01*
X128225076Y-131091691D01*
X128233858Y-131071803D01*
X128247441Y-131058219D01*
X128262473Y-131035723D01*
X128284969Y-131020691D01*
X128298553Y-131007108D01*
X128318441Y-130998326D01*
X128343579Y-130981530D01*
X128367058Y-130976859D01*
X128384209Y-130969287D01*
X128434401Y-130963464D01*
X128439250Y-130962500D01*
X129339250Y-130962500D01*
X129344100Y-130963464D01*
G37*
G36*
X72579535Y-128305560D02*
G01*
X72760647Y-128380579D01*
X72923643Y-128489490D01*
X73062260Y-128628107D01*
X73171171Y-128791103D01*
X73246190Y-128972215D01*
X73284435Y-129164483D01*
X73284435Y-129360517D01*
X73246190Y-129552785D01*
X73171171Y-129733897D01*
X73062260Y-129896893D01*
X72923643Y-130035510D01*
X72760647Y-130144421D01*
X72579535Y-130219440D01*
X72387267Y-130257685D01*
X72191233Y-130257685D01*
X71998965Y-130219440D01*
X71817853Y-130144421D01*
X71654857Y-130035510D01*
X71516240Y-129896893D01*
X71407329Y-129733897D01*
X71332310Y-129552785D01*
X71294065Y-129360517D01*
X71294065Y-129164483D01*
X71332310Y-128972215D01*
X71407329Y-128791103D01*
X71516240Y-128628107D01*
X71654857Y-128489490D01*
X71817853Y-128380579D01*
X71998965Y-128305560D01*
X72191233Y-128267315D01*
X72387267Y-128267315D01*
X72579535Y-128305560D01*
G37*
G36*
X79079535Y-128305560D02*
G01*
X79260647Y-128380579D01*
X79423643Y-128489490D01*
X79562260Y-128628107D01*
X79671171Y-128791103D01*
X79746190Y-128972215D01*
X79784435Y-129164483D01*
X79784435Y-129360517D01*
X79746190Y-129552785D01*
X79671171Y-129733897D01*
X79562260Y-129896893D01*
X79423643Y-130035510D01*
X79260647Y-130144421D01*
X79079535Y-130219440D01*
X78887267Y-130257685D01*
X78691233Y-130257685D01*
X78498965Y-130219440D01*
X78317853Y-130144421D01*
X78154857Y-130035510D01*
X78016240Y-129896893D01*
X77907329Y-129733897D01*
X77832310Y-129552785D01*
X77794065Y-129360517D01*
X77794065Y-129164483D01*
X77832310Y-128972215D01*
X77907329Y-128791103D01*
X78016240Y-128628107D01*
X78154857Y-128489490D01*
X78317853Y-128380579D01*
X78498965Y-128305560D01*
X78691233Y-128267315D01*
X78887267Y-128267315D01*
X79079535Y-128305560D01*
G37*
G36*
X132129535Y-128255560D02*
G01*
X132310647Y-128330579D01*
X132473643Y-128439490D01*
X132612260Y-128578107D01*
X132721171Y-128741103D01*
X132796190Y-128922215D01*
X132834435Y-129114483D01*
X132834435Y-129310517D01*
X132796190Y-129502785D01*
X132721171Y-129683897D01*
X132612260Y-129846893D01*
X132473643Y-129985510D01*
X132310647Y-130094421D01*
X132129535Y-130169440D01*
X131937267Y-130207685D01*
X131741233Y-130207685D01*
X131548965Y-130169440D01*
X131367853Y-130094421D01*
X131204857Y-129985510D01*
X131066240Y-129846893D01*
X130957329Y-129683897D01*
X130882310Y-129502785D01*
X130844065Y-129310517D01*
X130844065Y-129114483D01*
X130882310Y-128922215D01*
X130957329Y-128741103D01*
X131066240Y-128578107D01*
X131204857Y-128439490D01*
X131367853Y-128330579D01*
X131548965Y-128255560D01*
X131741233Y-128217315D01*
X131937267Y-128217315D01*
X132129535Y-128255560D01*
G37*
G36*
X138629535Y-128255560D02*
G01*
X138810647Y-128330579D01*
X138973643Y-128439490D01*
X139112260Y-128578107D01*
X139221171Y-128741103D01*
X139296190Y-128922215D01*
X139334435Y-129114483D01*
X139334435Y-129310517D01*
X139296190Y-129502785D01*
X139221171Y-129683897D01*
X139112260Y-129846893D01*
X138973643Y-129985510D01*
X138810647Y-130094421D01*
X138629535Y-130169440D01*
X138437267Y-130207685D01*
X138241233Y-130207685D01*
X138048965Y-130169440D01*
X137867853Y-130094421D01*
X137704857Y-129985510D01*
X137566240Y-129846893D01*
X137457329Y-129683897D01*
X137382310Y-129502785D01*
X137344065Y-129310517D01*
X137344065Y-129114483D01*
X137382310Y-128922215D01*
X137457329Y-128741103D01*
X137566240Y-128578107D01*
X137704857Y-128439490D01*
X137867853Y-128330579D01*
X138048965Y-128255560D01*
X138241233Y-128217315D01*
X138437267Y-128217315D01*
X138629535Y-128255560D01*
G37*
G36*
X129344100Y-128963464D02*
G01*
X129394290Y-128969287D01*
X129411439Y-128976859D01*
X129434921Y-128981530D01*
X129460060Y-128998327D01*
X129479946Y-129007108D01*
X129493527Y-129020689D01*
X129516027Y-129035723D01*
X129531060Y-129058222D01*
X129544641Y-129071803D01*
X129553420Y-129091686D01*
X129570220Y-129116829D01*
X129574891Y-129140312D01*
X129582462Y-129157459D01*
X129588283Y-129207639D01*
X129589250Y-129212500D01*
X129589250Y-129912500D01*
X129588282Y-129917363D01*
X129582462Y-129967540D01*
X129574891Y-129984685D01*
X129570220Y-130008171D01*
X129553419Y-130033315D01*
X129544641Y-130053196D01*
X129531062Y-130066774D01*
X129516027Y-130089277D01*
X129493524Y-130104312D01*
X129479946Y-130117891D01*
X129460065Y-130126669D01*
X129434921Y-130143470D01*
X129411435Y-130148141D01*
X129394290Y-130155712D01*
X129344111Y-130161532D01*
X129339250Y-130162500D01*
X128439250Y-130162500D01*
X128434388Y-130161532D01*
X128384209Y-130155712D01*
X128367062Y-130148141D01*
X128343579Y-130143470D01*
X128318436Y-130126670D01*
X128298553Y-130117891D01*
X128284972Y-130104310D01*
X128262473Y-130089277D01*
X128247439Y-130066777D01*
X128233858Y-130053196D01*
X128225077Y-130033310D01*
X128208280Y-130008171D01*
X128203609Y-129984689D01*
X128196037Y-129967540D01*
X128190214Y-129917349D01*
X128189250Y-129912500D01*
X128189250Y-129212500D01*
X128190214Y-129207650D01*
X128196037Y-129157459D01*
X128203609Y-129140308D01*
X128208280Y-129116829D01*
X128225076Y-129091691D01*
X128233858Y-129071803D01*
X128247441Y-129058219D01*
X128262473Y-129035723D01*
X128284969Y-129020691D01*
X128298553Y-129007108D01*
X128318441Y-128998326D01*
X128343579Y-128981530D01*
X128367058Y-128976859D01*
X128384209Y-128969287D01*
X128434401Y-128963464D01*
X128439250Y-128962500D01*
X129339250Y-128962500D01*
X129344100Y-128963464D01*
G37*
G36*
X99509034Y-124010764D02*
G01*
X99542125Y-124032875D01*
X99564236Y-124065966D01*
X99572000Y-124105000D01*
X99572000Y-126105000D01*
X99564236Y-126144034D01*
X99542125Y-126177125D01*
X99509034Y-126199236D01*
X99470000Y-126207000D01*
X98120000Y-126207000D01*
X98080966Y-126199236D01*
X98047875Y-126177125D01*
X98025764Y-126144034D01*
X98018000Y-126105000D01*
X98018000Y-124105000D01*
X98025764Y-124065966D01*
X98047875Y-124032875D01*
X98080966Y-124010764D01*
X98120000Y-124003000D01*
X99470000Y-124003000D01*
X99509034Y-124010764D01*
G37*
G36*
X111859034Y-124010764D02*
G01*
X111892125Y-124032875D01*
X111914236Y-124065966D01*
X111922000Y-124105000D01*
X111922000Y-126105000D01*
X111914236Y-126144034D01*
X111892125Y-126177125D01*
X111859034Y-126199236D01*
X111820000Y-126207000D01*
X110470000Y-126207000D01*
X110430966Y-126199236D01*
X110397875Y-126177125D01*
X110375764Y-126144034D01*
X110368000Y-126105000D01*
X110368000Y-124105000D01*
X110375764Y-124065966D01*
X110397875Y-124032875D01*
X110430966Y-124010764D01*
X110470000Y-124003000D01*
X111820000Y-124003000D01*
X111859034Y-124010764D01*
G37*
G36*
X112677518Y-121610112D02*
G01*
X112709961Y-121631789D01*
X112731638Y-121664232D01*
X112739250Y-121702500D01*
X112739250Y-122137500D01*
X112731638Y-122175768D01*
X112709961Y-122208211D01*
X112677518Y-122229888D01*
X112639250Y-122237500D01*
X112439250Y-122237500D01*
X112400982Y-122229888D01*
X112368539Y-122208211D01*
X112346862Y-122175768D01*
X112339250Y-122137500D01*
X112339250Y-121702500D01*
X112346862Y-121664232D01*
X112368539Y-121631789D01*
X112400982Y-121610112D01*
X112439250Y-121602500D01*
X112639250Y-121602500D01*
X112677518Y-121610112D01*
G37*
G36*
X101574034Y-120630764D02*
G01*
X101607125Y-120652875D01*
X101629236Y-120685966D01*
X101637000Y-120725000D01*
X101637000Y-121675000D01*
X101629236Y-121714034D01*
X101607125Y-121747125D01*
X101574034Y-121769236D01*
X101535000Y-121777000D01*
X100865000Y-121777000D01*
X100825966Y-121769236D01*
X100792875Y-121747125D01*
X100770764Y-121714034D01*
X100763000Y-121675000D01*
X100763000Y-120725000D01*
X100770764Y-120685966D01*
X100792875Y-120652875D01*
X100825966Y-120630764D01*
X100865000Y-120623000D01*
X101535000Y-120623000D01*
X101574034Y-120630764D01*
G37*
G36*
X102674034Y-120630764D02*
G01*
X102707125Y-120652875D01*
X102729236Y-120685966D01*
X102737000Y-120725000D01*
X102737000Y-121675000D01*
X102729236Y-121714034D01*
X102707125Y-121747125D01*
X102674034Y-121769236D01*
X102635000Y-121777000D01*
X101965000Y-121777000D01*
X101925966Y-121769236D01*
X101892875Y-121747125D01*
X101870764Y-121714034D01*
X101863000Y-121675000D01*
X101863000Y-120725000D01*
X101870764Y-120685966D01*
X101892875Y-120652875D01*
X101925966Y-120630764D01*
X101965000Y-120623000D01*
X102635000Y-120623000D01*
X102674034Y-120630764D01*
G37*
G36*
X103774034Y-120630764D02*
G01*
X103807125Y-120652875D01*
X103829236Y-120685966D01*
X103837000Y-120725000D01*
X103837000Y-121675000D01*
X103829236Y-121714034D01*
X103807125Y-121747125D01*
X103774034Y-121769236D01*
X103735000Y-121777000D01*
X103065000Y-121777000D01*
X103025966Y-121769236D01*
X102992875Y-121747125D01*
X102970764Y-121714034D01*
X102963000Y-121675000D01*
X102963000Y-120725000D01*
X102970764Y-120685966D01*
X102992875Y-120652875D01*
X103025966Y-120630764D01*
X103065000Y-120623000D01*
X103735000Y-120623000D01*
X103774034Y-120630764D01*
G37*
G36*
X104874034Y-120630764D02*
G01*
X104907125Y-120652875D01*
X104929236Y-120685966D01*
X104937000Y-120725000D01*
X104937000Y-121675000D01*
X104929236Y-121714034D01*
X104907125Y-121747125D01*
X104874034Y-121769236D01*
X104835000Y-121777000D01*
X104165000Y-121777000D01*
X104125966Y-121769236D01*
X104092875Y-121747125D01*
X104070764Y-121714034D01*
X104063000Y-121675000D01*
X104063000Y-120725000D01*
X104070764Y-120685966D01*
X104092875Y-120652875D01*
X104125966Y-120630764D01*
X104165000Y-120623000D01*
X104835000Y-120623000D01*
X104874034Y-120630764D01*
G37*
G36*
X105974034Y-120630764D02*
G01*
X106007125Y-120652875D01*
X106029236Y-120685966D01*
X106037000Y-120725000D01*
X106037000Y-121675000D01*
X106029236Y-121714034D01*
X106007125Y-121747125D01*
X105974034Y-121769236D01*
X105935000Y-121777000D01*
X105265000Y-121777000D01*
X105225966Y-121769236D01*
X105192875Y-121747125D01*
X105170764Y-121714034D01*
X105163000Y-121675000D01*
X105163000Y-120725000D01*
X105170764Y-120685966D01*
X105192875Y-120652875D01*
X105225966Y-120630764D01*
X105265000Y-120623000D01*
X105935000Y-120623000D01*
X105974034Y-120630764D01*
G37*
G36*
X107074034Y-120630764D02*
G01*
X107107125Y-120652875D01*
X107129236Y-120685966D01*
X107137000Y-120725000D01*
X107137000Y-121675000D01*
X107129236Y-121714034D01*
X107107125Y-121747125D01*
X107074034Y-121769236D01*
X107035000Y-121777000D01*
X106365000Y-121777000D01*
X106325966Y-121769236D01*
X106292875Y-121747125D01*
X106270764Y-121714034D01*
X106263000Y-121675000D01*
X106263000Y-120725000D01*
X106270764Y-120685966D01*
X106292875Y-120652875D01*
X106325966Y-120630764D01*
X106365000Y-120623000D01*
X107035000Y-120623000D01*
X107074034Y-120630764D01*
G37*
G36*
X108174034Y-120630764D02*
G01*
X108207125Y-120652875D01*
X108229236Y-120685966D01*
X108237000Y-120725000D01*
X108237000Y-121675000D01*
X108229236Y-121714034D01*
X108207125Y-121747125D01*
X108174034Y-121769236D01*
X108135000Y-121777000D01*
X107465000Y-121777000D01*
X107425966Y-121769236D01*
X107392875Y-121747125D01*
X107370764Y-121714034D01*
X107363000Y-121675000D01*
X107363000Y-120725000D01*
X107370764Y-120685966D01*
X107392875Y-120652875D01*
X107425966Y-120630764D01*
X107465000Y-120623000D01*
X108135000Y-120623000D01*
X108174034Y-120630764D01*
G37*
G36*
X109274034Y-120630764D02*
G01*
X109307125Y-120652875D01*
X109329236Y-120685966D01*
X109337000Y-120725000D01*
X109337000Y-121675000D01*
X109329236Y-121714034D01*
X109307125Y-121747125D01*
X109274034Y-121769236D01*
X109235000Y-121777000D01*
X108565000Y-121777000D01*
X108525966Y-121769236D01*
X108492875Y-121747125D01*
X108470764Y-121714034D01*
X108463000Y-121675000D01*
X108463000Y-120725000D01*
X108470764Y-120685966D01*
X108492875Y-120652875D01*
X108525966Y-120630764D01*
X108565000Y-120623000D01*
X109235000Y-120623000D01*
X109274034Y-120630764D01*
G37*
G36*
X110374034Y-120630764D02*
G01*
X110407125Y-120652875D01*
X110429236Y-120685966D01*
X110437000Y-120725000D01*
X110437000Y-121675000D01*
X110429236Y-121714034D01*
X110407125Y-121747125D01*
X110374034Y-121769236D01*
X110335000Y-121777000D01*
X109665000Y-121777000D01*
X109625966Y-121769236D01*
X109592875Y-121747125D01*
X109570764Y-121714034D01*
X109563000Y-121675000D01*
X109563000Y-120725000D01*
X109570764Y-120685966D01*
X109592875Y-120652875D01*
X109625966Y-120630764D01*
X109665000Y-120623000D01*
X110335000Y-120623000D01*
X110374034Y-120630764D01*
G37*
G36*
X112677518Y-120795112D02*
G01*
X112709961Y-120816789D01*
X112731638Y-120849232D01*
X112739250Y-120887500D01*
X112739250Y-121322500D01*
X112731638Y-121360768D01*
X112709961Y-121393211D01*
X112677518Y-121414888D01*
X112639250Y-121422500D01*
X112439250Y-121422500D01*
X112400982Y-121414888D01*
X112368539Y-121393211D01*
X112346862Y-121360768D01*
X112339250Y-121322500D01*
X112339250Y-120887500D01*
X112346862Y-120849232D01*
X112368539Y-120816789D01*
X112400982Y-120795112D01*
X112439250Y-120787500D01*
X112639250Y-120787500D01*
X112677518Y-120795112D01*
G37*
G36*
X100219034Y-120630764D02*
G01*
X100252125Y-120652875D01*
X100274236Y-120685966D01*
X100282000Y-120725000D01*
X100282000Y-121225000D01*
X100274236Y-121264034D01*
X100252125Y-121297125D01*
X100219034Y-121319236D01*
X100180000Y-121327000D01*
X98480000Y-121327000D01*
X98440966Y-121319236D01*
X98407875Y-121297125D01*
X98385764Y-121264034D01*
X98378000Y-121225000D01*
X98378000Y-120725000D01*
X98385764Y-120685966D01*
X98407875Y-120652875D01*
X98440966Y-120630764D01*
X98480000Y-120623000D01*
X100180000Y-120623000D01*
X100219034Y-120630764D01*
G37*
G36*
X101794100Y-118600961D02*
G01*
X101844290Y-118606784D01*
X101861439Y-118614356D01*
X101884921Y-118619027D01*
X101910060Y-118635824D01*
X101929946Y-118644605D01*
X101943527Y-118658186D01*
X101966027Y-118673220D01*
X101981060Y-118695719D01*
X101994641Y-118709300D01*
X102003420Y-118729183D01*
X102020220Y-118754326D01*
X102024891Y-118777809D01*
X102032462Y-118794956D01*
X102038283Y-118845136D01*
X102039250Y-118849997D01*
X102039250Y-119549997D01*
X102038282Y-119554860D01*
X102032462Y-119605037D01*
X102024891Y-119622182D01*
X102020220Y-119645668D01*
X102003419Y-119670812D01*
X101994641Y-119690693D01*
X101981062Y-119704271D01*
X101966027Y-119726774D01*
X101943524Y-119741809D01*
X101929946Y-119755388D01*
X101910065Y-119764166D01*
X101884921Y-119780967D01*
X101861435Y-119785638D01*
X101844290Y-119793209D01*
X101794111Y-119799029D01*
X101789250Y-119799997D01*
X100889250Y-119799997D01*
X100884388Y-119799029D01*
X100834209Y-119793209D01*
X100817062Y-119785638D01*
X100793579Y-119780967D01*
X100768436Y-119764167D01*
X100748553Y-119755388D01*
X100734972Y-119741807D01*
X100712473Y-119726774D01*
X100697439Y-119704274D01*
X100683858Y-119690693D01*
X100675077Y-119670807D01*
X100658280Y-119645668D01*
X100653609Y-119622186D01*
X100646037Y-119605037D01*
X100640214Y-119554846D01*
X100639250Y-119549997D01*
X100639250Y-118849997D01*
X100640214Y-118845147D01*
X100646037Y-118794956D01*
X100653609Y-118777805D01*
X100658280Y-118754326D01*
X100675076Y-118729188D01*
X100683858Y-118709300D01*
X100697441Y-118695716D01*
X100712473Y-118673220D01*
X100734969Y-118658188D01*
X100748553Y-118644605D01*
X100768441Y-118635823D01*
X100793579Y-118619027D01*
X100817058Y-118614356D01*
X100834209Y-118606784D01*
X100884401Y-118600961D01*
X100889250Y-118599997D01*
X101789250Y-118599997D01*
X101794100Y-118600961D01*
G37*
G36*
X104394100Y-118600961D02*
G01*
X104444290Y-118606784D01*
X104461439Y-118614356D01*
X104484921Y-118619027D01*
X104510060Y-118635824D01*
X104529946Y-118644605D01*
X104543527Y-118658186D01*
X104566027Y-118673220D01*
X104581060Y-118695719D01*
X104594641Y-118709300D01*
X104603420Y-118729183D01*
X104620220Y-118754326D01*
X104624891Y-118777809D01*
X104632462Y-118794956D01*
X104638283Y-118845136D01*
X104639250Y-118849997D01*
X104639250Y-119549997D01*
X104638282Y-119554860D01*
X104632462Y-119605037D01*
X104624891Y-119622182D01*
X104620220Y-119645668D01*
X104603419Y-119670812D01*
X104594641Y-119690693D01*
X104581062Y-119704271D01*
X104566027Y-119726774D01*
X104543524Y-119741809D01*
X104529946Y-119755388D01*
X104510065Y-119764166D01*
X104484921Y-119780967D01*
X104461435Y-119785638D01*
X104444290Y-119793209D01*
X104394111Y-119799029D01*
X104389250Y-119799997D01*
X103489250Y-119799997D01*
X103484388Y-119799029D01*
X103434209Y-119793209D01*
X103417062Y-119785638D01*
X103393579Y-119780967D01*
X103368436Y-119764167D01*
X103348553Y-119755388D01*
X103334972Y-119741807D01*
X103312473Y-119726774D01*
X103297439Y-119704274D01*
X103283858Y-119690693D01*
X103275077Y-119670807D01*
X103258280Y-119645668D01*
X103253609Y-119622186D01*
X103246037Y-119605037D01*
X103240214Y-119554846D01*
X103239250Y-119549997D01*
X103239250Y-118849997D01*
X103240214Y-118845147D01*
X103246037Y-118794956D01*
X103253609Y-118777805D01*
X103258280Y-118754326D01*
X103275076Y-118729188D01*
X103283858Y-118709300D01*
X103297441Y-118695716D01*
X103312473Y-118673220D01*
X103334969Y-118658188D01*
X103348553Y-118644605D01*
X103368441Y-118635823D01*
X103393579Y-118619027D01*
X103417058Y-118614356D01*
X103434209Y-118606784D01*
X103484401Y-118600961D01*
X103489250Y-118599997D01*
X104389250Y-118599997D01*
X104394100Y-118600961D01*
G37*
G36*
X109394100Y-118600961D02*
G01*
X109444290Y-118606784D01*
X109461439Y-118614356D01*
X109484921Y-118619027D01*
X109510060Y-118635824D01*
X109529946Y-118644605D01*
X109543527Y-118658186D01*
X109566027Y-118673220D01*
X109581060Y-118695719D01*
X109594641Y-118709300D01*
X109603420Y-118729183D01*
X109620220Y-118754326D01*
X109624891Y-118777809D01*
X109632462Y-118794956D01*
X109638283Y-118845136D01*
X109639250Y-118849997D01*
X109639250Y-119549997D01*
X109638282Y-119554860D01*
X109632462Y-119605037D01*
X109624891Y-119622182D01*
X109620220Y-119645668D01*
X109603419Y-119670812D01*
X109594641Y-119690693D01*
X109581062Y-119704271D01*
X109566027Y-119726774D01*
X109543524Y-119741809D01*
X109529946Y-119755388D01*
X109510065Y-119764166D01*
X109484921Y-119780967D01*
X109461435Y-119785638D01*
X109444290Y-119793209D01*
X109394111Y-119799029D01*
X109389250Y-119799997D01*
X108489250Y-119799997D01*
X108484388Y-119799029D01*
X108434209Y-119793209D01*
X108417062Y-119785638D01*
X108393579Y-119780967D01*
X108368436Y-119764167D01*
X108348553Y-119755388D01*
X108334972Y-119741807D01*
X108312473Y-119726774D01*
X108297439Y-119704274D01*
X108283858Y-119690693D01*
X108275077Y-119670807D01*
X108258280Y-119645668D01*
X108253609Y-119622186D01*
X108246037Y-119605037D01*
X108240214Y-119554846D01*
X108239250Y-119549997D01*
X108239250Y-118849997D01*
X108240214Y-118845147D01*
X108246037Y-118794956D01*
X108253609Y-118777805D01*
X108258280Y-118754326D01*
X108275076Y-118729188D01*
X108283858Y-118709300D01*
X108297441Y-118695716D01*
X108312473Y-118673220D01*
X108334969Y-118658188D01*
X108348553Y-118644605D01*
X108368441Y-118635823D01*
X108393579Y-118619027D01*
X108417058Y-118614356D01*
X108434209Y-118606784D01*
X108484401Y-118600961D01*
X108489250Y-118599997D01*
X109389250Y-118599997D01*
X109394100Y-118600961D01*
G37*
G36*
X99187518Y-119320112D02*
G01*
X99219961Y-119341789D01*
X99241638Y-119374232D01*
X99249250Y-119412500D01*
X99249250Y-119612500D01*
X99241638Y-119650768D01*
X99219961Y-119683211D01*
X99187518Y-119704888D01*
X99149250Y-119712500D01*
X98714250Y-119712500D01*
X98675982Y-119704888D01*
X98643539Y-119683211D01*
X98621862Y-119650768D01*
X98614250Y-119612500D01*
X98614250Y-119412500D01*
X98621862Y-119374232D01*
X98643539Y-119341789D01*
X98675982Y-119320112D01*
X98714250Y-119312500D01*
X99149250Y-119312500D01*
X99187518Y-119320112D01*
G37*
G36*
X100002518Y-119320112D02*
G01*
X100034961Y-119341789D01*
X100056638Y-119374232D01*
X100064250Y-119412500D01*
X100064250Y-119612500D01*
X100056638Y-119650768D01*
X100034961Y-119683211D01*
X100002518Y-119704888D01*
X99964250Y-119712500D01*
X99529250Y-119712500D01*
X99490982Y-119704888D01*
X99458539Y-119683211D01*
X99436862Y-119650768D01*
X99429250Y-119612500D01*
X99429250Y-119412500D01*
X99436862Y-119374232D01*
X99458539Y-119341789D01*
X99490982Y-119320112D01*
X99529250Y-119312500D01*
X99964250Y-119312500D01*
X100002518Y-119320112D01*
G37*
G36*
X106994100Y-118513464D02*
G01*
X107044290Y-118519287D01*
X107061439Y-118526859D01*
X107084921Y-118531530D01*
X107110060Y-118548327D01*
X107129946Y-118557108D01*
X107143527Y-118570689D01*
X107166027Y-118585723D01*
X107181060Y-118608222D01*
X107194641Y-118621803D01*
X107203420Y-118641686D01*
X107220220Y-118666829D01*
X107224891Y-118690312D01*
X107232462Y-118707459D01*
X107238283Y-118757639D01*
X107239250Y-118762500D01*
X107239250Y-119462500D01*
X107238282Y-119467363D01*
X107232462Y-119517540D01*
X107224891Y-119534685D01*
X107220220Y-119558171D01*
X107203419Y-119583315D01*
X107194641Y-119603196D01*
X107181062Y-119616774D01*
X107166027Y-119639277D01*
X107143524Y-119654312D01*
X107129946Y-119667891D01*
X107110065Y-119676669D01*
X107084921Y-119693470D01*
X107061435Y-119698141D01*
X107044290Y-119705712D01*
X106994111Y-119711532D01*
X106989250Y-119712500D01*
X106089250Y-119712500D01*
X106084388Y-119711532D01*
X106034209Y-119705712D01*
X106017062Y-119698141D01*
X105993579Y-119693470D01*
X105968436Y-119676670D01*
X105948553Y-119667891D01*
X105934972Y-119654310D01*
X105912473Y-119639277D01*
X105897439Y-119616777D01*
X105883858Y-119603196D01*
X105875077Y-119583310D01*
X105858280Y-119558171D01*
X105853609Y-119534689D01*
X105846037Y-119517540D01*
X105840214Y-119467349D01*
X105839250Y-119462500D01*
X105839250Y-118762500D01*
X105840214Y-118757650D01*
X105846037Y-118707459D01*
X105853609Y-118690308D01*
X105858280Y-118666829D01*
X105875076Y-118641691D01*
X105883858Y-118621803D01*
X105897441Y-118608219D01*
X105912473Y-118585723D01*
X105934969Y-118570691D01*
X105948553Y-118557108D01*
X105968441Y-118548326D01*
X105993579Y-118531530D01*
X106017058Y-118526859D01*
X106034209Y-118519287D01*
X106084401Y-118513464D01*
X106089250Y-118512500D01*
X106989250Y-118512500D01*
X106994100Y-118513464D01*
G37*
G36*
X99677518Y-118177612D02*
G01*
X99709961Y-118199289D01*
X99731638Y-118231732D01*
X99739250Y-118270000D01*
X99739250Y-118705000D01*
X99731638Y-118743268D01*
X99709961Y-118775711D01*
X99677518Y-118797388D01*
X99639250Y-118805000D01*
X99439250Y-118805000D01*
X99400982Y-118797388D01*
X99368539Y-118775711D01*
X99346862Y-118743268D01*
X99339250Y-118705000D01*
X99339250Y-118270000D01*
X99346862Y-118231732D01*
X99368539Y-118199289D01*
X99400982Y-118177612D01*
X99439250Y-118170000D01*
X99639250Y-118170000D01*
X99677518Y-118177612D01*
G37*
G36*
X99677518Y-117362612D02*
G01*
X99709961Y-117384289D01*
X99731638Y-117416732D01*
X99739250Y-117455000D01*
X99739250Y-117890000D01*
X99731638Y-117928268D01*
X99709961Y-117960711D01*
X99677518Y-117982388D01*
X99639250Y-117990000D01*
X99439250Y-117990000D01*
X99400982Y-117982388D01*
X99368539Y-117960711D01*
X99346862Y-117928268D01*
X99339250Y-117890000D01*
X99339250Y-117455000D01*
X99346862Y-117416732D01*
X99368539Y-117384289D01*
X99400982Y-117362612D01*
X99439250Y-117355000D01*
X99639250Y-117355000D01*
X99677518Y-117362612D01*
G37*
G36*
X101794100Y-116600961D02*
G01*
X101844290Y-116606784D01*
X101861439Y-116614356D01*
X101884921Y-116619027D01*
X101910060Y-116635824D01*
X101929946Y-116644605D01*
X101943527Y-116658186D01*
X101966027Y-116673220D01*
X101981060Y-116695719D01*
X101994641Y-116709300D01*
X102003420Y-116729183D01*
X102020220Y-116754326D01*
X102024891Y-116777809D01*
X102032462Y-116794956D01*
X102038283Y-116845136D01*
X102039250Y-116849997D01*
X102039250Y-117549997D01*
X102038282Y-117554860D01*
X102032462Y-117605037D01*
X102024891Y-117622182D01*
X102020220Y-117645668D01*
X102003419Y-117670812D01*
X101994641Y-117690693D01*
X101981062Y-117704271D01*
X101966027Y-117726774D01*
X101943524Y-117741809D01*
X101929946Y-117755388D01*
X101910065Y-117764166D01*
X101884921Y-117780967D01*
X101861435Y-117785638D01*
X101844290Y-117793209D01*
X101794111Y-117799029D01*
X101789250Y-117799997D01*
X100889250Y-117799997D01*
X100884388Y-117799029D01*
X100834209Y-117793209D01*
X100817062Y-117785638D01*
X100793579Y-117780967D01*
X100768436Y-117764167D01*
X100748553Y-117755388D01*
X100734972Y-117741807D01*
X100712473Y-117726774D01*
X100697439Y-117704274D01*
X100683858Y-117690693D01*
X100675077Y-117670807D01*
X100658280Y-117645668D01*
X100653609Y-117622186D01*
X100646037Y-117605037D01*
X100640214Y-117554846D01*
X100639250Y-117549997D01*
X100639250Y-116849997D01*
X100640214Y-116845147D01*
X100646037Y-116794956D01*
X100653609Y-116777805D01*
X100658280Y-116754326D01*
X100675076Y-116729188D01*
X100683858Y-116709300D01*
X100697441Y-116695716D01*
X100712473Y-116673220D01*
X100734969Y-116658188D01*
X100748553Y-116644605D01*
X100768441Y-116635823D01*
X100793579Y-116619027D01*
X100817058Y-116614356D01*
X100834209Y-116606784D01*
X100884401Y-116600961D01*
X100889250Y-116599997D01*
X101789250Y-116599997D01*
X101794100Y-116600961D01*
G37*
G36*
X104394100Y-116600961D02*
G01*
X104444290Y-116606784D01*
X104461439Y-116614356D01*
X104484921Y-116619027D01*
X104510060Y-116635824D01*
X104529946Y-116644605D01*
X104543527Y-116658186D01*
X104566027Y-116673220D01*
X104581060Y-116695719D01*
X104594641Y-116709300D01*
X104603420Y-116729183D01*
X104620220Y-116754326D01*
X104624891Y-116777809D01*
X104632462Y-116794956D01*
X104638283Y-116845136D01*
X104639250Y-116849997D01*
X104639250Y-117549997D01*
X104638282Y-117554860D01*
X104632462Y-117605037D01*
X104624891Y-117622182D01*
X104620220Y-117645668D01*
X104603419Y-117670812D01*
X104594641Y-117690693D01*
X104581062Y-117704271D01*
X104566027Y-117726774D01*
X104543524Y-117741809D01*
X104529946Y-117755388D01*
X104510065Y-117764166D01*
X104484921Y-117780967D01*
X104461435Y-117785638D01*
X104444290Y-117793209D01*
X104394111Y-117799029D01*
X104389250Y-117799997D01*
X103489250Y-117799997D01*
X103484388Y-117799029D01*
X103434209Y-117793209D01*
X103417062Y-117785638D01*
X103393579Y-117780967D01*
X103368436Y-117764167D01*
X103348553Y-117755388D01*
X103334972Y-117741807D01*
X103312473Y-117726774D01*
X103297439Y-117704274D01*
X103283858Y-117690693D01*
X103275077Y-117670807D01*
X103258280Y-117645668D01*
X103253609Y-117622186D01*
X103246037Y-117605037D01*
X103240214Y-117554846D01*
X103239250Y-117549997D01*
X103239250Y-116849997D01*
X103240214Y-116845147D01*
X103246037Y-116794956D01*
X103253609Y-116777805D01*
X103258280Y-116754326D01*
X103275076Y-116729188D01*
X103283858Y-116709300D01*
X103297441Y-116695716D01*
X103312473Y-116673220D01*
X103334969Y-116658188D01*
X103348553Y-116644605D01*
X103368441Y-116635823D01*
X103393579Y-116619027D01*
X103417058Y-116614356D01*
X103434209Y-116606784D01*
X103484401Y-116600961D01*
X103489250Y-116599997D01*
X104389250Y-116599997D01*
X104394100Y-116600961D01*
G37*
G36*
X109394100Y-116600961D02*
G01*
X109444290Y-116606784D01*
X109461439Y-116614356D01*
X109484921Y-116619027D01*
X109510060Y-116635824D01*
X109529946Y-116644605D01*
X109543527Y-116658186D01*
X109566027Y-116673220D01*
X109581060Y-116695719D01*
X109594641Y-116709300D01*
X109603420Y-116729183D01*
X109620220Y-116754326D01*
X109624891Y-116777809D01*
X109632462Y-116794956D01*
X109638283Y-116845136D01*
X109639250Y-116849997D01*
X109639250Y-117549997D01*
X109638282Y-117554860D01*
X109632462Y-117605037D01*
X109624891Y-117622182D01*
X109620220Y-117645668D01*
X109603419Y-117670812D01*
X109594641Y-117690693D01*
X109581062Y-117704271D01*
X109566027Y-117726774D01*
X109543524Y-117741809D01*
X109529946Y-117755388D01*
X109510065Y-117764166D01*
X109484921Y-117780967D01*
X109461435Y-117785638D01*
X109444290Y-117793209D01*
X109394111Y-117799029D01*
X109389250Y-117799997D01*
X108489250Y-117799997D01*
X108484388Y-117799029D01*
X108434209Y-117793209D01*
X108417062Y-117785638D01*
X108393579Y-117780967D01*
X108368436Y-117764167D01*
X108348553Y-117755388D01*
X108334972Y-117741807D01*
X108312473Y-117726774D01*
X108297439Y-117704274D01*
X108283858Y-117690693D01*
X108275077Y-117670807D01*
X108258280Y-117645668D01*
X108253609Y-117622186D01*
X108246037Y-117605037D01*
X108240214Y-117554846D01*
X108239250Y-117549997D01*
X108239250Y-116849997D01*
X108240214Y-116845147D01*
X108246037Y-116794956D01*
X108253609Y-116777805D01*
X108258280Y-116754326D01*
X108275076Y-116729188D01*
X108283858Y-116709300D01*
X108297441Y-116695716D01*
X108312473Y-116673220D01*
X108334969Y-116658188D01*
X108348553Y-116644605D01*
X108368441Y-116635823D01*
X108393579Y-116619027D01*
X108417058Y-116614356D01*
X108434209Y-116606784D01*
X108484401Y-116600961D01*
X108489250Y-116599997D01*
X109389250Y-116599997D01*
X109394100Y-116600961D01*
G37*
G36*
X106994100Y-116513464D02*
G01*
X107044290Y-116519287D01*
X107061439Y-116526859D01*
X107084921Y-116531530D01*
X107110060Y-116548327D01*
X107129946Y-116557108D01*
X107143527Y-116570689D01*
X107166027Y-116585723D01*
X107181060Y-116608222D01*
X107194641Y-116621803D01*
X107203420Y-116641686D01*
X107220220Y-116666829D01*
X107224891Y-116690312D01*
X107232462Y-116707459D01*
X107238283Y-116757639D01*
X107239250Y-116762500D01*
X107239250Y-117462500D01*
X107238282Y-117467363D01*
X107232462Y-117517540D01*
X107224891Y-117534685D01*
X107220220Y-117558171D01*
X107203419Y-117583315D01*
X107194641Y-117603196D01*
X107181062Y-117616774D01*
X107166027Y-117639277D01*
X107143524Y-117654312D01*
X107129946Y-117667891D01*
X107110065Y-117676669D01*
X107084921Y-117693470D01*
X107061435Y-117698141D01*
X107044290Y-117705712D01*
X106994111Y-117711532D01*
X106989250Y-117712500D01*
X106089250Y-117712500D01*
X106084388Y-117711532D01*
X106034209Y-117705712D01*
X106017062Y-117698141D01*
X105993579Y-117693470D01*
X105968436Y-117676670D01*
X105948553Y-117667891D01*
X105934972Y-117654310D01*
X105912473Y-117639277D01*
X105897439Y-117616777D01*
X105883858Y-117603196D01*
X105875077Y-117583310D01*
X105858280Y-117558171D01*
X105853609Y-117534689D01*
X105846037Y-117517540D01*
X105840214Y-117467349D01*
X105839250Y-117462500D01*
X105839250Y-116762500D01*
X105840214Y-116757650D01*
X105846037Y-116707459D01*
X105853609Y-116690308D01*
X105858280Y-116666829D01*
X105875076Y-116641691D01*
X105883858Y-116621803D01*
X105897441Y-116608219D01*
X105912473Y-116585723D01*
X105934969Y-116570691D01*
X105948553Y-116557108D01*
X105968441Y-116548326D01*
X105993579Y-116531530D01*
X106017058Y-116526859D01*
X106034209Y-116519287D01*
X106084401Y-116513464D01*
X106089250Y-116512500D01*
X106989250Y-116512500D01*
X106994100Y-116513464D01*
G37*
G36*
X77604850Y-113300964D02*
G01*
X77655040Y-113306787D01*
X77672189Y-113314359D01*
X77695671Y-113319030D01*
X77720810Y-113335827D01*
X77740696Y-113344608D01*
X77754277Y-113358189D01*
X77776777Y-113373223D01*
X77791810Y-113395722D01*
X77805391Y-113409303D01*
X77814170Y-113429186D01*
X77830970Y-113454329D01*
X77835641Y-113477812D01*
X77843212Y-113494959D01*
X77849033Y-113545139D01*
X77850000Y-113550000D01*
X77850000Y-114450000D01*
X77849032Y-114454863D01*
X77843212Y-114505040D01*
X77835641Y-114522185D01*
X77830970Y-114545671D01*
X77814169Y-114570815D01*
X77805391Y-114590696D01*
X77791812Y-114604274D01*
X77776777Y-114626777D01*
X77754274Y-114641812D01*
X77740696Y-114655391D01*
X77720815Y-114664169D01*
X77695671Y-114680970D01*
X77672185Y-114685641D01*
X77655040Y-114693212D01*
X77604861Y-114699032D01*
X77600000Y-114700000D01*
X76900000Y-114700000D01*
X76895138Y-114699032D01*
X76844959Y-114693212D01*
X76827812Y-114685641D01*
X76804329Y-114680970D01*
X76779186Y-114664170D01*
X76759303Y-114655391D01*
X76745722Y-114641810D01*
X76723223Y-114626777D01*
X76708189Y-114604277D01*
X76694608Y-114590696D01*
X76685827Y-114570810D01*
X76669030Y-114545671D01*
X76664359Y-114522189D01*
X76656787Y-114505040D01*
X76650964Y-114454849D01*
X76650000Y-114450000D01*
X76650000Y-113550000D01*
X76650964Y-113545150D01*
X76656787Y-113494959D01*
X76664359Y-113477808D01*
X76669030Y-113454329D01*
X76685826Y-113429191D01*
X76694608Y-113409303D01*
X76708191Y-113395719D01*
X76723223Y-113373223D01*
X76745719Y-113358191D01*
X76759303Y-113344608D01*
X76779191Y-113335826D01*
X76804329Y-113319030D01*
X76827808Y-113314359D01*
X76844959Y-113306787D01*
X76895151Y-113300964D01*
X76900000Y-113300000D01*
X77600000Y-113300000D01*
X77604850Y-113300964D01*
G37*
G36*
X79604850Y-113300964D02*
G01*
X79655040Y-113306787D01*
X79672189Y-113314359D01*
X79695671Y-113319030D01*
X79720810Y-113335827D01*
X79740696Y-113344608D01*
X79754277Y-113358189D01*
X79776777Y-113373223D01*
X79791810Y-113395722D01*
X79805391Y-113409303D01*
X79814170Y-113429186D01*
X79830970Y-113454329D01*
X79835641Y-113477812D01*
X79843212Y-113494959D01*
X79849033Y-113545139D01*
X79850000Y-113550000D01*
X79850000Y-114450000D01*
X79849032Y-114454863D01*
X79843212Y-114505040D01*
X79835641Y-114522185D01*
X79830970Y-114545671D01*
X79814169Y-114570815D01*
X79805391Y-114590696D01*
X79791812Y-114604274D01*
X79776777Y-114626777D01*
X79754274Y-114641812D01*
X79740696Y-114655391D01*
X79720815Y-114664169D01*
X79695671Y-114680970D01*
X79672185Y-114685641D01*
X79655040Y-114693212D01*
X79604861Y-114699032D01*
X79600000Y-114700000D01*
X78900000Y-114700000D01*
X78895138Y-114699032D01*
X78844959Y-114693212D01*
X78827812Y-114685641D01*
X78804329Y-114680970D01*
X78779186Y-114664170D01*
X78759303Y-114655391D01*
X78745722Y-114641810D01*
X78723223Y-114626777D01*
X78708189Y-114604277D01*
X78694608Y-114590696D01*
X78685827Y-114570810D01*
X78669030Y-114545671D01*
X78664359Y-114522189D01*
X78656787Y-114505040D01*
X78650964Y-114454849D01*
X78650000Y-114450000D01*
X78650000Y-113550000D01*
X78650964Y-113545150D01*
X78656787Y-113494959D01*
X78664359Y-113477808D01*
X78669030Y-113454329D01*
X78685826Y-113429191D01*
X78694608Y-113409303D01*
X78708191Y-113395719D01*
X78723223Y-113373223D01*
X78745719Y-113358191D01*
X78759303Y-113344608D01*
X78779191Y-113335826D01*
X78804329Y-113319030D01*
X78827808Y-113314359D01*
X78844959Y-113306787D01*
X78895151Y-113300964D01*
X78900000Y-113300000D01*
X79600000Y-113300000D01*
X79604850Y-113300964D01*
G37*
G36*
X103902518Y-114120112D02*
G01*
X103934961Y-114141789D01*
X103956638Y-114174232D01*
X103964250Y-114212500D01*
X103964250Y-114412500D01*
X103956638Y-114450768D01*
X103934961Y-114483211D01*
X103902518Y-114504888D01*
X103864250Y-114512500D01*
X103414250Y-114512500D01*
X103375982Y-114504888D01*
X103343539Y-114483211D01*
X103321862Y-114450768D01*
X103314250Y-114412500D01*
X103314250Y-114212500D01*
X103321862Y-114174232D01*
X103343539Y-114141789D01*
X103375982Y-114120112D01*
X103414250Y-114112500D01*
X103864250Y-114112500D01*
X103902518Y-114120112D01*
G37*
G36*
X105802518Y-114120112D02*
G01*
X105834961Y-114141789D01*
X105856638Y-114174232D01*
X105864250Y-114212500D01*
X105864250Y-114412500D01*
X105856638Y-114450768D01*
X105834961Y-114483211D01*
X105802518Y-114504888D01*
X105764250Y-114512500D01*
X105314250Y-114512500D01*
X105275982Y-114504888D01*
X105243539Y-114483211D01*
X105221862Y-114450768D01*
X105214250Y-114412500D01*
X105214250Y-114212500D01*
X105221862Y-114174232D01*
X105243539Y-114141789D01*
X105275982Y-114120112D01*
X105314250Y-114112500D01*
X105764250Y-114112500D01*
X105802518Y-114120112D01*
G37*
G36*
X103902518Y-113470112D02*
G01*
X103934961Y-113491789D01*
X103956638Y-113524232D01*
X103964250Y-113562500D01*
X103964250Y-113762500D01*
X103956638Y-113800768D01*
X103934961Y-113833211D01*
X103902518Y-113854888D01*
X103864250Y-113862500D01*
X103414250Y-113862500D01*
X103375982Y-113854888D01*
X103343539Y-113833211D01*
X103321862Y-113800768D01*
X103314250Y-113762500D01*
X103314250Y-113562500D01*
X103321862Y-113524232D01*
X103343539Y-113491789D01*
X103375982Y-113470112D01*
X103414250Y-113462500D01*
X103864250Y-113462500D01*
X103902518Y-113470112D01*
G37*
G36*
X105802518Y-113470112D02*
G01*
X105834961Y-113491789D01*
X105856638Y-113524232D01*
X105864250Y-113562500D01*
X105864250Y-113762500D01*
X105856638Y-113800768D01*
X105834961Y-113833211D01*
X105802518Y-113854888D01*
X105764250Y-113862500D01*
X105314250Y-113862500D01*
X105275982Y-113854888D01*
X105243539Y-113833211D01*
X105221862Y-113800768D01*
X105214250Y-113762500D01*
X105214250Y-113562500D01*
X105221862Y-113524232D01*
X105243539Y-113491789D01*
X105275982Y-113470112D01*
X105314250Y-113462500D01*
X105764250Y-113462500D01*
X105802518Y-113470112D01*
G37*
G36*
X103902518Y-112820112D02*
G01*
X103934961Y-112841789D01*
X103956638Y-112874232D01*
X103964250Y-112912500D01*
X103964250Y-113112500D01*
X103956638Y-113150768D01*
X103934961Y-113183211D01*
X103902518Y-113204888D01*
X103864250Y-113212500D01*
X103414250Y-113212500D01*
X103375982Y-113204888D01*
X103343539Y-113183211D01*
X103321862Y-113150768D01*
X103314250Y-113112500D01*
X103314250Y-112912500D01*
X103321862Y-112874232D01*
X103343539Y-112841789D01*
X103375982Y-112820112D01*
X103414250Y-112812500D01*
X103864250Y-112812500D01*
X103902518Y-112820112D01*
G37*
G36*
X105802518Y-112820112D02*
G01*
X105834961Y-112841789D01*
X105856638Y-112874232D01*
X105864250Y-112912500D01*
X105864250Y-113112500D01*
X105856638Y-113150768D01*
X105834961Y-113183211D01*
X105802518Y-113204888D01*
X105764250Y-113212500D01*
X105314250Y-113212500D01*
X105275982Y-113204888D01*
X105243539Y-113183211D01*
X105221862Y-113150768D01*
X105214250Y-113112500D01*
X105214250Y-112912500D01*
X105221862Y-112874232D01*
X105243539Y-112841789D01*
X105275982Y-112820112D01*
X105314250Y-112812500D01*
X105764250Y-112812500D01*
X105802518Y-112820112D01*
G37*
G36*
X77604850Y-111300964D02*
G01*
X77655040Y-111306787D01*
X77672189Y-111314359D01*
X77695671Y-111319030D01*
X77720810Y-111335827D01*
X77740696Y-111344608D01*
X77754277Y-111358189D01*
X77776777Y-111373223D01*
X77791810Y-111395722D01*
X77805391Y-111409303D01*
X77814170Y-111429186D01*
X77830970Y-111454329D01*
X77835641Y-111477812D01*
X77843212Y-111494959D01*
X77849033Y-111545139D01*
X77850000Y-111550000D01*
X77850000Y-112450000D01*
X77849032Y-112454863D01*
X77843212Y-112505040D01*
X77835641Y-112522185D01*
X77830970Y-112545671D01*
X77814169Y-112570815D01*
X77805391Y-112590696D01*
X77791812Y-112604274D01*
X77776777Y-112626777D01*
X77754274Y-112641812D01*
X77740696Y-112655391D01*
X77720815Y-112664169D01*
X77695671Y-112680970D01*
X77672185Y-112685641D01*
X77655040Y-112693212D01*
X77604861Y-112699032D01*
X77600000Y-112700000D01*
X76900000Y-112700000D01*
X76895138Y-112699032D01*
X76844959Y-112693212D01*
X76827812Y-112685641D01*
X76804329Y-112680970D01*
X76779186Y-112664170D01*
X76759303Y-112655391D01*
X76745722Y-112641810D01*
X76723223Y-112626777D01*
X76708189Y-112604277D01*
X76694608Y-112590696D01*
X76685827Y-112570810D01*
X76669030Y-112545671D01*
X76664359Y-112522189D01*
X76656787Y-112505040D01*
X76650964Y-112454849D01*
X76650000Y-112450000D01*
X76650000Y-111550000D01*
X76650964Y-111545150D01*
X76656787Y-111494959D01*
X76664359Y-111477808D01*
X76669030Y-111454329D01*
X76685826Y-111429191D01*
X76694608Y-111409303D01*
X76708191Y-111395719D01*
X76723223Y-111373223D01*
X76745719Y-111358191D01*
X76759303Y-111344608D01*
X76779191Y-111335826D01*
X76804329Y-111319030D01*
X76827808Y-111314359D01*
X76844959Y-111306787D01*
X76895151Y-111300964D01*
X76900000Y-111300000D01*
X77600000Y-111300000D01*
X77604850Y-111300964D01*
G37*
G36*
X79604850Y-111300964D02*
G01*
X79655040Y-111306787D01*
X79672189Y-111314359D01*
X79695671Y-111319030D01*
X79720810Y-111335827D01*
X79740696Y-111344608D01*
X79754277Y-111358189D01*
X79776777Y-111373223D01*
X79791810Y-111395722D01*
X79805391Y-111409303D01*
X79814170Y-111429186D01*
X79830970Y-111454329D01*
X79835641Y-111477812D01*
X79843212Y-111494959D01*
X79849033Y-111545139D01*
X79850000Y-111550000D01*
X79850000Y-112450000D01*
X79849032Y-112454863D01*
X79843212Y-112505040D01*
X79835641Y-112522185D01*
X79830970Y-112545671D01*
X79814169Y-112570815D01*
X79805391Y-112590696D01*
X79791812Y-112604274D01*
X79776777Y-112626777D01*
X79754274Y-112641812D01*
X79740696Y-112655391D01*
X79720815Y-112664169D01*
X79695671Y-112680970D01*
X79672185Y-112685641D01*
X79655040Y-112693212D01*
X79604861Y-112699032D01*
X79600000Y-112700000D01*
X78900000Y-112700000D01*
X78895138Y-112699032D01*
X78844959Y-112693212D01*
X78827812Y-112685641D01*
X78804329Y-112680970D01*
X78779186Y-112664170D01*
X78759303Y-112655391D01*
X78745722Y-112641810D01*
X78723223Y-112626777D01*
X78708189Y-112604277D01*
X78694608Y-112590696D01*
X78685827Y-112570810D01*
X78669030Y-112545671D01*
X78664359Y-112522189D01*
X78656787Y-112505040D01*
X78650964Y-112454849D01*
X78650000Y-112450000D01*
X78650000Y-111550000D01*
X78650964Y-111545150D01*
X78656787Y-111494959D01*
X78664359Y-111477808D01*
X78669030Y-111454329D01*
X78685826Y-111429191D01*
X78694608Y-111409303D01*
X78708191Y-111395719D01*
X78723223Y-111373223D01*
X78745719Y-111358191D01*
X78759303Y-111344608D01*
X78779191Y-111335826D01*
X78804329Y-111319030D01*
X78827808Y-111314359D01*
X78844959Y-111306787D01*
X78895151Y-111300964D01*
X78900000Y-111300000D01*
X79600000Y-111300000D01*
X79604850Y-111300964D01*
G37*
G36*
X97922401Y-110882501D02*
G01*
X97160401Y-110882501D01*
X97160401Y-109434701D01*
X97922401Y-109434701D01*
X97922401Y-110882501D01*
G37*
G36*
X98922399Y-110882501D02*
G01*
X98160399Y-110882501D01*
X98160399Y-109434701D01*
X98922399Y-109434701D01*
X98922399Y-110882501D01*
G37*
G36*
X99922399Y-110882501D02*
G01*
X99160399Y-110882501D01*
X99160399Y-109434701D01*
X99922399Y-109434701D01*
X99922399Y-110882501D01*
G37*
G36*
X100922400Y-110882501D02*
G01*
X100160400Y-110882501D01*
X100160400Y-109434701D01*
X100922400Y-109434701D01*
X100922400Y-110882501D01*
G37*
G36*
X101922400Y-110882501D02*
G01*
X101160400Y-110882501D01*
X101160400Y-109434701D01*
X101922400Y-109434701D01*
X101922400Y-110882501D01*
G37*
G36*
X102922401Y-110882501D02*
G01*
X102160401Y-110882501D01*
X102160401Y-109434701D01*
X102922401Y-109434701D01*
X102922401Y-110882501D01*
G37*
G36*
X103922399Y-110882501D02*
G01*
X103160399Y-110882501D01*
X103160399Y-109434701D01*
X103922399Y-109434701D01*
X103922399Y-110882501D01*
G37*
G36*
X104922399Y-110882501D02*
G01*
X104160399Y-110882501D01*
X104160399Y-109434701D01*
X104922399Y-109434701D01*
X104922399Y-110882501D01*
G37*
G36*
X105922400Y-110882501D02*
G01*
X105160400Y-110882501D01*
X105160400Y-109434701D01*
X105922400Y-109434701D01*
X105922400Y-110882501D01*
G37*
G36*
X106922401Y-110882501D02*
G01*
X106160401Y-110882501D01*
X106160401Y-109434701D01*
X106922401Y-109434701D01*
X106922401Y-110882501D01*
G37*
G36*
X107922401Y-110882501D02*
G01*
X107160401Y-110882501D01*
X107160401Y-109434701D01*
X107922401Y-109434701D01*
X107922401Y-110882501D01*
G37*
G36*
X108922399Y-110882501D02*
G01*
X108160399Y-110882501D01*
X108160399Y-109434701D01*
X108922399Y-109434701D01*
X108922399Y-110882501D01*
G37*
G36*
X109922400Y-110882501D02*
G01*
X109160400Y-110882501D01*
X109160400Y-109434701D01*
X109922400Y-109434701D01*
X109922400Y-110882501D01*
G37*
G36*
X110922400Y-110882501D02*
G01*
X110160400Y-110882501D01*
X110160400Y-109434701D01*
X110922400Y-109434701D01*
X110922400Y-110882501D01*
G37*
G36*
X111922401Y-110882501D02*
G01*
X111160401Y-110882501D01*
X111160401Y-109434701D01*
X111922401Y-109434701D01*
X111922401Y-110882501D01*
G37*
G36*
X112922401Y-110882501D02*
G01*
X112160401Y-110882501D01*
X112160401Y-109434701D01*
X112922401Y-109434701D01*
X112922401Y-110882501D01*
G37*
G36*
X113922399Y-110882501D02*
G01*
X113160399Y-110882501D01*
X113160399Y-109434701D01*
X113922399Y-109434701D01*
X113922399Y-110882501D01*
G37*
G36*
X78030768Y-110307612D02*
G01*
X78063211Y-110329289D01*
X78084888Y-110361732D01*
X78092500Y-110400000D01*
X78092500Y-110600000D01*
X78084888Y-110638268D01*
X78063211Y-110670711D01*
X78030768Y-110692388D01*
X77992500Y-110700000D01*
X77557500Y-110700000D01*
X77519232Y-110692388D01*
X77486789Y-110670711D01*
X77465112Y-110638268D01*
X77457500Y-110600000D01*
X77457500Y-110400000D01*
X77465112Y-110361732D01*
X77486789Y-110329289D01*
X77519232Y-110307612D01*
X77557500Y-110300000D01*
X77992500Y-110300000D01*
X78030768Y-110307612D01*
G37*
G36*
X78845768Y-110307612D02*
G01*
X78878211Y-110329289D01*
X78899888Y-110361732D01*
X78907500Y-110400000D01*
X78907500Y-110600000D01*
X78899888Y-110638268D01*
X78878211Y-110670711D01*
X78845768Y-110692388D01*
X78807500Y-110700000D01*
X78372500Y-110700000D01*
X78334232Y-110692388D01*
X78301789Y-110670711D01*
X78280112Y-110638268D01*
X78272500Y-110600000D01*
X78272500Y-110400000D01*
X78280112Y-110361732D01*
X78301789Y-110329289D01*
X78334232Y-110307612D01*
X78372500Y-110300000D01*
X78807500Y-110300000D01*
X78845768Y-110307612D01*
G37*
G36*
X77961229Y-109192179D02*
G01*
X78013137Y-109226863D01*
X78047821Y-109278771D01*
X78060000Y-109340000D01*
X78060000Y-109660000D01*
X78047821Y-109721229D01*
X78013137Y-109773137D01*
X77961229Y-109807821D01*
X77900000Y-109820000D01*
X77455000Y-109820000D01*
X77393771Y-109807821D01*
X77341863Y-109773137D01*
X77307179Y-109721229D01*
X77295000Y-109660000D01*
X77295000Y-109340000D01*
X77307179Y-109278771D01*
X77341863Y-109226863D01*
X77393771Y-109192179D01*
X77455000Y-109180000D01*
X77900000Y-109180000D01*
X77961229Y-109192179D01*
G37*
G36*
X79106229Y-109192179D02*
G01*
X79158137Y-109226863D01*
X79192821Y-109278771D01*
X79205000Y-109340000D01*
X79205000Y-109660000D01*
X79192821Y-109721229D01*
X79158137Y-109773137D01*
X79106229Y-109807821D01*
X79045000Y-109820000D01*
X78600000Y-109820000D01*
X78538771Y-109807821D01*
X78486863Y-109773137D01*
X78452179Y-109721229D01*
X78440000Y-109660000D01*
X78440000Y-109340000D01*
X78452179Y-109278771D01*
X78486863Y-109226863D01*
X78538771Y-109192179D01*
X78600000Y-109180000D01*
X79045000Y-109180000D01*
X79106229Y-109192179D01*
G37*
G36*
X85354850Y-107800964D02*
G01*
X85405040Y-107806787D01*
X85422189Y-107814359D01*
X85445671Y-107819030D01*
X85470810Y-107835827D01*
X85490696Y-107844608D01*
X85504277Y-107858189D01*
X85526777Y-107873223D01*
X85541810Y-107895722D01*
X85555391Y-107909303D01*
X85564170Y-107929186D01*
X85580970Y-107954329D01*
X85585641Y-107977812D01*
X85593212Y-107994959D01*
X85599033Y-108045139D01*
X85600000Y-108050000D01*
X85600000Y-108950000D01*
X85599032Y-108954863D01*
X85593212Y-109005040D01*
X85585641Y-109022185D01*
X85580970Y-109045671D01*
X85564169Y-109070815D01*
X85555391Y-109090696D01*
X85541812Y-109104274D01*
X85526777Y-109126777D01*
X85504274Y-109141812D01*
X85490696Y-109155391D01*
X85470815Y-109164169D01*
X85445671Y-109180970D01*
X85422185Y-109185641D01*
X85405040Y-109193212D01*
X85354861Y-109199032D01*
X85350000Y-109200000D01*
X84650000Y-109200000D01*
X84645138Y-109199032D01*
X84594959Y-109193212D01*
X84577812Y-109185641D01*
X84554329Y-109180970D01*
X84529186Y-109164170D01*
X84509303Y-109155391D01*
X84495722Y-109141810D01*
X84473223Y-109126777D01*
X84458189Y-109104277D01*
X84444608Y-109090696D01*
X84435827Y-109070810D01*
X84419030Y-109045671D01*
X84414359Y-109022189D01*
X84406787Y-109005040D01*
X84400964Y-108954849D01*
X84400000Y-108950000D01*
X84400000Y-108050000D01*
X84400964Y-108045150D01*
X84406787Y-107994959D01*
X84414359Y-107977808D01*
X84419030Y-107954329D01*
X84435826Y-107929191D01*
X84444608Y-107909303D01*
X84458191Y-107895719D01*
X84473223Y-107873223D01*
X84495719Y-107858191D01*
X84509303Y-107844608D01*
X84529191Y-107835826D01*
X84554329Y-107819030D01*
X84577808Y-107814359D01*
X84594959Y-107806787D01*
X84645151Y-107800964D01*
X84650000Y-107800000D01*
X85350000Y-107800000D01*
X85354850Y-107800964D01*
G37*
G36*
X87354850Y-107800964D02*
G01*
X87405040Y-107806787D01*
X87422189Y-107814359D01*
X87445671Y-107819030D01*
X87470810Y-107835827D01*
X87490696Y-107844608D01*
X87504277Y-107858189D01*
X87526777Y-107873223D01*
X87541810Y-107895722D01*
X87555391Y-107909303D01*
X87564170Y-107929186D01*
X87580970Y-107954329D01*
X87585641Y-107977812D01*
X87593212Y-107994959D01*
X87599033Y-108045139D01*
X87600000Y-108050000D01*
X87600000Y-108950000D01*
X87599032Y-108954863D01*
X87593212Y-109005040D01*
X87585641Y-109022185D01*
X87580970Y-109045671D01*
X87564169Y-109070815D01*
X87555391Y-109090696D01*
X87541812Y-109104274D01*
X87526777Y-109126777D01*
X87504274Y-109141812D01*
X87490696Y-109155391D01*
X87470815Y-109164169D01*
X87445671Y-109180970D01*
X87422185Y-109185641D01*
X87405040Y-109193212D01*
X87354861Y-109199032D01*
X87350000Y-109200000D01*
X86650000Y-109200000D01*
X86645138Y-109199032D01*
X86594959Y-109193212D01*
X86577812Y-109185641D01*
X86554329Y-109180970D01*
X86529186Y-109164170D01*
X86509303Y-109155391D01*
X86495722Y-109141810D01*
X86473223Y-109126777D01*
X86458189Y-109104277D01*
X86444608Y-109090696D01*
X86435827Y-109070810D01*
X86419030Y-109045671D01*
X86414359Y-109022189D01*
X86406787Y-109005040D01*
X86400964Y-108954849D01*
X86400000Y-108950000D01*
X86400000Y-108050000D01*
X86400964Y-108045150D01*
X86406787Y-107994959D01*
X86414359Y-107977808D01*
X86419030Y-107954329D01*
X86435826Y-107929191D01*
X86444608Y-107909303D01*
X86458191Y-107895719D01*
X86473223Y-107873223D01*
X86495719Y-107858191D01*
X86509303Y-107844608D01*
X86529191Y-107835826D01*
X86554329Y-107819030D01*
X86577808Y-107814359D01*
X86594959Y-107806787D01*
X86645151Y-107800964D01*
X86650000Y-107800000D01*
X87350000Y-107800000D01*
X87354850Y-107800964D01*
G37*
G36*
X82461229Y-107942179D02*
G01*
X82513137Y-107976863D01*
X82547821Y-108028771D01*
X82560000Y-108090000D01*
X82560000Y-108410000D01*
X82547821Y-108471229D01*
X82513137Y-108523137D01*
X82461229Y-108557821D01*
X82400000Y-108570000D01*
X81955000Y-108570000D01*
X81893771Y-108557821D01*
X81841863Y-108523137D01*
X81807179Y-108471229D01*
X81795000Y-108410000D01*
X81795000Y-108090000D01*
X81807179Y-108028771D01*
X81841863Y-107976863D01*
X81893771Y-107942179D01*
X81955000Y-107930000D01*
X82400000Y-107930000D01*
X82461229Y-107942179D01*
G37*
G36*
X83606229Y-107942179D02*
G01*
X83658137Y-107976863D01*
X83692821Y-108028771D01*
X83705000Y-108090000D01*
X83705000Y-108410000D01*
X83692821Y-108471229D01*
X83658137Y-108523137D01*
X83606229Y-108557821D01*
X83545000Y-108570000D01*
X83100000Y-108570000D01*
X83038771Y-108557821D01*
X82986863Y-108523137D01*
X82952179Y-108471229D01*
X82940000Y-108410000D01*
X82940000Y-108090000D01*
X82952179Y-108028771D01*
X82986863Y-107976863D01*
X83038771Y-107942179D01*
X83100000Y-107930000D01*
X83545000Y-107930000D01*
X83606229Y-107942179D01*
G37*
G36*
X78018462Y-105631775D02*
G01*
X78190086Y-105687539D01*
X78350873Y-105769464D01*
X78496865Y-105875533D01*
X78624467Y-106003135D01*
X78730536Y-106149127D01*
X78812461Y-106309914D01*
X78868225Y-106481538D01*
X78896455Y-106659772D01*
X78896455Y-106840228D01*
X78868225Y-107018462D01*
X78812461Y-107190086D01*
X78730536Y-107350873D01*
X78624467Y-107496865D01*
X78496865Y-107624467D01*
X78350873Y-107730536D01*
X78190086Y-107812461D01*
X78018462Y-107868225D01*
X77840228Y-107896455D01*
X77659772Y-107896455D01*
X77481538Y-107868225D01*
X77309914Y-107812461D01*
X77149127Y-107730536D01*
X77003135Y-107624467D01*
X76875533Y-107496865D01*
X76769464Y-107350873D01*
X76687539Y-107190086D01*
X76631775Y-107018462D01*
X76603545Y-106840228D01*
X76603545Y-106659772D01*
X76631775Y-106481538D01*
X76687539Y-106309914D01*
X76769464Y-106149127D01*
X76875533Y-106003135D01*
X77003135Y-105875533D01*
X77149127Y-105769464D01*
X77309914Y-105687539D01*
X77481538Y-105631775D01*
X77659772Y-105603545D01*
X77840228Y-105603545D01*
X78018462Y-105631775D01*
G37*
G36*
X92079850Y-106075964D02*
G01*
X92130040Y-106081787D01*
X92147189Y-106089359D01*
X92170671Y-106094030D01*
X92195810Y-106110827D01*
X92215696Y-106119608D01*
X92229277Y-106133189D01*
X92251777Y-106148223D01*
X92266810Y-106170722D01*
X92280391Y-106184303D01*
X92289170Y-106204186D01*
X92305970Y-106229329D01*
X92310641Y-106252812D01*
X92318212Y-106269959D01*
X92324033Y-106320139D01*
X92325000Y-106325000D01*
X92325000Y-107175000D01*
X92324032Y-107179863D01*
X92318212Y-107230040D01*
X92310641Y-107247185D01*
X92305970Y-107270671D01*
X92289169Y-107295815D01*
X92280391Y-107315696D01*
X92266812Y-107329274D01*
X92251777Y-107351777D01*
X92229274Y-107366812D01*
X92215696Y-107380391D01*
X92195815Y-107389169D01*
X92170671Y-107405970D01*
X92147185Y-107410641D01*
X92130040Y-107418212D01*
X92079861Y-107424032D01*
X92075000Y-107425000D01*
X89925000Y-107425000D01*
X89920138Y-107424032D01*
X89869959Y-107418212D01*
X89852812Y-107410641D01*
X89829329Y-107405970D01*
X89804186Y-107389170D01*
X89784303Y-107380391D01*
X89770722Y-107366810D01*
X89748223Y-107351777D01*
X89733189Y-107329277D01*
X89719608Y-107315696D01*
X89710827Y-107295810D01*
X89694030Y-107270671D01*
X89689359Y-107247189D01*
X89681787Y-107230040D01*
X89675964Y-107179849D01*
X89675000Y-107175000D01*
X89675000Y-106325000D01*
X89675964Y-106320150D01*
X89681787Y-106269959D01*
X89689359Y-106252808D01*
X89694030Y-106229329D01*
X89710826Y-106204191D01*
X89719608Y-106184303D01*
X89733191Y-106170719D01*
X89748223Y-106148223D01*
X89770719Y-106133191D01*
X89784303Y-106119608D01*
X89804191Y-106110826D01*
X89829329Y-106094030D01*
X89852808Y-106089359D01*
X89869959Y-106081787D01*
X89920151Y-106075964D01*
X89925000Y-106075000D01*
X92075000Y-106075000D01*
X92079850Y-106075964D01*
G37*
G36*
X94606700Y-106881000D02*
G01*
X93158900Y-106881000D01*
X93158900Y-106119000D01*
X94606700Y-106119000D01*
X94606700Y-106881000D01*
G37*
G36*
X117923900Y-106881000D02*
G01*
X116476100Y-106881000D01*
X116476100Y-106119000D01*
X117923900Y-106119000D01*
X117923900Y-106881000D01*
G37*
G36*
X83425000Y-106805000D02*
G01*
X81875000Y-106805000D01*
X81875000Y-106205000D01*
X83425000Y-106205000D01*
X83425000Y-106805000D01*
G37*
G36*
X88825000Y-106805000D02*
G01*
X87275000Y-106805000D01*
X87275000Y-106205000D01*
X88825000Y-106205000D01*
X88825000Y-106805000D01*
G37*
G36*
X86650000Y-106150000D02*
G01*
X84050000Y-106150000D01*
X84050000Y-103050000D01*
X86650000Y-103050000D01*
X86650000Y-106150000D01*
G37*
G36*
X94606700Y-105881002D02*
G01*
X93158900Y-105881002D01*
X93158900Y-105119002D01*
X94606700Y-105119002D01*
X94606700Y-105881002D01*
G37*
G36*
X117923900Y-105881002D02*
G01*
X116476100Y-105881002D01*
X116476100Y-105119002D01*
X117923900Y-105119002D01*
X117923900Y-105881002D01*
G37*
G36*
X83425000Y-105535000D02*
G01*
X81875000Y-105535000D01*
X81875000Y-104935000D01*
X83425000Y-104935000D01*
X83425000Y-105535000D01*
G37*
G36*
X88825000Y-105535000D02*
G01*
X87275000Y-105535000D01*
X87275000Y-104935000D01*
X88825000Y-104935000D01*
X88825000Y-105535000D01*
G37*
G36*
X94606700Y-104881002D02*
G01*
X93158900Y-104881002D01*
X93158900Y-104119002D01*
X94606700Y-104119002D01*
X94606700Y-104881002D01*
G37*
G36*
X117923900Y-104881002D02*
G01*
X116476100Y-104881002D01*
X116476100Y-104119002D01*
X117923900Y-104119002D01*
X117923900Y-104881002D01*
G37*
G36*
X78654848Y-102100964D02*
G01*
X78705040Y-102106787D01*
X78722189Y-102114359D01*
X78745670Y-102119030D01*
X78770807Y-102135826D01*
X78790695Y-102144608D01*
X78804278Y-102158191D01*
X78826776Y-102173224D01*
X78841808Y-102195721D01*
X78855391Y-102209304D01*
X78864171Y-102229189D01*
X78880970Y-102254330D01*
X78885640Y-102277811D01*
X78893212Y-102294959D01*
X78899036Y-102345163D01*
X78899999Y-102350002D01*
X78899999Y-102353458D01*
X78900000Y-102353467D01*
X78900000Y-103665000D01*
X78900000Y-104149999D01*
X78899034Y-104154851D01*
X78893212Y-104205040D01*
X78885641Y-104222185D01*
X78880970Y-104245670D01*
X78864170Y-104270812D01*
X78855391Y-104290695D01*
X78841810Y-104304275D01*
X78826776Y-104326776D01*
X78804275Y-104341810D01*
X78790695Y-104355391D01*
X78770812Y-104364170D01*
X78745670Y-104380970D01*
X78722187Y-104385640D01*
X78705040Y-104393212D01*
X78654836Y-104399036D01*
X78649998Y-104399999D01*
X78646541Y-104399999D01*
X78646533Y-104400000D01*
X76853467Y-104400000D01*
X76853466Y-104399999D01*
X76850001Y-104400000D01*
X76845149Y-104399035D01*
X76794959Y-104393212D01*
X76777812Y-104385640D01*
X76754330Y-104380970D01*
X76729189Y-104364171D01*
X76709304Y-104355391D01*
X76695721Y-104341808D01*
X76673224Y-104326776D01*
X76658191Y-104304278D01*
X76644608Y-104290695D01*
X76635826Y-104270807D01*
X76619030Y-104245670D01*
X76614360Y-104222191D01*
X76606787Y-104205040D01*
X76600963Y-104154836D01*
X76600001Y-104149998D01*
X76600000Y-104146540D01*
X76600000Y-104146532D01*
X76600000Y-102353467D01*
X76600000Y-102353466D01*
X76600000Y-102350001D01*
X76600964Y-102345151D01*
X76606787Y-102294959D01*
X76614359Y-102277808D01*
X76619030Y-102254330D01*
X76635825Y-102229193D01*
X76644608Y-102209304D01*
X76658193Y-102195718D01*
X76673224Y-102173224D01*
X76695718Y-102158193D01*
X76709304Y-102144608D01*
X76729193Y-102135825D01*
X76754330Y-102119030D01*
X76777807Y-102114360D01*
X76794959Y-102106787D01*
X76845165Y-102100963D01*
X76850002Y-102100001D01*
X76853458Y-102100000D01*
X76853467Y-102100000D01*
X78646533Y-102100000D01*
X78649999Y-102100000D01*
X78654848Y-102100964D01*
G37*
G36*
X83425000Y-104265000D02*
G01*
X81875000Y-104265000D01*
X81875000Y-103665000D01*
X83425000Y-103665000D01*
X83425000Y-104265000D01*
G37*
G36*
X88825000Y-104265000D02*
G01*
X87275000Y-104265000D01*
X87275000Y-103665000D01*
X88825000Y-103665000D01*
X88825000Y-104265000D01*
G37*
G36*
X94606700Y-103881001D02*
G01*
X93158900Y-103881001D01*
X93158900Y-103119001D01*
X94606700Y-103119001D01*
X94606700Y-103881001D01*
G37*
G36*
X117923900Y-103881001D02*
G01*
X116476100Y-103881001D01*
X116476100Y-103119001D01*
X117923900Y-103119001D01*
X117923900Y-103881001D01*
G37*
G36*
X83425000Y-102995000D02*
G01*
X81875000Y-102995000D01*
X81875000Y-102395000D01*
X83425000Y-102395000D01*
X83425000Y-102995000D01*
G37*
G36*
X88825000Y-102995000D02*
G01*
X87275000Y-102995000D01*
X87275000Y-102395000D01*
X88825000Y-102395000D01*
X88825000Y-102995000D01*
G37*
G36*
X92079850Y-101575964D02*
G01*
X92130040Y-101581787D01*
X92147189Y-101589359D01*
X92170671Y-101594030D01*
X92195810Y-101610827D01*
X92215696Y-101619608D01*
X92229277Y-101633189D01*
X92251777Y-101648223D01*
X92266810Y-101670722D01*
X92280391Y-101684303D01*
X92289170Y-101704186D01*
X92305970Y-101729329D01*
X92310641Y-101752812D01*
X92318212Y-101769959D01*
X92324033Y-101820139D01*
X92325000Y-101825000D01*
X92325000Y-102675000D01*
X92324032Y-102679863D01*
X92318212Y-102730040D01*
X92310641Y-102747185D01*
X92305970Y-102770671D01*
X92289169Y-102795815D01*
X92280391Y-102815696D01*
X92266812Y-102829274D01*
X92251777Y-102851777D01*
X92229274Y-102866812D01*
X92215696Y-102880391D01*
X92195815Y-102889169D01*
X92170671Y-102905970D01*
X92147185Y-102910641D01*
X92130040Y-102918212D01*
X92079861Y-102924032D01*
X92075000Y-102925000D01*
X89925000Y-102925000D01*
X89920138Y-102924032D01*
X89869959Y-102918212D01*
X89852812Y-102910641D01*
X89829329Y-102905970D01*
X89804186Y-102889170D01*
X89784303Y-102880391D01*
X89770722Y-102866810D01*
X89748223Y-102851777D01*
X89733189Y-102829277D01*
X89719608Y-102815696D01*
X89710827Y-102795810D01*
X89694030Y-102770671D01*
X89689359Y-102747189D01*
X89681787Y-102730040D01*
X89675964Y-102679849D01*
X89675000Y-102675000D01*
X89675000Y-101825000D01*
X89675964Y-101820150D01*
X89681787Y-101769959D01*
X89689359Y-101752808D01*
X89694030Y-101729329D01*
X89710826Y-101704191D01*
X89719608Y-101684303D01*
X89733191Y-101670719D01*
X89748223Y-101648223D01*
X89770719Y-101633191D01*
X89784303Y-101619608D01*
X89804191Y-101610826D01*
X89829329Y-101594030D01*
X89852808Y-101589359D01*
X89869959Y-101581787D01*
X89920151Y-101575964D01*
X89925000Y-101575000D01*
X92075000Y-101575000D01*
X92079850Y-101575964D01*
G37*
G36*
X94606700Y-102881001D02*
G01*
X93158900Y-102881001D01*
X93158900Y-102119001D01*
X94606700Y-102119001D01*
X94606700Y-102881001D01*
G37*
G36*
X117923900Y-102881001D02*
G01*
X116476100Y-102881001D01*
X116476100Y-102119001D01*
X117923900Y-102119001D01*
X117923900Y-102881001D01*
G37*
G36*
X94606700Y-101881000D02*
G01*
X93158900Y-101881000D01*
X93158900Y-101119000D01*
X94606700Y-101119000D01*
X94606700Y-101881000D01*
G37*
G36*
X117923900Y-101881000D02*
G01*
X116476100Y-101881000D01*
X116476100Y-101119000D01*
X117923900Y-101119000D01*
X117923900Y-101881000D01*
G37*
G36*
X82415768Y-101057612D02*
G01*
X82448211Y-101079289D01*
X82469888Y-101111732D01*
X82477500Y-101150000D01*
X82477500Y-101350000D01*
X82469888Y-101388268D01*
X82448211Y-101420711D01*
X82415768Y-101442388D01*
X82377500Y-101450000D01*
X81942500Y-101450000D01*
X81904232Y-101442388D01*
X81871789Y-101420711D01*
X81850112Y-101388268D01*
X81842500Y-101350000D01*
X81842500Y-101150000D01*
X81850112Y-101111732D01*
X81871789Y-101079289D01*
X81904232Y-101057612D01*
X81942500Y-101050000D01*
X82377500Y-101050000D01*
X82415768Y-101057612D01*
G37*
G36*
X83230768Y-101057612D02*
G01*
X83263211Y-101079289D01*
X83284888Y-101111732D01*
X83292500Y-101150000D01*
X83292500Y-101350000D01*
X83284888Y-101388268D01*
X83263211Y-101420711D01*
X83230768Y-101442388D01*
X83192500Y-101450000D01*
X82757500Y-101450000D01*
X82719232Y-101442388D01*
X82686789Y-101420711D01*
X82665112Y-101388268D01*
X82657500Y-101350000D01*
X82657500Y-101150000D01*
X82665112Y-101111732D01*
X82686789Y-101079289D01*
X82719232Y-101057612D01*
X82757500Y-101050000D01*
X83192500Y-101050000D01*
X83230768Y-101057612D01*
G37*
G36*
X120076250Y-100205965D02*
G01*
X120126440Y-100211788D01*
X120143589Y-100219360D01*
X120167071Y-100224031D01*
X120192210Y-100240828D01*
X120212096Y-100249609D01*
X120225677Y-100263190D01*
X120248177Y-100278224D01*
X120263210Y-100300723D01*
X120276791Y-100314304D01*
X120285570Y-100334187D01*
X120302370Y-100359330D01*
X120307041Y-100382813D01*
X120314612Y-100399960D01*
X120320433Y-100450140D01*
X120321400Y-100455001D01*
X120321400Y-101045001D01*
X120320432Y-101049864D01*
X120314612Y-101100041D01*
X120307041Y-101117186D01*
X120302370Y-101140672D01*
X120285569Y-101165816D01*
X120276791Y-101185697D01*
X120263212Y-101199275D01*
X120248177Y-101221778D01*
X120225674Y-101236813D01*
X120212096Y-101250392D01*
X120192215Y-101259170D01*
X120167071Y-101275971D01*
X120143585Y-101280642D01*
X120126440Y-101288213D01*
X120076261Y-101294033D01*
X120071400Y-101295001D01*
X119256400Y-101295001D01*
X119251538Y-101294033D01*
X119201359Y-101288213D01*
X119184212Y-101280642D01*
X119160729Y-101275971D01*
X119135586Y-101259171D01*
X119115703Y-101250392D01*
X119102122Y-101236811D01*
X119079623Y-101221778D01*
X119064589Y-101199278D01*
X119051008Y-101185697D01*
X119042227Y-101165811D01*
X119025430Y-101140672D01*
X119020759Y-101117190D01*
X119013187Y-101100041D01*
X119007364Y-101049850D01*
X119006400Y-101045001D01*
X119006400Y-100455001D01*
X119007364Y-100450151D01*
X119013187Y-100399960D01*
X119020759Y-100382809D01*
X119025430Y-100359330D01*
X119042226Y-100334192D01*
X119051008Y-100314304D01*
X119064591Y-100300720D01*
X119079623Y-100278224D01*
X119102119Y-100263192D01*
X119115703Y-100249609D01*
X119135591Y-100240827D01*
X119160729Y-100224031D01*
X119184208Y-100219360D01*
X119201359Y-100211788D01*
X119251551Y-100205965D01*
X119256400Y-100205001D01*
X120071400Y-100205001D01*
X120076250Y-100205965D01*
G37*
G36*
X122031250Y-100205965D02*
G01*
X122081440Y-100211788D01*
X122098589Y-100219360D01*
X122122071Y-100224031D01*
X122147210Y-100240828D01*
X122167096Y-100249609D01*
X122180677Y-100263190D01*
X122203177Y-100278224D01*
X122218210Y-100300723D01*
X122231791Y-100314304D01*
X122240570Y-100334187D01*
X122257370Y-100359330D01*
X122262041Y-100382813D01*
X122269612Y-100399960D01*
X122275433Y-100450140D01*
X122276400Y-100455001D01*
X122276400Y-101045001D01*
X122275432Y-101049864D01*
X122269612Y-101100041D01*
X122262041Y-101117186D01*
X122257370Y-101140672D01*
X122240569Y-101165816D01*
X122231791Y-101185697D01*
X122218212Y-101199275D01*
X122203177Y-101221778D01*
X122180674Y-101236813D01*
X122167096Y-101250392D01*
X122147215Y-101259170D01*
X122122071Y-101275971D01*
X122098585Y-101280642D01*
X122081440Y-101288213D01*
X122031261Y-101294033D01*
X122026400Y-101295001D01*
X121211400Y-101295001D01*
X121206538Y-101294033D01*
X121156359Y-101288213D01*
X121139212Y-101280642D01*
X121115729Y-101275971D01*
X121090586Y-101259171D01*
X121070703Y-101250392D01*
X121057122Y-101236811D01*
X121034623Y-101221778D01*
X121019589Y-101199278D01*
X121006008Y-101185697D01*
X120997227Y-101165811D01*
X120980430Y-101140672D01*
X120975759Y-101117190D01*
X120968187Y-101100041D01*
X120962364Y-101049850D01*
X120961400Y-101045001D01*
X120961400Y-100455001D01*
X120962364Y-100450151D01*
X120968187Y-100399960D01*
X120975759Y-100382809D01*
X120980430Y-100359330D01*
X120997226Y-100334192D01*
X121006008Y-100314304D01*
X121019591Y-100300720D01*
X121034623Y-100278224D01*
X121057119Y-100263192D01*
X121070703Y-100249609D01*
X121090591Y-100240827D01*
X121115729Y-100224031D01*
X121139208Y-100219360D01*
X121156359Y-100211788D01*
X121206551Y-100205965D01*
X121211400Y-100205001D01*
X122026400Y-100205001D01*
X122031250Y-100205965D01*
G37*
G36*
X94606700Y-100881002D02*
G01*
X93158900Y-100881002D01*
X93158900Y-100119002D01*
X94606700Y-100119002D01*
X94606700Y-100881002D01*
G37*
G36*
X117923900Y-100881002D02*
G01*
X116476100Y-100881002D01*
X116476100Y-100119002D01*
X117923900Y-100119002D01*
X117923900Y-100881002D01*
G37*
G36*
X75429850Y-97675964D02*
G01*
X75480041Y-97681787D01*
X75497191Y-97689359D01*
X75520671Y-97694030D01*
X75545806Y-97710825D01*
X75565696Y-97719607D01*
X75579280Y-97733191D01*
X75601777Y-97748223D01*
X75616808Y-97770719D01*
X75630392Y-97784303D01*
X75639173Y-97804190D01*
X75655970Y-97829329D01*
X75660640Y-97852809D01*
X75668212Y-97869958D01*
X75674036Y-97920161D01*
X75674999Y-97925000D01*
X75674999Y-97928456D01*
X75675000Y-97928465D01*
X75675000Y-99000001D01*
X75675000Y-100075001D01*
X75674034Y-100079853D01*
X75668212Y-100130041D01*
X75660641Y-100147187D01*
X75655970Y-100170671D01*
X75639171Y-100195811D01*
X75630392Y-100215696D01*
X75616810Y-100229277D01*
X75601777Y-100251777D01*
X75579277Y-100266810D01*
X75565696Y-100280392D01*
X75545811Y-100289171D01*
X75520671Y-100305970D01*
X75497188Y-100310640D01*
X75480041Y-100318212D01*
X75429838Y-100324036D01*
X75425000Y-100324999D01*
X75421543Y-100324999D01*
X75421535Y-100325000D01*
X74403465Y-100325000D01*
X74403464Y-100324999D01*
X74399999Y-100325000D01*
X74395147Y-100324035D01*
X74344958Y-100318212D01*
X74327810Y-100310640D01*
X74304329Y-100305970D01*
X74279190Y-100289173D01*
X74259303Y-100280392D01*
X74245719Y-100266808D01*
X74223223Y-100251777D01*
X74208191Y-100229280D01*
X74194607Y-100215696D01*
X74185825Y-100195806D01*
X74169030Y-100170671D01*
X74164360Y-100147192D01*
X74156787Y-100130041D01*
X74150963Y-100079838D01*
X74150001Y-100075000D01*
X74150000Y-100071542D01*
X74150000Y-100071534D01*
X74150000Y-97928465D01*
X74150000Y-97928464D01*
X74150000Y-97924999D01*
X74150964Y-97920149D01*
X74156787Y-97869958D01*
X74164359Y-97852806D01*
X74169030Y-97829329D01*
X74185823Y-97804194D01*
X74194607Y-97784303D01*
X74208193Y-97770716D01*
X74223223Y-97748223D01*
X74245716Y-97733193D01*
X74259303Y-97719607D01*
X74279194Y-97710823D01*
X74304329Y-97694030D01*
X74327805Y-97689360D01*
X74344958Y-97681787D01*
X74395163Y-97675963D01*
X74400000Y-97675001D01*
X74403456Y-97675000D01*
X74403465Y-97675000D01*
X75421535Y-97675000D01*
X75425001Y-97675000D01*
X75429850Y-97675964D01*
G37*
G36*
X80104850Y-97675964D02*
G01*
X80155041Y-97681787D01*
X80172191Y-97689359D01*
X80195671Y-97694030D01*
X80220806Y-97710825D01*
X80240696Y-97719607D01*
X80254280Y-97733191D01*
X80276777Y-97748223D01*
X80291808Y-97770719D01*
X80305392Y-97784303D01*
X80314173Y-97804190D01*
X80330970Y-97829329D01*
X80335640Y-97852809D01*
X80343212Y-97869958D01*
X80349036Y-97920161D01*
X80349999Y-97925000D01*
X80349999Y-97928456D01*
X80350000Y-97928465D01*
X80350000Y-99000001D01*
X80350000Y-100075001D01*
X80349034Y-100079853D01*
X80343212Y-100130041D01*
X80335641Y-100147187D01*
X80330970Y-100170671D01*
X80314171Y-100195811D01*
X80305392Y-100215696D01*
X80291810Y-100229277D01*
X80276777Y-100251777D01*
X80254277Y-100266810D01*
X80240696Y-100280392D01*
X80220811Y-100289171D01*
X80195671Y-100305970D01*
X80172188Y-100310640D01*
X80155041Y-100318212D01*
X80104838Y-100324036D01*
X80100000Y-100324999D01*
X80096543Y-100324999D01*
X80096535Y-100325000D01*
X79078465Y-100325000D01*
X79078464Y-100324999D01*
X79074999Y-100325000D01*
X79070147Y-100324035D01*
X79019958Y-100318212D01*
X79002810Y-100310640D01*
X78979329Y-100305970D01*
X78954190Y-100289173D01*
X78934303Y-100280392D01*
X78920719Y-100266808D01*
X78898223Y-100251777D01*
X78883191Y-100229280D01*
X78869607Y-100215696D01*
X78860825Y-100195806D01*
X78844030Y-100170671D01*
X78839360Y-100147192D01*
X78831787Y-100130041D01*
X78825963Y-100079838D01*
X78825001Y-100075000D01*
X78825000Y-100071542D01*
X78825000Y-100071534D01*
X78825000Y-97928465D01*
X78825000Y-97928464D01*
X78825000Y-97924999D01*
X78825964Y-97920149D01*
X78831787Y-97869958D01*
X78839359Y-97852806D01*
X78844030Y-97829329D01*
X78860823Y-97804194D01*
X78869607Y-97784303D01*
X78883193Y-97770716D01*
X78898223Y-97748223D01*
X78920716Y-97733193D01*
X78934303Y-97719607D01*
X78954194Y-97710823D01*
X78979329Y-97694030D01*
X79002805Y-97689360D01*
X79019958Y-97681787D01*
X79070163Y-97675963D01*
X79075000Y-97675001D01*
X79078456Y-97675000D01*
X79078465Y-97675000D01*
X80096535Y-97675000D01*
X80100001Y-97675000D01*
X80104850Y-97675964D01*
G37*
G36*
X86285000Y-100000000D02*
G01*
X82165000Y-100000000D01*
X82165000Y-99890145D01*
X82129854Y-99855000D01*
X81615000Y-99855000D01*
X81615000Y-99355000D01*
X82129853Y-99355000D01*
X82165000Y-99319853D01*
X82165000Y-98620146D01*
X82129854Y-98585000D01*
X81615000Y-98585000D01*
X81615000Y-98085000D01*
X82129853Y-98085000D01*
X82165000Y-98049853D01*
X82165000Y-97350146D01*
X82129854Y-97315000D01*
X81615000Y-97315000D01*
X81615000Y-96815000D01*
X82129853Y-96815000D01*
X82165000Y-96779853D01*
X82165000Y-96080146D01*
X82129854Y-96045000D01*
X81615000Y-96045000D01*
X81615000Y-95545000D01*
X82129853Y-95545000D01*
X82165000Y-95509853D01*
X82165000Y-95405908D01*
X82165000Y-95400000D01*
X86285000Y-95400000D01*
X86285000Y-100000000D01*
G37*
G36*
X94606700Y-99881002D02*
G01*
X93158900Y-99881002D01*
X93158900Y-99119002D01*
X94606700Y-99119002D01*
X94606700Y-99881002D01*
G37*
G36*
X117923900Y-99881002D02*
G01*
X116476100Y-99881002D01*
X116476100Y-99119002D01*
X117923900Y-99119002D01*
X117923900Y-99881002D01*
G37*
G36*
X87765000Y-99855000D02*
G01*
X87115000Y-99855000D01*
X87115000Y-99355000D01*
X87765000Y-99355000D01*
X87765000Y-99855000D01*
G37*
G36*
X119946250Y-97850965D02*
G01*
X119996440Y-97856788D01*
X120013589Y-97864360D01*
X120037071Y-97869031D01*
X120062210Y-97885828D01*
X120082096Y-97894609D01*
X120095677Y-97908190D01*
X120118177Y-97923224D01*
X120133210Y-97945723D01*
X120146791Y-97959304D01*
X120155570Y-97979187D01*
X120172370Y-98004330D01*
X120177041Y-98027813D01*
X120184612Y-98044960D01*
X120190433Y-98095140D01*
X120191400Y-98100001D01*
X120191400Y-99000001D01*
X120190432Y-99004864D01*
X120184612Y-99055041D01*
X120177041Y-99072186D01*
X120172370Y-99095672D01*
X120155569Y-99120816D01*
X120146791Y-99140697D01*
X120133212Y-99154275D01*
X120118177Y-99176778D01*
X120095674Y-99191813D01*
X120082096Y-99205392D01*
X120062215Y-99214170D01*
X120037071Y-99230971D01*
X120013585Y-99235642D01*
X119996440Y-99243213D01*
X119946261Y-99249033D01*
X119941400Y-99250001D01*
X119291400Y-99250001D01*
X119286538Y-99249033D01*
X119236359Y-99243213D01*
X119219212Y-99235642D01*
X119195729Y-99230971D01*
X119170586Y-99214171D01*
X119150703Y-99205392D01*
X119137122Y-99191811D01*
X119114623Y-99176778D01*
X119099589Y-99154278D01*
X119086008Y-99140697D01*
X119077227Y-99120811D01*
X119060430Y-99095672D01*
X119055759Y-99072190D01*
X119048187Y-99055041D01*
X119042364Y-99004850D01*
X119041400Y-99000001D01*
X119041400Y-98100001D01*
X119042364Y-98095151D01*
X119048187Y-98044960D01*
X119055759Y-98027809D01*
X119060430Y-98004330D01*
X119077226Y-97979192D01*
X119086008Y-97959304D01*
X119099591Y-97945720D01*
X119114623Y-97923224D01*
X119137119Y-97908192D01*
X119150703Y-97894609D01*
X119170591Y-97885827D01*
X119195729Y-97869031D01*
X119219208Y-97864360D01*
X119236359Y-97856788D01*
X119286551Y-97850965D01*
X119291400Y-97850001D01*
X119941400Y-97850001D01*
X119946250Y-97850965D01*
G37*
G36*
X121996250Y-97850965D02*
G01*
X122046440Y-97856788D01*
X122063589Y-97864360D01*
X122087071Y-97869031D01*
X122112210Y-97885828D01*
X122132096Y-97894609D01*
X122145677Y-97908190D01*
X122168177Y-97923224D01*
X122183210Y-97945723D01*
X122196791Y-97959304D01*
X122205570Y-97979187D01*
X122222370Y-98004330D01*
X122227041Y-98027813D01*
X122234612Y-98044960D01*
X122240433Y-98095140D01*
X122241400Y-98100001D01*
X122241400Y-99000001D01*
X122240432Y-99004864D01*
X122234612Y-99055041D01*
X122227041Y-99072186D01*
X122222370Y-99095672D01*
X122205569Y-99120816D01*
X122196791Y-99140697D01*
X122183212Y-99154275D01*
X122168177Y-99176778D01*
X122145674Y-99191813D01*
X122132096Y-99205392D01*
X122112215Y-99214170D01*
X122087071Y-99230971D01*
X122063585Y-99235642D01*
X122046440Y-99243213D01*
X121996261Y-99249033D01*
X121991400Y-99250001D01*
X121341400Y-99250001D01*
X121336538Y-99249033D01*
X121286359Y-99243213D01*
X121269212Y-99235642D01*
X121245729Y-99230971D01*
X121220586Y-99214171D01*
X121200703Y-99205392D01*
X121187122Y-99191811D01*
X121164623Y-99176778D01*
X121149589Y-99154278D01*
X121136008Y-99140697D01*
X121127227Y-99120811D01*
X121110430Y-99095672D01*
X121105759Y-99072190D01*
X121098187Y-99055041D01*
X121092364Y-99004850D01*
X121091400Y-99000001D01*
X121091400Y-98100001D01*
X121092364Y-98095151D01*
X121098187Y-98044960D01*
X121105759Y-98027809D01*
X121110430Y-98004330D01*
X121127226Y-97979192D01*
X121136008Y-97959304D01*
X121149591Y-97945720D01*
X121164623Y-97923224D01*
X121187119Y-97908192D01*
X121200703Y-97894609D01*
X121220591Y-97885827D01*
X121245729Y-97869031D01*
X121269208Y-97864360D01*
X121286359Y-97856788D01*
X121336551Y-97850965D01*
X121341400Y-97850001D01*
X121991400Y-97850001D01*
X121996250Y-97850965D01*
G37*
G36*
X94606700Y-98881001D02*
G01*
X93158900Y-98881001D01*
X93158900Y-98119001D01*
X94606700Y-98119001D01*
X94606700Y-98881001D01*
G37*
G36*
X117923900Y-98881001D02*
G01*
X116476100Y-98881001D01*
X116476100Y-98119001D01*
X117923900Y-98119001D01*
X117923900Y-98881001D01*
G37*
G36*
X87765000Y-98585000D02*
G01*
X87115000Y-98585000D01*
X87115000Y-98085000D01*
X87765000Y-98085000D01*
X87765000Y-98585000D01*
G37*
G36*
X94606700Y-97881000D02*
G01*
X93158900Y-97881000D01*
X93158900Y-97119000D01*
X94606700Y-97119000D01*
X94606700Y-97881000D01*
G37*
G36*
X117923900Y-97881000D02*
G01*
X116476100Y-97881000D01*
X116476100Y-97119000D01*
X117923900Y-97119000D01*
X117923900Y-97881000D01*
G37*
G36*
X87765000Y-97315000D02*
G01*
X87115000Y-97315000D01*
X87115000Y-96815000D01*
X87765000Y-96815000D01*
X87765000Y-97315000D01*
G37*
G36*
X119489668Y-96757613D02*
G01*
X119522111Y-96779290D01*
X119543788Y-96811733D01*
X119551400Y-96850001D01*
X119551400Y-97050001D01*
X119543788Y-97088269D01*
X119522111Y-97120712D01*
X119489668Y-97142389D01*
X119451400Y-97150001D01*
X119016400Y-97150001D01*
X118978132Y-97142389D01*
X118945689Y-97120712D01*
X118924012Y-97088269D01*
X118916400Y-97050001D01*
X118916400Y-96850001D01*
X118924012Y-96811733D01*
X118945689Y-96779290D01*
X118978132Y-96757613D01*
X119016400Y-96750001D01*
X119451400Y-96750001D01*
X119489668Y-96757613D01*
G37*
G36*
X120304668Y-96757613D02*
G01*
X120337111Y-96779290D01*
X120358788Y-96811733D01*
X120366400Y-96850001D01*
X120366400Y-97050001D01*
X120358788Y-97088269D01*
X120337111Y-97120712D01*
X120304668Y-97142389D01*
X120266400Y-97150001D01*
X119831400Y-97150001D01*
X119793132Y-97142389D01*
X119760689Y-97120712D01*
X119739012Y-97088269D01*
X119731400Y-97050001D01*
X119731400Y-96850001D01*
X119739012Y-96811733D01*
X119760689Y-96779290D01*
X119793132Y-96757613D01*
X119831400Y-96750001D01*
X120266400Y-96750001D01*
X120304668Y-96757613D01*
G37*
G36*
X94606700Y-96881000D02*
G01*
X93158900Y-96881000D01*
X93158900Y-96119000D01*
X94606700Y-96119000D01*
X94606700Y-96881000D01*
G37*
G36*
X117923900Y-96881000D02*
G01*
X116476100Y-96881000D01*
X116476100Y-96119000D01*
X117923900Y-96119000D01*
X117923900Y-96881000D01*
G37*
G36*
X119489668Y-95957613D02*
G01*
X119522111Y-95979290D01*
X119543788Y-96011733D01*
X119551400Y-96050001D01*
X119551400Y-96250001D01*
X119543788Y-96288269D01*
X119522111Y-96320712D01*
X119489668Y-96342389D01*
X119451400Y-96350001D01*
X119016400Y-96350001D01*
X118978132Y-96342389D01*
X118945689Y-96320712D01*
X118924012Y-96288269D01*
X118916400Y-96250001D01*
X118916400Y-96050001D01*
X118924012Y-96011733D01*
X118945689Y-95979290D01*
X118978132Y-95957613D01*
X119016400Y-95950001D01*
X119451400Y-95950001D01*
X119489668Y-95957613D01*
G37*
G36*
X120304668Y-95957613D02*
G01*
X120337111Y-95979290D01*
X120358788Y-96011733D01*
X120366400Y-96050001D01*
X120366400Y-96250001D01*
X120358788Y-96288269D01*
X120337111Y-96320712D01*
X120304668Y-96342389D01*
X120266400Y-96350001D01*
X119831400Y-96350001D01*
X119793132Y-96342389D01*
X119760689Y-96320712D01*
X119739012Y-96288269D01*
X119731400Y-96250001D01*
X119731400Y-96050001D01*
X119739012Y-96011733D01*
X119760689Y-95979290D01*
X119793132Y-95957613D01*
X119831400Y-95950001D01*
X120266400Y-95950001D01*
X120304668Y-95957613D01*
G37*
G36*
X76354850Y-94450964D02*
G01*
X76405040Y-94456787D01*
X76422189Y-94464359D01*
X76445671Y-94469030D01*
X76470810Y-94485827D01*
X76490696Y-94494608D01*
X76504277Y-94508189D01*
X76526777Y-94523223D01*
X76541810Y-94545722D01*
X76555391Y-94559303D01*
X76564170Y-94579186D01*
X76580970Y-94604329D01*
X76585641Y-94627812D01*
X76593212Y-94644959D01*
X76599033Y-94695139D01*
X76600000Y-94700000D01*
X76600000Y-95800000D01*
X76599032Y-95804863D01*
X76593212Y-95855040D01*
X76585641Y-95872185D01*
X76580970Y-95895671D01*
X76564169Y-95920815D01*
X76555391Y-95940696D01*
X76541812Y-95954274D01*
X76526777Y-95976777D01*
X76504274Y-95991812D01*
X76490696Y-96005391D01*
X76470815Y-96014169D01*
X76445671Y-96030970D01*
X76422185Y-96035641D01*
X76405040Y-96043212D01*
X76354861Y-96049032D01*
X76350000Y-96050000D01*
X74650000Y-96050000D01*
X74645138Y-96049032D01*
X74594959Y-96043212D01*
X74577812Y-96035641D01*
X74554329Y-96030970D01*
X74529186Y-96014170D01*
X74509303Y-96005391D01*
X74495722Y-95991810D01*
X74473223Y-95976777D01*
X74458189Y-95954277D01*
X74444608Y-95940696D01*
X74435827Y-95920810D01*
X74419030Y-95895671D01*
X74414359Y-95872189D01*
X74406787Y-95855040D01*
X74400964Y-95804849D01*
X74400000Y-95800000D01*
X74400000Y-94700000D01*
X74400964Y-94695150D01*
X74406787Y-94644959D01*
X74414359Y-94627808D01*
X74419030Y-94604329D01*
X74435826Y-94579191D01*
X74444608Y-94559303D01*
X74458191Y-94545719D01*
X74473223Y-94523223D01*
X74495719Y-94508191D01*
X74509303Y-94494608D01*
X74529191Y-94485826D01*
X74554329Y-94469030D01*
X74577808Y-94464359D01*
X74594959Y-94456787D01*
X74645151Y-94450964D01*
X74650000Y-94450000D01*
X76350000Y-94450000D01*
X76354850Y-94450964D01*
G37*
G36*
X79354850Y-94450964D02*
G01*
X79405040Y-94456787D01*
X79422189Y-94464359D01*
X79445671Y-94469030D01*
X79470810Y-94485827D01*
X79490696Y-94494608D01*
X79504277Y-94508189D01*
X79526777Y-94523223D01*
X79541810Y-94545722D01*
X79555391Y-94559303D01*
X79564170Y-94579186D01*
X79580970Y-94604329D01*
X79585641Y-94627812D01*
X79593212Y-94644959D01*
X79599033Y-94695139D01*
X79600000Y-94700000D01*
X79600000Y-95800000D01*
X79599032Y-95804863D01*
X79593212Y-95855040D01*
X79585641Y-95872185D01*
X79580970Y-95895671D01*
X79564169Y-95920815D01*
X79555391Y-95940696D01*
X79541812Y-95954274D01*
X79526777Y-95976777D01*
X79504274Y-95991812D01*
X79490696Y-96005391D01*
X79470815Y-96014169D01*
X79445671Y-96030970D01*
X79422185Y-96035641D01*
X79405040Y-96043212D01*
X79354861Y-96049032D01*
X79350000Y-96050000D01*
X77650000Y-96050000D01*
X77645138Y-96049032D01*
X77594959Y-96043212D01*
X77577812Y-96035641D01*
X77554329Y-96030970D01*
X77529186Y-96014170D01*
X77509303Y-96005391D01*
X77495722Y-95991810D01*
X77473223Y-95976777D01*
X77458189Y-95954277D01*
X77444608Y-95940696D01*
X77435827Y-95920810D01*
X77419030Y-95895671D01*
X77414359Y-95872189D01*
X77406787Y-95855040D01*
X77400964Y-95804849D01*
X77400000Y-95800000D01*
X77400000Y-94700000D01*
X77400964Y-94695150D01*
X77406787Y-94644959D01*
X77414359Y-94627808D01*
X77419030Y-94604329D01*
X77435826Y-94579191D01*
X77444608Y-94559303D01*
X77458191Y-94545719D01*
X77473223Y-94523223D01*
X77495719Y-94508191D01*
X77509303Y-94494608D01*
X77529191Y-94485826D01*
X77554329Y-94469030D01*
X77577808Y-94464359D01*
X77594959Y-94456787D01*
X77645151Y-94450964D01*
X77650000Y-94450000D01*
X79350000Y-94450000D01*
X79354850Y-94450964D01*
G37*
G36*
X87765000Y-96045000D02*
G01*
X87115000Y-96045000D01*
X87115000Y-95545000D01*
X87765000Y-95545000D01*
X87765000Y-96045000D01*
G37*
G36*
X94606700Y-95881002D02*
G01*
X93158900Y-95881002D01*
X93158900Y-95119002D01*
X94606700Y-95119002D01*
X94606700Y-95881002D01*
G37*
G36*
X117923900Y-95881002D02*
G01*
X116476100Y-95881002D01*
X116476100Y-95119002D01*
X117923900Y-95119002D01*
X117923900Y-95881002D01*
G37*
G36*
X120053750Y-94205965D02*
G01*
X120103940Y-94211788D01*
X120121089Y-94219360D01*
X120144571Y-94224031D01*
X120169710Y-94240828D01*
X120189596Y-94249609D01*
X120203177Y-94263190D01*
X120225677Y-94278224D01*
X120240710Y-94300723D01*
X120254291Y-94314304D01*
X120263070Y-94334187D01*
X120279870Y-94359330D01*
X120284541Y-94382813D01*
X120292112Y-94399960D01*
X120297933Y-94450140D01*
X120298900Y-94455001D01*
X120298900Y-95045001D01*
X120297932Y-95049864D01*
X120292112Y-95100041D01*
X120284541Y-95117186D01*
X120279870Y-95140672D01*
X120263069Y-95165816D01*
X120254291Y-95185697D01*
X120240712Y-95199275D01*
X120225677Y-95221778D01*
X120203174Y-95236813D01*
X120189596Y-95250392D01*
X120169715Y-95259170D01*
X120144571Y-95275971D01*
X120121085Y-95280642D01*
X120103940Y-95288213D01*
X120053761Y-95294033D01*
X120048900Y-95295001D01*
X119233900Y-95295001D01*
X119229038Y-95294033D01*
X119178859Y-95288213D01*
X119161712Y-95280642D01*
X119138229Y-95275971D01*
X119113086Y-95259171D01*
X119093203Y-95250392D01*
X119079622Y-95236811D01*
X119057123Y-95221778D01*
X119042089Y-95199278D01*
X119028508Y-95185697D01*
X119019727Y-95165811D01*
X119002930Y-95140672D01*
X118998259Y-95117190D01*
X118990687Y-95100041D01*
X118984864Y-95049850D01*
X118983900Y-95045001D01*
X118983900Y-94455001D01*
X118984864Y-94450151D01*
X118990687Y-94399960D01*
X118998259Y-94382809D01*
X119002930Y-94359330D01*
X119019726Y-94334192D01*
X119028508Y-94314304D01*
X119042091Y-94300720D01*
X119057123Y-94278224D01*
X119079619Y-94263192D01*
X119093203Y-94249609D01*
X119113091Y-94240827D01*
X119138229Y-94224031D01*
X119161708Y-94219360D01*
X119178859Y-94211788D01*
X119229051Y-94205965D01*
X119233900Y-94205001D01*
X120048900Y-94205001D01*
X120053750Y-94205965D01*
G37*
G36*
X122008750Y-94205965D02*
G01*
X122058940Y-94211788D01*
X122076089Y-94219360D01*
X122099571Y-94224031D01*
X122124710Y-94240828D01*
X122144596Y-94249609D01*
X122158177Y-94263190D01*
X122180677Y-94278224D01*
X122195710Y-94300723D01*
X122209291Y-94314304D01*
X122218070Y-94334187D01*
X122234870Y-94359330D01*
X122239541Y-94382813D01*
X122247112Y-94399960D01*
X122252933Y-94450140D01*
X122253900Y-94455001D01*
X122253900Y-95045001D01*
X122252932Y-95049864D01*
X122247112Y-95100041D01*
X122239541Y-95117186D01*
X122234870Y-95140672D01*
X122218069Y-95165816D01*
X122209291Y-95185697D01*
X122195712Y-95199275D01*
X122180677Y-95221778D01*
X122158174Y-95236813D01*
X122144596Y-95250392D01*
X122124715Y-95259170D01*
X122099571Y-95275971D01*
X122076085Y-95280642D01*
X122058940Y-95288213D01*
X122008761Y-95294033D01*
X122003900Y-95295001D01*
X121188900Y-95295001D01*
X121184038Y-95294033D01*
X121133859Y-95288213D01*
X121116712Y-95280642D01*
X121093229Y-95275971D01*
X121068086Y-95259171D01*
X121048203Y-95250392D01*
X121034622Y-95236811D01*
X121012123Y-95221778D01*
X120997089Y-95199278D01*
X120983508Y-95185697D01*
X120974727Y-95165811D01*
X120957930Y-95140672D01*
X120953259Y-95117190D01*
X120945687Y-95100041D01*
X120939864Y-95049850D01*
X120938900Y-95045001D01*
X120938900Y-94455001D01*
X120939864Y-94450151D01*
X120945687Y-94399960D01*
X120953259Y-94382809D01*
X120957930Y-94359330D01*
X120974726Y-94334192D01*
X120983508Y-94314304D01*
X120997091Y-94300720D01*
X121012123Y-94278224D01*
X121034619Y-94263192D01*
X121048203Y-94249609D01*
X121068091Y-94240827D01*
X121093229Y-94224031D01*
X121116708Y-94219360D01*
X121133859Y-94211788D01*
X121184051Y-94205965D01*
X121188900Y-94205001D01*
X122003900Y-94205001D01*
X122008750Y-94205965D01*
G37*
G36*
X94606700Y-94881001D02*
G01*
X93158900Y-94881001D01*
X93158900Y-94119001D01*
X94606700Y-94119001D01*
X94606700Y-94881001D01*
G37*
G36*
X117923900Y-94881001D02*
G01*
X116476100Y-94881001D01*
X116476100Y-94119001D01*
X117923900Y-94119001D01*
X117923900Y-94881001D01*
G37*
G36*
X94606700Y-93881001D02*
G01*
X93158900Y-93881001D01*
X93158900Y-93119001D01*
X94606700Y-93119001D01*
X94606700Y-93881001D01*
G37*
G36*
X117923900Y-93881001D02*
G01*
X116476100Y-93881001D01*
X116476100Y-93119001D01*
X117923900Y-93119001D01*
X117923900Y-93881001D01*
G37*
G36*
X119657168Y-92957613D02*
G01*
X119689611Y-92979290D01*
X119711288Y-93011733D01*
X119718900Y-93050001D01*
X119718900Y-93250001D01*
X119711288Y-93288269D01*
X119689611Y-93320712D01*
X119657168Y-93342389D01*
X119618900Y-93350001D01*
X119183900Y-93350001D01*
X119145632Y-93342389D01*
X119113189Y-93320712D01*
X119091512Y-93288269D01*
X119083900Y-93250001D01*
X119083900Y-93050001D01*
X119091512Y-93011733D01*
X119113189Y-92979290D01*
X119145632Y-92957613D01*
X119183900Y-92950001D01*
X119618900Y-92950001D01*
X119657168Y-92957613D01*
G37*
G36*
X120472168Y-92957613D02*
G01*
X120504611Y-92979290D01*
X120526288Y-93011733D01*
X120533900Y-93050001D01*
X120533900Y-93250001D01*
X120526288Y-93288269D01*
X120504611Y-93320712D01*
X120472168Y-93342389D01*
X120433900Y-93350001D01*
X119998900Y-93350001D01*
X119960632Y-93342389D01*
X119928189Y-93320712D01*
X119906512Y-93288269D01*
X119898900Y-93250001D01*
X119898900Y-93050001D01*
X119906512Y-93011733D01*
X119928189Y-92979290D01*
X119960632Y-92957613D01*
X119998900Y-92950001D01*
X120433900Y-92950001D01*
X120472168Y-92957613D01*
G37*
G36*
X94606700Y-92881000D02*
G01*
X93158900Y-92881000D01*
X93158900Y-92119000D01*
X94606700Y-92119000D01*
X94606700Y-92881000D01*
G37*
G36*
X117923900Y-92881000D02*
G01*
X116476100Y-92881000D01*
X116476100Y-92119000D01*
X117923900Y-92119000D01*
X117923900Y-92881000D01*
G37*
G36*
X119657168Y-92157613D02*
G01*
X119689611Y-92179290D01*
X119711288Y-92211733D01*
X119718900Y-92250001D01*
X119718900Y-92450001D01*
X119711288Y-92488269D01*
X119689611Y-92520712D01*
X119657168Y-92542389D01*
X119618900Y-92550001D01*
X119183900Y-92550001D01*
X119145632Y-92542389D01*
X119113189Y-92520712D01*
X119091512Y-92488269D01*
X119083900Y-92450001D01*
X119083900Y-92250001D01*
X119091512Y-92211733D01*
X119113189Y-92179290D01*
X119145632Y-92157613D01*
X119183900Y-92150001D01*
X119618900Y-92150001D01*
X119657168Y-92157613D01*
G37*
G36*
X120472168Y-92157613D02*
G01*
X120504611Y-92179290D01*
X120526288Y-92211733D01*
X120533900Y-92250001D01*
X120533900Y-92450001D01*
X120526288Y-92488269D01*
X120504611Y-92520712D01*
X120472168Y-92542389D01*
X120433900Y-92550001D01*
X119998900Y-92550001D01*
X119960632Y-92542389D01*
X119928189Y-92520712D01*
X119906512Y-92488269D01*
X119898900Y-92450001D01*
X119898900Y-92250001D01*
X119906512Y-92211733D01*
X119928189Y-92179290D01*
X119960632Y-92157613D01*
X119998900Y-92150001D01*
X120433900Y-92150001D01*
X120472168Y-92157613D01*
G37*
G36*
X94606700Y-91881002D02*
G01*
X93158900Y-91881002D01*
X93158900Y-91119002D01*
X94606700Y-91119002D01*
X94606700Y-91881002D01*
G37*
G36*
X117923900Y-91881000D02*
G01*
X116476100Y-91881000D01*
X116476100Y-91119000D01*
X117923900Y-91119000D01*
X117923900Y-91881000D01*
G37*
G36*
X119657168Y-91257613D02*
G01*
X119689611Y-91279290D01*
X119711288Y-91311733D01*
X119718900Y-91350001D01*
X119718900Y-91550001D01*
X119711288Y-91588269D01*
X119689611Y-91620712D01*
X119657168Y-91642389D01*
X119618900Y-91650001D01*
X119183900Y-91650001D01*
X119145632Y-91642389D01*
X119113189Y-91620712D01*
X119091512Y-91588269D01*
X119083900Y-91550001D01*
X119083900Y-91350001D01*
X119091512Y-91311733D01*
X119113189Y-91279290D01*
X119145632Y-91257613D01*
X119183900Y-91250001D01*
X119618900Y-91250001D01*
X119657168Y-91257613D01*
G37*
G36*
X120472168Y-91257613D02*
G01*
X120504611Y-91279290D01*
X120526288Y-91311733D01*
X120533900Y-91350001D01*
X120533900Y-91550001D01*
X120526288Y-91588269D01*
X120504611Y-91620712D01*
X120472168Y-91642389D01*
X120433900Y-91650001D01*
X119998900Y-91650001D01*
X119960632Y-91642389D01*
X119928189Y-91620712D01*
X119906512Y-91588269D01*
X119898900Y-91550001D01*
X119898900Y-91350001D01*
X119906512Y-91311733D01*
X119928189Y-91279290D01*
X119960632Y-91257613D01*
X119998900Y-91250001D01*
X120433900Y-91250001D01*
X120472168Y-91257613D01*
G37*
G36*
X94606700Y-90881002D02*
G01*
X93158900Y-90881002D01*
X93158900Y-90119002D01*
X94606700Y-90119002D01*
X94606700Y-90881002D01*
G37*
G36*
X117923900Y-90881002D02*
G01*
X116476100Y-90881002D01*
X116476100Y-90119002D01*
X117923900Y-90119002D01*
X117923900Y-90881002D01*
G37*
G36*
X120325129Y-88442180D02*
G01*
X120377037Y-88476864D01*
X120411721Y-88528772D01*
X120423900Y-88590001D01*
X120423900Y-88910001D01*
X120411721Y-88971230D01*
X120377037Y-89023138D01*
X120325129Y-89057822D01*
X120263900Y-89070001D01*
X119818900Y-89070001D01*
X119757671Y-89057822D01*
X119705763Y-89023138D01*
X119671079Y-88971230D01*
X119658900Y-88910001D01*
X119658900Y-88590001D01*
X119671079Y-88528772D01*
X119705763Y-88476864D01*
X119757671Y-88442180D01*
X119818900Y-88430001D01*
X120263900Y-88430001D01*
X120325129Y-88442180D01*
G37*
G36*
X121470129Y-88442180D02*
G01*
X121522037Y-88476864D01*
X121556721Y-88528772D01*
X121568900Y-88590001D01*
X121568900Y-88910001D01*
X121556721Y-88971230D01*
X121522037Y-89023138D01*
X121470129Y-89057822D01*
X121408900Y-89070001D01*
X120963900Y-89070001D01*
X120902671Y-89057822D01*
X120850763Y-89023138D01*
X120816079Y-88971230D01*
X120803900Y-88910001D01*
X120803900Y-88590001D01*
X120816079Y-88528772D01*
X120850763Y-88476864D01*
X120902671Y-88442180D01*
X120963900Y-88430001D01*
X121408900Y-88430001D01*
X121470129Y-88442180D01*
G37*
G36*
X124152629Y-88442180D02*
G01*
X124204537Y-88476864D01*
X124239221Y-88528772D01*
X124251400Y-88590001D01*
X124251400Y-88910001D01*
X124239221Y-88971230D01*
X124204537Y-89023138D01*
X124152629Y-89057822D01*
X124091400Y-89070001D01*
X123646400Y-89070001D01*
X123585171Y-89057822D01*
X123533263Y-89023138D01*
X123498579Y-88971230D01*
X123486400Y-88910001D01*
X123486400Y-88590001D01*
X123498579Y-88528772D01*
X123533263Y-88476864D01*
X123585171Y-88442180D01*
X123646400Y-88430001D01*
X124091400Y-88430001D01*
X124152629Y-88442180D01*
G37*
G36*
X125297629Y-88442180D02*
G01*
X125349537Y-88476864D01*
X125384221Y-88528772D01*
X125396400Y-88590001D01*
X125396400Y-88910001D01*
X125384221Y-88971230D01*
X125349537Y-89023138D01*
X125297629Y-89057822D01*
X125236400Y-89070001D01*
X124791400Y-89070001D01*
X124730171Y-89057822D01*
X124678263Y-89023138D01*
X124643579Y-88971230D01*
X124631400Y-88910001D01*
X124631400Y-88590001D01*
X124643579Y-88528772D01*
X124678263Y-88476864D01*
X124730171Y-88442180D01*
X124791400Y-88430001D01*
X125236400Y-88430001D01*
X125297629Y-88442180D01*
G37*
G36*
X119996250Y-86450965D02*
G01*
X120046440Y-86456788D01*
X120063589Y-86464360D01*
X120087071Y-86469031D01*
X120112210Y-86485828D01*
X120132096Y-86494609D01*
X120145677Y-86508190D01*
X120168177Y-86523224D01*
X120183210Y-86545723D01*
X120196791Y-86559304D01*
X120205570Y-86579187D01*
X120222370Y-86604330D01*
X120227041Y-86627813D01*
X120234612Y-86644960D01*
X120240433Y-86695140D01*
X120241400Y-86700001D01*
X120241400Y-87600001D01*
X120240432Y-87604864D01*
X120234612Y-87655041D01*
X120227041Y-87672186D01*
X120222370Y-87695672D01*
X120205569Y-87720816D01*
X120196791Y-87740697D01*
X120183212Y-87754275D01*
X120168177Y-87776778D01*
X120145674Y-87791813D01*
X120132096Y-87805392D01*
X120112215Y-87814170D01*
X120087071Y-87830971D01*
X120063585Y-87835642D01*
X120046440Y-87843213D01*
X119996261Y-87849033D01*
X119991400Y-87850001D01*
X119291400Y-87850001D01*
X119286538Y-87849033D01*
X119236359Y-87843213D01*
X119219212Y-87835642D01*
X119195729Y-87830971D01*
X119170586Y-87814171D01*
X119150703Y-87805392D01*
X119137122Y-87791811D01*
X119114623Y-87776778D01*
X119099589Y-87754278D01*
X119086008Y-87740697D01*
X119077227Y-87720811D01*
X119060430Y-87695672D01*
X119055759Y-87672190D01*
X119048187Y-87655041D01*
X119042364Y-87604850D01*
X119041400Y-87600001D01*
X119041400Y-86700001D01*
X119042364Y-86695151D01*
X119048187Y-86644960D01*
X119055759Y-86627809D01*
X119060430Y-86604330D01*
X119077226Y-86579192D01*
X119086008Y-86559304D01*
X119099591Y-86545720D01*
X119114623Y-86523224D01*
X119137119Y-86508192D01*
X119150703Y-86494609D01*
X119170591Y-86485827D01*
X119195729Y-86469031D01*
X119219208Y-86464360D01*
X119236359Y-86456788D01*
X119286551Y-86450965D01*
X119291400Y-86450001D01*
X119991400Y-86450001D01*
X119996250Y-86450965D01*
G37*
G36*
X121996250Y-86450965D02*
G01*
X122046440Y-86456788D01*
X122063589Y-86464360D01*
X122087071Y-86469031D01*
X122112210Y-86485828D01*
X122132096Y-86494609D01*
X122145677Y-86508190D01*
X122168177Y-86523224D01*
X122183210Y-86545723D01*
X122196791Y-86559304D01*
X122205570Y-86579187D01*
X122222370Y-86604330D01*
X122227041Y-86627813D01*
X122234612Y-86644960D01*
X122240433Y-86695140D01*
X122241400Y-86700001D01*
X122241400Y-87600001D01*
X122240432Y-87604864D01*
X122234612Y-87655041D01*
X122227041Y-87672186D01*
X122222370Y-87695672D01*
X122205569Y-87720816D01*
X122196791Y-87740697D01*
X122183212Y-87754275D01*
X122168177Y-87776778D01*
X122145674Y-87791813D01*
X122132096Y-87805392D01*
X122112215Y-87814170D01*
X122087071Y-87830971D01*
X122063585Y-87835642D01*
X122046440Y-87843213D01*
X121996261Y-87849033D01*
X121991400Y-87850001D01*
X121291400Y-87850001D01*
X121286538Y-87849033D01*
X121236359Y-87843213D01*
X121219212Y-87835642D01*
X121195729Y-87830971D01*
X121170586Y-87814171D01*
X121150703Y-87805392D01*
X121137122Y-87791811D01*
X121114623Y-87776778D01*
X121099589Y-87754278D01*
X121086008Y-87740697D01*
X121077227Y-87720811D01*
X121060430Y-87695672D01*
X121055759Y-87672190D01*
X121048187Y-87655041D01*
X121042364Y-87604850D01*
X121041400Y-87600001D01*
X121041400Y-86700001D01*
X121042364Y-86695151D01*
X121048187Y-86644960D01*
X121055759Y-86627809D01*
X121060430Y-86604330D01*
X121077226Y-86579192D01*
X121086008Y-86559304D01*
X121099591Y-86545720D01*
X121114623Y-86523224D01*
X121137119Y-86508192D01*
X121150703Y-86494609D01*
X121170591Y-86485827D01*
X121195729Y-86469031D01*
X121219208Y-86464360D01*
X121236359Y-86456788D01*
X121286551Y-86450965D01*
X121291400Y-86450001D01*
X121991400Y-86450001D01*
X121996250Y-86450965D01*
G37*
G36*
X123996250Y-86450965D02*
G01*
X124046440Y-86456788D01*
X124063589Y-86464360D01*
X124087071Y-86469031D01*
X124112210Y-86485828D01*
X124132096Y-86494609D01*
X124145677Y-86508190D01*
X124168177Y-86523224D01*
X124183210Y-86545723D01*
X124196791Y-86559304D01*
X124205570Y-86579187D01*
X124222370Y-86604330D01*
X124227041Y-86627813D01*
X124234612Y-86644960D01*
X124240433Y-86695140D01*
X124241400Y-86700001D01*
X124241400Y-87600001D01*
X124240432Y-87604864D01*
X124234612Y-87655041D01*
X124227041Y-87672186D01*
X124222370Y-87695672D01*
X124205569Y-87720816D01*
X124196791Y-87740697D01*
X124183212Y-87754275D01*
X124168177Y-87776778D01*
X124145674Y-87791813D01*
X124132096Y-87805392D01*
X124112215Y-87814170D01*
X124087071Y-87830971D01*
X124063585Y-87835642D01*
X124046440Y-87843213D01*
X123996261Y-87849033D01*
X123991400Y-87850001D01*
X123291400Y-87850001D01*
X123286538Y-87849033D01*
X123236359Y-87843213D01*
X123219212Y-87835642D01*
X123195729Y-87830971D01*
X123170586Y-87814171D01*
X123150703Y-87805392D01*
X123137122Y-87791811D01*
X123114623Y-87776778D01*
X123099589Y-87754278D01*
X123086008Y-87740697D01*
X123077227Y-87720811D01*
X123060430Y-87695672D01*
X123055759Y-87672190D01*
X123048187Y-87655041D01*
X123042364Y-87604850D01*
X123041400Y-87600001D01*
X123041400Y-86700001D01*
X123042364Y-86695151D01*
X123048187Y-86644960D01*
X123055759Y-86627809D01*
X123060430Y-86604330D01*
X123077226Y-86579192D01*
X123086008Y-86559304D01*
X123099591Y-86545720D01*
X123114623Y-86523224D01*
X123137119Y-86508192D01*
X123150703Y-86494609D01*
X123170591Y-86485827D01*
X123195729Y-86469031D01*
X123219208Y-86464360D01*
X123236359Y-86456788D01*
X123286551Y-86450965D01*
X123291400Y-86450001D01*
X123991400Y-86450001D01*
X123996250Y-86450965D01*
G37*
G36*
X125996250Y-86450965D02*
G01*
X126046440Y-86456788D01*
X126063589Y-86464360D01*
X126087071Y-86469031D01*
X126112210Y-86485828D01*
X126132096Y-86494609D01*
X126145677Y-86508190D01*
X126168177Y-86523224D01*
X126183210Y-86545723D01*
X126196791Y-86559304D01*
X126205570Y-86579187D01*
X126222370Y-86604330D01*
X126227041Y-86627813D01*
X126234612Y-86644960D01*
X126240433Y-86695140D01*
X126241400Y-86700001D01*
X126241400Y-87600001D01*
X126240432Y-87604864D01*
X126234612Y-87655041D01*
X126227041Y-87672186D01*
X126222370Y-87695672D01*
X126205569Y-87720816D01*
X126196791Y-87740697D01*
X126183212Y-87754275D01*
X126168177Y-87776778D01*
X126145674Y-87791813D01*
X126132096Y-87805392D01*
X126112215Y-87814170D01*
X126087071Y-87830971D01*
X126063585Y-87835642D01*
X126046440Y-87843213D01*
X125996261Y-87849033D01*
X125991400Y-87850001D01*
X125291400Y-87850001D01*
X125286538Y-87849033D01*
X125236359Y-87843213D01*
X125219212Y-87835642D01*
X125195729Y-87830971D01*
X125170586Y-87814171D01*
X125150703Y-87805392D01*
X125137122Y-87791811D01*
X125114623Y-87776778D01*
X125099589Y-87754278D01*
X125086008Y-87740697D01*
X125077227Y-87720811D01*
X125060430Y-87695672D01*
X125055759Y-87672190D01*
X125048187Y-87655041D01*
X125042364Y-87604850D01*
X125041400Y-87600001D01*
X125041400Y-86700001D01*
X125042364Y-86695151D01*
X125048187Y-86644960D01*
X125055759Y-86627809D01*
X125060430Y-86604330D01*
X125077226Y-86579192D01*
X125086008Y-86559304D01*
X125099591Y-86545720D01*
X125114623Y-86523224D01*
X125137119Y-86508192D01*
X125150703Y-86494609D01*
X125170591Y-86485827D01*
X125195729Y-86469031D01*
X125219208Y-86464360D01*
X125236359Y-86456788D01*
X125286551Y-86450965D01*
X125291400Y-86450001D01*
X125991400Y-86450001D01*
X125996250Y-86450965D01*
G37*
G36*
X97922401Y-87565301D02*
G01*
X97160401Y-87565301D01*
X97160401Y-86117501D01*
X97922401Y-86117501D01*
X97922401Y-87565301D01*
G37*
G36*
X98922399Y-87565301D02*
G01*
X98160399Y-87565301D01*
X98160399Y-86117501D01*
X98922399Y-86117501D01*
X98922399Y-87565301D01*
G37*
G36*
X99922399Y-87565301D02*
G01*
X99160399Y-87565301D01*
X99160399Y-86117501D01*
X99922399Y-86117501D01*
X99922399Y-87565301D01*
G37*
G36*
X100922400Y-87565301D02*
G01*
X100160400Y-87565301D01*
X100160400Y-86117501D01*
X100922400Y-86117501D01*
X100922400Y-87565301D01*
G37*
G36*
X101922400Y-87565301D02*
G01*
X101160400Y-87565301D01*
X101160400Y-86117501D01*
X101922400Y-86117501D01*
X101922400Y-87565301D01*
G37*
G36*
X102922401Y-87565301D02*
G01*
X102160401Y-87565301D01*
X102160401Y-86117501D01*
X102922401Y-86117501D01*
X102922401Y-87565301D01*
G37*
G36*
X103922399Y-87565301D02*
G01*
X103160399Y-87565301D01*
X103160399Y-86117501D01*
X103922399Y-86117501D01*
X103922399Y-87565301D01*
G37*
G36*
X104922399Y-87565301D02*
G01*
X104160399Y-87565301D01*
X104160399Y-86117501D01*
X104922399Y-86117501D01*
X104922399Y-87565301D01*
G37*
G36*
X105922400Y-87565301D02*
G01*
X105160400Y-87565301D01*
X105160400Y-86117501D01*
X105922400Y-86117501D01*
X105922400Y-87565301D01*
G37*
G36*
X106922401Y-87565301D02*
G01*
X106160401Y-87565301D01*
X106160401Y-86117501D01*
X106922401Y-86117501D01*
X106922401Y-87565301D01*
G37*
G36*
X107922401Y-87565301D02*
G01*
X107160401Y-87565301D01*
X107160401Y-86117501D01*
X107922401Y-86117501D01*
X107922401Y-87565301D01*
G37*
G36*
X108922399Y-87565301D02*
G01*
X108160399Y-87565301D01*
X108160399Y-86117501D01*
X108922399Y-86117501D01*
X108922399Y-87565301D01*
G37*
G36*
X109922400Y-87565301D02*
G01*
X109160400Y-87565301D01*
X109160400Y-86117501D01*
X109922400Y-86117501D01*
X109922400Y-87565301D01*
G37*
G36*
X110922400Y-87565301D02*
G01*
X110160400Y-87565301D01*
X110160400Y-86117501D01*
X110922400Y-86117501D01*
X110922400Y-87565301D01*
G37*
G36*
X111922401Y-87565301D02*
G01*
X111160401Y-87565301D01*
X111160401Y-86117501D01*
X111922401Y-86117501D01*
X111922401Y-87565301D01*
G37*
G36*
X112922401Y-87565301D02*
G01*
X112160401Y-87565301D01*
X112160401Y-86117501D01*
X112922401Y-86117501D01*
X112922401Y-87565301D01*
G37*
G36*
X113922399Y-87565301D02*
G01*
X113160399Y-87565301D01*
X113160399Y-86117501D01*
X113922399Y-86117501D01*
X113922399Y-87565301D01*
G37*
G36*
X68039034Y-85130764D02*
G01*
X68072125Y-85152875D01*
X68094236Y-85185966D01*
X68102000Y-85225000D01*
X68102000Y-86275000D01*
X68094236Y-86314034D01*
X68072125Y-86347125D01*
X68039034Y-86369236D01*
X68000000Y-86377000D01*
X67000000Y-86377000D01*
X66960966Y-86369236D01*
X66927875Y-86347125D01*
X66905764Y-86314034D01*
X66898000Y-86275000D01*
X66898000Y-85225000D01*
X66905764Y-85185966D01*
X66927875Y-85152875D01*
X66960966Y-85130764D01*
X67000000Y-85123000D01*
X68000000Y-85123000D01*
X68039034Y-85130764D01*
G37*
G36*
X66589034Y-83030764D02*
G01*
X66622125Y-83052875D01*
X66644236Y-83085966D01*
X66652000Y-83125000D01*
X66652000Y-85325000D01*
X66644236Y-85364034D01*
X66622125Y-85397125D01*
X66589034Y-85419236D01*
X66550000Y-85427000D01*
X65500000Y-85427000D01*
X65460966Y-85419236D01*
X65427875Y-85397125D01*
X65405764Y-85364034D01*
X65398000Y-85325000D01*
X65398000Y-83125000D01*
X65405764Y-83085966D01*
X65427875Y-83052875D01*
X65460966Y-83030764D01*
X65500000Y-83023000D01*
X66550000Y-83023000D01*
X66589034Y-83030764D01*
G37*
G36*
X69539034Y-83030764D02*
G01*
X69572125Y-83052875D01*
X69594236Y-83085966D01*
X69602000Y-83125000D01*
X69602000Y-85325000D01*
X69594236Y-85364034D01*
X69572125Y-85397125D01*
X69539034Y-85419236D01*
X69500000Y-85427000D01*
X68450000Y-85427000D01*
X68410966Y-85419236D01*
X68377875Y-85397125D01*
X68355764Y-85364034D01*
X68348000Y-85325000D01*
X68348000Y-83125000D01*
X68355764Y-83085966D01*
X68377875Y-83052875D01*
X68410966Y-83030764D01*
X68450000Y-83023000D01*
X69500000Y-83023000D01*
X69539034Y-83030764D01*
G37*
G36*
X143039034Y-83330764D02*
G01*
X143072125Y-83352875D01*
X143094236Y-83385966D01*
X143102000Y-83425000D01*
X143102000Y-84475000D01*
X143094236Y-84514034D01*
X143072125Y-84547125D01*
X143039034Y-84569236D01*
X143000000Y-84577000D01*
X142000000Y-84577000D01*
X141960966Y-84569236D01*
X141927875Y-84547125D01*
X141905764Y-84514034D01*
X141898000Y-84475000D01*
X141898000Y-83425000D01*
X141905764Y-83385966D01*
X141927875Y-83352875D01*
X141960966Y-83330764D01*
X142000000Y-83323000D01*
X143000000Y-83323000D01*
X143039034Y-83330764D01*
G37*
G36*
X114949850Y-82990964D02*
G01*
X115000040Y-82996787D01*
X115017189Y-83004359D01*
X115040671Y-83009030D01*
X115065810Y-83025827D01*
X115085696Y-83034608D01*
X115099277Y-83048189D01*
X115121777Y-83063223D01*
X115136810Y-83085722D01*
X115150391Y-83099303D01*
X115159170Y-83119186D01*
X115175970Y-83144329D01*
X115180641Y-83167812D01*
X115188212Y-83184959D01*
X115194033Y-83235139D01*
X115195000Y-83240000D01*
X115195000Y-84055000D01*
X115194032Y-84059863D01*
X115188212Y-84110040D01*
X115180641Y-84127185D01*
X115175970Y-84150671D01*
X115159169Y-84175815D01*
X115150391Y-84195696D01*
X115136812Y-84209274D01*
X115121777Y-84231777D01*
X115099274Y-84246812D01*
X115085696Y-84260391D01*
X115065815Y-84269169D01*
X115040671Y-84285970D01*
X115017185Y-84290641D01*
X115000040Y-84298212D01*
X114949861Y-84304032D01*
X114945000Y-84305000D01*
X114355000Y-84305000D01*
X114350138Y-84304032D01*
X114299959Y-84298212D01*
X114282812Y-84290641D01*
X114259329Y-84285970D01*
X114234186Y-84269170D01*
X114214303Y-84260391D01*
X114200722Y-84246810D01*
X114178223Y-84231777D01*
X114163189Y-84209277D01*
X114149608Y-84195696D01*
X114140827Y-84175810D01*
X114124030Y-84150671D01*
X114119359Y-84127189D01*
X114111787Y-84110040D01*
X114105964Y-84059849D01*
X114105000Y-84055000D01*
X114105000Y-83240000D01*
X114105964Y-83235150D01*
X114111787Y-83184959D01*
X114119359Y-83167808D01*
X114124030Y-83144329D01*
X114140826Y-83119191D01*
X114149608Y-83099303D01*
X114163191Y-83085719D01*
X114178223Y-83063223D01*
X114200719Y-83048191D01*
X114214303Y-83034608D01*
X114234191Y-83025826D01*
X114259329Y-83009030D01*
X114282808Y-83004359D01*
X114299959Y-82996787D01*
X114350151Y-82990964D01*
X114355000Y-82990000D01*
X114945000Y-82990000D01*
X114949850Y-82990964D01*
G37*
G36*
X117104850Y-83093464D02*
G01*
X117155040Y-83099287D01*
X117172189Y-83106859D01*
X117195671Y-83111530D01*
X117220810Y-83128327D01*
X117240696Y-83137108D01*
X117254277Y-83150689D01*
X117276777Y-83165723D01*
X117291810Y-83188222D01*
X117305391Y-83201803D01*
X117314170Y-83221686D01*
X117330970Y-83246829D01*
X117335641Y-83270312D01*
X117343212Y-83287459D01*
X117349033Y-83337639D01*
X117350000Y-83342500D01*
X117350000Y-84042500D01*
X117349032Y-84047363D01*
X117343212Y-84097540D01*
X117335641Y-84114685D01*
X117330970Y-84138171D01*
X117314169Y-84163315D01*
X117305391Y-84183196D01*
X117291812Y-84196774D01*
X117276777Y-84219277D01*
X117254274Y-84234312D01*
X117240696Y-84247891D01*
X117220815Y-84256669D01*
X117195671Y-84273470D01*
X117172185Y-84278141D01*
X117155040Y-84285712D01*
X117104861Y-84291532D01*
X117100000Y-84292500D01*
X116200000Y-84292500D01*
X116195138Y-84291532D01*
X116144959Y-84285712D01*
X116127812Y-84278141D01*
X116104329Y-84273470D01*
X116079186Y-84256670D01*
X116059303Y-84247891D01*
X116045722Y-84234310D01*
X116023223Y-84219277D01*
X116008189Y-84196777D01*
X115994608Y-84183196D01*
X115985827Y-84163310D01*
X115969030Y-84138171D01*
X115964359Y-84114689D01*
X115956787Y-84097540D01*
X115950964Y-84047349D01*
X115950000Y-84042500D01*
X115950000Y-83342500D01*
X115950964Y-83337650D01*
X115956787Y-83287459D01*
X115964359Y-83270308D01*
X115969030Y-83246829D01*
X115985826Y-83221691D01*
X115994608Y-83201803D01*
X116008191Y-83188219D01*
X116023223Y-83165723D01*
X116045719Y-83150691D01*
X116059303Y-83137108D01*
X116079191Y-83128326D01*
X116104329Y-83111530D01*
X116127808Y-83106859D01*
X116144959Y-83099287D01*
X116195151Y-83093464D01*
X116200000Y-83092500D01*
X117100000Y-83092500D01*
X117104850Y-83093464D01*
G37*
G36*
X105716201Y-82680709D02*
G01*
X105740533Y-82696967D01*
X105756791Y-82721299D01*
X105762500Y-82750000D01*
X105762500Y-84075000D01*
X105756791Y-84103701D01*
X105740533Y-84128033D01*
X105716201Y-84144291D01*
X105687500Y-84150000D01*
X105537500Y-84150000D01*
X105508799Y-84144291D01*
X105484467Y-84128033D01*
X105468209Y-84103701D01*
X105462500Y-84075000D01*
X105462500Y-82750000D01*
X105468209Y-82721299D01*
X105484467Y-82696967D01*
X105508799Y-82680709D01*
X105537500Y-82675000D01*
X105687500Y-82675000D01*
X105716201Y-82680709D01*
G37*
G36*
X106216201Y-82680709D02*
G01*
X106240533Y-82696967D01*
X106256791Y-82721299D01*
X106262500Y-82750000D01*
X106262500Y-84075000D01*
X106256791Y-84103701D01*
X106240533Y-84128033D01*
X106216201Y-84144291D01*
X106187500Y-84150000D01*
X106037500Y-84150000D01*
X106008799Y-84144291D01*
X105984467Y-84128033D01*
X105968209Y-84103701D01*
X105962500Y-84075000D01*
X105962500Y-82750000D01*
X105968209Y-82721299D01*
X105984467Y-82696967D01*
X106008799Y-82680709D01*
X106037500Y-82675000D01*
X106187500Y-82675000D01*
X106216201Y-82680709D01*
G37*
G36*
X106716201Y-82680709D02*
G01*
X106740533Y-82696967D01*
X106756791Y-82721299D01*
X106762500Y-82750000D01*
X106762500Y-84075000D01*
X106756791Y-84103701D01*
X106740533Y-84128033D01*
X106716201Y-84144291D01*
X106687500Y-84150000D01*
X106537500Y-84150000D01*
X106508799Y-84144291D01*
X106484467Y-84128033D01*
X106468209Y-84103701D01*
X106462500Y-84075000D01*
X106462500Y-82750000D01*
X106468209Y-82721299D01*
X106484467Y-82696967D01*
X106508799Y-82680709D01*
X106537500Y-82675000D01*
X106687500Y-82675000D01*
X106716201Y-82680709D01*
G37*
G36*
X107216201Y-82680709D02*
G01*
X107240533Y-82696967D01*
X107256791Y-82721299D01*
X107262500Y-82750000D01*
X107262500Y-84075000D01*
X107256791Y-84103701D01*
X107240533Y-84128033D01*
X107216201Y-84144291D01*
X107187500Y-84150000D01*
X107037500Y-84150000D01*
X107008799Y-84144291D01*
X106984467Y-84128033D01*
X106968209Y-84103701D01*
X106962500Y-84075000D01*
X106962500Y-82750000D01*
X106968209Y-82721299D01*
X106984467Y-82696967D01*
X107008799Y-82680709D01*
X107037500Y-82675000D01*
X107187500Y-82675000D01*
X107216201Y-82680709D01*
G37*
G36*
X107716201Y-82680709D02*
G01*
X107740533Y-82696967D01*
X107756791Y-82721299D01*
X107762500Y-82750000D01*
X107762500Y-84075000D01*
X107756791Y-84103701D01*
X107740533Y-84128033D01*
X107716201Y-84144291D01*
X107687500Y-84150000D01*
X107537500Y-84150000D01*
X107508799Y-84144291D01*
X107484467Y-84128033D01*
X107468209Y-84103701D01*
X107462500Y-84075000D01*
X107462500Y-82750000D01*
X107468209Y-82721299D01*
X107484467Y-82696967D01*
X107508799Y-82680709D01*
X107537500Y-82675000D01*
X107687500Y-82675000D01*
X107716201Y-82680709D01*
G37*
G36*
X108216201Y-82680709D02*
G01*
X108240533Y-82696967D01*
X108256791Y-82721299D01*
X108262500Y-82750000D01*
X108262500Y-84075000D01*
X108256791Y-84103701D01*
X108240533Y-84128033D01*
X108216201Y-84144291D01*
X108187500Y-84150000D01*
X108037500Y-84150000D01*
X108008799Y-84144291D01*
X107984467Y-84128033D01*
X107968209Y-84103701D01*
X107962500Y-84075000D01*
X107962500Y-82750000D01*
X107968209Y-82721299D01*
X107984467Y-82696967D01*
X108008799Y-82680709D01*
X108037500Y-82675000D01*
X108187500Y-82675000D01*
X108216201Y-82680709D01*
G37*
G36*
X108716201Y-82680709D02*
G01*
X108740533Y-82696967D01*
X108756791Y-82721299D01*
X108762500Y-82750000D01*
X108762500Y-84075000D01*
X108756791Y-84103701D01*
X108740533Y-84128033D01*
X108716201Y-84144291D01*
X108687500Y-84150000D01*
X108537500Y-84150000D01*
X108508799Y-84144291D01*
X108484467Y-84128033D01*
X108468209Y-84103701D01*
X108462500Y-84075000D01*
X108462500Y-82750000D01*
X108468209Y-82721299D01*
X108484467Y-82696967D01*
X108508799Y-82680709D01*
X108537500Y-82675000D01*
X108687500Y-82675000D01*
X108716201Y-82680709D01*
G37*
G36*
X109216201Y-82680709D02*
G01*
X109240533Y-82696967D01*
X109256791Y-82721299D01*
X109262500Y-82750000D01*
X109262500Y-84075000D01*
X109256791Y-84103701D01*
X109240533Y-84128033D01*
X109216201Y-84144291D01*
X109187500Y-84150000D01*
X109037500Y-84150000D01*
X109008799Y-84144291D01*
X108984467Y-84128033D01*
X108968209Y-84103701D01*
X108962500Y-84075000D01*
X108962500Y-82750000D01*
X108968209Y-82721299D01*
X108984467Y-82696967D01*
X109008799Y-82680709D01*
X109037500Y-82675000D01*
X109187500Y-82675000D01*
X109216201Y-82680709D01*
G37*
G36*
X109716201Y-82680709D02*
G01*
X109740533Y-82696967D01*
X109756791Y-82721299D01*
X109762500Y-82750000D01*
X109762500Y-84075000D01*
X109756791Y-84103701D01*
X109740533Y-84128033D01*
X109716201Y-84144291D01*
X109687500Y-84150000D01*
X109537500Y-84150000D01*
X109508799Y-84144291D01*
X109484467Y-84128033D01*
X109468209Y-84103701D01*
X109462500Y-84075000D01*
X109462500Y-82750000D01*
X109468209Y-82721299D01*
X109484467Y-82696967D01*
X109508799Y-82680709D01*
X109537500Y-82675000D01*
X109687500Y-82675000D01*
X109716201Y-82680709D01*
G37*
G36*
X110216201Y-82680709D02*
G01*
X110240533Y-82696967D01*
X110256791Y-82721299D01*
X110262500Y-82750000D01*
X110262500Y-84075000D01*
X110256791Y-84103701D01*
X110240533Y-84128033D01*
X110216201Y-84144291D01*
X110187500Y-84150000D01*
X110037500Y-84150000D01*
X110008799Y-84144291D01*
X109984467Y-84128033D01*
X109968209Y-84103701D01*
X109962500Y-84075000D01*
X109962500Y-82750000D01*
X109968209Y-82721299D01*
X109984467Y-82696967D01*
X110008799Y-82680709D01*
X110037500Y-82675000D01*
X110187500Y-82675000D01*
X110216201Y-82680709D01*
G37*
G36*
X110716201Y-82680709D02*
G01*
X110740533Y-82696967D01*
X110756791Y-82721299D01*
X110762500Y-82750000D01*
X110762500Y-84075000D01*
X110756791Y-84103701D01*
X110740533Y-84128033D01*
X110716201Y-84144291D01*
X110687500Y-84150000D01*
X110537500Y-84150000D01*
X110508799Y-84144291D01*
X110484467Y-84128033D01*
X110468209Y-84103701D01*
X110462500Y-84075000D01*
X110462500Y-82750000D01*
X110468209Y-82721299D01*
X110484467Y-82696967D01*
X110508799Y-82680709D01*
X110537500Y-82675000D01*
X110687500Y-82675000D01*
X110716201Y-82680709D01*
G37*
G36*
X111216201Y-82680709D02*
G01*
X111240533Y-82696967D01*
X111256791Y-82721299D01*
X111262500Y-82750000D01*
X111262500Y-84075000D01*
X111256791Y-84103701D01*
X111240533Y-84128033D01*
X111216201Y-84144291D01*
X111187500Y-84150000D01*
X111037500Y-84150000D01*
X111008799Y-84144291D01*
X110984467Y-84128033D01*
X110968209Y-84103701D01*
X110962500Y-84075000D01*
X110962500Y-82750000D01*
X110968209Y-82721299D01*
X110984467Y-82696967D01*
X111008799Y-82680709D01*
X111037500Y-82675000D01*
X111187500Y-82675000D01*
X111216201Y-82680709D01*
G37*
G36*
X112348268Y-83307612D02*
G01*
X112380711Y-83329289D01*
X112402388Y-83361732D01*
X112410000Y-83400000D01*
X112410000Y-83600000D01*
X112402388Y-83638268D01*
X112380711Y-83670711D01*
X112348268Y-83692388D01*
X112310000Y-83700000D01*
X111875000Y-83700000D01*
X111836732Y-83692388D01*
X111804289Y-83670711D01*
X111782612Y-83638268D01*
X111775000Y-83600000D01*
X111775000Y-83400000D01*
X111782612Y-83361732D01*
X111804289Y-83329289D01*
X111836732Y-83307612D01*
X111875000Y-83300000D01*
X112310000Y-83300000D01*
X112348268Y-83307612D01*
G37*
G36*
X113163268Y-83307612D02*
G01*
X113195711Y-83329289D01*
X113217388Y-83361732D01*
X113225000Y-83400000D01*
X113225000Y-83600000D01*
X113217388Y-83638268D01*
X113195711Y-83670711D01*
X113163268Y-83692388D01*
X113125000Y-83700000D01*
X112690000Y-83700000D01*
X112651732Y-83692388D01*
X112619289Y-83670711D01*
X112597612Y-83638268D01*
X112590000Y-83600000D01*
X112590000Y-83400000D01*
X112597612Y-83361732D01*
X112619289Y-83329289D01*
X112651732Y-83307612D01*
X112690000Y-83300000D01*
X113125000Y-83300000D01*
X113163268Y-83307612D01*
G37*
G36*
X141589034Y-81230764D02*
G01*
X141622125Y-81252875D01*
X141644236Y-81285966D01*
X141652000Y-81325000D01*
X141652000Y-83525000D01*
X141644236Y-83564034D01*
X141622125Y-83597125D01*
X141589034Y-83619236D01*
X141550000Y-83627000D01*
X140500000Y-83627000D01*
X140460966Y-83619236D01*
X140427875Y-83597125D01*
X140405764Y-83564034D01*
X140398000Y-83525000D01*
X140398000Y-81325000D01*
X140405764Y-81285966D01*
X140427875Y-81252875D01*
X140460966Y-81230764D01*
X140500000Y-81223000D01*
X141550000Y-81223000D01*
X141589034Y-81230764D01*
G37*
G36*
X144539034Y-81230764D02*
G01*
X144572125Y-81252875D01*
X144594236Y-81285966D01*
X144602000Y-81325000D01*
X144602000Y-83525000D01*
X144594236Y-83564034D01*
X144572125Y-83597125D01*
X144539034Y-83619236D01*
X144500000Y-83627000D01*
X143450000Y-83627000D01*
X143410966Y-83619236D01*
X143377875Y-83597125D01*
X143355764Y-83564034D01*
X143348000Y-83525000D01*
X143348000Y-81325000D01*
X143355764Y-81285966D01*
X143377875Y-81252875D01*
X143410966Y-81230764D01*
X143450000Y-81223000D01*
X144500000Y-81223000D01*
X144539034Y-81230764D01*
G37*
G36*
X98605214Y-81297295D02*
G01*
X98741048Y-81353559D01*
X98863295Y-81435242D01*
X98967258Y-81539205D01*
X99048941Y-81661452D01*
X99105205Y-81797286D01*
X99133889Y-81941487D01*
X99133889Y-82088513D01*
X99105205Y-82232714D01*
X99048941Y-82368548D01*
X98967258Y-82490795D01*
X98863295Y-82594758D01*
X98741048Y-82676441D01*
X98605214Y-82732705D01*
X98461013Y-82761389D01*
X98313987Y-82761389D01*
X98169786Y-82732705D01*
X98033952Y-82676441D01*
X97911705Y-82594758D01*
X97807742Y-82490795D01*
X97726059Y-82368548D01*
X97669795Y-82232714D01*
X97641111Y-82088513D01*
X97641111Y-81941487D01*
X97669795Y-81797286D01*
X97726059Y-81661452D01*
X97807742Y-81539205D01*
X97911705Y-81435242D01*
X98033952Y-81353559D01*
X98169786Y-81297295D01*
X98313987Y-81268611D01*
X98461013Y-81268611D01*
X98605214Y-81297295D01*
G37*
G36*
X114949850Y-81035964D02*
G01*
X115000040Y-81041787D01*
X115017189Y-81049359D01*
X115040671Y-81054030D01*
X115065810Y-81070827D01*
X115085696Y-81079608D01*
X115099277Y-81093189D01*
X115121777Y-81108223D01*
X115136810Y-81130722D01*
X115150391Y-81144303D01*
X115159170Y-81164186D01*
X115175970Y-81189329D01*
X115180641Y-81212812D01*
X115188212Y-81229959D01*
X115194033Y-81280139D01*
X115195000Y-81285000D01*
X115195000Y-82100000D01*
X115194032Y-82104863D01*
X115188212Y-82155040D01*
X115180641Y-82172185D01*
X115175970Y-82195671D01*
X115159169Y-82220815D01*
X115150391Y-82240696D01*
X115136812Y-82254274D01*
X115121777Y-82276777D01*
X115099274Y-82291812D01*
X115085696Y-82305391D01*
X115065815Y-82314169D01*
X115040671Y-82330970D01*
X115017185Y-82335641D01*
X115000040Y-82343212D01*
X114949861Y-82349032D01*
X114945000Y-82350000D01*
X114355000Y-82350000D01*
X114350138Y-82349032D01*
X114299959Y-82343212D01*
X114282812Y-82335641D01*
X114259329Y-82330970D01*
X114234186Y-82314170D01*
X114214303Y-82305391D01*
X114200722Y-82291810D01*
X114178223Y-82276777D01*
X114163189Y-82254277D01*
X114149608Y-82240696D01*
X114140827Y-82220810D01*
X114124030Y-82195671D01*
X114119359Y-82172189D01*
X114111787Y-82155040D01*
X114105964Y-82104849D01*
X114105000Y-82100000D01*
X114105000Y-81285000D01*
X114105964Y-81280150D01*
X114111787Y-81229959D01*
X114119359Y-81212808D01*
X114124030Y-81189329D01*
X114140826Y-81164191D01*
X114149608Y-81144303D01*
X114163191Y-81130719D01*
X114178223Y-81108223D01*
X114200719Y-81093191D01*
X114214303Y-81079608D01*
X114234191Y-81070826D01*
X114259329Y-81054030D01*
X114282808Y-81049359D01*
X114299959Y-81041787D01*
X114350151Y-81035964D01*
X114355000Y-81035000D01*
X114945000Y-81035000D01*
X114949850Y-81035964D01*
G37*
G36*
X117104850Y-81093464D02*
G01*
X117155040Y-81099287D01*
X117172189Y-81106859D01*
X117195671Y-81111530D01*
X117220810Y-81128327D01*
X117240696Y-81137108D01*
X117254277Y-81150689D01*
X117276777Y-81165723D01*
X117291810Y-81188222D01*
X117305391Y-81201803D01*
X117314170Y-81221686D01*
X117330970Y-81246829D01*
X117335641Y-81270312D01*
X117343212Y-81287459D01*
X117349033Y-81337639D01*
X117350000Y-81342500D01*
X117350000Y-82042500D01*
X117349032Y-82047363D01*
X117343212Y-82097540D01*
X117335641Y-82114685D01*
X117330970Y-82138171D01*
X117314169Y-82163315D01*
X117305391Y-82183196D01*
X117291812Y-82196774D01*
X117276777Y-82219277D01*
X117254274Y-82234312D01*
X117240696Y-82247891D01*
X117220815Y-82256669D01*
X117195671Y-82273470D01*
X117172185Y-82278141D01*
X117155040Y-82285712D01*
X117104861Y-82291532D01*
X117100000Y-82292500D01*
X116200000Y-82292500D01*
X116195138Y-82291532D01*
X116144959Y-82285712D01*
X116127812Y-82278141D01*
X116104329Y-82273470D01*
X116079186Y-82256670D01*
X116059303Y-82247891D01*
X116045722Y-82234310D01*
X116023223Y-82219277D01*
X116008189Y-82196777D01*
X115994608Y-82183196D01*
X115985827Y-82163310D01*
X115969030Y-82138171D01*
X115964359Y-82114689D01*
X115956787Y-82097540D01*
X115950964Y-82047349D01*
X115950000Y-82042500D01*
X115950000Y-81342500D01*
X115950964Y-81337650D01*
X115956787Y-81287459D01*
X115964359Y-81270308D01*
X115969030Y-81246829D01*
X115985826Y-81221691D01*
X115994608Y-81201803D01*
X116008191Y-81188219D01*
X116023223Y-81165723D01*
X116045719Y-81150691D01*
X116059303Y-81137108D01*
X116079191Y-81128326D01*
X116104329Y-81111530D01*
X116127808Y-81106859D01*
X116144959Y-81099287D01*
X116195151Y-81093464D01*
X116200000Y-81092500D01*
X117100000Y-81092500D01*
X117104850Y-81093464D01*
G37*
G36*
X104891201Y-81855709D02*
G01*
X104915533Y-81871967D01*
X104931791Y-81896299D01*
X104937500Y-81925000D01*
X104937500Y-82075000D01*
X104931791Y-82103701D01*
X104915533Y-82128033D01*
X104891201Y-82144291D01*
X104862500Y-82150000D01*
X103537500Y-82150000D01*
X103508799Y-82144291D01*
X103484467Y-82128033D01*
X103468209Y-82103701D01*
X103462500Y-82075000D01*
X103462500Y-81925000D01*
X103468209Y-81896299D01*
X103484467Y-81871967D01*
X103508799Y-81855709D01*
X103537500Y-81850000D01*
X104862500Y-81850000D01*
X104891201Y-81855709D01*
G37*
G36*
X113216201Y-81855709D02*
G01*
X113240533Y-81871967D01*
X113256791Y-81896299D01*
X113262500Y-81925000D01*
X113262500Y-82075000D01*
X113256791Y-82103701D01*
X113240533Y-82128033D01*
X113216201Y-82144291D01*
X113187500Y-82150000D01*
X111862500Y-82150000D01*
X111833799Y-82144291D01*
X111809467Y-82128033D01*
X111793209Y-82103701D01*
X111787500Y-82075000D01*
X111787500Y-81925000D01*
X111793209Y-81896299D01*
X111809467Y-81871967D01*
X111833799Y-81855709D01*
X111862500Y-81850000D01*
X113187500Y-81850000D01*
X113216201Y-81855709D01*
G37*
G36*
X104891201Y-81355709D02*
G01*
X104915533Y-81371967D01*
X104931791Y-81396299D01*
X104937500Y-81425000D01*
X104937500Y-81575000D01*
X104931791Y-81603701D01*
X104915533Y-81628033D01*
X104891201Y-81644291D01*
X104862500Y-81650000D01*
X103537500Y-81650000D01*
X103508799Y-81644291D01*
X103484467Y-81628033D01*
X103468209Y-81603701D01*
X103462500Y-81575000D01*
X103462500Y-81425000D01*
X103468209Y-81396299D01*
X103484467Y-81371967D01*
X103508799Y-81355709D01*
X103537500Y-81350000D01*
X104862500Y-81350000D01*
X104891201Y-81355709D01*
G37*
G36*
X113216201Y-81355709D02*
G01*
X113240533Y-81371967D01*
X113256791Y-81396299D01*
X113262500Y-81425000D01*
X113262500Y-81575000D01*
X113256791Y-81603701D01*
X113240533Y-81628033D01*
X113216201Y-81644291D01*
X113187500Y-81650000D01*
X111862500Y-81650000D01*
X111833799Y-81644291D01*
X111809467Y-81628033D01*
X111793209Y-81603701D01*
X111787500Y-81575000D01*
X111787500Y-81425000D01*
X111793209Y-81396299D01*
X111809467Y-81371967D01*
X111833799Y-81355709D01*
X111862500Y-81350000D01*
X113187500Y-81350000D01*
X113216201Y-81355709D01*
G37*
G36*
X104891201Y-80855709D02*
G01*
X104915533Y-80871967D01*
X104931791Y-80896299D01*
X104937500Y-80925000D01*
X104937500Y-81075000D01*
X104931791Y-81103701D01*
X104915533Y-81128033D01*
X104891201Y-81144291D01*
X104862500Y-81150000D01*
X103537500Y-81150000D01*
X103508799Y-81144291D01*
X103484467Y-81128033D01*
X103468209Y-81103701D01*
X103462500Y-81075000D01*
X103462500Y-80925000D01*
X103468209Y-80896299D01*
X103484467Y-80871967D01*
X103508799Y-80855709D01*
X103537500Y-80850000D01*
X104862500Y-80850000D01*
X104891201Y-80855709D01*
G37*
G36*
X113216201Y-80855709D02*
G01*
X113240533Y-80871967D01*
X113256791Y-80896299D01*
X113262500Y-80925000D01*
X113262500Y-81075000D01*
X113256791Y-81103701D01*
X113240533Y-81128033D01*
X113216201Y-81144291D01*
X113187500Y-81150000D01*
X111862500Y-81150000D01*
X111833799Y-81144291D01*
X111809467Y-81128033D01*
X111793209Y-81103701D01*
X111787500Y-81075000D01*
X111787500Y-80925000D01*
X111793209Y-80896299D01*
X111809467Y-80871967D01*
X111833799Y-80855709D01*
X111862500Y-80850000D01*
X113187500Y-80850000D01*
X113216201Y-80855709D01*
G37*
G36*
X101940768Y-80307612D02*
G01*
X101973211Y-80329289D01*
X101994888Y-80361732D01*
X102002500Y-80400000D01*
X102002500Y-80600000D01*
X101994888Y-80638268D01*
X101973211Y-80670711D01*
X101940768Y-80692388D01*
X101902500Y-80700000D01*
X101467500Y-80700000D01*
X101429232Y-80692388D01*
X101396789Y-80670711D01*
X101375112Y-80638268D01*
X101367500Y-80600000D01*
X101367500Y-80400000D01*
X101375112Y-80361732D01*
X101396789Y-80329289D01*
X101429232Y-80307612D01*
X101467500Y-80300000D01*
X101902500Y-80300000D01*
X101940768Y-80307612D01*
G37*
G36*
X102755768Y-80307612D02*
G01*
X102788211Y-80329289D01*
X102809888Y-80361732D01*
X102817500Y-80400000D01*
X102817500Y-80600000D01*
X102809888Y-80638268D01*
X102788211Y-80670711D01*
X102755768Y-80692388D01*
X102717500Y-80700000D01*
X102282500Y-80700000D01*
X102244232Y-80692388D01*
X102211789Y-80670711D01*
X102190112Y-80638268D01*
X102182500Y-80600000D01*
X102182500Y-80400000D01*
X102190112Y-80361732D01*
X102211789Y-80329289D01*
X102244232Y-80307612D01*
X102282500Y-80300000D01*
X102717500Y-80300000D01*
X102755768Y-80307612D01*
G37*
G36*
X104891201Y-80355709D02*
G01*
X104915533Y-80371967D01*
X104931791Y-80396299D01*
X104937500Y-80425000D01*
X104937500Y-80575000D01*
X104931791Y-80603701D01*
X104915533Y-80628033D01*
X104891201Y-80644291D01*
X104862500Y-80650000D01*
X103537500Y-80650000D01*
X103508799Y-80644291D01*
X103484467Y-80628033D01*
X103468209Y-80603701D01*
X103462500Y-80575000D01*
X103462500Y-80425000D01*
X103468209Y-80396299D01*
X103484467Y-80371967D01*
X103508799Y-80355709D01*
X103537500Y-80350000D01*
X104862500Y-80350000D01*
X104891201Y-80355709D01*
G37*
G36*
X113216201Y-80355709D02*
G01*
X113240533Y-80371967D01*
X113256791Y-80396299D01*
X113262500Y-80425000D01*
X113262500Y-80575000D01*
X113256791Y-80603701D01*
X113240533Y-80628033D01*
X113216201Y-80644291D01*
X113187500Y-80650000D01*
X111862500Y-80650000D01*
X111833799Y-80644291D01*
X111809467Y-80628033D01*
X111793209Y-80603701D01*
X111787500Y-80575000D01*
X111787500Y-80425000D01*
X111793209Y-80396299D01*
X111809467Y-80371967D01*
X111833799Y-80355709D01*
X111862500Y-80350000D01*
X113187500Y-80350000D01*
X113216201Y-80355709D01*
G37*
G36*
X116548268Y-80200112D02*
G01*
X116580711Y-80221789D01*
X116602388Y-80254232D01*
X116610000Y-80292500D01*
X116610000Y-80492500D01*
X116602388Y-80530768D01*
X116580711Y-80563211D01*
X116548268Y-80584888D01*
X116510000Y-80592500D01*
X116075000Y-80592500D01*
X116036732Y-80584888D01*
X116004289Y-80563211D01*
X115982612Y-80530768D01*
X115975000Y-80492500D01*
X115975000Y-80292500D01*
X115982612Y-80254232D01*
X116004289Y-80221789D01*
X116036732Y-80200112D01*
X116075000Y-80192500D01*
X116510000Y-80192500D01*
X116548268Y-80200112D01*
G37*
G36*
X117363268Y-80200112D02*
G01*
X117395711Y-80221789D01*
X117417388Y-80254232D01*
X117425000Y-80292500D01*
X117425000Y-80492500D01*
X117417388Y-80530768D01*
X117395711Y-80563211D01*
X117363268Y-80584888D01*
X117325000Y-80592500D01*
X116890000Y-80592500D01*
X116851732Y-80584888D01*
X116819289Y-80563211D01*
X116797612Y-80530768D01*
X116790000Y-80492500D01*
X116790000Y-80292500D01*
X116797612Y-80254232D01*
X116819289Y-80221789D01*
X116851732Y-80200112D01*
X116890000Y-80192500D01*
X117325000Y-80192500D01*
X117363268Y-80200112D01*
G37*
G36*
X104891201Y-79855709D02*
G01*
X104915533Y-79871967D01*
X104931791Y-79896299D01*
X104937500Y-79925000D01*
X104937500Y-80075000D01*
X104931791Y-80103701D01*
X104915533Y-80128033D01*
X104891201Y-80144291D01*
X104862500Y-80150000D01*
X103537500Y-80150000D01*
X103508799Y-80144291D01*
X103484467Y-80128033D01*
X103468209Y-80103701D01*
X103462500Y-80075000D01*
X103462500Y-79925000D01*
X103468209Y-79896299D01*
X103484467Y-79871967D01*
X103508799Y-79855709D01*
X103537500Y-79850000D01*
X104862500Y-79850000D01*
X104891201Y-79855709D01*
G37*
G36*
X113216201Y-79855709D02*
G01*
X113240533Y-79871967D01*
X113256791Y-79896299D01*
X113262500Y-79925000D01*
X113262500Y-80075000D01*
X113256791Y-80103701D01*
X113240533Y-80128033D01*
X113216201Y-80144291D01*
X113187500Y-80150000D01*
X111862500Y-80150000D01*
X111833799Y-80144291D01*
X111809467Y-80128033D01*
X111793209Y-80103701D01*
X111787500Y-80075000D01*
X111787500Y-79925000D01*
X111793209Y-79896299D01*
X111809467Y-79871967D01*
X111833799Y-79855709D01*
X111862500Y-79850000D01*
X113187500Y-79850000D01*
X113216201Y-79855709D01*
G37*
G36*
X116548268Y-79400112D02*
G01*
X116580711Y-79421789D01*
X116602388Y-79454232D01*
X116610000Y-79492500D01*
X116610000Y-79692500D01*
X116602388Y-79730768D01*
X116580711Y-79763211D01*
X116548268Y-79784888D01*
X116510000Y-79792500D01*
X116075000Y-79792500D01*
X116036732Y-79784888D01*
X116004289Y-79763211D01*
X115982612Y-79730768D01*
X115975000Y-79692500D01*
X115975000Y-79492500D01*
X115982612Y-79454232D01*
X116004289Y-79421789D01*
X116036732Y-79400112D01*
X116075000Y-79392500D01*
X116510000Y-79392500D01*
X116548268Y-79400112D01*
G37*
G36*
X117363268Y-79400112D02*
G01*
X117395711Y-79421789D01*
X117417388Y-79454232D01*
X117425000Y-79492500D01*
X117425000Y-79692500D01*
X117417388Y-79730768D01*
X117395711Y-79763211D01*
X117363268Y-79784888D01*
X117325000Y-79792500D01*
X116890000Y-79792500D01*
X116851732Y-79784888D01*
X116819289Y-79763211D01*
X116797612Y-79730768D01*
X116790000Y-79692500D01*
X116790000Y-79492500D01*
X116797612Y-79454232D01*
X116819289Y-79421789D01*
X116851732Y-79400112D01*
X116890000Y-79392500D01*
X117325000Y-79392500D01*
X117363268Y-79400112D01*
G37*
G36*
X104891201Y-79355709D02*
G01*
X104915533Y-79371967D01*
X104931791Y-79396299D01*
X104937500Y-79425000D01*
X104937500Y-79575000D01*
X104931791Y-79603701D01*
X104915533Y-79628033D01*
X104891201Y-79644291D01*
X104862500Y-79650000D01*
X103537500Y-79650000D01*
X103508799Y-79644291D01*
X103484467Y-79628033D01*
X103468209Y-79603701D01*
X103462500Y-79575000D01*
X103462500Y-79425000D01*
X103468209Y-79396299D01*
X103484467Y-79371967D01*
X103508799Y-79355709D01*
X103537500Y-79350000D01*
X104862500Y-79350000D01*
X104891201Y-79355709D01*
G37*
G36*
X113216201Y-79355709D02*
G01*
X113240533Y-79371967D01*
X113256791Y-79396299D01*
X113262500Y-79425000D01*
X113262500Y-79575000D01*
X113256791Y-79603701D01*
X113240533Y-79628033D01*
X113216201Y-79644291D01*
X113187500Y-79650000D01*
X111862500Y-79650000D01*
X111833799Y-79644291D01*
X111809467Y-79628033D01*
X111793209Y-79603701D01*
X111787500Y-79575000D01*
X111787500Y-79425000D01*
X111793209Y-79396299D01*
X111809467Y-79371967D01*
X111833799Y-79355709D01*
X111862500Y-79350000D01*
X113187500Y-79350000D01*
X113216201Y-79355709D01*
G37*
G36*
X102068268Y-78872612D02*
G01*
X102100711Y-78894289D01*
X102122388Y-78926732D01*
X102130000Y-78965000D01*
X102130000Y-79165000D01*
X102122388Y-79203268D01*
X102100711Y-79235711D01*
X102068268Y-79257388D01*
X102030000Y-79265000D01*
X101595000Y-79265000D01*
X101556732Y-79257388D01*
X101524289Y-79235711D01*
X101502612Y-79203268D01*
X101495000Y-79165000D01*
X101495000Y-78965000D01*
X101502612Y-78926732D01*
X101524289Y-78894289D01*
X101556732Y-78872612D01*
X101595000Y-78865000D01*
X102030000Y-78865000D01*
X102068268Y-78872612D01*
G37*
G36*
X102883268Y-78872612D02*
G01*
X102915711Y-78894289D01*
X102937388Y-78926732D01*
X102945000Y-78965000D01*
X102945000Y-79165000D01*
X102937388Y-79203268D01*
X102915711Y-79235711D01*
X102883268Y-79257388D01*
X102845000Y-79265000D01*
X102410000Y-79265000D01*
X102371732Y-79257388D01*
X102339289Y-79235711D01*
X102317612Y-79203268D01*
X102310000Y-79165000D01*
X102310000Y-78965000D01*
X102317612Y-78926732D01*
X102339289Y-78894289D01*
X102371732Y-78872612D01*
X102410000Y-78865000D01*
X102845000Y-78865000D01*
X102883268Y-78872612D01*
G37*
G36*
X104891201Y-78855709D02*
G01*
X104915533Y-78871967D01*
X104931791Y-78896299D01*
X104937500Y-78925000D01*
X104937500Y-79075000D01*
X104931791Y-79103701D01*
X104915533Y-79128033D01*
X104891201Y-79144291D01*
X104862500Y-79150000D01*
X103537500Y-79150000D01*
X103508799Y-79144291D01*
X103484467Y-79128033D01*
X103468209Y-79103701D01*
X103462500Y-79075000D01*
X103462500Y-78925000D01*
X103468209Y-78896299D01*
X103484467Y-78871967D01*
X103508799Y-78855709D01*
X103537500Y-78850000D01*
X104862500Y-78850000D01*
X104891201Y-78855709D01*
G37*
G36*
X113216201Y-78855709D02*
G01*
X113240533Y-78871967D01*
X113256791Y-78896299D01*
X113262500Y-78925000D01*
X113262500Y-79075000D01*
X113256791Y-79103701D01*
X113240533Y-79128033D01*
X113216201Y-79144291D01*
X113187500Y-79150000D01*
X111862500Y-79150000D01*
X111833799Y-79144291D01*
X111809467Y-79128033D01*
X111793209Y-79103701D01*
X111787500Y-79075000D01*
X111787500Y-78925000D01*
X111793209Y-78896299D01*
X111809467Y-78871967D01*
X111833799Y-78855709D01*
X111862500Y-78850000D01*
X113187500Y-78850000D01*
X113216201Y-78855709D01*
G37*
G36*
X104891201Y-78355709D02*
G01*
X104915533Y-78371967D01*
X104931791Y-78396299D01*
X104937500Y-78425000D01*
X104937500Y-78575000D01*
X104931791Y-78603701D01*
X104915533Y-78628033D01*
X104891201Y-78644291D01*
X104862500Y-78650000D01*
X103537500Y-78650000D01*
X103508799Y-78644291D01*
X103484467Y-78628033D01*
X103468209Y-78603701D01*
X103462500Y-78575000D01*
X103462500Y-78425000D01*
X103468209Y-78396299D01*
X103484467Y-78371967D01*
X103508799Y-78355709D01*
X103537500Y-78350000D01*
X104862500Y-78350000D01*
X104891201Y-78355709D01*
G37*
G36*
X113216201Y-78355709D02*
G01*
X113240533Y-78371967D01*
X113256791Y-78396299D01*
X113262500Y-78425000D01*
X113262500Y-78575000D01*
X113256791Y-78603701D01*
X113240533Y-78628033D01*
X113216201Y-78644291D01*
X113187500Y-78650000D01*
X111862500Y-78650000D01*
X111833799Y-78644291D01*
X111809467Y-78628033D01*
X111793209Y-78603701D01*
X111787500Y-78575000D01*
X111787500Y-78425000D01*
X111793209Y-78396299D01*
X111809467Y-78371967D01*
X111833799Y-78355709D01*
X111862500Y-78350000D01*
X113187500Y-78350000D01*
X113216201Y-78355709D01*
G37*
G36*
X102028268Y-77972612D02*
G01*
X102060711Y-77994289D01*
X102082388Y-78026732D01*
X102090000Y-78065000D01*
X102090000Y-78265000D01*
X102082388Y-78303268D01*
X102060711Y-78335711D01*
X102028268Y-78357388D01*
X101990000Y-78365000D01*
X101555000Y-78365000D01*
X101516732Y-78357388D01*
X101484289Y-78335711D01*
X101462612Y-78303268D01*
X101455000Y-78265000D01*
X101455000Y-78065000D01*
X101462612Y-78026732D01*
X101484289Y-77994289D01*
X101516732Y-77972612D01*
X101555000Y-77965000D01*
X101990000Y-77965000D01*
X102028268Y-77972612D01*
G37*
G36*
X102843268Y-77972612D02*
G01*
X102875711Y-77994289D01*
X102897388Y-78026732D01*
X102905000Y-78065000D01*
X102905000Y-78265000D01*
X102897388Y-78303268D01*
X102875711Y-78335711D01*
X102843268Y-78357388D01*
X102805000Y-78365000D01*
X102370000Y-78365000D01*
X102331732Y-78357388D01*
X102299289Y-78335711D01*
X102277612Y-78303268D01*
X102270000Y-78265000D01*
X102270000Y-78065000D01*
X102277612Y-78026732D01*
X102299289Y-77994289D01*
X102331732Y-77972612D01*
X102370000Y-77965000D01*
X102805000Y-77965000D01*
X102843268Y-77972612D01*
G37*
G36*
X104891201Y-77855709D02*
G01*
X104915533Y-77871967D01*
X104931791Y-77896299D01*
X104937500Y-77925000D01*
X104937500Y-78075000D01*
X104931791Y-78103701D01*
X104915533Y-78128033D01*
X104891201Y-78144291D01*
X104862500Y-78150000D01*
X103537500Y-78150000D01*
X103508799Y-78144291D01*
X103484467Y-78128033D01*
X103468209Y-78103701D01*
X103462500Y-78075000D01*
X103462500Y-77925000D01*
X103468209Y-77896299D01*
X103484467Y-77871967D01*
X103508799Y-77855709D01*
X103537500Y-77850000D01*
X104862500Y-77850000D01*
X104891201Y-77855709D01*
G37*
G36*
X113216201Y-77855709D02*
G01*
X113240533Y-77871967D01*
X113256791Y-77896299D01*
X113262500Y-77925000D01*
X113262500Y-78075000D01*
X113256791Y-78103701D01*
X113240533Y-78128033D01*
X113216201Y-78144291D01*
X113187500Y-78150000D01*
X111862500Y-78150000D01*
X111833799Y-78144291D01*
X111809467Y-78128033D01*
X111793209Y-78103701D01*
X111787500Y-78075000D01*
X111787500Y-77925000D01*
X111793209Y-77896299D01*
X111809467Y-77871967D01*
X111833799Y-77855709D01*
X111862500Y-77850000D01*
X113187500Y-77850000D01*
X113216201Y-77855709D01*
G37*
G36*
X98605214Y-76397295D02*
G01*
X98741048Y-76453559D01*
X98863295Y-76535242D01*
X98967258Y-76639205D01*
X99048941Y-76761452D01*
X99105205Y-76897286D01*
X99133889Y-77041487D01*
X99133889Y-77188513D01*
X99105205Y-77332714D01*
X99048941Y-77468548D01*
X98967258Y-77590795D01*
X98863295Y-77694758D01*
X98741048Y-77776441D01*
X98605214Y-77832705D01*
X98461013Y-77861389D01*
X98313987Y-77861389D01*
X98169786Y-77832705D01*
X98033952Y-77776441D01*
X97911705Y-77694758D01*
X97807742Y-77590795D01*
X97726059Y-77468548D01*
X97669795Y-77332714D01*
X97641111Y-77188513D01*
X97641111Y-77041487D01*
X97669795Y-76897286D01*
X97726059Y-76761452D01*
X97807742Y-76639205D01*
X97911705Y-76535242D01*
X98033952Y-76453559D01*
X98169786Y-76397295D01*
X98313987Y-76368611D01*
X98461013Y-76368611D01*
X98605214Y-76397295D01*
G37*
G36*
X104891201Y-77355709D02*
G01*
X104915533Y-77371967D01*
X104931791Y-77396299D01*
X104937500Y-77425000D01*
X104937500Y-77575000D01*
X104931791Y-77603701D01*
X104915533Y-77628033D01*
X104891201Y-77644291D01*
X104862500Y-77650000D01*
X103537500Y-77650000D01*
X103508799Y-77644291D01*
X103484467Y-77628033D01*
X103468209Y-77603701D01*
X103462500Y-77575000D01*
X103462500Y-77425000D01*
X103468209Y-77396299D01*
X103484467Y-77371967D01*
X103508799Y-77355709D01*
X103537500Y-77350000D01*
X104862500Y-77350000D01*
X104891201Y-77355709D01*
G37*
G36*
X113216201Y-77355709D02*
G01*
X113240533Y-77371967D01*
X113256791Y-77396299D01*
X113262500Y-77425000D01*
X113262500Y-77575000D01*
X113256791Y-77603701D01*
X113240533Y-77628033D01*
X113216201Y-77644291D01*
X113187500Y-77650000D01*
X111862500Y-77650000D01*
X111833799Y-77644291D01*
X111809467Y-77628033D01*
X111793209Y-77603701D01*
X111787500Y-77575000D01*
X111787500Y-77425000D01*
X111793209Y-77396299D01*
X111809467Y-77371967D01*
X111833799Y-77355709D01*
X111862500Y-77350000D01*
X113187500Y-77350000D01*
X113216201Y-77355709D01*
G37*
G36*
X104891201Y-76855709D02*
G01*
X104915533Y-76871967D01*
X104931791Y-76896299D01*
X104937500Y-76925000D01*
X104937500Y-77075000D01*
X104931791Y-77103701D01*
X104915533Y-77128033D01*
X104891201Y-77144291D01*
X104862500Y-77150000D01*
X103537500Y-77150000D01*
X103508799Y-77144291D01*
X103484467Y-77128033D01*
X103468209Y-77103701D01*
X103462500Y-77075000D01*
X103462500Y-76925000D01*
X103468209Y-76896299D01*
X103484467Y-76871967D01*
X103508799Y-76855709D01*
X103537500Y-76850000D01*
X104862500Y-76850000D01*
X104891201Y-76855709D01*
G37*
G36*
X113216201Y-76855709D02*
G01*
X113240533Y-76871967D01*
X113256791Y-76896299D01*
X113262500Y-76925000D01*
X113262500Y-77075000D01*
X113256791Y-77103701D01*
X113240533Y-77128033D01*
X113216201Y-77144291D01*
X113187500Y-77150000D01*
X111862500Y-77150000D01*
X111833799Y-77144291D01*
X111809467Y-77128033D01*
X111793209Y-77103701D01*
X111787500Y-77075000D01*
X111787500Y-76925000D01*
X111793209Y-76896299D01*
X111809467Y-76871967D01*
X111833799Y-76855709D01*
X111862500Y-76850000D01*
X113187500Y-76850000D01*
X113216201Y-76855709D01*
G37*
G36*
X104891201Y-76355709D02*
G01*
X104915533Y-76371967D01*
X104931791Y-76396299D01*
X104937500Y-76425000D01*
X104937500Y-76575000D01*
X104931791Y-76603701D01*
X104915533Y-76628033D01*
X104891201Y-76644291D01*
X104862500Y-76650000D01*
X103537500Y-76650000D01*
X103508799Y-76644291D01*
X103484467Y-76628033D01*
X103468209Y-76603701D01*
X103462500Y-76575000D01*
X103462500Y-76425000D01*
X103468209Y-76396299D01*
X103484467Y-76371967D01*
X103508799Y-76355709D01*
X103537500Y-76350000D01*
X104862500Y-76350000D01*
X104891201Y-76355709D01*
G37*
G36*
X113216201Y-76355709D02*
G01*
X113240533Y-76371967D01*
X113256791Y-76396299D01*
X113262500Y-76425000D01*
X113262500Y-76575000D01*
X113256791Y-76603701D01*
X113240533Y-76628033D01*
X113216201Y-76644291D01*
X113187500Y-76650000D01*
X111862500Y-76650000D01*
X111833799Y-76644291D01*
X111809467Y-76628033D01*
X111793209Y-76603701D01*
X111787500Y-76575000D01*
X111787500Y-76425000D01*
X111793209Y-76396299D01*
X111809467Y-76371967D01*
X111833799Y-76355709D01*
X111862500Y-76350000D01*
X113187500Y-76350000D01*
X113216201Y-76355709D01*
G37*
G36*
X105716201Y-74355709D02*
G01*
X105740533Y-74371967D01*
X105756791Y-74396299D01*
X105762500Y-74425000D01*
X105762500Y-75750000D01*
X105756791Y-75778701D01*
X105740533Y-75803033D01*
X105716201Y-75819291D01*
X105687500Y-75825000D01*
X105537500Y-75825000D01*
X105508799Y-75819291D01*
X105484467Y-75803033D01*
X105468209Y-75778701D01*
X105462500Y-75750000D01*
X105462500Y-74425000D01*
X105468209Y-74396299D01*
X105484467Y-74371967D01*
X105508799Y-74355709D01*
X105537500Y-74350000D01*
X105687500Y-74350000D01*
X105716201Y-74355709D01*
G37*
G36*
X106216201Y-74355709D02*
G01*
X106240533Y-74371967D01*
X106256791Y-74396299D01*
X106262500Y-74425000D01*
X106262500Y-75750000D01*
X106256791Y-75778701D01*
X106240533Y-75803033D01*
X106216201Y-75819291D01*
X106187500Y-75825000D01*
X106037500Y-75825000D01*
X106008799Y-75819291D01*
X105984467Y-75803033D01*
X105968209Y-75778701D01*
X105962500Y-75750000D01*
X105962500Y-74425000D01*
X105968209Y-74396299D01*
X105984467Y-74371967D01*
X106008799Y-74355709D01*
X106037500Y-74350000D01*
X106187500Y-74350000D01*
X106216201Y-74355709D01*
G37*
G36*
X106716201Y-74355709D02*
G01*
X106740533Y-74371967D01*
X106756791Y-74396299D01*
X106762500Y-74425000D01*
X106762500Y-75750000D01*
X106756791Y-75778701D01*
X106740533Y-75803033D01*
X106716201Y-75819291D01*
X106687500Y-75825000D01*
X106537500Y-75825000D01*
X106508799Y-75819291D01*
X106484467Y-75803033D01*
X106468209Y-75778701D01*
X106462500Y-75750000D01*
X106462500Y-74425000D01*
X106468209Y-74396299D01*
X106484467Y-74371967D01*
X106508799Y-74355709D01*
X106537500Y-74350000D01*
X106687500Y-74350000D01*
X106716201Y-74355709D01*
G37*
G36*
X107216201Y-74355709D02*
G01*
X107240533Y-74371967D01*
X107256791Y-74396299D01*
X107262500Y-74425000D01*
X107262500Y-75750000D01*
X107256791Y-75778701D01*
X107240533Y-75803033D01*
X107216201Y-75819291D01*
X107187500Y-75825000D01*
X107037500Y-75825000D01*
X107008799Y-75819291D01*
X106984467Y-75803033D01*
X106968209Y-75778701D01*
X106962500Y-75750000D01*
X106962500Y-74425000D01*
X106968209Y-74396299D01*
X106984467Y-74371967D01*
X107008799Y-74355709D01*
X107037500Y-74350000D01*
X107187500Y-74350000D01*
X107216201Y-74355709D01*
G37*
G36*
X107716201Y-74355709D02*
G01*
X107740533Y-74371967D01*
X107756791Y-74396299D01*
X107762500Y-74425000D01*
X107762500Y-75750000D01*
X107756791Y-75778701D01*
X107740533Y-75803033D01*
X107716201Y-75819291D01*
X107687500Y-75825000D01*
X107537500Y-75825000D01*
X107508799Y-75819291D01*
X107484467Y-75803033D01*
X107468209Y-75778701D01*
X107462500Y-75750000D01*
X107462500Y-74425000D01*
X107468209Y-74396299D01*
X107484467Y-74371967D01*
X107508799Y-74355709D01*
X107537500Y-74350000D01*
X107687500Y-74350000D01*
X107716201Y-74355709D01*
G37*
G36*
X108216201Y-74355709D02*
G01*
X108240533Y-74371967D01*
X108256791Y-74396299D01*
X108262500Y-74425000D01*
X108262500Y-75750000D01*
X108256791Y-75778701D01*
X108240533Y-75803033D01*
X108216201Y-75819291D01*
X108187500Y-75825000D01*
X108037500Y-75825000D01*
X108008799Y-75819291D01*
X107984467Y-75803033D01*
X107968209Y-75778701D01*
X107962500Y-75750000D01*
X107962500Y-74425000D01*
X107968209Y-74396299D01*
X107984467Y-74371967D01*
X108008799Y-74355709D01*
X108037500Y-74350000D01*
X108187500Y-74350000D01*
X108216201Y-74355709D01*
G37*
G36*
X108716201Y-74355709D02*
G01*
X108740533Y-74371967D01*
X108756791Y-74396299D01*
X108762500Y-74425000D01*
X108762500Y-75750000D01*
X108756791Y-75778701D01*
X108740533Y-75803033D01*
X108716201Y-75819291D01*
X108687500Y-75825000D01*
X108537500Y-75825000D01*
X108508799Y-75819291D01*
X108484467Y-75803033D01*
X108468209Y-75778701D01*
X108462500Y-75750000D01*
X108462500Y-74425000D01*
X108468209Y-74396299D01*
X108484467Y-74371967D01*
X108508799Y-74355709D01*
X108537500Y-74350000D01*
X108687500Y-74350000D01*
X108716201Y-74355709D01*
G37*
G36*
X109216201Y-74355709D02*
G01*
X109240533Y-74371967D01*
X109256791Y-74396299D01*
X109262500Y-74425000D01*
X109262500Y-75750000D01*
X109256791Y-75778701D01*
X109240533Y-75803033D01*
X109216201Y-75819291D01*
X109187500Y-75825000D01*
X109037500Y-75825000D01*
X109008799Y-75819291D01*
X108984467Y-75803033D01*
X108968209Y-75778701D01*
X108962500Y-75750000D01*
X108962500Y-74425000D01*
X108968209Y-74396299D01*
X108984467Y-74371967D01*
X109008799Y-74355709D01*
X109037500Y-74350000D01*
X109187500Y-74350000D01*
X109216201Y-74355709D01*
G37*
G36*
X109716201Y-74355709D02*
G01*
X109740533Y-74371967D01*
X109756791Y-74396299D01*
X109762500Y-74425000D01*
X109762500Y-75750000D01*
X109756791Y-75778701D01*
X109740533Y-75803033D01*
X109716201Y-75819291D01*
X109687500Y-75825000D01*
X109537500Y-75825000D01*
X109508799Y-75819291D01*
X109484467Y-75803033D01*
X109468209Y-75778701D01*
X109462500Y-75750000D01*
X109462500Y-74425000D01*
X109468209Y-74396299D01*
X109484467Y-74371967D01*
X109508799Y-74355709D01*
X109537500Y-74350000D01*
X109687500Y-74350000D01*
X109716201Y-74355709D01*
G37*
G36*
X110216201Y-74355709D02*
G01*
X110240533Y-74371967D01*
X110256791Y-74396299D01*
X110262500Y-74425000D01*
X110262500Y-75750000D01*
X110256791Y-75778701D01*
X110240533Y-75803033D01*
X110216201Y-75819291D01*
X110187500Y-75825000D01*
X110037500Y-75825000D01*
X110008799Y-75819291D01*
X109984467Y-75803033D01*
X109968209Y-75778701D01*
X109962500Y-75750000D01*
X109962500Y-74425000D01*
X109968209Y-74396299D01*
X109984467Y-74371967D01*
X110008799Y-74355709D01*
X110037500Y-74350000D01*
X110187500Y-74350000D01*
X110216201Y-74355709D01*
G37*
G36*
X110716201Y-74355709D02*
G01*
X110740533Y-74371967D01*
X110756791Y-74396299D01*
X110762500Y-74425000D01*
X110762500Y-75750000D01*
X110756791Y-75778701D01*
X110740533Y-75803033D01*
X110716201Y-75819291D01*
X110687500Y-75825000D01*
X110537500Y-75825000D01*
X110508799Y-75819291D01*
X110484467Y-75803033D01*
X110468209Y-75778701D01*
X110462500Y-75750000D01*
X110462500Y-74425000D01*
X110468209Y-74396299D01*
X110484467Y-74371967D01*
X110508799Y-74355709D01*
X110537500Y-74350000D01*
X110687500Y-74350000D01*
X110716201Y-74355709D01*
G37*
G36*
X111216201Y-74355709D02*
G01*
X111240533Y-74371967D01*
X111256791Y-74396299D01*
X111262500Y-74425000D01*
X111262500Y-75750000D01*
X111256791Y-75778701D01*
X111240533Y-75803033D01*
X111216201Y-75819291D01*
X111187500Y-75825000D01*
X111037500Y-75825000D01*
X111008799Y-75819291D01*
X110984467Y-75803033D01*
X110968209Y-75778701D01*
X110962500Y-75750000D01*
X110962500Y-74425000D01*
X110968209Y-74396299D01*
X110984467Y-74371967D01*
X111008799Y-74355709D01*
X111037500Y-74350000D01*
X111187500Y-74350000D01*
X111216201Y-74355709D01*
G37*
G36*
X91604850Y-71925964D02*
G01*
X91655040Y-71931787D01*
X91672189Y-71939359D01*
X91695671Y-71944030D01*
X91720810Y-71960827D01*
X91740696Y-71969608D01*
X91754277Y-71983189D01*
X91776777Y-71998223D01*
X91791810Y-72020722D01*
X91805391Y-72034303D01*
X91814170Y-72054186D01*
X91830970Y-72079329D01*
X91835641Y-72102812D01*
X91843212Y-72119959D01*
X91849033Y-72170139D01*
X91850000Y-72175000D01*
X91850000Y-73625000D01*
X91849032Y-73629863D01*
X91843212Y-73680040D01*
X91835641Y-73697185D01*
X91830970Y-73720671D01*
X91814169Y-73745815D01*
X91805391Y-73765696D01*
X91791812Y-73779274D01*
X91776777Y-73801777D01*
X91754274Y-73816812D01*
X91740696Y-73830391D01*
X91720815Y-73839169D01*
X91695671Y-73855970D01*
X91672185Y-73860641D01*
X91655040Y-73868212D01*
X91604861Y-73874032D01*
X91600000Y-73875000D01*
X90400000Y-73875000D01*
X90395138Y-73874032D01*
X90344959Y-73868212D01*
X90327812Y-73860641D01*
X90304329Y-73855970D01*
X90279186Y-73839170D01*
X90259303Y-73830391D01*
X90245722Y-73816810D01*
X90223223Y-73801777D01*
X90208189Y-73779277D01*
X90194608Y-73765696D01*
X90185827Y-73745810D01*
X90169030Y-73720671D01*
X90164359Y-73697189D01*
X90156787Y-73680040D01*
X90150964Y-73629849D01*
X90150000Y-73625000D01*
X90150000Y-72175000D01*
X90150964Y-72170150D01*
X90156787Y-72119959D01*
X90164359Y-72102808D01*
X90169030Y-72079329D01*
X90185826Y-72054191D01*
X90194608Y-72034303D01*
X90208191Y-72020719D01*
X90223223Y-71998223D01*
X90245719Y-71983191D01*
X90259303Y-71969608D01*
X90279191Y-71960826D01*
X90304329Y-71944030D01*
X90327808Y-71939359D01*
X90344959Y-71931787D01*
X90395151Y-71925964D01*
X90400000Y-71925000D01*
X91600000Y-71925000D01*
X91604850Y-71925964D01*
G37*
G36*
X73746742Y-71961601D02*
G01*
X73900687Y-72025367D01*
X74039234Y-72117941D01*
X74157059Y-72235766D01*
X74249633Y-72374313D01*
X74313399Y-72528258D01*
X74345907Y-72691685D01*
X74350000Y-72775000D01*
X74350000Y-73025000D01*
X74345907Y-73108315D01*
X74313399Y-73271742D01*
X74249633Y-73425687D01*
X74157059Y-73564234D01*
X74039234Y-73682059D01*
X73900687Y-73774633D01*
X73746742Y-73838399D01*
X73583315Y-73870907D01*
X73416685Y-73870907D01*
X73253258Y-73838399D01*
X73099313Y-73774633D01*
X72960766Y-73682059D01*
X72842941Y-73564234D01*
X72750367Y-73425687D01*
X72686601Y-73271742D01*
X72654093Y-73108315D01*
X72650000Y-73025000D01*
X72650000Y-72775000D01*
X72654093Y-72691685D01*
X72686601Y-72528258D01*
X72750367Y-72374313D01*
X72842941Y-72235766D01*
X72960766Y-72117941D01*
X73099313Y-72025367D01*
X73253258Y-71961601D01*
X73416685Y-71929093D01*
X73583315Y-71929093D01*
X73746742Y-71961601D01*
G37*
G36*
X76246742Y-71961601D02*
G01*
X76400687Y-72025367D01*
X76539234Y-72117941D01*
X76657059Y-72235766D01*
X76749633Y-72374313D01*
X76813399Y-72528258D01*
X76845907Y-72691685D01*
X76850000Y-72775000D01*
X76850000Y-73025000D01*
X76845907Y-73108315D01*
X76813399Y-73271742D01*
X76749633Y-73425687D01*
X76657059Y-73564234D01*
X76539234Y-73682059D01*
X76400687Y-73774633D01*
X76246742Y-73838399D01*
X76083315Y-73870907D01*
X75916685Y-73870907D01*
X75753258Y-73838399D01*
X75599313Y-73774633D01*
X75460766Y-73682059D01*
X75342941Y-73564234D01*
X75250367Y-73425687D01*
X75186601Y-73271742D01*
X75154093Y-73108315D01*
X75150000Y-73025000D01*
X75150000Y-72775000D01*
X75154093Y-72691685D01*
X75186601Y-72528258D01*
X75250367Y-72374313D01*
X75342941Y-72235766D01*
X75460766Y-72117941D01*
X75599313Y-72025367D01*
X75753258Y-71961601D01*
X75916685Y-71929093D01*
X76083315Y-71929093D01*
X76246742Y-71961601D01*
G37*
G36*
X78746742Y-71961601D02*
G01*
X78900687Y-72025367D01*
X79039234Y-72117941D01*
X79157059Y-72235766D01*
X79249633Y-72374313D01*
X79313399Y-72528258D01*
X79345907Y-72691685D01*
X79350000Y-72775000D01*
X79350000Y-73025000D01*
X79345907Y-73108315D01*
X79313399Y-73271742D01*
X79249633Y-73425687D01*
X79157059Y-73564234D01*
X79039234Y-73682059D01*
X78900687Y-73774633D01*
X78746742Y-73838399D01*
X78583315Y-73870907D01*
X78416685Y-73870907D01*
X78253258Y-73838399D01*
X78099313Y-73774633D01*
X77960766Y-73682059D01*
X77842941Y-73564234D01*
X77750367Y-73425687D01*
X77686601Y-73271742D01*
X77654093Y-73108315D01*
X77650000Y-73025000D01*
X77650000Y-72775000D01*
X77654093Y-72691685D01*
X77686601Y-72528258D01*
X77750367Y-72374313D01*
X77842941Y-72235766D01*
X77960766Y-72117941D01*
X78099313Y-72025367D01*
X78253258Y-71961601D01*
X78416685Y-71929093D01*
X78583315Y-71929093D01*
X78746742Y-71961601D01*
G37*
G36*
X81246742Y-71961601D02*
G01*
X81400687Y-72025367D01*
X81539234Y-72117941D01*
X81657059Y-72235766D01*
X81749633Y-72374313D01*
X81813399Y-72528258D01*
X81845907Y-72691685D01*
X81850000Y-72775000D01*
X81850000Y-73025000D01*
X81845907Y-73108315D01*
X81813399Y-73271742D01*
X81749633Y-73425687D01*
X81657059Y-73564234D01*
X81539234Y-73682059D01*
X81400687Y-73774633D01*
X81246742Y-73838399D01*
X81083315Y-73870907D01*
X80916685Y-73870907D01*
X80753258Y-73838399D01*
X80599313Y-73774633D01*
X80460766Y-73682059D01*
X80342941Y-73564234D01*
X80250367Y-73425687D01*
X80186601Y-73271742D01*
X80154093Y-73108315D01*
X80150000Y-73025000D01*
X80150000Y-72775000D01*
X80154093Y-72691685D01*
X80186601Y-72528258D01*
X80250367Y-72374313D01*
X80342941Y-72235766D01*
X80460766Y-72117941D01*
X80599313Y-72025367D01*
X80753258Y-71961601D01*
X80916685Y-71929093D01*
X81083315Y-71929093D01*
X81246742Y-71961601D01*
G37*
G36*
X83746742Y-71961601D02*
G01*
X83900687Y-72025367D01*
X84039234Y-72117941D01*
X84157059Y-72235766D01*
X84249633Y-72374313D01*
X84313399Y-72528258D01*
X84345907Y-72691685D01*
X84350000Y-72775000D01*
X84350000Y-73025000D01*
X84345907Y-73108315D01*
X84313399Y-73271742D01*
X84249633Y-73425687D01*
X84157059Y-73564234D01*
X84039234Y-73682059D01*
X83900687Y-73774633D01*
X83746742Y-73838399D01*
X83583315Y-73870907D01*
X83416685Y-73870907D01*
X83253258Y-73838399D01*
X83099313Y-73774633D01*
X82960766Y-73682059D01*
X82842941Y-73564234D01*
X82750367Y-73425687D01*
X82686601Y-73271742D01*
X82654093Y-73108315D01*
X82650000Y-73025000D01*
X82650000Y-72775000D01*
X82654093Y-72691685D01*
X82686601Y-72528258D01*
X82750367Y-72374313D01*
X82842941Y-72235766D01*
X82960766Y-72117941D01*
X83099313Y-72025367D01*
X83253258Y-71961601D01*
X83416685Y-71929093D01*
X83583315Y-71929093D01*
X83746742Y-71961601D01*
G37*
G36*
X86246742Y-71961601D02*
G01*
X86400687Y-72025367D01*
X86539234Y-72117941D01*
X86657059Y-72235766D01*
X86749633Y-72374313D01*
X86813399Y-72528258D01*
X86845907Y-72691685D01*
X86850000Y-72775000D01*
X86850000Y-73025000D01*
X86845907Y-73108315D01*
X86813399Y-73271742D01*
X86749633Y-73425687D01*
X86657059Y-73564234D01*
X86539234Y-73682059D01*
X86400687Y-73774633D01*
X86246742Y-73838399D01*
X86083315Y-73870907D01*
X85916685Y-73870907D01*
X85753258Y-73838399D01*
X85599313Y-73774633D01*
X85460766Y-73682059D01*
X85342941Y-73564234D01*
X85250367Y-73425687D01*
X85186601Y-73271742D01*
X85154093Y-73108315D01*
X85150000Y-73025000D01*
X85150000Y-72775000D01*
X85154093Y-72691685D01*
X85186601Y-72528258D01*
X85250367Y-72374313D01*
X85342941Y-72235766D01*
X85460766Y-72117941D01*
X85599313Y-72025367D01*
X85753258Y-71961601D01*
X85916685Y-71929093D01*
X86083315Y-71929093D01*
X86246742Y-71961601D01*
G37*
G36*
X88746742Y-71961601D02*
G01*
X88900687Y-72025367D01*
X89039234Y-72117941D01*
X89157059Y-72235766D01*
X89249633Y-72374313D01*
X89313399Y-72528258D01*
X89345907Y-72691685D01*
X89350000Y-72775000D01*
X89350000Y-73025000D01*
X89345907Y-73108315D01*
X89313399Y-73271742D01*
X89249633Y-73425687D01*
X89157059Y-73564234D01*
X89039234Y-73682059D01*
X88900687Y-73774633D01*
X88746742Y-73838399D01*
X88583315Y-73870907D01*
X88416685Y-73870907D01*
X88253258Y-73838399D01*
X88099313Y-73774633D01*
X87960766Y-73682059D01*
X87842941Y-73564234D01*
X87750367Y-73425687D01*
X87686601Y-73271742D01*
X87654093Y-73108315D01*
X87650000Y-73025000D01*
X87650000Y-72775000D01*
X87654093Y-72691685D01*
X87686601Y-72528258D01*
X87750367Y-72374313D01*
X87842941Y-72235766D01*
X87960766Y-72117941D01*
X88099313Y-72025367D01*
X88253258Y-71961601D01*
X88416685Y-71929093D01*
X88583315Y-71929093D01*
X88746742Y-71961601D01*
G37*
G36*
X137354850Y-71775964D02*
G01*
X137405040Y-71781787D01*
X137422189Y-71789359D01*
X137445671Y-71794030D01*
X137470810Y-71810827D01*
X137490696Y-71819608D01*
X137504277Y-71833189D01*
X137526777Y-71848223D01*
X137541810Y-71870722D01*
X137555391Y-71884303D01*
X137564170Y-71904186D01*
X137580970Y-71929329D01*
X137585641Y-71952812D01*
X137593212Y-71969959D01*
X137599033Y-72020139D01*
X137600000Y-72025000D01*
X137600000Y-73475000D01*
X137599032Y-73479863D01*
X137593212Y-73530040D01*
X137585641Y-73547185D01*
X137580970Y-73570671D01*
X137564169Y-73595815D01*
X137555391Y-73615696D01*
X137541812Y-73629274D01*
X137526777Y-73651777D01*
X137504274Y-73666812D01*
X137490696Y-73680391D01*
X137470815Y-73689169D01*
X137445671Y-73705970D01*
X137422185Y-73710641D01*
X137405040Y-73718212D01*
X137354861Y-73724032D01*
X137350000Y-73725000D01*
X136150000Y-73725000D01*
X136145138Y-73724032D01*
X136094959Y-73718212D01*
X136077812Y-73710641D01*
X136054329Y-73705970D01*
X136029186Y-73689170D01*
X136009303Y-73680391D01*
X135995722Y-73666810D01*
X135973223Y-73651777D01*
X135958189Y-73629277D01*
X135944608Y-73615696D01*
X135935827Y-73595810D01*
X135919030Y-73570671D01*
X135914359Y-73547189D01*
X135906787Y-73530040D01*
X135900964Y-73479849D01*
X135900000Y-73475000D01*
X135900000Y-72025000D01*
X135900964Y-72020150D01*
X135906787Y-71969959D01*
X135914359Y-71952808D01*
X135919030Y-71929329D01*
X135935826Y-71904191D01*
X135944608Y-71884303D01*
X135958191Y-71870719D01*
X135973223Y-71848223D01*
X135995719Y-71833191D01*
X136009303Y-71819608D01*
X136029191Y-71810826D01*
X136054329Y-71794030D01*
X136077808Y-71789359D01*
X136094959Y-71781787D01*
X136145151Y-71775964D01*
X136150000Y-71775000D01*
X137350000Y-71775000D01*
X137354850Y-71775964D01*
G37*
G36*
X119496742Y-71811601D02*
G01*
X119650687Y-71875367D01*
X119789234Y-71967941D01*
X119907059Y-72085766D01*
X119999633Y-72224313D01*
X120063399Y-72378258D01*
X120095907Y-72541685D01*
X120100000Y-72625000D01*
X120100000Y-72875000D01*
X120095907Y-72958315D01*
X120063399Y-73121742D01*
X119999633Y-73275687D01*
X119907059Y-73414234D01*
X119789234Y-73532059D01*
X119650687Y-73624633D01*
X119496742Y-73688399D01*
X119333315Y-73720907D01*
X119166685Y-73720907D01*
X119003258Y-73688399D01*
X118849313Y-73624633D01*
X118710766Y-73532059D01*
X118592941Y-73414234D01*
X118500367Y-73275687D01*
X118436601Y-73121742D01*
X118404093Y-72958315D01*
X118400000Y-72875000D01*
X118400000Y-72625000D01*
X118404093Y-72541685D01*
X118436601Y-72378258D01*
X118500367Y-72224313D01*
X118592941Y-72085766D01*
X118710766Y-71967941D01*
X118849313Y-71875367D01*
X119003258Y-71811601D01*
X119166685Y-71779093D01*
X119333315Y-71779093D01*
X119496742Y-71811601D01*
G37*
G36*
X121996742Y-71811601D02*
G01*
X122150687Y-71875367D01*
X122289234Y-71967941D01*
X122407059Y-72085766D01*
X122499633Y-72224313D01*
X122563399Y-72378258D01*
X122595907Y-72541685D01*
X122600000Y-72625000D01*
X122600000Y-72875000D01*
X122595907Y-72958315D01*
X122563399Y-73121742D01*
X122499633Y-73275687D01*
X122407059Y-73414234D01*
X122289234Y-73532059D01*
X122150687Y-73624633D01*
X121996742Y-73688399D01*
X121833315Y-73720907D01*
X121666685Y-73720907D01*
X121503258Y-73688399D01*
X121349313Y-73624633D01*
X121210766Y-73532059D01*
X121092941Y-73414234D01*
X121000367Y-73275687D01*
X120936601Y-73121742D01*
X120904093Y-72958315D01*
X120900000Y-72875000D01*
X120900000Y-72625000D01*
X120904093Y-72541685D01*
X120936601Y-72378258D01*
X121000367Y-72224313D01*
X121092941Y-72085766D01*
X121210766Y-71967941D01*
X121349313Y-71875367D01*
X121503258Y-71811601D01*
X121666685Y-71779093D01*
X121833315Y-71779093D01*
X121996742Y-71811601D01*
G37*
G36*
X124496742Y-71811601D02*
G01*
X124650687Y-71875367D01*
X124789234Y-71967941D01*
X124907059Y-72085766D01*
X124999633Y-72224313D01*
X125063399Y-72378258D01*
X125095907Y-72541685D01*
X125100000Y-72625000D01*
X125100000Y-72875000D01*
X125095907Y-72958315D01*
X125063399Y-73121742D01*
X124999633Y-73275687D01*
X124907059Y-73414234D01*
X124789234Y-73532059D01*
X124650687Y-73624633D01*
X124496742Y-73688399D01*
X124333315Y-73720907D01*
X124166685Y-73720907D01*
X124003258Y-73688399D01*
X123849313Y-73624633D01*
X123710766Y-73532059D01*
X123592941Y-73414234D01*
X123500367Y-73275687D01*
X123436601Y-73121742D01*
X123404093Y-72958315D01*
X123400000Y-72875000D01*
X123400000Y-72625000D01*
X123404093Y-72541685D01*
X123436601Y-72378258D01*
X123500367Y-72224313D01*
X123592941Y-72085766D01*
X123710766Y-71967941D01*
X123849313Y-71875367D01*
X124003258Y-71811601D01*
X124166685Y-71779093D01*
X124333315Y-71779093D01*
X124496742Y-71811601D01*
G37*
G36*
X126996742Y-71811601D02*
G01*
X127150687Y-71875367D01*
X127289234Y-71967941D01*
X127407059Y-72085766D01*
X127499633Y-72224313D01*
X127563399Y-72378258D01*
X127595907Y-72541685D01*
X127600000Y-72625000D01*
X127600000Y-72875000D01*
X127595907Y-72958315D01*
X127563399Y-73121742D01*
X127499633Y-73275687D01*
X127407059Y-73414234D01*
X127289234Y-73532059D01*
X127150687Y-73624633D01*
X126996742Y-73688399D01*
X126833315Y-73720907D01*
X126666685Y-73720907D01*
X126503258Y-73688399D01*
X126349313Y-73624633D01*
X126210766Y-73532059D01*
X126092941Y-73414234D01*
X126000367Y-73275687D01*
X125936601Y-73121742D01*
X125904093Y-72958315D01*
X125900000Y-72875000D01*
X125900000Y-72625000D01*
X125904093Y-72541685D01*
X125936601Y-72378258D01*
X126000367Y-72224313D01*
X126092941Y-72085766D01*
X126210766Y-71967941D01*
X126349313Y-71875367D01*
X126503258Y-71811601D01*
X126666685Y-71779093D01*
X126833315Y-71779093D01*
X126996742Y-71811601D01*
G37*
G36*
X129496742Y-71811601D02*
G01*
X129650687Y-71875367D01*
X129789234Y-71967941D01*
X129907059Y-72085766D01*
X129999633Y-72224313D01*
X130063399Y-72378258D01*
X130095907Y-72541685D01*
X130100000Y-72625000D01*
X130100000Y-72875000D01*
X130095907Y-72958315D01*
X130063399Y-73121742D01*
X129999633Y-73275687D01*
X129907059Y-73414234D01*
X129789234Y-73532059D01*
X129650687Y-73624633D01*
X129496742Y-73688399D01*
X129333315Y-73720907D01*
X129166685Y-73720907D01*
X129003258Y-73688399D01*
X128849313Y-73624633D01*
X128710766Y-73532059D01*
X128592941Y-73414234D01*
X128500367Y-73275687D01*
X128436601Y-73121742D01*
X128404093Y-72958315D01*
X128400000Y-72875000D01*
X128400000Y-72625000D01*
X128404093Y-72541685D01*
X128436601Y-72378258D01*
X128500367Y-72224313D01*
X128592941Y-72085766D01*
X128710766Y-71967941D01*
X128849313Y-71875367D01*
X129003258Y-71811601D01*
X129166685Y-71779093D01*
X129333315Y-71779093D01*
X129496742Y-71811601D01*
G37*
G36*
X131996742Y-71811601D02*
G01*
X132150687Y-71875367D01*
X132289234Y-71967941D01*
X132407059Y-72085766D01*
X132499633Y-72224313D01*
X132563399Y-72378258D01*
X132595907Y-72541685D01*
X132600000Y-72625000D01*
X132600000Y-72875000D01*
X132595907Y-72958315D01*
X132563399Y-73121742D01*
X132499633Y-73275687D01*
X132407059Y-73414234D01*
X132289234Y-73532059D01*
X132150687Y-73624633D01*
X131996742Y-73688399D01*
X131833315Y-73720907D01*
X131666685Y-73720907D01*
X131503258Y-73688399D01*
X131349313Y-73624633D01*
X131210766Y-73532059D01*
X131092941Y-73414234D01*
X131000367Y-73275687D01*
X130936601Y-73121742D01*
X130904093Y-72958315D01*
X130900000Y-72875000D01*
X130900000Y-72625000D01*
X130904093Y-72541685D01*
X130936601Y-72378258D01*
X131000367Y-72224313D01*
X131092941Y-72085766D01*
X131210766Y-71967941D01*
X131349313Y-71875367D01*
X131503258Y-71811601D01*
X131666685Y-71779093D01*
X131833315Y-71779093D01*
X131996742Y-71811601D01*
G37*
G36*
X134496742Y-71811601D02*
G01*
X134650687Y-71875367D01*
X134789234Y-71967941D01*
X134907059Y-72085766D01*
X134999633Y-72224313D01*
X135063399Y-72378258D01*
X135095907Y-72541685D01*
X135100000Y-72625000D01*
X135100000Y-72875000D01*
X135095907Y-72958315D01*
X135063399Y-73121742D01*
X134999633Y-73275687D01*
X134907059Y-73414234D01*
X134789234Y-73532059D01*
X134650687Y-73624633D01*
X134496742Y-73688399D01*
X134333315Y-73720907D01*
X134166685Y-73720907D01*
X134003258Y-73688399D01*
X133849313Y-73624633D01*
X133710766Y-73532059D01*
X133592941Y-73414234D01*
X133500367Y-73275687D01*
X133436601Y-73121742D01*
X133404093Y-72958315D01*
X133400000Y-72875000D01*
X133400000Y-72625000D01*
X133404093Y-72541685D01*
X133436601Y-72378258D01*
X133500367Y-72224313D01*
X133592941Y-72085766D01*
X133710766Y-71967941D01*
X133849313Y-71875367D01*
X134003258Y-71811601D01*
X134166685Y-71779093D01*
X134333315Y-71779093D01*
X134496742Y-71811601D01*
G37*
G36*
X67892687Y-71555056D02*
G01*
X67902918Y-71555056D01*
X67942893Y-71563007D01*
X68045074Y-71579191D01*
X68077943Y-71589870D01*
X68104799Y-71595213D01*
X68142700Y-71610912D01*
X68201741Y-71630096D01*
X68257052Y-71658278D01*
X68294967Y-71673983D01*
X68317742Y-71689201D01*
X68348528Y-71704887D01*
X68432217Y-71765690D01*
X68466113Y-71788339D01*
X68473347Y-71795573D01*
X68481798Y-71801713D01*
X68598286Y-71918201D01*
X68604425Y-71926651D01*
X68611661Y-71933887D01*
X68634312Y-71967787D01*
X68695112Y-72051471D01*
X68710796Y-72082254D01*
X68726017Y-72105033D01*
X68741723Y-72142952D01*
X68769903Y-72198258D01*
X68789084Y-72257292D01*
X68804787Y-72295201D01*
X68810130Y-72322062D01*
X68820808Y-72354925D01*
X68836990Y-72457098D01*
X68844944Y-72497082D01*
X68844944Y-72507313D01*
X68846578Y-72517630D01*
X68846578Y-72682369D01*
X68844944Y-72692685D01*
X68844944Y-72702918D01*
X68836990Y-72742905D01*
X68820808Y-72845074D01*
X68810130Y-72877935D01*
X68804787Y-72904799D01*
X68789083Y-72942711D01*
X68769903Y-73001741D01*
X68741726Y-73057041D01*
X68726017Y-73094967D01*
X68710794Y-73117749D01*
X68695112Y-73148528D01*
X68634320Y-73232200D01*
X68611661Y-73266113D01*
X68604423Y-73273350D01*
X68598286Y-73281798D01*
X68481798Y-73398286D01*
X68473350Y-73404423D01*
X68466113Y-73411661D01*
X68432200Y-73434320D01*
X68348528Y-73495112D01*
X68317749Y-73510794D01*
X68294967Y-73526017D01*
X68257041Y-73541726D01*
X68201741Y-73569903D01*
X68142711Y-73589083D01*
X68104799Y-73604787D01*
X68077935Y-73610130D01*
X68045074Y-73620808D01*
X67942902Y-73636990D01*
X67902918Y-73644944D01*
X67892687Y-73644944D01*
X67882370Y-73646578D01*
X67717630Y-73646578D01*
X67707313Y-73644944D01*
X67697082Y-73644944D01*
X67657098Y-73636990D01*
X67554925Y-73620808D01*
X67522062Y-73610130D01*
X67495201Y-73604787D01*
X67457292Y-73589084D01*
X67398258Y-73569903D01*
X67342952Y-73541723D01*
X67305033Y-73526017D01*
X67282254Y-73510796D01*
X67251471Y-73495112D01*
X67167787Y-73434312D01*
X67133887Y-73411661D01*
X67126651Y-73404425D01*
X67118201Y-73398286D01*
X67001713Y-73281798D01*
X66995573Y-73273347D01*
X66988339Y-73266113D01*
X66965690Y-73232217D01*
X66904887Y-73148528D01*
X66889201Y-73117742D01*
X66873983Y-73094967D01*
X66858278Y-73057052D01*
X66830096Y-73001741D01*
X66810912Y-72942700D01*
X66795213Y-72904799D01*
X66789870Y-72877943D01*
X66779191Y-72845074D01*
X66763008Y-72742895D01*
X66755056Y-72702918D01*
X66755056Y-72692686D01*
X66753422Y-72682369D01*
X66753422Y-72517630D01*
X66755056Y-72507312D01*
X66755056Y-72497082D01*
X66763007Y-72457108D01*
X66779191Y-72354925D01*
X66789871Y-72322054D01*
X66795213Y-72295201D01*
X66810910Y-72257303D01*
X66830096Y-72198258D01*
X66858280Y-72142942D01*
X66873983Y-72105033D01*
X66889199Y-72082260D01*
X66904887Y-72051471D01*
X66965699Y-71967770D01*
X66988339Y-71933887D01*
X66995570Y-71926655D01*
X67001713Y-71918201D01*
X67118201Y-71801713D01*
X67126655Y-71795570D01*
X67133887Y-71788339D01*
X67167770Y-71765699D01*
X67251471Y-71704887D01*
X67282260Y-71689199D01*
X67305033Y-71673983D01*
X67342942Y-71658280D01*
X67398258Y-71630096D01*
X67457303Y-71610910D01*
X67495201Y-71595213D01*
X67522054Y-71589871D01*
X67554925Y-71579191D01*
X67657108Y-71563007D01*
X67697082Y-71555056D01*
X67707313Y-71555056D01*
X67717630Y-71553422D01*
X67882370Y-71553422D01*
X67892687Y-71555056D01*
G37*
G36*
X106142350Y-72190964D02*
G01*
X106192540Y-72196787D01*
X106209689Y-72204359D01*
X106233171Y-72209030D01*
X106258310Y-72225827D01*
X106278196Y-72234608D01*
X106291777Y-72248189D01*
X106314277Y-72263223D01*
X106329310Y-72285722D01*
X106342891Y-72299303D01*
X106351670Y-72319186D01*
X106368470Y-72344329D01*
X106373141Y-72367812D01*
X106380712Y-72384959D01*
X106386533Y-72435139D01*
X106387500Y-72440000D01*
X106387500Y-73340000D01*
X106386532Y-73344863D01*
X106380712Y-73395040D01*
X106373141Y-73412185D01*
X106368470Y-73435671D01*
X106351669Y-73460815D01*
X106342891Y-73480696D01*
X106329312Y-73494274D01*
X106314277Y-73516777D01*
X106291774Y-73531812D01*
X106278196Y-73545391D01*
X106258315Y-73554169D01*
X106233171Y-73570970D01*
X106209685Y-73575641D01*
X106192540Y-73583212D01*
X106142361Y-73589032D01*
X106137500Y-73590000D01*
X105437500Y-73590000D01*
X105432638Y-73589032D01*
X105382459Y-73583212D01*
X105365312Y-73575641D01*
X105341829Y-73570970D01*
X105316686Y-73554170D01*
X105296803Y-73545391D01*
X105283222Y-73531810D01*
X105260723Y-73516777D01*
X105245689Y-73494277D01*
X105232108Y-73480696D01*
X105223327Y-73460810D01*
X105206530Y-73435671D01*
X105201859Y-73412189D01*
X105194287Y-73395040D01*
X105188464Y-73344849D01*
X105187500Y-73340000D01*
X105187500Y-72440000D01*
X105188464Y-72435150D01*
X105194287Y-72384959D01*
X105201859Y-72367808D01*
X105206530Y-72344329D01*
X105223326Y-72319191D01*
X105232108Y-72299303D01*
X105245691Y-72285719D01*
X105260723Y-72263223D01*
X105283219Y-72248191D01*
X105296803Y-72234608D01*
X105316691Y-72225826D01*
X105341829Y-72209030D01*
X105365308Y-72204359D01*
X105382459Y-72196787D01*
X105432651Y-72190964D01*
X105437500Y-72190000D01*
X106137500Y-72190000D01*
X106142350Y-72190964D01*
G37*
G36*
X108142350Y-72190964D02*
G01*
X108192540Y-72196787D01*
X108209689Y-72204359D01*
X108233171Y-72209030D01*
X108258310Y-72225827D01*
X108278196Y-72234608D01*
X108291777Y-72248189D01*
X108314277Y-72263223D01*
X108329310Y-72285722D01*
X108342891Y-72299303D01*
X108351670Y-72319186D01*
X108368470Y-72344329D01*
X108373141Y-72367812D01*
X108380712Y-72384959D01*
X108386533Y-72435139D01*
X108387500Y-72440000D01*
X108387500Y-73340000D01*
X108386532Y-73344863D01*
X108380712Y-73395040D01*
X108373141Y-73412185D01*
X108368470Y-73435671D01*
X108351669Y-73460815D01*
X108342891Y-73480696D01*
X108329312Y-73494274D01*
X108314277Y-73516777D01*
X108291774Y-73531812D01*
X108278196Y-73545391D01*
X108258315Y-73554169D01*
X108233171Y-73570970D01*
X108209685Y-73575641D01*
X108192540Y-73583212D01*
X108142361Y-73589032D01*
X108137500Y-73590000D01*
X107437500Y-73590000D01*
X107432638Y-73589032D01*
X107382459Y-73583212D01*
X107365312Y-73575641D01*
X107341829Y-73570970D01*
X107316686Y-73554170D01*
X107296803Y-73545391D01*
X107283222Y-73531810D01*
X107260723Y-73516777D01*
X107245689Y-73494277D01*
X107232108Y-73480696D01*
X107223327Y-73460810D01*
X107206530Y-73435671D01*
X107201859Y-73412189D01*
X107194287Y-73395040D01*
X107188464Y-73344849D01*
X107187500Y-73340000D01*
X107187500Y-72440000D01*
X107188464Y-72435150D01*
X107194287Y-72384959D01*
X107201859Y-72367808D01*
X107206530Y-72344329D01*
X107223326Y-72319191D01*
X107232108Y-72299303D01*
X107245691Y-72285719D01*
X107260723Y-72263223D01*
X107283219Y-72248191D01*
X107296803Y-72234608D01*
X107316691Y-72225826D01*
X107341829Y-72209030D01*
X107365308Y-72204359D01*
X107382459Y-72196787D01*
X107432651Y-72190964D01*
X107437500Y-72190000D01*
X108137500Y-72190000D01*
X108142350Y-72190964D01*
G37*
G36*
X142592687Y-71205056D02*
G01*
X142602918Y-71205056D01*
X142642893Y-71213007D01*
X142745074Y-71229191D01*
X142777943Y-71239870D01*
X142804799Y-71245213D01*
X142842700Y-71260912D01*
X142901741Y-71280096D01*
X142957052Y-71308278D01*
X142994967Y-71323983D01*
X143017742Y-71339201D01*
X143048528Y-71354887D01*
X143132217Y-71415690D01*
X143166113Y-71438339D01*
X143173347Y-71445573D01*
X143181798Y-71451713D01*
X143298286Y-71568201D01*
X143304425Y-71576651D01*
X143311661Y-71583887D01*
X143334312Y-71617787D01*
X143395112Y-71701471D01*
X143410796Y-71732254D01*
X143426017Y-71755033D01*
X143441723Y-71792952D01*
X143469903Y-71848258D01*
X143489084Y-71907292D01*
X143504787Y-71945201D01*
X143510130Y-71972062D01*
X143520808Y-72004925D01*
X143536990Y-72107098D01*
X143544944Y-72147082D01*
X143544944Y-72157313D01*
X143546578Y-72167630D01*
X143546578Y-72332369D01*
X143544944Y-72342685D01*
X143544944Y-72352918D01*
X143536990Y-72392905D01*
X143520808Y-72495074D01*
X143510130Y-72527935D01*
X143504787Y-72554799D01*
X143489083Y-72592711D01*
X143469903Y-72651741D01*
X143441726Y-72707041D01*
X143426017Y-72744967D01*
X143410794Y-72767749D01*
X143395112Y-72798528D01*
X143334320Y-72882200D01*
X143311661Y-72916113D01*
X143304423Y-72923350D01*
X143298286Y-72931798D01*
X143181798Y-73048286D01*
X143173350Y-73054423D01*
X143166113Y-73061661D01*
X143132200Y-73084320D01*
X143048528Y-73145112D01*
X143017749Y-73160794D01*
X142994967Y-73176017D01*
X142957041Y-73191726D01*
X142901741Y-73219903D01*
X142842711Y-73239083D01*
X142804799Y-73254787D01*
X142777935Y-73260130D01*
X142745074Y-73270808D01*
X142642902Y-73286990D01*
X142602918Y-73294944D01*
X142592687Y-73294944D01*
X142582370Y-73296578D01*
X142417630Y-73296578D01*
X142407313Y-73294944D01*
X142397082Y-73294944D01*
X142357098Y-73286990D01*
X142254925Y-73270808D01*
X142222062Y-73260130D01*
X142195201Y-73254787D01*
X142157292Y-73239084D01*
X142098258Y-73219903D01*
X142042952Y-73191723D01*
X142005033Y-73176017D01*
X141982254Y-73160796D01*
X141951471Y-73145112D01*
X141867787Y-73084312D01*
X141833887Y-73061661D01*
X141826651Y-73054425D01*
X141818201Y-73048286D01*
X141701713Y-72931798D01*
X141695573Y-72923347D01*
X141688339Y-72916113D01*
X141665690Y-72882217D01*
X141604887Y-72798528D01*
X141589201Y-72767742D01*
X141573983Y-72744967D01*
X141558278Y-72707052D01*
X141530096Y-72651741D01*
X141510912Y-72592700D01*
X141495213Y-72554799D01*
X141489870Y-72527943D01*
X141479191Y-72495074D01*
X141463008Y-72392895D01*
X141455056Y-72352918D01*
X141455056Y-72342686D01*
X141453422Y-72332369D01*
X141453422Y-72167630D01*
X141455056Y-72157312D01*
X141455056Y-72147082D01*
X141463007Y-72107108D01*
X141479191Y-72004925D01*
X141489871Y-71972054D01*
X141495213Y-71945201D01*
X141510910Y-71907303D01*
X141530096Y-71848258D01*
X141558280Y-71792942D01*
X141573983Y-71755033D01*
X141589199Y-71732260D01*
X141604887Y-71701471D01*
X141665699Y-71617770D01*
X141688339Y-71583887D01*
X141695570Y-71576655D01*
X141701713Y-71568201D01*
X141818201Y-71451713D01*
X141826655Y-71445570D01*
X141833887Y-71438339D01*
X141867770Y-71415699D01*
X141951471Y-71354887D01*
X141982260Y-71339199D01*
X142005033Y-71323983D01*
X142042942Y-71308280D01*
X142098258Y-71280096D01*
X142157303Y-71260910D01*
X142195201Y-71245213D01*
X142222054Y-71239871D01*
X142254925Y-71229191D01*
X142357108Y-71213007D01*
X142397082Y-71205056D01*
X142407313Y-71205056D01*
X142417630Y-71203422D01*
X142582370Y-71203422D01*
X142592687Y-71205056D01*
G37*
M02*
