%TF.GenerationSoftware,KiCad,Pcbnew,10.0.3*%
%TF.CreationDate,2026-07-18T14:46:18+05:45*%
%TF.ProjectId,GSM_GPS Embedded Development Board,47534d5f-4750-4532-9045-6d6265646465,rev?*%
%TF.SameCoordinates,Original*%
%TF.FileFunction,Soldermask,Bot*%
%TF.FilePolarity,Negative*%
%FSLAX46Y46*%
G04 Gerber Fmt 4.6, Leading zero omitted, Abs format (unit mm)*
G04 Created by KiCad (PCBNEW 10.0.3) date 2026-07-18 14:46:18*
%MOMM*%
%LPD*%
G01*
G04 APERTURE LIST*
G04 APERTURE END LIST*
G36*
X72579535Y-132805560D02*
G01*
X72760647Y-132880579D01*
X72923643Y-132989490D01*
X73062260Y-133128107D01*
X73171171Y-133291103D01*
X73246190Y-133472215D01*
X73284435Y-133664483D01*
X73284435Y-133860517D01*
X73246190Y-134052785D01*
X73171171Y-134233897D01*
X73062260Y-134396893D01*
X72923643Y-134535510D01*
X72760647Y-134644421D01*
X72579535Y-134719440D01*
X72387267Y-134757685D01*
X72191233Y-134757685D01*
X71998965Y-134719440D01*
X71817853Y-134644421D01*
X71654857Y-134535510D01*
X71516240Y-134396893D01*
X71407329Y-134233897D01*
X71332310Y-134052785D01*
X71294065Y-133860517D01*
X71294065Y-133664483D01*
X71332310Y-133472215D01*
X71407329Y-133291103D01*
X71516240Y-133128107D01*
X71654857Y-132989490D01*
X71817853Y-132880579D01*
X71998965Y-132805560D01*
X72191233Y-132767315D01*
X72387267Y-132767315D01*
X72579535Y-132805560D01*
G37*
G36*
X79079535Y-132805560D02*
G01*
X79260647Y-132880579D01*
X79423643Y-132989490D01*
X79562260Y-133128107D01*
X79671171Y-133291103D01*
X79746190Y-133472215D01*
X79784435Y-133664483D01*
X79784435Y-133860517D01*
X79746190Y-134052785D01*
X79671171Y-134233897D01*
X79562260Y-134396893D01*
X79423643Y-134535510D01*
X79260647Y-134644421D01*
X79079535Y-134719440D01*
X78887267Y-134757685D01*
X78691233Y-134757685D01*
X78498965Y-134719440D01*
X78317853Y-134644421D01*
X78154857Y-134535510D01*
X78016240Y-134396893D01*
X77907329Y-134233897D01*
X77832310Y-134052785D01*
X77794065Y-133860517D01*
X77794065Y-133664483D01*
X77832310Y-133472215D01*
X77907329Y-133291103D01*
X78016240Y-133128107D01*
X78154857Y-132989490D01*
X78317853Y-132880579D01*
X78498965Y-132805560D01*
X78691233Y-132767315D01*
X78887267Y-132767315D01*
X79079535Y-132805560D01*
G37*
G36*
X132129535Y-132755560D02*
G01*
X132310647Y-132830579D01*
X132473643Y-132939490D01*
X132612260Y-133078107D01*
X132721171Y-133241103D01*
X132796190Y-133422215D01*
X132834435Y-133614483D01*
X132834435Y-133810517D01*
X132796190Y-134002785D01*
X132721171Y-134183897D01*
X132612260Y-134346893D01*
X132473643Y-134485510D01*
X132310647Y-134594421D01*
X132129535Y-134669440D01*
X131937267Y-134707685D01*
X131741233Y-134707685D01*
X131548965Y-134669440D01*
X131367853Y-134594421D01*
X131204857Y-134485510D01*
X131066240Y-134346893D01*
X130957329Y-134183897D01*
X130882310Y-134002785D01*
X130844065Y-133810517D01*
X130844065Y-133614483D01*
X130882310Y-133422215D01*
X130957329Y-133241103D01*
X131066240Y-133078107D01*
X131204857Y-132939490D01*
X131367853Y-132830579D01*
X131548965Y-132755560D01*
X131741233Y-132717315D01*
X131937267Y-132717315D01*
X132129535Y-132755560D01*
G37*
G36*
X138629535Y-132755560D02*
G01*
X138810647Y-132830579D01*
X138973643Y-132939490D01*
X139112260Y-133078107D01*
X139221171Y-133241103D01*
X139296190Y-133422215D01*
X139334435Y-133614483D01*
X139334435Y-133810517D01*
X139296190Y-134002785D01*
X139221171Y-134183897D01*
X139112260Y-134346893D01*
X138973643Y-134485510D01*
X138810647Y-134594421D01*
X138629535Y-134669440D01*
X138437267Y-134707685D01*
X138241233Y-134707685D01*
X138048965Y-134669440D01*
X137867853Y-134594421D01*
X137704857Y-134485510D01*
X137566240Y-134346893D01*
X137457329Y-134183897D01*
X137382310Y-134002785D01*
X137344065Y-133810517D01*
X137344065Y-133614483D01*
X137382310Y-133422215D01*
X137457329Y-133241103D01*
X137566240Y-133078107D01*
X137704857Y-132939490D01*
X137867853Y-132830579D01*
X138048965Y-132755560D01*
X138241233Y-132717315D01*
X138437267Y-132717315D01*
X138629535Y-132755560D01*
G37*
G36*
X68231937Y-131817556D02*
G01*
X68242168Y-131817556D01*
X68282143Y-131825507D01*
X68384324Y-131841691D01*
X68417193Y-131852370D01*
X68444049Y-131857713D01*
X68481950Y-131873412D01*
X68540991Y-131892596D01*
X68596302Y-131920778D01*
X68634217Y-131936483D01*
X68656992Y-131951701D01*
X68687778Y-131967387D01*
X68771467Y-132028190D01*
X68805363Y-132050839D01*
X68812597Y-132058073D01*
X68821048Y-132064213D01*
X68937536Y-132180701D01*
X68943675Y-132189151D01*
X68950911Y-132196387D01*
X68973562Y-132230287D01*
X69034362Y-132313971D01*
X69050046Y-132344754D01*
X69065267Y-132367533D01*
X69080973Y-132405452D01*
X69109153Y-132460758D01*
X69128334Y-132519792D01*
X69144037Y-132557701D01*
X69149380Y-132584562D01*
X69160058Y-132617425D01*
X69176240Y-132719598D01*
X69184194Y-132759582D01*
X69184194Y-132769813D01*
X69185828Y-132780130D01*
X69185828Y-132944869D01*
X69184194Y-132955185D01*
X69184194Y-132965418D01*
X69176240Y-133005405D01*
X69160058Y-133107574D01*
X69149380Y-133140435D01*
X69144037Y-133167299D01*
X69128333Y-133205211D01*
X69109153Y-133264241D01*
X69080976Y-133319541D01*
X69065267Y-133357467D01*
X69050044Y-133380249D01*
X69034362Y-133411028D01*
X68973570Y-133494700D01*
X68950911Y-133528613D01*
X68943673Y-133535850D01*
X68937536Y-133544298D01*
X68821048Y-133660786D01*
X68812600Y-133666923D01*
X68805363Y-133674161D01*
X68771450Y-133696820D01*
X68687778Y-133757612D01*
X68656999Y-133773294D01*
X68634217Y-133788517D01*
X68596291Y-133804226D01*
X68540991Y-133832403D01*
X68481961Y-133851583D01*
X68444049Y-133867287D01*
X68417185Y-133872630D01*
X68384324Y-133883308D01*
X68282152Y-133899490D01*
X68242168Y-133907444D01*
X68231937Y-133907444D01*
X68221620Y-133909078D01*
X68056880Y-133909078D01*
X68046563Y-133907444D01*
X68036332Y-133907444D01*
X67996348Y-133899490D01*
X67894175Y-133883308D01*
X67861312Y-133872630D01*
X67834451Y-133867287D01*
X67796542Y-133851584D01*
X67737508Y-133832403D01*
X67682202Y-133804223D01*
X67644283Y-133788517D01*
X67621504Y-133773296D01*
X67590721Y-133757612D01*
X67507037Y-133696812D01*
X67473137Y-133674161D01*
X67465901Y-133666925D01*
X67457451Y-133660786D01*
X67340963Y-133544298D01*
X67334823Y-133535847D01*
X67327589Y-133528613D01*
X67304940Y-133494717D01*
X67244137Y-133411028D01*
X67228451Y-133380242D01*
X67213233Y-133357467D01*
X67197528Y-133319552D01*
X67169346Y-133264241D01*
X67150162Y-133205200D01*
X67134463Y-133167299D01*
X67129120Y-133140443D01*
X67118441Y-133107574D01*
X67102258Y-133005395D01*
X67094306Y-132965418D01*
X67094306Y-132955186D01*
X67092672Y-132944869D01*
X67092672Y-132780130D01*
X67094306Y-132769812D01*
X67094306Y-132759582D01*
X67102257Y-132719608D01*
X67118441Y-132617425D01*
X67129121Y-132584554D01*
X67134463Y-132557701D01*
X67150160Y-132519803D01*
X67169346Y-132460758D01*
X67197530Y-132405442D01*
X67213233Y-132367533D01*
X67228449Y-132344760D01*
X67244137Y-132313971D01*
X67304949Y-132230270D01*
X67327589Y-132196387D01*
X67334820Y-132189155D01*
X67340963Y-132180701D01*
X67457451Y-132064213D01*
X67465905Y-132058070D01*
X67473137Y-132050839D01*
X67507020Y-132028199D01*
X67590721Y-131967387D01*
X67621510Y-131951699D01*
X67644283Y-131936483D01*
X67682192Y-131920780D01*
X67737508Y-131892596D01*
X67796553Y-131873410D01*
X67834451Y-131857713D01*
X67861304Y-131852371D01*
X67894175Y-131841691D01*
X67996358Y-131825507D01*
X68036332Y-131817556D01*
X68046563Y-131817556D01*
X68056880Y-131815922D01*
X68221620Y-131815922D01*
X68231937Y-131817556D01*
G37*
G36*
X142481937Y-131817556D02*
G01*
X142492168Y-131817556D01*
X142532143Y-131825507D01*
X142634324Y-131841691D01*
X142667193Y-131852370D01*
X142694049Y-131857713D01*
X142731950Y-131873412D01*
X142790991Y-131892596D01*
X142846302Y-131920778D01*
X142884217Y-131936483D01*
X142906992Y-131951701D01*
X142937778Y-131967387D01*
X143021467Y-132028190D01*
X143055363Y-132050839D01*
X143062597Y-132058073D01*
X143071048Y-132064213D01*
X143187536Y-132180701D01*
X143193675Y-132189151D01*
X143200911Y-132196387D01*
X143223562Y-132230287D01*
X143284362Y-132313971D01*
X143300046Y-132344754D01*
X143315267Y-132367533D01*
X143330973Y-132405452D01*
X143359153Y-132460758D01*
X143378334Y-132519792D01*
X143394037Y-132557701D01*
X143399380Y-132584562D01*
X143410058Y-132617425D01*
X143426240Y-132719598D01*
X143434194Y-132759582D01*
X143434194Y-132769813D01*
X143435828Y-132780130D01*
X143435828Y-132944869D01*
X143434194Y-132955185D01*
X143434194Y-132965418D01*
X143426240Y-133005405D01*
X143410058Y-133107574D01*
X143399380Y-133140435D01*
X143394037Y-133167299D01*
X143378333Y-133205211D01*
X143359153Y-133264241D01*
X143330976Y-133319541D01*
X143315267Y-133357467D01*
X143300044Y-133380249D01*
X143284362Y-133411028D01*
X143223570Y-133494700D01*
X143200911Y-133528613D01*
X143193673Y-133535850D01*
X143187536Y-133544298D01*
X143071048Y-133660786D01*
X143062600Y-133666923D01*
X143055363Y-133674161D01*
X143021450Y-133696820D01*
X142937778Y-133757612D01*
X142906999Y-133773294D01*
X142884217Y-133788517D01*
X142846291Y-133804226D01*
X142790991Y-133832403D01*
X142731961Y-133851583D01*
X142694049Y-133867287D01*
X142667185Y-133872630D01*
X142634324Y-133883308D01*
X142532152Y-133899490D01*
X142492168Y-133907444D01*
X142481937Y-133907444D01*
X142471620Y-133909078D01*
X142306880Y-133909078D01*
X142296563Y-133907444D01*
X142286332Y-133907444D01*
X142246348Y-133899490D01*
X142144175Y-133883308D01*
X142111312Y-133872630D01*
X142084451Y-133867287D01*
X142046542Y-133851584D01*
X141987508Y-133832403D01*
X141932202Y-133804223D01*
X141894283Y-133788517D01*
X141871504Y-133773296D01*
X141840721Y-133757612D01*
X141757037Y-133696812D01*
X141723137Y-133674161D01*
X141715901Y-133666925D01*
X141707451Y-133660786D01*
X141590963Y-133544298D01*
X141584823Y-133535847D01*
X141577589Y-133528613D01*
X141554940Y-133494717D01*
X141494137Y-133411028D01*
X141478451Y-133380242D01*
X141463233Y-133357467D01*
X141447528Y-133319552D01*
X141419346Y-133264241D01*
X141400162Y-133205200D01*
X141384463Y-133167299D01*
X141379120Y-133140443D01*
X141368441Y-133107574D01*
X141352258Y-133005395D01*
X141344306Y-132965418D01*
X141344306Y-132955186D01*
X141342672Y-132944869D01*
X141342672Y-132780130D01*
X141344306Y-132769812D01*
X141344306Y-132759582D01*
X141352257Y-132719608D01*
X141368441Y-132617425D01*
X141379121Y-132584554D01*
X141384463Y-132557701D01*
X141400160Y-132519803D01*
X141419346Y-132460758D01*
X141447530Y-132405442D01*
X141463233Y-132367533D01*
X141478449Y-132344760D01*
X141494137Y-132313971D01*
X141554949Y-132230270D01*
X141577589Y-132196387D01*
X141584820Y-132189155D01*
X141590963Y-132180701D01*
X141707451Y-132064213D01*
X141715905Y-132058070D01*
X141723137Y-132050839D01*
X141757020Y-132028199D01*
X141840721Y-131967387D01*
X141871510Y-131951699D01*
X141894283Y-131936483D01*
X141932192Y-131920780D01*
X141987508Y-131892596D01*
X142046553Y-131873410D01*
X142084451Y-131857713D01*
X142111304Y-131852371D01*
X142144175Y-131841691D01*
X142246358Y-131825507D01*
X142286332Y-131817556D01*
X142296563Y-131817556D01*
X142306880Y-131815922D01*
X142471620Y-131815922D01*
X142481937Y-131817556D01*
G37*
G36*
X72579535Y-128305560D02*
G01*
X72760647Y-128380579D01*
X72923643Y-128489490D01*
X73062260Y-128628107D01*
X73171171Y-128791103D01*
X73246190Y-128972215D01*
X73284435Y-129164483D01*
X73284435Y-129360517D01*
X73246190Y-129552785D01*
X73171171Y-129733897D01*
X73062260Y-129896893D01*
X72923643Y-130035510D01*
X72760647Y-130144421D01*
X72579535Y-130219440D01*
X72387267Y-130257685D01*
X72191233Y-130257685D01*
X71998965Y-130219440D01*
X71817853Y-130144421D01*
X71654857Y-130035510D01*
X71516240Y-129896893D01*
X71407329Y-129733897D01*
X71332310Y-129552785D01*
X71294065Y-129360517D01*
X71294065Y-129164483D01*
X71332310Y-128972215D01*
X71407329Y-128791103D01*
X71516240Y-128628107D01*
X71654857Y-128489490D01*
X71817853Y-128380579D01*
X71998965Y-128305560D01*
X72191233Y-128267315D01*
X72387267Y-128267315D01*
X72579535Y-128305560D01*
G37*
G36*
X79079535Y-128305560D02*
G01*
X79260647Y-128380579D01*
X79423643Y-128489490D01*
X79562260Y-128628107D01*
X79671171Y-128791103D01*
X79746190Y-128972215D01*
X79784435Y-129164483D01*
X79784435Y-129360517D01*
X79746190Y-129552785D01*
X79671171Y-129733897D01*
X79562260Y-129896893D01*
X79423643Y-130035510D01*
X79260647Y-130144421D01*
X79079535Y-130219440D01*
X78887267Y-130257685D01*
X78691233Y-130257685D01*
X78498965Y-130219440D01*
X78317853Y-130144421D01*
X78154857Y-130035510D01*
X78016240Y-129896893D01*
X77907329Y-129733897D01*
X77832310Y-129552785D01*
X77794065Y-129360517D01*
X77794065Y-129164483D01*
X77832310Y-128972215D01*
X77907329Y-128791103D01*
X78016240Y-128628107D01*
X78154857Y-128489490D01*
X78317853Y-128380579D01*
X78498965Y-128305560D01*
X78691233Y-128267315D01*
X78887267Y-128267315D01*
X79079535Y-128305560D01*
G37*
G36*
X132129535Y-128255560D02*
G01*
X132310647Y-128330579D01*
X132473643Y-128439490D01*
X132612260Y-128578107D01*
X132721171Y-128741103D01*
X132796190Y-128922215D01*
X132834435Y-129114483D01*
X132834435Y-129310517D01*
X132796190Y-129502785D01*
X132721171Y-129683897D01*
X132612260Y-129846893D01*
X132473643Y-129985510D01*
X132310647Y-130094421D01*
X132129535Y-130169440D01*
X131937267Y-130207685D01*
X131741233Y-130207685D01*
X131548965Y-130169440D01*
X131367853Y-130094421D01*
X131204857Y-129985510D01*
X131066240Y-129846893D01*
X130957329Y-129683897D01*
X130882310Y-129502785D01*
X130844065Y-129310517D01*
X130844065Y-129114483D01*
X130882310Y-128922215D01*
X130957329Y-128741103D01*
X131066240Y-128578107D01*
X131204857Y-128439490D01*
X131367853Y-128330579D01*
X131548965Y-128255560D01*
X131741233Y-128217315D01*
X131937267Y-128217315D01*
X132129535Y-128255560D01*
G37*
G36*
X138629535Y-128255560D02*
G01*
X138810647Y-128330579D01*
X138973643Y-128439490D01*
X139112260Y-128578107D01*
X139221171Y-128741103D01*
X139296190Y-128922215D01*
X139334435Y-129114483D01*
X139334435Y-129310517D01*
X139296190Y-129502785D01*
X139221171Y-129683897D01*
X139112260Y-129846893D01*
X138973643Y-129985510D01*
X138810647Y-130094421D01*
X138629535Y-130169440D01*
X138437267Y-130207685D01*
X138241233Y-130207685D01*
X138048965Y-130169440D01*
X137867853Y-130094421D01*
X137704857Y-129985510D01*
X137566240Y-129846893D01*
X137457329Y-129683897D01*
X137382310Y-129502785D01*
X137344065Y-129310517D01*
X137344065Y-129114483D01*
X137382310Y-128922215D01*
X137457329Y-128741103D01*
X137566240Y-128578107D01*
X137704857Y-128439490D01*
X137867853Y-128330579D01*
X138048965Y-128255560D01*
X138241233Y-128217315D01*
X138437267Y-128217315D01*
X138629535Y-128255560D01*
G37*
G36*
X78018462Y-105631775D02*
G01*
X78190086Y-105687539D01*
X78350873Y-105769464D01*
X78496865Y-105875533D01*
X78624467Y-106003135D01*
X78730536Y-106149127D01*
X78812461Y-106309914D01*
X78868225Y-106481538D01*
X78896455Y-106659772D01*
X78896455Y-106840228D01*
X78868225Y-107018462D01*
X78812461Y-107190086D01*
X78730536Y-107350873D01*
X78624467Y-107496865D01*
X78496865Y-107624467D01*
X78350873Y-107730536D01*
X78190086Y-107812461D01*
X78018462Y-107868225D01*
X77840228Y-107896455D01*
X77659772Y-107896455D01*
X77481538Y-107868225D01*
X77309914Y-107812461D01*
X77149127Y-107730536D01*
X77003135Y-107624467D01*
X76875533Y-107496865D01*
X76769464Y-107350873D01*
X76687539Y-107190086D01*
X76631775Y-107018462D01*
X76603545Y-106840228D01*
X76603545Y-106659772D01*
X76631775Y-106481538D01*
X76687539Y-106309914D01*
X76769464Y-106149127D01*
X76875533Y-106003135D01*
X77003135Y-105875533D01*
X77149127Y-105769464D01*
X77309914Y-105687539D01*
X77481538Y-105631775D01*
X77659772Y-105603545D01*
X77840228Y-105603545D01*
X78018462Y-105631775D01*
G37*
G36*
X78654848Y-102100964D02*
G01*
X78705040Y-102106787D01*
X78722189Y-102114359D01*
X78745670Y-102119030D01*
X78770807Y-102135826D01*
X78790695Y-102144608D01*
X78804278Y-102158191D01*
X78826776Y-102173224D01*
X78841808Y-102195721D01*
X78855391Y-102209304D01*
X78864171Y-102229189D01*
X78880970Y-102254330D01*
X78885640Y-102277811D01*
X78893212Y-102294959D01*
X78899036Y-102345163D01*
X78899999Y-102350002D01*
X78899999Y-102353458D01*
X78900000Y-102353467D01*
X78900000Y-104146532D01*
X78900000Y-104149999D01*
X78899034Y-104154851D01*
X78893212Y-104205040D01*
X78885641Y-104222185D01*
X78880970Y-104245670D01*
X78864170Y-104270812D01*
X78855391Y-104290695D01*
X78841810Y-104304275D01*
X78826776Y-104326776D01*
X78804275Y-104341810D01*
X78790695Y-104355391D01*
X78770812Y-104364170D01*
X78745670Y-104380970D01*
X78722187Y-104385640D01*
X78705040Y-104393212D01*
X78654836Y-104399036D01*
X78649998Y-104399999D01*
X78646541Y-104399999D01*
X78646533Y-104400000D01*
X76853467Y-104400000D01*
X76853466Y-104399999D01*
X76850001Y-104400000D01*
X76845149Y-104399035D01*
X76794959Y-104393212D01*
X76777812Y-104385640D01*
X76754330Y-104380970D01*
X76729189Y-104364171D01*
X76709304Y-104355391D01*
X76695721Y-104341808D01*
X76673224Y-104326776D01*
X76658191Y-104304278D01*
X76644608Y-104290695D01*
X76635826Y-104270807D01*
X76619030Y-104245670D01*
X76614360Y-104222191D01*
X76606787Y-104205040D01*
X76600963Y-104154836D01*
X76600001Y-104149998D01*
X76600000Y-104146540D01*
X76600000Y-104146532D01*
X76600000Y-102353467D01*
X76600000Y-102353466D01*
X76600000Y-102350001D01*
X76600964Y-102345151D01*
X76606787Y-102294959D01*
X76614359Y-102277808D01*
X76619030Y-102254330D01*
X76635825Y-102229193D01*
X76644608Y-102209304D01*
X76658193Y-102195718D01*
X76673224Y-102173224D01*
X76695718Y-102158193D01*
X76709304Y-102144608D01*
X76729193Y-102135825D01*
X76754330Y-102119030D01*
X76777807Y-102114360D01*
X76794959Y-102106787D01*
X76845165Y-102100963D01*
X76850002Y-102100001D01*
X76853458Y-102100000D01*
X76853467Y-102100000D01*
X78646533Y-102100000D01*
X78649999Y-102100000D01*
X78654848Y-102100964D01*
G37*
G36*
X98605214Y-81297295D02*
G01*
X98741048Y-81353559D01*
X98863295Y-81435242D01*
X98967258Y-81539205D01*
X99048941Y-81661452D01*
X99105205Y-81797286D01*
X99133889Y-81941487D01*
X99133889Y-82088513D01*
X99105205Y-82232714D01*
X99048941Y-82368548D01*
X98967258Y-82490795D01*
X98863295Y-82594758D01*
X98741048Y-82676441D01*
X98605214Y-82732705D01*
X98461013Y-82761389D01*
X98313987Y-82761389D01*
X98169786Y-82732705D01*
X98033952Y-82676441D01*
X97911705Y-82594758D01*
X97807742Y-82490795D01*
X97726059Y-82368548D01*
X97669795Y-82232714D01*
X97641111Y-82088513D01*
X97641111Y-81941487D01*
X97669795Y-81797286D01*
X97726059Y-81661452D01*
X97807742Y-81539205D01*
X97911705Y-81435242D01*
X98033952Y-81353559D01*
X98169786Y-81297295D01*
X98313987Y-81268611D01*
X98461013Y-81268611D01*
X98605214Y-81297295D01*
G37*
G36*
X98605214Y-76397295D02*
G01*
X98741048Y-76453559D01*
X98863295Y-76535242D01*
X98967258Y-76639205D01*
X99048941Y-76761452D01*
X99105205Y-76897286D01*
X99133889Y-77041487D01*
X99133889Y-77188513D01*
X99105205Y-77332714D01*
X99048941Y-77468548D01*
X98967258Y-77590795D01*
X98863295Y-77694758D01*
X98741048Y-77776441D01*
X98605214Y-77832705D01*
X98461013Y-77861389D01*
X98313987Y-77861389D01*
X98169786Y-77832705D01*
X98033952Y-77776441D01*
X97911705Y-77694758D01*
X97807742Y-77590795D01*
X97726059Y-77468548D01*
X97669795Y-77332714D01*
X97641111Y-77188513D01*
X97641111Y-77041487D01*
X97669795Y-76897286D01*
X97726059Y-76761452D01*
X97807742Y-76639205D01*
X97911705Y-76535242D01*
X98033952Y-76453559D01*
X98169786Y-76397295D01*
X98313987Y-76368611D01*
X98461013Y-76368611D01*
X98605214Y-76397295D01*
G37*
G36*
X91604850Y-71925964D02*
G01*
X91655040Y-71931787D01*
X91672189Y-71939359D01*
X91695671Y-71944030D01*
X91720810Y-71960827D01*
X91740696Y-71969608D01*
X91754277Y-71983189D01*
X91776777Y-71998223D01*
X91791810Y-72020722D01*
X91805391Y-72034303D01*
X91814170Y-72054186D01*
X91830970Y-72079329D01*
X91835641Y-72102812D01*
X91843212Y-72119959D01*
X91849033Y-72170139D01*
X91850000Y-72175000D01*
X91850000Y-73625000D01*
X91849032Y-73629863D01*
X91843212Y-73680040D01*
X91835641Y-73697185D01*
X91830970Y-73720671D01*
X91814169Y-73745815D01*
X91805391Y-73765696D01*
X91791812Y-73779274D01*
X91776777Y-73801777D01*
X91754274Y-73816812D01*
X91740696Y-73830391D01*
X91720815Y-73839169D01*
X91695671Y-73855970D01*
X91672185Y-73860641D01*
X91655040Y-73868212D01*
X91604861Y-73874032D01*
X91600000Y-73875000D01*
X90400000Y-73875000D01*
X90395138Y-73874032D01*
X90344959Y-73868212D01*
X90327812Y-73860641D01*
X90304329Y-73855970D01*
X90279186Y-73839170D01*
X90259303Y-73830391D01*
X90245722Y-73816810D01*
X90223223Y-73801777D01*
X90208189Y-73779277D01*
X90194608Y-73765696D01*
X90185827Y-73745810D01*
X90169030Y-73720671D01*
X90164359Y-73697189D01*
X90156787Y-73680040D01*
X90150964Y-73629849D01*
X90150000Y-73625000D01*
X90150000Y-72175000D01*
X90150964Y-72170150D01*
X90156787Y-72119959D01*
X90164359Y-72102808D01*
X90169030Y-72079329D01*
X90185826Y-72054191D01*
X90194608Y-72034303D01*
X90208191Y-72020719D01*
X90223223Y-71998223D01*
X90245719Y-71983191D01*
X90259303Y-71969608D01*
X90279191Y-71960826D01*
X90304329Y-71944030D01*
X90327808Y-71939359D01*
X90344959Y-71931787D01*
X90395151Y-71925964D01*
X90400000Y-71925000D01*
X91600000Y-71925000D01*
X91604850Y-71925964D01*
G37*
G36*
X73746742Y-71961601D02*
G01*
X73900687Y-72025367D01*
X74039234Y-72117941D01*
X74157059Y-72235766D01*
X74249633Y-72374313D01*
X74313399Y-72528258D01*
X74345907Y-72691685D01*
X74350000Y-72775000D01*
X74350000Y-73025000D01*
X74345907Y-73108315D01*
X74313399Y-73271742D01*
X74249633Y-73425687D01*
X74157059Y-73564234D01*
X74039234Y-73682059D01*
X73900687Y-73774633D01*
X73746742Y-73838399D01*
X73583315Y-73870907D01*
X73416685Y-73870907D01*
X73253258Y-73838399D01*
X73099313Y-73774633D01*
X72960766Y-73682059D01*
X72842941Y-73564234D01*
X72750367Y-73425687D01*
X72686601Y-73271742D01*
X72654093Y-73108315D01*
X72650000Y-73025000D01*
X72650000Y-72775000D01*
X72654093Y-72691685D01*
X72686601Y-72528258D01*
X72750367Y-72374313D01*
X72842941Y-72235766D01*
X72960766Y-72117941D01*
X73099313Y-72025367D01*
X73253258Y-71961601D01*
X73416685Y-71929093D01*
X73583315Y-71929093D01*
X73746742Y-71961601D01*
G37*
G36*
X76246742Y-71961601D02*
G01*
X76400687Y-72025367D01*
X76539234Y-72117941D01*
X76657059Y-72235766D01*
X76749633Y-72374313D01*
X76813399Y-72528258D01*
X76845907Y-72691685D01*
X76850000Y-72775000D01*
X76850000Y-73025000D01*
X76845907Y-73108315D01*
X76813399Y-73271742D01*
X76749633Y-73425687D01*
X76657059Y-73564234D01*
X76539234Y-73682059D01*
X76400687Y-73774633D01*
X76246742Y-73838399D01*
X76083315Y-73870907D01*
X75916685Y-73870907D01*
X75753258Y-73838399D01*
X75599313Y-73774633D01*
X75460766Y-73682059D01*
X75342941Y-73564234D01*
X75250367Y-73425687D01*
X75186601Y-73271742D01*
X75154093Y-73108315D01*
X75150000Y-73025000D01*
X75150000Y-72775000D01*
X75154093Y-72691685D01*
X75186601Y-72528258D01*
X75250367Y-72374313D01*
X75342941Y-72235766D01*
X75460766Y-72117941D01*
X75599313Y-72025367D01*
X75753258Y-71961601D01*
X75916685Y-71929093D01*
X76083315Y-71929093D01*
X76246742Y-71961601D01*
G37*
G36*
X78746742Y-71961601D02*
G01*
X78900687Y-72025367D01*
X79039234Y-72117941D01*
X79157059Y-72235766D01*
X79249633Y-72374313D01*
X79313399Y-72528258D01*
X79345907Y-72691685D01*
X79350000Y-72775000D01*
X79350000Y-73025000D01*
X79345907Y-73108315D01*
X79313399Y-73271742D01*
X79249633Y-73425687D01*
X79157059Y-73564234D01*
X79039234Y-73682059D01*
X78900687Y-73774633D01*
X78746742Y-73838399D01*
X78583315Y-73870907D01*
X78416685Y-73870907D01*
X78253258Y-73838399D01*
X78099313Y-73774633D01*
X77960766Y-73682059D01*
X77842941Y-73564234D01*
X77750367Y-73425687D01*
X77686601Y-73271742D01*
X77654093Y-73108315D01*
X77650000Y-73025000D01*
X77650000Y-72775000D01*
X77654093Y-72691685D01*
X77686601Y-72528258D01*
X77750367Y-72374313D01*
X77842941Y-72235766D01*
X77960766Y-72117941D01*
X78099313Y-72025367D01*
X78253258Y-71961601D01*
X78416685Y-71929093D01*
X78583315Y-71929093D01*
X78746742Y-71961601D01*
G37*
G36*
X81246742Y-71961601D02*
G01*
X81400687Y-72025367D01*
X81539234Y-72117941D01*
X81657059Y-72235766D01*
X81749633Y-72374313D01*
X81813399Y-72528258D01*
X81845907Y-72691685D01*
X81850000Y-72775000D01*
X81850000Y-73025000D01*
X81845907Y-73108315D01*
X81813399Y-73271742D01*
X81749633Y-73425687D01*
X81657059Y-73564234D01*
X81539234Y-73682059D01*
X81400687Y-73774633D01*
X81246742Y-73838399D01*
X81083315Y-73870907D01*
X80916685Y-73870907D01*
X80753258Y-73838399D01*
X80599313Y-73774633D01*
X80460766Y-73682059D01*
X80342941Y-73564234D01*
X80250367Y-73425687D01*
X80186601Y-73271742D01*
X80154093Y-73108315D01*
X80150000Y-73025000D01*
X80150000Y-72775000D01*
X80154093Y-72691685D01*
X80186601Y-72528258D01*
X80250367Y-72374313D01*
X80342941Y-72235766D01*
X80460766Y-72117941D01*
X80599313Y-72025367D01*
X80753258Y-71961601D01*
X80916685Y-71929093D01*
X81083315Y-71929093D01*
X81246742Y-71961601D01*
G37*
G36*
X83746742Y-71961601D02*
G01*
X83900687Y-72025367D01*
X84039234Y-72117941D01*
X84157059Y-72235766D01*
X84249633Y-72374313D01*
X84313399Y-72528258D01*
X84345907Y-72691685D01*
X84350000Y-72775000D01*
X84350000Y-73025000D01*
X84345907Y-73108315D01*
X84313399Y-73271742D01*
X84249633Y-73425687D01*
X84157059Y-73564234D01*
X84039234Y-73682059D01*
X83900687Y-73774633D01*
X83746742Y-73838399D01*
X83583315Y-73870907D01*
X83416685Y-73870907D01*
X83253258Y-73838399D01*
X83099313Y-73774633D01*
X82960766Y-73682059D01*
X82842941Y-73564234D01*
X82750367Y-73425687D01*
X82686601Y-73271742D01*
X82654093Y-73108315D01*
X82650000Y-73025000D01*
X82650000Y-72775000D01*
X82654093Y-72691685D01*
X82686601Y-72528258D01*
X82750367Y-72374313D01*
X82842941Y-72235766D01*
X82960766Y-72117941D01*
X83099313Y-72025367D01*
X83253258Y-71961601D01*
X83416685Y-71929093D01*
X83583315Y-71929093D01*
X83746742Y-71961601D01*
G37*
G36*
X86246742Y-71961601D02*
G01*
X86400687Y-72025367D01*
X86539234Y-72117941D01*
X86657059Y-72235766D01*
X86749633Y-72374313D01*
X86813399Y-72528258D01*
X86845907Y-72691685D01*
X86850000Y-72775000D01*
X86850000Y-73025000D01*
X86845907Y-73108315D01*
X86813399Y-73271742D01*
X86749633Y-73425687D01*
X86657059Y-73564234D01*
X86539234Y-73682059D01*
X86400687Y-73774633D01*
X86246742Y-73838399D01*
X86083315Y-73870907D01*
X85916685Y-73870907D01*
X85753258Y-73838399D01*
X85599313Y-73774633D01*
X85460766Y-73682059D01*
X85342941Y-73564234D01*
X85250367Y-73425687D01*
X85186601Y-73271742D01*
X85154093Y-73108315D01*
X85150000Y-73025000D01*
X85150000Y-72775000D01*
X85154093Y-72691685D01*
X85186601Y-72528258D01*
X85250367Y-72374313D01*
X85342941Y-72235766D01*
X85460766Y-72117941D01*
X85599313Y-72025367D01*
X85753258Y-71961601D01*
X85916685Y-71929093D01*
X86083315Y-71929093D01*
X86246742Y-71961601D01*
G37*
G36*
X88746742Y-71961601D02*
G01*
X88900687Y-72025367D01*
X89039234Y-72117941D01*
X89157059Y-72235766D01*
X89249633Y-72374313D01*
X89313399Y-72528258D01*
X89345907Y-72691685D01*
X89350000Y-72775000D01*
X89350000Y-73025000D01*
X89345907Y-73108315D01*
X89313399Y-73271742D01*
X89249633Y-73425687D01*
X89157059Y-73564234D01*
X89039234Y-73682059D01*
X88900687Y-73774633D01*
X88746742Y-73838399D01*
X88583315Y-73870907D01*
X88416685Y-73870907D01*
X88253258Y-73838399D01*
X88099313Y-73774633D01*
X87960766Y-73682059D01*
X87842941Y-73564234D01*
X87750367Y-73425687D01*
X87686601Y-73271742D01*
X87654093Y-73108315D01*
X87650000Y-73025000D01*
X87650000Y-72775000D01*
X87654093Y-72691685D01*
X87686601Y-72528258D01*
X87750367Y-72374313D01*
X87842941Y-72235766D01*
X87960766Y-72117941D01*
X88099313Y-72025367D01*
X88253258Y-71961601D01*
X88416685Y-71929093D01*
X88583315Y-71929093D01*
X88746742Y-71961601D01*
G37*
G36*
X137354850Y-71775964D02*
G01*
X137405040Y-71781787D01*
X137422189Y-71789359D01*
X137445671Y-71794030D01*
X137470810Y-71810827D01*
X137490696Y-71819608D01*
X137504277Y-71833189D01*
X137526777Y-71848223D01*
X137541810Y-71870722D01*
X137555391Y-71884303D01*
X137564170Y-71904186D01*
X137580970Y-71929329D01*
X137585641Y-71952812D01*
X137593212Y-71969959D01*
X137599033Y-72020139D01*
X137600000Y-72025000D01*
X137600000Y-73475000D01*
X137599032Y-73479863D01*
X137593212Y-73530040D01*
X137585641Y-73547185D01*
X137580970Y-73570671D01*
X137564169Y-73595815D01*
X137555391Y-73615696D01*
X137541812Y-73629274D01*
X137526777Y-73651777D01*
X137504274Y-73666812D01*
X137490696Y-73680391D01*
X137470815Y-73689169D01*
X137445671Y-73705970D01*
X137422185Y-73710641D01*
X137405040Y-73718212D01*
X137354861Y-73724032D01*
X137350000Y-73725000D01*
X136150000Y-73725000D01*
X136145138Y-73724032D01*
X136094959Y-73718212D01*
X136077812Y-73710641D01*
X136054329Y-73705970D01*
X136029186Y-73689170D01*
X136009303Y-73680391D01*
X135995722Y-73666810D01*
X135973223Y-73651777D01*
X135958189Y-73629277D01*
X135944608Y-73615696D01*
X135935827Y-73595810D01*
X135919030Y-73570671D01*
X135914359Y-73547189D01*
X135906787Y-73530040D01*
X135900964Y-73479849D01*
X135900000Y-73475000D01*
X135900000Y-72025000D01*
X135900964Y-72020150D01*
X135906787Y-71969959D01*
X135914359Y-71952808D01*
X135919030Y-71929329D01*
X135935826Y-71904191D01*
X135944608Y-71884303D01*
X135958191Y-71870719D01*
X135973223Y-71848223D01*
X135995719Y-71833191D01*
X136009303Y-71819608D01*
X136029191Y-71810826D01*
X136054329Y-71794030D01*
X136077808Y-71789359D01*
X136094959Y-71781787D01*
X136145151Y-71775964D01*
X136150000Y-71775000D01*
X137350000Y-71775000D01*
X137354850Y-71775964D01*
G37*
G36*
X119496742Y-71811601D02*
G01*
X119650687Y-71875367D01*
X119789234Y-71967941D01*
X119907059Y-72085766D01*
X119999633Y-72224313D01*
X120063399Y-72378258D01*
X120095907Y-72541685D01*
X120100000Y-72625000D01*
X120100000Y-72875000D01*
X120095907Y-72958315D01*
X120063399Y-73121742D01*
X119999633Y-73275687D01*
X119907059Y-73414234D01*
X119789234Y-73532059D01*
X119650687Y-73624633D01*
X119496742Y-73688399D01*
X119333315Y-73720907D01*
X119166685Y-73720907D01*
X119003258Y-73688399D01*
X118849313Y-73624633D01*
X118710766Y-73532059D01*
X118592941Y-73414234D01*
X118500367Y-73275687D01*
X118436601Y-73121742D01*
X118404093Y-72958315D01*
X118400000Y-72875000D01*
X118400000Y-72625000D01*
X118404093Y-72541685D01*
X118436601Y-72378258D01*
X118500367Y-72224313D01*
X118592941Y-72085766D01*
X118710766Y-71967941D01*
X118849313Y-71875367D01*
X119003258Y-71811601D01*
X119166685Y-71779093D01*
X119333315Y-71779093D01*
X119496742Y-71811601D01*
G37*
G36*
X121996742Y-71811601D02*
G01*
X122150687Y-71875367D01*
X122289234Y-71967941D01*
X122407059Y-72085766D01*
X122499633Y-72224313D01*
X122563399Y-72378258D01*
X122595907Y-72541685D01*
X122600000Y-72625000D01*
X122600000Y-72875000D01*
X122595907Y-72958315D01*
X122563399Y-73121742D01*
X122499633Y-73275687D01*
X122407059Y-73414234D01*
X122289234Y-73532059D01*
X122150687Y-73624633D01*
X121996742Y-73688399D01*
X121833315Y-73720907D01*
X121666685Y-73720907D01*
X121503258Y-73688399D01*
X121349313Y-73624633D01*
X121210766Y-73532059D01*
X121092941Y-73414234D01*
X121000367Y-73275687D01*
X120936601Y-73121742D01*
X120904093Y-72958315D01*
X120900000Y-72875000D01*
X120900000Y-72625000D01*
X120904093Y-72541685D01*
X120936601Y-72378258D01*
X121000367Y-72224313D01*
X121092941Y-72085766D01*
X121210766Y-71967941D01*
X121349313Y-71875367D01*
X121503258Y-71811601D01*
X121666685Y-71779093D01*
X121833315Y-71779093D01*
X121996742Y-71811601D01*
G37*
G36*
X124496742Y-71811601D02*
G01*
X124650687Y-71875367D01*
X124789234Y-71967941D01*
X124907059Y-72085766D01*
X124999633Y-72224313D01*
X125063399Y-72378258D01*
X125095907Y-72541685D01*
X125100000Y-72625000D01*
X125100000Y-72875000D01*
X125095907Y-72958315D01*
X125063399Y-73121742D01*
X124999633Y-73275687D01*
X124907059Y-73414234D01*
X124789234Y-73532059D01*
X124650687Y-73624633D01*
X124496742Y-73688399D01*
X124333315Y-73720907D01*
X124166685Y-73720907D01*
X124003258Y-73688399D01*
X123849313Y-73624633D01*
X123710766Y-73532059D01*
X123592941Y-73414234D01*
X123500367Y-73275687D01*
X123436601Y-73121742D01*
X123404093Y-72958315D01*
X123400000Y-72875000D01*
X123400000Y-72625000D01*
X123404093Y-72541685D01*
X123436601Y-72378258D01*
X123500367Y-72224313D01*
X123592941Y-72085766D01*
X123710766Y-71967941D01*
X123849313Y-71875367D01*
X124003258Y-71811601D01*
X124166685Y-71779093D01*
X124333315Y-71779093D01*
X124496742Y-71811601D01*
G37*
G36*
X126996742Y-71811601D02*
G01*
X127150687Y-71875367D01*
X127289234Y-71967941D01*
X127407059Y-72085766D01*
X127499633Y-72224313D01*
X127563399Y-72378258D01*
X127595907Y-72541685D01*
X127600000Y-72625000D01*
X127600000Y-72875000D01*
X127595907Y-72958315D01*
X127563399Y-73121742D01*
X127499633Y-73275687D01*
X127407059Y-73414234D01*
X127289234Y-73532059D01*
X127150687Y-73624633D01*
X126996742Y-73688399D01*
X126833315Y-73720907D01*
X126666685Y-73720907D01*
X126503258Y-73688399D01*
X126349313Y-73624633D01*
X126210766Y-73532059D01*
X126092941Y-73414234D01*
X126000367Y-73275687D01*
X125936601Y-73121742D01*
X125904093Y-72958315D01*
X125900000Y-72875000D01*
X125900000Y-72625000D01*
X125904093Y-72541685D01*
X125936601Y-72378258D01*
X126000367Y-72224313D01*
X126092941Y-72085766D01*
X126210766Y-71967941D01*
X126349313Y-71875367D01*
X126503258Y-71811601D01*
X126666685Y-71779093D01*
X126833315Y-71779093D01*
X126996742Y-71811601D01*
G37*
G36*
X129496742Y-71811601D02*
G01*
X129650687Y-71875367D01*
X129789234Y-71967941D01*
X129907059Y-72085766D01*
X129999633Y-72224313D01*
X130063399Y-72378258D01*
X130095907Y-72541685D01*
X130100000Y-72625000D01*
X130100000Y-72875000D01*
X130095907Y-72958315D01*
X130063399Y-73121742D01*
X129999633Y-73275687D01*
X129907059Y-73414234D01*
X129789234Y-73532059D01*
X129650687Y-73624633D01*
X129496742Y-73688399D01*
X129333315Y-73720907D01*
X129166685Y-73720907D01*
X129003258Y-73688399D01*
X128849313Y-73624633D01*
X128710766Y-73532059D01*
X128592941Y-73414234D01*
X128500367Y-73275687D01*
X128436601Y-73121742D01*
X128404093Y-72958315D01*
X128400000Y-72875000D01*
X128400000Y-72625000D01*
X128404093Y-72541685D01*
X128436601Y-72378258D01*
X128500367Y-72224313D01*
X128592941Y-72085766D01*
X128710766Y-71967941D01*
X128849313Y-71875367D01*
X129003258Y-71811601D01*
X129166685Y-71779093D01*
X129333315Y-71779093D01*
X129496742Y-71811601D01*
G37*
G36*
X131996742Y-71811601D02*
G01*
X132150687Y-71875367D01*
X132289234Y-71967941D01*
X132407059Y-72085766D01*
X132499633Y-72224313D01*
X132563399Y-72378258D01*
X132595907Y-72541685D01*
X132600000Y-72625000D01*
X132600000Y-72875000D01*
X132595907Y-72958315D01*
X132563399Y-73121742D01*
X132499633Y-73275687D01*
X132407059Y-73414234D01*
X132289234Y-73532059D01*
X132150687Y-73624633D01*
X131996742Y-73688399D01*
X131833315Y-73720907D01*
X131666685Y-73720907D01*
X131503258Y-73688399D01*
X131349313Y-73624633D01*
X131210766Y-73532059D01*
X131092941Y-73414234D01*
X131000367Y-73275687D01*
X130936601Y-73121742D01*
X130904093Y-72958315D01*
X130900000Y-72875000D01*
X130900000Y-72625000D01*
X130904093Y-72541685D01*
X130936601Y-72378258D01*
X131000367Y-72224313D01*
X131092941Y-72085766D01*
X131210766Y-71967941D01*
X131349313Y-71875367D01*
X131503258Y-71811601D01*
X131666685Y-71779093D01*
X131833315Y-71779093D01*
X131996742Y-71811601D01*
G37*
G36*
X134496742Y-71811601D02*
G01*
X134650687Y-71875367D01*
X134789234Y-71967941D01*
X134907059Y-72085766D01*
X134999633Y-72224313D01*
X135063399Y-72378258D01*
X135095907Y-72541685D01*
X135100000Y-72625000D01*
X135100000Y-72875000D01*
X135095907Y-72958315D01*
X135063399Y-73121742D01*
X134999633Y-73275687D01*
X134907059Y-73414234D01*
X134789234Y-73532059D01*
X134650687Y-73624633D01*
X134496742Y-73688399D01*
X134333315Y-73720907D01*
X134166685Y-73720907D01*
X134003258Y-73688399D01*
X133849313Y-73624633D01*
X133710766Y-73532059D01*
X133592941Y-73414234D01*
X133500367Y-73275687D01*
X133436601Y-73121742D01*
X133404093Y-72958315D01*
X133400000Y-72875000D01*
X133400000Y-72625000D01*
X133404093Y-72541685D01*
X133436601Y-72378258D01*
X133500367Y-72224313D01*
X133592941Y-72085766D01*
X133710766Y-71967941D01*
X133849313Y-71875367D01*
X134003258Y-71811601D01*
X134166685Y-71779093D01*
X134333315Y-71779093D01*
X134496742Y-71811601D01*
G37*
G36*
X67892687Y-71555056D02*
G01*
X67902918Y-71555056D01*
X67942893Y-71563007D01*
X68045074Y-71579191D01*
X68077943Y-71589870D01*
X68104799Y-71595213D01*
X68142700Y-71610912D01*
X68201741Y-71630096D01*
X68257052Y-71658278D01*
X68294967Y-71673983D01*
X68317742Y-71689201D01*
X68348528Y-71704887D01*
X68432217Y-71765690D01*
X68466113Y-71788339D01*
X68473347Y-71795573D01*
X68481798Y-71801713D01*
X68598286Y-71918201D01*
X68604425Y-71926651D01*
X68611661Y-71933887D01*
X68634312Y-71967787D01*
X68695112Y-72051471D01*
X68710796Y-72082254D01*
X68726017Y-72105033D01*
X68741723Y-72142952D01*
X68769903Y-72198258D01*
X68789084Y-72257292D01*
X68804787Y-72295201D01*
X68810130Y-72322062D01*
X68820808Y-72354925D01*
X68836990Y-72457098D01*
X68844944Y-72497082D01*
X68844944Y-72507313D01*
X68846578Y-72517630D01*
X68846578Y-72682369D01*
X68844944Y-72692685D01*
X68844944Y-72702918D01*
X68836990Y-72742905D01*
X68820808Y-72845074D01*
X68810130Y-72877935D01*
X68804787Y-72904799D01*
X68789083Y-72942711D01*
X68769903Y-73001741D01*
X68741726Y-73057041D01*
X68726017Y-73094967D01*
X68710794Y-73117749D01*
X68695112Y-73148528D01*
X68634320Y-73232200D01*
X68611661Y-73266113D01*
X68604423Y-73273350D01*
X68598286Y-73281798D01*
X68481798Y-73398286D01*
X68473350Y-73404423D01*
X68466113Y-73411661D01*
X68432200Y-73434320D01*
X68348528Y-73495112D01*
X68317749Y-73510794D01*
X68294967Y-73526017D01*
X68257041Y-73541726D01*
X68201741Y-73569903D01*
X68142711Y-73589083D01*
X68104799Y-73604787D01*
X68077935Y-73610130D01*
X68045074Y-73620808D01*
X67942902Y-73636990D01*
X67902918Y-73644944D01*
X67892687Y-73644944D01*
X67882370Y-73646578D01*
X67717630Y-73646578D01*
X67707313Y-73644944D01*
X67697082Y-73644944D01*
X67657098Y-73636990D01*
X67554925Y-73620808D01*
X67522062Y-73610130D01*
X67495201Y-73604787D01*
X67457292Y-73589084D01*
X67398258Y-73569903D01*
X67342952Y-73541723D01*
X67305033Y-73526017D01*
X67282254Y-73510796D01*
X67251471Y-73495112D01*
X67167787Y-73434312D01*
X67133887Y-73411661D01*
X67126651Y-73404425D01*
X67118201Y-73398286D01*
X67001713Y-73281798D01*
X66995573Y-73273347D01*
X66988339Y-73266113D01*
X66965690Y-73232217D01*
X66904887Y-73148528D01*
X66889201Y-73117742D01*
X66873983Y-73094967D01*
X66858278Y-73057052D01*
X66830096Y-73001741D01*
X66810912Y-72942700D01*
X66795213Y-72904799D01*
X66789870Y-72877943D01*
X66779191Y-72845074D01*
X66763008Y-72742895D01*
X66755056Y-72702918D01*
X66755056Y-72692686D01*
X66753422Y-72682369D01*
X66753422Y-72517630D01*
X66755056Y-72507312D01*
X66755056Y-72497082D01*
X66763007Y-72457108D01*
X66779191Y-72354925D01*
X66789871Y-72322054D01*
X66795213Y-72295201D01*
X66810910Y-72257303D01*
X66830096Y-72198258D01*
X66858280Y-72142942D01*
X66873983Y-72105033D01*
X66889199Y-72082260D01*
X66904887Y-72051471D01*
X66965699Y-71967770D01*
X66988339Y-71933887D01*
X66995570Y-71926655D01*
X67001713Y-71918201D01*
X67118201Y-71801713D01*
X67126655Y-71795570D01*
X67133887Y-71788339D01*
X67167770Y-71765699D01*
X67251471Y-71704887D01*
X67282260Y-71689199D01*
X67305033Y-71673983D01*
X67342942Y-71658280D01*
X67398258Y-71630096D01*
X67457303Y-71610910D01*
X67495201Y-71595213D01*
X67522054Y-71589871D01*
X67554925Y-71579191D01*
X67657108Y-71563007D01*
X67697082Y-71555056D01*
X67707313Y-71555056D01*
X67717630Y-71553422D01*
X67882370Y-71553422D01*
X67892687Y-71555056D01*
G37*
G36*
X142592687Y-71205056D02*
G01*
X142602918Y-71205056D01*
X142642893Y-71213007D01*
X142745074Y-71229191D01*
X142777943Y-71239870D01*
X142804799Y-71245213D01*
X142842700Y-71260912D01*
X142901741Y-71280096D01*
X142957052Y-71308278D01*
X142994967Y-71323983D01*
X143017742Y-71339201D01*
X143048528Y-71354887D01*
X143132217Y-71415690D01*
X143166113Y-71438339D01*
X143173347Y-71445573D01*
X143181798Y-71451713D01*
X143298286Y-71568201D01*
X143304425Y-71576651D01*
X143311661Y-71583887D01*
X143334312Y-71617787D01*
X143395112Y-71701471D01*
X143410796Y-71732254D01*
X143426017Y-71755033D01*
X143441723Y-71792952D01*
X143469903Y-71848258D01*
X143489084Y-71907292D01*
X143504787Y-71945201D01*
X143510130Y-71972062D01*
X143520808Y-72004925D01*
X143536990Y-72107098D01*
X143544944Y-72147082D01*
X143544944Y-72157313D01*
X143546578Y-72167630D01*
X143546578Y-72332369D01*
X143544944Y-72342685D01*
X143544944Y-72352918D01*
X143536990Y-72392905D01*
X143520808Y-72495074D01*
X143510130Y-72527935D01*
X143504787Y-72554799D01*
X143489083Y-72592711D01*
X143469903Y-72651741D01*
X143441726Y-72707041D01*
X143426017Y-72744967D01*
X143410794Y-72767749D01*
X143395112Y-72798528D01*
X143334320Y-72882200D01*
X143311661Y-72916113D01*
X143304423Y-72923350D01*
X143298286Y-72931798D01*
X143181798Y-73048286D01*
X143173350Y-73054423D01*
X143166113Y-73061661D01*
X143132200Y-73084320D01*
X143048528Y-73145112D01*
X143017749Y-73160794D01*
X142994967Y-73176017D01*
X142957041Y-73191726D01*
X142901741Y-73219903D01*
X142842711Y-73239083D01*
X142804799Y-73254787D01*
X142777935Y-73260130D01*
X142745074Y-73270808D01*
X142642902Y-73286990D01*
X142602918Y-73294944D01*
X142592687Y-73294944D01*
X142582370Y-73296578D01*
X142417630Y-73296578D01*
X142407313Y-73294944D01*
X142397082Y-73294944D01*
X142357098Y-73286990D01*
X142254925Y-73270808D01*
X142222062Y-73260130D01*
X142195201Y-73254787D01*
X142157292Y-73239084D01*
X142098258Y-73219903D01*
X142042952Y-73191723D01*
X142005033Y-73176017D01*
X141982254Y-73160796D01*
X141951471Y-73145112D01*
X141867787Y-73084312D01*
X141833887Y-73061661D01*
X141826651Y-73054425D01*
X141818201Y-73048286D01*
X141701713Y-72931798D01*
X141695573Y-72923347D01*
X141688339Y-72916113D01*
X141665690Y-72882217D01*
X141604887Y-72798528D01*
X141589201Y-72767742D01*
X141573983Y-72744967D01*
X141558278Y-72707052D01*
X141530096Y-72651741D01*
X141510912Y-72592700D01*
X141495213Y-72554799D01*
X141489870Y-72527943D01*
X141479191Y-72495074D01*
X141463008Y-72392895D01*
X141455056Y-72352918D01*
X141455056Y-72342686D01*
X141453422Y-72332369D01*
X141453422Y-72167630D01*
X141455056Y-72157312D01*
X141455056Y-72147082D01*
X141463007Y-72107108D01*
X141479191Y-72004925D01*
X141489871Y-71972054D01*
X141495213Y-71945201D01*
X141510910Y-71907303D01*
X141530096Y-71848258D01*
X141558280Y-71792942D01*
X141573983Y-71755033D01*
X141589199Y-71732260D01*
X141604887Y-71701471D01*
X141665699Y-71617770D01*
X141688339Y-71583887D01*
X141695570Y-71576655D01*
X141701713Y-71568201D01*
X141818201Y-71451713D01*
X141826655Y-71445570D01*
X141833887Y-71438339D01*
X141867770Y-71415699D01*
X141951471Y-71354887D01*
X141982260Y-71339199D01*
X142005033Y-71323983D01*
X142042942Y-71308280D01*
X142098258Y-71280096D01*
X142157303Y-71260910D01*
X142195201Y-71245213D01*
X142222054Y-71239871D01*
X142254925Y-71229191D01*
X142357108Y-71213007D01*
X142397082Y-71205056D01*
X142407313Y-71205056D01*
X142417630Y-71203422D01*
X142582370Y-71203422D01*
X142592687Y-71205056D01*
G37*
M02*
