%TF.GenerationSoftware,KiCad,Pcbnew,10.0.3*%
%TF.CreationDate,2026-09-16T18:57:24+05:45*%
%TF.ProjectId,Dual VNH2SP30 Motor Driver Carrier MD03A,4475616c-2056-44e4-9832-53503330204d,rev?*%
%TF.SameCoordinates,Original*%
%TF.FileFunction,Soldermask,Top*%
%TF.FilePolarity,Negative*%
%FSLAX46Y46*%
G04 Gerber Fmt 4.6, Leading zero omitted, Abs format (unit mm)*
G04 Created by KiCad (PCBNEW 10.0.3) date 2026-09-16 18:57:24*
%MOMM*%
%LPD*%
G01*
G04 APERTURE LIST*
G04 Aperture macros list*
%AMRoundRect*
0 Rectangle with rounded corners*
0 $1 Rounding radius*
0 $2 $3 $4 $5 $6 $7 $8 $9 X,Y pos of 4 corners*
0 Add a 4 corners polygon primitive as box body*
4,1,4,$2,$3,$4,$5,$6,$7,$8,$9,$2,$3,0*
0 Add four circle primitives for the rounded corners*
1,1,$1+$1,$2,$3*
1,1,$1+$1,$4,$5*
1,1,$1+$1,$6,$7*
1,1,$1+$1,$8,$9*
0 Add four rect primitives between the rounded corners*
20,1,$1+$1,$2,$3,$4,$5,0*
20,1,$1+$1,$4,$5,$6,$7,0*
20,1,$1+$1,$6,$7,$8,$9,0*
20,1,$1+$1,$8,$9,$2,$3,0*%
G04 Aperture macros list end*
%ADD10RoundRect,0.250000X0.475000X-0.337500X0.475000X0.337500X-0.475000X0.337500X-0.475000X-0.337500X0*%
%ADD11RoundRect,0.250000X0.450000X-0.350000X0.450000X0.350000X-0.450000X0.350000X-0.450000X-0.350000X0*%
%ADD12RoundRect,0.218750X-0.256250X0.218750X-0.256250X-0.218750X0.256250X-0.218750X0.256250X0.218750X0*%
%ADD13RoundRect,0.250000X-0.337500X-0.475000X0.337500X-0.475000X0.337500X0.475000X-0.337500X0.475000X0*%
%ADD14RoundRect,0.250000X0.350000X0.450000X-0.350000X0.450000X-0.350000X-0.450000X0.350000X-0.450000X0*%
%ADD15RoundRect,0.250000X-0.450000X0.350000X-0.450000X-0.350000X0.450000X-0.350000X0.450000X0.350000X0*%
%ADD16RoundRect,0.250000X0.850000X0.350000X-0.850000X0.350000X-0.850000X-0.350000X0.850000X-0.350000X0*%
%ADD17RoundRect,0.250000X2.950000X2.650000X-2.950000X2.650000X-2.950000X-2.650000X2.950000X-2.650000X0*%
%ADD18RoundRect,0.218750X0.256250X-0.218750X0.256250X0.218750X-0.256250X0.218750X-0.256250X-0.218750X0*%
%ADD19R,0.660000X1.350000*%
%ADD20R,10.300000X5.250000*%
%ADD21R,6.230000X5.250000*%
%ADD22RoundRect,0.250000X1.000000X-1.400000X1.000000X1.400000X-1.000000X1.400000X-1.000000X-1.400000X0*%
%ADD23RoundRect,0.250000X-0.850000X-0.350000X0.850000X-0.350000X0.850000X0.350000X-0.850000X0.350000X0*%
%ADD24RoundRect,0.250000X-2.950000X-2.650000X2.950000X-2.650000X2.950000X2.650000X-2.950000X2.650000X0*%
%ADD25R,1.200000X1.200000*%
%ADD26C,1.200000*%
%ADD27RoundRect,0.250001X-1.149999X-1.149999X1.149999X-1.149999X1.149999X1.149999X-1.149999X1.149999X0*%
%ADD28C,2.800000*%
%ADD29RoundRect,0.250000X0.450000X-0.325000X0.450000X0.325000X-0.450000X0.325000X-0.450000X-0.325000X0*%
%ADD30RoundRect,0.250000X-0.350000X-0.450000X0.350000X-0.450000X0.350000X0.450000X-0.350000X0.450000X0*%
%ADD31RoundRect,0.250001X1.149999X1.149999X-1.149999X1.149999X-1.149999X-1.149999X1.149999X-1.149999X0*%
%ADD32RoundRect,0.250000X-0.475000X0.337500X-0.475000X-0.337500X0.475000X-0.337500X0.475000X0.337500X0*%
%ADD33RoundRect,0.250000X-0.450000X0.325000X-0.450000X-0.325000X0.450000X-0.325000X0.450000X0.325000X0*%
%ADD34R,2.000000X2.000000*%
%ADD35O,2.000000X2.000000*%
%ADD36R,1.350000X1.350000*%
%ADD37C,1.350000*%
%ADD38R,1.700000X1.700000*%
%ADD39C,1.700000*%
G04 APERTURE END LIST*
D10*
%TO.C,C4*%
X120650000Y-120417500D03*
X120650000Y-118342500D03*
%TD*%
D11*
%TO.C,R4*%
X135839200Y-131708400D03*
X135839200Y-129708400D03*
%TD*%
D12*
%TO.C,LED2*%
X164084000Y-74422000D03*
X164084000Y-75997000D03*
%TD*%
D13*
%TO.C,C6*%
X141050100Y-113030000D03*
X143125100Y-113030000D03*
%TD*%
D11*
%TO.C,R15*%
X161442400Y-100584000D03*
X161442400Y-98584000D03*
%TD*%
D14*
%TO.C,R5*%
X127254000Y-102920800D03*
X125254000Y-102920800D03*
%TD*%
D15*
%TO.C,R18*%
X164592000Y-113147600D03*
X164592000Y-115147600D03*
%TD*%
D14*
%TO.C,R20*%
X131302000Y-102870000D03*
X129302000Y-102870000D03*
%TD*%
D16*
%TO.C,Q1*%
X132080000Y-110478000D03*
D17*
X125780000Y-108198000D03*
D16*
X132080000Y-105918000D03*
%TD*%
D18*
%TO.C,LED3*%
X122428000Y-75946000D03*
X122428000Y-74371000D03*
%TD*%
D15*
%TO.C,R19*%
X162560000Y-113046000D03*
X162560000Y-115046000D03*
%TD*%
D19*
%TO.C,U2*%
X144384000Y-100563000D03*
X145384000Y-100563000D03*
X146384000Y-100563000D03*
X147384000Y-100563000D03*
X148384000Y-100563000D03*
X149384000Y-100563000D03*
X150384000Y-100563000D03*
X151384000Y-100563000D03*
X152384000Y-100563000D03*
X153384000Y-100563000D03*
X154384000Y-100563000D03*
X155384000Y-100563000D03*
X156384000Y-100563000D03*
X157384000Y-100563000D03*
X158384000Y-100563000D03*
X158384000Y-82313000D03*
X157384000Y-82313000D03*
X156384000Y-82313000D03*
X155384000Y-82313000D03*
X154384000Y-82313000D03*
X153384000Y-82313000D03*
X152384000Y-82313000D03*
X151384000Y-82313000D03*
X150384000Y-82313000D03*
X149384000Y-82313000D03*
X148384000Y-82313000D03*
X147384000Y-82313000D03*
X146384000Y-82313000D03*
X145384000Y-82313000D03*
X144384000Y-82313000D03*
D20*
X151384000Y-94488000D03*
D21*
X155549000Y-88388000D03*
X147219000Y-88388000D03*
%TD*%
D22*
%TO.C,D1*%
X138586000Y-106781600D03*
X145386000Y-106781600D03*
%TD*%
D23*
%TO.C,Q2*%
X152645000Y-105040000D03*
D24*
X158945000Y-107320000D03*
D23*
X152645000Y-109600000D03*
%TD*%
D25*
%TO.C,C2*%
X148312000Y-116941600D03*
D26*
X146812000Y-116941600D03*
%TD*%
D15*
%TO.C,R16*%
X164592000Y-106137200D03*
X164592000Y-108137200D03*
%TD*%
D27*
%TO.C,J3*%
X140650400Y-133248400D03*
D28*
X145650400Y-133248400D03*
%TD*%
D14*
%TO.C,R7*%
X118602000Y-118618000D03*
X116602000Y-118618000D03*
%TD*%
D29*
%TO.C,LED1*%
X166370000Y-75955000D03*
X166370000Y-73905000D03*
%TD*%
D15*
%TO.C,R11*%
X119888000Y-109490000D03*
X119888000Y-111490000D03*
%TD*%
D19*
%TO.C,U1*%
X126604000Y-100563000D03*
X127604000Y-100563000D03*
X128604000Y-100563000D03*
X129604000Y-100563000D03*
X130604000Y-100563000D03*
X131604000Y-100563000D03*
X132604000Y-100563000D03*
X133604000Y-100563000D03*
X134604000Y-100563000D03*
X135604000Y-100563000D03*
X136604000Y-100563000D03*
X137604000Y-100563000D03*
X138604000Y-100563000D03*
X139604000Y-100563000D03*
X140604000Y-100563000D03*
X140604000Y-82313000D03*
X139604000Y-82313000D03*
X138604000Y-82313000D03*
X137604000Y-82313000D03*
X136604000Y-82313000D03*
X135604000Y-82313000D03*
X134604000Y-82313000D03*
X133604000Y-82313000D03*
X132604000Y-82313000D03*
X131604000Y-82313000D03*
X130604000Y-82313000D03*
X129604000Y-82313000D03*
X128604000Y-82313000D03*
X127604000Y-82313000D03*
X126604000Y-82313000D03*
D20*
X133604000Y-94488000D03*
D21*
X137769000Y-88388000D03*
X129439000Y-88388000D03*
%TD*%
D25*
%TO.C,C1*%
X137730199Y-116941600D03*
D26*
X136230199Y-116941600D03*
%TD*%
D30*
%TO.C,R1*%
X148250400Y-102616000D03*
X150250400Y-102616000D03*
%TD*%
D11*
%TO.C,R3*%
X124460000Y-76184000D03*
X124460000Y-74184000D03*
%TD*%
D14*
%TO.C,R14*%
X165490400Y-99771200D03*
X163490400Y-99771200D03*
%TD*%
D30*
%TO.C,R10*%
X119904000Y-115570000D03*
X121904000Y-115570000D03*
%TD*%
D31*
%TO.C,J2*%
X136144000Y-75184000D03*
D28*
X131144000Y-75184000D03*
%TD*%
D14*
%TO.C,R12*%
X157870400Y-102565200D03*
X155870400Y-102565200D03*
%TD*%
D32*
%TO.C,C5*%
X164388800Y-102260400D03*
X164388800Y-104335400D03*
%TD*%
D30*
%TO.C,R9*%
X119904000Y-113538000D03*
X121904000Y-113538000D03*
%TD*%
D33*
%TO.C,LED4*%
X120142000Y-74413000D03*
X120142000Y-76463000D03*
%TD*%
D30*
%TO.C,R13*%
X152009600Y-102565200D03*
X154009600Y-102565200D03*
%TD*%
D14*
%TO.C,R8*%
X118348000Y-120650000D03*
X116348000Y-120650000D03*
%TD*%
D15*
%TO.C,R17*%
X164541200Y-109693200D03*
X164541200Y-111693200D03*
%TD*%
%TO.C,R6*%
X119888000Y-105426000D03*
X119888000Y-107426000D03*
%TD*%
D31*
%TO.C,J1*%
X154178000Y-75470500D03*
D28*
X149178000Y-75470500D03*
%TD*%
D18*
%TO.C,LED5*%
X133705600Y-131445100D03*
X133705600Y-129870100D03*
%TD*%
D15*
%TO.C,R2*%
X162052000Y-74184000D03*
X162052000Y-76184000D03*
%TD*%
D34*
%TO.C,C3*%
X150248000Y-122693500D03*
D35*
X135248000Y-122693500D03*
%TD*%
D36*
%TO.C,J5*%
X116967000Y-91695000D03*
D37*
X116967000Y-93695000D03*
X116967000Y-95695000D03*
X116967000Y-97695000D03*
X116967000Y-99695000D03*
%TD*%
D38*
%TO.C,J7*%
X117094000Y-103124000D03*
D39*
X117094000Y-105664000D03*
X117094000Y-108204000D03*
X117094000Y-110744000D03*
X117094000Y-113284000D03*
X117094000Y-115824000D03*
%TD*%
D38*
%TO.C,J8*%
X167386000Y-102616000D03*
D39*
X167386000Y-105156000D03*
X167386000Y-107696000D03*
X167386000Y-110236000D03*
X167386000Y-112776000D03*
X167386000Y-115316000D03*
%TD*%
M02*
