%TF.GenerationSoftware,KiCad,Pcbnew,10.0.3*%
%TF.CreationDate,2026-09-16T18:57:23+05:45*%
%TF.ProjectId,Dual VNH2SP30 Motor Driver Carrier MD03A,4475616c-2056-44e4-9832-53503330204d,rev?*%
%TF.SameCoordinates,Original*%
%TF.FileFunction,Copper,L4,Bot*%
%TF.FilePolarity,Positive*%
%FSLAX46Y46*%
G04 Gerber Fmt 4.6, Leading zero omitted, Abs format (unit mm)*
G04 Created by KiCad (PCBNEW 10.0.3) date 2026-09-16 18:57:23*
%MOMM*%
%LPD*%
G01*
G04 APERTURE LIST*
G04 Aperture macros list*
%AMRoundRect*
0 Rectangle with rounded corners*
0 $1 Rounding radius*
0 $2 $3 $4 $5 $6 $7 $8 $9 X,Y pos of 4 corners*
0 Add a 4 corners polygon primitive as box body*
4,1,4,$2,$3,$4,$5,$6,$7,$8,$9,$2,$3,0*
0 Add four circle primitives for the rounded corners*
1,1,$1+$1,$2,$3*
1,1,$1+$1,$4,$5*
1,1,$1+$1,$6,$7*
1,1,$1+$1,$8,$9*
0 Add four rect primitives between the rounded corners*
20,1,$1+$1,$2,$3,$4,$5,0*
20,1,$1+$1,$4,$5,$6,$7,0*
20,1,$1+$1,$6,$7,$8,$9,0*
20,1,$1+$1,$8,$9,$2,$3,0*%
G04 Aperture macros list end*
%TA.AperFunction,ComponentPad*%
%ADD10R,1.200000X1.200000*%
%TD*%
%TA.AperFunction,ComponentPad*%
%ADD11C,1.200000*%
%TD*%
%TA.AperFunction,ComponentPad*%
%ADD12RoundRect,0.250001X-1.149999X-1.149999X1.149999X-1.149999X1.149999X1.149999X-1.149999X1.149999X0*%
%TD*%
%TA.AperFunction,ComponentPad*%
%ADD13C,2.800000*%
%TD*%
%TA.AperFunction,ComponentPad*%
%ADD14RoundRect,0.250001X1.149999X1.149999X-1.149999X1.149999X-1.149999X-1.149999X1.149999X-1.149999X0*%
%TD*%
%TA.AperFunction,ComponentPad*%
%ADD15R,2.000000X2.000000*%
%TD*%
%TA.AperFunction,ComponentPad*%
%ADD16O,2.000000X2.000000*%
%TD*%
%TA.AperFunction,ComponentPad*%
%ADD17R,1.350000X1.350000*%
%TD*%
%TA.AperFunction,ComponentPad*%
%ADD18C,1.350000*%
%TD*%
%TA.AperFunction,ComponentPad*%
%ADD19R,1.700000X1.700000*%
%TD*%
%TA.AperFunction,ComponentPad*%
%ADD20C,1.700000*%
%TD*%
%TA.AperFunction,ViaPad*%
%ADD21C,0.400000*%
%TD*%
%TA.AperFunction,Conductor*%
%ADD22C,0.250000*%
%TD*%
%TA.AperFunction,Conductor*%
%ADD23C,0.750000*%
%TD*%
G04 APERTURE END LIST*
D10*
%TO.P,C2,1*%
%TO.N,/VBAT*%
X148312000Y-116941600D03*
D11*
%TO.P,C2,2*%
%TO.N,GND*%
X146812000Y-116941600D03*
%TD*%
D12*
%TO.P,J3,1,Pin_1_1*%
%TO.N,/VBAT*%
X140650400Y-133248400D03*
D13*
%TO.P,J3,2,Pin_2_2*%
%TO.N,GND*%
X145650400Y-133248400D03*
%TD*%
D10*
%TO.P,C1,1*%
%TO.N,/VBAT*%
X137730199Y-116941600D03*
D11*
%TO.P,C1,2*%
%TO.N,GND*%
X136230199Y-116941600D03*
%TD*%
D14*
%TO.P,J2,1,Pin_1_1*%
%TO.N,Net-(J2-Pin_1)*%
X136144000Y-75184000D03*
D13*
%TO.P,J2,2,Pin_2_2*%
%TO.N,Net-(J2-Pin_2)*%
X131144000Y-75184000D03*
%TD*%
D14*
%TO.P,J1,1,Pin_1_1*%
%TO.N,Net-(J1-Pin_1)*%
X154178000Y-75470500D03*
D13*
%TO.P,J1,2,Pin_2_2*%
%TO.N,Net-(J1-Pin_2)*%
X149178000Y-75470500D03*
%TD*%
D15*
%TO.P,C3,1*%
%TO.N,/VBAT*%
X150248000Y-122693500D03*
D16*
%TO.P,C3,2*%
%TO.N,GND*%
X135248000Y-122693500D03*
%TD*%
D17*
%TO.P,J5,1,Pin_1_1*%
%TO.N,/VBAT*%
X116967000Y-91695000D03*
D18*
%TO.P,J5,2,Pin_2_2*%
%TO.N,GND*%
X116967000Y-93695000D03*
%TO.P,J5,3,Pin_3_3*%
%TO.N,/VCC*%
X116967000Y-95695000D03*
%TO.P,J5,4,Pin_4_4*%
%TO.N,GND*%
X116967000Y-97695000D03*
%TO.P,J5,5,Pin_5_5*%
%TO.N,/VBAT*%
X116967000Y-99695000D03*
%TD*%
D19*
%TO.P,J7,1,Pin_1_1*%
%TO.N,Net-(J7-Pin_1)*%
X117094000Y-103124000D03*
D20*
%TO.P,J7,2,Pin_2_2*%
%TO.N,Net-(J7-Pin_2)*%
X117094000Y-105664000D03*
%TO.P,J7,3,Pin_3_3*%
%TO.N,Net-(J7-Pin_3)*%
X117094000Y-108204000D03*
%TO.P,J7,4,Pin_4_4*%
%TO.N,Net-(J7-Pin_4)*%
X117094000Y-110744000D03*
%TO.P,J7,5,Pin_5_5*%
%TO.N,Net-(J7-Pin_5)*%
X117094000Y-113284000D03*
%TO.P,J7,6,Pin_6_6*%
%TO.N,GND*%
X117094000Y-115824000D03*
%TD*%
D19*
%TO.P,J8,1,Pin_1_1*%
%TO.N,Net-(J8-Pin_1)*%
X167386000Y-102616000D03*
D20*
%TO.P,J8,2,Pin_2_2*%
%TO.N,Net-(J8-Pin_2)*%
X167386000Y-105156000D03*
%TO.P,J8,3,Pin_3_3*%
%TO.N,Net-(J8-Pin_3)*%
X167386000Y-107696000D03*
%TO.P,J8,4,Pin_4_4*%
%TO.N,Net-(J8-Pin_4)*%
X167386000Y-110236000D03*
%TO.P,J8,5,Pin_5_5*%
%TO.N,Net-(J8-Pin_5)*%
X167386000Y-112776000D03*
%TO.P,J8,6,Pin_6_6*%
%TO.N,GND*%
X167386000Y-115316000D03*
%TD*%
D21*
%TO.N,GND*%
X123444000Y-113030000D03*
X152645000Y-109600000D03*
X121904000Y-115570000D03*
X154009600Y-102565200D03*
X164388800Y-104335400D03*
X158496000Y-103632000D03*
X119888000Y-111490000D03*
X143125100Y-113030000D03*
%TO.N,/VCC*%
X133096000Y-103022400D03*
X139446000Y-113080800D03*
X162407600Y-111455200D03*
X118770400Y-95758000D03*
X162560000Y-113046000D03*
X131302000Y-102870000D03*
X141050100Y-113030000D03*
%TO.N,Net-(D1-A)*%
X145386000Y-106781600D03*
X151892000Y-107696000D03*
%TO.N,Net-(D1-K)*%
X149352000Y-109220000D03*
X147320000Y-109728000D03*
%TO.N,Net-(J1-Pin_1)*%
X144018000Y-93218000D03*
X144272000Y-96266000D03*
X151638000Y-78486000D03*
X150114000Y-84582000D03*
%TO.N,Net-(J1-Pin_2)*%
X152908000Y-79248000D03*
X158242000Y-84328000D03*
%TO.N,Net-(J2-Pin_2)*%
X142494000Y-85090000D03*
X140462000Y-93472000D03*
X140716000Y-96266000D03*
X132080000Y-78232000D03*
%TO.N,Net-(J2-Pin_1)*%
X132080000Y-84582000D03*
X125222000Y-100330000D03*
X124968000Y-89408000D03*
X133096000Y-79756000D03*
%TO.N,Net-(U1-INA)*%
X130604000Y-100563000D03*
X122428000Y-103682800D03*
%TO.N,Net-(U1-INB)*%
X134112000Y-112522000D03*
X134112000Y-109474000D03*
%TO.N,Net-(U1-PWM)*%
X134620000Y-108712000D03*
X134620000Y-112776000D03*
%TO.N,Net-(U1-CS)*%
X135128000Y-113538000D03*
X135128000Y-107950000D03*
X119904000Y-115570000D03*
X123952000Y-117348000D03*
%TO.N,Net-(U2-CS)*%
X160020000Y-99568000D03*
X152384000Y-100563000D03*
%TO.N,Net-(U2-PWM)*%
X159766000Y-98806000D03*
X151384000Y-100563000D03*
%TO.N,Net-(U2-INB)*%
X154384000Y-100563000D03*
X159766000Y-101600000D03*
%TO.N,Net-(U2-INA)*%
X149352000Y-108204000D03*
X150114000Y-109474000D03*
%TO.N,Net-(U2-EN{slash}DIAA)*%
X162560000Y-115046000D03*
X154940000Y-106680000D03*
%TO.N,Net-(J7-Pin_5)*%
X124968000Y-113030000D03*
X120650000Y-120417500D03*
%TO.N,Net-(J7-Pin_4)*%
X118618000Y-113030000D03*
X116348000Y-120650000D03*
X117602000Y-117094000D03*
%TO.N,Net-(J7-Pin_3)*%
X118872000Y-116840000D03*
X119126000Y-108458000D03*
%TO.N,Net-(J8-Pin_4)*%
X164541200Y-109693200D03*
%TO.N,Net-(J8-Pin_2)*%
X161620200Y-100761800D03*
X157870400Y-102565200D03*
%TD*%
%TO.N,GND*%
D22*
X117094000Y-115824000D02*
X119612500Y-118342500D01*
X152645000Y-109991000D02*
X152645000Y-109600000D01*
X119612500Y-118342500D02*
X120650000Y-118342500D01*
X144526000Y-113030000D02*
X143125100Y-113030000D01*
X123444000Y-113030000D02*
X121904000Y-111490000D01*
X147066000Y-115570000D02*
X144526000Y-113030000D01*
X152645000Y-109600000D02*
X152645000Y-103929800D01*
X147066000Y-116687600D02*
X147066000Y-115570000D01*
X158496000Y-103632000D02*
X163685400Y-103632000D01*
X152645000Y-103929800D02*
X154009600Y-102565200D01*
X121904000Y-111490000D02*
X119888000Y-111490000D01*
X163685400Y-103632000D02*
X164388800Y-104335400D01*
X146812000Y-116941600D02*
X147066000Y-116687600D01*
X147066000Y-115570000D02*
X152645000Y-109991000D01*
%TO.N,/VCC*%
D23*
X162560000Y-111607600D02*
X162407600Y-111455200D01*
X162560000Y-113046000D02*
X162560000Y-111607600D01*
D22*
X133096000Y-103022400D02*
X131454400Y-103022400D01*
X131454400Y-103022400D02*
X131302000Y-102870000D01*
D23*
X116967000Y-95695000D02*
X118707400Y-95695000D01*
X139446000Y-113080800D02*
X140999300Y-113080800D01*
X118707400Y-95695000D02*
X118770400Y-95758000D01*
X140999300Y-113080800D02*
X141050100Y-113030000D01*
%TO.N,Net-(D1-A)*%
D22*
X151892000Y-107696000D02*
X146300400Y-107696000D01*
X146300400Y-107696000D02*
X145386000Y-106781600D01*
%TO.N,Net-(D1-K)*%
X147320000Y-109728000D02*
X148844000Y-109728000D01*
X148844000Y-109728000D02*
X149352000Y-109220000D01*
%TO.N,Net-(J1-Pin_1)*%
D23*
X144018000Y-93218000D02*
X144018000Y-96012000D01*
X151638000Y-83058000D02*
X150114000Y-84582000D01*
X151638000Y-78486000D02*
X151638000Y-83058000D01*
X144018000Y-96012000D02*
X144272000Y-96266000D01*
%TO.N,Net-(J1-Pin_2)*%
X161798000Y-80010000D02*
X161036000Y-79248000D01*
X160528000Y-84328000D02*
X161798000Y-83058000D01*
X161036000Y-79248000D02*
X152908000Y-79248000D01*
X158242000Y-84328000D02*
X160528000Y-84328000D01*
X161798000Y-83058000D02*
X161798000Y-80010000D01*
%TO.N,Net-(J2-Pin_2)*%
X140716000Y-96266000D02*
X140716000Y-93726000D01*
X142494000Y-85090000D02*
X142494000Y-78994000D01*
X141732000Y-78232000D02*
X132080000Y-78232000D01*
X140716000Y-93726000D02*
X140462000Y-93472000D01*
X142494000Y-78994000D02*
X141732000Y-78232000D01*
%TO.N,Net-(J2-Pin_1)*%
X124968000Y-89408000D02*
X124968000Y-100076000D01*
X133096000Y-83566000D02*
X132080000Y-84582000D01*
X133096000Y-79756000D02*
X133096000Y-83566000D01*
X124968000Y-100076000D02*
X125222000Y-100330000D01*
%TO.N,Net-(U1-INA)*%
D22*
X129516200Y-101650800D02*
X130604000Y-100563000D01*
X122428000Y-103682800D02*
X124460000Y-101650800D01*
X124460000Y-101650800D02*
X129516200Y-101650800D01*
%TO.N,Net-(U1-INB)*%
X134112000Y-109474000D02*
X134112000Y-112522000D01*
%TO.N,Net-(U1-PWM)*%
X134620000Y-112776000D02*
X134620000Y-108712000D01*
%TO.N,Net-(U1-CS)*%
X135128000Y-107950000D02*
X135128000Y-113538000D01*
X123952000Y-117348000D02*
X121682000Y-117348000D01*
X121682000Y-117348000D02*
X119904000Y-115570000D01*
%TO.N,Net-(U2-CS)*%
X153379000Y-99568000D02*
X152384000Y-100563000D01*
X160020000Y-99568000D02*
X153379000Y-99568000D01*
%TO.N,Net-(U2-PWM)*%
X153141000Y-98806000D02*
X151384000Y-100563000D01*
X159766000Y-98806000D02*
X153141000Y-98806000D01*
%TO.N,Net-(U2-INB)*%
X159766000Y-101600000D02*
X155421000Y-101600000D01*
X155421000Y-101600000D02*
X154384000Y-100563000D01*
%TO.N,Net-(U2-INA)*%
X150114000Y-108966000D02*
X149352000Y-108204000D01*
X150114000Y-109474000D02*
X150114000Y-108966000D01*
%TO.N,Net-(U2-EN{slash}DIAA)*%
X160258000Y-115046000D02*
X162560000Y-115046000D01*
X154940000Y-109728000D02*
X160258000Y-115046000D01*
X154940000Y-106680000D02*
X154940000Y-109728000D01*
%TO.N,Net-(J7-Pin_5)*%
X124968000Y-113030000D02*
X124968000Y-118872000D01*
X124968000Y-118872000D02*
X123422500Y-120417500D01*
X123422500Y-120417500D02*
X120650000Y-120417500D01*
%TO.N,Net-(J7-Pin_4)*%
X118618000Y-112268000D02*
X117094000Y-110744000D01*
X116348000Y-120650000D02*
X117602000Y-119396000D01*
X118618000Y-113030000D02*
X118618000Y-112268000D01*
X117602000Y-119396000D02*
X117602000Y-117094000D01*
%TO.N,Net-(J7-Pin_3)*%
X119126000Y-112776000D02*
X118872000Y-116840000D01*
X119126000Y-108458000D02*
X119126000Y-112776000D01*
%TO.N,Net-(J8-Pin_4)*%
X165084000Y-110236000D02*
X164541200Y-109693200D01*
X167386000Y-110236000D02*
X165084000Y-110236000D01*
%TO.N,Net-(J8-Pin_2)*%
X159816800Y-102565200D02*
X161620200Y-100761800D01*
X157870400Y-102565200D02*
X159816800Y-102565200D01*
%TD*%
%TA.AperFunction,Conductor*%
%TO.N,/VCC*%
G36*
X169513398Y-69956768D02*
G01*
X169580264Y-69977025D01*
X169625566Y-70030218D01*
X169636330Y-70081823D01*
X169094257Y-133486560D01*
X169074000Y-133553429D01*
X169020807Y-133598731D01*
X168970262Y-133609500D01*
X161196988Y-133609500D01*
X161190457Y-133607291D01*
X161157323Y-133609500D01*
X161124116Y-133609500D01*
X161117446Y-133610826D01*
X161110872Y-133612595D01*
X161095978Y-133619961D01*
X161084797Y-133625489D01*
X161077309Y-133628887D01*
X161063322Y-133634681D01*
X161050422Y-133640025D01*
X161044768Y-133643803D01*
X161039372Y-133647953D01*
X161020216Y-133669845D01*
X161017499Y-133672949D01*
X160994024Y-133696426D01*
X160991387Y-133702791D01*
X160979244Y-133716669D01*
X160979238Y-133716678D01*
X157554072Y-137631155D01*
X157495112Y-137668645D01*
X157460752Y-137673500D01*
X129791374Y-137673500D01*
X129724335Y-137653815D01*
X129708993Y-137642179D01*
X125956386Y-134306527D01*
X125233606Y-133664056D01*
X125209574Y-133640024D01*
X125203948Y-133637693D01*
X125199397Y-133633648D01*
X125199395Y-133633647D01*
X125170715Y-133623696D01*
X125170715Y-133623695D01*
X125167261Y-133622496D01*
X125135882Y-133609500D01*
X125129798Y-133609500D01*
X125124044Y-133607504D01*
X125124042Y-133607503D01*
X125093745Y-133609286D01*
X125086464Y-133609500D01*
X115263065Y-133609500D01*
X115196026Y-133589815D01*
X115150271Y-133537011D01*
X115139069Y-133484524D01*
X115139948Y-133372958D01*
X115150377Y-132048392D01*
X115150377Y-132048384D01*
X138749900Y-132048384D01*
X138749900Y-134448415D01*
X138760400Y-134551195D01*
X138760401Y-134551196D01*
X138815586Y-134717735D01*
X138815587Y-134717737D01*
X138907686Y-134867051D01*
X138907689Y-134867055D01*
X139031744Y-134991110D01*
X139031748Y-134991113D01*
X139181062Y-135083212D01*
X139181064Y-135083213D01*
X139181066Y-135083214D01*
X139347603Y-135138399D01*
X139450392Y-135148900D01*
X139450397Y-135148900D01*
X141850403Y-135148900D01*
X141850408Y-135148900D01*
X141953197Y-135138399D01*
X142119734Y-135083214D01*
X142269055Y-134991111D01*
X142393111Y-134867055D01*
X142485214Y-134717734D01*
X142540399Y-134551197D01*
X142550900Y-134448408D01*
X142550900Y-133123841D01*
X143749900Y-133123841D01*
X143749900Y-133372958D01*
X143749901Y-133372975D01*
X143781447Y-133612595D01*
X143782418Y-133619965D01*
X143833119Y-133809185D01*
X143846898Y-133860607D01*
X143942230Y-134090761D01*
X143942237Y-134090776D01*
X144066800Y-134306526D01*
X144218460Y-134504174D01*
X144218466Y-134504181D01*
X144394618Y-134680333D01*
X144394625Y-134680339D01*
X144592273Y-134831999D01*
X144808023Y-134956562D01*
X144808038Y-134956569D01*
X144907225Y-134997653D01*
X145038193Y-135051902D01*
X145278835Y-135116382D01*
X145525835Y-135148900D01*
X145525842Y-135148900D01*
X145774958Y-135148900D01*
X145774965Y-135148900D01*
X146021965Y-135116382D01*
X146262607Y-135051902D01*
X146492773Y-134956564D01*
X146708527Y-134831999D01*
X146906176Y-134680338D01*
X147082338Y-134504176D01*
X147233999Y-134306527D01*
X147358564Y-134090773D01*
X147453902Y-133860607D01*
X147518382Y-133619965D01*
X147550900Y-133372965D01*
X147550900Y-133123835D01*
X147518382Y-132876835D01*
X147453902Y-132636193D01*
X147358564Y-132406027D01*
X147233999Y-132190273D01*
X147082338Y-131992624D01*
X147082333Y-131992618D01*
X146906181Y-131816466D01*
X146906174Y-131816460D01*
X146708526Y-131664800D01*
X146492776Y-131540237D01*
X146492761Y-131540230D01*
X146262607Y-131444898D01*
X146021961Y-131380417D01*
X145774975Y-131347901D01*
X145774970Y-131347900D01*
X145774965Y-131347900D01*
X145525835Y-131347900D01*
X145525829Y-131347900D01*
X145525824Y-131347901D01*
X145278838Y-131380417D01*
X145038192Y-131444898D01*
X144808038Y-131540230D01*
X144808023Y-131540237D01*
X144592273Y-131664800D01*
X144394625Y-131816460D01*
X144394618Y-131816466D01*
X144218466Y-131992618D01*
X144218460Y-131992625D01*
X144066800Y-132190273D01*
X143942237Y-132406023D01*
X143942230Y-132406038D01*
X143846898Y-132636192D01*
X143782417Y-132876838D01*
X143749901Y-133123824D01*
X143749900Y-133123841D01*
X142550900Y-133123841D01*
X142550900Y-132048392D01*
X142540399Y-131945603D01*
X142485214Y-131779066D01*
X142414733Y-131664800D01*
X142393113Y-131629748D01*
X142393110Y-131629744D01*
X142269055Y-131505689D01*
X142269051Y-131505686D01*
X142119737Y-131413587D01*
X142119735Y-131413586D01*
X142019637Y-131380417D01*
X141953197Y-131358401D01*
X141953195Y-131358400D01*
X141850415Y-131347900D01*
X141850408Y-131347900D01*
X139450392Y-131347900D01*
X139450384Y-131347900D01*
X139347604Y-131358400D01*
X139347603Y-131358401D01*
X139181064Y-131413586D01*
X139181062Y-131413587D01*
X139031748Y-131505686D01*
X139031744Y-131505689D01*
X138907689Y-131629744D01*
X138907686Y-131629748D01*
X138815587Y-131779062D01*
X138815586Y-131779064D01*
X138760401Y-131945603D01*
X138760400Y-131945604D01*
X138749900Y-132048384D01*
X115150377Y-132048384D01*
X115150410Y-132044259D01*
X115172291Y-129265295D01*
X115224968Y-122575402D01*
X133747500Y-122575402D01*
X133747500Y-122811597D01*
X133784446Y-123044868D01*
X133857433Y-123269496D01*
X133964657Y-123479933D01*
X134103483Y-123671010D01*
X134270490Y-123838017D01*
X134461567Y-123976843D01*
X134560991Y-124027502D01*
X134672003Y-124084066D01*
X134672005Y-124084066D01*
X134672008Y-124084068D01*
X134792412Y-124123189D01*
X134896631Y-124157053D01*
X135129903Y-124194000D01*
X135129908Y-124194000D01*
X135366097Y-124194000D01*
X135599368Y-124157053D01*
X135823992Y-124084068D01*
X136034433Y-123976843D01*
X136225510Y-123838017D01*
X136392517Y-123671010D01*
X136531343Y-123479933D01*
X136638568Y-123269492D01*
X136711553Y-123044868D01*
X136748500Y-122811597D01*
X136748500Y-122575402D01*
X136711553Y-122342131D01*
X136638566Y-122117503D01*
X136531342Y-121907066D01*
X136392517Y-121715990D01*
X136322162Y-121645635D01*
X148747500Y-121645635D01*
X148747500Y-123741370D01*
X148747501Y-123741376D01*
X148753908Y-123800983D01*
X148804202Y-123935828D01*
X148804206Y-123935835D01*
X148890452Y-124051044D01*
X148890455Y-124051047D01*
X149005664Y-124137293D01*
X149005671Y-124137297D01*
X149140517Y-124187591D01*
X149140516Y-124187591D01*
X149147444Y-124188335D01*
X149200127Y-124194000D01*
X151295872Y-124193999D01*
X151355483Y-124187591D01*
X151490331Y-124137296D01*
X151605546Y-124051046D01*
X151691796Y-123935831D01*
X151742091Y-123800983D01*
X151748500Y-123741373D01*
X151748499Y-121645628D01*
X151742091Y-121586017D01*
X151728278Y-121548983D01*
X151691797Y-121451171D01*
X151691793Y-121451164D01*
X151605547Y-121335955D01*
X151605544Y-121335952D01*
X151490335Y-121249706D01*
X151490328Y-121249702D01*
X151355482Y-121199408D01*
X151355483Y-121199408D01*
X151295883Y-121193001D01*
X151295881Y-121193000D01*
X151295873Y-121193000D01*
X151295864Y-121193000D01*
X149200129Y-121193000D01*
X149200123Y-121193001D01*
X149140516Y-121199408D01*
X149005671Y-121249702D01*
X149005664Y-121249706D01*
X148890455Y-121335952D01*
X148890452Y-121335955D01*
X148804206Y-121451164D01*
X148804202Y-121451171D01*
X148753908Y-121586017D01*
X148747501Y-121645616D01*
X148747501Y-121645623D01*
X148747500Y-121645635D01*
X136322162Y-121645635D01*
X136225510Y-121548983D01*
X136034433Y-121410157D01*
X135823996Y-121302933D01*
X135599368Y-121229946D01*
X135366097Y-121193000D01*
X135366092Y-121193000D01*
X135129908Y-121193000D01*
X135129903Y-121193000D01*
X134896631Y-121229946D01*
X134672003Y-121302933D01*
X134461566Y-121410157D01*
X134405119Y-121451169D01*
X134270490Y-121548983D01*
X134270488Y-121548985D01*
X134270487Y-121548985D01*
X134103485Y-121715987D01*
X134103485Y-121715988D01*
X134103483Y-121715990D01*
X134043862Y-121798050D01*
X133964657Y-121907066D01*
X133857433Y-122117503D01*
X133784446Y-122342131D01*
X133747500Y-122575402D01*
X115224968Y-122575402D01*
X115239585Y-120718995D01*
X115647499Y-120718995D01*
X115674418Y-120854322D01*
X115674421Y-120854332D01*
X115727221Y-120981804D01*
X115727228Y-120981817D01*
X115803885Y-121096541D01*
X115803888Y-121096545D01*
X115901454Y-121194111D01*
X115901458Y-121194114D01*
X116016182Y-121270771D01*
X116016195Y-121270778D01*
X116143667Y-121323578D01*
X116143672Y-121323580D01*
X116143676Y-121323580D01*
X116143677Y-121323581D01*
X116279004Y-121350500D01*
X116279007Y-121350500D01*
X116416995Y-121350500D01*
X116508041Y-121332389D01*
X116552328Y-121323580D01*
X116679811Y-121270775D01*
X116794542Y-121194114D01*
X116892114Y-121096542D01*
X116968775Y-120981811D01*
X117007418Y-120888515D01*
X117034293Y-120848295D01*
X118000729Y-119881860D01*
X118000733Y-119881858D01*
X118087858Y-119794733D01*
X118156311Y-119692286D01*
X118156312Y-119692285D01*
X118156313Y-119692282D01*
X118156315Y-119692279D01*
X118166672Y-119667272D01*
X118203463Y-119578451D01*
X118227500Y-119457607D01*
X118227500Y-119334393D01*
X118227500Y-118141452D01*
X118247185Y-118074413D01*
X118299989Y-118028658D01*
X118369147Y-118018714D01*
X118432703Y-118047739D01*
X118439181Y-118053771D01*
X119126639Y-118741229D01*
X119126642Y-118741233D01*
X119213767Y-118828358D01*
X119290690Y-118879756D01*
X119296490Y-118883632D01*
X119296493Y-118883634D01*
X119316210Y-118896809D01*
X119316212Y-118896810D01*
X119316215Y-118896812D01*
X119382896Y-118924431D01*
X119382898Y-118924433D01*
X119423140Y-118941101D01*
X119430048Y-118943963D01*
X119490471Y-118955981D01*
X119550893Y-118968000D01*
X120711607Y-118968000D01*
X120711608Y-118967999D01*
X120832452Y-118943963D01*
X120946286Y-118896811D01*
X121048733Y-118828358D01*
X121135858Y-118741233D01*
X121204311Y-118638786D01*
X121251463Y-118524952D01*
X121275500Y-118404106D01*
X121275500Y-118280894D01*
X121251463Y-118160048D01*
X121208792Y-118057034D01*
X121206336Y-118034189D01*
X121199384Y-118012294D01*
X121202672Y-118000112D01*
X121201324Y-117987566D01*
X121211607Y-117967021D01*
X121217597Y-117944840D01*
X121226950Y-117936369D01*
X121232599Y-117925086D01*
X121252357Y-117913362D01*
X121269388Y-117897941D01*
X121281836Y-117895872D01*
X121292688Y-117889434D01*
X121315649Y-117890253D01*
X121338313Y-117886488D01*
X121354648Y-117891646D01*
X121362513Y-117891927D01*
X121372386Y-117895688D01*
X121381988Y-117899821D01*
X121385715Y-117902312D01*
X121439198Y-117924465D01*
X121499548Y-117949463D01*
X121587821Y-117967021D01*
X121620389Y-117973499D01*
X121620393Y-117973500D01*
X121620394Y-117973500D01*
X121743607Y-117973500D01*
X123606931Y-117973500D01*
X123654383Y-117982939D01*
X123725253Y-118012294D01*
X123747672Y-118021580D01*
X123747676Y-118021580D01*
X123747677Y-118021581D01*
X123883004Y-118048500D01*
X123883007Y-118048500D01*
X124020995Y-118048500D01*
X124120745Y-118028658D01*
X124156328Y-118021580D01*
X124171047Y-118015482D01*
X124240517Y-118008014D01*
X124302996Y-118039289D01*
X124338648Y-118099378D01*
X124342500Y-118130044D01*
X124342500Y-118561548D01*
X124322815Y-118628587D01*
X124306181Y-118649229D01*
X123199729Y-119755681D01*
X123138406Y-119789166D01*
X123112048Y-119792000D01*
X120995069Y-119792000D01*
X120947617Y-119782561D01*
X120854332Y-119743921D01*
X120854322Y-119743918D01*
X120718995Y-119717000D01*
X120718993Y-119717000D01*
X120581007Y-119717000D01*
X120581005Y-119717000D01*
X120445677Y-119743918D01*
X120445667Y-119743921D01*
X120318195Y-119796721D01*
X120318182Y-119796728D01*
X120203458Y-119873385D01*
X120203454Y-119873388D01*
X120105888Y-119970954D01*
X120105885Y-119970958D01*
X120029228Y-120085682D01*
X120029221Y-120085695D01*
X119976421Y-120213167D01*
X119976418Y-120213177D01*
X119949500Y-120348504D01*
X119949500Y-120348507D01*
X119949500Y-120486493D01*
X119949500Y-120486495D01*
X119949499Y-120486495D01*
X119976418Y-120621822D01*
X119976421Y-120621832D01*
X120029221Y-120749304D01*
X120029228Y-120749317D01*
X120105885Y-120864041D01*
X120105888Y-120864045D01*
X120203454Y-120961611D01*
X120203458Y-120961614D01*
X120318182Y-121038271D01*
X120318195Y-121038278D01*
X120445667Y-121091078D01*
X120445672Y-121091080D01*
X120445676Y-121091080D01*
X120445677Y-121091081D01*
X120581004Y-121118000D01*
X120581007Y-121118000D01*
X120718995Y-121118000D01*
X120810041Y-121099889D01*
X120854328Y-121091080D01*
X120899515Y-121072362D01*
X120947617Y-121052439D01*
X120995069Y-121043000D01*
X123484107Y-121043000D01*
X123544529Y-121030981D01*
X123604952Y-121018963D01*
X123638292Y-121005152D01*
X123718786Y-120971812D01*
X123770009Y-120937584D01*
X123821233Y-120903358D01*
X123908358Y-120816233D01*
X123908359Y-120816231D01*
X123915425Y-120809165D01*
X123915428Y-120809161D01*
X125366729Y-119357860D01*
X125366733Y-119357858D01*
X125453858Y-119270733D01*
X125492067Y-119213549D01*
X125522312Y-119168286D01*
X125569463Y-119054451D01*
X125593500Y-118933607D01*
X125593500Y-118810393D01*
X125593500Y-116854989D01*
X135129699Y-116854989D01*
X135129699Y-117028210D01*
X135156764Y-117199096D01*
X135156797Y-117199301D01*
X135210326Y-117364045D01*
X135288967Y-117518388D01*
X135390785Y-117658528D01*
X135513271Y-117781014D01*
X135653411Y-117882832D01*
X135807754Y-117961473D01*
X135972498Y-118015002D01*
X136143588Y-118042100D01*
X136143589Y-118042100D01*
X136316809Y-118042100D01*
X136316810Y-118042100D01*
X136487900Y-118015002D01*
X136652644Y-117961473D01*
X136652647Y-117961470D01*
X136652651Y-117961470D01*
X136652652Y-117961469D01*
X136704794Y-117934902D01*
X136773463Y-117922005D01*
X136835399Y-117946119D01*
X136887864Y-117985393D01*
X136887870Y-117985397D01*
X137022716Y-118035691D01*
X137022715Y-118035691D01*
X137029643Y-118036435D01*
X137082326Y-118042100D01*
X138378071Y-118042099D01*
X138437682Y-118035691D01*
X138572530Y-117985396D01*
X138687745Y-117899146D01*
X138773995Y-117783931D01*
X138824290Y-117649083D01*
X138830699Y-117589473D01*
X138830698Y-116293728D01*
X138824290Y-116234117D01*
X138820767Y-116224672D01*
X138773996Y-116099271D01*
X138773992Y-116099264D01*
X138687746Y-115984055D01*
X138687743Y-115984052D01*
X138572534Y-115897806D01*
X138572527Y-115897802D01*
X138437681Y-115847508D01*
X138437682Y-115847508D01*
X138378082Y-115841101D01*
X138378080Y-115841100D01*
X138378072Y-115841100D01*
X138378063Y-115841100D01*
X137082328Y-115841100D01*
X137082322Y-115841101D01*
X137022715Y-115847508D01*
X136887871Y-115897802D01*
X136887868Y-115897803D01*
X136887868Y-115897804D01*
X136835397Y-115937082D01*
X136769934Y-115961498D01*
X136704796Y-115948299D01*
X136652644Y-115921727D01*
X136487900Y-115868198D01*
X136487898Y-115868197D01*
X136487897Y-115868197D01*
X136356470Y-115847381D01*
X136316810Y-115841100D01*
X136143588Y-115841100D01*
X136103927Y-115847381D01*
X135972501Y-115868197D01*
X135807751Y-115921728D01*
X135653410Y-116000368D01*
X135621132Y-116023820D01*
X135513271Y-116102186D01*
X135513269Y-116102188D01*
X135513268Y-116102188D01*
X135390787Y-116224669D01*
X135390787Y-116224670D01*
X135390785Y-116224672D01*
X135363455Y-116262289D01*
X135288967Y-116364811D01*
X135210327Y-116519152D01*
X135156796Y-116683902D01*
X135129699Y-116854989D01*
X125593500Y-116854989D01*
X125593500Y-113375068D01*
X125602939Y-113327615D01*
X125606047Y-113320111D01*
X125641580Y-113234328D01*
X125668500Y-113098993D01*
X125668500Y-112961007D01*
X125668500Y-112961004D01*
X125641581Y-112825677D01*
X125641580Y-112825676D01*
X125641580Y-112825672D01*
X125641578Y-112825667D01*
X125588778Y-112698195D01*
X125588771Y-112698182D01*
X125512114Y-112583458D01*
X125512111Y-112583454D01*
X125414545Y-112485888D01*
X125414541Y-112485885D01*
X125299817Y-112409228D01*
X125299804Y-112409221D01*
X125172332Y-112356421D01*
X125172322Y-112356418D01*
X125036995Y-112329500D01*
X125036993Y-112329500D01*
X124899007Y-112329500D01*
X124899005Y-112329500D01*
X124763677Y-112356418D01*
X124763667Y-112356421D01*
X124636195Y-112409221D01*
X124636182Y-112409228D01*
X124521458Y-112485885D01*
X124521454Y-112485888D01*
X124423888Y-112583454D01*
X124423885Y-112583458D01*
X124347228Y-112698182D01*
X124347223Y-112698192D01*
X124320561Y-112762561D01*
X124276720Y-112816964D01*
X124210426Y-112839029D01*
X124142726Y-112821750D01*
X124095116Y-112770612D01*
X124091439Y-112762561D01*
X124064776Y-112698192D01*
X124064775Y-112698189D01*
X124064773Y-112698186D01*
X124064771Y-112698182D01*
X123988114Y-112583458D01*
X123988111Y-112583454D01*
X123890545Y-112485888D01*
X123890541Y-112485885D01*
X123775817Y-112409228D01*
X123775807Y-112409223D01*
X123682520Y-112370582D01*
X123642292Y-112343702D01*
X122397150Y-111098560D01*
X122389860Y-111091270D01*
X122389858Y-111091267D01*
X122302733Y-111004142D01*
X122251509Y-110969915D01*
X122200286Y-110935688D01*
X122200283Y-110935686D01*
X122200280Y-110935685D01*
X122127062Y-110905358D01*
X122127060Y-110905357D01*
X122119792Y-110902347D01*
X122086452Y-110888537D01*
X122012271Y-110873782D01*
X122008048Y-110872942D01*
X122008037Y-110872939D01*
X121965611Y-110864500D01*
X121965607Y-110864500D01*
X121965606Y-110864500D01*
X120233069Y-110864500D01*
X120185617Y-110855061D01*
X120092332Y-110816421D01*
X120092322Y-110816418D01*
X119956995Y-110789500D01*
X119956993Y-110789500D01*
X119875500Y-110789500D01*
X119808461Y-110769815D01*
X119762706Y-110717011D01*
X119751500Y-110665500D01*
X119751500Y-109542995D01*
X133411499Y-109542995D01*
X133438418Y-109678322D01*
X133438420Y-109678328D01*
X133477061Y-109771615D01*
X133486500Y-109819068D01*
X133486500Y-112176930D01*
X133477061Y-112224382D01*
X133438421Y-112317667D01*
X133438418Y-112317677D01*
X133411500Y-112453004D01*
X133411500Y-112453007D01*
X133411500Y-112590993D01*
X133411500Y-112590995D01*
X133411499Y-112590995D01*
X133438418Y-112726322D01*
X133438421Y-112726332D01*
X133491221Y-112853804D01*
X133491228Y-112853817D01*
X133567885Y-112968541D01*
X133567888Y-112968545D01*
X133665454Y-113066111D01*
X133665458Y-113066114D01*
X133780182Y-113142771D01*
X133780195Y-113142778D01*
X133864537Y-113177713D01*
X133907672Y-113195580D01*
X134043007Y-113222500D01*
X134047104Y-113223315D01*
X134109015Y-113255700D01*
X134110594Y-113257251D01*
X134173454Y-113320111D01*
X134173458Y-113320114D01*
X134288182Y-113396771D01*
X134288189Y-113396775D01*
X134350952Y-113422772D01*
X134405355Y-113466612D01*
X134427421Y-113532906D01*
X134427500Y-113537333D01*
X134427500Y-113606993D01*
X134427500Y-113606995D01*
X134427499Y-113606995D01*
X134454418Y-113742322D01*
X134454421Y-113742332D01*
X134507221Y-113869804D01*
X134507228Y-113869817D01*
X134583885Y-113984541D01*
X134583888Y-113984545D01*
X134681454Y-114082111D01*
X134681458Y-114082114D01*
X134796182Y-114158771D01*
X134796195Y-114158778D01*
X134923667Y-114211578D01*
X134923672Y-114211580D01*
X134923676Y-114211580D01*
X134923677Y-114211581D01*
X135059004Y-114238500D01*
X135059007Y-114238500D01*
X135196995Y-114238500D01*
X135288041Y-114220389D01*
X135332328Y-114211580D01*
X135454558Y-114160951D01*
X135459804Y-114158778D01*
X135459804Y-114158777D01*
X135459811Y-114158775D01*
X135574542Y-114082114D01*
X135672114Y-113984542D01*
X135748775Y-113869811D01*
X135801580Y-113742328D01*
X135818793Y-113655792D01*
X135828500Y-113606995D01*
X135828500Y-113469004D01*
X135801581Y-113333677D01*
X135801580Y-113333676D01*
X135801580Y-113333672D01*
X135795963Y-113320111D01*
X135762939Y-113240382D01*
X135761312Y-113232205D01*
X135758523Y-113227865D01*
X135753500Y-113192930D01*
X135753500Y-113098995D01*
X142424599Y-113098995D01*
X142451518Y-113234322D01*
X142451521Y-113234332D01*
X142504321Y-113361804D01*
X142504328Y-113361817D01*
X142580985Y-113476541D01*
X142580988Y-113476545D01*
X142678554Y-113574111D01*
X142678558Y-113574114D01*
X142793282Y-113650771D01*
X142793295Y-113650778D01*
X142889039Y-113690436D01*
X142920772Y-113703580D01*
X142920776Y-113703580D01*
X142920777Y-113703581D01*
X143056104Y-113730500D01*
X143056107Y-113730500D01*
X143194095Y-113730500D01*
X143285141Y-113712389D01*
X143329428Y-113703580D01*
X143397980Y-113675185D01*
X143422717Y-113664939D01*
X143470169Y-113655500D01*
X144215548Y-113655500D01*
X144282587Y-113675185D01*
X144303229Y-113691819D01*
X146363989Y-115752579D01*
X146397474Y-115813902D01*
X146392490Y-115883594D01*
X146350618Y-115939527D01*
X146332603Y-115950745D01*
X146235211Y-116000368D01*
X146202933Y-116023820D01*
X146095072Y-116102186D01*
X146095070Y-116102188D01*
X146095069Y-116102188D01*
X145972588Y-116224669D01*
X145972588Y-116224670D01*
X145972586Y-116224672D01*
X145945256Y-116262289D01*
X145870768Y-116364811D01*
X145792128Y-116519152D01*
X145738597Y-116683902D01*
X145711500Y-116854989D01*
X145711500Y-117028210D01*
X145738565Y-117199096D01*
X145738598Y-117199301D01*
X145792127Y-117364045D01*
X145870768Y-117518388D01*
X145972586Y-117658528D01*
X146095072Y-117781014D01*
X146235212Y-117882832D01*
X146389555Y-117961473D01*
X146554299Y-118015002D01*
X146725389Y-118042100D01*
X146725390Y-118042100D01*
X146898610Y-118042100D01*
X146898611Y-118042100D01*
X147069701Y-118015002D01*
X147234445Y-117961473D01*
X147234448Y-117961470D01*
X147234452Y-117961470D01*
X147234453Y-117961469D01*
X147286595Y-117934902D01*
X147355264Y-117922005D01*
X147417200Y-117946119D01*
X147469665Y-117985393D01*
X147469671Y-117985397D01*
X147604517Y-118035691D01*
X147604516Y-118035691D01*
X147611444Y-118036435D01*
X147664127Y-118042100D01*
X148959872Y-118042099D01*
X149019483Y-118035691D01*
X149154331Y-117985396D01*
X149269546Y-117899146D01*
X149355796Y-117783931D01*
X149406091Y-117649083D01*
X149412500Y-117589473D01*
X149412499Y-116293728D01*
X149406091Y-116234117D01*
X149402568Y-116224672D01*
X149355797Y-116099271D01*
X149355793Y-116099264D01*
X149269547Y-115984055D01*
X149269544Y-115984052D01*
X149154335Y-115897806D01*
X149154328Y-115897802D01*
X149019482Y-115847508D01*
X149019483Y-115847508D01*
X148959883Y-115841101D01*
X148959881Y-115841100D01*
X148959873Y-115841100D01*
X148959865Y-115841100D01*
X147978852Y-115841100D01*
X147911813Y-115821415D01*
X147866058Y-115768611D01*
X147856114Y-115699453D01*
X147885139Y-115635897D01*
X147891171Y-115629419D01*
X150421596Y-113098995D01*
X153130857Y-110389734D01*
X153134653Y-110384052D01*
X153138368Y-110378495D01*
X153199307Y-110287292D01*
X153199307Y-110287291D01*
X153199311Y-110287286D01*
X153246463Y-110173452D01*
X153255906Y-110125976D01*
X153259586Y-110107478D01*
X153259586Y-110107473D01*
X153261172Y-110099501D01*
X153270500Y-110052607D01*
X153270500Y-109941013D01*
X153270766Y-109936956D01*
X153273715Y-109928902D01*
X153279939Y-109897615D01*
X153318580Y-109804328D01*
X153335834Y-109717588D01*
X153345500Y-109668995D01*
X153345500Y-109531004D01*
X153318581Y-109395677D01*
X153318580Y-109395676D01*
X153318580Y-109395672D01*
X153304377Y-109361382D01*
X153279939Y-109302382D01*
X153270500Y-109254930D01*
X153270500Y-106748995D01*
X154239499Y-106748995D01*
X154266418Y-106884322D01*
X154266420Y-106884328D01*
X154305061Y-106977615D01*
X154314500Y-107025068D01*
X154314500Y-109789606D01*
X154338537Y-109910452D01*
X154338538Y-109910454D01*
X154338538Y-109910456D01*
X154349194Y-109936181D01*
X154349197Y-109936188D01*
X154350658Y-109939714D01*
X154385688Y-110024286D01*
X154405241Y-110053548D01*
X154409895Y-110060513D01*
X154454140Y-110126731D01*
X154454141Y-110126732D01*
X154454142Y-110126733D01*
X154541267Y-110213858D01*
X154541268Y-110213858D01*
X154548335Y-110220925D01*
X154548334Y-110220925D01*
X154548338Y-110220928D01*
X159859263Y-115531855D01*
X159859267Y-115531858D01*
X159961710Y-115600309D01*
X159961711Y-115600309D01*
X159961715Y-115600312D01*
X160015198Y-115622465D01*
X160075548Y-115647463D01*
X160188265Y-115669883D01*
X160196389Y-115671499D01*
X160196393Y-115671500D01*
X160196394Y-115671500D01*
X160319607Y-115671500D01*
X162214931Y-115671500D01*
X162262383Y-115680939D01*
X162355667Y-115719578D01*
X162355672Y-115719580D01*
X162355676Y-115719580D01*
X162355677Y-115719581D01*
X162491004Y-115746500D01*
X162491007Y-115746500D01*
X162628995Y-115746500D01*
X162720041Y-115728389D01*
X162764328Y-115719580D01*
X162891811Y-115666775D01*
X163006542Y-115590114D01*
X163104114Y-115492542D01*
X163180775Y-115377811D01*
X163233580Y-115250328D01*
X163242389Y-115206041D01*
X163260500Y-115114995D01*
X163260500Y-114977004D01*
X163233581Y-114841677D01*
X163233580Y-114841676D01*
X163233580Y-114841672D01*
X163213788Y-114793890D01*
X163180778Y-114714195D01*
X163180771Y-114714182D01*
X163104114Y-114599458D01*
X163104111Y-114599454D01*
X163006545Y-114501888D01*
X163006541Y-114501885D01*
X162891817Y-114425228D01*
X162891804Y-114425221D01*
X162764332Y-114372421D01*
X162764322Y-114372418D01*
X162628995Y-114345500D01*
X162628993Y-114345500D01*
X162491007Y-114345500D01*
X162491005Y-114345500D01*
X162355677Y-114372418D01*
X162355667Y-114372421D01*
X162262383Y-114411061D01*
X162214931Y-114420500D01*
X160568453Y-114420500D01*
X160501414Y-114400815D01*
X160480772Y-114384181D01*
X155858786Y-109762195D01*
X163840699Y-109762195D01*
X163867618Y-109897522D01*
X163867621Y-109897532D01*
X163920421Y-110025004D01*
X163920428Y-110025017D01*
X163997085Y-110139741D01*
X163997088Y-110139745D01*
X164094654Y-110237311D01*
X164094658Y-110237314D01*
X164209382Y-110313971D01*
X164209395Y-110313978D01*
X164302677Y-110352616D01*
X164342906Y-110379496D01*
X164598139Y-110634729D01*
X164598142Y-110634733D01*
X164685267Y-110721858D01*
X164736490Y-110756084D01*
X164787714Y-110790312D01*
X164818173Y-110802928D01*
X164846660Y-110814728D01*
X164846665Y-110814729D01*
X164850746Y-110816420D01*
X164901548Y-110837463D01*
X164927078Y-110842541D01*
X165022391Y-110861499D01*
X165022392Y-110861500D01*
X165022393Y-110861500D01*
X165022394Y-110861500D01*
X166113019Y-110861500D01*
X166180058Y-110881185D01*
X166223503Y-110929203D01*
X166230950Y-110943819D01*
X166355890Y-111115786D01*
X166506213Y-111266109D01*
X166678182Y-111391050D01*
X166686946Y-111395516D01*
X166737742Y-111443491D01*
X166754536Y-111511312D01*
X166731998Y-111577447D01*
X166686946Y-111616484D01*
X166678182Y-111620949D01*
X166506213Y-111745890D01*
X166355890Y-111896213D01*
X166230951Y-112068179D01*
X166134444Y-112257585D01*
X166068753Y-112459760D01*
X166035500Y-112669713D01*
X166035500Y-112882286D01*
X166064615Y-113066114D01*
X166068754Y-113092243D01*
X166132809Y-113289384D01*
X166134444Y-113294414D01*
X166230951Y-113483820D01*
X166355890Y-113655786D01*
X166506213Y-113806109D01*
X166678182Y-113931050D01*
X166686946Y-113935516D01*
X166737742Y-113983491D01*
X166754536Y-114051312D01*
X166731998Y-114117447D01*
X166686946Y-114156484D01*
X166678182Y-114160949D01*
X166506213Y-114285890D01*
X166355890Y-114436213D01*
X166230951Y-114608179D01*
X166134444Y-114797585D01*
X166068753Y-114999760D01*
X166035500Y-115209713D01*
X166035500Y-115422286D01*
X166068306Y-115629419D01*
X166068754Y-115632243D01*
X166129076Y-115817895D01*
X166134444Y-115834414D01*
X166230951Y-116023820D01*
X166355890Y-116195786D01*
X166506213Y-116346109D01*
X166678179Y-116471048D01*
X166678181Y-116471049D01*
X166678184Y-116471051D01*
X166867588Y-116567557D01*
X167069757Y-116633246D01*
X167279713Y-116666500D01*
X167279714Y-116666500D01*
X167492286Y-116666500D01*
X167492287Y-116666500D01*
X167702243Y-116633246D01*
X167904412Y-116567557D01*
X168093816Y-116471051D01*
X168174638Y-116412331D01*
X168265786Y-116346109D01*
X168265788Y-116346106D01*
X168265792Y-116346104D01*
X168416104Y-116195792D01*
X168416106Y-116195788D01*
X168416109Y-116195786D01*
X168541048Y-116023820D01*
X168541047Y-116023820D01*
X168541051Y-116023816D01*
X168637557Y-115834412D01*
X168703246Y-115632243D01*
X168736500Y-115422287D01*
X168736500Y-115209713D01*
X168703246Y-114999757D01*
X168637557Y-114797588D01*
X168541051Y-114608184D01*
X168541049Y-114608181D01*
X168541048Y-114608179D01*
X168416109Y-114436213D01*
X168265786Y-114285890D01*
X168093820Y-114160951D01*
X168089541Y-114158771D01*
X168085054Y-114156485D01*
X168034259Y-114108512D01*
X168017463Y-114040692D01*
X168039999Y-113974556D01*
X168085054Y-113935515D01*
X168093816Y-113931051D01*
X168178098Y-113869817D01*
X168265786Y-113806109D01*
X168265788Y-113806106D01*
X168265792Y-113806104D01*
X168416104Y-113655792D01*
X168416106Y-113655788D01*
X168416109Y-113655786D01*
X168541048Y-113483820D01*
X168541047Y-113483820D01*
X168541051Y-113483816D01*
X168637557Y-113294412D01*
X168703246Y-113092243D01*
X168736500Y-112882287D01*
X168736500Y-112669713D01*
X168703246Y-112459757D01*
X168637557Y-112257588D01*
X168541051Y-112068184D01*
X168541049Y-112068181D01*
X168541048Y-112068179D01*
X168416109Y-111896213D01*
X168265786Y-111745890D01*
X168093820Y-111620951D01*
X168093115Y-111620591D01*
X168085054Y-111616485D01*
X168034259Y-111568512D01*
X168017463Y-111500692D01*
X168039999Y-111434556D01*
X168085054Y-111395515D01*
X168093816Y-111391051D01*
X168115789Y-111375086D01*
X168265786Y-111266109D01*
X168265788Y-111266106D01*
X168265792Y-111266104D01*
X168416104Y-111115792D01*
X168416106Y-111115788D01*
X168416109Y-111115786D01*
X168541048Y-110943820D01*
X168541049Y-110943819D01*
X168541051Y-110943816D01*
X168637557Y-110754412D01*
X168703246Y-110552243D01*
X168736500Y-110342287D01*
X168736500Y-110129713D01*
X168703246Y-109919757D01*
X168637557Y-109717588D01*
X168541051Y-109528184D01*
X168541049Y-109528181D01*
X168541048Y-109528179D01*
X168416109Y-109356213D01*
X168265786Y-109205890D01*
X168093820Y-109080951D01*
X168093115Y-109080591D01*
X168085054Y-109076485D01*
X168034259Y-109028512D01*
X168017463Y-108960692D01*
X168039999Y-108894556D01*
X168085054Y-108855515D01*
X168093816Y-108851051D01*
X168149037Y-108810931D01*
X168265786Y-108726109D01*
X168265793Y-108726103D01*
X168329574Y-108662322D01*
X168416104Y-108575792D01*
X168416106Y-108575788D01*
X168416109Y-108575786D01*
X168541048Y-108403820D01*
X168541047Y-108403820D01*
X168541051Y-108403816D01*
X168637557Y-108214412D01*
X168703246Y-108012243D01*
X168736500Y-107802287D01*
X168736500Y-107589713D01*
X168703246Y-107379757D01*
X168637557Y-107177588D01*
X168541051Y-106988184D01*
X168541049Y-106988181D01*
X168541048Y-106988179D01*
X168416109Y-106816213D01*
X168265786Y-106665890D01*
X168093820Y-106540951D01*
X168093115Y-106540591D01*
X168085054Y-106536485D01*
X168034259Y-106488512D01*
X168017463Y-106420692D01*
X168039999Y-106354556D01*
X168085054Y-106315515D01*
X168093816Y-106311051D01*
X168115789Y-106295086D01*
X168265786Y-106186109D01*
X168265788Y-106186106D01*
X168265792Y-106186104D01*
X168416104Y-106035792D01*
X168416106Y-106035788D01*
X168416109Y-106035786D01*
X168541048Y-105863820D01*
X168541047Y-105863820D01*
X168541051Y-105863816D01*
X168637557Y-105674412D01*
X168703246Y-105472243D01*
X168736500Y-105262287D01*
X168736500Y-105049713D01*
X168703246Y-104839757D01*
X168637557Y-104637588D01*
X168541051Y-104448184D01*
X168541049Y-104448181D01*
X168541048Y-104448179D01*
X168416109Y-104276213D01*
X168302569Y-104162673D01*
X168269084Y-104101350D01*
X168274068Y-104031658D01*
X168315940Y-103975725D01*
X168346915Y-103958810D01*
X168478331Y-103909796D01*
X168593546Y-103823546D01*
X168679796Y-103708331D01*
X168730091Y-103573483D01*
X168736500Y-103513873D01*
X168736499Y-101718128D01*
X168730091Y-101658517D01*
X168679796Y-101523669D01*
X168679795Y-101523668D01*
X168679793Y-101523664D01*
X168593547Y-101408455D01*
X168593544Y-101408452D01*
X168478335Y-101322206D01*
X168478328Y-101322202D01*
X168343482Y-101271908D01*
X168343483Y-101271908D01*
X168283883Y-101265501D01*
X168283881Y-101265500D01*
X168283873Y-101265500D01*
X168283864Y-101265500D01*
X166488129Y-101265500D01*
X166488123Y-101265501D01*
X166428516Y-101271908D01*
X166293671Y-101322202D01*
X166293664Y-101322206D01*
X166178455Y-101408452D01*
X166178452Y-101408455D01*
X166092206Y-101523664D01*
X166092202Y-101523671D01*
X166041908Y-101658517D01*
X166035501Y-101718116D01*
X166035501Y-101718123D01*
X166035500Y-101718135D01*
X166035500Y-103513870D01*
X166035501Y-103513876D01*
X166041908Y-103573483D01*
X166092202Y-103708328D01*
X166092206Y-103708335D01*
X166178452Y-103823544D01*
X166178455Y-103823547D01*
X166293664Y-103909793D01*
X166293671Y-103909797D01*
X166425082Y-103958810D01*
X166481016Y-104000681D01*
X166505433Y-104066145D01*
X166490582Y-104134418D01*
X166469431Y-104162673D01*
X166355889Y-104276215D01*
X166230951Y-104448179D01*
X166134444Y-104637585D01*
X166068753Y-104839760D01*
X166035500Y-105049713D01*
X166035500Y-105262286D01*
X166068753Y-105472239D01*
X166134444Y-105674414D01*
X166230951Y-105863820D01*
X166355890Y-106035786D01*
X166506213Y-106186109D01*
X166678182Y-106311050D01*
X166686946Y-106315516D01*
X166737742Y-106363491D01*
X166754536Y-106431312D01*
X166731998Y-106497447D01*
X166686946Y-106536484D01*
X166678182Y-106540949D01*
X166506213Y-106665890D01*
X166355890Y-106816213D01*
X166230951Y-106988179D01*
X166134444Y-107177585D01*
X166068753Y-107379760D01*
X166035500Y-107589713D01*
X166035500Y-107802286D01*
X166068629Y-108011458D01*
X166068754Y-108012243D01*
X166119326Y-108167888D01*
X166134444Y-108214414D01*
X166230951Y-108403820D01*
X166355890Y-108575786D01*
X166506213Y-108726109D01*
X166678182Y-108851050D01*
X166686946Y-108855516D01*
X166737742Y-108903491D01*
X166754536Y-108971312D01*
X166731998Y-109037447D01*
X166686946Y-109076484D01*
X166678182Y-109080949D01*
X166506213Y-109205890D01*
X166355890Y-109356213D01*
X166230950Y-109528180D01*
X166223503Y-109542797D01*
X166175527Y-109593592D01*
X166113019Y-109610500D01*
X165394452Y-109610500D01*
X165365011Y-109601855D01*
X165335025Y-109595332D01*
X165330009Y-109591577D01*
X165327413Y-109590815D01*
X165306771Y-109574181D01*
X165227496Y-109494906D01*
X165200616Y-109454677D01*
X165161978Y-109361395D01*
X165161971Y-109361382D01*
X165085314Y-109246658D01*
X165085311Y-109246654D01*
X164987745Y-109149088D01*
X164987741Y-109149085D01*
X164873017Y-109072428D01*
X164873004Y-109072421D01*
X164745532Y-109019621D01*
X164745522Y-109019618D01*
X164610195Y-108992700D01*
X164610193Y-108992700D01*
X164472207Y-108992700D01*
X164472205Y-108992700D01*
X164336877Y-109019618D01*
X164336867Y-109019621D01*
X164209395Y-109072421D01*
X164209382Y-109072428D01*
X164094658Y-109149085D01*
X164094654Y-109149088D01*
X163997088Y-109246654D01*
X163997085Y-109246658D01*
X163920428Y-109361382D01*
X163920421Y-109361395D01*
X163867621Y-109488867D01*
X163867618Y-109488877D01*
X163840700Y-109624204D01*
X163840700Y-109624207D01*
X163840700Y-109762193D01*
X163840700Y-109762195D01*
X163840699Y-109762195D01*
X155858786Y-109762195D01*
X155601819Y-109505228D01*
X155568334Y-109443905D01*
X155565500Y-109417547D01*
X155565500Y-107025068D01*
X155574939Y-106977615D01*
X155613580Y-106884328D01*
X155625677Y-106823514D01*
X155640500Y-106748995D01*
X155640500Y-106611004D01*
X155613581Y-106475677D01*
X155613580Y-106475676D01*
X155613580Y-106475672D01*
X155613578Y-106475667D01*
X155560778Y-106348195D01*
X155560771Y-106348182D01*
X155484114Y-106233458D01*
X155484111Y-106233454D01*
X155386545Y-106135888D01*
X155386541Y-106135885D01*
X155271817Y-106059228D01*
X155271804Y-106059221D01*
X155144332Y-106006421D01*
X155144322Y-106006418D01*
X155008995Y-105979500D01*
X155008993Y-105979500D01*
X154871007Y-105979500D01*
X154871005Y-105979500D01*
X154735677Y-106006418D01*
X154735667Y-106006421D01*
X154608195Y-106059221D01*
X154608182Y-106059228D01*
X154493458Y-106135885D01*
X154493454Y-106135888D01*
X154395888Y-106233454D01*
X154395885Y-106233458D01*
X154319228Y-106348182D01*
X154319221Y-106348195D01*
X154266421Y-106475667D01*
X154266418Y-106475677D01*
X154239500Y-106611004D01*
X154239500Y-106611007D01*
X154239500Y-106748993D01*
X154239500Y-106748995D01*
X154239499Y-106748995D01*
X153270500Y-106748995D01*
X153270500Y-104240251D01*
X153290185Y-104173212D01*
X153306815Y-104152574D01*
X154207895Y-103251493D01*
X154248115Y-103224618D01*
X154341411Y-103185975D01*
X154456142Y-103109314D01*
X154553714Y-103011742D01*
X154630375Y-102897011D01*
X154683180Y-102769528D01*
X154710100Y-102634193D01*
X154710100Y-102496207D01*
X154710100Y-102496204D01*
X154683181Y-102360877D01*
X154683180Y-102360876D01*
X154683180Y-102360872D01*
X154649323Y-102279134D01*
X154630378Y-102233395D01*
X154630371Y-102233382D01*
X154553714Y-102118658D01*
X154553711Y-102118654D01*
X154456145Y-102021088D01*
X154456141Y-102021085D01*
X154341417Y-101944428D01*
X154341404Y-101944421D01*
X154213932Y-101891621D01*
X154213922Y-101891618D01*
X154078595Y-101864700D01*
X154078593Y-101864700D01*
X153940607Y-101864700D01*
X153940605Y-101864700D01*
X153805277Y-101891618D01*
X153805267Y-101891621D01*
X153677795Y-101944421D01*
X153677782Y-101944428D01*
X153563058Y-102021085D01*
X153563054Y-102021088D01*
X153465488Y-102118654D01*
X153465482Y-102118662D01*
X153388826Y-102233386D01*
X153388825Y-102233387D01*
X153350182Y-102326679D01*
X153323302Y-102366906D01*
X152756198Y-102934011D01*
X152246270Y-103443939D01*
X152246267Y-103443942D01*
X152211742Y-103478467D01*
X152159142Y-103531066D01*
X152127748Y-103578051D01*
X152127747Y-103578050D01*
X152090692Y-103633507D01*
X152090685Y-103633519D01*
X152059049Y-103709898D01*
X152059049Y-103709899D01*
X152043538Y-103747345D01*
X152043535Y-103747355D01*
X152019500Y-103868189D01*
X152019500Y-106871500D01*
X151999815Y-106938539D01*
X151947011Y-106984294D01*
X151895500Y-106995500D01*
X151823005Y-106995500D01*
X151687677Y-107022418D01*
X151687667Y-107022421D01*
X151594383Y-107061061D01*
X151546931Y-107070500D01*
X146610852Y-107070500D01*
X146543813Y-107050815D01*
X146523171Y-107034181D01*
X146072296Y-106583306D01*
X146045416Y-106543077D01*
X146006778Y-106449795D01*
X146006771Y-106449782D01*
X145930114Y-106335058D01*
X145930111Y-106335054D01*
X145832545Y-106237488D01*
X145832541Y-106237485D01*
X145717817Y-106160828D01*
X145717804Y-106160821D01*
X145590332Y-106108021D01*
X145590322Y-106108018D01*
X145454995Y-106081100D01*
X145454993Y-106081100D01*
X145317007Y-106081100D01*
X145317005Y-106081100D01*
X145181677Y-106108018D01*
X145181667Y-106108021D01*
X145054195Y-106160821D01*
X145054182Y-106160828D01*
X144939458Y-106237485D01*
X144939454Y-106237488D01*
X144841888Y-106335054D01*
X144841885Y-106335058D01*
X144765228Y-106449782D01*
X144765221Y-106449795D01*
X144712421Y-106577267D01*
X144712418Y-106577277D01*
X144685500Y-106712604D01*
X144685500Y-106712607D01*
X144685500Y-106850593D01*
X144685500Y-106850595D01*
X144685499Y-106850595D01*
X144712418Y-106985922D01*
X144712421Y-106985932D01*
X144765221Y-107113404D01*
X144765228Y-107113417D01*
X144841885Y-107228141D01*
X144841888Y-107228145D01*
X144939454Y-107325711D01*
X144939458Y-107325714D01*
X145054182Y-107402371D01*
X145054195Y-107402378D01*
X145147477Y-107441016D01*
X145187706Y-107467896D01*
X145814539Y-108094729D01*
X145814542Y-108094733D01*
X145901667Y-108181858D01*
X145967943Y-108226142D01*
X146004115Y-108250312D01*
X146065041Y-108275548D01*
X146117948Y-108297463D01*
X146143478Y-108302541D01*
X146238791Y-108321499D01*
X146238792Y-108321500D01*
X146238793Y-108321500D01*
X146238794Y-108321500D01*
X148560116Y-108321500D01*
X148627155Y-108341185D01*
X148672910Y-108393989D01*
X148677419Y-108405913D01*
X148731221Y-108535804D01*
X148731228Y-108535817D01*
X148802919Y-108643109D01*
X148823797Y-108709786D01*
X148805313Y-108777167D01*
X148802919Y-108780891D01*
X148731228Y-108888182D01*
X148731223Y-108888192D01*
X148692584Y-108981476D01*
X148687952Y-108988407D01*
X148686856Y-108993449D01*
X148665705Y-109021703D01*
X148621229Y-109066180D01*
X148559906Y-109099666D01*
X148533547Y-109102500D01*
X147665069Y-109102500D01*
X147617617Y-109093061D01*
X147524332Y-109054421D01*
X147524322Y-109054418D01*
X147388995Y-109027500D01*
X147388993Y-109027500D01*
X147251007Y-109027500D01*
X147251005Y-109027500D01*
X147115677Y-109054418D01*
X147115667Y-109054421D01*
X146988195Y-109107221D01*
X146988182Y-109107228D01*
X146873458Y-109183885D01*
X146873454Y-109183888D01*
X146775888Y-109281454D01*
X146775885Y-109281458D01*
X146699228Y-109396182D01*
X146699221Y-109396195D01*
X146646421Y-109523667D01*
X146646418Y-109523677D01*
X146619500Y-109659004D01*
X146619500Y-109659007D01*
X146619500Y-109796993D01*
X146619500Y-109796995D01*
X146619499Y-109796995D01*
X146646418Y-109932322D01*
X146646421Y-109932332D01*
X146699221Y-110059804D01*
X146699228Y-110059817D01*
X146775885Y-110174541D01*
X146775888Y-110174545D01*
X146873454Y-110272111D01*
X146873458Y-110272114D01*
X146988182Y-110348771D01*
X146988195Y-110348778D01*
X147062356Y-110379496D01*
X147115672Y-110401580D01*
X147115676Y-110401580D01*
X147115677Y-110401581D01*
X147251004Y-110428500D01*
X147251007Y-110428500D01*
X147388995Y-110428500D01*
X147480041Y-110410389D01*
X147524328Y-110401580D01*
X147577644Y-110379496D01*
X147617617Y-110362939D01*
X147665069Y-110353500D01*
X148905608Y-110353500D01*
X148905608Y-110353499D01*
X149000922Y-110334541D01*
X149026452Y-110329463D01*
X149063843Y-110313975D01*
X149140286Y-110282312D01*
X149191509Y-110248084D01*
X149242733Y-110213858D01*
X149329858Y-110126733D01*
X149329859Y-110126730D01*
X149465287Y-109991301D01*
X149526608Y-109957819D01*
X149596300Y-109962803D01*
X149640647Y-109991304D01*
X149667454Y-110018111D01*
X149667458Y-110018114D01*
X149782182Y-110094771D01*
X149782195Y-110094778D01*
X149909667Y-110147578D01*
X149909672Y-110147580D01*
X149909676Y-110147580D01*
X149909677Y-110147581D01*
X150045004Y-110174500D01*
X150045007Y-110174500D01*
X150182995Y-110174500D01*
X150274041Y-110156389D01*
X150318328Y-110147580D01*
X150416924Y-110106740D01*
X150445804Y-110094778D01*
X150445804Y-110094777D01*
X150445811Y-110094775D01*
X150560542Y-110018114D01*
X150658114Y-109920542D01*
X150734775Y-109805811D01*
X150787580Y-109678328D01*
X150804988Y-109590815D01*
X150814500Y-109542995D01*
X150814500Y-109405004D01*
X150787581Y-109269677D01*
X150787580Y-109269676D01*
X150787580Y-109269672D01*
X150781474Y-109254930D01*
X150748939Y-109176382D01*
X150739500Y-109128930D01*
X150739500Y-108904393D01*
X150739499Y-108904389D01*
X150736277Y-108888189D01*
X150715463Y-108783548D01*
X150691669Y-108726104D01*
X150668312Y-108669715D01*
X150637485Y-108623580D01*
X150599858Y-108567267D01*
X150560865Y-108528274D01*
X150556532Y-108522844D01*
X150545837Y-108496671D01*
X150532288Y-108471858D01*
X150532795Y-108464756D01*
X150530103Y-108458166D01*
X150535254Y-108430371D01*
X150537272Y-108402166D01*
X150541539Y-108396465D01*
X150542837Y-108389466D01*
X150562200Y-108368866D01*
X150579144Y-108346233D01*
X150585814Y-108343745D01*
X150590691Y-108338557D01*
X150618118Y-108331696D01*
X150644608Y-108321816D01*
X150653454Y-108321500D01*
X151546931Y-108321500D01*
X151594383Y-108330939D01*
X151685948Y-108368866D01*
X151687672Y-108369580D01*
X151687676Y-108369580D01*
X151687677Y-108369581D01*
X151823004Y-108396500D01*
X151895500Y-108396500D01*
X151962539Y-108416185D01*
X152008294Y-108468989D01*
X152019500Y-108520500D01*
X152019500Y-109254930D01*
X152010061Y-109302382D01*
X151971421Y-109395667D01*
X151971418Y-109395677D01*
X151944500Y-109531004D01*
X151944500Y-109531007D01*
X151944500Y-109668993D01*
X151946356Y-109678322D01*
X151954451Y-109719022D01*
X151948222Y-109788614D01*
X151920514Y-109830893D01*
X147153680Y-114597728D01*
X147092357Y-114631213D01*
X147022665Y-114626229D01*
X146978320Y-114597729D01*
X145011859Y-112631269D01*
X145011858Y-112631267D01*
X144924733Y-112544142D01*
X144868938Y-112506861D01*
X144837548Y-112485886D01*
X144822285Y-112475687D01*
X144767528Y-112453007D01*
X144741792Y-112442347D01*
X144708452Y-112428537D01*
X144648029Y-112416518D01*
X144643306Y-112415578D01*
X144643304Y-112415578D01*
X144587610Y-112404500D01*
X144587607Y-112404500D01*
X144587606Y-112404500D01*
X143470169Y-112404500D01*
X143422717Y-112395061D01*
X143329432Y-112356421D01*
X143329422Y-112356418D01*
X143194095Y-112329500D01*
X143194093Y-112329500D01*
X143056107Y-112329500D01*
X143056105Y-112329500D01*
X142920777Y-112356418D01*
X142920767Y-112356421D01*
X142793295Y-112409221D01*
X142793282Y-112409228D01*
X142678558Y-112485885D01*
X142678554Y-112485888D01*
X142580988Y-112583454D01*
X142580985Y-112583458D01*
X142504328Y-112698182D01*
X142504321Y-112698195D01*
X142451521Y-112825667D01*
X142451518Y-112825677D01*
X142424600Y-112961004D01*
X142424600Y-112961007D01*
X142424600Y-113098993D01*
X142424600Y-113098995D01*
X142424599Y-113098995D01*
X135753500Y-113098995D01*
X135753500Y-108295068D01*
X135762939Y-108247615D01*
X135801580Y-108154328D01*
X135813435Y-108094729D01*
X135828500Y-108018995D01*
X135828500Y-107881004D01*
X135801581Y-107745677D01*
X135801580Y-107745676D01*
X135801580Y-107745672D01*
X135801578Y-107745667D01*
X135748778Y-107618195D01*
X135748771Y-107618182D01*
X135672114Y-107503458D01*
X135672111Y-107503454D01*
X135574545Y-107405888D01*
X135574541Y-107405885D01*
X135459817Y-107329228D01*
X135459804Y-107329221D01*
X135332332Y-107276421D01*
X135332322Y-107276418D01*
X135196995Y-107249500D01*
X135196993Y-107249500D01*
X135059007Y-107249500D01*
X135059005Y-107249500D01*
X134923677Y-107276418D01*
X134923667Y-107276421D01*
X134796195Y-107329221D01*
X134796182Y-107329228D01*
X134681458Y-107405885D01*
X134681454Y-107405888D01*
X134583888Y-107503454D01*
X134583885Y-107503458D01*
X134507228Y-107618182D01*
X134507221Y-107618195D01*
X134454421Y-107745667D01*
X134454418Y-107745677D01*
X134427500Y-107881004D01*
X134427500Y-107950666D01*
X134407815Y-108017705D01*
X134355011Y-108063460D01*
X134350953Y-108065227D01*
X134288192Y-108091223D01*
X134288182Y-108091228D01*
X134173458Y-108167885D01*
X134173454Y-108167888D01*
X134075888Y-108265454D01*
X134075885Y-108265458D01*
X133999228Y-108380182D01*
X133999221Y-108380195D01*
X133946421Y-108507667D01*
X133946418Y-108507677D01*
X133919500Y-108643004D01*
X133919500Y-108712666D01*
X133899815Y-108779705D01*
X133847011Y-108825460D01*
X133842953Y-108827227D01*
X133780192Y-108853223D01*
X133780182Y-108853228D01*
X133665458Y-108929885D01*
X133665454Y-108929888D01*
X133567888Y-109027454D01*
X133567885Y-109027458D01*
X133491228Y-109142182D01*
X133491221Y-109142195D01*
X133438421Y-109269667D01*
X133438418Y-109269677D01*
X133411500Y-109405004D01*
X133411500Y-109405007D01*
X133411500Y-109542993D01*
X133411500Y-109542995D01*
X133411499Y-109542995D01*
X119751500Y-109542995D01*
X119751500Y-108803068D01*
X119760939Y-108755615D01*
X119773163Y-108726103D01*
X119799580Y-108662328D01*
X119816794Y-108575790D01*
X119826500Y-108526995D01*
X119826500Y-108389004D01*
X119799581Y-108253677D01*
X119799580Y-108253676D01*
X119799580Y-108253672D01*
X119769834Y-108181858D01*
X119746778Y-108126195D01*
X119746771Y-108126182D01*
X119670114Y-108011458D01*
X119670111Y-108011454D01*
X119572545Y-107913888D01*
X119572541Y-107913885D01*
X119457817Y-107837228D01*
X119457804Y-107837221D01*
X119330332Y-107784421D01*
X119330322Y-107784418D01*
X119194995Y-107757500D01*
X119194993Y-107757500D01*
X119057007Y-107757500D01*
X119057005Y-107757500D01*
X118921677Y-107784418D01*
X118921667Y-107784421D01*
X118794195Y-107837221D01*
X118794182Y-107837228D01*
X118679458Y-107913885D01*
X118623574Y-107969769D01*
X118562250Y-108003253D01*
X118492558Y-107998268D01*
X118436625Y-107956397D01*
X118413420Y-107901485D01*
X118411246Y-107887757D01*
X118345557Y-107685588D01*
X118249051Y-107496184D01*
X118249049Y-107496181D01*
X118249048Y-107496179D01*
X118124109Y-107324213D01*
X117973786Y-107173890D01*
X117801820Y-107048951D01*
X117801115Y-107048591D01*
X117793054Y-107044485D01*
X117742259Y-106996512D01*
X117725463Y-106928692D01*
X117747999Y-106862556D01*
X117793054Y-106823515D01*
X117801816Y-106819051D01*
X117823789Y-106803086D01*
X117973786Y-106694109D01*
X117973788Y-106694106D01*
X117973792Y-106694104D01*
X118124104Y-106543792D01*
X118124106Y-106543788D01*
X118124109Y-106543786D01*
X118249048Y-106371820D01*
X118249047Y-106371820D01*
X118249051Y-106371816D01*
X118345557Y-106182412D01*
X118411246Y-105980243D01*
X118444500Y-105770287D01*
X118444500Y-105557713D01*
X118411246Y-105347757D01*
X118345557Y-105145588D01*
X118249051Y-104956184D01*
X118249049Y-104956181D01*
X118249048Y-104956179D01*
X118124109Y-104784213D01*
X118010569Y-104670673D01*
X117977084Y-104609350D01*
X117982068Y-104539658D01*
X118023940Y-104483725D01*
X118054915Y-104466810D01*
X118186331Y-104417796D01*
X118301546Y-104331546D01*
X118387796Y-104216331D01*
X118438091Y-104081483D01*
X118444500Y-104021873D01*
X118444500Y-103751795D01*
X121727499Y-103751795D01*
X121754418Y-103887122D01*
X121754421Y-103887132D01*
X121807221Y-104014604D01*
X121807228Y-104014617D01*
X121883885Y-104129341D01*
X121883888Y-104129345D01*
X121981454Y-104226911D01*
X121981458Y-104226914D01*
X122096182Y-104303571D01*
X122096195Y-104303578D01*
X122166020Y-104332500D01*
X122223672Y-104356380D01*
X122223676Y-104356380D01*
X122223677Y-104356381D01*
X122359004Y-104383300D01*
X122359007Y-104383300D01*
X122496995Y-104383300D01*
X122588041Y-104365189D01*
X122632328Y-104356380D01*
X122754968Y-104305581D01*
X122759804Y-104303578D01*
X122759804Y-104303577D01*
X122759811Y-104303575D01*
X122874542Y-104226914D01*
X122972114Y-104129342D01*
X123048775Y-104014611D01*
X123087418Y-103921315D01*
X123114293Y-103881095D01*
X124682771Y-102312619D01*
X124744094Y-102279134D01*
X124770452Y-102276300D01*
X129577807Y-102276300D01*
X129638229Y-102264281D01*
X129698652Y-102252263D01*
X129734611Y-102237368D01*
X129812486Y-102205112D01*
X129888513Y-102154311D01*
X129914933Y-102136658D01*
X130002058Y-102049533D01*
X130002059Y-102049530D01*
X130802296Y-101249293D01*
X130842519Y-101222416D01*
X130935811Y-101183775D01*
X131050542Y-101107114D01*
X131148114Y-101009542D01*
X131224775Y-100894811D01*
X131277580Y-100767328D01*
X131290897Y-100700378D01*
X131304500Y-100631995D01*
X150683499Y-100631995D01*
X150710418Y-100767322D01*
X150710421Y-100767332D01*
X150763221Y-100894804D01*
X150763228Y-100894817D01*
X150839885Y-101009541D01*
X150839888Y-101009545D01*
X150937454Y-101107111D01*
X150937458Y-101107114D01*
X151052182Y-101183771D01*
X151052195Y-101183778D01*
X151168262Y-101231854D01*
X151179672Y-101236580D01*
X151179676Y-101236580D01*
X151179677Y-101236581D01*
X151315004Y-101263500D01*
X151315007Y-101263500D01*
X151452995Y-101263500D01*
X151544041Y-101245389D01*
X151588328Y-101236580D01*
X151715811Y-101183775D01*
X151815109Y-101117425D01*
X151881786Y-101096548D01*
X151949166Y-101115032D01*
X151952889Y-101117425D01*
X152052189Y-101183775D01*
X152052191Y-101183776D01*
X152052195Y-101183778D01*
X152168262Y-101231854D01*
X152179672Y-101236580D01*
X152179676Y-101236580D01*
X152179677Y-101236581D01*
X152315004Y-101263500D01*
X152315007Y-101263500D01*
X152452995Y-101263500D01*
X152544041Y-101245389D01*
X152588328Y-101236580D01*
X152715811Y-101183775D01*
X152830542Y-101107114D01*
X152928114Y-101009542D01*
X153004775Y-100894811D01*
X153043417Y-100801518D01*
X153070292Y-100761296D01*
X153480348Y-100351242D01*
X153541668Y-100317759D01*
X153611360Y-100322743D01*
X153667293Y-100364615D01*
X153691710Y-100430079D01*
X153689644Y-100463113D01*
X153683500Y-100494004D01*
X153683500Y-100494007D01*
X153683500Y-100631993D01*
X153683500Y-100631995D01*
X153683499Y-100631995D01*
X153710418Y-100767322D01*
X153710421Y-100767332D01*
X153763221Y-100894804D01*
X153763228Y-100894817D01*
X153839885Y-101009541D01*
X153839888Y-101009545D01*
X153937454Y-101107111D01*
X153937458Y-101107114D01*
X154052185Y-101183773D01*
X154052187Y-101183773D01*
X154052189Y-101183775D01*
X154145476Y-101222415D01*
X154185704Y-101249294D01*
X154935141Y-101998732D01*
X154935142Y-101998733D01*
X155022267Y-102085858D01*
X155106418Y-102142086D01*
X155124714Y-102154311D01*
X155238548Y-102201463D01*
X155359388Y-102225499D01*
X155359392Y-102225500D01*
X155359393Y-102225500D01*
X155359394Y-102225500D01*
X157072653Y-102225500D01*
X157139692Y-102245185D01*
X157185447Y-102297989D01*
X157195391Y-102367147D01*
X157194270Y-102373692D01*
X157169900Y-102496204D01*
X157169900Y-102496207D01*
X157169900Y-102634193D01*
X157169900Y-102634195D01*
X157169899Y-102634195D01*
X157196818Y-102769522D01*
X157196821Y-102769532D01*
X157249621Y-102897004D01*
X157249628Y-102897017D01*
X157326285Y-103011741D01*
X157326288Y-103011745D01*
X157423854Y-103109311D01*
X157423858Y-103109314D01*
X157538582Y-103185971D01*
X157538595Y-103185978D01*
X157659983Y-103236258D01*
X157666072Y-103238780D01*
X157708020Y-103247124D01*
X157734613Y-103252414D01*
X157796524Y-103284799D01*
X157831098Y-103345514D01*
X157827359Y-103415284D01*
X157824984Y-103421481D01*
X157822421Y-103427667D01*
X157822418Y-103427677D01*
X157795500Y-103563004D01*
X157795500Y-103563007D01*
X157795500Y-103700993D01*
X157795500Y-103700995D01*
X157795499Y-103700995D01*
X157822418Y-103836322D01*
X157822421Y-103836332D01*
X157875221Y-103963804D01*
X157875228Y-103963817D01*
X157951885Y-104078541D01*
X157951888Y-104078545D01*
X158049454Y-104176111D01*
X158049458Y-104176114D01*
X158164182Y-104252771D01*
X158164195Y-104252778D01*
X158263278Y-104293819D01*
X158291672Y-104305580D01*
X158291676Y-104305580D01*
X158291677Y-104305581D01*
X158427004Y-104332500D01*
X158427007Y-104332500D01*
X158564995Y-104332500D01*
X158656041Y-104314389D01*
X158700328Y-104305580D01*
X158771239Y-104276208D01*
X158793617Y-104266939D01*
X158841069Y-104257500D01*
X163374948Y-104257500D01*
X163441987Y-104277185D01*
X163462629Y-104293819D01*
X163702502Y-104533692D01*
X163729382Y-104573920D01*
X163768023Y-104667207D01*
X163768028Y-104667217D01*
X163844685Y-104781941D01*
X163844688Y-104781945D01*
X163942254Y-104879511D01*
X163942258Y-104879514D01*
X164056982Y-104956171D01*
X164056995Y-104956178D01*
X164184467Y-105008978D01*
X164184472Y-105008980D01*
X164184476Y-105008980D01*
X164184477Y-105008981D01*
X164319804Y-105035900D01*
X164319807Y-105035900D01*
X164457795Y-105035900D01*
X164548841Y-105017789D01*
X164593128Y-105008980D01*
X164691724Y-104968140D01*
X164720604Y-104956178D01*
X164720604Y-104956177D01*
X164720611Y-104956175D01*
X164835342Y-104879514D01*
X164932914Y-104781942D01*
X165009575Y-104667211D01*
X165062380Y-104539728D01*
X165076630Y-104468091D01*
X165089300Y-104404395D01*
X165089300Y-104266404D01*
X165062381Y-104131077D01*
X165062380Y-104131076D01*
X165062380Y-104131072D01*
X165040623Y-104078545D01*
X165009578Y-104003595D01*
X165009571Y-104003582D01*
X164932914Y-103888858D01*
X164932911Y-103888854D01*
X164835345Y-103791288D01*
X164835341Y-103791285D01*
X164720617Y-103714628D01*
X164720607Y-103714623D01*
X164627320Y-103675982D01*
X164587092Y-103649102D01*
X164178802Y-103240812D01*
X164171260Y-103233270D01*
X164171258Y-103233267D01*
X164084133Y-103146142D01*
X164024558Y-103106335D01*
X164018186Y-103102077D01*
X163981690Y-103077690D01*
X163981686Y-103077688D01*
X163901192Y-103044347D01*
X163867852Y-103030537D01*
X163807429Y-103018518D01*
X163802706Y-103017578D01*
X163802704Y-103017578D01*
X163747010Y-103006500D01*
X163747007Y-103006500D01*
X163747006Y-103006500D01*
X160559451Y-103006500D01*
X160492412Y-102986815D01*
X160446657Y-102934011D01*
X160436713Y-102864853D01*
X160465738Y-102801297D01*
X160471770Y-102794819D01*
X161129931Y-102136658D01*
X161818495Y-101448093D01*
X161858715Y-101421218D01*
X161952011Y-101382575D01*
X162066742Y-101305914D01*
X162164314Y-101208342D01*
X162240975Y-101093611D01*
X162293780Y-100966128D01*
X162309666Y-100886265D01*
X162320700Y-100830795D01*
X162320700Y-100692804D01*
X162293781Y-100557477D01*
X162293780Y-100557476D01*
X162293780Y-100557472D01*
X162266127Y-100490711D01*
X162240978Y-100429995D01*
X162240971Y-100429982D01*
X162164314Y-100315258D01*
X162164309Y-100315252D01*
X162066745Y-100217688D01*
X162066741Y-100217685D01*
X161952017Y-100141028D01*
X161952004Y-100141021D01*
X161824532Y-100088221D01*
X161824522Y-100088218D01*
X161689195Y-100061300D01*
X161689193Y-100061300D01*
X161551207Y-100061300D01*
X161551205Y-100061300D01*
X161415877Y-100088218D01*
X161415867Y-100088221D01*
X161288395Y-100141021D01*
X161288382Y-100141028D01*
X161173658Y-100217685D01*
X161173654Y-100217688D01*
X161076091Y-100315252D01*
X161076082Y-100315262D01*
X160999426Y-100429986D01*
X160999425Y-100429987D01*
X160960782Y-100523279D01*
X160933902Y-100563506D01*
X160414713Y-101082695D01*
X160353390Y-101116180D01*
X160283698Y-101111196D01*
X160239351Y-101082695D01*
X160212542Y-101055886D01*
X160212541Y-101055885D01*
X160212540Y-101055884D01*
X160097817Y-100979228D01*
X160097804Y-100979221D01*
X159970332Y-100926421D01*
X159970322Y-100926418D01*
X159834995Y-100899500D01*
X159834993Y-100899500D01*
X159697007Y-100899500D01*
X159697005Y-100899500D01*
X159561677Y-100926418D01*
X159561667Y-100926421D01*
X159468383Y-100965061D01*
X159420931Y-100974500D01*
X155731453Y-100974500D01*
X155664414Y-100954815D01*
X155643772Y-100938181D01*
X155110771Y-100405181D01*
X155077286Y-100343858D01*
X155082270Y-100274167D01*
X155124141Y-100218233D01*
X155189606Y-100193816D01*
X155198452Y-100193500D01*
X159674931Y-100193500D01*
X159722383Y-100202939D01*
X159790600Y-100231195D01*
X159815672Y-100241580D01*
X159815676Y-100241580D01*
X159815677Y-100241581D01*
X159951004Y-100268500D01*
X159951007Y-100268500D01*
X160088995Y-100268500D01*
X160180041Y-100250389D01*
X160224328Y-100241580D01*
X160351811Y-100188775D01*
X160466542Y-100112114D01*
X160564114Y-100014542D01*
X160640775Y-99899811D01*
X160693580Y-99772328D01*
X160720500Y-99636993D01*
X160720500Y-99499007D01*
X160720500Y-99499004D01*
X160693581Y-99363677D01*
X160693580Y-99363676D01*
X160693580Y-99363672D01*
X160643914Y-99243767D01*
X160640778Y-99236195D01*
X160640771Y-99236182D01*
X160564114Y-99121458D01*
X160564111Y-99121454D01*
X160488670Y-99046013D01*
X160455185Y-98984690D01*
X160454734Y-98934142D01*
X160466500Y-98874993D01*
X160466500Y-98737007D01*
X160466500Y-98737004D01*
X160439581Y-98601677D01*
X160439580Y-98601676D01*
X160439580Y-98601672D01*
X160435416Y-98591618D01*
X160386778Y-98474195D01*
X160386771Y-98474182D01*
X160310114Y-98359458D01*
X160310111Y-98359454D01*
X160212545Y-98261888D01*
X160212541Y-98261885D01*
X160097817Y-98185228D01*
X160097804Y-98185221D01*
X159970332Y-98132421D01*
X159970322Y-98132418D01*
X159834995Y-98105500D01*
X159834993Y-98105500D01*
X159697007Y-98105500D01*
X159697005Y-98105500D01*
X159561677Y-98132418D01*
X159561667Y-98132421D01*
X159468383Y-98171061D01*
X159420931Y-98180500D01*
X153079389Y-98180500D01*
X153018971Y-98192518D01*
X152975743Y-98201116D01*
X152958546Y-98204537D01*
X152844716Y-98251687D01*
X152844707Y-98251692D01*
X152742268Y-98320140D01*
X152702955Y-98359454D01*
X152655142Y-98407267D01*
X152655139Y-98407270D01*
X151185706Y-99876702D01*
X151145479Y-99903582D01*
X151052187Y-99942225D01*
X151052186Y-99942226D01*
X150937462Y-100018882D01*
X150937454Y-100018888D01*
X150839888Y-100116454D01*
X150839885Y-100116458D01*
X150763228Y-100231182D01*
X150763221Y-100231195D01*
X150710421Y-100358667D01*
X150710418Y-100358677D01*
X150683500Y-100494004D01*
X150683500Y-100494007D01*
X150683500Y-100631993D01*
X150683500Y-100631995D01*
X150683499Y-100631995D01*
X131304500Y-100631995D01*
X131304500Y-100494004D01*
X131277581Y-100358677D01*
X131277580Y-100358676D01*
X131277580Y-100358672D01*
X131271444Y-100343858D01*
X131224778Y-100231195D01*
X131224771Y-100231182D01*
X131148114Y-100116458D01*
X131148111Y-100116454D01*
X131050545Y-100018888D01*
X131050541Y-100018885D01*
X130935817Y-99942228D01*
X130935804Y-99942221D01*
X130808332Y-99889421D01*
X130808322Y-99889418D01*
X130672995Y-99862500D01*
X130672993Y-99862500D01*
X130535007Y-99862500D01*
X130535005Y-99862500D01*
X130399677Y-99889418D01*
X130399667Y-99889421D01*
X130272195Y-99942221D01*
X130272182Y-99942228D01*
X130157458Y-100018885D01*
X130157454Y-100018888D01*
X130059888Y-100116454D01*
X130059882Y-100116462D01*
X129983226Y-100231186D01*
X129983225Y-100231187D01*
X129944583Y-100324477D01*
X129917703Y-100364704D01*
X129293429Y-100988981D01*
X129232106Y-101022466D01*
X129205748Y-101025300D01*
X126042358Y-101025300D01*
X125975319Y-101005615D01*
X125929564Y-100952811D01*
X125919620Y-100883653D01*
X125939256Y-100832409D01*
X125971348Y-100784380D01*
X125997858Y-100744705D01*
X126063855Y-100585374D01*
X126097500Y-100416229D01*
X126097500Y-100243771D01*
X126097500Y-100243768D01*
X126097499Y-100243766D01*
X126086561Y-100188778D01*
X126063855Y-100074626D01*
X126040767Y-100018886D01*
X125997861Y-99915301D01*
X125997854Y-99915288D01*
X125902045Y-99771901D01*
X125902042Y-99771897D01*
X125879819Y-99749674D01*
X125846334Y-99688351D01*
X125843500Y-99661993D01*
X125843500Y-93385766D01*
X139586500Y-93385766D01*
X139586500Y-93558233D01*
X139620143Y-93727366D01*
X139620146Y-93727378D01*
X139686138Y-93886698D01*
X139686145Y-93886711D01*
X139781953Y-94030097D01*
X139781954Y-94030098D01*
X139781955Y-94030099D01*
X139804181Y-94052325D01*
X139837666Y-94113646D01*
X139840500Y-94140006D01*
X139840500Y-96352233D01*
X139874143Y-96521366D01*
X139874146Y-96521378D01*
X139940138Y-96680698D01*
X139940145Y-96680711D01*
X140035954Y-96824098D01*
X140035957Y-96824102D01*
X140157897Y-96946042D01*
X140157901Y-96946045D01*
X140301288Y-97041854D01*
X140301301Y-97041861D01*
X140460621Y-97107853D01*
X140460626Y-97107855D01*
X140629766Y-97141499D01*
X140629769Y-97141500D01*
X140629771Y-97141500D01*
X140802231Y-97141500D01*
X140802232Y-97141499D01*
X140971374Y-97107855D01*
X141130705Y-97041858D01*
X141274099Y-96946045D01*
X141396045Y-96824099D01*
X141491858Y-96680705D01*
X141557855Y-96521374D01*
X141591500Y-96352229D01*
X141591500Y-93639771D01*
X141591500Y-93639768D01*
X141591499Y-93639766D01*
X141557855Y-93470626D01*
X141522705Y-93385766D01*
X141491861Y-93311301D01*
X141491854Y-93311288D01*
X141419336Y-93202758D01*
X141419335Y-93202757D01*
X141396045Y-93167901D01*
X141359910Y-93131766D01*
X143142500Y-93131766D01*
X143142500Y-96098233D01*
X143176143Y-96267366D01*
X143176146Y-96267378D01*
X143242138Y-96426698D01*
X143242145Y-96426711D01*
X143337954Y-96570098D01*
X143337957Y-96570102D01*
X143713897Y-96946042D01*
X143713901Y-96946045D01*
X143857288Y-97041854D01*
X143857301Y-97041861D01*
X144016621Y-97107853D01*
X144016626Y-97107855D01*
X144185766Y-97141499D01*
X144185769Y-97141500D01*
X144185771Y-97141500D01*
X144358231Y-97141500D01*
X144358232Y-97141499D01*
X144527374Y-97107855D01*
X144686705Y-97041858D01*
X144830099Y-96946045D01*
X144952045Y-96824099D01*
X145047858Y-96680705D01*
X145113855Y-96521374D01*
X145147500Y-96352229D01*
X145147500Y-96179771D01*
X145147500Y-96179768D01*
X145147499Y-96179766D01*
X145113856Y-96010633D01*
X145113855Y-96010626D01*
X145078707Y-95925771D01*
X145047861Y-95851301D01*
X145047854Y-95851288D01*
X144952045Y-95707901D01*
X144952042Y-95707897D01*
X144929819Y-95685674D01*
X144896334Y-95624351D01*
X144893500Y-95597993D01*
X144893500Y-93131768D01*
X144893499Y-93131766D01*
X144876098Y-93044286D01*
X144859855Y-92962626D01*
X144840901Y-92916867D01*
X144793861Y-92803301D01*
X144793854Y-92803288D01*
X144698045Y-92659901D01*
X144698042Y-92659897D01*
X144576102Y-92537957D01*
X144576098Y-92537954D01*
X144432711Y-92442145D01*
X144432698Y-92442138D01*
X144273378Y-92376146D01*
X144273366Y-92376143D01*
X144104232Y-92342500D01*
X144104229Y-92342500D01*
X143931771Y-92342500D01*
X143931768Y-92342500D01*
X143762633Y-92376143D01*
X143762621Y-92376146D01*
X143603301Y-92442138D01*
X143603288Y-92442145D01*
X143459901Y-92537954D01*
X143459897Y-92537957D01*
X143337957Y-92659897D01*
X143337954Y-92659901D01*
X143242145Y-92803288D01*
X143242138Y-92803301D01*
X143176146Y-92962621D01*
X143176143Y-92962633D01*
X143142500Y-93131766D01*
X141359910Y-93131766D01*
X141274099Y-93045955D01*
X141157357Y-92929213D01*
X141020102Y-92791957D01*
X141020098Y-92791954D01*
X140876711Y-92696145D01*
X140876698Y-92696138D01*
X140717378Y-92630146D01*
X140717366Y-92630143D01*
X140548232Y-92596500D01*
X140548229Y-92596500D01*
X140375771Y-92596500D01*
X140375768Y-92596500D01*
X140206633Y-92630143D01*
X140206621Y-92630146D01*
X140047301Y-92696138D01*
X140047288Y-92696145D01*
X139903901Y-92791954D01*
X139903897Y-92791957D01*
X139781957Y-92913897D01*
X139781954Y-92913901D01*
X139686145Y-93057288D01*
X139686138Y-93057301D01*
X139620146Y-93216621D01*
X139620143Y-93216633D01*
X139586500Y-93385766D01*
X125843500Y-93385766D01*
X125843500Y-89321768D01*
X125843499Y-89321766D01*
X125809856Y-89152633D01*
X125809855Y-89152626D01*
X125809853Y-89152621D01*
X125743861Y-88993301D01*
X125743854Y-88993288D01*
X125648045Y-88849901D01*
X125648042Y-88849897D01*
X125526102Y-88727957D01*
X125526098Y-88727954D01*
X125382711Y-88632145D01*
X125382698Y-88632138D01*
X125223378Y-88566146D01*
X125223366Y-88566143D01*
X125054232Y-88532500D01*
X125054229Y-88532500D01*
X124881771Y-88532500D01*
X124881768Y-88532500D01*
X124712633Y-88566143D01*
X124712621Y-88566146D01*
X124553301Y-88632138D01*
X124553288Y-88632145D01*
X124409901Y-88727954D01*
X124409897Y-88727957D01*
X124287957Y-88849897D01*
X124287954Y-88849901D01*
X124192145Y-88993288D01*
X124192138Y-88993301D01*
X124126146Y-89152621D01*
X124126143Y-89152633D01*
X124092500Y-89321766D01*
X124092500Y-100162233D01*
X124126143Y-100331366D01*
X124126146Y-100331378D01*
X124192138Y-100490698D01*
X124192145Y-100490711D01*
X124287954Y-100634098D01*
X124287957Y-100634102D01*
X124468595Y-100814740D01*
X124473497Y-100823717D01*
X124481568Y-100830001D01*
X124489957Y-100853862D01*
X124502080Y-100876063D01*
X124501350Y-100886265D01*
X124504743Y-100895915D01*
X124498900Y-100920523D01*
X124497096Y-100945755D01*
X124490965Y-100953944D01*
X124488603Y-100963895D01*
X124470382Y-100981439D01*
X124455224Y-101001688D01*
X124444301Y-101006551D01*
X124438273Y-101012357D01*
X124417062Y-101018681D01*
X124404977Y-101024064D01*
X124398728Y-101025300D01*
X124398393Y-101025300D01*
X124337971Y-101037318D01*
X124277548Y-101049337D01*
X124277547Y-101049337D01*
X124277544Y-101049338D01*
X124256428Y-101058085D01*
X124163719Y-101096486D01*
X124163711Y-101096490D01*
X124147816Y-101107111D01*
X124138190Y-101113543D01*
X124138189Y-101113544D01*
X124138188Y-101113543D01*
X124061266Y-101164942D01*
X124061265Y-101164943D01*
X124017868Y-101208341D01*
X123974142Y-101252067D01*
X123974139Y-101252070D01*
X122229706Y-102996502D01*
X122189479Y-103023382D01*
X122096187Y-103062025D01*
X122096186Y-103062026D01*
X121981462Y-103138682D01*
X121981454Y-103138688D01*
X121883888Y-103236254D01*
X121883885Y-103236258D01*
X121807228Y-103350982D01*
X121807221Y-103350995D01*
X121754421Y-103478467D01*
X121754418Y-103478477D01*
X121727500Y-103613804D01*
X121727500Y-103613807D01*
X121727500Y-103751793D01*
X121727500Y-103751795D01*
X121727499Y-103751795D01*
X118444500Y-103751795D01*
X118444499Y-103109314D01*
X118444499Y-102226129D01*
X118444498Y-102226123D01*
X118444497Y-102226116D01*
X118438091Y-102166517D01*
X118435494Y-102159555D01*
X118387797Y-102031671D01*
X118387793Y-102031664D01*
X118301547Y-101916455D01*
X118301544Y-101916452D01*
X118186335Y-101830206D01*
X118186328Y-101830202D01*
X118051482Y-101779908D01*
X118051483Y-101779908D01*
X117991883Y-101773501D01*
X117991881Y-101773500D01*
X117991873Y-101773500D01*
X117991864Y-101773500D01*
X116196129Y-101773500D01*
X116196123Y-101773501D01*
X116136516Y-101779908D01*
X116001671Y-101830202D01*
X116001664Y-101830206D01*
X115886455Y-101916452D01*
X115886452Y-101916455D01*
X115800206Y-102031664D01*
X115800202Y-102031671D01*
X115749908Y-102166517D01*
X115743567Y-102225500D01*
X115743501Y-102226123D01*
X115743500Y-102226135D01*
X115743500Y-104021870D01*
X115743501Y-104021876D01*
X115749908Y-104081483D01*
X115800202Y-104216328D01*
X115800206Y-104216335D01*
X115886452Y-104331544D01*
X115886455Y-104331547D01*
X116001664Y-104417793D01*
X116001671Y-104417797D01*
X116133082Y-104466810D01*
X116189016Y-104508681D01*
X116213433Y-104574145D01*
X116198582Y-104642418D01*
X116177431Y-104670673D01*
X116063889Y-104784215D01*
X115938951Y-104956179D01*
X115842444Y-105145585D01*
X115776753Y-105347760D01*
X115757038Y-105472239D01*
X115743500Y-105557713D01*
X115743500Y-105770287D01*
X115776754Y-105980243D01*
X115827326Y-106135888D01*
X115842444Y-106182414D01*
X115938951Y-106371820D01*
X116063890Y-106543786D01*
X116214213Y-106694109D01*
X116386182Y-106819050D01*
X116394946Y-106823516D01*
X116445742Y-106871491D01*
X116462536Y-106939312D01*
X116439998Y-107005447D01*
X116394946Y-107044484D01*
X116386182Y-107048949D01*
X116214213Y-107173890D01*
X116063890Y-107324213D01*
X115938951Y-107496179D01*
X115842444Y-107685585D01*
X115776753Y-107887760D01*
X115743500Y-108097713D01*
X115743500Y-108310286D01*
X115774763Y-108507677D01*
X115776754Y-108520243D01*
X115839276Y-108712666D01*
X115842444Y-108722414D01*
X115938951Y-108911820D01*
X116063890Y-109083786D01*
X116214213Y-109234109D01*
X116386182Y-109359050D01*
X116394946Y-109363516D01*
X116445742Y-109411491D01*
X116462536Y-109479312D01*
X116439998Y-109545447D01*
X116394946Y-109584484D01*
X116386182Y-109588949D01*
X116214213Y-109713890D01*
X116063890Y-109864213D01*
X115938951Y-110036179D01*
X115842444Y-110225585D01*
X115776753Y-110427760D01*
X115743500Y-110637713D01*
X115743500Y-110850286D01*
X115761741Y-110965459D01*
X115776754Y-111060243D01*
X115786835Y-111091270D01*
X115842444Y-111262414D01*
X115938951Y-111451820D01*
X116063890Y-111623786D01*
X116214213Y-111774109D01*
X116386182Y-111899050D01*
X116394946Y-111903516D01*
X116445742Y-111951491D01*
X116462536Y-112019312D01*
X116439998Y-112085447D01*
X116394946Y-112124484D01*
X116386182Y-112128949D01*
X116214213Y-112253890D01*
X116063890Y-112404213D01*
X115938951Y-112576179D01*
X115842444Y-112765585D01*
X115776753Y-112967760D01*
X115743500Y-113177713D01*
X115743500Y-113390286D01*
X115772615Y-113574114D01*
X115776754Y-113600243D01*
X115822920Y-113742328D01*
X115842444Y-113802414D01*
X115938951Y-113991820D01*
X116063890Y-114163786D01*
X116214213Y-114314109D01*
X116386182Y-114439050D01*
X116394946Y-114443516D01*
X116445742Y-114491491D01*
X116462536Y-114559312D01*
X116439998Y-114625447D01*
X116394946Y-114664484D01*
X116386182Y-114668949D01*
X116214213Y-114793890D01*
X116063890Y-114944213D01*
X115938951Y-115116179D01*
X115842444Y-115305585D01*
X115776753Y-115507760D01*
X115750820Y-115671499D01*
X115743500Y-115717713D01*
X115743500Y-115930287D01*
X115746353Y-115948299D01*
X115772615Y-116114114D01*
X115776754Y-116140243D01*
X115825197Y-116289336D01*
X115842444Y-116342414D01*
X115938951Y-116531820D01*
X116063890Y-116703786D01*
X116214213Y-116854109D01*
X116386179Y-116979048D01*
X116386181Y-116979049D01*
X116386184Y-116979051D01*
X116575588Y-117075557D01*
X116777757Y-117141246D01*
X116815700Y-117147255D01*
X116829103Y-117153609D01*
X116843853Y-117155208D01*
X116860037Y-117168273D01*
X116878832Y-117177183D01*
X116887602Y-117190526D01*
X116898218Y-117199096D01*
X116907287Y-117220474D01*
X116913989Y-117230671D01*
X116916417Y-117237989D01*
X116928420Y-117298328D01*
X116968774Y-117395753D01*
X116970188Y-117400011D01*
X116970497Y-117408891D01*
X116976500Y-117439068D01*
X116976500Y-119085547D01*
X116956815Y-119152586D01*
X116940181Y-119173228D01*
X116149706Y-119963702D01*
X116109479Y-119990582D01*
X116016187Y-120029225D01*
X116016186Y-120029226D01*
X115901462Y-120105882D01*
X115901454Y-120105888D01*
X115803888Y-120203454D01*
X115803885Y-120203458D01*
X115727228Y-120318182D01*
X115727221Y-120318195D01*
X115674421Y-120445667D01*
X115674418Y-120445677D01*
X115647500Y-120581004D01*
X115647500Y-120581007D01*
X115647500Y-120718993D01*
X115647500Y-120718995D01*
X115647499Y-120718995D01*
X115239585Y-120718995D01*
X115473812Y-90972135D01*
X115791500Y-90972135D01*
X115791500Y-92417870D01*
X115791501Y-92417876D01*
X115797908Y-92477483D01*
X115848202Y-92612328D01*
X115848206Y-92612335D01*
X115934452Y-92727544D01*
X115934453Y-92727544D01*
X115934454Y-92727546D01*
X115985740Y-92765939D01*
X116019539Y-92791241D01*
X116061409Y-92847175D01*
X116066393Y-92916867D01*
X116045545Y-92963392D01*
X115961624Y-93078900D01*
X115877620Y-93243764D01*
X115877619Y-93243767D01*
X115820445Y-93419734D01*
X115791500Y-93602486D01*
X115791500Y-93787513D01*
X115820445Y-93970265D01*
X115877619Y-94146232D01*
X115877620Y-94146235D01*
X115961622Y-94311096D01*
X116070379Y-94460787D01*
X116201213Y-94591621D01*
X116201216Y-94591623D01*
X116275831Y-94645834D01*
X116290806Y-94665254D01*
X116920554Y-95295000D01*
X116914339Y-95295000D01*
X116812606Y-95322259D01*
X116721394Y-95374920D01*
X116646920Y-95449394D01*
X116594259Y-95540606D01*
X116567000Y-95642339D01*
X116567000Y-95648553D01*
X115977015Y-95058568D01*
X115962049Y-95079167D01*
X115878084Y-95243956D01*
X115878083Y-95243959D01*
X115820933Y-95419852D01*
X115792000Y-95602526D01*
X115792000Y-95787469D01*
X115791999Y-95787471D01*
X115820933Y-95970147D01*
X115878083Y-96146040D01*
X115878084Y-96146043D01*
X115962050Y-96310834D01*
X115977015Y-96331430D01*
X115977016Y-96331431D01*
X116567000Y-95741447D01*
X116567000Y-95747661D01*
X116594259Y-95849394D01*
X116646920Y-95940606D01*
X116721394Y-96015080D01*
X116812606Y-96067741D01*
X116914339Y-96095000D01*
X116920553Y-96095000D01*
X116306355Y-96709196D01*
X116275833Y-96744163D01*
X116201213Y-96798378D01*
X116070381Y-96929210D01*
X116070381Y-96929211D01*
X116070379Y-96929213D01*
X116058152Y-96946042D01*
X115961622Y-97078903D01*
X115877620Y-97243764D01*
X115877619Y-97243767D01*
X115820445Y-97419734D01*
X115791500Y-97602486D01*
X115791500Y-97787513D01*
X115820445Y-97970265D01*
X115877619Y-98146232D01*
X115877620Y-98146235D01*
X115936548Y-98261886D01*
X115961622Y-98311096D01*
X116070379Y-98460787D01*
X116201213Y-98591621D01*
X116205421Y-98594678D01*
X116205432Y-98594686D01*
X116248094Y-98650019D01*
X116254069Y-98719633D01*
X116221459Y-98781426D01*
X116205432Y-98795314D01*
X116201210Y-98798381D01*
X116070381Y-98929210D01*
X116070381Y-98929211D01*
X116070379Y-98929213D01*
X116066801Y-98934138D01*
X115961622Y-99078903D01*
X115877620Y-99243764D01*
X115877619Y-99243767D01*
X115820445Y-99419734D01*
X115791500Y-99602486D01*
X115791500Y-99787513D01*
X115820445Y-99970265D01*
X115877619Y-100146232D01*
X115877620Y-100146235D01*
X115961622Y-100311096D01*
X116070379Y-100460787D01*
X116201213Y-100591621D01*
X116350904Y-100700378D01*
X116431763Y-100741577D01*
X116515764Y-100784379D01*
X116515767Y-100784380D01*
X116568529Y-100801523D01*
X116691736Y-100841555D01*
X116874486Y-100870500D01*
X116874487Y-100870500D01*
X117059513Y-100870500D01*
X117059514Y-100870500D01*
X117242264Y-100841555D01*
X117418235Y-100784379D01*
X117583096Y-100700378D01*
X117732787Y-100591621D01*
X117863621Y-100460787D01*
X117972378Y-100311096D01*
X118056379Y-100146235D01*
X118113555Y-99970264D01*
X118142500Y-99787514D01*
X118142500Y-99602486D01*
X118113555Y-99419736D01*
X118056379Y-99243765D01*
X118056379Y-99243764D01*
X117972377Y-99078903D01*
X117948481Y-99046013D01*
X117863621Y-98929213D01*
X117732787Y-98798379D01*
X117728576Y-98795319D01*
X117685909Y-98739994D01*
X117679926Y-98670381D01*
X117712529Y-98608585D01*
X117728570Y-98594684D01*
X117732787Y-98591621D01*
X117863621Y-98460787D01*
X117972378Y-98311096D01*
X118056379Y-98146235D01*
X118113555Y-97970264D01*
X118142500Y-97787514D01*
X118142500Y-97602486D01*
X118113555Y-97419736D01*
X118056379Y-97243765D01*
X118056379Y-97243764D01*
X118004272Y-97141499D01*
X117972378Y-97078904D01*
X117863621Y-96929213D01*
X117732787Y-96798379D01*
X117732786Y-96798378D01*
X117658165Y-96744162D01*
X117643190Y-96724742D01*
X117013448Y-96095000D01*
X117019661Y-96095000D01*
X117121394Y-96067741D01*
X117212606Y-96015080D01*
X117287080Y-95940606D01*
X117339741Y-95849394D01*
X117367000Y-95747661D01*
X117367000Y-95741447D01*
X117956983Y-96331430D01*
X117956984Y-96331430D01*
X117971942Y-96310845D01*
X117971947Y-96310836D01*
X118055915Y-96146043D01*
X118055916Y-96146040D01*
X118113066Y-95970147D01*
X118142000Y-95787471D01*
X118142000Y-95602526D01*
X118113066Y-95419852D01*
X118055916Y-95243959D01*
X118055915Y-95243956D01*
X117971949Y-95079165D01*
X117956983Y-95058568D01*
X117367000Y-95648551D01*
X117367000Y-95642339D01*
X117339741Y-95540606D01*
X117287080Y-95449394D01*
X117212606Y-95374920D01*
X117121394Y-95322259D01*
X117019661Y-95295000D01*
X117013447Y-95295000D01*
X117627675Y-94680771D01*
X117658165Y-94645836D01*
X117732787Y-94591621D01*
X117863621Y-94460787D01*
X117972378Y-94311096D01*
X118056379Y-94146235D01*
X118113555Y-93970264D01*
X118142500Y-93787514D01*
X118142500Y-93602486D01*
X118113555Y-93419736D01*
X118056379Y-93243765D01*
X118056379Y-93243764D01*
X117999315Y-93131771D01*
X117972378Y-93078904D01*
X117888453Y-92963392D01*
X117864974Y-92897586D01*
X117880799Y-92829532D01*
X117914459Y-92791241D01*
X117999546Y-92727546D01*
X118085796Y-92612331D01*
X118136091Y-92477483D01*
X118142500Y-92417873D01*
X118142499Y-90972128D01*
X118136091Y-90912517D01*
X118085796Y-90777669D01*
X118085795Y-90777668D01*
X118085793Y-90777664D01*
X117999547Y-90662455D01*
X117999544Y-90662452D01*
X117884335Y-90576206D01*
X117884328Y-90576202D01*
X117749482Y-90525908D01*
X117749483Y-90525908D01*
X117689883Y-90519501D01*
X117689881Y-90519500D01*
X117689873Y-90519500D01*
X117689864Y-90519500D01*
X116244129Y-90519500D01*
X116244123Y-90519501D01*
X116184516Y-90525908D01*
X116049671Y-90576202D01*
X116049664Y-90576206D01*
X115934455Y-90662452D01*
X115934452Y-90662455D01*
X115848206Y-90777664D01*
X115848202Y-90777671D01*
X115797908Y-90912517D01*
X115791962Y-90967830D01*
X115791501Y-90972123D01*
X115791500Y-90972135D01*
X115473812Y-90972135D01*
X115574807Y-78145766D01*
X131204500Y-78145766D01*
X131204500Y-78318233D01*
X131238143Y-78487366D01*
X131238146Y-78487378D01*
X131304138Y-78646698D01*
X131304145Y-78646711D01*
X131399954Y-78790098D01*
X131399957Y-78790102D01*
X131521897Y-78912042D01*
X131521901Y-78912045D01*
X131665288Y-79007854D01*
X131665301Y-79007861D01*
X131824621Y-79073853D01*
X131824626Y-79073855D01*
X131993766Y-79107499D01*
X131993769Y-79107500D01*
X131993771Y-79107500D01*
X132244371Y-79107500D01*
X132311410Y-79127185D01*
X132357165Y-79179989D01*
X132367109Y-79249147D01*
X132347473Y-79300391D01*
X132320145Y-79341289D01*
X132320138Y-79341301D01*
X132254146Y-79500621D01*
X132254143Y-79500633D01*
X132220500Y-79669766D01*
X132220500Y-83151993D01*
X132200815Y-83219032D01*
X132184181Y-83239674D01*
X131399957Y-84023897D01*
X131399954Y-84023901D01*
X131304145Y-84167288D01*
X131304138Y-84167301D01*
X131238146Y-84326621D01*
X131238143Y-84326633D01*
X131204500Y-84495766D01*
X131204500Y-84668233D01*
X131238143Y-84837366D01*
X131238146Y-84837378D01*
X131304138Y-84996698D01*
X131304145Y-84996711D01*
X131399954Y-85140098D01*
X131399957Y-85140102D01*
X131521897Y-85262042D01*
X131521901Y-85262045D01*
X131665288Y-85357854D01*
X131665301Y-85357861D01*
X131824621Y-85423853D01*
X131824626Y-85423855D01*
X131993766Y-85457499D01*
X131993769Y-85457500D01*
X131993771Y-85457500D01*
X132166231Y-85457500D01*
X132166232Y-85457499D01*
X132335374Y-85423855D01*
X132494705Y-85357858D01*
X132638099Y-85262045D01*
X133776045Y-84124099D01*
X133871858Y-83980705D01*
X133937855Y-83821374D01*
X133971500Y-83652229D01*
X133971500Y-83479771D01*
X133971500Y-79669771D01*
X133971500Y-79669768D01*
X133971499Y-79669766D01*
X133937856Y-79500633D01*
X133937855Y-79500626D01*
X133917673Y-79451902D01*
X133871861Y-79341301D01*
X133871859Y-79341297D01*
X133871858Y-79341295D01*
X133844527Y-79300391D01*
X133823649Y-79233714D01*
X133842133Y-79166334D01*
X133894112Y-79119643D01*
X133947629Y-79107500D01*
X141317994Y-79107500D01*
X141347434Y-79116144D01*
X141377421Y-79122668D01*
X141382436Y-79126422D01*
X141385033Y-79127185D01*
X141405675Y-79143819D01*
X141582181Y-79320325D01*
X141615666Y-79381648D01*
X141618500Y-79408006D01*
X141618500Y-85176233D01*
X141652143Y-85345366D01*
X141652146Y-85345378D01*
X141718138Y-85504698D01*
X141718145Y-85504711D01*
X141813954Y-85648098D01*
X141813957Y-85648102D01*
X141935897Y-85770042D01*
X141935901Y-85770045D01*
X142079288Y-85865854D01*
X142079301Y-85865861D01*
X142238621Y-85931853D01*
X142238626Y-85931855D01*
X142407766Y-85965499D01*
X142407769Y-85965500D01*
X142407771Y-85965500D01*
X142580231Y-85965500D01*
X142580232Y-85965499D01*
X142749374Y-85931855D01*
X142908705Y-85865858D01*
X143052099Y-85770045D01*
X143174045Y-85648099D01*
X143269858Y-85504705D01*
X143335855Y-85345374D01*
X143369500Y-85176229D01*
X143369500Y-84495766D01*
X149238500Y-84495766D01*
X149238500Y-84668233D01*
X149272143Y-84837366D01*
X149272146Y-84837378D01*
X149338138Y-84996698D01*
X149338145Y-84996711D01*
X149433954Y-85140098D01*
X149433957Y-85140102D01*
X149555897Y-85262042D01*
X149555901Y-85262045D01*
X149699288Y-85357854D01*
X149699301Y-85357861D01*
X149858621Y-85423853D01*
X149858626Y-85423855D01*
X150027766Y-85457499D01*
X150027769Y-85457500D01*
X150027771Y-85457500D01*
X150200231Y-85457500D01*
X150200232Y-85457499D01*
X150369374Y-85423855D01*
X150528705Y-85357858D01*
X150672099Y-85262045D01*
X152318045Y-83616099D01*
X152413858Y-83472705D01*
X152479855Y-83313374D01*
X152513500Y-83144229D01*
X152513500Y-82971771D01*
X152513500Y-80213275D01*
X152533185Y-80146236D01*
X152585989Y-80100481D01*
X152655147Y-80090537D01*
X152661679Y-80091655D01*
X152706047Y-80100481D01*
X152821768Y-80123500D01*
X152821771Y-80123500D01*
X160621994Y-80123500D01*
X160651434Y-80132144D01*
X160681421Y-80138668D01*
X160686436Y-80142422D01*
X160689033Y-80143185D01*
X160709675Y-80159819D01*
X160886181Y-80336325D01*
X160919666Y-80397648D01*
X160922500Y-80424006D01*
X160922500Y-82643994D01*
X160902815Y-82711033D01*
X160886181Y-82731675D01*
X160201675Y-83416181D01*
X160140352Y-83449666D01*
X160113994Y-83452500D01*
X158155768Y-83452500D01*
X157986633Y-83486143D01*
X157986621Y-83486146D01*
X157827301Y-83552138D01*
X157827288Y-83552145D01*
X157683901Y-83647954D01*
X157683897Y-83647957D01*
X157561957Y-83769897D01*
X157561954Y-83769901D01*
X157466145Y-83913288D01*
X157466138Y-83913301D01*
X157400146Y-84072621D01*
X157400143Y-84072633D01*
X157366500Y-84241766D01*
X157366500Y-84414233D01*
X157400143Y-84583366D01*
X157400146Y-84583378D01*
X157466138Y-84742698D01*
X157466145Y-84742711D01*
X157561954Y-84886098D01*
X157561957Y-84886102D01*
X157683897Y-85008042D01*
X157683901Y-85008045D01*
X157827288Y-85103854D01*
X157827301Y-85103861D01*
X157986621Y-85169853D01*
X157986626Y-85169855D01*
X158155766Y-85203499D01*
X158155769Y-85203500D01*
X158155771Y-85203500D01*
X160614231Y-85203500D01*
X160614232Y-85203499D01*
X160783374Y-85169855D01*
X160942705Y-85103858D01*
X161086099Y-85008045D01*
X162478045Y-83616099D01*
X162573858Y-83472705D01*
X162639855Y-83313374D01*
X162673500Y-83144229D01*
X162673500Y-82971771D01*
X162673500Y-79923771D01*
X162673500Y-79923768D01*
X162673499Y-79923766D01*
X162639856Y-79754633D01*
X162639855Y-79754626D01*
X162604705Y-79669766D01*
X162573861Y-79595301D01*
X162573854Y-79595288D01*
X162478046Y-79451902D01*
X162434150Y-79408006D01*
X162356099Y-79329955D01*
X162033998Y-79007854D01*
X161594102Y-78567957D01*
X161594098Y-78567954D01*
X161450711Y-78472145D01*
X161450698Y-78472138D01*
X161291378Y-78406146D01*
X161291366Y-78406143D01*
X161122232Y-78372500D01*
X161122229Y-78372500D01*
X152821771Y-78372500D01*
X152821768Y-78372500D01*
X152646651Y-78407333D01*
X152646373Y-78405936D01*
X152583650Y-78406487D01*
X152524543Y-78369231D01*
X152495922Y-78311399D01*
X152479856Y-78230633D01*
X152479855Y-78230626D01*
X152444705Y-78145766D01*
X152413861Y-78071301D01*
X152413854Y-78071288D01*
X152318045Y-77927901D01*
X152318042Y-77927897D01*
X152196102Y-77805957D01*
X152196098Y-77805954D01*
X152052711Y-77710145D01*
X152052698Y-77710138D01*
X151893378Y-77644146D01*
X151893366Y-77644143D01*
X151724232Y-77610500D01*
X151724229Y-77610500D01*
X151551771Y-77610500D01*
X151551768Y-77610500D01*
X151382633Y-77644143D01*
X151382621Y-77644146D01*
X151223301Y-77710138D01*
X151223288Y-77710145D01*
X151079901Y-77805954D01*
X151079897Y-77805957D01*
X150957957Y-77927897D01*
X150957954Y-77927901D01*
X150862145Y-78071288D01*
X150862138Y-78071301D01*
X150796146Y-78230621D01*
X150796143Y-78230633D01*
X150762500Y-78399766D01*
X150762500Y-82643993D01*
X150742815Y-82711032D01*
X150726181Y-82731674D01*
X149433957Y-84023897D01*
X149433954Y-84023901D01*
X149338145Y-84167288D01*
X149338138Y-84167301D01*
X149272146Y-84326621D01*
X149272143Y-84326633D01*
X149238500Y-84495766D01*
X143369500Y-84495766D01*
X143369500Y-78907771D01*
X143369500Y-78907768D01*
X143369499Y-78907766D01*
X143346094Y-78790102D01*
X143335855Y-78738626D01*
X143297780Y-78646705D01*
X143269861Y-78579301D01*
X143269854Y-78579288D01*
X143174046Y-78435902D01*
X143137910Y-78399766D01*
X143052099Y-78313955D01*
X142714765Y-77976621D01*
X142290102Y-77551957D01*
X142290098Y-77551954D01*
X142146711Y-77456145D01*
X142146698Y-77456138D01*
X141987378Y-77390146D01*
X141987366Y-77390143D01*
X141818232Y-77356500D01*
X141818229Y-77356500D01*
X131993771Y-77356500D01*
X131993768Y-77356500D01*
X131824633Y-77390143D01*
X131824621Y-77390146D01*
X131665301Y-77456138D01*
X131665288Y-77456145D01*
X131521901Y-77551954D01*
X131521897Y-77551957D01*
X131399957Y-77673897D01*
X131399954Y-77673901D01*
X131304145Y-77817288D01*
X131304138Y-77817301D01*
X131238146Y-77976621D01*
X131238143Y-77976633D01*
X131204500Y-78145766D01*
X115574807Y-78145766D01*
X115599109Y-75059441D01*
X129243500Y-75059441D01*
X129243500Y-75308558D01*
X129243501Y-75308575D01*
X129276017Y-75555561D01*
X129340498Y-75796207D01*
X129435830Y-76026361D01*
X129435837Y-76026376D01*
X129560400Y-76242126D01*
X129712060Y-76439774D01*
X129712066Y-76439781D01*
X129888218Y-76615933D01*
X129888225Y-76615939D01*
X130085873Y-76767599D01*
X130301623Y-76892162D01*
X130301638Y-76892169D01*
X130400825Y-76933253D01*
X130531793Y-76987502D01*
X130772435Y-77051982D01*
X131019435Y-77084500D01*
X131019442Y-77084500D01*
X131268558Y-77084500D01*
X131268565Y-77084500D01*
X131515565Y-77051982D01*
X131756207Y-76987502D01*
X131986373Y-76892164D01*
X132202127Y-76767599D01*
X132399776Y-76615938D01*
X132575938Y-76439776D01*
X132727599Y-76242127D01*
X132852164Y-76026373D01*
X132947502Y-75796207D01*
X133011982Y-75555565D01*
X133044500Y-75308565D01*
X133044500Y-75059435D01*
X133011982Y-74812435D01*
X132947502Y-74571793D01*
X132852164Y-74341627D01*
X132811094Y-74270492D01*
X132727599Y-74125873D01*
X132674230Y-74056321D01*
X132618724Y-73983984D01*
X134243500Y-73983984D01*
X134243500Y-76384015D01*
X134254000Y-76486795D01*
X134254001Y-76486796D01*
X134309186Y-76653335D01*
X134309187Y-76653337D01*
X134401286Y-76802651D01*
X134401289Y-76802655D01*
X134525344Y-76926710D01*
X134525348Y-76926713D01*
X134674662Y-77018812D01*
X134674664Y-77018813D01*
X134674666Y-77018814D01*
X134841203Y-77073999D01*
X134943992Y-77084500D01*
X134943997Y-77084500D01*
X137344003Y-77084500D01*
X137344008Y-77084500D01*
X137446797Y-77073999D01*
X137613334Y-77018814D01*
X137762655Y-76926711D01*
X137886711Y-76802655D01*
X137978814Y-76653334D01*
X138033999Y-76486797D01*
X138044500Y-76384008D01*
X138044500Y-75345941D01*
X147277500Y-75345941D01*
X147277500Y-75595058D01*
X147277501Y-75595075D01*
X147310017Y-75842061D01*
X147374498Y-76082707D01*
X147469830Y-76312861D01*
X147469837Y-76312876D01*
X147594400Y-76528626D01*
X147746060Y-76726274D01*
X147746066Y-76726281D01*
X147922218Y-76902433D01*
X147922225Y-76902439D01*
X148119873Y-77054099D01*
X148335623Y-77178662D01*
X148335638Y-77178669D01*
X148434825Y-77219753D01*
X148565793Y-77274002D01*
X148806435Y-77338482D01*
X149053435Y-77371000D01*
X149053442Y-77371000D01*
X149302558Y-77371000D01*
X149302565Y-77371000D01*
X149549565Y-77338482D01*
X149790207Y-77274002D01*
X150020373Y-77178664D01*
X150236127Y-77054099D01*
X150433776Y-76902438D01*
X150609938Y-76726276D01*
X150761599Y-76528627D01*
X150886164Y-76312873D01*
X150981502Y-76082707D01*
X151045982Y-75842065D01*
X151078500Y-75595065D01*
X151078500Y-75345935D01*
X151045982Y-75098935D01*
X150981502Y-74858293D01*
X150886164Y-74628127D01*
X150761599Y-74412373D01*
X150652724Y-74270484D01*
X152277500Y-74270484D01*
X152277500Y-76670515D01*
X152288000Y-76773295D01*
X152288001Y-76773297D01*
X152315593Y-76856565D01*
X152343186Y-76939835D01*
X152343187Y-76939837D01*
X152435286Y-77089151D01*
X152435289Y-77089155D01*
X152559344Y-77213210D01*
X152559348Y-77213213D01*
X152708662Y-77305312D01*
X152708664Y-77305313D01*
X152708666Y-77305314D01*
X152875203Y-77360499D01*
X152977992Y-77371000D01*
X152977997Y-77371000D01*
X155378003Y-77371000D01*
X155378008Y-77371000D01*
X155480797Y-77360499D01*
X155647334Y-77305314D01*
X155796655Y-77213211D01*
X155920711Y-77089155D01*
X156012814Y-76939834D01*
X156067999Y-76773297D01*
X156078500Y-76670508D01*
X156078500Y-74270492D01*
X156067999Y-74167703D01*
X156012814Y-74001166D01*
X155967822Y-73928224D01*
X155920713Y-73851848D01*
X155920710Y-73851844D01*
X155796655Y-73727789D01*
X155796651Y-73727786D01*
X155647337Y-73635687D01*
X155647335Y-73635686D01*
X155540848Y-73600400D01*
X155480797Y-73580501D01*
X155480795Y-73580500D01*
X155378015Y-73570000D01*
X155378008Y-73570000D01*
X152977992Y-73570000D01*
X152977984Y-73570000D01*
X152875204Y-73580500D01*
X152875203Y-73580501D01*
X152708664Y-73635686D01*
X152708662Y-73635687D01*
X152559348Y-73727786D01*
X152559344Y-73727789D01*
X152435289Y-73851844D01*
X152435286Y-73851848D01*
X152343187Y-74001162D01*
X152343186Y-74001164D01*
X152288001Y-74167703D01*
X152288000Y-74167704D01*
X152277500Y-74270484D01*
X150652724Y-74270484D01*
X150609938Y-74214724D01*
X150609933Y-74214718D01*
X150433781Y-74038566D01*
X150433774Y-74038560D01*
X150236126Y-73886900D01*
X150020376Y-73762337D01*
X150020361Y-73762330D01*
X149790207Y-73666998D01*
X149549561Y-73602517D01*
X149302575Y-73570001D01*
X149302570Y-73570000D01*
X149302565Y-73570000D01*
X149053435Y-73570000D01*
X149053429Y-73570000D01*
X149053424Y-73570001D01*
X148806438Y-73602517D01*
X148565792Y-73666998D01*
X148335638Y-73762330D01*
X148335623Y-73762337D01*
X148119873Y-73886900D01*
X147922225Y-74038560D01*
X147922218Y-74038566D01*
X147746066Y-74214718D01*
X147746060Y-74214725D01*
X147594400Y-74412373D01*
X147469837Y-74628123D01*
X147469830Y-74628138D01*
X147374498Y-74858292D01*
X147310017Y-75098938D01*
X147277501Y-75345924D01*
X147277500Y-75345941D01*
X138044500Y-75345941D01*
X138044500Y-73983992D01*
X138033999Y-73881203D01*
X137978814Y-73714666D01*
X137908333Y-73600400D01*
X137886713Y-73565348D01*
X137886710Y-73565344D01*
X137762655Y-73441289D01*
X137762651Y-73441286D01*
X137613337Y-73349187D01*
X137613335Y-73349186D01*
X137513237Y-73316017D01*
X137446797Y-73294001D01*
X137446795Y-73294000D01*
X137344015Y-73283500D01*
X137344008Y-73283500D01*
X134943992Y-73283500D01*
X134943984Y-73283500D01*
X134841204Y-73294000D01*
X134841203Y-73294001D01*
X134674664Y-73349186D01*
X134674662Y-73349187D01*
X134525348Y-73441286D01*
X134525344Y-73441289D01*
X134401289Y-73565344D01*
X134401286Y-73565348D01*
X134309187Y-73714662D01*
X134309186Y-73714664D01*
X134254001Y-73881203D01*
X134254000Y-73881204D01*
X134243500Y-73983984D01*
X132618724Y-73983984D01*
X132575939Y-73928225D01*
X132575933Y-73928218D01*
X132399781Y-73752066D01*
X132399774Y-73752060D01*
X132202126Y-73600400D01*
X131986376Y-73475837D01*
X131986361Y-73475830D01*
X131756207Y-73380498D01*
X131515561Y-73316017D01*
X131268575Y-73283501D01*
X131268570Y-73283500D01*
X131268565Y-73283500D01*
X131019435Y-73283500D01*
X131019429Y-73283500D01*
X131019424Y-73283501D01*
X130772438Y-73316017D01*
X130531792Y-73380498D01*
X130301638Y-73475830D01*
X130301623Y-73475837D01*
X130085873Y-73600400D01*
X129888225Y-73752060D01*
X129888218Y-73752066D01*
X129712066Y-73928218D01*
X129712060Y-73928225D01*
X129560400Y-74125873D01*
X129435837Y-74341623D01*
X129435830Y-74341638D01*
X129340498Y-74571792D01*
X129276017Y-74812438D01*
X129243501Y-75059424D01*
X129243500Y-75059441D01*
X115599109Y-75059441D01*
X115641937Y-69620283D01*
X115662148Y-69553404D01*
X115715310Y-69508067D01*
X115766988Y-69497268D01*
X169513398Y-69956768D01*
G37*
%TD.AperFunction*%
%TD*%
M02*
