%TF.GenerationSoftware,KiCad,Pcbnew,10.0.3*%
%TF.CreationDate,2026-09-16T18:57:24+05:45*%
%TF.ProjectId,Dual VNH2SP30 Motor Driver Carrier MD03A,4475616c-2056-44e4-9832-53503330204d,rev?*%
%TF.SameCoordinates,Original*%
%TF.FileFunction,Legend,Bot*%
%TF.FilePolarity,Positive*%
%FSLAX46Y46*%
G04 Gerber Fmt 4.6, Leading zero omitted, Abs format (unit mm)*
G04 Created by KiCad (PCBNEW 10.0.3) date 2026-09-16 18:57:24*
%MOMM*%
%LPD*%
G01*
G04 APERTURE LIST*
%ADD10C,0.150000*%
%ADD11C,0.120000*%
G04 APERTURE END LIST*
D10*
X117300333Y-89039819D02*
X117300333Y-89754104D01*
X117300333Y-89754104D02*
X117347952Y-89896961D01*
X117347952Y-89896961D02*
X117443190Y-89992200D01*
X117443190Y-89992200D02*
X117586047Y-90039819D01*
X117586047Y-90039819D02*
X117681285Y-90039819D01*
X116347952Y-89039819D02*
X116824142Y-89039819D01*
X116824142Y-89039819D02*
X116871761Y-89516009D01*
X116871761Y-89516009D02*
X116824142Y-89468390D01*
X116824142Y-89468390D02*
X116728904Y-89420771D01*
X116728904Y-89420771D02*
X116490809Y-89420771D01*
X116490809Y-89420771D02*
X116395571Y-89468390D01*
X116395571Y-89468390D02*
X116347952Y-89516009D01*
X116347952Y-89516009D02*
X116300333Y-89611247D01*
X116300333Y-89611247D02*
X116300333Y-89849342D01*
X116300333Y-89849342D02*
X116347952Y-89944580D01*
X116347952Y-89944580D02*
X116395571Y-89992200D01*
X116395571Y-89992200D02*
X116490809Y-90039819D01*
X116490809Y-90039819D02*
X116728904Y-90039819D01*
X116728904Y-90039819D02*
X116824142Y-89992200D01*
X116824142Y-89992200D02*
X116871761Y-89944580D01*
%TO.C,J5*%
D11*
X115857000Y-92695000D02*
X115857000Y-100805000D01*
X118077000Y-90585000D02*
X116967000Y-90585000D01*
X118077000Y-91695000D02*
X118077000Y-90585000D01*
X118077000Y-92695000D02*
X115857000Y-92695000D01*
X118077000Y-92695000D02*
X118077000Y-100805000D01*
X118077000Y-100805000D02*
X115857000Y-100805000D01*
%TO.C,J7*%
X115714000Y-104394000D02*
X115714000Y-117204000D01*
X118474000Y-101744000D02*
X117094000Y-101744000D01*
X118474000Y-103124000D02*
X118474000Y-101744000D01*
X118474000Y-104394000D02*
X115714000Y-104394000D01*
X118474000Y-104394000D02*
X118474000Y-117204000D01*
X118474000Y-117204000D02*
X115714000Y-117204000D01*
%TO.C,J8*%
X166006000Y-103886000D02*
X166006000Y-116696000D01*
X168766000Y-101236000D02*
X167386000Y-101236000D01*
X168766000Y-102616000D02*
X168766000Y-101236000D01*
X168766000Y-103886000D02*
X166006000Y-103886000D01*
X168766000Y-103886000D02*
X168766000Y-116696000D01*
X168766000Y-116696000D02*
X166006000Y-116696000D01*
%TD*%
M02*
