%TF.GenerationSoftware,KiCad,Pcbnew,10.0.3*%
%TF.CreationDate,2026-09-16T18:57:23+05:45*%
%TF.ProjectId,Dual VNH2SP30 Motor Driver Carrier MD03A,4475616c-2056-44e4-9832-53503330204d,rev?*%
%TF.SameCoordinates,Original*%
%TF.FileFunction,Copper,L2,Inr*%
%TF.FilePolarity,Positive*%
%FSLAX46Y46*%
G04 Gerber Fmt 4.6, Leading zero omitted, Abs format (unit mm)*
G04 Created by KiCad (PCBNEW 10.0.3) date 2026-09-16 18:57:23*
%MOMM*%
%LPD*%
G01*
G04 APERTURE LIST*
G04 Aperture macros list*
%AMRoundRect*
0 Rectangle with rounded corners*
0 $1 Rounding radius*
0 $2 $3 $4 $5 $6 $7 $8 $9 X,Y pos of 4 corners*
0 Add a 4 corners polygon primitive as box body*
4,1,4,$2,$3,$4,$5,$6,$7,$8,$9,$2,$3,0*
0 Add four circle primitives for the rounded corners*
1,1,$1+$1,$2,$3*
1,1,$1+$1,$4,$5*
1,1,$1+$1,$6,$7*
1,1,$1+$1,$8,$9*
0 Add four rect primitives between the rounded corners*
20,1,$1+$1,$2,$3,$4,$5,0*
20,1,$1+$1,$4,$5,$6,$7,0*
20,1,$1+$1,$6,$7,$8,$9,0*
20,1,$1+$1,$8,$9,$2,$3,0*%
G04 Aperture macros list end*
%TA.AperFunction,ComponentPad*%
%ADD10R,1.200000X1.200000*%
%TD*%
%TA.AperFunction,ComponentPad*%
%ADD11C,1.200000*%
%TD*%
%TA.AperFunction,ComponentPad*%
%ADD12RoundRect,0.250001X-1.149999X-1.149999X1.149999X-1.149999X1.149999X1.149999X-1.149999X1.149999X0*%
%TD*%
%TA.AperFunction,ComponentPad*%
%ADD13C,2.800000*%
%TD*%
%TA.AperFunction,ComponentPad*%
%ADD14RoundRect,0.250001X1.149999X1.149999X-1.149999X1.149999X-1.149999X-1.149999X1.149999X-1.149999X0*%
%TD*%
%TA.AperFunction,ComponentPad*%
%ADD15R,2.000000X2.000000*%
%TD*%
%TA.AperFunction,ComponentPad*%
%ADD16O,2.000000X2.000000*%
%TD*%
%TA.AperFunction,ComponentPad*%
%ADD17R,1.350000X1.350000*%
%TD*%
%TA.AperFunction,ComponentPad*%
%ADD18C,1.350000*%
%TD*%
%TA.AperFunction,ComponentPad*%
%ADD19R,1.700000X1.700000*%
%TD*%
%TA.AperFunction,ComponentPad*%
%ADD20C,1.700000*%
%TD*%
%TA.AperFunction,ViaPad*%
%ADD21C,0.400000*%
%TD*%
G04 APERTURE END LIST*
D10*
%TO.N,/VBAT*%
%TO.C,C2*%
X148312000Y-116941600D03*
D11*
%TO.N,GND*%
X146812000Y-116941600D03*
%TD*%
D12*
%TO.N,/VBAT*%
%TO.C,J3*%
X140650400Y-133248400D03*
D13*
%TO.N,GND*%
X145650400Y-133248400D03*
%TD*%
D10*
%TO.N,/VBAT*%
%TO.C,C1*%
X137730199Y-116941600D03*
D11*
%TO.N,GND*%
X136230199Y-116941600D03*
%TD*%
D14*
%TO.N,Net-(J2-Pin_1)*%
%TO.C,J2*%
X136144000Y-75184000D03*
D13*
%TO.N,Net-(J2-Pin_2)*%
X131144000Y-75184000D03*
%TD*%
D14*
%TO.N,Net-(J1-Pin_1)*%
%TO.C,J1*%
X154178000Y-75470500D03*
D13*
%TO.N,Net-(J1-Pin_2)*%
X149178000Y-75470500D03*
%TD*%
D15*
%TO.N,/VBAT*%
%TO.C,C3*%
X150248000Y-122693500D03*
D16*
%TO.N,GND*%
X135248000Y-122693500D03*
%TD*%
D17*
%TO.N,/VBAT*%
%TO.C,J5*%
X116967000Y-91695000D03*
D18*
%TO.N,GND*%
X116967000Y-93695000D03*
%TO.N,/VCC*%
X116967000Y-95695000D03*
%TO.N,GND*%
X116967000Y-97695000D03*
%TO.N,/VBAT*%
X116967000Y-99695000D03*
%TD*%
D19*
%TO.N,Net-(J7-Pin_1)*%
%TO.C,J7*%
X117094000Y-103124000D03*
D20*
%TO.N,Net-(J7-Pin_2)*%
X117094000Y-105664000D03*
%TO.N,Net-(J7-Pin_3)*%
X117094000Y-108204000D03*
%TO.N,Net-(J7-Pin_4)*%
X117094000Y-110744000D03*
%TO.N,Net-(J7-Pin_5)*%
X117094000Y-113284000D03*
%TO.N,GND*%
X117094000Y-115824000D03*
%TD*%
D19*
%TO.N,Net-(J8-Pin_1)*%
%TO.C,J8*%
X167386000Y-102616000D03*
D20*
%TO.N,Net-(J8-Pin_2)*%
X167386000Y-105156000D03*
%TO.N,Net-(J8-Pin_3)*%
X167386000Y-107696000D03*
%TO.N,Net-(J8-Pin_4)*%
X167386000Y-110236000D03*
%TO.N,Net-(J8-Pin_5)*%
X167386000Y-112776000D03*
%TO.N,GND*%
X167386000Y-115316000D03*
%TD*%
D21*
%TO.N,GND*%
X123444000Y-113030000D03*
X152645000Y-109600000D03*
X121904000Y-115570000D03*
X154009600Y-102565200D03*
X164388800Y-104335400D03*
X158496000Y-103632000D03*
X119888000Y-111490000D03*
X143125100Y-113030000D03*
%TO.N,/VCC*%
X133096000Y-103022400D03*
X139446000Y-113080800D03*
X162407600Y-111455200D03*
X118770400Y-95758000D03*
X162560000Y-113046000D03*
X131302000Y-102870000D03*
X141050100Y-113030000D03*
%TO.N,Net-(D1-A)*%
X145386000Y-106781600D03*
X151892000Y-107696000D03*
%TO.N,Net-(D1-K)*%
X149352000Y-109220000D03*
X147320000Y-109728000D03*
%TO.N,Net-(J1-Pin_1)*%
X144018000Y-93218000D03*
X144272000Y-96266000D03*
X151638000Y-78486000D03*
X150114000Y-84582000D03*
%TO.N,Net-(J1-Pin_2)*%
X152908000Y-79248000D03*
X158242000Y-84328000D03*
%TO.N,Net-(J2-Pin_2)*%
X142494000Y-85090000D03*
X140462000Y-93472000D03*
X140716000Y-96266000D03*
X132080000Y-78232000D03*
%TO.N,Net-(J2-Pin_1)*%
X132080000Y-84582000D03*
X125222000Y-100330000D03*
X124968000Y-89408000D03*
X133096000Y-79756000D03*
%TO.N,Net-(U1-INA)*%
X130604000Y-100563000D03*
X122428000Y-103682800D03*
%TO.N,Net-(U1-INB)*%
X134112000Y-112522000D03*
X134112000Y-109474000D03*
%TO.N,Net-(U1-PWM)*%
X134620000Y-108712000D03*
X134620000Y-112776000D03*
%TO.N,Net-(U1-CS)*%
X135128000Y-113538000D03*
X135128000Y-107950000D03*
X119904000Y-115570000D03*
X123952000Y-117348000D03*
%TO.N,Net-(U2-CS)*%
X160020000Y-99568000D03*
X152384000Y-100563000D03*
%TO.N,Net-(U2-PWM)*%
X159766000Y-98806000D03*
X151384000Y-100563000D03*
%TO.N,Net-(U2-INB)*%
X154384000Y-100563000D03*
X159766000Y-101600000D03*
%TO.N,Net-(U2-INA)*%
X149352000Y-108204000D03*
X150114000Y-109474000D03*
%TO.N,Net-(U2-EN{slash}DIAA)*%
X162560000Y-115046000D03*
X154940000Y-106680000D03*
%TO.N,Net-(J7-Pin_5)*%
X124968000Y-113030000D03*
X120650000Y-120417500D03*
%TO.N,Net-(J7-Pin_4)*%
X118618000Y-113030000D03*
X116348000Y-120650000D03*
X117602000Y-117094000D03*
%TO.N,Net-(J7-Pin_3)*%
X118872000Y-116840000D03*
X119126000Y-108458000D03*
%TO.N,Net-(J8-Pin_4)*%
X164541200Y-109693200D03*
%TO.N,Net-(J8-Pin_2)*%
X161620200Y-100761800D03*
X157870400Y-102565200D03*
%TD*%
M02*
