%TF.GenerationSoftware,KiCad,Pcbnew,10.0.3*%
%TF.CreationDate,2026-06-17T19:14:14+05:45*%
%TF.ProjectId,L298 motor driver,4c323938-206d-46f7-946f-722064726976,rev?*%
%TF.SameCoordinates,Original*%
%TF.FileFunction,Plated,1,2,PTH,Drill*%
%TF.FilePolarity,Positive*%
%FSLAX46Y46*%
G04 Gerber Fmt 4.6, Leading zero omitted, Abs format (unit mm)*
G04 Created by KiCad (PCBNEW 10.0.3) date 2026-06-17 19:14:14*
%MOMM*%
%LPD*%
G01*
G04 APERTURE LIST*
%TA.AperFunction,ViaDrill*%
%ADD10C,0.300000*%
%TD*%
%TA.AperFunction,ComponentDrill*%
%ADD11C,0.600000*%
%TD*%
%TA.AperFunction,ComponentDrill*%
%ADD12C,1.000000*%
%TD*%
%TA.AperFunction,ComponentDrill*%
%ADD13C,1.300000*%
%TD*%
%TA.AperFunction,ComponentDrill*%
%ADD14C,1.500000*%
%TD*%
G04 APERTURE END LIST*
D10*
X131000000Y-42000000D03*
X131000000Y-46500000D03*
X134000000Y-49500000D03*
X134000000Y-53000000D03*
X136000000Y-58500000D03*
X136500000Y-66500000D03*
X137100000Y-48500000D03*
X139500000Y-51500000D03*
X140500000Y-44000000D03*
X142250000Y-64750000D03*
X143750000Y-68750000D03*
X144500000Y-41000000D03*
X154250000Y-60250000D03*
X154500000Y-43500000D03*
X154980000Y-61250000D03*
X158000000Y-52500000D03*
X159500000Y-49500000D03*
X160000000Y-51000000D03*
X160060659Y-58500000D03*
X160400000Y-54500000D03*
X162500000Y-51500000D03*
X163000000Y-49000000D03*
X163000000Y-54000000D03*
X166000000Y-51750000D03*
X166000000Y-57500000D03*
X167500000Y-49000000D03*
D11*
%TO.C,C4*%
X141000000Y-59000000D03*
X142500000Y-59000000D03*
%TO.C,C3*%
X156000000Y-59000000D03*
X157500000Y-59000000D03*
D12*
%TO.C,U1*%
X140610000Y-54340000D03*
X141880000Y-49260000D03*
X143150000Y-54340000D03*
X144420000Y-49260000D03*
X145690000Y-54340000D03*
X146960000Y-49260000D03*
X148230000Y-54340000D03*
X149500000Y-49260000D03*
X150770000Y-54340000D03*
X152040000Y-49260000D03*
X153310000Y-54340000D03*
X154580000Y-49260000D03*
X155850000Y-54340000D03*
X157120000Y-49260000D03*
X158390000Y-54340000D03*
D13*
%TO.C,J2*%
X127000000Y-48000000D03*
X127000000Y-53000000D03*
%TO.C,PWR_IN*%
X127500000Y-59000000D03*
X127500000Y-64000000D03*
%TO.C,J6*%
X130000000Y-72500000D03*
X135000000Y-72500000D03*
X140000000Y-72500000D03*
%TO.C,EN*%
X147500000Y-73100000D03*
X152500000Y-73100000D03*
%TO.C,J1*%
X160000000Y-73000000D03*
X165000000Y-73000000D03*
X170000000Y-73000000D03*
%TO.C,J4*%
X174500000Y-46500000D03*
X174500000Y-51500000D03*
%TO.C,J1*%
X175000000Y-73000000D03*
D14*
%TO.C,VCC_OUT*%
X164000000Y-63500000D03*
%TO.C,+5V_OUT *%
X174000000Y-63500000D03*
M02*
