%TF.GenerationSoftware,KiCad,Pcbnew,10.0.3*%
%TF.CreationDate,2026-06-17T19:14:08+05:45*%
%TF.ProjectId,L298 motor driver,4c323938-206d-46f7-946f-722064726976,rev?*%
%TF.SameCoordinates,Original*%
%TF.FileFunction,Soldermask,Top*%
%TF.FilePolarity,Negative*%
%FSLAX46Y46*%
G04 Gerber Fmt 4.6, Leading zero omitted, Abs format (unit mm)*
G04 Created by KiCad (PCBNEW 10.0.3) date 2026-06-17 19:14:08*
%MOMM*%
%LPD*%
G01*
G04 APERTURE LIST*
G04 Aperture macros list*
%AMRoundRect*
0 Rectangle with rounded corners*
0 $1 Rounding radius*
0 $2 $3 $4 $5 $6 $7 $8 $9 X,Y pos of 4 corners*
0 Add a 4 corners polygon primitive as box body*
4,1,4,$2,$3,$4,$5,$6,$7,$8,$9,$2,$3,0*
0 Add four circle primitives for the rounded corners*
1,1,$1+$1,$2,$3*
1,1,$1+$1,$4,$5*
1,1,$1+$1,$6,$7*
1,1,$1+$1,$8,$9*
0 Add four rect primitives between the rounded corners*
20,1,$1+$1,$2,$3,$4,$5,0*
20,1,$1+$1,$4,$5,$6,$7,0*
20,1,$1+$1,$6,$7,$8,$9,0*
20,1,$1+$1,$8,$9,$2,$3,0*%
G04 Aperture macros list end*
%ADD10C,3.000000*%
%ADD11RoundRect,0.225000X-0.225000X-0.375000X0.225000X-0.375000X0.225000X0.375000X-0.225000X0.375000X0*%
%ADD12RoundRect,0.225000X0.225000X0.375000X-0.225000X0.375000X-0.225000X-0.375000X0.225000X-0.375000X0*%
%ADD13RoundRect,0.375000X0.375000X-0.625000X0.375000X0.625000X-0.375000X0.625000X-0.375000X-0.625000X0*%
%ADD14RoundRect,0.500000X1.400000X-0.500000X1.400000X0.500000X-1.400000X0.500000X-1.400000X-0.500000X0*%
%ADD15RoundRect,0.250000X0.262500X0.450000X-0.262500X0.450000X-0.262500X-0.450000X0.262500X-0.450000X0*%
%ADD16RoundRect,0.250001X-1.149999X-1.149999X1.149999X-1.149999X1.149999X1.149999X-1.149999X1.149999X0*%
%ADD17C,2.800000*%
%ADD18RoundRect,0.250001X1.149999X-1.149999X1.149999X1.149999X-1.149999X1.149999X-1.149999X-1.149999X0*%
%ADD19RoundRect,0.140000X-0.140000X-0.170000X0.140000X-0.170000X0.140000X0.170000X-0.140000X0.170000X0*%
%ADD20RoundRect,0.250000X-0.350000X-0.350000X0.350000X-0.350000X0.350000X0.350000X-0.350000X0.350000X0*%
%ADD21C,1.200000*%
%ADD22RoundRect,0.250001X-1.149999X1.149999X-1.149999X-1.149999X1.149999X-1.149999X1.149999X1.149999X0*%
%ADD23RoundRect,0.250000X-0.375000X-0.625000X0.375000X-0.625000X0.375000X0.625000X-0.375000X0.625000X0*%
%ADD24R,1.800000X1.800000*%
%ADD25C,1.800000*%
G04 APERTURE END LIST*
D10*
%TO.C,+5V_OUT *%
X174000000Y-63500000D03*
%TD*%
D11*
%TO.C,D7*%
X161350000Y-51500000D03*
X164650000Y-51500000D03*
%TD*%
D12*
%TO.C,D3*%
X164650000Y-47500000D03*
X161350000Y-47500000D03*
%TD*%
%TO.C,D4*%
X137500000Y-47500000D03*
X134200000Y-47500000D03*
%TD*%
D13*
%TO.C,U2*%
X147200000Y-65650000D03*
X149500000Y-65650000D03*
D14*
X149500000Y-59350000D03*
D13*
X151800000Y-65650000D03*
%TD*%
D12*
%TO.C,D5*%
X137150000Y-44000000D03*
X133850000Y-44000000D03*
%TD*%
D15*
%TO.C,R1*%
X144600000Y-63250000D03*
X142775000Y-63250000D03*
%TD*%
D12*
%TO.C,D1*%
X164500000Y-43500000D03*
X161200000Y-43500000D03*
%TD*%
D16*
%TO.C,J1*%
X160000000Y-73000000D03*
D17*
X165000000Y-73000000D03*
X170000000Y-73000000D03*
X175000000Y-73000000D03*
%TD*%
D18*
%TO.C,PWR_IN*%
X127500000Y-64000000D03*
D17*
X127500000Y-59000000D03*
%TD*%
D10*
%TO.C,VCC_OUT*%
X164000000Y-63500000D03*
%TD*%
D19*
%TO.C,C2*%
X154040000Y-65000000D03*
X155000000Y-65000000D03*
%TD*%
D20*
%TO.C,C4*%
X141000000Y-59000000D03*
D21*
X142500000Y-59000000D03*
%TD*%
D20*
%TO.C,C3*%
X156000000Y-59000000D03*
D21*
X157500000Y-59000000D03*
%TD*%
D18*
%TO.C,J4*%
X174500000Y-51500000D03*
D17*
X174500000Y-46500000D03*
%TD*%
D22*
%TO.C,J2*%
X127000000Y-48000000D03*
D17*
X127000000Y-53000000D03*
%TD*%
D19*
%TO.C,C1*%
X154020000Y-62500000D03*
X154980000Y-62500000D03*
%TD*%
D12*
%TO.C,D2*%
X137650000Y-51500000D03*
X134350000Y-51500000D03*
%TD*%
D23*
%TO.C,D9*%
X137600000Y-63500000D03*
X140400000Y-63500000D03*
%TD*%
D11*
%TO.C,D8*%
X134500000Y-55500000D03*
X137800000Y-55500000D03*
%TD*%
D16*
%TO.C,J6*%
X130000000Y-72500000D03*
D17*
X135000000Y-72500000D03*
X140000000Y-72500000D03*
%TD*%
D16*
%TO.C,EN*%
X147500000Y-73100000D03*
D17*
X152500000Y-73100000D03*
%TD*%
D11*
%TO.C,D6*%
X161350000Y-54500000D03*
X164650000Y-54500000D03*
%TD*%
D24*
%TO.C,U1*%
X140610000Y-54340000D03*
D25*
X141880000Y-49260000D03*
X143150000Y-54340000D03*
X144420000Y-49260000D03*
X145690000Y-54340000D03*
X146960000Y-49260000D03*
X148230000Y-54340000D03*
X149500000Y-49260000D03*
X150770000Y-54340000D03*
X152040000Y-49260000D03*
X153310000Y-54340000D03*
X154580000Y-49260000D03*
X155850000Y-54340000D03*
X157120000Y-49260000D03*
X158390000Y-54340000D03*
%TD*%
M02*
