%TF.GenerationSoftware,KiCad,Pcbnew,10.0.3*%
%TF.CreationDate,2026-06-18T22:13:53+05:45*%
%TF.ProjectId,SPO2,53504f32-2e6b-4696-9361-645f70636258,rev?*%
%TF.SameCoordinates,Original*%
%TF.FileFunction,Copper,L4,Bot*%
%TF.FilePolarity,Positive*%
%FSLAX46Y46*%
G04 Gerber Fmt 4.6, Leading zero omitted, Abs format (unit mm)*
G04 Created by KiCad (PCBNEW 10.0.3) date 2026-06-18 22:13:53*
%MOMM*%
%LPD*%
G01*
G04 APERTURE LIST*
G04 Aperture macros list*
%AMRoundRect*
0 Rectangle with rounded corners*
0 $1 Rounding radius*
0 $2 $3 $4 $5 $6 $7 $8 $9 X,Y pos of 4 corners*
0 Add a 4 corners polygon primitive as box body*
4,1,4,$2,$3,$4,$5,$6,$7,$8,$9,$2,$3,0*
0 Add four circle primitives for the rounded corners*
1,1,$1+$1,$2,$3*
1,1,$1+$1,$4,$5*
1,1,$1+$1,$6,$7*
1,1,$1+$1,$8,$9*
0 Add four rect primitives between the rounded corners*
20,1,$1+$1,$2,$3,$4,$5,0*
20,1,$1+$1,$4,$5,$6,$7,0*
20,1,$1+$1,$6,$7,$8,$9,0*
20,1,$1+$1,$8,$9,$2,$3,0*%
G04 Aperture macros list end*
%ADD10C,0.300000*%
%TA.AperFunction,NonConductor*%
%ADD11C,0.300000*%
%TD*%
%TA.AperFunction,ComponentPad*%
%ADD12R,1.270000X2.540000*%
%TD*%
%TA.AperFunction,ComponentPad*%
%ADD13RoundRect,0.190500X-0.444500X1.079500X-0.444500X-1.079500X0.444500X-1.079500X0.444500X1.079500X0*%
%TD*%
%TA.AperFunction,ComponentPad*%
%ADD14C,2.000000*%
%TD*%
%TA.AperFunction,ComponentPad*%
%ADD15C,1.600000*%
%TD*%
%TA.AperFunction,ComponentPad*%
%ADD16R,1.800000X1.800000*%
%TD*%
%TA.AperFunction,ComponentPad*%
%ADD17C,1.800000*%
%TD*%
%TA.AperFunction,ComponentPad*%
%ADD18R,1.600000X1.600000*%
%TD*%
%TA.AperFunction,ComponentPad*%
%ADD19O,1.600000X1.600000*%
%TD*%
%TA.AperFunction,ComponentPad*%
%ADD20RoundRect,0.190500X0.444500X-1.079500X0.444500X1.079500X-0.444500X1.079500X-0.444500X-1.079500X0*%
%TD*%
%TA.AperFunction,Conductor*%
%ADD21C,0.400000*%
%TD*%
%TA.AperFunction,Conductor*%
%ADD22C,0.200000*%
%TD*%
G04 APERTURE END LIST*
D10*
D11*
X172195489Y-82765114D02*
X171981203Y-82836542D01*
X171981203Y-82836542D02*
X171909774Y-82907971D01*
X171909774Y-82907971D02*
X171838346Y-83050828D01*
X171838346Y-83050828D02*
X171838346Y-83265114D01*
X171838346Y-83265114D02*
X171909774Y-83407971D01*
X171909774Y-83407971D02*
X171981203Y-83479400D01*
X171981203Y-83479400D02*
X172124060Y-83550828D01*
X172124060Y-83550828D02*
X172695489Y-83550828D01*
X172695489Y-83550828D02*
X172695489Y-82050828D01*
X172695489Y-82050828D02*
X172195489Y-82050828D01*
X172195489Y-82050828D02*
X172052632Y-82122257D01*
X172052632Y-82122257D02*
X171981203Y-82193685D01*
X171981203Y-82193685D02*
X171909774Y-82336542D01*
X171909774Y-82336542D02*
X171909774Y-82479400D01*
X171909774Y-82479400D02*
X171981203Y-82622257D01*
X171981203Y-82622257D02*
X172052632Y-82693685D01*
X172052632Y-82693685D02*
X172195489Y-82765114D01*
X172195489Y-82765114D02*
X172695489Y-82765114D01*
X170909774Y-82836542D02*
X170909774Y-83550828D01*
X171409774Y-82050828D02*
X170909774Y-82836542D01*
X170909774Y-82836542D02*
X170409774Y-82050828D01*
X169909775Y-83407971D02*
X169838346Y-83479400D01*
X169838346Y-83479400D02*
X169909775Y-83550828D01*
X169909775Y-83550828D02*
X169981203Y-83479400D01*
X169981203Y-83479400D02*
X169909775Y-83407971D01*
X169909775Y-83407971D02*
X169909775Y-83550828D01*
X169909775Y-82622257D02*
X169838346Y-82693685D01*
X169838346Y-82693685D02*
X169909775Y-82765114D01*
X169909775Y-82765114D02*
X169981203Y-82693685D01*
X169981203Y-82693685D02*
X169909775Y-82622257D01*
X169909775Y-82622257D02*
X169909775Y-82765114D01*
X168338346Y-83550828D02*
X168838346Y-82836542D01*
X169195489Y-83550828D02*
X169195489Y-82050828D01*
X169195489Y-82050828D02*
X168624060Y-82050828D01*
X168624060Y-82050828D02*
X168481203Y-82122257D01*
X168481203Y-82122257D02*
X168409774Y-82193685D01*
X168409774Y-82193685D02*
X168338346Y-82336542D01*
X168338346Y-82336542D02*
X168338346Y-82550828D01*
X168338346Y-82550828D02*
X168409774Y-82693685D01*
X168409774Y-82693685D02*
X168481203Y-82765114D01*
X168481203Y-82765114D02*
X168624060Y-82836542D01*
X168624060Y-82836542D02*
X169195489Y-82836542D01*
X167695489Y-82050828D02*
X167695489Y-83265114D01*
X167695489Y-83265114D02*
X167624060Y-83407971D01*
X167624060Y-83407971D02*
X167552632Y-83479400D01*
X167552632Y-83479400D02*
X167409774Y-83550828D01*
X167409774Y-83550828D02*
X167124060Y-83550828D01*
X167124060Y-83550828D02*
X166981203Y-83479400D01*
X166981203Y-83479400D02*
X166909774Y-83407971D01*
X166909774Y-83407971D02*
X166838346Y-83265114D01*
X166838346Y-83265114D02*
X166838346Y-82050828D01*
X166124060Y-83550828D02*
X166124060Y-82050828D01*
X166124060Y-82050828D02*
X165766917Y-82050828D01*
X165766917Y-82050828D02*
X165552631Y-82122257D01*
X165552631Y-82122257D02*
X165409774Y-82265114D01*
X165409774Y-82265114D02*
X165338345Y-82407971D01*
X165338345Y-82407971D02*
X165266917Y-82693685D01*
X165266917Y-82693685D02*
X165266917Y-82907971D01*
X165266917Y-82907971D02*
X165338345Y-83193685D01*
X165338345Y-83193685D02*
X165409774Y-83336542D01*
X165409774Y-83336542D02*
X165552631Y-83479400D01*
X165552631Y-83479400D02*
X165766917Y-83550828D01*
X165766917Y-83550828D02*
X166124060Y-83550828D01*
X163766917Y-83550828D02*
X164266917Y-82836542D01*
X164624060Y-83550828D02*
X164624060Y-82050828D01*
X164624060Y-82050828D02*
X164052631Y-82050828D01*
X164052631Y-82050828D02*
X163909774Y-82122257D01*
X163909774Y-82122257D02*
X163838345Y-82193685D01*
X163838345Y-82193685D02*
X163766917Y-82336542D01*
X163766917Y-82336542D02*
X163766917Y-82550828D01*
X163766917Y-82550828D02*
X163838345Y-82693685D01*
X163838345Y-82693685D02*
X163909774Y-82765114D01*
X163909774Y-82765114D02*
X164052631Y-82836542D01*
X164052631Y-82836542D02*
X164624060Y-82836542D01*
X163195488Y-83122257D02*
X162481203Y-83122257D01*
X163338345Y-83550828D02*
X162838345Y-82050828D01*
X162838345Y-82050828D02*
X162338345Y-83550828D01*
X160695489Y-83550828D02*
X160695489Y-82050828D01*
X159838346Y-83550828D02*
X160481203Y-82693685D01*
X159838346Y-82050828D02*
X160695489Y-82907971D01*
X159195489Y-83550828D02*
X159195489Y-82050828D01*
X158552632Y-83550828D02*
X158552632Y-82765114D01*
X158552632Y-82765114D02*
X158624060Y-82622257D01*
X158624060Y-82622257D02*
X158766917Y-82550828D01*
X158766917Y-82550828D02*
X158981203Y-82550828D01*
X158981203Y-82550828D02*
X159124060Y-82622257D01*
X159124060Y-82622257D02*
X159195489Y-82693685D01*
X157195489Y-83550828D02*
X157195489Y-82765114D01*
X157195489Y-82765114D02*
X157266917Y-82622257D01*
X157266917Y-82622257D02*
X157409774Y-82550828D01*
X157409774Y-82550828D02*
X157695489Y-82550828D01*
X157695489Y-82550828D02*
X157838346Y-82622257D01*
X157195489Y-83479400D02*
X157338346Y-83550828D01*
X157338346Y-83550828D02*
X157695489Y-83550828D01*
X157695489Y-83550828D02*
X157838346Y-83479400D01*
X157838346Y-83479400D02*
X157909774Y-83336542D01*
X157909774Y-83336542D02*
X157909774Y-83193685D01*
X157909774Y-83193685D02*
X157838346Y-83050828D01*
X157838346Y-83050828D02*
X157695489Y-82979400D01*
X157695489Y-82979400D02*
X157338346Y-82979400D01*
X157338346Y-82979400D02*
X157195489Y-82907971D01*
X156695488Y-82550828D02*
X156124060Y-82550828D01*
X156481203Y-82050828D02*
X156481203Y-83336542D01*
X156481203Y-83336542D02*
X156409774Y-83479400D01*
X156409774Y-83479400D02*
X156266917Y-83550828D01*
X156266917Y-83550828D02*
X156124060Y-83550828D01*
X155624060Y-83550828D02*
X155624060Y-82550828D01*
X155624060Y-82836542D02*
X155552631Y-82693685D01*
X155552631Y-82693685D02*
X155481203Y-82622257D01*
X155481203Y-82622257D02*
X155338345Y-82550828D01*
X155338345Y-82550828D02*
X155195488Y-82550828D01*
X154695489Y-83550828D02*
X154695489Y-82550828D01*
X154695489Y-82050828D02*
X154766917Y-82122257D01*
X154766917Y-82122257D02*
X154695489Y-82193685D01*
X154695489Y-82193685D02*
X154624060Y-82122257D01*
X154624060Y-82122257D02*
X154695489Y-82050828D01*
X154695489Y-82050828D02*
X154695489Y-82193685D01*
D12*
%TO.P,U1,1,INT_1*%
%TO.N,unconnected-(U1-INT-Pad1)*%
X120180000Y-95420000D03*
D13*
%TO.P,U1,2,SDA_2*%
%TO.N,Net-(A1-A4)*%
X117640000Y-95420000D03*
%TO.P,U1,3,SCL_3*%
%TO.N,/SCL*%
X115100000Y-95420000D03*
%TO.P,U1,4,GND_4*%
%TO.N,GND*%
X112560000Y-95420000D03*
%TO.P,U1,5,VCC_5*%
%TO.N,+5V*%
X110020000Y-95420000D03*
%TD*%
D14*
%TO.P,SW3,1,1_1*%
%TO.N,GND*%
X163070000Y-52070000D03*
X169570000Y-52070000D03*
%TO.P,SW3,2,2_2*%
%TO.N,Net-(A1-D2)*%
X163070000Y-56570000D03*
X169570000Y-56570000D03*
%TD*%
%TO.P,SW2,1,1_1*%
%TO.N,GND*%
X144170000Y-52070000D03*
X150670000Y-52070000D03*
%TO.P,SW2,2,2_2*%
%TO.N,Net-(A1-D3)*%
X144170000Y-56570000D03*
X150670000Y-56570000D03*
%TD*%
%TO.P,SW1,1,1_1*%
%TO.N,GND*%
X124570000Y-52870000D03*
X131070000Y-52870000D03*
%TO.P,SW1,2,2_2*%
%TO.N,Net-(A1-D4)*%
X124570000Y-57370000D03*
X131070000Y-57370000D03*
%TD*%
D15*
%TO.P,R4,2*%
%TO.N,Net-(D1-A)*%
X113920000Y-54300000D03*
%TO.P,R4,1*%
%TO.N,Net-(A1-D12)*%
X113920000Y-69540000D03*
%TD*%
%TO.P,R3,1*%
%TO.N,+5V*%
X158100000Y-66220000D03*
%TO.P,R3,2*%
%TO.N,Net-(A1-D2)*%
X173340000Y-66220000D03*
%TD*%
%TO.P,R2,1*%
%TO.N,+5V*%
X139300000Y-66720000D03*
%TO.P,R2,2*%
%TO.N,Net-(A1-D3)*%
X154540000Y-66720000D03*
%TD*%
D16*
%TO.P,D1,1,K_1*%
%TO.N,GND*%
X121000000Y-61700000D03*
D17*
%TO.P,D1,2,A_2*%
%TO.N,Net-(D1-A)*%
X118460000Y-61700000D03*
%TD*%
D15*
%TO.P,C3,1*%
%TO.N,Net-(A1-D2)*%
X164500000Y-61100000D03*
%TO.P,C3,2*%
%TO.N,GND*%
X167000000Y-61100000D03*
%TD*%
%TO.P,C2,2*%
%TO.N,GND*%
X145900000Y-61500000D03*
%TO.P,C2,1*%
%TO.N,Net-(A1-D3)*%
X148400000Y-61500000D03*
%TD*%
%TO.P,C1,1*%
%TO.N,Net-(A1-D4)*%
X128600000Y-62000000D03*
%TO.P,C1,2*%
%TO.N,GND*%
X126100000Y-62000000D03*
%TD*%
D18*
%TO.P,A1,1,D1/TX_1*%
%TO.N,unconnected-(A1-D1{slash}TX-Pad1)*%
X146540000Y-73780000D03*
D19*
%TO.P,A1,2,D0/RX_2*%
%TO.N,unconnected-(A1-D0{slash}RX-Pad2)*%
X144000000Y-73780000D03*
%TO.P,A1,3,~{RESET}_3*%
%TO.N,unconnected-(A1-~{RESET}-Pad3)*%
X141460000Y-73780000D03*
%TO.P,A1,4,GND_4*%
%TO.N,GND*%
X138920000Y-73780000D03*
%TO.P,A1,5,D2_5*%
%TO.N,Net-(A1-D2)*%
X136380000Y-73780000D03*
%TO.P,A1,6,D3_6*%
%TO.N,Net-(A1-D3)*%
X133840000Y-73780000D03*
%TO.P,A1,7,D4_7*%
%TO.N,Net-(A1-D4)*%
X131300000Y-73780000D03*
%TO.P,A1,8,D5_8*%
%TO.N,unconnected-(A1-D5-Pad8)*%
X128760000Y-73780000D03*
%TO.P,A1,9,D6_9*%
%TO.N,unconnected-(A1-D6-Pad9)*%
X126220000Y-73780000D03*
%TO.P,A1,10,D7_10*%
%TO.N,unconnected-(A1-D7-Pad10)*%
X123680000Y-73780000D03*
%TO.P,A1,11,D8_11*%
%TO.N,unconnected-(A1-D8-Pad11)*%
X121140000Y-73780000D03*
%TO.P,A1,12,D9_12*%
%TO.N,unconnected-(A1-D9-Pad12)*%
X118600000Y-73780000D03*
%TO.P,A1,13,D10_13*%
%TO.N,unconnected-(A1-D10-Pad13)*%
X116060000Y-73780000D03*
%TO.P,A1,14,D11_14*%
%TO.N,unconnected-(A1-D11-Pad14)*%
X113520000Y-73780000D03*
%TO.P,A1,15,D12_15*%
%TO.N,Net-(A1-D12)*%
X110980000Y-73780000D03*
%TO.P,A1,16,D13_16*%
%TO.N,unconnected-(A1-D13-Pad16)*%
X110980000Y-89020000D03*
%TO.P,A1,17,3V3_17*%
%TO.N,unconnected-(A1-3V3-Pad17)*%
X113520000Y-89020000D03*
%TO.P,A1,18,AREF_18*%
%TO.N,unconnected-(A1-AREF-Pad18)*%
X116060000Y-89020000D03*
%TO.P,A1,19,A0_19*%
%TO.N,unconnected-(A1-A0-Pad19)*%
X118600000Y-89020000D03*
%TO.P,A1,20,A1_20*%
%TO.N,unconnected-(A1-A1-Pad20)*%
X121140000Y-89020000D03*
%TO.P,A1,21,A2_21*%
%TO.N,unconnected-(A1-A2-Pad21)*%
X123680000Y-89020000D03*
%TO.P,A1,22,A3_22*%
%TO.N,unconnected-(A1-A3-Pad22)*%
X126220000Y-89020000D03*
%TO.P,A1,23,A4_23*%
%TO.N,Net-(A1-A4)*%
X128760000Y-89020000D03*
%TO.P,A1,24,A5_24*%
%TO.N,/SCL*%
X131300000Y-89020000D03*
%TO.P,A1,25,A6_25*%
%TO.N,unconnected-(A1-A6-Pad25)*%
X133840000Y-89020000D03*
%TO.P,A1,26,A7_26*%
%TO.N,unconnected-(A1-A7-Pad26)*%
X136380000Y-89020000D03*
%TO.P,A1,27,+5V_27*%
%TO.N,+5V*%
X138920000Y-89020000D03*
%TO.P,A1,28,~{RESET}_28*%
%TO.N,unconnected-(A1-~{RESET}-Pad28)*%
X141460000Y-89020000D03*
%TO.P,A1,29,GND_29*%
%TO.N,GND*%
X144000000Y-89020000D03*
%TO.P,A1,30,VIN_30*%
%TO.N,unconnected-(A1-VIN-Pad30)*%
X146540000Y-89020000D03*
%TD*%
D20*
%TO.P,U2,4,SDA_4*%
%TO.N,Net-(A1-A4)*%
X124900000Y-99280000D03*
%TO.P,U2,3*%
%TO.N,N/C*%
X124900000Y-104360000D03*
%TO.P,U2,2,VCC_2*%
%TO.N,+5V*%
X124900000Y-109440000D03*
D12*
%TO.P,U2,1,GND_1*%
%TO.N,GND*%
X124900000Y-114520000D03*
%TD*%
D15*
%TO.P,R1,1*%
%TO.N,+5V*%
X119800000Y-67020000D03*
%TO.P,R1,2*%
%TO.N,Net-(A1-D4)*%
X135040000Y-67020000D03*
%TD*%
%TO.N,+5V*%
D21*
X138473000Y-65893000D02*
X120927000Y-65893000D01*
X120927000Y-65893000D02*
X119800000Y-67020000D01*
X139300000Y-66720000D02*
X138473000Y-65893000D01*
X140599999Y-65420001D02*
X157300001Y-65420001D01*
X157300001Y-65420001D02*
X158100000Y-66220000D01*
X139300000Y-66720000D02*
X140599999Y-65420001D01*
X140099999Y-88920001D02*
X140099999Y-67519999D01*
X138920000Y-90100000D02*
X140099999Y-88920001D01*
X138920000Y-90100000D02*
X138920000Y-89020000D01*
X140099999Y-67519999D02*
X139300000Y-66720000D01*
X138920000Y-95420000D02*
X138920000Y-90100000D01*
X124900000Y-109440000D02*
X138920000Y-95420000D01*
X110020000Y-95420000D02*
X124040000Y-109440000D01*
X124040000Y-109440000D02*
X124900000Y-109440000D01*
%TO.N,/SCL*%
D22*
X126397000Y-93923000D02*
X131300000Y-89020000D01*
X116597000Y-93923000D02*
X126397000Y-93923000D01*
X115100000Y-95420000D02*
X116597000Y-93923000D01*
%TD*%
%TA.AperFunction,Conductor*%
%TO.N,GND*%
G36*
X174442539Y-49520185D02*
G01*
X174488294Y-49572989D01*
X174499500Y-49624500D01*
X174499500Y-65240953D01*
X174479815Y-65307992D01*
X174427011Y-65353747D01*
X174357853Y-65363691D01*
X174294297Y-65334666D01*
X174287819Y-65328634D01*
X174187213Y-65228028D01*
X174021613Y-65107715D01*
X174021612Y-65107714D01*
X174021610Y-65107713D01*
X173964653Y-65078691D01*
X173839223Y-65014781D01*
X173644534Y-64951522D01*
X173469995Y-64923878D01*
X173442352Y-64919500D01*
X173237648Y-64919500D01*
X173213329Y-64923351D01*
X173035465Y-64951522D01*
X172840776Y-65014781D01*
X172658386Y-65107715D01*
X172492786Y-65228028D01*
X172348028Y-65372786D01*
X172227715Y-65538386D01*
X172134781Y-65720776D01*
X172071522Y-65915465D01*
X172039500Y-66117648D01*
X172039500Y-66322351D01*
X172071522Y-66524534D01*
X172134781Y-66719223D01*
X172227715Y-66901613D01*
X172348028Y-67067213D01*
X172492786Y-67211971D01*
X172635513Y-67315666D01*
X172658390Y-67332287D01*
X172774607Y-67391503D01*
X172840776Y-67425218D01*
X172840778Y-67425218D01*
X172840781Y-67425220D01*
X172920133Y-67451003D01*
X173035465Y-67488477D01*
X173136557Y-67504488D01*
X173237648Y-67520500D01*
X173237649Y-67520500D01*
X173442351Y-67520500D01*
X173442352Y-67520500D01*
X173644534Y-67488477D01*
X173839219Y-67425220D01*
X174021610Y-67332287D01*
X174177231Y-67219223D01*
X174187213Y-67211971D01*
X174187215Y-67211968D01*
X174187219Y-67211966D01*
X174287819Y-67111366D01*
X174349142Y-67077881D01*
X174418834Y-67082865D01*
X174474767Y-67124737D01*
X174499184Y-67190201D01*
X174499500Y-67199047D01*
X174499500Y-121375500D01*
X174479815Y-121442539D01*
X174427011Y-121488294D01*
X174375500Y-121499500D01*
X103624500Y-121499500D01*
X103557461Y-121479815D01*
X103511706Y-121427011D01*
X103500500Y-121375500D01*
X103500500Y-113202155D01*
X123765000Y-113202155D01*
X123765000Y-114270000D01*
X124584314Y-114270000D01*
X124579920Y-114274394D01*
X124527259Y-114365606D01*
X124500000Y-114467339D01*
X124500000Y-114572661D01*
X124527259Y-114674394D01*
X124579920Y-114765606D01*
X124584314Y-114770000D01*
X123765000Y-114770000D01*
X123765000Y-115837844D01*
X123771401Y-115897372D01*
X123771403Y-115897379D01*
X123821645Y-116032086D01*
X123821649Y-116032093D01*
X123907809Y-116147187D01*
X123907812Y-116147190D01*
X124022906Y-116233350D01*
X124022913Y-116233354D01*
X124157620Y-116283596D01*
X124157627Y-116283598D01*
X124217155Y-116289999D01*
X124217172Y-116290000D01*
X124650000Y-116290000D01*
X124650000Y-114835686D01*
X124654394Y-114840080D01*
X124745606Y-114892741D01*
X124847339Y-114920000D01*
X124952661Y-114920000D01*
X125054394Y-114892741D01*
X125145606Y-114840080D01*
X125150000Y-114835686D01*
X125150000Y-116290000D01*
X125582828Y-116290000D01*
X125582844Y-116289999D01*
X125642372Y-116283598D01*
X125642379Y-116283596D01*
X125777086Y-116233354D01*
X125777093Y-116233350D01*
X125892187Y-116147190D01*
X125892190Y-116147187D01*
X125978350Y-116032093D01*
X125978354Y-116032086D01*
X126028596Y-115897379D01*
X126028598Y-115897372D01*
X126034999Y-115837844D01*
X126035000Y-115837827D01*
X126035000Y-114770000D01*
X125215686Y-114770000D01*
X125220080Y-114765606D01*
X125272741Y-114674394D01*
X125300000Y-114572661D01*
X125300000Y-114467339D01*
X125272741Y-114365606D01*
X125220080Y-114274394D01*
X125215686Y-114270000D01*
X126035000Y-114270000D01*
X126035000Y-113202172D01*
X126034999Y-113202155D01*
X126028598Y-113142627D01*
X126028596Y-113142620D01*
X125978354Y-113007913D01*
X125978350Y-113007906D01*
X125892190Y-112892812D01*
X125892187Y-112892809D01*
X125777093Y-112806649D01*
X125777086Y-112806645D01*
X125642379Y-112756403D01*
X125642372Y-112756401D01*
X125582844Y-112750000D01*
X125150000Y-112750000D01*
X125150000Y-114204314D01*
X125145606Y-114199920D01*
X125054394Y-114147259D01*
X124952661Y-114120000D01*
X124847339Y-114120000D01*
X124745606Y-114147259D01*
X124654394Y-114199920D01*
X124650000Y-114204314D01*
X124650000Y-112750000D01*
X124217155Y-112750000D01*
X124157627Y-112756401D01*
X124157620Y-112756403D01*
X124022913Y-112806645D01*
X124022906Y-112806649D01*
X123907812Y-112892809D01*
X123907809Y-112892812D01*
X123821649Y-113007906D01*
X123821645Y-113007913D01*
X123771403Y-113142620D01*
X123771401Y-113142627D01*
X123765000Y-113202155D01*
X103500500Y-113202155D01*
X103500500Y-94284655D01*
X108884500Y-94284655D01*
X108884500Y-96555354D01*
X108890825Y-96624966D01*
X108890828Y-96624977D01*
X108940747Y-96785175D01*
X108940749Y-96785179D01*
X109027556Y-96928777D01*
X109027560Y-96928782D01*
X109146217Y-97047439D01*
X109146222Y-97047443D01*
X109266815Y-97120343D01*
X109289822Y-97134251D01*
X109450029Y-97184173D01*
X109519653Y-97190500D01*
X110520346Y-97190499D01*
X110520353Y-97190499D01*
X110589966Y-97184174D01*
X110589969Y-97184173D01*
X110589971Y-97184173D01*
X110673591Y-97158115D01*
X110743451Y-97156964D01*
X110798163Y-97188820D01*
X123593453Y-109984111D01*
X123593454Y-109984112D01*
X123593457Y-109984114D01*
X123708189Y-110060775D01*
X123708190Y-110060775D01*
X123709390Y-110061577D01*
X123754196Y-110115189D01*
X123764500Y-110164680D01*
X123764500Y-110575354D01*
X123770825Y-110644966D01*
X123770828Y-110644977D01*
X123820747Y-110805175D01*
X123820749Y-110805179D01*
X123907556Y-110948777D01*
X123907560Y-110948782D01*
X124026217Y-111067439D01*
X124026222Y-111067443D01*
X124146815Y-111140343D01*
X124169822Y-111154251D01*
X124330029Y-111204173D01*
X124399653Y-111210500D01*
X125400346Y-111210499D01*
X125400353Y-111210499D01*
X125469966Y-111204174D01*
X125469969Y-111204173D01*
X125469971Y-111204173D01*
X125630178Y-111154251D01*
X125704089Y-111109570D01*
X125773777Y-111067443D01*
X125773778Y-111067441D01*
X125773783Y-111067439D01*
X125892439Y-110948783D01*
X125979251Y-110805178D01*
X126029173Y-110644971D01*
X126035500Y-110575347D01*
X126035499Y-109346517D01*
X126055184Y-109279479D01*
X126071813Y-109258842D01*
X139464114Y-95866543D01*
X139540775Y-95751811D01*
X139593580Y-95624329D01*
X139593580Y-95624325D01*
X139593582Y-95624322D01*
X139598934Y-95597411D01*
X139598934Y-95597409D01*
X139620500Y-95488993D01*
X139620500Y-90441518D01*
X139640185Y-90374479D01*
X139656815Y-90353841D01*
X140228781Y-89781874D01*
X140290102Y-89748391D01*
X140359793Y-89753375D01*
X140415727Y-89795246D01*
X140416778Y-89796672D01*
X140468028Y-89867212D01*
X140468032Y-89867217D01*
X140612786Y-90011971D01*
X140708385Y-90081426D01*
X140778390Y-90132287D01*
X140875455Y-90181744D01*
X140960776Y-90225218D01*
X140960778Y-90225218D01*
X140960781Y-90225220D01*
X141065137Y-90259127D01*
X141155465Y-90288477D01*
X141256557Y-90304488D01*
X141357648Y-90320500D01*
X141357649Y-90320500D01*
X141562351Y-90320500D01*
X141562352Y-90320500D01*
X141764534Y-90288477D01*
X141959219Y-90225220D01*
X142141610Y-90132287D01*
X142234590Y-90064732D01*
X142307213Y-90011971D01*
X142307215Y-90011968D01*
X142307219Y-90011966D01*
X142451966Y-89867219D01*
X142451968Y-89867215D01*
X142451971Y-89867213D01*
X142572284Y-89701614D01*
X142572286Y-89701611D01*
X142572287Y-89701610D01*
X142619795Y-89608369D01*
X142667770Y-89557574D01*
X142735591Y-89540779D01*
X142801725Y-89563316D01*
X142840765Y-89608370D01*
X142888140Y-89701349D01*
X143008417Y-89866894D01*
X143008417Y-89866895D01*
X143153104Y-90011582D01*
X143318650Y-90131859D01*
X143500968Y-90224754D01*
X143695578Y-90287988D01*
X143750000Y-90296607D01*
X143750000Y-89453012D01*
X143807007Y-89485925D01*
X143934174Y-89520000D01*
X144065826Y-89520000D01*
X144192993Y-89485925D01*
X144250000Y-89453012D01*
X144250000Y-90296606D01*
X144304421Y-90287988D01*
X144499031Y-90224754D01*
X144681349Y-90131859D01*
X144846894Y-90011582D01*
X144846895Y-90011582D01*
X144991582Y-89866895D01*
X144991582Y-89866894D01*
X145111861Y-89701347D01*
X145159234Y-89608371D01*
X145207208Y-89557575D01*
X145275028Y-89540779D01*
X145341164Y-89563316D01*
X145380203Y-89608369D01*
X145427713Y-89701611D01*
X145548028Y-89867213D01*
X145692786Y-90011971D01*
X145788385Y-90081426D01*
X145858390Y-90132287D01*
X145955455Y-90181744D01*
X146040776Y-90225218D01*
X146040778Y-90225218D01*
X146040781Y-90225220D01*
X146145137Y-90259127D01*
X146235465Y-90288477D01*
X146336557Y-90304488D01*
X146437648Y-90320500D01*
X146437649Y-90320500D01*
X146642351Y-90320500D01*
X146642352Y-90320500D01*
X146844534Y-90288477D01*
X147039219Y-90225220D01*
X147221610Y-90132287D01*
X147314590Y-90064732D01*
X147387213Y-90011971D01*
X147387215Y-90011968D01*
X147387219Y-90011966D01*
X147531966Y-89867219D01*
X147531968Y-89867215D01*
X147531971Y-89867213D01*
X147593971Y-89781876D01*
X147652287Y-89701610D01*
X147745220Y-89519219D01*
X147808477Y-89324534D01*
X147840500Y-89122352D01*
X147840500Y-88917648D01*
X147808477Y-88715466D01*
X147807673Y-88712993D01*
X147745218Y-88520776D01*
X147652419Y-88338650D01*
X147652287Y-88338390D01*
X147644556Y-88327749D01*
X147531971Y-88172786D01*
X147387213Y-88028028D01*
X147221613Y-87907715D01*
X147221612Y-87907714D01*
X147221610Y-87907713D01*
X147164653Y-87878691D01*
X147039223Y-87814781D01*
X146844534Y-87751522D01*
X146669995Y-87723878D01*
X146642352Y-87719500D01*
X146437648Y-87719500D01*
X146413329Y-87723351D01*
X146235465Y-87751522D01*
X146040776Y-87814781D01*
X145858386Y-87907715D01*
X145692786Y-88028028D01*
X145548028Y-88172786D01*
X145427713Y-88338388D01*
X145380203Y-88431630D01*
X145332228Y-88482426D01*
X145264407Y-88499220D01*
X145198272Y-88476682D01*
X145159234Y-88431628D01*
X145111861Y-88338652D01*
X144991582Y-88173105D01*
X144991582Y-88173104D01*
X144846895Y-88028417D01*
X144681349Y-87908140D01*
X144499029Y-87815244D01*
X144304413Y-87752009D01*
X144250000Y-87743390D01*
X144250000Y-88586988D01*
X144192993Y-88554075D01*
X144065826Y-88520000D01*
X143934174Y-88520000D01*
X143807007Y-88554075D01*
X143750000Y-88586988D01*
X143750000Y-87743390D01*
X143695586Y-87752009D01*
X143500970Y-87815244D01*
X143318650Y-87908140D01*
X143153105Y-88028417D01*
X143153104Y-88028417D01*
X143008417Y-88173104D01*
X143008417Y-88173105D01*
X142888140Y-88338650D01*
X142840765Y-88431629D01*
X142792790Y-88482425D01*
X142724969Y-88499220D01*
X142658834Y-88476682D01*
X142619795Y-88431629D01*
X142572419Y-88338650D01*
X142572287Y-88338390D01*
X142564556Y-88327749D01*
X142451971Y-88172786D01*
X142307213Y-88028028D01*
X142141613Y-87907715D01*
X142141612Y-87907714D01*
X142141610Y-87907713D01*
X142084653Y-87878691D01*
X141959223Y-87814781D01*
X141764534Y-87751522D01*
X141589995Y-87723878D01*
X141562352Y-87719500D01*
X141357648Y-87719500D01*
X141290254Y-87730174D01*
X141155464Y-87751523D01*
X141155461Y-87751523D01*
X140962817Y-87814117D01*
X140892975Y-87816112D01*
X140833143Y-87780031D01*
X140802315Y-87717330D01*
X140800499Y-87696186D01*
X140800499Y-84209155D01*
X153968560Y-84209155D01*
X173350989Y-84209155D01*
X173350989Y-81392503D01*
X153968560Y-81392503D01*
X153968560Y-84209155D01*
X140800499Y-84209155D01*
X140800499Y-75103812D01*
X140820184Y-75036773D01*
X140872988Y-74991018D01*
X140942146Y-74981074D01*
X140962808Y-74985878D01*
X141079506Y-75023796D01*
X141155465Y-75048477D01*
X141256557Y-75064488D01*
X141357648Y-75080500D01*
X141357649Y-75080500D01*
X141562351Y-75080500D01*
X141562352Y-75080500D01*
X141764534Y-75048477D01*
X141959219Y-74985220D01*
X142141610Y-74892287D01*
X142237901Y-74822328D01*
X142307213Y-74771971D01*
X142307215Y-74771968D01*
X142307219Y-74771966D01*
X142451966Y-74627219D01*
X142451968Y-74627215D01*
X142451971Y-74627213D01*
X142572284Y-74461614D01*
X142572285Y-74461613D01*
X142572287Y-74461610D01*
X142619516Y-74368917D01*
X142667489Y-74318123D01*
X142735310Y-74301328D01*
X142801445Y-74323865D01*
X142840485Y-74368919D01*
X142887715Y-74461614D01*
X143008028Y-74627213D01*
X143152786Y-74771971D01*
X143307749Y-74884556D01*
X143318390Y-74892287D01*
X143407212Y-74937544D01*
X143500776Y-74985218D01*
X143500778Y-74985218D01*
X143500781Y-74985220D01*
X143605137Y-75019127D01*
X143695465Y-75048477D01*
X143796557Y-75064488D01*
X143897648Y-75080500D01*
X143897649Y-75080500D01*
X144102351Y-75080500D01*
X144102352Y-75080500D01*
X144304534Y-75048477D01*
X144499219Y-74985220D01*
X144681610Y-74892287D01*
X144777901Y-74822328D01*
X144847213Y-74771971D01*
X144847215Y-74771968D01*
X144847219Y-74771966D01*
X144991966Y-74627219D01*
X145018330Y-74590930D01*
X145073658Y-74548265D01*
X145143271Y-74542284D01*
X145205067Y-74574889D01*
X145239426Y-74635726D01*
X145241938Y-74650559D01*
X145245907Y-74687480D01*
X145296202Y-74822328D01*
X145296206Y-74822335D01*
X145382452Y-74937544D01*
X145382455Y-74937547D01*
X145497664Y-75023793D01*
X145497671Y-75023797D01*
X145632517Y-75074091D01*
X145632516Y-75074091D01*
X145639444Y-75074835D01*
X145692127Y-75080500D01*
X147387872Y-75080499D01*
X147447483Y-75074091D01*
X147582331Y-75023796D01*
X147697546Y-74937546D01*
X147783796Y-74822331D01*
X147834091Y-74687483D01*
X147840500Y-74627873D01*
X147840499Y-72932128D01*
X147834091Y-72872517D01*
X147783796Y-72737669D01*
X147783795Y-72737668D01*
X147783793Y-72737664D01*
X147697547Y-72622455D01*
X147697544Y-72622452D01*
X147582335Y-72536206D01*
X147582328Y-72536202D01*
X147447482Y-72485908D01*
X147447483Y-72485908D01*
X147387883Y-72479501D01*
X147387881Y-72479500D01*
X147387873Y-72479500D01*
X147387864Y-72479500D01*
X145692129Y-72479500D01*
X145692123Y-72479501D01*
X145632516Y-72485908D01*
X145497671Y-72536202D01*
X145497664Y-72536206D01*
X145382455Y-72622452D01*
X145382452Y-72622455D01*
X145296206Y-72737664D01*
X145296202Y-72737671D01*
X145245908Y-72872516D01*
X145241939Y-72909440D01*
X145215201Y-72973991D01*
X145157809Y-73013839D01*
X145087983Y-73016332D01*
X145027895Y-72980679D01*
X145018332Y-72969070D01*
X144991967Y-72932782D01*
X144847213Y-72788028D01*
X144681613Y-72667715D01*
X144681612Y-72667714D01*
X144681610Y-72667713D01*
X144624653Y-72638691D01*
X144499223Y-72574781D01*
X144304534Y-72511522D01*
X144129995Y-72483878D01*
X144102352Y-72479500D01*
X143897648Y-72479500D01*
X143873329Y-72483351D01*
X143695465Y-72511522D01*
X143500776Y-72574781D01*
X143318386Y-72667715D01*
X143152786Y-72788028D01*
X143008028Y-72932786D01*
X142887715Y-73098386D01*
X142840485Y-73191080D01*
X142792510Y-73241876D01*
X142724689Y-73258671D01*
X142658554Y-73236134D01*
X142619515Y-73191080D01*
X142572419Y-73098650D01*
X142572287Y-73098390D01*
X142510858Y-73013839D01*
X142451971Y-72932786D01*
X142307213Y-72788028D01*
X142141613Y-72667715D01*
X142141612Y-72667714D01*
X142141610Y-72667713D01*
X142084653Y-72638691D01*
X141959223Y-72574781D01*
X141764534Y-72511522D01*
X141589995Y-72483878D01*
X141562352Y-72479500D01*
X141357648Y-72479500D01*
X141317184Y-72485909D01*
X141155464Y-72511523D01*
X141155461Y-72511523D01*
X140962817Y-72574117D01*
X140892975Y-72576112D01*
X140833143Y-72540031D01*
X140802315Y-72477330D01*
X140800499Y-72456186D01*
X140800499Y-67451003D01*
X140773580Y-67315676D01*
X140773579Y-67315675D01*
X140773579Y-67315671D01*
X140733629Y-67219223D01*
X140720777Y-67188194D01*
X140720770Y-67188181D01*
X140644113Y-67073457D01*
X140644110Y-67073453D01*
X140616805Y-67046148D01*
X140583320Y-66984825D01*
X140582013Y-66939068D01*
X140600500Y-66822352D01*
X140600500Y-66617648D01*
X140582013Y-66500929D01*
X140590967Y-66431637D01*
X140616805Y-66393851D01*
X140853837Y-66156820D01*
X140915160Y-66123335D01*
X140941518Y-66120501D01*
X153196691Y-66120501D01*
X153263730Y-66140186D01*
X153309485Y-66192990D01*
X153319429Y-66262148D01*
X153314622Y-66282819D01*
X153271523Y-66415461D01*
X153271523Y-66415464D01*
X153239500Y-66617648D01*
X153239500Y-66822351D01*
X153271522Y-67024534D01*
X153334781Y-67219223D01*
X153427715Y-67401613D01*
X153548028Y-67567213D01*
X153692786Y-67711971D01*
X153847749Y-67824556D01*
X153858390Y-67832287D01*
X153974607Y-67891503D01*
X154040776Y-67925218D01*
X154040778Y-67925218D01*
X154040781Y-67925220D01*
X154145137Y-67959127D01*
X154235465Y-67988477D01*
X154336557Y-68004488D01*
X154437648Y-68020500D01*
X154437649Y-68020500D01*
X154642351Y-68020500D01*
X154642352Y-68020500D01*
X154844534Y-67988477D01*
X155039219Y-67925220D01*
X155221610Y-67832287D01*
X155314590Y-67764732D01*
X155387213Y-67711971D01*
X155387215Y-67711968D01*
X155387219Y-67711966D01*
X155531966Y-67567219D01*
X155531968Y-67567215D01*
X155531971Y-67567213D01*
X155635133Y-67425220D01*
X155652287Y-67401610D01*
X155745220Y-67219219D01*
X155808477Y-67024534D01*
X155840500Y-66822352D01*
X155840500Y-66617648D01*
X155808477Y-66415466D01*
X155808476Y-66415462D01*
X155808476Y-66415461D01*
X155765378Y-66282819D01*
X155763383Y-66212978D01*
X155799463Y-66153145D01*
X155862164Y-66122317D01*
X155883309Y-66120501D01*
X156675500Y-66120501D01*
X156742539Y-66140186D01*
X156788294Y-66192990D01*
X156799500Y-66244501D01*
X156799500Y-66322351D01*
X156831522Y-66524534D01*
X156894781Y-66719223D01*
X156987715Y-66901613D01*
X157108028Y-67067213D01*
X157252786Y-67211971D01*
X157395513Y-67315666D01*
X157418390Y-67332287D01*
X157534607Y-67391503D01*
X157600776Y-67425218D01*
X157600778Y-67425218D01*
X157600781Y-67425220D01*
X157680133Y-67451003D01*
X157795465Y-67488477D01*
X157896557Y-67504488D01*
X157997648Y-67520500D01*
X157997649Y-67520500D01*
X158202351Y-67520500D01*
X158202352Y-67520500D01*
X158404534Y-67488477D01*
X158599219Y-67425220D01*
X158781610Y-67332287D01*
X158937231Y-67219223D01*
X158947213Y-67211971D01*
X158947215Y-67211968D01*
X158947219Y-67211966D01*
X159091966Y-67067219D01*
X159091968Y-67067215D01*
X159091971Y-67067213D01*
X159200633Y-66917650D01*
X159212287Y-66901610D01*
X159305220Y-66719219D01*
X159368477Y-66524534D01*
X159400500Y-66322352D01*
X159400500Y-66117648D01*
X159368477Y-65915466D01*
X159305220Y-65720781D01*
X159305218Y-65720778D01*
X159305218Y-65720776D01*
X159259500Y-65631050D01*
X159212287Y-65538390D01*
X159204556Y-65527749D01*
X159091971Y-65372786D01*
X158947213Y-65228028D01*
X158781613Y-65107715D01*
X158781612Y-65107714D01*
X158781610Y-65107713D01*
X158724653Y-65078691D01*
X158599223Y-65014781D01*
X158404534Y-64951522D01*
X158229995Y-64923878D01*
X158202352Y-64919500D01*
X157997648Y-64919500D01*
X157880929Y-64937986D01*
X157811636Y-64929031D01*
X157773852Y-64903195D01*
X157746544Y-64875887D01*
X157631812Y-64799226D01*
X157631813Y-64799226D01*
X157631808Y-64799223D01*
X157504333Y-64746422D01*
X157504323Y-64746419D01*
X157368997Y-64719501D01*
X157368995Y-64719501D01*
X157368994Y-64719501D01*
X140531006Y-64719501D01*
X140531002Y-64719501D01*
X140422589Y-64741066D01*
X140422588Y-64741066D01*
X140395680Y-64746419D01*
X140395670Y-64746421D01*
X140268189Y-64799225D01*
X140153453Y-64875888D01*
X139626147Y-65403194D01*
X139564824Y-65436679D01*
X139519068Y-65437986D01*
X139462528Y-65429031D01*
X139402352Y-65419500D01*
X139197648Y-65419500D01*
X139080929Y-65437986D01*
X139011636Y-65429031D01*
X138973850Y-65403193D01*
X138919546Y-65348888D01*
X138919545Y-65348887D01*
X138804807Y-65272222D01*
X138677332Y-65219421D01*
X138677322Y-65219418D01*
X138541996Y-65192500D01*
X138541994Y-65192500D01*
X138541993Y-65192500D01*
X120995994Y-65192500D01*
X120858006Y-65192500D01*
X120858004Y-65192500D01*
X120722677Y-65219418D01*
X120722667Y-65219421D01*
X120595192Y-65272222D01*
X120480454Y-65348887D01*
X120126147Y-65703194D01*
X120064824Y-65736679D01*
X120019068Y-65737986D01*
X119969969Y-65730209D01*
X119902352Y-65719500D01*
X119697648Y-65719500D01*
X119673329Y-65723351D01*
X119495465Y-65751522D01*
X119300776Y-65814781D01*
X119118386Y-65907715D01*
X118952786Y-66028028D01*
X118808028Y-66172786D01*
X118687715Y-66338386D01*
X118594781Y-66520776D01*
X118531522Y-66715465D01*
X118499500Y-66917648D01*
X118499500Y-67122351D01*
X118531522Y-67324534D01*
X118594781Y-67519223D01*
X118687715Y-67701613D01*
X118808028Y-67867213D01*
X118952786Y-68011971D01*
X119107749Y-68124556D01*
X119118390Y-68132287D01*
X119234607Y-68191503D01*
X119300776Y-68225218D01*
X119300778Y-68225218D01*
X119300781Y-68225220D01*
X119405137Y-68259127D01*
X119495465Y-68288477D01*
X119596557Y-68304488D01*
X119697648Y-68320500D01*
X119697649Y-68320500D01*
X119902351Y-68320500D01*
X119902352Y-68320500D01*
X120104534Y-68288477D01*
X120299219Y-68225220D01*
X120481610Y-68132287D01*
X120608379Y-68040185D01*
X120647213Y-68011971D01*
X120647215Y-68011968D01*
X120647219Y-68011966D01*
X120791966Y-67867219D01*
X120791968Y-67867215D01*
X120791971Y-67867213D01*
X120904759Y-67711971D01*
X120912287Y-67701610D01*
X121005220Y-67519219D01*
X121068477Y-67324534D01*
X121100500Y-67122352D01*
X121100500Y-66917648D01*
X121082013Y-66800930D01*
X121082714Y-66795505D01*
X121080802Y-66790378D01*
X121087143Y-66761225D01*
X121090967Y-66731638D01*
X121094799Y-66726033D01*
X121095654Y-66722105D01*
X121116805Y-66693851D01*
X121144668Y-66665989D01*
X121180839Y-66629818D01*
X121242163Y-66596334D01*
X121268520Y-66593500D01*
X133645655Y-66593500D01*
X133712694Y-66613185D01*
X133758449Y-66665989D01*
X133768393Y-66735147D01*
X133768128Y-66736898D01*
X133739500Y-66917648D01*
X133739500Y-67122351D01*
X133771522Y-67324534D01*
X133834781Y-67519223D01*
X133927715Y-67701613D01*
X134048028Y-67867213D01*
X134192786Y-68011971D01*
X134347749Y-68124556D01*
X134358390Y-68132287D01*
X134474607Y-68191503D01*
X134540776Y-68225218D01*
X134540778Y-68225218D01*
X134540781Y-68225220D01*
X134645137Y-68259127D01*
X134735465Y-68288477D01*
X134836557Y-68304488D01*
X134937648Y-68320500D01*
X134937649Y-68320500D01*
X135142351Y-68320500D01*
X135142352Y-68320500D01*
X135344534Y-68288477D01*
X135539219Y-68225220D01*
X135721610Y-68132287D01*
X135848379Y-68040185D01*
X135887213Y-68011971D01*
X135887215Y-68011968D01*
X135887219Y-68011966D01*
X136031966Y-67867219D01*
X136031968Y-67867215D01*
X136031971Y-67867213D01*
X136144759Y-67711971D01*
X136152287Y-67701610D01*
X136245220Y-67519219D01*
X136308477Y-67324534D01*
X136340500Y-67122352D01*
X136340500Y-66917648D01*
X136337960Y-66901610D01*
X136311872Y-66736898D01*
X136320827Y-66667604D01*
X136365823Y-66614152D01*
X136432574Y-66593513D01*
X136434345Y-66593500D01*
X137875500Y-66593500D01*
X137942539Y-66613185D01*
X137988294Y-66665989D01*
X137999500Y-66717500D01*
X137999500Y-66822351D01*
X138031522Y-67024534D01*
X138094781Y-67219223D01*
X138187715Y-67401613D01*
X138308028Y-67567213D01*
X138452786Y-67711971D01*
X138607749Y-67824556D01*
X138618390Y-67832287D01*
X138734607Y-67891503D01*
X138800776Y-67925218D01*
X138800778Y-67925218D01*
X138800781Y-67925220D01*
X138905137Y-67959127D01*
X138995465Y-67988477D01*
X139096557Y-68004488D01*
X139197648Y-68020500D01*
X139275499Y-68020500D01*
X139342538Y-68040185D01*
X139388293Y-68092989D01*
X139399499Y-68144500D01*
X139399499Y-72398225D01*
X139379814Y-72465264D01*
X139327010Y-72511019D01*
X139257852Y-72520963D01*
X139237187Y-72516158D01*
X139224419Y-72512010D01*
X139170000Y-72503390D01*
X139170000Y-73346988D01*
X139112993Y-73314075D01*
X138985826Y-73280000D01*
X138854174Y-73280000D01*
X138727007Y-73314075D01*
X138670000Y-73346988D01*
X138670000Y-72503390D01*
X138615586Y-72512009D01*
X138420970Y-72575244D01*
X138238650Y-72668140D01*
X138073105Y-72788417D01*
X138073104Y-72788417D01*
X137928417Y-72933104D01*
X137928417Y-72933105D01*
X137808140Y-73098650D01*
X137760765Y-73191629D01*
X137712790Y-73242425D01*
X137644969Y-73259220D01*
X137578834Y-73236682D01*
X137539795Y-73191629D01*
X137492419Y-73098650D01*
X137492287Y-73098390D01*
X137430858Y-73013839D01*
X137371971Y-72932786D01*
X137227213Y-72788028D01*
X137061613Y-72667715D01*
X137061612Y-72667714D01*
X137061610Y-72667713D01*
X137004653Y-72638691D01*
X136879223Y-72574781D01*
X136684534Y-72511522D01*
X136509995Y-72483878D01*
X136482352Y-72479500D01*
X136277648Y-72479500D01*
X136253329Y-72483351D01*
X136075465Y-72511522D01*
X135880776Y-72574781D01*
X135698386Y-72667715D01*
X135532786Y-72788028D01*
X135388028Y-72932786D01*
X135267715Y-73098386D01*
X135220485Y-73191080D01*
X135172510Y-73241876D01*
X135104689Y-73258671D01*
X135038554Y-73236134D01*
X134999515Y-73191080D01*
X134952419Y-73098650D01*
X134952287Y-73098390D01*
X134890858Y-73013839D01*
X134831971Y-72932786D01*
X134687213Y-72788028D01*
X134521613Y-72667715D01*
X134521612Y-72667714D01*
X134521610Y-72667713D01*
X134464653Y-72638691D01*
X134339223Y-72574781D01*
X134144534Y-72511522D01*
X133969995Y-72483878D01*
X133942352Y-72479500D01*
X133737648Y-72479500D01*
X133713329Y-72483351D01*
X133535465Y-72511522D01*
X133340776Y-72574781D01*
X133158386Y-72667715D01*
X132992786Y-72788028D01*
X132848028Y-72932786D01*
X132727715Y-73098386D01*
X132680485Y-73191080D01*
X132632510Y-73241876D01*
X132564689Y-73258671D01*
X132498554Y-73236134D01*
X132459515Y-73191080D01*
X132412419Y-73098650D01*
X132412287Y-73098390D01*
X132350858Y-73013839D01*
X132291971Y-72932786D01*
X132147213Y-72788028D01*
X131981613Y-72667715D01*
X131981612Y-72667714D01*
X131981610Y-72667713D01*
X131924653Y-72638691D01*
X131799223Y-72574781D01*
X131604534Y-72511522D01*
X131429995Y-72483878D01*
X131402352Y-72479500D01*
X131197648Y-72479500D01*
X131173329Y-72483351D01*
X130995465Y-72511522D01*
X130800776Y-72574781D01*
X130618386Y-72667715D01*
X130452786Y-72788028D01*
X130308028Y-72932786D01*
X130187715Y-73098386D01*
X130140485Y-73191080D01*
X130092510Y-73241876D01*
X130024689Y-73258671D01*
X129958554Y-73236134D01*
X129919515Y-73191080D01*
X129872419Y-73098650D01*
X129872287Y-73098390D01*
X129810858Y-73013839D01*
X129751971Y-72932786D01*
X129607213Y-72788028D01*
X129441613Y-72667715D01*
X129441612Y-72667714D01*
X129441610Y-72667713D01*
X129384653Y-72638691D01*
X129259223Y-72574781D01*
X129064534Y-72511522D01*
X128889995Y-72483878D01*
X128862352Y-72479500D01*
X128657648Y-72479500D01*
X128633329Y-72483351D01*
X128455465Y-72511522D01*
X128260776Y-72574781D01*
X128078386Y-72667715D01*
X127912786Y-72788028D01*
X127768028Y-72932786D01*
X127647715Y-73098386D01*
X127600485Y-73191080D01*
X127552510Y-73241876D01*
X127484689Y-73258671D01*
X127418554Y-73236134D01*
X127379515Y-73191080D01*
X127332419Y-73098650D01*
X127332287Y-73098390D01*
X127270858Y-73013839D01*
X127211971Y-72932786D01*
X127067213Y-72788028D01*
X126901613Y-72667715D01*
X126901612Y-72667714D01*
X126901610Y-72667713D01*
X126844653Y-72638691D01*
X126719223Y-72574781D01*
X126524534Y-72511522D01*
X126349995Y-72483878D01*
X126322352Y-72479500D01*
X126117648Y-72479500D01*
X126093329Y-72483351D01*
X125915465Y-72511522D01*
X125720776Y-72574781D01*
X125538386Y-72667715D01*
X125372786Y-72788028D01*
X125228028Y-72932786D01*
X125107715Y-73098386D01*
X125060485Y-73191080D01*
X125012510Y-73241876D01*
X124944689Y-73258671D01*
X124878554Y-73236134D01*
X124839515Y-73191080D01*
X124792419Y-73098650D01*
X124792287Y-73098390D01*
X124730858Y-73013839D01*
X124671971Y-72932786D01*
X124527213Y-72788028D01*
X124361613Y-72667715D01*
X124361612Y-72667714D01*
X124361610Y-72667713D01*
X124304653Y-72638691D01*
X124179223Y-72574781D01*
X123984534Y-72511522D01*
X123809995Y-72483878D01*
X123782352Y-72479500D01*
X123577648Y-72479500D01*
X123553329Y-72483351D01*
X123375465Y-72511522D01*
X123180776Y-72574781D01*
X122998386Y-72667715D01*
X122832786Y-72788028D01*
X122688028Y-72932786D01*
X122567715Y-73098386D01*
X122520485Y-73191080D01*
X122472510Y-73241876D01*
X122404689Y-73258671D01*
X122338554Y-73236134D01*
X122299515Y-73191080D01*
X122252419Y-73098650D01*
X122252287Y-73098390D01*
X122190858Y-73013839D01*
X122131971Y-72932786D01*
X121987213Y-72788028D01*
X121821613Y-72667715D01*
X121821612Y-72667714D01*
X121821610Y-72667713D01*
X121764653Y-72638691D01*
X121639223Y-72574781D01*
X121444534Y-72511522D01*
X121269995Y-72483878D01*
X121242352Y-72479500D01*
X121037648Y-72479500D01*
X121013329Y-72483351D01*
X120835465Y-72511522D01*
X120640776Y-72574781D01*
X120458386Y-72667715D01*
X120292786Y-72788028D01*
X120148028Y-72932786D01*
X120027715Y-73098386D01*
X119980485Y-73191080D01*
X119932510Y-73241876D01*
X119864689Y-73258671D01*
X119798554Y-73236134D01*
X119759515Y-73191080D01*
X119712419Y-73098650D01*
X119712287Y-73098390D01*
X119650858Y-73013839D01*
X119591971Y-72932786D01*
X119447213Y-72788028D01*
X119281613Y-72667715D01*
X119281612Y-72667714D01*
X119281610Y-72667713D01*
X119224653Y-72638691D01*
X119099223Y-72574781D01*
X118904534Y-72511522D01*
X118729995Y-72483878D01*
X118702352Y-72479500D01*
X118497648Y-72479500D01*
X118473329Y-72483351D01*
X118295465Y-72511522D01*
X118100776Y-72574781D01*
X117918386Y-72667715D01*
X117752786Y-72788028D01*
X117608028Y-72932786D01*
X117487715Y-73098386D01*
X117440485Y-73191080D01*
X117392510Y-73241876D01*
X117324689Y-73258671D01*
X117258554Y-73236134D01*
X117219515Y-73191080D01*
X117172419Y-73098650D01*
X117172287Y-73098390D01*
X117110858Y-73013839D01*
X117051971Y-72932786D01*
X116907213Y-72788028D01*
X116741613Y-72667715D01*
X116741612Y-72667714D01*
X116741610Y-72667713D01*
X116684653Y-72638691D01*
X116559223Y-72574781D01*
X116364534Y-72511522D01*
X116189995Y-72483878D01*
X116162352Y-72479500D01*
X115957648Y-72479500D01*
X115933329Y-72483351D01*
X115755465Y-72511522D01*
X115560776Y-72574781D01*
X115378386Y-72667715D01*
X115212786Y-72788028D01*
X115068028Y-72932786D01*
X114947715Y-73098386D01*
X114900485Y-73191080D01*
X114852510Y-73241876D01*
X114784689Y-73258671D01*
X114718554Y-73236134D01*
X114679515Y-73191080D01*
X114632419Y-73098650D01*
X114632287Y-73098390D01*
X114570858Y-73013839D01*
X114511971Y-72932786D01*
X114367213Y-72788028D01*
X114201613Y-72667715D01*
X114201612Y-72667714D01*
X114201610Y-72667713D01*
X114144653Y-72638691D01*
X114019223Y-72574781D01*
X113824534Y-72511522D01*
X113649995Y-72483878D01*
X113622352Y-72479500D01*
X113417648Y-72479500D01*
X113393329Y-72483351D01*
X113215465Y-72511522D01*
X113020776Y-72574781D01*
X112838386Y-72667715D01*
X112672786Y-72788028D01*
X112528028Y-72932786D01*
X112407715Y-73098386D01*
X112360485Y-73191080D01*
X112312510Y-73241876D01*
X112244689Y-73258671D01*
X112178554Y-73236134D01*
X112139515Y-73191080D01*
X112092419Y-73098650D01*
X112092287Y-73098390D01*
X112030858Y-73013839D01*
X111971971Y-72932786D01*
X111827213Y-72788028D01*
X111661613Y-72667715D01*
X111661612Y-72667714D01*
X111661610Y-72667713D01*
X111604653Y-72638691D01*
X111479223Y-72574781D01*
X111284534Y-72511522D01*
X111109995Y-72483878D01*
X111082352Y-72479500D01*
X110877648Y-72479500D01*
X110853329Y-72483351D01*
X110675465Y-72511522D01*
X110480776Y-72574781D01*
X110298386Y-72667715D01*
X110132786Y-72788028D01*
X109988028Y-72932786D01*
X109867715Y-73098386D01*
X109774781Y-73280776D01*
X109711522Y-73475465D01*
X109679500Y-73677648D01*
X109679500Y-73882351D01*
X109711522Y-74084534D01*
X109774781Y-74279223D01*
X109867715Y-74461613D01*
X109988028Y-74627213D01*
X110132786Y-74771971D01*
X110287749Y-74884556D01*
X110298390Y-74892287D01*
X110387212Y-74937544D01*
X110480776Y-74985218D01*
X110480778Y-74985218D01*
X110480781Y-74985220D01*
X110585137Y-75019127D01*
X110675465Y-75048477D01*
X110776557Y-75064488D01*
X110877648Y-75080500D01*
X110877649Y-75080500D01*
X111082351Y-75080500D01*
X111082352Y-75080500D01*
X111284534Y-75048477D01*
X111479219Y-74985220D01*
X111661610Y-74892287D01*
X111757901Y-74822328D01*
X111827213Y-74771971D01*
X111827215Y-74771968D01*
X111827219Y-74771966D01*
X111971966Y-74627219D01*
X111971968Y-74627215D01*
X111971971Y-74627213D01*
X112092284Y-74461614D01*
X112092285Y-74461613D01*
X112092287Y-74461610D01*
X112139516Y-74368917D01*
X112187489Y-74318123D01*
X112255310Y-74301328D01*
X112321445Y-74323865D01*
X112360485Y-74368919D01*
X112407715Y-74461614D01*
X112528028Y-74627213D01*
X112672786Y-74771971D01*
X112827749Y-74884556D01*
X112838390Y-74892287D01*
X112927212Y-74937544D01*
X113020776Y-74985218D01*
X113020778Y-74985218D01*
X113020781Y-74985220D01*
X113125137Y-75019127D01*
X113215465Y-75048477D01*
X113316557Y-75064488D01*
X113417648Y-75080500D01*
X113417649Y-75080500D01*
X113622351Y-75080500D01*
X113622352Y-75080500D01*
X113824534Y-75048477D01*
X114019219Y-74985220D01*
X114201610Y-74892287D01*
X114297901Y-74822328D01*
X114367213Y-74771971D01*
X114367215Y-74771968D01*
X114367219Y-74771966D01*
X114511966Y-74627219D01*
X114511968Y-74627215D01*
X114511971Y-74627213D01*
X114632284Y-74461614D01*
X114632285Y-74461613D01*
X114632287Y-74461610D01*
X114679516Y-74368917D01*
X114727489Y-74318123D01*
X114795310Y-74301328D01*
X114861445Y-74323865D01*
X114900485Y-74368919D01*
X114947715Y-74461614D01*
X115068028Y-74627213D01*
X115212786Y-74771971D01*
X115367749Y-74884556D01*
X115378390Y-74892287D01*
X115467212Y-74937544D01*
X115560776Y-74985218D01*
X115560778Y-74985218D01*
X115560781Y-74985220D01*
X115665137Y-75019127D01*
X115755465Y-75048477D01*
X115856557Y-75064488D01*
X115957648Y-75080500D01*
X115957649Y-75080500D01*
X116162351Y-75080500D01*
X116162352Y-75080500D01*
X116364534Y-75048477D01*
X116559219Y-74985220D01*
X116741610Y-74892287D01*
X116837901Y-74822328D01*
X116907213Y-74771971D01*
X116907215Y-74771968D01*
X116907219Y-74771966D01*
X117051966Y-74627219D01*
X117051968Y-74627215D01*
X117051971Y-74627213D01*
X117172284Y-74461614D01*
X117172285Y-74461613D01*
X117172287Y-74461610D01*
X117219516Y-74368917D01*
X117267489Y-74318123D01*
X117335310Y-74301328D01*
X117401445Y-74323865D01*
X117440485Y-74368919D01*
X117487715Y-74461614D01*
X117608028Y-74627213D01*
X117752786Y-74771971D01*
X117907749Y-74884556D01*
X117918390Y-74892287D01*
X118007212Y-74937544D01*
X118100776Y-74985218D01*
X118100778Y-74985218D01*
X118100781Y-74985220D01*
X118205137Y-75019127D01*
X118295465Y-75048477D01*
X118396557Y-75064488D01*
X118497648Y-75080500D01*
X118497649Y-75080500D01*
X118702351Y-75080500D01*
X118702352Y-75080500D01*
X118904534Y-75048477D01*
X119099219Y-74985220D01*
X119281610Y-74892287D01*
X119377901Y-74822328D01*
X119447213Y-74771971D01*
X119447215Y-74771968D01*
X119447219Y-74771966D01*
X119591966Y-74627219D01*
X119591968Y-74627215D01*
X119591971Y-74627213D01*
X119712284Y-74461614D01*
X119712285Y-74461613D01*
X119712287Y-74461610D01*
X119759516Y-74368917D01*
X119807489Y-74318123D01*
X119875310Y-74301328D01*
X119941445Y-74323865D01*
X119980485Y-74368919D01*
X120027715Y-74461614D01*
X120148028Y-74627213D01*
X120292786Y-74771971D01*
X120447749Y-74884556D01*
X120458390Y-74892287D01*
X120547212Y-74937544D01*
X120640776Y-74985218D01*
X120640778Y-74985218D01*
X120640781Y-74985220D01*
X120745137Y-75019127D01*
X120835465Y-75048477D01*
X120936557Y-75064488D01*
X121037648Y-75080500D01*
X121037649Y-75080500D01*
X121242351Y-75080500D01*
X121242352Y-75080500D01*
X121444534Y-75048477D01*
X121639219Y-74985220D01*
X121821610Y-74892287D01*
X121917901Y-74822328D01*
X121987213Y-74771971D01*
X121987215Y-74771968D01*
X121987219Y-74771966D01*
X122131966Y-74627219D01*
X122131968Y-74627215D01*
X122131971Y-74627213D01*
X122252284Y-74461614D01*
X122252285Y-74461613D01*
X122252287Y-74461610D01*
X122299516Y-74368917D01*
X122347489Y-74318123D01*
X122415310Y-74301328D01*
X122481445Y-74323865D01*
X122520485Y-74368919D01*
X122567715Y-74461614D01*
X122688028Y-74627213D01*
X122832786Y-74771971D01*
X122987749Y-74884556D01*
X122998390Y-74892287D01*
X123087212Y-74937544D01*
X123180776Y-74985218D01*
X123180778Y-74985218D01*
X123180781Y-74985220D01*
X123285137Y-75019127D01*
X123375465Y-75048477D01*
X123476557Y-75064488D01*
X123577648Y-75080500D01*
X123577649Y-75080500D01*
X123782351Y-75080500D01*
X123782352Y-75080500D01*
X123984534Y-75048477D01*
X124179219Y-74985220D01*
X124361610Y-74892287D01*
X124457901Y-74822328D01*
X124527213Y-74771971D01*
X124527215Y-74771968D01*
X124527219Y-74771966D01*
X124671966Y-74627219D01*
X124671968Y-74627215D01*
X124671971Y-74627213D01*
X124792284Y-74461614D01*
X124792285Y-74461613D01*
X124792287Y-74461610D01*
X124839516Y-74368917D01*
X124887489Y-74318123D01*
X124955310Y-74301328D01*
X125021445Y-74323865D01*
X125060485Y-74368919D01*
X125107715Y-74461614D01*
X125228028Y-74627213D01*
X125372786Y-74771971D01*
X125527749Y-74884556D01*
X125538390Y-74892287D01*
X125627212Y-74937544D01*
X125720776Y-74985218D01*
X125720778Y-74985218D01*
X125720781Y-74985220D01*
X125825137Y-75019127D01*
X125915465Y-75048477D01*
X126016557Y-75064488D01*
X126117648Y-75080500D01*
X126117649Y-75080500D01*
X126322351Y-75080500D01*
X126322352Y-75080500D01*
X126524534Y-75048477D01*
X126719219Y-74985220D01*
X126901610Y-74892287D01*
X126997901Y-74822328D01*
X127067213Y-74771971D01*
X127067215Y-74771968D01*
X127067219Y-74771966D01*
X127211966Y-74627219D01*
X127211968Y-74627215D01*
X127211971Y-74627213D01*
X127332284Y-74461614D01*
X127332285Y-74461613D01*
X127332287Y-74461610D01*
X127379516Y-74368917D01*
X127427489Y-74318123D01*
X127495310Y-74301328D01*
X127561445Y-74323865D01*
X127600485Y-74368919D01*
X127647715Y-74461614D01*
X127768028Y-74627213D01*
X127912786Y-74771971D01*
X128067749Y-74884556D01*
X128078390Y-74892287D01*
X128167212Y-74937544D01*
X128260776Y-74985218D01*
X128260778Y-74985218D01*
X128260781Y-74985220D01*
X128365137Y-75019127D01*
X128455465Y-75048477D01*
X128556557Y-75064488D01*
X128657648Y-75080500D01*
X128657649Y-75080500D01*
X128862351Y-75080500D01*
X128862352Y-75080500D01*
X129064534Y-75048477D01*
X129259219Y-74985220D01*
X129441610Y-74892287D01*
X129537901Y-74822328D01*
X129607213Y-74771971D01*
X129607215Y-74771968D01*
X129607219Y-74771966D01*
X129751966Y-74627219D01*
X129751968Y-74627215D01*
X129751971Y-74627213D01*
X129872284Y-74461614D01*
X129872285Y-74461613D01*
X129872287Y-74461610D01*
X129919516Y-74368917D01*
X129967489Y-74318123D01*
X130035310Y-74301328D01*
X130101445Y-74323865D01*
X130140485Y-74368919D01*
X130187715Y-74461614D01*
X130308028Y-74627213D01*
X130452786Y-74771971D01*
X130607749Y-74884556D01*
X130618390Y-74892287D01*
X130707212Y-74937544D01*
X130800776Y-74985218D01*
X130800778Y-74985218D01*
X130800781Y-74985220D01*
X130905137Y-75019127D01*
X130995465Y-75048477D01*
X131096557Y-75064488D01*
X131197648Y-75080500D01*
X131197649Y-75080500D01*
X131402351Y-75080500D01*
X131402352Y-75080500D01*
X131604534Y-75048477D01*
X131799219Y-74985220D01*
X131981610Y-74892287D01*
X132077901Y-74822328D01*
X132147213Y-74771971D01*
X132147215Y-74771968D01*
X132147219Y-74771966D01*
X132291966Y-74627219D01*
X132291968Y-74627215D01*
X132291971Y-74627213D01*
X132412284Y-74461614D01*
X132412285Y-74461613D01*
X132412287Y-74461610D01*
X132459516Y-74368917D01*
X132507489Y-74318123D01*
X132575310Y-74301328D01*
X132641445Y-74323865D01*
X132680485Y-74368919D01*
X132727715Y-74461614D01*
X132848028Y-74627213D01*
X132992786Y-74771971D01*
X133147749Y-74884556D01*
X133158390Y-74892287D01*
X133247212Y-74937544D01*
X133340776Y-74985218D01*
X133340778Y-74985218D01*
X133340781Y-74985220D01*
X133445137Y-75019127D01*
X133535465Y-75048477D01*
X133636557Y-75064488D01*
X133737648Y-75080500D01*
X133737649Y-75080500D01*
X133942351Y-75080500D01*
X133942352Y-75080500D01*
X134144534Y-75048477D01*
X134339219Y-74985220D01*
X134521610Y-74892287D01*
X134617901Y-74822328D01*
X134687213Y-74771971D01*
X134687215Y-74771968D01*
X134687219Y-74771966D01*
X134831966Y-74627219D01*
X134831968Y-74627215D01*
X134831971Y-74627213D01*
X134952284Y-74461614D01*
X134952285Y-74461613D01*
X134952287Y-74461610D01*
X134999516Y-74368917D01*
X135047489Y-74318123D01*
X135115310Y-74301328D01*
X135181445Y-74323865D01*
X135220485Y-74368919D01*
X135267715Y-74461614D01*
X135388028Y-74627213D01*
X135532786Y-74771971D01*
X135687749Y-74884556D01*
X135698390Y-74892287D01*
X135787212Y-74937544D01*
X135880776Y-74985218D01*
X135880778Y-74985218D01*
X135880781Y-74985220D01*
X135985137Y-75019127D01*
X136075465Y-75048477D01*
X136176557Y-75064488D01*
X136277648Y-75080500D01*
X136277649Y-75080500D01*
X136482351Y-75080500D01*
X136482352Y-75080500D01*
X136684534Y-75048477D01*
X136879219Y-74985220D01*
X137061610Y-74892287D01*
X137157901Y-74822328D01*
X137227213Y-74771971D01*
X137227215Y-74771968D01*
X137227219Y-74771966D01*
X137371966Y-74627219D01*
X137371968Y-74627215D01*
X137371971Y-74627213D01*
X137492284Y-74461614D01*
X137492285Y-74461613D01*
X137492287Y-74461610D01*
X137539795Y-74368369D01*
X137587770Y-74317574D01*
X137655591Y-74300779D01*
X137721725Y-74323316D01*
X137760765Y-74368370D01*
X137808140Y-74461349D01*
X137928417Y-74626894D01*
X137928417Y-74626895D01*
X138073104Y-74771582D01*
X138238650Y-74891859D01*
X138420968Y-74984754D01*
X138615578Y-75047988D01*
X138670000Y-75056607D01*
X138670000Y-74213012D01*
X138727007Y-74245925D01*
X138854174Y-74280000D01*
X138985826Y-74280000D01*
X139112993Y-74245925D01*
X139170000Y-74213012D01*
X139170000Y-75056606D01*
X139224420Y-75047988D01*
X139237174Y-75043844D01*
X139307016Y-75041845D01*
X139366850Y-75077922D01*
X139397682Y-75140622D01*
X139399499Y-75161773D01*
X139399499Y-87637700D01*
X139379814Y-87704739D01*
X139327010Y-87750494D01*
X139257852Y-87760438D01*
X139237187Y-87755633D01*
X139224536Y-87751523D01*
X139089746Y-87730174D01*
X139022352Y-87719500D01*
X138817648Y-87719500D01*
X138793329Y-87723351D01*
X138615465Y-87751522D01*
X138420776Y-87814781D01*
X138238386Y-87907715D01*
X138072786Y-88028028D01*
X137928028Y-88172786D01*
X137807715Y-88338386D01*
X137760485Y-88431080D01*
X137712510Y-88481876D01*
X137644689Y-88498671D01*
X137578554Y-88476134D01*
X137539515Y-88431080D01*
X137492419Y-88338650D01*
X137492287Y-88338390D01*
X137484556Y-88327749D01*
X137371971Y-88172786D01*
X137227213Y-88028028D01*
X137061613Y-87907715D01*
X137061612Y-87907714D01*
X137061610Y-87907713D01*
X137004653Y-87878691D01*
X136879223Y-87814781D01*
X136684534Y-87751522D01*
X136509995Y-87723878D01*
X136482352Y-87719500D01*
X136277648Y-87719500D01*
X136253329Y-87723351D01*
X136075465Y-87751522D01*
X135880776Y-87814781D01*
X135698386Y-87907715D01*
X135532786Y-88028028D01*
X135388028Y-88172786D01*
X135267715Y-88338386D01*
X135220485Y-88431080D01*
X135172510Y-88481876D01*
X135104689Y-88498671D01*
X135038554Y-88476134D01*
X134999515Y-88431080D01*
X134952419Y-88338650D01*
X134952287Y-88338390D01*
X134944556Y-88327749D01*
X134831971Y-88172786D01*
X134687213Y-88028028D01*
X134521613Y-87907715D01*
X134521612Y-87907714D01*
X134521610Y-87907713D01*
X134464653Y-87878691D01*
X134339223Y-87814781D01*
X134144534Y-87751522D01*
X133969995Y-87723878D01*
X133942352Y-87719500D01*
X133737648Y-87719500D01*
X133713329Y-87723351D01*
X133535465Y-87751522D01*
X133340776Y-87814781D01*
X133158386Y-87907715D01*
X132992786Y-88028028D01*
X132848028Y-88172786D01*
X132727715Y-88338386D01*
X132680485Y-88431080D01*
X132632510Y-88481876D01*
X132564689Y-88498671D01*
X132498554Y-88476134D01*
X132459515Y-88431080D01*
X132412419Y-88338650D01*
X132412287Y-88338390D01*
X132404556Y-88327749D01*
X132291971Y-88172786D01*
X132147213Y-88028028D01*
X131981613Y-87907715D01*
X131981612Y-87907714D01*
X131981610Y-87907713D01*
X131924653Y-87878691D01*
X131799223Y-87814781D01*
X131604534Y-87751522D01*
X131429995Y-87723878D01*
X131402352Y-87719500D01*
X131197648Y-87719500D01*
X131173329Y-87723351D01*
X130995465Y-87751522D01*
X130800776Y-87814781D01*
X130618386Y-87907715D01*
X130452786Y-88028028D01*
X130308028Y-88172786D01*
X130187715Y-88338386D01*
X130140485Y-88431080D01*
X130092510Y-88481876D01*
X130024689Y-88498671D01*
X129958554Y-88476134D01*
X129919515Y-88431080D01*
X129872419Y-88338650D01*
X129872287Y-88338390D01*
X129864556Y-88327749D01*
X129751971Y-88172786D01*
X129607213Y-88028028D01*
X129441613Y-87907715D01*
X129441612Y-87907714D01*
X129441610Y-87907713D01*
X129384653Y-87878691D01*
X129259223Y-87814781D01*
X129064534Y-87751522D01*
X128889995Y-87723878D01*
X128862352Y-87719500D01*
X128657648Y-87719500D01*
X128633329Y-87723351D01*
X128455465Y-87751522D01*
X128260776Y-87814781D01*
X128078386Y-87907715D01*
X127912786Y-88028028D01*
X127768028Y-88172786D01*
X127647715Y-88338386D01*
X127600485Y-88431080D01*
X127552510Y-88481876D01*
X127484689Y-88498671D01*
X127418554Y-88476134D01*
X127379515Y-88431080D01*
X127332419Y-88338650D01*
X127332287Y-88338390D01*
X127324556Y-88327749D01*
X127211971Y-88172786D01*
X127067213Y-88028028D01*
X126901613Y-87907715D01*
X126901612Y-87907714D01*
X126901610Y-87907713D01*
X126844653Y-87878691D01*
X126719223Y-87814781D01*
X126524534Y-87751522D01*
X126349995Y-87723878D01*
X126322352Y-87719500D01*
X126117648Y-87719500D01*
X126093329Y-87723351D01*
X125915465Y-87751522D01*
X125720776Y-87814781D01*
X125538386Y-87907715D01*
X125372786Y-88028028D01*
X125228028Y-88172786D01*
X125107715Y-88338386D01*
X125060485Y-88431080D01*
X125012510Y-88481876D01*
X124944689Y-88498671D01*
X124878554Y-88476134D01*
X124839515Y-88431080D01*
X124792419Y-88338650D01*
X124792287Y-88338390D01*
X124784556Y-88327749D01*
X124671971Y-88172786D01*
X124527213Y-88028028D01*
X124361613Y-87907715D01*
X124361612Y-87907714D01*
X124361610Y-87907713D01*
X124304653Y-87878691D01*
X124179223Y-87814781D01*
X123984534Y-87751522D01*
X123809995Y-87723878D01*
X123782352Y-87719500D01*
X123577648Y-87719500D01*
X123553329Y-87723351D01*
X123375465Y-87751522D01*
X123180776Y-87814781D01*
X122998386Y-87907715D01*
X122832786Y-88028028D01*
X122688028Y-88172786D01*
X122567715Y-88338386D01*
X122520485Y-88431080D01*
X122472510Y-88481876D01*
X122404689Y-88498671D01*
X122338554Y-88476134D01*
X122299515Y-88431080D01*
X122252419Y-88338650D01*
X122252287Y-88338390D01*
X122244556Y-88327749D01*
X122131971Y-88172786D01*
X121987213Y-88028028D01*
X121821613Y-87907715D01*
X121821612Y-87907714D01*
X121821610Y-87907713D01*
X121764653Y-87878691D01*
X121639223Y-87814781D01*
X121444534Y-87751522D01*
X121269995Y-87723878D01*
X121242352Y-87719500D01*
X121037648Y-87719500D01*
X121013329Y-87723351D01*
X120835465Y-87751522D01*
X120640776Y-87814781D01*
X120458386Y-87907715D01*
X120292786Y-88028028D01*
X120148028Y-88172786D01*
X120027715Y-88338386D01*
X119980485Y-88431080D01*
X119932510Y-88481876D01*
X119864689Y-88498671D01*
X119798554Y-88476134D01*
X119759515Y-88431080D01*
X119712419Y-88338650D01*
X119712287Y-88338390D01*
X119704556Y-88327749D01*
X119591971Y-88172786D01*
X119447213Y-88028028D01*
X119281613Y-87907715D01*
X119281612Y-87907714D01*
X119281610Y-87907713D01*
X119224653Y-87878691D01*
X119099223Y-87814781D01*
X118904534Y-87751522D01*
X118729995Y-87723878D01*
X118702352Y-87719500D01*
X118497648Y-87719500D01*
X118473329Y-87723351D01*
X118295465Y-87751522D01*
X118100776Y-87814781D01*
X117918386Y-87907715D01*
X117752786Y-88028028D01*
X117608028Y-88172786D01*
X117487715Y-88338386D01*
X117440485Y-88431080D01*
X117392510Y-88481876D01*
X117324689Y-88498671D01*
X117258554Y-88476134D01*
X117219515Y-88431080D01*
X117172419Y-88338650D01*
X117172287Y-88338390D01*
X117164556Y-88327749D01*
X117051971Y-88172786D01*
X116907213Y-88028028D01*
X116741613Y-87907715D01*
X116741612Y-87907714D01*
X116741610Y-87907713D01*
X116684653Y-87878691D01*
X116559223Y-87814781D01*
X116364534Y-87751522D01*
X116189995Y-87723878D01*
X116162352Y-87719500D01*
X115957648Y-87719500D01*
X115933329Y-87723351D01*
X115755465Y-87751522D01*
X115560776Y-87814781D01*
X115378386Y-87907715D01*
X115212786Y-88028028D01*
X115068028Y-88172786D01*
X114947715Y-88338386D01*
X114900485Y-88431080D01*
X114852510Y-88481876D01*
X114784689Y-88498671D01*
X114718554Y-88476134D01*
X114679515Y-88431080D01*
X114632419Y-88338650D01*
X114632287Y-88338390D01*
X114624556Y-88327749D01*
X114511971Y-88172786D01*
X114367213Y-88028028D01*
X114201613Y-87907715D01*
X114201612Y-87907714D01*
X114201610Y-87907713D01*
X114144653Y-87878691D01*
X114019223Y-87814781D01*
X113824534Y-87751522D01*
X113649995Y-87723878D01*
X113622352Y-87719500D01*
X113417648Y-87719500D01*
X113393329Y-87723351D01*
X113215465Y-87751522D01*
X113020776Y-87814781D01*
X112838386Y-87907715D01*
X112672786Y-88028028D01*
X112528028Y-88172786D01*
X112407715Y-88338386D01*
X112360485Y-88431080D01*
X112312510Y-88481876D01*
X112244689Y-88498671D01*
X112178554Y-88476134D01*
X112139515Y-88431080D01*
X112092419Y-88338650D01*
X112092287Y-88338390D01*
X112084556Y-88327749D01*
X111971971Y-88172786D01*
X111827213Y-88028028D01*
X111661613Y-87907715D01*
X111661612Y-87907714D01*
X111661610Y-87907713D01*
X111604653Y-87878691D01*
X111479223Y-87814781D01*
X111284534Y-87751522D01*
X111109995Y-87723878D01*
X111082352Y-87719500D01*
X110877648Y-87719500D01*
X110853329Y-87723351D01*
X110675465Y-87751522D01*
X110480776Y-87814781D01*
X110298386Y-87907715D01*
X110132786Y-88028028D01*
X109988028Y-88172786D01*
X109867715Y-88338386D01*
X109774781Y-88520776D01*
X109711522Y-88715465D01*
X109679500Y-88917648D01*
X109679500Y-89122351D01*
X109711522Y-89324534D01*
X109774781Y-89519223D01*
X109838691Y-89644653D01*
X109854661Y-89675995D01*
X109867715Y-89701613D01*
X109988028Y-89867213D01*
X110132786Y-90011971D01*
X110228385Y-90081426D01*
X110298390Y-90132287D01*
X110395455Y-90181744D01*
X110480776Y-90225218D01*
X110480778Y-90225218D01*
X110480781Y-90225220D01*
X110585137Y-90259127D01*
X110675465Y-90288477D01*
X110776557Y-90304488D01*
X110877648Y-90320500D01*
X110877649Y-90320500D01*
X111082351Y-90320500D01*
X111082352Y-90320500D01*
X111284534Y-90288477D01*
X111479219Y-90225220D01*
X111661610Y-90132287D01*
X111754590Y-90064732D01*
X111827213Y-90011971D01*
X111827215Y-90011968D01*
X111827219Y-90011966D01*
X111971966Y-89867219D01*
X111971968Y-89867215D01*
X111971971Y-89867213D01*
X112092284Y-89701614D01*
X112092286Y-89701611D01*
X112092287Y-89701610D01*
X112139516Y-89608917D01*
X112187489Y-89558123D01*
X112255310Y-89541328D01*
X112321445Y-89563865D01*
X112360483Y-89608917D01*
X112404348Y-89695006D01*
X112407715Y-89701614D01*
X112528028Y-89867213D01*
X112672786Y-90011971D01*
X112768385Y-90081426D01*
X112838390Y-90132287D01*
X112935455Y-90181744D01*
X113020776Y-90225218D01*
X113020778Y-90225218D01*
X113020781Y-90225220D01*
X113125137Y-90259127D01*
X113215465Y-90288477D01*
X113316557Y-90304488D01*
X113417648Y-90320500D01*
X113417649Y-90320500D01*
X113622351Y-90320500D01*
X113622352Y-90320500D01*
X113824534Y-90288477D01*
X114019219Y-90225220D01*
X114201610Y-90132287D01*
X114294590Y-90064732D01*
X114367213Y-90011971D01*
X114367215Y-90011968D01*
X114367219Y-90011966D01*
X114511966Y-89867219D01*
X114511968Y-89867215D01*
X114511971Y-89867213D01*
X114632284Y-89701614D01*
X114632286Y-89701611D01*
X114632287Y-89701610D01*
X114679516Y-89608917D01*
X114727489Y-89558123D01*
X114795310Y-89541328D01*
X114861445Y-89563865D01*
X114900483Y-89608917D01*
X114944348Y-89695006D01*
X114947715Y-89701614D01*
X115068028Y-89867213D01*
X115212786Y-90011971D01*
X115308385Y-90081426D01*
X115378390Y-90132287D01*
X115475455Y-90181744D01*
X115560776Y-90225218D01*
X115560778Y-90225218D01*
X115560781Y-90225220D01*
X115665137Y-90259127D01*
X115755465Y-90288477D01*
X115856557Y-90304488D01*
X115957648Y-90320500D01*
X115957649Y-90320500D01*
X116162351Y-90320500D01*
X116162352Y-90320500D01*
X116364534Y-90288477D01*
X116559219Y-90225220D01*
X116741610Y-90132287D01*
X116834590Y-90064732D01*
X116907213Y-90011971D01*
X116907215Y-90011968D01*
X116907219Y-90011966D01*
X117051966Y-89867219D01*
X117051968Y-89867215D01*
X117051971Y-89867213D01*
X117172284Y-89701614D01*
X117172286Y-89701611D01*
X117172287Y-89701610D01*
X117219516Y-89608917D01*
X117267489Y-89558123D01*
X117335310Y-89541328D01*
X117401445Y-89563865D01*
X117440483Y-89608917D01*
X117484348Y-89695006D01*
X117487715Y-89701614D01*
X117608028Y-89867213D01*
X117752786Y-90011971D01*
X117848385Y-90081426D01*
X117918390Y-90132287D01*
X118015455Y-90181744D01*
X118100776Y-90225218D01*
X118100778Y-90225218D01*
X118100781Y-90225220D01*
X118205137Y-90259127D01*
X118295465Y-90288477D01*
X118396557Y-90304488D01*
X118497648Y-90320500D01*
X118497649Y-90320500D01*
X118702351Y-90320500D01*
X118702352Y-90320500D01*
X118904534Y-90288477D01*
X119099219Y-90225220D01*
X119281610Y-90132287D01*
X119374590Y-90064732D01*
X119447213Y-90011971D01*
X119447215Y-90011968D01*
X119447219Y-90011966D01*
X119591966Y-89867219D01*
X119591968Y-89867215D01*
X119591971Y-89867213D01*
X119712284Y-89701614D01*
X119712286Y-89701611D01*
X119712287Y-89701610D01*
X119759516Y-89608917D01*
X119807489Y-89558123D01*
X119875310Y-89541328D01*
X119941445Y-89563865D01*
X119980483Y-89608917D01*
X120024348Y-89695006D01*
X120027715Y-89701614D01*
X120148028Y-89867213D01*
X120292786Y-90011971D01*
X120388385Y-90081426D01*
X120458390Y-90132287D01*
X120555455Y-90181744D01*
X120640776Y-90225218D01*
X120640778Y-90225218D01*
X120640781Y-90225220D01*
X120745137Y-90259127D01*
X120835465Y-90288477D01*
X120936557Y-90304488D01*
X121037648Y-90320500D01*
X121037649Y-90320500D01*
X121242351Y-90320500D01*
X121242352Y-90320500D01*
X121444534Y-90288477D01*
X121639219Y-90225220D01*
X121821610Y-90132287D01*
X121914590Y-90064732D01*
X121987213Y-90011971D01*
X121987215Y-90011968D01*
X121987219Y-90011966D01*
X122131966Y-89867219D01*
X122131968Y-89867215D01*
X122131971Y-89867213D01*
X122252284Y-89701614D01*
X122252286Y-89701611D01*
X122252287Y-89701610D01*
X122299516Y-89608917D01*
X122347489Y-89558123D01*
X122415310Y-89541328D01*
X122481445Y-89563865D01*
X122520483Y-89608917D01*
X122564348Y-89695006D01*
X122567715Y-89701614D01*
X122688028Y-89867213D01*
X122832786Y-90011971D01*
X122928385Y-90081426D01*
X122998390Y-90132287D01*
X123095455Y-90181744D01*
X123180776Y-90225218D01*
X123180778Y-90225218D01*
X123180781Y-90225220D01*
X123285137Y-90259127D01*
X123375465Y-90288477D01*
X123476557Y-90304488D01*
X123577648Y-90320500D01*
X123577649Y-90320500D01*
X123782351Y-90320500D01*
X123782352Y-90320500D01*
X123984534Y-90288477D01*
X124179219Y-90225220D01*
X124361610Y-90132287D01*
X124454590Y-90064732D01*
X124527213Y-90011971D01*
X124527215Y-90011968D01*
X124527219Y-90011966D01*
X124671966Y-89867219D01*
X124671968Y-89867215D01*
X124671971Y-89867213D01*
X124792284Y-89701614D01*
X124792286Y-89701611D01*
X124792287Y-89701610D01*
X124839516Y-89608917D01*
X124887489Y-89558123D01*
X124955310Y-89541328D01*
X125021445Y-89563865D01*
X125060483Y-89608917D01*
X125104348Y-89695006D01*
X125107715Y-89701614D01*
X125228028Y-89867213D01*
X125372786Y-90011971D01*
X125468385Y-90081426D01*
X125538390Y-90132287D01*
X125635455Y-90181744D01*
X125720776Y-90225218D01*
X125720778Y-90225218D01*
X125720781Y-90225220D01*
X125825137Y-90259127D01*
X125915465Y-90288477D01*
X126016557Y-90304488D01*
X126117648Y-90320500D01*
X126117649Y-90320500D01*
X126322351Y-90320500D01*
X126322352Y-90320500D01*
X126524534Y-90288477D01*
X126719219Y-90225220D01*
X126901610Y-90132287D01*
X126994590Y-90064732D01*
X127067213Y-90011971D01*
X127067215Y-90011968D01*
X127067219Y-90011966D01*
X127211966Y-89867219D01*
X127211968Y-89867215D01*
X127211971Y-89867213D01*
X127332284Y-89701614D01*
X127332286Y-89701611D01*
X127332287Y-89701610D01*
X127379516Y-89608917D01*
X127427489Y-89558123D01*
X127495310Y-89541328D01*
X127561445Y-89563865D01*
X127600483Y-89608917D01*
X127644348Y-89695006D01*
X127647715Y-89701614D01*
X127768028Y-89867213D01*
X127912786Y-90011971D01*
X128008385Y-90081426D01*
X128078390Y-90132287D01*
X128175455Y-90181744D01*
X128260776Y-90225218D01*
X128260778Y-90225218D01*
X128260781Y-90225220D01*
X128365137Y-90259127D01*
X128455465Y-90288477D01*
X128556557Y-90304488D01*
X128657648Y-90320500D01*
X128657649Y-90320500D01*
X128850902Y-90320500D01*
X128917941Y-90340185D01*
X128963696Y-90392989D01*
X128973640Y-90462147D01*
X128944615Y-90525703D01*
X128938583Y-90532181D01*
X126184584Y-93286181D01*
X126123261Y-93319666D01*
X126096903Y-93322500D01*
X116683670Y-93322500D01*
X116683654Y-93322499D01*
X116676058Y-93322499D01*
X116517943Y-93322499D01*
X116441579Y-93342961D01*
X116365214Y-93363423D01*
X116365209Y-93363426D01*
X116228290Y-93442475D01*
X116228286Y-93442478D01*
X115982906Y-93687857D01*
X115921583Y-93721341D01*
X115851891Y-93716357D01*
X115831076Y-93706292D01*
X115830178Y-93705749D01*
X115669971Y-93655827D01*
X115669969Y-93655826D01*
X115669967Y-93655826D01*
X115621221Y-93651396D01*
X115600347Y-93649500D01*
X115600344Y-93649500D01*
X114599645Y-93649500D01*
X114530033Y-93655825D01*
X114530022Y-93655828D01*
X114369824Y-93705747D01*
X114369820Y-93705749D01*
X114226222Y-93792556D01*
X114226217Y-93792560D01*
X114107560Y-93911217D01*
X114107556Y-93911222D01*
X114020750Y-94054819D01*
X114020750Y-94054820D01*
X114020749Y-94054822D01*
X113995788Y-94134925D01*
X113970826Y-94215032D01*
X113970818Y-94215123D01*
X113964787Y-94281501D01*
X113964500Y-94284655D01*
X113964500Y-96555354D01*
X113970825Y-96624966D01*
X113970828Y-96624977D01*
X114020747Y-96785175D01*
X114020749Y-96785179D01*
X114107556Y-96928777D01*
X114107560Y-96928782D01*
X114226217Y-97047439D01*
X114226222Y-97047443D01*
X114346815Y-97120343D01*
X114369822Y-97134251D01*
X114530029Y-97184173D01*
X114599653Y-97190500D01*
X115600346Y-97190499D01*
X115600353Y-97190499D01*
X115669966Y-97184174D01*
X115669969Y-97184173D01*
X115669971Y-97184173D01*
X115830178Y-97134251D01*
X115904089Y-97089570D01*
X115973777Y-97047443D01*
X115973778Y-97047441D01*
X115973783Y-97047439D01*
X116092439Y-96928783D01*
X116179251Y-96785178D01*
X116229173Y-96624971D01*
X116235500Y-96555347D01*
X116235499Y-95185096D01*
X116244143Y-95155656D01*
X116250667Y-95125670D01*
X116254421Y-95120654D01*
X116255184Y-95118058D01*
X116271813Y-95097421D01*
X116292821Y-95076413D01*
X116354142Y-95042930D01*
X116423834Y-95047914D01*
X116479767Y-95089786D01*
X116504184Y-95155250D01*
X116504500Y-95164096D01*
X116504500Y-96555354D01*
X116510825Y-96624966D01*
X116510828Y-96624977D01*
X116560747Y-96785175D01*
X116560749Y-96785179D01*
X116647556Y-96928777D01*
X116647560Y-96928782D01*
X116766217Y-97047439D01*
X116766222Y-97047443D01*
X116886815Y-97120343D01*
X116909822Y-97134251D01*
X117070029Y-97184173D01*
X117139653Y-97190500D01*
X118140346Y-97190499D01*
X118140353Y-97190499D01*
X118209966Y-97184174D01*
X118209969Y-97184173D01*
X118209971Y-97184173D01*
X118370178Y-97134251D01*
X118444089Y-97089570D01*
X118513777Y-97047443D01*
X118513778Y-97047441D01*
X118513783Y-97047439D01*
X118632439Y-96928783D01*
X118719251Y-96785178D01*
X118769173Y-96624971D01*
X118775500Y-96555347D01*
X118775499Y-94647499D01*
X118778049Y-94638814D01*
X118776761Y-94629853D01*
X118787739Y-94605812D01*
X118795184Y-94580461D01*
X118802024Y-94574533D01*
X118805786Y-94566297D01*
X118828018Y-94552009D01*
X118847987Y-94534706D01*
X118858502Y-94532418D01*
X118864564Y-94528523D01*
X118899499Y-94523500D01*
X118920500Y-94523500D01*
X118987539Y-94543185D01*
X119033294Y-94595989D01*
X119044500Y-94647500D01*
X119044500Y-96737870D01*
X119044501Y-96737876D01*
X119050908Y-96797483D01*
X119101202Y-96932328D01*
X119101206Y-96932335D01*
X119187452Y-97047544D01*
X119187455Y-97047547D01*
X119302664Y-97133793D01*
X119302671Y-97133797D01*
X119437517Y-97184091D01*
X119437516Y-97184091D01*
X119444444Y-97184835D01*
X119497127Y-97190500D01*
X120862872Y-97190499D01*
X120922483Y-97184091D01*
X121057331Y-97133796D01*
X121172546Y-97047546D01*
X121258796Y-96932331D01*
X121309091Y-96797483D01*
X121315500Y-96737873D01*
X121315499Y-94647499D01*
X121335184Y-94580461D01*
X121387987Y-94534706D01*
X121439499Y-94523500D01*
X126310331Y-94523500D01*
X126310347Y-94523501D01*
X126317943Y-94523501D01*
X126476054Y-94523501D01*
X126476057Y-94523501D01*
X126628785Y-94482577D01*
X126678904Y-94453639D01*
X126765716Y-94403520D01*
X126877520Y-94291716D01*
X126877520Y-94291714D01*
X126887728Y-94281507D01*
X126887730Y-94281504D01*
X130855158Y-90314075D01*
X130916479Y-90280592D01*
X130981151Y-90283825D01*
X130995466Y-90288477D01*
X131197648Y-90320500D01*
X131197649Y-90320500D01*
X131402351Y-90320500D01*
X131402352Y-90320500D01*
X131604534Y-90288477D01*
X131799219Y-90225220D01*
X131981610Y-90132287D01*
X132074590Y-90064732D01*
X132147213Y-90011971D01*
X132147215Y-90011968D01*
X132147219Y-90011966D01*
X132291966Y-89867219D01*
X132291968Y-89867215D01*
X132291971Y-89867213D01*
X132412284Y-89701614D01*
X132412286Y-89701611D01*
X132412287Y-89701610D01*
X132459516Y-89608917D01*
X132507489Y-89558123D01*
X132575310Y-89541328D01*
X132641445Y-89563865D01*
X132680483Y-89608917D01*
X132724348Y-89695006D01*
X132727715Y-89701614D01*
X132848028Y-89867213D01*
X132992786Y-90011971D01*
X133088385Y-90081426D01*
X133158390Y-90132287D01*
X133255455Y-90181744D01*
X133340776Y-90225218D01*
X133340778Y-90225218D01*
X133340781Y-90225220D01*
X133445137Y-90259127D01*
X133535465Y-90288477D01*
X133636557Y-90304488D01*
X133737648Y-90320500D01*
X133737649Y-90320500D01*
X133942351Y-90320500D01*
X133942352Y-90320500D01*
X134144534Y-90288477D01*
X134339219Y-90225220D01*
X134521610Y-90132287D01*
X134614590Y-90064732D01*
X134687213Y-90011971D01*
X134687215Y-90011968D01*
X134687219Y-90011966D01*
X134831966Y-89867219D01*
X134831968Y-89867215D01*
X134831971Y-89867213D01*
X134952284Y-89701614D01*
X134952286Y-89701611D01*
X134952287Y-89701610D01*
X134999516Y-89608917D01*
X135047489Y-89558123D01*
X135115310Y-89541328D01*
X135181445Y-89563865D01*
X135220483Y-89608917D01*
X135264348Y-89695006D01*
X135267715Y-89701614D01*
X135388028Y-89867213D01*
X135532786Y-90011971D01*
X135628385Y-90081426D01*
X135698390Y-90132287D01*
X135795455Y-90181744D01*
X135880776Y-90225218D01*
X135880778Y-90225218D01*
X135880781Y-90225220D01*
X135985137Y-90259127D01*
X136075465Y-90288477D01*
X136176557Y-90304488D01*
X136277648Y-90320500D01*
X136277649Y-90320500D01*
X136482351Y-90320500D01*
X136482352Y-90320500D01*
X136684534Y-90288477D01*
X136879219Y-90225220D01*
X137061610Y-90132287D01*
X137154590Y-90064732D01*
X137227213Y-90011971D01*
X137227215Y-90011968D01*
X137227219Y-90011966D01*
X137371966Y-89867219D01*
X137371968Y-89867215D01*
X137371971Y-89867213D01*
X137492284Y-89701614D01*
X137492286Y-89701611D01*
X137492287Y-89701610D01*
X137539516Y-89608917D01*
X137587489Y-89558123D01*
X137655310Y-89541328D01*
X137721445Y-89563865D01*
X137760483Y-89608917D01*
X137804348Y-89695006D01*
X137807715Y-89701614D01*
X137928028Y-89867213D01*
X138072784Y-90011969D01*
X138168385Y-90081426D01*
X138211051Y-90136755D01*
X138219500Y-90181744D01*
X138219500Y-95078480D01*
X138199815Y-95145519D01*
X138183181Y-95166161D01*
X125678162Y-107671179D01*
X125616839Y-107704664D01*
X125553593Y-107701884D01*
X125469971Y-107675827D01*
X125400347Y-107669500D01*
X125400344Y-107669500D01*
X124399645Y-107669500D01*
X124330033Y-107675825D01*
X124330022Y-107675828D01*
X124169824Y-107725747D01*
X124169820Y-107725749D01*
X124026222Y-107812556D01*
X124026217Y-107812560D01*
X123907559Y-107931218D01*
X123844130Y-108036144D01*
X123792602Y-108083331D01*
X123723743Y-108095170D01*
X123659414Y-108067901D01*
X123650332Y-108059675D01*
X118815312Y-103224655D01*
X123764500Y-103224655D01*
X123764500Y-105495354D01*
X123770825Y-105564966D01*
X123770828Y-105564977D01*
X123820747Y-105725175D01*
X123820749Y-105725179D01*
X123907556Y-105868777D01*
X123907560Y-105868782D01*
X124026217Y-105987439D01*
X124026222Y-105987443D01*
X124146815Y-106060343D01*
X124169822Y-106074251D01*
X124330029Y-106124173D01*
X124399653Y-106130500D01*
X125400346Y-106130499D01*
X125400353Y-106130499D01*
X125469966Y-106124174D01*
X125469969Y-106124173D01*
X125469971Y-106124173D01*
X125630178Y-106074251D01*
X125704089Y-106029570D01*
X125773777Y-105987443D01*
X125773778Y-105987441D01*
X125773783Y-105987439D01*
X125892439Y-105868783D01*
X125979251Y-105725178D01*
X126029173Y-105564971D01*
X126035500Y-105495347D01*
X126035499Y-103224654D01*
X126035499Y-103224653D01*
X126035499Y-103224645D01*
X126029174Y-103155033D01*
X126029171Y-103155022D01*
X125979252Y-102994824D01*
X125979250Y-102994820D01*
X125892443Y-102851222D01*
X125892439Y-102851217D01*
X125773782Y-102732560D01*
X125773777Y-102732556D01*
X125630180Y-102645750D01*
X125630179Y-102645749D01*
X125630178Y-102645749D01*
X125469971Y-102595827D01*
X125469969Y-102595826D01*
X125469967Y-102595826D01*
X125421221Y-102591396D01*
X125400347Y-102589500D01*
X125400344Y-102589500D01*
X124399645Y-102589500D01*
X124330033Y-102595825D01*
X124330022Y-102595828D01*
X124169824Y-102645747D01*
X124169820Y-102645749D01*
X124026222Y-102732556D01*
X124026217Y-102732560D01*
X123907560Y-102851217D01*
X123907556Y-102851222D01*
X123820750Y-102994819D01*
X123770826Y-103155032D01*
X123764500Y-103224655D01*
X118815312Y-103224655D01*
X113735312Y-98144655D01*
X123764500Y-98144655D01*
X123764500Y-100415354D01*
X123770825Y-100484966D01*
X123770828Y-100484977D01*
X123820747Y-100645175D01*
X123820749Y-100645179D01*
X123907556Y-100788777D01*
X123907560Y-100788782D01*
X124026217Y-100907439D01*
X124026222Y-100907443D01*
X124146815Y-100980343D01*
X124169822Y-100994251D01*
X124330029Y-101044173D01*
X124399653Y-101050500D01*
X125400346Y-101050499D01*
X125400353Y-101050499D01*
X125469966Y-101044174D01*
X125469969Y-101044173D01*
X125469971Y-101044173D01*
X125630178Y-100994251D01*
X125704089Y-100949570D01*
X125773777Y-100907443D01*
X125773778Y-100907441D01*
X125773783Y-100907439D01*
X125892439Y-100788783D01*
X125979251Y-100645178D01*
X126029173Y-100484971D01*
X126035500Y-100415347D01*
X126035499Y-98144654D01*
X126035499Y-98144653D01*
X126035499Y-98144645D01*
X126029174Y-98075033D01*
X126029171Y-98075022D01*
X125979252Y-97914824D01*
X125979250Y-97914820D01*
X125892443Y-97771222D01*
X125892439Y-97771217D01*
X125773782Y-97652560D01*
X125773777Y-97652556D01*
X125630180Y-97565750D01*
X125630179Y-97565749D01*
X125630178Y-97565749D01*
X125469971Y-97515827D01*
X125469969Y-97515826D01*
X125469967Y-97515826D01*
X125421221Y-97511396D01*
X125400347Y-97509500D01*
X125400344Y-97509500D01*
X124399645Y-97509500D01*
X124330033Y-97515825D01*
X124330022Y-97515828D01*
X124169824Y-97565747D01*
X124169820Y-97565749D01*
X124026222Y-97652556D01*
X124026217Y-97652560D01*
X123907560Y-97771217D01*
X123907556Y-97771222D01*
X123820750Y-97914819D01*
X123770826Y-98075032D01*
X123764500Y-98144655D01*
X113735312Y-98144655D01*
X112991163Y-97400506D01*
X112957678Y-97339183D01*
X112962662Y-97269491D01*
X113004534Y-97213558D01*
X113067624Y-97189334D01*
X113129875Y-97183678D01*
X113129883Y-97183676D01*
X113289970Y-97133791D01*
X113289972Y-97133790D01*
X113433467Y-97047045D01*
X113433471Y-97047042D01*
X113552042Y-96928471D01*
X113552045Y-96928467D01*
X113638789Y-96784973D01*
X113688677Y-96624876D01*
X113695000Y-96555298D01*
X113695000Y-95670000D01*
X112875686Y-95670000D01*
X112880080Y-95665606D01*
X112932741Y-95574394D01*
X112960000Y-95472661D01*
X112960000Y-95367339D01*
X112932741Y-95265606D01*
X112880080Y-95174394D01*
X112875686Y-95170000D01*
X113694999Y-95170000D01*
X113694999Y-94284691D01*
X113688678Y-94215124D01*
X113688676Y-94215116D01*
X113638791Y-94055029D01*
X113638790Y-94055027D01*
X113552045Y-93911532D01*
X113552042Y-93911528D01*
X113433471Y-93792957D01*
X113433467Y-93792954D01*
X113289973Y-93706210D01*
X113129876Y-93656322D01*
X113060298Y-93650000D01*
X112810000Y-93650000D01*
X112810000Y-95104314D01*
X112805606Y-95099920D01*
X112714394Y-95047259D01*
X112612661Y-95020000D01*
X112507339Y-95020000D01*
X112405606Y-95047259D01*
X112314394Y-95099920D01*
X112310000Y-95104314D01*
X112310000Y-93650000D01*
X112059691Y-93650000D01*
X111990123Y-93656321D01*
X111990116Y-93656323D01*
X111830029Y-93706208D01*
X111830027Y-93706209D01*
X111686532Y-93792954D01*
X111686528Y-93792957D01*
X111567957Y-93911528D01*
X111567954Y-93911532D01*
X111481210Y-94055026D01*
X111431322Y-94215123D01*
X111425000Y-94284701D01*
X111425000Y-95170000D01*
X112244314Y-95170000D01*
X112239920Y-95174394D01*
X112187259Y-95265606D01*
X112160000Y-95367339D01*
X112160000Y-95472661D01*
X112187259Y-95574394D01*
X112239920Y-95665606D01*
X112244314Y-95670000D01*
X111420420Y-95670000D01*
X111369182Y-95697976D01*
X111299491Y-95692989D01*
X111255147Y-95664490D01*
X111191818Y-95601161D01*
X111158333Y-95539838D01*
X111155499Y-95513480D01*
X111155499Y-94284645D01*
X111149174Y-94215033D01*
X111149171Y-94215022D01*
X111099252Y-94054824D01*
X111099250Y-94054820D01*
X111012443Y-93911222D01*
X111012439Y-93911217D01*
X110893782Y-93792560D01*
X110893777Y-93792556D01*
X110750180Y-93705750D01*
X110750179Y-93705749D01*
X110750178Y-93705749D01*
X110589971Y-93655827D01*
X110589969Y-93655826D01*
X110589967Y-93655826D01*
X110541221Y-93651396D01*
X110520347Y-93649500D01*
X110520344Y-93649500D01*
X109519645Y-93649500D01*
X109450033Y-93655825D01*
X109450022Y-93655828D01*
X109289824Y-93705747D01*
X109289820Y-93705749D01*
X109146222Y-93792556D01*
X109146217Y-93792560D01*
X109027560Y-93911217D01*
X109027556Y-93911222D01*
X108940750Y-94054819D01*
X108940750Y-94054820D01*
X108940749Y-94054822D01*
X108915788Y-94134925D01*
X108890826Y-94215032D01*
X108890818Y-94215123D01*
X108884787Y-94281501D01*
X108884500Y-94284655D01*
X103500500Y-94284655D01*
X103500500Y-69437648D01*
X112619500Y-69437648D01*
X112619500Y-69642351D01*
X112651522Y-69844534D01*
X112714781Y-70039223D01*
X112807715Y-70221613D01*
X112928028Y-70387213D01*
X113072786Y-70531971D01*
X113227749Y-70644556D01*
X113238390Y-70652287D01*
X113354607Y-70711503D01*
X113420776Y-70745218D01*
X113420778Y-70745218D01*
X113420781Y-70745220D01*
X113525137Y-70779127D01*
X113615465Y-70808477D01*
X113716557Y-70824488D01*
X113817648Y-70840500D01*
X113817649Y-70840500D01*
X114022351Y-70840500D01*
X114022352Y-70840500D01*
X114224534Y-70808477D01*
X114419219Y-70745220D01*
X114601610Y-70652287D01*
X114694590Y-70584732D01*
X114767213Y-70531971D01*
X114767215Y-70531968D01*
X114767219Y-70531966D01*
X114911966Y-70387219D01*
X114911968Y-70387215D01*
X114911971Y-70387213D01*
X114964732Y-70314590D01*
X115032287Y-70221610D01*
X115125220Y-70039219D01*
X115188477Y-69844534D01*
X115220500Y-69642352D01*
X115220500Y-69437648D01*
X115188477Y-69235466D01*
X115125220Y-69040781D01*
X115125218Y-69040778D01*
X115125218Y-69040776D01*
X115091503Y-68974607D01*
X115032287Y-68858390D01*
X115024556Y-68847749D01*
X114911971Y-68692786D01*
X114767213Y-68548028D01*
X114601613Y-68427715D01*
X114601612Y-68427714D01*
X114601610Y-68427713D01*
X114544653Y-68398691D01*
X114419223Y-68334781D01*
X114224534Y-68271522D01*
X114049995Y-68243878D01*
X114022352Y-68239500D01*
X113817648Y-68239500D01*
X113793329Y-68243351D01*
X113615465Y-68271522D01*
X113420776Y-68334781D01*
X113238386Y-68427715D01*
X113072786Y-68548028D01*
X112928028Y-68692786D01*
X112807715Y-68858386D01*
X112714781Y-69040776D01*
X112651522Y-69235465D01*
X112619500Y-69437648D01*
X103500500Y-69437648D01*
X103500500Y-61589778D01*
X117059500Y-61589778D01*
X117059500Y-61810222D01*
X117076742Y-61919086D01*
X117093985Y-62027952D01*
X117162103Y-62237603D01*
X117162104Y-62237606D01*
X117262187Y-62434025D01*
X117391752Y-62612358D01*
X117391756Y-62612363D01*
X117547636Y-62768243D01*
X117547641Y-62768247D01*
X117656330Y-62847213D01*
X117725978Y-62897815D01*
X117842501Y-62957187D01*
X117922393Y-62997895D01*
X117922396Y-62997896D01*
X118027221Y-63031955D01*
X118132049Y-63066015D01*
X118349778Y-63100500D01*
X118349779Y-63100500D01*
X118570221Y-63100500D01*
X118570222Y-63100500D01*
X118787951Y-63066015D01*
X118997606Y-62997895D01*
X119194022Y-62897815D01*
X119372365Y-62768242D01*
X119422924Y-62717682D01*
X119484245Y-62684198D01*
X119553936Y-62689182D01*
X119609870Y-62731053D01*
X119626786Y-62762030D01*
X119656646Y-62842087D01*
X119656649Y-62842093D01*
X119742809Y-62957187D01*
X119742812Y-62957190D01*
X119857906Y-63043350D01*
X119857913Y-63043354D01*
X119992620Y-63093596D01*
X119992627Y-63093598D01*
X120052155Y-63099999D01*
X120052172Y-63100000D01*
X120750000Y-63100000D01*
X120750000Y-62075277D01*
X120826306Y-62119333D01*
X120940756Y-62150000D01*
X121059244Y-62150000D01*
X121173694Y-62119333D01*
X121250000Y-62075277D01*
X121250000Y-63100000D01*
X121947828Y-63100000D01*
X121947844Y-63099999D01*
X122007372Y-63093598D01*
X122007379Y-63093596D01*
X122142086Y-63043354D01*
X122142093Y-63043350D01*
X122257187Y-62957190D01*
X122257190Y-62957187D01*
X122343350Y-62842093D01*
X122343354Y-62842086D01*
X122393596Y-62707379D01*
X122393598Y-62707372D01*
X122399999Y-62647844D01*
X122400000Y-62647827D01*
X122400000Y-61950000D01*
X121375278Y-61950000D01*
X121405484Y-61897682D01*
X124800000Y-61897682D01*
X124800000Y-62102317D01*
X124832009Y-62304417D01*
X124895244Y-62499031D01*
X124988141Y-62681350D01*
X124988147Y-62681359D01*
X125020523Y-62725921D01*
X125020524Y-62725922D01*
X125700000Y-62046446D01*
X125700000Y-62052661D01*
X125727259Y-62154394D01*
X125779920Y-62245606D01*
X125854394Y-62320080D01*
X125945606Y-62372741D01*
X126047339Y-62400000D01*
X126053553Y-62400000D01*
X125374076Y-63079474D01*
X125418650Y-63111859D01*
X125600968Y-63204755D01*
X125795582Y-63267990D01*
X125997683Y-63300000D01*
X126202317Y-63300000D01*
X126404417Y-63267990D01*
X126599031Y-63204755D01*
X126781349Y-63111859D01*
X126825921Y-63079474D01*
X126146447Y-62400000D01*
X126152661Y-62400000D01*
X126254394Y-62372741D01*
X126345606Y-62320080D01*
X126420080Y-62245606D01*
X126472741Y-62154394D01*
X126500000Y-62052661D01*
X126500000Y-62046447D01*
X127179474Y-62725921D01*
X127211859Y-62681349D01*
X127239233Y-62627624D01*
X127287207Y-62576827D01*
X127355028Y-62560031D01*
X127421163Y-62582567D01*
X127460203Y-62627621D01*
X127487713Y-62681611D01*
X127608028Y-62847213D01*
X127752786Y-62991971D01*
X127901477Y-63099999D01*
X127918390Y-63112287D01*
X128034607Y-63171503D01*
X128100776Y-63205218D01*
X128100778Y-63205218D01*
X128100781Y-63205220D01*
X128205137Y-63239127D01*
X128295465Y-63268477D01*
X128396557Y-63284488D01*
X128497648Y-63300500D01*
X128497649Y-63300500D01*
X128702351Y-63300500D01*
X128702352Y-63300500D01*
X128904534Y-63268477D01*
X129099219Y-63205220D01*
X129281610Y-63112287D01*
X129376494Y-63043350D01*
X129447213Y-62991971D01*
X129447215Y-62991968D01*
X129447219Y-62991966D01*
X129591966Y-62847219D01*
X129591968Y-62847215D01*
X129591971Y-62847213D01*
X129653859Y-62762030D01*
X129712287Y-62681610D01*
X129805220Y-62499219D01*
X129868477Y-62304534D01*
X129900500Y-62102352D01*
X129900500Y-61897648D01*
X129878579Y-61759244D01*
X129868477Y-61695465D01*
X129822077Y-61552661D01*
X129805220Y-61500781D01*
X129805218Y-61500778D01*
X129805218Y-61500776D01*
X129778893Y-61449111D01*
X129762750Y-61417429D01*
X129752688Y-61397682D01*
X144600000Y-61397682D01*
X144600000Y-61602317D01*
X144632009Y-61804417D01*
X144695244Y-61999031D01*
X144788141Y-62181350D01*
X144788147Y-62181359D01*
X144820523Y-62225921D01*
X144820524Y-62225922D01*
X145500000Y-61546446D01*
X145500000Y-61552661D01*
X145527259Y-61654394D01*
X145579920Y-61745606D01*
X145654394Y-61820080D01*
X145745606Y-61872741D01*
X145847339Y-61900000D01*
X145853553Y-61900000D01*
X145174076Y-62579474D01*
X145218650Y-62611859D01*
X145400968Y-62704755D01*
X145595582Y-62767990D01*
X145797683Y-62800000D01*
X146002317Y-62800000D01*
X146204417Y-62767990D01*
X146399031Y-62704755D01*
X146581349Y-62611859D01*
X146625921Y-62579474D01*
X145946447Y-61900000D01*
X145952661Y-61900000D01*
X146054394Y-61872741D01*
X146145606Y-61820080D01*
X146220080Y-61745606D01*
X146272741Y-61654394D01*
X146300000Y-61552661D01*
X146300000Y-61546447D01*
X146979474Y-62225921D01*
X147011859Y-62181349D01*
X147039233Y-62127624D01*
X147087207Y-62076827D01*
X147155028Y-62060031D01*
X147221163Y-62082567D01*
X147260203Y-62127621D01*
X147287713Y-62181611D01*
X147408028Y-62347213D01*
X147552786Y-62491971D01*
X147707749Y-62604556D01*
X147718390Y-62612287D01*
X147834607Y-62671503D01*
X147900776Y-62705218D01*
X147900778Y-62705218D01*
X147900781Y-62705220D01*
X147980287Y-62731053D01*
X148095465Y-62768477D01*
X148196557Y-62784488D01*
X148297648Y-62800500D01*
X148297649Y-62800500D01*
X148502351Y-62800500D01*
X148502352Y-62800500D01*
X148704534Y-62768477D01*
X148899219Y-62705220D01*
X149081610Y-62612287D01*
X149237231Y-62499223D01*
X149247213Y-62491971D01*
X149247215Y-62491968D01*
X149247219Y-62491966D01*
X149391966Y-62347219D01*
X149391968Y-62347215D01*
X149391971Y-62347213D01*
X149444732Y-62274590D01*
X149512287Y-62181610D01*
X149605220Y-61999219D01*
X149668477Y-61804534D01*
X149700500Y-61602352D01*
X149700500Y-61397648D01*
X149680928Y-61274076D01*
X149668477Y-61195465D01*
X149646315Y-61127259D01*
X149605220Y-61000781D01*
X149603624Y-60997648D01*
X163199500Y-60997648D01*
X163199500Y-61202351D01*
X163231522Y-61404534D01*
X163294781Y-61599223D01*
X163335899Y-61679920D01*
X163387585Y-61781359D01*
X163387715Y-61781613D01*
X163508028Y-61947213D01*
X163652786Y-62091971D01*
X163807749Y-62204556D01*
X163818390Y-62212287D01*
X163934607Y-62271503D01*
X164000776Y-62305218D01*
X164000778Y-62305218D01*
X164000781Y-62305220D01*
X164105137Y-62339127D01*
X164195465Y-62368477D01*
X164222387Y-62372741D01*
X164397648Y-62400500D01*
X164397649Y-62400500D01*
X164602351Y-62400500D01*
X164602352Y-62400500D01*
X164804534Y-62368477D01*
X164999219Y-62305220D01*
X165181610Y-62212287D01*
X165298144Y-62127621D01*
X165347213Y-62091971D01*
X165347215Y-62091968D01*
X165347219Y-62091966D01*
X165491966Y-61947219D01*
X165491968Y-61947215D01*
X165491971Y-61947213D01*
X165612286Y-61781611D01*
X165612415Y-61781359D01*
X165639795Y-61727621D01*
X165687769Y-61676826D01*
X165755589Y-61660030D01*
X165821725Y-61682567D01*
X165860765Y-61727621D01*
X165888141Y-61781350D01*
X165888147Y-61781359D01*
X165920523Y-61825921D01*
X165920524Y-61825922D01*
X166600000Y-61146446D01*
X166600000Y-61152661D01*
X166627259Y-61254394D01*
X166679920Y-61345606D01*
X166754394Y-61420080D01*
X166845606Y-61472741D01*
X166947339Y-61500000D01*
X166953553Y-61500000D01*
X166274076Y-62179474D01*
X166318650Y-62211859D01*
X166500968Y-62304755D01*
X166695582Y-62367990D01*
X166897683Y-62400000D01*
X167102317Y-62400000D01*
X167304417Y-62367990D01*
X167499031Y-62304755D01*
X167681349Y-62211859D01*
X167725921Y-62179474D01*
X167046447Y-61500000D01*
X167052661Y-61500000D01*
X167154394Y-61472741D01*
X167245606Y-61420080D01*
X167320080Y-61345606D01*
X167372741Y-61254394D01*
X167400000Y-61152661D01*
X167400000Y-61146448D01*
X168079474Y-61825922D01*
X168079474Y-61825921D01*
X168111859Y-61781349D01*
X168204755Y-61599031D01*
X168267990Y-61404417D01*
X168300000Y-61202317D01*
X168300000Y-60997682D01*
X168267990Y-60795582D01*
X168204755Y-60600968D01*
X168111859Y-60418650D01*
X168079474Y-60374077D01*
X168079474Y-60374076D01*
X167400000Y-61053551D01*
X167400000Y-61047339D01*
X167372741Y-60945606D01*
X167320080Y-60854394D01*
X167245606Y-60779920D01*
X167154394Y-60727259D01*
X167052661Y-60700000D01*
X167046446Y-60700000D01*
X167725922Y-60020524D01*
X167725921Y-60020523D01*
X167681359Y-59988147D01*
X167681350Y-59988141D01*
X167499031Y-59895244D01*
X167304417Y-59832009D01*
X167102317Y-59800000D01*
X166897683Y-59800000D01*
X166695582Y-59832009D01*
X166500968Y-59895244D01*
X166318644Y-59988143D01*
X166274077Y-60020523D01*
X166274077Y-60020524D01*
X166953554Y-60700000D01*
X166947339Y-60700000D01*
X166845606Y-60727259D01*
X166754394Y-60779920D01*
X166679920Y-60854394D01*
X166627259Y-60945606D01*
X166600000Y-61047339D01*
X166600000Y-61053553D01*
X165920524Y-60374077D01*
X165920523Y-60374077D01*
X165888143Y-60418644D01*
X165860765Y-60472378D01*
X165812790Y-60523174D01*
X165744969Y-60539969D01*
X165678834Y-60517431D01*
X165639795Y-60472378D01*
X165612287Y-60418390D01*
X165612285Y-60418387D01*
X165612284Y-60418385D01*
X165491971Y-60252786D01*
X165347213Y-60108028D01*
X165181613Y-59987715D01*
X165181612Y-59987714D01*
X165181610Y-59987713D01*
X165124653Y-59958691D01*
X164999223Y-59894781D01*
X164804534Y-59831522D01*
X164629995Y-59803878D01*
X164602352Y-59799500D01*
X164397648Y-59799500D01*
X164373329Y-59803351D01*
X164195465Y-59831522D01*
X164000776Y-59894781D01*
X163818386Y-59987715D01*
X163652786Y-60108028D01*
X163508028Y-60252786D01*
X163387715Y-60418386D01*
X163294781Y-60600776D01*
X163231522Y-60795465D01*
X163199500Y-60997648D01*
X149603624Y-60997648D01*
X149512287Y-60818390D01*
X149495134Y-60794781D01*
X149391971Y-60652786D01*
X149247213Y-60508028D01*
X149081613Y-60387715D01*
X149081612Y-60387714D01*
X149081610Y-60387713D01*
X149020636Y-60356645D01*
X148899223Y-60294781D01*
X148704534Y-60231522D01*
X148529995Y-60203878D01*
X148502352Y-60199500D01*
X148297648Y-60199500D01*
X148273329Y-60203351D01*
X148095465Y-60231522D01*
X147900776Y-60294781D01*
X147718386Y-60387715D01*
X147552786Y-60508028D01*
X147408028Y-60652786D01*
X147287714Y-60818386D01*
X147260203Y-60872379D01*
X147212227Y-60923174D01*
X147144406Y-60939968D01*
X147078272Y-60917429D01*
X147039234Y-60872376D01*
X147011861Y-60818652D01*
X146979474Y-60774077D01*
X146979474Y-60774076D01*
X146300000Y-61453551D01*
X146300000Y-61447339D01*
X146272741Y-61345606D01*
X146220080Y-61254394D01*
X146145606Y-61179920D01*
X146054394Y-61127259D01*
X145952661Y-61100000D01*
X145946446Y-61100000D01*
X146625922Y-60420524D01*
X146625921Y-60420523D01*
X146581359Y-60388147D01*
X146581350Y-60388141D01*
X146399031Y-60295244D01*
X146204417Y-60232009D01*
X146002317Y-60200000D01*
X145797683Y-60200000D01*
X145595582Y-60232009D01*
X145400968Y-60295244D01*
X145218644Y-60388143D01*
X145174077Y-60420523D01*
X145174077Y-60420524D01*
X145853554Y-61100000D01*
X145847339Y-61100000D01*
X145745606Y-61127259D01*
X145654394Y-61179920D01*
X145579920Y-61254394D01*
X145527259Y-61345606D01*
X145500000Y-61447339D01*
X145500000Y-61453553D01*
X144820524Y-60774077D01*
X144820523Y-60774077D01*
X144788143Y-60818644D01*
X144695244Y-61000968D01*
X144632009Y-61195582D01*
X144600000Y-61397682D01*
X129752688Y-61397682D01*
X129712287Y-61318390D01*
X129680092Y-61274077D01*
X129591971Y-61152786D01*
X129447213Y-61008028D01*
X129281613Y-60887715D01*
X129281612Y-60887714D01*
X129281610Y-60887713D01*
X129216218Y-60854394D01*
X129099223Y-60794781D01*
X128904534Y-60731522D01*
X128727398Y-60703467D01*
X128702352Y-60699500D01*
X128497648Y-60699500D01*
X128473329Y-60703351D01*
X128295465Y-60731522D01*
X128100776Y-60794781D01*
X127918386Y-60887715D01*
X127752786Y-61008028D01*
X127608028Y-61152786D01*
X127487714Y-61318386D01*
X127460203Y-61372379D01*
X127412227Y-61423174D01*
X127344406Y-61439968D01*
X127278272Y-61417429D01*
X127239234Y-61372376D01*
X127211861Y-61318652D01*
X127179474Y-61274077D01*
X127179474Y-61274076D01*
X126500000Y-61953551D01*
X126500000Y-61947339D01*
X126472741Y-61845606D01*
X126420080Y-61754394D01*
X126345606Y-61679920D01*
X126254394Y-61627259D01*
X126152661Y-61600000D01*
X126146446Y-61600000D01*
X126825922Y-60920524D01*
X126825921Y-60920523D01*
X126781359Y-60888147D01*
X126781350Y-60888141D01*
X126599031Y-60795244D01*
X126404417Y-60732009D01*
X126202317Y-60700000D01*
X125997683Y-60700000D01*
X125795582Y-60732009D01*
X125600968Y-60795244D01*
X125418644Y-60888143D01*
X125374077Y-60920523D01*
X125374077Y-60920524D01*
X126053554Y-61600000D01*
X126047339Y-61600000D01*
X125945606Y-61627259D01*
X125854394Y-61679920D01*
X125779920Y-61754394D01*
X125727259Y-61845606D01*
X125700000Y-61947339D01*
X125700000Y-61953553D01*
X125020524Y-61274077D01*
X125020523Y-61274077D01*
X124988143Y-61318644D01*
X124895244Y-61500968D01*
X124832009Y-61695582D01*
X124800000Y-61897682D01*
X121405484Y-61897682D01*
X121419333Y-61873694D01*
X121450000Y-61759244D01*
X121450000Y-61640756D01*
X121419333Y-61526306D01*
X121375278Y-61450000D01*
X122400000Y-61450000D01*
X122400000Y-60752172D01*
X122399999Y-60752155D01*
X122393598Y-60692627D01*
X122393596Y-60692620D01*
X122343354Y-60557913D01*
X122343352Y-60557910D01*
X122331513Y-60542095D01*
X122331512Y-60542093D01*
X122257190Y-60442812D01*
X122257187Y-60442809D01*
X122142093Y-60356649D01*
X122142086Y-60356645D01*
X122007379Y-60306403D01*
X122007372Y-60306401D01*
X121947844Y-60300000D01*
X121250000Y-60300000D01*
X121250000Y-61324722D01*
X121173694Y-61280667D01*
X121059244Y-61250000D01*
X120940756Y-61250000D01*
X120826306Y-61280667D01*
X120750000Y-61324722D01*
X120750000Y-60300000D01*
X120052155Y-60300000D01*
X119992627Y-60306401D01*
X119992620Y-60306403D01*
X119857913Y-60356645D01*
X119857906Y-60356649D01*
X119742812Y-60442809D01*
X119742809Y-60442812D01*
X119656649Y-60557906D01*
X119656643Y-60557918D01*
X119626785Y-60637969D01*
X119584914Y-60693903D01*
X119519449Y-60718319D01*
X119451176Y-60703467D01*
X119422923Y-60682316D01*
X119372363Y-60631756D01*
X119372358Y-60631752D01*
X119194025Y-60502187D01*
X119194024Y-60502186D01*
X119194022Y-60502185D01*
X119131096Y-60470122D01*
X118997606Y-60402104D01*
X118997603Y-60402103D01*
X118787952Y-60333985D01*
X118679086Y-60316742D01*
X118570222Y-60299500D01*
X118349778Y-60299500D01*
X118277201Y-60310995D01*
X118132047Y-60333985D01*
X117922396Y-60402103D01*
X117922393Y-60402104D01*
X117725974Y-60502187D01*
X117547641Y-60631752D01*
X117547636Y-60631756D01*
X117391756Y-60787636D01*
X117391752Y-60787641D01*
X117262187Y-60965974D01*
X117162104Y-61162393D01*
X117162103Y-61162396D01*
X117093985Y-61372047D01*
X117073596Y-61500781D01*
X117059500Y-61589778D01*
X103500500Y-61589778D01*
X103500500Y-57251902D01*
X123069500Y-57251902D01*
X123069500Y-57488097D01*
X123106446Y-57721368D01*
X123179433Y-57945996D01*
X123242872Y-58070500D01*
X123286657Y-58156433D01*
X123425483Y-58347510D01*
X123592490Y-58514517D01*
X123783567Y-58653343D01*
X123882991Y-58704002D01*
X123994003Y-58760566D01*
X123994005Y-58760566D01*
X123994008Y-58760568D01*
X124114412Y-58799689D01*
X124218631Y-58833553D01*
X124451903Y-58870500D01*
X124451908Y-58870500D01*
X124688097Y-58870500D01*
X124921368Y-58833553D01*
X125145992Y-58760568D01*
X125356433Y-58653343D01*
X125547510Y-58514517D01*
X125714517Y-58347510D01*
X125853343Y-58156433D01*
X125960568Y-57945992D01*
X126033553Y-57721368D01*
X126061089Y-57547512D01*
X126070500Y-57488097D01*
X126070500Y-57251902D01*
X129569500Y-57251902D01*
X129569500Y-57488097D01*
X129606446Y-57721368D01*
X129679433Y-57945996D01*
X129742872Y-58070500D01*
X129786657Y-58156433D01*
X129925483Y-58347510D01*
X130092490Y-58514517D01*
X130283567Y-58653343D01*
X130382991Y-58704002D01*
X130494003Y-58760566D01*
X130494005Y-58760566D01*
X130494008Y-58760568D01*
X130614412Y-58799689D01*
X130718631Y-58833553D01*
X130951903Y-58870500D01*
X130951908Y-58870500D01*
X131188097Y-58870500D01*
X131421368Y-58833553D01*
X131645992Y-58760568D01*
X131856433Y-58653343D01*
X132047510Y-58514517D01*
X132214517Y-58347510D01*
X132353343Y-58156433D01*
X132460568Y-57945992D01*
X132533553Y-57721368D01*
X132561089Y-57547512D01*
X132570500Y-57488097D01*
X132570500Y-57251902D01*
X132533553Y-57018631D01*
X132460566Y-56794003D01*
X132353342Y-56583566D01*
X132307102Y-56519922D01*
X132257682Y-56451902D01*
X142669500Y-56451902D01*
X142669500Y-56688097D01*
X142706446Y-56921368D01*
X142779433Y-57145996D01*
X142886657Y-57356433D01*
X143025483Y-57547510D01*
X143192490Y-57714517D01*
X143383567Y-57853343D01*
X143482991Y-57904002D01*
X143594003Y-57960566D01*
X143594005Y-57960566D01*
X143594008Y-57960568D01*
X143714412Y-57999689D01*
X143818631Y-58033553D01*
X144051903Y-58070500D01*
X144051908Y-58070500D01*
X144288097Y-58070500D01*
X144521368Y-58033553D01*
X144745992Y-57960568D01*
X144956433Y-57853343D01*
X145147510Y-57714517D01*
X145314517Y-57547510D01*
X145453343Y-57356433D01*
X145560568Y-57145992D01*
X145633553Y-56921368D01*
X145653725Y-56794008D01*
X145670500Y-56688097D01*
X145670500Y-56451902D01*
X149169500Y-56451902D01*
X149169500Y-56688097D01*
X149206446Y-56921368D01*
X149279433Y-57145996D01*
X149386657Y-57356433D01*
X149525483Y-57547510D01*
X149692490Y-57714517D01*
X149883567Y-57853343D01*
X149982991Y-57904002D01*
X150094003Y-57960566D01*
X150094005Y-57960566D01*
X150094008Y-57960568D01*
X150214412Y-57999689D01*
X150318631Y-58033553D01*
X150551903Y-58070500D01*
X150551908Y-58070500D01*
X150788097Y-58070500D01*
X151021368Y-58033553D01*
X151245992Y-57960568D01*
X151456433Y-57853343D01*
X151647510Y-57714517D01*
X151814517Y-57547510D01*
X151953343Y-57356433D01*
X152060568Y-57145992D01*
X152133553Y-56921368D01*
X152153725Y-56794008D01*
X152170500Y-56688097D01*
X152170500Y-56451902D01*
X161569500Y-56451902D01*
X161569500Y-56688097D01*
X161606446Y-56921368D01*
X161679433Y-57145996D01*
X161786657Y-57356433D01*
X161925483Y-57547510D01*
X162092490Y-57714517D01*
X162283567Y-57853343D01*
X162382991Y-57904002D01*
X162494003Y-57960566D01*
X162494005Y-57960566D01*
X162494008Y-57960568D01*
X162614412Y-57999689D01*
X162718631Y-58033553D01*
X162951903Y-58070500D01*
X162951908Y-58070500D01*
X163188097Y-58070500D01*
X163421368Y-58033553D01*
X163645992Y-57960568D01*
X163856433Y-57853343D01*
X164047510Y-57714517D01*
X164214517Y-57547510D01*
X164353343Y-57356433D01*
X164460568Y-57145992D01*
X164533553Y-56921368D01*
X164553725Y-56794008D01*
X164570500Y-56688097D01*
X164570500Y-56451902D01*
X168069500Y-56451902D01*
X168069500Y-56688097D01*
X168106446Y-56921368D01*
X168179433Y-57145996D01*
X168286657Y-57356433D01*
X168425483Y-57547510D01*
X168592490Y-57714517D01*
X168783567Y-57853343D01*
X168882991Y-57904002D01*
X168994003Y-57960566D01*
X168994005Y-57960566D01*
X168994008Y-57960568D01*
X169114412Y-57999689D01*
X169218631Y-58033553D01*
X169451903Y-58070500D01*
X169451908Y-58070500D01*
X169688097Y-58070500D01*
X169921368Y-58033553D01*
X170145992Y-57960568D01*
X170356433Y-57853343D01*
X170547510Y-57714517D01*
X170714517Y-57547510D01*
X170853343Y-57356433D01*
X170960568Y-57145992D01*
X171033553Y-56921368D01*
X171053725Y-56794008D01*
X171070500Y-56688097D01*
X171070500Y-56451902D01*
X171033553Y-56218631D01*
X170999689Y-56114412D01*
X170960568Y-55994008D01*
X170960566Y-55994005D01*
X170960566Y-55994003D01*
X170853342Y-55783566D01*
X170714517Y-55592490D01*
X170547510Y-55425483D01*
X170356433Y-55286657D01*
X170145996Y-55179433D01*
X169921368Y-55106446D01*
X169688097Y-55069500D01*
X169688092Y-55069500D01*
X169451908Y-55069500D01*
X169451903Y-55069500D01*
X169218631Y-55106446D01*
X168994003Y-55179433D01*
X168783566Y-55286657D01*
X168674550Y-55365862D01*
X168592490Y-55425483D01*
X168592488Y-55425485D01*
X168592487Y-55425485D01*
X168425485Y-55592487D01*
X168425485Y-55592488D01*
X168425483Y-55592490D01*
X168365862Y-55674550D01*
X168286657Y-55783566D01*
X168179433Y-55994003D01*
X168106446Y-56218631D01*
X168069500Y-56451902D01*
X164570500Y-56451902D01*
X164533553Y-56218631D01*
X164499689Y-56114412D01*
X164460568Y-55994008D01*
X164460566Y-55994005D01*
X164460566Y-55994003D01*
X164353342Y-55783566D01*
X164214517Y-55592490D01*
X164047510Y-55425483D01*
X163856433Y-55286657D01*
X163645996Y-55179433D01*
X163421368Y-55106446D01*
X163188097Y-55069500D01*
X163188092Y-55069500D01*
X162951908Y-55069500D01*
X162951903Y-55069500D01*
X162718631Y-55106446D01*
X162494003Y-55179433D01*
X162283566Y-55286657D01*
X162174550Y-55365862D01*
X162092490Y-55425483D01*
X162092488Y-55425485D01*
X162092487Y-55425485D01*
X161925485Y-55592487D01*
X161925485Y-55592488D01*
X161925483Y-55592490D01*
X161865862Y-55674550D01*
X161786657Y-55783566D01*
X161679433Y-55994003D01*
X161606446Y-56218631D01*
X161569500Y-56451902D01*
X152170500Y-56451902D01*
X152133553Y-56218631D01*
X152099689Y-56114412D01*
X152060568Y-55994008D01*
X152060566Y-55994005D01*
X152060566Y-55994003D01*
X151953342Y-55783566D01*
X151814517Y-55592490D01*
X151647510Y-55425483D01*
X151456433Y-55286657D01*
X151245996Y-55179433D01*
X151021368Y-55106446D01*
X150788097Y-55069500D01*
X150788092Y-55069500D01*
X150551908Y-55069500D01*
X150551903Y-55069500D01*
X150318631Y-55106446D01*
X150094003Y-55179433D01*
X149883566Y-55286657D01*
X149774550Y-55365862D01*
X149692490Y-55425483D01*
X149692488Y-55425485D01*
X149692487Y-55425485D01*
X149525485Y-55592487D01*
X149525485Y-55592488D01*
X149525483Y-55592490D01*
X149465862Y-55674550D01*
X149386657Y-55783566D01*
X149279433Y-55994003D01*
X149206446Y-56218631D01*
X149169500Y-56451902D01*
X145670500Y-56451902D01*
X145633553Y-56218631D01*
X145599689Y-56114412D01*
X145560568Y-55994008D01*
X145560566Y-55994005D01*
X145560566Y-55994003D01*
X145453342Y-55783566D01*
X145314517Y-55592490D01*
X145147510Y-55425483D01*
X144956433Y-55286657D01*
X144745996Y-55179433D01*
X144521368Y-55106446D01*
X144288097Y-55069500D01*
X144288092Y-55069500D01*
X144051908Y-55069500D01*
X144051903Y-55069500D01*
X143818631Y-55106446D01*
X143594003Y-55179433D01*
X143383566Y-55286657D01*
X143274550Y-55365862D01*
X143192490Y-55425483D01*
X143192488Y-55425485D01*
X143192487Y-55425485D01*
X143025485Y-55592487D01*
X143025485Y-55592488D01*
X143025483Y-55592490D01*
X142965862Y-55674550D01*
X142886657Y-55783566D01*
X142779433Y-55994003D01*
X142706446Y-56218631D01*
X142669500Y-56451902D01*
X132257682Y-56451902D01*
X132214517Y-56392490D01*
X132047510Y-56225483D01*
X131856433Y-56086657D01*
X131645996Y-55979433D01*
X131421368Y-55906446D01*
X131188097Y-55869500D01*
X131188092Y-55869500D01*
X130951908Y-55869500D01*
X130951903Y-55869500D01*
X130718631Y-55906446D01*
X130494003Y-55979433D01*
X130283566Y-56086657D01*
X130174550Y-56165862D01*
X130092490Y-56225483D01*
X130092488Y-56225485D01*
X130092487Y-56225485D01*
X129925485Y-56392487D01*
X129925485Y-56392488D01*
X129925483Y-56392490D01*
X129882318Y-56451902D01*
X129786657Y-56583566D01*
X129679433Y-56794003D01*
X129606446Y-57018631D01*
X129569500Y-57251902D01*
X126070500Y-57251902D01*
X126033553Y-57018631D01*
X125960566Y-56794003D01*
X125853342Y-56583566D01*
X125714517Y-56392490D01*
X125547510Y-56225483D01*
X125356433Y-56086657D01*
X125145996Y-55979433D01*
X124921368Y-55906446D01*
X124688097Y-55869500D01*
X124688092Y-55869500D01*
X124451908Y-55869500D01*
X124451903Y-55869500D01*
X124218631Y-55906446D01*
X123994003Y-55979433D01*
X123783566Y-56086657D01*
X123674550Y-56165862D01*
X123592490Y-56225483D01*
X123592488Y-56225485D01*
X123592487Y-56225485D01*
X123425485Y-56392487D01*
X123425485Y-56392488D01*
X123425483Y-56392490D01*
X123382318Y-56451902D01*
X123286657Y-56583566D01*
X123179433Y-56794003D01*
X123106446Y-57018631D01*
X123069500Y-57251902D01*
X103500500Y-57251902D01*
X103500500Y-54197648D01*
X112619500Y-54197648D01*
X112619500Y-54402351D01*
X112651522Y-54604534D01*
X112714781Y-54799223D01*
X112807715Y-54981613D01*
X112928028Y-55147213D01*
X113072786Y-55291971D01*
X113227749Y-55404556D01*
X113238390Y-55412287D01*
X113354607Y-55471503D01*
X113420776Y-55505218D01*
X113420778Y-55505218D01*
X113420781Y-55505220D01*
X113525137Y-55539127D01*
X113615465Y-55568477D01*
X113716557Y-55584488D01*
X113817648Y-55600500D01*
X113817649Y-55600500D01*
X114022351Y-55600500D01*
X114022352Y-55600500D01*
X114224534Y-55568477D01*
X114419219Y-55505220D01*
X114601610Y-55412287D01*
X114694590Y-55344732D01*
X114767213Y-55291971D01*
X114767215Y-55291968D01*
X114767219Y-55291966D01*
X114911966Y-55147219D01*
X114911968Y-55147215D01*
X114911971Y-55147213D01*
X114968432Y-55069500D01*
X115032287Y-54981610D01*
X115125220Y-54799219D01*
X115188477Y-54604534D01*
X115220500Y-54402352D01*
X115220500Y-54197648D01*
X115188477Y-53995466D01*
X115125220Y-53800781D01*
X115125218Y-53800778D01*
X115125218Y-53800776D01*
X115091503Y-53734607D01*
X115032287Y-53618390D01*
X114997130Y-53570000D01*
X114911971Y-53452786D01*
X114767213Y-53308028D01*
X114601613Y-53187715D01*
X114601612Y-53187714D01*
X114601610Y-53187713D01*
X114544653Y-53158691D01*
X114419223Y-53094781D01*
X114224534Y-53031522D01*
X114049995Y-53003878D01*
X114022352Y-52999500D01*
X113817648Y-52999500D01*
X113793329Y-53003351D01*
X113615465Y-53031522D01*
X113420776Y-53094781D01*
X113238386Y-53187715D01*
X113072786Y-53308028D01*
X112928028Y-53452786D01*
X112807715Y-53618386D01*
X112714781Y-53800776D01*
X112651522Y-53995465D01*
X112619500Y-54197648D01*
X103500500Y-54197648D01*
X103500500Y-52751947D01*
X123070000Y-52751947D01*
X123070000Y-52988052D01*
X123106934Y-53221247D01*
X123179897Y-53445802D01*
X123287087Y-53656174D01*
X123347338Y-53739104D01*
X123347340Y-53739105D01*
X124046212Y-53040233D01*
X124057482Y-53082292D01*
X124129890Y-53207708D01*
X124232292Y-53310110D01*
X124357708Y-53382518D01*
X124399765Y-53393787D01*
X123700893Y-54092658D01*
X123783828Y-54152914D01*
X123994197Y-54260102D01*
X124218752Y-54333065D01*
X124218751Y-54333065D01*
X124451948Y-54370000D01*
X124688052Y-54370000D01*
X124921247Y-54333065D01*
X125145802Y-54260102D01*
X125356163Y-54152918D01*
X125356169Y-54152914D01*
X125439104Y-54092658D01*
X125439105Y-54092658D01*
X124740233Y-53393787D01*
X124782292Y-53382518D01*
X124907708Y-53310110D01*
X125010110Y-53207708D01*
X125082518Y-53082292D01*
X125093787Y-53040234D01*
X125792658Y-53739105D01*
X125792658Y-53739104D01*
X125852914Y-53656169D01*
X125852918Y-53656163D01*
X125960102Y-53445802D01*
X126033065Y-53221247D01*
X126070000Y-52988052D01*
X126070000Y-52751947D01*
X129570000Y-52751947D01*
X129570000Y-52988052D01*
X129606934Y-53221247D01*
X129679897Y-53445802D01*
X129787087Y-53656174D01*
X129847338Y-53739104D01*
X129847340Y-53739105D01*
X130546212Y-53040233D01*
X130557482Y-53082292D01*
X130629890Y-53207708D01*
X130732292Y-53310110D01*
X130857708Y-53382518D01*
X130899765Y-53393787D01*
X130200893Y-54092658D01*
X130283828Y-54152914D01*
X130494197Y-54260102D01*
X130718752Y-54333065D01*
X130718751Y-54333065D01*
X130951948Y-54370000D01*
X131188052Y-54370000D01*
X131421247Y-54333065D01*
X131645802Y-54260102D01*
X131856163Y-54152918D01*
X131856169Y-54152914D01*
X131939104Y-54092658D01*
X131939105Y-54092658D01*
X131240233Y-53393787D01*
X131282292Y-53382518D01*
X131407708Y-53310110D01*
X131510110Y-53207708D01*
X131582518Y-53082292D01*
X131593787Y-53040234D01*
X132292658Y-53739105D01*
X132292658Y-53739104D01*
X132352914Y-53656169D01*
X132352918Y-53656163D01*
X132460102Y-53445802D01*
X132533065Y-53221247D01*
X132533066Y-53221245D01*
X132570000Y-52988052D01*
X132570000Y-52751947D01*
X132533065Y-52518752D01*
X132460102Y-52294197D01*
X132352914Y-52083828D01*
X132306512Y-52019961D01*
X132292658Y-52000894D01*
X132292658Y-52000893D01*
X131593787Y-52699765D01*
X131582518Y-52657708D01*
X131510110Y-52532292D01*
X131407708Y-52429890D01*
X131282292Y-52357482D01*
X131240234Y-52346212D01*
X131634498Y-51951947D01*
X142670000Y-51951947D01*
X142670000Y-52188052D01*
X142706934Y-52421247D01*
X142779897Y-52645802D01*
X142887087Y-52856174D01*
X142947338Y-52939104D01*
X142947340Y-52939105D01*
X143646212Y-52240233D01*
X143657482Y-52282292D01*
X143729890Y-52407708D01*
X143832292Y-52510110D01*
X143957708Y-52582518D01*
X143999765Y-52593787D01*
X143300893Y-53292658D01*
X143383828Y-53352914D01*
X143594197Y-53460102D01*
X143818752Y-53533065D01*
X143818751Y-53533065D01*
X144051948Y-53570000D01*
X144288052Y-53570000D01*
X144521247Y-53533065D01*
X144745802Y-53460102D01*
X144956163Y-53352918D01*
X144956169Y-53352914D01*
X145039104Y-53292658D01*
X145039105Y-53292658D01*
X144340233Y-52593787D01*
X144382292Y-52582518D01*
X144507708Y-52510110D01*
X144610110Y-52407708D01*
X144682518Y-52282292D01*
X144693787Y-52240234D01*
X145392658Y-52939105D01*
X145392658Y-52939104D01*
X145452914Y-52856169D01*
X145452918Y-52856163D01*
X145560102Y-52645802D01*
X145633065Y-52421247D01*
X145670000Y-52188052D01*
X145670000Y-51951947D01*
X149170000Y-51951947D01*
X149170000Y-52188052D01*
X149206934Y-52421247D01*
X149279897Y-52645802D01*
X149387087Y-52856174D01*
X149447338Y-52939104D01*
X149447340Y-52939105D01*
X150146212Y-52240233D01*
X150157482Y-52282292D01*
X150229890Y-52407708D01*
X150332292Y-52510110D01*
X150457708Y-52582518D01*
X150499765Y-52593787D01*
X149800893Y-53292658D01*
X149883828Y-53352914D01*
X150094197Y-53460102D01*
X150318752Y-53533065D01*
X150318751Y-53533065D01*
X150551948Y-53570000D01*
X150788052Y-53570000D01*
X151021247Y-53533065D01*
X151245802Y-53460102D01*
X151456163Y-53352918D01*
X151456169Y-53352914D01*
X151539104Y-53292658D01*
X151539105Y-53292658D01*
X150840233Y-52593787D01*
X150882292Y-52582518D01*
X151007708Y-52510110D01*
X151110110Y-52407708D01*
X151182518Y-52282292D01*
X151193787Y-52240234D01*
X151892658Y-52939105D01*
X151892658Y-52939104D01*
X151952914Y-52856169D01*
X151952918Y-52856163D01*
X152060102Y-52645802D01*
X152133065Y-52421247D01*
X152170000Y-52188052D01*
X152170000Y-51951947D01*
X161570000Y-51951947D01*
X161570000Y-52188052D01*
X161606934Y-52421247D01*
X161679897Y-52645802D01*
X161787087Y-52856174D01*
X161847338Y-52939104D01*
X161847340Y-52939105D01*
X162546212Y-52240233D01*
X162557482Y-52282292D01*
X162629890Y-52407708D01*
X162732292Y-52510110D01*
X162857708Y-52582518D01*
X162899765Y-52593787D01*
X162200893Y-53292658D01*
X162283828Y-53352914D01*
X162494197Y-53460102D01*
X162718752Y-53533065D01*
X162718751Y-53533065D01*
X162951948Y-53570000D01*
X163188052Y-53570000D01*
X163421247Y-53533065D01*
X163645802Y-53460102D01*
X163856163Y-53352918D01*
X163856169Y-53352914D01*
X163939104Y-53292658D01*
X163939105Y-53292658D01*
X163240233Y-52593787D01*
X163282292Y-52582518D01*
X163407708Y-52510110D01*
X163510110Y-52407708D01*
X163582518Y-52282292D01*
X163593787Y-52240233D01*
X164292658Y-52939105D01*
X164292658Y-52939104D01*
X164352914Y-52856169D01*
X164352918Y-52856163D01*
X164460102Y-52645802D01*
X164533065Y-52421247D01*
X164570000Y-52188052D01*
X164570000Y-51951947D01*
X168070000Y-51951947D01*
X168070000Y-52188052D01*
X168106934Y-52421247D01*
X168179897Y-52645802D01*
X168287087Y-52856174D01*
X168347338Y-52939104D01*
X168347340Y-52939105D01*
X169046212Y-52240233D01*
X169057482Y-52282292D01*
X169129890Y-52407708D01*
X169232292Y-52510110D01*
X169357708Y-52582518D01*
X169399765Y-52593787D01*
X168700893Y-53292658D01*
X168783828Y-53352914D01*
X168994197Y-53460102D01*
X169218752Y-53533065D01*
X169218751Y-53533065D01*
X169451948Y-53570000D01*
X169688052Y-53570000D01*
X169921247Y-53533065D01*
X170145802Y-53460102D01*
X170356163Y-53352918D01*
X170356169Y-53352914D01*
X170439104Y-53292658D01*
X170439105Y-53292658D01*
X169740233Y-52593787D01*
X169782292Y-52582518D01*
X169907708Y-52510110D01*
X170010110Y-52407708D01*
X170082518Y-52282292D01*
X170093787Y-52240234D01*
X170792658Y-52939105D01*
X170792658Y-52939104D01*
X170852914Y-52856169D01*
X170852918Y-52856163D01*
X170960102Y-52645802D01*
X171033065Y-52421247D01*
X171070000Y-52188052D01*
X171070000Y-51951947D01*
X171033065Y-51718752D01*
X170960102Y-51494197D01*
X170852914Y-51283828D01*
X170792658Y-51200894D01*
X170792658Y-51200893D01*
X170093787Y-51899765D01*
X170082518Y-51857708D01*
X170010110Y-51732292D01*
X169907708Y-51629890D01*
X169782292Y-51557482D01*
X169740234Y-51546212D01*
X170439105Y-50847340D01*
X170439104Y-50847338D01*
X170356174Y-50787087D01*
X170145802Y-50679897D01*
X169921247Y-50606934D01*
X169921248Y-50606934D01*
X169688052Y-50570000D01*
X169451948Y-50570000D01*
X169218752Y-50606934D01*
X168994197Y-50679897D01*
X168783830Y-50787084D01*
X168700894Y-50847340D01*
X169399766Y-51546212D01*
X169357708Y-51557482D01*
X169232292Y-51629890D01*
X169129890Y-51732292D01*
X169057482Y-51857708D01*
X169046212Y-51899766D01*
X168347340Y-51200894D01*
X168287084Y-51283830D01*
X168179897Y-51494197D01*
X168106934Y-51718752D01*
X168070000Y-51951947D01*
X164570000Y-51951947D01*
X164533065Y-51718752D01*
X164460102Y-51494197D01*
X164352914Y-51283828D01*
X164292658Y-51200894D01*
X164292658Y-51200893D01*
X163593787Y-51899765D01*
X163582518Y-51857708D01*
X163510110Y-51732292D01*
X163407708Y-51629890D01*
X163282292Y-51557482D01*
X163240234Y-51546212D01*
X163939105Y-50847340D01*
X163939104Y-50847339D01*
X163856174Y-50787087D01*
X163645802Y-50679897D01*
X163421247Y-50606934D01*
X163421248Y-50606934D01*
X163188052Y-50570000D01*
X162951948Y-50570000D01*
X162718752Y-50606934D01*
X162494197Y-50679897D01*
X162283830Y-50787084D01*
X162200894Y-50847340D01*
X162899766Y-51546212D01*
X162857708Y-51557482D01*
X162732292Y-51629890D01*
X162629890Y-51732292D01*
X162557482Y-51857708D01*
X162546212Y-51899766D01*
X161847340Y-51200894D01*
X161787084Y-51283830D01*
X161679897Y-51494197D01*
X161606934Y-51718752D01*
X161570000Y-51951947D01*
X152170000Y-51951947D01*
X152133065Y-51718752D01*
X152060102Y-51494197D01*
X151952914Y-51283828D01*
X151892658Y-51200894D01*
X151892658Y-51200893D01*
X151193787Y-51899765D01*
X151182518Y-51857708D01*
X151110110Y-51732292D01*
X151007708Y-51629890D01*
X150882292Y-51557482D01*
X150840234Y-51546212D01*
X151539105Y-50847340D01*
X151539104Y-50847339D01*
X151456174Y-50787087D01*
X151245802Y-50679897D01*
X151021247Y-50606934D01*
X151021248Y-50606934D01*
X150788052Y-50570000D01*
X150551948Y-50570000D01*
X150318752Y-50606934D01*
X150094197Y-50679897D01*
X149883830Y-50787084D01*
X149800894Y-50847340D01*
X150499766Y-51546212D01*
X150457708Y-51557482D01*
X150332292Y-51629890D01*
X150229890Y-51732292D01*
X150157482Y-51857708D01*
X150146212Y-51899766D01*
X149447340Y-51200894D01*
X149387084Y-51283830D01*
X149279897Y-51494197D01*
X149206934Y-51718752D01*
X149170000Y-51951947D01*
X145670000Y-51951947D01*
X145633065Y-51718752D01*
X145560102Y-51494197D01*
X145452914Y-51283828D01*
X145392658Y-51200894D01*
X145392658Y-51200893D01*
X144693787Y-51899765D01*
X144682518Y-51857708D01*
X144610110Y-51732292D01*
X144507708Y-51629890D01*
X144382292Y-51557482D01*
X144340234Y-51546212D01*
X145039105Y-50847340D01*
X145039104Y-50847339D01*
X144956174Y-50787087D01*
X144745802Y-50679897D01*
X144521247Y-50606934D01*
X144521248Y-50606934D01*
X144288052Y-50570000D01*
X144051948Y-50570000D01*
X143818752Y-50606934D01*
X143594197Y-50679897D01*
X143383830Y-50787084D01*
X143300894Y-50847340D01*
X143999766Y-51546212D01*
X143957708Y-51557482D01*
X143832292Y-51629890D01*
X143729890Y-51732292D01*
X143657482Y-51857708D01*
X143646212Y-51899766D01*
X142947340Y-51200894D01*
X142887084Y-51283830D01*
X142779897Y-51494197D01*
X142706934Y-51718752D01*
X142670000Y-51951947D01*
X131634498Y-51951947D01*
X131939105Y-51647340D01*
X131939104Y-51647338D01*
X131856174Y-51587087D01*
X131645802Y-51479897D01*
X131421247Y-51406934D01*
X131421248Y-51406934D01*
X131188052Y-51370000D01*
X130951948Y-51370000D01*
X130718752Y-51406934D01*
X130494197Y-51479897D01*
X130283830Y-51587084D01*
X130200894Y-51647340D01*
X130899766Y-52346212D01*
X130857708Y-52357482D01*
X130732292Y-52429890D01*
X130629890Y-52532292D01*
X130557482Y-52657708D01*
X130546212Y-52699766D01*
X129847340Y-52000894D01*
X129787084Y-52083830D01*
X129679897Y-52294197D01*
X129606934Y-52518752D01*
X129570000Y-52751947D01*
X126070000Y-52751947D01*
X126033065Y-52518752D01*
X125960102Y-52294197D01*
X125852914Y-52083828D01*
X125792658Y-52000894D01*
X125792658Y-52000893D01*
X125093787Y-52699765D01*
X125082518Y-52657708D01*
X125010110Y-52532292D01*
X124907708Y-52429890D01*
X124782292Y-52357482D01*
X124740234Y-52346212D01*
X125439105Y-51647340D01*
X125439104Y-51647339D01*
X125356174Y-51587087D01*
X125145802Y-51479897D01*
X124921247Y-51406934D01*
X124921248Y-51406934D01*
X124688052Y-51370000D01*
X124451948Y-51370000D01*
X124218752Y-51406934D01*
X123994197Y-51479897D01*
X123783830Y-51587084D01*
X123700894Y-51647340D01*
X124399766Y-52346212D01*
X124357708Y-52357482D01*
X124232292Y-52429890D01*
X124129890Y-52532292D01*
X124057482Y-52657708D01*
X124046212Y-52699766D01*
X123347340Y-52000894D01*
X123287084Y-52083830D01*
X123179897Y-52294197D01*
X123106934Y-52518752D01*
X123070000Y-52751947D01*
X103500500Y-52751947D01*
X103500500Y-49624500D01*
X103520185Y-49557461D01*
X103572989Y-49511706D01*
X103624500Y-49500500D01*
X174375500Y-49500500D01*
X174442539Y-49520185D01*
G37*
%TD.AperFunction*%
%TD*%
M02*
