%TF.GenerationSoftware,KiCad,Pcbnew,10.0.3*%
%TF.CreationDate,2026-06-18T22:13:50+05:45*%
%TF.ProjectId,SPO2,53504f32-2e6b-4696-9361-645f70636258,rev?*%
%TF.SameCoordinates,Original*%
%TF.FileFunction,Plated,1,4,PTH,Drill*%
%TF.FilePolarity,Positive*%
%FSLAX46Y46*%
G04 Gerber Fmt 4.6, Leading zero omitted, Abs format (unit mm)*
G04 Created by KiCad (PCBNEW 10.0.3) date 2026-06-18 22:13:50*
%MOMM*%
%LPD*%
G01*
G04 APERTURE LIST*
%TA.AperFunction,ComponentDrill*%
%ADD10C,0.800000*%
%TD*%
%TA.AperFunction,ComponentDrill*%
%ADD11C,0.900000*%
%TD*%
%TA.AperFunction,ComponentDrill*%
%ADD12C,1.000000*%
%TD*%
%TA.AperFunction,ComponentDrill*%
%ADD13C,1.100000*%
%TD*%
G04 APERTURE END LIST*
D10*
%TO.C,U1*%
X110020000Y-95420000D03*
X112560000Y-95420000D03*
%TO.C,R4*%
X113920000Y-54300000D03*
X113920000Y-69540000D03*
%TO.C,U1*%
X115100000Y-95420000D03*
X117640000Y-95420000D03*
%TO.C,R1*%
X119800000Y-67020000D03*
%TO.C,U1*%
X120180000Y-95420000D03*
%TO.C,U2*%
X124900000Y-99280000D03*
X124900000Y-104360000D03*
X124900000Y-109440000D03*
X124900000Y-114520000D03*
%TO.C,C1*%
X126100000Y-62000000D03*
X128600000Y-62000000D03*
%TO.C,R1*%
X135040000Y-67020000D03*
%TO.C,R2*%
X139300000Y-66720000D03*
%TO.C,C2*%
X145900000Y-61500000D03*
X148400000Y-61500000D03*
%TO.C,R2*%
X154540000Y-66720000D03*
%TO.C,R3*%
X158100000Y-66220000D03*
%TO.C,C3*%
X164500000Y-61100000D03*
X167000000Y-61100000D03*
%TO.C,R3*%
X173340000Y-66220000D03*
D11*
%TO.C,D1*%
X118460000Y-61700000D03*
X121000000Y-61700000D03*
D12*
%TO.C,A1*%
X110980000Y-73780000D03*
X110980000Y-89020000D03*
X113520000Y-73780000D03*
X113520000Y-89020000D03*
X116060000Y-73780000D03*
X116060000Y-89020000D03*
X118600000Y-73780000D03*
X118600000Y-89020000D03*
X121140000Y-73780000D03*
X121140000Y-89020000D03*
X123680000Y-73780000D03*
X123680000Y-89020000D03*
X126220000Y-73780000D03*
X126220000Y-89020000D03*
X128760000Y-73780000D03*
X128760000Y-89020000D03*
X131300000Y-73780000D03*
X131300000Y-89020000D03*
X133840000Y-73780000D03*
X133840000Y-89020000D03*
X136380000Y-73780000D03*
X136380000Y-89020000D03*
X138920000Y-73780000D03*
X138920000Y-89020000D03*
X141460000Y-73780000D03*
X141460000Y-89020000D03*
X144000000Y-73780000D03*
X144000000Y-89020000D03*
X146540000Y-73780000D03*
X146540000Y-89020000D03*
D13*
%TO.C,SW1*%
X124570000Y-52870000D03*
X124570000Y-57370000D03*
X131070000Y-52870000D03*
X131070000Y-57370000D03*
%TO.C,SW2*%
X144170000Y-52070000D03*
X144170000Y-56570000D03*
X150670000Y-52070000D03*
X150670000Y-56570000D03*
%TO.C,SW3*%
X163070000Y-52070000D03*
X163070000Y-56570000D03*
X169570000Y-52070000D03*
X169570000Y-56570000D03*
M02*
