%TF.GenerationSoftware,KiCad,Pcbnew,10.0.3*%
%TF.CreationDate,2026-06-18T22:13:53+05:45*%
%TF.ProjectId,SPO2,53504f32-2e6b-4696-9361-645f70636258,rev?*%
%TF.SameCoordinates,Original*%
%TF.FileFunction,Legend,Top*%
%TF.FilePolarity,Positive*%
%FSLAX46Y46*%
G04 Gerber Fmt 4.6, Leading zero omitted, Abs format (unit mm)*
G04 Created by KiCad (PCBNEW 10.0.3) date 2026-06-18 22:13:53*
%MOMM*%
%LPD*%
G01*
G04 APERTURE LIST*
%ADD10C,0.100000*%
%ADD11C,0.150000*%
%ADD12C,0.120000*%
G04 APERTURE END LIST*
D10*
X158887217Y-95348609D02*
X159030074Y-95396228D01*
X159030074Y-95396228D02*
X159077693Y-95443847D01*
X159077693Y-95443847D02*
X159125312Y-95539085D01*
X159125312Y-95539085D02*
X159125312Y-95681942D01*
X159125312Y-95681942D02*
X159077693Y-95777180D01*
X159077693Y-95777180D02*
X159030074Y-95824800D01*
X159030074Y-95824800D02*
X158934836Y-95872419D01*
X158934836Y-95872419D02*
X158553884Y-95872419D01*
X158553884Y-95872419D02*
X158553884Y-94872419D01*
X158553884Y-94872419D02*
X158887217Y-94872419D01*
X158887217Y-94872419D02*
X158982455Y-94920038D01*
X158982455Y-94920038D02*
X159030074Y-94967657D01*
X159030074Y-94967657D02*
X159077693Y-95062895D01*
X159077693Y-95062895D02*
X159077693Y-95158133D01*
X159077693Y-95158133D02*
X159030074Y-95253371D01*
X159030074Y-95253371D02*
X158982455Y-95300990D01*
X158982455Y-95300990D02*
X158887217Y-95348609D01*
X158887217Y-95348609D02*
X158553884Y-95348609D01*
X159744360Y-95396228D02*
X159744360Y-95872419D01*
X159411027Y-94872419D02*
X159744360Y-95396228D01*
X159744360Y-95396228D02*
X160077693Y-94872419D01*
X160411027Y-95777180D02*
X160458646Y-95824800D01*
X160458646Y-95824800D02*
X160411027Y-95872419D01*
X160411027Y-95872419D02*
X160363408Y-95824800D01*
X160363408Y-95824800D02*
X160411027Y-95777180D01*
X160411027Y-95777180D02*
X160411027Y-95872419D01*
X160411027Y-95253371D02*
X160458646Y-95300990D01*
X160458646Y-95300990D02*
X160411027Y-95348609D01*
X160411027Y-95348609D02*
X160363408Y-95300990D01*
X160363408Y-95300990D02*
X160411027Y-95253371D01*
X160411027Y-95253371D02*
X160411027Y-95348609D01*
X161458645Y-95872419D02*
X161125312Y-95396228D01*
X160887217Y-95872419D02*
X160887217Y-94872419D01*
X160887217Y-94872419D02*
X161268169Y-94872419D01*
X161268169Y-94872419D02*
X161363407Y-94920038D01*
X161363407Y-94920038D02*
X161411026Y-94967657D01*
X161411026Y-94967657D02*
X161458645Y-95062895D01*
X161458645Y-95062895D02*
X161458645Y-95205752D01*
X161458645Y-95205752D02*
X161411026Y-95300990D01*
X161411026Y-95300990D02*
X161363407Y-95348609D01*
X161363407Y-95348609D02*
X161268169Y-95396228D01*
X161268169Y-95396228D02*
X160887217Y-95396228D01*
X161887217Y-94872419D02*
X161887217Y-95681942D01*
X161887217Y-95681942D02*
X161934836Y-95777180D01*
X161934836Y-95777180D02*
X161982455Y-95824800D01*
X161982455Y-95824800D02*
X162077693Y-95872419D01*
X162077693Y-95872419D02*
X162268169Y-95872419D01*
X162268169Y-95872419D02*
X162363407Y-95824800D01*
X162363407Y-95824800D02*
X162411026Y-95777180D01*
X162411026Y-95777180D02*
X162458645Y-95681942D01*
X162458645Y-95681942D02*
X162458645Y-94872419D01*
X162934836Y-95872419D02*
X162934836Y-94872419D01*
X162934836Y-94872419D02*
X163172931Y-94872419D01*
X163172931Y-94872419D02*
X163315788Y-94920038D01*
X163315788Y-94920038D02*
X163411026Y-95015276D01*
X163411026Y-95015276D02*
X163458645Y-95110514D01*
X163458645Y-95110514D02*
X163506264Y-95300990D01*
X163506264Y-95300990D02*
X163506264Y-95443847D01*
X163506264Y-95443847D02*
X163458645Y-95634323D01*
X163458645Y-95634323D02*
X163411026Y-95729561D01*
X163411026Y-95729561D02*
X163315788Y-95824800D01*
X163315788Y-95824800D02*
X163172931Y-95872419D01*
X163172931Y-95872419D02*
X162934836Y-95872419D01*
X164506264Y-95872419D02*
X164172931Y-95396228D01*
X163934836Y-95872419D02*
X163934836Y-94872419D01*
X163934836Y-94872419D02*
X164315788Y-94872419D01*
X164315788Y-94872419D02*
X164411026Y-94920038D01*
X164411026Y-94920038D02*
X164458645Y-94967657D01*
X164458645Y-94967657D02*
X164506264Y-95062895D01*
X164506264Y-95062895D02*
X164506264Y-95205752D01*
X164506264Y-95205752D02*
X164458645Y-95300990D01*
X164458645Y-95300990D02*
X164411026Y-95348609D01*
X164411026Y-95348609D02*
X164315788Y-95396228D01*
X164315788Y-95396228D02*
X163934836Y-95396228D01*
X164887217Y-95586704D02*
X165363407Y-95586704D01*
X164791979Y-95872419D02*
X165125312Y-94872419D01*
X165125312Y-94872419D02*
X165458645Y-95872419D01*
X166553884Y-95872419D02*
X166553884Y-94872419D01*
X167125312Y-95872419D02*
X166696741Y-95300990D01*
X167125312Y-94872419D02*
X166553884Y-95443847D01*
X167553884Y-95872419D02*
X167553884Y-94872419D01*
X167553884Y-95348609D02*
X168125312Y-95348609D01*
X168125312Y-95872419D02*
X168125312Y-94872419D01*
X168553884Y-95586704D02*
X169030074Y-95586704D01*
X168458646Y-95872419D02*
X168791979Y-94872419D01*
X168791979Y-94872419D02*
X169125312Y-95872419D01*
X169315789Y-94872419D02*
X169887217Y-94872419D01*
X169601503Y-95872419D02*
X169601503Y-94872419D01*
X170791979Y-95872419D02*
X170458646Y-95396228D01*
X170220551Y-95872419D02*
X170220551Y-94872419D01*
X170220551Y-94872419D02*
X170601503Y-94872419D01*
X170601503Y-94872419D02*
X170696741Y-94920038D01*
X170696741Y-94920038D02*
X170744360Y-94967657D01*
X170744360Y-94967657D02*
X170791979Y-95062895D01*
X170791979Y-95062895D02*
X170791979Y-95205752D01*
X170791979Y-95205752D02*
X170744360Y-95300990D01*
X170744360Y-95300990D02*
X170696741Y-95348609D01*
X170696741Y-95348609D02*
X170601503Y-95396228D01*
X170601503Y-95396228D02*
X170220551Y-95396228D01*
X171220551Y-95872419D02*
X171220551Y-94872419D01*
X106872419Y-112553258D02*
X106824800Y-112648496D01*
X106824800Y-112648496D02*
X106777180Y-112696115D01*
X106777180Y-112696115D02*
X106681942Y-112743734D01*
X106681942Y-112743734D02*
X106396228Y-112743734D01*
X106396228Y-112743734D02*
X106300990Y-112696115D01*
X106300990Y-112696115D02*
X106253371Y-112648496D01*
X106253371Y-112648496D02*
X106205752Y-112553258D01*
X106205752Y-112553258D02*
X106205752Y-112410401D01*
X106205752Y-112410401D02*
X106253371Y-112315163D01*
X106253371Y-112315163D02*
X106300990Y-112267544D01*
X106300990Y-112267544D02*
X106396228Y-112219925D01*
X106396228Y-112219925D02*
X106681942Y-112219925D01*
X106681942Y-112219925D02*
X106777180Y-112267544D01*
X106777180Y-112267544D02*
X106824800Y-112315163D01*
X106824800Y-112315163D02*
X106872419Y-112410401D01*
X106872419Y-112410401D02*
X106872419Y-112553258D01*
X106872419Y-111886591D02*
X106205752Y-111362782D01*
X106205752Y-111886591D02*
X106872419Y-111362782D01*
X106872419Y-110981829D02*
X106205752Y-110981829D01*
X105872419Y-110981829D02*
X105920038Y-111029448D01*
X105920038Y-111029448D02*
X105967657Y-110981829D01*
X105967657Y-110981829D02*
X105920038Y-110934210D01*
X105920038Y-110934210D02*
X105872419Y-110981829D01*
X105872419Y-110981829D02*
X105967657Y-110981829D01*
X106872419Y-110505639D02*
X106205752Y-110505639D01*
X106300990Y-110505639D02*
X106253371Y-110458020D01*
X106253371Y-110458020D02*
X106205752Y-110362782D01*
X106205752Y-110362782D02*
X106205752Y-110219925D01*
X106205752Y-110219925D02*
X106253371Y-110124687D01*
X106253371Y-110124687D02*
X106348609Y-110077068D01*
X106348609Y-110077068D02*
X106872419Y-110077068D01*
X106348609Y-110077068D02*
X106253371Y-110029449D01*
X106253371Y-110029449D02*
X106205752Y-109934211D01*
X106205752Y-109934211D02*
X106205752Y-109791354D01*
X106205752Y-109791354D02*
X106253371Y-109696115D01*
X106253371Y-109696115D02*
X106348609Y-109648496D01*
X106348609Y-109648496D02*
X106872419Y-109648496D01*
X106824800Y-108791354D02*
X106872419Y-108886592D01*
X106872419Y-108886592D02*
X106872419Y-109077068D01*
X106872419Y-109077068D02*
X106824800Y-109172306D01*
X106824800Y-109172306D02*
X106729561Y-109219925D01*
X106729561Y-109219925D02*
X106348609Y-109219925D01*
X106348609Y-109219925D02*
X106253371Y-109172306D01*
X106253371Y-109172306D02*
X106205752Y-109077068D01*
X106205752Y-109077068D02*
X106205752Y-108886592D01*
X106205752Y-108886592D02*
X106253371Y-108791354D01*
X106253371Y-108791354D02*
X106348609Y-108743735D01*
X106348609Y-108743735D02*
X106443847Y-108743735D01*
X106443847Y-108743735D02*
X106539085Y-109219925D01*
X106205752Y-108458020D02*
X106205752Y-108077068D01*
X105872419Y-108315163D02*
X106729561Y-108315163D01*
X106729561Y-108315163D02*
X106824800Y-108267544D01*
X106824800Y-108267544D02*
X106872419Y-108172306D01*
X106872419Y-108172306D02*
X106872419Y-108077068D01*
X106824800Y-107362782D02*
X106872419Y-107458020D01*
X106872419Y-107458020D02*
X106872419Y-107648496D01*
X106872419Y-107648496D02*
X106824800Y-107743734D01*
X106824800Y-107743734D02*
X106729561Y-107791353D01*
X106729561Y-107791353D02*
X106348609Y-107791353D01*
X106348609Y-107791353D02*
X106253371Y-107743734D01*
X106253371Y-107743734D02*
X106205752Y-107648496D01*
X106205752Y-107648496D02*
X106205752Y-107458020D01*
X106205752Y-107458020D02*
X106253371Y-107362782D01*
X106253371Y-107362782D02*
X106348609Y-107315163D01*
X106348609Y-107315163D02*
X106443847Y-107315163D01*
X106443847Y-107315163D02*
X106539085Y-107791353D01*
X106872419Y-106886591D02*
X106205752Y-106886591D01*
X106396228Y-106886591D02*
X106300990Y-106838972D01*
X106300990Y-106838972D02*
X106253371Y-106791353D01*
X106253371Y-106791353D02*
X106205752Y-106696115D01*
X106205752Y-106696115D02*
X106205752Y-106600877D01*
X105824800Y-105553258D02*
X107110514Y-106410400D01*
X106872419Y-105219924D02*
X105872419Y-105219924D01*
X106872419Y-104791353D02*
X106348609Y-104791353D01*
X106348609Y-104791353D02*
X106253371Y-104838972D01*
X106253371Y-104838972D02*
X106205752Y-104934210D01*
X106205752Y-104934210D02*
X106205752Y-105077067D01*
X106205752Y-105077067D02*
X106253371Y-105172305D01*
X106253371Y-105172305D02*
X106300990Y-105219924D01*
X106824800Y-103934210D02*
X106872419Y-104029448D01*
X106872419Y-104029448D02*
X106872419Y-104219924D01*
X106872419Y-104219924D02*
X106824800Y-104315162D01*
X106824800Y-104315162D02*
X106729561Y-104362781D01*
X106729561Y-104362781D02*
X106348609Y-104362781D01*
X106348609Y-104362781D02*
X106253371Y-104315162D01*
X106253371Y-104315162D02*
X106205752Y-104219924D01*
X106205752Y-104219924D02*
X106205752Y-104029448D01*
X106205752Y-104029448D02*
X106253371Y-103934210D01*
X106253371Y-103934210D02*
X106348609Y-103886591D01*
X106348609Y-103886591D02*
X106443847Y-103886591D01*
X106443847Y-103886591D02*
X106539085Y-104362781D01*
X106872419Y-103029448D02*
X106348609Y-103029448D01*
X106348609Y-103029448D02*
X106253371Y-103077067D01*
X106253371Y-103077067D02*
X106205752Y-103172305D01*
X106205752Y-103172305D02*
X106205752Y-103362781D01*
X106205752Y-103362781D02*
X106253371Y-103458019D01*
X106824800Y-103029448D02*
X106872419Y-103124686D01*
X106872419Y-103124686D02*
X106872419Y-103362781D01*
X106872419Y-103362781D02*
X106824800Y-103458019D01*
X106824800Y-103458019D02*
X106729561Y-103505638D01*
X106729561Y-103505638D02*
X106634323Y-103505638D01*
X106634323Y-103505638D02*
X106539085Y-103458019D01*
X106539085Y-103458019D02*
X106491466Y-103362781D01*
X106491466Y-103362781D02*
X106491466Y-103124686D01*
X106491466Y-103124686D02*
X106443847Y-103029448D01*
X106872419Y-102553257D02*
X106205752Y-102553257D01*
X106396228Y-102553257D02*
X106300990Y-102505638D01*
X106300990Y-102505638D02*
X106253371Y-102458019D01*
X106253371Y-102458019D02*
X106205752Y-102362781D01*
X106205752Y-102362781D02*
X106205752Y-102267543D01*
X106205752Y-102077066D02*
X106205752Y-101696114D01*
X105872419Y-101934209D02*
X106729561Y-101934209D01*
X106729561Y-101934209D02*
X106824800Y-101886590D01*
X106824800Y-101886590D02*
X106872419Y-101791352D01*
X106872419Y-101791352D02*
X106872419Y-101696114D01*
X106872419Y-100600875D02*
X106205752Y-100600875D01*
X106396228Y-100600875D02*
X106300990Y-100553256D01*
X106300990Y-100553256D02*
X106253371Y-100505637D01*
X106253371Y-100505637D02*
X106205752Y-100410399D01*
X106205752Y-100410399D02*
X106205752Y-100315161D01*
X106872419Y-99553256D02*
X106348609Y-99553256D01*
X106348609Y-99553256D02*
X106253371Y-99600875D01*
X106253371Y-99600875D02*
X106205752Y-99696113D01*
X106205752Y-99696113D02*
X106205752Y-99886589D01*
X106205752Y-99886589D02*
X106253371Y-99981827D01*
X106824800Y-99553256D02*
X106872419Y-99648494D01*
X106872419Y-99648494D02*
X106872419Y-99886589D01*
X106872419Y-99886589D02*
X106824800Y-99981827D01*
X106824800Y-99981827D02*
X106729561Y-100029446D01*
X106729561Y-100029446D02*
X106634323Y-100029446D01*
X106634323Y-100029446D02*
X106539085Y-99981827D01*
X106539085Y-99981827D02*
X106491466Y-99886589D01*
X106491466Y-99886589D02*
X106491466Y-99648494D01*
X106491466Y-99648494D02*
X106443847Y-99553256D01*
X106205752Y-99219922D02*
X106205752Y-98838970D01*
X105872419Y-99077065D02*
X106729561Y-99077065D01*
X106729561Y-99077065D02*
X106824800Y-99029446D01*
X106824800Y-99029446D02*
X106872419Y-98934208D01*
X106872419Y-98934208D02*
X106872419Y-98838970D01*
X106824800Y-98124684D02*
X106872419Y-98219922D01*
X106872419Y-98219922D02*
X106872419Y-98410398D01*
X106872419Y-98410398D02*
X106824800Y-98505636D01*
X106824800Y-98505636D02*
X106729561Y-98553255D01*
X106729561Y-98553255D02*
X106348609Y-98553255D01*
X106348609Y-98553255D02*
X106253371Y-98505636D01*
X106253371Y-98505636D02*
X106205752Y-98410398D01*
X106205752Y-98410398D02*
X106205752Y-98219922D01*
X106205752Y-98219922D02*
X106253371Y-98124684D01*
X106253371Y-98124684D02*
X106348609Y-98077065D01*
X106348609Y-98077065D02*
X106443847Y-98077065D01*
X106443847Y-98077065D02*
X106539085Y-98553255D01*
X106824800Y-96934207D02*
X106872419Y-96838969D01*
X106872419Y-96838969D02*
X106872419Y-96648493D01*
X106872419Y-96648493D02*
X106824800Y-96553255D01*
X106824800Y-96553255D02*
X106729561Y-96505636D01*
X106729561Y-96505636D02*
X106681942Y-96505636D01*
X106681942Y-96505636D02*
X106586704Y-96553255D01*
X106586704Y-96553255D02*
X106539085Y-96648493D01*
X106539085Y-96648493D02*
X106539085Y-96791350D01*
X106539085Y-96791350D02*
X106491466Y-96886588D01*
X106491466Y-96886588D02*
X106396228Y-96934207D01*
X106396228Y-96934207D02*
X106348609Y-96934207D01*
X106348609Y-96934207D02*
X106253371Y-96886588D01*
X106253371Y-96886588D02*
X106205752Y-96791350D01*
X106205752Y-96791350D02*
X106205752Y-96648493D01*
X106205752Y-96648493D02*
X106253371Y-96553255D01*
X106824800Y-95696112D02*
X106872419Y-95791350D01*
X106872419Y-95791350D02*
X106872419Y-95981826D01*
X106872419Y-95981826D02*
X106824800Y-96077064D01*
X106824800Y-96077064D02*
X106729561Y-96124683D01*
X106729561Y-96124683D02*
X106348609Y-96124683D01*
X106348609Y-96124683D02*
X106253371Y-96077064D01*
X106253371Y-96077064D02*
X106205752Y-95981826D01*
X106205752Y-95981826D02*
X106205752Y-95791350D01*
X106205752Y-95791350D02*
X106253371Y-95696112D01*
X106253371Y-95696112D02*
X106348609Y-95648493D01*
X106348609Y-95648493D02*
X106443847Y-95648493D01*
X106443847Y-95648493D02*
X106539085Y-96124683D01*
X106205752Y-95219921D02*
X106872419Y-95219921D01*
X106300990Y-95219921D02*
X106253371Y-95172302D01*
X106253371Y-95172302D02*
X106205752Y-95077064D01*
X106205752Y-95077064D02*
X106205752Y-94934207D01*
X106205752Y-94934207D02*
X106253371Y-94838969D01*
X106253371Y-94838969D02*
X106348609Y-94791350D01*
X106348609Y-94791350D02*
X106872419Y-94791350D01*
X106824800Y-94362778D02*
X106872419Y-94267540D01*
X106872419Y-94267540D02*
X106872419Y-94077064D01*
X106872419Y-94077064D02*
X106824800Y-93981826D01*
X106824800Y-93981826D02*
X106729561Y-93934207D01*
X106729561Y-93934207D02*
X106681942Y-93934207D01*
X106681942Y-93934207D02*
X106586704Y-93981826D01*
X106586704Y-93981826D02*
X106539085Y-94077064D01*
X106539085Y-94077064D02*
X106539085Y-94219921D01*
X106539085Y-94219921D02*
X106491466Y-94315159D01*
X106491466Y-94315159D02*
X106396228Y-94362778D01*
X106396228Y-94362778D02*
X106348609Y-94362778D01*
X106348609Y-94362778D02*
X106253371Y-94315159D01*
X106253371Y-94315159D02*
X106205752Y-94219921D01*
X106205752Y-94219921D02*
X106205752Y-94077064D01*
X106205752Y-94077064D02*
X106253371Y-93981826D01*
X106872419Y-93362778D02*
X106824800Y-93458016D01*
X106824800Y-93458016D02*
X106777180Y-93505635D01*
X106777180Y-93505635D02*
X106681942Y-93553254D01*
X106681942Y-93553254D02*
X106396228Y-93553254D01*
X106396228Y-93553254D02*
X106300990Y-93505635D01*
X106300990Y-93505635D02*
X106253371Y-93458016D01*
X106253371Y-93458016D02*
X106205752Y-93362778D01*
X106205752Y-93362778D02*
X106205752Y-93219921D01*
X106205752Y-93219921D02*
X106253371Y-93124683D01*
X106253371Y-93124683D02*
X106300990Y-93077064D01*
X106300990Y-93077064D02*
X106396228Y-93029445D01*
X106396228Y-93029445D02*
X106681942Y-93029445D01*
X106681942Y-93029445D02*
X106777180Y-93077064D01*
X106777180Y-93077064D02*
X106824800Y-93124683D01*
X106824800Y-93124683D02*
X106872419Y-93219921D01*
X106872419Y-93219921D02*
X106872419Y-93362778D01*
X106872419Y-92600873D02*
X106205752Y-92600873D01*
X106396228Y-92600873D02*
X106300990Y-92553254D01*
X106300990Y-92553254D02*
X106253371Y-92505635D01*
X106253371Y-92505635D02*
X106205752Y-92410397D01*
X106205752Y-92410397D02*
X106205752Y-92315159D01*
X114338095Y-108847419D02*
X114338095Y-109656942D01*
X114338095Y-109656942D02*
X114385714Y-109752180D01*
X114385714Y-109752180D02*
X114433333Y-109799800D01*
X114433333Y-109799800D02*
X114528571Y-109847419D01*
X114528571Y-109847419D02*
X114719047Y-109847419D01*
X114719047Y-109847419D02*
X114814285Y-109799800D01*
X114814285Y-109799800D02*
X114861904Y-109752180D01*
X114861904Y-109752180D02*
X114909523Y-109656942D01*
X114909523Y-109656942D02*
X114909523Y-108847419D01*
X115909523Y-109847419D02*
X115338095Y-109847419D01*
X115623809Y-109847419D02*
X115623809Y-108847419D01*
X115623809Y-108847419D02*
X115528571Y-108990276D01*
X115528571Y-108990276D02*
X115433333Y-109085514D01*
X115433333Y-109085514D02*
X115338095Y-109133133D01*
X119690866Y-97232455D02*
X120390866Y-97232455D01*
X119690866Y-97565788D02*
X120390866Y-97565788D01*
X120390866Y-97565788D02*
X119690866Y-97965788D01*
X119690866Y-97965788D02*
X120390866Y-97965788D01*
X120390866Y-98199121D02*
X120390866Y-98599121D01*
X119690866Y-98399121D02*
X120390866Y-98399121D01*
X117224200Y-97199122D02*
X117190866Y-97299122D01*
X117190866Y-97299122D02*
X117190866Y-97465789D01*
X117190866Y-97465789D02*
X117224200Y-97532455D01*
X117224200Y-97532455D02*
X117257533Y-97565789D01*
X117257533Y-97565789D02*
X117324200Y-97599122D01*
X117324200Y-97599122D02*
X117390866Y-97599122D01*
X117390866Y-97599122D02*
X117457533Y-97565789D01*
X117457533Y-97565789D02*
X117490866Y-97532455D01*
X117490866Y-97532455D02*
X117524200Y-97465789D01*
X117524200Y-97465789D02*
X117557533Y-97332455D01*
X117557533Y-97332455D02*
X117590866Y-97265789D01*
X117590866Y-97265789D02*
X117624200Y-97232455D01*
X117624200Y-97232455D02*
X117690866Y-97199122D01*
X117690866Y-97199122D02*
X117757533Y-97199122D01*
X117757533Y-97199122D02*
X117824200Y-97232455D01*
X117824200Y-97232455D02*
X117857533Y-97265789D01*
X117857533Y-97265789D02*
X117890866Y-97332455D01*
X117890866Y-97332455D02*
X117890866Y-97499122D01*
X117890866Y-97499122D02*
X117857533Y-97599122D01*
X117190866Y-97899122D02*
X117890866Y-97899122D01*
X117890866Y-97899122D02*
X117890866Y-98065789D01*
X117890866Y-98065789D02*
X117857533Y-98165789D01*
X117857533Y-98165789D02*
X117790866Y-98232456D01*
X117790866Y-98232456D02*
X117724200Y-98265789D01*
X117724200Y-98265789D02*
X117590866Y-98299122D01*
X117590866Y-98299122D02*
X117490866Y-98299122D01*
X117490866Y-98299122D02*
X117357533Y-98265789D01*
X117357533Y-98265789D02*
X117290866Y-98232456D01*
X117290866Y-98232456D02*
X117224200Y-98165789D01*
X117224200Y-98165789D02*
X117190866Y-98065789D01*
X117190866Y-98065789D02*
X117190866Y-97899122D01*
X117390866Y-98565789D02*
X117390866Y-98899122D01*
X117190866Y-98499122D02*
X117890866Y-98732456D01*
X117890866Y-98732456D02*
X117190866Y-98965789D01*
X114724200Y-97199122D02*
X114690866Y-97299122D01*
X114690866Y-97299122D02*
X114690866Y-97465789D01*
X114690866Y-97465789D02*
X114724200Y-97532455D01*
X114724200Y-97532455D02*
X114757533Y-97565789D01*
X114757533Y-97565789D02*
X114824200Y-97599122D01*
X114824200Y-97599122D02*
X114890866Y-97599122D01*
X114890866Y-97599122D02*
X114957533Y-97565789D01*
X114957533Y-97565789D02*
X114990866Y-97532455D01*
X114990866Y-97532455D02*
X115024200Y-97465789D01*
X115024200Y-97465789D02*
X115057533Y-97332455D01*
X115057533Y-97332455D02*
X115090866Y-97265789D01*
X115090866Y-97265789D02*
X115124200Y-97232455D01*
X115124200Y-97232455D02*
X115190866Y-97199122D01*
X115190866Y-97199122D02*
X115257533Y-97199122D01*
X115257533Y-97199122D02*
X115324200Y-97232455D01*
X115324200Y-97232455D02*
X115357533Y-97265789D01*
X115357533Y-97265789D02*
X115390866Y-97332455D01*
X115390866Y-97332455D02*
X115390866Y-97499122D01*
X115390866Y-97499122D02*
X115357533Y-97599122D01*
X114757533Y-98299122D02*
X114724200Y-98265789D01*
X114724200Y-98265789D02*
X114690866Y-98165789D01*
X114690866Y-98165789D02*
X114690866Y-98099122D01*
X114690866Y-98099122D02*
X114724200Y-97999122D01*
X114724200Y-97999122D02*
X114790866Y-97932456D01*
X114790866Y-97932456D02*
X114857533Y-97899122D01*
X114857533Y-97899122D02*
X114990866Y-97865789D01*
X114990866Y-97865789D02*
X115090866Y-97865789D01*
X115090866Y-97865789D02*
X115224200Y-97899122D01*
X115224200Y-97899122D02*
X115290866Y-97932456D01*
X115290866Y-97932456D02*
X115357533Y-97999122D01*
X115357533Y-97999122D02*
X115390866Y-98099122D01*
X115390866Y-98099122D02*
X115390866Y-98165789D01*
X115390866Y-98165789D02*
X115357533Y-98265789D01*
X115357533Y-98265789D02*
X115324200Y-98299122D01*
X114690866Y-98932456D02*
X114690866Y-98599122D01*
X114690866Y-98599122D02*
X115390866Y-98599122D01*
X112857533Y-97599122D02*
X112890866Y-97532455D01*
X112890866Y-97532455D02*
X112890866Y-97432455D01*
X112890866Y-97432455D02*
X112857533Y-97332455D01*
X112857533Y-97332455D02*
X112790866Y-97265789D01*
X112790866Y-97265789D02*
X112724200Y-97232455D01*
X112724200Y-97232455D02*
X112590866Y-97199122D01*
X112590866Y-97199122D02*
X112490866Y-97199122D01*
X112490866Y-97199122D02*
X112357533Y-97232455D01*
X112357533Y-97232455D02*
X112290866Y-97265789D01*
X112290866Y-97265789D02*
X112224200Y-97332455D01*
X112224200Y-97332455D02*
X112190866Y-97432455D01*
X112190866Y-97432455D02*
X112190866Y-97499122D01*
X112190866Y-97499122D02*
X112224200Y-97599122D01*
X112224200Y-97599122D02*
X112257533Y-97632455D01*
X112257533Y-97632455D02*
X112490866Y-97632455D01*
X112490866Y-97632455D02*
X112490866Y-97499122D01*
X112190866Y-97932455D02*
X112890866Y-97932455D01*
X112890866Y-97932455D02*
X112190866Y-98332455D01*
X112190866Y-98332455D02*
X112890866Y-98332455D01*
X112190866Y-98665788D02*
X112890866Y-98665788D01*
X112890866Y-98665788D02*
X112890866Y-98832455D01*
X112890866Y-98832455D02*
X112857533Y-98932455D01*
X112857533Y-98932455D02*
X112790866Y-98999122D01*
X112790866Y-98999122D02*
X112724200Y-99032455D01*
X112724200Y-99032455D02*
X112590866Y-99065788D01*
X112590866Y-99065788D02*
X112490866Y-99065788D01*
X112490866Y-99065788D02*
X112357533Y-99032455D01*
X112357533Y-99032455D02*
X112290866Y-98999122D01*
X112290866Y-98999122D02*
X112224200Y-98932455D01*
X112224200Y-98932455D02*
X112190866Y-98832455D01*
X112190866Y-98832455D02*
X112190866Y-98665788D01*
X110390866Y-97132455D02*
X109690866Y-97365789D01*
X109690866Y-97365789D02*
X110390866Y-97599122D01*
X109757533Y-98232455D02*
X109724200Y-98199122D01*
X109724200Y-98199122D02*
X109690866Y-98099122D01*
X109690866Y-98099122D02*
X109690866Y-98032455D01*
X109690866Y-98032455D02*
X109724200Y-97932455D01*
X109724200Y-97932455D02*
X109790866Y-97865789D01*
X109790866Y-97865789D02*
X109857533Y-97832455D01*
X109857533Y-97832455D02*
X109990866Y-97799122D01*
X109990866Y-97799122D02*
X110090866Y-97799122D01*
X110090866Y-97799122D02*
X110224200Y-97832455D01*
X110224200Y-97832455D02*
X110290866Y-97865789D01*
X110290866Y-97865789D02*
X110357533Y-97932455D01*
X110357533Y-97932455D02*
X110390866Y-98032455D01*
X110390866Y-98032455D02*
X110390866Y-98099122D01*
X110390866Y-98099122D02*
X110357533Y-98199122D01*
X110357533Y-98199122D02*
X110324200Y-98232455D01*
X109757533Y-98932455D02*
X109724200Y-98899122D01*
X109724200Y-98899122D02*
X109690866Y-98799122D01*
X109690866Y-98799122D02*
X109690866Y-98732455D01*
X109690866Y-98732455D02*
X109724200Y-98632455D01*
X109724200Y-98632455D02*
X109790866Y-98565789D01*
X109790866Y-98565789D02*
X109857533Y-98532455D01*
X109857533Y-98532455D02*
X109990866Y-98499122D01*
X109990866Y-98499122D02*
X110090866Y-98499122D01*
X110090866Y-98499122D02*
X110224200Y-98532455D01*
X110224200Y-98532455D02*
X110290866Y-98565789D01*
X110290866Y-98565789D02*
X110357533Y-98632455D01*
X110357533Y-98632455D02*
X110390866Y-98732455D01*
X110390866Y-98732455D02*
X110390866Y-98799122D01*
X110390866Y-98799122D02*
X110357533Y-98899122D01*
X110357533Y-98899122D02*
X110324200Y-98932455D01*
D11*
X164986667Y-50477200D02*
X165129524Y-50524819D01*
X165129524Y-50524819D02*
X165367619Y-50524819D01*
X165367619Y-50524819D02*
X165462857Y-50477200D01*
X165462857Y-50477200D02*
X165510476Y-50429580D01*
X165510476Y-50429580D02*
X165558095Y-50334342D01*
X165558095Y-50334342D02*
X165558095Y-50239104D01*
X165558095Y-50239104D02*
X165510476Y-50143866D01*
X165510476Y-50143866D02*
X165462857Y-50096247D01*
X165462857Y-50096247D02*
X165367619Y-50048628D01*
X165367619Y-50048628D02*
X165177143Y-50001009D01*
X165177143Y-50001009D02*
X165081905Y-49953390D01*
X165081905Y-49953390D02*
X165034286Y-49905771D01*
X165034286Y-49905771D02*
X164986667Y-49810533D01*
X164986667Y-49810533D02*
X164986667Y-49715295D01*
X164986667Y-49715295D02*
X165034286Y-49620057D01*
X165034286Y-49620057D02*
X165081905Y-49572438D01*
X165081905Y-49572438D02*
X165177143Y-49524819D01*
X165177143Y-49524819D02*
X165415238Y-49524819D01*
X165415238Y-49524819D02*
X165558095Y-49572438D01*
X165891429Y-49524819D02*
X166129524Y-50524819D01*
X166129524Y-50524819D02*
X166320000Y-49810533D01*
X166320000Y-49810533D02*
X166510476Y-50524819D01*
X166510476Y-50524819D02*
X166748572Y-49524819D01*
X167034286Y-49524819D02*
X167653333Y-49524819D01*
X167653333Y-49524819D02*
X167320000Y-49905771D01*
X167320000Y-49905771D02*
X167462857Y-49905771D01*
X167462857Y-49905771D02*
X167558095Y-49953390D01*
X167558095Y-49953390D02*
X167605714Y-50001009D01*
X167605714Y-50001009D02*
X167653333Y-50096247D01*
X167653333Y-50096247D02*
X167653333Y-50334342D01*
X167653333Y-50334342D02*
X167605714Y-50429580D01*
X167605714Y-50429580D02*
X167558095Y-50477200D01*
X167558095Y-50477200D02*
X167462857Y-50524819D01*
X167462857Y-50524819D02*
X167177143Y-50524819D01*
X167177143Y-50524819D02*
X167081905Y-50477200D01*
X167081905Y-50477200D02*
X167034286Y-50429580D01*
X146086667Y-50477200D02*
X146229524Y-50524819D01*
X146229524Y-50524819D02*
X146467619Y-50524819D01*
X146467619Y-50524819D02*
X146562857Y-50477200D01*
X146562857Y-50477200D02*
X146610476Y-50429580D01*
X146610476Y-50429580D02*
X146658095Y-50334342D01*
X146658095Y-50334342D02*
X146658095Y-50239104D01*
X146658095Y-50239104D02*
X146610476Y-50143866D01*
X146610476Y-50143866D02*
X146562857Y-50096247D01*
X146562857Y-50096247D02*
X146467619Y-50048628D01*
X146467619Y-50048628D02*
X146277143Y-50001009D01*
X146277143Y-50001009D02*
X146181905Y-49953390D01*
X146181905Y-49953390D02*
X146134286Y-49905771D01*
X146134286Y-49905771D02*
X146086667Y-49810533D01*
X146086667Y-49810533D02*
X146086667Y-49715295D01*
X146086667Y-49715295D02*
X146134286Y-49620057D01*
X146134286Y-49620057D02*
X146181905Y-49572438D01*
X146181905Y-49572438D02*
X146277143Y-49524819D01*
X146277143Y-49524819D02*
X146515238Y-49524819D01*
X146515238Y-49524819D02*
X146658095Y-49572438D01*
X146991429Y-49524819D02*
X147229524Y-50524819D01*
X147229524Y-50524819D02*
X147420000Y-49810533D01*
X147420000Y-49810533D02*
X147610476Y-50524819D01*
X147610476Y-50524819D02*
X147848572Y-49524819D01*
X148181905Y-49620057D02*
X148229524Y-49572438D01*
X148229524Y-49572438D02*
X148324762Y-49524819D01*
X148324762Y-49524819D02*
X148562857Y-49524819D01*
X148562857Y-49524819D02*
X148658095Y-49572438D01*
X148658095Y-49572438D02*
X148705714Y-49620057D01*
X148705714Y-49620057D02*
X148753333Y-49715295D01*
X148753333Y-49715295D02*
X148753333Y-49810533D01*
X148753333Y-49810533D02*
X148705714Y-49953390D01*
X148705714Y-49953390D02*
X148134286Y-50524819D01*
X148134286Y-50524819D02*
X148753333Y-50524819D01*
X126486667Y-51277200D02*
X126629524Y-51324819D01*
X126629524Y-51324819D02*
X126867619Y-51324819D01*
X126867619Y-51324819D02*
X126962857Y-51277200D01*
X126962857Y-51277200D02*
X127010476Y-51229580D01*
X127010476Y-51229580D02*
X127058095Y-51134342D01*
X127058095Y-51134342D02*
X127058095Y-51039104D01*
X127058095Y-51039104D02*
X127010476Y-50943866D01*
X127010476Y-50943866D02*
X126962857Y-50896247D01*
X126962857Y-50896247D02*
X126867619Y-50848628D01*
X126867619Y-50848628D02*
X126677143Y-50801009D01*
X126677143Y-50801009D02*
X126581905Y-50753390D01*
X126581905Y-50753390D02*
X126534286Y-50705771D01*
X126534286Y-50705771D02*
X126486667Y-50610533D01*
X126486667Y-50610533D02*
X126486667Y-50515295D01*
X126486667Y-50515295D02*
X126534286Y-50420057D01*
X126534286Y-50420057D02*
X126581905Y-50372438D01*
X126581905Y-50372438D02*
X126677143Y-50324819D01*
X126677143Y-50324819D02*
X126915238Y-50324819D01*
X126915238Y-50324819D02*
X127058095Y-50372438D01*
X127391429Y-50324819D02*
X127629524Y-51324819D01*
X127629524Y-51324819D02*
X127820000Y-50610533D01*
X127820000Y-50610533D02*
X128010476Y-51324819D01*
X128010476Y-51324819D02*
X128248572Y-50324819D01*
X129153333Y-51324819D02*
X128581905Y-51324819D01*
X128867619Y-51324819D02*
X128867619Y-50324819D01*
X128867619Y-50324819D02*
X128772381Y-50467676D01*
X128772381Y-50467676D02*
X128677143Y-50562914D01*
X128677143Y-50562914D02*
X128581905Y-50610533D01*
X112004819Y-62086666D02*
X111528628Y-62419999D01*
X112004819Y-62658094D02*
X111004819Y-62658094D01*
X111004819Y-62658094D02*
X111004819Y-62277142D01*
X111004819Y-62277142D02*
X111052438Y-62181904D01*
X111052438Y-62181904D02*
X111100057Y-62134285D01*
X111100057Y-62134285D02*
X111195295Y-62086666D01*
X111195295Y-62086666D02*
X111338152Y-62086666D01*
X111338152Y-62086666D02*
X111433390Y-62134285D01*
X111433390Y-62134285D02*
X111481009Y-62181904D01*
X111481009Y-62181904D02*
X111528628Y-62277142D01*
X111528628Y-62277142D02*
X111528628Y-62658094D01*
X111338152Y-61229523D02*
X112004819Y-61229523D01*
X110957200Y-61467618D02*
X111671485Y-61705713D01*
X111671485Y-61705713D02*
X111671485Y-61086666D01*
X165553333Y-64304819D02*
X165220000Y-63828628D01*
X164981905Y-64304819D02*
X164981905Y-63304819D01*
X164981905Y-63304819D02*
X165362857Y-63304819D01*
X165362857Y-63304819D02*
X165458095Y-63352438D01*
X165458095Y-63352438D02*
X165505714Y-63400057D01*
X165505714Y-63400057D02*
X165553333Y-63495295D01*
X165553333Y-63495295D02*
X165553333Y-63638152D01*
X165553333Y-63638152D02*
X165505714Y-63733390D01*
X165505714Y-63733390D02*
X165458095Y-63781009D01*
X165458095Y-63781009D02*
X165362857Y-63828628D01*
X165362857Y-63828628D02*
X164981905Y-63828628D01*
X165886667Y-63304819D02*
X166505714Y-63304819D01*
X166505714Y-63304819D02*
X166172381Y-63685771D01*
X166172381Y-63685771D02*
X166315238Y-63685771D01*
X166315238Y-63685771D02*
X166410476Y-63733390D01*
X166410476Y-63733390D02*
X166458095Y-63781009D01*
X166458095Y-63781009D02*
X166505714Y-63876247D01*
X166505714Y-63876247D02*
X166505714Y-64114342D01*
X166505714Y-64114342D02*
X166458095Y-64209580D01*
X166458095Y-64209580D02*
X166410476Y-64257200D01*
X166410476Y-64257200D02*
X166315238Y-64304819D01*
X166315238Y-64304819D02*
X166029524Y-64304819D01*
X166029524Y-64304819D02*
X165934286Y-64257200D01*
X165934286Y-64257200D02*
X165886667Y-64209580D01*
X146753333Y-64804819D02*
X146420000Y-64328628D01*
X146181905Y-64804819D02*
X146181905Y-63804819D01*
X146181905Y-63804819D02*
X146562857Y-63804819D01*
X146562857Y-63804819D02*
X146658095Y-63852438D01*
X146658095Y-63852438D02*
X146705714Y-63900057D01*
X146705714Y-63900057D02*
X146753333Y-63995295D01*
X146753333Y-63995295D02*
X146753333Y-64138152D01*
X146753333Y-64138152D02*
X146705714Y-64233390D01*
X146705714Y-64233390D02*
X146658095Y-64281009D01*
X146658095Y-64281009D02*
X146562857Y-64328628D01*
X146562857Y-64328628D02*
X146181905Y-64328628D01*
X147134286Y-63900057D02*
X147181905Y-63852438D01*
X147181905Y-63852438D02*
X147277143Y-63804819D01*
X147277143Y-63804819D02*
X147515238Y-63804819D01*
X147515238Y-63804819D02*
X147610476Y-63852438D01*
X147610476Y-63852438D02*
X147658095Y-63900057D01*
X147658095Y-63900057D02*
X147705714Y-63995295D01*
X147705714Y-63995295D02*
X147705714Y-64090533D01*
X147705714Y-64090533D02*
X147658095Y-64233390D01*
X147658095Y-64233390D02*
X147086667Y-64804819D01*
X147086667Y-64804819D02*
X147705714Y-64804819D01*
X118991905Y-66114819D02*
X118991905Y-65114819D01*
X118991905Y-65114819D02*
X119230000Y-65114819D01*
X119230000Y-65114819D02*
X119372857Y-65162438D01*
X119372857Y-65162438D02*
X119468095Y-65257676D01*
X119468095Y-65257676D02*
X119515714Y-65352914D01*
X119515714Y-65352914D02*
X119563333Y-65543390D01*
X119563333Y-65543390D02*
X119563333Y-65686247D01*
X119563333Y-65686247D02*
X119515714Y-65876723D01*
X119515714Y-65876723D02*
X119468095Y-65971961D01*
X119468095Y-65971961D02*
X119372857Y-66067200D01*
X119372857Y-66067200D02*
X119230000Y-66114819D01*
X119230000Y-66114819D02*
X118991905Y-66114819D01*
X120515714Y-66114819D02*
X119944286Y-66114819D01*
X120230000Y-66114819D02*
X120230000Y-65114819D01*
X120230000Y-65114819D02*
X120134762Y-65257676D01*
X120134762Y-65257676D02*
X120039524Y-65352914D01*
X120039524Y-65352914D02*
X119944286Y-65400533D01*
X165583333Y-58909580D02*
X165535714Y-58957200D01*
X165535714Y-58957200D02*
X165392857Y-59004819D01*
X165392857Y-59004819D02*
X165297619Y-59004819D01*
X165297619Y-59004819D02*
X165154762Y-58957200D01*
X165154762Y-58957200D02*
X165059524Y-58861961D01*
X165059524Y-58861961D02*
X165011905Y-58766723D01*
X165011905Y-58766723D02*
X164964286Y-58576247D01*
X164964286Y-58576247D02*
X164964286Y-58433390D01*
X164964286Y-58433390D02*
X165011905Y-58242914D01*
X165011905Y-58242914D02*
X165059524Y-58147676D01*
X165059524Y-58147676D02*
X165154762Y-58052438D01*
X165154762Y-58052438D02*
X165297619Y-58004819D01*
X165297619Y-58004819D02*
X165392857Y-58004819D01*
X165392857Y-58004819D02*
X165535714Y-58052438D01*
X165535714Y-58052438D02*
X165583333Y-58100057D01*
X165916667Y-58004819D02*
X166535714Y-58004819D01*
X166535714Y-58004819D02*
X166202381Y-58385771D01*
X166202381Y-58385771D02*
X166345238Y-58385771D01*
X166345238Y-58385771D02*
X166440476Y-58433390D01*
X166440476Y-58433390D02*
X166488095Y-58481009D01*
X166488095Y-58481009D02*
X166535714Y-58576247D01*
X166535714Y-58576247D02*
X166535714Y-58814342D01*
X166535714Y-58814342D02*
X166488095Y-58909580D01*
X166488095Y-58909580D02*
X166440476Y-58957200D01*
X166440476Y-58957200D02*
X166345238Y-59004819D01*
X166345238Y-59004819D02*
X166059524Y-59004819D01*
X166059524Y-59004819D02*
X165964286Y-58957200D01*
X165964286Y-58957200D02*
X165916667Y-58909580D01*
X147033333Y-59359580D02*
X146985714Y-59407200D01*
X146985714Y-59407200D02*
X146842857Y-59454819D01*
X146842857Y-59454819D02*
X146747619Y-59454819D01*
X146747619Y-59454819D02*
X146604762Y-59407200D01*
X146604762Y-59407200D02*
X146509524Y-59311961D01*
X146509524Y-59311961D02*
X146461905Y-59216723D01*
X146461905Y-59216723D02*
X146414286Y-59026247D01*
X146414286Y-59026247D02*
X146414286Y-58883390D01*
X146414286Y-58883390D02*
X146461905Y-58692914D01*
X146461905Y-58692914D02*
X146509524Y-58597676D01*
X146509524Y-58597676D02*
X146604762Y-58502438D01*
X146604762Y-58502438D02*
X146747619Y-58454819D01*
X146747619Y-58454819D02*
X146842857Y-58454819D01*
X146842857Y-58454819D02*
X146985714Y-58502438D01*
X146985714Y-58502438D02*
X147033333Y-58550057D01*
X147414286Y-58550057D02*
X147461905Y-58502438D01*
X147461905Y-58502438D02*
X147557143Y-58454819D01*
X147557143Y-58454819D02*
X147795238Y-58454819D01*
X147795238Y-58454819D02*
X147890476Y-58502438D01*
X147890476Y-58502438D02*
X147938095Y-58550057D01*
X147938095Y-58550057D02*
X147985714Y-58645295D01*
X147985714Y-58645295D02*
X147985714Y-58740533D01*
X147985714Y-58740533D02*
X147938095Y-58883390D01*
X147938095Y-58883390D02*
X147366667Y-59454819D01*
X147366667Y-59454819D02*
X147985714Y-59454819D01*
X127233333Y-60059580D02*
X127185714Y-60107200D01*
X127185714Y-60107200D02*
X127042857Y-60154819D01*
X127042857Y-60154819D02*
X126947619Y-60154819D01*
X126947619Y-60154819D02*
X126804762Y-60107200D01*
X126804762Y-60107200D02*
X126709524Y-60011961D01*
X126709524Y-60011961D02*
X126661905Y-59916723D01*
X126661905Y-59916723D02*
X126614286Y-59726247D01*
X126614286Y-59726247D02*
X126614286Y-59583390D01*
X126614286Y-59583390D02*
X126661905Y-59392914D01*
X126661905Y-59392914D02*
X126709524Y-59297676D01*
X126709524Y-59297676D02*
X126804762Y-59202438D01*
X126804762Y-59202438D02*
X126947619Y-59154819D01*
X126947619Y-59154819D02*
X127042857Y-59154819D01*
X127042857Y-59154819D02*
X127185714Y-59202438D01*
X127185714Y-59202438D02*
X127233333Y-59250057D01*
X128185714Y-60154819D02*
X127614286Y-60154819D01*
X127900000Y-60154819D02*
X127900000Y-59154819D01*
X127900000Y-59154819D02*
X127804762Y-59297676D01*
X127804762Y-59297676D02*
X127709524Y-59392914D01*
X127709524Y-59392914D02*
X127614286Y-59440533D01*
X151789104Y-82114285D02*
X151789104Y-81638095D01*
X152074819Y-82209523D02*
X151074819Y-81876190D01*
X151074819Y-81876190D02*
X152074819Y-81542857D01*
X152074819Y-80685714D02*
X152074819Y-81257142D01*
X152074819Y-80971428D02*
X151074819Y-80971428D01*
X151074819Y-80971428D02*
X151217676Y-81066666D01*
X151217676Y-81066666D02*
X151312914Y-81161904D01*
X151312914Y-81161904D02*
X151360533Y-81257142D01*
X111525180Y-80138095D02*
X110715657Y-80138095D01*
X110715657Y-80138095D02*
X110620419Y-80185714D01*
X110620419Y-80185714D02*
X110572800Y-80233333D01*
X110572800Y-80233333D02*
X110525180Y-80328571D01*
X110525180Y-80328571D02*
X110525180Y-80519047D01*
X110525180Y-80519047D02*
X110572800Y-80614285D01*
X110572800Y-80614285D02*
X110620419Y-80661904D01*
X110620419Y-80661904D02*
X110715657Y-80709523D01*
X110715657Y-80709523D02*
X111525180Y-80709523D01*
X110572800Y-81138095D02*
X110525180Y-81280952D01*
X110525180Y-81280952D02*
X110525180Y-81519047D01*
X110525180Y-81519047D02*
X110572800Y-81614285D01*
X110572800Y-81614285D02*
X110620419Y-81661904D01*
X110620419Y-81661904D02*
X110715657Y-81709523D01*
X110715657Y-81709523D02*
X110810895Y-81709523D01*
X110810895Y-81709523D02*
X110906133Y-81661904D01*
X110906133Y-81661904D02*
X110953752Y-81614285D01*
X110953752Y-81614285D02*
X111001371Y-81519047D01*
X111001371Y-81519047D02*
X111048990Y-81328571D01*
X111048990Y-81328571D02*
X111096609Y-81233333D01*
X111096609Y-81233333D02*
X111144228Y-81185714D01*
X111144228Y-81185714D02*
X111239466Y-81138095D01*
X111239466Y-81138095D02*
X111334704Y-81138095D01*
X111334704Y-81138095D02*
X111429942Y-81185714D01*
X111429942Y-81185714D02*
X111477561Y-81233333D01*
X111477561Y-81233333D02*
X111525180Y-81328571D01*
X111525180Y-81328571D02*
X111525180Y-81566666D01*
X111525180Y-81566666D02*
X111477561Y-81709523D01*
X111048990Y-82471428D02*
X111001371Y-82614285D01*
X111001371Y-82614285D02*
X110953752Y-82661904D01*
X110953752Y-82661904D02*
X110858514Y-82709523D01*
X110858514Y-82709523D02*
X110715657Y-82709523D01*
X110715657Y-82709523D02*
X110620419Y-82661904D01*
X110620419Y-82661904D02*
X110572800Y-82614285D01*
X110572800Y-82614285D02*
X110525180Y-82519047D01*
X110525180Y-82519047D02*
X110525180Y-82138095D01*
X110525180Y-82138095D02*
X111525180Y-82138095D01*
X111525180Y-82138095D02*
X111525180Y-82471428D01*
X111525180Y-82471428D02*
X111477561Y-82566666D01*
X111477561Y-82566666D02*
X111429942Y-82614285D01*
X111429942Y-82614285D02*
X111334704Y-82661904D01*
X111334704Y-82661904D02*
X111239466Y-82661904D01*
X111239466Y-82661904D02*
X111144228Y-82614285D01*
X111144228Y-82614285D02*
X111096609Y-82566666D01*
X111096609Y-82566666D02*
X111048990Y-82471428D01*
X111048990Y-82471428D02*
X111048990Y-82138095D01*
D10*
X152297419Y-94961904D02*
X153106942Y-94961904D01*
X153106942Y-94961904D02*
X153202180Y-94914285D01*
X153202180Y-94914285D02*
X153249800Y-94866666D01*
X153249800Y-94866666D02*
X153297419Y-94771428D01*
X153297419Y-94771428D02*
X153297419Y-94580952D01*
X153297419Y-94580952D02*
X153249800Y-94485714D01*
X153249800Y-94485714D02*
X153202180Y-94438095D01*
X153202180Y-94438095D02*
X153106942Y-94390476D01*
X153106942Y-94390476D02*
X152297419Y-94390476D01*
X152392657Y-93961904D02*
X152345038Y-93914285D01*
X152345038Y-93914285D02*
X152297419Y-93819047D01*
X152297419Y-93819047D02*
X152297419Y-93580952D01*
X152297419Y-93580952D02*
X152345038Y-93485714D01*
X152345038Y-93485714D02*
X152392657Y-93438095D01*
X152392657Y-93438095D02*
X152487895Y-93390476D01*
X152487895Y-93390476D02*
X152583133Y-93390476D01*
X152583133Y-93390476D02*
X152725990Y-93438095D01*
X152725990Y-93438095D02*
X153297419Y-94009523D01*
X153297419Y-94009523D02*
X153297419Y-93390476D01*
X127315800Y-100350877D02*
X127349133Y-100250877D01*
X127349133Y-100250877D02*
X127349133Y-100084211D01*
X127349133Y-100084211D02*
X127315800Y-100017544D01*
X127315800Y-100017544D02*
X127282466Y-99984211D01*
X127282466Y-99984211D02*
X127215800Y-99950877D01*
X127215800Y-99950877D02*
X127149133Y-99950877D01*
X127149133Y-99950877D02*
X127082466Y-99984211D01*
X127082466Y-99984211D02*
X127049133Y-100017544D01*
X127049133Y-100017544D02*
X127015800Y-100084211D01*
X127015800Y-100084211D02*
X126982466Y-100217544D01*
X126982466Y-100217544D02*
X126949133Y-100284211D01*
X126949133Y-100284211D02*
X126915800Y-100317544D01*
X126915800Y-100317544D02*
X126849133Y-100350877D01*
X126849133Y-100350877D02*
X126782466Y-100350877D01*
X126782466Y-100350877D02*
X126715800Y-100317544D01*
X126715800Y-100317544D02*
X126682466Y-100284211D01*
X126682466Y-100284211D02*
X126649133Y-100217544D01*
X126649133Y-100217544D02*
X126649133Y-100050877D01*
X126649133Y-100050877D02*
X126682466Y-99950877D01*
X127349133Y-99650877D02*
X126649133Y-99650877D01*
X126649133Y-99650877D02*
X126649133Y-99484210D01*
X126649133Y-99484210D02*
X126682466Y-99384210D01*
X126682466Y-99384210D02*
X126749133Y-99317544D01*
X126749133Y-99317544D02*
X126815800Y-99284210D01*
X126815800Y-99284210D02*
X126949133Y-99250877D01*
X126949133Y-99250877D02*
X127049133Y-99250877D01*
X127049133Y-99250877D02*
X127182466Y-99284210D01*
X127182466Y-99284210D02*
X127249133Y-99317544D01*
X127249133Y-99317544D02*
X127315800Y-99384210D01*
X127315800Y-99384210D02*
X127349133Y-99484210D01*
X127349133Y-99484210D02*
X127349133Y-99650877D01*
X127149133Y-98984210D02*
X127149133Y-98650877D01*
X127349133Y-99050877D02*
X126649133Y-98817544D01*
X126649133Y-98817544D02*
X127349133Y-98584210D01*
X127315800Y-105430877D02*
X127349133Y-105330877D01*
X127349133Y-105330877D02*
X127349133Y-105164211D01*
X127349133Y-105164211D02*
X127315800Y-105097544D01*
X127315800Y-105097544D02*
X127282466Y-105064211D01*
X127282466Y-105064211D02*
X127215800Y-105030877D01*
X127215800Y-105030877D02*
X127149133Y-105030877D01*
X127149133Y-105030877D02*
X127082466Y-105064211D01*
X127082466Y-105064211D02*
X127049133Y-105097544D01*
X127049133Y-105097544D02*
X127015800Y-105164211D01*
X127015800Y-105164211D02*
X126982466Y-105297544D01*
X126982466Y-105297544D02*
X126949133Y-105364211D01*
X126949133Y-105364211D02*
X126915800Y-105397544D01*
X126915800Y-105397544D02*
X126849133Y-105430877D01*
X126849133Y-105430877D02*
X126782466Y-105430877D01*
X126782466Y-105430877D02*
X126715800Y-105397544D01*
X126715800Y-105397544D02*
X126682466Y-105364211D01*
X126682466Y-105364211D02*
X126649133Y-105297544D01*
X126649133Y-105297544D02*
X126649133Y-105130877D01*
X126649133Y-105130877D02*
X126682466Y-105030877D01*
X127282466Y-104330877D02*
X127315800Y-104364210D01*
X127315800Y-104364210D02*
X127349133Y-104464210D01*
X127349133Y-104464210D02*
X127349133Y-104530877D01*
X127349133Y-104530877D02*
X127315800Y-104630877D01*
X127315800Y-104630877D02*
X127249133Y-104697544D01*
X127249133Y-104697544D02*
X127182466Y-104730877D01*
X127182466Y-104730877D02*
X127049133Y-104764210D01*
X127049133Y-104764210D02*
X126949133Y-104764210D01*
X126949133Y-104764210D02*
X126815800Y-104730877D01*
X126815800Y-104730877D02*
X126749133Y-104697544D01*
X126749133Y-104697544D02*
X126682466Y-104630877D01*
X126682466Y-104630877D02*
X126649133Y-104530877D01*
X126649133Y-104530877D02*
X126649133Y-104464210D01*
X126649133Y-104464210D02*
X126682466Y-104364210D01*
X126682466Y-104364210D02*
X126715800Y-104330877D01*
X127349133Y-103697544D02*
X127349133Y-104030877D01*
X127349133Y-104030877D02*
X126649133Y-104030877D01*
X126649133Y-110577544D02*
X127349133Y-110344211D01*
X127349133Y-110344211D02*
X126649133Y-110110877D01*
X127282466Y-109477544D02*
X127315800Y-109510877D01*
X127315800Y-109510877D02*
X127349133Y-109610877D01*
X127349133Y-109610877D02*
X127349133Y-109677544D01*
X127349133Y-109677544D02*
X127315800Y-109777544D01*
X127315800Y-109777544D02*
X127249133Y-109844211D01*
X127249133Y-109844211D02*
X127182466Y-109877544D01*
X127182466Y-109877544D02*
X127049133Y-109910877D01*
X127049133Y-109910877D02*
X126949133Y-109910877D01*
X126949133Y-109910877D02*
X126815800Y-109877544D01*
X126815800Y-109877544D02*
X126749133Y-109844211D01*
X126749133Y-109844211D02*
X126682466Y-109777544D01*
X126682466Y-109777544D02*
X126649133Y-109677544D01*
X126649133Y-109677544D02*
X126649133Y-109610877D01*
X126649133Y-109610877D02*
X126682466Y-109510877D01*
X126682466Y-109510877D02*
X126715800Y-109477544D01*
X127282466Y-108777544D02*
X127315800Y-108810877D01*
X127315800Y-108810877D02*
X127349133Y-108910877D01*
X127349133Y-108910877D02*
X127349133Y-108977544D01*
X127349133Y-108977544D02*
X127315800Y-109077544D01*
X127315800Y-109077544D02*
X127249133Y-109144211D01*
X127249133Y-109144211D02*
X127182466Y-109177544D01*
X127182466Y-109177544D02*
X127049133Y-109210877D01*
X127049133Y-109210877D02*
X126949133Y-109210877D01*
X126949133Y-109210877D02*
X126815800Y-109177544D01*
X126815800Y-109177544D02*
X126749133Y-109144211D01*
X126749133Y-109144211D02*
X126682466Y-109077544D01*
X126682466Y-109077544D02*
X126649133Y-108977544D01*
X126649133Y-108977544D02*
X126649133Y-108910877D01*
X126649133Y-108910877D02*
X126682466Y-108810877D01*
X126682466Y-108810877D02*
X126715800Y-108777544D01*
X126682466Y-115190877D02*
X126649133Y-115257544D01*
X126649133Y-115257544D02*
X126649133Y-115357544D01*
X126649133Y-115357544D02*
X126682466Y-115457544D01*
X126682466Y-115457544D02*
X126749133Y-115524211D01*
X126749133Y-115524211D02*
X126815800Y-115557544D01*
X126815800Y-115557544D02*
X126949133Y-115590877D01*
X126949133Y-115590877D02*
X127049133Y-115590877D01*
X127049133Y-115590877D02*
X127182466Y-115557544D01*
X127182466Y-115557544D02*
X127249133Y-115524211D01*
X127249133Y-115524211D02*
X127315800Y-115457544D01*
X127315800Y-115457544D02*
X127349133Y-115357544D01*
X127349133Y-115357544D02*
X127349133Y-115290877D01*
X127349133Y-115290877D02*
X127315800Y-115190877D01*
X127315800Y-115190877D02*
X127282466Y-115157544D01*
X127282466Y-115157544D02*
X127049133Y-115157544D01*
X127049133Y-115157544D02*
X127049133Y-115290877D01*
X127349133Y-114857544D02*
X126649133Y-114857544D01*
X126649133Y-114857544D02*
X127349133Y-114457544D01*
X127349133Y-114457544D02*
X126649133Y-114457544D01*
X127349133Y-114124211D02*
X126649133Y-114124211D01*
X126649133Y-114124211D02*
X126649133Y-113957544D01*
X126649133Y-113957544D02*
X126682466Y-113857544D01*
X126682466Y-113857544D02*
X126749133Y-113790878D01*
X126749133Y-113790878D02*
X126815800Y-113757544D01*
X126815800Y-113757544D02*
X126949133Y-113724211D01*
X126949133Y-113724211D02*
X127049133Y-113724211D01*
X127049133Y-113724211D02*
X127182466Y-113757544D01*
X127182466Y-113757544D02*
X127249133Y-113790878D01*
X127249133Y-113790878D02*
X127315800Y-113857544D01*
X127315800Y-113857544D02*
X127349133Y-113957544D01*
X127349133Y-113957544D02*
X127349133Y-114124211D01*
D11*
X127253333Y-65104819D02*
X126920000Y-64628628D01*
X126681905Y-65104819D02*
X126681905Y-64104819D01*
X126681905Y-64104819D02*
X127062857Y-64104819D01*
X127062857Y-64104819D02*
X127158095Y-64152438D01*
X127158095Y-64152438D02*
X127205714Y-64200057D01*
X127205714Y-64200057D02*
X127253333Y-64295295D01*
X127253333Y-64295295D02*
X127253333Y-64438152D01*
X127253333Y-64438152D02*
X127205714Y-64533390D01*
X127205714Y-64533390D02*
X127158095Y-64581009D01*
X127158095Y-64581009D02*
X127062857Y-64628628D01*
X127062857Y-64628628D02*
X126681905Y-64628628D01*
X128205714Y-65104819D02*
X127634286Y-65104819D01*
X127920000Y-65104819D02*
X127920000Y-64104819D01*
X127920000Y-64104819D02*
X127824762Y-64247676D01*
X127824762Y-64247676D02*
X127729524Y-64342914D01*
X127729524Y-64342914D02*
X127634286Y-64390533D01*
%TO.C,U1*%
D10*
X122100000Y-93500000D02*
X122100000Y-107500000D01*
X108100000Y-93500000D02*
X122100000Y-93500000D01*
X122100000Y-107500000D02*
X108100000Y-107500000D01*
X108100000Y-107500000D02*
X108100000Y-93500000D01*
%TO.C,SW3*%
D12*
X162820000Y-53570000D02*
X162820000Y-55070000D01*
X164070000Y-57570000D02*
X168570000Y-57570000D01*
X168570000Y-51070000D02*
X164070000Y-51070000D01*
X169820000Y-55070000D02*
X169820000Y-53570000D01*
%TO.C,SW2*%
X143920000Y-53570000D02*
X143920000Y-55070000D01*
X145170000Y-57570000D02*
X149670000Y-57570000D01*
X149670000Y-51070000D02*
X145170000Y-51070000D01*
X150920000Y-55070000D02*
X150920000Y-53570000D01*
%TO.C,SW1*%
X124320000Y-54370000D02*
X124320000Y-55870000D01*
X125570000Y-58370000D02*
X130070000Y-58370000D01*
X130070000Y-51870000D02*
X125570000Y-51870000D01*
X131320000Y-55870000D02*
X131320000Y-54370000D01*
%TO.C,R4*%
X112550000Y-58650000D02*
X115290000Y-58650000D01*
X115290000Y-65190000D01*
X112550000Y-65190000D01*
X112550000Y-58650000D01*
X113920000Y-55340000D02*
X113920000Y-58650000D01*
X113920000Y-68500000D02*
X113920000Y-65190000D01*
%TO.C,R3*%
X159140000Y-66220000D02*
X162450000Y-66220000D01*
X172300000Y-66220000D02*
X168990000Y-66220000D01*
X162450000Y-64850000D02*
X168990000Y-64850000D01*
X168990000Y-67590000D01*
X162450000Y-67590000D01*
X162450000Y-64850000D01*
%TO.C,R2*%
X140340000Y-66720000D02*
X143650000Y-66720000D01*
X153500000Y-66720000D02*
X150190000Y-66720000D01*
X143650000Y-65350000D02*
X150190000Y-65350000D01*
X150190000Y-68090000D01*
X143650000Y-68090000D01*
X143650000Y-65350000D01*
%TO.C,D1*%
X122290000Y-63245000D02*
X122290000Y-60155000D01*
X122290000Y-63244830D02*
G75*
G02*
X116740000Y-61700000I-2560000J1544830D01*
G01*
X116740000Y-61700000D02*
G75*
G02*
X122290000Y-60155170I2990000J0D01*
G01*
X122230000Y-61700000D02*
G75*
G02*
X117230000Y-61700000I-2500000J0D01*
G01*
X117230000Y-61700000D02*
G75*
G02*
X122230000Y-61700000I2500000J0D01*
G01*
%TO.C,C3*%
X163730000Y-59680000D02*
X167770000Y-59680000D01*
X163730000Y-60401000D02*
X163730000Y-59680000D01*
X163730000Y-62520000D02*
X163730000Y-61799000D01*
X167770000Y-59680000D02*
X167770000Y-60401000D01*
X167770000Y-61799000D02*
X167770000Y-62520000D01*
X167770000Y-62520000D02*
X163730000Y-62520000D01*
%TO.C,C2*%
X145130000Y-60080000D02*
X149170000Y-60080000D01*
X145130000Y-60801000D02*
X145130000Y-60080000D01*
X145130000Y-62920000D02*
X145130000Y-62199000D01*
X149170000Y-60080000D02*
X149170000Y-60801000D01*
X149170000Y-62199000D02*
X149170000Y-62920000D01*
X149170000Y-62920000D02*
X145130000Y-62920000D01*
%TO.C,C1*%
X129370000Y-63420000D02*
X125330000Y-63420000D01*
X129370000Y-62699000D02*
X129370000Y-63420000D01*
X129370000Y-60580000D02*
X129370000Y-61301000D01*
X125330000Y-63420000D02*
X125330000Y-62699000D01*
X125330000Y-61301000D02*
X125330000Y-60580000D01*
X125330000Y-60580000D02*
X129370000Y-60580000D01*
%TO.C,A1*%
X150480000Y-72380000D02*
X147810000Y-72380000D01*
X145270000Y-72380000D02*
X107040000Y-72380000D01*
X107040000Y-72380000D02*
X107040000Y-77460000D01*
X147810000Y-75050000D02*
X147810000Y-72380000D01*
X145270000Y-75050000D02*
X145270000Y-72380000D01*
X145270000Y-75050000D02*
X147810000Y-75050000D01*
X145270000Y-75050000D02*
X109710000Y-75050000D01*
X109710000Y-75050000D02*
X109710000Y-72380000D01*
X114920000Y-77460000D02*
X114920000Y-85340000D01*
X104500000Y-77460000D02*
X114920000Y-77460000D01*
X114920000Y-85340000D02*
X104500000Y-85340000D01*
X104500000Y-85340000D02*
X104500000Y-77460000D01*
X147810000Y-87750000D02*
X109710000Y-87750000D01*
X147810000Y-87750000D02*
X147810000Y-90420000D01*
X109710000Y-87750000D02*
X109710000Y-90420000D01*
X150480000Y-90420000D02*
X150480000Y-72380000D01*
X107040000Y-90420000D02*
X107040000Y-85340000D01*
X107040000Y-90420000D02*
X150480000Y-90420000D01*
%TO.C,U2*%
D10*
X123600000Y-92900000D02*
X151600000Y-92900000D01*
X151600000Y-120900000D01*
X123600000Y-120900000D01*
X123600000Y-92900000D01*
X151600000Y-92900000D02*
X151600000Y-120900000D01*
X123600000Y-92900000D02*
X151600000Y-92900000D01*
X151600000Y-120900000D02*
X123600000Y-120900000D01*
X123600000Y-120900000D02*
X123600000Y-92900000D01*
%TO.C,R1*%
D12*
X120840000Y-67020000D02*
X124150000Y-67020000D01*
X134000000Y-67020000D02*
X130690000Y-67020000D01*
X124150000Y-65650000D02*
X130690000Y-65650000D01*
X130690000Y-68390000D01*
X124150000Y-68390000D01*
X124150000Y-65650000D01*
%TD*%
M02*
