%TF.GenerationSoftware,KiCad,Pcbnew,10.0.3*%
%TF.CreationDate,2026-06-19T13:59:17+05:45*%
%TF.ProjectId,LED flasher,4c454420-666c-4617-9368-65722e6b6963,rev?*%
%TF.SameCoordinates,Original*%
%TF.FileFunction,Soldermask,Top*%
%TF.FilePolarity,Negative*%
%FSLAX46Y46*%
G04 Gerber Fmt 4.6, Leading zero omitted, Abs format (unit mm)*
G04 Created by KiCad (PCBNEW 10.0.3) date 2026-06-19 13:59:17*
%MOMM*%
%LPD*%
G01*
G04 APERTURE LIST*
G04 APERTURE END LIST*
G36*
X158092687Y-92205056D02*
G01*
X158102918Y-92205056D01*
X158142893Y-92213007D01*
X158245074Y-92229191D01*
X158277943Y-92239870D01*
X158304799Y-92245213D01*
X158342700Y-92260912D01*
X158401741Y-92280096D01*
X158457052Y-92308278D01*
X158494967Y-92323983D01*
X158517742Y-92339201D01*
X158548528Y-92354887D01*
X158632217Y-92415690D01*
X158666113Y-92438339D01*
X158673347Y-92445573D01*
X158681798Y-92451713D01*
X158798286Y-92568201D01*
X158804425Y-92576651D01*
X158811661Y-92583887D01*
X158834312Y-92617787D01*
X158895112Y-92701471D01*
X158910796Y-92732254D01*
X158926017Y-92755033D01*
X158941723Y-92792952D01*
X158969903Y-92848258D01*
X158989084Y-92907292D01*
X159004787Y-92945201D01*
X159010130Y-92972062D01*
X159020808Y-93004925D01*
X159036990Y-93107098D01*
X159044944Y-93147082D01*
X159044944Y-93157313D01*
X159046578Y-93167630D01*
X159046578Y-93332369D01*
X159044944Y-93342685D01*
X159044944Y-93352918D01*
X159036990Y-93392905D01*
X159020808Y-93495074D01*
X159010130Y-93527935D01*
X159004787Y-93554799D01*
X158989083Y-93592711D01*
X158969903Y-93651741D01*
X158941726Y-93707041D01*
X158926017Y-93744967D01*
X158910794Y-93767749D01*
X158895112Y-93798528D01*
X158834320Y-93882200D01*
X158811661Y-93916113D01*
X158804423Y-93923350D01*
X158798286Y-93931798D01*
X158681798Y-94048286D01*
X158673350Y-94054423D01*
X158666113Y-94061661D01*
X158632200Y-94084320D01*
X158548528Y-94145112D01*
X158517749Y-94160794D01*
X158494967Y-94176017D01*
X158457041Y-94191726D01*
X158401741Y-94219903D01*
X158342711Y-94239083D01*
X158304799Y-94254787D01*
X158277935Y-94260130D01*
X158245074Y-94270808D01*
X158142902Y-94286990D01*
X158102918Y-94294944D01*
X158092687Y-94294944D01*
X158082370Y-94296578D01*
X157917630Y-94296578D01*
X157907313Y-94294944D01*
X157897082Y-94294944D01*
X157857098Y-94286990D01*
X157754925Y-94270808D01*
X157722062Y-94260130D01*
X157695201Y-94254787D01*
X157657292Y-94239084D01*
X157598258Y-94219903D01*
X157542952Y-94191723D01*
X157505033Y-94176017D01*
X157482254Y-94160796D01*
X157451471Y-94145112D01*
X157367787Y-94084312D01*
X157333887Y-94061661D01*
X157326651Y-94054425D01*
X157318201Y-94048286D01*
X157201713Y-93931798D01*
X157195573Y-93923347D01*
X157188339Y-93916113D01*
X157165690Y-93882217D01*
X157104887Y-93798528D01*
X157089201Y-93767742D01*
X157073983Y-93744967D01*
X157058278Y-93707052D01*
X157030096Y-93651741D01*
X157010912Y-93592700D01*
X156995213Y-93554799D01*
X156989870Y-93527943D01*
X156979191Y-93495074D01*
X156963008Y-93392895D01*
X156955056Y-93352918D01*
X156955056Y-93342686D01*
X156953422Y-93332369D01*
X156953422Y-93167630D01*
X156955056Y-93157312D01*
X156955056Y-93147082D01*
X156963007Y-93107108D01*
X156979191Y-93004925D01*
X156989871Y-92972054D01*
X156995213Y-92945201D01*
X157010910Y-92907303D01*
X157030096Y-92848258D01*
X157058280Y-92792942D01*
X157073983Y-92755033D01*
X157089199Y-92732260D01*
X157104887Y-92701471D01*
X157165699Y-92617770D01*
X157188339Y-92583887D01*
X157195570Y-92576655D01*
X157201713Y-92568201D01*
X157318201Y-92451713D01*
X157326655Y-92445570D01*
X157333887Y-92438339D01*
X157367770Y-92415699D01*
X157451471Y-92354887D01*
X157482260Y-92339199D01*
X157505033Y-92323983D01*
X157542942Y-92308280D01*
X157598258Y-92280096D01*
X157657303Y-92260910D01*
X157695201Y-92245213D01*
X157722054Y-92239871D01*
X157754925Y-92229191D01*
X157857108Y-92213007D01*
X157897082Y-92205056D01*
X157907313Y-92205056D01*
X157917630Y-92203422D01*
X158082370Y-92203422D01*
X158092687Y-92205056D01*
G37*
G36*
X222842687Y-92205056D02*
G01*
X222852918Y-92205056D01*
X222892893Y-92213007D01*
X222995074Y-92229191D01*
X223027943Y-92239870D01*
X223054799Y-92245213D01*
X223092700Y-92260912D01*
X223151741Y-92280096D01*
X223207052Y-92308278D01*
X223244967Y-92323983D01*
X223267742Y-92339201D01*
X223298528Y-92354887D01*
X223382217Y-92415690D01*
X223416113Y-92438339D01*
X223423347Y-92445573D01*
X223431798Y-92451713D01*
X223548286Y-92568201D01*
X223554425Y-92576651D01*
X223561661Y-92583887D01*
X223584312Y-92617787D01*
X223645112Y-92701471D01*
X223660796Y-92732254D01*
X223676017Y-92755033D01*
X223691723Y-92792952D01*
X223719903Y-92848258D01*
X223739084Y-92907292D01*
X223754787Y-92945201D01*
X223760130Y-92972062D01*
X223770808Y-93004925D01*
X223786990Y-93107098D01*
X223794944Y-93147082D01*
X223794944Y-93157313D01*
X223796578Y-93167630D01*
X223796578Y-93332369D01*
X223794944Y-93342685D01*
X223794944Y-93352918D01*
X223786990Y-93392905D01*
X223770808Y-93495074D01*
X223760130Y-93527935D01*
X223754787Y-93554799D01*
X223739083Y-93592711D01*
X223719903Y-93651741D01*
X223691726Y-93707041D01*
X223676017Y-93744967D01*
X223660794Y-93767749D01*
X223645112Y-93798528D01*
X223584320Y-93882200D01*
X223561661Y-93916113D01*
X223554423Y-93923350D01*
X223548286Y-93931798D01*
X223431798Y-94048286D01*
X223423350Y-94054423D01*
X223416113Y-94061661D01*
X223382200Y-94084320D01*
X223298528Y-94145112D01*
X223267749Y-94160794D01*
X223244967Y-94176017D01*
X223207041Y-94191726D01*
X223151741Y-94219903D01*
X223092711Y-94239083D01*
X223054799Y-94254787D01*
X223027935Y-94260130D01*
X222995074Y-94270808D01*
X222892902Y-94286990D01*
X222852918Y-94294944D01*
X222842687Y-94294944D01*
X222832370Y-94296578D01*
X222667630Y-94296578D01*
X222657313Y-94294944D01*
X222647082Y-94294944D01*
X222607098Y-94286990D01*
X222504925Y-94270808D01*
X222472062Y-94260130D01*
X222445201Y-94254787D01*
X222407292Y-94239084D01*
X222348258Y-94219903D01*
X222292952Y-94191723D01*
X222255033Y-94176017D01*
X222232254Y-94160796D01*
X222201471Y-94145112D01*
X222117787Y-94084312D01*
X222083887Y-94061661D01*
X222076651Y-94054425D01*
X222068201Y-94048286D01*
X221951713Y-93931798D01*
X221945573Y-93923347D01*
X221938339Y-93916113D01*
X221915690Y-93882217D01*
X221854887Y-93798528D01*
X221839201Y-93767742D01*
X221823983Y-93744967D01*
X221808278Y-93707052D01*
X221780096Y-93651741D01*
X221760912Y-93592700D01*
X221745213Y-93554799D01*
X221739870Y-93527943D01*
X221729191Y-93495074D01*
X221713008Y-93392895D01*
X221705056Y-93352918D01*
X221705056Y-93342686D01*
X221703422Y-93332369D01*
X221703422Y-93167630D01*
X221705056Y-93157312D01*
X221705056Y-93147082D01*
X221713007Y-93107108D01*
X221729191Y-93004925D01*
X221739871Y-92972054D01*
X221745213Y-92945201D01*
X221760910Y-92907303D01*
X221780096Y-92848258D01*
X221808280Y-92792942D01*
X221823983Y-92755033D01*
X221839199Y-92732260D01*
X221854887Y-92701471D01*
X221915699Y-92617770D01*
X221938339Y-92583887D01*
X221945570Y-92576655D01*
X221951713Y-92568201D01*
X222068201Y-92451713D01*
X222076655Y-92445570D01*
X222083887Y-92438339D01*
X222117770Y-92415699D01*
X222201471Y-92354887D01*
X222232260Y-92339199D01*
X222255033Y-92323983D01*
X222292942Y-92308280D01*
X222348258Y-92280096D01*
X222407303Y-92260910D01*
X222445201Y-92245213D01*
X222472054Y-92239871D01*
X222504925Y-92229191D01*
X222607108Y-92213007D01*
X222647082Y-92205056D01*
X222657313Y-92205056D01*
X222667630Y-92203422D01*
X222832370Y-92203422D01*
X222842687Y-92205056D01*
G37*
G36*
X165427228Y-87044448D02*
G01*
X165572117Y-87104463D01*
X165702515Y-87191592D01*
X165813408Y-87302485D01*
X165900537Y-87432883D01*
X165960552Y-87577772D01*
X165991148Y-87731586D01*
X165991148Y-87888414D01*
X165960552Y-88042228D01*
X165900537Y-88187117D01*
X165813408Y-88317515D01*
X165702515Y-88428408D01*
X165572117Y-88515537D01*
X165427228Y-88575552D01*
X165273414Y-88606148D01*
X165116586Y-88606148D01*
X164962772Y-88575552D01*
X164817883Y-88515537D01*
X164687485Y-88428408D01*
X164576592Y-88317515D01*
X164489463Y-88187117D01*
X164429448Y-88042228D01*
X164398852Y-87888414D01*
X164398852Y-87731586D01*
X164429448Y-87577772D01*
X164489463Y-87432883D01*
X164576592Y-87302485D01*
X164687485Y-87191592D01*
X164817883Y-87104463D01*
X164962772Y-87044448D01*
X165116586Y-87013852D01*
X165273414Y-87013852D01*
X165427228Y-87044448D01*
G37*
G36*
X173047228Y-87044448D02*
G01*
X173192117Y-87104463D01*
X173322515Y-87191592D01*
X173433408Y-87302485D01*
X173520537Y-87432883D01*
X173580552Y-87577772D01*
X173611148Y-87731586D01*
X173611148Y-87888414D01*
X173580552Y-88042228D01*
X173520537Y-88187117D01*
X173433408Y-88317515D01*
X173322515Y-88428408D01*
X173192117Y-88515537D01*
X173047228Y-88575552D01*
X172893414Y-88606148D01*
X172736586Y-88606148D01*
X172582772Y-88575552D01*
X172437883Y-88515537D01*
X172307485Y-88428408D01*
X172196592Y-88317515D01*
X172109463Y-88187117D01*
X172049448Y-88042228D01*
X172018852Y-87888414D01*
X172018852Y-87731586D01*
X172049448Y-87577772D01*
X172109463Y-87432883D01*
X172196592Y-87302485D01*
X172307485Y-87191592D01*
X172437883Y-87104463D01*
X172582772Y-87044448D01*
X172736586Y-87013852D01*
X172893414Y-87013852D01*
X173047228Y-87044448D01*
G37*
G36*
X162949848Y-85435964D02*
G01*
X163000040Y-85441787D01*
X163017189Y-85449359D01*
X163040670Y-85454030D01*
X163065807Y-85470826D01*
X163085695Y-85479608D01*
X163099278Y-85493191D01*
X163121776Y-85508224D01*
X163136808Y-85530721D01*
X163150391Y-85544304D01*
X163159171Y-85564189D01*
X163175970Y-85589330D01*
X163180640Y-85612811D01*
X163188212Y-85629959D01*
X163194036Y-85680163D01*
X163194999Y-85685002D01*
X163194999Y-85688458D01*
X163195000Y-85688467D01*
X163195000Y-86599557D01*
X163195000Y-87429999D01*
X163194034Y-87434851D01*
X163188212Y-87485040D01*
X163180641Y-87502185D01*
X163175970Y-87525670D01*
X163159170Y-87550812D01*
X163150391Y-87570695D01*
X163136810Y-87584275D01*
X163121776Y-87606776D01*
X163099275Y-87621810D01*
X163085695Y-87635391D01*
X163065812Y-87644170D01*
X163040670Y-87660970D01*
X163017187Y-87665640D01*
X163000040Y-87673212D01*
X162949836Y-87679036D01*
X162944998Y-87679999D01*
X162941541Y-87679999D01*
X162941533Y-87680000D01*
X161058467Y-87680000D01*
X161058466Y-87679999D01*
X161055001Y-87680000D01*
X161050149Y-87679035D01*
X160999959Y-87673212D01*
X160982812Y-87665640D01*
X160959330Y-87660970D01*
X160934189Y-87644171D01*
X160914304Y-87635391D01*
X160900721Y-87621808D01*
X160878224Y-87606776D01*
X160863191Y-87584278D01*
X160849608Y-87570695D01*
X160840826Y-87550807D01*
X160824030Y-87525670D01*
X160819360Y-87502191D01*
X160811787Y-87485040D01*
X160805963Y-87434836D01*
X160805001Y-87429998D01*
X160805000Y-87426540D01*
X160805000Y-87426532D01*
X160805000Y-85688467D01*
X160805000Y-85688466D01*
X160805000Y-85685001D01*
X160805964Y-85680151D01*
X160811787Y-85629959D01*
X160819359Y-85612808D01*
X160824030Y-85589330D01*
X160840825Y-85564193D01*
X160849608Y-85544304D01*
X160863193Y-85530718D01*
X160878224Y-85508224D01*
X160900718Y-85493193D01*
X160914304Y-85479608D01*
X160934193Y-85470825D01*
X160959330Y-85454030D01*
X160982807Y-85449360D01*
X160999959Y-85441787D01*
X161050165Y-85435963D01*
X161055002Y-85435001D01*
X161058458Y-85435000D01*
X161058467Y-85435000D01*
X162941533Y-85435000D01*
X162944999Y-85435000D01*
X162949848Y-85435964D01*
G37*
G36*
X182795000Y-86750000D02*
G01*
X181745000Y-86750000D01*
X181745000Y-85250000D01*
X182795000Y-85250000D01*
X182795000Y-86750000D01*
G37*
G36*
X190065000Y-86750000D02*
G01*
X189015000Y-86750000D01*
X189015000Y-85250000D01*
X190065000Y-85250000D01*
X190065000Y-86750000D01*
G37*
G36*
X197065000Y-86750000D02*
G01*
X196015000Y-86750000D01*
X196015000Y-85250000D01*
X197065000Y-85250000D01*
X197065000Y-86750000D01*
G37*
G36*
X203795000Y-86750000D02*
G01*
X202745000Y-86750000D01*
X202745000Y-85250000D01*
X203795000Y-85250000D01*
X203795000Y-86750000D01*
G37*
G36*
X211775000Y-86750000D02*
G01*
X210725000Y-86750000D01*
X210725000Y-85250000D01*
X211775000Y-85250000D01*
X211775000Y-86750000D01*
G37*
G36*
X179930909Y-85289963D02*
G01*
X180049600Y-85358489D01*
X180146511Y-85455400D01*
X180215037Y-85574091D01*
X180250509Y-85706474D01*
X180255000Y-85775000D01*
X180255000Y-86225000D01*
X180250509Y-86293526D01*
X180215037Y-86425909D01*
X180146511Y-86544600D01*
X180049600Y-86641511D01*
X179930909Y-86710037D01*
X179798526Y-86745509D01*
X179661474Y-86745509D01*
X179529091Y-86710037D01*
X179410400Y-86641511D01*
X179313489Y-86544600D01*
X179244963Y-86425909D01*
X179209491Y-86293526D01*
X179205000Y-86225000D01*
X179205000Y-85775000D01*
X179209491Y-85706474D01*
X179244963Y-85574091D01*
X179313489Y-85455400D01*
X179410400Y-85358489D01*
X179529091Y-85289963D01*
X179661474Y-85254491D01*
X179798526Y-85254491D01*
X179930909Y-85289963D01*
G37*
G36*
X181200909Y-85289963D02*
G01*
X181319600Y-85358489D01*
X181416511Y-85455400D01*
X181485037Y-85574091D01*
X181520509Y-85706474D01*
X181525000Y-85775000D01*
X181525000Y-86225000D01*
X181520509Y-86293526D01*
X181485037Y-86425909D01*
X181416511Y-86544600D01*
X181319600Y-86641511D01*
X181200909Y-86710037D01*
X181068526Y-86745509D01*
X180931474Y-86745509D01*
X180799091Y-86710037D01*
X180680400Y-86641511D01*
X180583489Y-86544600D01*
X180514963Y-86425909D01*
X180479491Y-86293526D01*
X180475000Y-86225000D01*
X180475000Y-85775000D01*
X180479491Y-85706474D01*
X180514963Y-85574091D01*
X180583489Y-85455400D01*
X180680400Y-85358489D01*
X180799091Y-85289963D01*
X180931474Y-85254491D01*
X181068526Y-85254491D01*
X181200909Y-85289963D01*
G37*
G36*
X187200909Y-85289963D02*
G01*
X187319600Y-85358489D01*
X187416511Y-85455400D01*
X187485037Y-85574091D01*
X187520509Y-85706474D01*
X187525000Y-85775000D01*
X187525000Y-86225000D01*
X187520509Y-86293526D01*
X187485037Y-86425909D01*
X187416511Y-86544600D01*
X187319600Y-86641511D01*
X187200909Y-86710037D01*
X187068526Y-86745509D01*
X186931474Y-86745509D01*
X186799091Y-86710037D01*
X186680400Y-86641511D01*
X186583489Y-86544600D01*
X186514963Y-86425909D01*
X186479491Y-86293526D01*
X186475000Y-86225000D01*
X186475000Y-85775000D01*
X186479491Y-85706474D01*
X186514963Y-85574091D01*
X186583489Y-85455400D01*
X186680400Y-85358489D01*
X186799091Y-85289963D01*
X186931474Y-85254491D01*
X187068526Y-85254491D01*
X187200909Y-85289963D01*
G37*
G36*
X188470909Y-85289963D02*
G01*
X188589600Y-85358489D01*
X188686511Y-85455400D01*
X188755037Y-85574091D01*
X188790509Y-85706474D01*
X188795000Y-85775000D01*
X188795000Y-86225000D01*
X188790509Y-86293526D01*
X188755037Y-86425909D01*
X188686511Y-86544600D01*
X188589600Y-86641511D01*
X188470909Y-86710037D01*
X188338526Y-86745509D01*
X188201474Y-86745509D01*
X188069091Y-86710037D01*
X187950400Y-86641511D01*
X187853489Y-86544600D01*
X187784963Y-86425909D01*
X187749491Y-86293526D01*
X187745000Y-86225000D01*
X187745000Y-85775000D01*
X187749491Y-85706474D01*
X187784963Y-85574091D01*
X187853489Y-85455400D01*
X187950400Y-85358489D01*
X188069091Y-85289963D01*
X188201474Y-85254491D01*
X188338526Y-85254491D01*
X188470909Y-85289963D01*
G37*
G36*
X194200909Y-85289963D02*
G01*
X194319600Y-85358489D01*
X194416511Y-85455400D01*
X194485037Y-85574091D01*
X194520509Y-85706474D01*
X194525000Y-85775000D01*
X194525000Y-86225000D01*
X194520509Y-86293526D01*
X194485037Y-86425909D01*
X194416511Y-86544600D01*
X194319600Y-86641511D01*
X194200909Y-86710037D01*
X194068526Y-86745509D01*
X193931474Y-86745509D01*
X193799091Y-86710037D01*
X193680400Y-86641511D01*
X193583489Y-86544600D01*
X193514963Y-86425909D01*
X193479491Y-86293526D01*
X193475000Y-86225000D01*
X193475000Y-85775000D01*
X193479491Y-85706474D01*
X193514963Y-85574091D01*
X193583489Y-85455400D01*
X193680400Y-85358489D01*
X193799091Y-85289963D01*
X193931474Y-85254491D01*
X194068526Y-85254491D01*
X194200909Y-85289963D01*
G37*
G36*
X195470909Y-85289963D02*
G01*
X195589600Y-85358489D01*
X195686511Y-85455400D01*
X195755037Y-85574091D01*
X195790509Y-85706474D01*
X195795000Y-85775000D01*
X195795000Y-86225000D01*
X195790509Y-86293526D01*
X195755037Y-86425909D01*
X195686511Y-86544600D01*
X195589600Y-86641511D01*
X195470909Y-86710037D01*
X195338526Y-86745509D01*
X195201474Y-86745509D01*
X195069091Y-86710037D01*
X194950400Y-86641511D01*
X194853489Y-86544600D01*
X194784963Y-86425909D01*
X194749491Y-86293526D01*
X194745000Y-86225000D01*
X194745000Y-85775000D01*
X194749491Y-85706474D01*
X194784963Y-85574091D01*
X194853489Y-85455400D01*
X194950400Y-85358489D01*
X195069091Y-85289963D01*
X195201474Y-85254491D01*
X195338526Y-85254491D01*
X195470909Y-85289963D01*
G37*
G36*
X200930909Y-85289963D02*
G01*
X201049600Y-85358489D01*
X201146511Y-85455400D01*
X201215037Y-85574091D01*
X201250509Y-85706474D01*
X201255000Y-85775000D01*
X201255000Y-86225000D01*
X201250509Y-86293526D01*
X201215037Y-86425909D01*
X201146511Y-86544600D01*
X201049600Y-86641511D01*
X200930909Y-86710037D01*
X200798526Y-86745509D01*
X200661474Y-86745509D01*
X200529091Y-86710037D01*
X200410400Y-86641511D01*
X200313489Y-86544600D01*
X200244963Y-86425909D01*
X200209491Y-86293526D01*
X200205000Y-86225000D01*
X200205000Y-85775000D01*
X200209491Y-85706474D01*
X200244963Y-85574091D01*
X200313489Y-85455400D01*
X200410400Y-85358489D01*
X200529091Y-85289963D01*
X200661474Y-85254491D01*
X200798526Y-85254491D01*
X200930909Y-85289963D01*
G37*
G36*
X202200909Y-85289963D02*
G01*
X202319600Y-85358489D01*
X202416511Y-85455400D01*
X202485037Y-85574091D01*
X202520509Y-85706474D01*
X202525000Y-85775000D01*
X202525000Y-86225000D01*
X202520509Y-86293526D01*
X202485037Y-86425909D01*
X202416511Y-86544600D01*
X202319600Y-86641511D01*
X202200909Y-86710037D01*
X202068526Y-86745509D01*
X201931474Y-86745509D01*
X201799091Y-86710037D01*
X201680400Y-86641511D01*
X201583489Y-86544600D01*
X201514963Y-86425909D01*
X201479491Y-86293526D01*
X201475000Y-86225000D01*
X201475000Y-85775000D01*
X201479491Y-85706474D01*
X201514963Y-85574091D01*
X201583489Y-85455400D01*
X201680400Y-85358489D01*
X201799091Y-85289963D01*
X201931474Y-85254491D01*
X202068526Y-85254491D01*
X202200909Y-85289963D01*
G37*
G36*
X208910909Y-85289963D02*
G01*
X209029600Y-85358489D01*
X209126511Y-85455400D01*
X209195037Y-85574091D01*
X209230509Y-85706474D01*
X209235000Y-85775000D01*
X209235000Y-86225000D01*
X209230509Y-86293526D01*
X209195037Y-86425909D01*
X209126511Y-86544600D01*
X209029600Y-86641511D01*
X208910909Y-86710037D01*
X208778526Y-86745509D01*
X208641474Y-86745509D01*
X208509091Y-86710037D01*
X208390400Y-86641511D01*
X208293489Y-86544600D01*
X208224963Y-86425909D01*
X208189491Y-86293526D01*
X208185000Y-86225000D01*
X208185000Y-85775000D01*
X208189491Y-85706474D01*
X208224963Y-85574091D01*
X208293489Y-85455400D01*
X208390400Y-85358489D01*
X208509091Y-85289963D01*
X208641474Y-85254491D01*
X208778526Y-85254491D01*
X208910909Y-85289963D01*
G37*
G36*
X210180909Y-85289963D02*
G01*
X210299600Y-85358489D01*
X210396511Y-85455400D01*
X210465037Y-85574091D01*
X210500509Y-85706474D01*
X210505000Y-85775000D01*
X210505000Y-86225000D01*
X210500509Y-86293526D01*
X210465037Y-86425909D01*
X210396511Y-86544600D01*
X210299600Y-86641511D01*
X210180909Y-86710037D01*
X210048526Y-86745509D01*
X209911474Y-86745509D01*
X209779091Y-86710037D01*
X209660400Y-86641511D01*
X209563489Y-86544600D01*
X209494963Y-86425909D01*
X209459491Y-86293526D01*
X209455000Y-86225000D01*
X209455000Y-85775000D01*
X209459491Y-85706474D01*
X209494963Y-85574091D01*
X209563489Y-85455400D01*
X209660400Y-85358489D01*
X209779091Y-85289963D01*
X209911474Y-85254491D01*
X210048526Y-85254491D01*
X210180909Y-85289963D01*
G37*
G36*
X218795000Y-86640000D02*
G01*
X217745000Y-86640000D01*
X217745000Y-85140000D01*
X218795000Y-85140000D01*
X218795000Y-86640000D01*
G37*
G36*
X215930909Y-85179963D02*
G01*
X216049600Y-85248489D01*
X216146511Y-85345400D01*
X216215037Y-85464091D01*
X216250509Y-85596474D01*
X216255000Y-85665000D01*
X216255000Y-86115000D01*
X216250509Y-86183526D01*
X216215037Y-86315909D01*
X216146511Y-86434600D01*
X216049600Y-86531511D01*
X215930909Y-86600037D01*
X215798526Y-86635509D01*
X215661474Y-86635509D01*
X215529091Y-86600037D01*
X215410400Y-86531511D01*
X215313489Y-86434600D01*
X215244963Y-86315909D01*
X215209491Y-86183526D01*
X215205000Y-86115000D01*
X215205000Y-85665000D01*
X215209491Y-85596474D01*
X215244963Y-85464091D01*
X215313489Y-85345400D01*
X215410400Y-85248489D01*
X215529091Y-85179963D01*
X215661474Y-85144491D01*
X215798526Y-85144491D01*
X215930909Y-85179963D01*
G37*
G36*
X217200909Y-85179963D02*
G01*
X217319600Y-85248489D01*
X217416511Y-85345400D01*
X217485037Y-85464091D01*
X217520509Y-85596474D01*
X217525000Y-85665000D01*
X217525000Y-86115000D01*
X217520509Y-86183526D01*
X217485037Y-86315909D01*
X217416511Y-86434600D01*
X217319600Y-86531511D01*
X217200909Y-86600037D01*
X217068526Y-86635509D01*
X216931474Y-86635509D01*
X216799091Y-86600037D01*
X216680400Y-86531511D01*
X216583489Y-86434600D01*
X216514963Y-86315909D01*
X216479491Y-86183526D01*
X216475000Y-86115000D01*
X216475000Y-85665000D01*
X216479491Y-85596474D01*
X216514963Y-85464091D01*
X216583489Y-85345400D01*
X216680400Y-85248489D01*
X216799091Y-85179963D01*
X216931474Y-85144491D01*
X217068526Y-85144491D01*
X217200909Y-85179963D01*
G37*
G36*
X165427228Y-84504448D02*
G01*
X165572117Y-84564463D01*
X165702515Y-84651592D01*
X165813408Y-84762485D01*
X165900537Y-84892883D01*
X165960552Y-85037772D01*
X165991148Y-85191586D01*
X165991148Y-85348414D01*
X165960552Y-85502228D01*
X165900537Y-85647117D01*
X165813408Y-85777515D01*
X165702515Y-85888408D01*
X165572117Y-85975537D01*
X165427228Y-86035552D01*
X165273414Y-86066148D01*
X165116586Y-86066148D01*
X164962772Y-86035552D01*
X164817883Y-85975537D01*
X164687485Y-85888408D01*
X164576592Y-85777515D01*
X164489463Y-85647117D01*
X164429448Y-85502228D01*
X164398852Y-85348414D01*
X164398852Y-85191586D01*
X164429448Y-85037772D01*
X164489463Y-84892883D01*
X164576592Y-84762485D01*
X164687485Y-84651592D01*
X164817883Y-84564463D01*
X164962772Y-84504448D01*
X165116586Y-84473852D01*
X165273414Y-84473852D01*
X165427228Y-84504448D01*
G37*
G36*
X173047228Y-84504448D02*
G01*
X173192117Y-84564463D01*
X173322515Y-84651592D01*
X173433408Y-84762485D01*
X173520537Y-84892883D01*
X173580552Y-85037772D01*
X173611148Y-85191586D01*
X173611148Y-85348414D01*
X173580552Y-85502228D01*
X173520537Y-85647117D01*
X173433408Y-85777515D01*
X173322515Y-85888408D01*
X173192117Y-85975537D01*
X173047228Y-86035552D01*
X172893414Y-86066148D01*
X172736586Y-86066148D01*
X172582772Y-86035552D01*
X172437883Y-85975537D01*
X172307485Y-85888408D01*
X172196592Y-85777515D01*
X172109463Y-85647117D01*
X172049448Y-85502228D01*
X172018852Y-85348414D01*
X172018852Y-85191586D01*
X172049448Y-85037772D01*
X172109463Y-84892883D01*
X172196592Y-84762485D01*
X172307485Y-84651592D01*
X172437883Y-84564463D01*
X172582772Y-84504448D01*
X172736586Y-84473852D01*
X172893414Y-84473852D01*
X173047228Y-84504448D01*
G37*
G36*
X176203199Y-82870142D02*
G01*
X176329978Y-82922655D01*
X176444075Y-82998893D01*
X176541107Y-83095925D01*
X176617345Y-83210022D01*
X176669858Y-83336801D01*
X176696629Y-83471388D01*
X176696629Y-83608612D01*
X176669858Y-83743199D01*
X176617345Y-83869978D01*
X176541107Y-83984075D01*
X176444075Y-84081107D01*
X176329978Y-84157345D01*
X176203199Y-84209858D01*
X176068612Y-84236629D01*
X175931388Y-84236629D01*
X175796801Y-84209858D01*
X175670022Y-84157345D01*
X175555925Y-84081107D01*
X175458893Y-83984075D01*
X175382655Y-83869978D01*
X175330142Y-83743199D01*
X175303371Y-83608612D01*
X175303371Y-83471388D01*
X175330142Y-83336801D01*
X175382655Y-83210022D01*
X175458893Y-83095925D01*
X175555925Y-82998893D01*
X175670022Y-82922655D01*
X175796801Y-82870142D01*
X175931388Y-82843371D01*
X176068612Y-82843371D01*
X176203199Y-82870142D01*
G37*
G36*
X165427228Y-81964448D02*
G01*
X165572117Y-82024463D01*
X165702515Y-82111592D01*
X165813408Y-82222485D01*
X165900537Y-82352883D01*
X165960552Y-82497772D01*
X165991148Y-82651586D01*
X165991148Y-82808414D01*
X165960552Y-82962228D01*
X165900537Y-83107117D01*
X165813408Y-83237515D01*
X165702515Y-83348408D01*
X165572117Y-83435537D01*
X165427228Y-83495552D01*
X165273414Y-83526148D01*
X165116586Y-83526148D01*
X164962772Y-83495552D01*
X164817883Y-83435537D01*
X164687485Y-83348408D01*
X164576592Y-83237515D01*
X164489463Y-83107117D01*
X164429448Y-82962228D01*
X164398852Y-82808414D01*
X164398852Y-82651586D01*
X164429448Y-82497772D01*
X164489463Y-82352883D01*
X164576592Y-82222485D01*
X164687485Y-82111592D01*
X164817883Y-82024463D01*
X164962772Y-81964448D01*
X165116586Y-81933852D01*
X165273414Y-81933852D01*
X165427228Y-81964448D01*
G37*
G36*
X173047228Y-81964448D02*
G01*
X173192117Y-82024463D01*
X173322515Y-82111592D01*
X173433408Y-82222485D01*
X173520537Y-82352883D01*
X173580552Y-82497772D01*
X173611148Y-82651586D01*
X173611148Y-82808414D01*
X173580552Y-82962228D01*
X173520537Y-83107117D01*
X173433408Y-83237515D01*
X173322515Y-83348408D01*
X173192117Y-83435537D01*
X173047228Y-83495552D01*
X172893414Y-83526148D01*
X172736586Y-83526148D01*
X172582772Y-83495552D01*
X172437883Y-83435537D01*
X172307485Y-83348408D01*
X172196592Y-83237515D01*
X172109463Y-83107117D01*
X172049448Y-82962228D01*
X172018852Y-82808414D01*
X172018852Y-82651586D01*
X172049448Y-82497772D01*
X172109463Y-82352883D01*
X172196592Y-82222485D01*
X172307485Y-82111592D01*
X172437883Y-82024463D01*
X172582772Y-81964448D01*
X172736586Y-81933852D01*
X172893414Y-81933852D01*
X173047228Y-81964448D01*
G37*
G36*
X162949848Y-80320964D02*
G01*
X163000040Y-80326787D01*
X163017189Y-80334359D01*
X163040670Y-80339030D01*
X163065807Y-80355826D01*
X163085695Y-80364608D01*
X163099278Y-80378191D01*
X163121776Y-80393224D01*
X163136808Y-80415721D01*
X163150391Y-80429304D01*
X163159171Y-80449189D01*
X163175970Y-80474330D01*
X163180640Y-80497811D01*
X163188212Y-80514959D01*
X163194036Y-80565163D01*
X163194999Y-80570002D01*
X163194999Y-80573458D01*
X163195000Y-80573467D01*
X163195000Y-81443888D01*
X163195000Y-82314999D01*
X163194034Y-82319851D01*
X163188212Y-82370040D01*
X163180641Y-82387185D01*
X163175970Y-82410670D01*
X163159170Y-82435812D01*
X163150391Y-82455695D01*
X163136810Y-82469275D01*
X163121776Y-82491776D01*
X163099275Y-82506810D01*
X163085695Y-82520391D01*
X163065812Y-82529170D01*
X163040670Y-82545970D01*
X163017187Y-82550640D01*
X163000040Y-82558212D01*
X162949836Y-82564036D01*
X162944998Y-82564999D01*
X162941541Y-82564999D01*
X162941533Y-82565000D01*
X161058467Y-82565000D01*
X161058466Y-82564999D01*
X161055001Y-82565000D01*
X161050149Y-82564035D01*
X160999959Y-82558212D01*
X160982812Y-82550640D01*
X160959330Y-82545970D01*
X160934189Y-82529171D01*
X160914304Y-82520391D01*
X160900721Y-82506808D01*
X160878224Y-82491776D01*
X160863191Y-82469278D01*
X160849608Y-82455695D01*
X160840826Y-82435807D01*
X160824030Y-82410670D01*
X160819360Y-82387191D01*
X160811787Y-82370040D01*
X160805963Y-82319836D01*
X160805001Y-82314998D01*
X160805000Y-82311540D01*
X160805000Y-82311532D01*
X160805000Y-80573467D01*
X160805000Y-80573466D01*
X160805000Y-80570001D01*
X160805964Y-80565151D01*
X160811787Y-80514959D01*
X160819359Y-80497808D01*
X160824030Y-80474330D01*
X160840825Y-80449193D01*
X160849608Y-80429304D01*
X160863193Y-80415718D01*
X160878224Y-80393224D01*
X160900718Y-80378193D01*
X160914304Y-80364608D01*
X160934193Y-80355825D01*
X160959330Y-80339030D01*
X160982807Y-80334360D01*
X160999959Y-80326787D01*
X161050165Y-80320963D01*
X161055002Y-80320001D01*
X161058458Y-80320000D01*
X161058467Y-80320000D01*
X162941533Y-80320000D01*
X162944999Y-80320000D01*
X162949848Y-80320964D01*
G37*
G36*
X176203199Y-80330142D02*
G01*
X176329978Y-80382655D01*
X176444075Y-80458893D01*
X176541107Y-80555925D01*
X176617345Y-80670022D01*
X176669858Y-80796801D01*
X176696629Y-80931388D01*
X176696629Y-81068612D01*
X176669858Y-81203199D01*
X176617345Y-81329978D01*
X176541107Y-81444075D01*
X176444075Y-81541107D01*
X176329978Y-81617345D01*
X176203199Y-81669858D01*
X176068612Y-81696629D01*
X175931388Y-81696629D01*
X175796801Y-81669858D01*
X175670022Y-81617345D01*
X175555925Y-81541107D01*
X175458893Y-81444075D01*
X175382655Y-81329978D01*
X175330142Y-81203199D01*
X175303371Y-81068612D01*
X175303371Y-80931388D01*
X175330142Y-80796801D01*
X175382655Y-80670022D01*
X175458893Y-80555925D01*
X175555925Y-80458893D01*
X175670022Y-80382655D01*
X175796801Y-80330142D01*
X175931388Y-80303371D01*
X176068612Y-80303371D01*
X176203199Y-80330142D01*
G37*
G36*
X165749850Y-79390964D02*
G01*
X165800040Y-79396787D01*
X165817189Y-79404359D01*
X165840671Y-79409030D01*
X165865810Y-79425827D01*
X165885696Y-79434608D01*
X165899277Y-79448189D01*
X165921777Y-79463223D01*
X165936810Y-79485722D01*
X165950391Y-79499303D01*
X165959170Y-79519186D01*
X165975970Y-79544329D01*
X165980641Y-79567812D01*
X165988212Y-79584959D01*
X165994033Y-79635139D01*
X165995000Y-79640000D01*
X165995000Y-80740000D01*
X165994032Y-80744863D01*
X165988212Y-80795040D01*
X165980641Y-80812185D01*
X165975970Y-80835671D01*
X165959169Y-80860815D01*
X165950391Y-80880696D01*
X165936812Y-80894274D01*
X165921777Y-80916777D01*
X165899274Y-80931812D01*
X165885696Y-80945391D01*
X165865815Y-80954169D01*
X165840671Y-80970970D01*
X165817185Y-80975641D01*
X165800040Y-80983212D01*
X165749861Y-80989032D01*
X165745000Y-80990000D01*
X164645000Y-80990000D01*
X164640138Y-80989032D01*
X164589959Y-80983212D01*
X164572812Y-80975641D01*
X164549329Y-80970970D01*
X164524186Y-80954170D01*
X164504303Y-80945391D01*
X164490722Y-80931810D01*
X164468223Y-80916777D01*
X164453189Y-80894277D01*
X164439608Y-80880696D01*
X164430827Y-80860810D01*
X164414030Y-80835671D01*
X164409359Y-80812189D01*
X164401787Y-80795040D01*
X164395964Y-80744849D01*
X164395000Y-80740000D01*
X164395000Y-79640000D01*
X164395964Y-79635150D01*
X164401787Y-79584959D01*
X164409359Y-79567808D01*
X164414030Y-79544329D01*
X164430826Y-79519191D01*
X164439608Y-79499303D01*
X164453191Y-79485719D01*
X164468223Y-79463223D01*
X164490719Y-79448191D01*
X164504303Y-79434608D01*
X164524191Y-79425826D01*
X164549329Y-79409030D01*
X164572808Y-79404359D01*
X164589959Y-79396787D01*
X164640151Y-79390964D01*
X164645000Y-79390000D01*
X165745000Y-79390000D01*
X165749850Y-79390964D01*
G37*
G36*
X173047228Y-79424448D02*
G01*
X173192117Y-79484463D01*
X173322515Y-79571592D01*
X173433408Y-79682485D01*
X173520537Y-79812883D01*
X173580552Y-79957772D01*
X173611148Y-80111586D01*
X173611148Y-80268414D01*
X173580552Y-80422228D01*
X173520537Y-80567117D01*
X173433408Y-80697515D01*
X173322515Y-80808408D01*
X173192117Y-80895537D01*
X173047228Y-80955552D01*
X172893414Y-80986148D01*
X172736586Y-80986148D01*
X172582772Y-80955552D01*
X172437883Y-80895537D01*
X172307485Y-80808408D01*
X172196592Y-80697515D01*
X172109463Y-80567117D01*
X172049448Y-80422228D01*
X172018852Y-80268414D01*
X172018852Y-80111586D01*
X172049448Y-79957772D01*
X172109463Y-79812883D01*
X172196592Y-79682485D01*
X172307485Y-79571592D01*
X172437883Y-79484463D01*
X172582772Y-79424448D01*
X172736586Y-79393852D01*
X172893414Y-79393852D01*
X173047228Y-79424448D01*
G37*
G36*
X183440000Y-79900000D02*
G01*
X181640000Y-79900000D01*
X181640000Y-78100000D01*
X183440000Y-78100000D01*
X183440000Y-79900000D01*
G37*
G36*
X190440000Y-79900000D02*
G01*
X188640000Y-79900000D01*
X188640000Y-78100000D01*
X190440000Y-78100000D01*
X190440000Y-79900000D01*
G37*
G36*
X197900000Y-79900000D02*
G01*
X196100000Y-79900000D01*
X196100000Y-78100000D01*
X197900000Y-78100000D01*
X197900000Y-79900000D01*
G37*
G36*
X204900000Y-79900000D02*
G01*
X203100000Y-79900000D01*
X203100000Y-78100000D01*
X204900000Y-78100000D01*
X204900000Y-79900000D01*
G37*
G36*
X212190000Y-79900000D02*
G01*
X210390000Y-79900000D01*
X210390000Y-78100000D01*
X212190000Y-78100000D01*
X212190000Y-79900000D01*
G37*
G36*
X219440000Y-79900000D02*
G01*
X217640000Y-79900000D01*
X217640000Y-78100000D01*
X219440000Y-78100000D01*
X219440000Y-79900000D01*
G37*
G36*
X180261256Y-78138754D02*
G01*
X180424257Y-78206271D01*
X180570954Y-78304291D01*
X180695709Y-78429046D01*
X180793729Y-78575743D01*
X180861246Y-78738744D01*
X180895666Y-78911785D01*
X180895666Y-79088215D01*
X180861246Y-79261256D01*
X180793729Y-79424257D01*
X180695709Y-79570954D01*
X180570954Y-79695709D01*
X180424257Y-79793729D01*
X180261256Y-79861246D01*
X180088215Y-79895666D01*
X179911785Y-79895666D01*
X179738744Y-79861246D01*
X179575743Y-79793729D01*
X179429046Y-79695709D01*
X179304291Y-79570954D01*
X179206271Y-79424257D01*
X179138754Y-79261256D01*
X179104334Y-79088215D01*
X179104334Y-78911785D01*
X179138754Y-78738744D01*
X179206271Y-78575743D01*
X179304291Y-78429046D01*
X179429046Y-78304291D01*
X179575743Y-78206271D01*
X179738744Y-78138754D01*
X179911785Y-78104334D01*
X180088215Y-78104334D01*
X180261256Y-78138754D01*
G37*
G36*
X187261256Y-78138754D02*
G01*
X187424257Y-78206271D01*
X187570954Y-78304291D01*
X187695709Y-78429046D01*
X187793729Y-78575743D01*
X187861246Y-78738744D01*
X187895666Y-78911785D01*
X187895666Y-79088215D01*
X187861246Y-79261256D01*
X187793729Y-79424257D01*
X187695709Y-79570954D01*
X187570954Y-79695709D01*
X187424257Y-79793729D01*
X187261256Y-79861246D01*
X187088215Y-79895666D01*
X186911785Y-79895666D01*
X186738744Y-79861246D01*
X186575743Y-79793729D01*
X186429046Y-79695709D01*
X186304291Y-79570954D01*
X186206271Y-79424257D01*
X186138754Y-79261256D01*
X186104334Y-79088215D01*
X186104334Y-78911785D01*
X186138754Y-78738744D01*
X186206271Y-78575743D01*
X186304291Y-78429046D01*
X186429046Y-78304291D01*
X186575743Y-78206271D01*
X186738744Y-78138754D01*
X186911785Y-78104334D01*
X187088215Y-78104334D01*
X187261256Y-78138754D01*
G37*
G36*
X194721256Y-78138754D02*
G01*
X194884257Y-78206271D01*
X195030954Y-78304291D01*
X195155709Y-78429046D01*
X195253729Y-78575743D01*
X195321246Y-78738744D01*
X195355666Y-78911785D01*
X195355666Y-79088215D01*
X195321246Y-79261256D01*
X195253729Y-79424257D01*
X195155709Y-79570954D01*
X195030954Y-79695709D01*
X194884257Y-79793729D01*
X194721256Y-79861246D01*
X194548215Y-79895666D01*
X194371785Y-79895666D01*
X194198744Y-79861246D01*
X194035743Y-79793729D01*
X193889046Y-79695709D01*
X193764291Y-79570954D01*
X193666271Y-79424257D01*
X193598754Y-79261256D01*
X193564334Y-79088215D01*
X193564334Y-78911785D01*
X193598754Y-78738744D01*
X193666271Y-78575743D01*
X193764291Y-78429046D01*
X193889046Y-78304291D01*
X194035743Y-78206271D01*
X194198744Y-78138754D01*
X194371785Y-78104334D01*
X194548215Y-78104334D01*
X194721256Y-78138754D01*
G37*
G36*
X201721256Y-78138754D02*
G01*
X201884257Y-78206271D01*
X202030954Y-78304291D01*
X202155709Y-78429046D01*
X202253729Y-78575743D01*
X202321246Y-78738744D01*
X202355666Y-78911785D01*
X202355666Y-79088215D01*
X202321246Y-79261256D01*
X202253729Y-79424257D01*
X202155709Y-79570954D01*
X202030954Y-79695709D01*
X201884257Y-79793729D01*
X201721256Y-79861246D01*
X201548215Y-79895666D01*
X201371785Y-79895666D01*
X201198744Y-79861246D01*
X201035743Y-79793729D01*
X200889046Y-79695709D01*
X200764291Y-79570954D01*
X200666271Y-79424257D01*
X200598754Y-79261256D01*
X200564334Y-79088215D01*
X200564334Y-78911785D01*
X200598754Y-78738744D01*
X200666271Y-78575743D01*
X200764291Y-78429046D01*
X200889046Y-78304291D01*
X201035743Y-78206271D01*
X201198744Y-78138754D01*
X201371785Y-78104334D01*
X201548215Y-78104334D01*
X201721256Y-78138754D01*
G37*
G36*
X209011256Y-78138754D02*
G01*
X209174257Y-78206271D01*
X209320954Y-78304291D01*
X209445709Y-78429046D01*
X209543729Y-78575743D01*
X209611246Y-78738744D01*
X209645666Y-78911785D01*
X209645666Y-79088215D01*
X209611246Y-79261256D01*
X209543729Y-79424257D01*
X209445709Y-79570954D01*
X209320954Y-79695709D01*
X209174257Y-79793729D01*
X209011256Y-79861246D01*
X208838215Y-79895666D01*
X208661785Y-79895666D01*
X208488744Y-79861246D01*
X208325743Y-79793729D01*
X208179046Y-79695709D01*
X208054291Y-79570954D01*
X207956271Y-79424257D01*
X207888754Y-79261256D01*
X207854334Y-79088215D01*
X207854334Y-78911785D01*
X207888754Y-78738744D01*
X207956271Y-78575743D01*
X208054291Y-78429046D01*
X208179046Y-78304291D01*
X208325743Y-78206271D01*
X208488744Y-78138754D01*
X208661785Y-78104334D01*
X208838215Y-78104334D01*
X209011256Y-78138754D01*
G37*
G36*
X216261256Y-78138754D02*
G01*
X216424257Y-78206271D01*
X216570954Y-78304291D01*
X216695709Y-78429046D01*
X216793729Y-78575743D01*
X216861246Y-78738744D01*
X216895666Y-78911785D01*
X216895666Y-79088215D01*
X216861246Y-79261256D01*
X216793729Y-79424257D01*
X216695709Y-79570954D01*
X216570954Y-79695709D01*
X216424257Y-79793729D01*
X216261256Y-79861246D01*
X216088215Y-79895666D01*
X215911785Y-79895666D01*
X215738744Y-79861246D01*
X215575743Y-79793729D01*
X215429046Y-79695709D01*
X215304291Y-79570954D01*
X215206271Y-79424257D01*
X215138754Y-79261256D01*
X215104334Y-79088215D01*
X215104334Y-78911785D01*
X215138754Y-78738744D01*
X215206271Y-78575743D01*
X215304291Y-78429046D01*
X215429046Y-78304291D01*
X215575743Y-78206271D01*
X215738744Y-78138754D01*
X215911785Y-78104334D01*
X216088215Y-78104334D01*
X216261256Y-78138754D01*
G37*
G36*
X176203199Y-76330142D02*
G01*
X176329978Y-76382655D01*
X176444075Y-76458893D01*
X176541107Y-76555925D01*
X176617345Y-76670022D01*
X176669858Y-76796801D01*
X176696629Y-76931388D01*
X176696629Y-77068612D01*
X176669858Y-77203199D01*
X176617345Y-77329978D01*
X176541107Y-77444075D01*
X176444075Y-77541107D01*
X176329978Y-77617345D01*
X176203199Y-77669858D01*
X176068612Y-77696629D01*
X175931388Y-77696629D01*
X175796801Y-77669858D01*
X175670022Y-77617345D01*
X175555925Y-77541107D01*
X175458893Y-77444075D01*
X175382655Y-77329978D01*
X175330142Y-77203199D01*
X175303371Y-77068612D01*
X175303371Y-76931388D01*
X175330142Y-76796801D01*
X175382655Y-76670022D01*
X175458893Y-76555925D01*
X175555925Y-76458893D01*
X175670022Y-76382655D01*
X175796801Y-76330142D01*
X175931388Y-76303371D01*
X176068612Y-76303371D01*
X176203199Y-76330142D01*
G37*
G36*
X161326824Y-72638682D02*
G01*
X161535757Y-72706569D01*
X161731498Y-72806304D01*
X161909227Y-72935432D01*
X162064568Y-73090773D01*
X162193696Y-73268502D01*
X162293431Y-73464243D01*
X162361318Y-73673176D01*
X162395684Y-73890157D01*
X162395684Y-74109843D01*
X162361318Y-74326824D01*
X162293431Y-74535757D01*
X162193696Y-74731498D01*
X162064568Y-74909227D01*
X161909227Y-75064568D01*
X161731498Y-75193696D01*
X161535757Y-75293431D01*
X161326824Y-75361318D01*
X161109843Y-75395684D01*
X160890157Y-75395684D01*
X160673176Y-75361318D01*
X160464243Y-75293431D01*
X160268502Y-75193696D01*
X160090773Y-75064568D01*
X159935432Y-74909227D01*
X159806304Y-74731498D01*
X159706569Y-74535757D01*
X159638682Y-74326824D01*
X159604316Y-74109843D01*
X159604316Y-73890157D01*
X159638682Y-73673176D01*
X159706569Y-73464243D01*
X159806304Y-73268502D01*
X159935432Y-73090773D01*
X160090773Y-72935432D01*
X160268502Y-72806304D01*
X160464243Y-72706569D01*
X160673176Y-72638682D01*
X160890157Y-72604316D01*
X161109843Y-72604316D01*
X161326824Y-72638682D01*
G37*
G36*
X176203199Y-73790142D02*
G01*
X176329978Y-73842655D01*
X176444075Y-73918893D01*
X176541107Y-74015925D01*
X176617345Y-74130022D01*
X176669858Y-74256801D01*
X176696629Y-74391388D01*
X176696629Y-74528612D01*
X176669858Y-74663199D01*
X176617345Y-74789978D01*
X176541107Y-74904075D01*
X176444075Y-75001107D01*
X176329978Y-75077345D01*
X176203199Y-75129858D01*
X176068612Y-75156629D01*
X175931388Y-75156629D01*
X175796801Y-75129858D01*
X175670022Y-75077345D01*
X175555925Y-75001107D01*
X175458893Y-74904075D01*
X175382655Y-74789978D01*
X175330142Y-74663199D01*
X175303371Y-74528612D01*
X175303371Y-74391388D01*
X175330142Y-74256801D01*
X175382655Y-74130022D01*
X175458893Y-74015925D01*
X175555925Y-73918893D01*
X175670022Y-73842655D01*
X175796801Y-73790142D01*
X175931388Y-73763371D01*
X176068612Y-73763371D01*
X176203199Y-73790142D01*
G37*
G36*
X170140861Y-72052087D02*
G01*
X170323996Y-72088514D01*
X170496505Y-72159970D01*
X170651760Y-72263708D01*
X170783792Y-72395740D01*
X170887530Y-72550995D01*
X170958986Y-72723504D01*
X170995413Y-72906639D01*
X170995413Y-73093361D01*
X170958986Y-73276496D01*
X170887530Y-73449005D01*
X170783792Y-73604260D01*
X170651760Y-73736292D01*
X170496505Y-73840030D01*
X170323996Y-73911486D01*
X170140861Y-73947913D01*
X170047500Y-73952500D01*
X170046022Y-73952500D01*
X169953978Y-73952500D01*
X169952500Y-73952500D01*
X169859139Y-73947913D01*
X169676004Y-73911486D01*
X169503495Y-73840030D01*
X169348240Y-73736292D01*
X169216208Y-73604260D01*
X169112470Y-73449005D01*
X169041014Y-73276496D01*
X169004587Y-73093361D01*
X169004587Y-72906639D01*
X169041014Y-72723504D01*
X169112470Y-72550995D01*
X169216208Y-72395740D01*
X169348240Y-72263708D01*
X169503495Y-72159970D01*
X169676004Y-72088514D01*
X169859139Y-72052087D01*
X169952500Y-72047500D01*
X170047500Y-72047500D01*
X170140861Y-72052087D01*
G37*
G36*
X180360000Y-72900000D02*
G01*
X178560000Y-72900000D01*
X178560000Y-71100000D01*
X180360000Y-71100000D01*
X180360000Y-72900000D01*
G37*
G36*
X187630000Y-72900000D02*
G01*
X185830000Y-72900000D01*
X185830000Y-71100000D01*
X187630000Y-71100000D01*
X187630000Y-72900000D01*
G37*
G36*
X195630000Y-72900000D02*
G01*
X193830000Y-72900000D01*
X193830000Y-71100000D01*
X195630000Y-71100000D01*
X195630000Y-72900000D01*
G37*
G36*
X202900000Y-72900000D02*
G01*
X201100000Y-72900000D01*
X201100000Y-71100000D01*
X202900000Y-71100000D01*
X202900000Y-72900000D01*
G37*
G36*
X209630000Y-72900000D02*
G01*
X207830000Y-72900000D01*
X207830000Y-71100000D01*
X209630000Y-71100000D01*
X209630000Y-72900000D01*
G37*
G36*
X216900000Y-72900000D02*
G01*
X215100000Y-72900000D01*
X215100000Y-71100000D01*
X216900000Y-71100000D01*
X216900000Y-72900000D01*
G37*
G36*
X182261256Y-71138754D02*
G01*
X182424257Y-71206271D01*
X182570954Y-71304291D01*
X182695709Y-71429046D01*
X182793729Y-71575743D01*
X182861246Y-71738744D01*
X182895666Y-71911785D01*
X182895666Y-72088215D01*
X182861246Y-72261256D01*
X182793729Y-72424257D01*
X182695709Y-72570954D01*
X182570954Y-72695709D01*
X182424257Y-72793729D01*
X182261256Y-72861246D01*
X182088215Y-72895666D01*
X181911785Y-72895666D01*
X181738744Y-72861246D01*
X181575743Y-72793729D01*
X181429046Y-72695709D01*
X181304291Y-72570954D01*
X181206271Y-72424257D01*
X181138754Y-72261256D01*
X181104334Y-72088215D01*
X181104334Y-71911785D01*
X181138754Y-71738744D01*
X181206271Y-71575743D01*
X181304291Y-71429046D01*
X181429046Y-71304291D01*
X181575743Y-71206271D01*
X181738744Y-71138754D01*
X181911785Y-71104334D01*
X182088215Y-71104334D01*
X182261256Y-71138754D01*
G37*
G36*
X189531256Y-71138754D02*
G01*
X189694257Y-71206271D01*
X189840954Y-71304291D01*
X189965709Y-71429046D01*
X190063729Y-71575743D01*
X190131246Y-71738744D01*
X190165666Y-71911785D01*
X190165666Y-72088215D01*
X190131246Y-72261256D01*
X190063729Y-72424257D01*
X189965709Y-72570954D01*
X189840954Y-72695709D01*
X189694257Y-72793729D01*
X189531256Y-72861246D01*
X189358215Y-72895666D01*
X189181785Y-72895666D01*
X189008744Y-72861246D01*
X188845743Y-72793729D01*
X188699046Y-72695709D01*
X188574291Y-72570954D01*
X188476271Y-72424257D01*
X188408754Y-72261256D01*
X188374334Y-72088215D01*
X188374334Y-71911785D01*
X188408754Y-71738744D01*
X188476271Y-71575743D01*
X188574291Y-71429046D01*
X188699046Y-71304291D01*
X188845743Y-71206271D01*
X189008744Y-71138754D01*
X189181785Y-71104334D01*
X189358215Y-71104334D01*
X189531256Y-71138754D01*
G37*
G36*
X197531256Y-71138754D02*
G01*
X197694257Y-71206271D01*
X197840954Y-71304291D01*
X197965709Y-71429046D01*
X198063729Y-71575743D01*
X198131246Y-71738744D01*
X198165666Y-71911785D01*
X198165666Y-72088215D01*
X198131246Y-72261256D01*
X198063729Y-72424257D01*
X197965709Y-72570954D01*
X197840954Y-72695709D01*
X197694257Y-72793729D01*
X197531256Y-72861246D01*
X197358215Y-72895666D01*
X197181785Y-72895666D01*
X197008744Y-72861246D01*
X196845743Y-72793729D01*
X196699046Y-72695709D01*
X196574291Y-72570954D01*
X196476271Y-72424257D01*
X196408754Y-72261256D01*
X196374334Y-72088215D01*
X196374334Y-71911785D01*
X196408754Y-71738744D01*
X196476271Y-71575743D01*
X196574291Y-71429046D01*
X196699046Y-71304291D01*
X196845743Y-71206271D01*
X197008744Y-71138754D01*
X197181785Y-71104334D01*
X197358215Y-71104334D01*
X197531256Y-71138754D01*
G37*
G36*
X204801256Y-71138754D02*
G01*
X204964257Y-71206271D01*
X205110954Y-71304291D01*
X205235709Y-71429046D01*
X205333729Y-71575743D01*
X205401246Y-71738744D01*
X205435666Y-71911785D01*
X205435666Y-72088215D01*
X205401246Y-72261256D01*
X205333729Y-72424257D01*
X205235709Y-72570954D01*
X205110954Y-72695709D01*
X204964257Y-72793729D01*
X204801256Y-72861246D01*
X204628215Y-72895666D01*
X204451785Y-72895666D01*
X204278744Y-72861246D01*
X204115743Y-72793729D01*
X203969046Y-72695709D01*
X203844291Y-72570954D01*
X203746271Y-72424257D01*
X203678754Y-72261256D01*
X203644334Y-72088215D01*
X203644334Y-71911785D01*
X203678754Y-71738744D01*
X203746271Y-71575743D01*
X203844291Y-71429046D01*
X203969046Y-71304291D01*
X204115743Y-71206271D01*
X204278744Y-71138754D01*
X204451785Y-71104334D01*
X204628215Y-71104334D01*
X204801256Y-71138754D01*
G37*
G36*
X211531256Y-71138754D02*
G01*
X211694257Y-71206271D01*
X211840954Y-71304291D01*
X211965709Y-71429046D01*
X212063729Y-71575743D01*
X212131246Y-71738744D01*
X212165666Y-71911785D01*
X212165666Y-72088215D01*
X212131246Y-72261256D01*
X212063729Y-72424257D01*
X211965709Y-72570954D01*
X211840954Y-72695709D01*
X211694257Y-72793729D01*
X211531256Y-72861246D01*
X211358215Y-72895666D01*
X211181785Y-72895666D01*
X211008744Y-72861246D01*
X210845743Y-72793729D01*
X210699046Y-72695709D01*
X210574291Y-72570954D01*
X210476271Y-72424257D01*
X210408754Y-72261256D01*
X210374334Y-72088215D01*
X210374334Y-71911785D01*
X210408754Y-71738744D01*
X210476271Y-71575743D01*
X210574291Y-71429046D01*
X210699046Y-71304291D01*
X210845743Y-71206271D01*
X211008744Y-71138754D01*
X211181785Y-71104334D01*
X211358215Y-71104334D01*
X211531256Y-71138754D01*
G37*
G36*
X218801256Y-71138754D02*
G01*
X218964257Y-71206271D01*
X219110954Y-71304291D01*
X219235709Y-71429046D01*
X219333729Y-71575743D01*
X219401246Y-71738744D01*
X219435666Y-71911785D01*
X219435666Y-72088215D01*
X219401246Y-72261256D01*
X219333729Y-72424257D01*
X219235709Y-72570954D01*
X219110954Y-72695709D01*
X218964257Y-72793729D01*
X218801256Y-72861246D01*
X218628215Y-72895666D01*
X218451785Y-72895666D01*
X218278744Y-72861246D01*
X218115743Y-72793729D01*
X217969046Y-72695709D01*
X217844291Y-72570954D01*
X217746271Y-72424257D01*
X217678754Y-72261256D01*
X217644334Y-72088215D01*
X217644334Y-71911785D01*
X217678754Y-71738744D01*
X217746271Y-71575743D01*
X217844291Y-71429046D01*
X217969046Y-71304291D01*
X218115743Y-71206271D01*
X218278744Y-71138754D01*
X218451785Y-71104334D01*
X218628215Y-71104334D01*
X218801256Y-71138754D01*
G37*
G36*
X170140861Y-69512087D02*
G01*
X170323996Y-69548514D01*
X170496505Y-69619970D01*
X170651760Y-69723708D01*
X170783792Y-69855740D01*
X170887530Y-70010995D01*
X170958986Y-70183504D01*
X170995413Y-70366639D01*
X170995413Y-70553361D01*
X170958986Y-70736496D01*
X170887530Y-70909005D01*
X170783792Y-71064260D01*
X170651760Y-71196292D01*
X170496505Y-71300030D01*
X170323996Y-71371486D01*
X170140861Y-71407913D01*
X170047500Y-71412500D01*
X170046022Y-71412500D01*
X169953978Y-71412500D01*
X169952500Y-71412500D01*
X169859139Y-71407913D01*
X169676004Y-71371486D01*
X169503495Y-71300030D01*
X169348240Y-71196292D01*
X169216208Y-71064260D01*
X169112470Y-70909005D01*
X169041014Y-70736496D01*
X169004587Y-70553361D01*
X169004587Y-70366639D01*
X169041014Y-70183504D01*
X169112470Y-70010995D01*
X169216208Y-69855740D01*
X169348240Y-69723708D01*
X169503495Y-69619970D01*
X169676004Y-69548514D01*
X169859139Y-69512087D01*
X169952500Y-69507500D01*
X170047500Y-69507500D01*
X170140861Y-69512087D01*
G37*
G36*
X162154848Y-67600964D02*
G01*
X162205040Y-67606787D01*
X162222189Y-67614359D01*
X162245670Y-67619030D01*
X162270807Y-67635826D01*
X162290695Y-67644608D01*
X162304278Y-67658191D01*
X162326776Y-67673224D01*
X162341808Y-67695721D01*
X162355391Y-67709304D01*
X162364171Y-67729189D01*
X162380970Y-67754330D01*
X162385640Y-67777811D01*
X162393212Y-67794959D01*
X162399036Y-67845163D01*
X162399999Y-67850002D01*
X162399999Y-67853458D01*
X162400000Y-67853467D01*
X162400000Y-69507500D01*
X162400000Y-70149999D01*
X162399034Y-70154851D01*
X162393212Y-70205040D01*
X162385641Y-70222185D01*
X162380970Y-70245670D01*
X162364170Y-70270812D01*
X162355391Y-70290695D01*
X162341810Y-70304275D01*
X162326776Y-70326776D01*
X162304275Y-70341810D01*
X162290695Y-70355391D01*
X162270812Y-70364170D01*
X162245670Y-70380970D01*
X162222187Y-70385640D01*
X162205040Y-70393212D01*
X162154836Y-70399036D01*
X162149998Y-70399999D01*
X162146541Y-70399999D01*
X162146533Y-70400000D01*
X159853467Y-70400000D01*
X159853466Y-70399999D01*
X159850001Y-70400000D01*
X159845149Y-70399035D01*
X159794959Y-70393212D01*
X159777812Y-70385640D01*
X159754330Y-70380970D01*
X159729189Y-70364171D01*
X159709304Y-70355391D01*
X159695721Y-70341808D01*
X159673224Y-70326776D01*
X159658191Y-70304278D01*
X159644608Y-70290695D01*
X159635826Y-70270807D01*
X159619030Y-70245670D01*
X159614360Y-70222191D01*
X159606787Y-70205040D01*
X159600963Y-70154836D01*
X159600001Y-70149998D01*
X159600000Y-70146540D01*
X159600000Y-70146532D01*
X159600000Y-67853467D01*
X159600000Y-67853466D01*
X159600000Y-67850001D01*
X159600964Y-67845151D01*
X159606787Y-67794959D01*
X159614359Y-67777808D01*
X159619030Y-67754330D01*
X159635825Y-67729193D01*
X159644608Y-67709304D01*
X159658193Y-67695718D01*
X159673224Y-67673224D01*
X159695718Y-67658193D01*
X159709304Y-67644608D01*
X159729193Y-67635825D01*
X159754330Y-67619030D01*
X159777807Y-67614360D01*
X159794959Y-67606787D01*
X159845165Y-67600963D01*
X159850002Y-67600001D01*
X159853458Y-67600000D01*
X159853467Y-67600000D01*
X162146533Y-67600000D01*
X162149999Y-67600000D01*
X162154848Y-67600964D01*
G37*
G36*
X171000000Y-68872500D02*
G01*
X169000000Y-68872500D01*
X169000000Y-66967500D01*
X171000000Y-66967500D01*
X171000000Y-68872500D01*
G37*
G36*
X179733199Y-65330142D02*
G01*
X179859978Y-65382655D01*
X179974075Y-65458893D01*
X180071107Y-65555925D01*
X180147345Y-65670022D01*
X180199858Y-65796801D01*
X180226629Y-65931388D01*
X180226629Y-66068612D01*
X180199858Y-66203199D01*
X180147345Y-66329978D01*
X180071107Y-66444075D01*
X179974075Y-66541107D01*
X179859978Y-66617345D01*
X179733199Y-66669858D01*
X179598612Y-66696629D01*
X179461388Y-66696629D01*
X179326801Y-66669858D01*
X179200022Y-66617345D01*
X179085925Y-66541107D01*
X178988893Y-66444075D01*
X178912655Y-66329978D01*
X178860142Y-66203199D01*
X178833371Y-66068612D01*
X178833371Y-65931388D01*
X178860142Y-65796801D01*
X178912655Y-65670022D01*
X178988893Y-65555925D01*
X179085925Y-65458893D01*
X179200022Y-65382655D01*
X179326801Y-65330142D01*
X179461388Y-65303371D01*
X179598612Y-65303371D01*
X179733199Y-65330142D01*
G37*
G36*
X182273199Y-65330142D02*
G01*
X182399978Y-65382655D01*
X182514075Y-65458893D01*
X182611107Y-65555925D01*
X182687345Y-65670022D01*
X182739858Y-65796801D01*
X182766629Y-65931388D01*
X182766629Y-66068612D01*
X182739858Y-66203199D01*
X182687345Y-66329978D01*
X182611107Y-66444075D01*
X182514075Y-66541107D01*
X182399978Y-66617345D01*
X182273199Y-66669858D01*
X182138612Y-66696629D01*
X182001388Y-66696629D01*
X181866801Y-66669858D01*
X181740022Y-66617345D01*
X181625925Y-66541107D01*
X181528893Y-66444075D01*
X181452655Y-66329978D01*
X181400142Y-66203199D01*
X181373371Y-66068612D01*
X181373371Y-65931388D01*
X181400142Y-65796801D01*
X181452655Y-65670022D01*
X181528893Y-65555925D01*
X181625925Y-65458893D01*
X181740022Y-65382655D01*
X181866801Y-65330142D01*
X182001388Y-65303371D01*
X182138612Y-65303371D01*
X182273199Y-65330142D01*
G37*
G36*
X187203199Y-65330142D02*
G01*
X187329978Y-65382655D01*
X187444075Y-65458893D01*
X187541107Y-65555925D01*
X187617345Y-65670022D01*
X187669858Y-65796801D01*
X187696629Y-65931388D01*
X187696629Y-66068612D01*
X187669858Y-66203199D01*
X187617345Y-66329978D01*
X187541107Y-66444075D01*
X187444075Y-66541107D01*
X187329978Y-66617345D01*
X187203199Y-66669858D01*
X187068612Y-66696629D01*
X186931388Y-66696629D01*
X186796801Y-66669858D01*
X186670022Y-66617345D01*
X186555925Y-66541107D01*
X186458893Y-66444075D01*
X186382655Y-66329978D01*
X186330142Y-66203199D01*
X186303371Y-66068612D01*
X186303371Y-65931388D01*
X186330142Y-65796801D01*
X186382655Y-65670022D01*
X186458893Y-65555925D01*
X186555925Y-65458893D01*
X186670022Y-65382655D01*
X186796801Y-65330142D01*
X186931388Y-65303371D01*
X187068612Y-65303371D01*
X187203199Y-65330142D01*
G37*
G36*
X189743199Y-65330142D02*
G01*
X189869978Y-65382655D01*
X189984075Y-65458893D01*
X190081107Y-65555925D01*
X190157345Y-65670022D01*
X190209858Y-65796801D01*
X190236629Y-65931388D01*
X190236629Y-66068612D01*
X190209858Y-66203199D01*
X190157345Y-66329978D01*
X190081107Y-66444075D01*
X189984075Y-66541107D01*
X189869978Y-66617345D01*
X189743199Y-66669858D01*
X189608612Y-66696629D01*
X189471388Y-66696629D01*
X189336801Y-66669858D01*
X189210022Y-66617345D01*
X189095925Y-66541107D01*
X188998893Y-66444075D01*
X188922655Y-66329978D01*
X188870142Y-66203199D01*
X188843371Y-66068612D01*
X188843371Y-65931388D01*
X188870142Y-65796801D01*
X188922655Y-65670022D01*
X188998893Y-65555925D01*
X189095925Y-65458893D01*
X189210022Y-65382655D01*
X189336801Y-65330142D01*
X189471388Y-65303371D01*
X189608612Y-65303371D01*
X189743199Y-65330142D01*
G37*
G36*
X195203199Y-65330142D02*
G01*
X195329978Y-65382655D01*
X195444075Y-65458893D01*
X195541107Y-65555925D01*
X195617345Y-65670022D01*
X195669858Y-65796801D01*
X195696629Y-65931388D01*
X195696629Y-66068612D01*
X195669858Y-66203199D01*
X195617345Y-66329978D01*
X195541107Y-66444075D01*
X195444075Y-66541107D01*
X195329978Y-66617345D01*
X195203199Y-66669858D01*
X195068612Y-66696629D01*
X194931388Y-66696629D01*
X194796801Y-66669858D01*
X194670022Y-66617345D01*
X194555925Y-66541107D01*
X194458893Y-66444075D01*
X194382655Y-66329978D01*
X194330142Y-66203199D01*
X194303371Y-66068612D01*
X194303371Y-65931388D01*
X194330142Y-65796801D01*
X194382655Y-65670022D01*
X194458893Y-65555925D01*
X194555925Y-65458893D01*
X194670022Y-65382655D01*
X194796801Y-65330142D01*
X194931388Y-65303371D01*
X195068612Y-65303371D01*
X195203199Y-65330142D01*
G37*
G36*
X197743199Y-65330142D02*
G01*
X197869978Y-65382655D01*
X197984075Y-65458893D01*
X198081107Y-65555925D01*
X198157345Y-65670022D01*
X198209858Y-65796801D01*
X198236629Y-65931388D01*
X198236629Y-66068612D01*
X198209858Y-66203199D01*
X198157345Y-66329978D01*
X198081107Y-66444075D01*
X197984075Y-66541107D01*
X197869978Y-66617345D01*
X197743199Y-66669858D01*
X197608612Y-66696629D01*
X197471388Y-66696629D01*
X197336801Y-66669858D01*
X197210022Y-66617345D01*
X197095925Y-66541107D01*
X196998893Y-66444075D01*
X196922655Y-66329978D01*
X196870142Y-66203199D01*
X196843371Y-66068612D01*
X196843371Y-65931388D01*
X196870142Y-65796801D01*
X196922655Y-65670022D01*
X196998893Y-65555925D01*
X197095925Y-65458893D01*
X197210022Y-65382655D01*
X197336801Y-65330142D01*
X197471388Y-65303371D01*
X197608612Y-65303371D01*
X197743199Y-65330142D01*
G37*
G36*
X202203199Y-65330142D02*
G01*
X202329978Y-65382655D01*
X202444075Y-65458893D01*
X202541107Y-65555925D01*
X202617345Y-65670022D01*
X202669858Y-65796801D01*
X202696629Y-65931388D01*
X202696629Y-66068612D01*
X202669858Y-66203199D01*
X202617345Y-66329978D01*
X202541107Y-66444075D01*
X202444075Y-66541107D01*
X202329978Y-66617345D01*
X202203199Y-66669858D01*
X202068612Y-66696629D01*
X201931388Y-66696629D01*
X201796801Y-66669858D01*
X201670022Y-66617345D01*
X201555925Y-66541107D01*
X201458893Y-66444075D01*
X201382655Y-66329978D01*
X201330142Y-66203199D01*
X201303371Y-66068612D01*
X201303371Y-65931388D01*
X201330142Y-65796801D01*
X201382655Y-65670022D01*
X201458893Y-65555925D01*
X201555925Y-65458893D01*
X201670022Y-65382655D01*
X201796801Y-65330142D01*
X201931388Y-65303371D01*
X202068612Y-65303371D01*
X202203199Y-65330142D01*
G37*
G36*
X204743199Y-65330142D02*
G01*
X204869978Y-65382655D01*
X204984075Y-65458893D01*
X205081107Y-65555925D01*
X205157345Y-65670022D01*
X205209858Y-65796801D01*
X205236629Y-65931388D01*
X205236629Y-66068612D01*
X205209858Y-66203199D01*
X205157345Y-66329978D01*
X205081107Y-66444075D01*
X204984075Y-66541107D01*
X204869978Y-66617345D01*
X204743199Y-66669858D01*
X204608612Y-66696629D01*
X204471388Y-66696629D01*
X204336801Y-66669858D01*
X204210022Y-66617345D01*
X204095925Y-66541107D01*
X203998893Y-66444075D01*
X203922655Y-66329978D01*
X203870142Y-66203199D01*
X203843371Y-66068612D01*
X203843371Y-65931388D01*
X203870142Y-65796801D01*
X203922655Y-65670022D01*
X203998893Y-65555925D01*
X204095925Y-65458893D01*
X204210022Y-65382655D01*
X204336801Y-65330142D01*
X204471388Y-65303371D01*
X204608612Y-65303371D01*
X204743199Y-65330142D01*
G37*
G36*
X209203199Y-65330142D02*
G01*
X209329978Y-65382655D01*
X209444075Y-65458893D01*
X209541107Y-65555925D01*
X209617345Y-65670022D01*
X209669858Y-65796801D01*
X209696629Y-65931388D01*
X209696629Y-66068612D01*
X209669858Y-66203199D01*
X209617345Y-66329978D01*
X209541107Y-66444075D01*
X209444075Y-66541107D01*
X209329978Y-66617345D01*
X209203199Y-66669858D01*
X209068612Y-66696629D01*
X208931388Y-66696629D01*
X208796801Y-66669858D01*
X208670022Y-66617345D01*
X208555925Y-66541107D01*
X208458893Y-66444075D01*
X208382655Y-66329978D01*
X208330142Y-66203199D01*
X208303371Y-66068612D01*
X208303371Y-65931388D01*
X208330142Y-65796801D01*
X208382655Y-65670022D01*
X208458893Y-65555925D01*
X208555925Y-65458893D01*
X208670022Y-65382655D01*
X208796801Y-65330142D01*
X208931388Y-65303371D01*
X209068612Y-65303371D01*
X209203199Y-65330142D01*
G37*
G36*
X211743199Y-65330142D02*
G01*
X211869978Y-65382655D01*
X211984075Y-65458893D01*
X212081107Y-65555925D01*
X212157345Y-65670022D01*
X212209858Y-65796801D01*
X212236629Y-65931388D01*
X212236629Y-66068612D01*
X212209858Y-66203199D01*
X212157345Y-66329978D01*
X212081107Y-66444075D01*
X211984075Y-66541107D01*
X211869978Y-66617345D01*
X211743199Y-66669858D01*
X211608612Y-66696629D01*
X211471388Y-66696629D01*
X211336801Y-66669858D01*
X211210022Y-66617345D01*
X211095925Y-66541107D01*
X210998893Y-66444075D01*
X210922655Y-66329978D01*
X210870142Y-66203199D01*
X210843371Y-66068612D01*
X210843371Y-65931388D01*
X210870142Y-65796801D01*
X210922655Y-65670022D01*
X210998893Y-65555925D01*
X211095925Y-65458893D01*
X211210022Y-65382655D01*
X211336801Y-65330142D01*
X211471388Y-65303371D01*
X211608612Y-65303371D01*
X211743199Y-65330142D01*
G37*
G36*
X216663199Y-65330142D02*
G01*
X216789978Y-65382655D01*
X216904075Y-65458893D01*
X217001107Y-65555925D01*
X217077345Y-65670022D01*
X217129858Y-65796801D01*
X217156629Y-65931388D01*
X217156629Y-66068612D01*
X217129858Y-66203199D01*
X217077345Y-66329978D01*
X217001107Y-66444075D01*
X216904075Y-66541107D01*
X216789978Y-66617345D01*
X216663199Y-66669858D01*
X216528612Y-66696629D01*
X216391388Y-66696629D01*
X216256801Y-66669858D01*
X216130022Y-66617345D01*
X216015925Y-66541107D01*
X215918893Y-66444075D01*
X215842655Y-66329978D01*
X215790142Y-66203199D01*
X215763371Y-66068612D01*
X215763371Y-65931388D01*
X215790142Y-65796801D01*
X215842655Y-65670022D01*
X215918893Y-65555925D01*
X216015925Y-65458893D01*
X216130022Y-65382655D01*
X216256801Y-65330142D01*
X216391388Y-65303371D01*
X216528612Y-65303371D01*
X216663199Y-65330142D01*
G37*
G36*
X219203199Y-65330142D02*
G01*
X219329978Y-65382655D01*
X219444075Y-65458893D01*
X219541107Y-65555925D01*
X219617345Y-65670022D01*
X219669858Y-65796801D01*
X219696629Y-65931388D01*
X219696629Y-66068612D01*
X219669858Y-66203199D01*
X219617345Y-66329978D01*
X219541107Y-66444075D01*
X219444075Y-66541107D01*
X219329978Y-66617345D01*
X219203199Y-66669858D01*
X219068612Y-66696629D01*
X218931388Y-66696629D01*
X218796801Y-66669858D01*
X218670022Y-66617345D01*
X218555925Y-66541107D01*
X218458893Y-66444075D01*
X218382655Y-66329978D01*
X218330142Y-66203199D01*
X218303371Y-66068612D01*
X218303371Y-65931388D01*
X218330142Y-65796801D01*
X218382655Y-65670022D01*
X218458893Y-65555925D01*
X218555925Y-65458893D01*
X218670022Y-65382655D01*
X218796801Y-65330142D01*
X218931388Y-65303371D01*
X219068612Y-65303371D01*
X219203199Y-65330142D01*
G37*
G36*
X158092687Y-61955056D02*
G01*
X158102918Y-61955056D01*
X158142893Y-61963007D01*
X158245074Y-61979191D01*
X158277943Y-61989870D01*
X158304799Y-61995213D01*
X158342700Y-62010912D01*
X158401741Y-62030096D01*
X158457052Y-62058278D01*
X158494967Y-62073983D01*
X158517742Y-62089201D01*
X158548528Y-62104887D01*
X158632217Y-62165690D01*
X158666113Y-62188339D01*
X158673347Y-62195573D01*
X158681798Y-62201713D01*
X158798286Y-62318201D01*
X158804425Y-62326651D01*
X158811661Y-62333887D01*
X158834312Y-62367787D01*
X158895112Y-62451471D01*
X158910796Y-62482254D01*
X158926017Y-62505033D01*
X158941723Y-62542952D01*
X158969903Y-62598258D01*
X158989084Y-62657292D01*
X159004787Y-62695201D01*
X159010130Y-62722062D01*
X159020808Y-62754925D01*
X159036990Y-62857098D01*
X159044944Y-62897082D01*
X159044944Y-62907313D01*
X159046578Y-62917630D01*
X159046578Y-63082369D01*
X159044944Y-63092685D01*
X159044944Y-63102918D01*
X159036990Y-63142905D01*
X159020808Y-63245074D01*
X159010130Y-63277935D01*
X159004787Y-63304799D01*
X158989083Y-63342711D01*
X158969903Y-63401741D01*
X158941726Y-63457041D01*
X158926017Y-63494967D01*
X158910794Y-63517749D01*
X158895112Y-63548528D01*
X158834320Y-63632200D01*
X158811661Y-63666113D01*
X158804423Y-63673350D01*
X158798286Y-63681798D01*
X158681798Y-63798286D01*
X158673350Y-63804423D01*
X158666113Y-63811661D01*
X158632200Y-63834320D01*
X158548528Y-63895112D01*
X158517749Y-63910794D01*
X158494967Y-63926017D01*
X158457041Y-63941726D01*
X158401741Y-63969903D01*
X158342711Y-63989083D01*
X158304799Y-64004787D01*
X158277935Y-64010130D01*
X158245074Y-64020808D01*
X158142902Y-64036990D01*
X158102918Y-64044944D01*
X158092687Y-64044944D01*
X158082370Y-64046578D01*
X157917630Y-64046578D01*
X157907313Y-64044944D01*
X157897082Y-64044944D01*
X157857098Y-64036990D01*
X157754925Y-64020808D01*
X157722062Y-64010130D01*
X157695201Y-64004787D01*
X157657292Y-63989084D01*
X157598258Y-63969903D01*
X157542952Y-63941723D01*
X157505033Y-63926017D01*
X157482254Y-63910796D01*
X157451471Y-63895112D01*
X157367787Y-63834312D01*
X157333887Y-63811661D01*
X157326651Y-63804425D01*
X157318201Y-63798286D01*
X157201713Y-63681798D01*
X157195573Y-63673347D01*
X157188339Y-63666113D01*
X157165690Y-63632217D01*
X157104887Y-63548528D01*
X157089201Y-63517742D01*
X157073983Y-63494967D01*
X157058278Y-63457052D01*
X157030096Y-63401741D01*
X157010912Y-63342700D01*
X156995213Y-63304799D01*
X156989870Y-63277943D01*
X156979191Y-63245074D01*
X156963008Y-63142895D01*
X156955056Y-63102918D01*
X156955056Y-63092686D01*
X156953422Y-63082369D01*
X156953422Y-62917630D01*
X156955056Y-62907312D01*
X156955056Y-62897082D01*
X156963007Y-62857108D01*
X156979191Y-62754925D01*
X156989871Y-62722054D01*
X156995213Y-62695201D01*
X157010910Y-62657303D01*
X157030096Y-62598258D01*
X157058280Y-62542942D01*
X157073983Y-62505033D01*
X157089199Y-62482260D01*
X157104887Y-62451471D01*
X157165699Y-62367770D01*
X157188339Y-62333887D01*
X157195570Y-62326655D01*
X157201713Y-62318201D01*
X157318201Y-62201713D01*
X157326655Y-62195570D01*
X157333887Y-62188339D01*
X157367770Y-62165699D01*
X157451471Y-62104887D01*
X157482260Y-62089199D01*
X157505033Y-62073983D01*
X157542942Y-62058280D01*
X157598258Y-62030096D01*
X157657303Y-62010910D01*
X157695201Y-61995213D01*
X157722054Y-61989871D01*
X157754925Y-61979191D01*
X157857108Y-61963007D01*
X157897082Y-61955056D01*
X157907313Y-61955056D01*
X157917630Y-61953422D01*
X158082370Y-61953422D01*
X158092687Y-61955056D01*
G37*
G36*
X222842687Y-61955056D02*
G01*
X222852918Y-61955056D01*
X222892893Y-61963007D01*
X222995074Y-61979191D01*
X223027943Y-61989870D01*
X223054799Y-61995213D01*
X223092700Y-62010912D01*
X223151741Y-62030096D01*
X223207052Y-62058278D01*
X223244967Y-62073983D01*
X223267742Y-62089201D01*
X223298528Y-62104887D01*
X223382217Y-62165690D01*
X223416113Y-62188339D01*
X223423347Y-62195573D01*
X223431798Y-62201713D01*
X223548286Y-62318201D01*
X223554425Y-62326651D01*
X223561661Y-62333887D01*
X223584312Y-62367787D01*
X223645112Y-62451471D01*
X223660796Y-62482254D01*
X223676017Y-62505033D01*
X223691723Y-62542952D01*
X223719903Y-62598258D01*
X223739084Y-62657292D01*
X223754787Y-62695201D01*
X223760130Y-62722062D01*
X223770808Y-62754925D01*
X223786990Y-62857098D01*
X223794944Y-62897082D01*
X223794944Y-62907313D01*
X223796578Y-62917630D01*
X223796578Y-63082369D01*
X223794944Y-63092685D01*
X223794944Y-63102918D01*
X223786990Y-63142905D01*
X223770808Y-63245074D01*
X223760130Y-63277935D01*
X223754787Y-63304799D01*
X223739083Y-63342711D01*
X223719903Y-63401741D01*
X223691726Y-63457041D01*
X223676017Y-63494967D01*
X223660794Y-63517749D01*
X223645112Y-63548528D01*
X223584320Y-63632200D01*
X223561661Y-63666113D01*
X223554423Y-63673350D01*
X223548286Y-63681798D01*
X223431798Y-63798286D01*
X223423350Y-63804423D01*
X223416113Y-63811661D01*
X223382200Y-63834320D01*
X223298528Y-63895112D01*
X223267749Y-63910794D01*
X223244967Y-63926017D01*
X223207041Y-63941726D01*
X223151741Y-63969903D01*
X223092711Y-63989083D01*
X223054799Y-64004787D01*
X223027935Y-64010130D01*
X222995074Y-64020808D01*
X222892902Y-64036990D01*
X222852918Y-64044944D01*
X222842687Y-64044944D01*
X222832370Y-64046578D01*
X222667630Y-64046578D01*
X222657313Y-64044944D01*
X222647082Y-64044944D01*
X222607098Y-64036990D01*
X222504925Y-64020808D01*
X222472062Y-64010130D01*
X222445201Y-64004787D01*
X222407292Y-63989084D01*
X222348258Y-63969903D01*
X222292952Y-63941723D01*
X222255033Y-63926017D01*
X222232254Y-63910796D01*
X222201471Y-63895112D01*
X222117787Y-63834312D01*
X222083887Y-63811661D01*
X222076651Y-63804425D01*
X222068201Y-63798286D01*
X221951713Y-63681798D01*
X221945573Y-63673347D01*
X221938339Y-63666113D01*
X221915690Y-63632217D01*
X221854887Y-63548528D01*
X221839201Y-63517742D01*
X221823983Y-63494967D01*
X221808278Y-63457052D01*
X221780096Y-63401741D01*
X221760912Y-63342700D01*
X221745213Y-63304799D01*
X221739870Y-63277943D01*
X221729191Y-63245074D01*
X221713008Y-63142895D01*
X221705056Y-63102918D01*
X221705056Y-63092686D01*
X221703422Y-63082369D01*
X221703422Y-62917630D01*
X221705056Y-62907312D01*
X221705056Y-62897082D01*
X221713007Y-62857108D01*
X221729191Y-62754925D01*
X221739871Y-62722054D01*
X221745213Y-62695201D01*
X221760910Y-62657303D01*
X221780096Y-62598258D01*
X221808280Y-62542942D01*
X221823983Y-62505033D01*
X221839199Y-62482260D01*
X221854887Y-62451471D01*
X221915699Y-62367770D01*
X221938339Y-62333887D01*
X221945570Y-62326655D01*
X221951713Y-62318201D01*
X222068201Y-62201713D01*
X222076655Y-62195570D01*
X222083887Y-62188339D01*
X222117770Y-62165699D01*
X222201471Y-62104887D01*
X222232260Y-62089199D01*
X222255033Y-62073983D01*
X222292942Y-62058280D01*
X222348258Y-62030096D01*
X222407303Y-62010910D01*
X222445201Y-61995213D01*
X222472054Y-61989871D01*
X222504925Y-61979191D01*
X222607108Y-61963007D01*
X222647082Y-61955056D01*
X222657313Y-61955056D01*
X222667630Y-61953422D01*
X222832370Y-61953422D01*
X222842687Y-61955056D01*
G37*
M02*
