%TF.GenerationSoftware,KiCad,Pcbnew,10.0.3*%
%TF.CreationDate,2026-06-19T13:59:17+05:45*%
%TF.ProjectId,LED flasher,4c454420-666c-4617-9368-65722e6b6963,rev?*%
%TF.SameCoordinates,Original*%
%TF.FileFunction,Copper,L4,Bot*%
%TF.FilePolarity,Positive*%
%FSLAX46Y46*%
G04 Gerber Fmt 4.6, Leading zero omitted, Abs format (unit mm)*
G04 Created by KiCad (PCBNEW 10.0.3) date 2026-06-19 13:59:17*
%MOMM*%
%LPD*%
G01*
G04 APERTURE LIST*
G04 Aperture macros list*
%AMRoundRect*
0 Rectangle with rounded corners*
0 $1 Rounding radius*
0 $2 $3 $4 $5 $6 $7 $8 $9 X,Y pos of 4 corners*
0 Add a 4 corners polygon primitive as box body*
4,1,4,$2,$3,$4,$5,$6,$7,$8,$9,$2,$3,0*
0 Add four circle primitives for the rounded corners*
1,1,$1+$1,$2,$3*
1,1,$1+$1,$4,$5*
1,1,$1+$1,$6,$7*
1,1,$1+$1,$8,$9*
0 Add four rect primitives between the rounded corners*
20,1,$1+$1,$2,$3,$4,$5,0*
20,1,$1+$1,$4,$5,$6,$7,0*
20,1,$1+$1,$6,$7,$8,$9,0*
20,1,$1+$1,$8,$9,$2,$3,0*%
G04 Aperture macros list end*
%TA.AperFunction,ComponentPad*%
%ADD10RoundRect,0.250000X-0.550000X-0.550000X0.550000X-0.550000X0.550000X0.550000X-0.550000X0.550000X0*%
%TD*%
%TA.AperFunction,ComponentPad*%
%ADD11C,1.600000*%
%TD*%
%TA.AperFunction,ComponentPad*%
%ADD12C,1.400000*%
%TD*%
%TA.AperFunction,ComponentPad*%
%ADD13R,1.050000X1.500000*%
%TD*%
%TA.AperFunction,ComponentPad*%
%ADD14O,1.050000X1.500000*%
%TD*%
%TA.AperFunction,ComponentPad*%
%ADD15RoundRect,0.250001X-1.149999X1.149999X-1.149999X-1.149999X1.149999X-1.149999X1.149999X1.149999X0*%
%TD*%
%TA.AperFunction,ComponentPad*%
%ADD16C,2.800000*%
%TD*%
%TA.AperFunction,ComponentPad*%
%ADD17R,1.800000X1.800000*%
%TD*%
%TA.AperFunction,ComponentPad*%
%ADD18C,1.800000*%
%TD*%
%TA.AperFunction,ComponentPad*%
%ADD19O,2.000000X1.905000*%
%TD*%
%TA.AperFunction,ComponentPad*%
%ADD20R,2.000000X1.905000*%
%TD*%
%TA.AperFunction,Conductor*%
%ADD21C,0.200000*%
%TD*%
G04 APERTURE END LIST*
D10*
%TO.P,U1,1,GND_1*%
%TO.N,GND*%
X165195000Y-80190000D03*
D11*
%TO.P,U1,2,TRIG_2*%
%TO.N,Net-(U1-THRES)*%
X165195000Y-82730000D03*
%TO.P,U1,3,OUT_3*%
%TO.N,Net-(Q1-B)*%
X165195000Y-85270000D03*
%TO.P,U1,4,~{RST}_4*%
%TO.N,Net-(U1-VCC)*%
X165195000Y-87810000D03*
%TO.P,U1,5,CONT_5*%
%TO.N,unconnected-(U1-CONT-Pad5)*%
X172815000Y-87810000D03*
%TO.P,U1,6,THRES_6*%
%TO.N,Net-(U1-THRES)*%
X172815000Y-85270000D03*
%TO.P,U1,7,DISCH_7*%
%TO.N,Net-(U1-DISCH)*%
X172815000Y-82730000D03*
%TO.P,U1,8,VCC_8*%
%TO.N,Net-(U1-VCC)*%
X172815000Y-80190000D03*
%TD*%
D12*
%TO.P,R8,1*%
%TO.N,/12V*%
X216460000Y-66000000D03*
%TO.P,R8,2*%
%TO.N,Net-(D12-A)*%
X219000000Y-66000000D03*
%TD*%
%TO.P,R7,1*%
%TO.N,/12V*%
X209000000Y-66000000D03*
%TO.P,R7,2*%
%TO.N,Net-(D10-A)*%
X211540000Y-66000000D03*
%TD*%
%TO.P,R6,1*%
%TO.N,/12V*%
X202000000Y-66000000D03*
%TO.P,R6,2*%
%TO.N,Net-(D8-A)*%
X204540000Y-66000000D03*
%TD*%
%TO.P,R5,1*%
%TO.N,/12V*%
X195000000Y-66000000D03*
%TO.P,R5,2*%
%TO.N,Net-(D6-A)*%
X197540000Y-66000000D03*
%TD*%
%TO.P,R4,2*%
%TO.N,Net-(D4-A)*%
X189540000Y-66000000D03*
%TO.P,R4,1*%
%TO.N,/12V*%
X187000000Y-66000000D03*
%TD*%
%TO.P,R3,1*%
%TO.N,/12V*%
X179530000Y-66000000D03*
%TO.P,R3,2*%
%TO.N,Net-(D2-A)*%
X182070000Y-66000000D03*
%TD*%
%TO.P,R2,1*%
%TO.N,Net-(U1-DISCH)*%
X176000000Y-77000000D03*
%TO.P,R2,2*%
%TO.N,Net-(U1-THRES)*%
X176000000Y-74460000D03*
%TD*%
%TO.P,R1,1*%
%TO.N,Net-(U1-VCC)*%
X176000000Y-81000000D03*
%TO.P,R1,2*%
%TO.N,Net-(U1-DISCH)*%
X176000000Y-83540000D03*
%TD*%
D13*
%TO.P,Q6,1,C_1*%
%TO.N,Net-(D11-K)*%
X218270000Y-85890000D03*
D14*
%TO.P,Q6,2,B_2*%
%TO.N,Net-(Q1-B)*%
X217000000Y-85890000D03*
%TO.P,Q6,3,E_3*%
%TO.N,GND*%
X215730000Y-85890000D03*
%TD*%
D13*
%TO.P,Q5,1,C_1*%
%TO.N,Net-(D9-K)*%
X211250000Y-86000000D03*
D14*
%TO.P,Q5,2,B_2*%
%TO.N,Net-(Q1-B)*%
X209980000Y-86000000D03*
%TO.P,Q5,3,E_3*%
%TO.N,GND*%
X208710000Y-86000000D03*
%TD*%
D13*
%TO.P,Q4,1,C_1*%
%TO.N,Net-(D7-K)*%
X203270000Y-86000000D03*
D14*
%TO.P,Q4,2,B_2*%
%TO.N,Net-(Q1-B)*%
X202000000Y-86000000D03*
%TO.P,Q4,3,E_3*%
%TO.N,GND*%
X200730000Y-86000000D03*
%TD*%
D13*
%TO.P,Q3,1,C_1*%
%TO.N,Net-(D5-K)*%
X196540000Y-86000000D03*
D14*
%TO.P,Q3,2,B_2*%
%TO.N,Net-(Q1-B)*%
X195270000Y-86000000D03*
%TO.P,Q3,3,E_3*%
%TO.N,GND*%
X194000000Y-86000000D03*
%TD*%
D13*
%TO.P,Q2,1,C_1*%
%TO.N,Net-(D3-K)*%
X189540000Y-86000000D03*
D14*
%TO.P,Q2,2,B_2*%
%TO.N,Net-(Q1-B)*%
X188270000Y-86000000D03*
%TO.P,Q2,3,E_3*%
%TO.N,GND*%
X187000000Y-86000000D03*
%TD*%
D13*
%TO.P,Q1,1,C_1*%
%TO.N,Net-(D1-K)*%
X182270000Y-86000000D03*
D14*
%TO.P,Q1,2,B_2*%
%TO.N,Net-(Q1-B)*%
X181000000Y-86000000D03*
%TO.P,Q1,3,E_3*%
%TO.N,GND*%
X179730000Y-86000000D03*
%TD*%
D15*
%TO.P,J1,1,Pin_1_1*%
%TO.N,/12V*%
X161000000Y-69000000D03*
D16*
%TO.P,J1,2,Pin_2_2*%
%TO.N,GND*%
X161000000Y-74000000D03*
%TD*%
D17*
%TO.P,D12,1,K_1*%
%TO.N,Net-(D11-A)*%
X216000000Y-72000000D03*
D18*
%TO.P,D12,2,A_2*%
%TO.N,Net-(D12-A)*%
X218540000Y-72000000D03*
%TD*%
D17*
%TO.P,D11,1,K_1*%
%TO.N,Net-(D11-K)*%
X218540000Y-79000000D03*
D18*
%TO.P,D11,2,A_2*%
%TO.N,Net-(D11-A)*%
X216000000Y-79000000D03*
%TD*%
D17*
%TO.P,D10,1,K_1*%
%TO.N,Net-(D10-K)*%
X208730000Y-72000000D03*
D18*
%TO.P,D10,2,A_2*%
%TO.N,Net-(D10-A)*%
X211270000Y-72000000D03*
%TD*%
D17*
%TO.P,D9,1,K_1*%
%TO.N,Net-(D9-K)*%
X211290000Y-79000000D03*
D18*
%TO.P,D9,2,A_2*%
%TO.N,Net-(D10-K)*%
X208750000Y-79000000D03*
%TD*%
D17*
%TO.P,D8,1,K_1*%
%TO.N,Net-(D7-A)*%
X202000000Y-72000000D03*
D18*
%TO.P,D8,2,A_2*%
%TO.N,Net-(D8-A)*%
X204540000Y-72000000D03*
%TD*%
D17*
%TO.P,D7,1,K_1*%
%TO.N,Net-(D7-K)*%
X204000000Y-79000000D03*
D18*
%TO.P,D7,2,A_2*%
%TO.N,Net-(D7-A)*%
X201460000Y-79000000D03*
%TD*%
D17*
%TO.P,D6,1,K_1*%
%TO.N,Net-(D5-A)*%
X194730000Y-72000000D03*
D18*
%TO.P,D6,2,A_2*%
%TO.N,Net-(D6-A)*%
X197270000Y-72000000D03*
%TD*%
D17*
%TO.P,D5,1,K_1*%
%TO.N,Net-(D5-K)*%
X197000000Y-79000000D03*
D18*
%TO.P,D5,2,A_2*%
%TO.N,Net-(D5-A)*%
X194460000Y-79000000D03*
%TD*%
D17*
%TO.P,D4,1,K_1*%
%TO.N,Net-(D3-A)*%
X186730000Y-72000000D03*
D18*
%TO.P,D4,2,A_2*%
%TO.N,Net-(D4-A)*%
X189270000Y-72000000D03*
%TD*%
D17*
%TO.P,D3,1,K_1*%
%TO.N,Net-(D3-K)*%
X189540000Y-79000000D03*
D18*
%TO.P,D3,2,A_2*%
%TO.N,Net-(D3-A)*%
X187000000Y-79000000D03*
%TD*%
D17*
%TO.P,D2,1,K_1*%
%TO.N,Net-(D1-A)*%
X179460000Y-72000000D03*
D18*
%TO.P,D2,2,A_2*%
%TO.N,Net-(D2-A)*%
X182000000Y-72000000D03*
%TD*%
D17*
%TO.P,D1,1,K_1*%
%TO.N,Net-(D1-K)*%
X182540000Y-79000000D03*
D18*
%TO.P,D1,2,A_2*%
%TO.N,Net-(D1-A)*%
X180000000Y-79000000D03*
%TD*%
D19*
%TO.P,U2,3,VO_3*%
%TO.N,Net-(U1-VCC)*%
X170000000Y-73000000D03*
%TO.P,U2,2,GND_2*%
%TO.N,GND*%
X170000000Y-70460000D03*
D20*
%TO.P,U2,1,VI_1*%
%TO.N,/12V*%
X170000000Y-67920000D03*
%TD*%
%TO.N,Net-(Q1-B)*%
D21*
X181000000Y-84750000D02*
X181000000Y-86000000D01*
X180750000Y-84500000D02*
X181000000Y-84750000D01*
X176213511Y-86536489D02*
X178250000Y-84500000D01*
X178250000Y-84500000D02*
X180750000Y-84500000D01*
X166461489Y-86536489D02*
X176213511Y-86536489D01*
X165195000Y-85270000D02*
X166461489Y-86536489D01*
%TO.N,Net-(U1-THRES)*%
X174500000Y-75960000D02*
X174500000Y-83585000D01*
X174500000Y-83585000D02*
X172815000Y-85270000D01*
X176000000Y-74460000D02*
X174500000Y-75960000D01*
%TO.N,Net-(U1-DISCH)*%
X177250000Y-82290000D02*
X176000000Y-83540000D01*
X176000000Y-77000000D02*
X177250000Y-78250000D01*
X177250000Y-78250000D02*
X177250000Y-82290000D01*
%TO.N,Net-(U1-THRES)*%
X167735000Y-85270000D02*
X165195000Y-82730000D01*
X172815000Y-85270000D02*
X167735000Y-85270000D01*
%TD*%
%TA.AperFunction,Conductor*%
%TO.N,GND*%
G36*
X156644423Y-63019685D02*
G01*
X156690178Y-63072489D01*
X156699855Y-63104597D01*
X156731523Y-63304534D01*
X156794781Y-63499223D01*
X156887715Y-63681613D01*
X157008028Y-63847213D01*
X157152786Y-63991971D01*
X157307749Y-64104556D01*
X157318390Y-64112287D01*
X157434607Y-64171503D01*
X157500776Y-64205218D01*
X157500778Y-64205218D01*
X157500781Y-64205220D01*
X157605137Y-64239127D01*
X157695465Y-64268477D01*
X157796557Y-64284488D01*
X157897648Y-64300500D01*
X157897649Y-64300500D01*
X158102351Y-64300500D01*
X158102352Y-64300500D01*
X158304534Y-64268477D01*
X158499219Y-64205220D01*
X158681610Y-64112287D01*
X158774590Y-64044732D01*
X158847213Y-63991971D01*
X158847215Y-63991968D01*
X158847219Y-63991966D01*
X158991966Y-63847219D01*
X158991968Y-63847215D01*
X158991971Y-63847213D01*
X159044732Y-63774590D01*
X159112287Y-63681610D01*
X159205220Y-63499219D01*
X159268477Y-63304534D01*
X159300143Y-63104600D01*
X159330072Y-63041467D01*
X159389384Y-63004536D01*
X159422616Y-63000000D01*
X221327384Y-63000000D01*
X221394423Y-63019685D01*
X221440178Y-63072489D01*
X221449855Y-63104597D01*
X221481523Y-63304534D01*
X221544781Y-63499223D01*
X221637715Y-63681613D01*
X221758028Y-63847213D01*
X221902786Y-63991971D01*
X222057749Y-64104556D01*
X222068390Y-64112287D01*
X222184607Y-64171503D01*
X222250776Y-64205218D01*
X222250778Y-64205218D01*
X222250781Y-64205220D01*
X222355137Y-64239127D01*
X222445465Y-64268477D01*
X222546557Y-64284488D01*
X222647648Y-64300500D01*
X222647649Y-64300500D01*
X222852351Y-64300500D01*
X222852352Y-64300500D01*
X223054534Y-64268477D01*
X223249219Y-64205220D01*
X223431610Y-64112287D01*
X223524590Y-64044732D01*
X223597213Y-63991971D01*
X223597215Y-63991968D01*
X223597219Y-63991966D01*
X223741966Y-63847219D01*
X223741968Y-63847215D01*
X223741971Y-63847213D01*
X223794732Y-63774590D01*
X223862287Y-63681610D01*
X223955220Y-63499219D01*
X224008069Y-63336567D01*
X224047507Y-63278891D01*
X224111865Y-63251693D01*
X224180712Y-63263608D01*
X224232187Y-63310852D01*
X224250000Y-63374885D01*
X224250000Y-92875114D01*
X224230315Y-92942153D01*
X224177511Y-92987908D01*
X224108353Y-92997852D01*
X224044797Y-92968827D01*
X224008069Y-92913433D01*
X223955218Y-92750776D01*
X223921503Y-92684607D01*
X223862287Y-92568390D01*
X223854556Y-92557749D01*
X223741971Y-92402786D01*
X223597213Y-92258028D01*
X223431613Y-92137715D01*
X223431612Y-92137714D01*
X223431610Y-92137713D01*
X223374653Y-92108691D01*
X223249223Y-92044781D01*
X223054534Y-91981522D01*
X222879995Y-91953878D01*
X222852352Y-91949500D01*
X222647648Y-91949500D01*
X222623329Y-91953351D01*
X222445465Y-91981522D01*
X222250776Y-92044781D01*
X222068386Y-92137715D01*
X221902786Y-92258028D01*
X221758028Y-92402786D01*
X221637715Y-92568386D01*
X221544781Y-92750776D01*
X221491931Y-92913433D01*
X221481523Y-92945466D01*
X221449856Y-93145399D01*
X221419928Y-93208533D01*
X221360616Y-93245464D01*
X221327384Y-93250000D01*
X159422616Y-93250000D01*
X159355577Y-93230315D01*
X159309822Y-93177511D01*
X159300144Y-93145402D01*
X159268477Y-92945466D01*
X159205220Y-92750781D01*
X159205218Y-92750778D01*
X159205218Y-92750776D01*
X159171503Y-92684607D01*
X159112287Y-92568390D01*
X159104556Y-92557749D01*
X158991971Y-92402786D01*
X158847213Y-92258028D01*
X158681613Y-92137715D01*
X158681612Y-92137714D01*
X158681610Y-92137713D01*
X158624653Y-92108691D01*
X158499223Y-92044781D01*
X158304534Y-91981522D01*
X158129995Y-91953878D01*
X158102352Y-91949500D01*
X157897648Y-91949500D01*
X157873329Y-91953351D01*
X157695465Y-91981522D01*
X157500776Y-92044781D01*
X157318386Y-92137715D01*
X157152786Y-92258028D01*
X157008028Y-92402786D01*
X156887715Y-92568386D01*
X156794781Y-92750776D01*
X156741931Y-92913433D01*
X156731523Y-92945466D01*
X156699856Y-93145399D01*
X156685260Y-93176189D01*
X156671097Y-93207203D01*
X156670322Y-93207700D01*
X156669928Y-93208533D01*
X156640989Y-93226551D01*
X156612319Y-93244977D01*
X156611121Y-93245149D01*
X156610616Y-93245464D01*
X156577384Y-93250000D01*
X156374000Y-93250000D01*
X156306961Y-93230315D01*
X156261206Y-93177511D01*
X156250000Y-93126000D01*
X156250000Y-82627648D01*
X163894500Y-82627648D01*
X163894500Y-82832351D01*
X163926522Y-83034534D01*
X163989781Y-83229223D01*
X164082715Y-83411613D01*
X164203028Y-83577213D01*
X164347786Y-83721971D01*
X164484253Y-83821118D01*
X164513390Y-83842287D01*
X164604840Y-83888883D01*
X164606080Y-83889515D01*
X164656876Y-83937490D01*
X164673671Y-84005311D01*
X164651134Y-84071446D01*
X164606080Y-84110485D01*
X164513386Y-84157715D01*
X164347786Y-84278028D01*
X164203028Y-84422786D01*
X164082715Y-84588386D01*
X163989781Y-84770776D01*
X163926522Y-84965465D01*
X163894500Y-85167648D01*
X163894500Y-85372351D01*
X163926522Y-85574534D01*
X163989781Y-85769223D01*
X164053691Y-85894653D01*
X164076476Y-85939370D01*
X164082715Y-85951613D01*
X164203028Y-86117213D01*
X164347786Y-86261971D01*
X164457486Y-86341671D01*
X164513390Y-86382287D01*
X164604840Y-86428883D01*
X164606080Y-86429515D01*
X164656876Y-86477490D01*
X164673671Y-86545311D01*
X164651134Y-86611446D01*
X164606080Y-86650485D01*
X164513386Y-86697715D01*
X164347786Y-86818028D01*
X164203028Y-86962786D01*
X164082715Y-87128386D01*
X163989781Y-87310776D01*
X163926522Y-87505465D01*
X163894500Y-87707648D01*
X163894500Y-87912351D01*
X163926522Y-88114534D01*
X163989781Y-88309223D01*
X164082715Y-88491613D01*
X164203028Y-88657213D01*
X164347786Y-88801971D01*
X164502749Y-88914556D01*
X164513390Y-88922287D01*
X164629607Y-88981503D01*
X164695776Y-89015218D01*
X164695778Y-89015218D01*
X164695781Y-89015220D01*
X164800137Y-89049127D01*
X164890465Y-89078477D01*
X164991557Y-89094488D01*
X165092648Y-89110500D01*
X165092649Y-89110500D01*
X165297351Y-89110500D01*
X165297352Y-89110500D01*
X165499534Y-89078477D01*
X165694219Y-89015220D01*
X165876610Y-88922287D01*
X165969590Y-88854732D01*
X166042213Y-88801971D01*
X166042215Y-88801968D01*
X166042219Y-88801966D01*
X166186966Y-88657219D01*
X166186968Y-88657215D01*
X166186971Y-88657213D01*
X166239732Y-88584590D01*
X166307287Y-88491610D01*
X166400220Y-88309219D01*
X166463477Y-88114534D01*
X166495500Y-87912352D01*
X166495500Y-87707648D01*
X166463477Y-87505466D01*
X166400220Y-87310781D01*
X166400216Y-87310773D01*
X166400216Y-87310772D01*
X166399247Y-87308431D01*
X166399143Y-87307471D01*
X166398714Y-87306148D01*
X166398992Y-87306057D01*
X166395742Y-87275806D01*
X166391075Y-87243347D01*
X166392031Y-87241253D01*
X166391785Y-87238961D01*
X166406477Y-87209617D01*
X166420098Y-87179790D01*
X166422035Y-87178544D01*
X166423067Y-87176485D01*
X166451279Y-87159749D01*
X166478875Y-87142014D01*
X166481915Y-87141576D01*
X166483159Y-87140839D01*
X166513809Y-87136990D01*
X166540546Y-87136990D01*
X166540549Y-87136989D01*
X166548154Y-87136989D01*
X171496188Y-87136989D01*
X171563227Y-87156674D01*
X171608982Y-87209478D01*
X171618926Y-87278636D01*
X171610750Y-87308439D01*
X171609782Y-87310773D01*
X171546522Y-87505465D01*
X171514500Y-87707648D01*
X171514500Y-87912351D01*
X171546522Y-88114534D01*
X171609781Y-88309223D01*
X171702715Y-88491613D01*
X171823028Y-88657213D01*
X171967786Y-88801971D01*
X172122749Y-88914556D01*
X172133390Y-88922287D01*
X172249607Y-88981503D01*
X172315776Y-89015218D01*
X172315778Y-89015218D01*
X172315781Y-89015220D01*
X172420137Y-89049127D01*
X172510465Y-89078477D01*
X172611557Y-89094488D01*
X172712648Y-89110500D01*
X172712649Y-89110500D01*
X172917351Y-89110500D01*
X172917352Y-89110500D01*
X173119534Y-89078477D01*
X173314219Y-89015220D01*
X173496610Y-88922287D01*
X173589590Y-88854732D01*
X173662213Y-88801971D01*
X173662215Y-88801968D01*
X173662219Y-88801966D01*
X173806966Y-88657219D01*
X173806968Y-88657215D01*
X173806971Y-88657213D01*
X173859732Y-88584590D01*
X173927287Y-88491610D01*
X174020220Y-88309219D01*
X174083477Y-88114534D01*
X174115500Y-87912352D01*
X174115500Y-87707648D01*
X174083477Y-87505466D01*
X174020220Y-87310781D01*
X174020218Y-87310778D01*
X174020217Y-87310773D01*
X174019250Y-87308439D01*
X174019146Y-87307480D01*
X174018714Y-87306148D01*
X174018993Y-87306057D01*
X174011783Y-87238969D01*
X174043059Y-87176491D01*
X174103149Y-87140840D01*
X174133812Y-87136989D01*
X176126842Y-87136989D01*
X176126858Y-87136990D01*
X176134454Y-87136990D01*
X176292565Y-87136990D01*
X176292568Y-87136990D01*
X176445296Y-87096066D01*
X176495415Y-87067128D01*
X176582227Y-87017009D01*
X176694031Y-86905205D01*
X176694031Y-86905203D01*
X176704239Y-86894996D01*
X176704240Y-86894993D01*
X178462416Y-85136819D01*
X178489343Y-85122115D01*
X178515162Y-85105523D01*
X178521362Y-85104631D01*
X178523739Y-85103334D01*
X178550097Y-85100500D01*
X178715940Y-85100500D01*
X178782979Y-85120185D01*
X178828734Y-85172989D01*
X178838678Y-85242147D01*
X178822928Y-85283249D01*
X178824529Y-85284105D01*
X178821652Y-85289486D01*
X178744390Y-85476016D01*
X178744387Y-85476025D01*
X178705000Y-85674041D01*
X178705000Y-85750000D01*
X179449670Y-85750000D01*
X179429925Y-85769745D01*
X179380556Y-85855255D01*
X179355000Y-85950630D01*
X179355000Y-86049370D01*
X179380556Y-86144745D01*
X179429925Y-86230255D01*
X179449670Y-86250000D01*
X178705000Y-86250000D01*
X178705000Y-86325958D01*
X178744387Y-86523974D01*
X178744390Y-86523983D01*
X178821652Y-86710513D01*
X178821659Y-86710526D01*
X178933829Y-86878399D01*
X178933832Y-86878403D01*
X179076596Y-87021167D01*
X179076600Y-87021170D01*
X179244473Y-87133340D01*
X179244486Y-87133347D01*
X179431016Y-87210609D01*
X179431025Y-87210612D01*
X179480000Y-87220353D01*
X179480000Y-86280330D01*
X179499745Y-86300075D01*
X179585255Y-86349444D01*
X179680630Y-86375000D01*
X179779370Y-86375000D01*
X179874745Y-86349444D01*
X179960255Y-86300075D01*
X179974500Y-86285830D01*
X179974500Y-86326003D01*
X179979722Y-86352259D01*
X179979968Y-86363046D01*
X179979788Y-86363714D01*
X179980000Y-86365865D01*
X179980000Y-87220352D01*
X180028974Y-87210612D01*
X180028983Y-87210609D01*
X180215515Y-87133346D01*
X180215518Y-87133344D01*
X180295658Y-87079796D01*
X180362335Y-87058917D01*
X180429716Y-87077401D01*
X180433422Y-87079783D01*
X180514244Y-87133786D01*
X180700873Y-87211091D01*
X180866777Y-87244091D01*
X180898992Y-87250499D01*
X180898996Y-87250500D01*
X180898997Y-87250500D01*
X181101004Y-87250500D01*
X181101005Y-87250499D01*
X181299127Y-87211091D01*
X181300284Y-87210612D01*
X181342879Y-87192968D01*
X181379798Y-87177674D01*
X181449267Y-87170205D01*
X181494658Y-87189962D01*
X181494886Y-87189546D01*
X181499540Y-87192087D01*
X181501562Y-87192967D01*
X181502669Y-87193796D01*
X181502670Y-87193796D01*
X181502671Y-87193797D01*
X181637517Y-87244091D01*
X181637516Y-87244091D01*
X181644444Y-87244835D01*
X181697127Y-87250500D01*
X182842872Y-87250499D01*
X182902483Y-87244091D01*
X183037331Y-87193796D01*
X183152546Y-87107546D01*
X183238796Y-86992331D01*
X183289091Y-86857483D01*
X183295500Y-86797873D01*
X183295499Y-85674041D01*
X185975000Y-85674041D01*
X185975000Y-85750000D01*
X186719670Y-85750000D01*
X186699925Y-85769745D01*
X186650556Y-85855255D01*
X186625000Y-85950630D01*
X186625000Y-86049370D01*
X186650556Y-86144745D01*
X186699925Y-86230255D01*
X186719670Y-86250000D01*
X185975000Y-86250000D01*
X185975000Y-86325958D01*
X186014387Y-86523974D01*
X186014390Y-86523983D01*
X186091652Y-86710513D01*
X186091659Y-86710526D01*
X186203829Y-86878399D01*
X186203832Y-86878403D01*
X186346596Y-87021167D01*
X186346600Y-87021170D01*
X186514473Y-87133340D01*
X186514486Y-87133347D01*
X186701016Y-87210609D01*
X186701025Y-87210612D01*
X186750000Y-87220353D01*
X186750000Y-86280330D01*
X186769745Y-86300075D01*
X186855255Y-86349444D01*
X186950630Y-86375000D01*
X187049370Y-86375000D01*
X187144745Y-86349444D01*
X187230255Y-86300075D01*
X187244500Y-86285830D01*
X187244500Y-86326002D01*
X187247617Y-86341671D01*
X187250000Y-86365865D01*
X187250000Y-87220352D01*
X187298974Y-87210612D01*
X187298983Y-87210609D01*
X187485515Y-87133346D01*
X187485518Y-87133344D01*
X187565658Y-87079796D01*
X187632335Y-87058917D01*
X187699716Y-87077401D01*
X187703422Y-87079783D01*
X187784244Y-87133786D01*
X187970873Y-87211091D01*
X188136777Y-87244091D01*
X188168992Y-87250499D01*
X188168996Y-87250500D01*
X188168997Y-87250500D01*
X188371004Y-87250500D01*
X188371005Y-87250499D01*
X188569127Y-87211091D01*
X188570284Y-87210612D01*
X188612879Y-87192968D01*
X188649798Y-87177674D01*
X188719267Y-87170205D01*
X188764658Y-87189962D01*
X188764886Y-87189546D01*
X188769540Y-87192087D01*
X188771562Y-87192967D01*
X188772669Y-87193796D01*
X188772670Y-87193796D01*
X188772671Y-87193797D01*
X188907517Y-87244091D01*
X188907516Y-87244091D01*
X188914444Y-87244835D01*
X188967127Y-87250500D01*
X190112872Y-87250499D01*
X190172483Y-87244091D01*
X190307331Y-87193796D01*
X190422546Y-87107546D01*
X190508796Y-86992331D01*
X190559091Y-86857483D01*
X190565500Y-86797873D01*
X190565499Y-85674041D01*
X192975000Y-85674041D01*
X192975000Y-85750000D01*
X193719670Y-85750000D01*
X193699925Y-85769745D01*
X193650556Y-85855255D01*
X193625000Y-85950630D01*
X193625000Y-86049370D01*
X193650556Y-86144745D01*
X193699925Y-86230255D01*
X193719670Y-86250000D01*
X192975000Y-86250000D01*
X192975000Y-86325958D01*
X193014387Y-86523974D01*
X193014390Y-86523983D01*
X193091652Y-86710513D01*
X193091659Y-86710526D01*
X193203829Y-86878399D01*
X193203832Y-86878403D01*
X193346596Y-87021167D01*
X193346600Y-87021170D01*
X193514473Y-87133340D01*
X193514486Y-87133347D01*
X193701016Y-87210609D01*
X193701025Y-87210612D01*
X193750000Y-87220353D01*
X193750000Y-86280330D01*
X193769745Y-86300075D01*
X193855255Y-86349444D01*
X193950630Y-86375000D01*
X194049370Y-86375000D01*
X194144745Y-86349444D01*
X194230255Y-86300075D01*
X194244500Y-86285830D01*
X194244500Y-86326002D01*
X194247617Y-86341671D01*
X194250000Y-86365865D01*
X194250000Y-87220352D01*
X194298974Y-87210612D01*
X194298983Y-87210609D01*
X194485515Y-87133346D01*
X194485518Y-87133344D01*
X194565658Y-87079796D01*
X194632335Y-87058917D01*
X194699716Y-87077401D01*
X194703422Y-87079783D01*
X194784244Y-87133786D01*
X194970873Y-87211091D01*
X195136777Y-87244091D01*
X195168992Y-87250499D01*
X195168996Y-87250500D01*
X195168997Y-87250500D01*
X195371004Y-87250500D01*
X195371005Y-87250499D01*
X195569127Y-87211091D01*
X195570284Y-87210612D01*
X195612879Y-87192968D01*
X195649798Y-87177674D01*
X195719267Y-87170205D01*
X195764658Y-87189962D01*
X195764886Y-87189546D01*
X195769540Y-87192087D01*
X195771562Y-87192967D01*
X195772669Y-87193796D01*
X195772670Y-87193796D01*
X195772671Y-87193797D01*
X195907517Y-87244091D01*
X195907516Y-87244091D01*
X195914444Y-87244835D01*
X195967127Y-87250500D01*
X197112872Y-87250499D01*
X197172483Y-87244091D01*
X197307331Y-87193796D01*
X197422546Y-87107546D01*
X197508796Y-86992331D01*
X197559091Y-86857483D01*
X197565500Y-86797873D01*
X197565499Y-85674041D01*
X199705000Y-85674041D01*
X199705000Y-85750000D01*
X200449670Y-85750000D01*
X200429925Y-85769745D01*
X200380556Y-85855255D01*
X200355000Y-85950630D01*
X200355000Y-86049370D01*
X200380556Y-86144745D01*
X200429925Y-86230255D01*
X200449670Y-86250000D01*
X199705000Y-86250000D01*
X199705000Y-86325958D01*
X199744387Y-86523974D01*
X199744390Y-86523983D01*
X199821652Y-86710513D01*
X199821659Y-86710526D01*
X199933829Y-86878399D01*
X199933832Y-86878403D01*
X200076596Y-87021167D01*
X200076600Y-87021170D01*
X200244473Y-87133340D01*
X200244486Y-87133347D01*
X200431016Y-87210609D01*
X200431025Y-87210612D01*
X200480000Y-87220353D01*
X200480000Y-86280330D01*
X200499745Y-86300075D01*
X200585255Y-86349444D01*
X200680630Y-86375000D01*
X200779370Y-86375000D01*
X200874745Y-86349444D01*
X200960255Y-86300075D01*
X200974500Y-86285830D01*
X200974500Y-86326002D01*
X200977617Y-86341671D01*
X200980000Y-86365865D01*
X200980000Y-87220352D01*
X201028974Y-87210612D01*
X201028983Y-87210609D01*
X201215515Y-87133346D01*
X201215518Y-87133344D01*
X201295658Y-87079796D01*
X201362335Y-87058917D01*
X201429716Y-87077401D01*
X201433422Y-87079783D01*
X201514244Y-87133786D01*
X201700873Y-87211091D01*
X201866777Y-87244091D01*
X201898992Y-87250499D01*
X201898996Y-87250500D01*
X201898997Y-87250500D01*
X202101004Y-87250500D01*
X202101005Y-87250499D01*
X202299127Y-87211091D01*
X202300284Y-87210612D01*
X202342879Y-87192968D01*
X202379798Y-87177674D01*
X202449267Y-87170205D01*
X202494658Y-87189962D01*
X202494886Y-87189546D01*
X202499540Y-87192087D01*
X202501562Y-87192967D01*
X202502669Y-87193796D01*
X202502670Y-87193796D01*
X202502671Y-87193797D01*
X202637517Y-87244091D01*
X202637516Y-87244091D01*
X202644444Y-87244835D01*
X202697127Y-87250500D01*
X203842872Y-87250499D01*
X203902483Y-87244091D01*
X204037331Y-87193796D01*
X204152546Y-87107546D01*
X204238796Y-86992331D01*
X204289091Y-86857483D01*
X204295500Y-86797873D01*
X204295499Y-85674041D01*
X207685000Y-85674041D01*
X207685000Y-85750000D01*
X208429670Y-85750000D01*
X208409925Y-85769745D01*
X208360556Y-85855255D01*
X208335000Y-85950630D01*
X208335000Y-86049370D01*
X208360556Y-86144745D01*
X208409925Y-86230255D01*
X208429670Y-86250000D01*
X207685000Y-86250000D01*
X207685000Y-86325958D01*
X207724387Y-86523974D01*
X207724390Y-86523983D01*
X207801652Y-86710513D01*
X207801659Y-86710526D01*
X207913829Y-86878399D01*
X207913832Y-86878403D01*
X208056596Y-87021167D01*
X208056600Y-87021170D01*
X208224473Y-87133340D01*
X208224486Y-87133347D01*
X208411016Y-87210609D01*
X208411025Y-87210612D01*
X208460000Y-87220353D01*
X208460000Y-86280330D01*
X208479745Y-86300075D01*
X208565255Y-86349444D01*
X208660630Y-86375000D01*
X208759370Y-86375000D01*
X208854745Y-86349444D01*
X208940255Y-86300075D01*
X208954500Y-86285830D01*
X208954500Y-86326002D01*
X208957617Y-86341671D01*
X208960000Y-86365865D01*
X208960000Y-87220352D01*
X209008974Y-87210612D01*
X209008983Y-87210609D01*
X209195515Y-87133346D01*
X209195518Y-87133344D01*
X209275658Y-87079796D01*
X209342335Y-87058917D01*
X209409716Y-87077401D01*
X209413422Y-87079783D01*
X209494244Y-87133786D01*
X209680873Y-87211091D01*
X209846777Y-87244091D01*
X209878992Y-87250499D01*
X209878996Y-87250500D01*
X209878997Y-87250500D01*
X210081004Y-87250500D01*
X210081005Y-87250499D01*
X210279127Y-87211091D01*
X210280284Y-87210612D01*
X210322879Y-87192968D01*
X210359798Y-87177674D01*
X210429267Y-87170205D01*
X210474658Y-87189962D01*
X210474886Y-87189546D01*
X210479540Y-87192087D01*
X210481562Y-87192967D01*
X210482669Y-87193796D01*
X210482670Y-87193796D01*
X210482671Y-87193797D01*
X210617517Y-87244091D01*
X210617516Y-87244091D01*
X210624444Y-87244835D01*
X210677127Y-87250500D01*
X211822872Y-87250499D01*
X211882483Y-87244091D01*
X212017331Y-87193796D01*
X212132546Y-87107546D01*
X212218796Y-86992331D01*
X212269091Y-86857483D01*
X212275500Y-86797873D01*
X212275499Y-85564041D01*
X214705000Y-85564041D01*
X214705000Y-85640000D01*
X215449670Y-85640000D01*
X215429925Y-85659745D01*
X215380556Y-85745255D01*
X215355000Y-85840630D01*
X215355000Y-85939370D01*
X215380556Y-86034745D01*
X215429925Y-86120255D01*
X215449670Y-86140000D01*
X214705000Y-86140000D01*
X214705000Y-86215958D01*
X214744387Y-86413974D01*
X214744390Y-86413983D01*
X214821652Y-86600513D01*
X214821659Y-86600526D01*
X214933829Y-86768399D01*
X214933832Y-86768403D01*
X215076596Y-86911167D01*
X215076600Y-86911170D01*
X215244473Y-87023340D01*
X215244486Y-87023347D01*
X215431016Y-87100609D01*
X215431025Y-87100612D01*
X215480000Y-87110353D01*
X215480000Y-86170330D01*
X215499745Y-86190075D01*
X215585255Y-86239444D01*
X215680630Y-86265000D01*
X215779370Y-86265000D01*
X215874745Y-86239444D01*
X215960255Y-86190075D01*
X215974500Y-86175830D01*
X215974500Y-86216002D01*
X215977617Y-86231671D01*
X215980000Y-86255865D01*
X215980000Y-87110352D01*
X216028974Y-87100612D01*
X216028983Y-87100609D01*
X216215515Y-87023346D01*
X216215518Y-87023344D01*
X216295658Y-86969796D01*
X216362335Y-86948917D01*
X216429716Y-86967401D01*
X216433422Y-86969783D01*
X216514244Y-87023786D01*
X216700873Y-87101091D01*
X216866777Y-87134091D01*
X216898992Y-87140499D01*
X216898996Y-87140500D01*
X216898997Y-87140500D01*
X217101004Y-87140500D01*
X217101005Y-87140499D01*
X217299127Y-87101091D01*
X217300284Y-87100612D01*
X217342879Y-87082968D01*
X217379798Y-87067674D01*
X217449267Y-87060205D01*
X217494658Y-87079962D01*
X217494886Y-87079546D01*
X217499540Y-87082087D01*
X217501562Y-87082967D01*
X217502669Y-87083796D01*
X217502670Y-87083796D01*
X217502671Y-87083797D01*
X217637517Y-87134091D01*
X217637516Y-87134091D01*
X217644444Y-87134835D01*
X217697127Y-87140500D01*
X218842872Y-87140499D01*
X218902483Y-87134091D01*
X219037331Y-87083796D01*
X219152546Y-86997546D01*
X219238796Y-86882331D01*
X219289091Y-86747483D01*
X219295500Y-86687873D01*
X219295499Y-85092128D01*
X219289091Y-85032517D01*
X219281289Y-85011600D01*
X219238797Y-84897671D01*
X219238793Y-84897664D01*
X219152547Y-84782455D01*
X219152544Y-84782452D01*
X219037335Y-84696206D01*
X219037328Y-84696202D01*
X218902482Y-84645908D01*
X218902483Y-84645908D01*
X218842883Y-84639501D01*
X218842881Y-84639500D01*
X218842873Y-84639500D01*
X218842864Y-84639500D01*
X217697129Y-84639500D01*
X217697123Y-84639501D01*
X217637516Y-84645908D01*
X217502672Y-84696202D01*
X217502665Y-84696206D01*
X217501556Y-84697037D01*
X217500258Y-84697520D01*
X217494887Y-84700454D01*
X217494465Y-84699681D01*
X217436090Y-84721449D01*
X217379800Y-84712325D01*
X217299127Y-84678909D01*
X217299119Y-84678907D01*
X217101007Y-84639500D01*
X217101003Y-84639500D01*
X216898997Y-84639500D01*
X216898992Y-84639500D01*
X216700880Y-84678907D01*
X216700872Y-84678909D01*
X216514243Y-84756214D01*
X216433439Y-84810204D01*
X216366761Y-84831081D01*
X216299382Y-84812595D01*
X216295659Y-84810203D01*
X216215526Y-84756659D01*
X216215513Y-84756652D01*
X216028984Y-84679390D01*
X216028977Y-84679388D01*
X215980000Y-84669645D01*
X215980000Y-85524134D01*
X215977617Y-85548326D01*
X215974500Y-85563995D01*
X215974500Y-85604170D01*
X215960255Y-85589925D01*
X215874745Y-85540556D01*
X215779370Y-85515000D01*
X215680630Y-85515000D01*
X215585255Y-85540556D01*
X215499745Y-85589925D01*
X215480000Y-85609670D01*
X215480000Y-84669646D01*
X215479999Y-84669645D01*
X215431022Y-84679388D01*
X215431015Y-84679390D01*
X215244486Y-84756652D01*
X215244473Y-84756659D01*
X215076600Y-84868829D01*
X215076596Y-84868832D01*
X214933832Y-85011596D01*
X214933829Y-85011600D01*
X214821659Y-85179473D01*
X214821652Y-85179486D01*
X214744390Y-85366016D01*
X214744387Y-85366025D01*
X214705000Y-85564041D01*
X212275499Y-85564041D01*
X212275499Y-85202128D01*
X212269091Y-85142517D01*
X212261289Y-85121600D01*
X212218797Y-85007671D01*
X212218793Y-85007664D01*
X212132547Y-84892455D01*
X212132544Y-84892452D01*
X212017335Y-84806206D01*
X212017328Y-84806202D01*
X211882482Y-84755908D01*
X211882483Y-84755908D01*
X211822883Y-84749501D01*
X211822881Y-84749500D01*
X211822873Y-84749500D01*
X211822864Y-84749500D01*
X210677129Y-84749500D01*
X210677123Y-84749501D01*
X210617516Y-84755908D01*
X210482672Y-84806202D01*
X210482665Y-84806206D01*
X210481556Y-84807037D01*
X210480258Y-84807520D01*
X210474887Y-84810454D01*
X210474465Y-84809681D01*
X210416090Y-84831449D01*
X210359800Y-84822325D01*
X210279127Y-84788909D01*
X210279119Y-84788907D01*
X210081007Y-84749500D01*
X210081003Y-84749500D01*
X209878997Y-84749500D01*
X209878992Y-84749500D01*
X209680880Y-84788907D01*
X209680872Y-84788909D01*
X209494243Y-84866214D01*
X209413439Y-84920204D01*
X209346761Y-84941081D01*
X209279382Y-84922595D01*
X209275659Y-84920203D01*
X209195526Y-84866659D01*
X209195513Y-84866652D01*
X209008984Y-84789390D01*
X209008977Y-84789388D01*
X208960000Y-84779645D01*
X208960000Y-85634134D01*
X208957617Y-85658326D01*
X208954500Y-85673995D01*
X208954500Y-85714170D01*
X208940255Y-85699925D01*
X208854745Y-85650556D01*
X208759370Y-85625000D01*
X208660630Y-85625000D01*
X208565255Y-85650556D01*
X208479745Y-85699925D01*
X208460000Y-85719670D01*
X208460000Y-84779646D01*
X208459999Y-84779645D01*
X208411022Y-84789388D01*
X208411015Y-84789390D01*
X208224486Y-84866652D01*
X208224473Y-84866659D01*
X208056600Y-84978829D01*
X208056596Y-84978832D01*
X207913832Y-85121596D01*
X207913829Y-85121600D01*
X207801659Y-85289473D01*
X207801652Y-85289486D01*
X207724390Y-85476016D01*
X207724387Y-85476025D01*
X207685000Y-85674041D01*
X204295499Y-85674041D01*
X204295499Y-85202128D01*
X204289091Y-85142517D01*
X204281289Y-85121600D01*
X204238797Y-85007671D01*
X204238793Y-85007664D01*
X204152547Y-84892455D01*
X204152544Y-84892452D01*
X204037335Y-84806206D01*
X204037328Y-84806202D01*
X203902482Y-84755908D01*
X203902483Y-84755908D01*
X203842883Y-84749501D01*
X203842881Y-84749500D01*
X203842873Y-84749500D01*
X203842864Y-84749500D01*
X202697129Y-84749500D01*
X202697123Y-84749501D01*
X202637516Y-84755908D01*
X202502672Y-84806202D01*
X202502665Y-84806206D01*
X202501556Y-84807037D01*
X202500258Y-84807520D01*
X202494887Y-84810454D01*
X202494465Y-84809681D01*
X202436090Y-84831449D01*
X202379800Y-84822325D01*
X202299127Y-84788909D01*
X202299119Y-84788907D01*
X202101007Y-84749500D01*
X202101003Y-84749500D01*
X201898997Y-84749500D01*
X201898992Y-84749500D01*
X201700880Y-84788907D01*
X201700872Y-84788909D01*
X201514243Y-84866214D01*
X201433439Y-84920204D01*
X201366761Y-84941081D01*
X201299382Y-84922595D01*
X201295659Y-84920203D01*
X201215526Y-84866659D01*
X201215513Y-84866652D01*
X201028984Y-84789390D01*
X201028977Y-84789388D01*
X200980000Y-84779645D01*
X200980000Y-85634134D01*
X200977617Y-85658326D01*
X200974500Y-85673995D01*
X200974500Y-85714170D01*
X200960255Y-85699925D01*
X200874745Y-85650556D01*
X200779370Y-85625000D01*
X200680630Y-85625000D01*
X200585255Y-85650556D01*
X200499745Y-85699925D01*
X200480000Y-85719670D01*
X200480000Y-84779646D01*
X200479999Y-84779645D01*
X200431022Y-84789388D01*
X200431015Y-84789390D01*
X200244486Y-84866652D01*
X200244473Y-84866659D01*
X200076600Y-84978829D01*
X200076596Y-84978832D01*
X199933832Y-85121596D01*
X199933829Y-85121600D01*
X199821659Y-85289473D01*
X199821652Y-85289486D01*
X199744390Y-85476016D01*
X199744387Y-85476025D01*
X199705000Y-85674041D01*
X197565499Y-85674041D01*
X197565499Y-85202128D01*
X197559091Y-85142517D01*
X197551289Y-85121600D01*
X197508797Y-85007671D01*
X197508793Y-85007664D01*
X197422547Y-84892455D01*
X197422544Y-84892452D01*
X197307335Y-84806206D01*
X197307328Y-84806202D01*
X197172482Y-84755908D01*
X197172483Y-84755908D01*
X197112883Y-84749501D01*
X197112881Y-84749500D01*
X197112873Y-84749500D01*
X197112864Y-84749500D01*
X195967129Y-84749500D01*
X195967123Y-84749501D01*
X195907516Y-84755908D01*
X195772672Y-84806202D01*
X195772665Y-84806206D01*
X195771556Y-84807037D01*
X195770258Y-84807520D01*
X195764887Y-84810454D01*
X195764465Y-84809681D01*
X195706090Y-84831449D01*
X195649800Y-84822325D01*
X195569127Y-84788909D01*
X195569119Y-84788907D01*
X195371007Y-84749500D01*
X195371003Y-84749500D01*
X195168997Y-84749500D01*
X195168992Y-84749500D01*
X194970880Y-84788907D01*
X194970872Y-84788909D01*
X194784243Y-84866214D01*
X194703439Y-84920204D01*
X194636761Y-84941081D01*
X194569382Y-84922595D01*
X194565659Y-84920203D01*
X194485526Y-84866659D01*
X194485513Y-84866652D01*
X194298984Y-84789390D01*
X194298977Y-84789388D01*
X194250000Y-84779645D01*
X194250000Y-85634134D01*
X194247617Y-85658326D01*
X194244500Y-85673995D01*
X194244500Y-85714170D01*
X194230255Y-85699925D01*
X194144745Y-85650556D01*
X194049370Y-85625000D01*
X193950630Y-85625000D01*
X193855255Y-85650556D01*
X193769745Y-85699925D01*
X193750000Y-85719670D01*
X193750000Y-84779646D01*
X193749999Y-84779645D01*
X193701022Y-84789388D01*
X193701015Y-84789390D01*
X193514486Y-84866652D01*
X193514473Y-84866659D01*
X193346600Y-84978829D01*
X193346596Y-84978832D01*
X193203832Y-85121596D01*
X193203829Y-85121600D01*
X193091659Y-85289473D01*
X193091652Y-85289486D01*
X193014390Y-85476016D01*
X193014387Y-85476025D01*
X192975000Y-85674041D01*
X190565499Y-85674041D01*
X190565499Y-85202128D01*
X190559091Y-85142517D01*
X190551289Y-85121600D01*
X190508797Y-85007671D01*
X190508793Y-85007664D01*
X190422547Y-84892455D01*
X190422544Y-84892452D01*
X190307335Y-84806206D01*
X190307328Y-84806202D01*
X190172482Y-84755908D01*
X190172483Y-84755908D01*
X190112883Y-84749501D01*
X190112881Y-84749500D01*
X190112873Y-84749500D01*
X190112864Y-84749500D01*
X188967129Y-84749500D01*
X188967123Y-84749501D01*
X188907516Y-84755908D01*
X188772672Y-84806202D01*
X188772665Y-84806206D01*
X188771556Y-84807037D01*
X188770258Y-84807520D01*
X188764887Y-84810454D01*
X188764465Y-84809681D01*
X188706090Y-84831449D01*
X188649800Y-84822325D01*
X188569127Y-84788909D01*
X188569119Y-84788907D01*
X188371007Y-84749500D01*
X188371003Y-84749500D01*
X188168997Y-84749500D01*
X188168992Y-84749500D01*
X187970880Y-84788907D01*
X187970872Y-84788909D01*
X187784243Y-84866214D01*
X187703439Y-84920204D01*
X187636761Y-84941081D01*
X187569382Y-84922595D01*
X187565659Y-84920203D01*
X187485526Y-84866659D01*
X187485513Y-84866652D01*
X187298984Y-84789390D01*
X187298977Y-84789388D01*
X187250000Y-84779645D01*
X187250000Y-85634134D01*
X187247617Y-85658326D01*
X187244500Y-85673995D01*
X187244500Y-85714170D01*
X187230255Y-85699925D01*
X187144745Y-85650556D01*
X187049370Y-85625000D01*
X186950630Y-85625000D01*
X186855255Y-85650556D01*
X186769745Y-85699925D01*
X186750000Y-85719670D01*
X186750000Y-84779646D01*
X186749999Y-84779645D01*
X186701022Y-84789388D01*
X186701015Y-84789390D01*
X186514486Y-84866652D01*
X186514473Y-84866659D01*
X186346600Y-84978829D01*
X186346596Y-84978832D01*
X186203832Y-85121596D01*
X186203829Y-85121600D01*
X186091659Y-85289473D01*
X186091652Y-85289486D01*
X186014390Y-85476016D01*
X186014387Y-85476025D01*
X185975000Y-85674041D01*
X183295499Y-85674041D01*
X183295499Y-85202128D01*
X183289091Y-85142517D01*
X183281289Y-85121600D01*
X183238797Y-85007671D01*
X183238793Y-85007664D01*
X183152547Y-84892455D01*
X183152544Y-84892452D01*
X183037335Y-84806206D01*
X183037328Y-84806202D01*
X182902482Y-84755908D01*
X182902483Y-84755908D01*
X182842883Y-84749501D01*
X182842881Y-84749500D01*
X182842873Y-84749500D01*
X182842865Y-84749500D01*
X181716697Y-84749500D01*
X181649658Y-84729815D01*
X181603903Y-84677011D01*
X181596922Y-84657592D01*
X181595570Y-84652547D01*
X181578380Y-84588390D01*
X181559577Y-84518216D01*
X181504478Y-84422781D01*
X181480524Y-84381290D01*
X181480521Y-84381286D01*
X181480520Y-84381284D01*
X181368716Y-84269480D01*
X181368715Y-84269479D01*
X181364385Y-84265149D01*
X181364374Y-84265139D01*
X181237590Y-84138355D01*
X181237588Y-84138352D01*
X181118717Y-84019481D01*
X181118716Y-84019480D01*
X181031904Y-83969360D01*
X181031904Y-83969359D01*
X181031900Y-83969358D01*
X180981785Y-83940423D01*
X180829057Y-83899499D01*
X180670943Y-83899499D01*
X180663347Y-83899499D01*
X180663331Y-83899500D01*
X178170939Y-83899500D01*
X178136547Y-83908715D01*
X178136548Y-83908716D01*
X178018214Y-83940423D01*
X178018209Y-83940426D01*
X177881290Y-84019475D01*
X177881282Y-84019481D01*
X177790279Y-84110485D01*
X177769480Y-84131284D01*
X177769478Y-84131286D01*
X176868248Y-85032517D01*
X176001095Y-85899670D01*
X175939772Y-85933155D01*
X175913414Y-85935989D01*
X174136704Y-85935989D01*
X174069665Y-85916304D01*
X174023910Y-85863500D01*
X174013966Y-85794342D01*
X174018773Y-85773670D01*
X174020217Y-85769223D01*
X174020220Y-85769219D01*
X174083477Y-85574534D01*
X174115500Y-85372352D01*
X174115500Y-85167648D01*
X174105519Y-85104631D01*
X174083478Y-84965472D01*
X174083477Y-84965471D01*
X174083477Y-84965466D01*
X174078825Y-84951151D01*
X174076832Y-84881312D01*
X174109075Y-84825158D01*
X174782966Y-84151267D01*
X174844287Y-84117784D01*
X174913979Y-84122768D01*
X174969912Y-84164640D01*
X174970963Y-84166064D01*
X174973238Y-84169195D01*
X174973240Y-84169199D01*
X175084310Y-84322073D01*
X175217927Y-84455690D01*
X175370801Y-84566760D01*
X175439561Y-84601795D01*
X175539163Y-84652545D01*
X175539165Y-84652545D01*
X175539168Y-84652547D01*
X175621776Y-84679388D01*
X175718881Y-84710940D01*
X175905514Y-84740500D01*
X175905519Y-84740500D01*
X176094486Y-84740500D01*
X176281118Y-84710940D01*
X176322420Y-84697520D01*
X176460832Y-84652547D01*
X176629199Y-84566760D01*
X176782073Y-84455690D01*
X176915690Y-84322073D01*
X177026760Y-84169199D01*
X177112547Y-84000832D01*
X177170940Y-83821118D01*
X177200500Y-83634486D01*
X177200500Y-83445513D01*
X177175274Y-83286246D01*
X177184228Y-83216953D01*
X177210063Y-83179170D01*
X177618713Y-82770521D01*
X177618716Y-82770520D01*
X177730520Y-82658716D01*
X177780639Y-82571904D01*
X177809577Y-82521785D01*
X177850501Y-82369057D01*
X177850501Y-82210943D01*
X177850501Y-82203348D01*
X177850500Y-82203330D01*
X177850500Y-78889778D01*
X178599500Y-78889778D01*
X178599500Y-79110222D01*
X178609230Y-79171654D01*
X178633985Y-79327952D01*
X178702103Y-79537603D01*
X178702104Y-79537606D01*
X178770122Y-79671096D01*
X178780152Y-79690781D01*
X178802187Y-79734025D01*
X178931752Y-79912358D01*
X178931756Y-79912363D01*
X179087636Y-80068243D01*
X179087641Y-80068247D01*
X179182739Y-80137339D01*
X179265978Y-80197815D01*
X179394375Y-80263237D01*
X179462393Y-80297895D01*
X179462396Y-80297896D01*
X179567221Y-80331955D01*
X179672049Y-80366015D01*
X179889778Y-80400500D01*
X179889779Y-80400500D01*
X180110221Y-80400500D01*
X180110222Y-80400500D01*
X180327951Y-80366015D01*
X180537606Y-80297895D01*
X180734022Y-80197815D01*
X180912365Y-80068242D01*
X180962536Y-80018070D01*
X181023857Y-79984586D01*
X181093548Y-79989570D01*
X181149482Y-80031441D01*
X181166398Y-80062419D01*
X181196202Y-80142328D01*
X181196206Y-80142335D01*
X181282452Y-80257544D01*
X181282455Y-80257547D01*
X181397664Y-80343793D01*
X181397671Y-80343797D01*
X181532517Y-80394091D01*
X181532516Y-80394091D01*
X181539444Y-80394835D01*
X181592127Y-80400500D01*
X183487872Y-80400499D01*
X183547483Y-80394091D01*
X183682331Y-80343796D01*
X183797546Y-80257546D01*
X183883796Y-80142331D01*
X183934091Y-80007483D01*
X183940500Y-79947873D01*
X183940499Y-78889778D01*
X185599500Y-78889778D01*
X185599500Y-79110222D01*
X185609230Y-79171654D01*
X185633985Y-79327952D01*
X185702103Y-79537603D01*
X185702104Y-79537606D01*
X185770122Y-79671096D01*
X185780152Y-79690781D01*
X185802187Y-79734025D01*
X185931752Y-79912358D01*
X185931756Y-79912363D01*
X186087636Y-80068243D01*
X186087641Y-80068247D01*
X186182739Y-80137339D01*
X186265978Y-80197815D01*
X186394375Y-80263237D01*
X186462393Y-80297895D01*
X186462396Y-80297896D01*
X186567221Y-80331955D01*
X186672049Y-80366015D01*
X186889778Y-80400500D01*
X186889779Y-80400500D01*
X187110221Y-80400500D01*
X187110222Y-80400500D01*
X187327951Y-80366015D01*
X187537606Y-80297895D01*
X187734022Y-80197815D01*
X187912365Y-80068242D01*
X187962536Y-80018070D01*
X188023857Y-79984586D01*
X188093548Y-79989570D01*
X188149482Y-80031441D01*
X188166398Y-80062419D01*
X188196202Y-80142328D01*
X188196206Y-80142335D01*
X188282452Y-80257544D01*
X188282455Y-80257547D01*
X188397664Y-80343793D01*
X188397671Y-80343797D01*
X188532517Y-80394091D01*
X188532516Y-80394091D01*
X188539444Y-80394835D01*
X188592127Y-80400500D01*
X190487872Y-80400499D01*
X190547483Y-80394091D01*
X190682331Y-80343796D01*
X190797546Y-80257546D01*
X190883796Y-80142331D01*
X190934091Y-80007483D01*
X190940500Y-79947873D01*
X190940499Y-78889778D01*
X193059500Y-78889778D01*
X193059500Y-79110222D01*
X193069230Y-79171654D01*
X193093985Y-79327952D01*
X193162103Y-79537603D01*
X193162104Y-79537606D01*
X193230122Y-79671096D01*
X193240152Y-79690781D01*
X193262187Y-79734025D01*
X193391752Y-79912358D01*
X193391756Y-79912363D01*
X193547636Y-80068243D01*
X193547641Y-80068247D01*
X193642739Y-80137339D01*
X193725978Y-80197815D01*
X193854375Y-80263237D01*
X193922393Y-80297895D01*
X193922396Y-80297896D01*
X194027221Y-80331955D01*
X194132049Y-80366015D01*
X194349778Y-80400500D01*
X194349779Y-80400500D01*
X194570221Y-80400500D01*
X194570222Y-80400500D01*
X194787951Y-80366015D01*
X194997606Y-80297895D01*
X195194022Y-80197815D01*
X195372365Y-80068242D01*
X195422536Y-80018070D01*
X195483857Y-79984586D01*
X195553548Y-79989570D01*
X195609482Y-80031441D01*
X195626398Y-80062419D01*
X195656202Y-80142328D01*
X195656206Y-80142335D01*
X195742452Y-80257544D01*
X195742455Y-80257547D01*
X195857664Y-80343793D01*
X195857671Y-80343797D01*
X195992517Y-80394091D01*
X195992516Y-80394091D01*
X195999444Y-80394835D01*
X196052127Y-80400500D01*
X197947872Y-80400499D01*
X198007483Y-80394091D01*
X198142331Y-80343796D01*
X198257546Y-80257546D01*
X198343796Y-80142331D01*
X198394091Y-80007483D01*
X198400500Y-79947873D01*
X198400499Y-78889778D01*
X200059500Y-78889778D01*
X200059500Y-79110222D01*
X200069230Y-79171654D01*
X200093985Y-79327952D01*
X200162103Y-79537603D01*
X200162104Y-79537606D01*
X200230122Y-79671096D01*
X200240152Y-79690781D01*
X200262187Y-79734025D01*
X200391752Y-79912358D01*
X200391756Y-79912363D01*
X200547636Y-80068243D01*
X200547641Y-80068247D01*
X200642739Y-80137339D01*
X200725978Y-80197815D01*
X200854375Y-80263237D01*
X200922393Y-80297895D01*
X200922396Y-80297896D01*
X201027221Y-80331955D01*
X201132049Y-80366015D01*
X201349778Y-80400500D01*
X201349779Y-80400500D01*
X201570221Y-80400500D01*
X201570222Y-80400500D01*
X201787951Y-80366015D01*
X201997606Y-80297895D01*
X202194022Y-80197815D01*
X202372365Y-80068242D01*
X202422536Y-80018070D01*
X202483857Y-79984586D01*
X202553548Y-79989570D01*
X202609482Y-80031441D01*
X202626398Y-80062419D01*
X202656202Y-80142328D01*
X202656206Y-80142335D01*
X202742452Y-80257544D01*
X202742455Y-80257547D01*
X202857664Y-80343793D01*
X202857671Y-80343797D01*
X202992517Y-80394091D01*
X202992516Y-80394091D01*
X202999444Y-80394835D01*
X203052127Y-80400500D01*
X204947872Y-80400499D01*
X205007483Y-80394091D01*
X205142331Y-80343796D01*
X205257546Y-80257546D01*
X205343796Y-80142331D01*
X205394091Y-80007483D01*
X205400500Y-79947873D01*
X205400499Y-78889778D01*
X207349500Y-78889778D01*
X207349500Y-79110222D01*
X207359230Y-79171654D01*
X207383985Y-79327952D01*
X207452103Y-79537603D01*
X207452104Y-79537606D01*
X207520122Y-79671096D01*
X207530152Y-79690781D01*
X207552187Y-79734025D01*
X207681752Y-79912358D01*
X207681756Y-79912363D01*
X207837636Y-80068243D01*
X207837641Y-80068247D01*
X207932739Y-80137339D01*
X208015978Y-80197815D01*
X208144375Y-80263237D01*
X208212393Y-80297895D01*
X208212396Y-80297896D01*
X208317221Y-80331955D01*
X208422049Y-80366015D01*
X208639778Y-80400500D01*
X208639779Y-80400500D01*
X208860221Y-80400500D01*
X208860222Y-80400500D01*
X209077951Y-80366015D01*
X209287606Y-80297895D01*
X209484022Y-80197815D01*
X209662365Y-80068242D01*
X209712536Y-80018070D01*
X209773857Y-79984586D01*
X209843548Y-79989570D01*
X209899482Y-80031441D01*
X209916398Y-80062419D01*
X209946202Y-80142328D01*
X209946206Y-80142335D01*
X210032452Y-80257544D01*
X210032455Y-80257547D01*
X210147664Y-80343793D01*
X210147671Y-80343797D01*
X210282517Y-80394091D01*
X210282516Y-80394091D01*
X210289444Y-80394835D01*
X210342127Y-80400500D01*
X212237872Y-80400499D01*
X212297483Y-80394091D01*
X212432331Y-80343796D01*
X212547546Y-80257546D01*
X212633796Y-80142331D01*
X212684091Y-80007483D01*
X212690500Y-79947873D01*
X212690499Y-78889778D01*
X214599500Y-78889778D01*
X214599500Y-79110222D01*
X214609230Y-79171654D01*
X214633985Y-79327952D01*
X214702103Y-79537603D01*
X214702104Y-79537606D01*
X214770122Y-79671096D01*
X214780152Y-79690781D01*
X214802187Y-79734025D01*
X214931752Y-79912358D01*
X214931756Y-79912363D01*
X215087636Y-80068243D01*
X215087641Y-80068247D01*
X215182739Y-80137339D01*
X215265978Y-80197815D01*
X215394375Y-80263237D01*
X215462393Y-80297895D01*
X215462396Y-80297896D01*
X215567221Y-80331955D01*
X215672049Y-80366015D01*
X215889778Y-80400500D01*
X215889779Y-80400500D01*
X216110221Y-80400500D01*
X216110222Y-80400500D01*
X216327951Y-80366015D01*
X216537606Y-80297895D01*
X216734022Y-80197815D01*
X216912365Y-80068242D01*
X216962536Y-80018070D01*
X217023857Y-79984586D01*
X217093548Y-79989570D01*
X217149482Y-80031441D01*
X217166398Y-80062419D01*
X217196202Y-80142328D01*
X217196206Y-80142335D01*
X217282452Y-80257544D01*
X217282455Y-80257547D01*
X217397664Y-80343793D01*
X217397671Y-80343797D01*
X217532517Y-80394091D01*
X217532516Y-80394091D01*
X217539444Y-80394835D01*
X217592127Y-80400500D01*
X219487872Y-80400499D01*
X219547483Y-80394091D01*
X219682331Y-80343796D01*
X219797546Y-80257546D01*
X219883796Y-80142331D01*
X219934091Y-80007483D01*
X219940500Y-79947873D01*
X219940499Y-78052128D01*
X219934091Y-77992517D01*
X219926968Y-77973420D01*
X219883797Y-77857671D01*
X219883793Y-77857664D01*
X219797547Y-77742455D01*
X219797544Y-77742452D01*
X219682335Y-77656206D01*
X219682328Y-77656202D01*
X219547482Y-77605908D01*
X219547483Y-77605908D01*
X219487883Y-77599501D01*
X219487881Y-77599500D01*
X219487873Y-77599500D01*
X219487864Y-77599500D01*
X217592129Y-77599500D01*
X217592123Y-77599501D01*
X217532516Y-77605908D01*
X217397671Y-77656202D01*
X217397664Y-77656206D01*
X217282455Y-77742452D01*
X217282452Y-77742455D01*
X217196206Y-77857664D01*
X217196203Y-77857669D01*
X217166398Y-77937581D01*
X217124526Y-77993514D01*
X217059062Y-78017931D01*
X216990789Y-78003079D01*
X216962535Y-77981928D01*
X216912363Y-77931756D01*
X216912358Y-77931752D01*
X216734025Y-77802187D01*
X216734024Y-77802186D01*
X216734022Y-77802185D01*
X216671096Y-77770122D01*
X216537606Y-77702104D01*
X216537603Y-77702103D01*
X216327952Y-77633985D01*
X216219086Y-77616742D01*
X216110222Y-77599500D01*
X215889778Y-77599500D01*
X215817201Y-77610995D01*
X215672047Y-77633985D01*
X215462396Y-77702103D01*
X215462393Y-77702104D01*
X215265974Y-77802187D01*
X215087641Y-77931752D01*
X215087636Y-77931756D01*
X214931756Y-78087636D01*
X214931752Y-78087641D01*
X214802187Y-78265974D01*
X214702104Y-78462393D01*
X214702103Y-78462396D01*
X214633985Y-78672047D01*
X214633985Y-78672049D01*
X214599500Y-78889778D01*
X212690499Y-78889778D01*
X212690499Y-78052128D01*
X212684091Y-77992517D01*
X212676968Y-77973420D01*
X212633797Y-77857671D01*
X212633793Y-77857664D01*
X212547547Y-77742455D01*
X212547544Y-77742452D01*
X212432335Y-77656206D01*
X212432328Y-77656202D01*
X212297482Y-77605908D01*
X212297483Y-77605908D01*
X212237883Y-77599501D01*
X212237881Y-77599500D01*
X212237873Y-77599500D01*
X212237864Y-77599500D01*
X210342129Y-77599500D01*
X210342123Y-77599501D01*
X210282516Y-77605908D01*
X210147671Y-77656202D01*
X210147664Y-77656206D01*
X210032455Y-77742452D01*
X210032452Y-77742455D01*
X209946206Y-77857664D01*
X209946203Y-77857669D01*
X209916398Y-77937581D01*
X209874526Y-77993514D01*
X209809062Y-78017931D01*
X209740789Y-78003079D01*
X209712535Y-77981928D01*
X209662363Y-77931756D01*
X209662358Y-77931752D01*
X209484025Y-77802187D01*
X209484024Y-77802186D01*
X209484022Y-77802185D01*
X209421096Y-77770122D01*
X209287606Y-77702104D01*
X209287603Y-77702103D01*
X209077952Y-77633985D01*
X208969086Y-77616742D01*
X208860222Y-77599500D01*
X208639778Y-77599500D01*
X208567201Y-77610995D01*
X208422047Y-77633985D01*
X208212396Y-77702103D01*
X208212393Y-77702104D01*
X208015974Y-77802187D01*
X207837641Y-77931752D01*
X207837636Y-77931756D01*
X207681756Y-78087636D01*
X207681752Y-78087641D01*
X207552187Y-78265974D01*
X207452104Y-78462393D01*
X207452103Y-78462396D01*
X207383985Y-78672047D01*
X207383985Y-78672049D01*
X207349500Y-78889778D01*
X205400499Y-78889778D01*
X205400499Y-78052128D01*
X205394091Y-77992517D01*
X205386968Y-77973420D01*
X205343797Y-77857671D01*
X205343793Y-77857664D01*
X205257547Y-77742455D01*
X205257544Y-77742452D01*
X205142335Y-77656206D01*
X205142328Y-77656202D01*
X205007482Y-77605908D01*
X205007483Y-77605908D01*
X204947883Y-77599501D01*
X204947881Y-77599500D01*
X204947873Y-77599500D01*
X204947864Y-77599500D01*
X203052129Y-77599500D01*
X203052123Y-77599501D01*
X202992516Y-77605908D01*
X202857671Y-77656202D01*
X202857664Y-77656206D01*
X202742455Y-77742452D01*
X202742452Y-77742455D01*
X202656206Y-77857664D01*
X202656203Y-77857669D01*
X202626398Y-77937581D01*
X202584526Y-77993514D01*
X202519062Y-78017931D01*
X202450789Y-78003079D01*
X202422535Y-77981928D01*
X202372363Y-77931756D01*
X202372358Y-77931752D01*
X202194025Y-77802187D01*
X202194024Y-77802186D01*
X202194022Y-77802185D01*
X202131096Y-77770122D01*
X201997606Y-77702104D01*
X201997603Y-77702103D01*
X201787952Y-77633985D01*
X201679086Y-77616742D01*
X201570222Y-77599500D01*
X201349778Y-77599500D01*
X201277201Y-77610995D01*
X201132047Y-77633985D01*
X200922396Y-77702103D01*
X200922393Y-77702104D01*
X200725974Y-77802187D01*
X200547641Y-77931752D01*
X200547636Y-77931756D01*
X200391756Y-78087636D01*
X200391752Y-78087641D01*
X200262187Y-78265974D01*
X200162104Y-78462393D01*
X200162103Y-78462396D01*
X200093985Y-78672047D01*
X200093985Y-78672049D01*
X200059500Y-78889778D01*
X198400499Y-78889778D01*
X198400499Y-78052128D01*
X198394091Y-77992517D01*
X198386968Y-77973420D01*
X198343797Y-77857671D01*
X198343793Y-77857664D01*
X198257547Y-77742455D01*
X198257544Y-77742452D01*
X198142335Y-77656206D01*
X198142328Y-77656202D01*
X198007482Y-77605908D01*
X198007483Y-77605908D01*
X197947883Y-77599501D01*
X197947881Y-77599500D01*
X197947873Y-77599500D01*
X197947864Y-77599500D01*
X196052129Y-77599500D01*
X196052123Y-77599501D01*
X195992516Y-77605908D01*
X195857671Y-77656202D01*
X195857664Y-77656206D01*
X195742455Y-77742452D01*
X195742452Y-77742455D01*
X195656206Y-77857664D01*
X195656203Y-77857669D01*
X195626398Y-77937581D01*
X195584526Y-77993514D01*
X195519062Y-78017931D01*
X195450789Y-78003079D01*
X195422535Y-77981928D01*
X195372363Y-77931756D01*
X195372358Y-77931752D01*
X195194025Y-77802187D01*
X195194024Y-77802186D01*
X195194022Y-77802185D01*
X195131096Y-77770122D01*
X194997606Y-77702104D01*
X194997603Y-77702103D01*
X194787952Y-77633985D01*
X194679086Y-77616742D01*
X194570222Y-77599500D01*
X194349778Y-77599500D01*
X194277201Y-77610995D01*
X194132047Y-77633985D01*
X193922396Y-77702103D01*
X193922393Y-77702104D01*
X193725974Y-77802187D01*
X193547641Y-77931752D01*
X193547636Y-77931756D01*
X193391756Y-78087636D01*
X193391752Y-78087641D01*
X193262187Y-78265974D01*
X193162104Y-78462393D01*
X193162103Y-78462396D01*
X193093985Y-78672047D01*
X193093985Y-78672049D01*
X193059500Y-78889778D01*
X190940499Y-78889778D01*
X190940499Y-78052128D01*
X190934091Y-77992517D01*
X190926968Y-77973420D01*
X190883797Y-77857671D01*
X190883793Y-77857664D01*
X190797547Y-77742455D01*
X190797544Y-77742452D01*
X190682335Y-77656206D01*
X190682328Y-77656202D01*
X190547482Y-77605908D01*
X190547483Y-77605908D01*
X190487883Y-77599501D01*
X190487881Y-77599500D01*
X190487873Y-77599500D01*
X190487864Y-77599500D01*
X188592129Y-77599500D01*
X188592123Y-77599501D01*
X188532516Y-77605908D01*
X188397671Y-77656202D01*
X188397664Y-77656206D01*
X188282455Y-77742452D01*
X188282452Y-77742455D01*
X188196206Y-77857664D01*
X188196203Y-77857669D01*
X188166398Y-77937581D01*
X188124526Y-77993514D01*
X188059062Y-78017931D01*
X187990789Y-78003079D01*
X187962535Y-77981928D01*
X187912363Y-77931756D01*
X187912358Y-77931752D01*
X187734025Y-77802187D01*
X187734024Y-77802186D01*
X187734022Y-77802185D01*
X187671096Y-77770122D01*
X187537606Y-77702104D01*
X187537603Y-77702103D01*
X187327952Y-77633985D01*
X187219086Y-77616742D01*
X187110222Y-77599500D01*
X186889778Y-77599500D01*
X186817201Y-77610995D01*
X186672047Y-77633985D01*
X186462396Y-77702103D01*
X186462393Y-77702104D01*
X186265974Y-77802187D01*
X186087641Y-77931752D01*
X186087636Y-77931756D01*
X185931756Y-78087636D01*
X185931752Y-78087641D01*
X185802187Y-78265974D01*
X185702104Y-78462393D01*
X185702103Y-78462396D01*
X185633985Y-78672047D01*
X185633985Y-78672049D01*
X185599500Y-78889778D01*
X183940499Y-78889778D01*
X183940499Y-78052128D01*
X183934091Y-77992517D01*
X183926968Y-77973420D01*
X183883797Y-77857671D01*
X183883793Y-77857664D01*
X183797547Y-77742455D01*
X183797544Y-77742452D01*
X183682335Y-77656206D01*
X183682328Y-77656202D01*
X183547482Y-77605908D01*
X183547483Y-77605908D01*
X183487883Y-77599501D01*
X183487881Y-77599500D01*
X183487873Y-77599500D01*
X183487864Y-77599500D01*
X181592129Y-77599500D01*
X181592123Y-77599501D01*
X181532516Y-77605908D01*
X181397671Y-77656202D01*
X181397664Y-77656206D01*
X181282455Y-77742452D01*
X181282452Y-77742455D01*
X181196206Y-77857664D01*
X181196203Y-77857669D01*
X181166398Y-77937581D01*
X181124526Y-77993514D01*
X181059062Y-78017931D01*
X180990789Y-78003079D01*
X180962535Y-77981928D01*
X180912363Y-77931756D01*
X180912358Y-77931752D01*
X180734025Y-77802187D01*
X180734024Y-77802186D01*
X180734022Y-77802185D01*
X180671096Y-77770122D01*
X180537606Y-77702104D01*
X180537603Y-77702103D01*
X180327952Y-77633985D01*
X180219086Y-77616742D01*
X180110222Y-77599500D01*
X179889778Y-77599500D01*
X179817201Y-77610995D01*
X179672047Y-77633985D01*
X179462396Y-77702103D01*
X179462393Y-77702104D01*
X179265974Y-77802187D01*
X179087641Y-77931752D01*
X179087636Y-77931756D01*
X178931756Y-78087636D01*
X178931752Y-78087641D01*
X178802187Y-78265974D01*
X178702104Y-78462393D01*
X178702103Y-78462396D01*
X178633985Y-78672047D01*
X178633985Y-78672049D01*
X178599500Y-78889778D01*
X177850500Y-78889778D01*
X177850500Y-78339059D01*
X177850501Y-78339046D01*
X177850501Y-78170945D01*
X177850501Y-78170943D01*
X177809577Y-78018215D01*
X177780639Y-77968095D01*
X177730520Y-77881284D01*
X177618716Y-77769480D01*
X177618715Y-77769479D01*
X177614385Y-77765149D01*
X177614374Y-77765139D01*
X177210066Y-77360831D01*
X177176581Y-77299508D01*
X177175274Y-77253752D01*
X177200500Y-77094486D01*
X177200500Y-76905513D01*
X177170940Y-76718881D01*
X177112545Y-76539163D01*
X177026759Y-76370800D01*
X176915690Y-76217927D01*
X176782073Y-76084310D01*
X176629199Y-75973240D01*
X176460836Y-75887454D01*
X176386472Y-75863291D01*
X176339195Y-75847930D01*
X176281521Y-75808493D01*
X176254323Y-75744134D01*
X176266238Y-75675288D01*
X176313482Y-75623812D01*
X176339194Y-75612069D01*
X176460832Y-75572547D01*
X176629199Y-75486760D01*
X176782073Y-75375690D01*
X176915690Y-75242073D01*
X177026760Y-75089199D01*
X177112547Y-74920832D01*
X177170940Y-74741118D01*
X177200500Y-74554486D01*
X177200500Y-74365513D01*
X177170940Y-74178881D01*
X177143846Y-74095497D01*
X177112547Y-73999168D01*
X177112545Y-73999165D01*
X177112545Y-73999163D01*
X177026759Y-73830800D01*
X177011939Y-73810402D01*
X176915690Y-73677927D01*
X176782073Y-73544310D01*
X176629199Y-73433240D01*
X176611021Y-73423978D01*
X176460836Y-73347454D01*
X176281118Y-73289059D01*
X176094486Y-73259500D01*
X176094481Y-73259500D01*
X175905519Y-73259500D01*
X175905514Y-73259500D01*
X175718881Y-73289059D01*
X175539163Y-73347454D01*
X175370800Y-73433240D01*
X175285642Y-73495112D01*
X175217927Y-73544310D01*
X175217925Y-73544312D01*
X175217924Y-73544312D01*
X175084312Y-73677924D01*
X175084312Y-73677925D01*
X175084310Y-73677927D01*
X175036610Y-73743579D01*
X174973240Y-73830800D01*
X174887454Y-73999163D01*
X174829059Y-74178881D01*
X174799500Y-74365513D01*
X174799500Y-74554486D01*
X174824725Y-74713751D01*
X174815770Y-74783045D01*
X174789933Y-74820830D01*
X174131286Y-75479478D01*
X174019481Y-75591282D01*
X174019480Y-75591284D01*
X173979519Y-75660500D01*
X173969361Y-75678094D01*
X173969359Y-75678096D01*
X173940425Y-75728209D01*
X173940424Y-75728210D01*
X173940423Y-75728215D01*
X173899499Y-75880943D01*
X173899499Y-75880945D01*
X173899499Y-76049046D01*
X173899500Y-76049059D01*
X173899500Y-79135953D01*
X173879815Y-79202992D01*
X173827011Y-79248747D01*
X173757853Y-79258691D01*
X173694297Y-79229666D01*
X173687819Y-79223634D01*
X173662213Y-79198028D01*
X173496613Y-79077715D01*
X173496612Y-79077714D01*
X173496610Y-79077713D01*
X173437675Y-79047684D01*
X173314223Y-78984781D01*
X173119534Y-78921522D01*
X172944995Y-78893878D01*
X172917352Y-78889500D01*
X172712648Y-78889500D01*
X172688329Y-78893351D01*
X172510465Y-78921522D01*
X172315776Y-78984781D01*
X172133386Y-79077715D01*
X171967786Y-79198028D01*
X171823028Y-79342786D01*
X171702715Y-79508386D01*
X171609781Y-79690776D01*
X171546522Y-79885465D01*
X171514500Y-80087648D01*
X171514500Y-80292351D01*
X171546522Y-80494534D01*
X171609781Y-80689223D01*
X171702715Y-80871613D01*
X171823028Y-81037213D01*
X171967786Y-81181971D01*
X172122749Y-81294556D01*
X172133390Y-81302287D01*
X172224840Y-81348883D01*
X172226080Y-81349515D01*
X172276876Y-81397490D01*
X172293671Y-81465311D01*
X172271134Y-81531446D01*
X172226080Y-81570485D01*
X172133386Y-81617715D01*
X171967786Y-81738028D01*
X171823028Y-81882786D01*
X171702715Y-82048386D01*
X171609781Y-82230776D01*
X171546522Y-82425465D01*
X171514500Y-82627648D01*
X171514500Y-82832351D01*
X171546522Y-83034534D01*
X171609781Y-83229223D01*
X171702715Y-83411613D01*
X171823028Y-83577213D01*
X171967786Y-83721971D01*
X172104253Y-83821118D01*
X172133390Y-83842287D01*
X172224840Y-83888883D01*
X172226080Y-83889515D01*
X172276876Y-83937490D01*
X172293671Y-84005311D01*
X172271134Y-84071446D01*
X172226080Y-84110485D01*
X172133386Y-84157715D01*
X171967786Y-84278028D01*
X171823028Y-84422786D01*
X171702715Y-84588385D01*
X171695883Y-84601795D01*
X171647909Y-84652591D01*
X171585398Y-84669500D01*
X168035097Y-84669500D01*
X167968058Y-84649815D01*
X167947416Y-84633181D01*
X166489077Y-83174842D01*
X166455592Y-83113519D01*
X166458828Y-83048841D01*
X166463477Y-83034534D01*
X166495500Y-82832352D01*
X166495500Y-82627648D01*
X166486669Y-82571895D01*
X166463477Y-82425465D01*
X166430740Y-82324712D01*
X166400220Y-82230781D01*
X166400218Y-82230778D01*
X166400218Y-82230776D01*
X166360114Y-82152069D01*
X166307287Y-82048390D01*
X166299556Y-82037749D01*
X166186971Y-81882786D01*
X166042217Y-81738032D01*
X166042212Y-81738028D01*
X165948051Y-81669616D01*
X165905385Y-81614286D01*
X165899406Y-81544673D01*
X165932012Y-81482878D01*
X165981933Y-81451592D01*
X166064117Y-81424359D01*
X166064124Y-81424356D01*
X166213345Y-81332315D01*
X166337315Y-81208345D01*
X166429356Y-81059124D01*
X166429358Y-81059119D01*
X166484505Y-80892697D01*
X166484506Y-80892690D01*
X166494999Y-80789986D01*
X166495000Y-80789973D01*
X166495000Y-80440000D01*
X165510686Y-80440000D01*
X165515080Y-80435606D01*
X165567741Y-80344394D01*
X165595000Y-80242661D01*
X165595000Y-80137339D01*
X165567741Y-80035606D01*
X165515080Y-79944394D01*
X165510686Y-79940000D01*
X166494999Y-79940000D01*
X166494999Y-79590028D01*
X166494998Y-79590013D01*
X166484505Y-79487302D01*
X166429358Y-79320880D01*
X166429356Y-79320875D01*
X166337315Y-79171654D01*
X166213345Y-79047684D01*
X166064124Y-78955643D01*
X166064119Y-78955641D01*
X165897697Y-78900494D01*
X165897690Y-78900493D01*
X165794986Y-78890000D01*
X165445000Y-78890000D01*
X165445000Y-79874314D01*
X165440606Y-79869920D01*
X165349394Y-79817259D01*
X165247661Y-79790000D01*
X165142339Y-79790000D01*
X165040606Y-79817259D01*
X164949394Y-79869920D01*
X164945000Y-79874314D01*
X164945000Y-78890000D01*
X164595028Y-78890000D01*
X164595012Y-78890001D01*
X164492302Y-78900494D01*
X164325880Y-78955641D01*
X164325875Y-78955643D01*
X164176654Y-79047684D01*
X164052684Y-79171654D01*
X163960643Y-79320875D01*
X163960641Y-79320880D01*
X163905494Y-79487302D01*
X163905493Y-79487309D01*
X163895000Y-79590013D01*
X163895000Y-79940000D01*
X164879314Y-79940000D01*
X164874920Y-79944394D01*
X164822259Y-80035606D01*
X164795000Y-80137339D01*
X164795000Y-80242661D01*
X164822259Y-80344394D01*
X164874920Y-80435606D01*
X164879314Y-80440000D01*
X163895001Y-80440000D01*
X163895001Y-80789986D01*
X163905494Y-80892697D01*
X163960641Y-81059119D01*
X163960643Y-81059124D01*
X164052684Y-81208345D01*
X164176654Y-81332315D01*
X164325875Y-81424356D01*
X164325882Y-81424359D01*
X164408067Y-81451592D01*
X164465512Y-81491364D01*
X164492336Y-81555880D01*
X164480021Y-81624656D01*
X164441949Y-81669616D01*
X164347787Y-81738028D01*
X164347782Y-81738032D01*
X164203028Y-81882786D01*
X164082715Y-82048386D01*
X163989781Y-82230776D01*
X163926522Y-82425465D01*
X163894500Y-82627648D01*
X156250000Y-82627648D01*
X156250000Y-73875466D01*
X159100000Y-73875466D01*
X159100000Y-74124533D01*
X159132508Y-74371463D01*
X159196973Y-74612049D01*
X159292283Y-74842148D01*
X159292288Y-74842159D01*
X159416813Y-75057841D01*
X159416819Y-75057849D01*
X159491400Y-75155045D01*
X160398958Y-74247487D01*
X160423978Y-74307890D01*
X160495112Y-74414351D01*
X160585649Y-74504888D01*
X160692110Y-74576022D01*
X160752511Y-74601041D01*
X159844953Y-75508598D01*
X159942150Y-75583180D01*
X159942158Y-75583186D01*
X160157840Y-75707711D01*
X160157851Y-75707716D01*
X160387950Y-75803026D01*
X160628536Y-75867491D01*
X160875466Y-75900000D01*
X161124534Y-75900000D01*
X161371463Y-75867491D01*
X161612049Y-75803026D01*
X161842148Y-75707716D01*
X161842159Y-75707711D01*
X162057855Y-75583178D01*
X162155045Y-75508600D01*
X162155045Y-75508597D01*
X161247488Y-74601041D01*
X161307890Y-74576022D01*
X161414351Y-74504888D01*
X161504888Y-74414351D01*
X161576022Y-74307890D01*
X161601041Y-74247489D01*
X162508597Y-75155045D01*
X162508600Y-75155045D01*
X162583178Y-75057855D01*
X162707711Y-74842159D01*
X162707716Y-74842148D01*
X162803026Y-74612049D01*
X162867491Y-74371463D01*
X162900000Y-74124533D01*
X162900000Y-73875466D01*
X162867491Y-73628536D01*
X162803026Y-73387950D01*
X162707716Y-73157851D01*
X162707711Y-73157840D01*
X162583542Y-72942774D01*
X162583187Y-72942160D01*
X162583180Y-72942150D01*
X162508598Y-72844953D01*
X161601041Y-73752510D01*
X161576022Y-73692110D01*
X161504888Y-73585649D01*
X161414351Y-73495112D01*
X161307890Y-73423978D01*
X161247487Y-73398957D01*
X162155045Y-72491400D01*
X162057849Y-72416819D01*
X162057841Y-72416813D01*
X161842159Y-72292288D01*
X161842148Y-72292283D01*
X161612049Y-72196973D01*
X161371463Y-72132508D01*
X161124534Y-72100000D01*
X160875466Y-72100000D01*
X160628536Y-72132508D01*
X160387950Y-72196973D01*
X160157851Y-72292283D01*
X160157847Y-72292285D01*
X159942143Y-72416823D01*
X159844953Y-72491399D01*
X159844953Y-72491400D01*
X160752511Y-73398958D01*
X160692110Y-73423978D01*
X160585649Y-73495112D01*
X160495112Y-73585649D01*
X160423978Y-73692110D01*
X160398958Y-73752511D01*
X159491400Y-72844953D01*
X159491399Y-72844953D01*
X159416823Y-72942143D01*
X159292285Y-73157847D01*
X159292283Y-73157851D01*
X159196973Y-73387950D01*
X159132508Y-73628536D01*
X159100000Y-73875466D01*
X156250000Y-73875466D01*
X156250000Y-67799984D01*
X159099500Y-67799984D01*
X159099500Y-70200015D01*
X159110000Y-70302795D01*
X159110001Y-70302796D01*
X159165186Y-70469335D01*
X159165187Y-70469337D01*
X159257286Y-70618651D01*
X159257289Y-70618655D01*
X159381344Y-70742710D01*
X159381348Y-70742713D01*
X159530662Y-70834812D01*
X159530664Y-70834813D01*
X159530666Y-70834814D01*
X159697203Y-70889999D01*
X159799992Y-70900500D01*
X159799997Y-70900500D01*
X162200003Y-70900500D01*
X162200008Y-70900500D01*
X162302797Y-70889999D01*
X162469334Y-70834814D01*
X162618655Y-70742711D01*
X162742711Y-70618655D01*
X162834814Y-70469334D01*
X162889999Y-70302797D01*
X162900500Y-70200008D01*
X162900500Y-67799992D01*
X162889999Y-67697203D01*
X162834814Y-67530666D01*
X162742711Y-67381345D01*
X162618655Y-67257289D01*
X162618651Y-67257286D01*
X162469337Y-67165187D01*
X162469335Y-67165186D01*
X162386065Y-67137593D01*
X162302797Y-67110001D01*
X162302795Y-67110000D01*
X162200015Y-67099500D01*
X162200008Y-67099500D01*
X159799992Y-67099500D01*
X159799984Y-67099500D01*
X159697204Y-67110000D01*
X159697203Y-67110001D01*
X159530664Y-67165186D01*
X159530662Y-67165187D01*
X159381348Y-67257286D01*
X159381344Y-67257289D01*
X159257289Y-67381344D01*
X159257286Y-67381348D01*
X159165187Y-67530662D01*
X159165186Y-67530664D01*
X159110001Y-67697203D01*
X159110000Y-67697204D01*
X159099500Y-67799984D01*
X156250000Y-67799984D01*
X156250000Y-66919635D01*
X168499500Y-66919635D01*
X168499500Y-68920370D01*
X168499501Y-68920376D01*
X168505908Y-68979983D01*
X168556202Y-69114828D01*
X168556206Y-69114835D01*
X168642452Y-69230044D01*
X168642455Y-69230047D01*
X168757664Y-69316293D01*
X168757667Y-69316295D01*
X168757668Y-69316295D01*
X168757669Y-69316296D01*
X168786025Y-69326872D01*
X168841958Y-69368742D01*
X168866376Y-69434206D01*
X168851525Y-69502479D01*
X168843010Y-69515939D01*
X168710213Y-69698719D01*
X168606417Y-69902429D01*
X168535765Y-70119871D01*
X168521491Y-70210000D01*
X169509252Y-70210000D01*
X169487482Y-70247708D01*
X169450000Y-70387591D01*
X169450000Y-70532409D01*
X169487482Y-70672292D01*
X169509252Y-70710000D01*
X168521491Y-70710000D01*
X168535765Y-70800128D01*
X168606417Y-71017570D01*
X168710211Y-71221276D01*
X168844597Y-71406242D01*
X169006257Y-71567902D01*
X169006263Y-71567907D01*
X169090863Y-71629372D01*
X169133529Y-71684701D01*
X169139508Y-71754315D01*
X169106903Y-71816110D01*
X169090864Y-71830007D01*
X169005940Y-71891709D01*
X169005931Y-71891716D01*
X168844216Y-72053431D01*
X168844216Y-72053432D01*
X168844214Y-72053434D01*
X168810382Y-72100000D01*
X168709783Y-72238461D01*
X168605950Y-72442244D01*
X168535278Y-72659750D01*
X168535278Y-72659753D01*
X168499500Y-72885646D01*
X168499500Y-73114353D01*
X168535278Y-73340246D01*
X168535278Y-73340249D01*
X168605950Y-73557755D01*
X168667180Y-73677925D01*
X168709783Y-73761538D01*
X168844214Y-73946566D01*
X169005934Y-74108286D01*
X169190962Y-74242717D01*
X169394742Y-74346548D01*
X169394744Y-74346549D01*
X169612251Y-74417221D01*
X169612252Y-74417221D01*
X169612255Y-74417222D01*
X169838146Y-74453000D01*
X169838147Y-74453000D01*
X170161853Y-74453000D01*
X170161854Y-74453000D01*
X170387745Y-74417222D01*
X170387748Y-74417221D01*
X170387749Y-74417221D01*
X170605255Y-74346549D01*
X170605255Y-74346548D01*
X170605258Y-74346548D01*
X170809038Y-74242717D01*
X170994066Y-74108286D01*
X171155786Y-73946566D01*
X171290217Y-73761538D01*
X171394048Y-73557758D01*
X171445144Y-73400500D01*
X171464721Y-73340249D01*
X171464721Y-73340248D01*
X171464722Y-73340245D01*
X171500500Y-73114354D01*
X171500500Y-72885646D01*
X171464722Y-72659755D01*
X171464721Y-72659751D01*
X171464721Y-72659750D01*
X171394049Y-72442244D01*
X171335814Y-72327951D01*
X171290217Y-72238462D01*
X171155786Y-72053434D01*
X170994066Y-71891714D01*
X170909134Y-71830007D01*
X170866470Y-71774678D01*
X170860491Y-71705064D01*
X170893097Y-71643269D01*
X170909137Y-71629371D01*
X170993739Y-71567905D01*
X171155402Y-71406242D01*
X171289788Y-71221276D01*
X171375970Y-71052135D01*
X178059500Y-71052135D01*
X178059500Y-72947870D01*
X178059501Y-72947876D01*
X178065908Y-73007483D01*
X178116202Y-73142328D01*
X178116206Y-73142335D01*
X178202452Y-73257544D01*
X178202455Y-73257547D01*
X178317664Y-73343793D01*
X178317671Y-73343797D01*
X178452517Y-73394091D01*
X178452516Y-73394091D01*
X178459444Y-73394835D01*
X178512127Y-73400500D01*
X180407872Y-73400499D01*
X180467483Y-73394091D01*
X180602331Y-73343796D01*
X180717546Y-73257546D01*
X180803796Y-73142331D01*
X180831429Y-73068243D01*
X180833601Y-73062420D01*
X180875471Y-73006486D01*
X180940936Y-72982068D01*
X181009209Y-72996919D01*
X181037464Y-73018071D01*
X181087636Y-73068243D01*
X181087641Y-73068247D01*
X181151103Y-73114354D01*
X181265978Y-73197815D01*
X181387040Y-73259500D01*
X181462393Y-73297895D01*
X181462396Y-73297896D01*
X181567221Y-73331955D01*
X181672049Y-73366015D01*
X181889778Y-73400500D01*
X181889779Y-73400500D01*
X182110221Y-73400500D01*
X182110222Y-73400500D01*
X182327951Y-73366015D01*
X182537606Y-73297895D01*
X182734022Y-73197815D01*
X182912365Y-73068242D01*
X183068242Y-72912365D01*
X183197815Y-72734022D01*
X183297895Y-72537606D01*
X183366015Y-72327951D01*
X183400500Y-72110222D01*
X183400500Y-71889778D01*
X183366015Y-71672049D01*
X183297895Y-71462394D01*
X183297895Y-71462393D01*
X183263237Y-71394375D01*
X183197815Y-71265978D01*
X183188943Y-71253767D01*
X183092986Y-71121691D01*
X183068247Y-71087641D01*
X183068243Y-71087636D01*
X183032742Y-71052135D01*
X185329500Y-71052135D01*
X185329500Y-72947870D01*
X185329501Y-72947876D01*
X185335908Y-73007483D01*
X185386202Y-73142328D01*
X185386206Y-73142335D01*
X185472452Y-73257544D01*
X185472455Y-73257547D01*
X185587664Y-73343793D01*
X185587671Y-73343797D01*
X185722517Y-73394091D01*
X185722516Y-73394091D01*
X185729444Y-73394835D01*
X185782127Y-73400500D01*
X187677872Y-73400499D01*
X187737483Y-73394091D01*
X187872331Y-73343796D01*
X187987546Y-73257546D01*
X188073796Y-73142331D01*
X188101429Y-73068243D01*
X188103601Y-73062420D01*
X188145471Y-73006486D01*
X188210936Y-72982068D01*
X188279209Y-72996919D01*
X188307464Y-73018071D01*
X188357636Y-73068243D01*
X188357641Y-73068247D01*
X188421103Y-73114354D01*
X188535978Y-73197815D01*
X188657040Y-73259500D01*
X188732393Y-73297895D01*
X188732396Y-73297896D01*
X188837221Y-73331955D01*
X188942049Y-73366015D01*
X189159778Y-73400500D01*
X189159779Y-73400500D01*
X189380221Y-73400500D01*
X189380222Y-73400500D01*
X189597951Y-73366015D01*
X189807606Y-73297895D01*
X190004022Y-73197815D01*
X190182365Y-73068242D01*
X190338242Y-72912365D01*
X190467815Y-72734022D01*
X190567895Y-72537606D01*
X190636015Y-72327951D01*
X190670500Y-72110222D01*
X190670500Y-71889778D01*
X190636015Y-71672049D01*
X190567895Y-71462394D01*
X190567895Y-71462393D01*
X190533237Y-71394375D01*
X190467815Y-71265978D01*
X190458943Y-71253767D01*
X190362986Y-71121691D01*
X190338247Y-71087641D01*
X190338243Y-71087636D01*
X190302742Y-71052135D01*
X193329500Y-71052135D01*
X193329500Y-72947870D01*
X193329501Y-72947876D01*
X193335908Y-73007483D01*
X193386202Y-73142328D01*
X193386206Y-73142335D01*
X193472452Y-73257544D01*
X193472455Y-73257547D01*
X193587664Y-73343793D01*
X193587671Y-73343797D01*
X193722517Y-73394091D01*
X193722516Y-73394091D01*
X193729444Y-73394835D01*
X193782127Y-73400500D01*
X195677872Y-73400499D01*
X195737483Y-73394091D01*
X195872331Y-73343796D01*
X195987546Y-73257546D01*
X196073796Y-73142331D01*
X196101429Y-73068243D01*
X196103601Y-73062420D01*
X196145471Y-73006486D01*
X196210936Y-72982068D01*
X196279209Y-72996919D01*
X196307464Y-73018071D01*
X196357636Y-73068243D01*
X196357641Y-73068247D01*
X196421103Y-73114354D01*
X196535978Y-73197815D01*
X196657040Y-73259500D01*
X196732393Y-73297895D01*
X196732396Y-73297896D01*
X196837221Y-73331955D01*
X196942049Y-73366015D01*
X197159778Y-73400500D01*
X197159779Y-73400500D01*
X197380221Y-73400500D01*
X197380222Y-73400500D01*
X197597951Y-73366015D01*
X197807606Y-73297895D01*
X198004022Y-73197815D01*
X198182365Y-73068242D01*
X198338242Y-72912365D01*
X198467815Y-72734022D01*
X198567895Y-72537606D01*
X198636015Y-72327951D01*
X198670500Y-72110222D01*
X198670500Y-71889778D01*
X198636015Y-71672049D01*
X198567895Y-71462394D01*
X198567895Y-71462393D01*
X198533237Y-71394375D01*
X198467815Y-71265978D01*
X198458943Y-71253767D01*
X198362986Y-71121691D01*
X198338247Y-71087641D01*
X198338243Y-71087636D01*
X198302742Y-71052135D01*
X200599500Y-71052135D01*
X200599500Y-72947870D01*
X200599501Y-72947876D01*
X200605908Y-73007483D01*
X200656202Y-73142328D01*
X200656206Y-73142335D01*
X200742452Y-73257544D01*
X200742455Y-73257547D01*
X200857664Y-73343793D01*
X200857671Y-73343797D01*
X200992517Y-73394091D01*
X200992516Y-73394091D01*
X200999444Y-73394835D01*
X201052127Y-73400500D01*
X202947872Y-73400499D01*
X203007483Y-73394091D01*
X203142331Y-73343796D01*
X203257546Y-73257546D01*
X203343796Y-73142331D01*
X203371429Y-73068243D01*
X203373601Y-73062420D01*
X203415471Y-73006486D01*
X203480936Y-72982068D01*
X203549209Y-72996919D01*
X203577464Y-73018071D01*
X203627636Y-73068243D01*
X203627641Y-73068247D01*
X203691103Y-73114354D01*
X203805978Y-73197815D01*
X203927040Y-73259500D01*
X204002393Y-73297895D01*
X204002396Y-73297896D01*
X204107221Y-73331955D01*
X204212049Y-73366015D01*
X204429778Y-73400500D01*
X204429779Y-73400500D01*
X204650221Y-73400500D01*
X204650222Y-73400500D01*
X204867951Y-73366015D01*
X205077606Y-73297895D01*
X205274022Y-73197815D01*
X205452365Y-73068242D01*
X205608242Y-72912365D01*
X205737815Y-72734022D01*
X205837895Y-72537606D01*
X205906015Y-72327951D01*
X205940500Y-72110222D01*
X205940500Y-71889778D01*
X205906015Y-71672049D01*
X205837895Y-71462394D01*
X205837895Y-71462393D01*
X205803237Y-71394375D01*
X205737815Y-71265978D01*
X205728943Y-71253767D01*
X205632986Y-71121691D01*
X205608247Y-71087641D01*
X205608243Y-71087636D01*
X205572742Y-71052135D01*
X207329500Y-71052135D01*
X207329500Y-72947870D01*
X207329501Y-72947876D01*
X207335908Y-73007483D01*
X207386202Y-73142328D01*
X207386206Y-73142335D01*
X207472452Y-73257544D01*
X207472455Y-73257547D01*
X207587664Y-73343793D01*
X207587671Y-73343797D01*
X207722517Y-73394091D01*
X207722516Y-73394091D01*
X207729444Y-73394835D01*
X207782127Y-73400500D01*
X209677872Y-73400499D01*
X209737483Y-73394091D01*
X209872331Y-73343796D01*
X209987546Y-73257546D01*
X210073796Y-73142331D01*
X210101429Y-73068243D01*
X210103601Y-73062420D01*
X210145471Y-73006486D01*
X210210936Y-72982068D01*
X210279209Y-72996919D01*
X210307464Y-73018071D01*
X210357636Y-73068243D01*
X210357641Y-73068247D01*
X210421103Y-73114354D01*
X210535978Y-73197815D01*
X210657040Y-73259500D01*
X210732393Y-73297895D01*
X210732396Y-73297896D01*
X210837221Y-73331955D01*
X210942049Y-73366015D01*
X211159778Y-73400500D01*
X211159779Y-73400500D01*
X211380221Y-73400500D01*
X211380222Y-73400500D01*
X211597951Y-73366015D01*
X211807606Y-73297895D01*
X212004022Y-73197815D01*
X212182365Y-73068242D01*
X212338242Y-72912365D01*
X212467815Y-72734022D01*
X212567895Y-72537606D01*
X212636015Y-72327951D01*
X212670500Y-72110222D01*
X212670500Y-71889778D01*
X212636015Y-71672049D01*
X212567895Y-71462394D01*
X212567895Y-71462393D01*
X212533237Y-71394375D01*
X212467815Y-71265978D01*
X212458943Y-71253767D01*
X212362986Y-71121691D01*
X212338247Y-71087641D01*
X212338243Y-71087636D01*
X212302742Y-71052135D01*
X214599500Y-71052135D01*
X214599500Y-72947870D01*
X214599501Y-72947876D01*
X214605908Y-73007483D01*
X214656202Y-73142328D01*
X214656206Y-73142335D01*
X214742452Y-73257544D01*
X214742455Y-73257547D01*
X214857664Y-73343793D01*
X214857671Y-73343797D01*
X214992517Y-73394091D01*
X214992516Y-73394091D01*
X214999444Y-73394835D01*
X215052127Y-73400500D01*
X216947872Y-73400499D01*
X217007483Y-73394091D01*
X217142331Y-73343796D01*
X217257546Y-73257546D01*
X217343796Y-73142331D01*
X217371429Y-73068243D01*
X217373601Y-73062420D01*
X217415471Y-73006486D01*
X217480936Y-72982068D01*
X217549209Y-72996919D01*
X217577464Y-73018071D01*
X217627636Y-73068243D01*
X217627641Y-73068247D01*
X217691103Y-73114354D01*
X217805978Y-73197815D01*
X217927040Y-73259500D01*
X218002393Y-73297895D01*
X218002396Y-73297896D01*
X218107221Y-73331955D01*
X218212049Y-73366015D01*
X218429778Y-73400500D01*
X218429779Y-73400500D01*
X218650221Y-73400500D01*
X218650222Y-73400500D01*
X218867951Y-73366015D01*
X219077606Y-73297895D01*
X219274022Y-73197815D01*
X219452365Y-73068242D01*
X219608242Y-72912365D01*
X219737815Y-72734022D01*
X219837895Y-72537606D01*
X219906015Y-72327951D01*
X219940500Y-72110222D01*
X219940500Y-71889778D01*
X219906015Y-71672049D01*
X219837895Y-71462394D01*
X219837895Y-71462393D01*
X219803237Y-71394375D01*
X219737815Y-71265978D01*
X219632985Y-71121691D01*
X219608247Y-71087641D01*
X219608243Y-71087636D01*
X219452363Y-70931756D01*
X219452358Y-70931752D01*
X219274025Y-70802187D01*
X219274024Y-70802186D01*
X219274022Y-70802185D01*
X219211096Y-70770122D01*
X219077606Y-70702104D01*
X219077603Y-70702103D01*
X218867952Y-70633985D01*
X218759086Y-70616742D01*
X218650222Y-70599500D01*
X218429778Y-70599500D01*
X218357201Y-70610995D01*
X218212047Y-70633985D01*
X218002396Y-70702103D01*
X218002393Y-70702104D01*
X217805974Y-70802187D01*
X217627641Y-70931752D01*
X217627636Y-70931756D01*
X217577463Y-70981929D01*
X217516140Y-71015413D01*
X217446448Y-71010428D01*
X217390515Y-70968557D01*
X217373601Y-70937580D01*
X217343797Y-70857671D01*
X217343793Y-70857664D01*
X217257547Y-70742455D01*
X217257544Y-70742452D01*
X217142335Y-70656206D01*
X217142328Y-70656202D01*
X217007482Y-70605908D01*
X217007483Y-70605908D01*
X216947883Y-70599501D01*
X216947881Y-70599500D01*
X216947873Y-70599500D01*
X216947864Y-70599500D01*
X215052129Y-70599500D01*
X215052123Y-70599501D01*
X214992516Y-70605908D01*
X214857671Y-70656202D01*
X214857664Y-70656206D01*
X214742455Y-70742452D01*
X214742452Y-70742455D01*
X214656206Y-70857664D01*
X214656202Y-70857671D01*
X214605908Y-70992517D01*
X214599501Y-71052116D01*
X214599500Y-71052135D01*
X212302742Y-71052135D01*
X212182363Y-70931756D01*
X212182358Y-70931752D01*
X212004025Y-70802187D01*
X212004024Y-70802186D01*
X212004022Y-70802185D01*
X211941096Y-70770122D01*
X211807606Y-70702104D01*
X211807603Y-70702103D01*
X211597952Y-70633985D01*
X211489086Y-70616742D01*
X211380222Y-70599500D01*
X211159778Y-70599500D01*
X211087201Y-70610995D01*
X210942047Y-70633985D01*
X210732396Y-70702103D01*
X210732393Y-70702104D01*
X210535974Y-70802187D01*
X210357641Y-70931752D01*
X210357636Y-70931756D01*
X210307463Y-70981929D01*
X210246140Y-71015413D01*
X210176448Y-71010428D01*
X210120515Y-70968557D01*
X210103601Y-70937580D01*
X210073797Y-70857671D01*
X210073793Y-70857664D01*
X209987547Y-70742455D01*
X209987544Y-70742452D01*
X209872335Y-70656206D01*
X209872328Y-70656202D01*
X209737482Y-70605908D01*
X209737483Y-70605908D01*
X209677883Y-70599501D01*
X209677881Y-70599500D01*
X209677873Y-70599500D01*
X209677864Y-70599500D01*
X207782129Y-70599500D01*
X207782123Y-70599501D01*
X207722516Y-70605908D01*
X207587671Y-70656202D01*
X207587664Y-70656206D01*
X207472455Y-70742452D01*
X207472452Y-70742455D01*
X207386206Y-70857664D01*
X207386202Y-70857671D01*
X207335908Y-70992517D01*
X207329501Y-71052116D01*
X207329500Y-71052135D01*
X205572742Y-71052135D01*
X205452363Y-70931756D01*
X205452358Y-70931752D01*
X205274025Y-70802187D01*
X205274024Y-70802186D01*
X205274022Y-70802185D01*
X205211096Y-70770122D01*
X205077606Y-70702104D01*
X205077603Y-70702103D01*
X204867952Y-70633985D01*
X204759086Y-70616742D01*
X204650222Y-70599500D01*
X204429778Y-70599500D01*
X204357201Y-70610995D01*
X204212047Y-70633985D01*
X204002396Y-70702103D01*
X204002393Y-70702104D01*
X203805974Y-70802187D01*
X203627641Y-70931752D01*
X203627636Y-70931756D01*
X203577463Y-70981929D01*
X203516140Y-71015413D01*
X203446448Y-71010428D01*
X203390515Y-70968557D01*
X203373601Y-70937580D01*
X203343797Y-70857671D01*
X203343793Y-70857664D01*
X203257547Y-70742455D01*
X203257544Y-70742452D01*
X203142335Y-70656206D01*
X203142328Y-70656202D01*
X203007482Y-70605908D01*
X203007483Y-70605908D01*
X202947883Y-70599501D01*
X202947881Y-70599500D01*
X202947873Y-70599500D01*
X202947864Y-70599500D01*
X201052129Y-70599500D01*
X201052123Y-70599501D01*
X200992516Y-70605908D01*
X200857671Y-70656202D01*
X200857664Y-70656206D01*
X200742455Y-70742452D01*
X200742452Y-70742455D01*
X200656206Y-70857664D01*
X200656202Y-70857671D01*
X200605908Y-70992517D01*
X200599501Y-71052116D01*
X200599500Y-71052135D01*
X198302742Y-71052135D01*
X198182363Y-70931756D01*
X198182358Y-70931752D01*
X198004025Y-70802187D01*
X198004024Y-70802186D01*
X198004022Y-70802185D01*
X197941096Y-70770122D01*
X197807606Y-70702104D01*
X197807603Y-70702103D01*
X197597952Y-70633985D01*
X197489086Y-70616742D01*
X197380222Y-70599500D01*
X197159778Y-70599500D01*
X197087201Y-70610995D01*
X196942047Y-70633985D01*
X196732396Y-70702103D01*
X196732393Y-70702104D01*
X196535974Y-70802187D01*
X196357641Y-70931752D01*
X196357636Y-70931756D01*
X196307463Y-70981929D01*
X196246140Y-71015413D01*
X196176448Y-71010428D01*
X196120515Y-70968557D01*
X196103601Y-70937580D01*
X196073797Y-70857671D01*
X196073793Y-70857664D01*
X195987547Y-70742455D01*
X195987544Y-70742452D01*
X195872335Y-70656206D01*
X195872328Y-70656202D01*
X195737482Y-70605908D01*
X195737483Y-70605908D01*
X195677883Y-70599501D01*
X195677881Y-70599500D01*
X195677873Y-70599500D01*
X195677864Y-70599500D01*
X193782129Y-70599500D01*
X193782123Y-70599501D01*
X193722516Y-70605908D01*
X193587671Y-70656202D01*
X193587664Y-70656206D01*
X193472455Y-70742452D01*
X193472452Y-70742455D01*
X193386206Y-70857664D01*
X193386202Y-70857671D01*
X193335908Y-70992517D01*
X193329501Y-71052116D01*
X193329500Y-71052135D01*
X190302742Y-71052135D01*
X190182363Y-70931756D01*
X190182358Y-70931752D01*
X190004025Y-70802187D01*
X190004024Y-70802186D01*
X190004022Y-70802185D01*
X189941096Y-70770122D01*
X189807606Y-70702104D01*
X189807603Y-70702103D01*
X189597952Y-70633985D01*
X189489086Y-70616742D01*
X189380222Y-70599500D01*
X189159778Y-70599500D01*
X189087201Y-70610995D01*
X188942047Y-70633985D01*
X188732396Y-70702103D01*
X188732393Y-70702104D01*
X188535974Y-70802187D01*
X188357641Y-70931752D01*
X188357636Y-70931756D01*
X188307463Y-70981929D01*
X188246140Y-71015413D01*
X188176448Y-71010428D01*
X188120515Y-70968557D01*
X188103601Y-70937580D01*
X188073797Y-70857671D01*
X188073793Y-70857664D01*
X187987547Y-70742455D01*
X187987544Y-70742452D01*
X187872335Y-70656206D01*
X187872328Y-70656202D01*
X187737482Y-70605908D01*
X187737483Y-70605908D01*
X187677883Y-70599501D01*
X187677881Y-70599500D01*
X187677873Y-70599500D01*
X187677864Y-70599500D01*
X185782129Y-70599500D01*
X185782123Y-70599501D01*
X185722516Y-70605908D01*
X185587671Y-70656202D01*
X185587664Y-70656206D01*
X185472455Y-70742452D01*
X185472452Y-70742455D01*
X185386206Y-70857664D01*
X185386202Y-70857671D01*
X185335908Y-70992517D01*
X185329501Y-71052116D01*
X185329500Y-71052135D01*
X183032742Y-71052135D01*
X182912363Y-70931756D01*
X182912358Y-70931752D01*
X182734025Y-70802187D01*
X182734024Y-70802186D01*
X182734022Y-70802185D01*
X182671096Y-70770122D01*
X182537606Y-70702104D01*
X182537603Y-70702103D01*
X182327952Y-70633985D01*
X182219086Y-70616742D01*
X182110222Y-70599500D01*
X181889778Y-70599500D01*
X181817201Y-70610995D01*
X181672047Y-70633985D01*
X181462396Y-70702103D01*
X181462393Y-70702104D01*
X181265974Y-70802187D01*
X181087641Y-70931752D01*
X181087636Y-70931756D01*
X181037463Y-70981929D01*
X180976140Y-71015413D01*
X180906448Y-71010428D01*
X180850515Y-70968557D01*
X180833601Y-70937580D01*
X180803797Y-70857671D01*
X180803793Y-70857664D01*
X180717547Y-70742455D01*
X180717544Y-70742452D01*
X180602335Y-70656206D01*
X180602328Y-70656202D01*
X180467482Y-70605908D01*
X180467483Y-70605908D01*
X180407883Y-70599501D01*
X180407881Y-70599500D01*
X180407873Y-70599500D01*
X180407864Y-70599500D01*
X178512129Y-70599500D01*
X178512123Y-70599501D01*
X178452516Y-70605908D01*
X178317671Y-70656202D01*
X178317664Y-70656206D01*
X178202455Y-70742452D01*
X178202452Y-70742455D01*
X178116206Y-70857664D01*
X178116202Y-70857671D01*
X178065908Y-70992517D01*
X178059501Y-71052116D01*
X178059500Y-71052135D01*
X171375970Y-71052135D01*
X171393584Y-71017565D01*
X171395886Y-71010483D01*
X171464233Y-70800132D01*
X171464233Y-70800129D01*
X171478509Y-70710000D01*
X170490748Y-70710000D01*
X170512518Y-70672292D01*
X170550000Y-70532409D01*
X170550000Y-70387591D01*
X170512518Y-70247708D01*
X170490748Y-70210000D01*
X171478509Y-70210000D01*
X171464234Y-70119871D01*
X171393582Y-69902429D01*
X171289788Y-69698723D01*
X171156988Y-69515940D01*
X171133508Y-69450133D01*
X171149333Y-69382079D01*
X171199439Y-69333384D01*
X171213966Y-69326875D01*
X171242331Y-69316296D01*
X171357546Y-69230046D01*
X171443796Y-69114831D01*
X171494091Y-68979983D01*
X171500500Y-68920373D01*
X171500499Y-66919628D01*
X171494091Y-66860017D01*
X171443796Y-66725169D01*
X171443795Y-66725168D01*
X171443793Y-66725164D01*
X171357547Y-66609955D01*
X171357544Y-66609952D01*
X171242335Y-66523706D01*
X171242328Y-66523702D01*
X171107482Y-66473408D01*
X171107483Y-66473408D01*
X171047883Y-66467001D01*
X171047881Y-66467000D01*
X171047873Y-66467000D01*
X171047864Y-66467000D01*
X168952129Y-66467000D01*
X168952123Y-66467001D01*
X168892516Y-66473408D01*
X168757671Y-66523702D01*
X168757664Y-66523706D01*
X168642455Y-66609952D01*
X168642452Y-66609955D01*
X168556206Y-66725164D01*
X168556202Y-66725171D01*
X168505908Y-66860017D01*
X168499923Y-66915690D01*
X168499501Y-66919623D01*
X168499500Y-66919635D01*
X156250000Y-66919635D01*
X156250000Y-65905513D01*
X178329500Y-65905513D01*
X178329500Y-66094486D01*
X178359059Y-66281118D01*
X178417454Y-66460836D01*
X178493433Y-66609952D01*
X178503240Y-66629199D01*
X178614310Y-66782073D01*
X178747927Y-66915690D01*
X178900801Y-67026760D01*
X178980347Y-67067290D01*
X179069163Y-67112545D01*
X179069165Y-67112545D01*
X179069168Y-67112547D01*
X179165497Y-67143846D01*
X179248881Y-67170940D01*
X179435514Y-67200500D01*
X179435519Y-67200500D01*
X179624486Y-67200500D01*
X179811118Y-67170940D01*
X179828827Y-67165186D01*
X179990832Y-67112547D01*
X180159199Y-67026760D01*
X180312073Y-66915690D01*
X180445690Y-66782073D01*
X180556760Y-66629199D01*
X180642547Y-66460832D01*
X180682069Y-66339195D01*
X180721507Y-66281521D01*
X180785866Y-66254323D01*
X180854712Y-66266238D01*
X180906188Y-66313482D01*
X180917931Y-66339196D01*
X180957454Y-66460836D01*
X181033433Y-66609952D01*
X181043240Y-66629199D01*
X181154310Y-66782073D01*
X181287927Y-66915690D01*
X181440801Y-67026760D01*
X181520347Y-67067290D01*
X181609163Y-67112545D01*
X181609165Y-67112545D01*
X181609168Y-67112547D01*
X181705497Y-67143846D01*
X181788881Y-67170940D01*
X181975514Y-67200500D01*
X181975519Y-67200500D01*
X182164486Y-67200500D01*
X182351118Y-67170940D01*
X182368827Y-67165186D01*
X182530832Y-67112547D01*
X182699199Y-67026760D01*
X182852073Y-66915690D01*
X182985690Y-66782073D01*
X183096760Y-66629199D01*
X183182547Y-66460832D01*
X183240940Y-66281118D01*
X183245184Y-66254323D01*
X183270500Y-66094486D01*
X183270500Y-65905513D01*
X185799500Y-65905513D01*
X185799500Y-66094486D01*
X185829059Y-66281118D01*
X185887454Y-66460836D01*
X185963433Y-66609952D01*
X185973240Y-66629199D01*
X186084310Y-66782073D01*
X186217927Y-66915690D01*
X186370801Y-67026760D01*
X186450347Y-67067290D01*
X186539163Y-67112545D01*
X186539165Y-67112545D01*
X186539168Y-67112547D01*
X186635497Y-67143846D01*
X186718881Y-67170940D01*
X186905514Y-67200500D01*
X186905519Y-67200500D01*
X187094486Y-67200500D01*
X187281118Y-67170940D01*
X187298827Y-67165186D01*
X187460832Y-67112547D01*
X187629199Y-67026760D01*
X187782073Y-66915690D01*
X187915690Y-66782073D01*
X188026760Y-66629199D01*
X188112547Y-66460832D01*
X188152069Y-66339195D01*
X188191507Y-66281521D01*
X188255866Y-66254323D01*
X188324712Y-66266238D01*
X188376188Y-66313482D01*
X188387931Y-66339196D01*
X188427454Y-66460836D01*
X188503433Y-66609952D01*
X188513240Y-66629199D01*
X188624310Y-66782073D01*
X188757927Y-66915690D01*
X188910801Y-67026760D01*
X188990347Y-67067290D01*
X189079163Y-67112545D01*
X189079165Y-67112545D01*
X189079168Y-67112547D01*
X189175497Y-67143846D01*
X189258881Y-67170940D01*
X189445514Y-67200500D01*
X189445519Y-67200500D01*
X189634486Y-67200500D01*
X189821118Y-67170940D01*
X189838827Y-67165186D01*
X190000832Y-67112547D01*
X190169199Y-67026760D01*
X190322073Y-66915690D01*
X190455690Y-66782073D01*
X190566760Y-66629199D01*
X190652547Y-66460832D01*
X190710940Y-66281118D01*
X190715184Y-66254323D01*
X190740500Y-66094486D01*
X190740500Y-65905513D01*
X193799500Y-65905513D01*
X193799500Y-66094486D01*
X193829059Y-66281118D01*
X193887454Y-66460836D01*
X193963433Y-66609952D01*
X193973240Y-66629199D01*
X194084310Y-66782073D01*
X194217927Y-66915690D01*
X194370801Y-67026760D01*
X194450347Y-67067290D01*
X194539163Y-67112545D01*
X194539165Y-67112545D01*
X194539168Y-67112547D01*
X194635497Y-67143846D01*
X194718881Y-67170940D01*
X194905514Y-67200500D01*
X194905519Y-67200500D01*
X195094486Y-67200500D01*
X195281118Y-67170940D01*
X195298827Y-67165186D01*
X195460832Y-67112547D01*
X195629199Y-67026760D01*
X195782073Y-66915690D01*
X195915690Y-66782073D01*
X196026760Y-66629199D01*
X196112547Y-66460832D01*
X196152069Y-66339195D01*
X196191507Y-66281521D01*
X196255866Y-66254323D01*
X196324712Y-66266238D01*
X196376188Y-66313482D01*
X196387931Y-66339196D01*
X196427454Y-66460836D01*
X196503433Y-66609952D01*
X196513240Y-66629199D01*
X196624310Y-66782073D01*
X196757927Y-66915690D01*
X196910801Y-67026760D01*
X196990347Y-67067290D01*
X197079163Y-67112545D01*
X197079165Y-67112545D01*
X197079168Y-67112547D01*
X197175497Y-67143846D01*
X197258881Y-67170940D01*
X197445514Y-67200500D01*
X197445519Y-67200500D01*
X197634486Y-67200500D01*
X197821118Y-67170940D01*
X197838827Y-67165186D01*
X198000832Y-67112547D01*
X198169199Y-67026760D01*
X198322073Y-66915690D01*
X198455690Y-66782073D01*
X198566760Y-66629199D01*
X198652547Y-66460832D01*
X198710940Y-66281118D01*
X198715184Y-66254323D01*
X198740500Y-66094486D01*
X198740500Y-65905513D01*
X200799500Y-65905513D01*
X200799500Y-66094486D01*
X200829059Y-66281118D01*
X200887454Y-66460836D01*
X200963433Y-66609952D01*
X200973240Y-66629199D01*
X201084310Y-66782073D01*
X201217927Y-66915690D01*
X201370801Y-67026760D01*
X201450347Y-67067290D01*
X201539163Y-67112545D01*
X201539165Y-67112545D01*
X201539168Y-67112547D01*
X201635497Y-67143846D01*
X201718881Y-67170940D01*
X201905514Y-67200500D01*
X201905519Y-67200500D01*
X202094486Y-67200500D01*
X202281118Y-67170940D01*
X202298827Y-67165186D01*
X202460832Y-67112547D01*
X202629199Y-67026760D01*
X202782073Y-66915690D01*
X202915690Y-66782073D01*
X203026760Y-66629199D01*
X203112547Y-66460832D01*
X203152069Y-66339195D01*
X203191507Y-66281521D01*
X203255866Y-66254323D01*
X203324712Y-66266238D01*
X203376188Y-66313482D01*
X203387931Y-66339196D01*
X203427454Y-66460836D01*
X203503433Y-66609952D01*
X203513240Y-66629199D01*
X203624310Y-66782073D01*
X203757927Y-66915690D01*
X203910801Y-67026760D01*
X203990347Y-67067290D01*
X204079163Y-67112545D01*
X204079165Y-67112545D01*
X204079168Y-67112547D01*
X204175497Y-67143846D01*
X204258881Y-67170940D01*
X204445514Y-67200500D01*
X204445519Y-67200500D01*
X204634486Y-67200500D01*
X204821118Y-67170940D01*
X204838827Y-67165186D01*
X205000832Y-67112547D01*
X205169199Y-67026760D01*
X205322073Y-66915690D01*
X205455690Y-66782073D01*
X205566760Y-66629199D01*
X205652547Y-66460832D01*
X205710940Y-66281118D01*
X205715184Y-66254323D01*
X205740500Y-66094486D01*
X205740500Y-65905513D01*
X207799500Y-65905513D01*
X207799500Y-66094486D01*
X207829059Y-66281118D01*
X207887454Y-66460836D01*
X207963433Y-66609952D01*
X207973240Y-66629199D01*
X208084310Y-66782073D01*
X208217927Y-66915690D01*
X208370801Y-67026760D01*
X208450347Y-67067290D01*
X208539163Y-67112545D01*
X208539165Y-67112545D01*
X208539168Y-67112547D01*
X208635497Y-67143846D01*
X208718881Y-67170940D01*
X208905514Y-67200500D01*
X208905519Y-67200500D01*
X209094486Y-67200500D01*
X209281118Y-67170940D01*
X209298827Y-67165186D01*
X209460832Y-67112547D01*
X209629199Y-67026760D01*
X209782073Y-66915690D01*
X209915690Y-66782073D01*
X210026760Y-66629199D01*
X210112547Y-66460832D01*
X210152069Y-66339195D01*
X210191507Y-66281521D01*
X210255866Y-66254323D01*
X210324712Y-66266238D01*
X210376188Y-66313482D01*
X210387931Y-66339196D01*
X210427454Y-66460836D01*
X210503433Y-66609952D01*
X210513240Y-66629199D01*
X210624310Y-66782073D01*
X210757927Y-66915690D01*
X210910801Y-67026760D01*
X210990347Y-67067290D01*
X211079163Y-67112545D01*
X211079165Y-67112545D01*
X211079168Y-67112547D01*
X211175497Y-67143846D01*
X211258881Y-67170940D01*
X211445514Y-67200500D01*
X211445519Y-67200500D01*
X211634486Y-67200500D01*
X211821118Y-67170940D01*
X211838827Y-67165186D01*
X212000832Y-67112547D01*
X212169199Y-67026760D01*
X212322073Y-66915690D01*
X212455690Y-66782073D01*
X212566760Y-66629199D01*
X212652547Y-66460832D01*
X212710940Y-66281118D01*
X212715184Y-66254323D01*
X212740500Y-66094486D01*
X212740500Y-65905513D01*
X215259500Y-65905513D01*
X215259500Y-66094486D01*
X215289059Y-66281118D01*
X215347454Y-66460836D01*
X215423433Y-66609952D01*
X215433240Y-66629199D01*
X215544310Y-66782073D01*
X215677927Y-66915690D01*
X215830801Y-67026760D01*
X215910347Y-67067290D01*
X215999163Y-67112545D01*
X215999165Y-67112545D01*
X215999168Y-67112547D01*
X216095497Y-67143846D01*
X216178881Y-67170940D01*
X216365514Y-67200500D01*
X216365519Y-67200500D01*
X216554486Y-67200500D01*
X216741118Y-67170940D01*
X216758827Y-67165186D01*
X216920832Y-67112547D01*
X217089199Y-67026760D01*
X217242073Y-66915690D01*
X217375690Y-66782073D01*
X217486760Y-66629199D01*
X217572547Y-66460832D01*
X217612069Y-66339195D01*
X217651507Y-66281521D01*
X217715866Y-66254323D01*
X217784712Y-66266238D01*
X217836188Y-66313482D01*
X217847931Y-66339196D01*
X217887454Y-66460836D01*
X217963433Y-66609952D01*
X217973240Y-66629199D01*
X218084310Y-66782073D01*
X218217927Y-66915690D01*
X218370801Y-67026760D01*
X218450347Y-67067290D01*
X218539163Y-67112545D01*
X218539165Y-67112545D01*
X218539168Y-67112547D01*
X218635497Y-67143846D01*
X218718881Y-67170940D01*
X218905514Y-67200500D01*
X218905519Y-67200500D01*
X219094486Y-67200500D01*
X219281118Y-67170940D01*
X219298827Y-67165186D01*
X219460832Y-67112547D01*
X219629199Y-67026760D01*
X219782073Y-66915690D01*
X219915690Y-66782073D01*
X220026760Y-66629199D01*
X220112547Y-66460832D01*
X220170940Y-66281118D01*
X220175184Y-66254323D01*
X220200500Y-66094486D01*
X220200500Y-65905513D01*
X220170940Y-65718881D01*
X220112545Y-65539163D01*
X220026759Y-65370800D01*
X219915690Y-65217927D01*
X219782073Y-65084310D01*
X219629199Y-64973240D01*
X219460836Y-64887454D01*
X219281118Y-64829059D01*
X219094486Y-64799500D01*
X219094481Y-64799500D01*
X218905519Y-64799500D01*
X218905514Y-64799500D01*
X218718881Y-64829059D01*
X218539163Y-64887454D01*
X218370800Y-64973240D01*
X218283579Y-65036610D01*
X218217927Y-65084310D01*
X218217925Y-65084312D01*
X218217924Y-65084312D01*
X218084312Y-65217924D01*
X218084312Y-65217925D01*
X218084310Y-65217927D01*
X218036610Y-65283579D01*
X217973240Y-65370800D01*
X217887454Y-65539163D01*
X217847931Y-65660803D01*
X217808493Y-65718478D01*
X217744134Y-65745676D01*
X217675288Y-65733761D01*
X217623812Y-65686516D01*
X217612069Y-65660803D01*
X217572545Y-65539163D01*
X217486759Y-65370800D01*
X217375690Y-65217927D01*
X217242073Y-65084310D01*
X217089199Y-64973240D01*
X216920836Y-64887454D01*
X216741118Y-64829059D01*
X216554486Y-64799500D01*
X216554481Y-64799500D01*
X216365519Y-64799500D01*
X216365514Y-64799500D01*
X216178881Y-64829059D01*
X215999163Y-64887454D01*
X215830800Y-64973240D01*
X215743579Y-65036610D01*
X215677927Y-65084310D01*
X215677925Y-65084312D01*
X215677924Y-65084312D01*
X215544312Y-65217924D01*
X215544312Y-65217925D01*
X215544310Y-65217927D01*
X215496610Y-65283579D01*
X215433240Y-65370800D01*
X215347454Y-65539163D01*
X215289059Y-65718881D01*
X215259500Y-65905513D01*
X212740500Y-65905513D01*
X212710940Y-65718881D01*
X212652545Y-65539163D01*
X212566759Y-65370800D01*
X212455690Y-65217927D01*
X212322073Y-65084310D01*
X212169199Y-64973240D01*
X212000836Y-64887454D01*
X211821118Y-64829059D01*
X211634486Y-64799500D01*
X211634481Y-64799500D01*
X211445519Y-64799500D01*
X211445514Y-64799500D01*
X211258881Y-64829059D01*
X211079163Y-64887454D01*
X210910800Y-64973240D01*
X210823579Y-65036610D01*
X210757927Y-65084310D01*
X210757925Y-65084312D01*
X210757924Y-65084312D01*
X210624312Y-65217924D01*
X210624312Y-65217925D01*
X210624310Y-65217927D01*
X210576610Y-65283579D01*
X210513240Y-65370800D01*
X210427454Y-65539163D01*
X210387931Y-65660803D01*
X210348493Y-65718478D01*
X210284134Y-65745676D01*
X210215288Y-65733761D01*
X210163812Y-65686516D01*
X210152069Y-65660803D01*
X210112545Y-65539163D01*
X210026759Y-65370800D01*
X209915690Y-65217927D01*
X209782073Y-65084310D01*
X209629199Y-64973240D01*
X209460836Y-64887454D01*
X209281118Y-64829059D01*
X209094486Y-64799500D01*
X209094481Y-64799500D01*
X208905519Y-64799500D01*
X208905514Y-64799500D01*
X208718881Y-64829059D01*
X208539163Y-64887454D01*
X208370800Y-64973240D01*
X208283579Y-65036610D01*
X208217927Y-65084310D01*
X208217925Y-65084312D01*
X208217924Y-65084312D01*
X208084312Y-65217924D01*
X208084312Y-65217925D01*
X208084310Y-65217927D01*
X208036610Y-65283579D01*
X207973240Y-65370800D01*
X207887454Y-65539163D01*
X207829059Y-65718881D01*
X207799500Y-65905513D01*
X205740500Y-65905513D01*
X205710940Y-65718881D01*
X205652545Y-65539163D01*
X205566759Y-65370800D01*
X205455690Y-65217927D01*
X205322073Y-65084310D01*
X205169199Y-64973240D01*
X205000836Y-64887454D01*
X204821118Y-64829059D01*
X204634486Y-64799500D01*
X204634481Y-64799500D01*
X204445519Y-64799500D01*
X204445514Y-64799500D01*
X204258881Y-64829059D01*
X204079163Y-64887454D01*
X203910800Y-64973240D01*
X203823579Y-65036610D01*
X203757927Y-65084310D01*
X203757925Y-65084312D01*
X203757924Y-65084312D01*
X203624312Y-65217924D01*
X203624312Y-65217925D01*
X203624310Y-65217927D01*
X203576610Y-65283579D01*
X203513240Y-65370800D01*
X203427454Y-65539163D01*
X203387931Y-65660803D01*
X203348493Y-65718478D01*
X203284134Y-65745676D01*
X203215288Y-65733761D01*
X203163812Y-65686516D01*
X203152069Y-65660803D01*
X203112545Y-65539163D01*
X203026759Y-65370800D01*
X202915690Y-65217927D01*
X202782073Y-65084310D01*
X202629199Y-64973240D01*
X202460836Y-64887454D01*
X202281118Y-64829059D01*
X202094486Y-64799500D01*
X202094481Y-64799500D01*
X201905519Y-64799500D01*
X201905514Y-64799500D01*
X201718881Y-64829059D01*
X201539163Y-64887454D01*
X201370800Y-64973240D01*
X201283579Y-65036610D01*
X201217927Y-65084310D01*
X201217925Y-65084312D01*
X201217924Y-65084312D01*
X201084312Y-65217924D01*
X201084312Y-65217925D01*
X201084310Y-65217927D01*
X201036610Y-65283579D01*
X200973240Y-65370800D01*
X200887454Y-65539163D01*
X200829059Y-65718881D01*
X200799500Y-65905513D01*
X198740500Y-65905513D01*
X198710940Y-65718881D01*
X198652545Y-65539163D01*
X198566759Y-65370800D01*
X198455690Y-65217927D01*
X198322073Y-65084310D01*
X198169199Y-64973240D01*
X198000836Y-64887454D01*
X197821118Y-64829059D01*
X197634486Y-64799500D01*
X197634481Y-64799500D01*
X197445519Y-64799500D01*
X197445514Y-64799500D01*
X197258881Y-64829059D01*
X197079163Y-64887454D01*
X196910800Y-64973240D01*
X196823579Y-65036610D01*
X196757927Y-65084310D01*
X196757925Y-65084312D01*
X196757924Y-65084312D01*
X196624312Y-65217924D01*
X196624312Y-65217925D01*
X196624310Y-65217927D01*
X196576610Y-65283579D01*
X196513240Y-65370800D01*
X196427454Y-65539163D01*
X196387931Y-65660803D01*
X196348493Y-65718478D01*
X196284134Y-65745676D01*
X196215288Y-65733761D01*
X196163812Y-65686516D01*
X196152069Y-65660803D01*
X196112545Y-65539163D01*
X196026759Y-65370800D01*
X195915690Y-65217927D01*
X195782073Y-65084310D01*
X195629199Y-64973240D01*
X195460836Y-64887454D01*
X195281118Y-64829059D01*
X195094486Y-64799500D01*
X195094481Y-64799500D01*
X194905519Y-64799500D01*
X194905514Y-64799500D01*
X194718881Y-64829059D01*
X194539163Y-64887454D01*
X194370800Y-64973240D01*
X194283579Y-65036610D01*
X194217927Y-65084310D01*
X194217925Y-65084312D01*
X194217924Y-65084312D01*
X194084312Y-65217924D01*
X194084312Y-65217925D01*
X194084310Y-65217927D01*
X194036610Y-65283579D01*
X193973240Y-65370800D01*
X193887454Y-65539163D01*
X193829059Y-65718881D01*
X193799500Y-65905513D01*
X190740500Y-65905513D01*
X190710940Y-65718881D01*
X190652545Y-65539163D01*
X190566759Y-65370800D01*
X190455690Y-65217927D01*
X190322073Y-65084310D01*
X190169199Y-64973240D01*
X190000836Y-64887454D01*
X189821118Y-64829059D01*
X189634486Y-64799500D01*
X189634481Y-64799500D01*
X189445519Y-64799500D01*
X189445514Y-64799500D01*
X189258881Y-64829059D01*
X189079163Y-64887454D01*
X188910800Y-64973240D01*
X188823579Y-65036610D01*
X188757927Y-65084310D01*
X188757925Y-65084312D01*
X188757924Y-65084312D01*
X188624312Y-65217924D01*
X188624312Y-65217925D01*
X188624310Y-65217927D01*
X188576610Y-65283579D01*
X188513240Y-65370800D01*
X188427454Y-65539163D01*
X188387931Y-65660803D01*
X188348493Y-65718478D01*
X188284134Y-65745676D01*
X188215288Y-65733761D01*
X188163812Y-65686516D01*
X188152069Y-65660803D01*
X188112545Y-65539163D01*
X188026759Y-65370800D01*
X187915690Y-65217927D01*
X187782073Y-65084310D01*
X187629199Y-64973240D01*
X187460836Y-64887454D01*
X187281118Y-64829059D01*
X187094486Y-64799500D01*
X187094481Y-64799500D01*
X186905519Y-64799500D01*
X186905514Y-64799500D01*
X186718881Y-64829059D01*
X186539163Y-64887454D01*
X186370800Y-64973240D01*
X186283579Y-65036610D01*
X186217927Y-65084310D01*
X186217925Y-65084312D01*
X186217924Y-65084312D01*
X186084312Y-65217924D01*
X186084312Y-65217925D01*
X186084310Y-65217927D01*
X186036610Y-65283579D01*
X185973240Y-65370800D01*
X185887454Y-65539163D01*
X185829059Y-65718881D01*
X185799500Y-65905513D01*
X183270500Y-65905513D01*
X183240940Y-65718881D01*
X183182545Y-65539163D01*
X183096759Y-65370800D01*
X182985690Y-65217927D01*
X182852073Y-65084310D01*
X182699199Y-64973240D01*
X182530836Y-64887454D01*
X182351118Y-64829059D01*
X182164486Y-64799500D01*
X182164481Y-64799500D01*
X181975519Y-64799500D01*
X181975514Y-64799500D01*
X181788881Y-64829059D01*
X181609163Y-64887454D01*
X181440800Y-64973240D01*
X181353579Y-65036610D01*
X181287927Y-65084310D01*
X181287925Y-65084312D01*
X181287924Y-65084312D01*
X181154312Y-65217924D01*
X181154312Y-65217925D01*
X181154310Y-65217927D01*
X181106610Y-65283579D01*
X181043240Y-65370800D01*
X180957454Y-65539163D01*
X180917931Y-65660803D01*
X180878493Y-65718478D01*
X180814134Y-65745676D01*
X180745288Y-65733761D01*
X180693812Y-65686516D01*
X180682069Y-65660803D01*
X180642545Y-65539163D01*
X180556759Y-65370800D01*
X180445690Y-65217927D01*
X180312073Y-65084310D01*
X180159199Y-64973240D01*
X179990836Y-64887454D01*
X179811118Y-64829059D01*
X179624486Y-64799500D01*
X179624481Y-64799500D01*
X179435519Y-64799500D01*
X179435514Y-64799500D01*
X179248881Y-64829059D01*
X179069163Y-64887454D01*
X178900800Y-64973240D01*
X178813579Y-65036610D01*
X178747927Y-65084310D01*
X178747925Y-65084312D01*
X178747924Y-65084312D01*
X178614312Y-65217924D01*
X178614312Y-65217925D01*
X178614310Y-65217927D01*
X178566610Y-65283579D01*
X178503240Y-65370800D01*
X178417454Y-65539163D01*
X178359059Y-65718881D01*
X178329500Y-65905513D01*
X156250000Y-65905513D01*
X156250000Y-63124000D01*
X156269685Y-63056961D01*
X156322489Y-63011206D01*
X156374000Y-63000000D01*
X156577384Y-63000000D01*
X156644423Y-63019685D01*
G37*
%TD.AperFunction*%
%TD*%
M02*
