%TF.GenerationSoftware,KiCad,Pcbnew,10.0.3*%
%TF.CreationDate,2026-06-19T13:59:21+05:45*%
%TF.ProjectId,LED flasher,4c454420-666c-4617-9368-65722e6b6963,rev?*%
%TF.SameCoordinates,Original*%
%TF.FileFunction,Plated,1,4,PTH,Drill*%
%TF.FilePolarity,Positive*%
%FSLAX46Y46*%
G04 Gerber Fmt 4.6, Leading zero omitted, Abs format (unit mm)*
G04 Created by KiCad (PCBNEW 10.0.3) date 2026-06-19 13:59:21*
%MOMM*%
%LPD*%
G01*
G04 APERTURE LIST*
%TA.AperFunction,ComponentDrill*%
%ADD10C,0.700000*%
%TD*%
%TA.AperFunction,ComponentDrill*%
%ADD11C,0.750000*%
%TD*%
%TA.AperFunction,ComponentDrill*%
%ADD12C,0.800000*%
%TD*%
%TA.AperFunction,ComponentDrill*%
%ADD13C,0.900000*%
%TD*%
%TA.AperFunction,ComponentDrill*%
%ADD14C,1.100000*%
%TD*%
%TA.AperFunction,ComponentDrill*%
%ADD15C,1.300000*%
%TD*%
G04 APERTURE END LIST*
D10*
%TO.C,R2*%
X176000000Y-74460000D03*
X176000000Y-77000000D03*
%TO.C,R1*%
X176000000Y-81000000D03*
X176000000Y-83540000D03*
%TO.C,R3*%
X179530000Y-66000000D03*
X182070000Y-66000000D03*
%TO.C,R4*%
X187000000Y-66000000D03*
X189540000Y-66000000D03*
%TO.C,R5*%
X195000000Y-66000000D03*
X197540000Y-66000000D03*
%TO.C,R6*%
X202000000Y-66000000D03*
X204540000Y-66000000D03*
%TO.C,R7*%
X209000000Y-66000000D03*
X211540000Y-66000000D03*
%TO.C,R8*%
X216460000Y-66000000D03*
X219000000Y-66000000D03*
D11*
%TO.C,Q1*%
X179730000Y-86000000D03*
X181000000Y-86000000D03*
X182270000Y-86000000D03*
%TO.C,Q2*%
X187000000Y-86000000D03*
X188270000Y-86000000D03*
X189540000Y-86000000D03*
%TO.C,Q3*%
X194000000Y-86000000D03*
X195270000Y-86000000D03*
X196540000Y-86000000D03*
%TO.C,Q4*%
X200730000Y-86000000D03*
X202000000Y-86000000D03*
X203270000Y-86000000D03*
%TO.C,Q5*%
X208710000Y-86000000D03*
X209980000Y-86000000D03*
X211250000Y-86000000D03*
%TO.C,Q6*%
X215730000Y-85890000D03*
X217000000Y-85890000D03*
X218270000Y-85890000D03*
D12*
%TO.C,U1*%
X165195000Y-80190000D03*
X165195000Y-82730000D03*
X165195000Y-85270000D03*
X165195000Y-87810000D03*
X172815000Y-80190000D03*
X172815000Y-82730000D03*
X172815000Y-85270000D03*
X172815000Y-87810000D03*
D13*
%TO.C,D2*%
X179460000Y-72000000D03*
%TO.C,D1*%
X180000000Y-79000000D03*
%TO.C,D2*%
X182000000Y-72000000D03*
%TO.C,D1*%
X182540000Y-79000000D03*
%TO.C,D4*%
X186730000Y-72000000D03*
%TO.C,D3*%
X187000000Y-79000000D03*
%TO.C,D4*%
X189270000Y-72000000D03*
%TO.C,D3*%
X189540000Y-79000000D03*
%TO.C,D5*%
X194460000Y-79000000D03*
%TO.C,D6*%
X194730000Y-72000000D03*
%TO.C,D5*%
X197000000Y-79000000D03*
%TO.C,D6*%
X197270000Y-72000000D03*
%TO.C,D7*%
X201460000Y-79000000D03*
%TO.C,D8*%
X202000000Y-72000000D03*
%TO.C,D7*%
X204000000Y-79000000D03*
%TO.C,D8*%
X204540000Y-72000000D03*
%TO.C,D10*%
X208730000Y-72000000D03*
%TO.C,D9*%
X208750000Y-79000000D03*
%TO.C,D10*%
X211270000Y-72000000D03*
%TO.C,D9*%
X211290000Y-79000000D03*
%TO.C,D12*%
X216000000Y-72000000D03*
%TO.C,D11*%
X216000000Y-79000000D03*
%TO.C,D12*%
X218540000Y-72000000D03*
%TO.C,D11*%
X218540000Y-79000000D03*
D14*
%TO.C,U2*%
X170000000Y-67920000D03*
X170000000Y-70460000D03*
X170000000Y-73000000D03*
D15*
%TO.C,J1*%
X161000000Y-69000000D03*
X161000000Y-74000000D03*
M02*
