%TF.GenerationSoftware,KiCad,Pcbnew,10.0.3*%
%TF.CreationDate,2026-06-19T13:59:17+05:45*%
%TF.ProjectId,LED flasher,4c454420-666c-4617-9368-65722e6b6963,rev?*%
%TF.SameCoordinates,Original*%
%TF.FileFunction,Copper,L2,Inr*%
%TF.FilePolarity,Positive*%
%FSLAX46Y46*%
G04 Gerber Fmt 4.6, Leading zero omitted, Abs format (unit mm)*
G04 Created by KiCad (PCBNEW 10.0.3) date 2026-06-19 13:59:17*
%MOMM*%
%LPD*%
G01*
G04 APERTURE LIST*
G04 Aperture macros list*
%AMRoundRect*
0 Rectangle with rounded corners*
0 $1 Rounding radius*
0 $2 $3 $4 $5 $6 $7 $8 $9 X,Y pos of 4 corners*
0 Add a 4 corners polygon primitive as box body*
4,1,4,$2,$3,$4,$5,$6,$7,$8,$9,$2,$3,0*
0 Add four circle primitives for the rounded corners*
1,1,$1+$1,$2,$3*
1,1,$1+$1,$4,$5*
1,1,$1+$1,$6,$7*
1,1,$1+$1,$8,$9*
0 Add four rect primitives between the rounded corners*
20,1,$1+$1,$2,$3,$4,$5,0*
20,1,$1+$1,$4,$5,$6,$7,0*
20,1,$1+$1,$6,$7,$8,$9,0*
20,1,$1+$1,$8,$9,$2,$3,0*%
G04 Aperture macros list end*
%TA.AperFunction,ComponentPad*%
%ADD10RoundRect,0.250000X-0.550000X-0.550000X0.550000X-0.550000X0.550000X0.550000X-0.550000X0.550000X0*%
%TD*%
%TA.AperFunction,ComponentPad*%
%ADD11C,1.600000*%
%TD*%
%TA.AperFunction,ComponentPad*%
%ADD12C,1.400000*%
%TD*%
%TA.AperFunction,ComponentPad*%
%ADD13R,1.050000X1.500000*%
%TD*%
%TA.AperFunction,ComponentPad*%
%ADD14O,1.050000X1.500000*%
%TD*%
%TA.AperFunction,ComponentPad*%
%ADD15RoundRect,0.250001X-1.149999X1.149999X-1.149999X-1.149999X1.149999X-1.149999X1.149999X1.149999X0*%
%TD*%
%TA.AperFunction,ComponentPad*%
%ADD16C,2.800000*%
%TD*%
%TA.AperFunction,ComponentPad*%
%ADD17R,1.800000X1.800000*%
%TD*%
%TA.AperFunction,ComponentPad*%
%ADD18C,1.800000*%
%TD*%
%TA.AperFunction,ComponentPad*%
%ADD19O,2.000000X1.905000*%
%TD*%
%TA.AperFunction,ComponentPad*%
%ADD20R,2.000000X1.905000*%
%TD*%
G04 APERTURE END LIST*
D10*
%TO.N,GND*%
%TO.C,U1*%
X165195000Y-80190000D03*
D11*
%TO.N,Net-(U1-THRES)*%
X165195000Y-82730000D03*
%TO.N,Net-(Q1-B)*%
X165195000Y-85270000D03*
%TO.N,Net-(U1-VCC)*%
X165195000Y-87810000D03*
%TO.N,unconnected-(U1-CONT-Pad5)*%
X172815000Y-87810000D03*
%TO.N,Net-(U1-THRES)*%
X172815000Y-85270000D03*
%TO.N,Net-(U1-DISCH)*%
X172815000Y-82730000D03*
%TO.N,Net-(U1-VCC)*%
X172815000Y-80190000D03*
%TD*%
D12*
%TO.N,/12V*%
%TO.C,R8*%
X216460000Y-66000000D03*
%TO.N,Net-(D12-A)*%
X219000000Y-66000000D03*
%TD*%
%TO.N,/12V*%
%TO.C,R7*%
X209000000Y-66000000D03*
%TO.N,Net-(D10-A)*%
X211540000Y-66000000D03*
%TD*%
%TO.N,/12V*%
%TO.C,R6*%
X202000000Y-66000000D03*
%TO.N,Net-(D8-A)*%
X204540000Y-66000000D03*
%TD*%
%TO.N,/12V*%
%TO.C,R5*%
X195000000Y-66000000D03*
%TO.N,Net-(D6-A)*%
X197540000Y-66000000D03*
%TD*%
%TO.N,Net-(D4-A)*%
%TO.C,R4*%
X189540000Y-66000000D03*
%TO.N,/12V*%
X187000000Y-66000000D03*
%TD*%
%TO.N,/12V*%
%TO.C,R3*%
X179530000Y-66000000D03*
%TO.N,Net-(D2-A)*%
X182070000Y-66000000D03*
%TD*%
%TO.N,Net-(U1-DISCH)*%
%TO.C,R2*%
X176000000Y-77000000D03*
%TO.N,Net-(U1-THRES)*%
X176000000Y-74460000D03*
%TD*%
%TO.N,Net-(U1-VCC)*%
%TO.C,R1*%
X176000000Y-81000000D03*
%TO.N,Net-(U1-DISCH)*%
X176000000Y-83540000D03*
%TD*%
D13*
%TO.N,Net-(D11-K)*%
%TO.C,Q6*%
X218270000Y-85890000D03*
D14*
%TO.N,Net-(Q1-B)*%
X217000000Y-85890000D03*
%TO.N,GND*%
X215730000Y-85890000D03*
%TD*%
D13*
%TO.N,Net-(D9-K)*%
%TO.C,Q5*%
X211250000Y-86000000D03*
D14*
%TO.N,Net-(Q1-B)*%
X209980000Y-86000000D03*
%TO.N,GND*%
X208710000Y-86000000D03*
%TD*%
D13*
%TO.N,Net-(D7-K)*%
%TO.C,Q4*%
X203270000Y-86000000D03*
D14*
%TO.N,Net-(Q1-B)*%
X202000000Y-86000000D03*
%TO.N,GND*%
X200730000Y-86000000D03*
%TD*%
D13*
%TO.N,Net-(D5-K)*%
%TO.C,Q3*%
X196540000Y-86000000D03*
D14*
%TO.N,Net-(Q1-B)*%
X195270000Y-86000000D03*
%TO.N,GND*%
X194000000Y-86000000D03*
%TD*%
D13*
%TO.N,Net-(D3-K)*%
%TO.C,Q2*%
X189540000Y-86000000D03*
D14*
%TO.N,Net-(Q1-B)*%
X188270000Y-86000000D03*
%TO.N,GND*%
X187000000Y-86000000D03*
%TD*%
D13*
%TO.N,Net-(D1-K)*%
%TO.C,Q1*%
X182270000Y-86000000D03*
D14*
%TO.N,Net-(Q1-B)*%
X181000000Y-86000000D03*
%TO.N,GND*%
X179730000Y-86000000D03*
%TD*%
D15*
%TO.N,/12V*%
%TO.C,J1*%
X161000000Y-69000000D03*
D16*
%TO.N,GND*%
X161000000Y-74000000D03*
%TD*%
D17*
%TO.N,Net-(D11-A)*%
%TO.C,D12*%
X216000000Y-72000000D03*
D18*
%TO.N,Net-(D12-A)*%
X218540000Y-72000000D03*
%TD*%
D17*
%TO.N,Net-(D11-K)*%
%TO.C,D11*%
X218540000Y-79000000D03*
D18*
%TO.N,Net-(D11-A)*%
X216000000Y-79000000D03*
%TD*%
D17*
%TO.N,Net-(D10-K)*%
%TO.C,D10*%
X208730000Y-72000000D03*
D18*
%TO.N,Net-(D10-A)*%
X211270000Y-72000000D03*
%TD*%
D17*
%TO.N,Net-(D9-K)*%
%TO.C,D9*%
X211290000Y-79000000D03*
D18*
%TO.N,Net-(D10-K)*%
X208750000Y-79000000D03*
%TD*%
D17*
%TO.N,Net-(D7-A)*%
%TO.C,D8*%
X202000000Y-72000000D03*
D18*
%TO.N,Net-(D8-A)*%
X204540000Y-72000000D03*
%TD*%
D17*
%TO.N,Net-(D7-K)*%
%TO.C,D7*%
X204000000Y-79000000D03*
D18*
%TO.N,Net-(D7-A)*%
X201460000Y-79000000D03*
%TD*%
D17*
%TO.N,Net-(D5-A)*%
%TO.C,D6*%
X194730000Y-72000000D03*
D18*
%TO.N,Net-(D6-A)*%
X197270000Y-72000000D03*
%TD*%
D17*
%TO.N,Net-(D5-K)*%
%TO.C,D5*%
X197000000Y-79000000D03*
D18*
%TO.N,Net-(D5-A)*%
X194460000Y-79000000D03*
%TD*%
D17*
%TO.N,Net-(D3-A)*%
%TO.C,D4*%
X186730000Y-72000000D03*
D18*
%TO.N,Net-(D4-A)*%
X189270000Y-72000000D03*
%TD*%
D17*
%TO.N,Net-(D3-K)*%
%TO.C,D3*%
X189540000Y-79000000D03*
D18*
%TO.N,Net-(D3-A)*%
X187000000Y-79000000D03*
%TD*%
D17*
%TO.N,Net-(D1-A)*%
%TO.C,D2*%
X179460000Y-72000000D03*
D18*
%TO.N,Net-(D2-A)*%
X182000000Y-72000000D03*
%TD*%
D17*
%TO.N,Net-(D1-K)*%
%TO.C,D1*%
X182540000Y-79000000D03*
D18*
%TO.N,Net-(D1-A)*%
X180000000Y-79000000D03*
%TD*%
D19*
%TO.N,Net-(U1-VCC)*%
%TO.C,U2*%
X170000000Y-73000000D03*
%TO.N,GND*%
X170000000Y-70460000D03*
D20*
%TO.N,/12V*%
X170000000Y-67920000D03*
%TD*%
M02*
