%TF.GenerationSoftware,KiCad,Pcbnew,10.0.3*%
%TF.CreationDate,2026-10-02T21:44:35+05:45*%
%TF.ProjectId,tp4056 module,74703430-3536-4206-9d6f-64756c652e6b,rev?*%
%TF.SameCoordinates,Original*%
%TF.FileFunction,Paste,Top*%
%TF.FilePolarity,Positive*%
%FSLAX46Y46*%
G04 Gerber Fmt 4.6, Leading zero omitted, Abs format (unit mm)*
G04 Created by KiCad (PCBNEW 10.0.3) date 2026-10-02 21:44:35*
%MOMM*%
%LPD*%
G01*
G04 APERTURE LIST*
G04 Aperture macros list*
%AMRoundRect*
0 Rectangle with rounded corners*
0 $1 Rounding radius*
0 $2 $3 $4 $5 $6 $7 $8 $9 X,Y pos of 4 corners*
0 Add a 4 corners polygon primitive as box body*
4,1,4,$2,$3,$4,$5,$6,$7,$8,$9,$2,$3,0*
0 Add four circle primitives for the rounded corners*
1,1,$1+$1,$2,$3*
1,1,$1+$1,$4,$5*
1,1,$1+$1,$6,$7*
1,1,$1+$1,$8,$9*
0 Add four rect primitives between the rounded corners*
20,1,$1+$1,$2,$3,$4,$5,0*
20,1,$1+$1,$4,$5,$6,$7,0*
20,1,$1+$1,$6,$7,$8,$9,0*
20,1,$1+$1,$8,$9,$2,$3,0*%
G04 Aperture macros list end*
%ADD10RoundRect,0.250000X0.262500X0.450000X-0.262500X0.450000X-0.262500X-0.450000X0.262500X-0.450000X0*%
%ADD11RoundRect,0.250000X-0.262500X-0.450000X0.262500X-0.450000X0.262500X0.450000X-0.262500X0.450000X0*%
%ADD12RoundRect,0.243750X0.456250X-0.243750X0.456250X0.243750X-0.456250X0.243750X-0.456250X-0.243750X0*%
%ADD13RoundRect,0.243750X0.243750X0.456250X-0.243750X0.456250X-0.243750X-0.456250X0.243750X-0.456250X0*%
%ADD14RoundRect,0.243750X-0.243750X-0.456250X0.243750X-0.456250X0.243750X0.456250X-0.243750X0.456250X0*%
%ADD15RoundRect,0.150000X-0.430000X0.150000X-0.430000X-0.150000X0.430000X-0.150000X0.430000X0.150000X0*%
%ADD16RoundRect,0.075000X0.505000X-0.075000X0.505000X0.075000X-0.505000X0.075000X-0.505000X-0.075000X0*%
%ADD17RoundRect,0.147500X0.147500X-0.457500X0.147500X0.457500X-0.147500X0.457500X-0.147500X-0.457500X0*%
%ADD18R,0.600000X1.100000*%
%ADD19RoundRect,0.250000X0.475000X-0.250000X0.475000X0.250000X-0.475000X0.250000X-0.475000X-0.250000X0*%
%ADD20RoundRect,0.165000X-0.165000X-0.475000X0.165000X-0.475000X0.165000X0.475000X-0.165000X0.475000X0*%
%ADD21RoundRect,0.250000X-0.450000X0.350000X-0.450000X-0.350000X0.450000X-0.350000X0.450000X0.350000X0*%
%ADD22RoundRect,0.135000X0.135000X0.185000X-0.135000X0.185000X-0.135000X-0.185000X0.135000X-0.185000X0*%
%ADD23RoundRect,0.150000X0.150000X-0.825000X0.150000X0.825000X-0.150000X0.825000X-0.150000X-0.825000X0*%
%ADD24RoundRect,0.250000X0.440000X-0.255000X0.440000X0.255000X-0.440000X0.255000X-0.440000X-0.255000X0*%
%ADD25RoundRect,0.250000X-0.250000X-0.550000X0.250000X-0.550000X0.250000X0.550000X-0.250000X0.550000X0*%
G04 APERTURE END LIST*
D10*
%TO.C,R4*%
X150612500Y-100200000D03*
X148787500Y-100200000D03*
%TD*%
D11*
%TO.C,R2*%
X148487500Y-95800000D03*
X150312500Y-95800000D03*
%TD*%
D10*
%TO.C,R1*%
X135200000Y-95800000D03*
X133375000Y-95800000D03*
%TD*%
D12*
%TO.C,LED3*%
X153800000Y-102462500D03*
X153800000Y-104337500D03*
%TD*%
D13*
%TO.C,LED2*%
X145637500Y-95900000D03*
X143762500Y-95900000D03*
%TD*%
D14*
%TO.C,LED1*%
X137862500Y-96000000D03*
X139737500Y-96000000D03*
%TD*%
D15*
%TO.C,P1*%
X134550000Y-100180000D03*
X134550000Y-100980000D03*
D16*
X134550000Y-102130000D03*
X134550000Y-103130000D03*
X134550000Y-103630000D03*
X134550000Y-104630000D03*
D15*
X134550000Y-105780000D03*
X134550000Y-106580000D03*
X134550000Y-106580000D03*
X134550000Y-105780000D03*
D16*
X134550000Y-105130000D03*
X134550000Y-104130000D03*
X134550000Y-102630000D03*
X134550000Y-101630000D03*
D15*
X134550000Y-100980000D03*
X134550000Y-100180000D03*
%TD*%
D17*
%TO.C,Q1*%
X146950000Y-107898500D03*
X146000000Y-107898500D03*
X145050000Y-107898500D03*
X146950000Y-110408500D03*
X146000000Y-110408500D03*
X145050000Y-110408500D03*
%TD*%
D18*
%TO.C,IC1*%
X145800000Y-99060000D03*
X144850000Y-99000000D03*
X146750000Y-99000000D03*
X146750000Y-101600000D03*
X144850000Y-101600000D03*
X145800000Y-101600000D03*
%TD*%
D19*
%TO.C,C1*%
X136900000Y-99050000D03*
X136900000Y-100950000D03*
%TD*%
D20*
%TO.C,C2*%
X149640000Y-97900000D03*
X148560000Y-97900000D03*
%TD*%
D21*
%TO.C,R6*%
X151200000Y-104500000D03*
X151200000Y-102500000D03*
%TD*%
D22*
%TO.C,R5*%
X153790000Y-99900000D03*
X154810000Y-99900000D03*
%TD*%
D23*
%TO.C,U1*%
X139095000Y-100225000D03*
X140365000Y-100225000D03*
X141635000Y-100225000D03*
X142905000Y-100225000D03*
X142905000Y-105175000D03*
X141635000Y-105175000D03*
X140365000Y-105175000D03*
X139095000Y-105175000D03*
D24*
X141825000Y-102100000D03*
X140175000Y-102100000D03*
X141825000Y-103300000D03*
X140175000Y-103300000D03*
%TD*%
D25*
%TO.C,SW1*%
X148900000Y-105700000D03*
X147150000Y-103400000D03*
X145400000Y-105700000D03*
%TD*%
D21*
%TO.C,R3*%
X136600000Y-106800000D03*
X136600000Y-104800000D03*
%TD*%
M02*
