%TF.GenerationSoftware,KiCad,Pcbnew,10.0.3*%
%TF.CreationDate,2026-10-02T21:44:35+05:45*%
%TF.ProjectId,tp4056 module,74703430-3536-4206-9d6f-64756c652e6b,rev?*%
%TF.SameCoordinates,Original*%
%TF.FileFunction,Copper,L1,Top*%
%TF.FilePolarity,Positive*%
%FSLAX46Y46*%
G04 Gerber Fmt 4.6, Leading zero omitted, Abs format (unit mm)*
G04 Created by KiCad (PCBNEW 10.0.3) date 2026-10-02 21:44:35*
%MOMM*%
%LPD*%
G01*
G04 APERTURE LIST*
G04 Aperture macros list*
%AMRoundRect*
0 Rectangle with rounded corners*
0 $1 Rounding radius*
0 $2 $3 $4 $5 $6 $7 $8 $9 X,Y pos of 4 corners*
0 Add a 4 corners polygon primitive as box body*
4,1,4,$2,$3,$4,$5,$6,$7,$8,$9,$2,$3,0*
0 Add four circle primitives for the rounded corners*
1,1,$1+$1,$2,$3*
1,1,$1+$1,$4,$5*
1,1,$1+$1,$6,$7*
1,1,$1+$1,$8,$9*
0 Add four rect primitives between the rounded corners*
20,1,$1+$1,$2,$3,$4,$5,0*
20,1,$1+$1,$4,$5,$6,$7,0*
20,1,$1+$1,$6,$7,$8,$9,0*
20,1,$1+$1,$8,$9,$2,$3,0*%
G04 Aperture macros list end*
%TA.AperFunction,SMDPad,CuDef*%
%ADD10RoundRect,0.250000X0.262500X0.450000X-0.262500X0.450000X-0.262500X-0.450000X0.262500X-0.450000X0*%
%TD*%
%TA.AperFunction,SMDPad,CuDef*%
%ADD11RoundRect,0.250000X-0.262500X-0.450000X0.262500X-0.450000X0.262500X0.450000X-0.262500X0.450000X0*%
%TD*%
%TA.AperFunction,SMDPad,CuDef*%
%ADD12RoundRect,0.243750X0.456250X-0.243750X0.456250X0.243750X-0.456250X0.243750X-0.456250X-0.243750X0*%
%TD*%
%TA.AperFunction,SMDPad,CuDef*%
%ADD13RoundRect,0.243750X0.243750X0.456250X-0.243750X0.456250X-0.243750X-0.456250X0.243750X-0.456250X0*%
%TD*%
%TA.AperFunction,SMDPad,CuDef*%
%ADD14RoundRect,0.243750X-0.243750X-0.456250X0.243750X-0.456250X0.243750X0.456250X-0.243750X0.456250X0*%
%TD*%
%TA.AperFunction,SMDPad,CuDef*%
%ADD15RoundRect,0.150000X-0.430000X0.150000X-0.430000X-0.150000X0.430000X-0.150000X0.430000X0.150000X0*%
%TD*%
%TA.AperFunction,SMDPad,CuDef*%
%ADD16RoundRect,0.075000X0.505000X-0.075000X0.505000X0.075000X-0.505000X0.075000X-0.505000X-0.075000X0*%
%TD*%
%TA.AperFunction,ComponentPad*%
%ADD17O,2.000000X0.900000*%
%TD*%
%TA.AperFunction,ComponentPad*%
%ADD18O,1.700000X0.900000*%
%TD*%
%TA.AperFunction,SMDPad,CuDef*%
%ADD19RoundRect,0.147500X0.147500X-0.457500X0.147500X0.457500X-0.147500X0.457500X-0.147500X-0.457500X0*%
%TD*%
%TA.AperFunction,SMDPad,CuDef*%
%ADD20R,0.600000X1.100000*%
%TD*%
%TA.AperFunction,SMDPad,CuDef*%
%ADD21RoundRect,0.250000X0.475000X-0.250000X0.475000X0.250000X-0.475000X0.250000X-0.475000X-0.250000X0*%
%TD*%
%TA.AperFunction,SMDPad,CuDef*%
%ADD22RoundRect,0.165000X-0.165000X-0.475000X0.165000X-0.475000X0.165000X0.475000X-0.165000X0.475000X0*%
%TD*%
%TA.AperFunction,SMDPad,CuDef*%
%ADD23RoundRect,0.250000X-0.450000X0.350000X-0.450000X-0.350000X0.450000X-0.350000X0.450000X0.350000X0*%
%TD*%
%TA.AperFunction,SMDPad,CuDef*%
%ADD24RoundRect,0.135000X0.135000X0.185000X-0.135000X0.185000X-0.135000X-0.185000X0.135000X-0.185000X0*%
%TD*%
%TA.AperFunction,HeatsinkPad*%
%ADD25C,0.500000*%
%TD*%
%TA.AperFunction,HeatsinkPad*%
%ADD26R,3.300000X2.410000*%
%TD*%
%TA.AperFunction,SMDPad,CuDef*%
%ADD27RoundRect,0.150000X0.150000X-0.825000X0.150000X0.825000X-0.150000X0.825000X-0.150000X-0.825000X0*%
%TD*%
%TA.AperFunction,SMDPad,CuDef*%
%ADD28RoundRect,0.250000X-0.250000X-0.550000X0.250000X-0.550000X0.250000X0.550000X-0.250000X0.550000X0*%
%TD*%
%TA.AperFunction,ComponentPad*%
%ADD29R,1.350000X1.350000*%
%TD*%
%TA.AperFunction,ComponentPad*%
%ADD30C,1.350000*%
%TD*%
%TA.AperFunction,ViaPad*%
%ADD31C,0.600000*%
%TD*%
%TA.AperFunction,Conductor*%
%ADD32C,0.250000*%
%TD*%
G04 APERTURE END LIST*
D10*
%TO.P,R4,1*%
%TO.N,GND*%
X150612500Y-100200000D03*
%TO.P,R4,2*%
%TO.N,Net-(IC1-CS)*%
X148787500Y-100200000D03*
%TD*%
D11*
%TO.P,R2,1*%
%TO.N,Net-(LED2-K)*%
X148487500Y-95800000D03*
%TO.P,R2,2*%
%TO.N,Net-(U1-~{STDBY})*%
X150312500Y-95800000D03*
%TD*%
D10*
%TO.P,R1,1*%
%TO.N,Net-(LED1-K)*%
X135200000Y-95800000D03*
%TO.P,R1,2*%
%TO.N,Net-(U1-~{CHRG})*%
X133375000Y-95800000D03*
%TD*%
D12*
%TO.P,LED3,2,A_2*%
%TO.N,Net-(J2-Pin_2)*%
X153800000Y-102462500D03*
%TO.P,LED3,1,K_1*%
%TO.N,Net-(LED3-K)*%
X153800000Y-104337500D03*
%TD*%
D13*
%TO.P,LED2,1,K_1*%
%TO.N,Net-(LED2-K)*%
X145637500Y-95900000D03*
%TO.P,LED2,2,A_2*%
%TO.N,/vcc*%
X143762500Y-95900000D03*
%TD*%
D14*
%TO.P,LED1,1,K_1*%
%TO.N,Net-(LED1-K)*%
X137862500Y-96000000D03*
%TO.P,LED1,2,A_2*%
%TO.N,/vcc*%
X139737500Y-96000000D03*
%TD*%
D15*
%TO.P,P1,A1,GND_A1*%
%TO.N,GND*%
X134550000Y-100180000D03*
%TO.P,P1,A4,VBUS_A4*%
%TO.N,/vcc*%
X134550000Y-100980000D03*
D16*
%TO.P,P1,A5,CC_A5*%
%TO.N,unconnected-(P1-CC-PadA5)*%
X134550000Y-102130000D03*
%TO.P,P1,A6,D+_A6*%
%TO.N,unconnected-(P1-D+-PadA6)*%
X134550000Y-103130000D03*
%TO.P,P1,A7,D-_A7*%
%TO.N,unconnected-(P1-D--PadA7)*%
X134550000Y-103630000D03*
%TO.P,P1,A8*%
%TO.N,N/C*%
X134550000Y-104630000D03*
D15*
%TO.P,P1,A9,VBUS_A9*%
%TO.N,/vcc*%
X134550000Y-105780000D03*
%TO.P,P1,A12,GND_A12*%
%TO.N,GND*%
X134550000Y-106580000D03*
%TO.P,P1,B1,GND_B1*%
X134550000Y-106580000D03*
%TO.P,P1,B4,VBUS_B4*%
%TO.N,/vcc*%
X134550000Y-105780000D03*
D16*
%TO.P,P1,B5,VCONN_B5*%
%TO.N,unconnected-(P1-VCONN-PadB5)*%
X134550000Y-105130000D03*
%TO.P,P1,B6*%
%TO.N,N/C*%
X134550000Y-104130000D03*
%TO.P,P1,B7*%
X134550000Y-102630000D03*
%TO.P,P1,B8*%
X134550000Y-101630000D03*
D15*
%TO.P,P1,B9,VBUS_B9*%
%TO.N,/vcc*%
X134550000Y-100980000D03*
%TO.P,P1,B12,GND_B12*%
%TO.N,GND*%
X134550000Y-100180000D03*
D17*
%TO.P,P1,SH,SHIELD_SH*%
X133970000Y-99060000D03*
D18*
X129800000Y-99060000D03*
D17*
X133970000Y-107700000D03*
D18*
X129800000Y-107700000D03*
%TD*%
D19*
%TO.P,Q1,4*%
%TO.N,Net-(IC1-OC)*%
X146950000Y-107898500D03*
%TO.P,Q1,5*%
%TO.N,unconnected-(Q1-Pad2)*%
X146000000Y-107898500D03*
%TO.P,Q1,6*%
%TO.N,Net-(IC1-OD)*%
X145050000Y-107898500D03*
%TO.P,Q1,3*%
%TO.N,GND*%
X146950000Y-110408500D03*
%TO.P,Q1,2*%
%TO.N,unconnected-(Q1-Pad2)_1*%
X146000000Y-110408500D03*
%TO.P,Q1,1*%
%TO.N,/out+*%
X145050000Y-110408500D03*
%TD*%
D20*
%TO.P,IC1,5,VCC_5*%
%TO.N,Net-(IC1-VCC)*%
X145800000Y-99060000D03*
%TO.P,IC1,6,GND_6*%
%TO.N,/out+*%
X144850000Y-99000000D03*
%TO.P,IC1,4,TD_4*%
%TO.N,unconnected-(IC1-TD-Pad4)*%
X146750000Y-99000000D03*
%TO.P,IC1,3,OC_3*%
%TO.N,Net-(IC1-OC)*%
X146750000Y-101600000D03*
%TO.P,IC1,1,OD_1*%
%TO.N,Net-(IC1-OD)*%
X144850000Y-101600000D03*
%TO.P,IC1,2,CS_2*%
%TO.N,Net-(IC1-CS)*%
X145800000Y-101600000D03*
%TD*%
D21*
%TO.P,C1,2*%
%TO.N,GND*%
X136900000Y-99050000D03*
%TO.P,C1,1*%
%TO.N,/vcc*%
X136900000Y-100950000D03*
%TD*%
D22*
%TO.P,C2,2*%
%TO.N,Net-(IC1-VCC)*%
X149640000Y-97900000D03*
%TO.P,C2,1*%
%TO.N,/out+*%
X148560000Y-97900000D03*
%TD*%
D23*
%TO.P,R6,2*%
%TO.N,Net-(LED3-K)*%
X151200000Y-104500000D03*
%TO.P,R6,1*%
%TO.N,GND*%
X151200000Y-102500000D03*
%TD*%
D24*
%TO.P,R5,2*%
%TO.N,Net-(IC1-VCC)*%
X153790000Y-99900000D03*
%TO.P,R5,1*%
%TO.N,Net-(J1-Pin_2)*%
X154810000Y-99900000D03*
%TD*%
D25*
%TO.P,U1,9,EPAD_9*%
%TO.N,GND*%
X142200000Y-102000000D03*
X141000000Y-102000000D03*
X139800000Y-102000000D03*
D26*
X141000000Y-102700000D03*
D25*
X142200000Y-103400000D03*
X141000000Y-103400000D03*
X139800000Y-103400000D03*
D27*
%TO.P,U1,8,CE_8*%
%TO.N,/vcc*%
X139095000Y-100225000D03*
%TO.P,U1,7,~{CHRG}_7*%
%TO.N,Net-(U1-~{CHRG})*%
X140365000Y-100225000D03*
%TO.P,U1,6,~{STDBY}_6*%
%TO.N,Net-(U1-~{STDBY})*%
X141635000Y-100225000D03*
%TO.P,U1,5,BAT_5*%
%TO.N,Net-(J1-Pin_2)*%
X142905000Y-100225000D03*
%TO.P,U1,4,V_{CC}_4*%
%TO.N,/vcc*%
X142905000Y-105175000D03*
%TO.P,U1,3,GND_3*%
%TO.N,GND*%
X141635000Y-105175000D03*
%TO.P,U1,2,PROG_2*%
%TO.N,Net-(U1-PROG)*%
X140365000Y-105175000D03*
%TO.P,U1,1,TEMP_1*%
%TO.N,GND*%
X139095000Y-105175000D03*
%TD*%
D28*
%TO.P,SW1,3,C_3*%
%TO.N,Net-(J2-Pin_2)*%
X148900000Y-105700000D03*
%TO.P,SW1,2,B_2*%
%TO.N,Net-(J1-Pin_2)*%
X147150000Y-103400000D03*
%TO.P,SW1,1,A_1*%
%TO.N,unconnected-(SW1-A-Pad1)*%
X145400000Y-105700000D03*
%TD*%
D23*
%TO.P,R3,2*%
%TO.N,Net-(U1-PROG)*%
X136600000Y-106800000D03*
%TO.P,R3,1*%
%TO.N,GND*%
X136600000Y-104800000D03*
%TD*%
D29*
%TO.P,J2,1,Pin_1_1*%
%TO.N,GND*%
X154600000Y-108300000D03*
D30*
%TO.P,J2,2,Pin_2_2*%
%TO.N,Net-(J2-Pin_2)*%
X154600000Y-110300000D03*
%TD*%
D29*
%TO.P,J1,1,Pin_1_1*%
%TO.N,/out+*%
X154600000Y-95500000D03*
D30*
%TO.P,J1,2,Pin_2_2*%
%TO.N,Net-(J1-Pin_2)*%
X154600000Y-97500000D03*
%TD*%
D31*
%TO.N,/vcc*%
X139737500Y-96000000D03*
%TO.N,GND*%
X141635000Y-105175000D03*
X146950000Y-110408500D03*
%TO.N,/out+*%
X145050000Y-110408500D03*
X144600000Y-103600000D03*
%TO.N,Net-(IC1-OD)*%
X145050000Y-107898500D03*
X145600000Y-103600000D03*
%TO.N,GND*%
X150612500Y-100200000D03*
X151500000Y-102500000D03*
%TO.N,Net-(IC1-OC)*%
X146750000Y-101600000D03*
X146950000Y-107898500D03*
%TO.N,/out+*%
X148560000Y-97900000D03*
%TO.N,/vcc*%
X134550000Y-105780000D03*
X143000000Y-105100000D03*
X139200000Y-100200000D03*
X136900000Y-100950000D03*
X134550000Y-100980000D03*
%TD*%
%TO.N,Net-(LED3-K)*%
D32*
X153725000Y-104500000D02*
X151200000Y-104500000D01*
X153800000Y-104425000D02*
X153725000Y-104500000D01*
X153800000Y-104337500D02*
X153800000Y-104425000D01*
%TO.N,Net-(J2-Pin_2)*%
X153800000Y-102862500D02*
X153800000Y-102462500D01*
X148900000Y-104500000D02*
X149900000Y-103500000D01*
X148900000Y-105700000D02*
X148900000Y-104500000D01*
X149900000Y-103500000D02*
X153162500Y-103500000D01*
X153162500Y-103500000D02*
X153800000Y-102862500D01*
%TO.N,/vcc*%
X143662500Y-96000000D02*
X143762500Y-95900000D01*
X139737500Y-96000000D02*
X143662500Y-96000000D01*
%TO.N,Net-(U1-PROG)*%
X138100000Y-107800000D02*
X139900000Y-107800000D01*
X137100000Y-106800000D02*
X138100000Y-107800000D01*
%TO.N,Net-(J1-Pin_2)*%
X143700000Y-100800000D02*
X143480000Y-100800000D01*
X143700000Y-104400000D02*
X143700000Y-100800000D01*
X145900000Y-104400000D02*
X143700000Y-104400000D01*
%TO.N,Net-(U1-~{STDBY})*%
X147700000Y-96900000D02*
X149900000Y-96900000D01*
X147600000Y-97000000D02*
X147700000Y-96900000D01*
X142600000Y-97500000D02*
X147600000Y-97500000D01*
%TO.N,Net-(U1-PROG)*%
X139900000Y-106140000D02*
X140365000Y-105675000D01*
%TO.N,Net-(U1-~{STDBY})*%
X141335000Y-99925000D02*
X141335000Y-98765000D01*
X141635000Y-100225000D02*
X141335000Y-99925000D01*
%TO.N,Net-(U1-~{CHRG})*%
X140065000Y-99925000D02*
X140365000Y-100225000D01*
%TO.N,Net-(U1-PROG)*%
X140365000Y-105675000D02*
X140365000Y-105175000D01*
%TO.N,Net-(U1-~{CHRG})*%
X140065000Y-98865000D02*
X140065000Y-99925000D01*
X138700000Y-97500000D02*
X140065000Y-98865000D01*
X135075000Y-97500000D02*
X138700000Y-97500000D01*
X133375000Y-95800000D02*
X135075000Y-97500000D01*
%TO.N,Net-(U1-PROG)*%
X136600000Y-106800000D02*
X137100000Y-106800000D01*
X139900000Y-107800000D02*
X139900000Y-106140000D01*
%TO.N,Net-(J1-Pin_2)*%
X147150000Y-103400000D02*
X146900000Y-103400000D01*
%TO.N,Net-(U1-~{STDBY})*%
X147600000Y-97500000D02*
X147600000Y-97000000D01*
%TO.N,Net-(J1-Pin_2)*%
X143480000Y-100800000D02*
X142905000Y-100225000D01*
%TO.N,Net-(U1-~{STDBY})*%
X141335000Y-98765000D02*
X142600000Y-97500000D01*
X149900000Y-96212500D02*
X150312500Y-95800000D01*
X149900000Y-96900000D02*
X149900000Y-96212500D01*
%TO.N,Net-(J1-Pin_2)*%
X146900000Y-103400000D02*
X145900000Y-104400000D01*
%TO.N,/out+*%
X144850000Y-98350000D02*
X144850000Y-99000000D01*
X145200000Y-98000000D02*
X144850000Y-98350000D01*
X148000000Y-97900000D02*
X147900000Y-98000000D01*
X148560000Y-97900000D02*
X148000000Y-97900000D01*
X147900000Y-98000000D02*
X145200000Y-98000000D01*
%TO.N,Net-(IC1-VCC)*%
X147500000Y-100200000D02*
X145800000Y-100200000D01*
X147800000Y-99900000D02*
X147500000Y-100200000D01*
X147800000Y-98900000D02*
X147800000Y-99900000D01*
X145800000Y-100200000D02*
X145800000Y-99060000D01*
X149500000Y-98900000D02*
X147800000Y-98900000D01*
X149640000Y-97900000D02*
X149500000Y-98040000D01*
X149500000Y-98040000D02*
X149500000Y-98900000D01*
%TO.N,/out+*%
X144200000Y-103200000D02*
X144600000Y-103600000D01*
X144200000Y-99400000D02*
X144200000Y-103200000D01*
X144850000Y-99000000D02*
X144600000Y-99000000D01*
X144600000Y-99000000D02*
X144200000Y-99400000D01*
%TO.N,Net-(IC1-OD)*%
X144850000Y-102850000D02*
X145600000Y-103600000D01*
X144850000Y-101600000D02*
X144850000Y-102850000D01*
%TO.N,GND*%
X134550000Y-107120000D02*
X133970000Y-107700000D01*
X134550000Y-106580000D02*
X134550000Y-107120000D01*
X134550000Y-99640000D02*
X133970000Y-99060000D01*
X134550000Y-100180000D02*
X134550000Y-99640000D01*
X140600000Y-103100000D02*
X141000000Y-102700000D01*
X139000000Y-103100000D02*
X140600000Y-103100000D01*
X139000000Y-105080000D02*
X139000000Y-103100000D01*
X139095000Y-105175000D02*
X139000000Y-105080000D01*
%TO.N,Net-(IC1-CS)*%
X145800000Y-100900000D02*
X145800000Y-101600000D01*
X146000000Y-100700000D02*
X145800000Y-100900000D01*
X148787500Y-100200000D02*
X148287500Y-100700000D01*
X148287500Y-100700000D02*
X146000000Y-100700000D01*
%TO.N,Net-(J1-Pin_2)*%
X154810000Y-97710000D02*
X154600000Y-97500000D01*
X154810000Y-99900000D02*
X154810000Y-97710000D01*
X154810000Y-100390000D02*
X154810000Y-99900000D01*
X154600000Y-100600000D02*
X154810000Y-100390000D01*
X153100000Y-100600000D02*
X154600000Y-100600000D01*
X152400000Y-101300000D02*
X153100000Y-100600000D01*
X150400000Y-101300000D02*
X152400000Y-101300000D01*
X149800000Y-101900000D02*
X150400000Y-101300000D01*
X149800000Y-102900000D02*
X149800000Y-101900000D01*
X147650000Y-102900000D02*
X149800000Y-102900000D01*
X147150000Y-103400000D02*
X147650000Y-102900000D01*
%TO.N,Net-(J2-Pin_2)*%
X148800000Y-105800000D02*
X148900000Y-105700000D01*
X148800000Y-110000000D02*
X148800000Y-105800000D01*
X149100000Y-110300000D02*
X148800000Y-110000000D01*
X154600000Y-110300000D02*
X149100000Y-110300000D01*
%TO.N,Net-(IC1-VCC)*%
X152900000Y-97900000D02*
X149640000Y-97900000D01*
X153790000Y-98790000D02*
X152900000Y-97900000D01*
X153790000Y-99900000D02*
X153790000Y-98790000D01*
%TO.N,Net-(LED2-K)*%
X148187500Y-96100000D02*
X148487500Y-95800000D01*
X146000000Y-96100000D02*
X148187500Y-96100000D01*
%TO.N,Net-(LED1-K)*%
X135200000Y-95800000D02*
X137425000Y-95800000D01*
X137425000Y-95800000D02*
X137725000Y-96100000D01*
%TD*%
%TA.AperFunction,Conductor*%
%TO.N,GND*%
G36*
X132414518Y-94820185D02*
G01*
X132460273Y-94872989D01*
X132470217Y-94942147D01*
X132453018Y-94989594D01*
X132443595Y-95004873D01*
X132427687Y-95030663D01*
X132427686Y-95030666D01*
X132372501Y-95197203D01*
X132372501Y-95197204D01*
X132372500Y-95197204D01*
X132362000Y-95299983D01*
X132362000Y-96300001D01*
X132362001Y-96300019D01*
X132372500Y-96402796D01*
X132372501Y-96402799D01*
X132427685Y-96569331D01*
X132427687Y-96569336D01*
X132444282Y-96596241D01*
X132519788Y-96718656D01*
X132643844Y-96842712D01*
X132793166Y-96934814D01*
X132959703Y-96989999D01*
X133062491Y-97000500D01*
X133639547Y-97000499D01*
X133706586Y-97020183D01*
X133727228Y-97036818D01*
X134587404Y-97896994D01*
X134588760Y-97898351D01*
X134589690Y-97900055D01*
X134591655Y-97901632D01*
X134591669Y-97901648D01*
X134590917Y-97902305D01*
X134606021Y-97929991D01*
X134622212Y-97959642D01*
X134622210Y-97959665D01*
X134622222Y-97959687D01*
X134619695Y-97994826D01*
X134617228Y-98029334D01*
X134617213Y-98029353D01*
X134617212Y-98029376D01*
X134595989Y-98057704D01*
X134575356Y-98085267D01*
X134575335Y-98085274D01*
X134575320Y-98085295D01*
X134542109Y-98097667D01*
X134509892Y-98109684D01*
X134509850Y-98109685D01*
X134509846Y-98109687D01*
X134509840Y-98109685D01*
X134501046Y-98110000D01*
X134220000Y-98110000D01*
X134220000Y-98760000D01*
X133720000Y-98760000D01*
X133720000Y-98110000D01*
X133326430Y-98110000D01*
X133142902Y-98146506D01*
X133142894Y-98146508D01*
X132970008Y-98218119D01*
X132969999Y-98218124D01*
X132814410Y-98322086D01*
X132814406Y-98322089D01*
X132682089Y-98454406D01*
X132682086Y-98454410D01*
X132578124Y-98609999D01*
X132578119Y-98610008D01*
X132506507Y-98782896D01*
X132506506Y-98782899D01*
X132501115Y-98809999D01*
X132501116Y-98810000D01*
X133253012Y-98810000D01*
X133235795Y-98819940D01*
X133179940Y-98875795D01*
X133140444Y-98944204D01*
X133120000Y-99020504D01*
X133120000Y-99099496D01*
X133140444Y-99175796D01*
X133179940Y-99244205D01*
X133235795Y-99300060D01*
X133253012Y-99310000D01*
X132501116Y-99310000D01*
X132506506Y-99337100D01*
X132506507Y-99337103D01*
X132578119Y-99509991D01*
X132578124Y-99510000D01*
X132682086Y-99665589D01*
X132682089Y-99665593D01*
X132814406Y-99797910D01*
X132814410Y-99797913D01*
X132969999Y-99901875D01*
X132970008Y-99901880D01*
X133031609Y-99927396D01*
X133086012Y-99971237D01*
X133108077Y-100037531D01*
X133090798Y-100105230D01*
X133071839Y-100129637D01*
X133049488Y-100151988D01*
X132977017Y-100277511D01*
X132977016Y-100277515D01*
X132939500Y-100417525D01*
X132939500Y-100562475D01*
X132975958Y-100698537D01*
X132977017Y-100702488D01*
X133049488Y-100828011D01*
X133049490Y-100828013D01*
X133049491Y-100828015D01*
X133151985Y-100930509D01*
X133151986Y-100930510D01*
X133151988Y-100930511D01*
X133277511Y-101002982D01*
X133277512Y-101002982D01*
X133277515Y-101002984D01*
X133377596Y-101029801D01*
X133437254Y-101066164D01*
X133467783Y-101129011D01*
X133468043Y-101130618D01*
X133469500Y-101140037D01*
X133469500Y-101195694D01*
X133472402Y-101232569D01*
X133496808Y-101316574D01*
X133498034Y-101324500D01*
X133494445Y-101351500D01*
X133494368Y-101378730D01*
X133490057Y-101390896D01*
X133487774Y-101396409D01*
X133484312Y-101404766D01*
X133469500Y-101517272D01*
X133469500Y-101742727D01*
X133476520Y-101796045D01*
X133483451Y-101848691D01*
X133485374Y-101863292D01*
X133482399Y-101863683D01*
X133482399Y-101896316D01*
X133485374Y-101896708D01*
X133484313Y-101904762D01*
X133484313Y-101904764D01*
X133484016Y-101907023D01*
X133469500Y-102017272D01*
X133469500Y-102242727D01*
X133485374Y-102363292D01*
X133482399Y-102363683D01*
X133482399Y-102396316D01*
X133485374Y-102396708D01*
X133469500Y-102517272D01*
X133469500Y-102742727D01*
X133485374Y-102863292D01*
X133482399Y-102863683D01*
X133482399Y-102896316D01*
X133485374Y-102896708D01*
X133469500Y-103017272D01*
X133469500Y-103242727D01*
X133485374Y-103363292D01*
X133482399Y-103363683D01*
X133482399Y-103396316D01*
X133485374Y-103396708D01*
X133484313Y-103404762D01*
X133484313Y-103404764D01*
X133480938Y-103430393D01*
X133469500Y-103517272D01*
X133469500Y-103742727D01*
X133485374Y-103863292D01*
X133482399Y-103863683D01*
X133482399Y-103896316D01*
X133485374Y-103896708D01*
X133469500Y-104017272D01*
X133469500Y-104242727D01*
X133485374Y-104363292D01*
X133482399Y-104363683D01*
X133482399Y-104396316D01*
X133485374Y-104396708D01*
X133469500Y-104517272D01*
X133469500Y-104742727D01*
X133474449Y-104780315D01*
X133483333Y-104847795D01*
X133485374Y-104863292D01*
X133482399Y-104863683D01*
X133482399Y-104896316D01*
X133485374Y-104896708D01*
X133469500Y-105017272D01*
X133469500Y-105242727D01*
X133484313Y-105355235D01*
X133490053Y-105369094D01*
X133492077Y-105385941D01*
X133498409Y-105400206D01*
X133496628Y-105423810D01*
X133498033Y-105435498D01*
X133496805Y-105443432D01*
X133472402Y-105527431D01*
X133469500Y-105564306D01*
X133469500Y-105619960D01*
X133468043Y-105629380D01*
X133457078Y-105652726D01*
X133449815Y-105677464D01*
X133442473Y-105683825D01*
X133438342Y-105692623D01*
X133416495Y-105706335D01*
X133397011Y-105723219D01*
X133379657Y-105729457D01*
X133379164Y-105729768D01*
X133378806Y-105729764D01*
X133377598Y-105730198D01*
X133292836Y-105752910D01*
X133277511Y-105757017D01*
X133151988Y-105829488D01*
X133151982Y-105829493D01*
X133049493Y-105931982D01*
X133049488Y-105931988D01*
X132977017Y-106057511D01*
X132977016Y-106057515D01*
X132939500Y-106197525D01*
X132939500Y-106342475D01*
X132977016Y-106482485D01*
X132977017Y-106482488D01*
X133049488Y-106608011D01*
X133049493Y-106608017D01*
X133071837Y-106630361D01*
X133105322Y-106691684D01*
X133100338Y-106761376D01*
X133058466Y-106817309D01*
X133031610Y-106832602D01*
X132970014Y-106858116D01*
X132969999Y-106858124D01*
X132814410Y-106962086D01*
X132814406Y-106962089D01*
X132682089Y-107094406D01*
X132682086Y-107094410D01*
X132578124Y-107249999D01*
X132578119Y-107250008D01*
X132506507Y-107422896D01*
X132506506Y-107422899D01*
X132501115Y-107449999D01*
X132501116Y-107450000D01*
X133253012Y-107450000D01*
X133235795Y-107459940D01*
X133179940Y-107515795D01*
X133140444Y-107584204D01*
X133120000Y-107660504D01*
X133120000Y-107739496D01*
X133140444Y-107815796D01*
X133179940Y-107884205D01*
X133235795Y-107940060D01*
X133253012Y-107950000D01*
X132501116Y-107950000D01*
X132506506Y-107977100D01*
X132506507Y-107977103D01*
X132578119Y-108149991D01*
X132578124Y-108150000D01*
X132682086Y-108305589D01*
X132682089Y-108305593D01*
X132814406Y-108437910D01*
X132814410Y-108437913D01*
X132969999Y-108541875D01*
X132970008Y-108541880D01*
X133142894Y-108613491D01*
X133142902Y-108613493D01*
X133326428Y-108649999D01*
X133326431Y-108650000D01*
X133720000Y-108650000D01*
X133720000Y-108000000D01*
X134220000Y-108000000D01*
X134220000Y-108650000D01*
X134613569Y-108650000D01*
X134613571Y-108649999D01*
X134797097Y-108613493D01*
X134797105Y-108613491D01*
X134969991Y-108541880D01*
X134970000Y-108541875D01*
X135125589Y-108437913D01*
X135125593Y-108437910D01*
X135257910Y-108305593D01*
X135257913Y-108305589D01*
X135361875Y-108150000D01*
X135361880Y-108149991D01*
X135433492Y-107977103D01*
X135433493Y-107977100D01*
X135438884Y-107950000D01*
X134686988Y-107950000D01*
X134704205Y-107940060D01*
X134760060Y-107884205D01*
X134799556Y-107815796D01*
X134820000Y-107739496D01*
X134820000Y-107660504D01*
X134799556Y-107584204D01*
X134760060Y-107515795D01*
X134704205Y-107459940D01*
X134686988Y-107450000D01*
X135384054Y-107450000D01*
X135451093Y-107469685D01*
X135489592Y-107508903D01*
X135557288Y-107618656D01*
X135681344Y-107742712D01*
X135830666Y-107834814D01*
X135997203Y-107889999D01*
X136099991Y-107900500D01*
X137100008Y-107900499D01*
X137100016Y-107900498D01*
X137100019Y-107900498D01*
X137120051Y-107898451D01*
X137202797Y-107889999D01*
X137207266Y-107888517D01*
X137277091Y-107886114D01*
X137333952Y-107918542D01*
X137701263Y-108285855D01*
X137701267Y-108285858D01*
X137803710Y-108354309D01*
X137803711Y-108354309D01*
X137803715Y-108354312D01*
X137870397Y-108381932D01*
X137917548Y-108401463D01*
X137929177Y-108403776D01*
X138018014Y-108421447D01*
X138038393Y-108425501D01*
X138038394Y-108425501D01*
X138167721Y-108425501D01*
X138167741Y-108425500D01*
X139961607Y-108425500D01*
X139961608Y-108425499D01*
X140082452Y-108401463D01*
X140196286Y-108354311D01*
X140298733Y-108285858D01*
X140385858Y-108198733D01*
X140454311Y-108096286D01*
X140501463Y-107982452D01*
X140525500Y-107861606D01*
X140525500Y-106767448D01*
X140545185Y-106700409D01*
X140597989Y-106654654D01*
X140614905Y-106648372D01*
X140639615Y-106641193D01*
X140775398Y-106601744D01*
X140916865Y-106518081D01*
X140916870Y-106518076D01*
X140923026Y-106513301D01*
X140924839Y-106515638D01*
X140973949Y-106488798D01*
X141043643Y-106493756D01*
X141075996Y-106514551D01*
X141077278Y-106512900D01*
X141083447Y-106517685D01*
X141224801Y-106601281D01*
X141382514Y-106647100D01*
X141382511Y-106647100D01*
X141384998Y-106647295D01*
X141385000Y-106647295D01*
X141385000Y-105299000D01*
X141404685Y-105231961D01*
X141457489Y-105186206D01*
X141509000Y-105175000D01*
X141761000Y-105175000D01*
X141828039Y-105194685D01*
X141873794Y-105247489D01*
X141885000Y-105299000D01*
X141885000Y-106647295D01*
X141885001Y-106647295D01*
X141887486Y-106647100D01*
X142045198Y-106601281D01*
X142186550Y-106517686D01*
X142192717Y-106512903D01*
X142194630Y-106515369D01*
X142243222Y-106488802D01*
X142312917Y-106493749D01*
X142345762Y-106514853D01*
X142346969Y-106513298D01*
X142353132Y-106518078D01*
X142353135Y-106518081D01*
X142494602Y-106601744D01*
X142516173Y-106608011D01*
X142652426Y-106647597D01*
X142652429Y-106647597D01*
X142652431Y-106647598D01*
X142689306Y-106650500D01*
X142689314Y-106650500D01*
X143120686Y-106650500D01*
X143120694Y-106650500D01*
X143157569Y-106647598D01*
X143157571Y-106647597D01*
X143157573Y-106647597D01*
X143201534Y-106634825D01*
X143315398Y-106601744D01*
X143456865Y-106518081D01*
X143573081Y-106401865D01*
X143656744Y-106260398D01*
X143702598Y-106102569D01*
X143705500Y-106065694D01*
X143705500Y-105513244D01*
X143714939Y-105465791D01*
X143769737Y-105333497D01*
X143800500Y-105178842D01*
X143800500Y-105149500D01*
X143820185Y-105082461D01*
X143872989Y-105036706D01*
X143924500Y-105025500D01*
X144275500Y-105025500D01*
X144342539Y-105045185D01*
X144388294Y-105097989D01*
X144399500Y-105149500D01*
X144399500Y-106300001D01*
X144399501Y-106300018D01*
X144410000Y-106402796D01*
X144410001Y-106402799D01*
X144448201Y-106518076D01*
X144465186Y-106569334D01*
X144557288Y-106718656D01*
X144557289Y-106718657D01*
X144557290Y-106718658D01*
X144561766Y-106724319D01*
X144559557Y-106726065D01*
X144586861Y-106776067D01*
X144581877Y-106845759D01*
X144540005Y-106901692D01*
X144528817Y-106909157D01*
X144502180Y-106924910D01*
X144502174Y-106924914D01*
X144386414Y-107040674D01*
X144386408Y-107040682D01*
X144303068Y-107181604D01*
X144303066Y-107181607D01*
X144257391Y-107338820D01*
X144257390Y-107338826D01*
X144254500Y-107375552D01*
X144254500Y-107375560D01*
X144254500Y-107794521D01*
X144249500Y-107819658D01*
X144249500Y-107977342D01*
X144254500Y-108002478D01*
X144254500Y-108421447D01*
X144257390Y-108458173D01*
X144257391Y-108458179D01*
X144303066Y-108615392D01*
X144303068Y-108615395D01*
X144303069Y-108615397D01*
X144319739Y-108643584D01*
X144386408Y-108756317D01*
X144386414Y-108756325D01*
X144502174Y-108872085D01*
X144502178Y-108872088D01*
X144502180Y-108872090D01*
X144643103Y-108955431D01*
X144643104Y-108955431D01*
X144643107Y-108955433D01*
X144800320Y-109001108D01*
X144800323Y-109001108D01*
X144800325Y-109001109D01*
X144837060Y-109004000D01*
X144837068Y-109004000D01*
X145262932Y-109004000D01*
X145262940Y-109004000D01*
X145299675Y-109001109D01*
X145299677Y-109001108D01*
X145299679Y-109001108D01*
X145456892Y-108955433D01*
X145456893Y-108955432D01*
X145456897Y-108955431D01*
X145461877Y-108952485D01*
X145468401Y-108950830D01*
X145473489Y-108946422D01*
X145501836Y-108942346D01*
X145529600Y-108935301D01*
X145535984Y-108937435D01*
X145542647Y-108936478D01*
X145588122Y-108952485D01*
X145593103Y-108955431D01*
X145593104Y-108955431D01*
X145593107Y-108955433D01*
X145750320Y-109001108D01*
X145750323Y-109001108D01*
X145750325Y-109001109D01*
X145787060Y-109004000D01*
X145787068Y-109004000D01*
X146212932Y-109004000D01*
X146212940Y-109004000D01*
X146249675Y-109001109D01*
X146249677Y-109001108D01*
X146249679Y-109001108D01*
X146406892Y-108955433D01*
X146406893Y-108955432D01*
X146406897Y-108955431D01*
X146411877Y-108952485D01*
X146418241Y-108950870D01*
X146423195Y-108946556D01*
X146451686Y-108942384D01*
X146479600Y-108935301D01*
X146485830Y-108937384D01*
X146492328Y-108936433D01*
X146538122Y-108952485D01*
X146543103Y-108955431D01*
X146543104Y-108955431D01*
X146543107Y-108955433D01*
X146700320Y-109001108D01*
X146700323Y-109001108D01*
X146700325Y-109001109D01*
X146737060Y-109004000D01*
X146737068Y-109004000D01*
X147162932Y-109004000D01*
X147162940Y-109004000D01*
X147199675Y-109001109D01*
X147199677Y-109001108D01*
X147199679Y-109001108D01*
X147356892Y-108955433D01*
X147356893Y-108955432D01*
X147356897Y-108955431D01*
X147497820Y-108872090D01*
X147613590Y-108756320D01*
X147696931Y-108615397D01*
X147696932Y-108615393D01*
X147696933Y-108615392D01*
X147742608Y-108458179D01*
X147742609Y-108458173D01*
X147745500Y-108421440D01*
X147745500Y-108002478D01*
X147750500Y-107977342D01*
X147750500Y-107819658D01*
X147745500Y-107794521D01*
X147745500Y-107375560D01*
X147742609Y-107338825D01*
X147732142Y-107302797D01*
X147696933Y-107181607D01*
X147696931Y-107181604D01*
X147696931Y-107181603D01*
X147613590Y-107040680D01*
X147613588Y-107040678D01*
X147613585Y-107040674D01*
X147497825Y-106924914D01*
X147497817Y-106924908D01*
X147384882Y-106858119D01*
X147356897Y-106841569D01*
X147356896Y-106841568D01*
X147356895Y-106841568D01*
X147356892Y-106841566D01*
X147199679Y-106795891D01*
X147199673Y-106795890D01*
X147162947Y-106793000D01*
X147162940Y-106793000D01*
X146737060Y-106793000D01*
X146737052Y-106793000D01*
X146700326Y-106795890D01*
X146700320Y-106795891D01*
X146543103Y-106841568D01*
X146543102Y-106841568D01*
X146538113Y-106844519D01*
X146470388Y-106861696D01*
X146433051Y-106854471D01*
X146421989Y-106850494D01*
X146406897Y-106841569D01*
X146356153Y-106826826D01*
X146352514Y-106825518D01*
X146327296Y-106807104D01*
X146300982Y-106790299D01*
X146299312Y-106786669D01*
X146296086Y-106784314D01*
X146284827Y-106755190D01*
X146271776Y-106726826D01*
X146272333Y-106722870D01*
X146270893Y-106719145D01*
X146277166Y-106688559D01*
X146281522Y-106657640D01*
X146284753Y-106651568D01*
X146284932Y-106650700D01*
X146285556Y-106650060D01*
X146288925Y-106643732D01*
X146310956Y-106608015D01*
X146334814Y-106569334D01*
X146389999Y-106402797D01*
X146400500Y-106300009D01*
X146400499Y-105099992D01*
X146389999Y-104997203D01*
X146363627Y-104917621D01*
X146363093Y-104902096D01*
X146357655Y-104887542D01*
X146361917Y-104867890D01*
X146361226Y-104847795D01*
X146369378Y-104833489D01*
X146372465Y-104819260D01*
X146393536Y-104791099D01*
X146393598Y-104790992D01*
X146394404Y-104790185D01*
X146396022Y-104788566D01*
X146396026Y-104788564D01*
X146396060Y-104788531D01*
X146396067Y-104788521D01*
X146503382Y-104681206D01*
X146564703Y-104647723D01*
X146630064Y-104651182D01*
X146747203Y-104689999D01*
X146849991Y-104700500D01*
X147450008Y-104700499D01*
X147450016Y-104700498D01*
X147450019Y-104700498D01*
X147506302Y-104694748D01*
X147552797Y-104689999D01*
X147719334Y-104634814D01*
X147865843Y-104544446D01*
X147933235Y-104526007D01*
X147999898Y-104546930D01*
X148044668Y-104600572D01*
X148053329Y-104669902D01*
X148036478Y-104715082D01*
X147965189Y-104830659D01*
X147965185Y-104830668D01*
X147942208Y-104900008D01*
X147910001Y-104997203D01*
X147910001Y-104997204D01*
X147910000Y-104997204D01*
X147899500Y-105099983D01*
X147899500Y-106300001D01*
X147899501Y-106300018D01*
X147910000Y-106402796D01*
X147910001Y-106402799D01*
X147965185Y-106569331D01*
X147965187Y-106569336D01*
X147985177Y-106601745D01*
X148046033Y-106700409D01*
X148057289Y-106718657D01*
X148138181Y-106799549D01*
X148171666Y-106860872D01*
X148174500Y-106887230D01*
X148174500Y-110061606D01*
X148197055Y-110175003D01*
X148197056Y-110175008D01*
X148197055Y-110175008D01*
X148198536Y-110182447D01*
X148198539Y-110182458D01*
X148245685Y-110296280D01*
X148245687Y-110296283D01*
X148245688Y-110296286D01*
X148279915Y-110347509D01*
X148314142Y-110398733D01*
X148401267Y-110485858D01*
X148401270Y-110485860D01*
X148408554Y-110493144D01*
X148520904Y-110605494D01*
X148554389Y-110666817D01*
X148549405Y-110736509D01*
X148507533Y-110792442D01*
X148442069Y-110816859D01*
X148433491Y-110817175D01*
X147869267Y-110818396D01*
X147802185Y-110798856D01*
X147756316Y-110746151D01*
X147744999Y-110694395D01*
X147744999Y-110658500D01*
X147074000Y-110658500D01*
X147006961Y-110638815D01*
X146961206Y-110586011D01*
X146950000Y-110534500D01*
X146950000Y-110408500D01*
X146919500Y-110408500D01*
X146852461Y-110388815D01*
X146806706Y-110336011D01*
X146795500Y-110284500D01*
X146795500Y-109885567D01*
X146795499Y-109885552D01*
X146792609Y-109848826D01*
X146792608Y-109848820D01*
X146746933Y-109691607D01*
X146746932Y-109691606D01*
X146746931Y-109691604D01*
X146746931Y-109691603D01*
X146717266Y-109641443D01*
X146700000Y-109578324D01*
X146700000Y-109306506D01*
X147200000Y-109306506D01*
X147200000Y-110158500D01*
X147744999Y-110158500D01*
X147744999Y-109885624D01*
X147744998Y-109885602D01*
X147742110Y-109848902D01*
X147696470Y-109691807D01*
X147696468Y-109691802D01*
X147613193Y-109550991D01*
X147613187Y-109550983D01*
X147497516Y-109435312D01*
X147497508Y-109435306D01*
X147356695Y-109352030D01*
X147356692Y-109352028D01*
X147200001Y-109306505D01*
X147200000Y-109306506D01*
X146700000Y-109306506D01*
X146699998Y-109306505D01*
X146543308Y-109352029D01*
X146543294Y-109352034D01*
X146538605Y-109354808D01*
X146532244Y-109356421D01*
X146527296Y-109360732D01*
X146498795Y-109364905D01*
X146470879Y-109371986D01*
X146464077Y-109369988D01*
X146458163Y-109370855D01*
X146441886Y-109363473D01*
X146412376Y-109354808D01*
X146406901Y-109351570D01*
X146406892Y-109351567D01*
X146249679Y-109305891D01*
X146249673Y-109305890D01*
X146212947Y-109303000D01*
X146212940Y-109303000D01*
X145787060Y-109303000D01*
X145787052Y-109303000D01*
X145750326Y-109305890D01*
X145750320Y-109305891D01*
X145593103Y-109351568D01*
X145593102Y-109351568D01*
X145588113Y-109354519D01*
X145581592Y-109356172D01*
X145576511Y-109360576D01*
X145548157Y-109364652D01*
X145520388Y-109371696D01*
X145513414Y-109369648D01*
X145507353Y-109370520D01*
X145491093Y-109363094D01*
X145461887Y-109354519D01*
X145456896Y-109351568D01*
X145299679Y-109305891D01*
X145299673Y-109305890D01*
X145262947Y-109303000D01*
X145262940Y-109303000D01*
X144837060Y-109303000D01*
X144837052Y-109303000D01*
X144800326Y-109305890D01*
X144800320Y-109305891D01*
X144643107Y-109351566D01*
X144643104Y-109351568D01*
X144502182Y-109434908D01*
X144502174Y-109434914D01*
X144386414Y-109550674D01*
X144386408Y-109550682D01*
X144303068Y-109691604D01*
X144303066Y-109691607D01*
X144257391Y-109848820D01*
X144257390Y-109848826D01*
X144254500Y-109885552D01*
X144254500Y-109885560D01*
X144254500Y-110304521D01*
X144249500Y-110329658D01*
X144249500Y-110487342D01*
X144254500Y-110512478D01*
X144254500Y-110702488D01*
X144234815Y-110769527D01*
X144182011Y-110815282D01*
X144130768Y-110826488D01*
X129260342Y-110858676D01*
X129193260Y-110839136D01*
X129147391Y-110786431D01*
X129136074Y-110734946D01*
X129131814Y-108766624D01*
X129151353Y-108699547D01*
X129204057Y-108653677D01*
X129273194Y-108643584D01*
X129280007Y-108644743D01*
X129306433Y-108650000D01*
X129550000Y-108650000D01*
X129550000Y-108000000D01*
X130050000Y-108000000D01*
X130050000Y-108650000D01*
X130293569Y-108650000D01*
X130293571Y-108649999D01*
X130477097Y-108613493D01*
X130477105Y-108613491D01*
X130649991Y-108541880D01*
X130650000Y-108541875D01*
X130805589Y-108437913D01*
X130805593Y-108437910D01*
X130937910Y-108305593D01*
X130937913Y-108305589D01*
X131041875Y-108150000D01*
X131041880Y-108149991D01*
X131113492Y-107977103D01*
X131113493Y-107977100D01*
X131118884Y-107950000D01*
X130366988Y-107950000D01*
X130384205Y-107940060D01*
X130440060Y-107884205D01*
X130479556Y-107815796D01*
X130500000Y-107739496D01*
X130500000Y-107660504D01*
X130479556Y-107584204D01*
X130440060Y-107515795D01*
X130384205Y-107459940D01*
X130366988Y-107450000D01*
X131118884Y-107450000D01*
X131118884Y-107449999D01*
X131113493Y-107422899D01*
X131113492Y-107422896D01*
X131041880Y-107250008D01*
X131041875Y-107249999D01*
X130937913Y-107094410D01*
X130937910Y-107094406D01*
X130805593Y-106962089D01*
X130805589Y-106962086D01*
X130650000Y-106858124D01*
X130649991Y-106858119D01*
X130477105Y-106786508D01*
X130477097Y-106786506D01*
X130293570Y-106750000D01*
X130050000Y-106750000D01*
X130050000Y-107400000D01*
X129550000Y-107400000D01*
X129550000Y-106750000D01*
X129306434Y-106750000D01*
X129275389Y-106756175D01*
X129205798Y-106749946D01*
X129150621Y-106707083D01*
X129127377Y-106641193D01*
X129127199Y-106634854D01*
X129113104Y-100122905D01*
X129132644Y-100055825D01*
X129185349Y-100009956D01*
X129254485Y-99999863D01*
X129261296Y-100001022D01*
X129306430Y-100010000D01*
X129550000Y-100010000D01*
X129550000Y-99360000D01*
X130050000Y-99360000D01*
X130050000Y-100010000D01*
X130293569Y-100010000D01*
X130293571Y-100009999D01*
X130477097Y-99973493D01*
X130477105Y-99973491D01*
X130649991Y-99901880D01*
X130650000Y-99901875D01*
X130805589Y-99797913D01*
X130805593Y-99797910D01*
X130937910Y-99665593D01*
X130937913Y-99665589D01*
X131041875Y-99510000D01*
X131041880Y-99509991D01*
X131113492Y-99337103D01*
X131113493Y-99337100D01*
X131118884Y-99310000D01*
X130366988Y-99310000D01*
X130384205Y-99300060D01*
X130440060Y-99244205D01*
X130479556Y-99175796D01*
X130500000Y-99099496D01*
X130500000Y-99020504D01*
X130479556Y-98944204D01*
X130440060Y-98875795D01*
X130384205Y-98819940D01*
X130366988Y-98810000D01*
X131118884Y-98810000D01*
X131118884Y-98809999D01*
X131113493Y-98782899D01*
X131113492Y-98782896D01*
X131041880Y-98610008D01*
X131041875Y-98609999D01*
X130937913Y-98454410D01*
X130937910Y-98454406D01*
X130805593Y-98322089D01*
X130805589Y-98322086D01*
X130650000Y-98218124D01*
X130649991Y-98218119D01*
X130477105Y-98146508D01*
X130477097Y-98146506D01*
X130293570Y-98110000D01*
X130050000Y-98110000D01*
X130050000Y-98760000D01*
X129550000Y-98760000D01*
X129550000Y-98110000D01*
X129306433Y-98110000D01*
X129256696Y-98119893D01*
X129187105Y-98113664D01*
X129131928Y-98070801D01*
X129108684Y-98004911D01*
X129108506Y-97998543D01*
X129108296Y-97901648D01*
X129101853Y-94924768D01*
X129121393Y-94857686D01*
X129174098Y-94811817D01*
X129225853Y-94800500D01*
X132347479Y-94800500D01*
X132414518Y-94820185D01*
G37*
%TD.AperFunction*%
%TA.AperFunction,Conductor*%
G36*
X155054954Y-104973852D02*
G01*
X155093810Y-105031921D01*
X155099500Y-105069052D01*
X155099500Y-107001000D01*
X155079815Y-107068039D01*
X155027011Y-107113794D01*
X154975500Y-107125000D01*
X154850000Y-107125000D01*
X154850000Y-107984314D01*
X154845606Y-107979920D01*
X154754394Y-107927259D01*
X154652661Y-107900000D01*
X154547339Y-107900000D01*
X154445606Y-107927259D01*
X154354394Y-107979920D01*
X154350000Y-107984314D01*
X154350000Y-107125000D01*
X153877155Y-107125000D01*
X153817627Y-107131401D01*
X153817620Y-107131403D01*
X153682913Y-107181645D01*
X153682906Y-107181649D01*
X153567812Y-107267809D01*
X153567809Y-107267812D01*
X153481649Y-107382906D01*
X153481645Y-107382913D01*
X153431403Y-107517620D01*
X153431401Y-107517627D01*
X153425000Y-107577155D01*
X153425000Y-108050000D01*
X154284314Y-108050000D01*
X154279920Y-108054394D01*
X154227259Y-108145606D01*
X154200000Y-108247339D01*
X154200000Y-108352661D01*
X154227259Y-108454394D01*
X154279920Y-108545606D01*
X154284314Y-108550000D01*
X153425000Y-108550000D01*
X153425000Y-109022844D01*
X153431401Y-109082372D01*
X153431403Y-109082379D01*
X153481645Y-109217086D01*
X153481649Y-109217093D01*
X153567809Y-109332187D01*
X153652833Y-109395837D01*
X153657723Y-109402369D01*
X153664941Y-109406178D01*
X153678355Y-109429932D01*
X153694703Y-109451771D01*
X153695285Y-109459911D01*
X153699298Y-109467017D01*
X153697740Y-109494251D01*
X153699687Y-109521463D01*
X153695673Y-109530420D01*
X153695310Y-109536773D01*
X153678839Y-109567988D01*
X153638591Y-109623385D01*
X153583262Y-109666051D01*
X153538273Y-109674500D01*
X149549500Y-109674500D01*
X149482461Y-109654815D01*
X149436706Y-109602011D01*
X149425500Y-109550500D01*
X149425500Y-107031057D01*
X149445185Y-106964018D01*
X149484401Y-106925520D01*
X149618656Y-106842712D01*
X149742712Y-106718656D01*
X149834814Y-106569334D01*
X149889999Y-106402797D01*
X149900500Y-106300009D01*
X149900499Y-105339571D01*
X149920183Y-105272533D01*
X149972987Y-105226778D01*
X150042146Y-105216834D01*
X150105702Y-105245859D01*
X150130038Y-105274476D01*
X150155086Y-105315087D01*
X150157288Y-105318656D01*
X150281344Y-105442712D01*
X150430666Y-105534814D01*
X150597203Y-105589999D01*
X150699991Y-105600500D01*
X151700008Y-105600499D01*
X151700016Y-105600498D01*
X151700019Y-105600498D01*
X151756302Y-105594748D01*
X151802797Y-105589999D01*
X151969334Y-105534814D01*
X152118656Y-105442712D01*
X152242712Y-105318656D01*
X152325519Y-105184402D01*
X152377467Y-105137679D01*
X152431058Y-105125500D01*
X152784109Y-105125500D01*
X152851148Y-105145185D01*
X152871790Y-105161819D01*
X152878996Y-105169025D01*
X152879000Y-105169028D01*
X153027066Y-105260357D01*
X153027069Y-105260358D01*
X153027075Y-105260362D01*
X153192225Y-105315087D01*
X153294152Y-105325500D01*
X153294157Y-105325500D01*
X154305843Y-105325500D01*
X154305848Y-105325500D01*
X154407775Y-105315087D01*
X154572925Y-105260362D01*
X154721003Y-105169026D01*
X154844026Y-105046003D01*
X154869962Y-105003953D01*
X154921909Y-104957231D01*
X154990872Y-104946008D01*
X155054954Y-104973852D01*
G37*
%TD.AperFunction*%
%TA.AperFunction,Conductor*%
G36*
X138280088Y-101258245D02*
G01*
X138336162Y-101299928D01*
X138343878Y-101311451D01*
X138426916Y-101451861D01*
X138426923Y-101451870D01*
X138543129Y-101568076D01*
X138543133Y-101568079D01*
X138543135Y-101568081D01*
X138684602Y-101651744D01*
X138714165Y-101660333D01*
X138842426Y-101697597D01*
X138842429Y-101697597D01*
X138842431Y-101697598D01*
X138879306Y-101700500D01*
X138879314Y-101700500D01*
X138943786Y-101700500D01*
X139010825Y-101720185D01*
X139056580Y-101772989D01*
X139066524Y-101842147D01*
X139065403Y-101848691D01*
X139050000Y-101926126D01*
X139050000Y-102073873D01*
X139078820Y-102218759D01*
X139078822Y-102218767D01*
X139122421Y-102324024D01*
X139466336Y-101980109D01*
X139700000Y-101980109D01*
X139700000Y-102019891D01*
X139715224Y-102056645D01*
X139743355Y-102084776D01*
X139780109Y-102100000D01*
X139819891Y-102100000D01*
X139856645Y-102084776D01*
X139884776Y-102056645D01*
X139900000Y-102019891D01*
X139900000Y-101980109D01*
X139884776Y-101943355D01*
X139856645Y-101915224D01*
X139819891Y-101900000D01*
X139780109Y-101900000D01*
X139743355Y-101915224D01*
X139715224Y-101943355D01*
X139700000Y-101980109D01*
X139466336Y-101980109D01*
X139623222Y-101823223D01*
X139786110Y-101660333D01*
X139847433Y-101626848D01*
X139917125Y-101631832D01*
X139936906Y-101641278D01*
X139954602Y-101651744D01*
X139954604Y-101651744D01*
X139954605Y-101651745D01*
X140112426Y-101697597D01*
X140112429Y-101697597D01*
X140112431Y-101697598D01*
X140149306Y-101700500D01*
X140149314Y-101700500D01*
X140153692Y-101700500D01*
X140220731Y-101720185D01*
X140266486Y-101772989D01*
X140276430Y-101842147D01*
X140247405Y-101905703D01*
X140241373Y-101912181D01*
X140153554Y-102000000D01*
X140400000Y-102246446D01*
X140646446Y-102000000D01*
X140626555Y-101980109D01*
X140900000Y-101980109D01*
X140900000Y-102019891D01*
X140915224Y-102056645D01*
X140943355Y-102084776D01*
X140980109Y-102100000D01*
X141019891Y-102100000D01*
X141056645Y-102084776D01*
X141084776Y-102056645D01*
X141100000Y-102019891D01*
X141100000Y-101980109D01*
X141084776Y-101943355D01*
X141056645Y-101915224D01*
X141019891Y-101900000D01*
X140980109Y-101900000D01*
X140943355Y-101915224D01*
X140915224Y-101943355D01*
X140900000Y-101980109D01*
X140626555Y-101980109D01*
X140553469Y-101907023D01*
X140519984Y-101845700D01*
X140524968Y-101776008D01*
X140566840Y-101720075D01*
X140611799Y-101700449D01*
X140611485Y-101699366D01*
X140690154Y-101676509D01*
X140775398Y-101651744D01*
X140837073Y-101615269D01*
X140900193Y-101598001D01*
X141099806Y-101598001D01*
X141121051Y-101604239D01*
X141143138Y-101605819D01*
X141162921Y-101615266D01*
X141224602Y-101651744D01*
X141254165Y-101660333D01*
X141388515Y-101699366D01*
X141388080Y-101700860D01*
X141443536Y-101728765D01*
X141479061Y-101788929D01*
X141476421Y-101858749D01*
X141446531Y-101907023D01*
X141353554Y-102000000D01*
X141600000Y-102246446D01*
X141846446Y-102000000D01*
X141826555Y-101980109D01*
X142100000Y-101980109D01*
X142100000Y-102019891D01*
X142115224Y-102056645D01*
X142143355Y-102084776D01*
X142180109Y-102100000D01*
X142219891Y-102100000D01*
X142256645Y-102084776D01*
X142284776Y-102056645D01*
X142300000Y-102019891D01*
X142300000Y-101980109D01*
X142284776Y-101943355D01*
X142256645Y-101915224D01*
X142219891Y-101900000D01*
X142180109Y-101900000D01*
X142143355Y-101915224D01*
X142115224Y-101943355D01*
X142100000Y-101980109D01*
X141826555Y-101980109D01*
X141758627Y-101912181D01*
X141725142Y-101850858D01*
X141730126Y-101781166D01*
X141771998Y-101725233D01*
X141837462Y-101700816D01*
X141846308Y-101700500D01*
X141850686Y-101700500D01*
X141850694Y-101700500D01*
X141887569Y-101697598D01*
X141887571Y-101697597D01*
X141887573Y-101697597D01*
X141933337Y-101684301D01*
X142045398Y-101651744D01*
X142063085Y-101641283D01*
X142090686Y-101634280D01*
X142117361Y-101624331D01*
X142124110Y-101625799D01*
X142130807Y-101624100D01*
X142157814Y-101633131D01*
X142185634Y-101639183D01*
X142193482Y-101645058D01*
X142197070Y-101646258D01*
X142213887Y-101660333D01*
X142376777Y-101823223D01*
X142877577Y-102324024D01*
X142926308Y-102314331D01*
X142995900Y-102320558D01*
X143051077Y-102363421D01*
X143074322Y-102429311D01*
X143074500Y-102435948D01*
X143074500Y-102964050D01*
X143054815Y-103031089D01*
X143002011Y-103076844D01*
X142932853Y-103086788D01*
X142926310Y-103085668D01*
X142877577Y-103075974D01*
X142376777Y-103576777D01*
X141842204Y-104111350D01*
X141780881Y-104144835D01*
X141711189Y-104139851D01*
X141666842Y-104111350D01*
X141600000Y-104044508D01*
X141533158Y-104111350D01*
X141471835Y-104144835D01*
X141402143Y-104139851D01*
X141357796Y-104111350D01*
X141000000Y-103753554D01*
X140999999Y-103753554D01*
X140987873Y-103765680D01*
X140926550Y-103799164D01*
X140856858Y-103794179D01*
X140837072Y-103784730D01*
X140819263Y-103774198D01*
X140775398Y-103748256D01*
X140775397Y-103748255D01*
X140775396Y-103748255D01*
X140775393Y-103748254D01*
X140611485Y-103700634D01*
X140611917Y-103699143D01*
X140556449Y-103671220D01*
X140520933Y-103611051D01*
X140523585Y-103541232D01*
X140553469Y-103492975D01*
X140646445Y-103399999D01*
X140626555Y-103380109D01*
X140900000Y-103380109D01*
X140900000Y-103419891D01*
X140915224Y-103456645D01*
X140943355Y-103484776D01*
X140980109Y-103500000D01*
X141019891Y-103500000D01*
X141056645Y-103484776D01*
X141084776Y-103456645D01*
X141100000Y-103419891D01*
X141100000Y-103400000D01*
X141353554Y-103400000D01*
X141600000Y-103646446D01*
X141846446Y-103400000D01*
X141826555Y-103380109D01*
X142100000Y-103380109D01*
X142100000Y-103419891D01*
X142115224Y-103456645D01*
X142143355Y-103484776D01*
X142180109Y-103500000D01*
X142219891Y-103500000D01*
X142256645Y-103484776D01*
X142284776Y-103456645D01*
X142300000Y-103419891D01*
X142300000Y-103380109D01*
X142284776Y-103343355D01*
X142256645Y-103315224D01*
X142219891Y-103300000D01*
X142180109Y-103300000D01*
X142143355Y-103315224D01*
X142115224Y-103343355D01*
X142100000Y-103380109D01*
X141826555Y-103380109D01*
X141600000Y-103153554D01*
X141353554Y-103400000D01*
X141100000Y-103400000D01*
X141100000Y-103380109D01*
X141084776Y-103343355D01*
X141056645Y-103315224D01*
X141019891Y-103300000D01*
X140980109Y-103300000D01*
X140943355Y-103315224D01*
X140915224Y-103343355D01*
X140900000Y-103380109D01*
X140626555Y-103380109D01*
X140400000Y-103153554D01*
X140153554Y-103400000D01*
X140241373Y-103487819D01*
X140274858Y-103549142D01*
X140269874Y-103618834D01*
X140228002Y-103674767D01*
X140162538Y-103699184D01*
X140153692Y-103699500D01*
X140149298Y-103699500D01*
X140112432Y-103702401D01*
X140112426Y-103702402D01*
X139954606Y-103748254D01*
X139954601Y-103748256D01*
X139936908Y-103758719D01*
X139909311Y-103765719D01*
X139882638Y-103775668D01*
X139875883Y-103774198D01*
X139869184Y-103775898D01*
X139842185Y-103766867D01*
X139814365Y-103760816D01*
X139806510Y-103754936D01*
X139802922Y-103753736D01*
X139786111Y-103739665D01*
X139623223Y-103576777D01*
X139426555Y-103380109D01*
X139700000Y-103380109D01*
X139700000Y-103419891D01*
X139715224Y-103456645D01*
X139743355Y-103484776D01*
X139780109Y-103500000D01*
X139819891Y-103500000D01*
X139856645Y-103484776D01*
X139884776Y-103456645D01*
X139900000Y-103419891D01*
X139900000Y-103380109D01*
X139884776Y-103343355D01*
X139856645Y-103315224D01*
X139819891Y-103300000D01*
X139780109Y-103300000D01*
X139743355Y-103315224D01*
X139715224Y-103343355D01*
X139700000Y-103380109D01*
X139426555Y-103380109D01*
X139122421Y-103075974D01*
X139122420Y-103075974D01*
X139078823Y-103181228D01*
X139078820Y-103181240D01*
X139050000Y-103326126D01*
X139050000Y-103473871D01*
X139049999Y-103473871D01*
X139065503Y-103551808D01*
X139059276Y-103621400D01*
X139016413Y-103676577D01*
X138950524Y-103699822D01*
X138943886Y-103700000D01*
X138879350Y-103700000D01*
X138842510Y-103702899D01*
X138842504Y-103702900D01*
X138684806Y-103748716D01*
X138684803Y-103748717D01*
X138543447Y-103832314D01*
X138543438Y-103832321D01*
X138427321Y-103948438D01*
X138427314Y-103948447D01*
X138343717Y-104089803D01*
X138343716Y-104089806D01*
X138297900Y-104247504D01*
X138297899Y-104247510D01*
X138295000Y-104284350D01*
X138295000Y-104925000D01*
X138971000Y-104925000D01*
X139038039Y-104944685D01*
X139083794Y-104997489D01*
X139095000Y-105049000D01*
X139095000Y-105175000D01*
X139221000Y-105175000D01*
X139288039Y-105194685D01*
X139333794Y-105247489D01*
X139345000Y-105299000D01*
X139345000Y-105820711D01*
X139343373Y-105828886D01*
X139344290Y-105833964D01*
X139335562Y-105868159D01*
X139329643Y-105882451D01*
X139298538Y-105957544D01*
X139298535Y-105957556D01*
X139274500Y-106078389D01*
X139274500Y-107050500D01*
X139254815Y-107117539D01*
X139202011Y-107163294D01*
X139150500Y-107174500D01*
X138410453Y-107174500D01*
X138343414Y-107154815D01*
X138322772Y-107138181D01*
X137836818Y-106652227D01*
X137803333Y-106590904D01*
X137800499Y-106564546D01*
X137800499Y-106399998D01*
X137800498Y-106399981D01*
X137789999Y-106297203D01*
X137789998Y-106297200D01*
X137777735Y-106260193D01*
X137734814Y-106130666D01*
X137694711Y-106065649D01*
X138295000Y-106065649D01*
X138297899Y-106102489D01*
X138297900Y-106102495D01*
X138343716Y-106260193D01*
X138343717Y-106260196D01*
X138427314Y-106401552D01*
X138427321Y-106401561D01*
X138543438Y-106517678D01*
X138543447Y-106517685D01*
X138684801Y-106601281D01*
X138842514Y-106647100D01*
X138842511Y-106647100D01*
X138844998Y-106647295D01*
X138845000Y-106647295D01*
X138845000Y-105425000D01*
X138295000Y-105425000D01*
X138295000Y-106065649D01*
X137694711Y-106065649D01*
X137642712Y-105981344D01*
X137548695Y-105887327D01*
X137515210Y-105826004D01*
X137520194Y-105756312D01*
X137548695Y-105711964D01*
X137642317Y-105618342D01*
X137734356Y-105469124D01*
X137734358Y-105469119D01*
X137778922Y-105334634D01*
X137778922Y-105334633D01*
X137789505Y-105302694D01*
X137789506Y-105302690D01*
X137799999Y-105199986D01*
X137800000Y-105199973D01*
X137800000Y-105050000D01*
X136724000Y-105050000D01*
X136656961Y-105030315D01*
X136611206Y-104977511D01*
X136600000Y-104926000D01*
X136600000Y-104800000D01*
X136474000Y-104800000D01*
X136406961Y-104780315D01*
X136361206Y-104727511D01*
X136350000Y-104676000D01*
X136350000Y-104550000D01*
X136850000Y-104550000D01*
X137799999Y-104550000D01*
X137799999Y-104400028D01*
X137799998Y-104400013D01*
X137789505Y-104297302D01*
X137734358Y-104130880D01*
X137734356Y-104130875D01*
X137642315Y-103981654D01*
X137518345Y-103857684D01*
X137369124Y-103765643D01*
X137369119Y-103765641D01*
X137202697Y-103710494D01*
X137202690Y-103710493D01*
X137099986Y-103700000D01*
X136850000Y-103700000D01*
X136850000Y-104550000D01*
X136350000Y-104550000D01*
X136350000Y-103700000D01*
X136100029Y-103700000D01*
X136100012Y-103700001D01*
X135997302Y-103710494D01*
X135830880Y-103765641D01*
X135830868Y-103765647D01*
X135819594Y-103772601D01*
X135752201Y-103791040D01*
X135685538Y-103770116D01*
X135640770Y-103716472D01*
X135630500Y-103667061D01*
X135630500Y-103517286D01*
X135630500Y-103517280D01*
X135615687Y-103404764D01*
X135615686Y-103404763D01*
X135614626Y-103396705D01*
X135617689Y-103396301D01*
X135617689Y-103363698D01*
X135614626Y-103363295D01*
X135620253Y-103320552D01*
X135630500Y-103242720D01*
X135630500Y-103017280D01*
X135615687Y-102904764D01*
X135615686Y-102904763D01*
X135614626Y-102896705D01*
X135616166Y-102896502D01*
X135613729Y-102871317D01*
X135614688Y-102857646D01*
X135615687Y-102855236D01*
X135630500Y-102742720D01*
X135630500Y-102677930D01*
X139475622Y-102677930D01*
X139475622Y-102722068D01*
X139800000Y-103046446D01*
X139800001Y-103046446D01*
X140124376Y-102722069D01*
X140124376Y-102715852D01*
X140122486Y-102711049D01*
X140124261Y-102677930D01*
X140675622Y-102677930D01*
X140675622Y-102722068D01*
X141000000Y-103046446D01*
X141000001Y-103046446D01*
X141324376Y-102722069D01*
X141324376Y-102715852D01*
X141322486Y-102711049D01*
X141324261Y-102677930D01*
X141875622Y-102677930D01*
X141875622Y-102722068D01*
X142200000Y-103046446D01*
X142200001Y-103046446D01*
X142524376Y-102722069D01*
X142524376Y-102677929D01*
X142200001Y-102353554D01*
X142200000Y-102353554D01*
X141875622Y-102677930D01*
X141324261Y-102677930D01*
X141324267Y-102677820D01*
X141000001Y-102353554D01*
X141000000Y-102353554D01*
X140675622Y-102677930D01*
X140124261Y-102677930D01*
X140124267Y-102677820D01*
X139800001Y-102353554D01*
X139800000Y-102353554D01*
X139475622Y-102677930D01*
X135630500Y-102677930D01*
X135630500Y-102517280D01*
X135615687Y-102404764D01*
X135615686Y-102404763D01*
X135614626Y-102396705D01*
X135617689Y-102396301D01*
X135617689Y-102363698D01*
X135614626Y-102363295D01*
X135621072Y-102314331D01*
X135630500Y-102242720D01*
X135630500Y-102017280D01*
X135615687Y-101904764D01*
X135615686Y-101904763D01*
X135614947Y-101899145D01*
X135614894Y-101899032D01*
X135614905Y-101898825D01*
X135614626Y-101896705D01*
X135615023Y-101896652D01*
X135615766Y-101883032D01*
X135614496Y-101863740D01*
X135615589Y-101855470D01*
X135615687Y-101855236D01*
X135629781Y-101748179D01*
X135643750Y-101716653D01*
X135658037Y-101684358D01*
X135658070Y-101684335D01*
X135658086Y-101684301D01*
X135686788Y-101665393D01*
X135716362Y-101645887D01*
X135716401Y-101645886D01*
X135716434Y-101645865D01*
X135750776Y-101645477D01*
X135786226Y-101645055D01*
X135786262Y-101645076D01*
X135786299Y-101645076D01*
X135786822Y-101645404D01*
X135840391Y-101676759D01*
X135956344Y-101792712D01*
X136105666Y-101884814D01*
X136272203Y-101939999D01*
X136374991Y-101950500D01*
X137425008Y-101950499D01*
X137425016Y-101950498D01*
X137425019Y-101950498D01*
X137481302Y-101944748D01*
X137527797Y-101939999D01*
X137694334Y-101884814D01*
X137843656Y-101792712D01*
X137967712Y-101668656D01*
X138059814Y-101519334D01*
X138114999Y-101352797D01*
X138114999Y-101352789D01*
X138115892Y-101348622D01*
X138149170Y-101287186D01*
X138210380Y-101253495D01*
X138280088Y-101258245D01*
G37*
%TD.AperFunction*%
%TA.AperFunction,Conductor*%
G36*
X152656587Y-98545185D02*
G01*
X152677229Y-98561819D01*
X153128181Y-99012771D01*
X153142884Y-99039698D01*
X153159477Y-99065517D01*
X153160368Y-99071717D01*
X153161666Y-99074094D01*
X153164500Y-99100452D01*
X153164500Y-99262041D01*
X153147232Y-99325161D01*
X153067133Y-99460602D01*
X153067129Y-99460611D01*
X153022335Y-99614791D01*
X153022334Y-99614797D01*
X153019500Y-99650811D01*
X153019500Y-99876493D01*
X152999815Y-99943532D01*
X152947011Y-99989287D01*
X152919697Y-99998109D01*
X152917556Y-99998534D01*
X152917545Y-99998538D01*
X152803716Y-100045687D01*
X152706720Y-100110499D01*
X152706711Y-100110505D01*
X152701267Y-100114141D01*
X152177229Y-100638181D01*
X152115906Y-100671666D01*
X152089548Y-100674500D01*
X151749000Y-100674500D01*
X151681961Y-100654815D01*
X151636206Y-100602011D01*
X151625000Y-100550500D01*
X151625000Y-100450000D01*
X150736500Y-100450000D01*
X150669461Y-100430315D01*
X150623706Y-100377511D01*
X150612500Y-100326000D01*
X150612500Y-100200000D01*
X150486500Y-100200000D01*
X150419461Y-100180315D01*
X150373706Y-100127511D01*
X150362500Y-100076000D01*
X150362500Y-99950000D01*
X150862500Y-99950000D01*
X151624999Y-99950000D01*
X151624999Y-99700028D01*
X151624998Y-99700013D01*
X151614505Y-99597302D01*
X151559358Y-99430880D01*
X151559356Y-99430875D01*
X151467315Y-99281654D01*
X151343345Y-99157684D01*
X151194124Y-99065643D01*
X151194119Y-99065641D01*
X151027697Y-99010494D01*
X151027690Y-99010493D01*
X150924986Y-99000000D01*
X150862500Y-99000000D01*
X150862500Y-99950000D01*
X150362500Y-99950000D01*
X150362500Y-99000000D01*
X150329510Y-98967010D01*
X150300643Y-98914142D01*
X150296026Y-98905687D01*
X150301010Y-98835995D01*
X150329516Y-98791643D01*
X150332716Y-98788443D01*
X150332718Y-98788441D01*
X150416327Y-98650136D01*
X150424004Y-98625500D01*
X150428021Y-98612610D01*
X150466758Y-98554462D01*
X150530784Y-98526488D01*
X150546406Y-98525500D01*
X152589548Y-98525500D01*
X152656587Y-98545185D01*
G37*
%TD.AperFunction*%
%TA.AperFunction,Conductor*%
G36*
X135751177Y-99721602D02*
G01*
X135782293Y-99726167D01*
X135785128Y-99728638D01*
X135788809Y-99729401D01*
X135817271Y-99750272D01*
X135981371Y-99911164D01*
X136015459Y-99972153D01*
X136011163Y-100041891D01*
X135969846Y-100098235D01*
X135959661Y-100105241D01*
X135956349Y-100107283D01*
X135956343Y-100107288D01*
X135832287Y-100231344D01*
X135746089Y-100371096D01*
X135738502Y-100377919D01*
X135734263Y-100387203D01*
X135712962Y-100400891D01*
X135694141Y-100417821D01*
X135682505Y-100420465D01*
X135675485Y-100424977D01*
X135640550Y-100430000D01*
X135551308Y-100430000D01*
X135484269Y-100410315D01*
X135463631Y-100393685D01*
X135381865Y-100311919D01*
X135240398Y-100228256D01*
X135240397Y-100228255D01*
X135240396Y-100228255D01*
X135240393Y-100228254D01*
X135082573Y-100182402D01*
X135082567Y-100182401D01*
X135045701Y-100179500D01*
X135045694Y-100179500D01*
X134674000Y-100179500D01*
X134665314Y-100176949D01*
X134656353Y-100178238D01*
X134632312Y-100167259D01*
X134606961Y-100159815D01*
X134601033Y-100152974D01*
X134592797Y-100149213D01*
X134578507Y-100126978D01*
X134561206Y-100107011D01*
X134558918Y-100096496D01*
X134555023Y-100090435D01*
X134550000Y-100055500D01*
X134550000Y-100054000D01*
X134569685Y-99986961D01*
X134622489Y-99941206D01*
X134674000Y-99930000D01*
X135627295Y-99930000D01*
X135627295Y-99929998D01*
X135627100Y-99927511D01*
X135611382Y-99873408D01*
X135611392Y-99869647D01*
X135609559Y-99866367D01*
X135611491Y-99834988D01*
X135611582Y-99803539D01*
X135613623Y-99800381D01*
X135613855Y-99796629D01*
X135632452Y-99771267D01*
X135649525Y-99744869D01*
X135652948Y-99743317D01*
X135655172Y-99740285D01*
X135684525Y-99729005D01*
X135713163Y-99716026D01*
X135716883Y-99716571D01*
X135720393Y-99715223D01*
X135751177Y-99721602D01*
G37*
%TD.AperFunction*%
%TA.AperFunction,Conductor*%
G36*
X135806603Y-98145185D02*
G01*
X135852358Y-98197989D01*
X135862302Y-98267147D01*
X135836832Y-98326409D01*
X135832684Y-98331654D01*
X135740643Y-98480875D01*
X135740641Y-98480880D01*
X135685494Y-98647302D01*
X135685493Y-98647309D01*
X135675523Y-98744891D01*
X135679203Y-98800000D01*
X138124999Y-98800000D01*
X138124999Y-98750028D01*
X138124998Y-98750013D01*
X138114505Y-98647302D01*
X138059358Y-98480880D01*
X138059356Y-98480875D01*
X137967315Y-98331654D01*
X137963168Y-98326409D01*
X137937029Y-98261613D01*
X137950071Y-98192971D01*
X137998153Y-98142277D01*
X138060436Y-98125500D01*
X138389548Y-98125500D01*
X138456587Y-98145185D01*
X138477229Y-98161819D01*
X138868812Y-98553403D01*
X138902297Y-98614726D01*
X138897313Y-98684418D01*
X138855441Y-98740351D01*
X138815726Y-98760160D01*
X138684606Y-98798254D01*
X138684603Y-98798255D01*
X138543137Y-98881917D01*
X138543129Y-98881923D01*
X138426923Y-98998129D01*
X138426917Y-98998137D01*
X138343255Y-99139603D01*
X138343254Y-99139604D01*
X138316508Y-99231666D01*
X138278902Y-99290551D01*
X138215429Y-99319757D01*
X138146242Y-99310011D01*
X138131780Y-99300000D01*
X135675001Y-99300000D01*
X135638682Y-99336319D01*
X135636691Y-99334328D01*
X135602512Y-99363946D01*
X135533354Y-99373890D01*
X135469798Y-99344865D01*
X135455148Y-99329817D01*
X135438885Y-99310000D01*
X134686988Y-99310000D01*
X134704205Y-99300060D01*
X134760060Y-99244205D01*
X134799556Y-99175796D01*
X134820000Y-99099496D01*
X134820000Y-99020504D01*
X134799556Y-98944204D01*
X134760060Y-98875795D01*
X134704205Y-98819940D01*
X134686988Y-98810000D01*
X135431318Y-98810000D01*
X135428742Y-98771429D01*
X135361880Y-98610008D01*
X135361875Y-98609999D01*
X135257913Y-98454410D01*
X135257910Y-98454406D01*
X135140685Y-98337181D01*
X135107200Y-98275858D01*
X135112184Y-98206166D01*
X135154056Y-98150233D01*
X135219520Y-98125816D01*
X135228366Y-98125500D01*
X135739564Y-98125500D01*
X135806603Y-98145185D01*
G37*
%TD.AperFunction*%
%TD*%
M02*
