%TF.GenerationSoftware,KiCad,Pcbnew,10.0.3*%
%TF.CreationDate,2026-06-10T22:55:24+05:45*%
%TF.ProjectId,Battery Desulfator circuit,42617474-6572-4792-9044-6573756c6661,rev?*%
%TF.SameCoordinates,Original*%
%TF.FileFunction,Copper,L1,Top*%
%TF.FilePolarity,Positive*%
%FSLAX46Y46*%
G04 Gerber Fmt 4.6, Leading zero omitted, Abs format (unit mm)*
G04 Created by KiCad (PCBNEW 10.0.3) date 2026-06-10 22:55:24*
%MOMM*%
%LPD*%
G01*
G04 APERTURE LIST*
G04 Aperture macros list*
%AMRoundRect*
0 Rectangle with rounded corners*
0 $1 Rounding radius*
0 $2 $3 $4 $5 $6 $7 $8 $9 X,Y pos of 4 corners*
0 Add a 4 corners polygon primitive as box body*
4,1,4,$2,$3,$4,$5,$6,$7,$8,$9,$2,$3,0*
0 Add four circle primitives for the rounded corners*
1,1,$1+$1,$2,$3*
1,1,$1+$1,$4,$5*
1,1,$1+$1,$6,$7*
1,1,$1+$1,$8,$9*
0 Add four rect primitives between the rounded corners*
20,1,$1+$1,$2,$3,$4,$5,0*
20,1,$1+$1,$4,$5,$6,$7,0*
20,1,$1+$1,$6,$7,$8,$9,0*
20,1,$1+$1,$8,$9,$2,$3,0*%
G04 Aperture macros list end*
%TA.AperFunction,ComponentPad*%
%ADD10RoundRect,0.250000X0.550000X-0.550000X0.550000X0.550000X-0.550000X0.550000X-0.550000X-0.550000X0*%
%TD*%
%TA.AperFunction,ComponentPad*%
%ADD11C,1.600000*%
%TD*%
%TA.AperFunction,ComponentPad*%
%ADD12RoundRect,0.250000X-0.750000X0.750000X-0.750000X-0.750000X0.750000X-0.750000X0.750000X0.750000X0*%
%TD*%
%TA.AperFunction,ComponentPad*%
%ADD13C,2.000000*%
%TD*%
%TA.AperFunction,ComponentPad*%
%ADD14C,1.400000*%
%TD*%
%TA.AperFunction,SMDPad,CuDef*%
%ADD15R,0.900000X1.250000*%
%TD*%
%TA.AperFunction,SMDPad,CuDef*%
%ADD16R,0.650000X0.650000*%
%TD*%
%TA.AperFunction,SMDPad,CuDef*%
%ADD17R,0.700000X0.900000*%
%TD*%
%TA.AperFunction,ComponentPad*%
%ADD18RoundRect,0.250000X1.050000X-1.050000X1.050000X1.050000X-1.050000X1.050000X-1.050000X-1.050000X0*%
%TD*%
%TA.AperFunction,ComponentPad*%
%ADD19C,2.600000*%
%TD*%
%TA.AperFunction,SMDPad,CuDef*%
%ADD20RoundRect,0.150000X0.825000X0.150000X-0.825000X0.150000X-0.825000X-0.150000X0.825000X-0.150000X0*%
%TD*%
%TA.AperFunction,ComponentPad*%
%ADD21RoundRect,0.250000X-0.750000X-0.750000X0.750000X-0.750000X0.750000X0.750000X-0.750000X0.750000X0*%
%TD*%
%TA.AperFunction,ComponentPad*%
%ADD22C,1.750000*%
%TD*%
%TA.AperFunction,ComponentPad*%
%ADD23RoundRect,0.249999X-0.850001X0.850001X-0.850001X-0.850001X0.850001X-0.850001X0.850001X0.850001X0*%
%TD*%
%TA.AperFunction,ComponentPad*%
%ADD24C,2.200000*%
%TD*%
%TA.AperFunction,ComponentPad*%
%ADD25RoundRect,0.250000X-0.550000X-0.550000X0.550000X-0.550000X0.550000X0.550000X-0.550000X0.550000X0*%
%TD*%
%TA.AperFunction,Conductor*%
%ADD26C,0.800000*%
%TD*%
%TA.AperFunction,Conductor*%
%ADD27C,0.300000*%
%TD*%
%TA.AperFunction,Conductor*%
%ADD28C,0.500000*%
%TD*%
G04 APERTURE END LIST*
D10*
%TO.P,D1,1,K_1*%
%TO.N,Net-(D1-K)*%
X100250000Y-100310000D03*
D11*
%TO.P,D1,2,A_2*%
%TO.N,Net-(D1-A)*%
X100250000Y-92690000D03*
%TD*%
D12*
%TO.P,C5,1*%
%TO.N,Net-(C5-Pad1)*%
X178957500Y-92700000D03*
D13*
%TO.P,C5,2*%
%TO.N,GND*%
X178957500Y-107700000D03*
%TD*%
D14*
%TO.P,R2,1*%
%TO.N,Net-(D1-A)*%
X95500000Y-97500000D03*
%TO.P,R2,2*%
%TO.N,Net-(D1-K)*%
X95500000Y-95600000D03*
%TD*%
D15*
%TO.P,Q1,1,D_1*%
%TO.N,Net-(Q1-D)*%
X112660000Y-99925000D03*
X112660000Y-101575000D03*
X117570000Y-99925000D03*
X117570000Y-101575000D03*
D16*
%TO.P,Q1,2,G_2*%
%TO.N,Net-(D2-A)*%
X114420000Y-100750000D03*
D17*
%TO.P,Q1,3,S_3*%
%TO.N,GND*%
X115750000Y-100750000D03*
%TD*%
D18*
%TO.P,Battery in,1,Pin_1_1*%
%TO.N,Net-(D2-K)*%
X190372500Y-99300000D03*
D19*
%TO.P,Battery in,2,Pin_2_2*%
%TO.N,GND*%
X190372500Y-94300000D03*
%TD*%
D20*
%TO.P,U1,1,GND_1*%
%TO.N,GND*%
X108725000Y-98905000D03*
%TO.P,U1,2,TRIG_2*%
%TO.N,Net-(D1-K)*%
X108725000Y-97635000D03*
%TO.P,U1,3,OUT_3*%
%TO.N,Net-(U1-OUT)*%
X108725000Y-96365000D03*
%TO.P,U1,4,~{RST}_4*%
%TO.N,Net-(D3-K)*%
X108725000Y-95095000D03*
%TO.P,U1,5,CONT_5*%
%TO.N,Net-(U1-CONT)*%
X103775000Y-95095000D03*
%TO.P,U1,6,THRES_6*%
%TO.N,Net-(D1-K)*%
X103775000Y-96365000D03*
%TO.P,U1,7,DISCH_7*%
%TO.N,Net-(D1-A)*%
X103775000Y-97635000D03*
%TO.P,U1,8,VCC_8*%
%TO.N,Net-(D3-K)*%
X103775000Y-98905000D03*
%TD*%
D21*
%TO.P,C2,1*%
%TO.N,Net-(U1-OUT)*%
X103750000Y-90992500D03*
D13*
%TO.P,C2,2*%
%TO.N,Net-(D2-A)*%
X118750000Y-90992500D03*
%TD*%
D14*
%TO.P,R3,1*%
%TO.N,Net-(U1-OUT)*%
X112595000Y-96500000D03*
%TO.P,R3,2*%
%TO.N,Net-(D2-A)*%
X114495000Y-96500000D03*
%TD*%
D21*
%TO.P,C3,1*%
%TO.N,Net-(D1-K)*%
X95000000Y-105242500D03*
D13*
%TO.P,C3,2*%
%TO.N,GND*%
X110000000Y-105242500D03*
%TD*%
D14*
%TO.P,R4,1*%
%TO.N,Net-(D3-K)*%
X98850000Y-90000000D03*
%TO.P,R4,2*%
%TO.N,Net-(D2-K)*%
X100750000Y-90000000D03*
%TD*%
D22*
%TO.P,L1,1,1_1*%
%TO.N,Net-(D2-K)*%
X132750000Y-109250000D03*
%TO.P,L1,2,2_2*%
%TO.N,Net-(C5-Pad1)*%
X132750000Y-89250000D03*
%TO.P,L1,3*%
%TO.N,N/C*%
X145250000Y-109250000D03*
%TO.P,L1,4*%
X145250000Y-89250000D03*
%TD*%
D12*
%TO.P,C4,1*%
%TO.N,Net-(U1-CONT)*%
X123507500Y-88500000D03*
D13*
%TO.P,C4,2*%
%TO.N,GND*%
X123507500Y-103500000D03*
%TD*%
D23*
%TO.P,D3,1,K_1*%
%TO.N,Net-(D3-K)*%
X83000000Y-92670000D03*
D24*
%TO.P,D3,2,A_2*%
%TO.N,GND*%
X83000000Y-102830000D03*
%TD*%
D25*
%TO.P,D2,1,K_1*%
%TO.N,Net-(D2-K)*%
X113380000Y-106500000D03*
D11*
%TO.P,D2,2,A_2*%
%TO.N,Net-(D2-A)*%
X121000000Y-106500000D03*
%TD*%
D14*
%TO.P,R1,1*%
%TO.N,Net-(D3-K)*%
X95250000Y-90350000D03*
%TO.P,R1,2*%
%TO.N,Net-(D1-A)*%
X95250000Y-92250000D03*
%TD*%
D22*
%TO.P,L2,1,1_1*%
%TO.N,Net-(C5-Pad1)*%
X169500000Y-90000000D03*
%TO.P,L2,2,2_2*%
%TO.N,Net-(Q1-D)*%
X169500000Y-110000000D03*
%TO.P,L2,3*%
%TO.N,N/C*%
X157000000Y-90000000D03*
%TO.P,L2,4*%
X157000000Y-110000000D03*
%TD*%
D12*
%TO.P,C1,1*%
%TO.N,Net-(D3-K)*%
X90007500Y-90750000D03*
D13*
%TO.P,C1,2*%
%TO.N,GND*%
X90007500Y-105750000D03*
%TD*%
%TO.N,*%
D26*
X156250000Y-89250000D02*
X157000000Y-90000000D01*
X145250000Y-109250000D02*
X156250000Y-109250000D01*
X145250000Y-89250000D02*
X156250000Y-89250000D01*
X156250000Y-109250000D02*
X157000000Y-110000000D01*
%TO.N,Net-(D3-K)*%
D27*
X104498738Y-98905000D02*
X108308738Y-95095000D01*
X103775000Y-98905000D02*
X104498738Y-98905000D01*
X92105000Y-98905000D02*
X90007500Y-96807500D01*
X103775000Y-98905000D02*
X92105000Y-98905000D01*
X90007500Y-96807500D02*
X90007500Y-90750000D01*
X108308738Y-95095000D02*
X108725000Y-95095000D01*
%TO.N,Net-(U1-OUT)*%
X108725000Y-96365000D02*
X112460000Y-96365000D01*
X112460000Y-96365000D02*
X112595000Y-96500000D01*
%TO.N,Net-(D2-A)*%
X111795000Y-99200000D02*
X114495000Y-96500000D01*
D28*
X121000000Y-106500000D02*
X119345000Y-106500000D01*
D27*
X114420000Y-100750000D02*
X114420000Y-101590000D01*
D28*
X119345000Y-106500000D02*
X114420000Y-101575000D01*
D27*
X113010000Y-103000000D02*
X110400000Y-103000000D01*
X110400000Y-103000000D02*
X110400000Y-99200000D01*
X114420000Y-101590000D02*
X113010000Y-103000000D01*
X110400000Y-99200000D02*
X111795000Y-99200000D01*
D28*
X114420000Y-101575000D02*
X114420000Y-100750000D01*
%TO.N,Net-(D1-K)*%
D27*
X108725000Y-97635000D02*
X107965000Y-97635000D01*
X107965000Y-97635000D02*
X105290000Y-100310000D01*
X101365000Y-96365000D02*
X99600000Y-94600000D01*
X96500000Y-94600000D02*
X95500000Y-95600000D01*
X103775000Y-96365000D02*
X101365000Y-96365000D01*
X99600000Y-94600000D02*
X96500000Y-94600000D01*
X105290000Y-100310000D02*
X100250000Y-100310000D01*
%TO.N,Net-(U1-CONT)*%
X103775000Y-95095000D02*
X110370000Y-88500000D01*
X110370000Y-88500000D02*
X123507500Y-88500000D01*
%TO.N,Net-(C5-Pad1)*%
D26*
X177800000Y-90000000D02*
X169500000Y-90000000D01*
X178957500Y-90757500D02*
X178000000Y-89800000D01*
X178957500Y-92700000D02*
X178957500Y-90757500D01*
X178000000Y-89800000D02*
X177800000Y-90000000D01*
X136200000Y-92700000D02*
X178957500Y-92700000D01*
X132750000Y-89250000D02*
X136200000Y-92700000D01*
%TO.N,Net-(D1-A)*%
D27*
X103775000Y-97635000D02*
X95635000Y-97635000D01*
X95635000Y-97635000D02*
X95500000Y-97500000D01*
%TO.N,Net-(D2-K)*%
D26*
X116130000Y-109250000D02*
X113380000Y-106500000D01*
X132750000Y-109250000D02*
X116130000Y-109250000D01*
%TO.N,Net-(Q1-D)*%
D27*
X112660000Y-99925000D02*
X117570000Y-99925000D01*
D26*
X159425000Y-99925000D02*
X117570000Y-99925000D01*
X169500000Y-110000000D02*
X159425000Y-99925000D01*
D27*
X112660000Y-99925000D02*
X112660000Y-101575000D01*
X117570000Y-101575000D02*
X117570000Y-99925000D01*
%TD*%
%TA.AperFunction,Conductor*%
%TO.N,GND*%
G36*
X196877376Y-86399687D02*
G01*
X196944364Y-86419543D01*
X196989984Y-86472463D01*
X197001054Y-86522621D01*
X197239578Y-114265921D01*
X197220471Y-114333127D01*
X197168062Y-114379334D01*
X197116649Y-114390982D01*
X91445650Y-115299495D01*
X91444584Y-115299500D01*
X80687353Y-115299500D01*
X80620314Y-115279815D01*
X80574559Y-115227011D01*
X80563353Y-115175184D01*
X80584385Y-106925083D01*
X80587682Y-105631947D01*
X88507500Y-105631947D01*
X88507500Y-105868052D01*
X88544434Y-106101247D01*
X88617397Y-106325802D01*
X88724587Y-106536174D01*
X88784838Y-106619104D01*
X88784840Y-106619105D01*
X89524537Y-105879408D01*
X89541575Y-105942993D01*
X89607401Y-106057007D01*
X89700493Y-106150099D01*
X89814507Y-106215925D01*
X89878090Y-106232962D01*
X89138393Y-106972658D01*
X89221328Y-107032914D01*
X89431697Y-107140102D01*
X89656252Y-107213065D01*
X89656251Y-107213065D01*
X89889448Y-107250000D01*
X90125552Y-107250000D01*
X90358747Y-107213065D01*
X90583302Y-107140102D01*
X90793663Y-107032918D01*
X90793669Y-107032914D01*
X90876604Y-106972658D01*
X90876605Y-106972658D01*
X90136908Y-106232962D01*
X90200493Y-106215925D01*
X90314507Y-106150099D01*
X90407599Y-106057007D01*
X90473425Y-105942993D01*
X90490462Y-105879409D01*
X91230158Y-106619105D01*
X91230158Y-106619104D01*
X91290414Y-106536169D01*
X91290418Y-106536163D01*
X91397602Y-106325802D01*
X91470565Y-106101247D01*
X91507500Y-105868052D01*
X91507500Y-105631947D01*
X91470565Y-105398752D01*
X91397602Y-105174197D01*
X91290414Y-104963828D01*
X91230158Y-104880894D01*
X91230158Y-104880893D01*
X90490462Y-105620590D01*
X90473425Y-105557007D01*
X90407599Y-105442993D01*
X90314507Y-105349901D01*
X90200493Y-105284075D01*
X90136909Y-105267037D01*
X90876605Y-104527340D01*
X90876604Y-104527339D01*
X90793674Y-104467087D01*
X90745386Y-104442483D01*
X93499500Y-104442483D01*
X93499500Y-106042501D01*
X93499501Y-106042518D01*
X93510000Y-106145296D01*
X93510001Y-106145299D01*
X93544696Y-106250000D01*
X93565186Y-106311834D01*
X93657288Y-106461156D01*
X93781344Y-106585212D01*
X93930666Y-106677314D01*
X94097203Y-106732499D01*
X94199991Y-106743000D01*
X95800008Y-106742999D01*
X95902797Y-106732499D01*
X96069334Y-106677314D01*
X96218656Y-106585212D01*
X96342712Y-106461156D01*
X96434814Y-106311834D01*
X96489999Y-106145297D01*
X96500500Y-106042509D01*
X96500499Y-104442492D01*
X96493440Y-104373393D01*
X96489999Y-104339703D01*
X96489998Y-104339700D01*
X96434814Y-104173166D01*
X96342712Y-104023844D01*
X96218656Y-103899788D01*
X96069334Y-103807686D01*
X95902797Y-103752501D01*
X95902795Y-103752500D01*
X95800010Y-103742000D01*
X94199998Y-103742000D01*
X94199981Y-103742001D01*
X94097203Y-103752500D01*
X94097200Y-103752501D01*
X93930668Y-103807685D01*
X93930663Y-103807687D01*
X93781342Y-103899789D01*
X93657289Y-104023842D01*
X93565187Y-104173163D01*
X93565186Y-104173166D01*
X93510001Y-104339703D01*
X93510001Y-104339704D01*
X93510000Y-104339704D01*
X93499500Y-104442483D01*
X90745386Y-104442483D01*
X90583302Y-104359897D01*
X90358747Y-104286934D01*
X90358748Y-104286934D01*
X90125552Y-104250000D01*
X89889448Y-104250000D01*
X89656252Y-104286934D01*
X89431697Y-104359897D01*
X89221330Y-104467084D01*
X89138394Y-104527340D01*
X89878091Y-105267037D01*
X89814507Y-105284075D01*
X89700493Y-105349901D01*
X89607401Y-105442993D01*
X89541575Y-105557007D01*
X89524537Y-105620591D01*
X88784840Y-104880894D01*
X88724584Y-104963830D01*
X88617397Y-105174197D01*
X88544434Y-105398752D01*
X88507500Y-105631947D01*
X80587682Y-105631947D01*
X80587695Y-105626759D01*
X80590378Y-104574283D01*
X80591647Y-104076675D01*
X80595146Y-102704071D01*
X81400000Y-102704071D01*
X81400000Y-102955928D01*
X81439397Y-103204669D01*
X81517219Y-103444184D01*
X81631557Y-103668583D01*
X81705748Y-103770697D01*
X81705748Y-103770698D01*
X82476212Y-103000234D01*
X82487482Y-103042292D01*
X82559890Y-103167708D01*
X82662292Y-103270110D01*
X82787708Y-103342518D01*
X82829765Y-103353787D01*
X82059300Y-104124250D01*
X82161416Y-104198442D01*
X82385815Y-104312780D01*
X82625330Y-104390602D01*
X82874072Y-104430000D01*
X83125928Y-104430000D01*
X83374669Y-104390602D01*
X83614184Y-104312780D01*
X83838575Y-104198446D01*
X83838581Y-104198442D01*
X83940697Y-104124250D01*
X83940698Y-104124250D01*
X83170234Y-103353787D01*
X83212292Y-103342518D01*
X83337708Y-103270110D01*
X83440110Y-103167708D01*
X83512518Y-103042292D01*
X83523787Y-103000235D01*
X84294250Y-103770698D01*
X84294250Y-103770697D01*
X84368442Y-103668581D01*
X84368446Y-103668575D01*
X84482780Y-103444184D01*
X84560602Y-103204669D01*
X84600000Y-102955928D01*
X84600000Y-102704071D01*
X84560602Y-102455330D01*
X84482780Y-102215815D01*
X84368442Y-101991416D01*
X84294250Y-101889301D01*
X84294250Y-101889300D01*
X83523787Y-102659764D01*
X83512518Y-102617708D01*
X83440110Y-102492292D01*
X83337708Y-102389890D01*
X83212292Y-102317482D01*
X83170232Y-102306212D01*
X83940698Y-101535748D01*
X83838583Y-101461557D01*
X83614184Y-101347219D01*
X83374669Y-101269397D01*
X83125928Y-101230000D01*
X82874072Y-101230000D01*
X82625330Y-101269397D01*
X82385815Y-101347219D01*
X82161413Y-101461559D01*
X82059301Y-101535747D01*
X82059300Y-101535748D01*
X82829765Y-102306212D01*
X82787708Y-102317482D01*
X82662292Y-102389890D01*
X82559890Y-102492292D01*
X82487482Y-102617708D01*
X82476212Y-102659765D01*
X81705748Y-101889300D01*
X81705747Y-101889301D01*
X81631559Y-101991413D01*
X81517219Y-102215815D01*
X81439397Y-102455330D01*
X81400000Y-102704071D01*
X80595146Y-102704071D01*
X80595159Y-102698889D01*
X80598005Y-101582692D01*
X80609121Y-97222173D01*
X80623020Y-91769982D01*
X81399500Y-91769982D01*
X81399500Y-93570017D01*
X81410000Y-93672796D01*
X81450532Y-93795112D01*
X81465186Y-93839335D01*
X81557288Y-93988656D01*
X81681344Y-94112712D01*
X81830665Y-94204814D01*
X81997202Y-94259999D01*
X82099990Y-94270500D01*
X82099995Y-94270500D01*
X83900005Y-94270500D01*
X83900010Y-94270500D01*
X84002798Y-94259999D01*
X84169335Y-94204814D01*
X84318656Y-94112712D01*
X84442712Y-93988656D01*
X84534814Y-93839335D01*
X84589999Y-93672798D01*
X84600500Y-93570010D01*
X84600500Y-91769990D01*
X84589999Y-91667202D01*
X84534814Y-91500665D01*
X84442712Y-91351344D01*
X84318656Y-91227288D01*
X84169335Y-91135186D01*
X84002798Y-91080001D01*
X84002796Y-91080000D01*
X83900017Y-91069500D01*
X83900010Y-91069500D01*
X82099990Y-91069500D01*
X82099982Y-91069500D01*
X81997203Y-91080000D01*
X81997202Y-91080001D01*
X81914669Y-91107349D01*
X81830667Y-91135185D01*
X81830662Y-91135187D01*
X81681342Y-91227289D01*
X81557289Y-91351342D01*
X81465187Y-91500662D01*
X81465185Y-91500667D01*
X81448835Y-91550008D01*
X81410001Y-91667202D01*
X81410001Y-91667203D01*
X81410000Y-91667203D01*
X81399500Y-91769982D01*
X80623020Y-91769982D01*
X80627660Y-89949983D01*
X88507000Y-89949983D01*
X88507000Y-91550001D01*
X88507001Y-91550018D01*
X88517500Y-91652796D01*
X88517501Y-91652799D01*
X88565352Y-91797203D01*
X88572686Y-91819334D01*
X88664788Y-91968656D01*
X88788844Y-92092712D01*
X88938166Y-92184814D01*
X89104703Y-92239999D01*
X89207491Y-92250500D01*
X89232998Y-92250499D01*
X89300036Y-92270181D01*
X89345793Y-92322984D01*
X89357000Y-92374499D01*
X89357000Y-96871571D01*
X89374756Y-96960832D01*
X89374756Y-96960833D01*
X89381997Y-96997236D01*
X89381999Y-96997244D01*
X89399364Y-97039168D01*
X89431035Y-97115627D01*
X89500026Y-97218881D01*
X89502226Y-97222173D01*
X91690328Y-99410275D01*
X91690331Y-99410277D01*
X91760056Y-99456865D01*
X91796873Y-99481465D01*
X91915256Y-99530501D01*
X91915260Y-99530501D01*
X91915261Y-99530502D01*
X92040928Y-99555500D01*
X92040931Y-99555500D01*
X98827969Y-99555500D01*
X98895008Y-99575185D01*
X98940763Y-99627989D01*
X98951327Y-99692100D01*
X98949501Y-99709976D01*
X98949500Y-99709996D01*
X98949500Y-100910001D01*
X98949501Y-100910018D01*
X98960000Y-101012796D01*
X98960001Y-101012799D01*
X99015185Y-101179331D01*
X99015187Y-101179336D01*
X99046437Y-101230000D01*
X99107288Y-101328656D01*
X99231344Y-101452712D01*
X99380666Y-101544814D01*
X99547203Y-101599999D01*
X99649991Y-101610500D01*
X100850008Y-101610499D01*
X100952797Y-101599999D01*
X101119334Y-101544814D01*
X101268656Y-101452712D01*
X101392712Y-101328656D01*
X101484814Y-101179334D01*
X101529164Y-101045494D01*
X101568936Y-100988051D01*
X101633451Y-100961228D01*
X101646869Y-100960500D01*
X105354071Y-100960500D01*
X105443503Y-100942710D01*
X105479744Y-100935501D01*
X105598127Y-100886465D01*
X105600836Y-100884654D01*
X105601772Y-100884030D01*
X105663905Y-100842514D01*
X105704669Y-100815277D01*
X107150762Y-99369183D01*
X107212081Y-99335701D01*
X107281772Y-99340685D01*
X107337706Y-99382556D01*
X107345171Y-99393746D01*
X107382314Y-99456552D01*
X107382321Y-99456561D01*
X107498438Y-99572678D01*
X107498447Y-99572685D01*
X107639803Y-99656282D01*
X107639806Y-99656283D01*
X107797504Y-99702099D01*
X107797510Y-99702100D01*
X107834350Y-99704999D01*
X107834366Y-99705000D01*
X108475000Y-99705000D01*
X108475000Y-99029000D01*
X108494685Y-98961961D01*
X108547489Y-98916206D01*
X108599000Y-98905000D01*
X108851000Y-98905000D01*
X108918039Y-98924685D01*
X108963794Y-98977489D01*
X108975000Y-99029000D01*
X108975000Y-99705000D01*
X109615633Y-99705000D01*
X109615735Y-99704992D01*
X109615751Y-99704995D01*
X109618080Y-99704904D01*
X109618102Y-99705488D01*
X109684116Y-99719336D01*
X109733887Y-99768373D01*
X109749500Y-99828607D01*
X109749500Y-103064069D01*
X109749500Y-103064071D01*
X109749499Y-103064071D01*
X109774497Y-103189738D01*
X109774499Y-103189744D01*
X109823533Y-103308124D01*
X109823538Y-103308133D01*
X109894723Y-103414668D01*
X109894726Y-103414672D01*
X109985327Y-103505273D01*
X109985331Y-103505276D01*
X110000479Y-103515398D01*
X110045284Y-103569010D01*
X110053991Y-103638335D01*
X110023836Y-103701363D01*
X109964393Y-103738082D01*
X109931588Y-103742500D01*
X109881948Y-103742500D01*
X109648752Y-103779434D01*
X109424197Y-103852397D01*
X109213830Y-103959584D01*
X109130894Y-104019840D01*
X109870591Y-104759537D01*
X109807007Y-104776575D01*
X109692993Y-104842401D01*
X109599901Y-104935493D01*
X109534075Y-105049507D01*
X109517037Y-105113091D01*
X108777340Y-104373394D01*
X108717084Y-104456330D01*
X108609897Y-104666697D01*
X108536934Y-104891252D01*
X108500000Y-105124447D01*
X108500000Y-105360552D01*
X108536934Y-105593747D01*
X108609897Y-105818302D01*
X108717087Y-106028674D01*
X108777338Y-106111604D01*
X108777340Y-106111605D01*
X109517037Y-105371908D01*
X109534075Y-105435493D01*
X109599901Y-105549507D01*
X109692993Y-105642599D01*
X109807007Y-105708425D01*
X109870590Y-105725462D01*
X109130893Y-106465158D01*
X109213828Y-106525414D01*
X109424197Y-106632602D01*
X109648752Y-106705565D01*
X109648751Y-106705565D01*
X109881948Y-106742500D01*
X110118052Y-106742500D01*
X110351247Y-106705565D01*
X110575802Y-106632602D01*
X110786163Y-106525418D01*
X110786169Y-106525414D01*
X110869104Y-106465158D01*
X110869105Y-106465158D01*
X110129408Y-105725462D01*
X110192993Y-105708425D01*
X110307007Y-105642599D01*
X110400099Y-105549507D01*
X110465925Y-105435493D01*
X110482962Y-105371909D01*
X111222658Y-106111605D01*
X111222658Y-106111604D01*
X111282914Y-106028669D01*
X111282918Y-106028663D01*
X111348484Y-105899983D01*
X112079500Y-105899983D01*
X112079500Y-107100001D01*
X112079501Y-107100018D01*
X112090000Y-107202796D01*
X112090001Y-107202799D01*
X112105808Y-107250500D01*
X112145186Y-107369334D01*
X112237288Y-107518656D01*
X112361344Y-107642712D01*
X112510666Y-107734814D01*
X112677203Y-107789999D01*
X112779991Y-107800500D01*
X113355637Y-107800499D01*
X113422676Y-107820183D01*
X113443318Y-107836818D01*
X114529159Y-108922658D01*
X115430536Y-109824035D01*
X115498247Y-109891746D01*
X115555966Y-109949465D01*
X115703446Y-110048009D01*
X115703459Y-110048016D01*
X115848887Y-110108253D01*
X115848889Y-110108254D01*
X115867334Y-110115894D01*
X115909935Y-110124368D01*
X116041305Y-110150500D01*
X116041308Y-110150500D01*
X116041309Y-110150500D01*
X131653888Y-110150500D01*
X131720927Y-110170185D01*
X131741569Y-110186819D01*
X131853922Y-110299172D01*
X132029081Y-110426433D01*
X132123697Y-110474642D01*
X132221990Y-110524726D01*
X132221993Y-110524727D01*
X132324947Y-110558178D01*
X132427903Y-110591630D01*
X132641746Y-110625500D01*
X132641747Y-110625500D01*
X132858253Y-110625500D01*
X132858254Y-110625500D01*
X133072097Y-110591630D01*
X133278009Y-110524726D01*
X133470919Y-110426433D01*
X133646078Y-110299172D01*
X133799172Y-110146078D01*
X133926433Y-109970919D01*
X134024726Y-109778009D01*
X134091630Y-109572097D01*
X134125500Y-109358254D01*
X134125500Y-109141746D01*
X143874500Y-109141746D01*
X143874500Y-109358253D01*
X143908370Y-109572098D01*
X143975272Y-109778006D01*
X143975273Y-109778009D01*
X144073567Y-109970919D01*
X144200828Y-110146078D01*
X144353922Y-110299172D01*
X144529081Y-110426433D01*
X144623697Y-110474642D01*
X144721990Y-110524726D01*
X144721993Y-110524727D01*
X144824947Y-110558178D01*
X144927903Y-110591630D01*
X145141746Y-110625500D01*
X145141747Y-110625500D01*
X145358253Y-110625500D01*
X145358254Y-110625500D01*
X145572097Y-110591630D01*
X145778009Y-110524726D01*
X145970919Y-110426433D01*
X146146078Y-110299172D01*
X146258431Y-110186819D01*
X146319754Y-110153334D01*
X146346112Y-110150500D01*
X155525286Y-110150500D01*
X155592325Y-110170185D01*
X155638080Y-110222989D01*
X155647759Y-110255102D01*
X155658370Y-110322098D01*
X155725272Y-110528006D01*
X155725273Y-110528009D01*
X155774948Y-110625500D01*
X155823567Y-110720919D01*
X155950828Y-110896078D01*
X156103922Y-111049172D01*
X156279081Y-111176433D01*
X156373697Y-111224642D01*
X156471990Y-111274726D01*
X156471993Y-111274727D01*
X156574947Y-111308178D01*
X156677903Y-111341630D01*
X156891746Y-111375500D01*
X156891747Y-111375500D01*
X157108253Y-111375500D01*
X157108254Y-111375500D01*
X157322097Y-111341630D01*
X157528009Y-111274726D01*
X157720919Y-111176433D01*
X157896078Y-111049172D01*
X158049172Y-110896078D01*
X158176433Y-110720919D01*
X158274726Y-110528009D01*
X158341630Y-110322097D01*
X158375500Y-110108254D01*
X158375500Y-109891746D01*
X158341630Y-109677903D01*
X158274726Y-109471991D01*
X158274726Y-109471990D01*
X158176432Y-109279080D01*
X158049172Y-109103922D01*
X157896078Y-108950828D01*
X157720919Y-108823567D01*
X157528009Y-108725273D01*
X157528006Y-108725272D01*
X157322098Y-108658370D01*
X157215175Y-108641435D01*
X157108254Y-108624500D01*
X157108253Y-108624500D01*
X156949362Y-108624500D01*
X156926224Y-108617705D01*
X156902239Y-108615197D01*
X156890066Y-108607088D01*
X156882323Y-108604815D01*
X156871834Y-108597275D01*
X156866509Y-108593009D01*
X156824036Y-108550536D01*
X156764959Y-108511063D01*
X156676547Y-108451987D01*
X156676546Y-108451986D01*
X156676544Y-108451985D01*
X156676542Y-108451984D01*
X156594607Y-108418046D01*
X156594606Y-108418046D01*
X156512666Y-108384105D01*
X156512658Y-108384103D01*
X156338696Y-108349500D01*
X156338692Y-108349500D01*
X156338691Y-108349500D01*
X146346112Y-108349500D01*
X146279073Y-108329815D01*
X146258431Y-108313181D01*
X146146080Y-108200830D01*
X146146078Y-108200828D01*
X145970919Y-108073567D01*
X145778009Y-107975273D01*
X145778006Y-107975272D01*
X145572098Y-107908370D01*
X145465175Y-107891435D01*
X145358254Y-107874500D01*
X145141746Y-107874500D01*
X145070465Y-107885790D01*
X144927901Y-107908370D01*
X144721993Y-107975272D01*
X144721990Y-107975273D01*
X144529080Y-108073567D01*
X144429145Y-108146174D01*
X144353922Y-108200828D01*
X144353920Y-108200830D01*
X144353919Y-108200830D01*
X144200830Y-108353919D01*
X144200830Y-108353920D01*
X144200828Y-108353922D01*
X144178900Y-108384103D01*
X144073567Y-108529080D01*
X143975273Y-108721990D01*
X143975272Y-108721993D01*
X143908370Y-108927901D01*
X143874500Y-109141746D01*
X134125500Y-109141746D01*
X134091630Y-108927903D01*
X134025793Y-108725274D01*
X134024727Y-108721993D01*
X134024726Y-108721990D01*
X133966180Y-108607088D01*
X133926433Y-108529081D01*
X133799172Y-108353922D01*
X133646078Y-108200828D01*
X133470919Y-108073567D01*
X133278009Y-107975273D01*
X133278006Y-107975272D01*
X133072098Y-107908370D01*
X132965175Y-107891435D01*
X132858254Y-107874500D01*
X132641746Y-107874500D01*
X132570465Y-107885790D01*
X132427901Y-107908370D01*
X132221993Y-107975272D01*
X132221990Y-107975273D01*
X132029080Y-108073567D01*
X131929145Y-108146174D01*
X131853922Y-108200828D01*
X131853920Y-108200830D01*
X131853919Y-108200830D01*
X131741569Y-108313181D01*
X131680246Y-108346666D01*
X131653888Y-108349500D01*
X116554361Y-108349500D01*
X116487322Y-108329815D01*
X116466680Y-108313181D01*
X114716818Y-106563318D01*
X114683333Y-106501995D01*
X114680499Y-106475637D01*
X114680499Y-105899998D01*
X114680498Y-105899981D01*
X114669999Y-105797203D01*
X114669998Y-105797200D01*
X114645355Y-105722833D01*
X114614814Y-105630666D01*
X114522712Y-105481344D01*
X114398656Y-105357288D01*
X114249334Y-105265186D01*
X114082797Y-105210001D01*
X114082795Y-105210000D01*
X113980010Y-105199500D01*
X112779998Y-105199500D01*
X112779981Y-105199501D01*
X112677203Y-105210000D01*
X112677200Y-105210001D01*
X112510668Y-105265185D01*
X112510663Y-105265187D01*
X112361342Y-105357289D01*
X112237289Y-105481342D01*
X112145187Y-105630663D01*
X112145185Y-105630668D01*
X112137858Y-105652781D01*
X112090001Y-105797203D01*
X112090001Y-105797204D01*
X112090000Y-105797204D01*
X112079500Y-105899983D01*
X111348484Y-105899983D01*
X111378773Y-105840539D01*
X111378774Y-105840537D01*
X111390101Y-105818305D01*
X111463065Y-105593747D01*
X111500000Y-105360552D01*
X111500000Y-105124447D01*
X111463065Y-104891252D01*
X111390102Y-104666697D01*
X111282914Y-104456328D01*
X111222658Y-104373394D01*
X111222658Y-104373393D01*
X110482962Y-105113090D01*
X110465925Y-105049507D01*
X110400099Y-104935493D01*
X110307007Y-104842401D01*
X110192993Y-104776575D01*
X110129409Y-104759537D01*
X110869105Y-104019840D01*
X110869104Y-104019838D01*
X110786174Y-103959587D01*
X110639760Y-103884985D01*
X110588964Y-103837010D01*
X110572169Y-103769189D01*
X110594706Y-103703055D01*
X110649421Y-103659603D01*
X110696055Y-103650500D01*
X113074071Y-103650500D01*
X113158615Y-103633682D01*
X113199744Y-103625501D01*
X113318127Y-103576465D01*
X113424669Y-103505277D01*
X114269107Y-102660836D01*
X114330430Y-102627352D01*
X114400121Y-102632336D01*
X114444469Y-102660837D01*
X118866586Y-107082954D01*
X118892100Y-107100001D01*
X118940270Y-107132186D01*
X118989505Y-107165084D01*
X118989506Y-107165084D01*
X118989507Y-107165085D01*
X118989509Y-107165086D01*
X119126082Y-107221656D01*
X119126087Y-107221658D01*
X119126091Y-107221658D01*
X119126092Y-107221659D01*
X119271079Y-107250500D01*
X119271082Y-107250500D01*
X119271083Y-107250500D01*
X119418918Y-107250500D01*
X119874582Y-107250500D01*
X119941621Y-107270185D01*
X119974900Y-107301615D01*
X120008028Y-107347212D01*
X120008032Y-107347217D01*
X120152786Y-107491971D01*
X120276630Y-107581947D01*
X120318390Y-107612287D01*
X120434607Y-107671503D01*
X120500776Y-107705218D01*
X120500778Y-107705218D01*
X120500781Y-107705220D01*
X120591856Y-107734812D01*
X120695465Y-107768477D01*
X120796557Y-107784488D01*
X120897648Y-107800500D01*
X120897649Y-107800500D01*
X121102351Y-107800500D01*
X121102352Y-107800500D01*
X121304534Y-107768477D01*
X121499219Y-107705220D01*
X121681610Y-107612287D01*
X121810482Y-107518657D01*
X121847213Y-107491971D01*
X121847215Y-107491968D01*
X121847219Y-107491966D01*
X121991966Y-107347219D01*
X121991968Y-107347215D01*
X121991971Y-107347213D01*
X122074169Y-107234075D01*
X122112287Y-107181610D01*
X122205220Y-106999219D01*
X122268477Y-106804534D01*
X122300500Y-106602352D01*
X122300500Y-106397648D01*
X122289121Y-106325802D01*
X122268477Y-106195465D01*
X122218781Y-106042518D01*
X122205220Y-106000781D01*
X122205218Y-106000778D01*
X122205218Y-106000776D01*
X122153865Y-105899991D01*
X122112287Y-105818390D01*
X122062600Y-105750001D01*
X121991971Y-105652786D01*
X121847213Y-105508028D01*
X121681613Y-105387715D01*
X121681612Y-105387714D01*
X121681610Y-105387713D01*
X121607400Y-105349901D01*
X121499223Y-105294781D01*
X121304534Y-105231522D01*
X121129995Y-105203878D01*
X121102352Y-105199500D01*
X120897648Y-105199500D01*
X120873329Y-105203351D01*
X120695465Y-105231522D01*
X120500776Y-105294781D01*
X120318386Y-105387715D01*
X120152786Y-105508028D01*
X120008032Y-105652782D01*
X120008028Y-105652787D01*
X119974900Y-105698385D01*
X119970568Y-105701725D01*
X119968295Y-105706703D01*
X119943195Y-105722833D01*
X119919571Y-105741051D01*
X119912897Y-105742304D01*
X119909517Y-105744477D01*
X119874582Y-105749500D01*
X119707230Y-105749500D01*
X119640191Y-105729815D01*
X119619549Y-105713181D01*
X117288315Y-103381947D01*
X122007500Y-103381947D01*
X122007500Y-103618052D01*
X122044434Y-103851247D01*
X122117397Y-104075802D01*
X122224587Y-104286174D01*
X122284838Y-104369104D01*
X122284840Y-104369105D01*
X123024537Y-103629408D01*
X123041575Y-103692993D01*
X123107401Y-103807007D01*
X123200493Y-103900099D01*
X123314507Y-103965925D01*
X123378090Y-103982962D01*
X122638393Y-104722658D01*
X122721328Y-104782914D01*
X122931697Y-104890102D01*
X123156252Y-104963065D01*
X123156251Y-104963065D01*
X123389448Y-105000000D01*
X123625552Y-105000000D01*
X123858747Y-104963065D01*
X124083302Y-104890102D01*
X124293663Y-104782918D01*
X124293669Y-104782914D01*
X124376604Y-104722658D01*
X124376605Y-104722658D01*
X123636908Y-103982962D01*
X123700493Y-103965925D01*
X123814507Y-103900099D01*
X123907599Y-103807007D01*
X123973425Y-103692993D01*
X123990462Y-103629409D01*
X124730158Y-104369105D01*
X124730158Y-104369104D01*
X124790414Y-104286169D01*
X124790418Y-104286163D01*
X124897602Y-104075802D01*
X124970565Y-103851247D01*
X125007500Y-103618052D01*
X125007500Y-103381947D01*
X124970565Y-103148752D01*
X124897602Y-102924197D01*
X124790414Y-102713828D01*
X124730158Y-102630894D01*
X124730158Y-102630893D01*
X123990462Y-103370590D01*
X123973425Y-103307007D01*
X123907599Y-103192993D01*
X123814507Y-103099901D01*
X123700493Y-103034075D01*
X123636909Y-103017037D01*
X124376605Y-102277340D01*
X124376604Y-102277338D01*
X124293674Y-102217087D01*
X124083302Y-102109897D01*
X123858747Y-102036934D01*
X123858748Y-102036934D01*
X123625552Y-102000000D01*
X123389448Y-102000000D01*
X123156252Y-102036934D01*
X122931697Y-102109897D01*
X122721330Y-102217084D01*
X122638394Y-102277340D01*
X123378091Y-103017037D01*
X123314507Y-103034075D01*
X123200493Y-103099901D01*
X123107401Y-103192993D01*
X123041575Y-103307007D01*
X123024537Y-103370591D01*
X122284840Y-102630894D01*
X122224584Y-102713830D01*
X122117397Y-102924197D01*
X122044434Y-103148752D01*
X122007500Y-103381947D01*
X117288315Y-103381947D01*
X116758412Y-102852044D01*
X116724927Y-102790721D01*
X116729911Y-102721029D01*
X116771783Y-102665096D01*
X116837247Y-102640679D01*
X116889426Y-102648181D01*
X117012517Y-102694091D01*
X117012516Y-102694091D01*
X117019444Y-102694835D01*
X117072127Y-102700500D01*
X118067872Y-102700499D01*
X118127483Y-102694091D01*
X118262331Y-102643796D01*
X118377546Y-102557546D01*
X118463796Y-102442331D01*
X118514091Y-102307483D01*
X118520500Y-102247873D01*
X118520499Y-100949499D01*
X118540184Y-100882461D01*
X118592987Y-100836706D01*
X118644499Y-100825500D01*
X159000638Y-100825500D01*
X159067677Y-100845185D01*
X159088319Y-100861819D01*
X168088181Y-109861680D01*
X168121666Y-109923003D01*
X168124500Y-109949361D01*
X168124500Y-110108253D01*
X168158370Y-110322098D01*
X168225272Y-110528006D01*
X168225273Y-110528009D01*
X168274948Y-110625500D01*
X168323567Y-110720919D01*
X168450828Y-110896078D01*
X168603922Y-111049172D01*
X168779081Y-111176433D01*
X168873697Y-111224642D01*
X168971990Y-111274726D01*
X168971993Y-111274727D01*
X169074947Y-111308178D01*
X169177903Y-111341630D01*
X169391746Y-111375500D01*
X169391747Y-111375500D01*
X169608253Y-111375500D01*
X169608254Y-111375500D01*
X169822097Y-111341630D01*
X170028009Y-111274726D01*
X170220919Y-111176433D01*
X170396078Y-111049172D01*
X170549172Y-110896078D01*
X170676433Y-110720919D01*
X170774726Y-110528009D01*
X170841630Y-110322097D01*
X170875500Y-110108254D01*
X170875500Y-109891746D01*
X170841630Y-109677903D01*
X170774726Y-109471991D01*
X170774726Y-109471990D01*
X170676432Y-109279080D01*
X170549172Y-109103922D01*
X170396078Y-108950828D01*
X170220919Y-108823567D01*
X170028009Y-108725273D01*
X170028006Y-108725272D01*
X169822098Y-108658370D01*
X169715175Y-108641435D01*
X169608254Y-108624500D01*
X169608253Y-108624500D01*
X169449361Y-108624500D01*
X169382322Y-108604815D01*
X169361680Y-108588181D01*
X168355446Y-107581947D01*
X177457500Y-107581947D01*
X177457500Y-107818052D01*
X177494434Y-108051247D01*
X177567397Y-108275802D01*
X177674587Y-108486174D01*
X177734838Y-108569104D01*
X177734840Y-108569105D01*
X178474537Y-107829408D01*
X178491575Y-107892993D01*
X178557401Y-108007007D01*
X178650493Y-108100099D01*
X178764507Y-108165925D01*
X178828090Y-108182962D01*
X178088393Y-108922658D01*
X178171328Y-108982914D01*
X178381697Y-109090102D01*
X178606252Y-109163065D01*
X178606251Y-109163065D01*
X178839448Y-109200000D01*
X179075552Y-109200000D01*
X179308747Y-109163065D01*
X179533302Y-109090102D01*
X179743663Y-108982918D01*
X179743669Y-108982914D01*
X179826604Y-108922658D01*
X179826605Y-108922658D01*
X179086908Y-108182962D01*
X179150493Y-108165925D01*
X179264507Y-108100099D01*
X179357599Y-108007007D01*
X179423425Y-107892993D01*
X179440462Y-107829409D01*
X180180158Y-108569105D01*
X180180158Y-108569104D01*
X180240414Y-108486169D01*
X180240418Y-108486163D01*
X180347602Y-108275802D01*
X180420565Y-108051247D01*
X180457500Y-107818052D01*
X180457500Y-107581947D01*
X180420565Y-107348752D01*
X180347602Y-107124197D01*
X180240414Y-106913828D01*
X180180158Y-106830894D01*
X180180158Y-106830893D01*
X179440462Y-107570590D01*
X179423425Y-107507007D01*
X179357599Y-107392993D01*
X179264507Y-107299901D01*
X179150493Y-107234075D01*
X179086909Y-107217037D01*
X179826605Y-106477340D01*
X179826604Y-106477338D01*
X179743674Y-106417087D01*
X179533302Y-106309897D01*
X179308747Y-106236934D01*
X179308748Y-106236934D01*
X179075552Y-106200000D01*
X178839448Y-106200000D01*
X178606252Y-106236934D01*
X178381697Y-106309897D01*
X178171330Y-106417084D01*
X178088394Y-106477340D01*
X178828091Y-107217037D01*
X178764507Y-107234075D01*
X178650493Y-107299901D01*
X178557401Y-107392993D01*
X178491575Y-107507007D01*
X178474537Y-107570590D01*
X177734840Y-106830894D01*
X177674584Y-106913830D01*
X177567397Y-107124197D01*
X177494434Y-107348752D01*
X177457500Y-107581947D01*
X168355446Y-107581947D01*
X167385779Y-106612280D01*
X159999039Y-99225538D01*
X159999038Y-99225537D01*
X159963828Y-99202011D01*
X159911861Y-99167288D01*
X159851547Y-99126987D01*
X159769606Y-99093046D01*
X159687666Y-99059105D01*
X159687658Y-99059103D01*
X159513696Y-99024500D01*
X159513692Y-99024500D01*
X159513691Y-99024500D01*
X118501035Y-99024500D01*
X118433996Y-99004815D01*
X118401768Y-98974810D01*
X118377550Y-98942458D01*
X118377547Y-98942455D01*
X118377546Y-98942454D01*
X118353810Y-98924685D01*
X118262335Y-98856206D01*
X118262328Y-98856202D01*
X118127482Y-98805908D01*
X118127483Y-98805908D01*
X118067883Y-98799501D01*
X118067881Y-98799500D01*
X118067873Y-98799500D01*
X118067864Y-98799500D01*
X117072129Y-98799500D01*
X117072123Y-98799501D01*
X117012516Y-98805908D01*
X116877671Y-98856202D01*
X116877664Y-98856206D01*
X116762455Y-98942452D01*
X116762452Y-98942455D01*
X116676206Y-99057664D01*
X116676202Y-99057671D01*
X116625418Y-99193833D01*
X116583547Y-99249767D01*
X116518083Y-99274184D01*
X116509236Y-99274500D01*
X113720764Y-99274500D01*
X113653725Y-99254815D01*
X113607970Y-99202011D01*
X113604582Y-99193833D01*
X113553797Y-99057671D01*
X113553793Y-99057664D01*
X113467547Y-98942455D01*
X113467544Y-98942452D01*
X113352335Y-98856206D01*
X113352328Y-98856202D01*
X113319279Y-98843876D01*
X113263345Y-98802005D01*
X113238928Y-98736541D01*
X113253780Y-98668268D01*
X113274928Y-98640016D01*
X113714961Y-98199983D01*
X188572000Y-98199983D01*
X188572000Y-100400001D01*
X188572001Y-100400018D01*
X188582500Y-100502796D01*
X188582501Y-100502799D01*
X188606592Y-100575500D01*
X188637686Y-100669334D01*
X188729788Y-100818656D01*
X188853844Y-100942712D01*
X189003166Y-101034814D01*
X189169703Y-101089999D01*
X189272491Y-101100500D01*
X191472508Y-101100499D01*
X191575297Y-101089999D01*
X191741834Y-101034814D01*
X191891156Y-100942712D01*
X192015212Y-100818656D01*
X192107314Y-100669334D01*
X192162499Y-100502797D01*
X192173000Y-100400009D01*
X192172999Y-98199992D01*
X192172287Y-98193026D01*
X192162499Y-98097203D01*
X192162498Y-98097200D01*
X192117311Y-97960836D01*
X192107314Y-97930666D01*
X192015212Y-97781344D01*
X191891156Y-97657288D01*
X191741834Y-97565186D01*
X191575297Y-97510001D01*
X191575295Y-97510000D01*
X191472510Y-97499500D01*
X189272498Y-97499500D01*
X189272481Y-97499501D01*
X189169703Y-97510000D01*
X189169700Y-97510001D01*
X189003168Y-97565185D01*
X189003163Y-97565187D01*
X188853842Y-97657289D01*
X188729789Y-97781342D01*
X188637687Y-97930663D01*
X188637685Y-97930668D01*
X188609849Y-98014670D01*
X188582501Y-98097203D01*
X188582501Y-98097204D01*
X188582500Y-98097204D01*
X188572000Y-98199983D01*
X113714961Y-98199983D01*
X114195213Y-97719731D01*
X114256534Y-97686248D01*
X114302285Y-97684941D01*
X114400519Y-97700500D01*
X114400521Y-97700500D01*
X114589486Y-97700500D01*
X114776118Y-97670940D01*
X114818134Y-97657288D01*
X114955832Y-97612547D01*
X115124199Y-97526760D01*
X115277073Y-97415690D01*
X115410690Y-97282073D01*
X115521760Y-97129199D01*
X115607547Y-96960832D01*
X115665940Y-96781118D01*
X115667254Y-96772819D01*
X115695500Y-96594486D01*
X115695500Y-96405513D01*
X115665940Y-96218881D01*
X115607545Y-96039163D01*
X115545724Y-95917834D01*
X115521760Y-95870801D01*
X115410690Y-95717927D01*
X115277073Y-95584310D01*
X115124199Y-95473240D01*
X114955836Y-95387454D01*
X114776118Y-95329059D01*
X114589486Y-95299500D01*
X114589481Y-95299500D01*
X114400519Y-95299500D01*
X114400514Y-95299500D01*
X114213881Y-95329059D01*
X114034163Y-95387454D01*
X113865800Y-95473240D01*
X113821370Y-95505521D01*
X113712927Y-95584310D01*
X113712925Y-95584312D01*
X113712924Y-95584312D01*
X113632681Y-95664556D01*
X113571358Y-95698041D01*
X113501666Y-95693057D01*
X113457319Y-95664556D01*
X113377075Y-95584312D01*
X113377073Y-95584310D01*
X113224199Y-95473240D01*
X113055836Y-95387454D01*
X112876118Y-95329059D01*
X112689486Y-95299500D01*
X112689481Y-95299500D01*
X112500519Y-95299500D01*
X112500514Y-95299500D01*
X112313881Y-95329059D01*
X112134163Y-95387454D01*
X111965800Y-95473240D01*
X111921370Y-95505521D01*
X111812927Y-95584310D01*
X111812925Y-95584312D01*
X111812924Y-95584312D01*
X111719056Y-95678181D01*
X111657733Y-95711666D01*
X111631375Y-95714500D01*
X110245476Y-95714500D01*
X110178437Y-95694815D01*
X110132682Y-95642011D01*
X110122738Y-95572853D01*
X110138742Y-95527382D01*
X110151744Y-95505398D01*
X110197598Y-95347569D01*
X110200500Y-95310694D01*
X110200500Y-94879306D01*
X110197598Y-94842431D01*
X110197597Y-94842429D01*
X110197597Y-94842426D01*
X110151745Y-94684606D01*
X110151744Y-94684603D01*
X110151744Y-94684602D01*
X110068081Y-94543135D01*
X110068079Y-94543133D01*
X110068076Y-94543129D01*
X109951870Y-94426923D01*
X109951862Y-94426917D01*
X109810396Y-94343255D01*
X109810393Y-94343254D01*
X109652573Y-94297402D01*
X109652567Y-94297401D01*
X109615701Y-94294500D01*
X109615694Y-94294500D01*
X107834306Y-94294500D01*
X107834298Y-94294500D01*
X107797432Y-94297401D01*
X107797426Y-94297402D01*
X107639606Y-94343254D01*
X107639603Y-94343255D01*
X107498137Y-94426917D01*
X107498129Y-94426923D01*
X107381923Y-94543129D01*
X107381917Y-94543137D01*
X107298255Y-94684603D01*
X107298254Y-94684606D01*
X107252402Y-94842426D01*
X107252401Y-94842432D01*
X107249500Y-94879298D01*
X107249500Y-95182929D01*
X107229815Y-95249968D01*
X107213181Y-95270610D01*
X105336129Y-97147661D01*
X105316441Y-97158411D01*
X105299416Y-97173021D01*
X105286367Y-97174832D01*
X105274806Y-97181146D01*
X105252428Y-97179545D01*
X105230210Y-97182631D01*
X105218255Y-97177101D01*
X105205114Y-97176162D01*
X105187154Y-97162717D01*
X105166795Y-97153301D01*
X105154010Y-97137905D01*
X105149181Y-97134290D01*
X105143811Y-97126516D01*
X105142743Y-97124837D01*
X105118081Y-97083135D01*
X105112986Y-97078040D01*
X105105671Y-97066536D01*
X105099624Y-97045569D01*
X105089155Y-97026421D01*
X105090132Y-97012659D01*
X105086309Y-96999403D01*
X105092558Y-96978493D01*
X105094104Y-96956726D01*
X105103376Y-96942298D01*
X105106317Y-96932459D01*
X105113859Y-96925987D01*
X105114940Y-96924304D01*
X105113298Y-96923031D01*
X105118075Y-96916870D01*
X105118081Y-96916865D01*
X105201744Y-96775398D01*
X105247598Y-96617569D01*
X105250500Y-96580694D01*
X105250500Y-96149306D01*
X105247598Y-96112431D01*
X105243986Y-96100000D01*
X105201745Y-95954606D01*
X105201744Y-95954603D01*
X105201744Y-95954602D01*
X105118081Y-95813135D01*
X105118078Y-95813132D01*
X105113298Y-95806969D01*
X105115750Y-95805066D01*
X105089155Y-95756421D01*
X105094104Y-95686726D01*
X105114940Y-95654304D01*
X105113298Y-95653031D01*
X105118075Y-95646870D01*
X105118081Y-95646865D01*
X105201744Y-95505398D01*
X105247598Y-95347569D01*
X105250500Y-95310694D01*
X105250500Y-94879306D01*
X105247598Y-94842431D01*
X105201744Y-94684602D01*
X105201743Y-94684600D01*
X105200501Y-94680325D01*
X105200700Y-94610455D01*
X105231894Y-94558050D01*
X108915543Y-90874402D01*
X117249500Y-90874402D01*
X117249500Y-91110597D01*
X117286446Y-91343868D01*
X117359433Y-91568496D01*
X117458631Y-91763181D01*
X117466657Y-91778933D01*
X117605483Y-91970010D01*
X117772490Y-92137017D01*
X117963567Y-92275843D01*
X118062991Y-92326502D01*
X118174003Y-92383066D01*
X118174005Y-92383066D01*
X118174008Y-92383068D01*
X118294412Y-92422189D01*
X118398631Y-92456053D01*
X118631903Y-92493000D01*
X118631908Y-92493000D01*
X118868097Y-92493000D01*
X119101368Y-92456053D01*
X119325992Y-92383068D01*
X119536433Y-92275843D01*
X119727510Y-92137017D01*
X119894517Y-91970010D01*
X120033343Y-91778933D01*
X120140568Y-91568492D01*
X120213553Y-91343868D01*
X120226015Y-91265184D01*
X120250500Y-91110597D01*
X120250500Y-90874402D01*
X120213553Y-90641131D01*
X120154970Y-90460832D01*
X120140568Y-90416508D01*
X120140566Y-90416505D01*
X120140566Y-90416503D01*
X120058537Y-90255513D01*
X120033343Y-90206067D01*
X119894517Y-90014990D01*
X119727510Y-89847983D01*
X119536433Y-89709157D01*
X119325996Y-89601933D01*
X119101368Y-89528946D01*
X118868097Y-89492000D01*
X118868092Y-89492000D01*
X118631908Y-89492000D01*
X118631903Y-89492000D01*
X118398631Y-89528946D01*
X118174003Y-89601933D01*
X117963566Y-89709157D01*
X117947540Y-89720801D01*
X117772490Y-89847983D01*
X117772488Y-89847985D01*
X117772487Y-89847985D01*
X117605485Y-90014987D01*
X117605485Y-90014988D01*
X117605483Y-90014990D01*
X117566329Y-90068881D01*
X117466657Y-90206066D01*
X117359433Y-90416503D01*
X117286446Y-90641131D01*
X117249500Y-90874402D01*
X108915543Y-90874402D01*
X110603127Y-89186819D01*
X110664450Y-89153334D01*
X110690808Y-89150500D01*
X121883001Y-89150500D01*
X121950040Y-89170185D01*
X121995795Y-89222989D01*
X122007001Y-89274500D01*
X122007001Y-89300018D01*
X122017500Y-89402796D01*
X122017501Y-89402799D01*
X122059303Y-89528946D01*
X122072686Y-89569334D01*
X122164788Y-89718656D01*
X122288844Y-89842712D01*
X122438166Y-89934814D01*
X122604703Y-89989999D01*
X122707491Y-90000500D01*
X124307508Y-90000499D01*
X124410297Y-89989999D01*
X124576834Y-89934814D01*
X124726156Y-89842712D01*
X124850212Y-89718656D01*
X124942314Y-89569334D01*
X124997499Y-89402797D01*
X125008000Y-89300009D01*
X125008000Y-89141746D01*
X131374500Y-89141746D01*
X131374500Y-89358253D01*
X131408370Y-89572098D01*
X131475272Y-89778006D01*
X131475273Y-89778009D01*
X131562904Y-89949992D01*
X131573567Y-89970919D01*
X131700828Y-90146078D01*
X131853922Y-90299172D01*
X132029081Y-90426433D01*
X132123697Y-90474642D01*
X132221990Y-90524726D01*
X132221993Y-90524727D01*
X132324947Y-90558178D01*
X132427903Y-90591630D01*
X132641746Y-90625500D01*
X132800638Y-90625500D01*
X132867677Y-90645185D01*
X132888319Y-90661819D01*
X135625958Y-93399459D01*
X135625959Y-93399460D01*
X135625962Y-93399462D01*
X135625964Y-93399464D01*
X135699707Y-93448737D01*
X135699709Y-93448739D01*
X135773454Y-93498014D01*
X135821452Y-93517895D01*
X135937334Y-93565895D01*
X136111303Y-93600499D01*
X136111307Y-93600500D01*
X136111308Y-93600500D01*
X136111309Y-93600500D01*
X177377199Y-93600500D01*
X177444238Y-93620185D01*
X177489993Y-93672989D01*
X177494903Y-93685492D01*
X177522686Y-93769334D01*
X177614788Y-93918656D01*
X177738844Y-94042712D01*
X177888166Y-94134814D01*
X178054703Y-94189999D01*
X178157491Y-94200500D01*
X179757508Y-94200499D01*
X179860297Y-94189999D01*
X179884394Y-94182014D01*
X188572500Y-94182014D01*
X188572500Y-94417985D01*
X188603299Y-94651914D01*
X188664370Y-94879837D01*
X188754660Y-95097819D01*
X188754665Y-95097828D01*
X188872644Y-95302171D01*
X188872645Y-95302172D01*
X188935221Y-95383723D01*
X189771458Y-94547487D01*
X189796478Y-94607890D01*
X189867612Y-94714351D01*
X189958149Y-94804888D01*
X190064610Y-94876022D01*
X190125011Y-94901041D01*
X189288775Y-95737277D01*
X189370327Y-95799854D01*
X189370328Y-95799855D01*
X189574671Y-95917834D01*
X189574680Y-95917839D01*
X189792663Y-96008129D01*
X189792661Y-96008129D01*
X190020585Y-96069200D01*
X190254514Y-96099999D01*
X190254529Y-96100000D01*
X190490471Y-96100000D01*
X190490485Y-96099999D01*
X190724414Y-96069200D01*
X190952337Y-96008129D01*
X191170319Y-95917839D01*
X191170328Y-95917834D01*
X191374681Y-95799850D01*
X191456223Y-95737279D01*
X191456223Y-95737276D01*
X190619987Y-94901041D01*
X190680390Y-94876022D01*
X190786851Y-94804888D01*
X190877388Y-94714351D01*
X190948522Y-94607890D01*
X190973541Y-94547488D01*
X191809776Y-95383723D01*
X191809779Y-95383723D01*
X191872350Y-95302181D01*
X191990334Y-95097828D01*
X191990339Y-95097819D01*
X192080629Y-94879837D01*
X192141700Y-94651914D01*
X192172499Y-94417985D01*
X192172500Y-94417971D01*
X192172500Y-94182028D01*
X192172499Y-94182014D01*
X192141700Y-93948085D01*
X192080629Y-93720162D01*
X191990339Y-93502180D01*
X191990334Y-93502171D01*
X191872355Y-93297828D01*
X191872354Y-93297827D01*
X191809777Y-93216275D01*
X190973541Y-94052511D01*
X190948522Y-93992110D01*
X190877388Y-93885649D01*
X190786851Y-93795112D01*
X190680390Y-93723978D01*
X190619988Y-93698958D01*
X191456223Y-92862721D01*
X191374672Y-92800145D01*
X191374671Y-92800144D01*
X191170328Y-92682165D01*
X191170319Y-92682160D01*
X190952336Y-92591870D01*
X190952338Y-92591870D01*
X190724414Y-92530799D01*
X190490485Y-92500000D01*
X190254514Y-92500000D01*
X190020585Y-92530799D01*
X189792662Y-92591870D01*
X189574680Y-92682160D01*
X189574671Y-92682165D01*
X189370328Y-92800144D01*
X189370318Y-92800150D01*
X189288775Y-92862720D01*
X189288775Y-92862721D01*
X190125012Y-93698958D01*
X190064610Y-93723978D01*
X189958149Y-93795112D01*
X189867612Y-93885649D01*
X189796478Y-93992110D01*
X189771458Y-94052512D01*
X188935221Y-93216275D01*
X188935220Y-93216275D01*
X188872650Y-93297818D01*
X188872644Y-93297828D01*
X188754665Y-93502171D01*
X188754660Y-93502180D01*
X188664370Y-93720162D01*
X188603299Y-93948085D01*
X188572500Y-94182014D01*
X179884394Y-94182014D01*
X180026834Y-94134814D01*
X180176156Y-94042712D01*
X180300212Y-93918656D01*
X180392314Y-93769334D01*
X180447499Y-93602797D01*
X180458000Y-93500009D01*
X180457999Y-92682165D01*
X180457999Y-91899998D01*
X180457998Y-91899981D01*
X180447499Y-91797203D01*
X180447498Y-91797200D01*
X180420095Y-91714504D01*
X180392314Y-91630666D01*
X180300212Y-91481344D01*
X180176156Y-91357288D01*
X180042301Y-91274726D01*
X180026836Y-91265187D01*
X180026831Y-91265185D01*
X179989682Y-91252875D01*
X179942995Y-91237404D01*
X179885551Y-91197632D01*
X179858728Y-91133116D01*
X179858000Y-91119699D01*
X179858000Y-90668806D01*
X179857999Y-90668804D01*
X179823396Y-90494841D01*
X179823393Y-90494832D01*
X179755516Y-90330959D01*
X179755509Y-90330946D01*
X179656965Y-90183466D01*
X179619577Y-90146078D01*
X179531535Y-90058036D01*
X179316209Y-89842710D01*
X178574040Y-89100539D01*
X178574036Y-89100536D01*
X178538011Y-89076465D01*
X178538009Y-89076464D01*
X178538009Y-89076463D01*
X178426553Y-89001990D01*
X178426544Y-89001985D01*
X178262666Y-88934105D01*
X178262658Y-88934103D01*
X178088696Y-88899500D01*
X178088692Y-88899500D01*
X177911308Y-88899500D01*
X177911304Y-88899500D01*
X177775075Y-88926598D01*
X177737334Y-88934105D01*
X177737333Y-88934105D01*
X177573452Y-89001987D01*
X177573453Y-89001988D01*
X177458789Y-89078603D01*
X177392112Y-89099480D01*
X177389899Y-89099500D01*
X170596112Y-89099500D01*
X170529073Y-89079815D01*
X170508431Y-89063181D01*
X170396080Y-88950830D01*
X170396078Y-88950828D01*
X170220919Y-88823567D01*
X170028009Y-88725273D01*
X170028006Y-88725272D01*
X169822098Y-88658370D01*
X169715175Y-88641435D01*
X169608254Y-88624500D01*
X169391746Y-88624500D01*
X169320465Y-88635790D01*
X169177901Y-88658370D01*
X168971993Y-88725272D01*
X168971990Y-88725273D01*
X168779080Y-88823567D01*
X168691150Y-88887453D01*
X168603922Y-88950828D01*
X168603920Y-88950830D01*
X168603919Y-88950830D01*
X168450830Y-89103919D01*
X168450830Y-89103920D01*
X168450828Y-89103922D01*
X168426887Y-89136874D01*
X168323567Y-89279080D01*
X168225273Y-89471990D01*
X168225272Y-89471993D01*
X168158370Y-89677901D01*
X168131431Y-89847985D01*
X168124500Y-89891746D01*
X168124500Y-90108254D01*
X168137841Y-90192483D01*
X168158370Y-90322098D01*
X168225272Y-90528006D01*
X168225273Y-90528009D01*
X168323567Y-90720919D01*
X168450828Y-90896078D01*
X168603922Y-91049172D01*
X168779081Y-91176433D01*
X168844962Y-91210001D01*
X168971990Y-91274726D01*
X168971993Y-91274727D01*
X169049777Y-91300000D01*
X169177903Y-91341630D01*
X169391746Y-91375500D01*
X169391747Y-91375500D01*
X169608253Y-91375500D01*
X169608254Y-91375500D01*
X169822097Y-91341630D01*
X170028009Y-91274726D01*
X170220919Y-91176433D01*
X170396078Y-91049172D01*
X170508431Y-90936819D01*
X170569754Y-90903334D01*
X170596112Y-90900500D01*
X177711308Y-90900500D01*
X177775638Y-90900500D01*
X177805081Y-90909145D01*
X177835064Y-90915668D01*
X177840079Y-90919422D01*
X177842677Y-90920185D01*
X177863314Y-90936814D01*
X177973991Y-91047490D01*
X178007475Y-91108811D01*
X178002491Y-91178503D01*
X177960620Y-91234437D01*
X177925316Y-91252875D01*
X177888170Y-91265184D01*
X177888163Y-91265187D01*
X177738842Y-91357289D01*
X177614789Y-91481342D01*
X177522687Y-91630663D01*
X177522686Y-91630666D01*
X177500363Y-91698034D01*
X177494905Y-91714504D01*
X177455132Y-91771949D01*
X177390616Y-91798772D01*
X177377199Y-91799500D01*
X136624362Y-91799500D01*
X136557323Y-91779815D01*
X136536681Y-91763181D01*
X134161819Y-89388319D01*
X134147115Y-89361391D01*
X134130523Y-89335573D01*
X134129631Y-89329372D01*
X134128334Y-89326996D01*
X134125500Y-89300638D01*
X134125500Y-89141746D01*
X143874500Y-89141746D01*
X143874500Y-89358253D01*
X143908370Y-89572098D01*
X143975272Y-89778006D01*
X143975273Y-89778009D01*
X144062904Y-89949992D01*
X144073567Y-89970919D01*
X144200828Y-90146078D01*
X144353922Y-90299172D01*
X144529081Y-90426433D01*
X144623697Y-90474642D01*
X144721990Y-90524726D01*
X144721993Y-90524727D01*
X144824947Y-90558178D01*
X144927903Y-90591630D01*
X145141746Y-90625500D01*
X145141747Y-90625500D01*
X145358253Y-90625500D01*
X145358254Y-90625500D01*
X145572097Y-90591630D01*
X145778009Y-90524726D01*
X145970919Y-90426433D01*
X146146078Y-90299172D01*
X146258431Y-90186819D01*
X146319754Y-90153334D01*
X146346112Y-90150500D01*
X155525286Y-90150500D01*
X155592325Y-90170185D01*
X155638080Y-90222989D01*
X155647759Y-90255102D01*
X155658370Y-90322098D01*
X155725272Y-90528006D01*
X155725273Y-90528009D01*
X155823567Y-90720919D01*
X155950828Y-90896078D01*
X156103922Y-91049172D01*
X156279081Y-91176433D01*
X156344962Y-91210001D01*
X156471990Y-91274726D01*
X156471993Y-91274727D01*
X156549777Y-91300000D01*
X156677903Y-91341630D01*
X156891746Y-91375500D01*
X156891747Y-91375500D01*
X157108253Y-91375500D01*
X157108254Y-91375500D01*
X157322097Y-91341630D01*
X157528009Y-91274726D01*
X157720919Y-91176433D01*
X157896078Y-91049172D01*
X158049172Y-90896078D01*
X158176433Y-90720919D01*
X158274726Y-90528009D01*
X158341630Y-90322097D01*
X158375500Y-90108254D01*
X158375500Y-89891746D01*
X158341630Y-89677903D01*
X158281228Y-89492001D01*
X158274727Y-89471993D01*
X158274726Y-89471990D01*
X158205217Y-89335573D01*
X158176433Y-89279081D01*
X158049172Y-89103922D01*
X157896078Y-88950828D01*
X157720919Y-88823567D01*
X157528009Y-88725273D01*
X157528006Y-88725272D01*
X157322098Y-88658370D01*
X157215175Y-88641435D01*
X157108254Y-88624500D01*
X157108253Y-88624500D01*
X156949362Y-88624500D01*
X156926224Y-88617705D01*
X156902239Y-88615197D01*
X156890066Y-88607088D01*
X156882323Y-88604815D01*
X156871834Y-88597275D01*
X156866509Y-88593009D01*
X156824036Y-88550536D01*
X156764959Y-88511063D01*
X156676547Y-88451987D01*
X156676546Y-88451986D01*
X156676544Y-88451985D01*
X156676542Y-88451984D01*
X156594607Y-88418046D01*
X156594606Y-88418046D01*
X156512666Y-88384105D01*
X156512658Y-88384103D01*
X156338696Y-88349500D01*
X156338692Y-88349500D01*
X156338691Y-88349500D01*
X146346112Y-88349500D01*
X146279073Y-88329815D01*
X146258431Y-88313181D01*
X146146080Y-88200830D01*
X146146078Y-88200828D01*
X145970919Y-88073567D01*
X145778009Y-87975273D01*
X145778006Y-87975272D01*
X145572098Y-87908370D01*
X145465175Y-87891435D01*
X145358254Y-87874500D01*
X145141746Y-87874500D01*
X145070465Y-87885790D01*
X144927901Y-87908370D01*
X144721993Y-87975272D01*
X144721990Y-87975273D01*
X144529080Y-88073567D01*
X144429145Y-88146174D01*
X144353922Y-88200828D01*
X144353920Y-88200830D01*
X144353919Y-88200830D01*
X144200830Y-88353919D01*
X144200830Y-88353920D01*
X144200828Y-88353922D01*
X144178900Y-88384103D01*
X144073567Y-88529080D01*
X143975273Y-88721990D01*
X143975272Y-88721993D01*
X143908370Y-88927901D01*
X143874500Y-89141746D01*
X134125500Y-89141746D01*
X134118809Y-89099500D01*
X134091630Y-88927903D01*
X134025793Y-88725274D01*
X134024727Y-88721993D01*
X134024726Y-88721990D01*
X133966180Y-88607088D01*
X133926433Y-88529081D01*
X133799172Y-88353922D01*
X133646078Y-88200828D01*
X133470919Y-88073567D01*
X133278009Y-87975273D01*
X133278006Y-87975272D01*
X133072098Y-87908370D01*
X132965175Y-87891435D01*
X132858254Y-87874500D01*
X132641746Y-87874500D01*
X132570465Y-87885790D01*
X132427901Y-87908370D01*
X132221993Y-87975272D01*
X132221990Y-87975273D01*
X132029080Y-88073567D01*
X131929145Y-88146174D01*
X131853922Y-88200828D01*
X131853920Y-88200830D01*
X131853919Y-88200830D01*
X131700830Y-88353919D01*
X131700830Y-88353920D01*
X131700828Y-88353922D01*
X131678900Y-88384103D01*
X131573567Y-88529080D01*
X131475273Y-88721990D01*
X131475272Y-88721993D01*
X131408370Y-88927901D01*
X131374500Y-89141746D01*
X125008000Y-89141746D01*
X125007999Y-88451987D01*
X125007999Y-87699998D01*
X125007998Y-87699981D01*
X124997499Y-87597203D01*
X124997498Y-87597200D01*
X124942314Y-87430666D01*
X124850212Y-87281344D01*
X124726156Y-87157288D01*
X124576834Y-87065186D01*
X124410297Y-87010001D01*
X124410295Y-87010000D01*
X124307510Y-86999500D01*
X122707498Y-86999500D01*
X122707481Y-86999501D01*
X122604703Y-87010000D01*
X122604700Y-87010001D01*
X122438168Y-87065185D01*
X122438163Y-87065187D01*
X122288842Y-87157289D01*
X122164789Y-87281342D01*
X122072687Y-87430663D01*
X122072686Y-87430666D01*
X122017501Y-87597203D01*
X122017501Y-87597204D01*
X122017500Y-87597204D01*
X122007000Y-87699983D01*
X122007000Y-87725500D01*
X121987315Y-87792539D01*
X121934511Y-87838294D01*
X121883000Y-87849500D01*
X110305929Y-87849500D01*
X110180261Y-87874497D01*
X110180255Y-87874499D01*
X110061870Y-87923535D01*
X109955331Y-87994722D01*
X109955324Y-87994728D01*
X103691873Y-94258181D01*
X103630550Y-94291666D01*
X103604192Y-94294500D01*
X102884298Y-94294500D01*
X102847432Y-94297401D01*
X102847426Y-94297402D01*
X102689606Y-94343254D01*
X102689603Y-94343255D01*
X102548137Y-94426917D01*
X102548129Y-94426923D01*
X102431923Y-94543129D01*
X102431917Y-94543137D01*
X102348255Y-94684603D01*
X102348254Y-94684606D01*
X102302402Y-94842426D01*
X102302401Y-94842432D01*
X102299500Y-94879298D01*
X102299500Y-95310701D01*
X102302401Y-95347567D01*
X102302402Y-95347573D01*
X102348253Y-95505392D01*
X102348255Y-95505396D01*
X102348256Y-95505398D01*
X102361256Y-95527381D01*
X102378439Y-95595102D01*
X102356280Y-95661365D01*
X102301814Y-95705128D01*
X102254524Y-95714500D01*
X101685808Y-95714500D01*
X101618769Y-95694815D01*
X101598127Y-95678181D01*
X100122128Y-94202181D01*
X100088643Y-94140858D01*
X100093627Y-94071166D01*
X100135499Y-94015233D01*
X100200963Y-93990816D01*
X100209809Y-93990500D01*
X100352351Y-93990500D01*
X100352352Y-93990500D01*
X100554534Y-93958477D01*
X100749219Y-93895220D01*
X100931610Y-93802287D01*
X101039394Y-93723978D01*
X101097213Y-93681971D01*
X101097215Y-93681968D01*
X101097219Y-93681966D01*
X101241966Y-93537219D01*
X101241968Y-93537215D01*
X101241971Y-93537213D01*
X101294732Y-93464590D01*
X101362287Y-93371610D01*
X101455220Y-93189219D01*
X101518477Y-92994534D01*
X101550500Y-92792352D01*
X101550500Y-92587648D01*
X101518477Y-92385466D01*
X101517697Y-92383066D01*
X101481019Y-92270181D01*
X101455220Y-92190781D01*
X101455218Y-92190778D01*
X101455218Y-92190776D01*
X101389518Y-92061834D01*
X101362287Y-92008390D01*
X101333583Y-91968882D01*
X101241971Y-91842786D01*
X101097213Y-91698028D01*
X100931613Y-91577715D01*
X100931612Y-91577714D01*
X100931610Y-91577713D01*
X100874653Y-91548691D01*
X100749223Y-91484781D01*
X100618882Y-91442431D01*
X100561207Y-91402993D01*
X100534009Y-91338634D01*
X100545924Y-91269788D01*
X100593168Y-91218312D01*
X100657201Y-91200500D01*
X100844486Y-91200500D01*
X101031118Y-91170940D01*
X101210832Y-91112547D01*
X101379199Y-91026760D01*
X101532073Y-90915690D01*
X101665690Y-90782073D01*
X101776760Y-90629199D01*
X101862547Y-90460832D01*
X101920940Y-90281118D01*
X101934979Y-90192483D01*
X102249500Y-90192483D01*
X102249500Y-91792501D01*
X102249501Y-91792518D01*
X102260000Y-91895296D01*
X102260001Y-91895299D01*
X102315185Y-92061831D01*
X102315187Y-92061836D01*
X102350069Y-92118388D01*
X102407288Y-92211156D01*
X102531344Y-92335212D01*
X102680666Y-92427314D01*
X102847203Y-92482499D01*
X102949991Y-92493000D01*
X104550008Y-92492999D01*
X104652797Y-92482499D01*
X104819334Y-92427314D01*
X104968656Y-92335212D01*
X105092712Y-92211156D01*
X105184814Y-92061834D01*
X105239999Y-91895297D01*
X105250500Y-91792509D01*
X105250499Y-90192492D01*
X105249919Y-90186819D01*
X105239999Y-90089703D01*
X105239998Y-90089700D01*
X105229506Y-90058037D01*
X105184814Y-89923166D01*
X105092712Y-89773844D01*
X104968656Y-89649788D01*
X104838214Y-89569331D01*
X104819336Y-89557687D01*
X104819331Y-89557685D01*
X104763435Y-89539163D01*
X104652797Y-89502501D01*
X104652795Y-89502500D01*
X104550010Y-89492000D01*
X102949998Y-89492000D01*
X102949981Y-89492001D01*
X102847203Y-89502500D01*
X102847200Y-89502501D01*
X102680668Y-89557685D01*
X102680663Y-89557687D01*
X102531342Y-89649789D01*
X102407289Y-89773842D01*
X102315187Y-89923163D01*
X102315185Y-89923168D01*
X102306295Y-89949998D01*
X102260001Y-90089703D01*
X102260001Y-90089704D01*
X102260000Y-90089704D01*
X102249500Y-90192483D01*
X101934979Y-90192483D01*
X101938550Y-90169936D01*
X101950500Y-90094486D01*
X101950500Y-89905513D01*
X101920940Y-89718881D01*
X101882940Y-89601932D01*
X101862547Y-89539168D01*
X101862545Y-89539165D01*
X101862545Y-89539163D01*
X101809119Y-89434310D01*
X101776760Y-89370801D01*
X101665690Y-89217927D01*
X101532073Y-89084310D01*
X101379199Y-88973240D01*
X101335213Y-88950828D01*
X101210836Y-88887454D01*
X101031118Y-88829059D01*
X100844486Y-88799500D01*
X100844481Y-88799500D01*
X100655519Y-88799500D01*
X100655514Y-88799500D01*
X100468881Y-88829059D01*
X100289163Y-88887454D01*
X100120800Y-88973240D01*
X100081230Y-89001990D01*
X99967927Y-89084310D01*
X99967925Y-89084312D01*
X99967924Y-89084312D01*
X99887681Y-89164556D01*
X99826358Y-89198041D01*
X99756666Y-89193057D01*
X99712319Y-89164556D01*
X99632075Y-89084312D01*
X99632073Y-89084310D01*
X99479199Y-88973240D01*
X99435213Y-88950828D01*
X99310836Y-88887454D01*
X99131118Y-88829059D01*
X98944486Y-88799500D01*
X98944481Y-88799500D01*
X98755519Y-88799500D01*
X98755514Y-88799500D01*
X98568881Y-88829059D01*
X98389163Y-88887454D01*
X98220800Y-88973240D01*
X98181230Y-89001990D01*
X98067927Y-89084310D01*
X98067925Y-89084312D01*
X98067924Y-89084312D01*
X97934312Y-89217924D01*
X97934312Y-89217925D01*
X97934310Y-89217927D01*
X97920123Y-89237454D01*
X97823240Y-89370800D01*
X97737454Y-89539163D01*
X97679059Y-89718881D01*
X97649500Y-89905513D01*
X97649500Y-90094486D01*
X97679059Y-90281118D01*
X97737454Y-90460836D01*
X97821355Y-90625500D01*
X97823240Y-90629199D01*
X97934310Y-90782073D01*
X98067927Y-90915690D01*
X98220801Y-91026760D01*
X98300347Y-91067290D01*
X98389163Y-91112545D01*
X98389165Y-91112545D01*
X98389168Y-91112547D01*
X98485497Y-91143846D01*
X98568881Y-91170940D01*
X98755514Y-91200500D01*
X98755519Y-91200500D01*
X98944486Y-91200500D01*
X99131118Y-91170940D01*
X99310832Y-91112547D01*
X99479199Y-91026760D01*
X99632073Y-90915690D01*
X99712319Y-90835444D01*
X99773642Y-90801959D01*
X99843334Y-90806943D01*
X99887681Y-90835444D01*
X99967927Y-90915690D01*
X100120801Y-91026760D01*
X100289168Y-91112547D01*
X100397404Y-91147715D01*
X100455080Y-91187153D01*
X100482278Y-91251511D01*
X100470363Y-91320358D01*
X100423119Y-91371833D01*
X100357224Y-91389153D01*
X100357224Y-91389500D01*
X100355906Y-91389500D01*
X100355545Y-91389595D01*
X100353763Y-91389500D01*
X100352352Y-91389500D01*
X100147648Y-91389500D01*
X100123329Y-91393351D01*
X99945465Y-91421522D01*
X99750776Y-91484781D01*
X99568386Y-91577715D01*
X99402786Y-91698028D01*
X99258028Y-91842786D01*
X99137715Y-92008386D01*
X99044781Y-92190776D01*
X98981522Y-92385465D01*
X98949500Y-92587648D01*
X98949500Y-92792351D01*
X98981522Y-92994534D01*
X99044781Y-93189223D01*
X99100119Y-93297828D01*
X99133095Y-93362547D01*
X99137715Y-93371613D01*
X99258028Y-93537213D01*
X99402786Y-93681971D01*
X99462262Y-93725182D01*
X99504928Y-93780511D01*
X99510907Y-93850125D01*
X99478302Y-93911920D01*
X99417463Y-93946277D01*
X99389377Y-93949500D01*
X96435929Y-93949500D01*
X96310261Y-93974497D01*
X96310251Y-93974500D01*
X96261220Y-93994810D01*
X96191881Y-94023530D01*
X96191863Y-94023540D01*
X96085332Y-94094721D01*
X96085325Y-94094727D01*
X95799787Y-94380265D01*
X95738464Y-94413750D01*
X95692708Y-94415057D01*
X95594486Y-94399500D01*
X95594481Y-94399500D01*
X95405519Y-94399500D01*
X95405514Y-94399500D01*
X95218881Y-94429059D01*
X95039163Y-94487454D01*
X94870800Y-94573240D01*
X94819579Y-94610455D01*
X94717927Y-94684310D01*
X94717925Y-94684312D01*
X94717924Y-94684312D01*
X94584312Y-94817924D01*
X94584312Y-94817925D01*
X94584310Y-94817927D01*
X94566507Y-94842431D01*
X94473240Y-94970800D01*
X94387454Y-95139163D01*
X94329059Y-95318881D01*
X94299500Y-95505513D01*
X94299500Y-95694486D01*
X94329059Y-95881118D01*
X94387454Y-96060836D01*
X94432536Y-96149313D01*
X94473240Y-96229199D01*
X94584310Y-96382073D01*
X94584312Y-96382075D01*
X94664556Y-96462319D01*
X94698041Y-96523642D01*
X94693057Y-96593334D01*
X94664556Y-96637681D01*
X94584312Y-96717924D01*
X94584312Y-96717925D01*
X94584310Y-96717927D01*
X94542558Y-96775393D01*
X94473240Y-96870800D01*
X94387454Y-97039163D01*
X94329059Y-97218881D01*
X94299500Y-97405513D01*
X94299500Y-97594486D01*
X94329059Y-97781118D01*
X94387454Y-97960836D01*
X94445219Y-98074205D01*
X94458115Y-98142875D01*
X94431838Y-98207615D01*
X94374732Y-98247872D01*
X94334734Y-98254500D01*
X92425808Y-98254500D01*
X92358769Y-98234815D01*
X92338127Y-98218181D01*
X90694319Y-96574373D01*
X90660834Y-96513050D01*
X90658000Y-96486692D01*
X90658000Y-92374499D01*
X90677685Y-92307460D01*
X90730489Y-92261705D01*
X90782000Y-92250499D01*
X90807502Y-92250499D01*
X90807508Y-92250499D01*
X90910297Y-92239999D01*
X91076834Y-92184814D01*
X91226156Y-92092712D01*
X91350212Y-91968656D01*
X91442314Y-91819334D01*
X91497499Y-91652797D01*
X91508000Y-91550009D01*
X91507999Y-90255513D01*
X94049500Y-90255513D01*
X94049500Y-90444486D01*
X94079059Y-90631118D01*
X94137454Y-90810836D01*
X94192782Y-90919422D01*
X94223240Y-90979199D01*
X94334310Y-91132073D01*
X94334312Y-91132075D01*
X94414556Y-91212319D01*
X94448041Y-91273642D01*
X94443057Y-91343334D01*
X94414556Y-91387681D01*
X94334312Y-91467924D01*
X94334312Y-91467925D01*
X94334310Y-91467927D01*
X94310523Y-91500667D01*
X94223240Y-91620800D01*
X94137454Y-91789163D01*
X94079059Y-91968881D01*
X94049500Y-92155513D01*
X94049500Y-92344486D01*
X94079059Y-92531118D01*
X94137454Y-92710836D01*
X94214844Y-92862721D01*
X94223240Y-92879199D01*
X94334310Y-93032073D01*
X94467927Y-93165690D01*
X94620801Y-93276760D01*
X94700347Y-93317290D01*
X94789163Y-93362545D01*
X94789165Y-93362545D01*
X94789168Y-93362547D01*
X94885497Y-93393846D01*
X94968881Y-93420940D01*
X95155514Y-93450500D01*
X95155519Y-93450500D01*
X95344486Y-93450500D01*
X95531118Y-93420940D01*
X95710832Y-93362547D01*
X95879199Y-93276760D01*
X96032073Y-93165690D01*
X96165690Y-93032073D01*
X96276760Y-92879199D01*
X96362547Y-92710832D01*
X96420940Y-92531118D01*
X96426977Y-92493000D01*
X96450500Y-92344486D01*
X96450500Y-92155513D01*
X96420940Y-91968881D01*
X96393846Y-91885497D01*
X96362547Y-91789168D01*
X96362545Y-91789165D01*
X96362545Y-91789163D01*
X96300402Y-91667202D01*
X96276760Y-91620801D01*
X96165690Y-91467927D01*
X96085444Y-91387681D01*
X96051959Y-91326358D01*
X96056943Y-91256666D01*
X96085444Y-91212319D01*
X96121331Y-91176432D01*
X96165690Y-91132073D01*
X96276760Y-90979199D01*
X96362547Y-90810832D01*
X96420940Y-90631118D01*
X96427194Y-90591630D01*
X96450500Y-90444486D01*
X96450500Y-90255513D01*
X96420940Y-90068881D01*
X96373594Y-89923168D01*
X96362547Y-89889168D01*
X96362545Y-89889165D01*
X96362545Y-89889163D01*
X96303787Y-89773844D01*
X96276760Y-89720801D01*
X96165690Y-89567927D01*
X96032073Y-89434310D01*
X95879199Y-89323240D01*
X95834840Y-89300638D01*
X95710836Y-89237454D01*
X95531118Y-89179059D01*
X95344486Y-89149500D01*
X95344481Y-89149500D01*
X95155519Y-89149500D01*
X95155514Y-89149500D01*
X94968881Y-89179059D01*
X94789163Y-89237454D01*
X94620800Y-89323240D01*
X94555339Y-89370801D01*
X94467927Y-89434310D01*
X94467925Y-89434312D01*
X94467924Y-89434312D01*
X94334312Y-89567924D01*
X94334312Y-89567925D01*
X94334310Y-89567927D01*
X94331280Y-89572098D01*
X94223240Y-89720800D01*
X94137454Y-89889163D01*
X94079059Y-90068881D01*
X94049500Y-90255513D01*
X91507999Y-90255513D01*
X91507999Y-89949992D01*
X91497499Y-89847203D01*
X91442314Y-89680666D01*
X91350212Y-89531344D01*
X91226156Y-89407288D01*
X91109887Y-89335573D01*
X91076836Y-89315187D01*
X91076831Y-89315185D01*
X91031054Y-89300016D01*
X90910297Y-89260001D01*
X90910295Y-89260000D01*
X90807510Y-89249500D01*
X89207498Y-89249500D01*
X89207481Y-89249501D01*
X89104703Y-89260000D01*
X89104700Y-89260001D01*
X88938168Y-89315185D01*
X88938163Y-89315187D01*
X88788842Y-89407289D01*
X88664789Y-89531342D01*
X88572687Y-89680663D01*
X88572685Y-89680668D01*
X88544849Y-89764670D01*
X88517501Y-89847203D01*
X88517501Y-89847204D01*
X88517500Y-89847204D01*
X88507000Y-89949983D01*
X80627660Y-89949983D01*
X80637150Y-86227343D01*
X80657006Y-86160357D01*
X80709926Y-86114737D01*
X80761465Y-86103662D01*
X196877376Y-86399687D01*
G37*
%TD.AperFunction*%
%TD*%
M02*
