%TF.GenerationSoftware,KiCad,Pcbnew,10.0.3*%
%TF.CreationDate,2026-06-10T23:02:52+05:45*%
%TF.ProjectId,3v to 40v DC booster,33762074-6f20-4343-9076-20444320626f,rev?*%
%TF.SameCoordinates,Original*%
%TF.FileFunction,Copper,L1,Top*%
%TF.FilePolarity,Positive*%
%FSLAX46Y46*%
G04 Gerber Fmt 4.6, Leading zero omitted, Abs format (unit mm)*
G04 Created by KiCad (PCBNEW 10.0.3) date 2026-06-10 23:02:52*
%MOMM*%
%LPD*%
G01*
G04 APERTURE LIST*
G04 Aperture macros list*
%AMRoundRect*
0 Rectangle with rounded corners*
0 $1 Rounding radius*
0 $2 $3 $4 $5 $6 $7 $8 $9 X,Y pos of 4 corners*
0 Add a 4 corners polygon primitive as box body*
4,1,4,$2,$3,$4,$5,$6,$7,$8,$9,$2,$3,0*
0 Add four circle primitives for the rounded corners*
1,1,$1+$1,$2,$3*
1,1,$1+$1,$4,$5*
1,1,$1+$1,$6,$7*
1,1,$1+$1,$8,$9*
0 Add four rect primitives between the rounded corners*
20,1,$1+$1,$2,$3,$4,$5,0*
20,1,$1+$1,$4,$5,$6,$7,0*
20,1,$1+$1,$6,$7,$8,$9,0*
20,1,$1+$1,$8,$9,$2,$3,0*%
G04 Aperture macros list end*
%TA.AperFunction,ComponentPad*%
%ADD10RoundRect,0.250000X-0.350000X-0.350000X0.350000X-0.350000X0.350000X0.350000X-0.350000X0.350000X0*%
%TD*%
%TA.AperFunction,ComponentPad*%
%ADD11C,1.200000*%
%TD*%
%TA.AperFunction,ComponentPad*%
%ADD12RoundRect,0.250000X-0.550000X-0.550000X0.550000X-0.550000X0.550000X0.550000X-0.550000X0.550000X0*%
%TD*%
%TA.AperFunction,ComponentPad*%
%ADD13C,1.600000*%
%TD*%
%TA.AperFunction,ComponentPad*%
%ADD14RoundRect,0.250001X-0.799999X0.799999X-0.799999X-0.799999X0.799999X-0.799999X0.799999X0.799999X0*%
%TD*%
%TA.AperFunction,ComponentPad*%
%ADD15C,2.100000*%
%TD*%
%TA.AperFunction,ComponentPad*%
%ADD16R,1.050000X1.500000*%
%TD*%
%TA.AperFunction,ComponentPad*%
%ADD17O,1.050000X1.500000*%
%TD*%
%TA.AperFunction,ComponentPad*%
%ADD18C,1.400000*%
%TD*%
%TA.AperFunction,ComponentPad*%
%ADD19O,1.600000X1.600000*%
%TD*%
%TA.AperFunction,ComponentPad*%
%ADD20C,1.440000*%
%TD*%
%TA.AperFunction,ComponentPad*%
%ADD21RoundRect,0.250001X0.799999X-0.799999X0.799999X0.799999X-0.799999X0.799999X-0.799999X-0.799999X0*%
%TD*%
%TA.AperFunction,ComponentPad*%
%ADD22RoundRect,0.249999X0.850001X0.850001X-0.850001X0.850001X-0.850001X-0.850001X0.850001X-0.850001X0*%
%TD*%
%TA.AperFunction,ComponentPad*%
%ADD23C,2.200000*%
%TD*%
%TA.AperFunction,Conductor*%
%ADD24C,0.500000*%
%TD*%
G04 APERTURE END LIST*
D10*
%TO.P,C4,1*%
%TO.N,Net-(U1-THRES)*%
X138500000Y-97000000D03*
D11*
%TO.P,C4,2*%
%TO.N,GND*%
X140000000Y-97000000D03*
%TD*%
D12*
%TO.P,U1,1,GND_1*%
%TO.N,GND*%
X145195000Y-91520000D03*
D13*
%TO.P,U1,2,TRIG_2*%
%TO.N,Net-(U1-THRES)*%
X145195000Y-94060000D03*
%TO.P,U1,3,OUT_3*%
%TO.N,Net-(U1-OUT)*%
X145195000Y-96600000D03*
%TO.P,U1,4,~{RST}_4*%
%TO.N,Net-(J1-Pin_2)*%
X145195000Y-99140000D03*
%TO.P,U1,5,CONT_5*%
%TO.N,Net-(D1-A)*%
X152815000Y-99140000D03*
%TO.P,U1,6,THRES_6*%
%TO.N,Net-(U1-THRES)*%
X152815000Y-96600000D03*
%TO.P,U1,7,DISCH_7*%
%TO.N,Net-(U1-DISCH)*%
X152815000Y-94060000D03*
%TO.P,U1,8,VCC_8*%
%TO.N,Net-(J1-Pin_2)*%
X152815000Y-91520000D03*
%TD*%
D14*
%TO.P,Vin,1,Pin_1_1*%
%TO.N,GND*%
X125632500Y-93730000D03*
D15*
%TO.P,Vin,2,Pin_2_2*%
%TO.N,Net-(J1-Pin_2)*%
X125632500Y-96270000D03*
%TD*%
D16*
%TO.P,Q1,1,C_1*%
%TO.N,Net-(D1-A)*%
X172270000Y-96000000D03*
D17*
%TO.P,Q1,2,B_2*%
%TO.N,Net-(Q1-B)*%
X171000000Y-96000000D03*
%TO.P,Q1,3,E_3*%
%TO.N,GND*%
X169730000Y-96000000D03*
%TD*%
D18*
%TO.P,R2,1*%
%TO.N,Net-(J1-Pin_2)*%
X139920000Y-87500000D03*
%TO.P,R2,2*%
%TO.N,Net-(U1-THRES)*%
X145000000Y-87500000D03*
%TD*%
D10*
%TO.P,C3,1*%
%TO.N,Net-(D1-K)*%
X176500000Y-95000000D03*
D11*
%TO.P,C3,2*%
%TO.N,GND*%
X178000000Y-95000000D03*
%TD*%
D13*
%TO.P,L1,1,1_1*%
%TO.N,Net-(U1-DISCH)*%
X134000000Y-102500000D03*
D19*
%TO.P,L1,2,2_2*%
%TO.N,Net-(J1-Pin_2)*%
X134000000Y-92500000D03*
%TD*%
D20*
%TO.P,R1,1,1_1*%
%TO.N,Net-(J1-Pin_2)*%
X128460000Y-89230000D03*
%TO.P,R1,2,2_2*%
%TO.N,Net-(U1-THRES)*%
X131000000Y-86690000D03*
%TO.P,R1,3,3_3*%
%TO.N,GND*%
X133540000Y-89230000D03*
%TD*%
D18*
%TO.P,R3,1*%
%TO.N,Net-(Q1-B)*%
X161460000Y-97000000D03*
%TO.P,R3,2*%
%TO.N,Net-(U1-OUT)*%
X166540000Y-97000000D03*
%TD*%
D21*
%TO.P,vout,1,Pin_1_1*%
%TO.N,GND*%
X185000000Y-97000000D03*
D15*
%TO.P,vout,2,Pin_2_2*%
%TO.N,Net-(D1-K)*%
X185000000Y-94460000D03*
%TD*%
D22*
%TO.P,D1,1,K_1*%
%TO.N,Net-(D1-K)*%
X169080000Y-90000000D03*
D23*
%TO.P,D1,2,A_2*%
%TO.N,Net-(D1-A)*%
X158920000Y-90000000D03*
%TD*%
D10*
%TO.P,C1,1*%
%TO.N,Net-(D1-A)*%
X156500000Y-97000000D03*
D11*
%TO.P,C1,2*%
%TO.N,GND*%
X158000000Y-97000000D03*
%TD*%
%TO.N,Net-(U1-THRES)*%
D24*
X131719999Y-85970001D02*
X143470001Y-85970001D01*
X145000000Y-87500000D02*
X147500000Y-87500000D01*
X143470001Y-85970001D02*
X145000000Y-87500000D01*
X149000000Y-89000000D02*
X149000000Y-93000000D01*
X131000000Y-86690000D02*
X131719999Y-85970001D01*
X147940000Y-94060000D02*
X145195000Y-94060000D01*
X149000000Y-93000000D02*
X147940000Y-94060000D01*
X147500000Y-87500000D02*
X149000000Y-89000000D01*
%TO.N,Net-(U1-OUT)*%
X146600000Y-96600000D02*
X153000000Y-103000000D01*
X163000000Y-103000000D02*
X166540000Y-99460000D01*
X145195000Y-96600000D02*
X146600000Y-96600000D01*
X166540000Y-99460000D02*
X166540000Y-97000000D01*
X153000000Y-103000000D02*
X163000000Y-103000000D01*
%TO.N,Net-(J1-Pin_2)*%
X128460000Y-89230000D02*
X128460000Y-94927424D01*
X143000000Y-96000000D02*
X143000000Y-99000000D01*
X152815000Y-91520000D02*
X148985000Y-95350000D01*
X148985000Y-95350000D02*
X143650000Y-95350000D01*
X127117424Y-96270000D02*
X125632500Y-96270000D01*
X143650000Y-95350000D02*
X143000000Y-96000000D01*
X128460000Y-94927424D02*
X127117424Y-96270000D01*
X145195000Y-99140000D02*
X143140000Y-99140000D01*
X143140000Y-99140000D02*
X143000000Y-99000000D01*
%TO.N,Net-(D1-A)*%
X154360000Y-99140000D02*
X156500000Y-97000000D01*
X152815000Y-99140000D02*
X154360000Y-99140000D01*
%TD*%
M02*
