%TF.GenerationSoftware,KiCad,Pcbnew,10.0.3*%
%TF.CreationDate,2026-06-30T23:10:04+05:45*%
%TF.ProjectId,3-Phase BLDC (Brushless DC) Motor Controller.,332d5068-6173-4652-9042-4c4443202842,rev?*%
%TF.SameCoordinates,Original*%
%TF.FileFunction,Soldermask,Bot*%
%TF.FilePolarity,Negative*%
%FSLAX46Y46*%
G04 Gerber Fmt 4.6, Leading zero omitted, Abs format (unit mm)*
G04 Created by KiCad (PCBNEW 10.0.3) date 2026-06-30 23:10:04*
%MOMM*%
%LPD*%
G01*
G04 APERTURE LIST*
G04 APERTURE END LIST*
G36*
X142154848Y-117498364D02*
G01*
X142205040Y-117504187D01*
X142222189Y-117511759D01*
X142245670Y-117516430D01*
X142270807Y-117533226D01*
X142290695Y-117542008D01*
X142304278Y-117555591D01*
X142326776Y-117570624D01*
X142341808Y-117593121D01*
X142355391Y-117606704D01*
X142364171Y-117626589D01*
X142380970Y-117651730D01*
X142385640Y-117675211D01*
X142393212Y-117692359D01*
X142399036Y-117742563D01*
X142399999Y-117747402D01*
X142399999Y-117750858D01*
X142400000Y-117750867D01*
X142400000Y-119007229D01*
X142400000Y-120047399D01*
X142399034Y-120052251D01*
X142393212Y-120102440D01*
X142385641Y-120119585D01*
X142380970Y-120143070D01*
X142364170Y-120168212D01*
X142355391Y-120188095D01*
X142341810Y-120201675D01*
X142326776Y-120224176D01*
X142304275Y-120239210D01*
X142290695Y-120252791D01*
X142270812Y-120261570D01*
X142245670Y-120278370D01*
X142222187Y-120283040D01*
X142205040Y-120290612D01*
X142154836Y-120296436D01*
X142149998Y-120297399D01*
X142146541Y-120297399D01*
X142146533Y-120297400D01*
X139853467Y-120297400D01*
X139853466Y-120297399D01*
X139850001Y-120297400D01*
X139845149Y-120296435D01*
X139794959Y-120290612D01*
X139777812Y-120283040D01*
X139754330Y-120278370D01*
X139729189Y-120261571D01*
X139709304Y-120252791D01*
X139695721Y-120239208D01*
X139673224Y-120224176D01*
X139658191Y-120201678D01*
X139644608Y-120188095D01*
X139635826Y-120168207D01*
X139619030Y-120143070D01*
X139614360Y-120119591D01*
X139606787Y-120102440D01*
X139600963Y-120052236D01*
X139600001Y-120047398D01*
X139600000Y-120043940D01*
X139600000Y-120043932D01*
X139600000Y-117750867D01*
X139600000Y-117750866D01*
X139600000Y-117747401D01*
X139600964Y-117742551D01*
X139606787Y-117692359D01*
X139614359Y-117675208D01*
X139619030Y-117651730D01*
X139635825Y-117626593D01*
X139644608Y-117606704D01*
X139658193Y-117593118D01*
X139673224Y-117570624D01*
X139695718Y-117555593D01*
X139709304Y-117542008D01*
X139729193Y-117533225D01*
X139754330Y-117516430D01*
X139777807Y-117511760D01*
X139794959Y-117504187D01*
X139845165Y-117498363D01*
X139850002Y-117497401D01*
X139853458Y-117497400D01*
X139853467Y-117497400D01*
X142146533Y-117497400D01*
X142149999Y-117497400D01*
X142154848Y-117498364D01*
G37*
G36*
X146326824Y-117536082D02*
G01*
X146535757Y-117603969D01*
X146731498Y-117703704D01*
X146909227Y-117832832D01*
X147064568Y-117988173D01*
X147193696Y-118165902D01*
X147293431Y-118361643D01*
X147361318Y-118570576D01*
X147395684Y-118787557D01*
X147395684Y-119007243D01*
X147361318Y-119224224D01*
X147293431Y-119433157D01*
X147193696Y-119628898D01*
X147064568Y-119806627D01*
X146909227Y-119961968D01*
X146731498Y-120091096D01*
X146535757Y-120190831D01*
X146326824Y-120258718D01*
X146109843Y-120293084D01*
X145890157Y-120293084D01*
X145673176Y-120258718D01*
X145464243Y-120190831D01*
X145268502Y-120091096D01*
X145090773Y-119961968D01*
X144935432Y-119806627D01*
X144806304Y-119628898D01*
X144706569Y-119433157D01*
X144638682Y-119224224D01*
X144604316Y-119007243D01*
X144604316Y-118787557D01*
X144638682Y-118570576D01*
X144706569Y-118361643D01*
X144806304Y-118165902D01*
X144935432Y-117988173D01*
X145090773Y-117832832D01*
X145268502Y-117703704D01*
X145464243Y-117603969D01*
X145673176Y-117536082D01*
X145890157Y-117501716D01*
X146109843Y-117501716D01*
X146326824Y-117536082D01*
G37*
G36*
X157349500Y-118586364D02*
G01*
X157398260Y-118592021D01*
X157414920Y-118599377D01*
X157437929Y-118603954D01*
X157462561Y-118620413D01*
X157481814Y-118628914D01*
X157494964Y-118642064D01*
X157517007Y-118656793D01*
X157531735Y-118678835D01*
X157544885Y-118691985D01*
X157553385Y-118711236D01*
X157569846Y-118735871D01*
X157574423Y-118758881D01*
X157581778Y-118775539D01*
X157587433Y-118824289D01*
X157588400Y-118829150D01*
X157588400Y-119316650D01*
X157587432Y-119321512D01*
X157581778Y-119370260D01*
X157574423Y-119386916D01*
X157569846Y-119409929D01*
X157553383Y-119434565D01*
X157544885Y-119453814D01*
X157531737Y-119466961D01*
X157517007Y-119489007D01*
X157494961Y-119503737D01*
X157481814Y-119516885D01*
X157462565Y-119525383D01*
X157437929Y-119541846D01*
X157414916Y-119546423D01*
X157398260Y-119553778D01*
X157349511Y-119559432D01*
X157344650Y-119560400D01*
X156432150Y-119560400D01*
X156427288Y-119559432D01*
X156378539Y-119553778D01*
X156361881Y-119546423D01*
X156338871Y-119541846D01*
X156314236Y-119525385D01*
X156294985Y-119516885D01*
X156281835Y-119503735D01*
X156259793Y-119489007D01*
X156245064Y-119466964D01*
X156231914Y-119453814D01*
X156223413Y-119434561D01*
X156206954Y-119409929D01*
X156202377Y-119386920D01*
X156195021Y-119370260D01*
X156189364Y-119321499D01*
X156188400Y-119316650D01*
X156188400Y-118829150D01*
X156189364Y-118824300D01*
X156195021Y-118775539D01*
X156202377Y-118758877D01*
X156206954Y-118735871D01*
X156223411Y-118711240D01*
X156231914Y-118691985D01*
X156245066Y-118678832D01*
X156259793Y-118656793D01*
X156281832Y-118642066D01*
X156294985Y-118628914D01*
X156314240Y-118620411D01*
X156338871Y-118603954D01*
X156361877Y-118599377D01*
X156378539Y-118592021D01*
X156427301Y-118586364D01*
X156432150Y-118585400D01*
X157344650Y-118585400D01*
X157349500Y-118586364D01*
G37*
G36*
X157349500Y-116711364D02*
G01*
X157398260Y-116717021D01*
X157414920Y-116724377D01*
X157437929Y-116728954D01*
X157462561Y-116745413D01*
X157481814Y-116753914D01*
X157494964Y-116767064D01*
X157517007Y-116781793D01*
X157531735Y-116803835D01*
X157544885Y-116816985D01*
X157553385Y-116836236D01*
X157569846Y-116860871D01*
X157574423Y-116883881D01*
X157581778Y-116900539D01*
X157587433Y-116949289D01*
X157588400Y-116954150D01*
X157588400Y-117441650D01*
X157587432Y-117446512D01*
X157581778Y-117495260D01*
X157574423Y-117511916D01*
X157569846Y-117534929D01*
X157553383Y-117559565D01*
X157544885Y-117578814D01*
X157531737Y-117591961D01*
X157517007Y-117614007D01*
X157494961Y-117628737D01*
X157481814Y-117641885D01*
X157462565Y-117650383D01*
X157437929Y-117666846D01*
X157414916Y-117671423D01*
X157398260Y-117678778D01*
X157349511Y-117684432D01*
X157344650Y-117685400D01*
X156432150Y-117685400D01*
X156427288Y-117684432D01*
X156378539Y-117678778D01*
X156361881Y-117671423D01*
X156338871Y-117666846D01*
X156314236Y-117650385D01*
X156294985Y-117641885D01*
X156281835Y-117628735D01*
X156259793Y-117614007D01*
X156245064Y-117591964D01*
X156231914Y-117578814D01*
X156223413Y-117559561D01*
X156206954Y-117534929D01*
X156202377Y-117511920D01*
X156195021Y-117495260D01*
X156189364Y-117446499D01*
X156188400Y-117441650D01*
X156188400Y-116954150D01*
X156189364Y-116949300D01*
X156195021Y-116900539D01*
X156202377Y-116883877D01*
X156206954Y-116860871D01*
X156223411Y-116836240D01*
X156231914Y-116816985D01*
X156245066Y-116803832D01*
X156259793Y-116781793D01*
X156281832Y-116767066D01*
X156294985Y-116753914D01*
X156314240Y-116745411D01*
X156338871Y-116728954D01*
X156361877Y-116724377D01*
X156378539Y-116717021D01*
X156427301Y-116711364D01*
X156432150Y-116710400D01*
X157344650Y-116710400D01*
X157349500Y-116711364D01*
G37*
G36*
X157822650Y-114086764D02*
G01*
X157872840Y-114092587D01*
X157889989Y-114100159D01*
X157913471Y-114104830D01*
X157938610Y-114121627D01*
X157958496Y-114130408D01*
X157972077Y-114143989D01*
X157994577Y-114159023D01*
X158009610Y-114181522D01*
X158023191Y-114195103D01*
X158031970Y-114214986D01*
X158048770Y-114240129D01*
X158053441Y-114263612D01*
X158061012Y-114280759D01*
X158066833Y-114330939D01*
X158067800Y-114335800D01*
X158067800Y-115635800D01*
X158066832Y-115640663D01*
X158061012Y-115690840D01*
X158053441Y-115707985D01*
X158048770Y-115731471D01*
X158031969Y-115756615D01*
X158023191Y-115776496D01*
X158009612Y-115790074D01*
X157994577Y-115812577D01*
X157972074Y-115827612D01*
X157958496Y-115841191D01*
X157938615Y-115849969D01*
X157913471Y-115866770D01*
X157889985Y-115871441D01*
X157872840Y-115879012D01*
X157822661Y-115884832D01*
X157817800Y-115885800D01*
X156517800Y-115885800D01*
X156512938Y-115884832D01*
X156462759Y-115879012D01*
X156445612Y-115871441D01*
X156422129Y-115866770D01*
X156396986Y-115849970D01*
X156377103Y-115841191D01*
X156363522Y-115827610D01*
X156341023Y-115812577D01*
X156325989Y-115790077D01*
X156312408Y-115776496D01*
X156303627Y-115756610D01*
X156286830Y-115731471D01*
X156282159Y-115707989D01*
X156274587Y-115690840D01*
X156268764Y-115640649D01*
X156267800Y-115635800D01*
X156267800Y-114335800D01*
X156268764Y-114330950D01*
X156274587Y-114280759D01*
X156282159Y-114263608D01*
X156286830Y-114240129D01*
X156303626Y-114214991D01*
X156312408Y-114195103D01*
X156325991Y-114181519D01*
X156341023Y-114159023D01*
X156363519Y-114143991D01*
X156377103Y-114130408D01*
X156396991Y-114121626D01*
X156422129Y-114104830D01*
X156445608Y-114100159D01*
X156462759Y-114092587D01*
X156512951Y-114086764D01*
X156517800Y-114085800D01*
X157817800Y-114085800D01*
X157822650Y-114086764D01*
G37*
G36*
X161754848Y-113253364D02*
G01*
X161805040Y-113259187D01*
X161822189Y-113266759D01*
X161845670Y-113271430D01*
X161870807Y-113288226D01*
X161890695Y-113297008D01*
X161904278Y-113310591D01*
X161926776Y-113325624D01*
X161941808Y-113348121D01*
X161955391Y-113361704D01*
X161964171Y-113381589D01*
X161980970Y-113406730D01*
X161985640Y-113430211D01*
X161993212Y-113447359D01*
X161999036Y-113497563D01*
X161999999Y-113502402D01*
X161999999Y-113505858D01*
X162000000Y-113505867D01*
X162000000Y-114546537D01*
X162000000Y-115402399D01*
X161999034Y-115407251D01*
X161993212Y-115457440D01*
X161985641Y-115474585D01*
X161980970Y-115498070D01*
X161964170Y-115523212D01*
X161955391Y-115543095D01*
X161941810Y-115556675D01*
X161926776Y-115579176D01*
X161904275Y-115594210D01*
X161890695Y-115607791D01*
X161870812Y-115616570D01*
X161845670Y-115633370D01*
X161822187Y-115638040D01*
X161805040Y-115645612D01*
X161754836Y-115651436D01*
X161749998Y-115652399D01*
X161746541Y-115652399D01*
X161746533Y-115652400D01*
X159853467Y-115652400D01*
X159853466Y-115652399D01*
X159850001Y-115652400D01*
X159845149Y-115651435D01*
X159794959Y-115645612D01*
X159777812Y-115638040D01*
X159754330Y-115633370D01*
X159729189Y-115616571D01*
X159709304Y-115607791D01*
X159695721Y-115594208D01*
X159673224Y-115579176D01*
X159658191Y-115556678D01*
X159644608Y-115543095D01*
X159635826Y-115523207D01*
X159619030Y-115498070D01*
X159614360Y-115474591D01*
X159606787Y-115457440D01*
X159600963Y-115407236D01*
X159600001Y-115402398D01*
X159600000Y-115398940D01*
X159600000Y-115398932D01*
X159600000Y-113505867D01*
X159600000Y-113505866D01*
X159600000Y-113502401D01*
X159600964Y-113497551D01*
X159606787Y-113447359D01*
X159614359Y-113430208D01*
X159619030Y-113406730D01*
X159635825Y-113381593D01*
X159644608Y-113361704D01*
X159658193Y-113348118D01*
X159673224Y-113325624D01*
X159695718Y-113310593D01*
X159709304Y-113297008D01*
X159729193Y-113288225D01*
X159754330Y-113271430D01*
X159777807Y-113266760D01*
X159794959Y-113259187D01*
X159845165Y-113253363D01*
X159850002Y-113252401D01*
X159853458Y-113252400D01*
X159853467Y-113252400D01*
X161746533Y-113252400D01*
X161749999Y-113252400D01*
X161754848Y-113253364D01*
G37*
G36*
X173780134Y-113285556D02*
G01*
X173959220Y-113343745D01*
X174126998Y-113429232D01*
X174279338Y-113539913D01*
X174412487Y-113673062D01*
X174523168Y-113825402D01*
X174608655Y-113993180D01*
X174666844Y-114172266D01*
X174696301Y-114358249D01*
X174696301Y-114546551D01*
X174666844Y-114732534D01*
X174608655Y-114911620D01*
X174523168Y-115079398D01*
X174412487Y-115231738D01*
X174279338Y-115364887D01*
X174126998Y-115475568D01*
X173959220Y-115561055D01*
X173780134Y-115619244D01*
X173594151Y-115648701D01*
X173405849Y-115648701D01*
X173219866Y-115619244D01*
X173040780Y-115561055D01*
X172873002Y-115475568D01*
X172720662Y-115364887D01*
X172587513Y-115231738D01*
X172476832Y-115079398D01*
X172391345Y-114911620D01*
X172333156Y-114732534D01*
X172303699Y-114546551D01*
X172303699Y-114358249D01*
X172333156Y-114172266D01*
X172391345Y-113993180D01*
X172476832Y-113825402D01*
X172587513Y-113673062D01*
X172720662Y-113539913D01*
X172873002Y-113429232D01*
X173040780Y-113343745D01*
X173219866Y-113285556D01*
X173405849Y-113256099D01*
X173594151Y-113256099D01*
X173780134Y-113285556D01*
G37*
G36*
X167490850Y-108014564D02*
G01*
X167541040Y-108020387D01*
X167558189Y-108027959D01*
X167581671Y-108032630D01*
X167606810Y-108049427D01*
X167626696Y-108058208D01*
X167640277Y-108071789D01*
X167662777Y-108086823D01*
X167677810Y-108109322D01*
X167691391Y-108122903D01*
X167700170Y-108142786D01*
X167716970Y-108167929D01*
X167721641Y-108191412D01*
X167729212Y-108208559D01*
X167735033Y-108258739D01*
X167736000Y-108263600D01*
X167736000Y-109363600D01*
X167735032Y-109368463D01*
X167729212Y-109418640D01*
X167721641Y-109435785D01*
X167716970Y-109459271D01*
X167700169Y-109484415D01*
X167691391Y-109504296D01*
X167677812Y-109517874D01*
X167662777Y-109540377D01*
X167640274Y-109555412D01*
X167626696Y-109568991D01*
X167606815Y-109577769D01*
X167581671Y-109594570D01*
X167558185Y-109599241D01*
X167541040Y-109606812D01*
X167490861Y-109612632D01*
X167486000Y-109613600D01*
X166386000Y-109613600D01*
X166381138Y-109612632D01*
X166330959Y-109606812D01*
X166313812Y-109599241D01*
X166290329Y-109594570D01*
X166265186Y-109577770D01*
X166245303Y-109568991D01*
X166231722Y-109555410D01*
X166209223Y-109540377D01*
X166194189Y-109517877D01*
X166180608Y-109504296D01*
X166171827Y-109484410D01*
X166155030Y-109459271D01*
X166150359Y-109435789D01*
X166142787Y-109418640D01*
X166136964Y-109368449D01*
X166136000Y-109363600D01*
X166136000Y-108263600D01*
X166136964Y-108258750D01*
X166142787Y-108208559D01*
X166150359Y-108191408D01*
X166155030Y-108167929D01*
X166171826Y-108142791D01*
X166180608Y-108122903D01*
X166194191Y-108109319D01*
X166209223Y-108086823D01*
X166231719Y-108071791D01*
X166245303Y-108058208D01*
X166265191Y-108049426D01*
X166290329Y-108032630D01*
X166313808Y-108027959D01*
X166330959Y-108020387D01*
X166381151Y-108014564D01*
X166386000Y-108013600D01*
X167486000Y-108013600D01*
X167490850Y-108014564D01*
G37*
G36*
X169668228Y-108048048D02*
G01*
X169813117Y-108108063D01*
X169943515Y-108195192D01*
X170054408Y-108306085D01*
X170141537Y-108436483D01*
X170201552Y-108581372D01*
X170232148Y-108735186D01*
X170232148Y-108892014D01*
X170201552Y-109045828D01*
X170141537Y-109190717D01*
X170054408Y-109321115D01*
X169943515Y-109432008D01*
X169813117Y-109519137D01*
X169668228Y-109579152D01*
X169514414Y-109609748D01*
X169357586Y-109609748D01*
X169203772Y-109579152D01*
X169058883Y-109519137D01*
X168928485Y-109432008D01*
X168817592Y-109321115D01*
X168730463Y-109190717D01*
X168670448Y-109045828D01*
X168639852Y-108892014D01*
X168639852Y-108735186D01*
X168670448Y-108581372D01*
X168730463Y-108436483D01*
X168817592Y-108306085D01*
X168928485Y-108195192D01*
X169058883Y-108108063D01*
X169203772Y-108048048D01*
X169357586Y-108017452D01*
X169514414Y-108017452D01*
X169668228Y-108048048D01*
G37*
G36*
X161572650Y-107938364D02*
G01*
X161622840Y-107944187D01*
X161639989Y-107951759D01*
X161663471Y-107956430D01*
X161688610Y-107973227D01*
X161708496Y-107982008D01*
X161722077Y-107995589D01*
X161744577Y-108010623D01*
X161759610Y-108033122D01*
X161773191Y-108046703D01*
X161781970Y-108066586D01*
X161798770Y-108091729D01*
X161803441Y-108115212D01*
X161811012Y-108132359D01*
X161816833Y-108182539D01*
X161817800Y-108187400D01*
X161817800Y-109287400D01*
X161816832Y-109292263D01*
X161811012Y-109342440D01*
X161803441Y-109359585D01*
X161798770Y-109383071D01*
X161781969Y-109408215D01*
X161773191Y-109428096D01*
X161759612Y-109441674D01*
X161744577Y-109464177D01*
X161722074Y-109479212D01*
X161708496Y-109492791D01*
X161688615Y-109501569D01*
X161663471Y-109518370D01*
X161639985Y-109523041D01*
X161622840Y-109530612D01*
X161572661Y-109536432D01*
X161567800Y-109537400D01*
X160467800Y-109537400D01*
X160462938Y-109536432D01*
X160412759Y-109530612D01*
X160395612Y-109523041D01*
X160372129Y-109518370D01*
X160346986Y-109501570D01*
X160327103Y-109492791D01*
X160313522Y-109479210D01*
X160291023Y-109464177D01*
X160275989Y-109441677D01*
X160262408Y-109428096D01*
X160253627Y-109408210D01*
X160236830Y-109383071D01*
X160232159Y-109359589D01*
X160224587Y-109342440D01*
X160218764Y-109292249D01*
X160217800Y-109287400D01*
X160217800Y-108187400D01*
X160218764Y-108182550D01*
X160224587Y-108132359D01*
X160232159Y-108115208D01*
X160236830Y-108091729D01*
X160253626Y-108066591D01*
X160262408Y-108046703D01*
X160275991Y-108033119D01*
X160291023Y-108010623D01*
X160313519Y-107995591D01*
X160327103Y-107982008D01*
X160346991Y-107973226D01*
X160372129Y-107956430D01*
X160395608Y-107951759D01*
X160412759Y-107944187D01*
X160462951Y-107938364D01*
X160467800Y-107937400D01*
X161567800Y-107937400D01*
X161572650Y-107938364D01*
G37*
G36*
X163750028Y-107971848D02*
G01*
X163894917Y-108031863D01*
X164025315Y-108118992D01*
X164136208Y-108229885D01*
X164223337Y-108360283D01*
X164283352Y-108505172D01*
X164313948Y-108658986D01*
X164313948Y-108815814D01*
X164283352Y-108969628D01*
X164223337Y-109114517D01*
X164136208Y-109244915D01*
X164025315Y-109355808D01*
X163894917Y-109442937D01*
X163750028Y-109502952D01*
X163596214Y-109533548D01*
X163439386Y-109533548D01*
X163285572Y-109502952D01*
X163140683Y-109442937D01*
X163010285Y-109355808D01*
X162899392Y-109244915D01*
X162812263Y-109114517D01*
X162752248Y-108969628D01*
X162721652Y-108815814D01*
X162721652Y-108658986D01*
X162752248Y-108505172D01*
X162812263Y-108360283D01*
X162899392Y-108229885D01*
X163010285Y-108118992D01*
X163140683Y-108031863D01*
X163285572Y-107971848D01*
X163439386Y-107941252D01*
X163596214Y-107941252D01*
X163750028Y-107971848D01*
G37*
G36*
X129676428Y-107234448D02*
G01*
X129821317Y-107294463D01*
X129951715Y-107381592D01*
X130062608Y-107492485D01*
X130149737Y-107622883D01*
X130209752Y-107767772D01*
X130240348Y-107921586D01*
X130240348Y-108078414D01*
X130209752Y-108232228D01*
X130149737Y-108377117D01*
X130062608Y-108507515D01*
X129951715Y-108618408D01*
X129821317Y-108705537D01*
X129676428Y-108765552D01*
X129522614Y-108796148D01*
X129365786Y-108796148D01*
X129211972Y-108765552D01*
X129067083Y-108705537D01*
X128936685Y-108618408D01*
X128825792Y-108507515D01*
X128738663Y-108377117D01*
X128678648Y-108232228D01*
X128648052Y-108078414D01*
X128648052Y-107921586D01*
X128678648Y-107767772D01*
X128738663Y-107622883D01*
X128825792Y-107492485D01*
X128936685Y-107381592D01*
X129067083Y-107294463D01*
X129211972Y-107234448D01*
X129365786Y-107203852D01*
X129522614Y-107203852D01*
X129676428Y-107234448D01*
G37*
G36*
X139676428Y-107234448D02*
G01*
X139821317Y-107294463D01*
X139951715Y-107381592D01*
X140062608Y-107492485D01*
X140149737Y-107622883D01*
X140209752Y-107767772D01*
X140240348Y-107921586D01*
X140240348Y-108078414D01*
X140209752Y-108232228D01*
X140149737Y-108377117D01*
X140062608Y-108507515D01*
X139951715Y-108618408D01*
X139821317Y-108705537D01*
X139676428Y-108765552D01*
X139522614Y-108796148D01*
X139365786Y-108796148D01*
X139211972Y-108765552D01*
X139067083Y-108705537D01*
X138936685Y-108618408D01*
X138825792Y-108507515D01*
X138738663Y-108377117D01*
X138678648Y-108232228D01*
X138648052Y-108078414D01*
X138648052Y-107921586D01*
X138678648Y-107767772D01*
X138738663Y-107622883D01*
X138825792Y-107492485D01*
X138936685Y-107381592D01*
X139067083Y-107294463D01*
X139211972Y-107234448D01*
X139365786Y-107203852D01*
X139522614Y-107203852D01*
X139676428Y-107234448D01*
G37*
G36*
X125232228Y-105984448D02*
G01*
X125377117Y-106044463D01*
X125507515Y-106131592D01*
X125618408Y-106242485D01*
X125705537Y-106372883D01*
X125765552Y-106517772D01*
X125796148Y-106671586D01*
X125796148Y-106828414D01*
X125765552Y-106982228D01*
X125705537Y-107127117D01*
X125618408Y-107257515D01*
X125507515Y-107368408D01*
X125377117Y-107455537D01*
X125232228Y-107515552D01*
X125078414Y-107546148D01*
X124921586Y-107546148D01*
X124767772Y-107515552D01*
X124622883Y-107455537D01*
X124492485Y-107368408D01*
X124381592Y-107257515D01*
X124294463Y-107127117D01*
X124234448Y-106982228D01*
X124203852Y-106828414D01*
X124203852Y-106671586D01*
X124234448Y-106517772D01*
X124294463Y-106372883D01*
X124381592Y-106242485D01*
X124492485Y-106131592D01*
X124622883Y-106044463D01*
X124767772Y-105984448D01*
X124921586Y-105953852D01*
X125078414Y-105953852D01*
X125232228Y-105984448D01*
G37*
G36*
X157429056Y-103964554D02*
G01*
X157592057Y-104032071D01*
X157738754Y-104130091D01*
X157863509Y-104254846D01*
X157961529Y-104401543D01*
X158029046Y-104564544D01*
X158063466Y-104737585D01*
X158063466Y-104914015D01*
X158029046Y-105087056D01*
X157961529Y-105250057D01*
X157863509Y-105396754D01*
X157738754Y-105521509D01*
X157592057Y-105619529D01*
X157429056Y-105687046D01*
X157256015Y-105721466D01*
X157079585Y-105721466D01*
X156906544Y-105687046D01*
X156743543Y-105619529D01*
X156596846Y-105521509D01*
X156472091Y-105396754D01*
X156374071Y-105250057D01*
X156306554Y-105087056D01*
X156272134Y-104914015D01*
X156272134Y-104737585D01*
X156306554Y-104564544D01*
X156374071Y-104401543D01*
X156472091Y-104254846D01*
X156596846Y-104130091D01*
X156743543Y-104032071D01*
X156906544Y-103964554D01*
X157079585Y-103930134D01*
X157256015Y-103930134D01*
X157429056Y-103964554D01*
G37*
G36*
X125232228Y-103484448D02*
G01*
X125377117Y-103544463D01*
X125507515Y-103631592D01*
X125618408Y-103742485D01*
X125705537Y-103872883D01*
X125765552Y-104017772D01*
X125796148Y-104171586D01*
X125796148Y-104328414D01*
X125765552Y-104482228D01*
X125705537Y-104627117D01*
X125618408Y-104757515D01*
X125507515Y-104868408D01*
X125377117Y-104955537D01*
X125232228Y-105015552D01*
X125078414Y-105046148D01*
X124921586Y-105046148D01*
X124767772Y-105015552D01*
X124622883Y-104955537D01*
X124492485Y-104868408D01*
X124381592Y-104757515D01*
X124294463Y-104627117D01*
X124234448Y-104482228D01*
X124203852Y-104328414D01*
X124203852Y-104171586D01*
X124234448Y-104017772D01*
X124294463Y-103872883D01*
X124381592Y-103742485D01*
X124492485Y-103631592D01*
X124622883Y-103544463D01*
X124767772Y-103484448D01*
X124921586Y-103453852D01*
X125078414Y-103453852D01*
X125232228Y-103484448D01*
G37*
G36*
X142189050Y-102200964D02*
G01*
X142239240Y-102206787D01*
X142256389Y-102214359D01*
X142279871Y-102219030D01*
X142305010Y-102235827D01*
X142324896Y-102244608D01*
X142338477Y-102258189D01*
X142360977Y-102273223D01*
X142376010Y-102295722D01*
X142389591Y-102309303D01*
X142398370Y-102329186D01*
X142415170Y-102354329D01*
X142419841Y-102377812D01*
X142427412Y-102394959D01*
X142433233Y-102445139D01*
X142434200Y-102450000D01*
X142434200Y-103550000D01*
X142433232Y-103554863D01*
X142427412Y-103605040D01*
X142419841Y-103622185D01*
X142415170Y-103645671D01*
X142398369Y-103670815D01*
X142389591Y-103690696D01*
X142376012Y-103704274D01*
X142360977Y-103726777D01*
X142338474Y-103741812D01*
X142324896Y-103755391D01*
X142305015Y-103764169D01*
X142279871Y-103780970D01*
X142256385Y-103785641D01*
X142239240Y-103793212D01*
X142189061Y-103799032D01*
X142184200Y-103800000D01*
X141084200Y-103800000D01*
X141079338Y-103799032D01*
X141029159Y-103793212D01*
X141012012Y-103785641D01*
X140988529Y-103780970D01*
X140963386Y-103764170D01*
X140943503Y-103755391D01*
X140929922Y-103741810D01*
X140907423Y-103726777D01*
X140892389Y-103704277D01*
X140878808Y-103690696D01*
X140870027Y-103670810D01*
X140853230Y-103645671D01*
X140848559Y-103622189D01*
X140840987Y-103605040D01*
X140835164Y-103554849D01*
X140834200Y-103550000D01*
X140834200Y-102450000D01*
X140835164Y-102445150D01*
X140840987Y-102394959D01*
X140848559Y-102377808D01*
X140853230Y-102354329D01*
X140870026Y-102329191D01*
X140878808Y-102309303D01*
X140892391Y-102295719D01*
X140907423Y-102273223D01*
X140929919Y-102258191D01*
X140943503Y-102244608D01*
X140963391Y-102235826D01*
X140988529Y-102219030D01*
X141012008Y-102214359D01*
X141029159Y-102206787D01*
X141079351Y-102200964D01*
X141084200Y-102200000D01*
X142184200Y-102200000D01*
X142189050Y-102200964D01*
G37*
G36*
X149486428Y-102234448D02*
G01*
X149631317Y-102294463D01*
X149761715Y-102381592D01*
X149872608Y-102492485D01*
X149959737Y-102622883D01*
X150019752Y-102767772D01*
X150050348Y-102921586D01*
X150050348Y-103078414D01*
X150019752Y-103232228D01*
X149959737Y-103377117D01*
X149872608Y-103507515D01*
X149761715Y-103618408D01*
X149631317Y-103705537D01*
X149486428Y-103765552D01*
X149332614Y-103796148D01*
X149175786Y-103796148D01*
X149021972Y-103765552D01*
X148877083Y-103705537D01*
X148746685Y-103618408D01*
X148635792Y-103507515D01*
X148548663Y-103377117D01*
X148488648Y-103232228D01*
X148458052Y-103078414D01*
X148458052Y-102921586D01*
X148488648Y-102767772D01*
X148548663Y-102622883D01*
X148635792Y-102492485D01*
X148746685Y-102381592D01*
X148877083Y-102294463D01*
X149021972Y-102234448D01*
X149175786Y-102203852D01*
X149332614Y-102203852D01*
X149486428Y-102234448D01*
G37*
G36*
X129067399Y-102330142D02*
G01*
X129194178Y-102382655D01*
X129308275Y-102458893D01*
X129405307Y-102555925D01*
X129481545Y-102670022D01*
X129534058Y-102796801D01*
X129560829Y-102931388D01*
X129560829Y-103068612D01*
X129534058Y-103203199D01*
X129481545Y-103329978D01*
X129405307Y-103444075D01*
X129308275Y-103541107D01*
X129194178Y-103617345D01*
X129067399Y-103669858D01*
X128932812Y-103696629D01*
X128795588Y-103696629D01*
X128661001Y-103669858D01*
X128534222Y-103617345D01*
X128420125Y-103541107D01*
X128323093Y-103444075D01*
X128246855Y-103329978D01*
X128194342Y-103203199D01*
X128167571Y-103068612D01*
X128167571Y-102931388D01*
X128194342Y-102796801D01*
X128246855Y-102670022D01*
X128323093Y-102555925D01*
X128420125Y-102458893D01*
X128534222Y-102382655D01*
X128661001Y-102330142D01*
X128795588Y-102303371D01*
X128932812Y-102303371D01*
X129067399Y-102330142D01*
G37*
G36*
X134147399Y-102330142D02*
G01*
X134274178Y-102382655D01*
X134388275Y-102458893D01*
X134485307Y-102555925D01*
X134561545Y-102670022D01*
X134614058Y-102796801D01*
X134640829Y-102931388D01*
X134640829Y-103068612D01*
X134614058Y-103203199D01*
X134561545Y-103329978D01*
X134485307Y-103444075D01*
X134388275Y-103541107D01*
X134274178Y-103617345D01*
X134147399Y-103669858D01*
X134012812Y-103696629D01*
X133875588Y-103696629D01*
X133741001Y-103669858D01*
X133614222Y-103617345D01*
X133500125Y-103541107D01*
X133403093Y-103444075D01*
X133326855Y-103329978D01*
X133274342Y-103203199D01*
X133247571Y-103068612D01*
X133247571Y-102931388D01*
X133274342Y-102796801D01*
X133326855Y-102670022D01*
X133403093Y-102555925D01*
X133500125Y-102458893D01*
X133614222Y-102382655D01*
X133741001Y-102330142D01*
X133875588Y-102303371D01*
X134012812Y-102303371D01*
X134147399Y-102330142D01*
G37*
G36*
X137147399Y-102330142D02*
G01*
X137274178Y-102382655D01*
X137388275Y-102458893D01*
X137485307Y-102555925D01*
X137561545Y-102670022D01*
X137614058Y-102796801D01*
X137640829Y-102931388D01*
X137640829Y-103068612D01*
X137614058Y-103203199D01*
X137561545Y-103329978D01*
X137485307Y-103444075D01*
X137388275Y-103541107D01*
X137274178Y-103617345D01*
X137147399Y-103669858D01*
X137012812Y-103696629D01*
X136875588Y-103696629D01*
X136741001Y-103669858D01*
X136614222Y-103617345D01*
X136500125Y-103541107D01*
X136403093Y-103444075D01*
X136326855Y-103329978D01*
X136274342Y-103203199D01*
X136247571Y-103068612D01*
X136247571Y-102931388D01*
X136274342Y-102796801D01*
X136326855Y-102670022D01*
X136403093Y-102555925D01*
X136500125Y-102458893D01*
X136614222Y-102382655D01*
X136741001Y-102330142D01*
X136875588Y-102303371D01*
X137012812Y-102303371D01*
X137147399Y-102330142D01*
G37*
G36*
X139047399Y-102330142D02*
G01*
X139174178Y-102382655D01*
X139288275Y-102458893D01*
X139385307Y-102555925D01*
X139461545Y-102670022D01*
X139514058Y-102796801D01*
X139540829Y-102931388D01*
X139540829Y-103068612D01*
X139514058Y-103203199D01*
X139461545Y-103329978D01*
X139385307Y-103444075D01*
X139288275Y-103541107D01*
X139174178Y-103617345D01*
X139047399Y-103669858D01*
X138912812Y-103696629D01*
X138775588Y-103696629D01*
X138641001Y-103669858D01*
X138514222Y-103617345D01*
X138400125Y-103541107D01*
X138303093Y-103444075D01*
X138226855Y-103329978D01*
X138174342Y-103203199D01*
X138147571Y-103068612D01*
X138147571Y-102931388D01*
X138174342Y-102796801D01*
X138226855Y-102670022D01*
X138303093Y-102555925D01*
X138400125Y-102458893D01*
X138514222Y-102382655D01*
X138641001Y-102330142D01*
X138775588Y-102303371D01*
X138912812Y-102303371D01*
X139047399Y-102330142D01*
G37*
G36*
X125232228Y-99984448D02*
G01*
X125377117Y-100044463D01*
X125507515Y-100131592D01*
X125618408Y-100242485D01*
X125705537Y-100372883D01*
X125765552Y-100517772D01*
X125796148Y-100671586D01*
X125796148Y-100828414D01*
X125765552Y-100982228D01*
X125705537Y-101127117D01*
X125618408Y-101257515D01*
X125507515Y-101368408D01*
X125377117Y-101455537D01*
X125232228Y-101515552D01*
X125078414Y-101546148D01*
X124921586Y-101546148D01*
X124767772Y-101515552D01*
X124622883Y-101455537D01*
X124492485Y-101368408D01*
X124381592Y-101257515D01*
X124294463Y-101127117D01*
X124234448Y-100982228D01*
X124203852Y-100828414D01*
X124203852Y-100671586D01*
X124234448Y-100517772D01*
X124294463Y-100372883D01*
X124381592Y-100242485D01*
X124492485Y-100131592D01*
X124622883Y-100044463D01*
X124767772Y-99984448D01*
X124921586Y-99953852D01*
X125078414Y-99953852D01*
X125232228Y-99984448D01*
G37*
G36*
X129949050Y-98600964D02*
G01*
X129999240Y-98606787D01*
X130016389Y-98614359D01*
X130039871Y-98619030D01*
X130065010Y-98635827D01*
X130084896Y-98644608D01*
X130098477Y-98658189D01*
X130120977Y-98673223D01*
X130136010Y-98695722D01*
X130149591Y-98709303D01*
X130158370Y-98729186D01*
X130175170Y-98754329D01*
X130179841Y-98777812D01*
X130187412Y-98794959D01*
X130193233Y-98845139D01*
X130194200Y-98850000D01*
X130194200Y-100150000D01*
X130193232Y-100154863D01*
X130187412Y-100205040D01*
X130179841Y-100222185D01*
X130175170Y-100245671D01*
X130158369Y-100270815D01*
X130149591Y-100290696D01*
X130136012Y-100304274D01*
X130120977Y-100326777D01*
X130098474Y-100341812D01*
X130084896Y-100355391D01*
X130065015Y-100364169D01*
X130039871Y-100380970D01*
X130016385Y-100385641D01*
X129999240Y-100393212D01*
X129949061Y-100399032D01*
X129944200Y-100400000D01*
X127944200Y-100400000D01*
X127939338Y-100399032D01*
X127889159Y-100393212D01*
X127872012Y-100385641D01*
X127848529Y-100380970D01*
X127823386Y-100364170D01*
X127803503Y-100355391D01*
X127789922Y-100341810D01*
X127767423Y-100326777D01*
X127752389Y-100304277D01*
X127738808Y-100290696D01*
X127730027Y-100270810D01*
X127713230Y-100245671D01*
X127708559Y-100222189D01*
X127700987Y-100205040D01*
X127695164Y-100154849D01*
X127694200Y-100150000D01*
X127694200Y-98850000D01*
X127695164Y-98845150D01*
X127700987Y-98794959D01*
X127708559Y-98777808D01*
X127713230Y-98754329D01*
X127730026Y-98729191D01*
X127738808Y-98709303D01*
X127752391Y-98695719D01*
X127767423Y-98673223D01*
X127789919Y-98658191D01*
X127803503Y-98644608D01*
X127823391Y-98635826D01*
X127848529Y-98619030D01*
X127872008Y-98614359D01*
X127889159Y-98606787D01*
X127939351Y-98600964D01*
X127944200Y-98600000D01*
X129944200Y-98600000D01*
X129949050Y-98600964D01*
G37*
G36*
X133949050Y-98600964D02*
G01*
X133999240Y-98606787D01*
X134016389Y-98614359D01*
X134039871Y-98619030D01*
X134065010Y-98635827D01*
X134084896Y-98644608D01*
X134098477Y-98658189D01*
X134120977Y-98673223D01*
X134136010Y-98695722D01*
X134149591Y-98709303D01*
X134158370Y-98729186D01*
X134175170Y-98754329D01*
X134179841Y-98777812D01*
X134187412Y-98794959D01*
X134193233Y-98845139D01*
X134194200Y-98850000D01*
X134194200Y-100150000D01*
X134193232Y-100154863D01*
X134187412Y-100205040D01*
X134179841Y-100222185D01*
X134175170Y-100245671D01*
X134158369Y-100270815D01*
X134149591Y-100290696D01*
X134136012Y-100304274D01*
X134120977Y-100326777D01*
X134098474Y-100341812D01*
X134084896Y-100355391D01*
X134065015Y-100364169D01*
X134039871Y-100380970D01*
X134016385Y-100385641D01*
X133999240Y-100393212D01*
X133949061Y-100399032D01*
X133944200Y-100400000D01*
X131944200Y-100400000D01*
X131939338Y-100399032D01*
X131889159Y-100393212D01*
X131872012Y-100385641D01*
X131848529Y-100380970D01*
X131823386Y-100364170D01*
X131803503Y-100355391D01*
X131789922Y-100341810D01*
X131767423Y-100326777D01*
X131752389Y-100304277D01*
X131738808Y-100290696D01*
X131730027Y-100270810D01*
X131713230Y-100245671D01*
X131708559Y-100222189D01*
X131700987Y-100205040D01*
X131695164Y-100154849D01*
X131694200Y-100150000D01*
X131694200Y-98850000D01*
X131695164Y-98845150D01*
X131700987Y-98794959D01*
X131708559Y-98777808D01*
X131713230Y-98754329D01*
X131730026Y-98729191D01*
X131738808Y-98709303D01*
X131752391Y-98695719D01*
X131767423Y-98673223D01*
X131789919Y-98658191D01*
X131803503Y-98644608D01*
X131823391Y-98635826D01*
X131848529Y-98619030D01*
X131872008Y-98614359D01*
X131889159Y-98606787D01*
X131939351Y-98600964D01*
X131944200Y-98600000D01*
X133944200Y-98600000D01*
X133949050Y-98600964D01*
G37*
G36*
X136676428Y-98234448D02*
G01*
X136821317Y-98294463D01*
X136951715Y-98381592D01*
X137062608Y-98492485D01*
X137149737Y-98622883D01*
X137209752Y-98767772D01*
X137240348Y-98921586D01*
X137240348Y-99078414D01*
X137209752Y-99232228D01*
X137149737Y-99377117D01*
X137062608Y-99507515D01*
X136951715Y-99618408D01*
X136821317Y-99705537D01*
X136676428Y-99765552D01*
X136522614Y-99796148D01*
X136365786Y-99796148D01*
X136211972Y-99765552D01*
X136067083Y-99705537D01*
X135936685Y-99618408D01*
X135825792Y-99507515D01*
X135738663Y-99377117D01*
X135678648Y-99232228D01*
X135648052Y-99078414D01*
X135648052Y-98921586D01*
X135678648Y-98767772D01*
X135738663Y-98622883D01*
X135825792Y-98492485D01*
X135936685Y-98381592D01*
X136067083Y-98294463D01*
X136211972Y-98234448D01*
X136365786Y-98203852D01*
X136522614Y-98203852D01*
X136676428Y-98234448D01*
G37*
G36*
X139176428Y-98234448D02*
G01*
X139321317Y-98294463D01*
X139451715Y-98381592D01*
X139562608Y-98492485D01*
X139649737Y-98622883D01*
X139709752Y-98767772D01*
X139740348Y-98921586D01*
X139740348Y-99078414D01*
X139709752Y-99232228D01*
X139649737Y-99377117D01*
X139562608Y-99507515D01*
X139451715Y-99618408D01*
X139321317Y-99705537D01*
X139176428Y-99765552D01*
X139022614Y-99796148D01*
X138865786Y-99796148D01*
X138711972Y-99765552D01*
X138567083Y-99705537D01*
X138436685Y-99618408D01*
X138325792Y-99507515D01*
X138238663Y-99377117D01*
X138178648Y-99232228D01*
X138148052Y-99078414D01*
X138148052Y-98921586D01*
X138178648Y-98767772D01*
X138238663Y-98622883D01*
X138325792Y-98492485D01*
X138436685Y-98381592D01*
X138567083Y-98294463D01*
X138711972Y-98234448D01*
X138865786Y-98203852D01*
X139022614Y-98203852D01*
X139176428Y-98234448D01*
G37*
G36*
X142242399Y-98330142D02*
G01*
X142369178Y-98382655D01*
X142483275Y-98458893D01*
X142580307Y-98555925D01*
X142656545Y-98670022D01*
X142709058Y-98796801D01*
X142735829Y-98931388D01*
X142735829Y-99068612D01*
X142709058Y-99203199D01*
X142656545Y-99329978D01*
X142580307Y-99444075D01*
X142483275Y-99541107D01*
X142369178Y-99617345D01*
X142242399Y-99669858D01*
X142107812Y-99696629D01*
X141970588Y-99696629D01*
X141836001Y-99669858D01*
X141709222Y-99617345D01*
X141595125Y-99541107D01*
X141498093Y-99444075D01*
X141421855Y-99329978D01*
X141369342Y-99203199D01*
X141342571Y-99068612D01*
X141342571Y-98931388D01*
X141369342Y-98796801D01*
X141421855Y-98670022D01*
X141498093Y-98555925D01*
X141595125Y-98458893D01*
X141709222Y-98382655D01*
X141836001Y-98330142D01*
X141970588Y-98303371D01*
X142107812Y-98303371D01*
X142242399Y-98330142D01*
G37*
G36*
X144142399Y-98330142D02*
G01*
X144269178Y-98382655D01*
X144383275Y-98458893D01*
X144480307Y-98555925D01*
X144556545Y-98670022D01*
X144609058Y-98796801D01*
X144635829Y-98931388D01*
X144635829Y-99068612D01*
X144609058Y-99203199D01*
X144556545Y-99329978D01*
X144480307Y-99444075D01*
X144383275Y-99541107D01*
X144269178Y-99617345D01*
X144142399Y-99669858D01*
X144007812Y-99696629D01*
X143870588Y-99696629D01*
X143736001Y-99669858D01*
X143609222Y-99617345D01*
X143495125Y-99541107D01*
X143398093Y-99444075D01*
X143321855Y-99329978D01*
X143269342Y-99203199D01*
X143242571Y-99068612D01*
X143242571Y-98931388D01*
X143269342Y-98796801D01*
X143321855Y-98670022D01*
X143398093Y-98555925D01*
X143495125Y-98458893D01*
X143609222Y-98382655D01*
X143736001Y-98330142D01*
X143870588Y-98303371D01*
X144007812Y-98303371D01*
X144142399Y-98330142D01*
G37*
G36*
X146742399Y-98330142D02*
G01*
X146869178Y-98382655D01*
X146983275Y-98458893D01*
X147080307Y-98555925D01*
X147156545Y-98670022D01*
X147209058Y-98796801D01*
X147235829Y-98931388D01*
X147235829Y-99068612D01*
X147209058Y-99203199D01*
X147156545Y-99329978D01*
X147080307Y-99444075D01*
X146983275Y-99541107D01*
X146869178Y-99617345D01*
X146742399Y-99669858D01*
X146607812Y-99696629D01*
X146470588Y-99696629D01*
X146336001Y-99669858D01*
X146209222Y-99617345D01*
X146095125Y-99541107D01*
X145998093Y-99444075D01*
X145921855Y-99329978D01*
X145869342Y-99203199D01*
X145842571Y-99068612D01*
X145842571Y-98931388D01*
X145869342Y-98796801D01*
X145921855Y-98670022D01*
X145998093Y-98555925D01*
X146095125Y-98458893D01*
X146209222Y-98382655D01*
X146336001Y-98330142D01*
X146470588Y-98303371D01*
X146607812Y-98303371D01*
X146742399Y-98330142D01*
G37*
G36*
X148642399Y-98330142D02*
G01*
X148769178Y-98382655D01*
X148883275Y-98458893D01*
X148980307Y-98555925D01*
X149056545Y-98670022D01*
X149109058Y-98796801D01*
X149135829Y-98931388D01*
X149135829Y-99068612D01*
X149109058Y-99203199D01*
X149056545Y-99329978D01*
X148980307Y-99444075D01*
X148883275Y-99541107D01*
X148769178Y-99617345D01*
X148642399Y-99669858D01*
X148507812Y-99696629D01*
X148370588Y-99696629D01*
X148236001Y-99669858D01*
X148109222Y-99617345D01*
X147995125Y-99541107D01*
X147898093Y-99444075D01*
X147821855Y-99329978D01*
X147769342Y-99203199D01*
X147742571Y-99068612D01*
X147742571Y-98931388D01*
X147769342Y-98796801D01*
X147821855Y-98670022D01*
X147898093Y-98555925D01*
X147995125Y-98458893D01*
X148109222Y-98382655D01*
X148236001Y-98330142D01*
X148370588Y-98303371D01*
X148507812Y-98303371D01*
X148642399Y-98330142D01*
G37*
G36*
X154054850Y-97510964D02*
G01*
X154105040Y-97516787D01*
X154122189Y-97524359D01*
X154145671Y-97529030D01*
X154170810Y-97545827D01*
X154190696Y-97554608D01*
X154204277Y-97568189D01*
X154226777Y-97583223D01*
X154241810Y-97605722D01*
X154255391Y-97619303D01*
X154264170Y-97639186D01*
X154280970Y-97664329D01*
X154285641Y-97687812D01*
X154293212Y-97704959D01*
X154299033Y-97755139D01*
X154300000Y-97760000D01*
X154300000Y-98860000D01*
X154299032Y-98864863D01*
X154293212Y-98915040D01*
X154285641Y-98932185D01*
X154280970Y-98955671D01*
X154264169Y-98980815D01*
X154255391Y-99000696D01*
X154241812Y-99014274D01*
X154226777Y-99036777D01*
X154204274Y-99051812D01*
X154190696Y-99065391D01*
X154170815Y-99074169D01*
X154145671Y-99090970D01*
X154122185Y-99095641D01*
X154105040Y-99103212D01*
X154054861Y-99109032D01*
X154050000Y-99110000D01*
X152950000Y-99110000D01*
X152945138Y-99109032D01*
X152894959Y-99103212D01*
X152877812Y-99095641D01*
X152854329Y-99090970D01*
X152829186Y-99074170D01*
X152809303Y-99065391D01*
X152795722Y-99051810D01*
X152773223Y-99036777D01*
X152758189Y-99014277D01*
X152744608Y-99000696D01*
X152735827Y-98980810D01*
X152719030Y-98955671D01*
X152714359Y-98932189D01*
X152706787Y-98915040D01*
X152700964Y-98864849D01*
X152700000Y-98860000D01*
X152700000Y-97760000D01*
X152700964Y-97755150D01*
X152706787Y-97704959D01*
X152714359Y-97687808D01*
X152719030Y-97664329D01*
X152735826Y-97639191D01*
X152744608Y-97619303D01*
X152758191Y-97605719D01*
X152773223Y-97583223D01*
X152795719Y-97568191D01*
X152809303Y-97554608D01*
X152829191Y-97545826D01*
X152854329Y-97529030D01*
X152877808Y-97524359D01*
X152894959Y-97516787D01*
X152945151Y-97510964D01*
X152950000Y-97510000D01*
X154050000Y-97510000D01*
X154054850Y-97510964D01*
G37*
G36*
X125232228Y-97484448D02*
G01*
X125377117Y-97544463D01*
X125507515Y-97631592D01*
X125618408Y-97742485D01*
X125705537Y-97872883D01*
X125765552Y-98017772D01*
X125796148Y-98171586D01*
X125796148Y-98328414D01*
X125765552Y-98482228D01*
X125705537Y-98627117D01*
X125618408Y-98757515D01*
X125507515Y-98868408D01*
X125377117Y-98955537D01*
X125232228Y-99015552D01*
X125078414Y-99046148D01*
X124921586Y-99046148D01*
X124767772Y-99015552D01*
X124622883Y-98955537D01*
X124492485Y-98868408D01*
X124381592Y-98757515D01*
X124294463Y-98627117D01*
X124234448Y-98482228D01*
X124203852Y-98328414D01*
X124203852Y-98171586D01*
X124234448Y-98017772D01*
X124294463Y-97872883D01*
X124381592Y-97742485D01*
X124492485Y-97631592D01*
X124622883Y-97544463D01*
X124767772Y-97484448D01*
X124921586Y-97453852D01*
X125078414Y-97453852D01*
X125232228Y-97484448D01*
G37*
G36*
X125232228Y-93734448D02*
G01*
X125377117Y-93794463D01*
X125507515Y-93881592D01*
X125618408Y-93992485D01*
X125705537Y-94122883D01*
X125765552Y-94267772D01*
X125796148Y-94421586D01*
X125796148Y-94578414D01*
X125765552Y-94732228D01*
X125705537Y-94877117D01*
X125618408Y-95007515D01*
X125507515Y-95118408D01*
X125377117Y-95205537D01*
X125232228Y-95265552D01*
X125078414Y-95296148D01*
X124921586Y-95296148D01*
X124767772Y-95265552D01*
X124622883Y-95205537D01*
X124492485Y-95118408D01*
X124381592Y-95007515D01*
X124294463Y-94877117D01*
X124234448Y-94732228D01*
X124203852Y-94578414D01*
X124203852Y-94421586D01*
X124234448Y-94267772D01*
X124294463Y-94122883D01*
X124381592Y-93992485D01*
X124492485Y-93881592D01*
X124622883Y-93794463D01*
X124767772Y-93734448D01*
X124921586Y-93703852D01*
X125078414Y-93703852D01*
X125232228Y-93734448D01*
G37*
G36*
X127732228Y-93734448D02*
G01*
X127877117Y-93794463D01*
X128007515Y-93881592D01*
X128118408Y-93992485D01*
X128205537Y-94122883D01*
X128265552Y-94267772D01*
X128296148Y-94421586D01*
X128296148Y-94578414D01*
X128265552Y-94732228D01*
X128205537Y-94877117D01*
X128118408Y-95007515D01*
X128007515Y-95118408D01*
X127877117Y-95205537D01*
X127732228Y-95265552D01*
X127578414Y-95296148D01*
X127421586Y-95296148D01*
X127267772Y-95265552D01*
X127122883Y-95205537D01*
X126992485Y-95118408D01*
X126881592Y-95007515D01*
X126794463Y-94877117D01*
X126734448Y-94732228D01*
X126703852Y-94578414D01*
X126703852Y-94421586D01*
X126734448Y-94267772D01*
X126794463Y-94122883D01*
X126881592Y-93992485D01*
X126992485Y-93881592D01*
X127122883Y-93794463D01*
X127267772Y-93734448D01*
X127421586Y-93703852D01*
X127578414Y-93703852D01*
X127732228Y-93734448D01*
G37*
G36*
X140793938Y-92700964D02*
G01*
X140844128Y-92706787D01*
X140861277Y-92714359D01*
X140884759Y-92719030D01*
X140909898Y-92735827D01*
X140929784Y-92744608D01*
X140943365Y-92758189D01*
X140965865Y-92773223D01*
X140980898Y-92795722D01*
X140994479Y-92809303D01*
X141003258Y-92829186D01*
X141020058Y-92854329D01*
X141024729Y-92877812D01*
X141032300Y-92894959D01*
X141038121Y-92945139D01*
X141039088Y-92950000D01*
X141039088Y-94050000D01*
X141038120Y-94054863D01*
X141032300Y-94105040D01*
X141024729Y-94122185D01*
X141020058Y-94145671D01*
X141003257Y-94170815D01*
X140994479Y-94190696D01*
X140980900Y-94204274D01*
X140965865Y-94226777D01*
X140943362Y-94241812D01*
X140929784Y-94255391D01*
X140909903Y-94264169D01*
X140884759Y-94280970D01*
X140861273Y-94285641D01*
X140844128Y-94293212D01*
X140793949Y-94299032D01*
X140789088Y-94300000D01*
X139689088Y-94300000D01*
X139684226Y-94299032D01*
X139634047Y-94293212D01*
X139616900Y-94285641D01*
X139593417Y-94280970D01*
X139568274Y-94264170D01*
X139548391Y-94255391D01*
X139534810Y-94241810D01*
X139512311Y-94226777D01*
X139497277Y-94204277D01*
X139483696Y-94190696D01*
X139474915Y-94170810D01*
X139458118Y-94145671D01*
X139453447Y-94122189D01*
X139445875Y-94105040D01*
X139440052Y-94054849D01*
X139439088Y-94050000D01*
X139439088Y-92950000D01*
X139440052Y-92945150D01*
X139445875Y-92894959D01*
X139453447Y-92877808D01*
X139458118Y-92854329D01*
X139474914Y-92829191D01*
X139483696Y-92809303D01*
X139497279Y-92795719D01*
X139512311Y-92773223D01*
X139534807Y-92758191D01*
X139548391Y-92744608D01*
X139568279Y-92735826D01*
X139593417Y-92719030D01*
X139616896Y-92714359D01*
X139634047Y-92706787D01*
X139684239Y-92700964D01*
X139689088Y-92700000D01*
X140789088Y-92700000D01*
X140793938Y-92700964D01*
G37*
G36*
X146793938Y-92700964D02*
G01*
X146844128Y-92706787D01*
X146861277Y-92714359D01*
X146884759Y-92719030D01*
X146909898Y-92735827D01*
X146929784Y-92744608D01*
X146943365Y-92758189D01*
X146965865Y-92773223D01*
X146980898Y-92795722D01*
X146994479Y-92809303D01*
X147003258Y-92829186D01*
X147020058Y-92854329D01*
X147024729Y-92877812D01*
X147032300Y-92894959D01*
X147038121Y-92945139D01*
X147039088Y-92950000D01*
X147039088Y-94050000D01*
X147038120Y-94054863D01*
X147032300Y-94105040D01*
X147024729Y-94122185D01*
X147020058Y-94145671D01*
X147003257Y-94170815D01*
X146994479Y-94190696D01*
X146980900Y-94204274D01*
X146965865Y-94226777D01*
X146943362Y-94241812D01*
X146929784Y-94255391D01*
X146909903Y-94264169D01*
X146884759Y-94280970D01*
X146861273Y-94285641D01*
X146844128Y-94293212D01*
X146793949Y-94299032D01*
X146789088Y-94300000D01*
X145689088Y-94300000D01*
X145684226Y-94299032D01*
X145634047Y-94293212D01*
X145616900Y-94285641D01*
X145593417Y-94280970D01*
X145568274Y-94264170D01*
X145548391Y-94255391D01*
X145534810Y-94241810D01*
X145512311Y-94226777D01*
X145497277Y-94204277D01*
X145483696Y-94190696D01*
X145474915Y-94170810D01*
X145458118Y-94145671D01*
X145453447Y-94122189D01*
X145445875Y-94105040D01*
X145440052Y-94054849D01*
X145439088Y-94050000D01*
X145439088Y-92950000D01*
X145440052Y-92945150D01*
X145445875Y-92894959D01*
X145453447Y-92877808D01*
X145458118Y-92854329D01*
X145474914Y-92829191D01*
X145483696Y-92809303D01*
X145497279Y-92795719D01*
X145512311Y-92773223D01*
X145534807Y-92758191D01*
X145548391Y-92744608D01*
X145568279Y-92735826D01*
X145593417Y-92719030D01*
X145616896Y-92714359D01*
X145634047Y-92706787D01*
X145684239Y-92700964D01*
X145689088Y-92700000D01*
X146789088Y-92700000D01*
X146793938Y-92700964D01*
G37*
G36*
X142971316Y-92734448D02*
G01*
X143116205Y-92794463D01*
X143246603Y-92881592D01*
X143357496Y-92992485D01*
X143444625Y-93122883D01*
X143504640Y-93267772D01*
X143535236Y-93421586D01*
X143535236Y-93578414D01*
X143504640Y-93732228D01*
X143444625Y-93877117D01*
X143357496Y-94007515D01*
X143246603Y-94118408D01*
X143116205Y-94205537D01*
X142971316Y-94265552D01*
X142817502Y-94296148D01*
X142660674Y-94296148D01*
X142506860Y-94265552D01*
X142361971Y-94205537D01*
X142231573Y-94118408D01*
X142120680Y-94007515D01*
X142033551Y-93877117D01*
X141973536Y-93732228D01*
X141942940Y-93578414D01*
X141942940Y-93421586D01*
X141973536Y-93267772D01*
X142033551Y-93122883D01*
X142120680Y-92992485D01*
X142231573Y-92881592D01*
X142361971Y-92794463D01*
X142506860Y-92734448D01*
X142660674Y-92703852D01*
X142817502Y-92703852D01*
X142971316Y-92734448D01*
G37*
G36*
X148971316Y-92734448D02*
G01*
X149116205Y-92794463D01*
X149246603Y-92881592D01*
X149357496Y-92992485D01*
X149444625Y-93122883D01*
X149504640Y-93267772D01*
X149535236Y-93421586D01*
X149535236Y-93578414D01*
X149504640Y-93732228D01*
X149444625Y-93877117D01*
X149357496Y-94007515D01*
X149246603Y-94118408D01*
X149116205Y-94205537D01*
X148971316Y-94265552D01*
X148817502Y-94296148D01*
X148660674Y-94296148D01*
X148506860Y-94265552D01*
X148361971Y-94205537D01*
X148231573Y-94118408D01*
X148120680Y-94007515D01*
X148033551Y-93877117D01*
X147973536Y-93732228D01*
X147942940Y-93578414D01*
X147942940Y-93421586D01*
X147973536Y-93267772D01*
X148033551Y-93122883D01*
X148120680Y-92992485D01*
X148231573Y-92881592D01*
X148361971Y-92794463D01*
X148506860Y-92734448D01*
X148660674Y-92703852D01*
X148817502Y-92703852D01*
X148971316Y-92734448D01*
G37*
G36*
X156744850Y-90200964D02*
G01*
X156795040Y-90206787D01*
X156812189Y-90214359D01*
X156835671Y-90219030D01*
X156860810Y-90235827D01*
X156880696Y-90244608D01*
X156894277Y-90258189D01*
X156916777Y-90273223D01*
X156931810Y-90295722D01*
X156945391Y-90309303D01*
X156954170Y-90329186D01*
X156970970Y-90354329D01*
X156975641Y-90377812D01*
X156983212Y-90394959D01*
X156989033Y-90445139D01*
X156990000Y-90450000D01*
X156990000Y-91550000D01*
X156989032Y-91554863D01*
X156983212Y-91605040D01*
X156975641Y-91622185D01*
X156970970Y-91645671D01*
X156954169Y-91670815D01*
X156945391Y-91690696D01*
X156931812Y-91704274D01*
X156916777Y-91726777D01*
X156894274Y-91741812D01*
X156880696Y-91755391D01*
X156860815Y-91764169D01*
X156835671Y-91780970D01*
X156812185Y-91785641D01*
X156795040Y-91793212D01*
X156744861Y-91799032D01*
X156740000Y-91800000D01*
X155640000Y-91800000D01*
X155635138Y-91799032D01*
X155584959Y-91793212D01*
X155567812Y-91785641D01*
X155544329Y-91780970D01*
X155519186Y-91764170D01*
X155499303Y-91755391D01*
X155485722Y-91741810D01*
X155463223Y-91726777D01*
X155448189Y-91704277D01*
X155434608Y-91690696D01*
X155425827Y-91670810D01*
X155409030Y-91645671D01*
X155404359Y-91622189D01*
X155396787Y-91605040D01*
X155390964Y-91554849D01*
X155390000Y-91550000D01*
X155390000Y-90450000D01*
X155390964Y-90445150D01*
X155396787Y-90394959D01*
X155404359Y-90377808D01*
X155409030Y-90354329D01*
X155425826Y-90329191D01*
X155434608Y-90309303D01*
X155448191Y-90295719D01*
X155463223Y-90273223D01*
X155485719Y-90258191D01*
X155499303Y-90244608D01*
X155519191Y-90235826D01*
X155544329Y-90219030D01*
X155567808Y-90214359D01*
X155584959Y-90206787D01*
X155635151Y-90200964D01*
X155640000Y-90200000D01*
X156740000Y-90200000D01*
X156744850Y-90200964D01*
G37*
G36*
X164042228Y-90234448D02*
G01*
X164187117Y-90294463D01*
X164317515Y-90381592D01*
X164428408Y-90492485D01*
X164515537Y-90622883D01*
X164575552Y-90767772D01*
X164606148Y-90921586D01*
X164606148Y-91078414D01*
X164575552Y-91232228D01*
X164515537Y-91377117D01*
X164428408Y-91507515D01*
X164317515Y-91618408D01*
X164187117Y-91705537D01*
X164042228Y-91765552D01*
X163888414Y-91796148D01*
X163731586Y-91796148D01*
X163577772Y-91765552D01*
X163432883Y-91705537D01*
X163302485Y-91618408D01*
X163191592Y-91507515D01*
X163104463Y-91377117D01*
X163044448Y-91232228D01*
X163013852Y-91078414D01*
X163013852Y-90921586D01*
X163044448Y-90767772D01*
X163104463Y-90622883D01*
X163191592Y-90492485D01*
X163302485Y-90381592D01*
X163432883Y-90294463D01*
X163577772Y-90234448D01*
X163731586Y-90203852D01*
X163888414Y-90203852D01*
X164042228Y-90234448D01*
G37*
G36*
X153732228Y-89924448D02*
G01*
X153877117Y-89984463D01*
X154007515Y-90071592D01*
X154118408Y-90182485D01*
X154205537Y-90312883D01*
X154265552Y-90457772D01*
X154296148Y-90611586D01*
X154296148Y-90768414D01*
X154265552Y-90922228D01*
X154205537Y-91067117D01*
X154118408Y-91197515D01*
X154007515Y-91308408D01*
X153877117Y-91395537D01*
X153732228Y-91455552D01*
X153578414Y-91486148D01*
X153421586Y-91486148D01*
X153267772Y-91455552D01*
X153122883Y-91395537D01*
X152992485Y-91308408D01*
X152881592Y-91197515D01*
X152794463Y-91067117D01*
X152734448Y-90922228D01*
X152703852Y-90768414D01*
X152703852Y-90611586D01*
X152734448Y-90457772D01*
X152794463Y-90312883D01*
X152881592Y-90182485D01*
X152992485Y-90071592D01*
X153122883Y-89984463D01*
X153267772Y-89924448D01*
X153421586Y-89893852D01*
X153578414Y-89893852D01*
X153732228Y-89924448D01*
G37*
G36*
X177654848Y-88100964D02*
G01*
X177705040Y-88106787D01*
X177722189Y-88114359D01*
X177745670Y-88119030D01*
X177770807Y-88135826D01*
X177790695Y-88144608D01*
X177804278Y-88158191D01*
X177826776Y-88173224D01*
X177841808Y-88195721D01*
X177855391Y-88209304D01*
X177864171Y-88229189D01*
X177880970Y-88254330D01*
X177885640Y-88277811D01*
X177893212Y-88294959D01*
X177899036Y-88345163D01*
X177899999Y-88350002D01*
X177899999Y-88353458D01*
X177900000Y-88353467D01*
X177900000Y-89507328D01*
X177900000Y-90649999D01*
X177899034Y-90654851D01*
X177893212Y-90705040D01*
X177885641Y-90722185D01*
X177880970Y-90745670D01*
X177864170Y-90770812D01*
X177855391Y-90790695D01*
X177841810Y-90804275D01*
X177826776Y-90826776D01*
X177804275Y-90841810D01*
X177790695Y-90855391D01*
X177770812Y-90864170D01*
X177745670Y-90880970D01*
X177722187Y-90885640D01*
X177705040Y-90893212D01*
X177654836Y-90899036D01*
X177649998Y-90899999D01*
X177646541Y-90899999D01*
X177646533Y-90900000D01*
X175353467Y-90900000D01*
X175353466Y-90899999D01*
X175350001Y-90900000D01*
X175345149Y-90899035D01*
X175294959Y-90893212D01*
X175277812Y-90885640D01*
X175254330Y-90880970D01*
X175229189Y-90864171D01*
X175209304Y-90855391D01*
X175195721Y-90841808D01*
X175173224Y-90826776D01*
X175158191Y-90804278D01*
X175144608Y-90790695D01*
X175135826Y-90770807D01*
X175119030Y-90745670D01*
X175114360Y-90722191D01*
X175106787Y-90705040D01*
X175100963Y-90654836D01*
X175100001Y-90649998D01*
X175100000Y-90646540D01*
X175100000Y-90646532D01*
X175100000Y-88353467D01*
X175100000Y-88353466D01*
X175100000Y-88350001D01*
X175100964Y-88345151D01*
X175106787Y-88294959D01*
X175114359Y-88277808D01*
X175119030Y-88254330D01*
X175135825Y-88229193D01*
X175144608Y-88209304D01*
X175158193Y-88195718D01*
X175173224Y-88173224D01*
X175195718Y-88158193D01*
X175209304Y-88144608D01*
X175229193Y-88135825D01*
X175254330Y-88119030D01*
X175277807Y-88114360D01*
X175294959Y-88106787D01*
X175345165Y-88100963D01*
X175350002Y-88100001D01*
X175353458Y-88100000D01*
X175353467Y-88100000D01*
X177646533Y-88100000D01*
X177649999Y-88100000D01*
X177654848Y-88100964D01*
G37*
G36*
X123864850Y-88200964D02*
G01*
X123915040Y-88206787D01*
X123932189Y-88214359D01*
X123955671Y-88219030D01*
X123980810Y-88235827D01*
X124000696Y-88244608D01*
X124014277Y-88258189D01*
X124036777Y-88273223D01*
X124051810Y-88295722D01*
X124065391Y-88309303D01*
X124074170Y-88329186D01*
X124090970Y-88354329D01*
X124095641Y-88377812D01*
X124103212Y-88394959D01*
X124109033Y-88445139D01*
X124110000Y-88450000D01*
X124110000Y-89550000D01*
X124109032Y-89554863D01*
X124103212Y-89605040D01*
X124095641Y-89622185D01*
X124090970Y-89645671D01*
X124074169Y-89670815D01*
X124065391Y-89690696D01*
X124051812Y-89704274D01*
X124036777Y-89726777D01*
X124014274Y-89741812D01*
X124000696Y-89755391D01*
X123980815Y-89764169D01*
X123955671Y-89780970D01*
X123932185Y-89785641D01*
X123915040Y-89793212D01*
X123864861Y-89799032D01*
X123860000Y-89800000D01*
X122760000Y-89800000D01*
X122755138Y-89799032D01*
X122704959Y-89793212D01*
X122687812Y-89785641D01*
X122664329Y-89780970D01*
X122639186Y-89764170D01*
X122619303Y-89755391D01*
X122605722Y-89741810D01*
X122583223Y-89726777D01*
X122568189Y-89704277D01*
X122554608Y-89690696D01*
X122545827Y-89670810D01*
X122529030Y-89645671D01*
X122524359Y-89622189D01*
X122516787Y-89605040D01*
X122510964Y-89554849D01*
X122510000Y-89550000D01*
X122510000Y-88450000D01*
X122510964Y-88445150D01*
X122516787Y-88394959D01*
X122524359Y-88377808D01*
X122529030Y-88354329D01*
X122545826Y-88329191D01*
X122554608Y-88309303D01*
X122568191Y-88295719D01*
X122583223Y-88273223D01*
X122605719Y-88258191D01*
X122619303Y-88244608D01*
X122639191Y-88235826D01*
X122664329Y-88219030D01*
X122687808Y-88214359D01*
X122704959Y-88206787D01*
X122755151Y-88200964D01*
X122760000Y-88200000D01*
X123860000Y-88200000D01*
X123864850Y-88200964D01*
G37*
G36*
X115922228Y-88234448D02*
G01*
X116067117Y-88294463D01*
X116197515Y-88381592D01*
X116308408Y-88492485D01*
X116395537Y-88622883D01*
X116455552Y-88767772D01*
X116486148Y-88921586D01*
X116486148Y-89078414D01*
X116455552Y-89232228D01*
X116395537Y-89377117D01*
X116308408Y-89507515D01*
X116197515Y-89618408D01*
X116067117Y-89705537D01*
X115922228Y-89765552D01*
X115768414Y-89796148D01*
X115611586Y-89796148D01*
X115457772Y-89765552D01*
X115312883Y-89705537D01*
X115182485Y-89618408D01*
X115071592Y-89507515D01*
X114984463Y-89377117D01*
X114924448Y-89232228D01*
X114893852Y-89078414D01*
X114893852Y-88921586D01*
X114924448Y-88767772D01*
X114984463Y-88622883D01*
X115071592Y-88492485D01*
X115182485Y-88381592D01*
X115312883Y-88294463D01*
X115457772Y-88234448D01*
X115611586Y-88203852D01*
X115768414Y-88203852D01*
X115922228Y-88234448D01*
G37*
G36*
X146732228Y-86484448D02*
G01*
X146877117Y-86544463D01*
X147007515Y-86631592D01*
X147118408Y-86742485D01*
X147205537Y-86872883D01*
X147265552Y-87017772D01*
X147296148Y-87171586D01*
X147296148Y-87328414D01*
X147265552Y-87482228D01*
X147205537Y-87627117D01*
X147118408Y-87757515D01*
X147007515Y-87868408D01*
X146877117Y-87955537D01*
X146732228Y-88015552D01*
X146578414Y-88046148D01*
X146421586Y-88046148D01*
X146267772Y-88015552D01*
X146122883Y-87955537D01*
X145992485Y-87868408D01*
X145881592Y-87757515D01*
X145794463Y-87627117D01*
X145734448Y-87482228D01*
X145703852Y-87328414D01*
X145703852Y-87171586D01*
X145734448Y-87017772D01*
X145794463Y-86872883D01*
X145881592Y-86742485D01*
X145992485Y-86631592D01*
X146122883Y-86544463D01*
X146267772Y-86484448D01*
X146421586Y-86453852D01*
X146578414Y-86453852D01*
X146732228Y-86484448D01*
G37*
G36*
X158732228Y-86234448D02*
G01*
X158877117Y-86294463D01*
X159007515Y-86381592D01*
X159118408Y-86492485D01*
X159205537Y-86622883D01*
X159265552Y-86767772D01*
X159296148Y-86921586D01*
X159296148Y-87078414D01*
X159265552Y-87232228D01*
X159205537Y-87377117D01*
X159118408Y-87507515D01*
X159007515Y-87618408D01*
X158877117Y-87705537D01*
X158732228Y-87765552D01*
X158578414Y-87796148D01*
X158421586Y-87796148D01*
X158267772Y-87765552D01*
X158122883Y-87705537D01*
X157992485Y-87618408D01*
X157881592Y-87507515D01*
X157794463Y-87377117D01*
X157734448Y-87232228D01*
X157703852Y-87078414D01*
X157703852Y-86921586D01*
X157734448Y-86767772D01*
X157794463Y-86622883D01*
X157881592Y-86492485D01*
X157992485Y-86381592D01*
X158122883Y-86294463D01*
X158267772Y-86234448D01*
X158421586Y-86203852D01*
X158578414Y-86203852D01*
X158732228Y-86234448D01*
G37*
G36*
X116554850Y-85510964D02*
G01*
X116605040Y-85516787D01*
X116622189Y-85524359D01*
X116645671Y-85529030D01*
X116670810Y-85545827D01*
X116690696Y-85554608D01*
X116704277Y-85568189D01*
X116726777Y-85583223D01*
X116741810Y-85605722D01*
X116755391Y-85619303D01*
X116764170Y-85639186D01*
X116780970Y-85664329D01*
X116785641Y-85687812D01*
X116793212Y-85704959D01*
X116799033Y-85755139D01*
X116800000Y-85760000D01*
X116800000Y-86860000D01*
X116799032Y-86864863D01*
X116793212Y-86915040D01*
X116785641Y-86932185D01*
X116780970Y-86955671D01*
X116764169Y-86980815D01*
X116755391Y-87000696D01*
X116741812Y-87014274D01*
X116726777Y-87036777D01*
X116704274Y-87051812D01*
X116690696Y-87065391D01*
X116670815Y-87074169D01*
X116645671Y-87090970D01*
X116622185Y-87095641D01*
X116605040Y-87103212D01*
X116554861Y-87109032D01*
X116550000Y-87110000D01*
X115450000Y-87110000D01*
X115445138Y-87109032D01*
X115394959Y-87103212D01*
X115377812Y-87095641D01*
X115354329Y-87090970D01*
X115329186Y-87074170D01*
X115309303Y-87065391D01*
X115295722Y-87051810D01*
X115273223Y-87036777D01*
X115258189Y-87014277D01*
X115244608Y-87000696D01*
X115235827Y-86980810D01*
X115219030Y-86955671D01*
X115214359Y-86932189D01*
X115206787Y-86915040D01*
X115200964Y-86864849D01*
X115200000Y-86860000D01*
X115200000Y-85760000D01*
X115200964Y-85755150D01*
X115206787Y-85704959D01*
X115214359Y-85687808D01*
X115219030Y-85664329D01*
X115235826Y-85639191D01*
X115244608Y-85619303D01*
X115258191Y-85605719D01*
X115273223Y-85583223D01*
X115295719Y-85568191D01*
X115309303Y-85554608D01*
X115329191Y-85545826D01*
X115354329Y-85529030D01*
X115377808Y-85524359D01*
X115394959Y-85516787D01*
X115445151Y-85510964D01*
X115450000Y-85510000D01*
X116550000Y-85510000D01*
X116554850Y-85510964D01*
G37*
G36*
X119232228Y-85354448D02*
G01*
X119377117Y-85414463D01*
X119507515Y-85501592D01*
X119618408Y-85612485D01*
X119705537Y-85742883D01*
X119765552Y-85887772D01*
X119796148Y-86041586D01*
X119796148Y-86198414D01*
X119765552Y-86352228D01*
X119705537Y-86497117D01*
X119618408Y-86627515D01*
X119507515Y-86738408D01*
X119377117Y-86825537D01*
X119232228Y-86885552D01*
X119078414Y-86916148D01*
X118921586Y-86916148D01*
X118767772Y-86885552D01*
X118622883Y-86825537D01*
X118492485Y-86738408D01*
X118381592Y-86627515D01*
X118294463Y-86497117D01*
X118234448Y-86352228D01*
X118203852Y-86198414D01*
X118203852Y-86041586D01*
X118234448Y-85887772D01*
X118294463Y-85742883D01*
X118381592Y-85612485D01*
X118492485Y-85501592D01*
X118622883Y-85414463D01*
X118767772Y-85354448D01*
X118921586Y-85323852D01*
X119078414Y-85323852D01*
X119232228Y-85354448D01*
G37*
G36*
X126982228Y-84734448D02*
G01*
X127127117Y-84794463D01*
X127257515Y-84881592D01*
X127368408Y-84992485D01*
X127455537Y-85122883D01*
X127515552Y-85267772D01*
X127546148Y-85421586D01*
X127546148Y-85578414D01*
X127515552Y-85732228D01*
X127455537Y-85877117D01*
X127368408Y-86007515D01*
X127257515Y-86118408D01*
X127127117Y-86205537D01*
X126982228Y-86265552D01*
X126828414Y-86296148D01*
X126671586Y-86296148D01*
X126517772Y-86265552D01*
X126372883Y-86205537D01*
X126242485Y-86118408D01*
X126131592Y-86007515D01*
X126044463Y-85877117D01*
X125984448Y-85732228D01*
X125953852Y-85578414D01*
X125953852Y-85421586D01*
X125984448Y-85267772D01*
X126044463Y-85122883D01*
X126131592Y-84992485D01*
X126242485Y-84881592D01*
X126372883Y-84794463D01*
X126517772Y-84734448D01*
X126671586Y-84703852D01*
X126828414Y-84703852D01*
X126982228Y-84734448D01*
G37*
G36*
X129482228Y-84734448D02*
G01*
X129627117Y-84794463D01*
X129757515Y-84881592D01*
X129868408Y-84992485D01*
X129955537Y-85122883D01*
X130015552Y-85267772D01*
X130046148Y-85421586D01*
X130046148Y-85578414D01*
X130015552Y-85732228D01*
X129955537Y-85877117D01*
X129868408Y-86007515D01*
X129757515Y-86118408D01*
X129627117Y-86205537D01*
X129482228Y-86265552D01*
X129328414Y-86296148D01*
X129171586Y-86296148D01*
X129017772Y-86265552D01*
X128872883Y-86205537D01*
X128742485Y-86118408D01*
X128631592Y-86007515D01*
X128544463Y-85877117D01*
X128484448Y-85732228D01*
X128453852Y-85578414D01*
X128453852Y-85421586D01*
X128484448Y-85267772D01*
X128544463Y-85122883D01*
X128631592Y-84992485D01*
X128742485Y-84881592D01*
X128872883Y-84794463D01*
X129017772Y-84734448D01*
X129171586Y-84703852D01*
X129328414Y-84703852D01*
X129482228Y-84734448D01*
G37*
G36*
X138907403Y-85616418D02*
G01*
X138956066Y-85648934D01*
X138988582Y-85697597D01*
X139000000Y-85755000D01*
X139000000Y-86055000D01*
X138988582Y-86112403D01*
X138956066Y-86161066D01*
X138907403Y-86193582D01*
X138850000Y-86205000D01*
X137200000Y-86205000D01*
X137142597Y-86193582D01*
X137093934Y-86161066D01*
X137061418Y-86112403D01*
X137050000Y-86055000D01*
X137050000Y-85755000D01*
X137061418Y-85697597D01*
X137093934Y-85648934D01*
X137142597Y-85616418D01*
X137200000Y-85605000D01*
X138850000Y-85605000D01*
X138907403Y-85616418D01*
G37*
G36*
X143857403Y-85616418D02*
G01*
X143906066Y-85648934D01*
X143938582Y-85697597D01*
X143950000Y-85755000D01*
X143950000Y-86055000D01*
X143938582Y-86112403D01*
X143906066Y-86161066D01*
X143857403Y-86193582D01*
X143800000Y-86205000D01*
X142150000Y-86205000D01*
X142092597Y-86193582D01*
X142043934Y-86161066D01*
X142011418Y-86112403D01*
X142000000Y-86055000D01*
X142000000Y-85755000D01*
X142011418Y-85697597D01*
X142043934Y-85648934D01*
X142092597Y-85616418D01*
X142150000Y-85605000D01*
X143800000Y-85605000D01*
X143857403Y-85616418D01*
G37*
G36*
X163882403Y-85616418D02*
G01*
X163931066Y-85648934D01*
X163963582Y-85697597D01*
X163975000Y-85755000D01*
X163975000Y-86055000D01*
X163963582Y-86112403D01*
X163931066Y-86161066D01*
X163882403Y-86193582D01*
X163825000Y-86205000D01*
X162175000Y-86205000D01*
X162117597Y-86193582D01*
X162068934Y-86161066D01*
X162036418Y-86112403D01*
X162025000Y-86055000D01*
X162025000Y-85755000D01*
X162036418Y-85697597D01*
X162068934Y-85648934D01*
X162117597Y-85616418D01*
X162175000Y-85605000D01*
X163825000Y-85605000D01*
X163882403Y-85616418D01*
G37*
G36*
X168832403Y-85616418D02*
G01*
X168881066Y-85648934D01*
X168913582Y-85697597D01*
X168925000Y-85755000D01*
X168925000Y-86055000D01*
X168913582Y-86112403D01*
X168881066Y-86161066D01*
X168832403Y-86193582D01*
X168775000Y-86205000D01*
X167125000Y-86205000D01*
X167067597Y-86193582D01*
X167018934Y-86161066D01*
X166986418Y-86112403D01*
X166975000Y-86055000D01*
X166975000Y-85755000D01*
X166986418Y-85697597D01*
X167018934Y-85648934D01*
X167067597Y-85616418D01*
X167125000Y-85605000D01*
X168775000Y-85605000D01*
X168832403Y-85616418D01*
G37*
G36*
X151432403Y-85481418D02*
G01*
X151481066Y-85513934D01*
X151513582Y-85562597D01*
X151525000Y-85620000D01*
X151525000Y-85920000D01*
X151513582Y-85977403D01*
X151481066Y-86026066D01*
X151432403Y-86058582D01*
X151375000Y-86070000D01*
X149725000Y-86070000D01*
X149667597Y-86058582D01*
X149618934Y-86026066D01*
X149586418Y-85977403D01*
X149575000Y-85920000D01*
X149575000Y-85620000D01*
X149586418Y-85562597D01*
X149618934Y-85513934D01*
X149667597Y-85481418D01*
X149725000Y-85470000D01*
X151375000Y-85470000D01*
X151432403Y-85481418D01*
G37*
G36*
X156382403Y-85481418D02*
G01*
X156431066Y-85513934D01*
X156463582Y-85562597D01*
X156475000Y-85620000D01*
X156475000Y-85920000D01*
X156463582Y-85977403D01*
X156431066Y-86026066D01*
X156382403Y-86058582D01*
X156325000Y-86070000D01*
X154675000Y-86070000D01*
X154617597Y-86058582D01*
X154568934Y-86026066D01*
X154536418Y-85977403D01*
X154525000Y-85920000D01*
X154525000Y-85620000D01*
X154536418Y-85562597D01*
X154568934Y-85513934D01*
X154617597Y-85481418D01*
X154675000Y-85470000D01*
X156325000Y-85470000D01*
X156382403Y-85481418D01*
G37*
G36*
X176826824Y-83138682D02*
G01*
X177035757Y-83206569D01*
X177231498Y-83306304D01*
X177409227Y-83435432D01*
X177564568Y-83590773D01*
X177693696Y-83768502D01*
X177793431Y-83964243D01*
X177861318Y-84173176D01*
X177895684Y-84390157D01*
X177895684Y-84609843D01*
X177861318Y-84826824D01*
X177793431Y-85035757D01*
X177693696Y-85231498D01*
X177564568Y-85409227D01*
X177409227Y-85564568D01*
X177231498Y-85693696D01*
X177035757Y-85793431D01*
X176826824Y-85861318D01*
X176609843Y-85895684D01*
X176390157Y-85895684D01*
X176173176Y-85861318D01*
X175964243Y-85793431D01*
X175768502Y-85693696D01*
X175590773Y-85564568D01*
X175435432Y-85409227D01*
X175306304Y-85231498D01*
X175206569Y-85035757D01*
X175138682Y-84826824D01*
X175104316Y-84609843D01*
X175104316Y-84390157D01*
X175138682Y-84173176D01*
X175206569Y-83964243D01*
X175306304Y-83768502D01*
X175435432Y-83590773D01*
X175590773Y-83435432D01*
X175768502Y-83306304D01*
X175964243Y-83206569D01*
X176173176Y-83138682D01*
X176390157Y-83104316D01*
X176609843Y-83104316D01*
X176826824Y-83138682D01*
G37*
G36*
X146732228Y-83984448D02*
G01*
X146877117Y-84044463D01*
X147007515Y-84131592D01*
X147118408Y-84242485D01*
X147205537Y-84372883D01*
X147265552Y-84517772D01*
X147296148Y-84671586D01*
X147296148Y-84828414D01*
X147265552Y-84982228D01*
X147205537Y-85127117D01*
X147118408Y-85257515D01*
X147007515Y-85368408D01*
X146877117Y-85455537D01*
X146732228Y-85515552D01*
X146578414Y-85546148D01*
X146421586Y-85546148D01*
X146267772Y-85515552D01*
X146122883Y-85455537D01*
X145992485Y-85368408D01*
X145881592Y-85257515D01*
X145794463Y-85127117D01*
X145734448Y-84982228D01*
X145703852Y-84828414D01*
X145703852Y-84671586D01*
X145734448Y-84517772D01*
X145794463Y-84372883D01*
X145881592Y-84242485D01*
X145992485Y-84131592D01*
X146122883Y-84044463D01*
X146267772Y-83984448D01*
X146421586Y-83953852D01*
X146578414Y-83953852D01*
X146732228Y-83984448D01*
G37*
G36*
X132732228Y-83734448D02*
G01*
X132877117Y-83794463D01*
X133007515Y-83881592D01*
X133118408Y-83992485D01*
X133205537Y-84122883D01*
X133265552Y-84267772D01*
X133296148Y-84421586D01*
X133296148Y-84578414D01*
X133265552Y-84732228D01*
X133205537Y-84877117D01*
X133118408Y-85007515D01*
X133007515Y-85118408D01*
X132877117Y-85205537D01*
X132732228Y-85265552D01*
X132578414Y-85296148D01*
X132421586Y-85296148D01*
X132267772Y-85265552D01*
X132122883Y-85205537D01*
X131992485Y-85118408D01*
X131881592Y-85007515D01*
X131794463Y-84877117D01*
X131734448Y-84732228D01*
X131703852Y-84578414D01*
X131703852Y-84421586D01*
X131734448Y-84267772D01*
X131794463Y-84122883D01*
X131881592Y-83992485D01*
X131992485Y-83881592D01*
X132122883Y-83794463D01*
X132267772Y-83734448D01*
X132421586Y-83703852D01*
X132578414Y-83703852D01*
X132732228Y-83734448D01*
G37*
G36*
X135232228Y-83734448D02*
G01*
X135377117Y-83794463D01*
X135507515Y-83881592D01*
X135618408Y-83992485D01*
X135705537Y-84122883D01*
X135765552Y-84267772D01*
X135796148Y-84421586D01*
X135796148Y-84578414D01*
X135765552Y-84732228D01*
X135705537Y-84877117D01*
X135618408Y-85007515D01*
X135507515Y-85118408D01*
X135377117Y-85205537D01*
X135232228Y-85265552D01*
X135078414Y-85296148D01*
X134921586Y-85296148D01*
X134767772Y-85265552D01*
X134622883Y-85205537D01*
X134492485Y-85118408D01*
X134381592Y-85007515D01*
X134294463Y-84877117D01*
X134234448Y-84732228D01*
X134203852Y-84578414D01*
X134203852Y-84421586D01*
X134234448Y-84267772D01*
X134294463Y-84122883D01*
X134381592Y-83992485D01*
X134492485Y-83881592D01*
X134622883Y-83794463D01*
X134767772Y-83734448D01*
X134921586Y-83703852D01*
X135078414Y-83703852D01*
X135232228Y-83734448D01*
G37*
G36*
X158732228Y-83734448D02*
G01*
X158877117Y-83794463D01*
X159007515Y-83881592D01*
X159118408Y-83992485D01*
X159205537Y-84122883D01*
X159265552Y-84267772D01*
X159296148Y-84421586D01*
X159296148Y-84578414D01*
X159265552Y-84732228D01*
X159205537Y-84877117D01*
X159118408Y-85007515D01*
X159007515Y-85118408D01*
X158877117Y-85205537D01*
X158732228Y-85265552D01*
X158578414Y-85296148D01*
X158421586Y-85296148D01*
X158267772Y-85265552D01*
X158122883Y-85205537D01*
X157992485Y-85118408D01*
X157881592Y-85007515D01*
X157794463Y-84877117D01*
X157734448Y-84732228D01*
X157703852Y-84578414D01*
X157703852Y-84421586D01*
X157734448Y-84267772D01*
X157794463Y-84122883D01*
X157881592Y-83992485D01*
X157992485Y-83881592D01*
X158122883Y-83794463D01*
X158267772Y-83734448D01*
X158421586Y-83703852D01*
X158578414Y-83703852D01*
X158732228Y-83734448D01*
G37*
G36*
X138907403Y-84346418D02*
G01*
X138956066Y-84378934D01*
X138988582Y-84427597D01*
X139000000Y-84485000D01*
X139000000Y-84785000D01*
X138988582Y-84842403D01*
X138956066Y-84891066D01*
X138907403Y-84923582D01*
X138850000Y-84935000D01*
X137200000Y-84935000D01*
X137142597Y-84923582D01*
X137093934Y-84891066D01*
X137061418Y-84842403D01*
X137050000Y-84785000D01*
X137050000Y-84485000D01*
X137061418Y-84427597D01*
X137093934Y-84378934D01*
X137142597Y-84346418D01*
X137200000Y-84335000D01*
X138850000Y-84335000D01*
X138907403Y-84346418D01*
G37*
G36*
X143857403Y-84346418D02*
G01*
X143906066Y-84378934D01*
X143938582Y-84427597D01*
X143950000Y-84485000D01*
X143950000Y-84785000D01*
X143938582Y-84842403D01*
X143906066Y-84891066D01*
X143857403Y-84923582D01*
X143800000Y-84935000D01*
X142150000Y-84935000D01*
X142092597Y-84923582D01*
X142043934Y-84891066D01*
X142011418Y-84842403D01*
X142000000Y-84785000D01*
X142000000Y-84485000D01*
X142011418Y-84427597D01*
X142043934Y-84378934D01*
X142092597Y-84346418D01*
X142150000Y-84335000D01*
X143800000Y-84335000D01*
X143857403Y-84346418D01*
G37*
G36*
X163882403Y-84346418D02*
G01*
X163931066Y-84378934D01*
X163963582Y-84427597D01*
X163975000Y-84485000D01*
X163975000Y-84785000D01*
X163963582Y-84842403D01*
X163931066Y-84891066D01*
X163882403Y-84923582D01*
X163825000Y-84935000D01*
X162175000Y-84935000D01*
X162117597Y-84923582D01*
X162068934Y-84891066D01*
X162036418Y-84842403D01*
X162025000Y-84785000D01*
X162025000Y-84485000D01*
X162036418Y-84427597D01*
X162068934Y-84378934D01*
X162117597Y-84346418D01*
X162175000Y-84335000D01*
X163825000Y-84335000D01*
X163882403Y-84346418D01*
G37*
G36*
X168832403Y-84346418D02*
G01*
X168881066Y-84378934D01*
X168913582Y-84427597D01*
X168925000Y-84485000D01*
X168925000Y-84785000D01*
X168913582Y-84842403D01*
X168881066Y-84891066D01*
X168832403Y-84923582D01*
X168775000Y-84935000D01*
X167125000Y-84935000D01*
X167067597Y-84923582D01*
X167018934Y-84891066D01*
X166986418Y-84842403D01*
X166975000Y-84785000D01*
X166975000Y-84485000D01*
X166986418Y-84427597D01*
X167018934Y-84378934D01*
X167067597Y-84346418D01*
X167125000Y-84335000D01*
X168775000Y-84335000D01*
X168832403Y-84346418D01*
G37*
G36*
X151432403Y-84211418D02*
G01*
X151481066Y-84243934D01*
X151513582Y-84292597D01*
X151525000Y-84350000D01*
X151525000Y-84650000D01*
X151513582Y-84707403D01*
X151481066Y-84756066D01*
X151432403Y-84788582D01*
X151375000Y-84800000D01*
X149725000Y-84800000D01*
X149667597Y-84788582D01*
X149618934Y-84756066D01*
X149586418Y-84707403D01*
X149575000Y-84650000D01*
X149575000Y-84350000D01*
X149586418Y-84292597D01*
X149618934Y-84243934D01*
X149667597Y-84211418D01*
X149725000Y-84200000D01*
X151375000Y-84200000D01*
X151432403Y-84211418D01*
G37*
G36*
X156382403Y-84211418D02*
G01*
X156431066Y-84243934D01*
X156463582Y-84292597D01*
X156475000Y-84350000D01*
X156475000Y-84650000D01*
X156463582Y-84707403D01*
X156431066Y-84756066D01*
X156382403Y-84788582D01*
X156325000Y-84800000D01*
X154675000Y-84800000D01*
X154617597Y-84788582D01*
X154568934Y-84756066D01*
X154536418Y-84707403D01*
X154525000Y-84650000D01*
X154525000Y-84350000D01*
X154536418Y-84292597D01*
X154568934Y-84243934D01*
X154617597Y-84211418D01*
X154675000Y-84200000D01*
X156325000Y-84200000D01*
X156382403Y-84211418D01*
G37*
G36*
X138907403Y-83076418D02*
G01*
X138956066Y-83108934D01*
X138988582Y-83157597D01*
X139000000Y-83215000D01*
X139000000Y-83515000D01*
X138988582Y-83572403D01*
X138956066Y-83621066D01*
X138907403Y-83653582D01*
X138850000Y-83665000D01*
X137200000Y-83665000D01*
X137142597Y-83653582D01*
X137093934Y-83621066D01*
X137061418Y-83572403D01*
X137050000Y-83515000D01*
X137050000Y-83215000D01*
X137061418Y-83157597D01*
X137093934Y-83108934D01*
X137142597Y-83076418D01*
X137200000Y-83065000D01*
X138850000Y-83065000D01*
X138907403Y-83076418D01*
G37*
G36*
X143857403Y-83076418D02*
G01*
X143906066Y-83108934D01*
X143938582Y-83157597D01*
X143950000Y-83215000D01*
X143950000Y-83515000D01*
X143938582Y-83572403D01*
X143906066Y-83621066D01*
X143857403Y-83653582D01*
X143800000Y-83665000D01*
X142150000Y-83665000D01*
X142092597Y-83653582D01*
X142043934Y-83621066D01*
X142011418Y-83572403D01*
X142000000Y-83515000D01*
X142000000Y-83215000D01*
X142011418Y-83157597D01*
X142043934Y-83108934D01*
X142092597Y-83076418D01*
X142150000Y-83065000D01*
X143800000Y-83065000D01*
X143857403Y-83076418D01*
G37*
G36*
X163882403Y-83076418D02*
G01*
X163931066Y-83108934D01*
X163963582Y-83157597D01*
X163975000Y-83215000D01*
X163975000Y-83515000D01*
X163963582Y-83572403D01*
X163931066Y-83621066D01*
X163882403Y-83653582D01*
X163825000Y-83665000D01*
X162175000Y-83665000D01*
X162117597Y-83653582D01*
X162068934Y-83621066D01*
X162036418Y-83572403D01*
X162025000Y-83515000D01*
X162025000Y-83215000D01*
X162036418Y-83157597D01*
X162068934Y-83108934D01*
X162117597Y-83076418D01*
X162175000Y-83065000D01*
X163825000Y-83065000D01*
X163882403Y-83076418D01*
G37*
G36*
X168832403Y-83076418D02*
G01*
X168881066Y-83108934D01*
X168913582Y-83157597D01*
X168925000Y-83215000D01*
X168925000Y-83515000D01*
X168913582Y-83572403D01*
X168881066Y-83621066D01*
X168832403Y-83653582D01*
X168775000Y-83665000D01*
X167125000Y-83665000D01*
X167067597Y-83653582D01*
X167018934Y-83621066D01*
X166986418Y-83572403D01*
X166975000Y-83515000D01*
X166975000Y-83215000D01*
X166986418Y-83157597D01*
X167018934Y-83108934D01*
X167067597Y-83076418D01*
X167125000Y-83065000D01*
X168775000Y-83065000D01*
X168832403Y-83076418D01*
G37*
G36*
X151432403Y-82941418D02*
G01*
X151481066Y-82973934D01*
X151513582Y-83022597D01*
X151525000Y-83080000D01*
X151525000Y-83380000D01*
X151513582Y-83437403D01*
X151481066Y-83486066D01*
X151432403Y-83518582D01*
X151375000Y-83530000D01*
X149725000Y-83530000D01*
X149667597Y-83518582D01*
X149618934Y-83486066D01*
X149586418Y-83437403D01*
X149575000Y-83380000D01*
X149575000Y-83080000D01*
X149586418Y-83022597D01*
X149618934Y-82973934D01*
X149667597Y-82941418D01*
X149725000Y-82930000D01*
X151375000Y-82930000D01*
X151432403Y-82941418D01*
G37*
G36*
X156382403Y-82941418D02*
G01*
X156431066Y-82973934D01*
X156463582Y-83022597D01*
X156475000Y-83080000D01*
X156475000Y-83380000D01*
X156463582Y-83437403D01*
X156431066Y-83486066D01*
X156382403Y-83518582D01*
X156325000Y-83530000D01*
X154675000Y-83530000D01*
X154617597Y-83518582D01*
X154568934Y-83486066D01*
X154536418Y-83437403D01*
X154525000Y-83380000D01*
X154525000Y-83080000D01*
X154536418Y-83022597D01*
X154568934Y-82973934D01*
X154617597Y-82941418D01*
X154675000Y-82930000D01*
X156325000Y-82930000D01*
X156382403Y-82941418D01*
G37*
G36*
X138907403Y-81806418D02*
G01*
X138956066Y-81838934D01*
X138988582Y-81887597D01*
X139000000Y-81945000D01*
X139000000Y-82245000D01*
X138988582Y-82302403D01*
X138956066Y-82351066D01*
X138907403Y-82383582D01*
X138850000Y-82395000D01*
X137200000Y-82395000D01*
X137142597Y-82383582D01*
X137093934Y-82351066D01*
X137061418Y-82302403D01*
X137050000Y-82245000D01*
X137050000Y-81945000D01*
X137061418Y-81887597D01*
X137093934Y-81838934D01*
X137142597Y-81806418D01*
X137200000Y-81795000D01*
X138850000Y-81795000D01*
X138907403Y-81806418D01*
G37*
G36*
X143857403Y-81806418D02*
G01*
X143906066Y-81838934D01*
X143938582Y-81887597D01*
X143950000Y-81945000D01*
X143950000Y-82245000D01*
X143938582Y-82302403D01*
X143906066Y-82351066D01*
X143857403Y-82383582D01*
X143800000Y-82395000D01*
X142150000Y-82395000D01*
X142092597Y-82383582D01*
X142043934Y-82351066D01*
X142011418Y-82302403D01*
X142000000Y-82245000D01*
X142000000Y-81945000D01*
X142011418Y-81887597D01*
X142043934Y-81838934D01*
X142092597Y-81806418D01*
X142150000Y-81795000D01*
X143800000Y-81795000D01*
X143857403Y-81806418D01*
G37*
G36*
X163882403Y-81806418D02*
G01*
X163931066Y-81838934D01*
X163963582Y-81887597D01*
X163975000Y-81945000D01*
X163975000Y-82245000D01*
X163963582Y-82302403D01*
X163931066Y-82351066D01*
X163882403Y-82383582D01*
X163825000Y-82395000D01*
X162175000Y-82395000D01*
X162117597Y-82383582D01*
X162068934Y-82351066D01*
X162036418Y-82302403D01*
X162025000Y-82245000D01*
X162025000Y-81945000D01*
X162036418Y-81887597D01*
X162068934Y-81838934D01*
X162117597Y-81806418D01*
X162175000Y-81795000D01*
X163825000Y-81795000D01*
X163882403Y-81806418D01*
G37*
G36*
X168832403Y-81806418D02*
G01*
X168881066Y-81838934D01*
X168913582Y-81887597D01*
X168925000Y-81945000D01*
X168925000Y-82245000D01*
X168913582Y-82302403D01*
X168881066Y-82351066D01*
X168832403Y-82383582D01*
X168775000Y-82395000D01*
X167125000Y-82395000D01*
X167067597Y-82383582D01*
X167018934Y-82351066D01*
X166986418Y-82302403D01*
X166975000Y-82245000D01*
X166975000Y-81945000D01*
X166986418Y-81887597D01*
X167018934Y-81838934D01*
X167067597Y-81806418D01*
X167125000Y-81795000D01*
X168775000Y-81795000D01*
X168832403Y-81806418D01*
G37*
G36*
X151432403Y-81671418D02*
G01*
X151481066Y-81703934D01*
X151513582Y-81752597D01*
X151525000Y-81810000D01*
X151525000Y-82110000D01*
X151513582Y-82167403D01*
X151481066Y-82216066D01*
X151432403Y-82248582D01*
X151375000Y-82260000D01*
X149725000Y-82260000D01*
X149667597Y-82248582D01*
X149618934Y-82216066D01*
X149586418Y-82167403D01*
X149575000Y-82110000D01*
X149575000Y-81810000D01*
X149586418Y-81752597D01*
X149618934Y-81703934D01*
X149667597Y-81671418D01*
X149725000Y-81660000D01*
X151375000Y-81660000D01*
X151432403Y-81671418D01*
G37*
G36*
X156382403Y-81671418D02*
G01*
X156431066Y-81703934D01*
X156463582Y-81752597D01*
X156475000Y-81810000D01*
X156475000Y-82110000D01*
X156463582Y-82167403D01*
X156431066Y-82216066D01*
X156382403Y-82248582D01*
X156325000Y-82260000D01*
X154675000Y-82260000D01*
X154617597Y-82248582D01*
X154568934Y-82216066D01*
X154536418Y-82167403D01*
X154525000Y-82110000D01*
X154525000Y-81810000D01*
X154536418Y-81752597D01*
X154568934Y-81703934D01*
X154617597Y-81671418D01*
X154675000Y-81660000D01*
X156325000Y-81660000D01*
X156382403Y-81671418D01*
G37*
G36*
X176826824Y-78138682D02*
G01*
X177035757Y-78206569D01*
X177231498Y-78306304D01*
X177409227Y-78435432D01*
X177564568Y-78590773D01*
X177693696Y-78768502D01*
X177793431Y-78964243D01*
X177861318Y-79173176D01*
X177895684Y-79390157D01*
X177895684Y-79609843D01*
X177861318Y-79826824D01*
X177793431Y-80035757D01*
X177693696Y-80231498D01*
X177564568Y-80409227D01*
X177409227Y-80564568D01*
X177231498Y-80693696D01*
X177035757Y-80793431D01*
X176826824Y-80861318D01*
X176609843Y-80895684D01*
X176390157Y-80895684D01*
X176173176Y-80861318D01*
X175964243Y-80793431D01*
X175768502Y-80693696D01*
X175590773Y-80564568D01*
X175435432Y-80409227D01*
X175306304Y-80231498D01*
X175206569Y-80035757D01*
X175138682Y-79826824D01*
X175104316Y-79609843D01*
X175104316Y-79390157D01*
X175138682Y-79173176D01*
X175206569Y-78964243D01*
X175306304Y-78768502D01*
X175435432Y-78590773D01*
X175590773Y-78435432D01*
X175768502Y-78306304D01*
X175964243Y-78206569D01*
X176173176Y-78138682D01*
X176390157Y-78104316D01*
X176609843Y-78104316D01*
X176826824Y-78138682D01*
G37*
G36*
X130163199Y-79330142D02*
G01*
X130289978Y-79382655D01*
X130404075Y-79458893D01*
X130501107Y-79555925D01*
X130577345Y-79670022D01*
X130629858Y-79796801D01*
X130656629Y-79931388D01*
X130656629Y-80068612D01*
X130629858Y-80203199D01*
X130577345Y-80329978D01*
X130501107Y-80444075D01*
X130404075Y-80541107D01*
X130289978Y-80617345D01*
X130163199Y-80669858D01*
X130028612Y-80696629D01*
X129891388Y-80696629D01*
X129756801Y-80669858D01*
X129630022Y-80617345D01*
X129515925Y-80541107D01*
X129418893Y-80444075D01*
X129342655Y-80329978D01*
X129290142Y-80203199D01*
X129263371Y-80068612D01*
X129263371Y-79931388D01*
X129290142Y-79796801D01*
X129342655Y-79670022D01*
X129418893Y-79555925D01*
X129515925Y-79458893D01*
X129630022Y-79382655D01*
X129756801Y-79330142D01*
X129891388Y-79303371D01*
X130028612Y-79303371D01*
X130163199Y-79330142D01*
G37*
G36*
X135243199Y-79330142D02*
G01*
X135369978Y-79382655D01*
X135484075Y-79458893D01*
X135581107Y-79555925D01*
X135657345Y-79670022D01*
X135709858Y-79796801D01*
X135736629Y-79931388D01*
X135736629Y-80068612D01*
X135709858Y-80203199D01*
X135657345Y-80329978D01*
X135581107Y-80444075D01*
X135484075Y-80541107D01*
X135369978Y-80617345D01*
X135243199Y-80669858D01*
X135108612Y-80696629D01*
X134971388Y-80696629D01*
X134836801Y-80669858D01*
X134710022Y-80617345D01*
X134595925Y-80541107D01*
X134498893Y-80444075D01*
X134422655Y-80329978D01*
X134370142Y-80203199D01*
X134343371Y-80068612D01*
X134343371Y-79931388D01*
X134370142Y-79796801D01*
X134422655Y-79670022D01*
X134498893Y-79555925D01*
X134595925Y-79458893D01*
X134710022Y-79382655D01*
X134836801Y-79330142D01*
X134971388Y-79303371D01*
X135108612Y-79303371D01*
X135243199Y-79330142D01*
G37*
G36*
X116232228Y-77924448D02*
G01*
X116377117Y-77984463D01*
X116507515Y-78071592D01*
X116618408Y-78182485D01*
X116705537Y-78312883D01*
X116765552Y-78457772D01*
X116796148Y-78611586D01*
X116796148Y-78768414D01*
X116765552Y-78922228D01*
X116705537Y-79067117D01*
X116618408Y-79197515D01*
X116507515Y-79308408D01*
X116377117Y-79395537D01*
X116232228Y-79455552D01*
X116078414Y-79486148D01*
X115921586Y-79486148D01*
X115767772Y-79455552D01*
X115622883Y-79395537D01*
X115492485Y-79308408D01*
X115381592Y-79197515D01*
X115294463Y-79067117D01*
X115234448Y-78922228D01*
X115203852Y-78768414D01*
X115203852Y-78611586D01*
X115234448Y-78457772D01*
X115294463Y-78312883D01*
X115381592Y-78182485D01*
X115492485Y-78071592D01*
X115622883Y-77984463D01*
X115767772Y-77924448D01*
X115921586Y-77893852D01*
X116078414Y-77893852D01*
X116232228Y-77924448D01*
G37*
G36*
X119554850Y-77700964D02*
G01*
X119605040Y-77706787D01*
X119622189Y-77714359D01*
X119645671Y-77719030D01*
X119670810Y-77735827D01*
X119690696Y-77744608D01*
X119704277Y-77758189D01*
X119726777Y-77773223D01*
X119741810Y-77795722D01*
X119755391Y-77809303D01*
X119764170Y-77829186D01*
X119780970Y-77854329D01*
X119785641Y-77877812D01*
X119793212Y-77894959D01*
X119799033Y-77945139D01*
X119800000Y-77950000D01*
X119800000Y-79050000D01*
X119799032Y-79054863D01*
X119793212Y-79105040D01*
X119785641Y-79122185D01*
X119780970Y-79145671D01*
X119764169Y-79170815D01*
X119755391Y-79190696D01*
X119741812Y-79204274D01*
X119726777Y-79226777D01*
X119704274Y-79241812D01*
X119690696Y-79255391D01*
X119670815Y-79264169D01*
X119645671Y-79280970D01*
X119622185Y-79285641D01*
X119605040Y-79293212D01*
X119554861Y-79299032D01*
X119550000Y-79300000D01*
X118450000Y-79300000D01*
X118445138Y-79299032D01*
X118394959Y-79293212D01*
X118377812Y-79285641D01*
X118354329Y-79280970D01*
X118329186Y-79264170D01*
X118309303Y-79255391D01*
X118295722Y-79241810D01*
X118273223Y-79226777D01*
X118258189Y-79204277D01*
X118244608Y-79190696D01*
X118235827Y-79170810D01*
X118219030Y-79145671D01*
X118214359Y-79122189D01*
X118206787Y-79105040D01*
X118200964Y-79054849D01*
X118200000Y-79050000D01*
X118200000Y-77950000D01*
X118200964Y-77945150D01*
X118206787Y-77894959D01*
X118214359Y-77877808D01*
X118219030Y-77854329D01*
X118235826Y-77829191D01*
X118244608Y-77809303D01*
X118258191Y-77795719D01*
X118273223Y-77773223D01*
X118295719Y-77758191D01*
X118309303Y-77744608D01*
X118329191Y-77735826D01*
X118354329Y-77719030D01*
X118377808Y-77714359D01*
X118394959Y-77706787D01*
X118445151Y-77700964D01*
X118450000Y-77700000D01*
X119550000Y-77700000D01*
X119554850Y-77700964D01*
G37*
G36*
X135809850Y-74613564D02*
G01*
X135860040Y-74619387D01*
X135877189Y-74626959D01*
X135900671Y-74631630D01*
X135925810Y-74648427D01*
X135945696Y-74657208D01*
X135959277Y-74670789D01*
X135981777Y-74685823D01*
X135996810Y-74708322D01*
X136010391Y-74721903D01*
X136019170Y-74741786D01*
X136035970Y-74766929D01*
X136040641Y-74790412D01*
X136048212Y-74807559D01*
X136054033Y-74857739D01*
X136055000Y-74862600D01*
X136055000Y-75962600D01*
X136054032Y-75967463D01*
X136048212Y-76017640D01*
X136040641Y-76034785D01*
X136035970Y-76058271D01*
X136019169Y-76083415D01*
X136010391Y-76103296D01*
X135996812Y-76116874D01*
X135981777Y-76139377D01*
X135959274Y-76154412D01*
X135945696Y-76167991D01*
X135925815Y-76176769D01*
X135900671Y-76193570D01*
X135877185Y-76198241D01*
X135860040Y-76205812D01*
X135809861Y-76211632D01*
X135805000Y-76212600D01*
X134705000Y-76212600D01*
X134700138Y-76211632D01*
X134649959Y-76205812D01*
X134632812Y-76198241D01*
X134609329Y-76193570D01*
X134584186Y-76176770D01*
X134564303Y-76167991D01*
X134550722Y-76154410D01*
X134528223Y-76139377D01*
X134513189Y-76116877D01*
X134499608Y-76103296D01*
X134490827Y-76083410D01*
X134474030Y-76058271D01*
X134469359Y-76034789D01*
X134461787Y-76017640D01*
X134455964Y-75967449D01*
X134455000Y-75962600D01*
X134455000Y-74862600D01*
X134455964Y-74857750D01*
X134461787Y-74807559D01*
X134469359Y-74790408D01*
X134474030Y-74766929D01*
X134490826Y-74741791D01*
X134499608Y-74721903D01*
X134513191Y-74708319D01*
X134528223Y-74685823D01*
X134550719Y-74670791D01*
X134564303Y-74657208D01*
X134584191Y-74648426D01*
X134609329Y-74631630D01*
X134632808Y-74626959D01*
X134649959Y-74619387D01*
X134700151Y-74613564D01*
X134705000Y-74612600D01*
X135805000Y-74612600D01*
X135809850Y-74613564D01*
G37*
G36*
X127867228Y-74647048D02*
G01*
X128012117Y-74707063D01*
X128142515Y-74794192D01*
X128253408Y-74905085D01*
X128340537Y-75035483D01*
X128400552Y-75180372D01*
X128431148Y-75334186D01*
X128431148Y-75491014D01*
X128400552Y-75644828D01*
X128340537Y-75789717D01*
X128253408Y-75920115D01*
X128142515Y-76031008D01*
X128012117Y-76118137D01*
X127867228Y-76178152D01*
X127713414Y-76208748D01*
X127556586Y-76208748D01*
X127402772Y-76178152D01*
X127257883Y-76118137D01*
X127127485Y-76031008D01*
X127016592Y-75920115D01*
X126929463Y-75789717D01*
X126869448Y-75644828D01*
X126838852Y-75491014D01*
X126838852Y-75334186D01*
X126869448Y-75180372D01*
X126929463Y-75035483D01*
X127016592Y-74905085D01*
X127127485Y-74794192D01*
X127257883Y-74707063D01*
X127402772Y-74647048D01*
X127556586Y-74616452D01*
X127713414Y-74616452D01*
X127867228Y-74647048D01*
G37*
G36*
X120203199Y-74830142D02*
G01*
X120329978Y-74882655D01*
X120444075Y-74958893D01*
X120541107Y-75055925D01*
X120617345Y-75170022D01*
X120669858Y-75296801D01*
X120696629Y-75431388D01*
X120696629Y-75568612D01*
X120669858Y-75703199D01*
X120617345Y-75829978D01*
X120541107Y-75944075D01*
X120444075Y-76041107D01*
X120329978Y-76117345D01*
X120203199Y-76169858D01*
X120068612Y-76196629D01*
X119931388Y-76196629D01*
X119796801Y-76169858D01*
X119670022Y-76117345D01*
X119555925Y-76041107D01*
X119458893Y-75944075D01*
X119382655Y-75829978D01*
X119330142Y-75703199D01*
X119303371Y-75568612D01*
X119303371Y-75431388D01*
X119330142Y-75296801D01*
X119382655Y-75170022D01*
X119458893Y-75055925D01*
X119555925Y-74958893D01*
X119670022Y-74882655D01*
X119796801Y-74830142D01*
X119931388Y-74803371D01*
X120068612Y-74803371D01*
X120203199Y-74830142D01*
G37*
G36*
X125283199Y-74830142D02*
G01*
X125409978Y-74882655D01*
X125524075Y-74958893D01*
X125621107Y-75055925D01*
X125697345Y-75170022D01*
X125749858Y-75296801D01*
X125776629Y-75431388D01*
X125776629Y-75568612D01*
X125749858Y-75703199D01*
X125697345Y-75829978D01*
X125621107Y-75944075D01*
X125524075Y-76041107D01*
X125409978Y-76117345D01*
X125283199Y-76169858D01*
X125148612Y-76196629D01*
X125011388Y-76196629D01*
X124876801Y-76169858D01*
X124750022Y-76117345D01*
X124635925Y-76041107D01*
X124538893Y-75944075D01*
X124462655Y-75829978D01*
X124410142Y-75703199D01*
X124383371Y-75568612D01*
X124383371Y-75431388D01*
X124410142Y-75296801D01*
X124462655Y-75170022D01*
X124538893Y-75055925D01*
X124635925Y-74958893D01*
X124750022Y-74882655D01*
X124876801Y-74830142D01*
X125011388Y-74803371D01*
X125148612Y-74803371D01*
X125283199Y-74830142D01*
G37*
G36*
X154165200Y-75831600D02*
G01*
X152565200Y-75831600D01*
X152565200Y-74231600D01*
X154165200Y-74231600D01*
X154165200Y-75831600D01*
G37*
G36*
X138357428Y-74266048D02*
G01*
X138502317Y-74326063D01*
X138632715Y-74413192D01*
X138743608Y-74524085D01*
X138830737Y-74654483D01*
X138890752Y-74799372D01*
X138921348Y-74953186D01*
X138921348Y-75110014D01*
X138890752Y-75263828D01*
X138830737Y-75408717D01*
X138743608Y-75539115D01*
X138632715Y-75650008D01*
X138502317Y-75737137D01*
X138357428Y-75797152D01*
X138203614Y-75827748D01*
X138046786Y-75827748D01*
X137892972Y-75797152D01*
X137748083Y-75737137D01*
X137617685Y-75650008D01*
X137506792Y-75539115D01*
X137419663Y-75408717D01*
X137359648Y-75263828D01*
X137329052Y-75110014D01*
X137329052Y-74953186D01*
X137359648Y-74799372D01*
X137419663Y-74654483D01*
X137506792Y-74524085D01*
X137617685Y-74413192D01*
X137748083Y-74326063D01*
X137892972Y-74266048D01*
X138046786Y-74235452D01*
X138203614Y-74235452D01*
X138357428Y-74266048D01*
G37*
G36*
X138357428Y-71726048D02*
G01*
X138502317Y-71786063D01*
X138632715Y-71873192D01*
X138743608Y-71984085D01*
X138830737Y-72114483D01*
X138890752Y-72259372D01*
X138921348Y-72413186D01*
X138921348Y-72570014D01*
X138890752Y-72723828D01*
X138830737Y-72868717D01*
X138743608Y-72999115D01*
X138632715Y-73110008D01*
X138502317Y-73197137D01*
X138357428Y-73257152D01*
X138203614Y-73287748D01*
X138046786Y-73287748D01*
X137892972Y-73257152D01*
X137748083Y-73197137D01*
X137617685Y-73110008D01*
X137506792Y-72999115D01*
X137419663Y-72868717D01*
X137359648Y-72723828D01*
X137329052Y-72570014D01*
X137329052Y-72413186D01*
X137359648Y-72259372D01*
X137419663Y-72114483D01*
X137506792Y-71984085D01*
X137617685Y-71873192D01*
X137748083Y-71786063D01*
X137892972Y-71726048D01*
X138046786Y-71695452D01*
X138203614Y-71695452D01*
X138357428Y-71726048D01*
G37*
G36*
X153597428Y-71726048D02*
G01*
X153742317Y-71786063D01*
X153872715Y-71873192D01*
X153983608Y-71984085D01*
X154070737Y-72114483D01*
X154130752Y-72259372D01*
X154161348Y-72413186D01*
X154161348Y-72570014D01*
X154130752Y-72723828D01*
X154070737Y-72868717D01*
X153983608Y-72999115D01*
X153872715Y-73110008D01*
X153742317Y-73197137D01*
X153597428Y-73257152D01*
X153443614Y-73287748D01*
X153286786Y-73287748D01*
X153132972Y-73257152D01*
X152988083Y-73197137D01*
X152857685Y-73110008D01*
X152746792Y-72999115D01*
X152659663Y-72868717D01*
X152599648Y-72723828D01*
X152569052Y-72570014D01*
X152569052Y-72413186D01*
X152599648Y-72259372D01*
X152659663Y-72114483D01*
X152746792Y-71984085D01*
X152857685Y-71873192D01*
X152988083Y-71786063D01*
X153132972Y-71726048D01*
X153286786Y-71695452D01*
X153443614Y-71695452D01*
X153597428Y-71726048D01*
G37*
G36*
X157675942Y-71576601D02*
G01*
X157829887Y-71640367D01*
X157968434Y-71732941D01*
X158086259Y-71850766D01*
X158178833Y-71989313D01*
X158242599Y-72143258D01*
X158275107Y-72306685D01*
X158275107Y-72473315D01*
X158242599Y-72636742D01*
X158178833Y-72790687D01*
X158086259Y-72929234D01*
X157968434Y-73047059D01*
X157829887Y-73139633D01*
X157675942Y-73203399D01*
X157512515Y-73235907D01*
X157345885Y-73235907D01*
X157182458Y-73203399D01*
X157028513Y-73139633D01*
X156889966Y-73047059D01*
X156772141Y-72929234D01*
X156679567Y-72790687D01*
X156615801Y-72636742D01*
X156583293Y-72473315D01*
X156583293Y-72306685D01*
X156615801Y-72143258D01*
X156679567Y-71989313D01*
X156772141Y-71850766D01*
X156889966Y-71732941D01*
X157028513Y-71640367D01*
X157182458Y-71576601D01*
X157345885Y-71544093D01*
X157512515Y-71544093D01*
X157675942Y-71576601D01*
G37*
G36*
X126232228Y-71234448D02*
G01*
X126377117Y-71294463D01*
X126507515Y-71381592D01*
X126618408Y-71492485D01*
X126705537Y-71622883D01*
X126765552Y-71767772D01*
X126796148Y-71921586D01*
X126796148Y-72078414D01*
X126765552Y-72232228D01*
X126705537Y-72377117D01*
X126618408Y-72507515D01*
X126507515Y-72618408D01*
X126377117Y-72705537D01*
X126232228Y-72765552D01*
X126078414Y-72796148D01*
X125921586Y-72796148D01*
X125767772Y-72765552D01*
X125622883Y-72705537D01*
X125492485Y-72618408D01*
X125381592Y-72507515D01*
X125294463Y-72377117D01*
X125234448Y-72232228D01*
X125203852Y-72078414D01*
X125203852Y-71921586D01*
X125234448Y-71767772D01*
X125294463Y-71622883D01*
X125381592Y-71492485D01*
X125492485Y-71381592D01*
X125622883Y-71294463D01*
X125767772Y-71234448D01*
X125921586Y-71203852D01*
X126078414Y-71203852D01*
X126232228Y-71234448D01*
G37*
G36*
X128732228Y-71234448D02*
G01*
X128877117Y-71294463D01*
X129007515Y-71381592D01*
X129118408Y-71492485D01*
X129205537Y-71622883D01*
X129265552Y-71767772D01*
X129296148Y-71921586D01*
X129296148Y-72078414D01*
X129265552Y-72232228D01*
X129205537Y-72377117D01*
X129118408Y-72507515D01*
X129007515Y-72618408D01*
X128877117Y-72705537D01*
X128732228Y-72765552D01*
X128578414Y-72796148D01*
X128421586Y-72796148D01*
X128267772Y-72765552D01*
X128122883Y-72705537D01*
X127992485Y-72618408D01*
X127881592Y-72507515D01*
X127794463Y-72377117D01*
X127734448Y-72232228D01*
X127703852Y-72078414D01*
X127703852Y-71921586D01*
X127734448Y-71767772D01*
X127794463Y-71622883D01*
X127881592Y-71492485D01*
X127992485Y-71381592D01*
X128122883Y-71294463D01*
X128267772Y-71234448D01*
X128421586Y-71203852D01*
X128578414Y-71203852D01*
X128732228Y-71234448D01*
G37*
G36*
X117755000Y-72750000D02*
G01*
X116705000Y-72750000D01*
X116705000Y-71250000D01*
X117755000Y-71250000D01*
X117755000Y-72750000D01*
G37*
G36*
X118700909Y-71289963D02*
G01*
X118819600Y-71358489D01*
X118916511Y-71455400D01*
X118985037Y-71574091D01*
X119020509Y-71706474D01*
X119025000Y-71775000D01*
X119025000Y-72225000D01*
X119020509Y-72293526D01*
X118985037Y-72425909D01*
X118916511Y-72544600D01*
X118819600Y-72641511D01*
X118700909Y-72710037D01*
X118568526Y-72745509D01*
X118431474Y-72745509D01*
X118299091Y-72710037D01*
X118180400Y-72641511D01*
X118083489Y-72544600D01*
X118014963Y-72425909D01*
X117979491Y-72293526D01*
X117975000Y-72225000D01*
X117975000Y-71775000D01*
X117979491Y-71706474D01*
X118014963Y-71574091D01*
X118083489Y-71455400D01*
X118180400Y-71358489D01*
X118299091Y-71289963D01*
X118431474Y-71254491D01*
X118568526Y-71254491D01*
X118700909Y-71289963D01*
G37*
G36*
X119970909Y-71289963D02*
G01*
X120089600Y-71358489D01*
X120186511Y-71455400D01*
X120255037Y-71574091D01*
X120290509Y-71706474D01*
X120295000Y-71775000D01*
X120295000Y-72225000D01*
X120290509Y-72293526D01*
X120255037Y-72425909D01*
X120186511Y-72544600D01*
X120089600Y-72641511D01*
X119970909Y-72710037D01*
X119838526Y-72745509D01*
X119701474Y-72745509D01*
X119569091Y-72710037D01*
X119450400Y-72641511D01*
X119353489Y-72544600D01*
X119284963Y-72425909D01*
X119249491Y-72293526D01*
X119245000Y-72225000D01*
X119245000Y-71775000D01*
X119249491Y-71706474D01*
X119284963Y-71574091D01*
X119353489Y-71455400D01*
X119450400Y-71358489D01*
X119569091Y-71289963D01*
X119701474Y-71254491D01*
X119838526Y-71254491D01*
X119970909Y-71289963D01*
G37*
G36*
X132293850Y-69914564D02*
G01*
X132344040Y-69920387D01*
X132361189Y-69927959D01*
X132384671Y-69932630D01*
X132409810Y-69949427D01*
X132429696Y-69958208D01*
X132443277Y-69971789D01*
X132465777Y-69986823D01*
X132480810Y-70009322D01*
X132494391Y-70022903D01*
X132503170Y-70042786D01*
X132519970Y-70067929D01*
X132524641Y-70091412D01*
X132532212Y-70108559D01*
X132538033Y-70158739D01*
X132539000Y-70163600D01*
X132539000Y-71263600D01*
X132538032Y-71268463D01*
X132532212Y-71318640D01*
X132524641Y-71335785D01*
X132519970Y-71359271D01*
X132503169Y-71384415D01*
X132494391Y-71404296D01*
X132480812Y-71417874D01*
X132465777Y-71440377D01*
X132443274Y-71455412D01*
X132429696Y-71468991D01*
X132409815Y-71477769D01*
X132384671Y-71494570D01*
X132361185Y-71499241D01*
X132344040Y-71506812D01*
X132293861Y-71512632D01*
X132289000Y-71513600D01*
X131189000Y-71513600D01*
X131184138Y-71512632D01*
X131133959Y-71506812D01*
X131116812Y-71499241D01*
X131093329Y-71494570D01*
X131068186Y-71477770D01*
X131048303Y-71468991D01*
X131034722Y-71455410D01*
X131012223Y-71440377D01*
X130997189Y-71417877D01*
X130983608Y-71404296D01*
X130974827Y-71384410D01*
X130958030Y-71359271D01*
X130953359Y-71335789D01*
X130945787Y-71318640D01*
X130939964Y-71268449D01*
X130939000Y-71263600D01*
X130939000Y-70163600D01*
X130939964Y-70158750D01*
X130945787Y-70108559D01*
X130953359Y-70091408D01*
X130958030Y-70067929D01*
X130974826Y-70042791D01*
X130983608Y-70022903D01*
X130997191Y-70009319D01*
X131012223Y-69986823D01*
X131034719Y-69971791D01*
X131048303Y-69958208D01*
X131068191Y-69949426D01*
X131093329Y-69932630D01*
X131116808Y-69927959D01*
X131133959Y-69920387D01*
X131184151Y-69914564D01*
X131189000Y-69913600D01*
X132289000Y-69913600D01*
X132293850Y-69914564D01*
G37*
G36*
X134471228Y-69948048D02*
G01*
X134616117Y-70008063D01*
X134746515Y-70095192D01*
X134857408Y-70206085D01*
X134944537Y-70336483D01*
X135004552Y-70481372D01*
X135035148Y-70635186D01*
X135035148Y-70792014D01*
X135004552Y-70945828D01*
X134944537Y-71090717D01*
X134857408Y-71221115D01*
X134746515Y-71332008D01*
X134616117Y-71419137D01*
X134471228Y-71479152D01*
X134317414Y-71509748D01*
X134160586Y-71509748D01*
X134006772Y-71479152D01*
X133861883Y-71419137D01*
X133731485Y-71332008D01*
X133620592Y-71221115D01*
X133533463Y-71090717D01*
X133473448Y-70945828D01*
X133442852Y-70792014D01*
X133442852Y-70635186D01*
X133473448Y-70481372D01*
X133533463Y-70336483D01*
X133620592Y-70206085D01*
X133731485Y-70095192D01*
X133861883Y-70008063D01*
X134006772Y-69948048D01*
X134160586Y-69917452D01*
X134317414Y-69917452D01*
X134471228Y-69948048D01*
G37*
G36*
X138357428Y-69186048D02*
G01*
X138502317Y-69246063D01*
X138632715Y-69333192D01*
X138743608Y-69444085D01*
X138830737Y-69574483D01*
X138890752Y-69719372D01*
X138921348Y-69873186D01*
X138921348Y-70030014D01*
X138890752Y-70183828D01*
X138830737Y-70328717D01*
X138743608Y-70459115D01*
X138632715Y-70570008D01*
X138502317Y-70657137D01*
X138357428Y-70717152D01*
X138203614Y-70747748D01*
X138046786Y-70747748D01*
X137892972Y-70717152D01*
X137748083Y-70657137D01*
X137617685Y-70570008D01*
X137506792Y-70459115D01*
X137419663Y-70328717D01*
X137359648Y-70183828D01*
X137329052Y-70030014D01*
X137329052Y-69873186D01*
X137359648Y-69719372D01*
X137419663Y-69574483D01*
X137506792Y-69444085D01*
X137617685Y-69333192D01*
X137748083Y-69246063D01*
X137892972Y-69186048D01*
X138046786Y-69155452D01*
X138203614Y-69155452D01*
X138357428Y-69186048D01*
G37*
G36*
X153597428Y-69186048D02*
G01*
X153742317Y-69246063D01*
X153872715Y-69333192D01*
X153983608Y-69444085D01*
X154070737Y-69574483D01*
X154130752Y-69719372D01*
X154161348Y-69873186D01*
X154161348Y-70030014D01*
X154130752Y-70183828D01*
X154070737Y-70328717D01*
X153983608Y-70459115D01*
X153872715Y-70570008D01*
X153742317Y-70657137D01*
X153597428Y-70717152D01*
X153443614Y-70747748D01*
X153286786Y-70747748D01*
X153132972Y-70717152D01*
X152988083Y-70657137D01*
X152857685Y-70570008D01*
X152746792Y-70459115D01*
X152659663Y-70328717D01*
X152599648Y-70183828D01*
X152569052Y-70030014D01*
X152569052Y-69873186D01*
X152599648Y-69719372D01*
X152659663Y-69574483D01*
X152746792Y-69444085D01*
X152857685Y-69333192D01*
X152988083Y-69246063D01*
X153132972Y-69186048D01*
X153286786Y-69155452D01*
X153443614Y-69155452D01*
X153597428Y-69186048D01*
G37*
G36*
X157675942Y-69036601D02*
G01*
X157829887Y-69100367D01*
X157968434Y-69192941D01*
X158086259Y-69310766D01*
X158178833Y-69449313D01*
X158242599Y-69603258D01*
X158275107Y-69766685D01*
X158275107Y-69933315D01*
X158242599Y-70096742D01*
X158178833Y-70250687D01*
X158086259Y-70389234D01*
X157968434Y-70507059D01*
X157829887Y-70599633D01*
X157675942Y-70663399D01*
X157512515Y-70695907D01*
X157345885Y-70695907D01*
X157182458Y-70663399D01*
X157028513Y-70599633D01*
X156889966Y-70507059D01*
X156772141Y-70389234D01*
X156679567Y-70250687D01*
X156615801Y-70096742D01*
X156583293Y-69933315D01*
X156583293Y-69766685D01*
X156615801Y-69603258D01*
X156679567Y-69449313D01*
X156772141Y-69310766D01*
X156889966Y-69192941D01*
X157028513Y-69100367D01*
X157182458Y-69036601D01*
X157345885Y-69004093D01*
X157512515Y-69004093D01*
X157675942Y-69036601D01*
G37*
G36*
X123746742Y-67306601D02*
G01*
X123900687Y-67370367D01*
X124039234Y-67462941D01*
X124157059Y-67580766D01*
X124249633Y-67719313D01*
X124313399Y-67873258D01*
X124345907Y-68036685D01*
X124345907Y-68203315D01*
X124313399Y-68366742D01*
X124249633Y-68520687D01*
X124157059Y-68659234D01*
X124039234Y-68777059D01*
X123900687Y-68869633D01*
X123746742Y-68933399D01*
X123583315Y-68965907D01*
X123416685Y-68965907D01*
X123253258Y-68933399D01*
X123099313Y-68869633D01*
X122960766Y-68777059D01*
X122842941Y-68659234D01*
X122750367Y-68520687D01*
X122686601Y-68366742D01*
X122654093Y-68203315D01*
X122654093Y-68036685D01*
X122686601Y-67873258D01*
X122750367Y-67719313D01*
X122842941Y-67580766D01*
X122960766Y-67462941D01*
X123099313Y-67370367D01*
X123253258Y-67306601D01*
X123416685Y-67274093D01*
X123583315Y-67274093D01*
X123746742Y-67306601D01*
G37*
G36*
X138357428Y-66646048D02*
G01*
X138502317Y-66706063D01*
X138632715Y-66793192D01*
X138743608Y-66904085D01*
X138830737Y-67034483D01*
X138890752Y-67179372D01*
X138921348Y-67333186D01*
X138921348Y-67490014D01*
X138890752Y-67643828D01*
X138830737Y-67788717D01*
X138743608Y-67919115D01*
X138632715Y-68030008D01*
X138502317Y-68117137D01*
X138357428Y-68177152D01*
X138203614Y-68207748D01*
X138046786Y-68207748D01*
X137892972Y-68177152D01*
X137748083Y-68117137D01*
X137617685Y-68030008D01*
X137506792Y-67919115D01*
X137419663Y-67788717D01*
X137359648Y-67643828D01*
X137329052Y-67490014D01*
X137329052Y-67333186D01*
X137359648Y-67179372D01*
X137419663Y-67034483D01*
X137506792Y-66904085D01*
X137617685Y-66793192D01*
X137748083Y-66706063D01*
X137892972Y-66646048D01*
X138046786Y-66615452D01*
X138203614Y-66615452D01*
X138357428Y-66646048D01*
G37*
G36*
X153597428Y-66646048D02*
G01*
X153742317Y-66706063D01*
X153872715Y-66793192D01*
X153983608Y-66904085D01*
X154070737Y-67034483D01*
X154130752Y-67179372D01*
X154161348Y-67333186D01*
X154161348Y-67490014D01*
X154130752Y-67643828D01*
X154070737Y-67788717D01*
X153983608Y-67919115D01*
X153872715Y-68030008D01*
X153742317Y-68117137D01*
X153597428Y-68177152D01*
X153443614Y-68207748D01*
X153286786Y-68207748D01*
X153132972Y-68177152D01*
X152988083Y-68117137D01*
X152857685Y-68030008D01*
X152746792Y-67919115D01*
X152659663Y-67788717D01*
X152599648Y-67643828D01*
X152569052Y-67490014D01*
X152569052Y-67333186D01*
X152599648Y-67179372D01*
X152659663Y-67034483D01*
X152746792Y-66904085D01*
X152857685Y-66793192D01*
X152988083Y-66706063D01*
X153132972Y-66646048D01*
X153286786Y-66615452D01*
X153443614Y-66615452D01*
X153597428Y-66646048D01*
G37*
G36*
X157675942Y-66496601D02*
G01*
X157829887Y-66560367D01*
X157968434Y-66652941D01*
X158086259Y-66770766D01*
X158178833Y-66909313D01*
X158242599Y-67063258D01*
X158275107Y-67226685D01*
X158275107Y-67393315D01*
X158242599Y-67556742D01*
X158178833Y-67710687D01*
X158086259Y-67849234D01*
X157968434Y-67967059D01*
X157829887Y-68059633D01*
X157675942Y-68123399D01*
X157512515Y-68155907D01*
X157345885Y-68155907D01*
X157182458Y-68123399D01*
X157028513Y-68059633D01*
X156889966Y-67967059D01*
X156772141Y-67849234D01*
X156679567Y-67710687D01*
X156615801Y-67556742D01*
X156583293Y-67393315D01*
X156583293Y-67226685D01*
X156615801Y-67063258D01*
X156679567Y-66909313D01*
X156772141Y-66770766D01*
X156889966Y-66652941D01*
X157028513Y-66560367D01*
X157182458Y-66496601D01*
X157345885Y-66464093D01*
X157512515Y-66464093D01*
X157675942Y-66496601D01*
G37*
G36*
X123746742Y-64766601D02*
G01*
X123900687Y-64830367D01*
X124039234Y-64922941D01*
X124157059Y-65040766D01*
X124249633Y-65179313D01*
X124313399Y-65333258D01*
X124345907Y-65496685D01*
X124345907Y-65663315D01*
X124313399Y-65826742D01*
X124249633Y-65980687D01*
X124157059Y-66119234D01*
X124039234Y-66237059D01*
X123900687Y-66329633D01*
X123746742Y-66393399D01*
X123583315Y-66425907D01*
X123416685Y-66425907D01*
X123253258Y-66393399D01*
X123099313Y-66329633D01*
X122960766Y-66237059D01*
X122842941Y-66119234D01*
X122750367Y-65980687D01*
X122686601Y-65826742D01*
X122654093Y-65663315D01*
X122654093Y-65496685D01*
X122686601Y-65333258D01*
X122750367Y-65179313D01*
X122842941Y-65040766D01*
X122960766Y-64922941D01*
X123099313Y-64830367D01*
X123253258Y-64766601D01*
X123416685Y-64734093D01*
X123583315Y-64734093D01*
X123746742Y-64766601D01*
G37*
G36*
X117525000Y-66250000D02*
G01*
X116475000Y-66250000D01*
X116475000Y-64750000D01*
X117525000Y-64750000D01*
X117525000Y-66250000D01*
G37*
G36*
X118470909Y-64789963D02*
G01*
X118589600Y-64858489D01*
X118686511Y-64955400D01*
X118755037Y-65074091D01*
X118790509Y-65206474D01*
X118795000Y-65275000D01*
X118795000Y-65725000D01*
X118790509Y-65793526D01*
X118755037Y-65925909D01*
X118686511Y-66044600D01*
X118589600Y-66141511D01*
X118470909Y-66210037D01*
X118338526Y-66245509D01*
X118201474Y-66245509D01*
X118069091Y-66210037D01*
X117950400Y-66141511D01*
X117853489Y-66044600D01*
X117784963Y-65925909D01*
X117749491Y-65793526D01*
X117745000Y-65725000D01*
X117745000Y-65275000D01*
X117749491Y-65206474D01*
X117784963Y-65074091D01*
X117853489Y-64955400D01*
X117950400Y-64858489D01*
X118069091Y-64789963D01*
X118201474Y-64754491D01*
X118338526Y-64754491D01*
X118470909Y-64789963D01*
G37*
G36*
X119740909Y-64789963D02*
G01*
X119859600Y-64858489D01*
X119956511Y-64955400D01*
X120025037Y-65074091D01*
X120060509Y-65206474D01*
X120065000Y-65275000D01*
X120065000Y-65725000D01*
X120060509Y-65793526D01*
X120025037Y-65925909D01*
X119956511Y-66044600D01*
X119859600Y-66141511D01*
X119740909Y-66210037D01*
X119608526Y-66245509D01*
X119471474Y-66245509D01*
X119339091Y-66210037D01*
X119220400Y-66141511D01*
X119123489Y-66044600D01*
X119054963Y-65925909D01*
X119019491Y-65793526D01*
X119015000Y-65725000D01*
X119015000Y-65275000D01*
X119019491Y-65206474D01*
X119054963Y-65074091D01*
X119123489Y-64955400D01*
X119220400Y-64858489D01*
X119339091Y-64789963D01*
X119471474Y-64754491D01*
X119608526Y-64754491D01*
X119740909Y-64789963D01*
G37*
G36*
X161289999Y-64836742D02*
G01*
X161416778Y-64889255D01*
X161530875Y-64965493D01*
X161627907Y-65062525D01*
X161704145Y-65176622D01*
X161756658Y-65303401D01*
X161783429Y-65437988D01*
X161783429Y-65575212D01*
X161756658Y-65709799D01*
X161704145Y-65836578D01*
X161627907Y-65950675D01*
X161530875Y-66047707D01*
X161416778Y-66123945D01*
X161289999Y-66176458D01*
X161155412Y-66203229D01*
X161018188Y-66203229D01*
X160883601Y-66176458D01*
X160756822Y-66123945D01*
X160642725Y-66047707D01*
X160545693Y-65950675D01*
X160469455Y-65836578D01*
X160416942Y-65709799D01*
X160390171Y-65575212D01*
X160390171Y-65437988D01*
X160416942Y-65303401D01*
X160469455Y-65176622D01*
X160545693Y-65062525D01*
X160642725Y-64965493D01*
X160756822Y-64889255D01*
X160883601Y-64836742D01*
X161018188Y-64809971D01*
X161155412Y-64809971D01*
X161289999Y-64836742D01*
G37*
G36*
X138357428Y-64106048D02*
G01*
X138502317Y-64166063D01*
X138632715Y-64253192D01*
X138743608Y-64364085D01*
X138830737Y-64494483D01*
X138890752Y-64639372D01*
X138921348Y-64793186D01*
X138921348Y-64950014D01*
X138890752Y-65103828D01*
X138830737Y-65248717D01*
X138743608Y-65379115D01*
X138632715Y-65490008D01*
X138502317Y-65577137D01*
X138357428Y-65637152D01*
X138203614Y-65667748D01*
X138046786Y-65667748D01*
X137892972Y-65637152D01*
X137748083Y-65577137D01*
X137617685Y-65490008D01*
X137506792Y-65379115D01*
X137419663Y-65248717D01*
X137359648Y-65103828D01*
X137329052Y-64950014D01*
X137329052Y-64793186D01*
X137359648Y-64639372D01*
X137419663Y-64494483D01*
X137506792Y-64364085D01*
X137617685Y-64253192D01*
X137748083Y-64166063D01*
X137892972Y-64106048D01*
X138046786Y-64075452D01*
X138203614Y-64075452D01*
X138357428Y-64106048D01*
G37*
G36*
X153597428Y-64106048D02*
G01*
X153742317Y-64166063D01*
X153872715Y-64253192D01*
X153983608Y-64364085D01*
X154070737Y-64494483D01*
X154130752Y-64639372D01*
X154161348Y-64793186D01*
X154161348Y-64950014D01*
X154130752Y-65103828D01*
X154070737Y-65248717D01*
X153983608Y-65379115D01*
X153872715Y-65490008D01*
X153742317Y-65577137D01*
X153597428Y-65637152D01*
X153443614Y-65667748D01*
X153286786Y-65667748D01*
X153132972Y-65637152D01*
X152988083Y-65577137D01*
X152857685Y-65490008D01*
X152746792Y-65379115D01*
X152659663Y-65248717D01*
X152599648Y-65103828D01*
X152569052Y-64950014D01*
X152569052Y-64793186D01*
X152599648Y-64639372D01*
X152659663Y-64494483D01*
X152746792Y-64364085D01*
X152857685Y-64253192D01*
X152988083Y-64166063D01*
X153132972Y-64106048D01*
X153286786Y-64075452D01*
X153443614Y-64075452D01*
X153597428Y-64106048D01*
G37*
G36*
X157675942Y-63956601D02*
G01*
X157829887Y-64020367D01*
X157968434Y-64112941D01*
X158086259Y-64230766D01*
X158178833Y-64369313D01*
X158242599Y-64523258D01*
X158275107Y-64686685D01*
X158275107Y-64853315D01*
X158242599Y-65016742D01*
X158178833Y-65170687D01*
X158086259Y-65309234D01*
X157968434Y-65427059D01*
X157829887Y-65519633D01*
X157675942Y-65583399D01*
X157512515Y-65615907D01*
X157345885Y-65615907D01*
X157182458Y-65583399D01*
X157028513Y-65519633D01*
X156889966Y-65427059D01*
X156772141Y-65309234D01*
X156679567Y-65170687D01*
X156615801Y-65016742D01*
X156583293Y-64853315D01*
X156583293Y-64686685D01*
X156615801Y-64523258D01*
X156679567Y-64369313D01*
X156772141Y-64230766D01*
X156889966Y-64112941D01*
X157028513Y-64020367D01*
X157182458Y-63956601D01*
X157345885Y-63924093D01*
X157512515Y-63924093D01*
X157675942Y-63956601D01*
G37*
G36*
X131047250Y-62810964D02*
G01*
X131097440Y-62816787D01*
X131114589Y-62824359D01*
X131138071Y-62829030D01*
X131163210Y-62845827D01*
X131183096Y-62854608D01*
X131196677Y-62868189D01*
X131219177Y-62883223D01*
X131234210Y-62905722D01*
X131247791Y-62919303D01*
X131256570Y-62939186D01*
X131273370Y-62964329D01*
X131278041Y-62987812D01*
X131285612Y-63004959D01*
X131291433Y-63055139D01*
X131292400Y-63060000D01*
X131292400Y-65210000D01*
X131291432Y-65214863D01*
X131285612Y-65265040D01*
X131278041Y-65282185D01*
X131273370Y-65305671D01*
X131256569Y-65330815D01*
X131247791Y-65350696D01*
X131234212Y-65364274D01*
X131219177Y-65386777D01*
X131196674Y-65401812D01*
X131183096Y-65415391D01*
X131163215Y-65424169D01*
X131138071Y-65440970D01*
X131114585Y-65445641D01*
X131097440Y-65453212D01*
X131047261Y-65459032D01*
X131042400Y-65460000D01*
X130192400Y-65460000D01*
X130187538Y-65459032D01*
X130137359Y-65453212D01*
X130120212Y-65445641D01*
X130096729Y-65440970D01*
X130071586Y-65424170D01*
X130051703Y-65415391D01*
X130038122Y-65401810D01*
X130015623Y-65386777D01*
X130000589Y-65364277D01*
X129987008Y-65350696D01*
X129978227Y-65330810D01*
X129961430Y-65305671D01*
X129956759Y-65282189D01*
X129949187Y-65265040D01*
X129943364Y-65214849D01*
X129942400Y-65210000D01*
X129942400Y-63060000D01*
X129943364Y-63055150D01*
X129949187Y-63004959D01*
X129956759Y-62987808D01*
X129961430Y-62964329D01*
X129978226Y-62939191D01*
X129987008Y-62919303D01*
X130000591Y-62905719D01*
X130015623Y-62883223D01*
X130038119Y-62868191D01*
X130051703Y-62854608D01*
X130071591Y-62845826D01*
X130096729Y-62829030D01*
X130120208Y-62824359D01*
X130137359Y-62816787D01*
X130187551Y-62810964D01*
X130192400Y-62810000D01*
X131042400Y-62810000D01*
X131047250Y-62810964D01*
G37*
G36*
X135547250Y-62810964D02*
G01*
X135597440Y-62816787D01*
X135614589Y-62824359D01*
X135638071Y-62829030D01*
X135663210Y-62845827D01*
X135683096Y-62854608D01*
X135696677Y-62868189D01*
X135719177Y-62883223D01*
X135734210Y-62905722D01*
X135747791Y-62919303D01*
X135756570Y-62939186D01*
X135773370Y-62964329D01*
X135778041Y-62987812D01*
X135785612Y-63004959D01*
X135791433Y-63055139D01*
X135792400Y-63060000D01*
X135792400Y-65210000D01*
X135791432Y-65214863D01*
X135785612Y-65265040D01*
X135778041Y-65282185D01*
X135773370Y-65305671D01*
X135756569Y-65330815D01*
X135747791Y-65350696D01*
X135734212Y-65364274D01*
X135719177Y-65386777D01*
X135696674Y-65401812D01*
X135683096Y-65415391D01*
X135663215Y-65424169D01*
X135638071Y-65440970D01*
X135614585Y-65445641D01*
X135597440Y-65453212D01*
X135547261Y-65459032D01*
X135542400Y-65460000D01*
X134692400Y-65460000D01*
X134687538Y-65459032D01*
X134637359Y-65453212D01*
X134620212Y-65445641D01*
X134596729Y-65440970D01*
X134571586Y-65424170D01*
X134551703Y-65415391D01*
X134538122Y-65401810D01*
X134515623Y-65386777D01*
X134500589Y-65364277D01*
X134487008Y-65350696D01*
X134478227Y-65330810D01*
X134461430Y-65305671D01*
X134456759Y-65282189D01*
X134449187Y-65265040D01*
X134443364Y-65214849D01*
X134442400Y-65210000D01*
X134442400Y-63060000D01*
X134443364Y-63055150D01*
X134449187Y-63004959D01*
X134456759Y-62987808D01*
X134461430Y-62964329D01*
X134478226Y-62939191D01*
X134487008Y-62919303D01*
X134500591Y-62905719D01*
X134515623Y-62883223D01*
X134538119Y-62868191D01*
X134551703Y-62854608D01*
X134571591Y-62845826D01*
X134596729Y-62829030D01*
X134620208Y-62824359D01*
X134637359Y-62816787D01*
X134687551Y-62810964D01*
X134692400Y-62810000D01*
X135542400Y-62810000D01*
X135547250Y-62810964D01*
G37*
G36*
X123746742Y-62226601D02*
G01*
X123900687Y-62290367D01*
X124039234Y-62382941D01*
X124157059Y-62500766D01*
X124249633Y-62639313D01*
X124313399Y-62793258D01*
X124345907Y-62956685D01*
X124345907Y-63123315D01*
X124313399Y-63286742D01*
X124249633Y-63440687D01*
X124157059Y-63579234D01*
X124039234Y-63697059D01*
X123900687Y-63789633D01*
X123746742Y-63853399D01*
X123583315Y-63885907D01*
X123416685Y-63885907D01*
X123253258Y-63853399D01*
X123099313Y-63789633D01*
X122960766Y-63697059D01*
X122842941Y-63579234D01*
X122750367Y-63440687D01*
X122686601Y-63286742D01*
X122654093Y-63123315D01*
X122654093Y-62956685D01*
X122686601Y-62793258D01*
X122750367Y-62639313D01*
X122842941Y-62500766D01*
X122960766Y-62382941D01*
X123099313Y-62290367D01*
X123253258Y-62226601D01*
X123416685Y-62194093D01*
X123583315Y-62194093D01*
X123746742Y-62226601D01*
G37*
G36*
X138357428Y-61566048D02*
G01*
X138502317Y-61626063D01*
X138632715Y-61713192D01*
X138743608Y-61824085D01*
X138830737Y-61954483D01*
X138890752Y-62099372D01*
X138921348Y-62253186D01*
X138921348Y-62410014D01*
X138890752Y-62563828D01*
X138830737Y-62708717D01*
X138743608Y-62839115D01*
X138632715Y-62950008D01*
X138502317Y-63037137D01*
X138357428Y-63097152D01*
X138203614Y-63127748D01*
X138046786Y-63127748D01*
X137892972Y-63097152D01*
X137748083Y-63037137D01*
X137617685Y-62950008D01*
X137506792Y-62839115D01*
X137419663Y-62708717D01*
X137359648Y-62563828D01*
X137329052Y-62410014D01*
X137329052Y-62253186D01*
X137359648Y-62099372D01*
X137419663Y-61954483D01*
X137506792Y-61824085D01*
X137617685Y-61713192D01*
X137748083Y-61626063D01*
X137892972Y-61566048D01*
X138046786Y-61535452D01*
X138203614Y-61535452D01*
X138357428Y-61566048D01*
G37*
G36*
X153597428Y-61566048D02*
G01*
X153742317Y-61626063D01*
X153872715Y-61713192D01*
X153983608Y-61824085D01*
X154070737Y-61954483D01*
X154130752Y-62099372D01*
X154161348Y-62253186D01*
X154161348Y-62410014D01*
X154130752Y-62563828D01*
X154070737Y-62708717D01*
X153983608Y-62839115D01*
X153872715Y-62950008D01*
X153742317Y-63037137D01*
X153597428Y-63097152D01*
X153443614Y-63127748D01*
X153286786Y-63127748D01*
X153132972Y-63097152D01*
X152988083Y-63037137D01*
X152857685Y-62950008D01*
X152746792Y-62839115D01*
X152659663Y-62708717D01*
X152599648Y-62563828D01*
X152569052Y-62410014D01*
X152569052Y-62253186D01*
X152599648Y-62099372D01*
X152659663Y-61954483D01*
X152746792Y-61824085D01*
X152857685Y-61713192D01*
X152988083Y-61626063D01*
X153132972Y-61566048D01*
X153286786Y-61535452D01*
X153443614Y-61535452D01*
X153597428Y-61566048D01*
G37*
G36*
X158279200Y-63080000D02*
G01*
X156579200Y-63080000D01*
X156579200Y-61380000D01*
X158279200Y-61380000D01*
X158279200Y-63080000D01*
G37*
G36*
X181864850Y-60700964D02*
G01*
X181915040Y-60706787D01*
X181932189Y-60714359D01*
X181955671Y-60719030D01*
X181980810Y-60735827D01*
X182000696Y-60744608D01*
X182014277Y-60758189D01*
X182036777Y-60773223D01*
X182051810Y-60795722D01*
X182065391Y-60809303D01*
X182074170Y-60829186D01*
X182090970Y-60854329D01*
X182095641Y-60877812D01*
X182103212Y-60894959D01*
X182109033Y-60945139D01*
X182110000Y-60950000D01*
X182110000Y-62050000D01*
X182109032Y-62054863D01*
X182103212Y-62105040D01*
X182095641Y-62122185D01*
X182090970Y-62145671D01*
X182074169Y-62170815D01*
X182065391Y-62190696D01*
X182051812Y-62204274D01*
X182036777Y-62226777D01*
X182014274Y-62241812D01*
X182000696Y-62255391D01*
X181980815Y-62264169D01*
X181955671Y-62280970D01*
X181932185Y-62285641D01*
X181915040Y-62293212D01*
X181864861Y-62299032D01*
X181860000Y-62300000D01*
X180760000Y-62300000D01*
X180755138Y-62299032D01*
X180704959Y-62293212D01*
X180687812Y-62285641D01*
X180664329Y-62280970D01*
X180639186Y-62264170D01*
X180619303Y-62255391D01*
X180605722Y-62241810D01*
X180583223Y-62226777D01*
X180568189Y-62204277D01*
X180554608Y-62190696D01*
X180545827Y-62170810D01*
X180529030Y-62145671D01*
X180524359Y-62122189D01*
X180516787Y-62105040D01*
X180510964Y-62054849D01*
X180510000Y-62050000D01*
X180510000Y-60950000D01*
X180510964Y-60945150D01*
X180516787Y-60894959D01*
X180524359Y-60877808D01*
X180529030Y-60854329D01*
X180545826Y-60829191D01*
X180554608Y-60809303D01*
X180568191Y-60795719D01*
X180583223Y-60773223D01*
X180605719Y-60758191D01*
X180619303Y-60744608D01*
X180639191Y-60735826D01*
X180664329Y-60719030D01*
X180687808Y-60714359D01*
X180704959Y-60706787D01*
X180755151Y-60700964D01*
X180760000Y-60700000D01*
X181860000Y-60700000D01*
X181864850Y-60700964D01*
G37*
G36*
X173922228Y-60734448D02*
G01*
X174067117Y-60794463D01*
X174197515Y-60881592D01*
X174308408Y-60992485D01*
X174395537Y-61122883D01*
X174455552Y-61267772D01*
X174486148Y-61421586D01*
X174486148Y-61578414D01*
X174455552Y-61732228D01*
X174395537Y-61877117D01*
X174308408Y-62007515D01*
X174197515Y-62118408D01*
X174067117Y-62205537D01*
X173922228Y-62265552D01*
X173768414Y-62296148D01*
X173611586Y-62296148D01*
X173457772Y-62265552D01*
X173312883Y-62205537D01*
X173182485Y-62118408D01*
X173071592Y-62007515D01*
X172984463Y-61877117D01*
X172924448Y-61732228D01*
X172893852Y-61578414D01*
X172893852Y-61421586D01*
X172924448Y-61267772D01*
X172984463Y-61122883D01*
X173071592Y-60992485D01*
X173182485Y-60881592D01*
X173312883Y-60794463D01*
X173457772Y-60734448D01*
X173611586Y-60703852D01*
X173768414Y-60703852D01*
X173922228Y-60734448D01*
G37*
G36*
X123746742Y-59686601D02*
G01*
X123900687Y-59750367D01*
X124039234Y-59842941D01*
X124157059Y-59960766D01*
X124249633Y-60099313D01*
X124313399Y-60253258D01*
X124345907Y-60416685D01*
X124345907Y-60583315D01*
X124313399Y-60746742D01*
X124249633Y-60900687D01*
X124157059Y-61039234D01*
X124039234Y-61157059D01*
X123900687Y-61249633D01*
X123746742Y-61313399D01*
X123583315Y-61345907D01*
X123416685Y-61345907D01*
X123253258Y-61313399D01*
X123099313Y-61249633D01*
X122960766Y-61157059D01*
X122842941Y-61039234D01*
X122750367Y-60900687D01*
X122686601Y-60746742D01*
X122654093Y-60583315D01*
X122654093Y-60416685D01*
X122686601Y-60253258D01*
X122750367Y-60099313D01*
X122842941Y-59960766D01*
X122960766Y-59842941D01*
X123099313Y-59750367D01*
X123253258Y-59686601D01*
X123416685Y-59654093D01*
X123583315Y-59654093D01*
X123746742Y-59686601D01*
G37*
G36*
X161289999Y-59756742D02*
G01*
X161416778Y-59809255D01*
X161530875Y-59885493D01*
X161627907Y-59982525D01*
X161704145Y-60096622D01*
X161756658Y-60223401D01*
X161783429Y-60357988D01*
X161783429Y-60495212D01*
X161756658Y-60629799D01*
X161704145Y-60756578D01*
X161627907Y-60870675D01*
X161530875Y-60967707D01*
X161416778Y-61043945D01*
X161289999Y-61096458D01*
X161155412Y-61123229D01*
X161018188Y-61123229D01*
X160883601Y-61096458D01*
X160756822Y-61043945D01*
X160642725Y-60967707D01*
X160545693Y-60870675D01*
X160469455Y-60756578D01*
X160416942Y-60629799D01*
X160390171Y-60495212D01*
X160390171Y-60357988D01*
X160416942Y-60223401D01*
X160469455Y-60096622D01*
X160545693Y-59982525D01*
X160642725Y-59885493D01*
X160756822Y-59809255D01*
X160883601Y-59756742D01*
X161018188Y-59729971D01*
X161155412Y-59729971D01*
X161289999Y-59756742D01*
G37*
G36*
X130657599Y-59223342D02*
G01*
X130784378Y-59275855D01*
X130898475Y-59352093D01*
X130995507Y-59449125D01*
X131071745Y-59563222D01*
X131124258Y-59690001D01*
X131151029Y-59824588D01*
X131151029Y-59961812D01*
X131124258Y-60096399D01*
X131071745Y-60223178D01*
X130995507Y-60337275D01*
X130898475Y-60434307D01*
X130784378Y-60510545D01*
X130657599Y-60563058D01*
X130523012Y-60589829D01*
X130385788Y-60589829D01*
X130251201Y-60563058D01*
X130124422Y-60510545D01*
X130010325Y-60434307D01*
X129913293Y-60337275D01*
X129837055Y-60223178D01*
X129784542Y-60096399D01*
X129757771Y-59961812D01*
X129757771Y-59824588D01*
X129784542Y-59690001D01*
X129837055Y-59563222D01*
X129913293Y-59449125D01*
X130010325Y-59352093D01*
X130124422Y-59275855D01*
X130251201Y-59223342D01*
X130385788Y-59196571D01*
X130523012Y-59196571D01*
X130657599Y-59223342D01*
G37*
G36*
X135737599Y-59223342D02*
G01*
X135864378Y-59275855D01*
X135978475Y-59352093D01*
X136075507Y-59449125D01*
X136151745Y-59563222D01*
X136204258Y-59690001D01*
X136231029Y-59824588D01*
X136231029Y-59961812D01*
X136204258Y-60096399D01*
X136151745Y-60223178D01*
X136075507Y-60337275D01*
X135978475Y-60434307D01*
X135864378Y-60510545D01*
X135737599Y-60563058D01*
X135603012Y-60589829D01*
X135465788Y-60589829D01*
X135331201Y-60563058D01*
X135204422Y-60510545D01*
X135090325Y-60434307D01*
X134993293Y-60337275D01*
X134917055Y-60223178D01*
X134864542Y-60096399D01*
X134837771Y-59961812D01*
X134837771Y-59824588D01*
X134864542Y-59690001D01*
X134917055Y-59563222D01*
X134993293Y-59449125D01*
X135090325Y-59352093D01*
X135204422Y-59275855D01*
X135331201Y-59223342D01*
X135465788Y-59196571D01*
X135603012Y-59196571D01*
X135737599Y-59223342D01*
G37*
G36*
X138357428Y-59026048D02*
G01*
X138502317Y-59086063D01*
X138632715Y-59173192D01*
X138743608Y-59284085D01*
X138830737Y-59414483D01*
X138890752Y-59559372D01*
X138921348Y-59713186D01*
X138921348Y-59870014D01*
X138890752Y-60023828D01*
X138830737Y-60168717D01*
X138743608Y-60299115D01*
X138632715Y-60410008D01*
X138502317Y-60497137D01*
X138357428Y-60557152D01*
X138203614Y-60587748D01*
X138046786Y-60587748D01*
X137892972Y-60557152D01*
X137748083Y-60497137D01*
X137617685Y-60410008D01*
X137506792Y-60299115D01*
X137419663Y-60168717D01*
X137359648Y-60023828D01*
X137329052Y-59870014D01*
X137329052Y-59713186D01*
X137359648Y-59559372D01*
X137419663Y-59414483D01*
X137506792Y-59284085D01*
X137617685Y-59173192D01*
X137748083Y-59086063D01*
X137892972Y-59026048D01*
X138046786Y-58995452D01*
X138203614Y-58995452D01*
X138357428Y-59026048D01*
G37*
G36*
X153597428Y-59026048D02*
G01*
X153742317Y-59086063D01*
X153872715Y-59173192D01*
X153983608Y-59284085D01*
X154070737Y-59414483D01*
X154130752Y-59559372D01*
X154161348Y-59713186D01*
X154161348Y-59870014D01*
X154130752Y-60023828D01*
X154070737Y-60168717D01*
X153983608Y-60299115D01*
X153872715Y-60410008D01*
X153742317Y-60497137D01*
X153597428Y-60557152D01*
X153443614Y-60587748D01*
X153286786Y-60587748D01*
X153132972Y-60557152D01*
X152988083Y-60497137D01*
X152857685Y-60410008D01*
X152746792Y-60299115D01*
X152659663Y-60168717D01*
X152599648Y-60023828D01*
X152569052Y-59870014D01*
X152569052Y-59713186D01*
X152599648Y-59559372D01*
X152659663Y-59414483D01*
X152746792Y-59284085D01*
X152857685Y-59173192D01*
X152988083Y-59086063D01*
X153132972Y-59026048D01*
X153286786Y-58995452D01*
X153443614Y-58995452D01*
X153597428Y-59026048D01*
G37*
G36*
X164287199Y-58969342D02*
G01*
X164413978Y-59021855D01*
X164528075Y-59098093D01*
X164625107Y-59195125D01*
X164701345Y-59309222D01*
X164753858Y-59436001D01*
X164780629Y-59570588D01*
X164780629Y-59707812D01*
X164753858Y-59842399D01*
X164701345Y-59969178D01*
X164625107Y-60083275D01*
X164528075Y-60180307D01*
X164413978Y-60256545D01*
X164287199Y-60309058D01*
X164152612Y-60335829D01*
X164015388Y-60335829D01*
X163880801Y-60309058D01*
X163754022Y-60256545D01*
X163639925Y-60180307D01*
X163542893Y-60083275D01*
X163466655Y-59969178D01*
X163414142Y-59842399D01*
X163387371Y-59707812D01*
X163387371Y-59570588D01*
X163414142Y-59436001D01*
X163466655Y-59309222D01*
X163542893Y-59195125D01*
X163639925Y-59098093D01*
X163754022Y-59021855D01*
X163880801Y-58969342D01*
X164015388Y-58942571D01*
X164152612Y-58942571D01*
X164287199Y-58969342D01*
G37*
G36*
X169367199Y-58969342D02*
G01*
X169493978Y-59021855D01*
X169608075Y-59098093D01*
X169705107Y-59195125D01*
X169781345Y-59309222D01*
X169833858Y-59436001D01*
X169860629Y-59570588D01*
X169860629Y-59707812D01*
X169833858Y-59842399D01*
X169781345Y-59969178D01*
X169705107Y-60083275D01*
X169608075Y-60180307D01*
X169493978Y-60256545D01*
X169367199Y-60309058D01*
X169232612Y-60335829D01*
X169095388Y-60335829D01*
X168960801Y-60309058D01*
X168834022Y-60256545D01*
X168719925Y-60180307D01*
X168622893Y-60083275D01*
X168546655Y-59969178D01*
X168494142Y-59842399D01*
X168467371Y-59707812D01*
X168467371Y-59570588D01*
X168494142Y-59436001D01*
X168546655Y-59309222D01*
X168622893Y-59195125D01*
X168719925Y-59098093D01*
X168834022Y-59021855D01*
X168960801Y-58969342D01*
X169095388Y-58942571D01*
X169232612Y-58942571D01*
X169367199Y-58969342D01*
G37*
G36*
X124350000Y-58810000D02*
G01*
X122650000Y-58810000D01*
X122650000Y-57110000D01*
X124350000Y-57110000D01*
X124350000Y-58810000D01*
G37*
G36*
X157071828Y-56968648D02*
G01*
X157216717Y-57028663D01*
X157347115Y-57115792D01*
X157458008Y-57226685D01*
X157545137Y-57357083D01*
X157605152Y-57501972D01*
X157635748Y-57655786D01*
X157635748Y-57812614D01*
X157605152Y-57966428D01*
X157545137Y-58111317D01*
X157458008Y-58241715D01*
X157347115Y-58352608D01*
X157216717Y-58439737D01*
X157071828Y-58499752D01*
X156918014Y-58530348D01*
X156761186Y-58530348D01*
X156607372Y-58499752D01*
X156462483Y-58439737D01*
X156332085Y-58352608D01*
X156221192Y-58241715D01*
X156134063Y-58111317D01*
X156074048Y-57966428D01*
X156043452Y-57812614D01*
X156043452Y-57655786D01*
X156074048Y-57501972D01*
X156134063Y-57357083D01*
X156221192Y-57226685D01*
X156332085Y-57115792D01*
X156462483Y-57028663D01*
X156607372Y-56968648D01*
X156761186Y-56938052D01*
X156918014Y-56938052D01*
X157071828Y-56968648D01*
G37*
G36*
X159571828Y-56968648D02*
G01*
X159716717Y-57028663D01*
X159847115Y-57115792D01*
X159958008Y-57226685D01*
X160045137Y-57357083D01*
X160105152Y-57501972D01*
X160135748Y-57655786D01*
X160135748Y-57812614D01*
X160105152Y-57966428D01*
X160045137Y-58111317D01*
X159958008Y-58241715D01*
X159847115Y-58352608D01*
X159716717Y-58439737D01*
X159571828Y-58499752D01*
X159418014Y-58530348D01*
X159261186Y-58530348D01*
X159107372Y-58499752D01*
X158962483Y-58439737D01*
X158832085Y-58352608D01*
X158721192Y-58241715D01*
X158634063Y-58111317D01*
X158574048Y-57966428D01*
X158543452Y-57812614D01*
X158543452Y-57655786D01*
X158574048Y-57501972D01*
X158634063Y-57357083D01*
X158721192Y-57226685D01*
X158832085Y-57115792D01*
X158962483Y-57028663D01*
X159107372Y-56968648D01*
X159261186Y-56938052D01*
X159418014Y-56938052D01*
X159571828Y-56968648D01*
G37*
G36*
X176208199Y-56830142D02*
G01*
X176334978Y-56882655D01*
X176449075Y-56958893D01*
X176546107Y-57055925D01*
X176622345Y-57170022D01*
X176674858Y-57296801D01*
X176701629Y-57431388D01*
X176701629Y-57568612D01*
X176674858Y-57703199D01*
X176622345Y-57829978D01*
X176546107Y-57944075D01*
X176449075Y-58041107D01*
X176334978Y-58117345D01*
X176208199Y-58169858D01*
X176073612Y-58196629D01*
X175936388Y-58196629D01*
X175801801Y-58169858D01*
X175675022Y-58117345D01*
X175560925Y-58041107D01*
X175463893Y-57944075D01*
X175387655Y-57829978D01*
X175335142Y-57703199D01*
X175308371Y-57568612D01*
X175308371Y-57431388D01*
X175335142Y-57296801D01*
X175387655Y-57170022D01*
X175463893Y-57055925D01*
X175560925Y-56958893D01*
X175675022Y-56882655D01*
X175801801Y-56830142D01*
X175936388Y-56803371D01*
X176073612Y-56803371D01*
X176208199Y-56830142D01*
G37*
G36*
X178108199Y-56830142D02*
G01*
X178234978Y-56882655D01*
X178349075Y-56958893D01*
X178446107Y-57055925D01*
X178522345Y-57170022D01*
X178574858Y-57296801D01*
X178601629Y-57431388D01*
X178601629Y-57568612D01*
X178574858Y-57703199D01*
X178522345Y-57829978D01*
X178446107Y-57944075D01*
X178349075Y-58041107D01*
X178234978Y-58117345D01*
X178108199Y-58169858D01*
X177973612Y-58196629D01*
X177836388Y-58196629D01*
X177701801Y-58169858D01*
X177575022Y-58117345D01*
X177460925Y-58041107D01*
X177363893Y-57944075D01*
X177287655Y-57829978D01*
X177235142Y-57703199D01*
X177208371Y-57568612D01*
X177208371Y-57431388D01*
X177235142Y-57296801D01*
X177287655Y-57170022D01*
X177363893Y-57055925D01*
X177460925Y-56958893D01*
X177575022Y-56882655D01*
X177701801Y-56830142D01*
X177836388Y-56803371D01*
X177973612Y-56803371D01*
X178108199Y-56830142D01*
G37*
G36*
X138357428Y-56486048D02*
G01*
X138502317Y-56546063D01*
X138632715Y-56633192D01*
X138743608Y-56744085D01*
X138830737Y-56874483D01*
X138890752Y-57019372D01*
X138921348Y-57173186D01*
X138921348Y-57330014D01*
X138890752Y-57483828D01*
X138830737Y-57628717D01*
X138743608Y-57759115D01*
X138632715Y-57870008D01*
X138502317Y-57957137D01*
X138357428Y-58017152D01*
X138203614Y-58047748D01*
X138046786Y-58047748D01*
X137892972Y-58017152D01*
X137748083Y-57957137D01*
X137617685Y-57870008D01*
X137506792Y-57759115D01*
X137419663Y-57628717D01*
X137359648Y-57483828D01*
X137329052Y-57330014D01*
X137329052Y-57173186D01*
X137359648Y-57019372D01*
X137419663Y-56874483D01*
X137506792Y-56744085D01*
X137617685Y-56633192D01*
X137748083Y-56546063D01*
X137892972Y-56486048D01*
X138046786Y-56455452D01*
X138203614Y-56455452D01*
X138357428Y-56486048D01*
G37*
G36*
X153597428Y-56486048D02*
G01*
X153742317Y-56546063D01*
X153872715Y-56633192D01*
X153983608Y-56744085D01*
X154070737Y-56874483D01*
X154130752Y-57019372D01*
X154161348Y-57173186D01*
X154161348Y-57330014D01*
X154130752Y-57483828D01*
X154070737Y-57628717D01*
X153983608Y-57759115D01*
X153872715Y-57870008D01*
X153742317Y-57957137D01*
X153597428Y-58017152D01*
X153443614Y-58047748D01*
X153286786Y-58047748D01*
X153132972Y-58017152D01*
X152988083Y-57957137D01*
X152857685Y-57870008D01*
X152746792Y-57759115D01*
X152659663Y-57628717D01*
X152599648Y-57483828D01*
X152569052Y-57330014D01*
X152569052Y-57173186D01*
X152599648Y-57019372D01*
X152659663Y-56874483D01*
X152746792Y-56744085D01*
X152857685Y-56633192D01*
X152988083Y-56546063D01*
X153132972Y-56486048D01*
X153286786Y-56455452D01*
X153443614Y-56455452D01*
X153597428Y-56486048D01*
G37*
G36*
X130682999Y-56353142D02*
G01*
X130809778Y-56405655D01*
X130923875Y-56481893D01*
X131020907Y-56578925D01*
X131097145Y-56693022D01*
X131149658Y-56819801D01*
X131176429Y-56954388D01*
X131176429Y-57091612D01*
X131149658Y-57226199D01*
X131097145Y-57352978D01*
X131020907Y-57467075D01*
X130923875Y-57564107D01*
X130809778Y-57640345D01*
X130682999Y-57692858D01*
X130548412Y-57719629D01*
X130411188Y-57719629D01*
X130276601Y-57692858D01*
X130149822Y-57640345D01*
X130035725Y-57564107D01*
X129938693Y-57467075D01*
X129862455Y-57352978D01*
X129809942Y-57226199D01*
X129783171Y-57091612D01*
X129783171Y-56954388D01*
X129809942Y-56819801D01*
X129862455Y-56693022D01*
X129938693Y-56578925D01*
X130035725Y-56481893D01*
X130149822Y-56405655D01*
X130276601Y-56353142D01*
X130411188Y-56326371D01*
X130548412Y-56326371D01*
X130682999Y-56353142D01*
G37*
G36*
X135762999Y-56353142D02*
G01*
X135889778Y-56405655D01*
X136003875Y-56481893D01*
X136100907Y-56578925D01*
X136177145Y-56693022D01*
X136229658Y-56819801D01*
X136256429Y-56954388D01*
X136256429Y-57091612D01*
X136229658Y-57226199D01*
X136177145Y-57352978D01*
X136100907Y-57467075D01*
X136003875Y-57564107D01*
X135889778Y-57640345D01*
X135762999Y-57692858D01*
X135628412Y-57719629D01*
X135491188Y-57719629D01*
X135356601Y-57692858D01*
X135229822Y-57640345D01*
X135115725Y-57564107D01*
X135018693Y-57467075D01*
X134942455Y-57352978D01*
X134889942Y-57226199D01*
X134863171Y-57091612D01*
X134863171Y-56954388D01*
X134889942Y-56819801D01*
X134942455Y-56693022D01*
X135018693Y-56578925D01*
X135115725Y-56481893D01*
X135229822Y-56405655D01*
X135356601Y-56353142D01*
X135491188Y-56326371D01*
X135628412Y-56326371D01*
X135762999Y-56353142D01*
G37*
G36*
X163931599Y-56302342D02*
G01*
X164058378Y-56354855D01*
X164172475Y-56431093D01*
X164269507Y-56528125D01*
X164345745Y-56642222D01*
X164398258Y-56769001D01*
X164425029Y-56903588D01*
X164425029Y-57040812D01*
X164398258Y-57175399D01*
X164345745Y-57302178D01*
X164269507Y-57416275D01*
X164172475Y-57513307D01*
X164058378Y-57589545D01*
X163931599Y-57642058D01*
X163797012Y-57668829D01*
X163659788Y-57668829D01*
X163525201Y-57642058D01*
X163398422Y-57589545D01*
X163284325Y-57513307D01*
X163187293Y-57416275D01*
X163111055Y-57302178D01*
X163058542Y-57175399D01*
X163031771Y-57040812D01*
X163031771Y-56903588D01*
X163058542Y-56769001D01*
X163111055Y-56642222D01*
X163187293Y-56528125D01*
X163284325Y-56431093D01*
X163398422Y-56354855D01*
X163525201Y-56302342D01*
X163659788Y-56275571D01*
X163797012Y-56275571D01*
X163931599Y-56302342D01*
G37*
G36*
X169011599Y-56302342D02*
G01*
X169138378Y-56354855D01*
X169252475Y-56431093D01*
X169349507Y-56528125D01*
X169425745Y-56642222D01*
X169478258Y-56769001D01*
X169505029Y-56903588D01*
X169505029Y-57040812D01*
X169478258Y-57175399D01*
X169425745Y-57302178D01*
X169349507Y-57416275D01*
X169252475Y-57513307D01*
X169138378Y-57589545D01*
X169011599Y-57642058D01*
X168877012Y-57668829D01*
X168739788Y-57668829D01*
X168605201Y-57642058D01*
X168478422Y-57589545D01*
X168364325Y-57513307D01*
X168267293Y-57416275D01*
X168191055Y-57302178D01*
X168138542Y-57175399D01*
X168111771Y-57040812D01*
X168111771Y-56903588D01*
X168138542Y-56769001D01*
X168191055Y-56642222D01*
X168267293Y-56528125D01*
X168364325Y-56431093D01*
X168478422Y-56354855D01*
X168605201Y-56302342D01*
X168739788Y-56275571D01*
X168877012Y-56275571D01*
X169011599Y-56302342D01*
G37*
G36*
X116554850Y-54010964D02*
G01*
X116605040Y-54016787D01*
X116622189Y-54024359D01*
X116645671Y-54029030D01*
X116670810Y-54045827D01*
X116690696Y-54054608D01*
X116704277Y-54068189D01*
X116726777Y-54083223D01*
X116741810Y-54105722D01*
X116755391Y-54119303D01*
X116764170Y-54139186D01*
X116780970Y-54164329D01*
X116785641Y-54187812D01*
X116793212Y-54204959D01*
X116799033Y-54255139D01*
X116800000Y-54260000D01*
X116800000Y-55360000D01*
X116799032Y-55364863D01*
X116793212Y-55415040D01*
X116785641Y-55432185D01*
X116780970Y-55455671D01*
X116764169Y-55480815D01*
X116755391Y-55500696D01*
X116741812Y-55514274D01*
X116726777Y-55536777D01*
X116704274Y-55551812D01*
X116690696Y-55565391D01*
X116670815Y-55574169D01*
X116645671Y-55590970D01*
X116622185Y-55595641D01*
X116605040Y-55603212D01*
X116554861Y-55609032D01*
X116550000Y-55610000D01*
X115450000Y-55610000D01*
X115445138Y-55609032D01*
X115394959Y-55603212D01*
X115377812Y-55595641D01*
X115354329Y-55590970D01*
X115329186Y-55574170D01*
X115309303Y-55565391D01*
X115295722Y-55551810D01*
X115273223Y-55536777D01*
X115258189Y-55514277D01*
X115244608Y-55500696D01*
X115235827Y-55480810D01*
X115219030Y-55455671D01*
X115214359Y-55432189D01*
X115206787Y-55415040D01*
X115200964Y-55364849D01*
X115200000Y-55360000D01*
X115200000Y-54260000D01*
X115200964Y-54255150D01*
X115206787Y-54204959D01*
X115214359Y-54187808D01*
X115219030Y-54164329D01*
X115235826Y-54139191D01*
X115244608Y-54119303D01*
X115258191Y-54105719D01*
X115273223Y-54083223D01*
X115295719Y-54068191D01*
X115309303Y-54054608D01*
X115329191Y-54045826D01*
X115354329Y-54029030D01*
X115377808Y-54024359D01*
X115394959Y-54016787D01*
X115445151Y-54010964D01*
X115450000Y-54010000D01*
X116550000Y-54010000D01*
X116554850Y-54010964D01*
G37*
G36*
X174054850Y-54010964D02*
G01*
X174105040Y-54016787D01*
X174122189Y-54024359D01*
X174145671Y-54029030D01*
X174170810Y-54045827D01*
X174190696Y-54054608D01*
X174204277Y-54068189D01*
X174226777Y-54083223D01*
X174241810Y-54105722D01*
X174255391Y-54119303D01*
X174264170Y-54139186D01*
X174280970Y-54164329D01*
X174285641Y-54187812D01*
X174293212Y-54204959D01*
X174299033Y-54255139D01*
X174300000Y-54260000D01*
X174300000Y-55360000D01*
X174299032Y-55364863D01*
X174293212Y-55415040D01*
X174285641Y-55432185D01*
X174280970Y-55455671D01*
X174264169Y-55480815D01*
X174255391Y-55500696D01*
X174241812Y-55514274D01*
X174226777Y-55536777D01*
X174204274Y-55551812D01*
X174190696Y-55565391D01*
X174170815Y-55574169D01*
X174145671Y-55590970D01*
X174122185Y-55595641D01*
X174105040Y-55603212D01*
X174054861Y-55609032D01*
X174050000Y-55610000D01*
X172950000Y-55610000D01*
X172945138Y-55609032D01*
X172894959Y-55603212D01*
X172877812Y-55595641D01*
X172854329Y-55590970D01*
X172829186Y-55574170D01*
X172809303Y-55565391D01*
X172795722Y-55551810D01*
X172773223Y-55536777D01*
X172758189Y-55514277D01*
X172744608Y-55500696D01*
X172735827Y-55480810D01*
X172719030Y-55455671D01*
X172714359Y-55432189D01*
X172706787Y-55415040D01*
X172700964Y-55364849D01*
X172700000Y-55360000D01*
X172700000Y-54260000D01*
X172700964Y-54255150D01*
X172706787Y-54204959D01*
X172714359Y-54187808D01*
X172719030Y-54164329D01*
X172735826Y-54139191D01*
X172744608Y-54119303D01*
X172758191Y-54105719D01*
X172773223Y-54083223D01*
X172795719Y-54068191D01*
X172809303Y-54054608D01*
X172829191Y-54045826D01*
X172854329Y-54029030D01*
X172877808Y-54024359D01*
X172894959Y-54016787D01*
X172945151Y-54010964D01*
X172950000Y-54010000D01*
X174050000Y-54010000D01*
X174054850Y-54010964D01*
G37*
G36*
X138357428Y-53946048D02*
G01*
X138502317Y-54006063D01*
X138632715Y-54093192D01*
X138743608Y-54204085D01*
X138830737Y-54334483D01*
X138890752Y-54479372D01*
X138921348Y-54633186D01*
X138921348Y-54790014D01*
X138890752Y-54943828D01*
X138830737Y-55088717D01*
X138743608Y-55219115D01*
X138632715Y-55330008D01*
X138502317Y-55417137D01*
X138357428Y-55477152D01*
X138203614Y-55507748D01*
X138046786Y-55507748D01*
X137892972Y-55477152D01*
X137748083Y-55417137D01*
X137617685Y-55330008D01*
X137506792Y-55219115D01*
X137419663Y-55088717D01*
X137359648Y-54943828D01*
X137329052Y-54790014D01*
X137329052Y-54633186D01*
X137359648Y-54479372D01*
X137419663Y-54334483D01*
X137506792Y-54204085D01*
X137617685Y-54093192D01*
X137748083Y-54006063D01*
X137892972Y-53946048D01*
X138046786Y-53915452D01*
X138203614Y-53915452D01*
X138357428Y-53946048D01*
G37*
G36*
X153597428Y-53946048D02*
G01*
X153742317Y-54006063D01*
X153872715Y-54093192D01*
X153983608Y-54204085D01*
X154070737Y-54334483D01*
X154130752Y-54479372D01*
X154161348Y-54633186D01*
X154161348Y-54790014D01*
X154130752Y-54943828D01*
X154070737Y-55088717D01*
X153983608Y-55219115D01*
X153872715Y-55330008D01*
X153742317Y-55417137D01*
X153597428Y-55477152D01*
X153443614Y-55507748D01*
X153286786Y-55507748D01*
X153132972Y-55477152D01*
X152988083Y-55417137D01*
X152857685Y-55330008D01*
X152746792Y-55219115D01*
X152659663Y-55088717D01*
X152599648Y-54943828D01*
X152569052Y-54790014D01*
X152569052Y-54633186D01*
X152599648Y-54479372D01*
X152659663Y-54334483D01*
X152746792Y-54204085D01*
X152857685Y-54093192D01*
X152988083Y-54006063D01*
X153132972Y-53946048D01*
X153286786Y-53915452D01*
X153443614Y-53915452D01*
X153597428Y-53946048D01*
G37*
G36*
X157015628Y-53717448D02*
G01*
X157160517Y-53777463D01*
X157290915Y-53864592D01*
X157401808Y-53975485D01*
X157488937Y-54105883D01*
X157548952Y-54250772D01*
X157579548Y-54404586D01*
X157579548Y-54561414D01*
X157548952Y-54715228D01*
X157488937Y-54860117D01*
X157401808Y-54990515D01*
X157290915Y-55101408D01*
X157160517Y-55188537D01*
X157015628Y-55248552D01*
X156861814Y-55279148D01*
X156704986Y-55279148D01*
X156551172Y-55248552D01*
X156406283Y-55188537D01*
X156275885Y-55101408D01*
X156164992Y-54990515D01*
X156077863Y-54860117D01*
X156017848Y-54715228D01*
X155987252Y-54561414D01*
X155987252Y-54404586D01*
X156017848Y-54250772D01*
X156077863Y-54105883D01*
X156164992Y-53975485D01*
X156275885Y-53864592D01*
X156406283Y-53777463D01*
X156551172Y-53717448D01*
X156704986Y-53686852D01*
X156861814Y-53686852D01*
X157015628Y-53717448D01*
G37*
G36*
X159515628Y-53717448D02*
G01*
X159660517Y-53777463D01*
X159790915Y-53864592D01*
X159901808Y-53975485D01*
X159988937Y-54105883D01*
X160048952Y-54250772D01*
X160079548Y-54404586D01*
X160079548Y-54561414D01*
X160048952Y-54715228D01*
X159988937Y-54860117D01*
X159901808Y-54990515D01*
X159790915Y-55101408D01*
X159660517Y-55188537D01*
X159515628Y-55248552D01*
X159361814Y-55279148D01*
X159204986Y-55279148D01*
X159051172Y-55248552D01*
X158906283Y-55188537D01*
X158775885Y-55101408D01*
X158664992Y-54990515D01*
X158577863Y-54860117D01*
X158517848Y-54715228D01*
X158487252Y-54561414D01*
X158487252Y-54404586D01*
X158517848Y-54250772D01*
X158577863Y-54105883D01*
X158664992Y-53975485D01*
X158775885Y-53864592D01*
X158906283Y-53777463D01*
X159051172Y-53717448D01*
X159204986Y-53686852D01*
X159361814Y-53686852D01*
X159515628Y-53717448D01*
G37*
G36*
X163829999Y-53863942D02*
G01*
X163956778Y-53916455D01*
X164070875Y-53992693D01*
X164167907Y-54089725D01*
X164244145Y-54203822D01*
X164296658Y-54330601D01*
X164323429Y-54465188D01*
X164323429Y-54602412D01*
X164296658Y-54736999D01*
X164244145Y-54863778D01*
X164167907Y-54977875D01*
X164070875Y-55074907D01*
X163956778Y-55151145D01*
X163829999Y-55203658D01*
X163695412Y-55230429D01*
X163558188Y-55230429D01*
X163423601Y-55203658D01*
X163296822Y-55151145D01*
X163182725Y-55074907D01*
X163085693Y-54977875D01*
X163009455Y-54863778D01*
X162956942Y-54736999D01*
X162930171Y-54602412D01*
X162930171Y-54465188D01*
X162956942Y-54330601D01*
X163009455Y-54203822D01*
X163085693Y-54089725D01*
X163182725Y-53992693D01*
X163296822Y-53916455D01*
X163423601Y-53863942D01*
X163558188Y-53837171D01*
X163695412Y-53837171D01*
X163829999Y-53863942D01*
G37*
G36*
X168909999Y-53863942D02*
G01*
X169036778Y-53916455D01*
X169150875Y-53992693D01*
X169247907Y-54089725D01*
X169324145Y-54203822D01*
X169376658Y-54330601D01*
X169403429Y-54465188D01*
X169403429Y-54602412D01*
X169376658Y-54736999D01*
X169324145Y-54863778D01*
X169247907Y-54977875D01*
X169150875Y-55074907D01*
X169036778Y-55151145D01*
X168909999Y-55203658D01*
X168775412Y-55230429D01*
X168638188Y-55230429D01*
X168503601Y-55203658D01*
X168376822Y-55151145D01*
X168262725Y-55074907D01*
X168165693Y-54977875D01*
X168089455Y-54863778D01*
X168036942Y-54736999D01*
X168010171Y-54602412D01*
X168010171Y-54465188D01*
X168036942Y-54330601D01*
X168089455Y-54203822D01*
X168165693Y-54089725D01*
X168262725Y-53992693D01*
X168376822Y-53916455D01*
X168503601Y-53863942D01*
X168638188Y-53837171D01*
X168775412Y-53837171D01*
X168909999Y-53863942D01*
G37*
G36*
X119554850Y-53510964D02*
G01*
X119605040Y-53516787D01*
X119622189Y-53524359D01*
X119645671Y-53529030D01*
X119670810Y-53545827D01*
X119690696Y-53554608D01*
X119704277Y-53568189D01*
X119726777Y-53583223D01*
X119741810Y-53605722D01*
X119755391Y-53619303D01*
X119764170Y-53639186D01*
X119780970Y-53664329D01*
X119785641Y-53687812D01*
X119793212Y-53704959D01*
X119799033Y-53755139D01*
X119800000Y-53760000D01*
X119800000Y-54860000D01*
X119799032Y-54864863D01*
X119793212Y-54915040D01*
X119785641Y-54932185D01*
X119780970Y-54955671D01*
X119764169Y-54980815D01*
X119755391Y-55000696D01*
X119741812Y-55014274D01*
X119726777Y-55036777D01*
X119704274Y-55051812D01*
X119690696Y-55065391D01*
X119670815Y-55074169D01*
X119645671Y-55090970D01*
X119622185Y-55095641D01*
X119605040Y-55103212D01*
X119554861Y-55109032D01*
X119550000Y-55110000D01*
X118450000Y-55110000D01*
X118445138Y-55109032D01*
X118394959Y-55103212D01*
X118377812Y-55095641D01*
X118354329Y-55090970D01*
X118329186Y-55074170D01*
X118309303Y-55065391D01*
X118295722Y-55051810D01*
X118273223Y-55036777D01*
X118258189Y-55014277D01*
X118244608Y-55000696D01*
X118235827Y-54980810D01*
X118219030Y-54955671D01*
X118214359Y-54932189D01*
X118206787Y-54915040D01*
X118200964Y-54864849D01*
X118200000Y-54860000D01*
X118200000Y-53760000D01*
X118200964Y-53755150D01*
X118206787Y-53704959D01*
X118214359Y-53687808D01*
X118219030Y-53664329D01*
X118235826Y-53639191D01*
X118244608Y-53619303D01*
X118258191Y-53605719D01*
X118273223Y-53583223D01*
X118295719Y-53568191D01*
X118309303Y-53554608D01*
X118329191Y-53545826D01*
X118354329Y-53529030D01*
X118377808Y-53524359D01*
X118394959Y-53516787D01*
X118445151Y-53510964D01*
X118450000Y-53510000D01*
X119550000Y-53510000D01*
X119554850Y-53510964D01*
G37*
G36*
X130454399Y-53305142D02*
G01*
X130581178Y-53357655D01*
X130695275Y-53433893D01*
X130792307Y-53530925D01*
X130868545Y-53645022D01*
X130921058Y-53771801D01*
X130947829Y-53906388D01*
X130947829Y-54043612D01*
X130921058Y-54178199D01*
X130868545Y-54304978D01*
X130792307Y-54419075D01*
X130695275Y-54516107D01*
X130581178Y-54592345D01*
X130454399Y-54644858D01*
X130319812Y-54671629D01*
X130182588Y-54671629D01*
X130048001Y-54644858D01*
X129921222Y-54592345D01*
X129807125Y-54516107D01*
X129710093Y-54419075D01*
X129633855Y-54304978D01*
X129581342Y-54178199D01*
X129554571Y-54043612D01*
X129554571Y-53906388D01*
X129581342Y-53771801D01*
X129633855Y-53645022D01*
X129710093Y-53530925D01*
X129807125Y-53433893D01*
X129921222Y-53357655D01*
X130048001Y-53305142D01*
X130182588Y-53278371D01*
X130319812Y-53278371D01*
X130454399Y-53305142D01*
G37*
G36*
X135534399Y-53305142D02*
G01*
X135661178Y-53357655D01*
X135775275Y-53433893D01*
X135872307Y-53530925D01*
X135948545Y-53645022D01*
X136001058Y-53771801D01*
X136027829Y-53906388D01*
X136027829Y-54043612D01*
X136001058Y-54178199D01*
X135948545Y-54304978D01*
X135872307Y-54419075D01*
X135775275Y-54516107D01*
X135661178Y-54592345D01*
X135534399Y-54644858D01*
X135399812Y-54671629D01*
X135262588Y-54671629D01*
X135128001Y-54644858D01*
X135001222Y-54592345D01*
X134887125Y-54516107D01*
X134790093Y-54419075D01*
X134713855Y-54304978D01*
X134661342Y-54178199D01*
X134634571Y-54043612D01*
X134634571Y-53906388D01*
X134661342Y-53771801D01*
X134713855Y-53645022D01*
X134790093Y-53530925D01*
X134887125Y-53433893D01*
X135001222Y-53357655D01*
X135128001Y-53305142D01*
X135262588Y-53278371D01*
X135399812Y-53278371D01*
X135534399Y-53305142D01*
G37*
G36*
X123554850Y-53010964D02*
G01*
X123605040Y-53016787D01*
X123622189Y-53024359D01*
X123645671Y-53029030D01*
X123670810Y-53045827D01*
X123690696Y-53054608D01*
X123704277Y-53068189D01*
X123726777Y-53083223D01*
X123741810Y-53105722D01*
X123755391Y-53119303D01*
X123764170Y-53139186D01*
X123780970Y-53164329D01*
X123785641Y-53187812D01*
X123793212Y-53204959D01*
X123799033Y-53255139D01*
X123800000Y-53260000D01*
X123800000Y-54360000D01*
X123799032Y-54364863D01*
X123793212Y-54415040D01*
X123785641Y-54432185D01*
X123780970Y-54455671D01*
X123764169Y-54480815D01*
X123755391Y-54500696D01*
X123741812Y-54514274D01*
X123726777Y-54536777D01*
X123704274Y-54551812D01*
X123690696Y-54565391D01*
X123670815Y-54574169D01*
X123645671Y-54590970D01*
X123622185Y-54595641D01*
X123605040Y-54603212D01*
X123554861Y-54609032D01*
X123550000Y-54610000D01*
X122450000Y-54610000D01*
X122445138Y-54609032D01*
X122394959Y-54603212D01*
X122377812Y-54595641D01*
X122354329Y-54590970D01*
X122329186Y-54574170D01*
X122309303Y-54565391D01*
X122295722Y-54551810D01*
X122273223Y-54536777D01*
X122258189Y-54514277D01*
X122244608Y-54500696D01*
X122235827Y-54480810D01*
X122219030Y-54455671D01*
X122214359Y-54432189D01*
X122206787Y-54415040D01*
X122200964Y-54364849D01*
X122200000Y-54360000D01*
X122200000Y-53260000D01*
X122200964Y-53255150D01*
X122206787Y-53204959D01*
X122214359Y-53187808D01*
X122219030Y-53164329D01*
X122235826Y-53139191D01*
X122244608Y-53119303D01*
X122258191Y-53105719D01*
X122273223Y-53083223D01*
X122295719Y-53068191D01*
X122309303Y-53054608D01*
X122329191Y-53045826D01*
X122354329Y-53029030D01*
X122377808Y-53024359D01*
X122394959Y-53016787D01*
X122445151Y-53010964D01*
X122450000Y-53010000D01*
X123550000Y-53010000D01*
X123554850Y-53010964D01*
G37*
G36*
X126232228Y-53044448D02*
G01*
X126377117Y-53104463D01*
X126507515Y-53191592D01*
X126618408Y-53302485D01*
X126705537Y-53432883D01*
X126765552Y-53577772D01*
X126796148Y-53731586D01*
X126796148Y-53888414D01*
X126765552Y-54042228D01*
X126705537Y-54187117D01*
X126618408Y-54317515D01*
X126507515Y-54428408D01*
X126377117Y-54515537D01*
X126232228Y-54575552D01*
X126078414Y-54606148D01*
X125921586Y-54606148D01*
X125767772Y-54575552D01*
X125622883Y-54515537D01*
X125492485Y-54428408D01*
X125381592Y-54317515D01*
X125294463Y-54187117D01*
X125234448Y-54042228D01*
X125203852Y-53888414D01*
X125203852Y-53731586D01*
X125234448Y-53577772D01*
X125294463Y-53432883D01*
X125381592Y-53302485D01*
X125492485Y-53191592D01*
X125622883Y-53104463D01*
X125767772Y-53044448D01*
X125921586Y-53013852D01*
X126078414Y-53013852D01*
X126232228Y-53044448D01*
G37*
G36*
X138357428Y-51406048D02*
G01*
X138502317Y-51466063D01*
X138632715Y-51553192D01*
X138743608Y-51664085D01*
X138830737Y-51794483D01*
X138890752Y-51939372D01*
X138921348Y-52093186D01*
X138921348Y-52250014D01*
X138890752Y-52403828D01*
X138830737Y-52548717D01*
X138743608Y-52679115D01*
X138632715Y-52790008D01*
X138502317Y-52877137D01*
X138357428Y-52937152D01*
X138203614Y-52967748D01*
X138046786Y-52967748D01*
X137892972Y-52937152D01*
X137748083Y-52877137D01*
X137617685Y-52790008D01*
X137506792Y-52679115D01*
X137419663Y-52548717D01*
X137359648Y-52403828D01*
X137329052Y-52250014D01*
X137329052Y-52093186D01*
X137359648Y-51939372D01*
X137419663Y-51794483D01*
X137506792Y-51664085D01*
X137617685Y-51553192D01*
X137748083Y-51466063D01*
X137892972Y-51406048D01*
X138046786Y-51375452D01*
X138203614Y-51375452D01*
X138357428Y-51406048D01*
G37*
G36*
X153597428Y-51406048D02*
G01*
X153742317Y-51466063D01*
X153872715Y-51553192D01*
X153983608Y-51664085D01*
X154070737Y-51794483D01*
X154130752Y-51939372D01*
X154161348Y-52093186D01*
X154161348Y-52250014D01*
X154130752Y-52403828D01*
X154070737Y-52548717D01*
X153983608Y-52679115D01*
X153872715Y-52790008D01*
X153742317Y-52877137D01*
X153597428Y-52937152D01*
X153443614Y-52967748D01*
X153286786Y-52967748D01*
X153132972Y-52937152D01*
X152988083Y-52877137D01*
X152857685Y-52790008D01*
X152746792Y-52679115D01*
X152659663Y-52548717D01*
X152599648Y-52403828D01*
X152569052Y-52250014D01*
X152569052Y-52093186D01*
X152599648Y-51939372D01*
X152659663Y-51794483D01*
X152746792Y-51664085D01*
X152857685Y-51553192D01*
X152988083Y-51466063D01*
X153132972Y-51406048D01*
X153286786Y-51375452D01*
X153443614Y-51375452D01*
X153597428Y-51406048D01*
G37*
G36*
X180025000Y-52270000D02*
G01*
X178975000Y-52270000D01*
X178975000Y-50770000D01*
X180025000Y-50770000D01*
X180025000Y-52270000D01*
G37*
G36*
X177160909Y-50809963D02*
G01*
X177279600Y-50878489D01*
X177376511Y-50975400D01*
X177445037Y-51094091D01*
X177480509Y-51226474D01*
X177485000Y-51295000D01*
X177485000Y-51745000D01*
X177480509Y-51813526D01*
X177445037Y-51945909D01*
X177376511Y-52064600D01*
X177279600Y-52161511D01*
X177160909Y-52230037D01*
X177028526Y-52265509D01*
X176891474Y-52265509D01*
X176759091Y-52230037D01*
X176640400Y-52161511D01*
X176543489Y-52064600D01*
X176474963Y-51945909D01*
X176439491Y-51813526D01*
X176435000Y-51745000D01*
X176435000Y-51295000D01*
X176439491Y-51226474D01*
X176474963Y-51094091D01*
X176543489Y-50975400D01*
X176640400Y-50878489D01*
X176759091Y-50809963D01*
X176891474Y-50774491D01*
X177028526Y-50774491D01*
X177160909Y-50809963D01*
G37*
G36*
X178430909Y-50809963D02*
G01*
X178549600Y-50878489D01*
X178646511Y-50975400D01*
X178715037Y-51094091D01*
X178750509Y-51226474D01*
X178755000Y-51295000D01*
X178755000Y-51745000D01*
X178750509Y-51813526D01*
X178715037Y-51945909D01*
X178646511Y-52064600D01*
X178549600Y-52161511D01*
X178430909Y-52230037D01*
X178298526Y-52265509D01*
X178161474Y-52265509D01*
X178029091Y-52230037D01*
X177910400Y-52161511D01*
X177813489Y-52064600D01*
X177744963Y-51945909D01*
X177709491Y-51813526D01*
X177705000Y-51745000D01*
X177705000Y-51295000D01*
X177709491Y-51226474D01*
X177744963Y-51094091D01*
X177813489Y-50975400D01*
X177910400Y-50878489D01*
X178029091Y-50809963D01*
X178161474Y-50774491D01*
X178298526Y-50774491D01*
X178430909Y-50809963D01*
G37*
G36*
X156995628Y-50644048D02*
G01*
X157140517Y-50704063D01*
X157270915Y-50791192D01*
X157381808Y-50902085D01*
X157468937Y-51032483D01*
X157528952Y-51177372D01*
X157559548Y-51331186D01*
X157559548Y-51488014D01*
X157528952Y-51641828D01*
X157468937Y-51786717D01*
X157381808Y-51917115D01*
X157270915Y-52028008D01*
X157140517Y-52115137D01*
X156995628Y-52175152D01*
X156841814Y-52205748D01*
X156684986Y-52205748D01*
X156531172Y-52175152D01*
X156386283Y-52115137D01*
X156255885Y-52028008D01*
X156144992Y-51917115D01*
X156057863Y-51786717D01*
X155997848Y-51641828D01*
X155967252Y-51488014D01*
X155967252Y-51331186D01*
X155997848Y-51177372D01*
X156057863Y-51032483D01*
X156144992Y-50902085D01*
X156255885Y-50791192D01*
X156386283Y-50704063D01*
X156531172Y-50644048D01*
X156684986Y-50613452D01*
X156841814Y-50613452D01*
X156995628Y-50644048D01*
G37*
G36*
X159495628Y-50644048D02*
G01*
X159640517Y-50704063D01*
X159770915Y-50791192D01*
X159881808Y-50902085D01*
X159968937Y-51032483D01*
X160028952Y-51177372D01*
X160059548Y-51331186D01*
X160059548Y-51488014D01*
X160028952Y-51641828D01*
X159968937Y-51786717D01*
X159881808Y-51917115D01*
X159770915Y-52028008D01*
X159640517Y-52115137D01*
X159495628Y-52175152D01*
X159341814Y-52205748D01*
X159184986Y-52205748D01*
X159031172Y-52175152D01*
X158886283Y-52115137D01*
X158755885Y-52028008D01*
X158644992Y-51917115D01*
X158557863Y-51786717D01*
X158497848Y-51641828D01*
X158467252Y-51488014D01*
X158467252Y-51331186D01*
X158497848Y-51177372D01*
X158557863Y-51032483D01*
X158644992Y-50902085D01*
X158755885Y-50791192D01*
X158886283Y-50704063D01*
X159031172Y-50644048D01*
X159184986Y-50613452D01*
X159341814Y-50613452D01*
X159495628Y-50644048D01*
G37*
G36*
X132232228Y-50234448D02*
G01*
X132377117Y-50294463D01*
X132507515Y-50381592D01*
X132618408Y-50492485D01*
X132705537Y-50622883D01*
X132765552Y-50767772D01*
X132796148Y-50921586D01*
X132796148Y-51078414D01*
X132765552Y-51232228D01*
X132705537Y-51377117D01*
X132618408Y-51507515D01*
X132507515Y-51618408D01*
X132377117Y-51705537D01*
X132232228Y-51765552D01*
X132078414Y-51796148D01*
X131921586Y-51796148D01*
X131767772Y-51765552D01*
X131622883Y-51705537D01*
X131492485Y-51618408D01*
X131381592Y-51507515D01*
X131294463Y-51377117D01*
X131234448Y-51232228D01*
X131203852Y-51078414D01*
X131203852Y-50921586D01*
X131234448Y-50767772D01*
X131294463Y-50622883D01*
X131381592Y-50492485D01*
X131492485Y-50381592D01*
X131622883Y-50294463D01*
X131767772Y-50234448D01*
X131921586Y-50203852D01*
X132078414Y-50203852D01*
X132232228Y-50234448D01*
G37*
G36*
X134732228Y-50234448D02*
G01*
X134877117Y-50294463D01*
X135007515Y-50381592D01*
X135118408Y-50492485D01*
X135205537Y-50622883D01*
X135265552Y-50767772D01*
X135296148Y-50921586D01*
X135296148Y-51078414D01*
X135265552Y-51232228D01*
X135205537Y-51377117D01*
X135118408Y-51507515D01*
X135007515Y-51618408D01*
X134877117Y-51705537D01*
X134732228Y-51765552D01*
X134578414Y-51796148D01*
X134421586Y-51796148D01*
X134267772Y-51765552D01*
X134122883Y-51705537D01*
X133992485Y-51618408D01*
X133881592Y-51507515D01*
X133794463Y-51377117D01*
X133734448Y-51232228D01*
X133703852Y-51078414D01*
X133703852Y-50921586D01*
X133734448Y-50767772D01*
X133794463Y-50622883D01*
X133881592Y-50492485D01*
X133992485Y-50381592D01*
X134122883Y-50294463D01*
X134267772Y-50234448D01*
X134421586Y-50203852D01*
X134578414Y-50203852D01*
X134732228Y-50234448D01*
G37*
G36*
X164909599Y-49187742D02*
G01*
X165036378Y-49240255D01*
X165150475Y-49316493D01*
X165247507Y-49413525D01*
X165323745Y-49527622D01*
X165376258Y-49654401D01*
X165403029Y-49788988D01*
X165403029Y-49926212D01*
X165376258Y-50060799D01*
X165323745Y-50187578D01*
X165247507Y-50301675D01*
X165150475Y-50398707D01*
X165036378Y-50474945D01*
X164909599Y-50527458D01*
X164775012Y-50554229D01*
X164637788Y-50554229D01*
X164503201Y-50527458D01*
X164376422Y-50474945D01*
X164262325Y-50398707D01*
X164165293Y-50301675D01*
X164089055Y-50187578D01*
X164036542Y-50060799D01*
X164009771Y-49926212D01*
X164009771Y-49788988D01*
X164036542Y-49654401D01*
X164089055Y-49527622D01*
X164165293Y-49413525D01*
X164262325Y-49316493D01*
X164376422Y-49240255D01*
X164503201Y-49187742D01*
X164637788Y-49160971D01*
X164775012Y-49160971D01*
X164909599Y-49187742D01*
G37*
G36*
X169989599Y-49187742D02*
G01*
X170116378Y-49240255D01*
X170230475Y-49316493D01*
X170327507Y-49413525D01*
X170403745Y-49527622D01*
X170456258Y-49654401D01*
X170483029Y-49788988D01*
X170483029Y-49926212D01*
X170456258Y-50060799D01*
X170403745Y-50187578D01*
X170327507Y-50301675D01*
X170230475Y-50398707D01*
X170116378Y-50474945D01*
X169989599Y-50527458D01*
X169855012Y-50554229D01*
X169717788Y-50554229D01*
X169583201Y-50527458D01*
X169456422Y-50474945D01*
X169342325Y-50398707D01*
X169245293Y-50301675D01*
X169169055Y-50187578D01*
X169116542Y-50060799D01*
X169089771Y-49926212D01*
X169089771Y-49788988D01*
X169116542Y-49654401D01*
X169169055Y-49527622D01*
X169245293Y-49413525D01*
X169342325Y-49316493D01*
X169456422Y-49240255D01*
X169583201Y-49187742D01*
X169717788Y-49160971D01*
X169855012Y-49160971D01*
X169989599Y-49187742D01*
G37*
G36*
X138357428Y-48866048D02*
G01*
X138502317Y-48926063D01*
X138632715Y-49013192D01*
X138743608Y-49124085D01*
X138830737Y-49254483D01*
X138890752Y-49399372D01*
X138921348Y-49553186D01*
X138921348Y-49710014D01*
X138890752Y-49863828D01*
X138830737Y-50008717D01*
X138743608Y-50139115D01*
X138632715Y-50250008D01*
X138502317Y-50337137D01*
X138357428Y-50397152D01*
X138203614Y-50427748D01*
X138046786Y-50427748D01*
X137892972Y-50397152D01*
X137748083Y-50337137D01*
X137617685Y-50250008D01*
X137506792Y-50139115D01*
X137419663Y-50008717D01*
X137359648Y-49863828D01*
X137329052Y-49710014D01*
X137329052Y-49553186D01*
X137359648Y-49399372D01*
X137419663Y-49254483D01*
X137506792Y-49124085D01*
X137617685Y-49013192D01*
X137748083Y-48926063D01*
X137892972Y-48866048D01*
X138046786Y-48835452D01*
X138203614Y-48835452D01*
X138357428Y-48866048D01*
G37*
G36*
X153597428Y-48866048D02*
G01*
X153742317Y-48926063D01*
X153872715Y-49013192D01*
X153983608Y-49124085D01*
X154070737Y-49254483D01*
X154130752Y-49399372D01*
X154161348Y-49553186D01*
X154161348Y-49710014D01*
X154130752Y-49863828D01*
X154070737Y-50008717D01*
X153983608Y-50139115D01*
X153872715Y-50250008D01*
X153742317Y-50337137D01*
X153597428Y-50397152D01*
X153443614Y-50427748D01*
X153286786Y-50427748D01*
X153132972Y-50397152D01*
X152988083Y-50337137D01*
X152857685Y-50250008D01*
X152746792Y-50139115D01*
X152659663Y-50008717D01*
X152599648Y-49863828D01*
X152569052Y-49710014D01*
X152569052Y-49553186D01*
X152599648Y-49399372D01*
X152659663Y-49254483D01*
X152746792Y-49124085D01*
X152857685Y-49013192D01*
X152988083Y-48926063D01*
X153132972Y-48866048D01*
X153286786Y-48835452D01*
X153443614Y-48835452D01*
X153597428Y-48866048D01*
G37*
G36*
X132232228Y-47234448D02*
G01*
X132377117Y-47294463D01*
X132507515Y-47381592D01*
X132618408Y-47492485D01*
X132705537Y-47622883D01*
X132765552Y-47767772D01*
X132796148Y-47921586D01*
X132796148Y-48078414D01*
X132765552Y-48232228D01*
X132705537Y-48377117D01*
X132618408Y-48507515D01*
X132507515Y-48618408D01*
X132377117Y-48705537D01*
X132232228Y-48765552D01*
X132078414Y-48796148D01*
X131921586Y-48796148D01*
X131767772Y-48765552D01*
X131622883Y-48705537D01*
X131492485Y-48618408D01*
X131381592Y-48507515D01*
X131294463Y-48377117D01*
X131234448Y-48232228D01*
X131203852Y-48078414D01*
X131203852Y-47921586D01*
X131234448Y-47767772D01*
X131294463Y-47622883D01*
X131381592Y-47492485D01*
X131492485Y-47381592D01*
X131622883Y-47294463D01*
X131767772Y-47234448D01*
X131921586Y-47203852D01*
X132078414Y-47203852D01*
X132232228Y-47234448D01*
G37*
G36*
X134732228Y-47234448D02*
G01*
X134877117Y-47294463D01*
X135007515Y-47381592D01*
X135118408Y-47492485D01*
X135205537Y-47622883D01*
X135265552Y-47767772D01*
X135296148Y-47921586D01*
X135296148Y-48078414D01*
X135265552Y-48232228D01*
X135205537Y-48377117D01*
X135118408Y-48507515D01*
X135007515Y-48618408D01*
X134877117Y-48705537D01*
X134732228Y-48765552D01*
X134578414Y-48796148D01*
X134421586Y-48796148D01*
X134267772Y-48765552D01*
X134122883Y-48705537D01*
X133992485Y-48618408D01*
X133881592Y-48507515D01*
X133794463Y-48377117D01*
X133734448Y-48232228D01*
X133703852Y-48078414D01*
X133703852Y-47921586D01*
X133734448Y-47767772D01*
X133794463Y-47622883D01*
X133881592Y-47492485D01*
X133992485Y-47381592D01*
X134122883Y-47294463D01*
X134267772Y-47234448D01*
X134421586Y-47203852D01*
X134578414Y-47203852D01*
X134732228Y-47234448D01*
G37*
G36*
X116232228Y-46424448D02*
G01*
X116377117Y-46484463D01*
X116507515Y-46571592D01*
X116618408Y-46682485D01*
X116705537Y-46812883D01*
X116765552Y-46957772D01*
X116796148Y-47111586D01*
X116796148Y-47268414D01*
X116765552Y-47422228D01*
X116705537Y-47567117D01*
X116618408Y-47697515D01*
X116507515Y-47808408D01*
X116377117Y-47895537D01*
X116232228Y-47955552D01*
X116078414Y-47986148D01*
X115921586Y-47986148D01*
X115767772Y-47955552D01*
X115622883Y-47895537D01*
X115492485Y-47808408D01*
X115381592Y-47697515D01*
X115294463Y-47567117D01*
X115234448Y-47422228D01*
X115203852Y-47268414D01*
X115203852Y-47111586D01*
X115234448Y-46957772D01*
X115294463Y-46812883D01*
X115381592Y-46682485D01*
X115492485Y-46571592D01*
X115622883Y-46484463D01*
X115767772Y-46424448D01*
X115921586Y-46393852D01*
X116078414Y-46393852D01*
X116232228Y-46424448D01*
G37*
G36*
X173732228Y-46424448D02*
G01*
X173877117Y-46484463D01*
X174007515Y-46571592D01*
X174118408Y-46682485D01*
X174205537Y-46812883D01*
X174265552Y-46957772D01*
X174296148Y-47111586D01*
X174296148Y-47268414D01*
X174265552Y-47422228D01*
X174205537Y-47567117D01*
X174118408Y-47697515D01*
X174007515Y-47808408D01*
X173877117Y-47895537D01*
X173732228Y-47955552D01*
X173578414Y-47986148D01*
X173421586Y-47986148D01*
X173267772Y-47955552D01*
X173122883Y-47895537D01*
X172992485Y-47808408D01*
X172881592Y-47697515D01*
X172794463Y-47567117D01*
X172734448Y-47422228D01*
X172703852Y-47268414D01*
X172703852Y-47111586D01*
X172734448Y-46957772D01*
X172794463Y-46812883D01*
X172881592Y-46682485D01*
X172992485Y-46571592D01*
X173122883Y-46484463D01*
X173267772Y-46424448D01*
X173421586Y-46393852D01*
X173578414Y-46393852D01*
X173732228Y-46424448D01*
G37*
G36*
X138357428Y-46326048D02*
G01*
X138502317Y-46386063D01*
X138632715Y-46473192D01*
X138743608Y-46584085D01*
X138830737Y-46714483D01*
X138890752Y-46859372D01*
X138921348Y-47013186D01*
X138921348Y-47170014D01*
X138890752Y-47323828D01*
X138830737Y-47468717D01*
X138743608Y-47599115D01*
X138632715Y-47710008D01*
X138502317Y-47797137D01*
X138357428Y-47857152D01*
X138203614Y-47887748D01*
X138046786Y-47887748D01*
X137892972Y-47857152D01*
X137748083Y-47797137D01*
X137617685Y-47710008D01*
X137506792Y-47599115D01*
X137419663Y-47468717D01*
X137359648Y-47323828D01*
X137329052Y-47170014D01*
X137329052Y-47013186D01*
X137359648Y-46859372D01*
X137419663Y-46714483D01*
X137506792Y-46584085D01*
X137617685Y-46473192D01*
X137748083Y-46386063D01*
X137892972Y-46326048D01*
X138046786Y-46295452D01*
X138203614Y-46295452D01*
X138357428Y-46326048D01*
G37*
G36*
X153597428Y-46326048D02*
G01*
X153742317Y-46386063D01*
X153872715Y-46473192D01*
X153983608Y-46584085D01*
X154070737Y-46714483D01*
X154130752Y-46859372D01*
X154161348Y-47013186D01*
X154161348Y-47170014D01*
X154130752Y-47323828D01*
X154070737Y-47468717D01*
X153983608Y-47599115D01*
X153872715Y-47710008D01*
X153742317Y-47797137D01*
X153597428Y-47857152D01*
X153443614Y-47887748D01*
X153286786Y-47887748D01*
X153132972Y-47857152D01*
X152988083Y-47797137D01*
X152857685Y-47710008D01*
X152746792Y-47599115D01*
X152659663Y-47468717D01*
X152599648Y-47323828D01*
X152569052Y-47170014D01*
X152569052Y-47013186D01*
X152599648Y-46859372D01*
X152659663Y-46714483D01*
X152746792Y-46584085D01*
X152857685Y-46473192D01*
X152988083Y-46386063D01*
X153132972Y-46326048D01*
X153286786Y-46295452D01*
X153443614Y-46295452D01*
X153597428Y-46326048D01*
G37*
G36*
X164674850Y-46200964D02*
G01*
X164725040Y-46206787D01*
X164742189Y-46214359D01*
X164765671Y-46219030D01*
X164790810Y-46235827D01*
X164810696Y-46244608D01*
X164824277Y-46258189D01*
X164846777Y-46273223D01*
X164861810Y-46295722D01*
X164875391Y-46309303D01*
X164884170Y-46329186D01*
X164900970Y-46354329D01*
X164905641Y-46377812D01*
X164913212Y-46394959D01*
X164919033Y-46445139D01*
X164920000Y-46450000D01*
X164920000Y-47550000D01*
X164919032Y-47554863D01*
X164913212Y-47605040D01*
X164905641Y-47622185D01*
X164900970Y-47645671D01*
X164884169Y-47670815D01*
X164875391Y-47690696D01*
X164861812Y-47704274D01*
X164846777Y-47726777D01*
X164824274Y-47741812D01*
X164810696Y-47755391D01*
X164790815Y-47764169D01*
X164765671Y-47780970D01*
X164742185Y-47785641D01*
X164725040Y-47793212D01*
X164674861Y-47799032D01*
X164670000Y-47800000D01*
X163570000Y-47800000D01*
X163565138Y-47799032D01*
X163514959Y-47793212D01*
X163497812Y-47785641D01*
X163474329Y-47780970D01*
X163449186Y-47764170D01*
X163429303Y-47755391D01*
X163415722Y-47741810D01*
X163393223Y-47726777D01*
X163378189Y-47704277D01*
X163364608Y-47690696D01*
X163355827Y-47670810D01*
X163339030Y-47645671D01*
X163334359Y-47622189D01*
X163326787Y-47605040D01*
X163320964Y-47554849D01*
X163320000Y-47550000D01*
X163320000Y-46450000D01*
X163320964Y-46445150D01*
X163326787Y-46394959D01*
X163334359Y-46377808D01*
X163339030Y-46354329D01*
X163355826Y-46329191D01*
X163364608Y-46309303D01*
X163378191Y-46295719D01*
X163393223Y-46273223D01*
X163415719Y-46258191D01*
X163429303Y-46244608D01*
X163449191Y-46235826D01*
X163474329Y-46219030D01*
X163497808Y-46214359D01*
X163514959Y-46206787D01*
X163565151Y-46200964D01*
X163570000Y-46200000D01*
X164670000Y-46200000D01*
X164674850Y-46200964D01*
G37*
G36*
X156732228Y-46234448D02*
G01*
X156877117Y-46294463D01*
X157007515Y-46381592D01*
X157118408Y-46492485D01*
X157205537Y-46622883D01*
X157265552Y-46767772D01*
X157296148Y-46921586D01*
X157296148Y-47078414D01*
X157265552Y-47232228D01*
X157205537Y-47377117D01*
X157118408Y-47507515D01*
X157007515Y-47618408D01*
X156877117Y-47705537D01*
X156732228Y-47765552D01*
X156578414Y-47796148D01*
X156421586Y-47796148D01*
X156267772Y-47765552D01*
X156122883Y-47705537D01*
X155992485Y-47618408D01*
X155881592Y-47507515D01*
X155794463Y-47377117D01*
X155734448Y-47232228D01*
X155703852Y-47078414D01*
X155703852Y-46921586D01*
X155734448Y-46767772D01*
X155794463Y-46622883D01*
X155881592Y-46492485D01*
X155992485Y-46381592D01*
X156122883Y-46294463D01*
X156267772Y-46234448D01*
X156421586Y-46203852D01*
X156578414Y-46203852D01*
X156732228Y-46234448D01*
G37*
G36*
X177485000Y-47770000D02*
G01*
X176435000Y-47770000D01*
X176435000Y-46270000D01*
X177485000Y-46270000D01*
X177485000Y-47770000D01*
G37*
G36*
X178430909Y-46309963D02*
G01*
X178549600Y-46378489D01*
X178646511Y-46475400D01*
X178715037Y-46594091D01*
X178750509Y-46726474D01*
X178755000Y-46795000D01*
X178755000Y-47245000D01*
X178750509Y-47313526D01*
X178715037Y-47445909D01*
X178646511Y-47564600D01*
X178549600Y-47661511D01*
X178430909Y-47730037D01*
X178298526Y-47765509D01*
X178161474Y-47765509D01*
X178029091Y-47730037D01*
X177910400Y-47661511D01*
X177813489Y-47564600D01*
X177744963Y-47445909D01*
X177709491Y-47313526D01*
X177705000Y-47245000D01*
X177705000Y-46795000D01*
X177709491Y-46726474D01*
X177744963Y-46594091D01*
X177813489Y-46475400D01*
X177910400Y-46378489D01*
X178029091Y-46309963D01*
X178161474Y-46274491D01*
X178298526Y-46274491D01*
X178430909Y-46309963D01*
G37*
G36*
X179700909Y-46309963D02*
G01*
X179819600Y-46378489D01*
X179916511Y-46475400D01*
X179985037Y-46594091D01*
X180020509Y-46726474D01*
X180025000Y-46795000D01*
X180025000Y-47245000D01*
X180020509Y-47313526D01*
X179985037Y-47445909D01*
X179916511Y-47564600D01*
X179819600Y-47661511D01*
X179700909Y-47730037D01*
X179568526Y-47765509D01*
X179431474Y-47765509D01*
X179299091Y-47730037D01*
X179180400Y-47661511D01*
X179083489Y-47564600D01*
X179014963Y-47445909D01*
X178979491Y-47313526D01*
X178975000Y-47245000D01*
X178975000Y-46795000D01*
X178979491Y-46726474D01*
X179014963Y-46594091D01*
X179083489Y-46475400D01*
X179180400Y-46378489D01*
X179299091Y-46309963D01*
X179431474Y-46274491D01*
X179568526Y-46274491D01*
X179700909Y-46309963D01*
G37*
G36*
X119232228Y-45924448D02*
G01*
X119377117Y-45984463D01*
X119507515Y-46071592D01*
X119618408Y-46182485D01*
X119705537Y-46312883D01*
X119765552Y-46457772D01*
X119796148Y-46611586D01*
X119796148Y-46768414D01*
X119765552Y-46922228D01*
X119705537Y-47067117D01*
X119618408Y-47197515D01*
X119507515Y-47308408D01*
X119377117Y-47395537D01*
X119232228Y-47455552D01*
X119078414Y-47486148D01*
X118921586Y-47486148D01*
X118767772Y-47455552D01*
X118622883Y-47395537D01*
X118492485Y-47308408D01*
X118381592Y-47197515D01*
X118294463Y-47067117D01*
X118234448Y-46922228D01*
X118203852Y-46768414D01*
X118203852Y-46611586D01*
X118234448Y-46457772D01*
X118294463Y-46312883D01*
X118381592Y-46182485D01*
X118492485Y-46071592D01*
X118622883Y-45984463D01*
X118767772Y-45924448D01*
X118921586Y-45893852D01*
X119078414Y-45893852D01*
X119232228Y-45924448D01*
G37*
G36*
X167732228Y-45484448D02*
G01*
X167877117Y-45544463D01*
X168007515Y-45631592D01*
X168118408Y-45742485D01*
X168205537Y-45872883D01*
X168265552Y-46017772D01*
X168296148Y-46171586D01*
X168296148Y-46328414D01*
X168265552Y-46482228D01*
X168205537Y-46627117D01*
X168118408Y-46757515D01*
X168007515Y-46868408D01*
X167877117Y-46955537D01*
X167732228Y-47015552D01*
X167578414Y-47046148D01*
X167421586Y-47046148D01*
X167267772Y-47015552D01*
X167122883Y-46955537D01*
X166992485Y-46868408D01*
X166881592Y-46757515D01*
X166794463Y-46627117D01*
X166734448Y-46482228D01*
X166703852Y-46328414D01*
X166703852Y-46171586D01*
X166734448Y-46017772D01*
X166794463Y-45872883D01*
X166881592Y-45742485D01*
X166992485Y-45631592D01*
X167122883Y-45544463D01*
X167267772Y-45484448D01*
X167421586Y-45453852D01*
X167578414Y-45453852D01*
X167732228Y-45484448D01*
G37*
G36*
X126554850Y-45390964D02*
G01*
X126605040Y-45396787D01*
X126622189Y-45404359D01*
X126645671Y-45409030D01*
X126670810Y-45425827D01*
X126690696Y-45434608D01*
X126704277Y-45448189D01*
X126726777Y-45463223D01*
X126741810Y-45485722D01*
X126755391Y-45499303D01*
X126764170Y-45519186D01*
X126780970Y-45544329D01*
X126785641Y-45567812D01*
X126793212Y-45584959D01*
X126799033Y-45635139D01*
X126800000Y-45640000D01*
X126800000Y-46740000D01*
X126799032Y-46744863D01*
X126793212Y-46795040D01*
X126785641Y-46812185D01*
X126780970Y-46835671D01*
X126764169Y-46860815D01*
X126755391Y-46880696D01*
X126741812Y-46894274D01*
X126726777Y-46916777D01*
X126704274Y-46931812D01*
X126690696Y-46945391D01*
X126670815Y-46954169D01*
X126645671Y-46970970D01*
X126622185Y-46975641D01*
X126605040Y-46983212D01*
X126554861Y-46989032D01*
X126550000Y-46990000D01*
X125450000Y-46990000D01*
X125445138Y-46989032D01*
X125394959Y-46983212D01*
X125377812Y-46975641D01*
X125354329Y-46970970D01*
X125329186Y-46954170D01*
X125309303Y-46945391D01*
X125295722Y-46931810D01*
X125273223Y-46916777D01*
X125258189Y-46894277D01*
X125244608Y-46880696D01*
X125235827Y-46860810D01*
X125219030Y-46835671D01*
X125214359Y-46812189D01*
X125206787Y-46795040D01*
X125200964Y-46744849D01*
X125200000Y-46740000D01*
X125200000Y-45640000D01*
X125200964Y-45635150D01*
X125206787Y-45584959D01*
X125214359Y-45567808D01*
X125219030Y-45544329D01*
X125235826Y-45519191D01*
X125244608Y-45499303D01*
X125258191Y-45485719D01*
X125273223Y-45463223D01*
X125295719Y-45448191D01*
X125309303Y-45434608D01*
X125329191Y-45425826D01*
X125354329Y-45409030D01*
X125377808Y-45404359D01*
X125394959Y-45396787D01*
X125445151Y-45390964D01*
X125450000Y-45390000D01*
X126550000Y-45390000D01*
X126554850Y-45390964D01*
G37*
G36*
X123232228Y-45424448D02*
G01*
X123377117Y-45484463D01*
X123507515Y-45571592D01*
X123618408Y-45682485D01*
X123705537Y-45812883D01*
X123765552Y-45957772D01*
X123796148Y-46111586D01*
X123796148Y-46268414D01*
X123765552Y-46422228D01*
X123705537Y-46567117D01*
X123618408Y-46697515D01*
X123507515Y-46808408D01*
X123377117Y-46895537D01*
X123232228Y-46955552D01*
X123078414Y-46986148D01*
X122921586Y-46986148D01*
X122767772Y-46955552D01*
X122622883Y-46895537D01*
X122492485Y-46808408D01*
X122381592Y-46697515D01*
X122294463Y-46567117D01*
X122234448Y-46422228D01*
X122203852Y-46268414D01*
X122203852Y-46111586D01*
X122234448Y-45957772D01*
X122294463Y-45812883D01*
X122381592Y-45682485D01*
X122492485Y-45571592D01*
X122622883Y-45484463D01*
X122767772Y-45424448D01*
X122921586Y-45393852D01*
X123078414Y-45393852D01*
X123232228Y-45424448D01*
G37*
G36*
X116554850Y-44010964D02*
G01*
X116605040Y-44016787D01*
X116622189Y-44024359D01*
X116645671Y-44029030D01*
X116670810Y-44045827D01*
X116690696Y-44054608D01*
X116704277Y-44068189D01*
X116726777Y-44083223D01*
X116741810Y-44105722D01*
X116755391Y-44119303D01*
X116764170Y-44139186D01*
X116780970Y-44164329D01*
X116785641Y-44187812D01*
X116793212Y-44204959D01*
X116799033Y-44255139D01*
X116800000Y-44260000D01*
X116800000Y-45360000D01*
X116799032Y-45364863D01*
X116793212Y-45415040D01*
X116785641Y-45432185D01*
X116780970Y-45455671D01*
X116764169Y-45480815D01*
X116755391Y-45500696D01*
X116741812Y-45514274D01*
X116726777Y-45536777D01*
X116704274Y-45551812D01*
X116690696Y-45565391D01*
X116670815Y-45574169D01*
X116645671Y-45590970D01*
X116622185Y-45595641D01*
X116605040Y-45603212D01*
X116554861Y-45609032D01*
X116550000Y-45610000D01*
X115450000Y-45610000D01*
X115445138Y-45609032D01*
X115394959Y-45603212D01*
X115377812Y-45595641D01*
X115354329Y-45590970D01*
X115329186Y-45574170D01*
X115309303Y-45565391D01*
X115295722Y-45551810D01*
X115273223Y-45536777D01*
X115258189Y-45514277D01*
X115244608Y-45500696D01*
X115235827Y-45480810D01*
X115219030Y-45455671D01*
X115214359Y-45432189D01*
X115206787Y-45415040D01*
X115200964Y-45364849D01*
X115200000Y-45360000D01*
X115200000Y-44260000D01*
X115200964Y-44255150D01*
X115206787Y-44204959D01*
X115214359Y-44187808D01*
X115219030Y-44164329D01*
X115235826Y-44139191D01*
X115244608Y-44119303D01*
X115258191Y-44105719D01*
X115273223Y-44083223D01*
X115295719Y-44068191D01*
X115309303Y-44054608D01*
X115329191Y-44045826D01*
X115354329Y-44029030D01*
X115377808Y-44024359D01*
X115394959Y-44016787D01*
X115445151Y-44010964D01*
X115450000Y-44010000D01*
X116550000Y-44010000D01*
X116554850Y-44010964D01*
G37*
G36*
X138357428Y-43786048D02*
G01*
X138502317Y-43846063D01*
X138632715Y-43933192D01*
X138743608Y-44044085D01*
X138830737Y-44174483D01*
X138890752Y-44319372D01*
X138921348Y-44473186D01*
X138921348Y-44630014D01*
X138890752Y-44783828D01*
X138830737Y-44928717D01*
X138743608Y-45059115D01*
X138632715Y-45170008D01*
X138502317Y-45257137D01*
X138357428Y-45317152D01*
X138203614Y-45347748D01*
X138046786Y-45347748D01*
X137892972Y-45317152D01*
X137748083Y-45257137D01*
X137617685Y-45170008D01*
X137506792Y-45059115D01*
X137419663Y-44928717D01*
X137359648Y-44783828D01*
X137329052Y-44630014D01*
X137329052Y-44473186D01*
X137359648Y-44319372D01*
X137419663Y-44174483D01*
X137506792Y-44044085D01*
X137617685Y-43933192D01*
X137748083Y-43846063D01*
X137892972Y-43786048D01*
X138046786Y-43755452D01*
X138203614Y-43755452D01*
X138357428Y-43786048D01*
G37*
G36*
X153597428Y-43786048D02*
G01*
X153742317Y-43846063D01*
X153872715Y-43933192D01*
X153983608Y-44044085D01*
X154070737Y-44174483D01*
X154130752Y-44319372D01*
X154161348Y-44473186D01*
X154161348Y-44630014D01*
X154130752Y-44783828D01*
X154070737Y-44928717D01*
X153983608Y-45059115D01*
X153872715Y-45170008D01*
X153742317Y-45257137D01*
X153597428Y-45317152D01*
X153443614Y-45347748D01*
X153286786Y-45347748D01*
X153132972Y-45317152D01*
X152988083Y-45257137D01*
X152857685Y-45170008D01*
X152746792Y-45059115D01*
X152659663Y-44928717D01*
X152599648Y-44783828D01*
X152569052Y-44630014D01*
X152569052Y-44473186D01*
X152599648Y-44319372D01*
X152659663Y-44174483D01*
X152746792Y-44044085D01*
X152857685Y-43933192D01*
X152988083Y-43846063D01*
X153132972Y-43786048D01*
X153286786Y-43755452D01*
X153443614Y-43755452D01*
X153597428Y-43786048D01*
G37*
G36*
X167732228Y-42984448D02*
G01*
X167877117Y-43044463D01*
X168007515Y-43131592D01*
X168118408Y-43242485D01*
X168205537Y-43372883D01*
X168265552Y-43517772D01*
X168296148Y-43671586D01*
X168296148Y-43828414D01*
X168265552Y-43982228D01*
X168205537Y-44127117D01*
X168118408Y-44257515D01*
X168007515Y-44368408D01*
X167877117Y-44455537D01*
X167732228Y-44515552D01*
X167578414Y-44546148D01*
X167421586Y-44546148D01*
X167267772Y-44515552D01*
X167122883Y-44455537D01*
X166992485Y-44368408D01*
X166881592Y-44257515D01*
X166794463Y-44127117D01*
X166734448Y-43982228D01*
X166703852Y-43828414D01*
X166703852Y-43671586D01*
X166734448Y-43517772D01*
X166794463Y-43372883D01*
X166881592Y-43242485D01*
X166992485Y-43131592D01*
X167122883Y-43044463D01*
X167267772Y-42984448D01*
X167421586Y-42953852D01*
X167578414Y-42953852D01*
X167732228Y-42984448D01*
G37*
G36*
X164364850Y-42700964D02*
G01*
X164415040Y-42706787D01*
X164432189Y-42714359D01*
X164455671Y-42719030D01*
X164480810Y-42735827D01*
X164500696Y-42744608D01*
X164514277Y-42758189D01*
X164536777Y-42773223D01*
X164551810Y-42795722D01*
X164565391Y-42809303D01*
X164574170Y-42829186D01*
X164590970Y-42854329D01*
X164595641Y-42877812D01*
X164603212Y-42894959D01*
X164609033Y-42945139D01*
X164610000Y-42950000D01*
X164610000Y-44050000D01*
X164609032Y-44054863D01*
X164603212Y-44105040D01*
X164595641Y-44122185D01*
X164590970Y-44145671D01*
X164574169Y-44170815D01*
X164565391Y-44190696D01*
X164551812Y-44204274D01*
X164536777Y-44226777D01*
X164514274Y-44241812D01*
X164500696Y-44255391D01*
X164480815Y-44264169D01*
X164455671Y-44280970D01*
X164432185Y-44285641D01*
X164415040Y-44293212D01*
X164364861Y-44299032D01*
X164360000Y-44300000D01*
X163260000Y-44300000D01*
X163255138Y-44299032D01*
X163204959Y-44293212D01*
X163187812Y-44285641D01*
X163164329Y-44280970D01*
X163139186Y-44264170D01*
X163119303Y-44255391D01*
X163105722Y-44241810D01*
X163083223Y-44226777D01*
X163068189Y-44204277D01*
X163054608Y-44190696D01*
X163045827Y-44170810D01*
X163029030Y-44145671D01*
X163024359Y-44122189D01*
X163016787Y-44105040D01*
X163010964Y-44054849D01*
X163010000Y-44050000D01*
X163010000Y-42950000D01*
X163010964Y-42945150D01*
X163016787Y-42894959D01*
X163024359Y-42877808D01*
X163029030Y-42854329D01*
X163045826Y-42829191D01*
X163054608Y-42809303D01*
X163068191Y-42795719D01*
X163083223Y-42773223D01*
X163105719Y-42758191D01*
X163119303Y-42744608D01*
X163139191Y-42735826D01*
X163164329Y-42719030D01*
X163187808Y-42714359D01*
X163204959Y-42706787D01*
X163255151Y-42700964D01*
X163260000Y-42700000D01*
X164360000Y-42700000D01*
X164364850Y-42700964D01*
G37*
G36*
X156422228Y-42734448D02*
G01*
X156567117Y-42794463D01*
X156697515Y-42881592D01*
X156808408Y-42992485D01*
X156895537Y-43122883D01*
X156955552Y-43267772D01*
X156986148Y-43421586D01*
X156986148Y-43578414D01*
X156955552Y-43732228D01*
X156895537Y-43877117D01*
X156808408Y-44007515D01*
X156697515Y-44118408D01*
X156567117Y-44205537D01*
X156422228Y-44265552D01*
X156268414Y-44296148D01*
X156111586Y-44296148D01*
X155957772Y-44265552D01*
X155812883Y-44205537D01*
X155682485Y-44118408D01*
X155571592Y-44007515D01*
X155484463Y-43877117D01*
X155424448Y-43732228D01*
X155393852Y-43578414D01*
X155393852Y-43421586D01*
X155424448Y-43267772D01*
X155484463Y-43122883D01*
X155571592Y-42992485D01*
X155682485Y-42881592D01*
X155812883Y-42794463D01*
X155957772Y-42734448D01*
X156111586Y-42703852D01*
X156268414Y-42703852D01*
X156422228Y-42734448D01*
G37*
G36*
X171244850Y-41720964D02*
G01*
X171295040Y-41726787D01*
X171312189Y-41734359D01*
X171335671Y-41739030D01*
X171360810Y-41755827D01*
X171380696Y-41764608D01*
X171394277Y-41778189D01*
X171416777Y-41793223D01*
X171431810Y-41815722D01*
X171445391Y-41829303D01*
X171454170Y-41849186D01*
X171470970Y-41874329D01*
X171475641Y-41897812D01*
X171483212Y-41914959D01*
X171489033Y-41965139D01*
X171490000Y-41970000D01*
X171490000Y-43070000D01*
X171489032Y-43074863D01*
X171483212Y-43125040D01*
X171475641Y-43142185D01*
X171470970Y-43165671D01*
X171454169Y-43190815D01*
X171445391Y-43210696D01*
X171431812Y-43224274D01*
X171416777Y-43246777D01*
X171394274Y-43261812D01*
X171380696Y-43275391D01*
X171360815Y-43284169D01*
X171335671Y-43300970D01*
X171312185Y-43305641D01*
X171295040Y-43313212D01*
X171244861Y-43319032D01*
X171240000Y-43320000D01*
X170140000Y-43320000D01*
X170135138Y-43319032D01*
X170084959Y-43313212D01*
X170067812Y-43305641D01*
X170044329Y-43300970D01*
X170019186Y-43284170D01*
X169999303Y-43275391D01*
X169985722Y-43261810D01*
X169963223Y-43246777D01*
X169948189Y-43224277D01*
X169934608Y-43210696D01*
X169925827Y-43190810D01*
X169909030Y-43165671D01*
X169904359Y-43142189D01*
X169896787Y-43125040D01*
X169890964Y-43074849D01*
X169890000Y-43070000D01*
X169890000Y-41970000D01*
X169890964Y-41965150D01*
X169896787Y-41914959D01*
X169904359Y-41897808D01*
X169909030Y-41874329D01*
X169925826Y-41849191D01*
X169934608Y-41829303D01*
X169948191Y-41815719D01*
X169963223Y-41793223D01*
X169985719Y-41778191D01*
X169999303Y-41764608D01*
X170019191Y-41755826D01*
X170044329Y-41739030D01*
X170067808Y-41734359D01*
X170084959Y-41726787D01*
X170135151Y-41720964D01*
X170140000Y-41720000D01*
X171240000Y-41720000D01*
X171244850Y-41720964D01*
G37*
G36*
X178542228Y-41754448D02*
G01*
X178687117Y-41814463D01*
X178817515Y-41901592D01*
X178928408Y-42012485D01*
X179015537Y-42142883D01*
X179075552Y-42287772D01*
X179106148Y-42441586D01*
X179106148Y-42598414D01*
X179075552Y-42752228D01*
X179015537Y-42897117D01*
X178928408Y-43027515D01*
X178817515Y-43138408D01*
X178687117Y-43225537D01*
X178542228Y-43285552D01*
X178388414Y-43316148D01*
X178231586Y-43316148D01*
X178077772Y-43285552D01*
X177932883Y-43225537D01*
X177802485Y-43138408D01*
X177691592Y-43027515D01*
X177604463Y-42897117D01*
X177544448Y-42752228D01*
X177513852Y-42598414D01*
X177513852Y-42441586D01*
X177544448Y-42287772D01*
X177604463Y-42142883D01*
X177691592Y-42012485D01*
X177802485Y-41901592D01*
X177932883Y-41814463D01*
X178077772Y-41754448D01*
X178231586Y-41723852D01*
X178388414Y-41723852D01*
X178542228Y-41754448D01*
G37*
G36*
X121208199Y-41830142D02*
G01*
X121334978Y-41882655D01*
X121449075Y-41958893D01*
X121546107Y-42055925D01*
X121622345Y-42170022D01*
X121674858Y-42296801D01*
X121701629Y-42431388D01*
X121701629Y-42568612D01*
X121674858Y-42703199D01*
X121622345Y-42829978D01*
X121546107Y-42944075D01*
X121449075Y-43041107D01*
X121334978Y-43117345D01*
X121208199Y-43169858D01*
X121073612Y-43196629D01*
X120936388Y-43196629D01*
X120801801Y-43169858D01*
X120675022Y-43117345D01*
X120560925Y-43041107D01*
X120463893Y-42944075D01*
X120387655Y-42829978D01*
X120335142Y-42703199D01*
X120308371Y-42568612D01*
X120308371Y-42431388D01*
X120335142Y-42296801D01*
X120387655Y-42170022D01*
X120463893Y-42055925D01*
X120560925Y-41958893D01*
X120675022Y-41882655D01*
X120801801Y-41830142D01*
X120936388Y-41803371D01*
X121073612Y-41803371D01*
X121208199Y-41830142D01*
G37*
G36*
X123108199Y-41830142D02*
G01*
X123234978Y-41882655D01*
X123349075Y-41958893D01*
X123446107Y-42055925D01*
X123522345Y-42170022D01*
X123574858Y-42296801D01*
X123601629Y-42431388D01*
X123601629Y-42568612D01*
X123574858Y-42703199D01*
X123522345Y-42829978D01*
X123446107Y-42944075D01*
X123349075Y-43041107D01*
X123234978Y-43117345D01*
X123108199Y-43169858D01*
X122973612Y-43196629D01*
X122836388Y-43196629D01*
X122701801Y-43169858D01*
X122575022Y-43117345D01*
X122460925Y-43041107D01*
X122363893Y-42944075D01*
X122287655Y-42829978D01*
X122235142Y-42703199D01*
X122208371Y-42568612D01*
X122208371Y-42431388D01*
X122235142Y-42296801D01*
X122287655Y-42170022D01*
X122363893Y-42055925D01*
X122460925Y-41958893D01*
X122575022Y-41882655D01*
X122701801Y-41830142D01*
X122836388Y-41803371D01*
X122973612Y-41803371D01*
X123108199Y-41830142D01*
G37*
G36*
X125708199Y-41830142D02*
G01*
X125834978Y-41882655D01*
X125949075Y-41958893D01*
X126046107Y-42055925D01*
X126122345Y-42170022D01*
X126174858Y-42296801D01*
X126201629Y-42431388D01*
X126201629Y-42568612D01*
X126174858Y-42703199D01*
X126122345Y-42829978D01*
X126046107Y-42944075D01*
X125949075Y-43041107D01*
X125834978Y-43117345D01*
X125708199Y-43169858D01*
X125573612Y-43196629D01*
X125436388Y-43196629D01*
X125301801Y-43169858D01*
X125175022Y-43117345D01*
X125060925Y-43041107D01*
X124963893Y-42944075D01*
X124887655Y-42829978D01*
X124835142Y-42703199D01*
X124808371Y-42568612D01*
X124808371Y-42431388D01*
X124835142Y-42296801D01*
X124887655Y-42170022D01*
X124963893Y-42055925D01*
X125060925Y-41958893D01*
X125175022Y-41882655D01*
X125301801Y-41830142D01*
X125436388Y-41803371D01*
X125573612Y-41803371D01*
X125708199Y-41830142D01*
G37*
G36*
X127608199Y-41830142D02*
G01*
X127734978Y-41882655D01*
X127849075Y-41958893D01*
X127946107Y-42055925D01*
X128022345Y-42170022D01*
X128074858Y-42296801D01*
X128101629Y-42431388D01*
X128101629Y-42568612D01*
X128074858Y-42703199D01*
X128022345Y-42829978D01*
X127946107Y-42944075D01*
X127849075Y-43041107D01*
X127734978Y-43117345D01*
X127608199Y-43169858D01*
X127473612Y-43196629D01*
X127336388Y-43196629D01*
X127201801Y-43169858D01*
X127075022Y-43117345D01*
X126960925Y-43041107D01*
X126863893Y-42944075D01*
X126787655Y-42829978D01*
X126735142Y-42703199D01*
X126708371Y-42568612D01*
X126708371Y-42431388D01*
X126735142Y-42296801D01*
X126787655Y-42170022D01*
X126863893Y-42055925D01*
X126960925Y-41958893D01*
X127075022Y-41882655D01*
X127201801Y-41830142D01*
X127336388Y-41803371D01*
X127473612Y-41803371D01*
X127608199Y-41830142D01*
G37*
G36*
X138357428Y-41246048D02*
G01*
X138502317Y-41306063D01*
X138632715Y-41393192D01*
X138743608Y-41504085D01*
X138830737Y-41634483D01*
X138890752Y-41779372D01*
X138921348Y-41933186D01*
X138921348Y-42090014D01*
X138890752Y-42243828D01*
X138830737Y-42388717D01*
X138743608Y-42519115D01*
X138632715Y-42630008D01*
X138502317Y-42717137D01*
X138357428Y-42777152D01*
X138203614Y-42807748D01*
X138046786Y-42807748D01*
X137892972Y-42777152D01*
X137748083Y-42717137D01*
X137617685Y-42630008D01*
X137506792Y-42519115D01*
X137419663Y-42388717D01*
X137359648Y-42243828D01*
X137329052Y-42090014D01*
X137329052Y-41933186D01*
X137359648Y-41779372D01*
X137419663Y-41634483D01*
X137506792Y-41504085D01*
X137617685Y-41393192D01*
X137748083Y-41306063D01*
X137892972Y-41246048D01*
X138046786Y-41215452D01*
X138203614Y-41215452D01*
X138357428Y-41246048D01*
G37*
G36*
X153597428Y-41246048D02*
G01*
X153742317Y-41306063D01*
X153872715Y-41393192D01*
X153983608Y-41504085D01*
X154070737Y-41634483D01*
X154130752Y-41779372D01*
X154161348Y-41933186D01*
X154161348Y-42090014D01*
X154130752Y-42243828D01*
X154070737Y-42388717D01*
X153983608Y-42519115D01*
X153872715Y-42630008D01*
X153742317Y-42717137D01*
X153597428Y-42777152D01*
X153443614Y-42807748D01*
X153286786Y-42807748D01*
X153132972Y-42777152D01*
X152988083Y-42717137D01*
X152857685Y-42630008D01*
X152746792Y-42519115D01*
X152659663Y-42388717D01*
X152599648Y-42243828D01*
X152569052Y-42090014D01*
X152569052Y-41933186D01*
X152599648Y-41779372D01*
X152659663Y-41634483D01*
X152746792Y-41504085D01*
X152857685Y-41393192D01*
X152988083Y-41306063D01*
X153132972Y-41246048D01*
X153286786Y-41215452D01*
X153443614Y-41215452D01*
X153597428Y-41246048D01*
G37*
G36*
X138357428Y-38706048D02*
G01*
X138502317Y-38766063D01*
X138632715Y-38853192D01*
X138743608Y-38964085D01*
X138830737Y-39094483D01*
X138890752Y-39239372D01*
X138921348Y-39393186D01*
X138921348Y-39550014D01*
X138890752Y-39703828D01*
X138830737Y-39848717D01*
X138743608Y-39979115D01*
X138632715Y-40090008D01*
X138502317Y-40177137D01*
X138357428Y-40237152D01*
X138203614Y-40267748D01*
X138046786Y-40267748D01*
X137892972Y-40237152D01*
X137748083Y-40177137D01*
X137617685Y-40090008D01*
X137506792Y-39979115D01*
X137419663Y-39848717D01*
X137359648Y-39703828D01*
X137329052Y-39550014D01*
X137329052Y-39393186D01*
X137359648Y-39239372D01*
X137419663Y-39094483D01*
X137506792Y-38964085D01*
X137617685Y-38853192D01*
X137748083Y-38766063D01*
X137892972Y-38706048D01*
X138046786Y-38675452D01*
X138203614Y-38675452D01*
X138357428Y-38706048D01*
G37*
G36*
X153597428Y-38706048D02*
G01*
X153742317Y-38766063D01*
X153872715Y-38853192D01*
X153983608Y-38964085D01*
X154070737Y-39094483D01*
X154130752Y-39239372D01*
X154161348Y-39393186D01*
X154161348Y-39550014D01*
X154130752Y-39703828D01*
X154070737Y-39848717D01*
X153983608Y-39979115D01*
X153872715Y-40090008D01*
X153742317Y-40177137D01*
X153597428Y-40237152D01*
X153443614Y-40267748D01*
X153286786Y-40267748D01*
X153132972Y-40237152D01*
X152988083Y-40177137D01*
X152857685Y-40090008D01*
X152746792Y-39979115D01*
X152659663Y-39848717D01*
X152599648Y-39703828D01*
X152569052Y-39550014D01*
X152569052Y-39393186D01*
X152599648Y-39239372D01*
X152659663Y-39094483D01*
X152746792Y-38964085D01*
X152857685Y-38853192D01*
X152988083Y-38766063D01*
X153132972Y-38706048D01*
X153286786Y-38675452D01*
X153443614Y-38675452D01*
X153597428Y-38706048D01*
G37*
G36*
X119985000Y-39750000D02*
G01*
X118935000Y-39750000D01*
X118935000Y-38250000D01*
X119985000Y-38250000D01*
X119985000Y-39750000D01*
G37*
G36*
X120930909Y-38289963D02*
G01*
X121049600Y-38358489D01*
X121146511Y-38455400D01*
X121215037Y-38574091D01*
X121250509Y-38706474D01*
X121255000Y-38775000D01*
X121255000Y-39225000D01*
X121250509Y-39293526D01*
X121215037Y-39425909D01*
X121146511Y-39544600D01*
X121049600Y-39641511D01*
X120930909Y-39710037D01*
X120798526Y-39745509D01*
X120661474Y-39745509D01*
X120529091Y-39710037D01*
X120410400Y-39641511D01*
X120313489Y-39544600D01*
X120244963Y-39425909D01*
X120209491Y-39293526D01*
X120205000Y-39225000D01*
X120205000Y-38775000D01*
X120209491Y-38706474D01*
X120244963Y-38574091D01*
X120313489Y-38455400D01*
X120410400Y-38358489D01*
X120529091Y-38289963D01*
X120661474Y-38254491D01*
X120798526Y-38254491D01*
X120930909Y-38289963D01*
G37*
G36*
X122200909Y-38289963D02*
G01*
X122319600Y-38358489D01*
X122416511Y-38455400D01*
X122485037Y-38574091D01*
X122520509Y-38706474D01*
X122525000Y-38775000D01*
X122525000Y-39225000D01*
X122520509Y-39293526D01*
X122485037Y-39425909D01*
X122416511Y-39544600D01*
X122319600Y-39641511D01*
X122200909Y-39710037D01*
X122068526Y-39745509D01*
X121931474Y-39745509D01*
X121799091Y-39710037D01*
X121680400Y-39641511D01*
X121583489Y-39544600D01*
X121514963Y-39425909D01*
X121479491Y-39293526D01*
X121475000Y-39225000D01*
X121475000Y-38775000D01*
X121479491Y-38706474D01*
X121514963Y-38574091D01*
X121583489Y-38455400D01*
X121680400Y-38358489D01*
X121799091Y-38289963D01*
X121931474Y-38254491D01*
X122068526Y-38254491D01*
X122200909Y-38289963D01*
G37*
G36*
X125755000Y-39610000D02*
G01*
X124705000Y-39610000D01*
X124705000Y-38110000D01*
X125755000Y-38110000D01*
X125755000Y-39610000D01*
G37*
G36*
X126700909Y-38149963D02*
G01*
X126819600Y-38218489D01*
X126916511Y-38315400D01*
X126985037Y-38434091D01*
X127020509Y-38566474D01*
X127025000Y-38635000D01*
X127025000Y-39085000D01*
X127020509Y-39153526D01*
X126985037Y-39285909D01*
X126916511Y-39404600D01*
X126819600Y-39501511D01*
X126700909Y-39570037D01*
X126568526Y-39605509D01*
X126431474Y-39605509D01*
X126299091Y-39570037D01*
X126180400Y-39501511D01*
X126083489Y-39404600D01*
X126014963Y-39285909D01*
X125979491Y-39153526D01*
X125975000Y-39085000D01*
X125975000Y-38635000D01*
X125979491Y-38566474D01*
X126014963Y-38434091D01*
X126083489Y-38315400D01*
X126180400Y-38218489D01*
X126299091Y-38149963D01*
X126431474Y-38114491D01*
X126568526Y-38114491D01*
X126700909Y-38149963D01*
G37*
G36*
X127970909Y-38149963D02*
G01*
X128089600Y-38218489D01*
X128186511Y-38315400D01*
X128255037Y-38434091D01*
X128290509Y-38566474D01*
X128295000Y-38635000D01*
X128295000Y-39085000D01*
X128290509Y-39153526D01*
X128255037Y-39285909D01*
X128186511Y-39404600D01*
X128089600Y-39501511D01*
X127970909Y-39570037D01*
X127838526Y-39605509D01*
X127701474Y-39605509D01*
X127569091Y-39570037D01*
X127450400Y-39501511D01*
X127353489Y-39404600D01*
X127284963Y-39285909D01*
X127249491Y-39153526D01*
X127245000Y-39085000D01*
X127245000Y-38635000D01*
X127249491Y-38566474D01*
X127284963Y-38434091D01*
X127353489Y-38315400D01*
X127450400Y-38218489D01*
X127569091Y-38149963D01*
X127701474Y-38114491D01*
X127838526Y-38114491D01*
X127970909Y-38149963D01*
G37*
G36*
X134732228Y-37734448D02*
G01*
X134877117Y-37794463D01*
X135007515Y-37881592D01*
X135118408Y-37992485D01*
X135205537Y-38122883D01*
X135265552Y-38267772D01*
X135296148Y-38421586D01*
X135296148Y-38578414D01*
X135265552Y-38732228D01*
X135205537Y-38877117D01*
X135118408Y-39007515D01*
X135007515Y-39118408D01*
X134877117Y-39205537D01*
X134732228Y-39265552D01*
X134578414Y-39296148D01*
X134421586Y-39296148D01*
X134267772Y-39265552D01*
X134122883Y-39205537D01*
X133992485Y-39118408D01*
X133881592Y-39007515D01*
X133794463Y-38877117D01*
X133734448Y-38732228D01*
X133703852Y-38578414D01*
X133703852Y-38421586D01*
X133734448Y-38267772D01*
X133794463Y-38122883D01*
X133881592Y-37992485D01*
X133992485Y-37881592D01*
X134122883Y-37794463D01*
X134267772Y-37734448D01*
X134421586Y-37703852D01*
X134578414Y-37703852D01*
X134732228Y-37734448D01*
G37*
G36*
X164703199Y-37330142D02*
G01*
X164829978Y-37382655D01*
X164944075Y-37458893D01*
X165041107Y-37555925D01*
X165117345Y-37670022D01*
X165169858Y-37796801D01*
X165196629Y-37931388D01*
X165196629Y-38068612D01*
X165169858Y-38203199D01*
X165117345Y-38329978D01*
X165041107Y-38444075D01*
X164944075Y-38541107D01*
X164829978Y-38617345D01*
X164703199Y-38669858D01*
X164568612Y-38696629D01*
X164431388Y-38696629D01*
X164296801Y-38669858D01*
X164170022Y-38617345D01*
X164055925Y-38541107D01*
X163958893Y-38444075D01*
X163882655Y-38329978D01*
X163830142Y-38203199D01*
X163803371Y-38068612D01*
X163803371Y-37931388D01*
X163830142Y-37796801D01*
X163882655Y-37670022D01*
X163958893Y-37555925D01*
X164055925Y-37458893D01*
X164170022Y-37382655D01*
X164296801Y-37330142D01*
X164431388Y-37303371D01*
X164568612Y-37303371D01*
X164703199Y-37330142D01*
G37*
G36*
X166603199Y-37330142D02*
G01*
X166729978Y-37382655D01*
X166844075Y-37458893D01*
X166941107Y-37555925D01*
X167017345Y-37670022D01*
X167069858Y-37796801D01*
X167096629Y-37931388D01*
X167096629Y-38068612D01*
X167069858Y-38203199D01*
X167017345Y-38329978D01*
X166941107Y-38444075D01*
X166844075Y-38541107D01*
X166729978Y-38617345D01*
X166603199Y-38669858D01*
X166468612Y-38696629D01*
X166331388Y-38696629D01*
X166196801Y-38669858D01*
X166070022Y-38617345D01*
X165955925Y-38541107D01*
X165858893Y-38444075D01*
X165782655Y-38329978D01*
X165730142Y-38203199D01*
X165703371Y-38068612D01*
X165703371Y-37931388D01*
X165730142Y-37796801D01*
X165782655Y-37670022D01*
X165858893Y-37555925D01*
X165955925Y-37458893D01*
X166070022Y-37382655D01*
X166196801Y-37330142D01*
X166331388Y-37303371D01*
X166468612Y-37303371D01*
X166603199Y-37330142D01*
G37*
G36*
X116232228Y-36424448D02*
G01*
X116377117Y-36484463D01*
X116507515Y-36571592D01*
X116618408Y-36682485D01*
X116705537Y-36812883D01*
X116765552Y-36957772D01*
X116796148Y-37111586D01*
X116796148Y-37268414D01*
X116765552Y-37422228D01*
X116705537Y-37567117D01*
X116618408Y-37697515D01*
X116507515Y-37808408D01*
X116377117Y-37895537D01*
X116232228Y-37955552D01*
X116078414Y-37986148D01*
X115921586Y-37986148D01*
X115767772Y-37955552D01*
X115622883Y-37895537D01*
X115492485Y-37808408D01*
X115381592Y-37697515D01*
X115294463Y-37567117D01*
X115234448Y-37422228D01*
X115203852Y-37268414D01*
X115203852Y-37111586D01*
X115234448Y-36957772D01*
X115294463Y-36812883D01*
X115381592Y-36682485D01*
X115492485Y-36571592D01*
X115622883Y-36484463D01*
X115767772Y-36424448D01*
X115921586Y-36393852D01*
X116078414Y-36393852D01*
X116232228Y-36424448D01*
G37*
G36*
X134732228Y-35234448D02*
G01*
X134877117Y-35294463D01*
X135007515Y-35381592D01*
X135118408Y-35492485D01*
X135205537Y-35622883D01*
X135265552Y-35767772D01*
X135296148Y-35921586D01*
X135296148Y-36078414D01*
X135265552Y-36232228D01*
X135205537Y-36377117D01*
X135118408Y-36507515D01*
X135007515Y-36618408D01*
X134877117Y-36705537D01*
X134732228Y-36765552D01*
X134578414Y-36796148D01*
X134421586Y-36796148D01*
X134267772Y-36765552D01*
X134122883Y-36705537D01*
X133992485Y-36618408D01*
X133881592Y-36507515D01*
X133794463Y-36377117D01*
X133734448Y-36232228D01*
X133703852Y-36078414D01*
X133703852Y-35921586D01*
X133734448Y-35767772D01*
X133794463Y-35622883D01*
X133881592Y-35492485D01*
X133992485Y-35381592D01*
X134122883Y-35294463D01*
X134267772Y-35234448D01*
X134421586Y-35203852D01*
X134578414Y-35203852D01*
X134732228Y-35234448D01*
G37*
M02*
