%TF.GenerationSoftware,KiCad,Pcbnew,10.0.3*%
%TF.CreationDate,2026-06-29T01:09:34+05:45*%
%TF.ProjectId,esp32 oscilloscope adn fucntion generator,65737033-3220-46f7-9363-696c6c6f7363,rev?*%
%TF.SameCoordinates,Original*%
%TF.FileFunction,Copper,L4,Bot*%
%TF.FilePolarity,Positive*%
%FSLAX46Y46*%
G04 Gerber Fmt 4.6, Leading zero omitted, Abs format (unit mm)*
G04 Created by KiCad (PCBNEW 10.0.3) date 2026-06-29 01:09:34*
%MOMM*%
%LPD*%
G01*
G04 APERTURE LIST*
%TA.AperFunction,ComponentPad*%
%ADD10R,1.350000X1.350000*%
%TD*%
%TA.AperFunction,ComponentPad*%
%ADD11C,1.350000*%
%TD*%
%TA.AperFunction,ComponentPad*%
%ADD12C,3.240000*%
%TD*%
%TA.AperFunction,ComponentPad*%
%ADD13R,1.800000X1.800000*%
%TD*%
%TA.AperFunction,ComponentPad*%
%ADD14C,1.800000*%
%TD*%
%TA.AperFunction,ComponentPad*%
%ADD15C,2.000000*%
%TD*%
%TA.AperFunction,ComponentPad*%
%ADD16R,3.500000X3.500000*%
%TD*%
%TA.AperFunction,ComponentPad*%
%ADD17C,4.000000*%
%TD*%
%TA.AperFunction,ComponentPad*%
%ADD18R,1.600000X1.600000*%
%TD*%
%TA.AperFunction,ComponentPad*%
%ADD19C,1.600000*%
%TD*%
%TA.AperFunction,ComponentPad*%
%ADD20R,1.508000X1.508000*%
%TD*%
%TA.AperFunction,ComponentPad*%
%ADD21C,1.508000*%
%TD*%
%TA.AperFunction,ViaPad*%
%ADD22C,0.600000*%
%TD*%
%TA.AperFunction,Conductor*%
%ADD23C,0.400000*%
%TD*%
G04 APERTURE END LIST*
D10*
%TO.P,J3,1,Pin_1_1*%
%TO.N,-5V*%
X90932000Y-68926200D03*
D11*
%TO.P,J3,2,Pin_2_2*%
%TO.N,GND*%
X90932000Y-70926200D03*
%TD*%
D12*
%TO.P,RV2,*%
%TO.N,*%
X98537400Y-92168400D03*
X98537400Y-101768400D03*
D13*
%TO.P,RV2,1,1_1*%
%TO.N,GND*%
X91037400Y-94468400D03*
D14*
%TO.P,RV2,2,2_2*%
%TO.N,/P2*%
X91037400Y-96968400D03*
%TO.P,RV2,3,3_3*%
%TO.N,+3.3V*%
X91037400Y-99468400D03*
%TD*%
D12*
%TO.P,RV1,*%
%TO.N,*%
X98472800Y-76759400D03*
X98472800Y-86359400D03*
D13*
%TO.P,RV1,1,1_1*%
%TO.N,GND*%
X90972800Y-79059400D03*
D14*
%TO.P,RV1,2,2_2*%
%TO.N,/P1*%
X90972800Y-81559400D03*
%TO.P,RV1,3,3_3*%
%TO.N,+3.3V*%
X90972800Y-84059400D03*
%TD*%
D15*
%TO.P,SW4,2,2_2*%
%TO.N,GND*%
X127863600Y-125580000D03*
X127863600Y-132080000D03*
%TO.P,SW4,1,1_1*%
%TO.N,/BT_CANCEL*%
X123363600Y-125580000D03*
X123363600Y-132080000D03*
%TD*%
%TO.P,SW2,1,1_1*%
%TO.N,/BT_OK*%
X103185400Y-132205800D03*
X103185400Y-125705800D03*
%TO.P,SW2,2,2_2*%
%TO.N,GND*%
X107685400Y-132205800D03*
X107685400Y-125705800D03*
%TD*%
%TO.P,SW1,2,2_2*%
%TO.N,GND*%
X97409000Y-125757800D03*
X97409000Y-132257800D03*
%TO.P,SW1,1,1_1*%
%TO.N,/BT+*%
X92909000Y-125757800D03*
X92909000Y-132257800D03*
%TD*%
%TO.P,SW3,2,2_2*%
%TO.N,GND*%
X117851000Y-125629600D03*
X117851000Y-132129600D03*
%TO.P,SW3,1,1_1*%
%TO.N,/BT-*%
X113351000Y-125629600D03*
X113351000Y-132129600D03*
%TD*%
D16*
%TO.P,J2,1,In_1*%
%TO.N,GND*%
X162255200Y-126601000D03*
D17*
%TO.P,J2,2,Ext_2*%
%TO.N,Net-(J2-Ext)*%
X157230200Y-121576000D03*
X157230200Y-131626000D03*
X167280200Y-121576000D03*
X167280200Y-131626000D03*
%TD*%
D18*
%TO.P,SW6,1,A_1*%
%TO.N,Net-(SW6-A)*%
X134340600Y-129159800D03*
D19*
%TO.P,SW6,2,B_2*%
%TO.N,Net-(SW5-A)*%
X136840600Y-129159800D03*
%TO.P,SW6,3,C_3*%
%TO.N,/ADC_IN*%
X139340600Y-129159800D03*
%TO.P,SW6,4*%
%TO.N,N/C*%
X134340600Y-132359800D03*
%TO.P,SW6,5*%
X136840600Y-132359800D03*
%TO.P,SW6,6*%
X139340600Y-132359800D03*
%TD*%
D18*
%TO.P,SW5,1,A_1*%
%TO.N,Net-(SW5-A)*%
X143916400Y-129134000D03*
D19*
%TO.P,SW5,2,B_2*%
%TO.N,Net-(J2-Ext)*%
X146416400Y-129134000D03*
%TO.P,SW5,3,C_3*%
%TO.N,Net-(SW5-C)*%
X148916400Y-129134000D03*
%TO.P,SW5,4*%
%TO.N,N/C*%
X143916400Y-132334000D03*
%TO.P,SW5,5*%
X146416400Y-132334000D03*
%TO.P,SW5,6*%
X148916400Y-132334000D03*
%TD*%
D10*
%TO.P,J1,1,Pin_1_1*%
%TO.N,/BACKLIGHT*%
X143598400Y-76936600D03*
D11*
%TO.P,J1,2,Pin_2_2*%
%TO.N,unconnected-(J1-Pin_2-Pad2)*%
X141598400Y-76936600D03*
%TO.P,J1,3,Pin_3_3*%
%TO.N,/DC*%
X139598400Y-76936600D03*
%TO.P,J1,4,Pin_4_4*%
%TO.N,/TFT_RST*%
X137598400Y-76936600D03*
%TO.P,J1,5,Pin_5_5*%
%TO.N,/CS*%
X135598400Y-76936600D03*
%TO.P,J1,6,Pin_6_6*%
%TO.N,/MOSI*%
X133598400Y-76936600D03*
%TO.P,J1,7,Pin_7_7*%
%TO.N,unconnected-(J1-Pin_7-Pad7)*%
X131598400Y-76936600D03*
%TO.P,J1,8,Pin_8_8*%
%TO.N,/SCK*%
X129598400Y-76936600D03*
%TO.P,J1,9,Pin_9_9*%
%TO.N,+3.3V*%
X127598400Y-76936600D03*
%TO.P,J1,10,Pin_10_10*%
%TO.N,GND*%
X125598400Y-76936600D03*
%TD*%
D20*
%TO.P,U1,J1_1,3V3_J1_1*%
%TO.N,+3.3V*%
X149419369Y-36621322D03*
D21*
%TO.P,U1,J1_2,GPIO0_J1_2*%
%TO.N,unconnected-(U1-GPIO0-PadJ1_2)*%
X146879369Y-36621322D03*
%TO.P,U1,J1_3,GPIO1_J1_3*%
%TO.N,unconnected-(U1-GPIO1-PadJ1_3)*%
X144339369Y-36621322D03*
%TO.P,U1,J1_4,GPIO2_J1_4*%
%TO.N,unconnected-(U1-GPIO2-PadJ1_4)*%
X141799369Y-36621322D03*
%TO.P,U1,J1_5,GPIO3_J1_5*%
%TO.N,unconnected-(U1-GPIO3-PadJ1_5)*%
X139259369Y-36621322D03*
%TO.P,U1,J1_6,GPIO4_J1_6*%
%TO.N,unconnected-(U1-GPIO4-PadJ1_6)*%
X136719369Y-36621322D03*
%TO.P,U1,J1_7,GPIO5_J1_7*%
%TO.N,/CS*%
X134179369Y-36621322D03*
%TO.P,U1,J1_8,GPIO6_J1_8*%
%TO.N,unconnected-(U1-GPIO6-PadJ1_8)*%
X131639369Y-36621322D03*
%TO.P,U1,J1_9,GPIO7_J1_9*%
%TO.N,unconnected-(U1-GPIO7-PadJ1_9)*%
X129099369Y-36621322D03*
%TO.P,U1,J1_10,GPIO8_J1_10*%
%TO.N,unconnected-(U1-GPIO8-PadJ1_10)*%
X126559369Y-36621322D03*
%TO.P,U1,J1_11,GPIO9_J1_11*%
%TO.N,unconnected-(U1-GPIO9-PadJ1_11)*%
X124019369Y-36621322D03*
%TO.P,U1,J1_12,GPIO10_J1_12*%
%TO.N,unconnected-(U1-GPIO10-PadJ1_12)*%
X121479369Y-36621322D03*
%TO.P,U1,J1_13,GPIO11_J1_13*%
%TO.N,unconnected-(U1-GPIO11-PadJ1_13)*%
X118939369Y-36621322D03*
%TO.P,U1,J1_14,GPIO12_J1_14*%
%TO.N,unconnected-(U1-GPIO12-PadJ1_14)*%
X116399369Y-36621322D03*
%TO.P,U1,J1_15,GPIO13_J1_15*%
%TO.N,unconnected-(U1-GPIO13-PadJ1_15)*%
X113859369Y-36621322D03*
%TO.P,U1,J1_16,GPIO14_J1_16*%
%TO.N,/TFT_RST*%
X111319369Y-36621322D03*
%TO.P,U1,J1_17,GPIO15_J1_17*%
%TO.N,/BT-*%
X108779369Y-36621322D03*
%TO.P,U1,J1_18,GPIO16_J1_18*%
%TO.N,/BACKLIGHT*%
X106239369Y-36621322D03*
%TO.P,U1,J1_19,GPIO17_J1_19*%
%TO.N,/DC*%
X103699369Y-36621322D03*
%TO.P,U1,J3_19,GPIO20_J3_19*%
%TO.N,/MOSI*%
X103699369Y-59481322D03*
%TO.P,U1,J3_18,GPIO21_J3_18*%
%TO.N,/DSO*%
X106239369Y-59481322D03*
%TO.P,U1,J3_17,GPIO26_J3_17*%
%TO.N,/P2*%
X108779369Y-59481322D03*
%TO.P,U1,J3_16,GPIO33_J3_16*%
%TO.N,/P1*%
X111319369Y-59481322D03*
%TO.P,U1,J3_15,GPIO34_J3_15*%
%TO.N,/BT_CANCEL*%
X113859369Y-59481322D03*
%TO.P,U1,J3_14,GPIO35_J3_14*%
%TO.N,/BT+*%
X116399369Y-59481322D03*
%TO.P,U1,J3_13,GPIO36_J3_13*%
%TO.N,/BT_OK*%
X118939369Y-59481322D03*
%TO.P,U1,J3_12,GPIO37_J3_12*%
%TO.N,/ADC_IN*%
X121479369Y-59481322D03*
%TO.P,U1,J3_11,GPIO38_J3_11*%
%TO.N,unconnected-(U1-GPIO38-PadJ3_11)*%
X124019369Y-59481322D03*
%TO.P,U1,J3_10,GPIO39_J3_10*%
%TO.N,unconnected-(U1-GPIO39-PadJ3_10)*%
X126559369Y-59481322D03*
%TO.P,U1,J3_9,GPIO40_J3_9*%
%TO.N,unconnected-(U1-GPIO40-PadJ3_9)*%
X129099369Y-59481322D03*
%TO.P,U1,J3_8,GPIO41_J3_8*%
%TO.N,unconnected-(U1-GPIO41-PadJ3_8)*%
X131639369Y-59481322D03*
%TO.P,U1,J3_7,GPIO42_J3_7*%
%TO.N,unconnected-(U1-GPIO42-PadJ3_7)*%
X134179369Y-59481322D03*
%TO.P,U1,J3_6,U0TXD_J3_6*%
%TO.N,unconnected-(U1-U0TXD-PadJ3_6)*%
X136719369Y-59481322D03*
%TO.P,U1,J3_5,U0RXD_J3_5*%
%TO.N,unconnected-(U1-U0RXD-PadJ3_5)*%
X139259369Y-59481322D03*
%TO.P,U1,J3_4,GPIO45_J3_4*%
%TO.N,unconnected-(U1-GPIO45-PadJ3_4)*%
X141799369Y-59481322D03*
%TO.P,U1,J3_3,GPIO46_J3_3*%
%TO.N,unconnected-(U1-GPIO46-PadJ3_3)*%
X144339369Y-59481322D03*
%TO.P,U1,J3_2,RST_J3_2*%
%TO.N,unconnected-(U1-RST-PadJ3_2)*%
X146879369Y-59481322D03*
%TO.P,U1,J3_1,GND__1_J3_1*%
%TO.N,GND*%
X149419369Y-59481322D03*
%TO.P,U1,J1_20,5V0_J1_20*%
%TO.N,-5V*%
X101159369Y-36621322D03*
%TO.P,U1,J1_21,GND_J1_21*%
%TO.N,GND*%
X98619369Y-36621322D03*
%TO.P,U1,J3_20,GPIO19_J3_20*%
%TO.N,unconnected-(U1-GPIO19-PadJ3_20)*%
X101159369Y-59481322D03*
%TO.P,U1,J3_21,GPIO18_J3_21*%
%TO.N,/SCK*%
X98619369Y-59481322D03*
%TD*%
D22*
%TO.N,GND*%
X94996000Y-36345600D03*
X99441000Y-65278000D03*
%TO.N,+3.3V*%
X127598400Y-76936600D03*
X107045400Y-122362500D03*
X102835400Y-122362500D03*
X98625400Y-122362500D03*
X94415400Y-122362500D03*
X91037400Y-99468400D03*
%TO.N,/BT-*%
X102553644Y-109640244D03*
X111099600Y-63906400D03*
X102641400Y-112395000D03*
X111455200Y-43078400D03*
X110718600Y-39801800D03*
%TO.N,/DSO*%
X105791000Y-56286400D03*
%TO.N,/BT_OK*%
X97840800Y-117144800D03*
X97669294Y-115296894D03*
X112174400Y-63906400D03*
X120243600Y-62357000D03*
%TO.N,/ADC_IN*%
X121386600Y-63246000D03*
X119151400Y-68199000D03*
%TO.N,/DC*%
X124583647Y-57505600D03*
X139319000Y-57454800D03*
%TO.N,/TFT_RST*%
X136575800Y-39344600D03*
%TO.N,/BT_CANCEL*%
X106629200Y-105816400D03*
X106705400Y-108889800D03*
X112801400Y-63068200D03*
%TO.N,/BT+*%
X113995200Y-63119000D03*
%TO.N,/BACKLIGHT*%
X145872200Y-41960800D03*
%TD*%
%TO.N,GND*%
D23*
X92913200Y-79730600D02*
X92242000Y-79059400D01*
X92242000Y-79059400D02*
X90972800Y-79059400D01*
X92913200Y-92592600D02*
X92913200Y-79730600D01*
X91037400Y-94468400D02*
X92913200Y-92592600D01*
X98399600Y-65278000D02*
X99441000Y-65278000D01*
X95529400Y-62407800D02*
X98399600Y-65278000D01*
X95529400Y-60248800D02*
X95529400Y-62407800D01*
X98619369Y-57158831D02*
X95529400Y-60248800D01*
X98619369Y-36621322D02*
X98619369Y-57158831D01*
X93792800Y-70926200D02*
X99441000Y-65278000D01*
X90932000Y-70926200D02*
X93792800Y-70926200D01*
%TO.N,/BT-*%
X102553644Y-112307244D02*
X102641400Y-112395000D01*
X102553644Y-109640244D02*
X102553644Y-112307244D01*
X111455200Y-43078400D02*
X110134400Y-44399200D01*
X110134400Y-44399200D02*
X110134400Y-62941200D01*
X110134400Y-62941200D02*
X111099600Y-63906400D01*
X108779369Y-37862569D02*
X110718600Y-39801800D01*
X108779369Y-36621322D02*
X108779369Y-37862569D01*
%TO.N,/DSO*%
X105791000Y-59032953D02*
X106239369Y-59481322D01*
X105791000Y-56286400D02*
X105791000Y-59032953D01*
%TO.N,/BT_OK*%
X97669294Y-116973294D02*
X97840800Y-117144800D01*
X97669294Y-115296894D02*
X97669294Y-116973294D01*
X114554000Y-63906400D02*
X112174400Y-63906400D01*
X116103400Y-62357000D02*
X114554000Y-63906400D01*
X120243600Y-62357000D02*
X116103400Y-62357000D01*
%TO.N,/ADC_IN*%
X121386600Y-63246000D02*
X121386600Y-65963800D01*
X121386600Y-65963800D02*
X119151400Y-68199000D01*
%TO.N,/DC*%
X139319000Y-57454800D02*
X124634447Y-57454800D01*
X124634447Y-57454800D02*
X124583647Y-57505600D01*
%TO.N,/TFT_RST*%
X136575800Y-39344600D02*
X114042647Y-39344600D01*
X114042647Y-39344600D02*
X111319369Y-36621322D01*
%TO.N,/DSO*%
X106476800Y-59718753D02*
X106239369Y-59481322D01*
%TO.N,/BT_CANCEL*%
X106629200Y-105816400D02*
X106705400Y-105892600D01*
X106705400Y-105892600D02*
X106705400Y-108889800D01*
X113859369Y-62010231D02*
X112801400Y-63068200D01*
X113859369Y-59481322D02*
X113859369Y-62010231D01*
%TO.N,/BT+*%
X113995200Y-63119000D02*
X116399369Y-60714831D01*
X116399369Y-60714831D02*
X116399369Y-59481322D01*
%TO.N,/BACKLIGHT*%
X110562847Y-40944800D02*
X106239369Y-36621322D01*
X145415000Y-40944800D02*
X110562847Y-40944800D01*
X145872200Y-41402000D02*
X145415000Y-40944800D01*
X145872200Y-41960800D02*
X145872200Y-41402000D01*
%TD*%
%TA.AperFunction,Conductor*%
%TO.N,+3.3V*%
G36*
X172772139Y-35483185D02*
G01*
X172817894Y-35535989D01*
X172829100Y-35587500D01*
X172829100Y-134338500D01*
X172809415Y-134405539D01*
X172756611Y-134451294D01*
X172705100Y-134462500D01*
X89676700Y-134462500D01*
X89609661Y-134442815D01*
X89563906Y-134390011D01*
X89552700Y-134338500D01*
X89552700Y-132139702D01*
X91408500Y-132139702D01*
X91408500Y-132375897D01*
X91445446Y-132609168D01*
X91518433Y-132833796D01*
X91611073Y-133015610D01*
X91625657Y-133044233D01*
X91764483Y-133235310D01*
X91931490Y-133402317D01*
X92122567Y-133541143D01*
X92221991Y-133591802D01*
X92333003Y-133648366D01*
X92333005Y-133648366D01*
X92333008Y-133648368D01*
X92453412Y-133687489D01*
X92557631Y-133721353D01*
X92790903Y-133758300D01*
X92790908Y-133758300D01*
X93027097Y-133758300D01*
X93260368Y-133721353D01*
X93306696Y-133706300D01*
X93484992Y-133648368D01*
X93695433Y-133541143D01*
X93886510Y-133402317D01*
X94053517Y-133235310D01*
X94192343Y-133044233D01*
X94299568Y-132833792D01*
X94372553Y-132609168D01*
X94395838Y-132462152D01*
X94409500Y-132375897D01*
X94409500Y-132139702D01*
X95908500Y-132139702D01*
X95908500Y-132375897D01*
X95945446Y-132609168D01*
X96018433Y-132833796D01*
X96111073Y-133015610D01*
X96125657Y-133044233D01*
X96264483Y-133235310D01*
X96431490Y-133402317D01*
X96622567Y-133541143D01*
X96721991Y-133591802D01*
X96833003Y-133648366D01*
X96833005Y-133648366D01*
X96833008Y-133648368D01*
X96953412Y-133687489D01*
X97057631Y-133721353D01*
X97290903Y-133758300D01*
X97290908Y-133758300D01*
X97527097Y-133758300D01*
X97760368Y-133721353D01*
X97806696Y-133706300D01*
X97984992Y-133648368D01*
X98195433Y-133541143D01*
X98386510Y-133402317D01*
X98553517Y-133235310D01*
X98692343Y-133044233D01*
X98799568Y-132833792D01*
X98872553Y-132609168D01*
X98895838Y-132462152D01*
X98909500Y-132375897D01*
X98909500Y-132139704D01*
X98903565Y-132102235D01*
X98903565Y-132102234D01*
X98901263Y-132087702D01*
X101684900Y-132087702D01*
X101684900Y-132323897D01*
X101721846Y-132557168D01*
X101794833Y-132781796D01*
X101874004Y-132937176D01*
X101902057Y-132992233D01*
X102040883Y-133183310D01*
X102207890Y-133350317D01*
X102398967Y-133489143D01*
X102459853Y-133520166D01*
X102609403Y-133596366D01*
X102609405Y-133596366D01*
X102609408Y-133596368D01*
X102713224Y-133630100D01*
X102834031Y-133669353D01*
X103067303Y-133706300D01*
X103067308Y-133706300D01*
X103303497Y-133706300D01*
X103536768Y-133669353D01*
X103564630Y-133660300D01*
X103761392Y-133596368D01*
X103971833Y-133489143D01*
X104162910Y-133350317D01*
X104329917Y-133183310D01*
X104468743Y-132992233D01*
X104575968Y-132781792D01*
X104648953Y-132557168D01*
X104664002Y-132462151D01*
X104685900Y-132323897D01*
X104685900Y-132087702D01*
X106184900Y-132087702D01*
X106184900Y-132323897D01*
X106221846Y-132557168D01*
X106294833Y-132781796D01*
X106374004Y-132937176D01*
X106402057Y-132992233D01*
X106540883Y-133183310D01*
X106707890Y-133350317D01*
X106898967Y-133489143D01*
X106959853Y-133520166D01*
X107109403Y-133596366D01*
X107109405Y-133596366D01*
X107109408Y-133596368D01*
X107213224Y-133630100D01*
X107334031Y-133669353D01*
X107567303Y-133706300D01*
X107567308Y-133706300D01*
X107803497Y-133706300D01*
X108036768Y-133669353D01*
X108064630Y-133660300D01*
X108261392Y-133596368D01*
X108471833Y-133489143D01*
X108662910Y-133350317D01*
X108829917Y-133183310D01*
X108968743Y-132992233D01*
X109075968Y-132781792D01*
X109148953Y-132557168D01*
X109164002Y-132462151D01*
X109185900Y-132323897D01*
X109185900Y-132087701D01*
X109176133Y-132026033D01*
X109173831Y-132011502D01*
X111850500Y-132011502D01*
X111850500Y-132247697D01*
X111887446Y-132480968D01*
X111960433Y-132705596D01*
X112056727Y-132894581D01*
X112067657Y-132916033D01*
X112206483Y-133107110D01*
X112373490Y-133274117D01*
X112564567Y-133412943D01*
X112663991Y-133463602D01*
X112775003Y-133520166D01*
X112775005Y-133520166D01*
X112775008Y-133520168D01*
X112895412Y-133559289D01*
X112999631Y-133593153D01*
X113232903Y-133630100D01*
X113232908Y-133630100D01*
X113469097Y-133630100D01*
X113702368Y-133593153D01*
X113926992Y-133520168D01*
X114137433Y-133412943D01*
X114328510Y-133274117D01*
X114495517Y-133107110D01*
X114634343Y-132916033D01*
X114741568Y-132705592D01*
X114814553Y-132480968D01*
X114817533Y-132462151D01*
X114851500Y-132247697D01*
X114851500Y-132011502D01*
X116350500Y-132011502D01*
X116350500Y-132247697D01*
X116387446Y-132480968D01*
X116460433Y-132705596D01*
X116556727Y-132894581D01*
X116567657Y-132916033D01*
X116706483Y-133107110D01*
X116873490Y-133274117D01*
X117064567Y-133412943D01*
X117163991Y-133463602D01*
X117275003Y-133520166D01*
X117275005Y-133520166D01*
X117275008Y-133520168D01*
X117395412Y-133559289D01*
X117499631Y-133593153D01*
X117732903Y-133630100D01*
X117732908Y-133630100D01*
X117969097Y-133630100D01*
X118202368Y-133593153D01*
X118426992Y-133520168D01*
X118637433Y-133412943D01*
X118828510Y-133274117D01*
X118995517Y-133107110D01*
X119134343Y-132916033D01*
X119241568Y-132705592D01*
X119314553Y-132480968D01*
X119317533Y-132462151D01*
X119351500Y-132247697D01*
X119351500Y-132011507D01*
X119345945Y-131976433D01*
X119345945Y-131976430D01*
X119343644Y-131961902D01*
X121863100Y-131961902D01*
X121863100Y-132198097D01*
X121900046Y-132431368D01*
X121973033Y-132655996D01*
X122065485Y-132837442D01*
X122080257Y-132866433D01*
X122219083Y-133057510D01*
X122386090Y-133224517D01*
X122577167Y-133363343D01*
X122653652Y-133402314D01*
X122787603Y-133470566D01*
X122787605Y-133470566D01*
X122787608Y-133470568D01*
X122844773Y-133489142D01*
X123012231Y-133543553D01*
X123245503Y-133580500D01*
X123245508Y-133580500D01*
X123481697Y-133580500D01*
X123714968Y-133543553D01*
X123722388Y-133541142D01*
X123939592Y-133470568D01*
X124150033Y-133363343D01*
X124341110Y-133224517D01*
X124508117Y-133057510D01*
X124646943Y-132866433D01*
X124754168Y-132655992D01*
X124827153Y-132431368D01*
X124835939Y-132375897D01*
X124864100Y-132198097D01*
X124864100Y-131961902D01*
X126363100Y-131961902D01*
X126363100Y-132198097D01*
X126400046Y-132431368D01*
X126473033Y-132655996D01*
X126565485Y-132837442D01*
X126580257Y-132866433D01*
X126719083Y-133057510D01*
X126886090Y-133224517D01*
X127077167Y-133363343D01*
X127153652Y-133402314D01*
X127287603Y-133470566D01*
X127287605Y-133470566D01*
X127287608Y-133470568D01*
X127344773Y-133489142D01*
X127512231Y-133543553D01*
X127745503Y-133580500D01*
X127745508Y-133580500D01*
X127981697Y-133580500D01*
X128214968Y-133543553D01*
X128222388Y-133541142D01*
X128439592Y-133470568D01*
X128650033Y-133363343D01*
X128841110Y-133224517D01*
X129008117Y-133057510D01*
X129146943Y-132866433D01*
X129254168Y-132655992D01*
X129327153Y-132431368D01*
X129335939Y-132375897D01*
X129354700Y-132257448D01*
X133040100Y-132257448D01*
X133040100Y-132462151D01*
X133072122Y-132664334D01*
X133135381Y-132859023D01*
X133228315Y-133041413D01*
X133348628Y-133207013D01*
X133493386Y-133351771D01*
X133623475Y-133446284D01*
X133658990Y-133472087D01*
X133753354Y-133520168D01*
X133841376Y-133565018D01*
X133841378Y-133565018D01*
X133841381Y-133565020D01*
X133937854Y-133596366D01*
X134036065Y-133628277D01*
X134137157Y-133644288D01*
X134238248Y-133660300D01*
X134238249Y-133660300D01*
X134442951Y-133660300D01*
X134442952Y-133660300D01*
X134645134Y-133628277D01*
X134839819Y-133565020D01*
X135022210Y-133472087D01*
X135118245Y-133402314D01*
X135187813Y-133351771D01*
X135187815Y-133351768D01*
X135187819Y-133351766D01*
X135332566Y-133207019D01*
X135332568Y-133207015D01*
X135332571Y-133207013D01*
X135405153Y-133107111D01*
X135452887Y-133041410D01*
X135480115Y-132987971D01*
X135528090Y-132937176D01*
X135595911Y-132920381D01*
X135662046Y-132942918D01*
X135701085Y-132987972D01*
X135728315Y-133041413D01*
X135848628Y-133207013D01*
X135993386Y-133351771D01*
X136123475Y-133446284D01*
X136158990Y-133472087D01*
X136253354Y-133520168D01*
X136341376Y-133565018D01*
X136341378Y-133565018D01*
X136341381Y-133565020D01*
X136437854Y-133596366D01*
X136536065Y-133628277D01*
X136637157Y-133644288D01*
X136738248Y-133660300D01*
X136738249Y-133660300D01*
X136942951Y-133660300D01*
X136942952Y-133660300D01*
X137145134Y-133628277D01*
X137339819Y-133565020D01*
X137522210Y-133472087D01*
X137618245Y-133402314D01*
X137687813Y-133351771D01*
X137687815Y-133351768D01*
X137687819Y-133351766D01*
X137832566Y-133207019D01*
X137832568Y-133207015D01*
X137832571Y-133207013D01*
X137905153Y-133107111D01*
X137952887Y-133041410D01*
X137980115Y-132987971D01*
X138028090Y-132937176D01*
X138095911Y-132920381D01*
X138162046Y-132942918D01*
X138201085Y-132987972D01*
X138228315Y-133041413D01*
X138348628Y-133207013D01*
X138493386Y-133351771D01*
X138623475Y-133446284D01*
X138658990Y-133472087D01*
X138753354Y-133520168D01*
X138841376Y-133565018D01*
X138841378Y-133565018D01*
X138841381Y-133565020D01*
X138937854Y-133596366D01*
X139036065Y-133628277D01*
X139137157Y-133644288D01*
X139238248Y-133660300D01*
X139238249Y-133660300D01*
X139442951Y-133660300D01*
X139442952Y-133660300D01*
X139645134Y-133628277D01*
X139839819Y-133565020D01*
X140022210Y-133472087D01*
X140118245Y-133402314D01*
X140187813Y-133351771D01*
X140187815Y-133351768D01*
X140187819Y-133351766D01*
X140332566Y-133207019D01*
X140332568Y-133207015D01*
X140332571Y-133207013D01*
X140405153Y-133107111D01*
X140452887Y-133041410D01*
X140545820Y-132859019D01*
X140609077Y-132664334D01*
X140641100Y-132462152D01*
X140641100Y-132257448D01*
X140637014Y-132231648D01*
X142615900Y-132231648D01*
X142615900Y-132436351D01*
X142647922Y-132638534D01*
X142711181Y-132833223D01*
X142804115Y-133015613D01*
X142924428Y-133181213D01*
X143069186Y-133325971D01*
X143224149Y-133438556D01*
X143234790Y-133446287D01*
X143318898Y-133489142D01*
X143417176Y-133539218D01*
X143417178Y-133539218D01*
X143417181Y-133539220D01*
X143521537Y-133573127D01*
X143611865Y-133602477D01*
X143712957Y-133618488D01*
X143814048Y-133634500D01*
X143814049Y-133634500D01*
X144018751Y-133634500D01*
X144018752Y-133634500D01*
X144220934Y-133602477D01*
X144415619Y-133539220D01*
X144598010Y-133446287D01*
X144712175Y-133363342D01*
X144763613Y-133325971D01*
X144763615Y-133325968D01*
X144763619Y-133325966D01*
X144908366Y-133181219D01*
X144908368Y-133181215D01*
X144908371Y-133181213D01*
X144985359Y-133075246D01*
X145028687Y-133015610D01*
X145055915Y-132962171D01*
X145103890Y-132911376D01*
X145171711Y-132894581D01*
X145237846Y-132917118D01*
X145276885Y-132962172D01*
X145304115Y-133015613D01*
X145424428Y-133181213D01*
X145569186Y-133325971D01*
X145724149Y-133438556D01*
X145734790Y-133446287D01*
X145818898Y-133489142D01*
X145917176Y-133539218D01*
X145917178Y-133539218D01*
X145917181Y-133539220D01*
X146021537Y-133573127D01*
X146111865Y-133602477D01*
X146212957Y-133618488D01*
X146314048Y-133634500D01*
X146314049Y-133634500D01*
X146518751Y-133634500D01*
X146518752Y-133634500D01*
X146720934Y-133602477D01*
X146915619Y-133539220D01*
X147098010Y-133446287D01*
X147212175Y-133363342D01*
X147263613Y-133325971D01*
X147263615Y-133325968D01*
X147263619Y-133325966D01*
X147408366Y-133181219D01*
X147408368Y-133181215D01*
X147408371Y-133181213D01*
X147485359Y-133075246D01*
X147528687Y-133015610D01*
X147555915Y-132962171D01*
X147603890Y-132911376D01*
X147671711Y-132894581D01*
X147737846Y-132917118D01*
X147776885Y-132962172D01*
X147804115Y-133015613D01*
X147924428Y-133181213D01*
X148069186Y-133325971D01*
X148224149Y-133438556D01*
X148234790Y-133446287D01*
X148318898Y-133489142D01*
X148417176Y-133539218D01*
X148417178Y-133539218D01*
X148417181Y-133539220D01*
X148521537Y-133573127D01*
X148611865Y-133602477D01*
X148712957Y-133618488D01*
X148814048Y-133634500D01*
X148814049Y-133634500D01*
X149018751Y-133634500D01*
X149018752Y-133634500D01*
X149220934Y-133602477D01*
X149415619Y-133539220D01*
X149598010Y-133446287D01*
X149712175Y-133363342D01*
X149763613Y-133325971D01*
X149763615Y-133325968D01*
X149763619Y-133325966D01*
X149908366Y-133181219D01*
X149908368Y-133181215D01*
X149908371Y-133181213D01*
X149985359Y-133075246D01*
X150028687Y-133015610D01*
X150121620Y-132833219D01*
X150184877Y-132638534D01*
X150216900Y-132436352D01*
X150216900Y-132231648D01*
X150194101Y-132087701D01*
X150184877Y-132029465D01*
X150128005Y-131854432D01*
X150121620Y-131834781D01*
X150121618Y-131834778D01*
X150121618Y-131834776D01*
X150028687Y-131652390D01*
X149957916Y-131554981D01*
X149957915Y-131554978D01*
X149908371Y-131486787D01*
X149908367Y-131486782D01*
X149907153Y-131485568D01*
X154729700Y-131485568D01*
X154729700Y-131766431D01*
X154761142Y-132045494D01*
X154761145Y-132045512D01*
X154823639Y-132319317D01*
X154823643Y-132319329D01*
X154916400Y-132584411D01*
X155038253Y-132837442D01*
X155038255Y-132837445D01*
X155187677Y-133075248D01*
X155273855Y-133183312D01*
X155346267Y-133274114D01*
X155362784Y-133294825D01*
X155561375Y-133493416D01*
X155780952Y-133668523D01*
X156018755Y-133817945D01*
X156271792Y-133939801D01*
X156470880Y-134009465D01*
X156536870Y-134032556D01*
X156536882Y-134032560D01*
X156810691Y-134095055D01*
X156810697Y-134095055D01*
X156810705Y-134095057D01*
X156996747Y-134116018D01*
X157089769Y-134126499D01*
X157089772Y-134126500D01*
X157089775Y-134126500D01*
X157370628Y-134126500D01*
X157370629Y-134126499D01*
X157513255Y-134110429D01*
X157649694Y-134095057D01*
X157649699Y-134095056D01*
X157649709Y-134095055D01*
X157923518Y-134032560D01*
X158188608Y-133939801D01*
X158441645Y-133817945D01*
X158679448Y-133668523D01*
X158899025Y-133493416D01*
X159097616Y-133294825D01*
X159272723Y-133075248D01*
X159422145Y-132837445D01*
X159544001Y-132584408D01*
X159636760Y-132319318D01*
X159699255Y-132045509D01*
X159701450Y-132026033D01*
X159728897Y-131782423D01*
X159730700Y-131766425D01*
X159730700Y-131485575D01*
X159730699Y-131485568D01*
X164779700Y-131485568D01*
X164779700Y-131766431D01*
X164811142Y-132045494D01*
X164811145Y-132045512D01*
X164873639Y-132319317D01*
X164873643Y-132319329D01*
X164966400Y-132584411D01*
X165088253Y-132837442D01*
X165088255Y-132837445D01*
X165237677Y-133075248D01*
X165323855Y-133183312D01*
X165396267Y-133274114D01*
X165412784Y-133294825D01*
X165611375Y-133493416D01*
X165830952Y-133668523D01*
X166068755Y-133817945D01*
X166321792Y-133939801D01*
X166520880Y-134009465D01*
X166586870Y-134032556D01*
X166586882Y-134032560D01*
X166860691Y-134095055D01*
X166860697Y-134095055D01*
X166860705Y-134095057D01*
X167046747Y-134116018D01*
X167139769Y-134126499D01*
X167139772Y-134126500D01*
X167139775Y-134126500D01*
X167420628Y-134126500D01*
X167420629Y-134126499D01*
X167563255Y-134110429D01*
X167699694Y-134095057D01*
X167699699Y-134095056D01*
X167699709Y-134095055D01*
X167973518Y-134032560D01*
X168238608Y-133939801D01*
X168491645Y-133817945D01*
X168729448Y-133668523D01*
X168949025Y-133493416D01*
X169147616Y-133294825D01*
X169322723Y-133075248D01*
X169472145Y-132837445D01*
X169594001Y-132584408D01*
X169686760Y-132319318D01*
X169749255Y-132045509D01*
X169751450Y-132026033D01*
X169778897Y-131782423D01*
X169780700Y-131766425D01*
X169780700Y-131485575D01*
X169764655Y-131343167D01*
X169749257Y-131206505D01*
X169749254Y-131206487D01*
X169686760Y-130932682D01*
X169686756Y-130932670D01*
X169620124Y-130742247D01*
X169594001Y-130667592D01*
X169472145Y-130414555D01*
X169322723Y-130176752D01*
X169147616Y-129957175D01*
X168949025Y-129758584D01*
X168929380Y-129742918D01*
X168838250Y-129670244D01*
X168729448Y-129583477D01*
X168491645Y-129434055D01*
X168491642Y-129434053D01*
X168238611Y-129312200D01*
X167973529Y-129219443D01*
X167973517Y-129219439D01*
X167699712Y-129156945D01*
X167699694Y-129156942D01*
X167420631Y-129125500D01*
X167420625Y-129125500D01*
X167139775Y-129125500D01*
X167139768Y-129125500D01*
X166860705Y-129156942D01*
X166860687Y-129156945D01*
X166586882Y-129219439D01*
X166586870Y-129219443D01*
X166321788Y-129312200D01*
X166068757Y-129434053D01*
X165830953Y-129583476D01*
X165611375Y-129758583D01*
X165412783Y-129957175D01*
X165237676Y-130176753D01*
X165088253Y-130414557D01*
X164966400Y-130667588D01*
X164873643Y-130932670D01*
X164873639Y-130932682D01*
X164811145Y-131206487D01*
X164811142Y-131206505D01*
X164779700Y-131485568D01*
X159730699Y-131485568D01*
X159714655Y-131343167D01*
X159699257Y-131206505D01*
X159699254Y-131206487D01*
X159636760Y-130932682D01*
X159636756Y-130932670D01*
X159570124Y-130742247D01*
X159544001Y-130667592D01*
X159422145Y-130414555D01*
X159272723Y-130176752D01*
X159097616Y-129957175D01*
X158899025Y-129758584D01*
X158879380Y-129742918D01*
X158788250Y-129670244D01*
X158679448Y-129583477D01*
X158441645Y-129434055D01*
X158441642Y-129434053D01*
X158188611Y-129312200D01*
X157923529Y-129219443D01*
X157923517Y-129219439D01*
X157649712Y-129156945D01*
X157649694Y-129156942D01*
X157370631Y-129125500D01*
X157370625Y-129125500D01*
X157089775Y-129125500D01*
X157089768Y-129125500D01*
X156810705Y-129156942D01*
X156810687Y-129156945D01*
X156536882Y-129219439D01*
X156536870Y-129219443D01*
X156271788Y-129312200D01*
X156018757Y-129434053D01*
X155780953Y-129583476D01*
X155561375Y-129758583D01*
X155362783Y-129957175D01*
X155187676Y-130176753D01*
X155038253Y-130414557D01*
X154916400Y-130667588D01*
X154823643Y-130932670D01*
X154823639Y-130932682D01*
X154761145Y-131206487D01*
X154761142Y-131206505D01*
X154729700Y-131485568D01*
X149907153Y-131485568D01*
X149763613Y-131342028D01*
X149598013Y-131221715D01*
X149598012Y-131221714D01*
X149598010Y-131221713D01*
X149541053Y-131192691D01*
X149415623Y-131128781D01*
X149220934Y-131065522D01*
X149046395Y-131037878D01*
X149018752Y-131033500D01*
X148814048Y-131033500D01*
X148789729Y-131037351D01*
X148611865Y-131065522D01*
X148417176Y-131128781D01*
X148234786Y-131221715D01*
X148069186Y-131342028D01*
X147924428Y-131486786D01*
X147804113Y-131652388D01*
X147776884Y-131705828D01*
X147728910Y-131756623D01*
X147661088Y-131773418D01*
X147594954Y-131750880D01*
X147555916Y-131705828D01*
X147528686Y-131652388D01*
X147408371Y-131486786D01*
X147263613Y-131342028D01*
X147098013Y-131221715D01*
X147098012Y-131221714D01*
X147098010Y-131221713D01*
X147041053Y-131192691D01*
X146915623Y-131128781D01*
X146720934Y-131065522D01*
X146546395Y-131037878D01*
X146518752Y-131033500D01*
X146314048Y-131033500D01*
X146289729Y-131037351D01*
X146111865Y-131065522D01*
X145917176Y-131128781D01*
X145734786Y-131221715D01*
X145569186Y-131342028D01*
X145424428Y-131486786D01*
X145304113Y-131652388D01*
X145276884Y-131705828D01*
X145228910Y-131756623D01*
X145161088Y-131773418D01*
X145094954Y-131750880D01*
X145055916Y-131705828D01*
X145028686Y-131652388D01*
X144908371Y-131486786D01*
X144763613Y-131342028D01*
X144598013Y-131221715D01*
X144598012Y-131221714D01*
X144598010Y-131221713D01*
X144541053Y-131192691D01*
X144415623Y-131128781D01*
X144220934Y-131065522D01*
X144046395Y-131037878D01*
X144018752Y-131033500D01*
X143814048Y-131033500D01*
X143789729Y-131037351D01*
X143611865Y-131065522D01*
X143417176Y-131128781D01*
X143234786Y-131221715D01*
X143069186Y-131342028D01*
X142924428Y-131486786D01*
X142804115Y-131652386D01*
X142711181Y-131834776D01*
X142647922Y-132029465D01*
X142615900Y-132231648D01*
X140637014Y-132231648D01*
X140609077Y-132055266D01*
X140545820Y-131860581D01*
X140545818Y-131860578D01*
X140545818Y-131860576D01*
X140503861Y-131778232D01*
X140452887Y-131678190D01*
X140434141Y-131652388D01*
X140332571Y-131512586D01*
X140187813Y-131367828D01*
X140022213Y-131247515D01*
X140022212Y-131247514D01*
X140022210Y-131247513D01*
X139965253Y-131218491D01*
X139839823Y-131154581D01*
X139645134Y-131091322D01*
X139470595Y-131063678D01*
X139442952Y-131059300D01*
X139238248Y-131059300D01*
X139213929Y-131063151D01*
X139036065Y-131091322D01*
X138841376Y-131154581D01*
X138658986Y-131247515D01*
X138493386Y-131367828D01*
X138348628Y-131512586D01*
X138228313Y-131678188D01*
X138201084Y-131731628D01*
X138153110Y-131782423D01*
X138085288Y-131799218D01*
X138019154Y-131776680D01*
X137980116Y-131731628D01*
X137952886Y-131678188D01*
X137832571Y-131512586D01*
X137687813Y-131367828D01*
X137522213Y-131247515D01*
X137522212Y-131247514D01*
X137522210Y-131247513D01*
X137465253Y-131218491D01*
X137339823Y-131154581D01*
X137145134Y-131091322D01*
X136970595Y-131063678D01*
X136942952Y-131059300D01*
X136738248Y-131059300D01*
X136713929Y-131063151D01*
X136536065Y-131091322D01*
X136341376Y-131154581D01*
X136158986Y-131247515D01*
X135993386Y-131367828D01*
X135848628Y-131512586D01*
X135728313Y-131678188D01*
X135701084Y-131731628D01*
X135653110Y-131782423D01*
X135585288Y-131799218D01*
X135519154Y-131776680D01*
X135480116Y-131731628D01*
X135452886Y-131678188D01*
X135332571Y-131512586D01*
X135187813Y-131367828D01*
X135022213Y-131247515D01*
X135022212Y-131247514D01*
X135022210Y-131247513D01*
X134965253Y-131218491D01*
X134839823Y-131154581D01*
X134645134Y-131091322D01*
X134470595Y-131063678D01*
X134442952Y-131059300D01*
X134238248Y-131059300D01*
X134213929Y-131063151D01*
X134036065Y-131091322D01*
X133841376Y-131154581D01*
X133658986Y-131247515D01*
X133493386Y-131367828D01*
X133348628Y-131512586D01*
X133228315Y-131678186D01*
X133135381Y-131860576D01*
X133072122Y-132055265D01*
X133040100Y-132257448D01*
X129354700Y-132257448D01*
X129358544Y-132233178D01*
X129358544Y-132233177D01*
X129364100Y-132198098D01*
X129364100Y-131961902D01*
X129327153Y-131728631D01*
X129256955Y-131512586D01*
X129254168Y-131504008D01*
X129254166Y-131504005D01*
X129254166Y-131504003D01*
X129146942Y-131293566D01*
X129008117Y-131102490D01*
X128841110Y-130935483D01*
X128650033Y-130796657D01*
X128572791Y-130757300D01*
X128439596Y-130689433D01*
X128214968Y-130616446D01*
X127981697Y-130579500D01*
X127981692Y-130579500D01*
X127745508Y-130579500D01*
X127745503Y-130579500D01*
X127512231Y-130616446D01*
X127287603Y-130689433D01*
X127077166Y-130796657D01*
X126980029Y-130867232D01*
X126886090Y-130935483D01*
X126886088Y-130935485D01*
X126886087Y-130935485D01*
X126719085Y-131102487D01*
X126719085Y-131102488D01*
X126719083Y-131102490D01*
X126681237Y-131154580D01*
X126580257Y-131293566D01*
X126473033Y-131504003D01*
X126400046Y-131728631D01*
X126363100Y-131961902D01*
X124864100Y-131961902D01*
X124827153Y-131728631D01*
X124756955Y-131512586D01*
X124754168Y-131504008D01*
X124754166Y-131504005D01*
X124754166Y-131504003D01*
X124646942Y-131293566D01*
X124508117Y-131102490D01*
X124341110Y-130935483D01*
X124150033Y-130796657D01*
X124072791Y-130757300D01*
X123939596Y-130689433D01*
X123714968Y-130616446D01*
X123481697Y-130579500D01*
X123481692Y-130579500D01*
X123245508Y-130579500D01*
X123245503Y-130579500D01*
X123012231Y-130616446D01*
X122787603Y-130689433D01*
X122577166Y-130796657D01*
X122480029Y-130867232D01*
X122386090Y-130935483D01*
X122386088Y-130935485D01*
X122386087Y-130935485D01*
X122219085Y-131102487D01*
X122219085Y-131102488D01*
X122219083Y-131102490D01*
X122181237Y-131154580D01*
X122080257Y-131293566D01*
X121973033Y-131504003D01*
X121900046Y-131728631D01*
X121863100Y-131961902D01*
X119343644Y-131961902D01*
X119314553Y-131778231D01*
X119241566Y-131553603D01*
X119134342Y-131343166D01*
X119098306Y-131293567D01*
X118995517Y-131152090D01*
X118828510Y-130985083D01*
X118637433Y-130846257D01*
X118426996Y-130739033D01*
X118202368Y-130666046D01*
X117969097Y-130629100D01*
X117969092Y-130629100D01*
X117732908Y-130629100D01*
X117732903Y-130629100D01*
X117499631Y-130666046D01*
X117275003Y-130739033D01*
X117064566Y-130846257D01*
X116959687Y-130922457D01*
X116873490Y-130985083D01*
X116873488Y-130985085D01*
X116873487Y-130985085D01*
X116706485Y-131152087D01*
X116706485Y-131152088D01*
X116706483Y-131152090D01*
X116651122Y-131228288D01*
X116567657Y-131343166D01*
X116460433Y-131553603D01*
X116387446Y-131778231D01*
X116350500Y-132011502D01*
X114851500Y-132011502D01*
X114814553Y-131778231D01*
X114741566Y-131553603D01*
X114634342Y-131343166D01*
X114598306Y-131293567D01*
X114495517Y-131152090D01*
X114328510Y-130985083D01*
X114137433Y-130846257D01*
X113926996Y-130739033D01*
X113702368Y-130666046D01*
X113469097Y-130629100D01*
X113469092Y-130629100D01*
X113232908Y-130629100D01*
X113232903Y-130629100D01*
X112999631Y-130666046D01*
X112775003Y-130739033D01*
X112564566Y-130846257D01*
X112459687Y-130922457D01*
X112373490Y-130985083D01*
X112373488Y-130985085D01*
X112373487Y-130985085D01*
X112206485Y-131152087D01*
X112206485Y-131152088D01*
X112206483Y-131152090D01*
X112151122Y-131228288D01*
X112067657Y-131343166D01*
X111960433Y-131553603D01*
X111887446Y-131778231D01*
X111850500Y-132011502D01*
X109173831Y-132011502D01*
X109148953Y-131854431D01*
X109091688Y-131678190D01*
X109075968Y-131629808D01*
X109075966Y-131629805D01*
X109075966Y-131629803D01*
X109003095Y-131486786D01*
X108968743Y-131419367D01*
X108829917Y-131228290D01*
X108662910Y-131061283D01*
X108471833Y-130922457D01*
X108261396Y-130815233D01*
X108036768Y-130742246D01*
X107803497Y-130705300D01*
X107803492Y-130705300D01*
X107567308Y-130705300D01*
X107567303Y-130705300D01*
X107334031Y-130742246D01*
X107109403Y-130815233D01*
X106898966Y-130922457D01*
X106827395Y-130974457D01*
X106707890Y-131061283D01*
X106707888Y-131061285D01*
X106707887Y-131061285D01*
X106540885Y-131228287D01*
X106540885Y-131228288D01*
X106540883Y-131228290D01*
X106503105Y-131280287D01*
X106402057Y-131419366D01*
X106294833Y-131629803D01*
X106221846Y-131854431D01*
X106184900Y-132087702D01*
X104685900Y-132087702D01*
X104648953Y-131854431D01*
X104591688Y-131678190D01*
X104575968Y-131629808D01*
X104575966Y-131629805D01*
X104575966Y-131629803D01*
X104503095Y-131486786D01*
X104468743Y-131419367D01*
X104329917Y-131228290D01*
X104162910Y-131061283D01*
X103971833Y-130922457D01*
X103761396Y-130815233D01*
X103536768Y-130742246D01*
X103303497Y-130705300D01*
X103303492Y-130705300D01*
X103067308Y-130705300D01*
X103067303Y-130705300D01*
X102834031Y-130742246D01*
X102609403Y-130815233D01*
X102398966Y-130922457D01*
X102327395Y-130974457D01*
X102207890Y-131061283D01*
X102207888Y-131061285D01*
X102207887Y-131061285D01*
X102040885Y-131228287D01*
X102040885Y-131228288D01*
X102040883Y-131228290D01*
X102003105Y-131280287D01*
X101902057Y-131419366D01*
X101794833Y-131629803D01*
X101721846Y-131854431D01*
X101684900Y-132087702D01*
X98901263Y-132087702D01*
X98894578Y-132045494D01*
X98872553Y-131906432D01*
X98799568Y-131681808D01*
X98799566Y-131681805D01*
X98799566Y-131681803D01*
X98713345Y-131512586D01*
X98692343Y-131471367D01*
X98553517Y-131280290D01*
X98386510Y-131113283D01*
X98195433Y-130974457D01*
X97984996Y-130867233D01*
X97760368Y-130794246D01*
X97527097Y-130757300D01*
X97527092Y-130757300D01*
X97290908Y-130757300D01*
X97290903Y-130757300D01*
X97057631Y-130794246D01*
X96833003Y-130867233D01*
X96622566Y-130974457D01*
X96513550Y-131053662D01*
X96431490Y-131113283D01*
X96431488Y-131113285D01*
X96431487Y-131113285D01*
X96264485Y-131280287D01*
X96264485Y-131280288D01*
X96264483Y-131280290D01*
X96254837Y-131293567D01*
X96125657Y-131471366D01*
X96018433Y-131681803D01*
X95945446Y-131906431D01*
X95908500Y-132139702D01*
X94409500Y-132139702D01*
X94372553Y-131906431D01*
X94322011Y-131750880D01*
X94299568Y-131681808D01*
X94299566Y-131681805D01*
X94299566Y-131681803D01*
X94213345Y-131512586D01*
X94192343Y-131471367D01*
X94053517Y-131280290D01*
X93886510Y-131113283D01*
X93695433Y-130974457D01*
X93484996Y-130867233D01*
X93260368Y-130794246D01*
X93027097Y-130757300D01*
X93027092Y-130757300D01*
X92790908Y-130757300D01*
X92790903Y-130757300D01*
X92557631Y-130794246D01*
X92333003Y-130867233D01*
X92122566Y-130974457D01*
X92013550Y-131053662D01*
X91931490Y-131113283D01*
X91931488Y-131113285D01*
X91931487Y-131113285D01*
X91764485Y-131280287D01*
X91764485Y-131280288D01*
X91764483Y-131280290D01*
X91754837Y-131293567D01*
X91625657Y-131471366D01*
X91518433Y-131681803D01*
X91445446Y-131906431D01*
X91408500Y-132139702D01*
X89552700Y-132139702D01*
X89552700Y-128311935D01*
X133040100Y-128311935D01*
X133040100Y-130007670D01*
X133040101Y-130007676D01*
X133046508Y-130067283D01*
X133096802Y-130202128D01*
X133096806Y-130202135D01*
X133183052Y-130317344D01*
X133183055Y-130317347D01*
X133298264Y-130403593D01*
X133298271Y-130403597D01*
X133433117Y-130453891D01*
X133433116Y-130453891D01*
X133440044Y-130454635D01*
X133492727Y-130460300D01*
X135188472Y-130460299D01*
X135248083Y-130453891D01*
X135382931Y-130403596D01*
X135498146Y-130317346D01*
X135584396Y-130202131D01*
X135634691Y-130067283D01*
X135635994Y-130061768D01*
X135670563Y-130001050D01*
X135732472Y-129968660D01*
X135802064Y-129974883D01*
X135843987Y-130004775D01*
X135845189Y-130003574D01*
X135993386Y-130151771D01*
X136123475Y-130246284D01*
X136158990Y-130272087D01*
X136247812Y-130317344D01*
X136341376Y-130365018D01*
X136341378Y-130365018D01*
X136341381Y-130365020D01*
X136380705Y-130377797D01*
X136536065Y-130428277D01*
X136637157Y-130444288D01*
X136738248Y-130460300D01*
X136738249Y-130460300D01*
X136942951Y-130460300D01*
X136942952Y-130460300D01*
X137145134Y-130428277D01*
X137339819Y-130365020D01*
X137522210Y-130272087D01*
X137618501Y-130202128D01*
X137687813Y-130151771D01*
X137687815Y-130151768D01*
X137687819Y-130151766D01*
X137832566Y-130007019D01*
X137832568Y-130007015D01*
X137832571Y-130007013D01*
X137885332Y-129934390D01*
X137952887Y-129841410D01*
X137980115Y-129787971D01*
X138028090Y-129737176D01*
X138095911Y-129720381D01*
X138162046Y-129742918D01*
X138201085Y-129787972D01*
X138228315Y-129841413D01*
X138348628Y-130007013D01*
X138493386Y-130151771D01*
X138623475Y-130246284D01*
X138658990Y-130272087D01*
X138747812Y-130317344D01*
X138841376Y-130365018D01*
X138841378Y-130365018D01*
X138841381Y-130365020D01*
X138880705Y-130377797D01*
X139036065Y-130428277D01*
X139137157Y-130444288D01*
X139238248Y-130460300D01*
X139238249Y-130460300D01*
X139442951Y-130460300D01*
X139442952Y-130460300D01*
X139645134Y-130428277D01*
X139839819Y-130365020D01*
X140022210Y-130272087D01*
X140118501Y-130202128D01*
X140187813Y-130151771D01*
X140187815Y-130151768D01*
X140187819Y-130151766D01*
X140332566Y-130007019D01*
X140332568Y-130007015D01*
X140332571Y-130007013D01*
X140385332Y-129934390D01*
X140452887Y-129841410D01*
X140545820Y-129659019D01*
X140609077Y-129464334D01*
X140641100Y-129262152D01*
X140641100Y-129057448D01*
X140609077Y-128855266D01*
X140607853Y-128851500D01*
X140545818Y-128660576D01*
X140452884Y-128478185D01*
X140363888Y-128355691D01*
X140332571Y-128312587D01*
X140332567Y-128312582D01*
X140306120Y-128286135D01*
X142615900Y-128286135D01*
X142615900Y-129981870D01*
X142615901Y-129981876D01*
X142622308Y-130041483D01*
X142672602Y-130176328D01*
X142672606Y-130176335D01*
X142758852Y-130291544D01*
X142758855Y-130291547D01*
X142874064Y-130377793D01*
X142874071Y-130377797D01*
X143008917Y-130428091D01*
X143008916Y-130428091D01*
X143015844Y-130428835D01*
X143068527Y-130434500D01*
X144764272Y-130434499D01*
X144823883Y-130428091D01*
X144958731Y-130377796D01*
X145073946Y-130291546D01*
X145160196Y-130176331D01*
X145210491Y-130041483D01*
X145211794Y-130035968D01*
X145246363Y-129975250D01*
X145308272Y-129942860D01*
X145377864Y-129949083D01*
X145419787Y-129978975D01*
X145420989Y-129977774D01*
X145569186Y-130125971D01*
X145674019Y-130202135D01*
X145734790Y-130246287D01*
X145823612Y-130291544D01*
X145917176Y-130339218D01*
X145917178Y-130339218D01*
X145917181Y-130339220D01*
X146021537Y-130373127D01*
X146111865Y-130402477D01*
X146188122Y-130414555D01*
X146314048Y-130434500D01*
X146314049Y-130434500D01*
X146518751Y-130434500D01*
X146518752Y-130434500D01*
X146720934Y-130402477D01*
X146915619Y-130339220D01*
X147098010Y-130246287D01*
X147193716Y-130176753D01*
X147263613Y-130125971D01*
X147263615Y-130125968D01*
X147263619Y-130125966D01*
X147408366Y-129981219D01*
X147408368Y-129981215D01*
X147408371Y-129981213D01*
X147509942Y-129841410D01*
X147528687Y-129815610D01*
X147555915Y-129762171D01*
X147603890Y-129711376D01*
X147671711Y-129694581D01*
X147737846Y-129717118D01*
X147776885Y-129762172D01*
X147804115Y-129815613D01*
X147924428Y-129981213D01*
X148069186Y-130125971D01*
X148174019Y-130202135D01*
X148234790Y-130246287D01*
X148323612Y-130291544D01*
X148417176Y-130339218D01*
X148417178Y-130339218D01*
X148417181Y-130339220D01*
X148521537Y-130373127D01*
X148611865Y-130402477D01*
X148688122Y-130414555D01*
X148814048Y-130434500D01*
X148814049Y-130434500D01*
X149018751Y-130434500D01*
X149018752Y-130434500D01*
X149220934Y-130402477D01*
X149415619Y-130339220D01*
X149598010Y-130246287D01*
X149693716Y-130176753D01*
X149763613Y-130125971D01*
X149763615Y-130125968D01*
X149763619Y-130125966D01*
X149908366Y-129981219D01*
X149908368Y-129981215D01*
X149908371Y-129981213D01*
X150009942Y-129841410D01*
X150028687Y-129815610D01*
X150121620Y-129633219D01*
X150184877Y-129438534D01*
X150216900Y-129236352D01*
X150216900Y-129031648D01*
X150184877Y-128829465D01*
X150130001Y-128660576D01*
X150121620Y-128634781D01*
X150121618Y-128634778D01*
X150121618Y-128634776D01*
X150055915Y-128505828D01*
X150028687Y-128452390D01*
X150020956Y-128441749D01*
X149908371Y-128286786D01*
X149763613Y-128142028D01*
X149598013Y-128021715D01*
X149598012Y-128021714D01*
X149598010Y-128021713D01*
X149541053Y-127992691D01*
X149415623Y-127928781D01*
X149220934Y-127865522D01*
X149046395Y-127837878D01*
X149018752Y-127833500D01*
X148814048Y-127833500D01*
X148789729Y-127837351D01*
X148611865Y-127865522D01*
X148417176Y-127928781D01*
X148234786Y-128021715D01*
X148069186Y-128142028D01*
X147924428Y-128286786D01*
X147804113Y-128452388D01*
X147776884Y-128505828D01*
X147728910Y-128556623D01*
X147661088Y-128573418D01*
X147594954Y-128550880D01*
X147555916Y-128505828D01*
X147528686Y-128452388D01*
X147408371Y-128286786D01*
X147263613Y-128142028D01*
X147098013Y-128021715D01*
X147098012Y-128021714D01*
X147098010Y-128021713D01*
X147041053Y-127992691D01*
X146915623Y-127928781D01*
X146720934Y-127865522D01*
X146546395Y-127837878D01*
X146518752Y-127833500D01*
X146314048Y-127833500D01*
X146289729Y-127837351D01*
X146111865Y-127865522D01*
X145917176Y-127928781D01*
X145734786Y-128021715D01*
X145569186Y-128142028D01*
X145569182Y-128142032D01*
X145420989Y-128290226D01*
X145419552Y-128288789D01*
X145368146Y-128322280D01*
X145298277Y-128322714D01*
X145239266Y-128285306D01*
X145211794Y-128232034D01*
X145210491Y-128226521D01*
X145210491Y-128226517D01*
X145188603Y-128167832D01*
X145160197Y-128091671D01*
X145160193Y-128091664D01*
X145073947Y-127976455D01*
X145073944Y-127976452D01*
X144958735Y-127890206D01*
X144958728Y-127890202D01*
X144823882Y-127839908D01*
X144823883Y-127839908D01*
X144764283Y-127833501D01*
X144764281Y-127833500D01*
X144764273Y-127833500D01*
X144764264Y-127833500D01*
X143068529Y-127833500D01*
X143068523Y-127833501D01*
X143008916Y-127839908D01*
X142874071Y-127890202D01*
X142874064Y-127890206D01*
X142758855Y-127976452D01*
X142758852Y-127976455D01*
X142672606Y-128091664D01*
X142672602Y-128091671D01*
X142622308Y-128226517D01*
X142615901Y-128286116D01*
X142615900Y-128286135D01*
X140306120Y-128286135D01*
X140187813Y-128167828D01*
X140022213Y-128047515D01*
X140022212Y-128047514D01*
X140022210Y-128047513D01*
X139965253Y-128018491D01*
X139839823Y-127954581D01*
X139645134Y-127891322D01*
X139470595Y-127863678D01*
X139442952Y-127859300D01*
X139238248Y-127859300D01*
X139213929Y-127863151D01*
X139036065Y-127891322D01*
X138841376Y-127954581D01*
X138658986Y-128047515D01*
X138493386Y-128167828D01*
X138348628Y-128312586D01*
X138228313Y-128478188D01*
X138201084Y-128531628D01*
X138153110Y-128582423D01*
X138085288Y-128599218D01*
X138019154Y-128576680D01*
X137980116Y-128531628D01*
X137952886Y-128478188D01*
X137832571Y-128312586D01*
X137687813Y-128167828D01*
X137522213Y-128047515D01*
X137522212Y-128047514D01*
X137522210Y-128047513D01*
X137465253Y-128018491D01*
X137339823Y-127954581D01*
X137145134Y-127891322D01*
X136970595Y-127863678D01*
X136942952Y-127859300D01*
X136738248Y-127859300D01*
X136713929Y-127863151D01*
X136536065Y-127891322D01*
X136341376Y-127954581D01*
X136158986Y-128047515D01*
X135993386Y-128167828D01*
X135993382Y-128167832D01*
X135845189Y-128316026D01*
X135843752Y-128314589D01*
X135792346Y-128348080D01*
X135722477Y-128348514D01*
X135663466Y-128311106D01*
X135635994Y-128257834D01*
X135634691Y-128252321D01*
X135634691Y-128252317D01*
X135593558Y-128142034D01*
X135584397Y-128117471D01*
X135584393Y-128117464D01*
X135498147Y-128002255D01*
X135498144Y-128002252D01*
X135382935Y-127916006D01*
X135382928Y-127916002D01*
X135248082Y-127865708D01*
X135248083Y-127865708D01*
X135188483Y-127859301D01*
X135188481Y-127859300D01*
X135188473Y-127859300D01*
X135188464Y-127859300D01*
X133492729Y-127859300D01*
X133492723Y-127859301D01*
X133433116Y-127865708D01*
X133298271Y-127916002D01*
X133298264Y-127916006D01*
X133183055Y-128002252D01*
X133183052Y-128002255D01*
X133096806Y-128117464D01*
X133096802Y-128117471D01*
X133046508Y-128252317D01*
X133040101Y-128311916D01*
X133040100Y-128311935D01*
X89552700Y-128311935D01*
X89552700Y-125639702D01*
X91408500Y-125639702D01*
X91408500Y-125875897D01*
X91445446Y-126109168D01*
X91518433Y-126333796D01*
X91625657Y-126544233D01*
X91764483Y-126735310D01*
X91931490Y-126902317D01*
X92122567Y-127041143D01*
X92221991Y-127091802D01*
X92333003Y-127148366D01*
X92333005Y-127148366D01*
X92333008Y-127148368D01*
X92453412Y-127187489D01*
X92557631Y-127221353D01*
X92790903Y-127258300D01*
X92790908Y-127258300D01*
X93027097Y-127258300D01*
X93260368Y-127221353D01*
X93306696Y-127206300D01*
X93484992Y-127148368D01*
X93695433Y-127041143D01*
X93886510Y-126902317D01*
X94053517Y-126735310D01*
X94192343Y-126544233D01*
X94299568Y-126333792D01*
X94372553Y-126109168D01*
X94400714Y-125931368D01*
X94409500Y-125875897D01*
X94409500Y-125639702D01*
X95908500Y-125639702D01*
X95908500Y-125875897D01*
X95945446Y-126109168D01*
X96018433Y-126333796D01*
X96125657Y-126544233D01*
X96264483Y-126735310D01*
X96431490Y-126902317D01*
X96622567Y-127041143D01*
X96721991Y-127091802D01*
X96833003Y-127148366D01*
X96833005Y-127148366D01*
X96833008Y-127148368D01*
X96953412Y-127187489D01*
X97057631Y-127221353D01*
X97290903Y-127258300D01*
X97290908Y-127258300D01*
X97527097Y-127258300D01*
X97760368Y-127221353D01*
X97806696Y-127206300D01*
X97984992Y-127148368D01*
X98195433Y-127041143D01*
X98386510Y-126902317D01*
X98553517Y-126735310D01*
X98692343Y-126544233D01*
X98799568Y-126333792D01*
X98872553Y-126109168D01*
X98900714Y-125931368D01*
X98909500Y-125875897D01*
X98909500Y-125639704D01*
X98903565Y-125602235D01*
X98903565Y-125602234D01*
X98901263Y-125587702D01*
X101684900Y-125587702D01*
X101684900Y-125823897D01*
X101721846Y-126057168D01*
X101794833Y-126281796D01*
X101863231Y-126416033D01*
X101902057Y-126492233D01*
X102040883Y-126683310D01*
X102207890Y-126850317D01*
X102398967Y-126989143D01*
X102459853Y-127020166D01*
X102609403Y-127096366D01*
X102609405Y-127096366D01*
X102609408Y-127096368D01*
X102713224Y-127130100D01*
X102834031Y-127169353D01*
X103067303Y-127206300D01*
X103067308Y-127206300D01*
X103303497Y-127206300D01*
X103536768Y-127169353D01*
X103761392Y-127096368D01*
X103971833Y-126989143D01*
X104162910Y-126850317D01*
X104329917Y-126683310D01*
X104468743Y-126492233D01*
X104575968Y-126281792D01*
X104648953Y-126057168D01*
X104668878Y-125931368D01*
X104685900Y-125823897D01*
X104685900Y-125587702D01*
X106184900Y-125587702D01*
X106184900Y-125823897D01*
X106221846Y-126057168D01*
X106294833Y-126281796D01*
X106363231Y-126416033D01*
X106402057Y-126492233D01*
X106540883Y-126683310D01*
X106707890Y-126850317D01*
X106898967Y-126989143D01*
X106959853Y-127020166D01*
X107109403Y-127096366D01*
X107109405Y-127096366D01*
X107109408Y-127096368D01*
X107213224Y-127130100D01*
X107334031Y-127169353D01*
X107567303Y-127206300D01*
X107567308Y-127206300D01*
X107803497Y-127206300D01*
X108036768Y-127169353D01*
X108261392Y-127096368D01*
X108471833Y-126989143D01*
X108662910Y-126850317D01*
X108829917Y-126683310D01*
X108968743Y-126492233D01*
X109075968Y-126281792D01*
X109148953Y-126057168D01*
X109168878Y-125931368D01*
X109185900Y-125823897D01*
X109185900Y-125587701D01*
X109176133Y-125526033D01*
X109173831Y-125511502D01*
X111850500Y-125511502D01*
X111850500Y-125747697D01*
X111887446Y-125980968D01*
X111960433Y-126205596D01*
X112067657Y-126416033D01*
X112206483Y-126607110D01*
X112373490Y-126774117D01*
X112564567Y-126912943D01*
X112663991Y-126963602D01*
X112775003Y-127020166D01*
X112775005Y-127020166D01*
X112775008Y-127020168D01*
X112895412Y-127059289D01*
X112999631Y-127093153D01*
X113232903Y-127130100D01*
X113232908Y-127130100D01*
X113469097Y-127130100D01*
X113702368Y-127093153D01*
X113926992Y-127020168D01*
X114137433Y-126912943D01*
X114328510Y-126774117D01*
X114495517Y-126607110D01*
X114634343Y-126416033D01*
X114741568Y-126205592D01*
X114814553Y-125980968D01*
X114822409Y-125931368D01*
X114851500Y-125747697D01*
X114851500Y-125511502D01*
X116350500Y-125511502D01*
X116350500Y-125747697D01*
X116387446Y-125980968D01*
X116460433Y-126205596D01*
X116567657Y-126416033D01*
X116706483Y-126607110D01*
X116873490Y-126774117D01*
X117064567Y-126912943D01*
X117163991Y-126963602D01*
X117275003Y-127020166D01*
X117275005Y-127020166D01*
X117275008Y-127020168D01*
X117395412Y-127059289D01*
X117499631Y-127093153D01*
X117732903Y-127130100D01*
X117732908Y-127130100D01*
X117969097Y-127130100D01*
X118202368Y-127093153D01*
X118426992Y-127020168D01*
X118637433Y-126912943D01*
X118828510Y-126774117D01*
X118995517Y-126607110D01*
X119134343Y-126416033D01*
X119241568Y-126205592D01*
X119314553Y-125980968D01*
X119322409Y-125931368D01*
X119351500Y-125747697D01*
X119351500Y-125511507D01*
X119345945Y-125476433D01*
X119345945Y-125476430D01*
X119343644Y-125461902D01*
X121863100Y-125461902D01*
X121863100Y-125698097D01*
X121900046Y-125931368D01*
X121973033Y-126155996D01*
X122080257Y-126366433D01*
X122219083Y-126557510D01*
X122386090Y-126724517D01*
X122577167Y-126863343D01*
X122653652Y-126902314D01*
X122787603Y-126970566D01*
X122787605Y-126970566D01*
X122787608Y-126970568D01*
X122844773Y-126989142D01*
X123012231Y-127043553D01*
X123245503Y-127080500D01*
X123245508Y-127080500D01*
X123481697Y-127080500D01*
X123714968Y-127043553D01*
X123786939Y-127020168D01*
X123939592Y-126970568D01*
X124150033Y-126863343D01*
X124341110Y-126724517D01*
X124508117Y-126557510D01*
X124646943Y-126366433D01*
X124754168Y-126155992D01*
X124827153Y-125931368D01*
X124835939Y-125875897D01*
X124864100Y-125698097D01*
X124864100Y-125461902D01*
X126363100Y-125461902D01*
X126363100Y-125698097D01*
X126400046Y-125931368D01*
X126473033Y-126155996D01*
X126580257Y-126366433D01*
X126719083Y-126557510D01*
X126886090Y-126724517D01*
X127077167Y-126863343D01*
X127153652Y-126902314D01*
X127287603Y-126970566D01*
X127287605Y-126970566D01*
X127287608Y-126970568D01*
X127344773Y-126989142D01*
X127512231Y-127043553D01*
X127745503Y-127080500D01*
X127745508Y-127080500D01*
X127981697Y-127080500D01*
X128214968Y-127043553D01*
X128286939Y-127020168D01*
X128439592Y-126970568D01*
X128650033Y-126863343D01*
X128841110Y-126724517D01*
X129008117Y-126557510D01*
X129146943Y-126366433D01*
X129254168Y-126155992D01*
X129327153Y-125931368D01*
X129335939Y-125875897D01*
X129364100Y-125698097D01*
X129364100Y-125461902D01*
X129327153Y-125228631D01*
X129254166Y-125004003D01*
X129178806Y-124856101D01*
X129178805Y-124856097D01*
X129151819Y-124803135D01*
X160004700Y-124803135D01*
X160004700Y-128398870D01*
X160004701Y-128398876D01*
X160011108Y-128458483D01*
X160061402Y-128593328D01*
X160061406Y-128593335D01*
X160147652Y-128708544D01*
X160147655Y-128708547D01*
X160262864Y-128794793D01*
X160262871Y-128794797D01*
X160397717Y-128845091D01*
X160397716Y-128845091D01*
X160404644Y-128845835D01*
X160457327Y-128851500D01*
X164053072Y-128851499D01*
X164112683Y-128845091D01*
X164247531Y-128794796D01*
X164362746Y-128708546D01*
X164448996Y-128593331D01*
X164499291Y-128458483D01*
X164505700Y-128398873D01*
X164505699Y-124803128D01*
X164499291Y-124743517D01*
X164465190Y-124652088D01*
X164448997Y-124608671D01*
X164448993Y-124608664D01*
X164362747Y-124493455D01*
X164362744Y-124493452D01*
X164247535Y-124407206D01*
X164247528Y-124407202D01*
X164112682Y-124356908D01*
X164112683Y-124356908D01*
X164053083Y-124350501D01*
X164053081Y-124350500D01*
X164053073Y-124350500D01*
X164053064Y-124350500D01*
X160457329Y-124350500D01*
X160457323Y-124350501D01*
X160397716Y-124356908D01*
X160262871Y-124407202D01*
X160262864Y-124407206D01*
X160147655Y-124493452D01*
X160147652Y-124493455D01*
X160061406Y-124608664D01*
X160061402Y-124608671D01*
X160011108Y-124743517D01*
X160007155Y-124780290D01*
X160004701Y-124803123D01*
X160004700Y-124803135D01*
X129151819Y-124803135D01*
X129146946Y-124793571D01*
X129110579Y-124743517D01*
X129008117Y-124602490D01*
X128841110Y-124435483D01*
X128650033Y-124296657D01*
X128572791Y-124257300D01*
X128439596Y-124189433D01*
X128214968Y-124116446D01*
X127981697Y-124079500D01*
X127981692Y-124079500D01*
X127745508Y-124079500D01*
X127745503Y-124079500D01*
X127512231Y-124116446D01*
X127287603Y-124189433D01*
X127077166Y-124296657D01*
X127003057Y-124350501D01*
X126886090Y-124435483D01*
X126886088Y-124435485D01*
X126886087Y-124435485D01*
X126719085Y-124602487D01*
X126719085Y-124602488D01*
X126719083Y-124602490D01*
X126659462Y-124684550D01*
X126580257Y-124793566D01*
X126473033Y-125004003D01*
X126400046Y-125228631D01*
X126363100Y-125461902D01*
X124864100Y-125461902D01*
X124827153Y-125228631D01*
X124754166Y-125004003D01*
X124697602Y-124892991D01*
X124646943Y-124793567D01*
X124508117Y-124602490D01*
X124341110Y-124435483D01*
X124150033Y-124296657D01*
X124072791Y-124257300D01*
X123939596Y-124189433D01*
X123714968Y-124116446D01*
X123481697Y-124079500D01*
X123481692Y-124079500D01*
X123245508Y-124079500D01*
X123245503Y-124079500D01*
X123012231Y-124116446D01*
X122787603Y-124189433D01*
X122577166Y-124296657D01*
X122503057Y-124350501D01*
X122386090Y-124435483D01*
X122386088Y-124435485D01*
X122386087Y-124435485D01*
X122219085Y-124602487D01*
X122219085Y-124602488D01*
X122219083Y-124602490D01*
X122159462Y-124684550D01*
X122080257Y-124793566D01*
X121973033Y-125004003D01*
X121900046Y-125228631D01*
X121863100Y-125461902D01*
X119343644Y-125461902D01*
X119314553Y-125278231D01*
X119241566Y-125053603D01*
X119134342Y-124843166D01*
X118995517Y-124652090D01*
X118828510Y-124485083D01*
X118637433Y-124346257D01*
X118426996Y-124239033D01*
X118202368Y-124166046D01*
X117969097Y-124129100D01*
X117969092Y-124129100D01*
X117732908Y-124129100D01*
X117732903Y-124129100D01*
X117499631Y-124166046D01*
X117275003Y-124239033D01*
X117064566Y-124346257D01*
X116980681Y-124407204D01*
X116873490Y-124485083D01*
X116873488Y-124485085D01*
X116873487Y-124485085D01*
X116706485Y-124652087D01*
X116706485Y-124652088D01*
X116706483Y-124652090D01*
X116651122Y-124728288D01*
X116567657Y-124843166D01*
X116460433Y-125053603D01*
X116387446Y-125278231D01*
X116350500Y-125511502D01*
X114851500Y-125511502D01*
X114814553Y-125278231D01*
X114741566Y-125053603D01*
X114634342Y-124843166D01*
X114495517Y-124652090D01*
X114328510Y-124485083D01*
X114137433Y-124346257D01*
X113926996Y-124239033D01*
X113702368Y-124166046D01*
X113469097Y-124129100D01*
X113469092Y-124129100D01*
X113232908Y-124129100D01*
X113232903Y-124129100D01*
X112999631Y-124166046D01*
X112775003Y-124239033D01*
X112564566Y-124346257D01*
X112480681Y-124407204D01*
X112373490Y-124485083D01*
X112373488Y-124485085D01*
X112373487Y-124485085D01*
X112206485Y-124652087D01*
X112206485Y-124652088D01*
X112206483Y-124652090D01*
X112151122Y-124728288D01*
X112067657Y-124843166D01*
X111960433Y-125053603D01*
X111887446Y-125278231D01*
X111850500Y-125511502D01*
X109173831Y-125511502D01*
X109148953Y-125354431D01*
X109075966Y-125129803D01*
X108968742Y-124919366D01*
X108922777Y-124856101D01*
X108829917Y-124728290D01*
X108662910Y-124561283D01*
X108471833Y-124422457D01*
X108261396Y-124315233D01*
X108036768Y-124242246D01*
X107803497Y-124205300D01*
X107803492Y-124205300D01*
X107567308Y-124205300D01*
X107567303Y-124205300D01*
X107334031Y-124242246D01*
X107109403Y-124315233D01*
X106898966Y-124422457D01*
X106827395Y-124474457D01*
X106707890Y-124561283D01*
X106707888Y-124561285D01*
X106707887Y-124561285D01*
X106540885Y-124728287D01*
X106540885Y-124728288D01*
X106540883Y-124728290D01*
X106486511Y-124803127D01*
X106402057Y-124919366D01*
X106294833Y-125129803D01*
X106221846Y-125354431D01*
X106184900Y-125587702D01*
X104685900Y-125587702D01*
X104648953Y-125354431D01*
X104575966Y-125129803D01*
X104468742Y-124919366D01*
X104422777Y-124856101D01*
X104329917Y-124728290D01*
X104162910Y-124561283D01*
X103971833Y-124422457D01*
X103761396Y-124315233D01*
X103536768Y-124242246D01*
X103303497Y-124205300D01*
X103303492Y-124205300D01*
X103067308Y-124205300D01*
X103067303Y-124205300D01*
X102834031Y-124242246D01*
X102609403Y-124315233D01*
X102398966Y-124422457D01*
X102327395Y-124474457D01*
X102207890Y-124561283D01*
X102207888Y-124561285D01*
X102207887Y-124561285D01*
X102040885Y-124728287D01*
X102040885Y-124728288D01*
X102040883Y-124728290D01*
X101986511Y-124803127D01*
X101902057Y-124919366D01*
X101794833Y-125129803D01*
X101721846Y-125354431D01*
X101684900Y-125587702D01*
X98901263Y-125587702D01*
X98883640Y-125476433D01*
X98872553Y-125406432D01*
X98799568Y-125181808D01*
X98799566Y-125181805D01*
X98799566Y-125181803D01*
X98692342Y-124971366D01*
X98553517Y-124780290D01*
X98386510Y-124613283D01*
X98195433Y-124474457D01*
X97984996Y-124367233D01*
X97760368Y-124294246D01*
X97527097Y-124257300D01*
X97527092Y-124257300D01*
X97290908Y-124257300D01*
X97290903Y-124257300D01*
X97057631Y-124294246D01*
X96833003Y-124367233D01*
X96622566Y-124474457D01*
X96513550Y-124553662D01*
X96431490Y-124613283D01*
X96431488Y-124613285D01*
X96431487Y-124613285D01*
X96264485Y-124780287D01*
X96264485Y-124780288D01*
X96264483Y-124780290D01*
X96247885Y-124803135D01*
X96125657Y-124971366D01*
X96018433Y-125181803D01*
X95945446Y-125406431D01*
X95908500Y-125639702D01*
X94409500Y-125639702D01*
X94372553Y-125406431D01*
X94299566Y-125181803D01*
X94192342Y-124971366D01*
X94053517Y-124780290D01*
X93886510Y-124613283D01*
X93695433Y-124474457D01*
X93484996Y-124367233D01*
X93260368Y-124294246D01*
X93027097Y-124257300D01*
X93027092Y-124257300D01*
X92790908Y-124257300D01*
X92790903Y-124257300D01*
X92557631Y-124294246D01*
X92333003Y-124367233D01*
X92122566Y-124474457D01*
X92013550Y-124553662D01*
X91931490Y-124613283D01*
X91931488Y-124613285D01*
X91931487Y-124613285D01*
X91764485Y-124780287D01*
X91764485Y-124780288D01*
X91764483Y-124780290D01*
X91747885Y-124803135D01*
X91625657Y-124971366D01*
X91518433Y-125181803D01*
X91445446Y-125406431D01*
X91408500Y-125639702D01*
X89552700Y-125639702D01*
X89552700Y-121435568D01*
X154729700Y-121435568D01*
X154729700Y-121716431D01*
X154761142Y-121995494D01*
X154761145Y-121995512D01*
X154823639Y-122269317D01*
X154823643Y-122269329D01*
X154916400Y-122534411D01*
X155038253Y-122787442D01*
X155038255Y-122787445D01*
X155187677Y-123025248D01*
X155362784Y-123244825D01*
X155561375Y-123443416D01*
X155780952Y-123618523D01*
X156018755Y-123767945D01*
X156271792Y-123889801D01*
X156470880Y-123959465D01*
X156536870Y-123982556D01*
X156536882Y-123982560D01*
X156810691Y-124045055D01*
X156810697Y-124045055D01*
X156810705Y-124045057D01*
X156996747Y-124066018D01*
X157089769Y-124076499D01*
X157089772Y-124076500D01*
X157089775Y-124076500D01*
X157370628Y-124076500D01*
X157370629Y-124076499D01*
X157513255Y-124060429D01*
X157649694Y-124045057D01*
X157649699Y-124045056D01*
X157649709Y-124045055D01*
X157923518Y-123982560D01*
X158188608Y-123889801D01*
X158441645Y-123767945D01*
X158679448Y-123618523D01*
X158899025Y-123443416D01*
X159097616Y-123244825D01*
X159272723Y-123025248D01*
X159422145Y-122787445D01*
X159544001Y-122534408D01*
X159636760Y-122269318D01*
X159699255Y-121995509D01*
X159730700Y-121716425D01*
X159730700Y-121435575D01*
X159730699Y-121435568D01*
X164779700Y-121435568D01*
X164779700Y-121716431D01*
X164811142Y-121995494D01*
X164811145Y-121995512D01*
X164873639Y-122269317D01*
X164873643Y-122269329D01*
X164966400Y-122534411D01*
X165088253Y-122787442D01*
X165088255Y-122787445D01*
X165237677Y-123025248D01*
X165412784Y-123244825D01*
X165611375Y-123443416D01*
X165830952Y-123618523D01*
X166068755Y-123767945D01*
X166321792Y-123889801D01*
X166520880Y-123959465D01*
X166586870Y-123982556D01*
X166586882Y-123982560D01*
X166860691Y-124045055D01*
X166860697Y-124045055D01*
X166860705Y-124045057D01*
X167046747Y-124066018D01*
X167139769Y-124076499D01*
X167139772Y-124076500D01*
X167139775Y-124076500D01*
X167420628Y-124076500D01*
X167420629Y-124076499D01*
X167563255Y-124060429D01*
X167699694Y-124045057D01*
X167699699Y-124045056D01*
X167699709Y-124045055D01*
X167973518Y-123982560D01*
X168238608Y-123889801D01*
X168491645Y-123767945D01*
X168729448Y-123618523D01*
X168949025Y-123443416D01*
X169147616Y-123244825D01*
X169322723Y-123025248D01*
X169472145Y-122787445D01*
X169594001Y-122534408D01*
X169686760Y-122269318D01*
X169749255Y-121995509D01*
X169780700Y-121716425D01*
X169780700Y-121435575D01*
X169749255Y-121156491D01*
X169686760Y-120882682D01*
X169594001Y-120617592D01*
X169472145Y-120364555D01*
X169322723Y-120126752D01*
X169147616Y-119907175D01*
X168949025Y-119708584D01*
X168729448Y-119533477D01*
X168491645Y-119384055D01*
X168491642Y-119384053D01*
X168238611Y-119262200D01*
X167973529Y-119169443D01*
X167973517Y-119169439D01*
X167699712Y-119106945D01*
X167699694Y-119106942D01*
X167420631Y-119075500D01*
X167420625Y-119075500D01*
X167139775Y-119075500D01*
X167139768Y-119075500D01*
X166860705Y-119106942D01*
X166860687Y-119106945D01*
X166586882Y-119169439D01*
X166586870Y-119169443D01*
X166321788Y-119262200D01*
X166068757Y-119384053D01*
X165830953Y-119533476D01*
X165611375Y-119708583D01*
X165412783Y-119907175D01*
X165237676Y-120126753D01*
X165088253Y-120364557D01*
X164966400Y-120617588D01*
X164873643Y-120882670D01*
X164873639Y-120882682D01*
X164811145Y-121156487D01*
X164811142Y-121156505D01*
X164779700Y-121435568D01*
X159730699Y-121435568D01*
X159699255Y-121156491D01*
X159636760Y-120882682D01*
X159544001Y-120617592D01*
X159422145Y-120364555D01*
X159272723Y-120126752D01*
X159097616Y-119907175D01*
X158899025Y-119708584D01*
X158679448Y-119533477D01*
X158441645Y-119384055D01*
X158441642Y-119384053D01*
X158188611Y-119262200D01*
X157923529Y-119169443D01*
X157923517Y-119169439D01*
X157649712Y-119106945D01*
X157649694Y-119106942D01*
X157370631Y-119075500D01*
X157370625Y-119075500D01*
X157089775Y-119075500D01*
X157089768Y-119075500D01*
X156810705Y-119106942D01*
X156810687Y-119106945D01*
X156536882Y-119169439D01*
X156536870Y-119169443D01*
X156271788Y-119262200D01*
X156018757Y-119384053D01*
X155780953Y-119533476D01*
X155561375Y-119708583D01*
X155362783Y-119907175D01*
X155187676Y-120126753D01*
X155038253Y-120364557D01*
X154916400Y-120617588D01*
X154823643Y-120882670D01*
X154823639Y-120882682D01*
X154761145Y-121156487D01*
X154761142Y-121156505D01*
X154729700Y-121435568D01*
X89552700Y-121435568D01*
X89552700Y-115218047D01*
X96868794Y-115218047D01*
X96868794Y-115375740D01*
X96899555Y-115530383D01*
X96899558Y-115530395D01*
X96959355Y-115674758D01*
X96968794Y-115722210D01*
X96968794Y-116904300D01*
X96968794Y-117042288D01*
X96968794Y-117042290D01*
X96968793Y-117042290D01*
X96995712Y-117177616D01*
X96995714Y-117177622D01*
X97048520Y-117305109D01*
X97051390Y-117310477D01*
X97050135Y-117311147D01*
X97064699Y-117346308D01*
X97071061Y-117378292D01*
X97071063Y-117378299D01*
X97131402Y-117523972D01*
X97131409Y-117523985D01*
X97219010Y-117655088D01*
X97219013Y-117655092D01*
X97330507Y-117766586D01*
X97330511Y-117766589D01*
X97461614Y-117854190D01*
X97461627Y-117854197D01*
X97607298Y-117914535D01*
X97607303Y-117914537D01*
X97761953Y-117945299D01*
X97761956Y-117945300D01*
X97761958Y-117945300D01*
X97919644Y-117945300D01*
X97919645Y-117945299D01*
X98074297Y-117914537D01*
X98219979Y-117854194D01*
X98351089Y-117766589D01*
X98462589Y-117655089D01*
X98550194Y-117523979D01*
X98610537Y-117378297D01*
X98641300Y-117223642D01*
X98641300Y-117065958D01*
X98641300Y-117065955D01*
X98641299Y-117065953D01*
X98610538Y-116911310D01*
X98610537Y-116911303D01*
X98607636Y-116904300D01*
X98550197Y-116765627D01*
X98550190Y-116765614D01*
X98462589Y-116634511D01*
X98462586Y-116634507D01*
X98406113Y-116578034D01*
X98372628Y-116516711D01*
X98369794Y-116490353D01*
X98369794Y-115722210D01*
X98379233Y-115674758D01*
X98439029Y-115530395D01*
X98439031Y-115530391D01*
X98469794Y-115375736D01*
X98469794Y-115218052D01*
X98469794Y-115218049D01*
X98469793Y-115218047D01*
X98439032Y-115063404D01*
X98439031Y-115063397D01*
X98439029Y-115063392D01*
X98378691Y-114917721D01*
X98378684Y-114917708D01*
X98291083Y-114786605D01*
X98291080Y-114786601D01*
X98179586Y-114675107D01*
X98179582Y-114675104D01*
X98048479Y-114587503D01*
X98048466Y-114587496D01*
X97902795Y-114527158D01*
X97902783Y-114527155D01*
X97748139Y-114496394D01*
X97748136Y-114496394D01*
X97590452Y-114496394D01*
X97590449Y-114496394D01*
X97435804Y-114527155D01*
X97435792Y-114527158D01*
X97290121Y-114587496D01*
X97290108Y-114587503D01*
X97159005Y-114675104D01*
X97159001Y-114675107D01*
X97047507Y-114786601D01*
X97047504Y-114786605D01*
X96959903Y-114917708D01*
X96959896Y-114917721D01*
X96899558Y-115063392D01*
X96899555Y-115063404D01*
X96868794Y-115218047D01*
X89552700Y-115218047D01*
X89552700Y-109561397D01*
X101753144Y-109561397D01*
X101753144Y-109719090D01*
X101783905Y-109873733D01*
X101783908Y-109873745D01*
X101843705Y-110018108D01*
X101853144Y-110065560D01*
X101853144Y-112242391D01*
X101850761Y-112266583D01*
X101840900Y-112316156D01*
X101840900Y-112473846D01*
X101871661Y-112628489D01*
X101871664Y-112628501D01*
X101932002Y-112774172D01*
X101932009Y-112774185D01*
X102019610Y-112905288D01*
X102019613Y-112905292D01*
X102131107Y-113016786D01*
X102131111Y-113016789D01*
X102262214Y-113104390D01*
X102262227Y-113104397D01*
X102407898Y-113164735D01*
X102407903Y-113164737D01*
X102562553Y-113195499D01*
X102562556Y-113195500D01*
X102562558Y-113195500D01*
X102720244Y-113195500D01*
X102720245Y-113195499D01*
X102874897Y-113164737D01*
X103020579Y-113104394D01*
X103151689Y-113016789D01*
X103263189Y-112905289D01*
X103350794Y-112774179D01*
X103411137Y-112628497D01*
X103441900Y-112473842D01*
X103441900Y-112316158D01*
X103441900Y-112316156D01*
X103441900Y-112316155D01*
X103441899Y-112316153D01*
X103411138Y-112161510D01*
X103411137Y-112161503D01*
X103411135Y-112161498D01*
X103350797Y-112015827D01*
X103350790Y-112015814D01*
X103275042Y-111902449D01*
X103254164Y-111835771D01*
X103254144Y-111833558D01*
X103254144Y-110065560D01*
X103263583Y-110018108D01*
X103323379Y-109873745D01*
X103323381Y-109873741D01*
X103354144Y-109719086D01*
X103354144Y-109561402D01*
X103354144Y-109561399D01*
X103354143Y-109561397D01*
X103323381Y-109406747D01*
X103323379Y-109406742D01*
X103263041Y-109261071D01*
X103263034Y-109261058D01*
X103175433Y-109129955D01*
X103175430Y-109129951D01*
X103063936Y-109018457D01*
X103063932Y-109018454D01*
X102932829Y-108930853D01*
X102932816Y-108930846D01*
X102787145Y-108870508D01*
X102787133Y-108870505D01*
X102632489Y-108839744D01*
X102632486Y-108839744D01*
X102474802Y-108839744D01*
X102474799Y-108839744D01*
X102320154Y-108870505D01*
X102320142Y-108870508D01*
X102174471Y-108930846D01*
X102174458Y-108930853D01*
X102043355Y-109018454D01*
X102043351Y-109018457D01*
X101931857Y-109129951D01*
X101931854Y-109129955D01*
X101844253Y-109261058D01*
X101844246Y-109261071D01*
X101783908Y-109406742D01*
X101783905Y-109406754D01*
X101753144Y-109561397D01*
X89552700Y-109561397D01*
X89552700Y-105737553D01*
X105828700Y-105737553D01*
X105828700Y-105895246D01*
X105859461Y-106049889D01*
X105859464Y-106049901D01*
X105919802Y-106195572D01*
X105919809Y-106195584D01*
X105984002Y-106291655D01*
X106004880Y-106358332D01*
X106004900Y-106360546D01*
X106004900Y-108464484D01*
X105995461Y-108511936D01*
X105935664Y-108656298D01*
X105935661Y-108656310D01*
X105904900Y-108810953D01*
X105904900Y-108968646D01*
X105935661Y-109123289D01*
X105935664Y-109123301D01*
X105996002Y-109268972D01*
X105996009Y-109268985D01*
X106083610Y-109400088D01*
X106083613Y-109400092D01*
X106195107Y-109511586D01*
X106195111Y-109511589D01*
X106326214Y-109599190D01*
X106326227Y-109599197D01*
X106471898Y-109659535D01*
X106471903Y-109659537D01*
X106626553Y-109690299D01*
X106626556Y-109690300D01*
X106626558Y-109690300D01*
X106784244Y-109690300D01*
X106784245Y-109690299D01*
X106938897Y-109659537D01*
X107084579Y-109599194D01*
X107215689Y-109511589D01*
X107327189Y-109400089D01*
X107414794Y-109268979D01*
X107475137Y-109123297D01*
X107505900Y-108968642D01*
X107505900Y-108810958D01*
X107505900Y-108810955D01*
X107505899Y-108810953D01*
X107475138Y-108656310D01*
X107475137Y-108656303D01*
X107415339Y-108511936D01*
X107405900Y-108464484D01*
X107405900Y-106027103D01*
X107408283Y-106002911D01*
X107429700Y-105895244D01*
X107429700Y-105737555D01*
X107429699Y-105737553D01*
X107398938Y-105582910D01*
X107398937Y-105582903D01*
X107398935Y-105582898D01*
X107338597Y-105437227D01*
X107338590Y-105437214D01*
X107250989Y-105306111D01*
X107250986Y-105306107D01*
X107139492Y-105194613D01*
X107139488Y-105194610D01*
X107008385Y-105107009D01*
X107008372Y-105107002D01*
X106862701Y-105046664D01*
X106862689Y-105046661D01*
X106708045Y-105015900D01*
X106708042Y-105015900D01*
X106550358Y-105015900D01*
X106550355Y-105015900D01*
X106395710Y-105046661D01*
X106395698Y-105046664D01*
X106250027Y-105107002D01*
X106250014Y-105107009D01*
X106118911Y-105194610D01*
X106118907Y-105194613D01*
X106007413Y-105306107D01*
X106007410Y-105306111D01*
X105919809Y-105437214D01*
X105919802Y-105437227D01*
X105859464Y-105582898D01*
X105859461Y-105582910D01*
X105828700Y-105737553D01*
X89552700Y-105737553D01*
X89552700Y-101629421D01*
X96416900Y-101629421D01*
X96416900Y-101907378D01*
X96416901Y-101907395D01*
X96453181Y-102182973D01*
X96525126Y-102451475D01*
X96631499Y-102708282D01*
X96631504Y-102708293D01*
X96715073Y-102853037D01*
X96770486Y-102949015D01*
X96770488Y-102949018D01*
X96770489Y-102949019D01*
X96939701Y-103169541D01*
X96939707Y-103169548D01*
X97136251Y-103366092D01*
X97136257Y-103366097D01*
X97356785Y-103535314D01*
X97511502Y-103624640D01*
X97597506Y-103674295D01*
X97597511Y-103674297D01*
X97597514Y-103674299D01*
X97854325Y-103780674D01*
X98122823Y-103852618D01*
X98398415Y-103888900D01*
X98398422Y-103888900D01*
X98676378Y-103888900D01*
X98676385Y-103888900D01*
X98951977Y-103852618D01*
X99220475Y-103780674D01*
X99477286Y-103674299D01*
X99718015Y-103535314D01*
X99938543Y-103366097D01*
X100135097Y-103169543D01*
X100304314Y-102949015D01*
X100443299Y-102708286D01*
X100549674Y-102451475D01*
X100621618Y-102182977D01*
X100657900Y-101907385D01*
X100657900Y-101629415D01*
X100621618Y-101353823D01*
X100549674Y-101085325D01*
X100443299Y-100828514D01*
X100443297Y-100828511D01*
X100443295Y-100828506D01*
X100349349Y-100665788D01*
X100304314Y-100587785D01*
X100135097Y-100367257D01*
X100135092Y-100367251D01*
X99938548Y-100170707D01*
X99938541Y-100170701D01*
X99718019Y-100001489D01*
X99718018Y-100001488D01*
X99718015Y-100001486D01*
X99601689Y-99934325D01*
X99477293Y-99862504D01*
X99477282Y-99862499D01*
X99220475Y-99756126D01*
X98951973Y-99684181D01*
X98676395Y-99647901D01*
X98676390Y-99647900D01*
X98676385Y-99647900D01*
X98398415Y-99647900D01*
X98398409Y-99647900D01*
X98398404Y-99647901D01*
X98122826Y-99684181D01*
X97854324Y-99756126D01*
X97597517Y-99862499D01*
X97597506Y-99862504D01*
X97356780Y-100001489D01*
X97136258Y-100170701D01*
X97136251Y-100170707D01*
X96939707Y-100367251D01*
X96939701Y-100367258D01*
X96770489Y-100587780D01*
X96631504Y-100828506D01*
X96631499Y-100828517D01*
X96525126Y-101085324D01*
X96453181Y-101353826D01*
X96416901Y-101629404D01*
X96416900Y-101629421D01*
X89552700Y-101629421D01*
X89552700Y-100154774D01*
X89572385Y-100087735D01*
X89625189Y-100041980D01*
X89694347Y-100032036D01*
X89757903Y-100061061D01*
X89787185Y-100098479D01*
X89840011Y-100202156D01*
X89886332Y-100265913D01*
X90554437Y-99597808D01*
X90571475Y-99661393D01*
X90637301Y-99775407D01*
X90730393Y-99868499D01*
X90844407Y-99934325D01*
X90907990Y-99951362D01*
X90239885Y-100619465D01*
X90239885Y-100619466D01*
X90303643Y-100665788D01*
X90499989Y-100765832D01*
X90709564Y-100833926D01*
X90927219Y-100868400D01*
X91147581Y-100868400D01*
X91365235Y-100833926D01*
X91574810Y-100765832D01*
X91771160Y-100665786D01*
X91834913Y-100619466D01*
X91834914Y-100619466D01*
X91166809Y-99951362D01*
X91230393Y-99934325D01*
X91344407Y-99868499D01*
X91437499Y-99775407D01*
X91503325Y-99661393D01*
X91520362Y-99597810D01*
X92188466Y-100265914D01*
X92188466Y-100265913D01*
X92234786Y-100202160D01*
X92334832Y-100005810D01*
X92402926Y-99796235D01*
X92437400Y-99578581D01*
X92437400Y-99358218D01*
X92402926Y-99140564D01*
X92334832Y-98930989D01*
X92234788Y-98734643D01*
X92188466Y-98670885D01*
X92188465Y-98670885D01*
X91520362Y-99338989D01*
X91503325Y-99275407D01*
X91437499Y-99161393D01*
X91344407Y-99068301D01*
X91230393Y-99002475D01*
X91166807Y-98985437D01*
X91834913Y-98317332D01*
X91834796Y-98315850D01*
X91794581Y-98263699D01*
X91788600Y-98194086D01*
X91821205Y-98132290D01*
X91837242Y-98118393D01*
X91949765Y-98036642D01*
X92105642Y-97880765D01*
X92235215Y-97702422D01*
X92335295Y-97506006D01*
X92403415Y-97296351D01*
X92437900Y-97078622D01*
X92437900Y-96858178D01*
X92403415Y-96640449D01*
X92335295Y-96430794D01*
X92335295Y-96430793D01*
X92287615Y-96337218D01*
X92235215Y-96234378D01*
X92218660Y-96211592D01*
X92105647Y-96056041D01*
X92105643Y-96056036D01*
X92084605Y-96034998D01*
X92051120Y-95973675D01*
X92056104Y-95903983D01*
X92097976Y-95848050D01*
X92128954Y-95831135D01*
X92179726Y-95812198D01*
X92179726Y-95812197D01*
X92179731Y-95812196D01*
X92294946Y-95725946D01*
X92381196Y-95610731D01*
X92431491Y-95475883D01*
X92437900Y-95416273D01*
X92437899Y-94109918D01*
X92457584Y-94042880D01*
X92474218Y-94022238D01*
X93457311Y-93039146D01*
X93457312Y-93039145D01*
X93457312Y-93039144D01*
X93457314Y-93039143D01*
X93533975Y-92924411D01*
X93586780Y-92796928D01*
X93613700Y-92661594D01*
X93613700Y-92523606D01*
X93613700Y-92029421D01*
X96416900Y-92029421D01*
X96416900Y-92307378D01*
X96416901Y-92307395D01*
X96453181Y-92582973D01*
X96525126Y-92851475D01*
X96631499Y-93108282D01*
X96631504Y-93108293D01*
X96693717Y-93216048D01*
X96770486Y-93349015D01*
X96770488Y-93349018D01*
X96770489Y-93349019D01*
X96939701Y-93569541D01*
X96939707Y-93569548D01*
X97136251Y-93766092D01*
X97136257Y-93766097D01*
X97356785Y-93935314D01*
X97507342Y-94022238D01*
X97597506Y-94074295D01*
X97597511Y-94074297D01*
X97597514Y-94074299D01*
X97854325Y-94180674D01*
X98122823Y-94252618D01*
X98398415Y-94288900D01*
X98398422Y-94288900D01*
X98676378Y-94288900D01*
X98676385Y-94288900D01*
X98951977Y-94252618D01*
X99220475Y-94180674D01*
X99477286Y-94074299D01*
X99718015Y-93935314D01*
X99938543Y-93766097D01*
X100135097Y-93569543D01*
X100304314Y-93349015D01*
X100443299Y-93108286D01*
X100549674Y-92851475D01*
X100621618Y-92582977D01*
X100657900Y-92307385D01*
X100657900Y-92029415D01*
X100621618Y-91753823D01*
X100549674Y-91485325D01*
X100443299Y-91228514D01*
X100443297Y-91228511D01*
X100443295Y-91228506D01*
X100393640Y-91142502D01*
X100304314Y-90987785D01*
X100135097Y-90767257D01*
X100135092Y-90767251D01*
X99938548Y-90570707D01*
X99938541Y-90570701D01*
X99718019Y-90401489D01*
X99718018Y-90401488D01*
X99718015Y-90401486D01*
X99622037Y-90346073D01*
X99477293Y-90262504D01*
X99477282Y-90262499D01*
X99220475Y-90156126D01*
X98951973Y-90084181D01*
X98676395Y-90047901D01*
X98676390Y-90047900D01*
X98676385Y-90047900D01*
X98398415Y-90047900D01*
X98398409Y-90047900D01*
X98398404Y-90047901D01*
X98122826Y-90084181D01*
X97854324Y-90156126D01*
X97597517Y-90262499D01*
X97597506Y-90262504D01*
X97356780Y-90401489D01*
X97136258Y-90570701D01*
X97136251Y-90570707D01*
X96939707Y-90767251D01*
X96939701Y-90767258D01*
X96770489Y-90987780D01*
X96631504Y-91228506D01*
X96631499Y-91228517D01*
X96525126Y-91485324D01*
X96453181Y-91753826D01*
X96416901Y-92029404D01*
X96416900Y-92029421D01*
X93613700Y-92029421D01*
X93613700Y-86220421D01*
X96352300Y-86220421D01*
X96352300Y-86498378D01*
X96352301Y-86498395D01*
X96388581Y-86773973D01*
X96460526Y-87042475D01*
X96566899Y-87299282D01*
X96566904Y-87299293D01*
X96650473Y-87444037D01*
X96705886Y-87540015D01*
X96705888Y-87540018D01*
X96705889Y-87540019D01*
X96875101Y-87760541D01*
X96875107Y-87760548D01*
X97071651Y-87957092D01*
X97071657Y-87957097D01*
X97292185Y-88126314D01*
X97446902Y-88215640D01*
X97532906Y-88265295D01*
X97532911Y-88265297D01*
X97532914Y-88265299D01*
X97789725Y-88371674D01*
X98058223Y-88443618D01*
X98333815Y-88479900D01*
X98333822Y-88479900D01*
X98611778Y-88479900D01*
X98611785Y-88479900D01*
X98887377Y-88443618D01*
X99155875Y-88371674D01*
X99412686Y-88265299D01*
X99653415Y-88126314D01*
X99873943Y-87957097D01*
X100070497Y-87760543D01*
X100239714Y-87540015D01*
X100378699Y-87299286D01*
X100485074Y-87042475D01*
X100557018Y-86773977D01*
X100593300Y-86498385D01*
X100593300Y-86220415D01*
X100557018Y-85944823D01*
X100485074Y-85676325D01*
X100378699Y-85419514D01*
X100378697Y-85419511D01*
X100378695Y-85419506D01*
X100284749Y-85256788D01*
X100239714Y-85178785D01*
X100070497Y-84958257D01*
X100070492Y-84958251D01*
X99873948Y-84761707D01*
X99873941Y-84761701D01*
X99653419Y-84592489D01*
X99653418Y-84592488D01*
X99653415Y-84592486D01*
X99537089Y-84525325D01*
X99412693Y-84453504D01*
X99412682Y-84453499D01*
X99155875Y-84347126D01*
X98887373Y-84275181D01*
X98611795Y-84238901D01*
X98611790Y-84238900D01*
X98611785Y-84238900D01*
X98333815Y-84238900D01*
X98333809Y-84238900D01*
X98333804Y-84238901D01*
X98058226Y-84275181D01*
X97789724Y-84347126D01*
X97532917Y-84453499D01*
X97532906Y-84453504D01*
X97292180Y-84592489D01*
X97071658Y-84761701D01*
X97071651Y-84761707D01*
X96875107Y-84958251D01*
X96875101Y-84958258D01*
X96705889Y-85178780D01*
X96566904Y-85419506D01*
X96566899Y-85419517D01*
X96460526Y-85676324D01*
X96388581Y-85944826D01*
X96352301Y-86220404D01*
X96352300Y-86220421D01*
X93613700Y-86220421D01*
X93613700Y-79661607D01*
X93613700Y-79661604D01*
X93613699Y-79661602D01*
X93586781Y-79526278D01*
X93586780Y-79526274D01*
X93586780Y-79526272D01*
X93578359Y-79505943D01*
X93533975Y-79398789D01*
X93457314Y-79284057D01*
X93457312Y-79284054D01*
X92688545Y-78515287D01*
X92631177Y-78476955D01*
X92573811Y-78438625D01*
X92449846Y-78387277D01*
X92395443Y-78343436D01*
X92373378Y-78277142D01*
X92373299Y-78272716D01*
X92373299Y-78111529D01*
X92373298Y-78111523D01*
X92372671Y-78105691D01*
X92366891Y-78051917D01*
X92336019Y-77969146D01*
X92316597Y-77917071D01*
X92316593Y-77917064D01*
X92230347Y-77801855D01*
X92230344Y-77801852D01*
X92115135Y-77715606D01*
X92115128Y-77715602D01*
X91980282Y-77665308D01*
X91980283Y-77665308D01*
X91920683Y-77658901D01*
X91920681Y-77658900D01*
X91920673Y-77658900D01*
X91920664Y-77658900D01*
X90024929Y-77658900D01*
X90024923Y-77658901D01*
X89965316Y-77665308D01*
X89830471Y-77715602D01*
X89830468Y-77715604D01*
X89751011Y-77775086D01*
X89685547Y-77799503D01*
X89617274Y-77784651D01*
X89567868Y-77735246D01*
X89552700Y-77675819D01*
X89552700Y-76620421D01*
X96352300Y-76620421D01*
X96352300Y-76898378D01*
X96352301Y-76898395D01*
X96388581Y-77173973D01*
X96460526Y-77442475D01*
X96566899Y-77699282D01*
X96566904Y-77699293D01*
X96626119Y-77801855D01*
X96705886Y-77940015D01*
X96705888Y-77940018D01*
X96705889Y-77940019D01*
X96875101Y-78160541D01*
X96875107Y-78160548D01*
X97071651Y-78357092D01*
X97071658Y-78357098D01*
X97110988Y-78387277D01*
X97292185Y-78526314D01*
X97446902Y-78615640D01*
X97532906Y-78665295D01*
X97532911Y-78665297D01*
X97532914Y-78665299D01*
X97789725Y-78771674D01*
X98058223Y-78843618D01*
X98333815Y-78879900D01*
X98333822Y-78879900D01*
X98611778Y-78879900D01*
X98611785Y-78879900D01*
X98887377Y-78843618D01*
X99155875Y-78771674D01*
X99412686Y-78665299D01*
X99653415Y-78526314D01*
X99873943Y-78357097D01*
X100070497Y-78160543D01*
X100239714Y-77940015D01*
X100375368Y-77705054D01*
X100378695Y-77699293D01*
X100378695Y-77699292D01*
X100378699Y-77699286D01*
X100485074Y-77442475D01*
X100557018Y-77173977D01*
X100593300Y-76898385D01*
X100593300Y-76844086D01*
X124422900Y-76844086D01*
X124422900Y-77029113D01*
X124451845Y-77211865D01*
X124509019Y-77387832D01*
X124509020Y-77387835D01*
X124593022Y-77552696D01*
X124701779Y-77702387D01*
X124832613Y-77833221D01*
X124982304Y-77941978D01*
X125035624Y-77969146D01*
X125147164Y-78025979D01*
X125147167Y-78025980D01*
X125235150Y-78054567D01*
X125323136Y-78083155D01*
X125505886Y-78112100D01*
X125505887Y-78112100D01*
X125690913Y-78112100D01*
X125690914Y-78112100D01*
X125873664Y-78083155D01*
X126049635Y-78025979D01*
X126214496Y-77941978D01*
X126364187Y-77833221D01*
X126495021Y-77702387D01*
X126552512Y-77623256D01*
X126556174Y-77619066D01*
X126573267Y-77608179D01*
X127198400Y-76983046D01*
X127198400Y-76989261D01*
X127225659Y-77090994D01*
X127278320Y-77182206D01*
X127352794Y-77256680D01*
X127444006Y-77309341D01*
X127545739Y-77336600D01*
X127551953Y-77336600D01*
X126961968Y-77926583D01*
X126961968Y-77926584D01*
X126982565Y-77941549D01*
X127147356Y-78025515D01*
X127147359Y-78025516D01*
X127323252Y-78082666D01*
X127505927Y-78111600D01*
X127690873Y-78111600D01*
X127873547Y-78082666D01*
X128049440Y-78025516D01*
X128049443Y-78025515D01*
X128214236Y-77941547D01*
X128214245Y-77941542D01*
X128234830Y-77926584D01*
X128234831Y-77926583D01*
X127644848Y-77336600D01*
X127651061Y-77336600D01*
X127752794Y-77309341D01*
X127844006Y-77256680D01*
X127918480Y-77182206D01*
X127971141Y-77090994D01*
X127998400Y-76989261D01*
X127998400Y-76983047D01*
X128612638Y-77597286D01*
X128647562Y-77627765D01*
X128698721Y-77698178D01*
X128701779Y-77702387D01*
X128832613Y-77833221D01*
X128982304Y-77941978D01*
X129035624Y-77969146D01*
X129147164Y-78025979D01*
X129147167Y-78025980D01*
X129235150Y-78054567D01*
X129323136Y-78083155D01*
X129505886Y-78112100D01*
X129505887Y-78112100D01*
X129690913Y-78112100D01*
X129690914Y-78112100D01*
X129873664Y-78083155D01*
X130049635Y-78025979D01*
X130214496Y-77941978D01*
X130364187Y-77833221D01*
X130495021Y-77702387D01*
X130498080Y-77698176D01*
X130553406Y-77655509D01*
X130623019Y-77649526D01*
X130684815Y-77682129D01*
X130698715Y-77698170D01*
X130701779Y-77702387D01*
X130832613Y-77833221D01*
X130982304Y-77941978D01*
X131035624Y-77969146D01*
X131147164Y-78025979D01*
X131147167Y-78025980D01*
X131235150Y-78054567D01*
X131323136Y-78083155D01*
X131505886Y-78112100D01*
X131505887Y-78112100D01*
X131690913Y-78112100D01*
X131690914Y-78112100D01*
X131873664Y-78083155D01*
X132049635Y-78025979D01*
X132214496Y-77941978D01*
X132364187Y-77833221D01*
X132495021Y-77702387D01*
X132498080Y-77698176D01*
X132553406Y-77655509D01*
X132623019Y-77649526D01*
X132684815Y-77682129D01*
X132698715Y-77698170D01*
X132701779Y-77702387D01*
X132832613Y-77833221D01*
X132982304Y-77941978D01*
X133035624Y-77969146D01*
X133147164Y-78025979D01*
X133147167Y-78025980D01*
X133235150Y-78054567D01*
X133323136Y-78083155D01*
X133505886Y-78112100D01*
X133505887Y-78112100D01*
X133690913Y-78112100D01*
X133690914Y-78112100D01*
X133873664Y-78083155D01*
X134049635Y-78025979D01*
X134214496Y-77941978D01*
X134364187Y-77833221D01*
X134495021Y-77702387D01*
X134498080Y-77698176D01*
X134553406Y-77655509D01*
X134623019Y-77649526D01*
X134684815Y-77682129D01*
X134698715Y-77698170D01*
X134701779Y-77702387D01*
X134832613Y-77833221D01*
X134982304Y-77941978D01*
X135035624Y-77969146D01*
X135147164Y-78025979D01*
X135147167Y-78025980D01*
X135235150Y-78054567D01*
X135323136Y-78083155D01*
X135505886Y-78112100D01*
X135505887Y-78112100D01*
X135690913Y-78112100D01*
X135690914Y-78112100D01*
X135873664Y-78083155D01*
X136049635Y-78025979D01*
X136214496Y-77941978D01*
X136364187Y-77833221D01*
X136495021Y-77702387D01*
X136498080Y-77698176D01*
X136553406Y-77655509D01*
X136623019Y-77649526D01*
X136684815Y-77682129D01*
X136698715Y-77698170D01*
X136701779Y-77702387D01*
X136832613Y-77833221D01*
X136982304Y-77941978D01*
X137035624Y-77969146D01*
X137147164Y-78025979D01*
X137147167Y-78025980D01*
X137235150Y-78054567D01*
X137323136Y-78083155D01*
X137505886Y-78112100D01*
X137505887Y-78112100D01*
X137690913Y-78112100D01*
X137690914Y-78112100D01*
X137873664Y-78083155D01*
X138049635Y-78025979D01*
X138214496Y-77941978D01*
X138364187Y-77833221D01*
X138495021Y-77702387D01*
X138498080Y-77698176D01*
X138553406Y-77655509D01*
X138623019Y-77649526D01*
X138684815Y-77682129D01*
X138698715Y-77698170D01*
X138701779Y-77702387D01*
X138832613Y-77833221D01*
X138982304Y-77941978D01*
X139035624Y-77969146D01*
X139147164Y-78025979D01*
X139147167Y-78025980D01*
X139235150Y-78054567D01*
X139323136Y-78083155D01*
X139505886Y-78112100D01*
X139505887Y-78112100D01*
X139690913Y-78112100D01*
X139690914Y-78112100D01*
X139873664Y-78083155D01*
X140049635Y-78025979D01*
X140214496Y-77941978D01*
X140364187Y-77833221D01*
X140495021Y-77702387D01*
X140498080Y-77698176D01*
X140553406Y-77655509D01*
X140623019Y-77649526D01*
X140684815Y-77682129D01*
X140698715Y-77698170D01*
X140701779Y-77702387D01*
X140832613Y-77833221D01*
X140982304Y-77941978D01*
X141035624Y-77969146D01*
X141147164Y-78025979D01*
X141147167Y-78025980D01*
X141235150Y-78054567D01*
X141323136Y-78083155D01*
X141505886Y-78112100D01*
X141505887Y-78112100D01*
X141690913Y-78112100D01*
X141690914Y-78112100D01*
X141873664Y-78083155D01*
X142049635Y-78025979D01*
X142214496Y-77941978D01*
X142330008Y-77858053D01*
X142395812Y-77834574D01*
X142463866Y-77850399D01*
X142502158Y-77884060D01*
X142565855Y-77969147D01*
X142681064Y-78055393D01*
X142681071Y-78055397D01*
X142815917Y-78105691D01*
X142815916Y-78105691D01*
X142822844Y-78106435D01*
X142875527Y-78112100D01*
X144321272Y-78112099D01*
X144380883Y-78105691D01*
X144515731Y-78055396D01*
X144630946Y-77969146D01*
X144717196Y-77853931D01*
X144767491Y-77719083D01*
X144773900Y-77659473D01*
X144773899Y-76213728D01*
X144767491Y-76154117D01*
X144754175Y-76118416D01*
X144717197Y-76019271D01*
X144717193Y-76019264D01*
X144630947Y-75904055D01*
X144630944Y-75904052D01*
X144515735Y-75817806D01*
X144515728Y-75817802D01*
X144380882Y-75767508D01*
X144380883Y-75767508D01*
X144321283Y-75761101D01*
X144321281Y-75761100D01*
X144321273Y-75761100D01*
X144321264Y-75761100D01*
X142875529Y-75761100D01*
X142875523Y-75761101D01*
X142815916Y-75767508D01*
X142681071Y-75817802D01*
X142681064Y-75817806D01*
X142565855Y-75904052D01*
X142502158Y-75989139D01*
X142446223Y-76031010D01*
X142376532Y-76035993D01*
X142330007Y-76015145D01*
X142214499Y-75931224D01*
X142214498Y-75931223D01*
X142214496Y-75931222D01*
X142161172Y-75904052D01*
X142049635Y-75847220D01*
X142049632Y-75847219D01*
X141873665Y-75790045D01*
X141731372Y-75767508D01*
X141690914Y-75761100D01*
X141505886Y-75761100D01*
X141465428Y-75767508D01*
X141323134Y-75790045D01*
X141147167Y-75847219D01*
X141147164Y-75847220D01*
X140982303Y-75931222D01*
X140902588Y-75989139D01*
X140832613Y-76039979D01*
X140832611Y-76039981D01*
X140832610Y-76039981D01*
X140701781Y-76170810D01*
X140698714Y-76175032D01*
X140643381Y-76217694D01*
X140573767Y-76223669D01*
X140511974Y-76191059D01*
X140498086Y-76175032D01*
X140495021Y-76170813D01*
X140364187Y-76039979D01*
X140214496Y-75931222D01*
X140161178Y-75904055D01*
X140049635Y-75847220D01*
X140049632Y-75847219D01*
X139873665Y-75790045D01*
X139731372Y-75767508D01*
X139690914Y-75761100D01*
X139505886Y-75761100D01*
X139465428Y-75767508D01*
X139323134Y-75790045D01*
X139147167Y-75847219D01*
X139147164Y-75847220D01*
X138982303Y-75931222D01*
X138902588Y-75989139D01*
X138832613Y-76039979D01*
X138832611Y-76039981D01*
X138832610Y-76039981D01*
X138701781Y-76170810D01*
X138698714Y-76175032D01*
X138643381Y-76217694D01*
X138573767Y-76223669D01*
X138511974Y-76191059D01*
X138498086Y-76175032D01*
X138495021Y-76170813D01*
X138364187Y-76039979D01*
X138214496Y-75931222D01*
X138161178Y-75904055D01*
X138049635Y-75847220D01*
X138049632Y-75847219D01*
X137873665Y-75790045D01*
X137731372Y-75767508D01*
X137690914Y-75761100D01*
X137505886Y-75761100D01*
X137465428Y-75767508D01*
X137323134Y-75790045D01*
X137147167Y-75847219D01*
X137147164Y-75847220D01*
X136982303Y-75931222D01*
X136902588Y-75989139D01*
X136832613Y-76039979D01*
X136832611Y-76039981D01*
X136832610Y-76039981D01*
X136701781Y-76170810D01*
X136698714Y-76175032D01*
X136643381Y-76217694D01*
X136573767Y-76223669D01*
X136511974Y-76191059D01*
X136498086Y-76175032D01*
X136495021Y-76170813D01*
X136364187Y-76039979D01*
X136214496Y-75931222D01*
X136161178Y-75904055D01*
X136049635Y-75847220D01*
X136049632Y-75847219D01*
X135873665Y-75790045D01*
X135731372Y-75767508D01*
X135690914Y-75761100D01*
X135505886Y-75761100D01*
X135465428Y-75767508D01*
X135323134Y-75790045D01*
X135147167Y-75847219D01*
X135147164Y-75847220D01*
X134982303Y-75931222D01*
X134902588Y-75989139D01*
X134832613Y-76039979D01*
X134832611Y-76039981D01*
X134832610Y-76039981D01*
X134701781Y-76170810D01*
X134698714Y-76175032D01*
X134643381Y-76217694D01*
X134573767Y-76223669D01*
X134511974Y-76191059D01*
X134498086Y-76175032D01*
X134495021Y-76170813D01*
X134364187Y-76039979D01*
X134214496Y-75931222D01*
X134161178Y-75904055D01*
X134049635Y-75847220D01*
X134049632Y-75847219D01*
X133873665Y-75790045D01*
X133731372Y-75767508D01*
X133690914Y-75761100D01*
X133505886Y-75761100D01*
X133465428Y-75767508D01*
X133323134Y-75790045D01*
X133147167Y-75847219D01*
X133147164Y-75847220D01*
X132982303Y-75931222D01*
X132902588Y-75989139D01*
X132832613Y-76039979D01*
X132832611Y-76039981D01*
X132832610Y-76039981D01*
X132701781Y-76170810D01*
X132698714Y-76175032D01*
X132643381Y-76217694D01*
X132573767Y-76223669D01*
X132511974Y-76191059D01*
X132498086Y-76175032D01*
X132495021Y-76170813D01*
X132364187Y-76039979D01*
X132214496Y-75931222D01*
X132161178Y-75904055D01*
X132049635Y-75847220D01*
X132049632Y-75847219D01*
X131873665Y-75790045D01*
X131731372Y-75767508D01*
X131690914Y-75761100D01*
X131505886Y-75761100D01*
X131465428Y-75767508D01*
X131323134Y-75790045D01*
X131147167Y-75847219D01*
X131147164Y-75847220D01*
X130982303Y-75931222D01*
X130902588Y-75989139D01*
X130832613Y-76039979D01*
X130832611Y-76039981D01*
X130832610Y-76039981D01*
X130701781Y-76170810D01*
X130698714Y-76175032D01*
X130643381Y-76217694D01*
X130573767Y-76223669D01*
X130511974Y-76191059D01*
X130498086Y-76175032D01*
X130495021Y-76170813D01*
X130364187Y-76039979D01*
X130214496Y-75931222D01*
X130161178Y-75904055D01*
X130049635Y-75847220D01*
X130049632Y-75847219D01*
X129873665Y-75790045D01*
X129731372Y-75767508D01*
X129690914Y-75761100D01*
X129505886Y-75761100D01*
X129465428Y-75767508D01*
X129323134Y-75790045D01*
X129147167Y-75847219D01*
X129147164Y-75847220D01*
X128982303Y-75931222D01*
X128902588Y-75989139D01*
X128832613Y-76039979D01*
X128832611Y-76039981D01*
X128832610Y-76039981D01*
X128701778Y-76170813D01*
X128647563Y-76245433D01*
X128628145Y-76260405D01*
X127998400Y-76890151D01*
X127998400Y-76883939D01*
X127971141Y-76782206D01*
X127918480Y-76690994D01*
X127844006Y-76616520D01*
X127752794Y-76563859D01*
X127651061Y-76536600D01*
X127644847Y-76536600D01*
X128234831Y-75946616D01*
X128234830Y-75946615D01*
X128214234Y-75931650D01*
X128049443Y-75847684D01*
X128049440Y-75847683D01*
X127873547Y-75790533D01*
X127690873Y-75761600D01*
X127505927Y-75761600D01*
X127323252Y-75790533D01*
X127147359Y-75847683D01*
X127147356Y-75847684D01*
X126982567Y-75931649D01*
X126961968Y-75946615D01*
X127551954Y-76536600D01*
X127545739Y-76536600D01*
X127444006Y-76563859D01*
X127352794Y-76616520D01*
X127278320Y-76690994D01*
X127225659Y-76782206D01*
X127198400Y-76883939D01*
X127198400Y-76890152D01*
X126586710Y-76278462D01*
X126586244Y-76278091D01*
X126582941Y-76277136D01*
X126571285Y-76266173D01*
X126556173Y-76254132D01*
X126552509Y-76249938D01*
X126495021Y-76170813D01*
X126364187Y-76039979D01*
X126214496Y-75931222D01*
X126161178Y-75904055D01*
X126049635Y-75847220D01*
X126049632Y-75847219D01*
X125873665Y-75790045D01*
X125731372Y-75767508D01*
X125690914Y-75761100D01*
X125505886Y-75761100D01*
X125465428Y-75767508D01*
X125323134Y-75790045D01*
X125147167Y-75847219D01*
X125147164Y-75847220D01*
X124982303Y-75931222D01*
X124902588Y-75989139D01*
X124832613Y-76039979D01*
X124832611Y-76039981D01*
X124832610Y-76039981D01*
X124701781Y-76170810D01*
X124701781Y-76170811D01*
X124701779Y-76170813D01*
X124670599Y-76213729D01*
X124593022Y-76320503D01*
X124509020Y-76485364D01*
X124509019Y-76485367D01*
X124451845Y-76661334D01*
X124422900Y-76844086D01*
X100593300Y-76844086D01*
X100593300Y-76620415D01*
X100557018Y-76344823D01*
X100485074Y-76076325D01*
X100378699Y-75819514D01*
X100378697Y-75819511D01*
X100378695Y-75819506D01*
X100329040Y-75733502D01*
X100239714Y-75578785D01*
X100070497Y-75358257D01*
X100070492Y-75358251D01*
X99873948Y-75161707D01*
X99873941Y-75161701D01*
X99653419Y-74992489D01*
X99653418Y-74992488D01*
X99653415Y-74992486D01*
X99557437Y-74937073D01*
X99412693Y-74853504D01*
X99412682Y-74853499D01*
X99155875Y-74747126D01*
X98887373Y-74675181D01*
X98611795Y-74638901D01*
X98611790Y-74638900D01*
X98611785Y-74638900D01*
X98333815Y-74638900D01*
X98333809Y-74638900D01*
X98333804Y-74638901D01*
X98058226Y-74675181D01*
X97789724Y-74747126D01*
X97532917Y-74853499D01*
X97532906Y-74853504D01*
X97292180Y-74992489D01*
X97071658Y-75161701D01*
X97071651Y-75161707D01*
X96875107Y-75358251D01*
X96875101Y-75358258D01*
X96705889Y-75578780D01*
X96566904Y-75819506D01*
X96566899Y-75819517D01*
X96460526Y-76076324D01*
X96388581Y-76344826D01*
X96352301Y-76620404D01*
X96352300Y-76620421D01*
X89552700Y-76620421D01*
X89552700Y-71268054D01*
X89572385Y-71201015D01*
X89625189Y-71155260D01*
X89694347Y-71145316D01*
X89757903Y-71174341D01*
X89794631Y-71229736D01*
X89842619Y-71377432D01*
X89842620Y-71377435D01*
X89889944Y-71470312D01*
X89926622Y-71542296D01*
X90035379Y-71691987D01*
X90166213Y-71822821D01*
X90315904Y-71931578D01*
X90396763Y-71972777D01*
X90480764Y-72015579D01*
X90480767Y-72015580D01*
X90568750Y-72044167D01*
X90656736Y-72072755D01*
X90839486Y-72101700D01*
X90839487Y-72101700D01*
X91024513Y-72101700D01*
X91024514Y-72101700D01*
X91207264Y-72072755D01*
X91383235Y-72015579D01*
X91548096Y-71931578D01*
X91697787Y-71822821D01*
X91828621Y-71691987D01*
X91838919Y-71677812D01*
X91894250Y-71635148D01*
X91939236Y-71626700D01*
X93861796Y-71626700D01*
X93952840Y-71608589D01*
X93997128Y-71599780D01*
X94060869Y-71573377D01*
X94124607Y-71546977D01*
X94124608Y-71546976D01*
X94124611Y-71546975D01*
X94239343Y-71470314D01*
X99635586Y-66074069D01*
X99675810Y-66047192D01*
X99730435Y-66024566D01*
X99820173Y-65987397D01*
X99820176Y-65987395D01*
X99820179Y-65987394D01*
X99951289Y-65899789D01*
X100062789Y-65788289D01*
X100150394Y-65657179D01*
X100210737Y-65511497D01*
X100241500Y-65356842D01*
X100241500Y-65199158D01*
X100241500Y-65199155D01*
X100241499Y-65199153D01*
X100210738Y-65044510D01*
X100210737Y-65044503D01*
X100210735Y-65044498D01*
X100150397Y-64898827D01*
X100150390Y-64898814D01*
X100062789Y-64767711D01*
X100062786Y-64767707D01*
X99951292Y-64656213D01*
X99951288Y-64656210D01*
X99820185Y-64568609D01*
X99820172Y-64568602D01*
X99674501Y-64508264D01*
X99674489Y-64508261D01*
X99519845Y-64477500D01*
X99519842Y-64477500D01*
X99362158Y-64477500D01*
X99362155Y-64477500D01*
X99207510Y-64508261D01*
X99207498Y-64508264D01*
X99063136Y-64568061D01*
X99015684Y-64577500D01*
X98741119Y-64577500D01*
X98674080Y-64557815D01*
X98653438Y-64541181D01*
X96266219Y-62153962D01*
X96232734Y-62092639D01*
X96229900Y-62066281D01*
X96229900Y-60590319D01*
X96249585Y-60523280D01*
X96266219Y-60502638D01*
X96630034Y-60138823D01*
X97168713Y-59600143D01*
X97230034Y-59566660D01*
X97299725Y-59571644D01*
X97355659Y-59613516D01*
X97378865Y-59668427D01*
X97395759Y-59775086D01*
X97436777Y-59901327D01*
X97456778Y-59962883D01*
X97498353Y-60044477D01*
X97546427Y-60138826D01*
X97662484Y-60298568D01*
X97802122Y-60438206D01*
X97913559Y-60519168D01*
X97961868Y-60554266D01*
X98137808Y-60643913D01*
X98209131Y-60667087D01*
X98325605Y-60704932D01*
X98520633Y-60735822D01*
X98520638Y-60735822D01*
X98718105Y-60735822D01*
X98913132Y-60704932D01*
X98913135Y-60704931D01*
X99100930Y-60643913D01*
X99276870Y-60554266D01*
X99401862Y-60463455D01*
X99436615Y-60438206D01*
X99436617Y-60438203D01*
X99436621Y-60438201D01*
X99576248Y-60298574D01*
X99576250Y-60298570D01*
X99576253Y-60298568D01*
X99692310Y-60138827D01*
X99692311Y-60138826D01*
X99692313Y-60138823D01*
X99778886Y-59968915D01*
X99826859Y-59918122D01*
X99894680Y-59901327D01*
X99960815Y-59923864D01*
X99999851Y-59968915D01*
X100038353Y-60044477D01*
X100086427Y-60138827D01*
X100202484Y-60298568D01*
X100342122Y-60438206D01*
X100453559Y-60519168D01*
X100501868Y-60554266D01*
X100677808Y-60643913D01*
X100749131Y-60667087D01*
X100865605Y-60704932D01*
X101060633Y-60735822D01*
X101060638Y-60735822D01*
X101258105Y-60735822D01*
X101453132Y-60704932D01*
X101453135Y-60704931D01*
X101640930Y-60643913D01*
X101816870Y-60554266D01*
X101941862Y-60463455D01*
X101976615Y-60438206D01*
X101976617Y-60438203D01*
X101976621Y-60438201D01*
X102116248Y-60298574D01*
X102116250Y-60298570D01*
X102116253Y-60298568D01*
X102232310Y-60138827D01*
X102232311Y-60138826D01*
X102232313Y-60138823D01*
X102318886Y-59968915D01*
X102366859Y-59918122D01*
X102434680Y-59901327D01*
X102500815Y-59923864D01*
X102539851Y-59968915D01*
X102578353Y-60044477D01*
X102626427Y-60138827D01*
X102742484Y-60298568D01*
X102882122Y-60438206D01*
X102993559Y-60519168D01*
X103041868Y-60554266D01*
X103217808Y-60643913D01*
X103289131Y-60667087D01*
X103405605Y-60704932D01*
X103600633Y-60735822D01*
X103600638Y-60735822D01*
X103798105Y-60735822D01*
X103993132Y-60704932D01*
X103993135Y-60704931D01*
X104180930Y-60643913D01*
X104356870Y-60554266D01*
X104481862Y-60463455D01*
X104516615Y-60438206D01*
X104516617Y-60438203D01*
X104516621Y-60438201D01*
X104656248Y-60298574D01*
X104656250Y-60298570D01*
X104656253Y-60298568D01*
X104772310Y-60138827D01*
X104772311Y-60138826D01*
X104772313Y-60138823D01*
X104858886Y-59968915D01*
X104906859Y-59918122D01*
X104974680Y-59901327D01*
X105040815Y-59923864D01*
X105079851Y-59968915D01*
X105118353Y-60044477D01*
X105166427Y-60138827D01*
X105282484Y-60298568D01*
X105422122Y-60438206D01*
X105533559Y-60519168D01*
X105581868Y-60554266D01*
X105757808Y-60643913D01*
X105829131Y-60667087D01*
X105945605Y-60704932D01*
X106140633Y-60735822D01*
X106140638Y-60735822D01*
X106338105Y-60735822D01*
X106533132Y-60704932D01*
X106533135Y-60704931D01*
X106720930Y-60643913D01*
X106896870Y-60554266D01*
X107021862Y-60463455D01*
X107056615Y-60438206D01*
X107056617Y-60438203D01*
X107056621Y-60438201D01*
X107196248Y-60298574D01*
X107196250Y-60298570D01*
X107196253Y-60298568D01*
X107312310Y-60138827D01*
X107312311Y-60138826D01*
X107312313Y-60138823D01*
X107398886Y-59968915D01*
X107446859Y-59918122D01*
X107514680Y-59901327D01*
X107580815Y-59923864D01*
X107619851Y-59968915D01*
X107658353Y-60044477D01*
X107706427Y-60138827D01*
X107822484Y-60298568D01*
X107962122Y-60438206D01*
X108073559Y-60519168D01*
X108121868Y-60554266D01*
X108297808Y-60643913D01*
X108369131Y-60667087D01*
X108485605Y-60704932D01*
X108680633Y-60735822D01*
X108680638Y-60735822D01*
X108878105Y-60735822D01*
X109073132Y-60704932D01*
X109073135Y-60704931D01*
X109260930Y-60643913D01*
X109260940Y-60643907D01*
X109262443Y-60643286D01*
X109263064Y-60643219D01*
X109265564Y-60642407D01*
X109265734Y-60642931D01*
X109331912Y-60635814D01*
X109394392Y-60667087D01*
X109430047Y-60727175D01*
X109433900Y-60757845D01*
X109433900Y-62872206D01*
X109433900Y-63010194D01*
X109433900Y-63010196D01*
X109433899Y-63010196D01*
X109460818Y-63145522D01*
X109460821Y-63145532D01*
X109513622Y-63273007D01*
X109590287Y-63387745D01*
X109590288Y-63387746D01*
X110303528Y-64100985D01*
X110330408Y-64141214D01*
X110390202Y-64285572D01*
X110390209Y-64285585D01*
X110477810Y-64416688D01*
X110477813Y-64416692D01*
X110589307Y-64528186D01*
X110589311Y-64528189D01*
X110720414Y-64615790D01*
X110720427Y-64615797D01*
X110866098Y-64676135D01*
X110866103Y-64676137D01*
X111020753Y-64706899D01*
X111020756Y-64706900D01*
X111020758Y-64706900D01*
X111178444Y-64706900D01*
X111178445Y-64706899D01*
X111333097Y-64676137D01*
X111478779Y-64615794D01*
X111568111Y-64556103D01*
X111634786Y-64535227D01*
X111702166Y-64553711D01*
X111705845Y-64556074D01*
X111795221Y-64615794D01*
X111795223Y-64615795D01*
X111795227Y-64615797D01*
X111940898Y-64676135D01*
X111940903Y-64676137D01*
X112095553Y-64706899D01*
X112095556Y-64706900D01*
X112095558Y-64706900D01*
X112253244Y-64706900D01*
X112253245Y-64706899D01*
X112407897Y-64676137D01*
X112483363Y-64644878D01*
X112552264Y-64616339D01*
X112599716Y-64606900D01*
X114622996Y-64606900D01*
X114714040Y-64588789D01*
X114758328Y-64579980D01*
X114822069Y-64553577D01*
X114885807Y-64527177D01*
X114885808Y-64527176D01*
X114885811Y-64527175D01*
X115000543Y-64450514D01*
X116357237Y-63093818D01*
X116418560Y-63060334D01*
X116444918Y-63057500D01*
X119818284Y-63057500D01*
X119865736Y-63066939D01*
X119882549Y-63073903D01*
X120010103Y-63126737D01*
X120164753Y-63157499D01*
X120164756Y-63157500D01*
X120164758Y-63157500D01*
X120322444Y-63157500D01*
X120406604Y-63140759D01*
X120437908Y-63134532D01*
X120507500Y-63140759D01*
X120562677Y-63183622D01*
X120585922Y-63249511D01*
X120586100Y-63256149D01*
X120586100Y-63324846D01*
X120616861Y-63479489D01*
X120616864Y-63479501D01*
X120676661Y-63623864D01*
X120686100Y-63671316D01*
X120686100Y-65622280D01*
X120666415Y-65689319D01*
X120649781Y-65709961D01*
X118956812Y-67402929D01*
X118916584Y-67429809D01*
X118772223Y-67489604D01*
X118772214Y-67489609D01*
X118641111Y-67577210D01*
X118641107Y-67577213D01*
X118529613Y-67688707D01*
X118529610Y-67688711D01*
X118442009Y-67819814D01*
X118442002Y-67819827D01*
X118381664Y-67965498D01*
X118381661Y-67965510D01*
X118350900Y-68120153D01*
X118350900Y-68277846D01*
X118381661Y-68432489D01*
X118381664Y-68432501D01*
X118442002Y-68578172D01*
X118442009Y-68578185D01*
X118529610Y-68709288D01*
X118529613Y-68709292D01*
X118641107Y-68820786D01*
X118641111Y-68820789D01*
X118772214Y-68908390D01*
X118772227Y-68908397D01*
X118917898Y-68968735D01*
X118917903Y-68968737D01*
X119072553Y-68999499D01*
X119072556Y-68999500D01*
X119072558Y-68999500D01*
X119230244Y-68999500D01*
X119230245Y-68999499D01*
X119384897Y-68968737D01*
X119530579Y-68908394D01*
X119661689Y-68820789D01*
X119773189Y-68709289D01*
X119860794Y-68578179D01*
X119860795Y-68578176D01*
X119860797Y-68578173D01*
X119920592Y-68433812D01*
X119947469Y-68393586D01*
X121930714Y-66410343D01*
X122007375Y-66295611D01*
X122060180Y-66168129D01*
X122084127Y-66047737D01*
X122087100Y-66032793D01*
X122087100Y-63671316D01*
X122096539Y-63623864D01*
X122156335Y-63479501D01*
X122156337Y-63479497D01*
X122187100Y-63324842D01*
X122187100Y-63167158D01*
X122187100Y-63167155D01*
X122187099Y-63167153D01*
X122181849Y-63140759D01*
X122156337Y-63012503D01*
X122098225Y-62872206D01*
X122095997Y-62866827D01*
X122095990Y-62866814D01*
X122008389Y-62735711D01*
X122008386Y-62735707D01*
X121896892Y-62624213D01*
X121896888Y-62624210D01*
X121765785Y-62536609D01*
X121765772Y-62536602D01*
X121620101Y-62476264D01*
X121620089Y-62476261D01*
X121465445Y-62445500D01*
X121465442Y-62445500D01*
X121307758Y-62445500D01*
X121307753Y-62445500D01*
X121192291Y-62468467D01*
X121122700Y-62462240D01*
X121067522Y-62419377D01*
X121044278Y-62353487D01*
X121044100Y-62346850D01*
X121044100Y-62278155D01*
X121044099Y-62278153D01*
X121042901Y-62272129D01*
X121013337Y-62123503D01*
X120989635Y-62066281D01*
X120952997Y-61977827D01*
X120952990Y-61977814D01*
X120865389Y-61846711D01*
X120865386Y-61846707D01*
X120753892Y-61735213D01*
X120753888Y-61735210D01*
X120622785Y-61647609D01*
X120622772Y-61647602D01*
X120477101Y-61587264D01*
X120477089Y-61587261D01*
X120322445Y-61556500D01*
X120322442Y-61556500D01*
X120164758Y-61556500D01*
X120164755Y-61556500D01*
X120010110Y-61587261D01*
X120010098Y-61587264D01*
X119865736Y-61647061D01*
X119818284Y-61656500D01*
X116747718Y-61656500D01*
X116680679Y-61636815D01*
X116634924Y-61584011D01*
X116624980Y-61514853D01*
X116654005Y-61451297D01*
X116660037Y-61444819D01*
X116943482Y-61161374D01*
X117020143Y-61046643D01*
X117020144Y-61046642D01*
X117072949Y-60919159D01*
X117081758Y-60874872D01*
X117099869Y-60783826D01*
X117099869Y-60586207D01*
X117119554Y-60519168D01*
X117150984Y-60485889D01*
X117216617Y-60438204D01*
X117216617Y-60438203D01*
X117216621Y-60438201D01*
X117356248Y-60298574D01*
X117356250Y-60298570D01*
X117356253Y-60298568D01*
X117472310Y-60138827D01*
X117472311Y-60138826D01*
X117472313Y-60138823D01*
X117558886Y-59968915D01*
X117606859Y-59918122D01*
X117674680Y-59901327D01*
X117740815Y-59923864D01*
X117779851Y-59968915D01*
X117818353Y-60044477D01*
X117866427Y-60138827D01*
X117982484Y-60298568D01*
X118122122Y-60438206D01*
X118233559Y-60519168D01*
X118281868Y-60554266D01*
X118457808Y-60643913D01*
X118529131Y-60667087D01*
X118645605Y-60704932D01*
X118840633Y-60735822D01*
X118840638Y-60735822D01*
X119038105Y-60735822D01*
X119233132Y-60704932D01*
X119233135Y-60704931D01*
X119420930Y-60643913D01*
X119596870Y-60554266D01*
X119721862Y-60463455D01*
X119756615Y-60438206D01*
X119756617Y-60438203D01*
X119756621Y-60438201D01*
X119896248Y-60298574D01*
X119896250Y-60298570D01*
X119896253Y-60298568D01*
X120012310Y-60138827D01*
X120012311Y-60138826D01*
X120012313Y-60138823D01*
X120098886Y-59968915D01*
X120146859Y-59918122D01*
X120214680Y-59901327D01*
X120280815Y-59923864D01*
X120319851Y-59968915D01*
X120358353Y-60044477D01*
X120406427Y-60138827D01*
X120522484Y-60298568D01*
X120662122Y-60438206D01*
X120773559Y-60519168D01*
X120821868Y-60554266D01*
X120997808Y-60643913D01*
X121069131Y-60667087D01*
X121185605Y-60704932D01*
X121380633Y-60735822D01*
X121380638Y-60735822D01*
X121578105Y-60735822D01*
X121773132Y-60704932D01*
X121773135Y-60704931D01*
X121960930Y-60643913D01*
X122136870Y-60554266D01*
X122261862Y-60463455D01*
X122296615Y-60438206D01*
X122296617Y-60438203D01*
X122296621Y-60438201D01*
X122436248Y-60298574D01*
X122436250Y-60298570D01*
X122436253Y-60298568D01*
X122552310Y-60138827D01*
X122552311Y-60138826D01*
X122552313Y-60138823D01*
X122638886Y-59968915D01*
X122686859Y-59918122D01*
X122754680Y-59901327D01*
X122820815Y-59923864D01*
X122859851Y-59968915D01*
X122898353Y-60044477D01*
X122946427Y-60138827D01*
X123062484Y-60298568D01*
X123202122Y-60438206D01*
X123313559Y-60519168D01*
X123361868Y-60554266D01*
X123537808Y-60643913D01*
X123609131Y-60667087D01*
X123725605Y-60704932D01*
X123920633Y-60735822D01*
X123920638Y-60735822D01*
X124118105Y-60735822D01*
X124313132Y-60704932D01*
X124313135Y-60704931D01*
X124500930Y-60643913D01*
X124676870Y-60554266D01*
X124801862Y-60463455D01*
X124836615Y-60438206D01*
X124836617Y-60438203D01*
X124836621Y-60438201D01*
X124976248Y-60298574D01*
X124976250Y-60298570D01*
X124976253Y-60298568D01*
X125092310Y-60138827D01*
X125092311Y-60138826D01*
X125092313Y-60138823D01*
X125178886Y-59968915D01*
X125226859Y-59918122D01*
X125294680Y-59901327D01*
X125360815Y-59923864D01*
X125399851Y-59968915D01*
X125438353Y-60044477D01*
X125486427Y-60138827D01*
X125602484Y-60298568D01*
X125742122Y-60438206D01*
X125853559Y-60519168D01*
X125901868Y-60554266D01*
X126077808Y-60643913D01*
X126149131Y-60667087D01*
X126265605Y-60704932D01*
X126460633Y-60735822D01*
X126460638Y-60735822D01*
X126658105Y-60735822D01*
X126853132Y-60704932D01*
X126853135Y-60704931D01*
X127040930Y-60643913D01*
X127216870Y-60554266D01*
X127341862Y-60463455D01*
X127376615Y-60438206D01*
X127376617Y-60438203D01*
X127376621Y-60438201D01*
X127516248Y-60298574D01*
X127516250Y-60298570D01*
X127516253Y-60298568D01*
X127632310Y-60138827D01*
X127632311Y-60138826D01*
X127632313Y-60138823D01*
X127718886Y-59968915D01*
X127766859Y-59918122D01*
X127834680Y-59901327D01*
X127900815Y-59923864D01*
X127939851Y-59968915D01*
X127978353Y-60044477D01*
X128026427Y-60138827D01*
X128142484Y-60298568D01*
X128282122Y-60438206D01*
X128393559Y-60519168D01*
X128441868Y-60554266D01*
X128617808Y-60643913D01*
X128689131Y-60667087D01*
X128805605Y-60704932D01*
X129000633Y-60735822D01*
X129000638Y-60735822D01*
X129198105Y-60735822D01*
X129393132Y-60704932D01*
X129393135Y-60704931D01*
X129580930Y-60643913D01*
X129756870Y-60554266D01*
X129881862Y-60463455D01*
X129916615Y-60438206D01*
X129916617Y-60438203D01*
X129916621Y-60438201D01*
X130056248Y-60298574D01*
X130056250Y-60298570D01*
X130056253Y-60298568D01*
X130172310Y-60138827D01*
X130172311Y-60138826D01*
X130172313Y-60138823D01*
X130258886Y-59968915D01*
X130306859Y-59918122D01*
X130374680Y-59901327D01*
X130440815Y-59923864D01*
X130479851Y-59968915D01*
X130518353Y-60044477D01*
X130566427Y-60138827D01*
X130682484Y-60298568D01*
X130822122Y-60438206D01*
X130933559Y-60519168D01*
X130981868Y-60554266D01*
X131157808Y-60643913D01*
X131229131Y-60667087D01*
X131345605Y-60704932D01*
X131540633Y-60735822D01*
X131540638Y-60735822D01*
X131738105Y-60735822D01*
X131933132Y-60704932D01*
X131933135Y-60704931D01*
X132120930Y-60643913D01*
X132296870Y-60554266D01*
X132421862Y-60463455D01*
X132456615Y-60438206D01*
X132456617Y-60438203D01*
X132456621Y-60438201D01*
X132596248Y-60298574D01*
X132596250Y-60298570D01*
X132596253Y-60298568D01*
X132712310Y-60138827D01*
X132712311Y-60138826D01*
X132712313Y-60138823D01*
X132798886Y-59968915D01*
X132846859Y-59918122D01*
X132914680Y-59901327D01*
X132980815Y-59923864D01*
X133019851Y-59968915D01*
X133058353Y-60044477D01*
X133106427Y-60138827D01*
X133222484Y-60298568D01*
X133362122Y-60438206D01*
X133473559Y-60519168D01*
X133521868Y-60554266D01*
X133697808Y-60643913D01*
X133769131Y-60667087D01*
X133885605Y-60704932D01*
X134080633Y-60735822D01*
X134080638Y-60735822D01*
X134278105Y-60735822D01*
X134473132Y-60704932D01*
X134473135Y-60704931D01*
X134660930Y-60643913D01*
X134836870Y-60554266D01*
X134961862Y-60463455D01*
X134996615Y-60438206D01*
X134996617Y-60438203D01*
X134996621Y-60438201D01*
X135136248Y-60298574D01*
X135136250Y-60298570D01*
X135136253Y-60298568D01*
X135252310Y-60138827D01*
X135252311Y-60138826D01*
X135252313Y-60138823D01*
X135338886Y-59968915D01*
X135386859Y-59918122D01*
X135454680Y-59901327D01*
X135520815Y-59923864D01*
X135559851Y-59968915D01*
X135598353Y-60044477D01*
X135646427Y-60138827D01*
X135762484Y-60298568D01*
X135902122Y-60438206D01*
X136013559Y-60519168D01*
X136061868Y-60554266D01*
X136237808Y-60643913D01*
X136309131Y-60667087D01*
X136425605Y-60704932D01*
X136620633Y-60735822D01*
X136620638Y-60735822D01*
X136818105Y-60735822D01*
X137013132Y-60704932D01*
X137013135Y-60704931D01*
X137200930Y-60643913D01*
X137376870Y-60554266D01*
X137501862Y-60463455D01*
X137536615Y-60438206D01*
X137536617Y-60438203D01*
X137536621Y-60438201D01*
X137676248Y-60298574D01*
X137676250Y-60298570D01*
X137676253Y-60298568D01*
X137792310Y-60138827D01*
X137792311Y-60138826D01*
X137792313Y-60138823D01*
X137878886Y-59968915D01*
X137926859Y-59918122D01*
X137994680Y-59901327D01*
X138060815Y-59923864D01*
X138099851Y-59968915D01*
X138138353Y-60044477D01*
X138186427Y-60138827D01*
X138302484Y-60298568D01*
X138442122Y-60438206D01*
X138553559Y-60519168D01*
X138601868Y-60554266D01*
X138777808Y-60643913D01*
X138849131Y-60667087D01*
X138965605Y-60704932D01*
X139160633Y-60735822D01*
X139160638Y-60735822D01*
X139358105Y-60735822D01*
X139553132Y-60704932D01*
X139553135Y-60704931D01*
X139740930Y-60643913D01*
X139916870Y-60554266D01*
X140041862Y-60463455D01*
X140076615Y-60438206D01*
X140076617Y-60438203D01*
X140076621Y-60438201D01*
X140216248Y-60298574D01*
X140216250Y-60298570D01*
X140216253Y-60298568D01*
X140332310Y-60138827D01*
X140332311Y-60138826D01*
X140332313Y-60138823D01*
X140418886Y-59968915D01*
X140466859Y-59918122D01*
X140534680Y-59901327D01*
X140600815Y-59923864D01*
X140639851Y-59968915D01*
X140678353Y-60044477D01*
X140726427Y-60138827D01*
X140842484Y-60298568D01*
X140982122Y-60438206D01*
X141093559Y-60519168D01*
X141141868Y-60554266D01*
X141317808Y-60643913D01*
X141389131Y-60667087D01*
X141505605Y-60704932D01*
X141700633Y-60735822D01*
X141700638Y-60735822D01*
X141898105Y-60735822D01*
X142093132Y-60704932D01*
X142093135Y-60704931D01*
X142280930Y-60643913D01*
X142456870Y-60554266D01*
X142581862Y-60463455D01*
X142616615Y-60438206D01*
X142616617Y-60438203D01*
X142616621Y-60438201D01*
X142756248Y-60298574D01*
X142756250Y-60298570D01*
X142756253Y-60298568D01*
X142872310Y-60138827D01*
X142872311Y-60138826D01*
X142872313Y-60138823D01*
X142958886Y-59968915D01*
X143006859Y-59918122D01*
X143074680Y-59901327D01*
X143140815Y-59923864D01*
X143179851Y-59968915D01*
X143218353Y-60044477D01*
X143266427Y-60138827D01*
X143382484Y-60298568D01*
X143522122Y-60438206D01*
X143633559Y-60519168D01*
X143681868Y-60554266D01*
X143857808Y-60643913D01*
X143929131Y-60667087D01*
X144045605Y-60704932D01*
X144240633Y-60735822D01*
X144240638Y-60735822D01*
X144438105Y-60735822D01*
X144633132Y-60704932D01*
X144633135Y-60704931D01*
X144820930Y-60643913D01*
X144996870Y-60554266D01*
X145121862Y-60463455D01*
X145156615Y-60438206D01*
X145156617Y-60438203D01*
X145156621Y-60438201D01*
X145296248Y-60298574D01*
X145296250Y-60298570D01*
X145296253Y-60298568D01*
X145412310Y-60138827D01*
X145412311Y-60138826D01*
X145412313Y-60138823D01*
X145498886Y-59968915D01*
X145546859Y-59918122D01*
X145614680Y-59901327D01*
X145680815Y-59923864D01*
X145719851Y-59968915D01*
X145758353Y-60044477D01*
X145806427Y-60138827D01*
X145922484Y-60298568D01*
X146062122Y-60438206D01*
X146173559Y-60519168D01*
X146221868Y-60554266D01*
X146397808Y-60643913D01*
X146469131Y-60667087D01*
X146585605Y-60704932D01*
X146780633Y-60735822D01*
X146780638Y-60735822D01*
X146978105Y-60735822D01*
X147173132Y-60704932D01*
X147173135Y-60704931D01*
X147360930Y-60643913D01*
X147536870Y-60554266D01*
X147661862Y-60463455D01*
X147696615Y-60438206D01*
X147696617Y-60438203D01*
X147696621Y-60438201D01*
X147836248Y-60298574D01*
X147836250Y-60298570D01*
X147836253Y-60298568D01*
X147952310Y-60138827D01*
X147952311Y-60138826D01*
X147952313Y-60138823D01*
X148038886Y-59968915D01*
X148086859Y-59918122D01*
X148154680Y-59901327D01*
X148220815Y-59923864D01*
X148259851Y-59968915D01*
X148298353Y-60044477D01*
X148346427Y-60138827D01*
X148462484Y-60298568D01*
X148602122Y-60438206D01*
X148713559Y-60519168D01*
X148761868Y-60554266D01*
X148937808Y-60643913D01*
X149009131Y-60667087D01*
X149125605Y-60704932D01*
X149320633Y-60735822D01*
X149320638Y-60735822D01*
X149518105Y-60735822D01*
X149713132Y-60704932D01*
X149713135Y-60704931D01*
X149900930Y-60643913D01*
X150076870Y-60554266D01*
X150201862Y-60463455D01*
X150236615Y-60438206D01*
X150236617Y-60438203D01*
X150236621Y-60438201D01*
X150376248Y-60298574D01*
X150376250Y-60298570D01*
X150376253Y-60298568D01*
X150427148Y-60228514D01*
X150492313Y-60138823D01*
X150581960Y-59962883D01*
X150642979Y-59775085D01*
X150659872Y-59668427D01*
X150673869Y-59580058D01*
X150673869Y-59382585D01*
X150642979Y-59187558D01*
X150590327Y-59025513D01*
X150581960Y-58999761D01*
X150492313Y-58823821D01*
X150484855Y-58813556D01*
X150376253Y-58664075D01*
X150236615Y-58524437D01*
X150076873Y-58408380D01*
X150076872Y-58408379D01*
X150076870Y-58408378D01*
X149900930Y-58318731D01*
X149900927Y-58318730D01*
X149713132Y-58257711D01*
X149518105Y-58226822D01*
X149518100Y-58226822D01*
X149320638Y-58226822D01*
X149320633Y-58226822D01*
X149125605Y-58257711D01*
X148937810Y-58318730D01*
X148761864Y-58408380D01*
X148602122Y-58524437D01*
X148462484Y-58664075D01*
X148346427Y-58823817D01*
X148346425Y-58823821D01*
X148262723Y-58988095D01*
X148259854Y-58993725D01*
X148211879Y-59044521D01*
X148144058Y-59061316D01*
X148077923Y-59038778D01*
X148038884Y-58993725D01*
X147952313Y-58823821D01*
X147944855Y-58813556D01*
X147836253Y-58664075D01*
X147696615Y-58524437D01*
X147536873Y-58408380D01*
X147536872Y-58408379D01*
X147536870Y-58408378D01*
X147360930Y-58318731D01*
X147360927Y-58318730D01*
X147173132Y-58257711D01*
X146978105Y-58226822D01*
X146978100Y-58226822D01*
X146780638Y-58226822D01*
X146780633Y-58226822D01*
X146585605Y-58257711D01*
X146397810Y-58318730D01*
X146221864Y-58408380D01*
X146062122Y-58524437D01*
X145922484Y-58664075D01*
X145806427Y-58823817D01*
X145806425Y-58823821D01*
X145722723Y-58988095D01*
X145719854Y-58993725D01*
X145671879Y-59044521D01*
X145604058Y-59061316D01*
X145537923Y-59038778D01*
X145498884Y-58993725D01*
X145412313Y-58823821D01*
X145404855Y-58813556D01*
X145296253Y-58664075D01*
X145156615Y-58524437D01*
X144996873Y-58408380D01*
X144996872Y-58408379D01*
X144996870Y-58408378D01*
X144820930Y-58318731D01*
X144820927Y-58318730D01*
X144633132Y-58257711D01*
X144438105Y-58226822D01*
X144438100Y-58226822D01*
X144240638Y-58226822D01*
X144240633Y-58226822D01*
X144045605Y-58257711D01*
X143857810Y-58318730D01*
X143681864Y-58408380D01*
X143522122Y-58524437D01*
X143382484Y-58664075D01*
X143266427Y-58823817D01*
X143266425Y-58823821D01*
X143182723Y-58988095D01*
X143179854Y-58993725D01*
X143131879Y-59044521D01*
X143064058Y-59061316D01*
X142997923Y-59038778D01*
X142958884Y-58993725D01*
X142872313Y-58823821D01*
X142864855Y-58813556D01*
X142756253Y-58664075D01*
X142616615Y-58524437D01*
X142456873Y-58408380D01*
X142456872Y-58408379D01*
X142456870Y-58408378D01*
X142280930Y-58318731D01*
X142280927Y-58318730D01*
X142093132Y-58257711D01*
X141898105Y-58226822D01*
X141898100Y-58226822D01*
X141700638Y-58226822D01*
X141700633Y-58226822D01*
X141505605Y-58257711D01*
X141317810Y-58318730D01*
X141141864Y-58408380D01*
X140982122Y-58524437D01*
X140842484Y-58664075D01*
X140726427Y-58823817D01*
X140726425Y-58823821D01*
X140642723Y-58988095D01*
X140639854Y-58993725D01*
X140591879Y-59044521D01*
X140524058Y-59061316D01*
X140457923Y-59038778D01*
X140418884Y-58993725D01*
X140332313Y-58823821D01*
X140324855Y-58813556D01*
X140216253Y-58664075D01*
X140076615Y-58524437D01*
X139916874Y-58408380D01*
X139912361Y-58406080D01*
X139773957Y-58335559D01*
X139723164Y-58287588D01*
X139706369Y-58219767D01*
X139728906Y-58153632D01*
X139761365Y-58121975D01*
X139821813Y-58081584D01*
X139829289Y-58076589D01*
X139940789Y-57965089D01*
X140028394Y-57833979D01*
X140088737Y-57688297D01*
X140119500Y-57533642D01*
X140119500Y-57375958D01*
X140119500Y-57375955D01*
X140119499Y-57375953D01*
X140098841Y-57272098D01*
X140088737Y-57221303D01*
X140088735Y-57221298D01*
X140028397Y-57075627D01*
X140028390Y-57075614D01*
X139940789Y-56944511D01*
X139940786Y-56944507D01*
X139829292Y-56833013D01*
X139829288Y-56833010D01*
X139698185Y-56745409D01*
X139698172Y-56745402D01*
X139552501Y-56685064D01*
X139552489Y-56685061D01*
X139397845Y-56654300D01*
X139397842Y-56654300D01*
X139240158Y-56654300D01*
X139240155Y-56654300D01*
X139085510Y-56685061D01*
X139085498Y-56685064D01*
X138941136Y-56744861D01*
X138893684Y-56754300D01*
X124886320Y-56754300D01*
X124838868Y-56744861D01*
X124817148Y-56735864D01*
X124817136Y-56735861D01*
X124662492Y-56705100D01*
X124662489Y-56705100D01*
X124504805Y-56705100D01*
X124504802Y-56705100D01*
X124350157Y-56735861D01*
X124350145Y-56735864D01*
X124204474Y-56796202D01*
X124204461Y-56796209D01*
X124073358Y-56883810D01*
X124073354Y-56883813D01*
X123961860Y-56995307D01*
X123961857Y-56995311D01*
X123874256Y-57126414D01*
X123874249Y-57126427D01*
X123813911Y-57272098D01*
X123813908Y-57272110D01*
X123783147Y-57426753D01*
X123783147Y-57584446D01*
X123813908Y-57739089D01*
X123813911Y-57739101D01*
X123874249Y-57884772D01*
X123874256Y-57884785D01*
X123961857Y-58015888D01*
X123961860Y-58015892D01*
X123966229Y-58020261D01*
X123999714Y-58081584D01*
X123994730Y-58151276D01*
X123952858Y-58207209D01*
X123897946Y-58230415D01*
X123725605Y-58257711D01*
X123537810Y-58318730D01*
X123361864Y-58408380D01*
X123202122Y-58524437D01*
X123062484Y-58664075D01*
X122946427Y-58823817D01*
X122946425Y-58823821D01*
X122862723Y-58988095D01*
X122859854Y-58993725D01*
X122811879Y-59044521D01*
X122744058Y-59061316D01*
X122677923Y-59038778D01*
X122638884Y-58993725D01*
X122552313Y-58823821D01*
X122544855Y-58813556D01*
X122436253Y-58664075D01*
X122296615Y-58524437D01*
X122136873Y-58408380D01*
X122136872Y-58408379D01*
X122136870Y-58408378D01*
X121960930Y-58318731D01*
X121960927Y-58318730D01*
X121773132Y-58257711D01*
X121578105Y-58226822D01*
X121578100Y-58226822D01*
X121380638Y-58226822D01*
X121380633Y-58226822D01*
X121185605Y-58257711D01*
X120997810Y-58318730D01*
X120821864Y-58408380D01*
X120662122Y-58524437D01*
X120522484Y-58664075D01*
X120406427Y-58823817D01*
X120406425Y-58823821D01*
X120322723Y-58988095D01*
X120319854Y-58993725D01*
X120271879Y-59044521D01*
X120204058Y-59061316D01*
X120137923Y-59038778D01*
X120098884Y-58993725D01*
X120012313Y-58823821D01*
X120004855Y-58813556D01*
X119896253Y-58664075D01*
X119756615Y-58524437D01*
X119596873Y-58408380D01*
X119596872Y-58408379D01*
X119596870Y-58408378D01*
X119420930Y-58318731D01*
X119420927Y-58318730D01*
X119233132Y-58257711D01*
X119038105Y-58226822D01*
X119038100Y-58226822D01*
X118840638Y-58226822D01*
X118840633Y-58226822D01*
X118645605Y-58257711D01*
X118457810Y-58318730D01*
X118281864Y-58408380D01*
X118122122Y-58524437D01*
X117982484Y-58664075D01*
X117866427Y-58823817D01*
X117866425Y-58823821D01*
X117782723Y-58988095D01*
X117779854Y-58993725D01*
X117731879Y-59044521D01*
X117664058Y-59061316D01*
X117597923Y-59038778D01*
X117558884Y-58993725D01*
X117472313Y-58823821D01*
X117464855Y-58813556D01*
X117356253Y-58664075D01*
X117216615Y-58524437D01*
X117056873Y-58408380D01*
X117056872Y-58408379D01*
X117056870Y-58408378D01*
X116880930Y-58318731D01*
X116880927Y-58318730D01*
X116693132Y-58257711D01*
X116498105Y-58226822D01*
X116498100Y-58226822D01*
X116300638Y-58226822D01*
X116300633Y-58226822D01*
X116105605Y-58257711D01*
X115917810Y-58318730D01*
X115741864Y-58408380D01*
X115582122Y-58524437D01*
X115442484Y-58664075D01*
X115326427Y-58823817D01*
X115326425Y-58823821D01*
X115242723Y-58988095D01*
X115239854Y-58993725D01*
X115191879Y-59044521D01*
X115124058Y-59061316D01*
X115057923Y-59038778D01*
X115018884Y-58993725D01*
X114932313Y-58823821D01*
X114924855Y-58813556D01*
X114816253Y-58664075D01*
X114676615Y-58524437D01*
X114516873Y-58408380D01*
X114516872Y-58408379D01*
X114516870Y-58408378D01*
X114340930Y-58318731D01*
X114340927Y-58318730D01*
X114153132Y-58257711D01*
X113958105Y-58226822D01*
X113958100Y-58226822D01*
X113760638Y-58226822D01*
X113760633Y-58226822D01*
X113565605Y-58257711D01*
X113377810Y-58318730D01*
X113201864Y-58408380D01*
X113042122Y-58524437D01*
X112902484Y-58664075D01*
X112786427Y-58823817D01*
X112786425Y-58823821D01*
X112702723Y-58988095D01*
X112699854Y-58993725D01*
X112651879Y-59044521D01*
X112584058Y-59061316D01*
X112517923Y-59038778D01*
X112478884Y-58993725D01*
X112392313Y-58823821D01*
X112384855Y-58813556D01*
X112276253Y-58664075D01*
X112136615Y-58524437D01*
X111976873Y-58408380D01*
X111976872Y-58408379D01*
X111976870Y-58408378D01*
X111800930Y-58318731D01*
X111800927Y-58318730D01*
X111613132Y-58257711D01*
X111418105Y-58226822D01*
X111418100Y-58226822D01*
X111220638Y-58226822D01*
X111220633Y-58226822D01*
X111025606Y-58257711D01*
X110997216Y-58266936D01*
X110927375Y-58268930D01*
X110867543Y-58232848D01*
X110836716Y-58170147D01*
X110834900Y-58149004D01*
X110834900Y-44740718D01*
X110854585Y-44673679D01*
X110871215Y-44653041D01*
X111649786Y-43874469D01*
X111690010Y-43847592D01*
X111744635Y-43824966D01*
X111834373Y-43787797D01*
X111834376Y-43787795D01*
X111834379Y-43787794D01*
X111965489Y-43700189D01*
X112076989Y-43588689D01*
X112164594Y-43457579D01*
X112224937Y-43311897D01*
X112255700Y-43157242D01*
X112255700Y-42999558D01*
X112255700Y-42999555D01*
X112255699Y-42999553D01*
X112224937Y-42844903D01*
X112190308Y-42761300D01*
X112164597Y-42699227D01*
X112164590Y-42699214D01*
X112076989Y-42568111D01*
X112076986Y-42568107D01*
X111965492Y-42456613D01*
X111965488Y-42456610D01*
X111834385Y-42369009D01*
X111834372Y-42369002D01*
X111688701Y-42308664D01*
X111688689Y-42308661D01*
X111534045Y-42277900D01*
X111534042Y-42277900D01*
X111376358Y-42277900D01*
X111376355Y-42277900D01*
X111221710Y-42308661D01*
X111221698Y-42308664D01*
X111076027Y-42369002D01*
X111076014Y-42369009D01*
X110944911Y-42456610D01*
X110944907Y-42456613D01*
X110833413Y-42568107D01*
X110833410Y-42568111D01*
X110745809Y-42699214D01*
X110745804Y-42699223D01*
X110686009Y-42843584D01*
X110659129Y-42883812D01*
X109590287Y-43952654D01*
X109513622Y-44067392D01*
X109460821Y-44194867D01*
X109460818Y-44194877D01*
X109433900Y-44330204D01*
X109433900Y-58204797D01*
X109414215Y-58271836D01*
X109361411Y-58317591D01*
X109292253Y-58327535D01*
X109265570Y-58320216D01*
X109265564Y-58320236D01*
X109265142Y-58320098D01*
X109262459Y-58319363D01*
X109260935Y-58318732D01*
X109073133Y-58257712D01*
X108878105Y-58226822D01*
X108878100Y-58226822D01*
X108680638Y-58226822D01*
X108680633Y-58226822D01*
X108485605Y-58257711D01*
X108297810Y-58318730D01*
X108121864Y-58408380D01*
X107962122Y-58524437D01*
X107822484Y-58664075D01*
X107706427Y-58823817D01*
X107706425Y-58823821D01*
X107622723Y-58988095D01*
X107619854Y-58993725D01*
X107571879Y-59044521D01*
X107504058Y-59061316D01*
X107437923Y-59038778D01*
X107398884Y-58993725D01*
X107312313Y-58823821D01*
X107304855Y-58813556D01*
X107196253Y-58664075D01*
X107056615Y-58524437D01*
X106896873Y-58408380D01*
X106896872Y-58408379D01*
X106896870Y-58408378D01*
X106720930Y-58318731D01*
X106614568Y-58284172D01*
X106577181Y-58272024D01*
X106519506Y-58232586D01*
X106492308Y-58168227D01*
X106491500Y-58154093D01*
X106491500Y-56711716D01*
X106500939Y-56664264D01*
X106560735Y-56519901D01*
X106560737Y-56519897D01*
X106591500Y-56365242D01*
X106591500Y-56207558D01*
X106591500Y-56207555D01*
X106591499Y-56207553D01*
X106560738Y-56052910D01*
X106560737Y-56052903D01*
X106560735Y-56052898D01*
X106500397Y-55907227D01*
X106500390Y-55907214D01*
X106412789Y-55776111D01*
X106412786Y-55776107D01*
X106301292Y-55664613D01*
X106301288Y-55664610D01*
X106170185Y-55577009D01*
X106170172Y-55577002D01*
X106024501Y-55516664D01*
X106024489Y-55516661D01*
X105869845Y-55485900D01*
X105869842Y-55485900D01*
X105712158Y-55485900D01*
X105712155Y-55485900D01*
X105557510Y-55516661D01*
X105557498Y-55516664D01*
X105411827Y-55577002D01*
X105411814Y-55577009D01*
X105280711Y-55664610D01*
X105280707Y-55664613D01*
X105169213Y-55776107D01*
X105169210Y-55776111D01*
X105081609Y-55907214D01*
X105081602Y-55907227D01*
X105021264Y-56052898D01*
X105021261Y-56052910D01*
X104990500Y-56207553D01*
X104990500Y-56365246D01*
X105021261Y-56519889D01*
X105021264Y-56519901D01*
X105081061Y-56664264D01*
X105090500Y-56711716D01*
X105090500Y-58931800D01*
X105070815Y-58998839D01*
X105018011Y-59044594D01*
X104948853Y-59054538D01*
X104885297Y-59025513D01*
X104856017Y-58988097D01*
X104772313Y-58823821D01*
X104764855Y-58813556D01*
X104656253Y-58664075D01*
X104516615Y-58524437D01*
X104356873Y-58408380D01*
X104356872Y-58408379D01*
X104356870Y-58408378D01*
X104180930Y-58318731D01*
X104180927Y-58318730D01*
X103993132Y-58257711D01*
X103798105Y-58226822D01*
X103798100Y-58226822D01*
X103600638Y-58226822D01*
X103600633Y-58226822D01*
X103405605Y-58257711D01*
X103217810Y-58318730D01*
X103041864Y-58408380D01*
X102882122Y-58524437D01*
X102742484Y-58664075D01*
X102626427Y-58823817D01*
X102626425Y-58823821D01*
X102542723Y-58988095D01*
X102539854Y-58993725D01*
X102491879Y-59044521D01*
X102424058Y-59061316D01*
X102357923Y-59038778D01*
X102318884Y-58993725D01*
X102232313Y-58823821D01*
X102224855Y-58813556D01*
X102116253Y-58664075D01*
X101976615Y-58524437D01*
X101816873Y-58408380D01*
X101816872Y-58408379D01*
X101816870Y-58408378D01*
X101640930Y-58318731D01*
X101640927Y-58318730D01*
X101453132Y-58257711D01*
X101258105Y-58226822D01*
X101258100Y-58226822D01*
X101060638Y-58226822D01*
X101060633Y-58226822D01*
X100865605Y-58257711D01*
X100677810Y-58318730D01*
X100501864Y-58408380D01*
X100342122Y-58524437D01*
X100202484Y-58664075D01*
X100086427Y-58823817D01*
X100086425Y-58823821D01*
X100002723Y-58988095D01*
X99999854Y-58993725D01*
X99951879Y-59044521D01*
X99884058Y-59061316D01*
X99817923Y-59038778D01*
X99778884Y-58993725D01*
X99692313Y-58823821D01*
X99684855Y-58813556D01*
X99576253Y-58664075D01*
X99436615Y-58524437D01*
X99276873Y-58408380D01*
X99276872Y-58408379D01*
X99276870Y-58408378D01*
X99100930Y-58318731D01*
X99100927Y-58318730D01*
X98913133Y-58257712D01*
X98806474Y-58240818D01*
X98743340Y-58210888D01*
X98706409Y-58151576D01*
X98707407Y-58081714D01*
X98738190Y-58030666D01*
X99163483Y-57605374D01*
X99240144Y-57490642D01*
X99292949Y-57363159D01*
X99311060Y-57272110D01*
X99319869Y-57227827D01*
X99319869Y-37726207D01*
X99339554Y-37659168D01*
X99370984Y-37625889D01*
X99436617Y-37578204D01*
X99436617Y-37578203D01*
X99436621Y-37578201D01*
X99576248Y-37438574D01*
X99576250Y-37438570D01*
X99576253Y-37438568D01*
X99692310Y-37278827D01*
X99692311Y-37278826D01*
X99692313Y-37278823D01*
X99778886Y-37108915D01*
X99826859Y-37058122D01*
X99894680Y-37041327D01*
X99960815Y-37063864D01*
X99999851Y-37108915D01*
X100069537Y-37245679D01*
X100086427Y-37278827D01*
X100202484Y-37438568D01*
X100342122Y-37578206D01*
X100458868Y-37663025D01*
X100501868Y-37694266D01*
X100677808Y-37783913D01*
X100784786Y-37818672D01*
X100865605Y-37844932D01*
X101060633Y-37875822D01*
X101060638Y-37875822D01*
X101258105Y-37875822D01*
X101453132Y-37844932D01*
X101640930Y-37783913D01*
X101816870Y-37694266D01*
X101922657Y-37617408D01*
X101976615Y-37578206D01*
X101976617Y-37578203D01*
X101976621Y-37578201D01*
X102116248Y-37438574D01*
X102116250Y-37438570D01*
X102116253Y-37438568D01*
X102232310Y-37278827D01*
X102232311Y-37278826D01*
X102232313Y-37278823D01*
X102318886Y-37108915D01*
X102366859Y-37058122D01*
X102434680Y-37041327D01*
X102500815Y-37063864D01*
X102539851Y-37108915D01*
X102609537Y-37245679D01*
X102626427Y-37278827D01*
X102742484Y-37438568D01*
X102882122Y-37578206D01*
X102998868Y-37663025D01*
X103041868Y-37694266D01*
X103217808Y-37783913D01*
X103324786Y-37818672D01*
X103405605Y-37844932D01*
X103600633Y-37875822D01*
X103600638Y-37875822D01*
X103798105Y-37875822D01*
X103993132Y-37844932D01*
X104180930Y-37783913D01*
X104356870Y-37694266D01*
X104462657Y-37617408D01*
X104516615Y-37578206D01*
X104516617Y-37578203D01*
X104516621Y-37578201D01*
X104656248Y-37438574D01*
X104656250Y-37438570D01*
X104656253Y-37438568D01*
X104772310Y-37278827D01*
X104772311Y-37278826D01*
X104772313Y-37278823D01*
X104858886Y-37108915D01*
X104906859Y-37058122D01*
X104974680Y-37041327D01*
X105040815Y-37063864D01*
X105079851Y-37108915D01*
X105149537Y-37245679D01*
X105166427Y-37278827D01*
X105282484Y-37438568D01*
X105422122Y-37578206D01*
X105538868Y-37663025D01*
X105581868Y-37694266D01*
X105757808Y-37783913D01*
X105864786Y-37818672D01*
X105945605Y-37844932D01*
X106140633Y-37875822D01*
X106140638Y-37875822D01*
X106338097Y-37875822D01*
X106338100Y-37875822D01*
X106418234Y-37863129D01*
X106487524Y-37872083D01*
X106525311Y-37897921D01*
X110116300Y-41488911D01*
X110116301Y-41488912D01*
X110231037Y-41565576D01*
X110329637Y-41606417D01*
X110358518Y-41618380D01*
X110358519Y-41618380D01*
X110358524Y-41618382D01*
X110385392Y-41623725D01*
X110385398Y-41623726D01*
X110385438Y-41623734D01*
X110475784Y-41641705D01*
X110493853Y-41645300D01*
X110493854Y-41645300D01*
X144967680Y-41645300D01*
X145034719Y-41664985D01*
X145080474Y-41717789D01*
X145090418Y-41786947D01*
X145089297Y-41793492D01*
X145071700Y-41881955D01*
X145071700Y-42039646D01*
X145102461Y-42194289D01*
X145102464Y-42194301D01*
X145162802Y-42339972D01*
X145162809Y-42339985D01*
X145250410Y-42471088D01*
X145250413Y-42471092D01*
X145361907Y-42582586D01*
X145361911Y-42582589D01*
X145493014Y-42670190D01*
X145493027Y-42670197D01*
X145563113Y-42699227D01*
X145638703Y-42730537D01*
X145793353Y-42761299D01*
X145793356Y-42761300D01*
X145793358Y-42761300D01*
X145951044Y-42761300D01*
X145951045Y-42761299D01*
X146105697Y-42730537D01*
X146251379Y-42670194D01*
X146382489Y-42582589D01*
X146493989Y-42471089D01*
X146581594Y-42339979D01*
X146641937Y-42194297D01*
X146672700Y-42039642D01*
X146672700Y-41881958D01*
X146672700Y-41881955D01*
X146672699Y-41881953D01*
X146641938Y-41727310D01*
X146641937Y-41727303D01*
X146582139Y-41582936D01*
X146572700Y-41535484D01*
X146572700Y-41333004D01*
X146572699Y-41333002D01*
X146545783Y-41197682D01*
X146545781Y-41197677D01*
X146545780Y-41197672D01*
X146543042Y-41191063D01*
X146523907Y-41144866D01*
X146511945Y-41115987D01*
X146492978Y-41070194D01*
X146492971Y-41070182D01*
X146416315Y-40955459D01*
X146416314Y-40955458D01*
X146318742Y-40857886D01*
X145861546Y-40400688D01*
X145861545Y-40400687D01*
X145746807Y-40324022D01*
X145619332Y-40271221D01*
X145619322Y-40271218D01*
X145483996Y-40244300D01*
X145483994Y-40244300D01*
X145483993Y-40244300D01*
X137078940Y-40244300D01*
X137011901Y-40224615D01*
X136966146Y-40171811D01*
X136956202Y-40102653D01*
X136985227Y-40039097D01*
X137010049Y-40017198D01*
X137047222Y-39992358D01*
X137086089Y-39966389D01*
X137197589Y-39854889D01*
X137285194Y-39723779D01*
X137345537Y-39578097D01*
X137376300Y-39423442D01*
X137376300Y-39265758D01*
X137376300Y-39265755D01*
X137376299Y-39265753D01*
X137359244Y-39180011D01*
X137345537Y-39111103D01*
X137312798Y-39032063D01*
X137285197Y-38965427D01*
X137285190Y-38965414D01*
X137197589Y-38834311D01*
X137197586Y-38834307D01*
X137086092Y-38722813D01*
X137086088Y-38722810D01*
X136954985Y-38635209D01*
X136954972Y-38635202D01*
X136809301Y-38574864D01*
X136809289Y-38574861D01*
X136654645Y-38544100D01*
X136654642Y-38544100D01*
X136496958Y-38544100D01*
X136496955Y-38544100D01*
X136342310Y-38574861D01*
X136342298Y-38574864D01*
X136197936Y-38634661D01*
X136150484Y-38644100D01*
X114384166Y-38644100D01*
X114317127Y-38624415D01*
X114296485Y-38607781D01*
X113776207Y-38087503D01*
X113742722Y-38026180D01*
X113747706Y-37956488D01*
X113789578Y-37900555D01*
X113855042Y-37876138D01*
X113863888Y-37875822D01*
X113958105Y-37875822D01*
X114153132Y-37844932D01*
X114340930Y-37783913D01*
X114516870Y-37694266D01*
X114622657Y-37617408D01*
X114676615Y-37578206D01*
X114676617Y-37578203D01*
X114676621Y-37578201D01*
X114816248Y-37438574D01*
X114816250Y-37438570D01*
X114816253Y-37438568D01*
X114932310Y-37278827D01*
X114932311Y-37278826D01*
X114932313Y-37278823D01*
X115018886Y-37108915D01*
X115066859Y-37058122D01*
X115134680Y-37041327D01*
X115200815Y-37063864D01*
X115239851Y-37108915D01*
X115309537Y-37245679D01*
X115326427Y-37278827D01*
X115442484Y-37438568D01*
X115582122Y-37578206D01*
X115698868Y-37663025D01*
X115741868Y-37694266D01*
X115917808Y-37783913D01*
X116024786Y-37818672D01*
X116105605Y-37844932D01*
X116300633Y-37875822D01*
X116300638Y-37875822D01*
X116498105Y-37875822D01*
X116693132Y-37844932D01*
X116880930Y-37783913D01*
X117056870Y-37694266D01*
X117162657Y-37617408D01*
X117216615Y-37578206D01*
X117216617Y-37578203D01*
X117216621Y-37578201D01*
X117356248Y-37438574D01*
X117356250Y-37438570D01*
X117356253Y-37438568D01*
X117472310Y-37278827D01*
X117472311Y-37278826D01*
X117472313Y-37278823D01*
X117558886Y-37108915D01*
X117606859Y-37058122D01*
X117674680Y-37041327D01*
X117740815Y-37063864D01*
X117779851Y-37108915D01*
X117849537Y-37245679D01*
X117866427Y-37278827D01*
X117982484Y-37438568D01*
X118122122Y-37578206D01*
X118238868Y-37663025D01*
X118281868Y-37694266D01*
X118457808Y-37783913D01*
X118564786Y-37818672D01*
X118645605Y-37844932D01*
X118840633Y-37875822D01*
X118840638Y-37875822D01*
X119038105Y-37875822D01*
X119233132Y-37844932D01*
X119420930Y-37783913D01*
X119596870Y-37694266D01*
X119702657Y-37617408D01*
X119756615Y-37578206D01*
X119756617Y-37578203D01*
X119756621Y-37578201D01*
X119896248Y-37438574D01*
X119896250Y-37438570D01*
X119896253Y-37438568D01*
X120012310Y-37278827D01*
X120012311Y-37278826D01*
X120012313Y-37278823D01*
X120098886Y-37108915D01*
X120146859Y-37058122D01*
X120214680Y-37041327D01*
X120280815Y-37063864D01*
X120319851Y-37108915D01*
X120389537Y-37245679D01*
X120406427Y-37278827D01*
X120522484Y-37438568D01*
X120662122Y-37578206D01*
X120778868Y-37663025D01*
X120821868Y-37694266D01*
X120997808Y-37783913D01*
X121104786Y-37818672D01*
X121185605Y-37844932D01*
X121380633Y-37875822D01*
X121380638Y-37875822D01*
X121578105Y-37875822D01*
X121773132Y-37844932D01*
X121960930Y-37783913D01*
X122136870Y-37694266D01*
X122242657Y-37617408D01*
X122296615Y-37578206D01*
X122296617Y-37578203D01*
X122296621Y-37578201D01*
X122436248Y-37438574D01*
X122436250Y-37438570D01*
X122436253Y-37438568D01*
X122552310Y-37278827D01*
X122552311Y-37278826D01*
X122552313Y-37278823D01*
X122638886Y-37108915D01*
X122686859Y-37058122D01*
X122754680Y-37041327D01*
X122820815Y-37063864D01*
X122859851Y-37108915D01*
X122929537Y-37245679D01*
X122946427Y-37278827D01*
X123062484Y-37438568D01*
X123202122Y-37578206D01*
X123318868Y-37663025D01*
X123361868Y-37694266D01*
X123537808Y-37783913D01*
X123644786Y-37818672D01*
X123725605Y-37844932D01*
X123920633Y-37875822D01*
X123920638Y-37875822D01*
X124118105Y-37875822D01*
X124313132Y-37844932D01*
X124500930Y-37783913D01*
X124676870Y-37694266D01*
X124782657Y-37617408D01*
X124836615Y-37578206D01*
X124836617Y-37578203D01*
X124836621Y-37578201D01*
X124976248Y-37438574D01*
X124976250Y-37438570D01*
X124976253Y-37438568D01*
X125092310Y-37278827D01*
X125092311Y-37278826D01*
X125092313Y-37278823D01*
X125178886Y-37108915D01*
X125226859Y-37058122D01*
X125294680Y-37041327D01*
X125360815Y-37063864D01*
X125399851Y-37108915D01*
X125469537Y-37245679D01*
X125486427Y-37278827D01*
X125602484Y-37438568D01*
X125742122Y-37578206D01*
X125858868Y-37663025D01*
X125901868Y-37694266D01*
X126077808Y-37783913D01*
X126184786Y-37818672D01*
X126265605Y-37844932D01*
X126460633Y-37875822D01*
X126460638Y-37875822D01*
X126658105Y-37875822D01*
X126853132Y-37844932D01*
X127040930Y-37783913D01*
X127216870Y-37694266D01*
X127322657Y-37617408D01*
X127376615Y-37578206D01*
X127376617Y-37578203D01*
X127376621Y-37578201D01*
X127516248Y-37438574D01*
X127516250Y-37438570D01*
X127516253Y-37438568D01*
X127632310Y-37278827D01*
X127632311Y-37278826D01*
X127632313Y-37278823D01*
X127718886Y-37108915D01*
X127766859Y-37058122D01*
X127834680Y-37041327D01*
X127900815Y-37063864D01*
X127939851Y-37108915D01*
X128009537Y-37245679D01*
X128026427Y-37278827D01*
X128142484Y-37438568D01*
X128282122Y-37578206D01*
X128398868Y-37663025D01*
X128441868Y-37694266D01*
X128617808Y-37783913D01*
X128724786Y-37818672D01*
X128805605Y-37844932D01*
X129000633Y-37875822D01*
X129000638Y-37875822D01*
X129198105Y-37875822D01*
X129393132Y-37844932D01*
X129580930Y-37783913D01*
X129756870Y-37694266D01*
X129862657Y-37617408D01*
X129916615Y-37578206D01*
X129916617Y-37578203D01*
X129916621Y-37578201D01*
X130056248Y-37438574D01*
X130056250Y-37438570D01*
X130056253Y-37438568D01*
X130172310Y-37278827D01*
X130172311Y-37278826D01*
X130172313Y-37278823D01*
X130258886Y-37108915D01*
X130306859Y-37058122D01*
X130374680Y-37041327D01*
X130440815Y-37063864D01*
X130479851Y-37108915D01*
X130549537Y-37245679D01*
X130566427Y-37278827D01*
X130682484Y-37438568D01*
X130822122Y-37578206D01*
X130938868Y-37663025D01*
X130981868Y-37694266D01*
X131157808Y-37783913D01*
X131264786Y-37818672D01*
X131345605Y-37844932D01*
X131540633Y-37875822D01*
X131540638Y-37875822D01*
X131738105Y-37875822D01*
X131933132Y-37844932D01*
X132120930Y-37783913D01*
X132296870Y-37694266D01*
X132402657Y-37617408D01*
X132456615Y-37578206D01*
X132456617Y-37578203D01*
X132456621Y-37578201D01*
X132596248Y-37438574D01*
X132596250Y-37438570D01*
X132596253Y-37438568D01*
X132712310Y-37278827D01*
X132712311Y-37278826D01*
X132712313Y-37278823D01*
X132798886Y-37108915D01*
X132846859Y-37058122D01*
X132914680Y-37041327D01*
X132980815Y-37063864D01*
X133019851Y-37108915D01*
X133089537Y-37245679D01*
X133106427Y-37278827D01*
X133222484Y-37438568D01*
X133362122Y-37578206D01*
X133478868Y-37663025D01*
X133521868Y-37694266D01*
X133697808Y-37783913D01*
X133804786Y-37818672D01*
X133885605Y-37844932D01*
X134080633Y-37875822D01*
X134080638Y-37875822D01*
X134278105Y-37875822D01*
X134473132Y-37844932D01*
X134660930Y-37783913D01*
X134836870Y-37694266D01*
X134942657Y-37617408D01*
X134996615Y-37578206D01*
X134996617Y-37578203D01*
X134996621Y-37578201D01*
X135136248Y-37438574D01*
X135136250Y-37438570D01*
X135136253Y-37438568D01*
X135252310Y-37278827D01*
X135252311Y-37278826D01*
X135252313Y-37278823D01*
X135338886Y-37108915D01*
X135386859Y-37058122D01*
X135454680Y-37041327D01*
X135520815Y-37063864D01*
X135559851Y-37108915D01*
X135629537Y-37245679D01*
X135646427Y-37278827D01*
X135762484Y-37438568D01*
X135902122Y-37578206D01*
X136018868Y-37663025D01*
X136061868Y-37694266D01*
X136237808Y-37783913D01*
X136344786Y-37818672D01*
X136425605Y-37844932D01*
X136620633Y-37875822D01*
X136620638Y-37875822D01*
X136818105Y-37875822D01*
X137013132Y-37844932D01*
X137200930Y-37783913D01*
X137376870Y-37694266D01*
X137482657Y-37617408D01*
X137536615Y-37578206D01*
X137536617Y-37578203D01*
X137536621Y-37578201D01*
X137676248Y-37438574D01*
X137676250Y-37438570D01*
X137676253Y-37438568D01*
X137792310Y-37278827D01*
X137792311Y-37278826D01*
X137792313Y-37278823D01*
X137878886Y-37108915D01*
X137926859Y-37058122D01*
X137994680Y-37041327D01*
X138060815Y-37063864D01*
X138099851Y-37108915D01*
X138169537Y-37245679D01*
X138186427Y-37278827D01*
X138302484Y-37438568D01*
X138442122Y-37578206D01*
X138558868Y-37663025D01*
X138601868Y-37694266D01*
X138777808Y-37783913D01*
X138884786Y-37818672D01*
X138965605Y-37844932D01*
X139160633Y-37875822D01*
X139160638Y-37875822D01*
X139358105Y-37875822D01*
X139553132Y-37844932D01*
X139740930Y-37783913D01*
X139916870Y-37694266D01*
X140022657Y-37617408D01*
X140076615Y-37578206D01*
X140076617Y-37578203D01*
X140076621Y-37578201D01*
X140216248Y-37438574D01*
X140216250Y-37438570D01*
X140216253Y-37438568D01*
X140332310Y-37278827D01*
X140332311Y-37278826D01*
X140332313Y-37278823D01*
X140418886Y-37108915D01*
X140466859Y-37058122D01*
X140534680Y-37041327D01*
X140600815Y-37063864D01*
X140639851Y-37108915D01*
X140709537Y-37245679D01*
X140726427Y-37278827D01*
X140842484Y-37438568D01*
X140982122Y-37578206D01*
X141098868Y-37663025D01*
X141141868Y-37694266D01*
X141317808Y-37783913D01*
X141424786Y-37818672D01*
X141505605Y-37844932D01*
X141700633Y-37875822D01*
X141700638Y-37875822D01*
X141898105Y-37875822D01*
X142093132Y-37844932D01*
X142280930Y-37783913D01*
X142456870Y-37694266D01*
X142562657Y-37617408D01*
X142616615Y-37578206D01*
X142616617Y-37578203D01*
X142616621Y-37578201D01*
X142756248Y-37438574D01*
X142756250Y-37438570D01*
X142756253Y-37438568D01*
X142872310Y-37278827D01*
X142872311Y-37278826D01*
X142872313Y-37278823D01*
X142958886Y-37108915D01*
X143006859Y-37058122D01*
X143074680Y-37041327D01*
X143140815Y-37063864D01*
X143179851Y-37108915D01*
X143249537Y-37245679D01*
X143266427Y-37278827D01*
X143382484Y-37438568D01*
X143522122Y-37578206D01*
X143638868Y-37663025D01*
X143681868Y-37694266D01*
X143857808Y-37783913D01*
X143964786Y-37818672D01*
X144045605Y-37844932D01*
X144240633Y-37875822D01*
X144240638Y-37875822D01*
X144438105Y-37875822D01*
X144633132Y-37844932D01*
X144820930Y-37783913D01*
X144996870Y-37694266D01*
X145102657Y-37617408D01*
X145156615Y-37578206D01*
X145156617Y-37578203D01*
X145156621Y-37578201D01*
X145296248Y-37438574D01*
X145296250Y-37438570D01*
X145296253Y-37438568D01*
X145412310Y-37278827D01*
X145412311Y-37278826D01*
X145412313Y-37278823D01*
X145498886Y-37108915D01*
X145546859Y-37058122D01*
X145614680Y-37041327D01*
X145680815Y-37063864D01*
X145719851Y-37108915D01*
X145789537Y-37245679D01*
X145806427Y-37278827D01*
X145922484Y-37438568D01*
X146062122Y-37578206D01*
X146178868Y-37663025D01*
X146221868Y-37694266D01*
X146397808Y-37783913D01*
X146504786Y-37818672D01*
X146585605Y-37844932D01*
X146780633Y-37875822D01*
X146780638Y-37875822D01*
X146978105Y-37875822D01*
X147173132Y-37844932D01*
X147360930Y-37783913D01*
X147536870Y-37694266D01*
X147642657Y-37617408D01*
X147696615Y-37578206D01*
X147696617Y-37578203D01*
X147696621Y-37578201D01*
X147836248Y-37438574D01*
X147941052Y-37294322D01*
X147996380Y-37251658D01*
X148065993Y-37245679D01*
X148127789Y-37278284D01*
X148162146Y-37339122D01*
X148165369Y-37367209D01*
X148165369Y-37423166D01*
X148171770Y-37482694D01*
X148171772Y-37482701D01*
X148222014Y-37617408D01*
X148222018Y-37617415D01*
X148308178Y-37732509D01*
X148308181Y-37732512D01*
X148423275Y-37818672D01*
X148423282Y-37818676D01*
X148557989Y-37868918D01*
X148557996Y-37868920D01*
X148617524Y-37875321D01*
X148617541Y-37875322D01*
X149169369Y-37875322D01*
X149169369Y-37054334D01*
X149226376Y-37087247D01*
X149353543Y-37121322D01*
X149485195Y-37121322D01*
X149612362Y-37087247D01*
X149669369Y-37054334D01*
X149669369Y-37875322D01*
X150221197Y-37875322D01*
X150221213Y-37875321D01*
X150280741Y-37868920D01*
X150280748Y-37868918D01*
X150415455Y-37818676D01*
X150415462Y-37818672D01*
X150530556Y-37732512D01*
X150530559Y-37732509D01*
X150616719Y-37617415D01*
X150616723Y-37617408D01*
X150666965Y-37482701D01*
X150666967Y-37482694D01*
X150673368Y-37423166D01*
X150673369Y-37423149D01*
X150673369Y-36871322D01*
X149852381Y-36871322D01*
X149885294Y-36814315D01*
X149919369Y-36687148D01*
X149919369Y-36555496D01*
X149885294Y-36428329D01*
X149852381Y-36371322D01*
X150673369Y-36371322D01*
X150673369Y-35819494D01*
X150673368Y-35819477D01*
X150666967Y-35759949D01*
X150666965Y-35759942D01*
X150618811Y-35630833D01*
X150613827Y-35561142D01*
X150647312Y-35499818D01*
X150708635Y-35466334D01*
X150734993Y-35463500D01*
X172705100Y-35463500D01*
X172772139Y-35483185D01*
G37*
%TD.AperFunction*%
%TA.AperFunction,Conductor*%
G36*
X89757903Y-97562164D02*
G01*
X89787185Y-97599582D01*
X89839587Y-97702425D01*
X89969152Y-97880758D01*
X89969156Y-97880763D01*
X90125036Y-98036643D01*
X90125041Y-98036647D01*
X90237551Y-98118390D01*
X90280217Y-98173719D01*
X90286196Y-98243333D01*
X90253591Y-98305128D01*
X90239913Y-98316979D01*
X90239885Y-98317332D01*
X90907990Y-98985437D01*
X90844407Y-99002475D01*
X90730393Y-99068301D01*
X90637301Y-99161393D01*
X90571475Y-99275407D01*
X90554437Y-99338990D01*
X89886332Y-98670885D01*
X89886331Y-98670885D01*
X89840016Y-98734633D01*
X89787185Y-98838321D01*
X89739210Y-98889117D01*
X89671389Y-98905912D01*
X89605254Y-98883374D01*
X89561803Y-98828659D01*
X89552700Y-98782026D01*
X89552700Y-97655877D01*
X89572385Y-97588838D01*
X89625189Y-97543083D01*
X89694347Y-97533139D01*
X89757903Y-97562164D01*
G37*
%TD.AperFunction*%
%TA.AperFunction,Conductor*%
G36*
X90506875Y-84252393D02*
G01*
X90572701Y-84366407D01*
X90665793Y-84459499D01*
X90779807Y-84525325D01*
X90843390Y-84542362D01*
X90175285Y-85210465D01*
X90175285Y-85210466D01*
X90239043Y-85256788D01*
X90435389Y-85356832D01*
X90644964Y-85424926D01*
X90862619Y-85459400D01*
X91082981Y-85459400D01*
X91300635Y-85424926D01*
X91510210Y-85356832D01*
X91706560Y-85256786D01*
X91770313Y-85210466D01*
X91770314Y-85210466D01*
X91102209Y-84542362D01*
X91165793Y-84525325D01*
X91279807Y-84459499D01*
X91372899Y-84366407D01*
X91438725Y-84252393D01*
X91455762Y-84188810D01*
X92140277Y-84873325D01*
X92147346Y-84874810D01*
X92197104Y-84923860D01*
X92212700Y-84984065D01*
X92212700Y-92251080D01*
X92193015Y-92318119D01*
X92176381Y-92338761D01*
X91483561Y-93031581D01*
X91422238Y-93065066D01*
X91395880Y-93067900D01*
X90089529Y-93067900D01*
X90089523Y-93067901D01*
X90029916Y-93074308D01*
X89895071Y-93124602D01*
X89895064Y-93124606D01*
X89779855Y-93210852D01*
X89775966Y-93216048D01*
X89720032Y-93257918D01*
X89650340Y-93262902D01*
X89589017Y-93229416D01*
X89555533Y-93168092D01*
X89552700Y-93141736D01*
X89552700Y-84868254D01*
X89572385Y-84801215D01*
X89625189Y-84755460D01*
X89694347Y-84745516D01*
X89757903Y-84774541D01*
X89777019Y-84795370D01*
X89821732Y-84856913D01*
X90489837Y-84188808D01*
X90506875Y-84252393D01*
G37*
%TD.AperFunction*%
%TA.AperFunction,Conductor*%
G36*
X89690723Y-82246889D02*
G01*
X89694347Y-82246368D01*
X89723031Y-82259467D01*
X89752421Y-82270910D01*
X89755879Y-82274468D01*
X89757903Y-82275393D01*
X89777018Y-82296221D01*
X89904552Y-82471759D01*
X90060436Y-82627643D01*
X90060441Y-82627647D01*
X90172951Y-82709390D01*
X90215617Y-82764719D01*
X90221596Y-82834333D01*
X90188991Y-82896128D01*
X90175313Y-82907979D01*
X90175285Y-82908332D01*
X90843390Y-83576437D01*
X90779807Y-83593475D01*
X90665793Y-83659301D01*
X90572701Y-83752393D01*
X90506875Y-83866407D01*
X90489837Y-83929990D01*
X89821732Y-83261885D01*
X89821731Y-83261885D01*
X89777019Y-83323428D01*
X89721689Y-83366095D01*
X89652076Y-83372074D01*
X89590281Y-83339469D01*
X89555923Y-83278631D01*
X89552700Y-83250544D01*
X89552700Y-82369106D01*
X89561583Y-82338850D01*
X89568728Y-82308131D01*
X89571353Y-82305579D01*
X89572385Y-82302067D01*
X89596213Y-82281419D01*
X89618834Y-82259436D01*
X89622422Y-82258708D01*
X89625189Y-82256312D01*
X89656401Y-82251824D01*
X89687312Y-82245561D01*
X89690723Y-82246889D01*
G37*
%TD.AperFunction*%
%TA.AperFunction,Conductor*%
G36*
X92132034Y-82483287D02*
G01*
X92187967Y-82525159D01*
X92212384Y-82590623D01*
X92212700Y-82599469D01*
X92212700Y-83134733D01*
X92193015Y-83201772D01*
X92140211Y-83247527D01*
X92137797Y-83247953D01*
X91455762Y-83929989D01*
X91438725Y-83866407D01*
X91372899Y-83752393D01*
X91279807Y-83659301D01*
X91165793Y-83593475D01*
X91102207Y-83576437D01*
X91770313Y-82908332D01*
X91770196Y-82906850D01*
X91729981Y-82854699D01*
X91724000Y-82785086D01*
X91756605Y-82723290D01*
X91772642Y-82709393D01*
X91885165Y-82627642D01*
X92001019Y-82511788D01*
X92062342Y-82478303D01*
X92132034Y-82483287D01*
G37*
%TD.AperFunction*%
%TD*%
M02*
