%TF.GenerationSoftware,KiCad,Pcbnew,10.0.3*%
%TF.CreationDate,2026-06-29T01:09:33+05:45*%
%TF.ProjectId,esp32 oscilloscope adn fucntion generator,65737033-3220-46f7-9363-696c6c6f7363,rev?*%
%TF.SameCoordinates,Original*%
%TF.FileFunction,Copper,L2,Inr*%
%TF.FilePolarity,Positive*%
%FSLAX46Y46*%
G04 Gerber Fmt 4.6, Leading zero omitted, Abs format (unit mm)*
G04 Created by KiCad (PCBNEW 10.0.3) date 2026-06-29 01:09:33*
%MOMM*%
%LPD*%
G01*
G04 APERTURE LIST*
%TA.AperFunction,ComponentPad*%
%ADD10R,1.350000X1.350000*%
%TD*%
%TA.AperFunction,ComponentPad*%
%ADD11C,1.350000*%
%TD*%
%TA.AperFunction,ComponentPad*%
%ADD12C,3.240000*%
%TD*%
%TA.AperFunction,ComponentPad*%
%ADD13R,1.800000X1.800000*%
%TD*%
%TA.AperFunction,ComponentPad*%
%ADD14C,1.800000*%
%TD*%
%TA.AperFunction,ComponentPad*%
%ADD15C,2.000000*%
%TD*%
%TA.AperFunction,ComponentPad*%
%ADD16R,3.500000X3.500000*%
%TD*%
%TA.AperFunction,ComponentPad*%
%ADD17C,4.000000*%
%TD*%
%TA.AperFunction,ComponentPad*%
%ADD18R,1.600000X1.600000*%
%TD*%
%TA.AperFunction,ComponentPad*%
%ADD19C,1.600000*%
%TD*%
%TA.AperFunction,ComponentPad*%
%ADD20R,1.508000X1.508000*%
%TD*%
%TA.AperFunction,ComponentPad*%
%ADD21C,1.508000*%
%TD*%
%TA.AperFunction,ViaPad*%
%ADD22C,0.600000*%
%TD*%
G04 APERTURE END LIST*
D10*
%TO.N,-5V*%
%TO.C,J3*%
X90932000Y-68926200D03*
D11*
%TO.N,GND*%
X90932000Y-70926200D03*
%TD*%
D12*
%TO.N,*%
%TO.C,RV2*%
X98537400Y-92168400D03*
X98537400Y-101768400D03*
D13*
%TO.N,GND*%
X91037400Y-94468400D03*
D14*
%TO.N,/P2*%
X91037400Y-96968400D03*
%TO.N,+3.3V*%
X91037400Y-99468400D03*
%TD*%
D12*
%TO.N,*%
%TO.C,RV1*%
X98472800Y-76759400D03*
X98472800Y-86359400D03*
D13*
%TO.N,GND*%
X90972800Y-79059400D03*
D14*
%TO.N,/P1*%
X90972800Y-81559400D03*
%TO.N,+3.3V*%
X90972800Y-84059400D03*
%TD*%
D15*
%TO.N,GND*%
%TO.C,SW4*%
X127863600Y-125580000D03*
X127863600Y-132080000D03*
%TO.N,/BT_CANCEL*%
X123363600Y-125580000D03*
X123363600Y-132080000D03*
%TD*%
%TO.N,/BT_OK*%
%TO.C,SW2*%
X103185400Y-132205800D03*
X103185400Y-125705800D03*
%TO.N,GND*%
X107685400Y-132205800D03*
X107685400Y-125705800D03*
%TD*%
%TO.N,GND*%
%TO.C,SW1*%
X97409000Y-125757800D03*
X97409000Y-132257800D03*
%TO.N,/BT+*%
X92909000Y-125757800D03*
X92909000Y-132257800D03*
%TD*%
%TO.N,GND*%
%TO.C,SW3*%
X117851000Y-125629600D03*
X117851000Y-132129600D03*
%TO.N,/BT-*%
X113351000Y-125629600D03*
X113351000Y-132129600D03*
%TD*%
D16*
%TO.N,GND*%
%TO.C,J2*%
X162255200Y-126601000D03*
D17*
%TO.N,Net-(J2-Ext)*%
X157230200Y-121576000D03*
X157230200Y-131626000D03*
X167280200Y-121576000D03*
X167280200Y-131626000D03*
%TD*%
D18*
%TO.N,Net-(SW6-A)*%
%TO.C,SW6*%
X134340600Y-129159800D03*
D19*
%TO.N,Net-(SW5-A)*%
X136840600Y-129159800D03*
%TO.N,/ADC_IN*%
X139340600Y-129159800D03*
%TO.N,N/C*%
X134340600Y-132359800D03*
X136840600Y-132359800D03*
X139340600Y-132359800D03*
%TD*%
D18*
%TO.N,Net-(SW5-A)*%
%TO.C,SW5*%
X143916400Y-129134000D03*
D19*
%TO.N,Net-(J2-Ext)*%
X146416400Y-129134000D03*
%TO.N,Net-(SW5-C)*%
X148916400Y-129134000D03*
%TO.N,N/C*%
X143916400Y-132334000D03*
X146416400Y-132334000D03*
X148916400Y-132334000D03*
%TD*%
D10*
%TO.N,/BACKLIGHT*%
%TO.C,J1*%
X143598400Y-76936600D03*
D11*
%TO.N,unconnected-(J1-Pin_2-Pad2)*%
X141598400Y-76936600D03*
%TO.N,/DC*%
X139598400Y-76936600D03*
%TO.N,/TFT_RST*%
X137598400Y-76936600D03*
%TO.N,/CS*%
X135598400Y-76936600D03*
%TO.N,/MOSI*%
X133598400Y-76936600D03*
%TO.N,unconnected-(J1-Pin_7-Pad7)*%
X131598400Y-76936600D03*
%TO.N,/SCK*%
X129598400Y-76936600D03*
%TO.N,+3.3V*%
X127598400Y-76936600D03*
%TO.N,GND*%
X125598400Y-76936600D03*
%TD*%
D20*
%TO.N,+3.3V*%
%TO.C,U1*%
X149419369Y-36621322D03*
D21*
%TO.N,unconnected-(U1-GPIO0-PadJ1_2)*%
X146879369Y-36621322D03*
%TO.N,unconnected-(U1-GPIO1-PadJ1_3)*%
X144339369Y-36621322D03*
%TO.N,unconnected-(U1-GPIO2-PadJ1_4)*%
X141799369Y-36621322D03*
%TO.N,unconnected-(U1-GPIO3-PadJ1_5)*%
X139259369Y-36621322D03*
%TO.N,unconnected-(U1-GPIO4-PadJ1_6)*%
X136719369Y-36621322D03*
%TO.N,/CS*%
X134179369Y-36621322D03*
%TO.N,unconnected-(U1-GPIO6-PadJ1_8)*%
X131639369Y-36621322D03*
%TO.N,unconnected-(U1-GPIO7-PadJ1_9)*%
X129099369Y-36621322D03*
%TO.N,unconnected-(U1-GPIO8-PadJ1_10)*%
X126559369Y-36621322D03*
%TO.N,unconnected-(U1-GPIO9-PadJ1_11)*%
X124019369Y-36621322D03*
%TO.N,unconnected-(U1-GPIO10-PadJ1_12)*%
X121479369Y-36621322D03*
%TO.N,unconnected-(U1-GPIO11-PadJ1_13)*%
X118939369Y-36621322D03*
%TO.N,unconnected-(U1-GPIO12-PadJ1_14)*%
X116399369Y-36621322D03*
%TO.N,unconnected-(U1-GPIO13-PadJ1_15)*%
X113859369Y-36621322D03*
%TO.N,/TFT_RST*%
X111319369Y-36621322D03*
%TO.N,/BT-*%
X108779369Y-36621322D03*
%TO.N,/BACKLIGHT*%
X106239369Y-36621322D03*
%TO.N,/DC*%
X103699369Y-36621322D03*
%TO.N,/MOSI*%
X103699369Y-59481322D03*
%TO.N,/DSO*%
X106239369Y-59481322D03*
%TO.N,/P2*%
X108779369Y-59481322D03*
%TO.N,/P1*%
X111319369Y-59481322D03*
%TO.N,/BT_CANCEL*%
X113859369Y-59481322D03*
%TO.N,/BT+*%
X116399369Y-59481322D03*
%TO.N,/BT_OK*%
X118939369Y-59481322D03*
%TO.N,/ADC_IN*%
X121479369Y-59481322D03*
%TO.N,unconnected-(U1-GPIO38-PadJ3_11)*%
X124019369Y-59481322D03*
%TO.N,unconnected-(U1-GPIO39-PadJ3_10)*%
X126559369Y-59481322D03*
%TO.N,unconnected-(U1-GPIO40-PadJ3_9)*%
X129099369Y-59481322D03*
%TO.N,unconnected-(U1-GPIO41-PadJ3_8)*%
X131639369Y-59481322D03*
%TO.N,unconnected-(U1-GPIO42-PadJ3_7)*%
X134179369Y-59481322D03*
%TO.N,unconnected-(U1-U0TXD-PadJ3_6)*%
X136719369Y-59481322D03*
%TO.N,unconnected-(U1-U0RXD-PadJ3_5)*%
X139259369Y-59481322D03*
%TO.N,unconnected-(U1-GPIO45-PadJ3_4)*%
X141799369Y-59481322D03*
%TO.N,unconnected-(U1-GPIO46-PadJ3_3)*%
X144339369Y-59481322D03*
%TO.N,unconnected-(U1-RST-PadJ3_2)*%
X146879369Y-59481322D03*
%TO.N,GND*%
X149419369Y-59481322D03*
%TO.N,-5V*%
X101159369Y-36621322D03*
%TO.N,GND*%
X98619369Y-36621322D03*
%TO.N,unconnected-(U1-GPIO19-PadJ3_20)*%
X101159369Y-59481322D03*
%TO.N,/SCK*%
X98619369Y-59481322D03*
%TD*%
D22*
%TO.N,GND*%
X94996000Y-36345600D03*
X99441000Y-65278000D03*
%TO.N,+3.3V*%
X127598400Y-76936600D03*
X107045400Y-122362500D03*
X102835400Y-122362500D03*
X98625400Y-122362500D03*
X94415400Y-122362500D03*
X91037400Y-99468400D03*
%TO.N,/BT-*%
X102553644Y-109640244D03*
X111099600Y-63906400D03*
X102641400Y-112395000D03*
X111455200Y-43078400D03*
X110718600Y-39801800D03*
%TO.N,/DSO*%
X105791000Y-56286400D03*
%TO.N,/BT_OK*%
X97840800Y-117144800D03*
X97669294Y-115296894D03*
X112174400Y-63906400D03*
X120243600Y-62357000D03*
%TO.N,/ADC_IN*%
X121386600Y-63246000D03*
X119151400Y-68199000D03*
%TO.N,/DC*%
X124583647Y-57505600D03*
X139319000Y-57454800D03*
%TO.N,/TFT_RST*%
X136575800Y-39344600D03*
%TO.N,/BT_CANCEL*%
X106629200Y-105816400D03*
X106705400Y-108889800D03*
X112801400Y-63068200D03*
%TO.N,/BT+*%
X113995200Y-63119000D03*
%TO.N,/BACKLIGHT*%
X145872200Y-41960800D03*
%TD*%
M02*
