%TF.GenerationSoftware,KiCad,Pcbnew,10.0.3*%
%TF.CreationDate,2026-06-29T01:09:37+05:45*%
%TF.ProjectId,esp32 oscilloscope adn fucntion generator,65737033-3220-46f7-9363-696c6c6f7363,rev?*%
%TF.SameCoordinates,Original*%
%TF.FileFunction,Plated,1,4,PTH,Drill*%
%TF.FilePolarity,Positive*%
%FSLAX46Y46*%
G04 Gerber Fmt 4.6, Leading zero omitted, Abs format (unit mm)*
G04 Created by KiCad (PCBNEW 10.0.3) date 2026-06-29 01:09:37*
%MOMM*%
%LPD*%
G01*
G04 APERTURE LIST*
%TA.AperFunction,ViaDrill*%
%ADD10C,0.300000*%
%TD*%
%TA.AperFunction,ComponentDrill*%
%ADD11C,0.800000*%
%TD*%
%TA.AperFunction,ComponentDrill*%
%ADD12C,1.000000*%
%TD*%
%TA.AperFunction,ComponentDrill*%
%ADD13C,1.100000*%
%TD*%
%TA.AperFunction,ComponentDrill*%
%ADD14C,1.500000*%
%TD*%
%TA.AperFunction,ComponentDrill*%
%ADD15C,1.800000*%
%TD*%
G04 APERTURE END LIST*
D10*
X91037400Y-99468400D03*
X94415400Y-122362500D03*
X94996000Y-36345600D03*
X97669294Y-115296894D03*
X97840800Y-117144800D03*
X98625400Y-122362500D03*
X99441000Y-65278000D03*
X102553644Y-109640244D03*
X102641400Y-112395000D03*
X102835400Y-122362500D03*
X105791000Y-56286400D03*
X106629200Y-105816400D03*
X106705400Y-108889800D03*
X107045400Y-122362500D03*
X110718600Y-39801800D03*
X111099600Y-63906400D03*
X111455200Y-43078400D03*
X112174400Y-63906400D03*
X112801400Y-63068200D03*
X113995200Y-63119000D03*
X119151400Y-68199000D03*
X120243600Y-62357000D03*
X121386600Y-63246000D03*
X124583647Y-57505600D03*
X127598400Y-76936600D03*
X136575800Y-39344600D03*
X139319000Y-57454800D03*
X145872200Y-41960800D03*
D11*
%TO.C,J3*%
X90932000Y-68926200D03*
X90932000Y-70926200D03*
%TO.C,J1*%
X125598400Y-76936600D03*
X127598400Y-76936600D03*
X129598400Y-76936600D03*
X131598400Y-76936600D03*
X133598400Y-76936600D03*
%TO.C,SW6*%
X134340600Y-129159800D03*
X134340600Y-132359800D03*
%TO.C,J1*%
X135598400Y-76936600D03*
%TO.C,SW6*%
X136840600Y-129159800D03*
X136840600Y-132359800D03*
%TO.C,J1*%
X137598400Y-76936600D03*
%TO.C,SW6*%
X139340600Y-129159800D03*
X139340600Y-132359800D03*
%TO.C,J1*%
X139598400Y-76936600D03*
X141598400Y-76936600D03*
X143598400Y-76936600D03*
%TO.C,SW5*%
X143916400Y-129134000D03*
X143916400Y-132334000D03*
X146416400Y-129134000D03*
X146416400Y-132334000D03*
X148916400Y-129134000D03*
X148916400Y-132334000D03*
D12*
%TO.C,RV1*%
X90972800Y-79059400D03*
X90972800Y-81559400D03*
X90972800Y-84059400D03*
%TO.C,RV2*%
X91037400Y-94468400D03*
X91037400Y-96968400D03*
X91037400Y-99468400D03*
%TO.C,U1*%
X98619369Y-36621322D03*
X98619369Y-59481322D03*
X101159369Y-36621322D03*
X101159369Y-59481322D03*
X103699369Y-36621322D03*
X103699369Y-59481322D03*
X106239369Y-36621322D03*
X106239369Y-59481322D03*
X108779369Y-36621322D03*
X108779369Y-59481322D03*
X111319369Y-36621322D03*
X111319369Y-59481322D03*
X113859369Y-36621322D03*
X113859369Y-59481322D03*
X116399369Y-36621322D03*
X116399369Y-59481322D03*
X118939369Y-36621322D03*
X118939369Y-59481322D03*
X121479369Y-36621322D03*
X121479369Y-59481322D03*
X124019369Y-36621322D03*
X124019369Y-59481322D03*
X126559369Y-36621322D03*
X126559369Y-59481322D03*
X129099369Y-36621322D03*
X129099369Y-59481322D03*
X131639369Y-36621322D03*
X131639369Y-59481322D03*
X134179369Y-36621322D03*
X134179369Y-59481322D03*
X136719369Y-36621322D03*
X136719369Y-59481322D03*
X139259369Y-36621322D03*
X139259369Y-59481322D03*
X141799369Y-36621322D03*
X141799369Y-59481322D03*
X144339369Y-36621322D03*
X144339369Y-59481322D03*
X146879369Y-36621322D03*
X146879369Y-59481322D03*
X149419369Y-36621322D03*
X149419369Y-59481322D03*
D13*
%TO.C,SW1*%
X92909000Y-125757800D03*
X92909000Y-132257800D03*
X97409000Y-125757800D03*
X97409000Y-132257800D03*
%TO.C,SW2*%
X103185400Y-125705800D03*
X103185400Y-132205800D03*
X107685400Y-125705800D03*
X107685400Y-132205800D03*
%TO.C,SW3*%
X113351000Y-125629600D03*
X113351000Y-132129600D03*
X117851000Y-125629600D03*
X117851000Y-132129600D03*
%TO.C,SW4*%
X123363600Y-125580000D03*
X123363600Y-132080000D03*
X127863600Y-125580000D03*
X127863600Y-132080000D03*
%TO.C,J2*%
X162255200Y-126601000D03*
D14*
X157230200Y-121576000D03*
X157230200Y-131626000D03*
X167280200Y-121576000D03*
X167280200Y-131626000D03*
D15*
%TO.C,RV1*%
X98472800Y-76759400D03*
X98472800Y-86359400D03*
%TO.C,RV2*%
X98537400Y-92168400D03*
X98537400Y-101768400D03*
M02*
