%TF.GenerationSoftware,KiCad,Pcbnew,10.0.3*%
%TF.CreationDate,2026-06-16T19:29:15+05:45*%
%TF.ProjectId,60w smps,36307720-736d-4707-932e-6b696361645f,rev?*%
%TF.SameCoordinates,Original*%
%TF.FileFunction,Legend,Top*%
%TF.FilePolarity,Positive*%
%FSLAX46Y46*%
G04 Gerber Fmt 4.6, Leading zero omitted, Abs format (unit mm)*
G04 Created by KiCad (PCBNEW 10.0.3) date 2026-06-16 19:29:15*
%MOMM*%
%LPD*%
G01*
G04 APERTURE LIST*
%ADD10C,0.100000*%
%ADD11C,0.200000*%
%ADD12C,0.150000*%
%ADD13C,0.010000*%
%ADD14C,0.120000*%
G04 APERTURE END LIST*
D10*
X192835884Y-101624819D02*
X192835884Y-100624819D01*
X192835884Y-100624819D02*
X193073979Y-100624819D01*
X193073979Y-100624819D02*
X193216836Y-100672438D01*
X193216836Y-100672438D02*
X193312074Y-100767676D01*
X193312074Y-100767676D02*
X193359693Y-100862914D01*
X193359693Y-100862914D02*
X193407312Y-101053390D01*
X193407312Y-101053390D02*
X193407312Y-101196247D01*
X193407312Y-101196247D02*
X193359693Y-101386723D01*
X193359693Y-101386723D02*
X193312074Y-101481961D01*
X193312074Y-101481961D02*
X193216836Y-101577200D01*
X193216836Y-101577200D02*
X193073979Y-101624819D01*
X193073979Y-101624819D02*
X192835884Y-101624819D01*
X194264455Y-101577200D02*
X194169217Y-101624819D01*
X194169217Y-101624819D02*
X193978741Y-101624819D01*
X193978741Y-101624819D02*
X193883503Y-101577200D01*
X193883503Y-101577200D02*
X193835884Y-101529580D01*
X193835884Y-101529580D02*
X193788265Y-101434342D01*
X193788265Y-101434342D02*
X193788265Y-101148628D01*
X193788265Y-101148628D02*
X193835884Y-101053390D01*
X193835884Y-101053390D02*
X193883503Y-101005771D01*
X193883503Y-101005771D02*
X193978741Y-100958152D01*
X193978741Y-100958152D02*
X194169217Y-100958152D01*
X194169217Y-100958152D02*
X194264455Y-101005771D01*
X195597789Y-101624819D02*
X195502551Y-101577200D01*
X195502551Y-101577200D02*
X195454932Y-101529580D01*
X195454932Y-101529580D02*
X195407313Y-101434342D01*
X195407313Y-101434342D02*
X195407313Y-101148628D01*
X195407313Y-101148628D02*
X195454932Y-101053390D01*
X195454932Y-101053390D02*
X195502551Y-101005771D01*
X195502551Y-101005771D02*
X195597789Y-100958152D01*
X195597789Y-100958152D02*
X195740646Y-100958152D01*
X195740646Y-100958152D02*
X195835884Y-101005771D01*
X195835884Y-101005771D02*
X195883503Y-101053390D01*
X195883503Y-101053390D02*
X195931122Y-101148628D01*
X195931122Y-101148628D02*
X195931122Y-101434342D01*
X195931122Y-101434342D02*
X195883503Y-101529580D01*
X195883503Y-101529580D02*
X195835884Y-101577200D01*
X195835884Y-101577200D02*
X195740646Y-101624819D01*
X195740646Y-101624819D02*
X195597789Y-101624819D01*
X196788265Y-100958152D02*
X196788265Y-101624819D01*
X196359694Y-100958152D02*
X196359694Y-101481961D01*
X196359694Y-101481961D02*
X196407313Y-101577200D01*
X196407313Y-101577200D02*
X196502551Y-101624819D01*
X196502551Y-101624819D02*
X196645408Y-101624819D01*
X196645408Y-101624819D02*
X196740646Y-101577200D01*
X196740646Y-101577200D02*
X196788265Y-101529580D01*
X197121599Y-100958152D02*
X197502551Y-100958152D01*
X197264456Y-100624819D02*
X197264456Y-101481961D01*
X197264456Y-101481961D02*
X197312075Y-101577200D01*
X197312075Y-101577200D02*
X197407313Y-101624819D01*
X197407313Y-101624819D02*
X197502551Y-101624819D01*
X53955265Y-100389857D02*
X54002884Y-100342238D01*
X54002884Y-100342238D02*
X54098122Y-100294619D01*
X54098122Y-100294619D02*
X54336217Y-100294619D01*
X54336217Y-100294619D02*
X54431455Y-100342238D01*
X54431455Y-100342238D02*
X54479074Y-100389857D01*
X54479074Y-100389857D02*
X54526693Y-100485095D01*
X54526693Y-100485095D02*
X54526693Y-100580333D01*
X54526693Y-100580333D02*
X54479074Y-100723190D01*
X54479074Y-100723190D02*
X53907646Y-101294619D01*
X53907646Y-101294619D02*
X54526693Y-101294619D01*
X54907646Y-100389857D02*
X54955265Y-100342238D01*
X54955265Y-100342238D02*
X55050503Y-100294619D01*
X55050503Y-100294619D02*
X55288598Y-100294619D01*
X55288598Y-100294619D02*
X55383836Y-100342238D01*
X55383836Y-100342238D02*
X55431455Y-100389857D01*
X55431455Y-100389857D02*
X55479074Y-100485095D01*
X55479074Y-100485095D02*
X55479074Y-100580333D01*
X55479074Y-100580333D02*
X55431455Y-100723190D01*
X55431455Y-100723190D02*
X54860027Y-101294619D01*
X54860027Y-101294619D02*
X55479074Y-101294619D01*
X56098122Y-100294619D02*
X56193360Y-100294619D01*
X56193360Y-100294619D02*
X56288598Y-100342238D01*
X56288598Y-100342238D02*
X56336217Y-100389857D01*
X56336217Y-100389857D02*
X56383836Y-100485095D01*
X56383836Y-100485095D02*
X56431455Y-100675571D01*
X56431455Y-100675571D02*
X56431455Y-100913666D01*
X56431455Y-100913666D02*
X56383836Y-101104142D01*
X56383836Y-101104142D02*
X56336217Y-101199380D01*
X56336217Y-101199380D02*
X56288598Y-101247000D01*
X56288598Y-101247000D02*
X56193360Y-101294619D01*
X56193360Y-101294619D02*
X56098122Y-101294619D01*
X56098122Y-101294619D02*
X56002884Y-101247000D01*
X56002884Y-101247000D02*
X55955265Y-101199380D01*
X55955265Y-101199380D02*
X55907646Y-101104142D01*
X55907646Y-101104142D02*
X55860027Y-100913666D01*
X55860027Y-100913666D02*
X55860027Y-100675571D01*
X55860027Y-100675571D02*
X55907646Y-100485095D01*
X55907646Y-100485095D02*
X55955265Y-100389857D01*
X55955265Y-100389857D02*
X56002884Y-100342238D01*
X56002884Y-100342238D02*
X56098122Y-100294619D01*
X56764789Y-100627952D02*
X57002884Y-101294619D01*
X57002884Y-101294619D02*
X57240979Y-100627952D01*
X58336218Y-101008904D02*
X58812408Y-101008904D01*
X58240980Y-101294619D02*
X58574313Y-100294619D01*
X58574313Y-100294619D02*
X58907646Y-101294619D01*
X59812408Y-101199380D02*
X59764789Y-101247000D01*
X59764789Y-101247000D02*
X59621932Y-101294619D01*
X59621932Y-101294619D02*
X59526694Y-101294619D01*
X59526694Y-101294619D02*
X59383837Y-101247000D01*
X59383837Y-101247000D02*
X59288599Y-101151761D01*
X59288599Y-101151761D02*
X59240980Y-101056523D01*
X59240980Y-101056523D02*
X59193361Y-100866047D01*
X59193361Y-100866047D02*
X59193361Y-100723190D01*
X59193361Y-100723190D02*
X59240980Y-100532714D01*
X59240980Y-100532714D02*
X59288599Y-100437476D01*
X59288599Y-100437476D02*
X59383837Y-100342238D01*
X59383837Y-100342238D02*
X59526694Y-100294619D01*
X59526694Y-100294619D02*
X59621932Y-100294619D01*
X59621932Y-100294619D02*
X59764789Y-100342238D01*
X59764789Y-100342238D02*
X59812408Y-100389857D01*
D11*
X189444044Y-74270075D02*
X189253568Y-74270075D01*
X189253568Y-74270075D02*
X189158330Y-74317694D01*
X189158330Y-74317694D02*
X189110711Y-74365313D01*
X189110711Y-74365313D02*
X189015473Y-74508170D01*
X189015473Y-74508170D02*
X188967854Y-74698646D01*
X188967854Y-74698646D02*
X188967854Y-75079598D01*
X188967854Y-75079598D02*
X189015473Y-75174836D01*
X189015473Y-75174836D02*
X189063092Y-75222456D01*
X189063092Y-75222456D02*
X189158330Y-75270075D01*
X189158330Y-75270075D02*
X189348806Y-75270075D01*
X189348806Y-75270075D02*
X189444044Y-75222456D01*
X189444044Y-75222456D02*
X189491663Y-75174836D01*
X189491663Y-75174836D02*
X189539282Y-75079598D01*
X189539282Y-75079598D02*
X189539282Y-74841503D01*
X189539282Y-74841503D02*
X189491663Y-74746265D01*
X189491663Y-74746265D02*
X189444044Y-74698646D01*
X189444044Y-74698646D02*
X189348806Y-74651027D01*
X189348806Y-74651027D02*
X189158330Y-74651027D01*
X189158330Y-74651027D02*
X189063092Y-74698646D01*
X189063092Y-74698646D02*
X189015473Y-74746265D01*
X189015473Y-74746265D02*
X188967854Y-74841503D01*
X190158330Y-74270075D02*
X190253568Y-74270075D01*
X190253568Y-74270075D02*
X190348806Y-74317694D01*
X190348806Y-74317694D02*
X190396425Y-74365313D01*
X190396425Y-74365313D02*
X190444044Y-74460551D01*
X190444044Y-74460551D02*
X190491663Y-74651027D01*
X190491663Y-74651027D02*
X190491663Y-74889122D01*
X190491663Y-74889122D02*
X190444044Y-75079598D01*
X190444044Y-75079598D02*
X190396425Y-75174836D01*
X190396425Y-75174836D02*
X190348806Y-75222456D01*
X190348806Y-75222456D02*
X190253568Y-75270075D01*
X190253568Y-75270075D02*
X190158330Y-75270075D01*
X190158330Y-75270075D02*
X190063092Y-75222456D01*
X190063092Y-75222456D02*
X190015473Y-75174836D01*
X190015473Y-75174836D02*
X189967854Y-75079598D01*
X189967854Y-75079598D02*
X189920235Y-74889122D01*
X189920235Y-74889122D02*
X189920235Y-74651027D01*
X189920235Y-74651027D02*
X189967854Y-74460551D01*
X189967854Y-74460551D02*
X190015473Y-74365313D01*
X190015473Y-74365313D02*
X190063092Y-74317694D01*
X190063092Y-74317694D02*
X190158330Y-74270075D01*
X190824997Y-74270075D02*
X191063092Y-75270075D01*
X191063092Y-75270075D02*
X191253568Y-74555789D01*
X191253568Y-74555789D02*
X191444044Y-75270075D01*
X191444044Y-75270075D02*
X191682140Y-74270075D01*
X192777378Y-75222456D02*
X192920235Y-75270075D01*
X192920235Y-75270075D02*
X193158330Y-75270075D01*
X193158330Y-75270075D02*
X193253568Y-75222456D01*
X193253568Y-75222456D02*
X193301187Y-75174836D01*
X193301187Y-75174836D02*
X193348806Y-75079598D01*
X193348806Y-75079598D02*
X193348806Y-74984360D01*
X193348806Y-74984360D02*
X193301187Y-74889122D01*
X193301187Y-74889122D02*
X193253568Y-74841503D01*
X193253568Y-74841503D02*
X193158330Y-74793884D01*
X193158330Y-74793884D02*
X192967854Y-74746265D01*
X192967854Y-74746265D02*
X192872616Y-74698646D01*
X192872616Y-74698646D02*
X192824997Y-74651027D01*
X192824997Y-74651027D02*
X192777378Y-74555789D01*
X192777378Y-74555789D02*
X192777378Y-74460551D01*
X192777378Y-74460551D02*
X192824997Y-74365313D01*
X192824997Y-74365313D02*
X192872616Y-74317694D01*
X192872616Y-74317694D02*
X192967854Y-74270075D01*
X192967854Y-74270075D02*
X193205949Y-74270075D01*
X193205949Y-74270075D02*
X193348806Y-74317694D01*
X193777378Y-75270075D02*
X193777378Y-74270075D01*
X193777378Y-74270075D02*
X194110711Y-74984360D01*
X194110711Y-74984360D02*
X194444044Y-74270075D01*
X194444044Y-74270075D02*
X194444044Y-75270075D01*
X194920235Y-75270075D02*
X194920235Y-74270075D01*
X194920235Y-74270075D02*
X195301187Y-74270075D01*
X195301187Y-74270075D02*
X195396425Y-74317694D01*
X195396425Y-74317694D02*
X195444044Y-74365313D01*
X195444044Y-74365313D02*
X195491663Y-74460551D01*
X195491663Y-74460551D02*
X195491663Y-74603408D01*
X195491663Y-74603408D02*
X195444044Y-74698646D01*
X195444044Y-74698646D02*
X195396425Y-74746265D01*
X195396425Y-74746265D02*
X195301187Y-74793884D01*
X195301187Y-74793884D02*
X194920235Y-74793884D01*
X195872616Y-75222456D02*
X196015473Y-75270075D01*
X196015473Y-75270075D02*
X196253568Y-75270075D01*
X196253568Y-75270075D02*
X196348806Y-75222456D01*
X196348806Y-75222456D02*
X196396425Y-75174836D01*
X196396425Y-75174836D02*
X196444044Y-75079598D01*
X196444044Y-75079598D02*
X196444044Y-74984360D01*
X196444044Y-74984360D02*
X196396425Y-74889122D01*
X196396425Y-74889122D02*
X196348806Y-74841503D01*
X196348806Y-74841503D02*
X196253568Y-74793884D01*
X196253568Y-74793884D02*
X196063092Y-74746265D01*
X196063092Y-74746265D02*
X195967854Y-74698646D01*
X195967854Y-74698646D02*
X195920235Y-74651027D01*
X195920235Y-74651027D02*
X195872616Y-74555789D01*
X195872616Y-74555789D02*
X195872616Y-74460551D01*
X195872616Y-74460551D02*
X195920235Y-74365313D01*
X195920235Y-74365313D02*
X195967854Y-74317694D01*
X195967854Y-74317694D02*
X196063092Y-74270075D01*
X196063092Y-74270075D02*
X196301187Y-74270075D01*
X196301187Y-74270075D02*
X196444044Y-74317694D01*
X189539282Y-76880019D02*
X188967854Y-76880019D01*
X189253568Y-76880019D02*
X189253568Y-75880019D01*
X189253568Y-75880019D02*
X189158330Y-76022876D01*
X189158330Y-76022876D02*
X189063092Y-76118114D01*
X189063092Y-76118114D02*
X188967854Y-76165733D01*
X189920235Y-75975257D02*
X189967854Y-75927638D01*
X189967854Y-75927638D02*
X190063092Y-75880019D01*
X190063092Y-75880019D02*
X190301187Y-75880019D01*
X190301187Y-75880019D02*
X190396425Y-75927638D01*
X190396425Y-75927638D02*
X190444044Y-75975257D01*
X190444044Y-75975257D02*
X190491663Y-76070495D01*
X190491663Y-76070495D02*
X190491663Y-76165733D01*
X190491663Y-76165733D02*
X190444044Y-76308590D01*
X190444044Y-76308590D02*
X189872616Y-76880019D01*
X189872616Y-76880019D02*
X190491663Y-76880019D01*
X190824997Y-76213352D02*
X191063092Y-76880019D01*
X191063092Y-76880019D02*
X191301187Y-76213352D01*
X192920235Y-75880019D02*
X192444045Y-75880019D01*
X192444045Y-75880019D02*
X192396426Y-76356209D01*
X192396426Y-76356209D02*
X192444045Y-76308590D01*
X192444045Y-76308590D02*
X192539283Y-76260971D01*
X192539283Y-76260971D02*
X192777378Y-76260971D01*
X192777378Y-76260971D02*
X192872616Y-76308590D01*
X192872616Y-76308590D02*
X192920235Y-76356209D01*
X192920235Y-76356209D02*
X192967854Y-76451447D01*
X192967854Y-76451447D02*
X192967854Y-76689542D01*
X192967854Y-76689542D02*
X192920235Y-76784780D01*
X192920235Y-76784780D02*
X192872616Y-76832400D01*
X192872616Y-76832400D02*
X192777378Y-76880019D01*
X192777378Y-76880019D02*
X192539283Y-76880019D01*
X192539283Y-76880019D02*
X192444045Y-76832400D01*
X192444045Y-76832400D02*
X192396426Y-76784780D01*
X194110712Y-76594304D02*
X194586902Y-76594304D01*
X194015474Y-76880019D02*
X194348807Y-75880019D01*
X194348807Y-75880019D02*
X194682140Y-76880019D01*
X195015474Y-76880019D02*
X195015474Y-76213352D01*
X195015474Y-76308590D02*
X195063093Y-76260971D01*
X195063093Y-76260971D02*
X195158331Y-76213352D01*
X195158331Y-76213352D02*
X195301188Y-76213352D01*
X195301188Y-76213352D02*
X195396426Y-76260971D01*
X195396426Y-76260971D02*
X195444045Y-76356209D01*
X195444045Y-76356209D02*
X195444045Y-76880019D01*
X195444045Y-76356209D02*
X195491664Y-76260971D01*
X195491664Y-76260971D02*
X195586902Y-76213352D01*
X195586902Y-76213352D02*
X195729759Y-76213352D01*
X195729759Y-76213352D02*
X195824998Y-76260971D01*
X195824998Y-76260971D02*
X195872617Y-76356209D01*
X195872617Y-76356209D02*
X195872617Y-76880019D01*
X196348807Y-76213352D02*
X196348807Y-77213352D01*
X196348807Y-76260971D02*
X196444045Y-76213352D01*
X196444045Y-76213352D02*
X196634521Y-76213352D01*
X196634521Y-76213352D02*
X196729759Y-76260971D01*
X196729759Y-76260971D02*
X196777378Y-76308590D01*
X196777378Y-76308590D02*
X196824997Y-76403828D01*
X196824997Y-76403828D02*
X196824997Y-76689542D01*
X196824997Y-76689542D02*
X196777378Y-76784780D01*
X196777378Y-76784780D02*
X196729759Y-76832400D01*
X196729759Y-76832400D02*
X196634521Y-76880019D01*
X196634521Y-76880019D02*
X196444045Y-76880019D01*
X196444045Y-76880019D02*
X196348807Y-76832400D01*
X197205950Y-76832400D02*
X197301188Y-76880019D01*
X197301188Y-76880019D02*
X197491664Y-76880019D01*
X197491664Y-76880019D02*
X197586902Y-76832400D01*
X197586902Y-76832400D02*
X197634521Y-76737161D01*
X197634521Y-76737161D02*
X197634521Y-76689542D01*
X197634521Y-76689542D02*
X197586902Y-76594304D01*
X197586902Y-76594304D02*
X197491664Y-76546685D01*
X197491664Y-76546685D02*
X197348807Y-76546685D01*
X197348807Y-76546685D02*
X197253569Y-76499066D01*
X197253569Y-76499066D02*
X197205950Y-76403828D01*
X197205950Y-76403828D02*
X197205950Y-76356209D01*
X197205950Y-76356209D02*
X197253569Y-76260971D01*
X197253569Y-76260971D02*
X197348807Y-76213352D01*
X197348807Y-76213352D02*
X197491664Y-76213352D01*
X197491664Y-76213352D02*
X197586902Y-76260971D01*
D10*
X187225617Y-124748409D02*
X187368474Y-124796028D01*
X187368474Y-124796028D02*
X187416093Y-124843647D01*
X187416093Y-124843647D02*
X187463712Y-124938885D01*
X187463712Y-124938885D02*
X187463712Y-125081742D01*
X187463712Y-125081742D02*
X187416093Y-125176980D01*
X187416093Y-125176980D02*
X187368474Y-125224600D01*
X187368474Y-125224600D02*
X187273236Y-125272219D01*
X187273236Y-125272219D02*
X186892284Y-125272219D01*
X186892284Y-125272219D02*
X186892284Y-124272219D01*
X186892284Y-124272219D02*
X187225617Y-124272219D01*
X187225617Y-124272219D02*
X187320855Y-124319838D01*
X187320855Y-124319838D02*
X187368474Y-124367457D01*
X187368474Y-124367457D02*
X187416093Y-124462695D01*
X187416093Y-124462695D02*
X187416093Y-124557933D01*
X187416093Y-124557933D02*
X187368474Y-124653171D01*
X187368474Y-124653171D02*
X187320855Y-124700790D01*
X187320855Y-124700790D02*
X187225617Y-124748409D01*
X187225617Y-124748409D02*
X186892284Y-124748409D01*
X187797046Y-124605552D02*
X188035141Y-125272219D01*
X188273236Y-124605552D02*
X188035141Y-125272219D01*
X188035141Y-125272219D02*
X187939903Y-125510314D01*
X187939903Y-125510314D02*
X187892284Y-125557933D01*
X187892284Y-125557933D02*
X187797046Y-125605552D01*
X188654189Y-125176980D02*
X188701808Y-125224600D01*
X188701808Y-125224600D02*
X188654189Y-125272219D01*
X188654189Y-125272219D02*
X188606570Y-125224600D01*
X188606570Y-125224600D02*
X188654189Y-125176980D01*
X188654189Y-125176980D02*
X188654189Y-125272219D01*
X188654189Y-124653171D02*
X188701808Y-124700790D01*
X188701808Y-124700790D02*
X188654189Y-124748409D01*
X188654189Y-124748409D02*
X188606570Y-124700790D01*
X188606570Y-124700790D02*
X188654189Y-124653171D01*
X188654189Y-124653171D02*
X188654189Y-124748409D01*
X189701807Y-125272219D02*
X189368474Y-124796028D01*
X189130379Y-125272219D02*
X189130379Y-124272219D01*
X189130379Y-124272219D02*
X189511331Y-124272219D01*
X189511331Y-124272219D02*
X189606569Y-124319838D01*
X189606569Y-124319838D02*
X189654188Y-124367457D01*
X189654188Y-124367457D02*
X189701807Y-124462695D01*
X189701807Y-124462695D02*
X189701807Y-124605552D01*
X189701807Y-124605552D02*
X189654188Y-124700790D01*
X189654188Y-124700790D02*
X189606569Y-124748409D01*
X189606569Y-124748409D02*
X189511331Y-124796028D01*
X189511331Y-124796028D02*
X189130379Y-124796028D01*
X190558950Y-124605552D02*
X190558950Y-125272219D01*
X190130379Y-124605552D02*
X190130379Y-125129361D01*
X190130379Y-125129361D02*
X190177998Y-125224600D01*
X190177998Y-125224600D02*
X190273236Y-125272219D01*
X190273236Y-125272219D02*
X190416093Y-125272219D01*
X190416093Y-125272219D02*
X190511331Y-125224600D01*
X190511331Y-125224600D02*
X190558950Y-125176980D01*
X191463712Y-125272219D02*
X191463712Y-124272219D01*
X191463712Y-125224600D02*
X191368474Y-125272219D01*
X191368474Y-125272219D02*
X191177998Y-125272219D01*
X191177998Y-125272219D02*
X191082760Y-125224600D01*
X191082760Y-125224600D02*
X191035141Y-125176980D01*
X191035141Y-125176980D02*
X190987522Y-125081742D01*
X190987522Y-125081742D02*
X190987522Y-124796028D01*
X190987522Y-124796028D02*
X191035141Y-124700790D01*
X191035141Y-124700790D02*
X191082760Y-124653171D01*
X191082760Y-124653171D02*
X191177998Y-124605552D01*
X191177998Y-124605552D02*
X191368474Y-124605552D01*
X191368474Y-124605552D02*
X191463712Y-124653171D01*
X191939903Y-125272219D02*
X191939903Y-124605552D01*
X191939903Y-124796028D02*
X191987522Y-124700790D01*
X191987522Y-124700790D02*
X192035141Y-124653171D01*
X192035141Y-124653171D02*
X192130379Y-124605552D01*
X192130379Y-124605552D02*
X192225617Y-124605552D01*
X192987522Y-125272219D02*
X192987522Y-124748409D01*
X192987522Y-124748409D02*
X192939903Y-124653171D01*
X192939903Y-124653171D02*
X192844665Y-124605552D01*
X192844665Y-124605552D02*
X192654189Y-124605552D01*
X192654189Y-124605552D02*
X192558951Y-124653171D01*
X192987522Y-125224600D02*
X192892284Y-125272219D01*
X192892284Y-125272219D02*
X192654189Y-125272219D01*
X192654189Y-125272219D02*
X192558951Y-125224600D01*
X192558951Y-125224600D02*
X192511332Y-125129361D01*
X192511332Y-125129361D02*
X192511332Y-125034123D01*
X192511332Y-125034123D02*
X192558951Y-124938885D01*
X192558951Y-124938885D02*
X192654189Y-124891266D01*
X192654189Y-124891266D02*
X192892284Y-124891266D01*
X192892284Y-124891266D02*
X192987522Y-124843647D01*
X194225618Y-125272219D02*
X194225618Y-124272219D01*
X194797046Y-125272219D02*
X194368475Y-124700790D01*
X194797046Y-124272219D02*
X194225618Y-124843647D01*
X195225618Y-125272219D02*
X195225618Y-124272219D01*
X195654189Y-125272219D02*
X195654189Y-124748409D01*
X195654189Y-124748409D02*
X195606570Y-124653171D01*
X195606570Y-124653171D02*
X195511332Y-124605552D01*
X195511332Y-124605552D02*
X195368475Y-124605552D01*
X195368475Y-124605552D02*
X195273237Y-124653171D01*
X195273237Y-124653171D02*
X195225618Y-124700790D01*
X196558951Y-125272219D02*
X196558951Y-124748409D01*
X196558951Y-124748409D02*
X196511332Y-124653171D01*
X196511332Y-124653171D02*
X196416094Y-124605552D01*
X196416094Y-124605552D02*
X196225618Y-124605552D01*
X196225618Y-124605552D02*
X196130380Y-124653171D01*
X196558951Y-125224600D02*
X196463713Y-125272219D01*
X196463713Y-125272219D02*
X196225618Y-125272219D01*
X196225618Y-125272219D02*
X196130380Y-125224600D01*
X196130380Y-125224600D02*
X196082761Y-125129361D01*
X196082761Y-125129361D02*
X196082761Y-125034123D01*
X196082761Y-125034123D02*
X196130380Y-124938885D01*
X196130380Y-124938885D02*
X196225618Y-124891266D01*
X196225618Y-124891266D02*
X196463713Y-124891266D01*
X196463713Y-124891266D02*
X196558951Y-124843647D01*
X196892285Y-124605552D02*
X197273237Y-124605552D01*
X197035142Y-124272219D02*
X197035142Y-125129361D01*
X197035142Y-125129361D02*
X197082761Y-125224600D01*
X197082761Y-125224600D02*
X197177999Y-125272219D01*
X197177999Y-125272219D02*
X197273237Y-125272219D01*
X197606571Y-125272219D02*
X197606571Y-124605552D01*
X197606571Y-124796028D02*
X197654190Y-124700790D01*
X197654190Y-124700790D02*
X197701809Y-124653171D01*
X197701809Y-124653171D02*
X197797047Y-124605552D01*
X197797047Y-124605552D02*
X197892285Y-124605552D01*
X198225619Y-125272219D02*
X198225619Y-124605552D01*
X198225619Y-124272219D02*
X198178000Y-124319838D01*
X198178000Y-124319838D02*
X198225619Y-124367457D01*
X198225619Y-124367457D02*
X198273238Y-124319838D01*
X198273238Y-124319838D02*
X198225619Y-124272219D01*
X198225619Y-124272219D02*
X198225619Y-124367457D01*
D12*
X103655905Y-84852819D02*
X103655905Y-83852819D01*
X103655905Y-83852819D02*
X103894000Y-83852819D01*
X103894000Y-83852819D02*
X104036857Y-83900438D01*
X104036857Y-83900438D02*
X104132095Y-83995676D01*
X104132095Y-83995676D02*
X104179714Y-84090914D01*
X104179714Y-84090914D02*
X104227333Y-84281390D01*
X104227333Y-84281390D02*
X104227333Y-84424247D01*
X104227333Y-84424247D02*
X104179714Y-84614723D01*
X104179714Y-84614723D02*
X104132095Y-84709961D01*
X104132095Y-84709961D02*
X104036857Y-84805200D01*
X104036857Y-84805200D02*
X103894000Y-84852819D01*
X103894000Y-84852819D02*
X103655905Y-84852819D01*
X105179714Y-84852819D02*
X104608286Y-84852819D01*
X104894000Y-84852819D02*
X104894000Y-83852819D01*
X104894000Y-83852819D02*
X104798762Y-83995676D01*
X104798762Y-83995676D02*
X104703524Y-84090914D01*
X104703524Y-84090914D02*
X104608286Y-84138533D01*
X99052095Y-85222819D02*
X99052095Y-84222819D01*
X99623523Y-85222819D02*
X99194952Y-84651390D01*
X99623523Y-84222819D02*
X99052095Y-84794247D01*
X154709905Y-78756819D02*
X154709905Y-77756819D01*
X154709905Y-77756819D02*
X154948000Y-77756819D01*
X154948000Y-77756819D02*
X155090857Y-77804438D01*
X155090857Y-77804438D02*
X155186095Y-77899676D01*
X155186095Y-77899676D02*
X155233714Y-77994914D01*
X155233714Y-77994914D02*
X155281333Y-78185390D01*
X155281333Y-78185390D02*
X155281333Y-78328247D01*
X155281333Y-78328247D02*
X155233714Y-78518723D01*
X155233714Y-78518723D02*
X155186095Y-78613961D01*
X155186095Y-78613961D02*
X155090857Y-78709200D01*
X155090857Y-78709200D02*
X154948000Y-78756819D01*
X154948000Y-78756819D02*
X154709905Y-78756819D01*
X156138476Y-77756819D02*
X155948000Y-77756819D01*
X155948000Y-77756819D02*
X155852762Y-77804438D01*
X155852762Y-77804438D02*
X155805143Y-77852057D01*
X155805143Y-77852057D02*
X155709905Y-77994914D01*
X155709905Y-77994914D02*
X155662286Y-78185390D01*
X155662286Y-78185390D02*
X155662286Y-78566342D01*
X155662286Y-78566342D02*
X155709905Y-78661580D01*
X155709905Y-78661580D02*
X155757524Y-78709200D01*
X155757524Y-78709200D02*
X155852762Y-78756819D01*
X155852762Y-78756819D02*
X156043238Y-78756819D01*
X156043238Y-78756819D02*
X156138476Y-78709200D01*
X156138476Y-78709200D02*
X156186095Y-78661580D01*
X156186095Y-78661580D02*
X156233714Y-78566342D01*
X156233714Y-78566342D02*
X156233714Y-78328247D01*
X156233714Y-78328247D02*
X156186095Y-78233009D01*
X156186095Y-78233009D02*
X156138476Y-78185390D01*
X156138476Y-78185390D02*
X156043238Y-78137771D01*
X156043238Y-78137771D02*
X155852762Y-78137771D01*
X155852762Y-78137771D02*
X155757524Y-78185390D01*
X155757524Y-78185390D02*
X155709905Y-78233009D01*
X155709905Y-78233009D02*
X155662286Y-78328247D01*
X150106095Y-79126819D02*
X150106095Y-78126819D01*
X150677523Y-79126819D02*
X150248952Y-78555390D01*
X150677523Y-78126819D02*
X150106095Y-78698247D01*
X163790333Y-107761219D02*
X163457000Y-107285028D01*
X163218905Y-107761219D02*
X163218905Y-106761219D01*
X163218905Y-106761219D02*
X163599857Y-106761219D01*
X163599857Y-106761219D02*
X163695095Y-106808838D01*
X163695095Y-106808838D02*
X163742714Y-106856457D01*
X163742714Y-106856457D02*
X163790333Y-106951695D01*
X163790333Y-106951695D02*
X163790333Y-107094552D01*
X163790333Y-107094552D02*
X163742714Y-107189790D01*
X163742714Y-107189790D02*
X163695095Y-107237409D01*
X163695095Y-107237409D02*
X163599857Y-107285028D01*
X163599857Y-107285028D02*
X163218905Y-107285028D01*
X164266524Y-107761219D02*
X164457000Y-107761219D01*
X164457000Y-107761219D02*
X164552238Y-107713600D01*
X164552238Y-107713600D02*
X164599857Y-107665980D01*
X164599857Y-107665980D02*
X164695095Y-107523123D01*
X164695095Y-107523123D02*
X164742714Y-107332647D01*
X164742714Y-107332647D02*
X164742714Y-106951695D01*
X164742714Y-106951695D02*
X164695095Y-106856457D01*
X164695095Y-106856457D02*
X164647476Y-106808838D01*
X164647476Y-106808838D02*
X164552238Y-106761219D01*
X164552238Y-106761219D02*
X164361762Y-106761219D01*
X164361762Y-106761219D02*
X164266524Y-106808838D01*
X164266524Y-106808838D02*
X164218905Y-106856457D01*
X164218905Y-106856457D02*
X164171286Y-106951695D01*
X164171286Y-106951695D02*
X164171286Y-107189790D01*
X164171286Y-107189790D02*
X164218905Y-107285028D01*
X164218905Y-107285028D02*
X164266524Y-107332647D01*
X164266524Y-107332647D02*
X164361762Y-107380266D01*
X164361762Y-107380266D02*
X164552238Y-107380266D01*
X164552238Y-107380266D02*
X164647476Y-107332647D01*
X164647476Y-107332647D02*
X164695095Y-107285028D01*
X164695095Y-107285028D02*
X164742714Y-107189790D01*
X143279905Y-107064819D02*
X143279905Y-106064819D01*
X143279905Y-106064819D02*
X143518000Y-106064819D01*
X143518000Y-106064819D02*
X143660857Y-106112438D01*
X143660857Y-106112438D02*
X143756095Y-106207676D01*
X143756095Y-106207676D02*
X143803714Y-106302914D01*
X143803714Y-106302914D02*
X143851333Y-106493390D01*
X143851333Y-106493390D02*
X143851333Y-106636247D01*
X143851333Y-106636247D02*
X143803714Y-106826723D01*
X143803714Y-106826723D02*
X143756095Y-106921961D01*
X143756095Y-106921961D02*
X143660857Y-107017200D01*
X143660857Y-107017200D02*
X143518000Y-107064819D01*
X143518000Y-107064819D02*
X143279905Y-107064819D01*
X144756095Y-106064819D02*
X144279905Y-106064819D01*
X144279905Y-106064819D02*
X144232286Y-106541009D01*
X144232286Y-106541009D02*
X144279905Y-106493390D01*
X144279905Y-106493390D02*
X144375143Y-106445771D01*
X144375143Y-106445771D02*
X144613238Y-106445771D01*
X144613238Y-106445771D02*
X144708476Y-106493390D01*
X144708476Y-106493390D02*
X144756095Y-106541009D01*
X144756095Y-106541009D02*
X144803714Y-106636247D01*
X144803714Y-106636247D02*
X144803714Y-106874342D01*
X144803714Y-106874342D02*
X144756095Y-106969580D01*
X144756095Y-106969580D02*
X144708476Y-107017200D01*
X144708476Y-107017200D02*
X144613238Y-107064819D01*
X144613238Y-107064819D02*
X144375143Y-107064819D01*
X144375143Y-107064819D02*
X144279905Y-107017200D01*
X144279905Y-107017200D02*
X144232286Y-106969580D01*
X148836095Y-106694819D02*
X148836095Y-105694819D01*
X149407523Y-106694819D02*
X148978952Y-106123390D01*
X149407523Y-105694819D02*
X148836095Y-106266247D01*
X64762142Y-108389080D02*
X64714523Y-108436700D01*
X64714523Y-108436700D02*
X64571666Y-108484319D01*
X64571666Y-108484319D02*
X64476428Y-108484319D01*
X64476428Y-108484319D02*
X64333571Y-108436700D01*
X64333571Y-108436700D02*
X64238333Y-108341461D01*
X64238333Y-108341461D02*
X64190714Y-108246223D01*
X64190714Y-108246223D02*
X64143095Y-108055747D01*
X64143095Y-108055747D02*
X64143095Y-107912890D01*
X64143095Y-107912890D02*
X64190714Y-107722414D01*
X64190714Y-107722414D02*
X64238333Y-107627176D01*
X64238333Y-107627176D02*
X64333571Y-107531938D01*
X64333571Y-107531938D02*
X64476428Y-107484319D01*
X64476428Y-107484319D02*
X64571666Y-107484319D01*
X64571666Y-107484319D02*
X64714523Y-107531938D01*
X64714523Y-107531938D02*
X64762142Y-107579557D01*
X65714523Y-108484319D02*
X65143095Y-108484319D01*
X65428809Y-108484319D02*
X65428809Y-107484319D01*
X65428809Y-107484319D02*
X65333571Y-107627176D01*
X65333571Y-107627176D02*
X65238333Y-107722414D01*
X65238333Y-107722414D02*
X65143095Y-107770033D01*
X66333571Y-107484319D02*
X66428809Y-107484319D01*
X66428809Y-107484319D02*
X66524047Y-107531938D01*
X66524047Y-107531938D02*
X66571666Y-107579557D01*
X66571666Y-107579557D02*
X66619285Y-107674795D01*
X66619285Y-107674795D02*
X66666904Y-107865271D01*
X66666904Y-107865271D02*
X66666904Y-108103366D01*
X66666904Y-108103366D02*
X66619285Y-108293842D01*
X66619285Y-108293842D02*
X66571666Y-108389080D01*
X66571666Y-108389080D02*
X66524047Y-108436700D01*
X66524047Y-108436700D02*
X66428809Y-108484319D01*
X66428809Y-108484319D02*
X66333571Y-108484319D01*
X66333571Y-108484319D02*
X66238333Y-108436700D01*
X66238333Y-108436700D02*
X66190714Y-108389080D01*
X66190714Y-108389080D02*
X66143095Y-108293842D01*
X66143095Y-108293842D02*
X66095476Y-108103366D01*
X66095476Y-108103366D02*
X66095476Y-107865271D01*
X66095476Y-107865271D02*
X66143095Y-107674795D01*
X66143095Y-107674795D02*
X66190714Y-107579557D01*
X66190714Y-107579557D02*
X66238333Y-107531938D01*
X66238333Y-107531938D02*
X66333571Y-107484319D01*
X89456939Y-78163580D02*
X89409320Y-78211200D01*
X89409320Y-78211200D02*
X89266463Y-78258819D01*
X89266463Y-78258819D02*
X89171225Y-78258819D01*
X89171225Y-78258819D02*
X89028368Y-78211200D01*
X89028368Y-78211200D02*
X88933130Y-78115961D01*
X88933130Y-78115961D02*
X88885511Y-78020723D01*
X88885511Y-78020723D02*
X88837892Y-77830247D01*
X88837892Y-77830247D02*
X88837892Y-77687390D01*
X88837892Y-77687390D02*
X88885511Y-77496914D01*
X88885511Y-77496914D02*
X88933130Y-77401676D01*
X88933130Y-77401676D02*
X89028368Y-77306438D01*
X89028368Y-77306438D02*
X89171225Y-77258819D01*
X89171225Y-77258819D02*
X89266463Y-77258819D01*
X89266463Y-77258819D02*
X89409320Y-77306438D01*
X89409320Y-77306438D02*
X89456939Y-77354057D01*
X89837892Y-77354057D02*
X89885511Y-77306438D01*
X89885511Y-77306438D02*
X89980749Y-77258819D01*
X89980749Y-77258819D02*
X90218844Y-77258819D01*
X90218844Y-77258819D02*
X90314082Y-77306438D01*
X90314082Y-77306438D02*
X90361701Y-77354057D01*
X90361701Y-77354057D02*
X90409320Y-77449295D01*
X90409320Y-77449295D02*
X90409320Y-77544533D01*
X90409320Y-77544533D02*
X90361701Y-77687390D01*
X90361701Y-77687390D02*
X89790273Y-78258819D01*
X89790273Y-78258819D02*
X90409320Y-78258819D01*
X183921933Y-108650219D02*
X183588600Y-108174028D01*
X183350505Y-108650219D02*
X183350505Y-107650219D01*
X183350505Y-107650219D02*
X183731457Y-107650219D01*
X183731457Y-107650219D02*
X183826695Y-107697838D01*
X183826695Y-107697838D02*
X183874314Y-107745457D01*
X183874314Y-107745457D02*
X183921933Y-107840695D01*
X183921933Y-107840695D02*
X183921933Y-107983552D01*
X183921933Y-107983552D02*
X183874314Y-108078790D01*
X183874314Y-108078790D02*
X183826695Y-108126409D01*
X183826695Y-108126409D02*
X183731457Y-108174028D01*
X183731457Y-108174028D02*
X183350505Y-108174028D01*
X184826695Y-107650219D02*
X184350505Y-107650219D01*
X184350505Y-107650219D02*
X184302886Y-108126409D01*
X184302886Y-108126409D02*
X184350505Y-108078790D01*
X184350505Y-108078790D02*
X184445743Y-108031171D01*
X184445743Y-108031171D02*
X184683838Y-108031171D01*
X184683838Y-108031171D02*
X184779076Y-108078790D01*
X184779076Y-108078790D02*
X184826695Y-108126409D01*
X184826695Y-108126409D02*
X184874314Y-108221647D01*
X184874314Y-108221647D02*
X184874314Y-108459742D01*
X184874314Y-108459742D02*
X184826695Y-108554980D01*
X184826695Y-108554980D02*
X184779076Y-108602600D01*
X184779076Y-108602600D02*
X184683838Y-108650219D01*
X184683838Y-108650219D02*
X184445743Y-108650219D01*
X184445743Y-108650219D02*
X184350505Y-108602600D01*
X184350505Y-108602600D02*
X184302886Y-108554980D01*
X149967333Y-88069580D02*
X149919714Y-88117200D01*
X149919714Y-88117200D02*
X149776857Y-88164819D01*
X149776857Y-88164819D02*
X149681619Y-88164819D01*
X149681619Y-88164819D02*
X149538762Y-88117200D01*
X149538762Y-88117200D02*
X149443524Y-88021961D01*
X149443524Y-88021961D02*
X149395905Y-87926723D01*
X149395905Y-87926723D02*
X149348286Y-87736247D01*
X149348286Y-87736247D02*
X149348286Y-87593390D01*
X149348286Y-87593390D02*
X149395905Y-87402914D01*
X149395905Y-87402914D02*
X149443524Y-87307676D01*
X149443524Y-87307676D02*
X149538762Y-87212438D01*
X149538762Y-87212438D02*
X149681619Y-87164819D01*
X149681619Y-87164819D02*
X149776857Y-87164819D01*
X149776857Y-87164819D02*
X149919714Y-87212438D01*
X149919714Y-87212438D02*
X149967333Y-87260057D01*
X150824476Y-87498152D02*
X150824476Y-88164819D01*
X150586381Y-87117200D02*
X150348286Y-87831485D01*
X150348286Y-87831485D02*
X150967333Y-87831485D01*
X119276905Y-84725819D02*
X119276905Y-83725819D01*
X119276905Y-83725819D02*
X119515000Y-83725819D01*
X119515000Y-83725819D02*
X119657857Y-83773438D01*
X119657857Y-83773438D02*
X119753095Y-83868676D01*
X119753095Y-83868676D02*
X119800714Y-83963914D01*
X119800714Y-83963914D02*
X119848333Y-84154390D01*
X119848333Y-84154390D02*
X119848333Y-84297247D01*
X119848333Y-84297247D02*
X119800714Y-84487723D01*
X119800714Y-84487723D02*
X119753095Y-84582961D01*
X119753095Y-84582961D02*
X119657857Y-84678200D01*
X119657857Y-84678200D02*
X119515000Y-84725819D01*
X119515000Y-84725819D02*
X119276905Y-84725819D01*
X120229286Y-83821057D02*
X120276905Y-83773438D01*
X120276905Y-83773438D02*
X120372143Y-83725819D01*
X120372143Y-83725819D02*
X120610238Y-83725819D01*
X120610238Y-83725819D02*
X120705476Y-83773438D01*
X120705476Y-83773438D02*
X120753095Y-83821057D01*
X120753095Y-83821057D02*
X120800714Y-83916295D01*
X120800714Y-83916295D02*
X120800714Y-84011533D01*
X120800714Y-84011533D02*
X120753095Y-84154390D01*
X120753095Y-84154390D02*
X120181667Y-84725819D01*
X120181667Y-84725819D02*
X120800714Y-84725819D01*
X114673095Y-85095819D02*
X114673095Y-84095819D01*
X115244523Y-85095819D02*
X114815952Y-84524390D01*
X115244523Y-84095819D02*
X114673095Y-84667247D01*
X71277733Y-98102819D02*
X70944400Y-97626628D01*
X70706305Y-98102819D02*
X70706305Y-97102819D01*
X70706305Y-97102819D02*
X71087257Y-97102819D01*
X71087257Y-97102819D02*
X71182495Y-97150438D01*
X71182495Y-97150438D02*
X71230114Y-97198057D01*
X71230114Y-97198057D02*
X71277733Y-97293295D01*
X71277733Y-97293295D02*
X71277733Y-97436152D01*
X71277733Y-97436152D02*
X71230114Y-97531390D01*
X71230114Y-97531390D02*
X71182495Y-97579009D01*
X71182495Y-97579009D02*
X71087257Y-97626628D01*
X71087257Y-97626628D02*
X70706305Y-97626628D01*
X72230114Y-98102819D02*
X71658686Y-98102819D01*
X71944400Y-98102819D02*
X71944400Y-97102819D01*
X71944400Y-97102819D02*
X71849162Y-97245676D01*
X71849162Y-97245676D02*
X71753924Y-97340914D01*
X71753924Y-97340914D02*
X71658686Y-97388533D01*
X103909905Y-92726819D02*
X103909905Y-91726819D01*
X103909905Y-91726819D02*
X104148000Y-91726819D01*
X104148000Y-91726819D02*
X104290857Y-91774438D01*
X104290857Y-91774438D02*
X104386095Y-91869676D01*
X104386095Y-91869676D02*
X104433714Y-91964914D01*
X104433714Y-91964914D02*
X104481333Y-92155390D01*
X104481333Y-92155390D02*
X104481333Y-92298247D01*
X104481333Y-92298247D02*
X104433714Y-92488723D01*
X104433714Y-92488723D02*
X104386095Y-92583961D01*
X104386095Y-92583961D02*
X104290857Y-92679200D01*
X104290857Y-92679200D02*
X104148000Y-92726819D01*
X104148000Y-92726819D02*
X103909905Y-92726819D01*
X104814667Y-91726819D02*
X105433714Y-91726819D01*
X105433714Y-91726819D02*
X105100381Y-92107771D01*
X105100381Y-92107771D02*
X105243238Y-92107771D01*
X105243238Y-92107771D02*
X105338476Y-92155390D01*
X105338476Y-92155390D02*
X105386095Y-92203009D01*
X105386095Y-92203009D02*
X105433714Y-92298247D01*
X105433714Y-92298247D02*
X105433714Y-92536342D01*
X105433714Y-92536342D02*
X105386095Y-92631580D01*
X105386095Y-92631580D02*
X105338476Y-92679200D01*
X105338476Y-92679200D02*
X105243238Y-92726819D01*
X105243238Y-92726819D02*
X104957524Y-92726819D01*
X104957524Y-92726819D02*
X104862286Y-92679200D01*
X104862286Y-92679200D02*
X104814667Y-92631580D01*
X99306095Y-93096819D02*
X99306095Y-92096819D01*
X99877523Y-93096819D02*
X99448952Y-92525390D01*
X99877523Y-92096819D02*
X99306095Y-92668247D01*
X60073819Y-94103333D02*
X60788104Y-94103333D01*
X60788104Y-94103333D02*
X60930961Y-94150952D01*
X60930961Y-94150952D02*
X61026200Y-94246190D01*
X61026200Y-94246190D02*
X61073819Y-94389047D01*
X61073819Y-94389047D02*
X61073819Y-94484285D01*
X61073819Y-93103333D02*
X61073819Y-93674761D01*
X61073819Y-93389047D02*
X60073819Y-93389047D01*
X60073819Y-93389047D02*
X60216676Y-93484285D01*
X60216676Y-93484285D02*
X60311914Y-93579523D01*
X60311914Y-93579523D02*
X60359533Y-93674761D01*
X104036905Y-100092819D02*
X104036905Y-99092819D01*
X104036905Y-99092819D02*
X104275000Y-99092819D01*
X104275000Y-99092819D02*
X104417857Y-99140438D01*
X104417857Y-99140438D02*
X104513095Y-99235676D01*
X104513095Y-99235676D02*
X104560714Y-99330914D01*
X104560714Y-99330914D02*
X104608333Y-99521390D01*
X104608333Y-99521390D02*
X104608333Y-99664247D01*
X104608333Y-99664247D02*
X104560714Y-99854723D01*
X104560714Y-99854723D02*
X104513095Y-99949961D01*
X104513095Y-99949961D02*
X104417857Y-100045200D01*
X104417857Y-100045200D02*
X104275000Y-100092819D01*
X104275000Y-100092819D02*
X104036905Y-100092819D01*
X104941667Y-99092819D02*
X105608333Y-99092819D01*
X105608333Y-99092819D02*
X105179762Y-100092819D01*
X99433095Y-100462819D02*
X99433095Y-99462819D01*
X100004523Y-100462819D02*
X99575952Y-99891390D01*
X100004523Y-99462819D02*
X99433095Y-100034247D01*
X137821080Y-90971666D02*
X137868700Y-91019285D01*
X137868700Y-91019285D02*
X137916319Y-91162142D01*
X137916319Y-91162142D02*
X137916319Y-91257380D01*
X137916319Y-91257380D02*
X137868700Y-91400237D01*
X137868700Y-91400237D02*
X137773461Y-91495475D01*
X137773461Y-91495475D02*
X137678223Y-91543094D01*
X137678223Y-91543094D02*
X137487747Y-91590713D01*
X137487747Y-91590713D02*
X137344890Y-91590713D01*
X137344890Y-91590713D02*
X137154414Y-91543094D01*
X137154414Y-91543094D02*
X137059176Y-91495475D01*
X137059176Y-91495475D02*
X136963938Y-91400237D01*
X136963938Y-91400237D02*
X136916319Y-91257380D01*
X136916319Y-91257380D02*
X136916319Y-91162142D01*
X136916319Y-91162142D02*
X136963938Y-91019285D01*
X136963938Y-91019285D02*
X137011557Y-90971666D01*
X137916319Y-90495475D02*
X137916319Y-90304999D01*
X137916319Y-90304999D02*
X137868700Y-90209761D01*
X137868700Y-90209761D02*
X137821080Y-90162142D01*
X137821080Y-90162142D02*
X137678223Y-90066904D01*
X137678223Y-90066904D02*
X137487747Y-90019285D01*
X137487747Y-90019285D02*
X137106795Y-90019285D01*
X137106795Y-90019285D02*
X137011557Y-90066904D01*
X137011557Y-90066904D02*
X136963938Y-90114523D01*
X136963938Y-90114523D02*
X136916319Y-90209761D01*
X136916319Y-90209761D02*
X136916319Y-90400237D01*
X136916319Y-90400237D02*
X136963938Y-90495475D01*
X136963938Y-90495475D02*
X137011557Y-90543094D01*
X137011557Y-90543094D02*
X137106795Y-90590713D01*
X137106795Y-90590713D02*
X137344890Y-90590713D01*
X137344890Y-90590713D02*
X137440128Y-90543094D01*
X137440128Y-90543094D02*
X137487747Y-90495475D01*
X137487747Y-90495475D02*
X137535366Y-90400237D01*
X137535366Y-90400237D02*
X137535366Y-90209761D01*
X137535366Y-90209761D02*
X137487747Y-90114523D01*
X137487747Y-90114523D02*
X137440128Y-90066904D01*
X137440128Y-90066904D02*
X137344890Y-90019285D01*
X122581333Y-107627819D02*
X122248000Y-107151628D01*
X122009905Y-107627819D02*
X122009905Y-106627819D01*
X122009905Y-106627819D02*
X122390857Y-106627819D01*
X122390857Y-106627819D02*
X122486095Y-106675438D01*
X122486095Y-106675438D02*
X122533714Y-106723057D01*
X122533714Y-106723057D02*
X122581333Y-106818295D01*
X122581333Y-106818295D02*
X122581333Y-106961152D01*
X122581333Y-106961152D02*
X122533714Y-107056390D01*
X122533714Y-107056390D02*
X122486095Y-107104009D01*
X122486095Y-107104009D02*
X122390857Y-107151628D01*
X122390857Y-107151628D02*
X122009905Y-107151628D01*
X123438476Y-106627819D02*
X123248000Y-106627819D01*
X123248000Y-106627819D02*
X123152762Y-106675438D01*
X123152762Y-106675438D02*
X123105143Y-106723057D01*
X123105143Y-106723057D02*
X123009905Y-106865914D01*
X123009905Y-106865914D02*
X122962286Y-107056390D01*
X122962286Y-107056390D02*
X122962286Y-107437342D01*
X122962286Y-107437342D02*
X123009905Y-107532580D01*
X123009905Y-107532580D02*
X123057524Y-107580200D01*
X123057524Y-107580200D02*
X123152762Y-107627819D01*
X123152762Y-107627819D02*
X123343238Y-107627819D01*
X123343238Y-107627819D02*
X123438476Y-107580200D01*
X123438476Y-107580200D02*
X123486095Y-107532580D01*
X123486095Y-107532580D02*
X123533714Y-107437342D01*
X123533714Y-107437342D02*
X123533714Y-107199247D01*
X123533714Y-107199247D02*
X123486095Y-107104009D01*
X123486095Y-107104009D02*
X123438476Y-107056390D01*
X123438476Y-107056390D02*
X123343238Y-107008771D01*
X123343238Y-107008771D02*
X123152762Y-107008771D01*
X123152762Y-107008771D02*
X123057524Y-107056390D01*
X123057524Y-107056390D02*
X123009905Y-107104009D01*
X123009905Y-107104009D02*
X122962286Y-107199247D01*
X67612939Y-89212580D02*
X67565320Y-89260200D01*
X67565320Y-89260200D02*
X67422463Y-89307819D01*
X67422463Y-89307819D02*
X67327225Y-89307819D01*
X67327225Y-89307819D02*
X67184368Y-89260200D01*
X67184368Y-89260200D02*
X67089130Y-89164961D01*
X67089130Y-89164961D02*
X67041511Y-89069723D01*
X67041511Y-89069723D02*
X66993892Y-88879247D01*
X66993892Y-88879247D02*
X66993892Y-88736390D01*
X66993892Y-88736390D02*
X67041511Y-88545914D01*
X67041511Y-88545914D02*
X67089130Y-88450676D01*
X67089130Y-88450676D02*
X67184368Y-88355438D01*
X67184368Y-88355438D02*
X67327225Y-88307819D01*
X67327225Y-88307819D02*
X67422463Y-88307819D01*
X67422463Y-88307819D02*
X67565320Y-88355438D01*
X67565320Y-88355438D02*
X67612939Y-88403057D01*
X68565320Y-89307819D02*
X67993892Y-89307819D01*
X68279606Y-89307819D02*
X68279606Y-88307819D01*
X68279606Y-88307819D02*
X68184368Y-88450676D01*
X68184368Y-88450676D02*
X68089130Y-88545914D01*
X68089130Y-88545914D02*
X67993892Y-88593533D01*
X146137333Y-98083819D02*
X145804000Y-97607628D01*
X145565905Y-98083819D02*
X145565905Y-97083819D01*
X145565905Y-97083819D02*
X145946857Y-97083819D01*
X145946857Y-97083819D02*
X146042095Y-97131438D01*
X146042095Y-97131438D02*
X146089714Y-97179057D01*
X146089714Y-97179057D02*
X146137333Y-97274295D01*
X146137333Y-97274295D02*
X146137333Y-97417152D01*
X146137333Y-97417152D02*
X146089714Y-97512390D01*
X146089714Y-97512390D02*
X146042095Y-97560009D01*
X146042095Y-97560009D02*
X145946857Y-97607628D01*
X145946857Y-97607628D02*
X145565905Y-97607628D01*
X146470667Y-97083819D02*
X147089714Y-97083819D01*
X147089714Y-97083819D02*
X146756381Y-97464771D01*
X146756381Y-97464771D02*
X146899238Y-97464771D01*
X146899238Y-97464771D02*
X146994476Y-97512390D01*
X146994476Y-97512390D02*
X147042095Y-97560009D01*
X147042095Y-97560009D02*
X147089714Y-97655247D01*
X147089714Y-97655247D02*
X147089714Y-97893342D01*
X147089714Y-97893342D02*
X147042095Y-97988580D01*
X147042095Y-97988580D02*
X146994476Y-98036200D01*
X146994476Y-98036200D02*
X146899238Y-98083819D01*
X146899238Y-98083819D02*
X146613524Y-98083819D01*
X146613524Y-98083819D02*
X146518286Y-98036200D01*
X146518286Y-98036200D02*
X146470667Y-97988580D01*
X119149905Y-92472819D02*
X119149905Y-91472819D01*
X119149905Y-91472819D02*
X119388000Y-91472819D01*
X119388000Y-91472819D02*
X119530857Y-91520438D01*
X119530857Y-91520438D02*
X119626095Y-91615676D01*
X119626095Y-91615676D02*
X119673714Y-91710914D01*
X119673714Y-91710914D02*
X119721333Y-91901390D01*
X119721333Y-91901390D02*
X119721333Y-92044247D01*
X119721333Y-92044247D02*
X119673714Y-92234723D01*
X119673714Y-92234723D02*
X119626095Y-92329961D01*
X119626095Y-92329961D02*
X119530857Y-92425200D01*
X119530857Y-92425200D02*
X119388000Y-92472819D01*
X119388000Y-92472819D02*
X119149905Y-92472819D01*
X120578476Y-91806152D02*
X120578476Y-92472819D01*
X120340381Y-91425200D02*
X120102286Y-92139485D01*
X120102286Y-92139485D02*
X120721333Y-92139485D01*
X114546095Y-92842819D02*
X114546095Y-91842819D01*
X115117523Y-92842819D02*
X114688952Y-92271390D01*
X115117523Y-91842819D02*
X114546095Y-92414247D01*
X143251019Y-116555504D02*
X144060542Y-116555504D01*
X144060542Y-116555504D02*
X144155780Y-116507885D01*
X144155780Y-116507885D02*
X144203400Y-116460266D01*
X144203400Y-116460266D02*
X144251019Y-116365028D01*
X144251019Y-116365028D02*
X144251019Y-116174552D01*
X144251019Y-116174552D02*
X144203400Y-116079314D01*
X144203400Y-116079314D02*
X144155780Y-116031695D01*
X144155780Y-116031695D02*
X144060542Y-115984076D01*
X144060542Y-115984076D02*
X143251019Y-115984076D01*
X144251019Y-114984076D02*
X144251019Y-115555504D01*
X144251019Y-115269790D02*
X143251019Y-115269790D01*
X143251019Y-115269790D02*
X143393876Y-115365028D01*
X143393876Y-115365028D02*
X143489114Y-115460266D01*
X143489114Y-115460266D02*
X143536733Y-115555504D01*
X131811733Y-113482019D02*
X131335543Y-113482019D01*
X131335543Y-113482019D02*
X131335543Y-112482019D01*
X132668876Y-113482019D02*
X132097448Y-113482019D01*
X132383162Y-113482019D02*
X132383162Y-112482019D01*
X132383162Y-112482019D02*
X132287924Y-112624876D01*
X132287924Y-112624876D02*
X132192686Y-112720114D01*
X132192686Y-112720114D02*
X132097448Y-112767733D01*
X116947333Y-98610580D02*
X116899714Y-98658200D01*
X116899714Y-98658200D02*
X116756857Y-98705819D01*
X116756857Y-98705819D02*
X116661619Y-98705819D01*
X116661619Y-98705819D02*
X116518762Y-98658200D01*
X116518762Y-98658200D02*
X116423524Y-98562961D01*
X116423524Y-98562961D02*
X116375905Y-98467723D01*
X116375905Y-98467723D02*
X116328286Y-98277247D01*
X116328286Y-98277247D02*
X116328286Y-98134390D01*
X116328286Y-98134390D02*
X116375905Y-97943914D01*
X116375905Y-97943914D02*
X116423524Y-97848676D01*
X116423524Y-97848676D02*
X116518762Y-97753438D01*
X116518762Y-97753438D02*
X116661619Y-97705819D01*
X116661619Y-97705819D02*
X116756857Y-97705819D01*
X116756857Y-97705819D02*
X116899714Y-97753438D01*
X116899714Y-97753438D02*
X116947333Y-97801057D01*
X117280667Y-97705819D02*
X117947333Y-97705819D01*
X117947333Y-97705819D02*
X117518762Y-98705819D01*
X159878733Y-108650219D02*
X159545400Y-108174028D01*
X159307305Y-108650219D02*
X159307305Y-107650219D01*
X159307305Y-107650219D02*
X159688257Y-107650219D01*
X159688257Y-107650219D02*
X159783495Y-107697838D01*
X159783495Y-107697838D02*
X159831114Y-107745457D01*
X159831114Y-107745457D02*
X159878733Y-107840695D01*
X159878733Y-107840695D02*
X159878733Y-107983552D01*
X159878733Y-107983552D02*
X159831114Y-108078790D01*
X159831114Y-108078790D02*
X159783495Y-108126409D01*
X159783495Y-108126409D02*
X159688257Y-108174028D01*
X159688257Y-108174028D02*
X159307305Y-108174028D01*
X160212067Y-107650219D02*
X160878733Y-107650219D01*
X160878733Y-107650219D02*
X160450162Y-108650219D01*
X132339733Y-98077180D02*
X132292114Y-98124800D01*
X132292114Y-98124800D02*
X132149257Y-98172419D01*
X132149257Y-98172419D02*
X132054019Y-98172419D01*
X132054019Y-98172419D02*
X131911162Y-98124800D01*
X131911162Y-98124800D02*
X131815924Y-98029561D01*
X131815924Y-98029561D02*
X131768305Y-97934323D01*
X131768305Y-97934323D02*
X131720686Y-97743847D01*
X131720686Y-97743847D02*
X131720686Y-97600990D01*
X131720686Y-97600990D02*
X131768305Y-97410514D01*
X131768305Y-97410514D02*
X131815924Y-97315276D01*
X131815924Y-97315276D02*
X131911162Y-97220038D01*
X131911162Y-97220038D02*
X132054019Y-97172419D01*
X132054019Y-97172419D02*
X132149257Y-97172419D01*
X132149257Y-97172419D02*
X132292114Y-97220038D01*
X132292114Y-97220038D02*
X132339733Y-97267657D01*
X132911162Y-97600990D02*
X132815924Y-97553371D01*
X132815924Y-97553371D02*
X132768305Y-97505752D01*
X132768305Y-97505752D02*
X132720686Y-97410514D01*
X132720686Y-97410514D02*
X132720686Y-97362895D01*
X132720686Y-97362895D02*
X132768305Y-97267657D01*
X132768305Y-97267657D02*
X132815924Y-97220038D01*
X132815924Y-97220038D02*
X132911162Y-97172419D01*
X132911162Y-97172419D02*
X133101638Y-97172419D01*
X133101638Y-97172419D02*
X133196876Y-97220038D01*
X133196876Y-97220038D02*
X133244495Y-97267657D01*
X133244495Y-97267657D02*
X133292114Y-97362895D01*
X133292114Y-97362895D02*
X133292114Y-97410514D01*
X133292114Y-97410514D02*
X133244495Y-97505752D01*
X133244495Y-97505752D02*
X133196876Y-97553371D01*
X133196876Y-97553371D02*
X133101638Y-97600990D01*
X133101638Y-97600990D02*
X132911162Y-97600990D01*
X132911162Y-97600990D02*
X132815924Y-97648609D01*
X132815924Y-97648609D02*
X132768305Y-97696228D01*
X132768305Y-97696228D02*
X132720686Y-97791466D01*
X132720686Y-97791466D02*
X132720686Y-97981942D01*
X132720686Y-97981942D02*
X132768305Y-98077180D01*
X132768305Y-98077180D02*
X132815924Y-98124800D01*
X132815924Y-98124800D02*
X132911162Y-98172419D01*
X132911162Y-98172419D02*
X133101638Y-98172419D01*
X133101638Y-98172419D02*
X133196876Y-98124800D01*
X133196876Y-98124800D02*
X133244495Y-98077180D01*
X133244495Y-98077180D02*
X133292114Y-97981942D01*
X133292114Y-97981942D02*
X133292114Y-97791466D01*
X133292114Y-97791466D02*
X133244495Y-97696228D01*
X133244495Y-97696228D02*
X133196876Y-97648609D01*
X133196876Y-97648609D02*
X133101638Y-97600990D01*
X97909142Y-110643080D02*
X97861523Y-110690700D01*
X97861523Y-110690700D02*
X97718666Y-110738319D01*
X97718666Y-110738319D02*
X97623428Y-110738319D01*
X97623428Y-110738319D02*
X97480571Y-110690700D01*
X97480571Y-110690700D02*
X97385333Y-110595461D01*
X97385333Y-110595461D02*
X97337714Y-110500223D01*
X97337714Y-110500223D02*
X97290095Y-110309747D01*
X97290095Y-110309747D02*
X97290095Y-110166890D01*
X97290095Y-110166890D02*
X97337714Y-109976414D01*
X97337714Y-109976414D02*
X97385333Y-109881176D01*
X97385333Y-109881176D02*
X97480571Y-109785938D01*
X97480571Y-109785938D02*
X97623428Y-109738319D01*
X97623428Y-109738319D02*
X97718666Y-109738319D01*
X97718666Y-109738319D02*
X97861523Y-109785938D01*
X97861523Y-109785938D02*
X97909142Y-109833557D01*
X98861523Y-110738319D02*
X98290095Y-110738319D01*
X98575809Y-110738319D02*
X98575809Y-109738319D01*
X98575809Y-109738319D02*
X98480571Y-109881176D01*
X98480571Y-109881176D02*
X98385333Y-109976414D01*
X98385333Y-109976414D02*
X98290095Y-110024033D01*
X99813904Y-110738319D02*
X99242476Y-110738319D01*
X99528190Y-110738319D02*
X99528190Y-109738319D01*
X99528190Y-109738319D02*
X99432952Y-109881176D01*
X99432952Y-109881176D02*
X99337714Y-109976414D01*
X99337714Y-109976414D02*
X99242476Y-110024033D01*
X156368761Y-100114057D02*
X156273523Y-100066438D01*
X156273523Y-100066438D02*
X156178285Y-99971200D01*
X156178285Y-99971200D02*
X156035428Y-99828342D01*
X156035428Y-99828342D02*
X155940190Y-99780723D01*
X155940190Y-99780723D02*
X155844952Y-99780723D01*
X155892571Y-100018819D02*
X155797333Y-99971200D01*
X155797333Y-99971200D02*
X155702095Y-99875961D01*
X155702095Y-99875961D02*
X155654476Y-99685485D01*
X155654476Y-99685485D02*
X155654476Y-99352152D01*
X155654476Y-99352152D02*
X155702095Y-99161676D01*
X155702095Y-99161676D02*
X155797333Y-99066438D01*
X155797333Y-99066438D02*
X155892571Y-99018819D01*
X155892571Y-99018819D02*
X156083047Y-99018819D01*
X156083047Y-99018819D02*
X156178285Y-99066438D01*
X156178285Y-99066438D02*
X156273523Y-99161676D01*
X156273523Y-99161676D02*
X156321142Y-99352152D01*
X156321142Y-99352152D02*
X156321142Y-99685485D01*
X156321142Y-99685485D02*
X156273523Y-99875961D01*
X156273523Y-99875961D02*
X156178285Y-99971200D01*
X156178285Y-99971200D02*
X156083047Y-100018819D01*
X156083047Y-100018819D02*
X155892571Y-100018819D01*
X157273523Y-100018819D02*
X156702095Y-100018819D01*
X156987809Y-100018819D02*
X156987809Y-99018819D01*
X156987809Y-99018819D02*
X156892571Y-99161676D01*
X156892571Y-99161676D02*
X156797333Y-99256914D01*
X156797333Y-99256914D02*
X156702095Y-99304533D01*
X115550333Y-109786580D02*
X115502714Y-109834200D01*
X115502714Y-109834200D02*
X115359857Y-109881819D01*
X115359857Y-109881819D02*
X115264619Y-109881819D01*
X115264619Y-109881819D02*
X115121762Y-109834200D01*
X115121762Y-109834200D02*
X115026524Y-109738961D01*
X115026524Y-109738961D02*
X114978905Y-109643723D01*
X114978905Y-109643723D02*
X114931286Y-109453247D01*
X114931286Y-109453247D02*
X114931286Y-109310390D01*
X114931286Y-109310390D02*
X114978905Y-109119914D01*
X114978905Y-109119914D02*
X115026524Y-109024676D01*
X115026524Y-109024676D02*
X115121762Y-108929438D01*
X115121762Y-108929438D02*
X115264619Y-108881819D01*
X115264619Y-108881819D02*
X115359857Y-108881819D01*
X115359857Y-108881819D02*
X115502714Y-108929438D01*
X115502714Y-108929438D02*
X115550333Y-108977057D01*
X116455095Y-108881819D02*
X115978905Y-108881819D01*
X115978905Y-108881819D02*
X115931286Y-109358009D01*
X115931286Y-109358009D02*
X115978905Y-109310390D01*
X115978905Y-109310390D02*
X116074143Y-109262771D01*
X116074143Y-109262771D02*
X116312238Y-109262771D01*
X116312238Y-109262771D02*
X116407476Y-109310390D01*
X116407476Y-109310390D02*
X116455095Y-109358009D01*
X116455095Y-109358009D02*
X116502714Y-109453247D01*
X116502714Y-109453247D02*
X116502714Y-109691342D01*
X116502714Y-109691342D02*
X116455095Y-109786580D01*
X116455095Y-109786580D02*
X116407476Y-109834200D01*
X116407476Y-109834200D02*
X116312238Y-109881819D01*
X116312238Y-109881819D02*
X116074143Y-109881819D01*
X116074143Y-109881819D02*
X115978905Y-109834200D01*
X115978905Y-109834200D02*
X115931286Y-109786580D01*
X188390819Y-94015333D02*
X189105104Y-94015333D01*
X189105104Y-94015333D02*
X189247961Y-94062952D01*
X189247961Y-94062952D02*
X189343200Y-94158190D01*
X189343200Y-94158190D02*
X189390819Y-94301047D01*
X189390819Y-94301047D02*
X189390819Y-94396285D01*
X188486057Y-93586761D02*
X188438438Y-93539142D01*
X188438438Y-93539142D02*
X188390819Y-93443904D01*
X188390819Y-93443904D02*
X188390819Y-93205809D01*
X188390819Y-93205809D02*
X188438438Y-93110571D01*
X188438438Y-93110571D02*
X188486057Y-93062952D01*
X188486057Y-93062952D02*
X188581295Y-93015333D01*
X188581295Y-93015333D02*
X188676533Y-93015333D01*
X188676533Y-93015333D02*
X188819390Y-93062952D01*
X188819390Y-93062952D02*
X189390819Y-93634380D01*
X189390819Y-93634380D02*
X189390819Y-93015333D01*
X78738139Y-114663380D02*
X78690520Y-114711000D01*
X78690520Y-114711000D02*
X78547663Y-114758619D01*
X78547663Y-114758619D02*
X78452425Y-114758619D01*
X78452425Y-114758619D02*
X78309568Y-114711000D01*
X78309568Y-114711000D02*
X78214330Y-114615761D01*
X78214330Y-114615761D02*
X78166711Y-114520523D01*
X78166711Y-114520523D02*
X78119092Y-114330047D01*
X78119092Y-114330047D02*
X78119092Y-114187190D01*
X78119092Y-114187190D02*
X78166711Y-113996714D01*
X78166711Y-113996714D02*
X78214330Y-113901476D01*
X78214330Y-113901476D02*
X78309568Y-113806238D01*
X78309568Y-113806238D02*
X78452425Y-113758619D01*
X78452425Y-113758619D02*
X78547663Y-113758619D01*
X78547663Y-113758619D02*
X78690520Y-113806238D01*
X78690520Y-113806238D02*
X78738139Y-113853857D01*
X79595282Y-113758619D02*
X79404806Y-113758619D01*
X79404806Y-113758619D02*
X79309568Y-113806238D01*
X79309568Y-113806238D02*
X79261949Y-113853857D01*
X79261949Y-113853857D02*
X79166711Y-113996714D01*
X79166711Y-113996714D02*
X79119092Y-114187190D01*
X79119092Y-114187190D02*
X79119092Y-114568142D01*
X79119092Y-114568142D02*
X79166711Y-114663380D01*
X79166711Y-114663380D02*
X79214330Y-114711000D01*
X79214330Y-114711000D02*
X79309568Y-114758619D01*
X79309568Y-114758619D02*
X79500044Y-114758619D01*
X79500044Y-114758619D02*
X79595282Y-114711000D01*
X79595282Y-114711000D02*
X79642901Y-114663380D01*
X79642901Y-114663380D02*
X79690520Y-114568142D01*
X79690520Y-114568142D02*
X79690520Y-114330047D01*
X79690520Y-114330047D02*
X79642901Y-114234809D01*
X79642901Y-114234809D02*
X79595282Y-114187190D01*
X79595282Y-114187190D02*
X79500044Y-114139571D01*
X79500044Y-114139571D02*
X79309568Y-114139571D01*
X79309568Y-114139571D02*
X79214330Y-114187190D01*
X79214330Y-114187190D02*
X79166711Y-114234809D01*
X79166711Y-114234809D02*
X79119092Y-114330047D01*
X124187942Y-101811219D02*
X123854609Y-101335028D01*
X123616514Y-101811219D02*
X123616514Y-100811219D01*
X123616514Y-100811219D02*
X123997466Y-100811219D01*
X123997466Y-100811219D02*
X124092704Y-100858838D01*
X124092704Y-100858838D02*
X124140323Y-100906457D01*
X124140323Y-100906457D02*
X124187942Y-101001695D01*
X124187942Y-101001695D02*
X124187942Y-101144552D01*
X124187942Y-101144552D02*
X124140323Y-101239790D01*
X124140323Y-101239790D02*
X124092704Y-101287409D01*
X124092704Y-101287409D02*
X123997466Y-101335028D01*
X123997466Y-101335028D02*
X123616514Y-101335028D01*
X125140323Y-101811219D02*
X124568895Y-101811219D01*
X124854609Y-101811219D02*
X124854609Y-100811219D01*
X124854609Y-100811219D02*
X124759371Y-100954076D01*
X124759371Y-100954076D02*
X124664133Y-101049314D01*
X124664133Y-101049314D02*
X124568895Y-101096933D01*
X125759371Y-100811219D02*
X125854609Y-100811219D01*
X125854609Y-100811219D02*
X125949847Y-100858838D01*
X125949847Y-100858838D02*
X125997466Y-100906457D01*
X125997466Y-100906457D02*
X126045085Y-101001695D01*
X126045085Y-101001695D02*
X126092704Y-101192171D01*
X126092704Y-101192171D02*
X126092704Y-101430266D01*
X126092704Y-101430266D02*
X126045085Y-101620742D01*
X126045085Y-101620742D02*
X125997466Y-101715980D01*
X125997466Y-101715980D02*
X125949847Y-101763600D01*
X125949847Y-101763600D02*
X125854609Y-101811219D01*
X125854609Y-101811219D02*
X125759371Y-101811219D01*
X125759371Y-101811219D02*
X125664133Y-101763600D01*
X125664133Y-101763600D02*
X125616514Y-101715980D01*
X125616514Y-101715980D02*
X125568895Y-101620742D01*
X125568895Y-101620742D02*
X125521276Y-101430266D01*
X125521276Y-101430266D02*
X125521276Y-101192171D01*
X125521276Y-101192171D02*
X125568895Y-101001695D01*
X125568895Y-101001695D02*
X125616514Y-100906457D01*
X125616514Y-100906457D02*
X125664133Y-100858838D01*
X125664133Y-100858838D02*
X125759371Y-100811219D01*
X84074095Y-87361819D02*
X84645523Y-87361819D01*
X84359809Y-88361819D02*
X84359809Y-87361819D01*
X85502666Y-88361819D02*
X84931238Y-88361819D01*
X85216952Y-88361819D02*
X85216952Y-87361819D01*
X85216952Y-87361819D02*
X85121714Y-87504676D01*
X85121714Y-87504676D02*
X85026476Y-87599914D01*
X85026476Y-87599914D02*
X84931238Y-87647533D01*
X109246333Y-106865819D02*
X108913000Y-106389628D01*
X108674905Y-106865819D02*
X108674905Y-105865819D01*
X108674905Y-105865819D02*
X109055857Y-105865819D01*
X109055857Y-105865819D02*
X109151095Y-105913438D01*
X109151095Y-105913438D02*
X109198714Y-105961057D01*
X109198714Y-105961057D02*
X109246333Y-106056295D01*
X109246333Y-106056295D02*
X109246333Y-106199152D01*
X109246333Y-106199152D02*
X109198714Y-106294390D01*
X109198714Y-106294390D02*
X109151095Y-106342009D01*
X109151095Y-106342009D02*
X109055857Y-106389628D01*
X109055857Y-106389628D02*
X108674905Y-106389628D01*
X110103476Y-106199152D02*
X110103476Y-106865819D01*
X109865381Y-105818200D02*
X109627286Y-106532485D01*
X109627286Y-106532485D02*
X110246333Y-106532485D01*
X72729666Y-79870009D02*
X72396333Y-79870009D01*
X72396333Y-80393819D02*
X72396333Y-79393819D01*
X72396333Y-79393819D02*
X72872523Y-79393819D01*
X73777285Y-80393819D02*
X73205857Y-80393819D01*
X73491571Y-80393819D02*
X73491571Y-79393819D01*
X73491571Y-79393819D02*
X73396333Y-79536676D01*
X73396333Y-79536676D02*
X73301095Y-79631914D01*
X73301095Y-79631914D02*
X73205857Y-79679533D01*
X147092333Y-84386819D02*
X146759000Y-83910628D01*
X146520905Y-84386819D02*
X146520905Y-83386819D01*
X146520905Y-83386819D02*
X146901857Y-83386819D01*
X146901857Y-83386819D02*
X146997095Y-83434438D01*
X146997095Y-83434438D02*
X147044714Y-83482057D01*
X147044714Y-83482057D02*
X147092333Y-83577295D01*
X147092333Y-83577295D02*
X147092333Y-83720152D01*
X147092333Y-83720152D02*
X147044714Y-83815390D01*
X147044714Y-83815390D02*
X146997095Y-83863009D01*
X146997095Y-83863009D02*
X146901857Y-83910628D01*
X146901857Y-83910628D02*
X146520905Y-83910628D01*
X147473286Y-83482057D02*
X147520905Y-83434438D01*
X147520905Y-83434438D02*
X147616143Y-83386819D01*
X147616143Y-83386819D02*
X147854238Y-83386819D01*
X147854238Y-83386819D02*
X147949476Y-83434438D01*
X147949476Y-83434438D02*
X147997095Y-83482057D01*
X147997095Y-83482057D02*
X148044714Y-83577295D01*
X148044714Y-83577295D02*
X148044714Y-83672533D01*
X148044714Y-83672533D02*
X147997095Y-83815390D01*
X147997095Y-83815390D02*
X147425667Y-84386819D01*
X147425667Y-84386819D02*
X148044714Y-84386819D01*
X64635142Y-109754080D02*
X64587523Y-109801700D01*
X64587523Y-109801700D02*
X64444666Y-109849319D01*
X64444666Y-109849319D02*
X64349428Y-109849319D01*
X64349428Y-109849319D02*
X64206571Y-109801700D01*
X64206571Y-109801700D02*
X64111333Y-109706461D01*
X64111333Y-109706461D02*
X64063714Y-109611223D01*
X64063714Y-109611223D02*
X64016095Y-109420747D01*
X64016095Y-109420747D02*
X64016095Y-109277890D01*
X64016095Y-109277890D02*
X64063714Y-109087414D01*
X64063714Y-109087414D02*
X64111333Y-108992176D01*
X64111333Y-108992176D02*
X64206571Y-108896938D01*
X64206571Y-108896938D02*
X64349428Y-108849319D01*
X64349428Y-108849319D02*
X64444666Y-108849319D01*
X64444666Y-108849319D02*
X64587523Y-108896938D01*
X64587523Y-108896938D02*
X64635142Y-108944557D01*
X65587523Y-109849319D02*
X65016095Y-109849319D01*
X65301809Y-109849319D02*
X65301809Y-108849319D01*
X65301809Y-108849319D02*
X65206571Y-108992176D01*
X65206571Y-108992176D02*
X65111333Y-109087414D01*
X65111333Y-109087414D02*
X65016095Y-109135033D01*
X65968476Y-108944557D02*
X66016095Y-108896938D01*
X66016095Y-108896938D02*
X66111333Y-108849319D01*
X66111333Y-108849319D02*
X66349428Y-108849319D01*
X66349428Y-108849319D02*
X66444666Y-108896938D01*
X66444666Y-108896938D02*
X66492285Y-108944557D01*
X66492285Y-108944557D02*
X66539904Y-109039795D01*
X66539904Y-109039795D02*
X66539904Y-109135033D01*
X66539904Y-109135033D02*
X66492285Y-109277890D01*
X66492285Y-109277890D02*
X65920857Y-109849319D01*
X65920857Y-109849319D02*
X66539904Y-109849319D01*
X132509939Y-85529580D02*
X132462320Y-85577200D01*
X132462320Y-85577200D02*
X132319463Y-85624819D01*
X132319463Y-85624819D02*
X132224225Y-85624819D01*
X132224225Y-85624819D02*
X132081368Y-85577200D01*
X132081368Y-85577200D02*
X131986130Y-85481961D01*
X131986130Y-85481961D02*
X131938511Y-85386723D01*
X131938511Y-85386723D02*
X131890892Y-85196247D01*
X131890892Y-85196247D02*
X131890892Y-85053390D01*
X131890892Y-85053390D02*
X131938511Y-84862914D01*
X131938511Y-84862914D02*
X131986130Y-84767676D01*
X131986130Y-84767676D02*
X132081368Y-84672438D01*
X132081368Y-84672438D02*
X132224225Y-84624819D01*
X132224225Y-84624819D02*
X132319463Y-84624819D01*
X132319463Y-84624819D02*
X132462320Y-84672438D01*
X132462320Y-84672438D02*
X132509939Y-84720057D01*
X132843273Y-84624819D02*
X133462320Y-84624819D01*
X133462320Y-84624819D02*
X133128987Y-85005771D01*
X133128987Y-85005771D02*
X133271844Y-85005771D01*
X133271844Y-85005771D02*
X133367082Y-85053390D01*
X133367082Y-85053390D02*
X133414701Y-85101009D01*
X133414701Y-85101009D02*
X133462320Y-85196247D01*
X133462320Y-85196247D02*
X133462320Y-85434342D01*
X133462320Y-85434342D02*
X133414701Y-85529580D01*
X133414701Y-85529580D02*
X133367082Y-85577200D01*
X133367082Y-85577200D02*
X133271844Y-85624819D01*
X133271844Y-85624819D02*
X132986130Y-85624819D01*
X132986130Y-85624819D02*
X132890892Y-85577200D01*
X132890892Y-85577200D02*
X132843273Y-85529580D01*
X83481333Y-115023819D02*
X83148000Y-114547628D01*
X82909905Y-115023819D02*
X82909905Y-114023819D01*
X82909905Y-114023819D02*
X83290857Y-114023819D01*
X83290857Y-114023819D02*
X83386095Y-114071438D01*
X83386095Y-114071438D02*
X83433714Y-114119057D01*
X83433714Y-114119057D02*
X83481333Y-114214295D01*
X83481333Y-114214295D02*
X83481333Y-114357152D01*
X83481333Y-114357152D02*
X83433714Y-114452390D01*
X83433714Y-114452390D02*
X83386095Y-114500009D01*
X83386095Y-114500009D02*
X83290857Y-114547628D01*
X83290857Y-114547628D02*
X82909905Y-114547628D01*
X84052762Y-114452390D02*
X83957524Y-114404771D01*
X83957524Y-114404771D02*
X83909905Y-114357152D01*
X83909905Y-114357152D02*
X83862286Y-114261914D01*
X83862286Y-114261914D02*
X83862286Y-114214295D01*
X83862286Y-114214295D02*
X83909905Y-114119057D01*
X83909905Y-114119057D02*
X83957524Y-114071438D01*
X83957524Y-114071438D02*
X84052762Y-114023819D01*
X84052762Y-114023819D02*
X84243238Y-114023819D01*
X84243238Y-114023819D02*
X84338476Y-114071438D01*
X84338476Y-114071438D02*
X84386095Y-114119057D01*
X84386095Y-114119057D02*
X84433714Y-114214295D01*
X84433714Y-114214295D02*
X84433714Y-114261914D01*
X84433714Y-114261914D02*
X84386095Y-114357152D01*
X84386095Y-114357152D02*
X84338476Y-114404771D01*
X84338476Y-114404771D02*
X84243238Y-114452390D01*
X84243238Y-114452390D02*
X84052762Y-114452390D01*
X84052762Y-114452390D02*
X83957524Y-114500009D01*
X83957524Y-114500009D02*
X83909905Y-114547628D01*
X83909905Y-114547628D02*
X83862286Y-114642866D01*
X83862286Y-114642866D02*
X83862286Y-114833342D01*
X83862286Y-114833342D02*
X83909905Y-114928580D01*
X83909905Y-114928580D02*
X83957524Y-114976200D01*
X83957524Y-114976200D02*
X84052762Y-115023819D01*
X84052762Y-115023819D02*
X84243238Y-115023819D01*
X84243238Y-115023819D02*
X84338476Y-114976200D01*
X84338476Y-114976200D02*
X84386095Y-114928580D01*
X84386095Y-114928580D02*
X84433714Y-114833342D01*
X84433714Y-114833342D02*
X84433714Y-114642866D01*
X84433714Y-114642866D02*
X84386095Y-114547628D01*
X84386095Y-114547628D02*
X84338476Y-114500009D01*
X84338476Y-114500009D02*
X84243238Y-114452390D01*
X172180095Y-82070819D02*
X172751523Y-82070819D01*
X172465809Y-83070819D02*
X172465809Y-82070819D01*
X173656285Y-83070819D02*
X173322952Y-82594628D01*
X173084857Y-83070819D02*
X173084857Y-82070819D01*
X173084857Y-82070819D02*
X173465809Y-82070819D01*
X173465809Y-82070819D02*
X173561047Y-82118438D01*
X173561047Y-82118438D02*
X173608666Y-82166057D01*
X173608666Y-82166057D02*
X173656285Y-82261295D01*
X173656285Y-82261295D02*
X173656285Y-82404152D01*
X173656285Y-82404152D02*
X173608666Y-82499390D01*
X173608666Y-82499390D02*
X173561047Y-82547009D01*
X173561047Y-82547009D02*
X173465809Y-82594628D01*
X173465809Y-82594628D02*
X173084857Y-82594628D01*
X174608666Y-83070819D02*
X174037238Y-83070819D01*
X174322952Y-83070819D02*
X174322952Y-82070819D01*
X174322952Y-82070819D02*
X174227714Y-82213676D01*
X174227714Y-82213676D02*
X174132476Y-82308914D01*
X174132476Y-82308914D02*
X174037238Y-82356533D01*
X165846762Y-85499390D02*
X165751524Y-85451771D01*
X165751524Y-85451771D02*
X165703905Y-85404152D01*
X165703905Y-85404152D02*
X165656286Y-85308914D01*
X165656286Y-85308914D02*
X165656286Y-85261295D01*
X165656286Y-85261295D02*
X165703905Y-85166057D01*
X165703905Y-85166057D02*
X165751524Y-85118438D01*
X165751524Y-85118438D02*
X165846762Y-85070819D01*
X165846762Y-85070819D02*
X166037238Y-85070819D01*
X166037238Y-85070819D02*
X166132476Y-85118438D01*
X166132476Y-85118438D02*
X166180095Y-85166057D01*
X166180095Y-85166057D02*
X166227714Y-85261295D01*
X166227714Y-85261295D02*
X166227714Y-85308914D01*
X166227714Y-85308914D02*
X166180095Y-85404152D01*
X166180095Y-85404152D02*
X166132476Y-85451771D01*
X166132476Y-85451771D02*
X166037238Y-85499390D01*
X166037238Y-85499390D02*
X165846762Y-85499390D01*
X165846762Y-85499390D02*
X165751524Y-85547009D01*
X165751524Y-85547009D02*
X165703905Y-85594628D01*
X165703905Y-85594628D02*
X165656286Y-85689866D01*
X165656286Y-85689866D02*
X165656286Y-85880342D01*
X165656286Y-85880342D02*
X165703905Y-85975580D01*
X165703905Y-85975580D02*
X165751524Y-86023200D01*
X165751524Y-86023200D02*
X165846762Y-86070819D01*
X165846762Y-86070819D02*
X166037238Y-86070819D01*
X166037238Y-86070819D02*
X166132476Y-86023200D01*
X166132476Y-86023200D02*
X166180095Y-85975580D01*
X166180095Y-85975580D02*
X166227714Y-85880342D01*
X166227714Y-85880342D02*
X166227714Y-85689866D01*
X166227714Y-85689866D02*
X166180095Y-85594628D01*
X166180095Y-85594628D02*
X166132476Y-85547009D01*
X166132476Y-85547009D02*
X166037238Y-85499390D01*
X166227714Y-105570819D02*
X165656286Y-105570819D01*
X165942000Y-105570819D02*
X165942000Y-104570819D01*
X165942000Y-104570819D02*
X165846762Y-104713676D01*
X165846762Y-104713676D02*
X165751524Y-104808914D01*
X165751524Y-104808914D02*
X165656286Y-104856533D01*
X170608667Y-85070819D02*
X171275333Y-85070819D01*
X171275333Y-85070819D02*
X170846762Y-86070819D01*
X170656286Y-104666057D02*
X170703905Y-104618438D01*
X170703905Y-104618438D02*
X170799143Y-104570819D01*
X170799143Y-104570819D02*
X171037238Y-104570819D01*
X171037238Y-104570819D02*
X171132476Y-104618438D01*
X171132476Y-104618438D02*
X171180095Y-104666057D01*
X171180095Y-104666057D02*
X171227714Y-104761295D01*
X171227714Y-104761295D02*
X171227714Y-104856533D01*
X171227714Y-104856533D02*
X171180095Y-104999390D01*
X171180095Y-104999390D02*
X170608667Y-105570819D01*
X170608667Y-105570819D02*
X171227714Y-105570819D01*
X176132476Y-85070819D02*
X175942000Y-85070819D01*
X175942000Y-85070819D02*
X175846762Y-85118438D01*
X175846762Y-85118438D02*
X175799143Y-85166057D01*
X175799143Y-85166057D02*
X175703905Y-85308914D01*
X175703905Y-85308914D02*
X175656286Y-85499390D01*
X175656286Y-85499390D02*
X175656286Y-85880342D01*
X175656286Y-85880342D02*
X175703905Y-85975580D01*
X175703905Y-85975580D02*
X175751524Y-86023200D01*
X175751524Y-86023200D02*
X175846762Y-86070819D01*
X175846762Y-86070819D02*
X176037238Y-86070819D01*
X176037238Y-86070819D02*
X176132476Y-86023200D01*
X176132476Y-86023200D02*
X176180095Y-85975580D01*
X176180095Y-85975580D02*
X176227714Y-85880342D01*
X176227714Y-85880342D02*
X176227714Y-85642247D01*
X176227714Y-85642247D02*
X176180095Y-85547009D01*
X176180095Y-85547009D02*
X176132476Y-85499390D01*
X176132476Y-85499390D02*
X176037238Y-85451771D01*
X176037238Y-85451771D02*
X175846762Y-85451771D01*
X175846762Y-85451771D02*
X175751524Y-85499390D01*
X175751524Y-85499390D02*
X175703905Y-85547009D01*
X175703905Y-85547009D02*
X175656286Y-85642247D01*
X175608667Y-104570819D02*
X176227714Y-104570819D01*
X176227714Y-104570819D02*
X175894381Y-104951771D01*
X175894381Y-104951771D02*
X176037238Y-104951771D01*
X176037238Y-104951771D02*
X176132476Y-104999390D01*
X176132476Y-104999390D02*
X176180095Y-105047009D01*
X176180095Y-105047009D02*
X176227714Y-105142247D01*
X176227714Y-105142247D02*
X176227714Y-105380342D01*
X176227714Y-105380342D02*
X176180095Y-105475580D01*
X176180095Y-105475580D02*
X176132476Y-105523200D01*
X176132476Y-105523200D02*
X176037238Y-105570819D01*
X176037238Y-105570819D02*
X175751524Y-105570819D01*
X175751524Y-105570819D02*
X175656286Y-105523200D01*
X175656286Y-105523200D02*
X175608667Y-105475580D01*
X181180095Y-85070819D02*
X180703905Y-85070819D01*
X180703905Y-85070819D02*
X180656286Y-85547009D01*
X180656286Y-85547009D02*
X180703905Y-85499390D01*
X180703905Y-85499390D02*
X180799143Y-85451771D01*
X180799143Y-85451771D02*
X181037238Y-85451771D01*
X181037238Y-85451771D02*
X181132476Y-85499390D01*
X181132476Y-85499390D02*
X181180095Y-85547009D01*
X181180095Y-85547009D02*
X181227714Y-85642247D01*
X181227714Y-85642247D02*
X181227714Y-85880342D01*
X181227714Y-85880342D02*
X181180095Y-85975580D01*
X181180095Y-85975580D02*
X181132476Y-86023200D01*
X181132476Y-86023200D02*
X181037238Y-86070819D01*
X181037238Y-86070819D02*
X180799143Y-86070819D01*
X180799143Y-86070819D02*
X180703905Y-86023200D01*
X180703905Y-86023200D02*
X180656286Y-85975580D01*
X181132476Y-104904152D02*
X181132476Y-105570819D01*
X180894381Y-104523200D02*
X180656286Y-105237485D01*
X180656286Y-105237485D02*
X181275333Y-105237485D01*
D13*
%TO.C,REF\u002A\u002A*%
X195335146Y-118121108D02*
X195350469Y-118146790D01*
X195384911Y-118205669D01*
X195436769Y-118294802D01*
X195504340Y-118411249D01*
X195585921Y-118552067D01*
X195679809Y-118714314D01*
X195784299Y-118895049D01*
X195897690Y-119091330D01*
X196018278Y-119300216D01*
X196142313Y-119515217D01*
X196268987Y-119734849D01*
X196390608Y-119945695D01*
X196505412Y-120144699D01*
X196611638Y-120328807D01*
X196707523Y-120494965D01*
X196791302Y-120640117D01*
X196861214Y-120761209D01*
X196915496Y-120855188D01*
X196952385Y-120918997D01*
X196969731Y-120948919D01*
X196998007Y-120999471D01*
X197013382Y-121031114D01*
X197014224Y-121036620D01*
X196995488Y-121026282D01*
X196943386Y-120996607D01*
X196860640Y-120949168D01*
X196749975Y-120885533D01*
X196614114Y-120807274D01*
X196455781Y-120715959D01*
X196277698Y-120613160D01*
X196082590Y-120500447D01*
X195873180Y-120379389D01*
X195652191Y-120251557D01*
X195568113Y-120202902D01*
X195343170Y-120072767D01*
X195128524Y-119948697D01*
X194926932Y-119832277D01*
X194741148Y-119725093D01*
X194573928Y-119628731D01*
X194428027Y-119544778D01*
X194306201Y-119474820D01*
X194211204Y-119420443D01*
X194145792Y-119383234D01*
X194112720Y-119364778D01*
X194109262Y-119363030D01*
X194119339Y-119347205D01*
X194154407Y-119304892D01*
X194210885Y-119239990D01*
X194285193Y-119156396D01*
X194373752Y-119058009D01*
X194472980Y-118948725D01*
X194579298Y-118832444D01*
X194689125Y-118713062D01*
X194798882Y-118594477D01*
X194904988Y-118480588D01*
X195003862Y-118375292D01*
X195091926Y-118282487D01*
X195165599Y-118206070D01*
X195221300Y-118149940D01*
X195240403Y-118131535D01*
X195303708Y-118072072D01*
X195335146Y-118121108D01*
G36*
X195335146Y-118121108D02*
G01*
X195350469Y-118146790D01*
X195384911Y-118205669D01*
X195436769Y-118294802D01*
X195504340Y-118411249D01*
X195585921Y-118552067D01*
X195679809Y-118714314D01*
X195784299Y-118895049D01*
X195897690Y-119091330D01*
X196018278Y-119300216D01*
X196142313Y-119515217D01*
X196268987Y-119734849D01*
X196390608Y-119945695D01*
X196505412Y-120144699D01*
X196611638Y-120328807D01*
X196707523Y-120494965D01*
X196791302Y-120640117D01*
X196861214Y-120761209D01*
X196915496Y-120855188D01*
X196952385Y-120918997D01*
X196969731Y-120948919D01*
X196998007Y-120999471D01*
X197013382Y-121031114D01*
X197014224Y-121036620D01*
X196995488Y-121026282D01*
X196943386Y-120996607D01*
X196860640Y-120949168D01*
X196749975Y-120885533D01*
X196614114Y-120807274D01*
X196455781Y-120715959D01*
X196277698Y-120613160D01*
X196082590Y-120500447D01*
X195873180Y-120379389D01*
X195652191Y-120251557D01*
X195568113Y-120202902D01*
X195343170Y-120072767D01*
X195128524Y-119948697D01*
X194926932Y-119832277D01*
X194741148Y-119725093D01*
X194573928Y-119628731D01*
X194428027Y-119544778D01*
X194306201Y-119474820D01*
X194211204Y-119420443D01*
X194145792Y-119383234D01*
X194112720Y-119364778D01*
X194109262Y-119363030D01*
X194119339Y-119347205D01*
X194154407Y-119304892D01*
X194210885Y-119239990D01*
X194285193Y-119156396D01*
X194373752Y-119058009D01*
X194472980Y-118948725D01*
X194579298Y-118832444D01*
X194689125Y-118713062D01*
X194798882Y-118594477D01*
X194904988Y-118480588D01*
X195003862Y-118375292D01*
X195091926Y-118282487D01*
X195165599Y-118206070D01*
X195221300Y-118149940D01*
X195240403Y-118131535D01*
X195303708Y-118072072D01*
X195335146Y-118121108D01*
G37*
X192879878Y-113881366D02*
X192910876Y-113931738D01*
X192958634Y-114011541D01*
X193021194Y-114117380D01*
X193096597Y-114245859D01*
X193182885Y-114393584D01*
X193278101Y-114557158D01*
X193380285Y-114733187D01*
X193487481Y-114918275D01*
X193597729Y-115109027D01*
X193709071Y-115302047D01*
X193819550Y-115493941D01*
X193927207Y-115681311D01*
X194030084Y-115860765D01*
X194126223Y-116028905D01*
X194213665Y-116182337D01*
X194290453Y-116317665D01*
X194354628Y-116431494D01*
X194404233Y-116520429D01*
X194437309Y-116581074D01*
X194451897Y-116610033D01*
X194452431Y-116611844D01*
X194434321Y-116636417D01*
X194383980Y-116674007D01*
X194307395Y-116720922D01*
X194210552Y-116773474D01*
X194109167Y-116823413D01*
X193971215Y-116883969D01*
X193826142Y-116938379D01*
X193668950Y-116987851D01*
X193494643Y-117033595D01*
X193298222Y-117076820D01*
X193074689Y-117118734D01*
X192819048Y-117160547D01*
X192554606Y-117199484D01*
X192324852Y-117234028D01*
X192131917Y-117268226D01*
X191970964Y-117303777D01*
X191837155Y-117342382D01*
X191725650Y-117385739D01*
X191631614Y-117435548D01*
X191550206Y-117493509D01*
X191476590Y-117561320D01*
X191452851Y-117586512D01*
X191401397Y-117645158D01*
X191363334Y-117693015D01*
X191345677Y-117721158D01*
X191345206Y-117723465D01*
X191339028Y-117737616D01*
X191317590Y-117737775D01*
X191276533Y-117722061D01*
X191211501Y-117688591D01*
X191118137Y-117635481D01*
X191053252Y-117597288D01*
X190956501Y-117537585D01*
X190881312Y-117486463D01*
X190832739Y-117447599D01*
X190815835Y-117424672D01*
X190815845Y-117424505D01*
X190826328Y-117402656D01*
X190855931Y-117347939D01*
X190902938Y-117263336D01*
X190965629Y-117151829D01*
X191042286Y-117016401D01*
X191131191Y-116860033D01*
X191230626Y-116685707D01*
X191338872Y-116496406D01*
X191454211Y-116295111D01*
X191574924Y-116084805D01*
X191699294Y-115868471D01*
X191825601Y-115649089D01*
X191952127Y-115429642D01*
X192077155Y-115213112D01*
X192198965Y-115002481D01*
X192315839Y-114800732D01*
X192426060Y-114610847D01*
X192527908Y-114435806D01*
X192619665Y-114278594D01*
X192699613Y-114142191D01*
X192766034Y-114029580D01*
X192817209Y-113943743D01*
X192851420Y-113887662D01*
X192866948Y-113864319D01*
X192867598Y-113863821D01*
X192879878Y-113881366D01*
G36*
X192879878Y-113881366D02*
G01*
X192910876Y-113931738D01*
X192958634Y-114011541D01*
X193021194Y-114117380D01*
X193096597Y-114245859D01*
X193182885Y-114393584D01*
X193278101Y-114557158D01*
X193380285Y-114733187D01*
X193487481Y-114918275D01*
X193597729Y-115109027D01*
X193709071Y-115302047D01*
X193819550Y-115493941D01*
X193927207Y-115681311D01*
X194030084Y-115860765D01*
X194126223Y-116028905D01*
X194213665Y-116182337D01*
X194290453Y-116317665D01*
X194354628Y-116431494D01*
X194404233Y-116520429D01*
X194437309Y-116581074D01*
X194451897Y-116610033D01*
X194452431Y-116611844D01*
X194434321Y-116636417D01*
X194383980Y-116674007D01*
X194307395Y-116720922D01*
X194210552Y-116773474D01*
X194109167Y-116823413D01*
X193971215Y-116883969D01*
X193826142Y-116938379D01*
X193668950Y-116987851D01*
X193494643Y-117033595D01*
X193298222Y-117076820D01*
X193074689Y-117118734D01*
X192819048Y-117160547D01*
X192554606Y-117199484D01*
X192324852Y-117234028D01*
X192131917Y-117268226D01*
X191970964Y-117303777D01*
X191837155Y-117342382D01*
X191725650Y-117385739D01*
X191631614Y-117435548D01*
X191550206Y-117493509D01*
X191476590Y-117561320D01*
X191452851Y-117586512D01*
X191401397Y-117645158D01*
X191363334Y-117693015D01*
X191345677Y-117721158D01*
X191345206Y-117723465D01*
X191339028Y-117737616D01*
X191317590Y-117737775D01*
X191276533Y-117722061D01*
X191211501Y-117688591D01*
X191118137Y-117635481D01*
X191053252Y-117597288D01*
X190956501Y-117537585D01*
X190881312Y-117486463D01*
X190832739Y-117447599D01*
X190815835Y-117424672D01*
X190815845Y-117424505D01*
X190826328Y-117402656D01*
X190855931Y-117347939D01*
X190902938Y-117263336D01*
X190965629Y-117151829D01*
X191042286Y-117016401D01*
X191131191Y-116860033D01*
X191230626Y-116685707D01*
X191338872Y-116496406D01*
X191454211Y-116295111D01*
X191574924Y-116084805D01*
X191699294Y-115868471D01*
X191825601Y-115649089D01*
X191952127Y-115429642D01*
X192077155Y-115213112D01*
X192198965Y-115002481D01*
X192315839Y-114800732D01*
X192426060Y-114610847D01*
X192527908Y-114435806D01*
X192619665Y-114278594D01*
X192699613Y-114142191D01*
X192766034Y-114029580D01*
X192817209Y-113943743D01*
X192851420Y-113887662D01*
X192866948Y-113864319D01*
X192867598Y-113863821D01*
X192879878Y-113881366D01*
G37*
X190399749Y-118197236D02*
X190443544Y-118214172D01*
X190510293Y-118247801D01*
X190606137Y-118300534D01*
X190613599Y-118304725D01*
X190701871Y-118355201D01*
X190776363Y-118399423D01*
X190829760Y-118432931D01*
X190854746Y-118451264D01*
X190855445Y-118452162D01*
X190849409Y-118477614D01*
X190821723Y-118534455D01*
X190774188Y-118619589D01*
X190708611Y-118729917D01*
X190626797Y-118862344D01*
X190530548Y-119013771D01*
X190506594Y-119050907D01*
X190444183Y-119153957D01*
X190398737Y-119242632D01*
X190374246Y-119308914D01*
X190371733Y-119322007D01*
X190372848Y-119379643D01*
X190385343Y-119471065D01*
X190407660Y-119590408D01*
X190438240Y-119731809D01*
X190475528Y-119889403D01*
X190517965Y-120057326D01*
X190563994Y-120229714D01*
X190612057Y-120400701D01*
X190660597Y-120564424D01*
X190708057Y-120715018D01*
X190752878Y-120846620D01*
X190793503Y-120953363D01*
X190821823Y-121016694D01*
X190855183Y-121084157D01*
X190886682Y-121148711D01*
X190888387Y-121152245D01*
X190940498Y-121217450D01*
X191016554Y-121261356D01*
X191105092Y-121282397D01*
X191194648Y-121279007D01*
X191273758Y-121249623D01*
X191318264Y-121210936D01*
X191382356Y-121104836D01*
X191429322Y-120972605D01*
X191455090Y-120827727D01*
X191458741Y-120745594D01*
X191444039Y-120592305D01*
X191400890Y-120465366D01*
X191326972Y-120358618D01*
X191303921Y-120334857D01*
X191235325Y-120268209D01*
X191230614Y-119797116D01*
X191225903Y-119326022D01*
X191345946Y-119144306D01*
X191402277Y-119062056D01*
X191456528Y-118988065D01*
X191500959Y-118932648D01*
X191520056Y-118912256D01*
X191574124Y-118861923D01*
X191647350Y-118901358D01*
X191693633Y-118929615D01*
X191718957Y-118951554D01*
X191720576Y-118955499D01*
X191737884Y-118972223D01*
X191767497Y-118984676D01*
X191796114Y-118995900D01*
X191839934Y-119017224D01*
X191902718Y-119050729D01*
X191988228Y-119098496D01*
X192100226Y-119162607D01*
X192242473Y-119245144D01*
X192319773Y-119290265D01*
X192410702Y-119344311D01*
X192470339Y-119382804D01*
X192503961Y-119410244D01*
X192516844Y-119431134D01*
X192514265Y-119449975D01*
X192512115Y-119454352D01*
X192491197Y-119481914D01*
X192446440Y-119533616D01*
X192383057Y-119603675D01*
X192306262Y-119686307D01*
X192239844Y-119756356D01*
X192086790Y-119922614D01*
X191967056Y-120066719D01*
X191879573Y-120190121D01*
X191823274Y-120294268D01*
X191804284Y-120347154D01*
X191796440Y-120393450D01*
X191788338Y-120472421D01*
X191780691Y-120575046D01*
X191774212Y-120692303D01*
X191771163Y-120766448D01*
X191766908Y-120894627D01*
X191765036Y-120988338D01*
X191766099Y-121054783D01*
X191770646Y-121101161D01*
X191779227Y-121134674D01*
X191792394Y-121162521D01*
X191802735Y-121179524D01*
X191862456Y-121245062D01*
X191939411Y-121290732D01*
X192020380Y-121310650D01*
X192081058Y-121303444D01*
X192135999Y-121272266D01*
X192204867Y-121216430D01*
X192278005Y-121145674D01*
X192345752Y-121069737D01*
X192398450Y-120998359D01*
X192417853Y-120963868D01*
X192446919Y-120916641D01*
X192499783Y-120844706D01*
X192571616Y-120753685D01*
X192657588Y-120649200D01*
X192752868Y-120536875D01*
X192852627Y-120422330D01*
X192952034Y-120311190D01*
X193046259Y-120209075D01*
X193130473Y-120121608D01*
X193196591Y-120057398D01*
X193269999Y-119993257D01*
X193331753Y-119945963D01*
X193375066Y-119920435D01*
X193389445Y-119917629D01*
X193411479Y-119928952D01*
X193466438Y-119959344D01*
X193551152Y-120006980D01*
X193662448Y-120070035D01*
X193797156Y-120146685D01*
X193952103Y-120235105D01*
X194124119Y-120333470D01*
X194310032Y-120439956D01*
X194506670Y-120552737D01*
X194710863Y-120669989D01*
X194919439Y-120789887D01*
X195129225Y-120910607D01*
X195337052Y-121030323D01*
X195539747Y-121147211D01*
X195734140Y-121259446D01*
X195917058Y-121365204D01*
X196085330Y-121462660D01*
X196235785Y-121549988D01*
X196365251Y-121625365D01*
X196470557Y-121686965D01*
X196548532Y-121732964D01*
X196596004Y-121761537D01*
X196609763Y-121770504D01*
X196591231Y-121772276D01*
X196532933Y-121773999D01*
X196436809Y-121775664D01*
X196304799Y-121777263D01*
X196138846Y-121778787D01*
X195940889Y-121780229D01*
X195712870Y-121781580D01*
X195456729Y-121782832D01*
X195174408Y-121783976D01*
X194867847Y-121785004D01*
X194538987Y-121785908D01*
X194189769Y-121786679D01*
X193822135Y-121787309D01*
X193438024Y-121787790D01*
X193039377Y-121788114D01*
X192628137Y-121788272D01*
X192455580Y-121788287D01*
X188281586Y-121788287D01*
X188579268Y-121272154D01*
X188642286Y-121162865D01*
X188723406Y-121022140D01*
X188819916Y-120854686D01*
X188929103Y-120665212D01*
X189048255Y-120458423D01*
X189174660Y-120239028D01*
X189305605Y-120011733D01*
X189438379Y-119781246D01*
X189570269Y-119552273D01*
X189603624Y-119494363D01*
X189725247Y-119283432D01*
X189841228Y-119082735D01*
X189949825Y-118895259D01*
X190049294Y-118723992D01*
X190137892Y-118571923D01*
X190213878Y-118442038D01*
X190275507Y-118337325D01*
X190321037Y-118260773D01*
X190348725Y-118215369D01*
X190356472Y-118203809D01*
X190372772Y-118194585D01*
X190399749Y-118197236D01*
G36*
X190399749Y-118197236D02*
G01*
X190443544Y-118214172D01*
X190510293Y-118247801D01*
X190606137Y-118300534D01*
X190613599Y-118304725D01*
X190701871Y-118355201D01*
X190776363Y-118399423D01*
X190829760Y-118432931D01*
X190854746Y-118451264D01*
X190855445Y-118452162D01*
X190849409Y-118477614D01*
X190821723Y-118534455D01*
X190774188Y-118619589D01*
X190708611Y-118729917D01*
X190626797Y-118862344D01*
X190530548Y-119013771D01*
X190506594Y-119050907D01*
X190444183Y-119153957D01*
X190398737Y-119242632D01*
X190374246Y-119308914D01*
X190371733Y-119322007D01*
X190372848Y-119379643D01*
X190385343Y-119471065D01*
X190407660Y-119590408D01*
X190438240Y-119731809D01*
X190475528Y-119889403D01*
X190517965Y-120057326D01*
X190563994Y-120229714D01*
X190612057Y-120400701D01*
X190660597Y-120564424D01*
X190708057Y-120715018D01*
X190752878Y-120846620D01*
X190793503Y-120953363D01*
X190821823Y-121016694D01*
X190855183Y-121084157D01*
X190886682Y-121148711D01*
X190888387Y-121152245D01*
X190940498Y-121217450D01*
X191016554Y-121261356D01*
X191105092Y-121282397D01*
X191194648Y-121279007D01*
X191273758Y-121249623D01*
X191318264Y-121210936D01*
X191382356Y-121104836D01*
X191429322Y-120972605D01*
X191455090Y-120827727D01*
X191458741Y-120745594D01*
X191444039Y-120592305D01*
X191400890Y-120465366D01*
X191326972Y-120358618D01*
X191303921Y-120334857D01*
X191235325Y-120268209D01*
X191230614Y-119797116D01*
X191225903Y-119326022D01*
X191345946Y-119144306D01*
X191402277Y-119062056D01*
X191456528Y-118988065D01*
X191500959Y-118932648D01*
X191520056Y-118912256D01*
X191574124Y-118861923D01*
X191647350Y-118901358D01*
X191693633Y-118929615D01*
X191718957Y-118951554D01*
X191720576Y-118955499D01*
X191737884Y-118972223D01*
X191767497Y-118984676D01*
X191796114Y-118995900D01*
X191839934Y-119017224D01*
X191902718Y-119050729D01*
X191988228Y-119098496D01*
X192100226Y-119162607D01*
X192242473Y-119245144D01*
X192319773Y-119290265D01*
X192410702Y-119344311D01*
X192470339Y-119382804D01*
X192503961Y-119410244D01*
X192516844Y-119431134D01*
X192514265Y-119449975D01*
X192512115Y-119454352D01*
X192491197Y-119481914D01*
X192446440Y-119533616D01*
X192383057Y-119603675D01*
X192306262Y-119686307D01*
X192239844Y-119756356D01*
X192086790Y-119922614D01*
X191967056Y-120066719D01*
X191879573Y-120190121D01*
X191823274Y-120294268D01*
X191804284Y-120347154D01*
X191796440Y-120393450D01*
X191788338Y-120472421D01*
X191780691Y-120575046D01*
X191774212Y-120692303D01*
X191771163Y-120766448D01*
X191766908Y-120894627D01*
X191765036Y-120988338D01*
X191766099Y-121054783D01*
X191770646Y-121101161D01*
X191779227Y-121134674D01*
X191792394Y-121162521D01*
X191802735Y-121179524D01*
X191862456Y-121245062D01*
X191939411Y-121290732D01*
X192020380Y-121310650D01*
X192081058Y-121303444D01*
X192135999Y-121272266D01*
X192204867Y-121216430D01*
X192278005Y-121145674D01*
X192345752Y-121069737D01*
X192398450Y-120998359D01*
X192417853Y-120963868D01*
X192446919Y-120916641D01*
X192499783Y-120844706D01*
X192571616Y-120753685D01*
X192657588Y-120649200D01*
X192752868Y-120536875D01*
X192852627Y-120422330D01*
X192952034Y-120311190D01*
X193046259Y-120209075D01*
X193130473Y-120121608D01*
X193196591Y-120057398D01*
X193269999Y-119993257D01*
X193331753Y-119945963D01*
X193375066Y-119920435D01*
X193389445Y-119917629D01*
X193411479Y-119928952D01*
X193466438Y-119959344D01*
X193551152Y-120006980D01*
X193662448Y-120070035D01*
X193797156Y-120146685D01*
X193952103Y-120235105D01*
X194124119Y-120333470D01*
X194310032Y-120439956D01*
X194506670Y-120552737D01*
X194710863Y-120669989D01*
X194919439Y-120789887D01*
X195129225Y-120910607D01*
X195337052Y-121030323D01*
X195539747Y-121147211D01*
X195734140Y-121259446D01*
X195917058Y-121365204D01*
X196085330Y-121462660D01*
X196235785Y-121549988D01*
X196365251Y-121625365D01*
X196470557Y-121686965D01*
X196548532Y-121732964D01*
X196596004Y-121761537D01*
X196609763Y-121770504D01*
X196591231Y-121772276D01*
X196532933Y-121773999D01*
X196436809Y-121775664D01*
X196304799Y-121777263D01*
X196138846Y-121778787D01*
X195940889Y-121780229D01*
X195712870Y-121781580D01*
X195456729Y-121782832D01*
X195174408Y-121783976D01*
X194867847Y-121785004D01*
X194538987Y-121785908D01*
X194189769Y-121786679D01*
X193822135Y-121787309D01*
X193438024Y-121787790D01*
X193039377Y-121788114D01*
X192628137Y-121788272D01*
X192455580Y-121788287D01*
X188281586Y-121788287D01*
X188579268Y-121272154D01*
X188642286Y-121162865D01*
X188723406Y-121022140D01*
X188819916Y-120854686D01*
X188929103Y-120665212D01*
X189048255Y-120458423D01*
X189174660Y-120239028D01*
X189305605Y-120011733D01*
X189438379Y-119781246D01*
X189570269Y-119552273D01*
X189603624Y-119494363D01*
X189725247Y-119283432D01*
X189841228Y-119082735D01*
X189949825Y-118895259D01*
X190049294Y-118723992D01*
X190137892Y-118571923D01*
X190213878Y-118442038D01*
X190275507Y-118337325D01*
X190321037Y-118260773D01*
X190348725Y-118215369D01*
X190356472Y-118203809D01*
X190372772Y-118194585D01*
X190399749Y-118197236D01*
G37*
%TO.C,D1*%
D14*
X100654000Y-86868000D02*
X101674000Y-86868000D01*
X102454000Y-85398000D02*
X102454000Y-88338000D01*
X102574000Y-85398000D02*
X102574000Y-88338000D01*
X102694000Y-85398000D02*
X102694000Y-88338000D01*
X108134000Y-86868000D02*
X107114000Y-86868000D01*
X101674000Y-85398000D02*
X107114000Y-85398000D01*
X107114000Y-88338000D01*
X101674000Y-88338000D01*
X101674000Y-85398000D01*
%TO.C,D6*%
X151708000Y-80772000D02*
X152728000Y-80772000D01*
X153508000Y-79302000D02*
X153508000Y-82242000D01*
X153628000Y-79302000D02*
X153628000Y-82242000D01*
X153748000Y-79302000D02*
X153748000Y-82242000D01*
X159188000Y-80772000D02*
X158168000Y-80772000D01*
X152728000Y-79302000D02*
X158168000Y-79302000D01*
X158168000Y-82242000D01*
X152728000Y-82242000D01*
X152728000Y-79302000D01*
%TO.C,D5*%
X140278000Y-104140000D02*
X141298000Y-104140000D01*
X145718000Y-105610000D02*
X145718000Y-102670000D01*
X145838000Y-105610000D02*
X145838000Y-102670000D01*
X145958000Y-105610000D02*
X145958000Y-102670000D01*
X147758000Y-104140000D02*
X146738000Y-104140000D01*
X141298000Y-102670000D02*
X146738000Y-102670000D01*
X146738000Y-105610000D01*
X141298000Y-105610000D01*
X141298000Y-102670000D01*
%TO.C,C10*%
X59145000Y-104659500D02*
X60285000Y-104659500D01*
X60285000Y-107029500D02*
X60285000Y-102289500D01*
X67525000Y-102289500D02*
X60285000Y-102289500D01*
X67525000Y-107029500D02*
X60285000Y-107029500D01*
X68275000Y-103039500D02*
X67525000Y-102289500D01*
X68275000Y-106279500D02*
X67525000Y-107029500D01*
X69025000Y-102289500D02*
X68275000Y-103039500D01*
X69025000Y-107029500D02*
X68275000Y-106279500D01*
X70525000Y-102289500D02*
X69025000Y-102289500D01*
X70525000Y-107029500D02*
X69025000Y-107029500D01*
X70525000Y-107029500D02*
X70525000Y-102289500D01*
X71525000Y-107609500D02*
X71525000Y-106109500D01*
X71665000Y-104659500D02*
X70525000Y-104659500D01*
X72275000Y-106859500D02*
X70775000Y-106859500D01*
%TO.C,C2*%
X85481395Y-80629000D02*
X86231395Y-80629000D01*
X85856395Y-80254000D02*
X85856395Y-81004000D01*
X89623606Y-78974000D02*
X89623606Y-86634000D01*
X89663606Y-78974000D02*
X89663606Y-86634000D01*
X89703606Y-78975000D02*
X89703606Y-86633000D01*
X89743606Y-78976000D02*
X89743606Y-86632000D01*
X89783606Y-78977000D02*
X89783606Y-86631000D01*
X89823606Y-78979000D02*
X89823606Y-86629000D01*
X89863606Y-78981000D02*
X89863606Y-81764000D01*
X89863606Y-83844000D02*
X89863606Y-86627000D01*
X89903606Y-78984000D02*
X89903606Y-81764000D01*
X89903606Y-83844000D02*
X89903606Y-86624000D01*
X89943606Y-78987000D02*
X89943606Y-81764000D01*
X89943606Y-83844000D02*
X89943606Y-86621000D01*
X89983606Y-78991000D02*
X89983606Y-81764000D01*
X89983606Y-83844000D02*
X89983606Y-86617000D01*
X90023606Y-78995000D02*
X90023606Y-81764000D01*
X90023606Y-83844000D02*
X90023606Y-86613000D01*
X90063606Y-78999000D02*
X90063606Y-81764000D01*
X90063606Y-83844000D02*
X90063606Y-86609000D01*
X90103606Y-79004000D02*
X90103606Y-81764000D01*
X90103606Y-83844000D02*
X90103606Y-86604000D01*
X90143606Y-79009000D02*
X90143606Y-81764000D01*
X90143606Y-83844000D02*
X90143606Y-86599000D01*
X90183606Y-79015000D02*
X90183606Y-81764000D01*
X90183606Y-83844000D02*
X90183606Y-86593000D01*
X90223606Y-79021000D02*
X90223606Y-81764000D01*
X90223606Y-83844000D02*
X90223606Y-86587000D01*
X90263606Y-79027000D02*
X90263606Y-81764000D01*
X90263606Y-83844000D02*
X90263606Y-86581000D01*
X90303606Y-79034000D02*
X90303606Y-81764000D01*
X90303606Y-83844000D02*
X90303606Y-86574000D01*
X90343606Y-79042000D02*
X90343606Y-81764000D01*
X90343606Y-83844000D02*
X90343606Y-86566000D01*
X90383606Y-79049000D02*
X90383606Y-81764000D01*
X90383606Y-83844000D02*
X90383606Y-86559000D01*
X90423606Y-79058000D02*
X90423606Y-81764000D01*
X90423606Y-83844000D02*
X90423606Y-86550000D01*
X90463606Y-79066000D02*
X90463606Y-81764000D01*
X90463606Y-83844000D02*
X90463606Y-86542000D01*
X90503606Y-79075000D02*
X90503606Y-81764000D01*
X90503606Y-83844000D02*
X90503606Y-86533000D01*
X90543606Y-79085000D02*
X90543606Y-81764000D01*
X90543606Y-83844000D02*
X90543606Y-86523000D01*
X90583606Y-79095000D02*
X90583606Y-81764000D01*
X90583606Y-83844000D02*
X90583606Y-86513000D01*
X90623606Y-79105000D02*
X90623606Y-81764000D01*
X90623606Y-83844000D02*
X90623606Y-86503000D01*
X90663606Y-79116000D02*
X90663606Y-81764000D01*
X90663606Y-83844000D02*
X90663606Y-86492000D01*
X90703606Y-79128000D02*
X90703606Y-81764000D01*
X90703606Y-83844000D02*
X90703606Y-86480000D01*
X90743606Y-79140000D02*
X90743606Y-81764000D01*
X90743606Y-83844000D02*
X90743606Y-86468000D01*
X90783606Y-79152000D02*
X90783606Y-81764000D01*
X90783606Y-83844000D02*
X90783606Y-86456000D01*
X90823606Y-79165000D02*
X90823606Y-81764000D01*
X90823606Y-83844000D02*
X90823606Y-86443000D01*
X90863606Y-79178000D02*
X90863606Y-81764000D01*
X90863606Y-83844000D02*
X90863606Y-86430000D01*
X90903606Y-79192000D02*
X90903606Y-81764000D01*
X90903606Y-83844000D02*
X90903606Y-86416000D01*
X90943606Y-79206000D02*
X90943606Y-81764000D01*
X90943606Y-83844000D02*
X90943606Y-86402000D01*
X90983606Y-79221000D02*
X90983606Y-81764000D01*
X90983606Y-83844000D02*
X90983606Y-86387000D01*
X91023606Y-79236000D02*
X91023606Y-81764000D01*
X91023606Y-83844000D02*
X91023606Y-86372000D01*
X91063606Y-79252000D02*
X91063606Y-81764000D01*
X91063606Y-83844000D02*
X91063606Y-86356000D01*
X91103606Y-79268000D02*
X91103606Y-81764000D01*
X91103606Y-83844000D02*
X91103606Y-86340000D01*
X91143606Y-79285000D02*
X91143606Y-81764000D01*
X91143606Y-83844000D02*
X91143606Y-86323000D01*
X91183606Y-79302000D02*
X91183606Y-81764000D01*
X91183606Y-83844000D02*
X91183606Y-86306000D01*
X91223606Y-79320000D02*
X91223606Y-81764000D01*
X91223606Y-83844000D02*
X91223606Y-86288000D01*
X91263606Y-79339000D02*
X91263606Y-81764000D01*
X91263606Y-83844000D02*
X91263606Y-86269000D01*
X91303606Y-79358000D02*
X91303606Y-81764000D01*
X91303606Y-83844000D02*
X91303606Y-86250000D01*
X91343606Y-79377000D02*
X91343606Y-81764000D01*
X91343606Y-83844000D02*
X91343606Y-86231000D01*
X91383606Y-79397000D02*
X91383606Y-81764000D01*
X91383606Y-83844000D02*
X91383606Y-86211000D01*
X91423606Y-79418000D02*
X91423606Y-81764000D01*
X91423606Y-83844000D02*
X91423606Y-86190000D01*
X91463606Y-79439000D02*
X91463606Y-81764000D01*
X91463606Y-83844000D02*
X91463606Y-86169000D01*
X91503606Y-79461000D02*
X91503606Y-81764000D01*
X91503606Y-83844000D02*
X91503606Y-86147000D01*
X91543606Y-79484000D02*
X91543606Y-81764000D01*
X91543606Y-83844000D02*
X91543606Y-86124000D01*
X91583606Y-79507000D02*
X91583606Y-81764000D01*
X91583606Y-83844000D02*
X91583606Y-86101000D01*
X91623606Y-79531000D02*
X91623606Y-81764000D01*
X91623606Y-83844000D02*
X91623606Y-86077000D01*
X91663606Y-79555000D02*
X91663606Y-81764000D01*
X91663606Y-83844000D02*
X91663606Y-86053000D01*
X91703606Y-79580000D02*
X91703606Y-81764000D01*
X91703606Y-83844000D02*
X91703606Y-86028000D01*
X91743606Y-79606000D02*
X91743606Y-81764000D01*
X91743606Y-83844000D02*
X91743606Y-86002000D01*
X91783606Y-79633000D02*
X91783606Y-81764000D01*
X91783606Y-83844000D02*
X91783606Y-85975000D01*
X91823606Y-79660000D02*
X91823606Y-81764000D01*
X91823606Y-83844000D02*
X91823606Y-85948000D01*
X91863606Y-79688000D02*
X91863606Y-81764000D01*
X91863606Y-83844000D02*
X91863606Y-85920000D01*
X91903606Y-79717000D02*
X91903606Y-81764000D01*
X91903606Y-83844000D02*
X91903606Y-85891000D01*
X91943606Y-79747000D02*
X91943606Y-85861000D01*
X91983606Y-79777000D02*
X91983606Y-85831000D01*
X92023606Y-79808000D02*
X92023606Y-85800000D01*
X92063606Y-79840000D02*
X92063606Y-85768000D01*
X92103606Y-79873000D02*
X92103606Y-85735000D01*
X92143606Y-79907000D02*
X92143606Y-85701000D01*
X92183606Y-79942000D02*
X92183606Y-85666000D01*
X92223606Y-79977000D02*
X92223606Y-85631000D01*
X92263606Y-80014000D02*
X92263606Y-85594000D01*
X92303606Y-80052000D02*
X92303606Y-85556000D01*
X92343606Y-80091000D02*
X92343606Y-85517000D01*
X92383606Y-80131000D02*
X92383606Y-85477000D01*
X92423606Y-80173000D02*
X92423606Y-85435000D01*
X92463606Y-80215000D02*
X92463606Y-85393000D01*
X92503606Y-80259000D02*
X92503606Y-85349000D01*
X92543606Y-80304000D02*
X92543606Y-85304000D01*
X92583606Y-80351000D02*
X92583606Y-85257000D01*
X92623606Y-80399000D02*
X92623606Y-85209000D01*
X92663606Y-80449000D02*
X92663606Y-85159000D01*
X92703606Y-80501000D02*
X92703606Y-85107000D01*
X92743606Y-80554000D02*
X92743606Y-85054000D01*
X92783606Y-80610000D02*
X92783606Y-84998000D01*
X92823606Y-80668000D02*
X92823606Y-84940000D01*
X92863606Y-80728000D02*
X92863606Y-84880000D01*
X92903606Y-80790000D02*
X92903606Y-84818000D01*
X92943606Y-80855000D02*
X92943606Y-84753000D01*
X92983606Y-80924000D02*
X92983606Y-84684000D01*
X93023606Y-80996000D02*
X93023606Y-84612000D01*
X93063606Y-81071000D02*
X93063606Y-84537000D01*
X93103606Y-81151000D02*
X93103606Y-84457000D01*
X93143606Y-81236000D02*
X93143606Y-84372000D01*
X93183606Y-81326000D02*
X93183606Y-84282000D01*
X93223606Y-81424000D02*
X93223606Y-84184000D01*
X93263606Y-81530000D02*
X93263606Y-84078000D01*
X93303606Y-81646000D02*
X93303606Y-83962000D01*
X93343606Y-81777000D02*
X93343606Y-83831000D01*
X93383606Y-81928000D02*
X93383606Y-83680000D01*
X93423606Y-82111000D02*
X93423606Y-83497000D01*
X93463606Y-82363000D02*
X93463606Y-83245000D01*
X93493606Y-82804000D02*
G75*
G02*
X85753606Y-82804000I-3870000J0D01*
G01*
X85753606Y-82804000D02*
G75*
G02*
X93493606Y-82804000I3870000J0D01*
G01*
%TO.C,C4*%
X145991789Y-90535000D02*
X146741789Y-90535000D01*
X146366789Y-90160000D02*
X146366789Y-90910000D01*
X150134000Y-88880000D02*
X150134000Y-96540000D01*
X150174000Y-88880000D02*
X150174000Y-96540000D01*
X150214000Y-88881000D02*
X150214000Y-96539000D01*
X150254000Y-88882000D02*
X150254000Y-96538000D01*
X150294000Y-88883000D02*
X150294000Y-96537000D01*
X150334000Y-88885000D02*
X150334000Y-96535000D01*
X150374000Y-88887000D02*
X150374000Y-91670000D01*
X150374000Y-93750000D02*
X150374000Y-96533000D01*
X150414000Y-88890000D02*
X150414000Y-91670000D01*
X150414000Y-93750000D02*
X150414000Y-96530000D01*
X150454000Y-88893000D02*
X150454000Y-91670000D01*
X150454000Y-93750000D02*
X150454000Y-96527000D01*
X150494000Y-88897000D02*
X150494000Y-91670000D01*
X150494000Y-93750000D02*
X150494000Y-96523000D01*
X150534000Y-88901000D02*
X150534000Y-91670000D01*
X150534000Y-93750000D02*
X150534000Y-96519000D01*
X150574000Y-88905000D02*
X150574000Y-91670000D01*
X150574000Y-93750000D02*
X150574000Y-96515000D01*
X150614000Y-88910000D02*
X150614000Y-91670000D01*
X150614000Y-93750000D02*
X150614000Y-96510000D01*
X150654000Y-88915000D02*
X150654000Y-91670000D01*
X150654000Y-93750000D02*
X150654000Y-96505000D01*
X150694000Y-88921000D02*
X150694000Y-91670000D01*
X150694000Y-93750000D02*
X150694000Y-96499000D01*
X150734000Y-88927000D02*
X150734000Y-91670000D01*
X150734000Y-93750000D02*
X150734000Y-96493000D01*
X150774000Y-88933000D02*
X150774000Y-91670000D01*
X150774000Y-93750000D02*
X150774000Y-96487000D01*
X150814000Y-88940000D02*
X150814000Y-91670000D01*
X150814000Y-93750000D02*
X150814000Y-96480000D01*
X150854000Y-88948000D02*
X150854000Y-91670000D01*
X150854000Y-93750000D02*
X150854000Y-96472000D01*
X150894000Y-88955000D02*
X150894000Y-91670000D01*
X150894000Y-93750000D02*
X150894000Y-96465000D01*
X150934000Y-88964000D02*
X150934000Y-91670000D01*
X150934000Y-93750000D02*
X150934000Y-96456000D01*
X150974000Y-88972000D02*
X150974000Y-91670000D01*
X150974000Y-93750000D02*
X150974000Y-96448000D01*
X151014000Y-88981000D02*
X151014000Y-91670000D01*
X151014000Y-93750000D02*
X151014000Y-96439000D01*
X151054000Y-88991000D02*
X151054000Y-91670000D01*
X151054000Y-93750000D02*
X151054000Y-96429000D01*
X151094000Y-89001000D02*
X151094000Y-91670000D01*
X151094000Y-93750000D02*
X151094000Y-96419000D01*
X151134000Y-89011000D02*
X151134000Y-91670000D01*
X151134000Y-93750000D02*
X151134000Y-96409000D01*
X151174000Y-89022000D02*
X151174000Y-91670000D01*
X151174000Y-93750000D02*
X151174000Y-96398000D01*
X151214000Y-89034000D02*
X151214000Y-91670000D01*
X151214000Y-93750000D02*
X151214000Y-96386000D01*
X151254000Y-89046000D02*
X151254000Y-91670000D01*
X151254000Y-93750000D02*
X151254000Y-96374000D01*
X151294000Y-89058000D02*
X151294000Y-91670000D01*
X151294000Y-93750000D02*
X151294000Y-96362000D01*
X151334000Y-89071000D02*
X151334000Y-91670000D01*
X151334000Y-93750000D02*
X151334000Y-96349000D01*
X151374000Y-89084000D02*
X151374000Y-91670000D01*
X151374000Y-93750000D02*
X151374000Y-96336000D01*
X151414000Y-89098000D02*
X151414000Y-91670000D01*
X151414000Y-93750000D02*
X151414000Y-96322000D01*
X151454000Y-89112000D02*
X151454000Y-91670000D01*
X151454000Y-93750000D02*
X151454000Y-96308000D01*
X151494000Y-89127000D02*
X151494000Y-91670000D01*
X151494000Y-93750000D02*
X151494000Y-96293000D01*
X151534000Y-89142000D02*
X151534000Y-91670000D01*
X151534000Y-93750000D02*
X151534000Y-96278000D01*
X151574000Y-89158000D02*
X151574000Y-91670000D01*
X151574000Y-93750000D02*
X151574000Y-96262000D01*
X151614000Y-89174000D02*
X151614000Y-91670000D01*
X151614000Y-93750000D02*
X151614000Y-96246000D01*
X151654000Y-89191000D02*
X151654000Y-91670000D01*
X151654000Y-93750000D02*
X151654000Y-96229000D01*
X151694000Y-89208000D02*
X151694000Y-91670000D01*
X151694000Y-93750000D02*
X151694000Y-96212000D01*
X151734000Y-89226000D02*
X151734000Y-91670000D01*
X151734000Y-93750000D02*
X151734000Y-96194000D01*
X151774000Y-89245000D02*
X151774000Y-91670000D01*
X151774000Y-93750000D02*
X151774000Y-96175000D01*
X151814000Y-89264000D02*
X151814000Y-91670000D01*
X151814000Y-93750000D02*
X151814000Y-96156000D01*
X151854000Y-89283000D02*
X151854000Y-91670000D01*
X151854000Y-93750000D02*
X151854000Y-96137000D01*
X151894000Y-89303000D02*
X151894000Y-91670000D01*
X151894000Y-93750000D02*
X151894000Y-96117000D01*
X151934000Y-89324000D02*
X151934000Y-91670000D01*
X151934000Y-93750000D02*
X151934000Y-96096000D01*
X151974000Y-89345000D02*
X151974000Y-91670000D01*
X151974000Y-93750000D02*
X151974000Y-96075000D01*
X152014000Y-89367000D02*
X152014000Y-91670000D01*
X152014000Y-93750000D02*
X152014000Y-96053000D01*
X152054000Y-89390000D02*
X152054000Y-91670000D01*
X152054000Y-93750000D02*
X152054000Y-96030000D01*
X152094000Y-89413000D02*
X152094000Y-91670000D01*
X152094000Y-93750000D02*
X152094000Y-96007000D01*
X152134000Y-89437000D02*
X152134000Y-91670000D01*
X152134000Y-93750000D02*
X152134000Y-95983000D01*
X152174000Y-89461000D02*
X152174000Y-91670000D01*
X152174000Y-93750000D02*
X152174000Y-95959000D01*
X152214000Y-89486000D02*
X152214000Y-91670000D01*
X152214000Y-93750000D02*
X152214000Y-95934000D01*
X152254000Y-89512000D02*
X152254000Y-91670000D01*
X152254000Y-93750000D02*
X152254000Y-95908000D01*
X152294000Y-89539000D02*
X152294000Y-91670000D01*
X152294000Y-93750000D02*
X152294000Y-95881000D01*
X152334000Y-89566000D02*
X152334000Y-91670000D01*
X152334000Y-93750000D02*
X152334000Y-95854000D01*
X152374000Y-89594000D02*
X152374000Y-91670000D01*
X152374000Y-93750000D02*
X152374000Y-95826000D01*
X152414000Y-89623000D02*
X152414000Y-91670000D01*
X152414000Y-93750000D02*
X152414000Y-95797000D01*
X152454000Y-89653000D02*
X152454000Y-95767000D01*
X152494000Y-89683000D02*
X152494000Y-95737000D01*
X152534000Y-89714000D02*
X152534000Y-95706000D01*
X152574000Y-89746000D02*
X152574000Y-95674000D01*
X152614000Y-89779000D02*
X152614000Y-95641000D01*
X152654000Y-89813000D02*
X152654000Y-95607000D01*
X152694000Y-89848000D02*
X152694000Y-95572000D01*
X152734000Y-89883000D02*
X152734000Y-95537000D01*
X152774000Y-89920000D02*
X152774000Y-95500000D01*
X152814000Y-89958000D02*
X152814000Y-95462000D01*
X152854000Y-89997000D02*
X152854000Y-95423000D01*
X152894000Y-90037000D02*
X152894000Y-95383000D01*
X152934000Y-90079000D02*
X152934000Y-95341000D01*
X152974000Y-90121000D02*
X152974000Y-95299000D01*
X153014000Y-90165000D02*
X153014000Y-95255000D01*
X153054000Y-90210000D02*
X153054000Y-95210000D01*
X153094000Y-90257000D02*
X153094000Y-95163000D01*
X153134000Y-90305000D02*
X153134000Y-95115000D01*
X153174000Y-90355000D02*
X153174000Y-95065000D01*
X153214000Y-90407000D02*
X153214000Y-95013000D01*
X153254000Y-90460000D02*
X153254000Y-94960000D01*
X153294000Y-90516000D02*
X153294000Y-94904000D01*
X153334000Y-90574000D02*
X153334000Y-94846000D01*
X153374000Y-90634000D02*
X153374000Y-94786000D01*
X153414000Y-90696000D02*
X153414000Y-94724000D01*
X153454000Y-90761000D02*
X153454000Y-94659000D01*
X153494000Y-90830000D02*
X153494000Y-94590000D01*
X153534000Y-90902000D02*
X153534000Y-94518000D01*
X153574000Y-90977000D02*
X153574000Y-94443000D01*
X153614000Y-91057000D02*
X153614000Y-94363000D01*
X153654000Y-91142000D02*
X153654000Y-94278000D01*
X153694000Y-91232000D02*
X153694000Y-94188000D01*
X153734000Y-91330000D02*
X153734000Y-94090000D01*
X153774000Y-91436000D02*
X153774000Y-93984000D01*
X153814000Y-91552000D02*
X153814000Y-93868000D01*
X153854000Y-91683000D02*
X153854000Y-93737000D01*
X153894000Y-91834000D02*
X153894000Y-93586000D01*
X153934000Y-92017000D02*
X153934000Y-93403000D01*
X153974000Y-92269000D02*
X153974000Y-93151000D01*
X154004000Y-92710000D02*
G75*
G02*
X146264000Y-92710000I-3870000J0D01*
G01*
X146264000Y-92710000D02*
G75*
G02*
X154004000Y-92710000I3870000J0D01*
G01*
%TO.C,D2*%
X116275000Y-86741000D02*
X117295000Y-86741000D01*
X118075000Y-85271000D02*
X118075000Y-88211000D01*
X118195000Y-85271000D02*
X118195000Y-88211000D01*
X118315000Y-85271000D02*
X118315000Y-88211000D01*
X123755000Y-86741000D02*
X122735000Y-86741000D01*
X117295000Y-85271000D02*
X122735000Y-85271000D01*
X122735000Y-88211000D01*
X117295000Y-88211000D01*
X117295000Y-85271000D01*
%TO.C,R1*%
X70911533Y-100388000D02*
G75*
G02*
X70911533Y-98748000I-417133J820000D01*
G01*
%TO.C,D3*%
X100908000Y-94742000D02*
X101928000Y-94742000D01*
X102708000Y-93272000D02*
X102708000Y-96212000D01*
X102828000Y-93272000D02*
X102828000Y-96212000D01*
X102948000Y-93272000D02*
X102948000Y-96212000D01*
X108388000Y-94742000D02*
X107368000Y-94742000D01*
X101928000Y-93272000D02*
X107368000Y-93272000D01*
X107368000Y-96212000D01*
X101928000Y-96212000D01*
X101928000Y-93272000D01*
%TO.C,J1*%
X51579000Y-88400000D02*
X59619000Y-88400000D01*
X51579000Y-91220000D02*
X51579000Y-88400000D01*
X51579000Y-99140000D02*
X51579000Y-91820000D01*
X53699000Y-88400000D02*
X53699000Y-89640000D01*
X53699000Y-93400000D02*
X53699000Y-95977000D01*
X53699000Y-97063000D02*
X53699000Y-99140000D01*
X54999000Y-88400000D02*
X54999000Y-89640000D01*
X54999000Y-93400000D02*
X54999000Y-94708000D01*
X54999000Y-98332000D02*
X54999000Y-99140000D01*
X55999000Y-88400000D02*
X55999000Y-89640000D01*
X55999000Y-93400000D02*
X55999000Y-94708000D01*
X55999000Y-98332000D02*
X55999000Y-99140000D01*
X59619000Y-88400000D02*
X59619000Y-99140000D01*
X59619000Y-99140000D02*
X51579000Y-99140000D01*
X51579000Y-91520000D02*
X50969000Y-91960000D01*
X50969000Y-91080000D01*
X51579000Y-91520000D01*
G36*
X51579000Y-91520000D02*
G01*
X50969000Y-91960000D01*
X50969000Y-91080000D01*
X51579000Y-91520000D01*
G37*
%TO.C,D7*%
X101035000Y-102108000D02*
X102055000Y-102108000D01*
X102835000Y-100638000D02*
X102835000Y-103578000D01*
X102955000Y-100638000D02*
X102955000Y-103578000D01*
X103075000Y-100638000D02*
X103075000Y-103578000D01*
X108515000Y-102108000D02*
X107495000Y-102108000D01*
X102055000Y-100638000D02*
X107495000Y-100638000D01*
X107495000Y-103578000D01*
X102055000Y-103578000D01*
X102055000Y-100638000D01*
%TO.C,C9*%
X137881500Y-96925000D02*
X139381500Y-96925000D01*
X138461500Y-85685000D02*
X143201500Y-85685000D01*
X138461500Y-92925000D02*
X138461500Y-85685000D01*
X138461500Y-94425000D02*
X139211500Y-93675000D01*
X138461500Y-95925000D02*
X138461500Y-94425000D01*
X138461500Y-95925000D02*
X143201500Y-95925000D01*
X138631500Y-97675000D02*
X138631500Y-96175000D01*
X139211500Y-93675000D02*
X138461500Y-92925000D01*
X140831500Y-84545000D02*
X140831500Y-85685000D01*
X140831500Y-97065000D02*
X140831500Y-95925000D01*
X142451500Y-93675000D02*
X143201500Y-92925000D01*
X143201500Y-92925000D02*
X143201500Y-85685000D01*
X143201500Y-94425000D02*
X142451500Y-93675000D01*
X143201500Y-95925000D02*
X143201500Y-94425000D01*
%TO.C,R6*%
X122215133Y-109913000D02*
G75*
G02*
X122215133Y-108273000I-417133J820000D01*
G01*
%TO.C,C1*%
X63637395Y-91678000D02*
X64387395Y-91678000D01*
X64012395Y-91303000D02*
X64012395Y-92053000D01*
X67779606Y-90023000D02*
X67779606Y-97683000D01*
X67819606Y-90023000D02*
X67819606Y-97683000D01*
X67859606Y-90024000D02*
X67859606Y-97682000D01*
X67899606Y-90025000D02*
X67899606Y-97681000D01*
X67939606Y-90026000D02*
X67939606Y-97680000D01*
X67979606Y-90028000D02*
X67979606Y-97678000D01*
X68019606Y-90030000D02*
X68019606Y-92813000D01*
X68019606Y-94893000D02*
X68019606Y-97676000D01*
X68059606Y-90033000D02*
X68059606Y-92813000D01*
X68059606Y-94893000D02*
X68059606Y-97673000D01*
X68099606Y-90036000D02*
X68099606Y-92813000D01*
X68099606Y-94893000D02*
X68099606Y-97670000D01*
X68139606Y-90040000D02*
X68139606Y-92813000D01*
X68139606Y-94893000D02*
X68139606Y-97666000D01*
X68179606Y-90044000D02*
X68179606Y-92813000D01*
X68179606Y-94893000D02*
X68179606Y-97662000D01*
X68219606Y-90048000D02*
X68219606Y-92813000D01*
X68219606Y-94893000D02*
X68219606Y-97658000D01*
X68259606Y-90053000D02*
X68259606Y-92813000D01*
X68259606Y-94893000D02*
X68259606Y-97653000D01*
X68299606Y-90058000D02*
X68299606Y-92813000D01*
X68299606Y-94893000D02*
X68299606Y-97648000D01*
X68339606Y-90064000D02*
X68339606Y-92813000D01*
X68339606Y-94893000D02*
X68339606Y-97642000D01*
X68379606Y-90070000D02*
X68379606Y-92813000D01*
X68379606Y-94893000D02*
X68379606Y-97636000D01*
X68419606Y-90076000D02*
X68419606Y-92813000D01*
X68419606Y-94893000D02*
X68419606Y-97630000D01*
X68459606Y-90083000D02*
X68459606Y-92813000D01*
X68459606Y-94893000D02*
X68459606Y-97623000D01*
X68499606Y-90091000D02*
X68499606Y-92813000D01*
X68499606Y-94893000D02*
X68499606Y-97615000D01*
X68539606Y-90098000D02*
X68539606Y-92813000D01*
X68539606Y-94893000D02*
X68539606Y-97608000D01*
X68579606Y-90107000D02*
X68579606Y-92813000D01*
X68579606Y-94893000D02*
X68579606Y-97599000D01*
X68619606Y-90115000D02*
X68619606Y-92813000D01*
X68619606Y-94893000D02*
X68619606Y-97591000D01*
X68659606Y-90124000D02*
X68659606Y-92813000D01*
X68659606Y-94893000D02*
X68659606Y-97582000D01*
X68699606Y-90134000D02*
X68699606Y-92813000D01*
X68699606Y-94893000D02*
X68699606Y-97572000D01*
X68739606Y-90144000D02*
X68739606Y-92813000D01*
X68739606Y-94893000D02*
X68739606Y-97562000D01*
X68779606Y-90154000D02*
X68779606Y-92813000D01*
X68779606Y-94893000D02*
X68779606Y-97552000D01*
X68819606Y-90165000D02*
X68819606Y-92813000D01*
X68819606Y-94893000D02*
X68819606Y-97541000D01*
X68859606Y-90177000D02*
X68859606Y-92813000D01*
X68859606Y-94893000D02*
X68859606Y-97529000D01*
X68899606Y-90189000D02*
X68899606Y-92813000D01*
X68899606Y-94893000D02*
X68899606Y-97517000D01*
X68939606Y-90201000D02*
X68939606Y-92813000D01*
X68939606Y-94893000D02*
X68939606Y-97505000D01*
X68979606Y-90214000D02*
X68979606Y-92813000D01*
X68979606Y-94893000D02*
X68979606Y-97492000D01*
X69019606Y-90227000D02*
X69019606Y-92813000D01*
X69019606Y-94893000D02*
X69019606Y-97479000D01*
X69059606Y-90241000D02*
X69059606Y-92813000D01*
X69059606Y-94893000D02*
X69059606Y-97465000D01*
X69099606Y-90255000D02*
X69099606Y-92813000D01*
X69099606Y-94893000D02*
X69099606Y-97451000D01*
X69139606Y-90270000D02*
X69139606Y-92813000D01*
X69139606Y-94893000D02*
X69139606Y-97436000D01*
X69179606Y-90285000D02*
X69179606Y-92813000D01*
X69179606Y-94893000D02*
X69179606Y-97421000D01*
X69219606Y-90301000D02*
X69219606Y-92813000D01*
X69219606Y-94893000D02*
X69219606Y-97405000D01*
X69259606Y-90317000D02*
X69259606Y-92813000D01*
X69259606Y-94893000D02*
X69259606Y-97389000D01*
X69299606Y-90334000D02*
X69299606Y-92813000D01*
X69299606Y-94893000D02*
X69299606Y-97372000D01*
X69339606Y-90351000D02*
X69339606Y-92813000D01*
X69339606Y-94893000D02*
X69339606Y-97355000D01*
X69379606Y-90369000D02*
X69379606Y-92813000D01*
X69379606Y-94893000D02*
X69379606Y-97337000D01*
X69419606Y-90388000D02*
X69419606Y-92813000D01*
X69419606Y-94893000D02*
X69419606Y-97318000D01*
X69459606Y-90407000D02*
X69459606Y-92813000D01*
X69459606Y-94893000D02*
X69459606Y-97299000D01*
X69499606Y-90426000D02*
X69499606Y-92813000D01*
X69499606Y-94893000D02*
X69499606Y-97280000D01*
X69539606Y-90446000D02*
X69539606Y-92813000D01*
X69539606Y-94893000D02*
X69539606Y-97260000D01*
X69579606Y-90467000D02*
X69579606Y-92813000D01*
X69579606Y-94893000D02*
X69579606Y-97239000D01*
X69619606Y-90488000D02*
X69619606Y-92813000D01*
X69619606Y-94893000D02*
X69619606Y-97218000D01*
X69659606Y-90510000D02*
X69659606Y-92813000D01*
X69659606Y-94893000D02*
X69659606Y-97196000D01*
X69699606Y-90533000D02*
X69699606Y-92813000D01*
X69699606Y-94893000D02*
X69699606Y-97173000D01*
X69739606Y-90556000D02*
X69739606Y-92813000D01*
X69739606Y-94893000D02*
X69739606Y-97150000D01*
X69779606Y-90580000D02*
X69779606Y-92813000D01*
X69779606Y-94893000D02*
X69779606Y-97126000D01*
X69819606Y-90604000D02*
X69819606Y-92813000D01*
X69819606Y-94893000D02*
X69819606Y-97102000D01*
X69859606Y-90629000D02*
X69859606Y-92813000D01*
X69859606Y-94893000D02*
X69859606Y-97077000D01*
X69899606Y-90655000D02*
X69899606Y-92813000D01*
X69899606Y-94893000D02*
X69899606Y-97051000D01*
X69939606Y-90682000D02*
X69939606Y-92813000D01*
X69939606Y-94893000D02*
X69939606Y-97024000D01*
X69979606Y-90709000D02*
X69979606Y-92813000D01*
X69979606Y-94893000D02*
X69979606Y-96997000D01*
X70019606Y-90737000D02*
X70019606Y-92813000D01*
X70019606Y-94893000D02*
X70019606Y-96969000D01*
X70059606Y-90766000D02*
X70059606Y-92813000D01*
X70059606Y-94893000D02*
X70059606Y-96940000D01*
X70099606Y-90796000D02*
X70099606Y-96910000D01*
X70139606Y-90826000D02*
X70139606Y-96880000D01*
X70179606Y-90857000D02*
X70179606Y-96849000D01*
X70219606Y-90889000D02*
X70219606Y-96817000D01*
X70259606Y-90922000D02*
X70259606Y-96784000D01*
X70299606Y-90956000D02*
X70299606Y-96750000D01*
X70339606Y-90991000D02*
X70339606Y-96715000D01*
X70379606Y-91026000D02*
X70379606Y-96680000D01*
X70419606Y-91063000D02*
X70419606Y-96643000D01*
X70459606Y-91101000D02*
X70459606Y-96605000D01*
X70499606Y-91140000D02*
X70499606Y-96566000D01*
X70539606Y-91180000D02*
X70539606Y-96526000D01*
X70579606Y-91222000D02*
X70579606Y-96484000D01*
X70619606Y-91264000D02*
X70619606Y-96442000D01*
X70659606Y-91308000D02*
X70659606Y-96398000D01*
X70699606Y-91353000D02*
X70699606Y-96353000D01*
X70739606Y-91400000D02*
X70739606Y-96306000D01*
X70779606Y-91448000D02*
X70779606Y-96258000D01*
X70819606Y-91498000D02*
X70819606Y-96208000D01*
X70859606Y-91550000D02*
X70859606Y-96156000D01*
X70899606Y-91603000D02*
X70899606Y-96103000D01*
X70939606Y-91659000D02*
X70939606Y-96047000D01*
X70979606Y-91717000D02*
X70979606Y-95989000D01*
X71019606Y-91777000D02*
X71019606Y-95929000D01*
X71059606Y-91839000D02*
X71059606Y-95867000D01*
X71099606Y-91904000D02*
X71099606Y-95802000D01*
X71139606Y-91973000D02*
X71139606Y-95733000D01*
X71179606Y-92045000D02*
X71179606Y-95661000D01*
X71219606Y-92120000D02*
X71219606Y-95586000D01*
X71259606Y-92200000D02*
X71259606Y-95506000D01*
X71299606Y-92285000D02*
X71299606Y-95421000D01*
X71339606Y-92375000D02*
X71339606Y-95331000D01*
X71379606Y-92473000D02*
X71379606Y-95233000D01*
X71419606Y-92579000D02*
X71419606Y-95127000D01*
X71459606Y-92695000D02*
X71459606Y-95011000D01*
X71499606Y-92826000D02*
X71499606Y-94880000D01*
X71539606Y-92977000D02*
X71539606Y-94729000D01*
X71579606Y-93160000D02*
X71579606Y-94546000D01*
X71619606Y-93412000D02*
X71619606Y-94294000D01*
X71649606Y-93853000D02*
G75*
G02*
X63909606Y-93853000I-3870000J0D01*
G01*
X63909606Y-93853000D02*
G75*
G02*
X71649606Y-93853000I3870000J0D01*
G01*
%TO.C,D4*%
X116148000Y-94488000D02*
X117168000Y-94488000D01*
X117948000Y-93018000D02*
X117948000Y-95958000D01*
X118068000Y-93018000D02*
X118068000Y-95958000D01*
X118188000Y-93018000D02*
X118188000Y-95958000D01*
X123628000Y-94488000D02*
X122608000Y-94488000D01*
X117168000Y-93018000D02*
X122608000Y-93018000D01*
X122608000Y-95958000D01*
X117168000Y-95958000D01*
X117168000Y-93018000D01*
%TO.C,U1*%
X144796200Y-113143600D02*
X144796200Y-114793600D01*
X144796200Y-116793600D02*
X144796200Y-118443600D01*
X144796200Y-118443600D02*
X155076200Y-118443600D01*
X155076200Y-113143600D02*
X144796200Y-113143600D01*
X155076200Y-118443600D02*
X155076200Y-113143600D01*
X144796200Y-114793600D02*
G75*
G02*
X144796200Y-116793600I0J-1000000D01*
G01*
%TO.C,L1*%
X127978400Y-116027200D02*
X129358400Y-116027200D01*
X129358400Y-114107200D02*
X129358400Y-117947200D01*
X129358400Y-117947200D02*
X134598400Y-117947200D01*
X134598400Y-114107200D02*
X129358400Y-114107200D01*
X134598400Y-117947200D02*
X134598400Y-114107200D01*
X135978400Y-116027200D02*
X134598400Y-116027200D01*
%TO.C,C7*%
X112971789Y-101076000D02*
X113721789Y-101076000D01*
X113346789Y-100701000D02*
X113346789Y-101451000D01*
X117114000Y-99421000D02*
X117114000Y-107081000D01*
X117154000Y-99421000D02*
X117154000Y-107081000D01*
X117194000Y-99422000D02*
X117194000Y-107080000D01*
X117234000Y-99423000D02*
X117234000Y-107079000D01*
X117274000Y-99424000D02*
X117274000Y-107078000D01*
X117314000Y-99426000D02*
X117314000Y-107076000D01*
X117354000Y-99428000D02*
X117354000Y-102211000D01*
X117354000Y-104291000D02*
X117354000Y-107074000D01*
X117394000Y-99431000D02*
X117394000Y-102211000D01*
X117394000Y-104291000D02*
X117394000Y-107071000D01*
X117434000Y-99434000D02*
X117434000Y-102211000D01*
X117434000Y-104291000D02*
X117434000Y-107068000D01*
X117474000Y-99438000D02*
X117474000Y-102211000D01*
X117474000Y-104291000D02*
X117474000Y-107064000D01*
X117514000Y-99442000D02*
X117514000Y-102211000D01*
X117514000Y-104291000D02*
X117514000Y-107060000D01*
X117554000Y-99446000D02*
X117554000Y-102211000D01*
X117554000Y-104291000D02*
X117554000Y-107056000D01*
X117594000Y-99451000D02*
X117594000Y-102211000D01*
X117594000Y-104291000D02*
X117594000Y-107051000D01*
X117634000Y-99456000D02*
X117634000Y-102211000D01*
X117634000Y-104291000D02*
X117634000Y-107046000D01*
X117674000Y-99462000D02*
X117674000Y-102211000D01*
X117674000Y-104291000D02*
X117674000Y-107040000D01*
X117714000Y-99468000D02*
X117714000Y-102211000D01*
X117714000Y-104291000D02*
X117714000Y-107034000D01*
X117754000Y-99474000D02*
X117754000Y-102211000D01*
X117754000Y-104291000D02*
X117754000Y-107028000D01*
X117794000Y-99481000D02*
X117794000Y-102211000D01*
X117794000Y-104291000D02*
X117794000Y-107021000D01*
X117834000Y-99489000D02*
X117834000Y-102211000D01*
X117834000Y-104291000D02*
X117834000Y-107013000D01*
X117874000Y-99496000D02*
X117874000Y-102211000D01*
X117874000Y-104291000D02*
X117874000Y-107006000D01*
X117914000Y-99505000D02*
X117914000Y-102211000D01*
X117914000Y-104291000D02*
X117914000Y-106997000D01*
X117954000Y-99513000D02*
X117954000Y-102211000D01*
X117954000Y-104291000D02*
X117954000Y-106989000D01*
X117994000Y-99522000D02*
X117994000Y-102211000D01*
X117994000Y-104291000D02*
X117994000Y-106980000D01*
X118034000Y-99532000D02*
X118034000Y-102211000D01*
X118034000Y-104291000D02*
X118034000Y-106970000D01*
X118074000Y-99542000D02*
X118074000Y-102211000D01*
X118074000Y-104291000D02*
X118074000Y-106960000D01*
X118114000Y-99552000D02*
X118114000Y-102211000D01*
X118114000Y-104291000D02*
X118114000Y-106950000D01*
X118154000Y-99563000D02*
X118154000Y-102211000D01*
X118154000Y-104291000D02*
X118154000Y-106939000D01*
X118194000Y-99575000D02*
X118194000Y-102211000D01*
X118194000Y-104291000D02*
X118194000Y-106927000D01*
X118234000Y-99587000D02*
X118234000Y-102211000D01*
X118234000Y-104291000D02*
X118234000Y-106915000D01*
X118274000Y-99599000D02*
X118274000Y-102211000D01*
X118274000Y-104291000D02*
X118274000Y-106903000D01*
X118314000Y-99612000D02*
X118314000Y-102211000D01*
X118314000Y-104291000D02*
X118314000Y-106890000D01*
X118354000Y-99625000D02*
X118354000Y-102211000D01*
X118354000Y-104291000D02*
X118354000Y-106877000D01*
X118394000Y-99639000D02*
X118394000Y-102211000D01*
X118394000Y-104291000D02*
X118394000Y-106863000D01*
X118434000Y-99653000D02*
X118434000Y-102211000D01*
X118434000Y-104291000D02*
X118434000Y-106849000D01*
X118474000Y-99668000D02*
X118474000Y-102211000D01*
X118474000Y-104291000D02*
X118474000Y-106834000D01*
X118514000Y-99683000D02*
X118514000Y-102211000D01*
X118514000Y-104291000D02*
X118514000Y-106819000D01*
X118554000Y-99699000D02*
X118554000Y-102211000D01*
X118554000Y-104291000D02*
X118554000Y-106803000D01*
X118594000Y-99715000D02*
X118594000Y-102211000D01*
X118594000Y-104291000D02*
X118594000Y-106787000D01*
X118634000Y-99732000D02*
X118634000Y-102211000D01*
X118634000Y-104291000D02*
X118634000Y-106770000D01*
X118674000Y-99749000D02*
X118674000Y-102211000D01*
X118674000Y-104291000D02*
X118674000Y-106753000D01*
X118714000Y-99767000D02*
X118714000Y-102211000D01*
X118714000Y-104291000D02*
X118714000Y-106735000D01*
X118754000Y-99786000D02*
X118754000Y-102211000D01*
X118754000Y-104291000D02*
X118754000Y-106716000D01*
X118794000Y-99805000D02*
X118794000Y-102211000D01*
X118794000Y-104291000D02*
X118794000Y-106697000D01*
X118834000Y-99824000D02*
X118834000Y-102211000D01*
X118834000Y-104291000D02*
X118834000Y-106678000D01*
X118874000Y-99844000D02*
X118874000Y-102211000D01*
X118874000Y-104291000D02*
X118874000Y-106658000D01*
X118914000Y-99865000D02*
X118914000Y-102211000D01*
X118914000Y-104291000D02*
X118914000Y-106637000D01*
X118954000Y-99886000D02*
X118954000Y-102211000D01*
X118954000Y-104291000D02*
X118954000Y-106616000D01*
X118994000Y-99908000D02*
X118994000Y-102211000D01*
X118994000Y-104291000D02*
X118994000Y-106594000D01*
X119034000Y-99931000D02*
X119034000Y-102211000D01*
X119034000Y-104291000D02*
X119034000Y-106571000D01*
X119074000Y-99954000D02*
X119074000Y-102211000D01*
X119074000Y-104291000D02*
X119074000Y-106548000D01*
X119114000Y-99978000D02*
X119114000Y-102211000D01*
X119114000Y-104291000D02*
X119114000Y-106524000D01*
X119154000Y-100002000D02*
X119154000Y-102211000D01*
X119154000Y-104291000D02*
X119154000Y-106500000D01*
X119194000Y-100027000D02*
X119194000Y-102211000D01*
X119194000Y-104291000D02*
X119194000Y-106475000D01*
X119234000Y-100053000D02*
X119234000Y-102211000D01*
X119234000Y-104291000D02*
X119234000Y-106449000D01*
X119274000Y-100080000D02*
X119274000Y-102211000D01*
X119274000Y-104291000D02*
X119274000Y-106422000D01*
X119314000Y-100107000D02*
X119314000Y-102211000D01*
X119314000Y-104291000D02*
X119314000Y-106395000D01*
X119354000Y-100135000D02*
X119354000Y-102211000D01*
X119354000Y-104291000D02*
X119354000Y-106367000D01*
X119394000Y-100164000D02*
X119394000Y-102211000D01*
X119394000Y-104291000D02*
X119394000Y-106338000D01*
X119434000Y-100194000D02*
X119434000Y-106308000D01*
X119474000Y-100224000D02*
X119474000Y-106278000D01*
X119514000Y-100255000D02*
X119514000Y-106247000D01*
X119554000Y-100287000D02*
X119554000Y-106215000D01*
X119594000Y-100320000D02*
X119594000Y-106182000D01*
X119634000Y-100354000D02*
X119634000Y-106148000D01*
X119674000Y-100389000D02*
X119674000Y-106113000D01*
X119714000Y-100424000D02*
X119714000Y-106078000D01*
X119754000Y-100461000D02*
X119754000Y-106041000D01*
X119794000Y-100499000D02*
X119794000Y-106003000D01*
X119834000Y-100538000D02*
X119834000Y-105964000D01*
X119874000Y-100578000D02*
X119874000Y-105924000D01*
X119914000Y-100620000D02*
X119914000Y-105882000D01*
X119954000Y-100662000D02*
X119954000Y-105840000D01*
X119994000Y-100706000D02*
X119994000Y-105796000D01*
X120034000Y-100751000D02*
X120034000Y-105751000D01*
X120074000Y-100798000D02*
X120074000Y-105704000D01*
X120114000Y-100846000D02*
X120114000Y-105656000D01*
X120154000Y-100896000D02*
X120154000Y-105606000D01*
X120194000Y-100948000D02*
X120194000Y-105554000D01*
X120234000Y-101001000D02*
X120234000Y-105501000D01*
X120274000Y-101057000D02*
X120274000Y-105445000D01*
X120314000Y-101115000D02*
X120314000Y-105387000D01*
X120354000Y-101175000D02*
X120354000Y-105327000D01*
X120394000Y-101237000D02*
X120394000Y-105265000D01*
X120434000Y-101302000D02*
X120434000Y-105200000D01*
X120474000Y-101371000D02*
X120474000Y-105131000D01*
X120514000Y-101443000D02*
X120514000Y-105059000D01*
X120554000Y-101518000D02*
X120554000Y-104984000D01*
X120594000Y-101598000D02*
X120594000Y-104904000D01*
X120634000Y-101683000D02*
X120634000Y-104819000D01*
X120674000Y-101773000D02*
X120674000Y-104729000D01*
X120714000Y-101871000D02*
X120714000Y-104631000D01*
X120754000Y-101977000D02*
X120754000Y-104525000D01*
X120794000Y-102093000D02*
X120794000Y-104409000D01*
X120834000Y-102224000D02*
X120834000Y-104278000D01*
X120874000Y-102375000D02*
X120874000Y-104127000D01*
X120914000Y-102558000D02*
X120914000Y-103944000D01*
X120954000Y-102810000D02*
X120954000Y-103692000D01*
X120984000Y-103251000D02*
G75*
G02*
X113244000Y-103251000I-3870000J0D01*
G01*
X113244000Y-103251000D02*
G75*
G02*
X120984000Y-103251000I3870000J0D01*
G01*
%TO.C,C8*%
X128364189Y-100542600D02*
X129114189Y-100542600D01*
X128739189Y-100167600D02*
X128739189Y-100917600D01*
X132506400Y-98887600D02*
X132506400Y-106547600D01*
X132546400Y-98887600D02*
X132546400Y-106547600D01*
X132586400Y-98888600D02*
X132586400Y-106546600D01*
X132626400Y-98889600D02*
X132626400Y-106545600D01*
X132666400Y-98890600D02*
X132666400Y-106544600D01*
X132706400Y-98892600D02*
X132706400Y-106542600D01*
X132746400Y-98894600D02*
X132746400Y-101677600D01*
X132746400Y-103757600D02*
X132746400Y-106540600D01*
X132786400Y-98897600D02*
X132786400Y-101677600D01*
X132786400Y-103757600D02*
X132786400Y-106537600D01*
X132826400Y-98900600D02*
X132826400Y-101677600D01*
X132826400Y-103757600D02*
X132826400Y-106534600D01*
X132866400Y-98904600D02*
X132866400Y-101677600D01*
X132866400Y-103757600D02*
X132866400Y-106530600D01*
X132906400Y-98908600D02*
X132906400Y-101677600D01*
X132906400Y-103757600D02*
X132906400Y-106526600D01*
X132946400Y-98912600D02*
X132946400Y-101677600D01*
X132946400Y-103757600D02*
X132946400Y-106522600D01*
X132986400Y-98917600D02*
X132986400Y-101677600D01*
X132986400Y-103757600D02*
X132986400Y-106517600D01*
X133026400Y-98922600D02*
X133026400Y-101677600D01*
X133026400Y-103757600D02*
X133026400Y-106512600D01*
X133066400Y-98928600D02*
X133066400Y-101677600D01*
X133066400Y-103757600D02*
X133066400Y-106506600D01*
X133106400Y-98934600D02*
X133106400Y-101677600D01*
X133106400Y-103757600D02*
X133106400Y-106500600D01*
X133146400Y-98940600D02*
X133146400Y-101677600D01*
X133146400Y-103757600D02*
X133146400Y-106494600D01*
X133186400Y-98947600D02*
X133186400Y-101677600D01*
X133186400Y-103757600D02*
X133186400Y-106487600D01*
X133226400Y-98955600D02*
X133226400Y-101677600D01*
X133226400Y-103757600D02*
X133226400Y-106479600D01*
X133266400Y-98962600D02*
X133266400Y-101677600D01*
X133266400Y-103757600D02*
X133266400Y-106472600D01*
X133306400Y-98971600D02*
X133306400Y-101677600D01*
X133306400Y-103757600D02*
X133306400Y-106463600D01*
X133346400Y-98979600D02*
X133346400Y-101677600D01*
X133346400Y-103757600D02*
X133346400Y-106455600D01*
X133386400Y-98988600D02*
X133386400Y-101677600D01*
X133386400Y-103757600D02*
X133386400Y-106446600D01*
X133426400Y-98998600D02*
X133426400Y-101677600D01*
X133426400Y-103757600D02*
X133426400Y-106436600D01*
X133466400Y-99008600D02*
X133466400Y-101677600D01*
X133466400Y-103757600D02*
X133466400Y-106426600D01*
X133506400Y-99018600D02*
X133506400Y-101677600D01*
X133506400Y-103757600D02*
X133506400Y-106416600D01*
X133546400Y-99029600D02*
X133546400Y-101677600D01*
X133546400Y-103757600D02*
X133546400Y-106405600D01*
X133586400Y-99041600D02*
X133586400Y-101677600D01*
X133586400Y-103757600D02*
X133586400Y-106393600D01*
X133626400Y-99053600D02*
X133626400Y-101677600D01*
X133626400Y-103757600D02*
X133626400Y-106381600D01*
X133666400Y-99065600D02*
X133666400Y-101677600D01*
X133666400Y-103757600D02*
X133666400Y-106369600D01*
X133706400Y-99078600D02*
X133706400Y-101677600D01*
X133706400Y-103757600D02*
X133706400Y-106356600D01*
X133746400Y-99091600D02*
X133746400Y-101677600D01*
X133746400Y-103757600D02*
X133746400Y-106343600D01*
X133786400Y-99105600D02*
X133786400Y-101677600D01*
X133786400Y-103757600D02*
X133786400Y-106329600D01*
X133826400Y-99119600D02*
X133826400Y-101677600D01*
X133826400Y-103757600D02*
X133826400Y-106315600D01*
X133866400Y-99134600D02*
X133866400Y-101677600D01*
X133866400Y-103757600D02*
X133866400Y-106300600D01*
X133906400Y-99149600D02*
X133906400Y-101677600D01*
X133906400Y-103757600D02*
X133906400Y-106285600D01*
X133946400Y-99165600D02*
X133946400Y-101677600D01*
X133946400Y-103757600D02*
X133946400Y-106269600D01*
X133986400Y-99181600D02*
X133986400Y-101677600D01*
X133986400Y-103757600D02*
X133986400Y-106253600D01*
X134026400Y-99198600D02*
X134026400Y-101677600D01*
X134026400Y-103757600D02*
X134026400Y-106236600D01*
X134066400Y-99215600D02*
X134066400Y-101677600D01*
X134066400Y-103757600D02*
X134066400Y-106219600D01*
X134106400Y-99233600D02*
X134106400Y-101677600D01*
X134106400Y-103757600D02*
X134106400Y-106201600D01*
X134146400Y-99252600D02*
X134146400Y-101677600D01*
X134146400Y-103757600D02*
X134146400Y-106182600D01*
X134186400Y-99271600D02*
X134186400Y-101677600D01*
X134186400Y-103757600D02*
X134186400Y-106163600D01*
X134226400Y-99290600D02*
X134226400Y-101677600D01*
X134226400Y-103757600D02*
X134226400Y-106144600D01*
X134266400Y-99310600D02*
X134266400Y-101677600D01*
X134266400Y-103757600D02*
X134266400Y-106124600D01*
X134306400Y-99331600D02*
X134306400Y-101677600D01*
X134306400Y-103757600D02*
X134306400Y-106103600D01*
X134346400Y-99352600D02*
X134346400Y-101677600D01*
X134346400Y-103757600D02*
X134346400Y-106082600D01*
X134386400Y-99374600D02*
X134386400Y-101677600D01*
X134386400Y-103757600D02*
X134386400Y-106060600D01*
X134426400Y-99397600D02*
X134426400Y-101677600D01*
X134426400Y-103757600D02*
X134426400Y-106037600D01*
X134466400Y-99420600D02*
X134466400Y-101677600D01*
X134466400Y-103757600D02*
X134466400Y-106014600D01*
X134506400Y-99444600D02*
X134506400Y-101677600D01*
X134506400Y-103757600D02*
X134506400Y-105990600D01*
X134546400Y-99468600D02*
X134546400Y-101677600D01*
X134546400Y-103757600D02*
X134546400Y-105966600D01*
X134586400Y-99493600D02*
X134586400Y-101677600D01*
X134586400Y-103757600D02*
X134586400Y-105941600D01*
X134626400Y-99519600D02*
X134626400Y-101677600D01*
X134626400Y-103757600D02*
X134626400Y-105915600D01*
X134666400Y-99546600D02*
X134666400Y-101677600D01*
X134666400Y-103757600D02*
X134666400Y-105888600D01*
X134706400Y-99573600D02*
X134706400Y-101677600D01*
X134706400Y-103757600D02*
X134706400Y-105861600D01*
X134746400Y-99601600D02*
X134746400Y-101677600D01*
X134746400Y-103757600D02*
X134746400Y-105833600D01*
X134786400Y-99630600D02*
X134786400Y-101677600D01*
X134786400Y-103757600D02*
X134786400Y-105804600D01*
X134826400Y-99660600D02*
X134826400Y-105774600D01*
X134866400Y-99690600D02*
X134866400Y-105744600D01*
X134906400Y-99721600D02*
X134906400Y-105713600D01*
X134946400Y-99753600D02*
X134946400Y-105681600D01*
X134986400Y-99786600D02*
X134986400Y-105648600D01*
X135026400Y-99820600D02*
X135026400Y-105614600D01*
X135066400Y-99855600D02*
X135066400Y-105579600D01*
X135106400Y-99890600D02*
X135106400Y-105544600D01*
X135146400Y-99927600D02*
X135146400Y-105507600D01*
X135186400Y-99965600D02*
X135186400Y-105469600D01*
X135226400Y-100004600D02*
X135226400Y-105430600D01*
X135266400Y-100044600D02*
X135266400Y-105390600D01*
X135306400Y-100086600D02*
X135306400Y-105348600D01*
X135346400Y-100128600D02*
X135346400Y-105306600D01*
X135386400Y-100172600D02*
X135386400Y-105262600D01*
X135426400Y-100217600D02*
X135426400Y-105217600D01*
X135466400Y-100264600D02*
X135466400Y-105170600D01*
X135506400Y-100312600D02*
X135506400Y-105122600D01*
X135546400Y-100362600D02*
X135546400Y-105072600D01*
X135586400Y-100414600D02*
X135586400Y-105020600D01*
X135626400Y-100467600D02*
X135626400Y-104967600D01*
X135666400Y-100523600D02*
X135666400Y-104911600D01*
X135706400Y-100581600D02*
X135706400Y-104853600D01*
X135746400Y-100641600D02*
X135746400Y-104793600D01*
X135786400Y-100703600D02*
X135786400Y-104731600D01*
X135826400Y-100768600D02*
X135826400Y-104666600D01*
X135866400Y-100837600D02*
X135866400Y-104597600D01*
X135906400Y-100909600D02*
X135906400Y-104525600D01*
X135946400Y-100984600D02*
X135946400Y-104450600D01*
X135986400Y-101064600D02*
X135986400Y-104370600D01*
X136026400Y-101149600D02*
X136026400Y-104285600D01*
X136066400Y-101239600D02*
X136066400Y-104195600D01*
X136106400Y-101337600D02*
X136106400Y-104097600D01*
X136146400Y-101443600D02*
X136146400Y-103991600D01*
X136186400Y-101559600D02*
X136186400Y-103875600D01*
X136226400Y-101690600D02*
X136226400Y-103744600D01*
X136266400Y-101841600D02*
X136266400Y-103593600D01*
X136306400Y-102024600D02*
X136306400Y-103410600D01*
X136346400Y-102276600D02*
X136346400Y-103158600D01*
X136376400Y-102717600D02*
G75*
G02*
X128636400Y-102717600I-3870000J0D01*
G01*
X128636400Y-102717600D02*
G75*
G02*
X136376400Y-102717600I3870000J0D01*
G01*
%TO.C,C11*%
X91682000Y-111453500D02*
X93182000Y-111453500D01*
X92292000Y-113653500D02*
X93432000Y-113653500D01*
X92432000Y-110703500D02*
X92432000Y-112203500D01*
X93432000Y-111283500D02*
X93432000Y-116023500D01*
X93432000Y-111283500D02*
X94932000Y-111283500D01*
X93432000Y-116023500D02*
X94932000Y-116023500D01*
X94932000Y-111283500D02*
X95682000Y-112033500D01*
X94932000Y-116023500D02*
X95682000Y-115273500D01*
X95682000Y-112033500D02*
X96432000Y-111283500D01*
X95682000Y-115273500D02*
X96432000Y-116023500D01*
X96432000Y-111283500D02*
X103672000Y-111283500D01*
X96432000Y-116023500D02*
X103672000Y-116023500D01*
X103672000Y-111283500D02*
X103672000Y-116023500D01*
X104812000Y-113653500D02*
X103672000Y-113653500D01*
%TO.C,Q1*%
X154664000Y-104974000D02*
X158264000Y-104974000D01*
X154625522Y-104962478D02*
G75*
G02*
X156464000Y-100523999I1838478J1838478D01*
G01*
X156464000Y-100524000D02*
G75*
G02*
X158302478Y-104962478I0J-2600000D01*
G01*
%TO.C,C5*%
X111574789Y-112252000D02*
X112324789Y-112252000D01*
X111949789Y-111877000D02*
X111949789Y-112627000D01*
X115717000Y-110597000D02*
X115717000Y-118257000D01*
X115757000Y-110597000D02*
X115757000Y-118257000D01*
X115797000Y-110598000D02*
X115797000Y-118256000D01*
X115837000Y-110599000D02*
X115837000Y-118255000D01*
X115877000Y-110600000D02*
X115877000Y-118254000D01*
X115917000Y-110602000D02*
X115917000Y-118252000D01*
X115957000Y-110604000D02*
X115957000Y-113387000D01*
X115957000Y-115467000D02*
X115957000Y-118250000D01*
X115997000Y-110607000D02*
X115997000Y-113387000D01*
X115997000Y-115467000D02*
X115997000Y-118247000D01*
X116037000Y-110610000D02*
X116037000Y-113387000D01*
X116037000Y-115467000D02*
X116037000Y-118244000D01*
X116077000Y-110614000D02*
X116077000Y-113387000D01*
X116077000Y-115467000D02*
X116077000Y-118240000D01*
X116117000Y-110618000D02*
X116117000Y-113387000D01*
X116117000Y-115467000D02*
X116117000Y-118236000D01*
X116157000Y-110622000D02*
X116157000Y-113387000D01*
X116157000Y-115467000D02*
X116157000Y-118232000D01*
X116197000Y-110627000D02*
X116197000Y-113387000D01*
X116197000Y-115467000D02*
X116197000Y-118227000D01*
X116237000Y-110632000D02*
X116237000Y-113387000D01*
X116237000Y-115467000D02*
X116237000Y-118222000D01*
X116277000Y-110638000D02*
X116277000Y-113387000D01*
X116277000Y-115467000D02*
X116277000Y-118216000D01*
X116317000Y-110644000D02*
X116317000Y-113387000D01*
X116317000Y-115467000D02*
X116317000Y-118210000D01*
X116357000Y-110650000D02*
X116357000Y-113387000D01*
X116357000Y-115467000D02*
X116357000Y-118204000D01*
X116397000Y-110657000D02*
X116397000Y-113387000D01*
X116397000Y-115467000D02*
X116397000Y-118197000D01*
X116437000Y-110665000D02*
X116437000Y-113387000D01*
X116437000Y-115467000D02*
X116437000Y-118189000D01*
X116477000Y-110672000D02*
X116477000Y-113387000D01*
X116477000Y-115467000D02*
X116477000Y-118182000D01*
X116517000Y-110681000D02*
X116517000Y-113387000D01*
X116517000Y-115467000D02*
X116517000Y-118173000D01*
X116557000Y-110689000D02*
X116557000Y-113387000D01*
X116557000Y-115467000D02*
X116557000Y-118165000D01*
X116597000Y-110698000D02*
X116597000Y-113387000D01*
X116597000Y-115467000D02*
X116597000Y-118156000D01*
X116637000Y-110708000D02*
X116637000Y-113387000D01*
X116637000Y-115467000D02*
X116637000Y-118146000D01*
X116677000Y-110718000D02*
X116677000Y-113387000D01*
X116677000Y-115467000D02*
X116677000Y-118136000D01*
X116717000Y-110728000D02*
X116717000Y-113387000D01*
X116717000Y-115467000D02*
X116717000Y-118126000D01*
X116757000Y-110739000D02*
X116757000Y-113387000D01*
X116757000Y-115467000D02*
X116757000Y-118115000D01*
X116797000Y-110751000D02*
X116797000Y-113387000D01*
X116797000Y-115467000D02*
X116797000Y-118103000D01*
X116837000Y-110763000D02*
X116837000Y-113387000D01*
X116837000Y-115467000D02*
X116837000Y-118091000D01*
X116877000Y-110775000D02*
X116877000Y-113387000D01*
X116877000Y-115467000D02*
X116877000Y-118079000D01*
X116917000Y-110788000D02*
X116917000Y-113387000D01*
X116917000Y-115467000D02*
X116917000Y-118066000D01*
X116957000Y-110801000D02*
X116957000Y-113387000D01*
X116957000Y-115467000D02*
X116957000Y-118053000D01*
X116997000Y-110815000D02*
X116997000Y-113387000D01*
X116997000Y-115467000D02*
X116997000Y-118039000D01*
X117037000Y-110829000D02*
X117037000Y-113387000D01*
X117037000Y-115467000D02*
X117037000Y-118025000D01*
X117077000Y-110844000D02*
X117077000Y-113387000D01*
X117077000Y-115467000D02*
X117077000Y-118010000D01*
X117117000Y-110859000D02*
X117117000Y-113387000D01*
X117117000Y-115467000D02*
X117117000Y-117995000D01*
X117157000Y-110875000D02*
X117157000Y-113387000D01*
X117157000Y-115467000D02*
X117157000Y-117979000D01*
X117197000Y-110891000D02*
X117197000Y-113387000D01*
X117197000Y-115467000D02*
X117197000Y-117963000D01*
X117237000Y-110908000D02*
X117237000Y-113387000D01*
X117237000Y-115467000D02*
X117237000Y-117946000D01*
X117277000Y-110925000D02*
X117277000Y-113387000D01*
X117277000Y-115467000D02*
X117277000Y-117929000D01*
X117317000Y-110943000D02*
X117317000Y-113387000D01*
X117317000Y-115467000D02*
X117317000Y-117911000D01*
X117357000Y-110962000D02*
X117357000Y-113387000D01*
X117357000Y-115467000D02*
X117357000Y-117892000D01*
X117397000Y-110981000D02*
X117397000Y-113387000D01*
X117397000Y-115467000D02*
X117397000Y-117873000D01*
X117437000Y-111000000D02*
X117437000Y-113387000D01*
X117437000Y-115467000D02*
X117437000Y-117854000D01*
X117477000Y-111020000D02*
X117477000Y-113387000D01*
X117477000Y-115467000D02*
X117477000Y-117834000D01*
X117517000Y-111041000D02*
X117517000Y-113387000D01*
X117517000Y-115467000D02*
X117517000Y-117813000D01*
X117557000Y-111062000D02*
X117557000Y-113387000D01*
X117557000Y-115467000D02*
X117557000Y-117792000D01*
X117597000Y-111084000D02*
X117597000Y-113387000D01*
X117597000Y-115467000D02*
X117597000Y-117770000D01*
X117637000Y-111107000D02*
X117637000Y-113387000D01*
X117637000Y-115467000D02*
X117637000Y-117747000D01*
X117677000Y-111130000D02*
X117677000Y-113387000D01*
X117677000Y-115467000D02*
X117677000Y-117724000D01*
X117717000Y-111154000D02*
X117717000Y-113387000D01*
X117717000Y-115467000D02*
X117717000Y-117700000D01*
X117757000Y-111178000D02*
X117757000Y-113387000D01*
X117757000Y-115467000D02*
X117757000Y-117676000D01*
X117797000Y-111203000D02*
X117797000Y-113387000D01*
X117797000Y-115467000D02*
X117797000Y-117651000D01*
X117837000Y-111229000D02*
X117837000Y-113387000D01*
X117837000Y-115467000D02*
X117837000Y-117625000D01*
X117877000Y-111256000D02*
X117877000Y-113387000D01*
X117877000Y-115467000D02*
X117877000Y-117598000D01*
X117917000Y-111283000D02*
X117917000Y-113387000D01*
X117917000Y-115467000D02*
X117917000Y-117571000D01*
X117957000Y-111311000D02*
X117957000Y-113387000D01*
X117957000Y-115467000D02*
X117957000Y-117543000D01*
X117997000Y-111340000D02*
X117997000Y-113387000D01*
X117997000Y-115467000D02*
X117997000Y-117514000D01*
X118037000Y-111370000D02*
X118037000Y-117484000D01*
X118077000Y-111400000D02*
X118077000Y-117454000D01*
X118117000Y-111431000D02*
X118117000Y-117423000D01*
X118157000Y-111463000D02*
X118157000Y-117391000D01*
X118197000Y-111496000D02*
X118197000Y-117358000D01*
X118237000Y-111530000D02*
X118237000Y-117324000D01*
X118277000Y-111565000D02*
X118277000Y-117289000D01*
X118317000Y-111600000D02*
X118317000Y-117254000D01*
X118357000Y-111637000D02*
X118357000Y-117217000D01*
X118397000Y-111675000D02*
X118397000Y-117179000D01*
X118437000Y-111714000D02*
X118437000Y-117140000D01*
X118477000Y-111754000D02*
X118477000Y-117100000D01*
X118517000Y-111796000D02*
X118517000Y-117058000D01*
X118557000Y-111838000D02*
X118557000Y-117016000D01*
X118597000Y-111882000D02*
X118597000Y-116972000D01*
X118637000Y-111927000D02*
X118637000Y-116927000D01*
X118677000Y-111974000D02*
X118677000Y-116880000D01*
X118717000Y-112022000D02*
X118717000Y-116832000D01*
X118757000Y-112072000D02*
X118757000Y-116782000D01*
X118797000Y-112124000D02*
X118797000Y-116730000D01*
X118837000Y-112177000D02*
X118837000Y-116677000D01*
X118877000Y-112233000D02*
X118877000Y-116621000D01*
X118917000Y-112291000D02*
X118917000Y-116563000D01*
X118957000Y-112351000D02*
X118957000Y-116503000D01*
X118997000Y-112413000D02*
X118997000Y-116441000D01*
X119037000Y-112478000D02*
X119037000Y-116376000D01*
X119077000Y-112547000D02*
X119077000Y-116307000D01*
X119117000Y-112619000D02*
X119117000Y-116235000D01*
X119157000Y-112694000D02*
X119157000Y-116160000D01*
X119197000Y-112774000D02*
X119197000Y-116080000D01*
X119237000Y-112859000D02*
X119237000Y-115995000D01*
X119277000Y-112949000D02*
X119277000Y-115905000D01*
X119317000Y-113047000D02*
X119317000Y-115807000D01*
X119357000Y-113153000D02*
X119357000Y-115701000D01*
X119397000Y-113269000D02*
X119397000Y-115585000D01*
X119437000Y-113400000D02*
X119437000Y-115454000D01*
X119477000Y-113551000D02*
X119477000Y-115303000D01*
X119517000Y-113734000D02*
X119517000Y-115120000D01*
X119557000Y-113986000D02*
X119557000Y-114868000D01*
X119587000Y-114427000D02*
G75*
G02*
X111847000Y-114427000I-3870000J0D01*
G01*
X111847000Y-114427000D02*
G75*
G02*
X119587000Y-114427000I3870000J0D01*
G01*
%TO.C,J2*%
X189936000Y-88312000D02*
X197976000Y-88312000D01*
X189936000Y-99052000D02*
X189936000Y-88312000D01*
X193556000Y-89120000D02*
X193556000Y-88312000D01*
X193556000Y-94052000D02*
X193556000Y-92744000D01*
X193556000Y-99052000D02*
X193556000Y-97812000D01*
X194556000Y-89120000D02*
X194556000Y-88312000D01*
X194556000Y-94052000D02*
X194556000Y-92744000D01*
X194556000Y-99052000D02*
X194556000Y-97812000D01*
X195856000Y-90389000D02*
X195856000Y-88312000D01*
X195856000Y-94052000D02*
X195856000Y-91475000D01*
X195856000Y-99052000D02*
X195856000Y-97812000D01*
X197976000Y-88312000D02*
X197976000Y-95632000D01*
X197976000Y-96232000D02*
X197976000Y-99052000D01*
X197976000Y-99052000D02*
X189936000Y-99052000D01*
X197976000Y-95932000D02*
X198586000Y-95492000D01*
X198586000Y-96372000D01*
X197976000Y-95932000D01*
G36*
X198586000Y-96372000D02*
G01*
X197976000Y-95932000D01*
X198586000Y-95492000D01*
X198586000Y-96372000D01*
G37*
%TO.C,C6*%
X74762595Y-117128800D02*
X75512595Y-117128800D01*
X75137595Y-116753800D02*
X75137595Y-117503800D01*
X78904806Y-115473800D02*
X78904806Y-123133800D01*
X78944806Y-115473800D02*
X78944806Y-123133800D01*
X78984806Y-115474800D02*
X78984806Y-123132800D01*
X79024806Y-115475800D02*
X79024806Y-123131800D01*
X79064806Y-115476800D02*
X79064806Y-123130800D01*
X79104806Y-115478800D02*
X79104806Y-123128800D01*
X79144806Y-115480800D02*
X79144806Y-118263800D01*
X79144806Y-120343800D02*
X79144806Y-123126800D01*
X79184806Y-115483800D02*
X79184806Y-118263800D01*
X79184806Y-120343800D02*
X79184806Y-123123800D01*
X79224806Y-115486800D02*
X79224806Y-118263800D01*
X79224806Y-120343800D02*
X79224806Y-123120800D01*
X79264806Y-115490800D02*
X79264806Y-118263800D01*
X79264806Y-120343800D02*
X79264806Y-123116800D01*
X79304806Y-115494800D02*
X79304806Y-118263800D01*
X79304806Y-120343800D02*
X79304806Y-123112800D01*
X79344806Y-115498800D02*
X79344806Y-118263800D01*
X79344806Y-120343800D02*
X79344806Y-123108800D01*
X79384806Y-115503800D02*
X79384806Y-118263800D01*
X79384806Y-120343800D02*
X79384806Y-123103800D01*
X79424806Y-115508800D02*
X79424806Y-118263800D01*
X79424806Y-120343800D02*
X79424806Y-123098800D01*
X79464806Y-115514800D02*
X79464806Y-118263800D01*
X79464806Y-120343800D02*
X79464806Y-123092800D01*
X79504806Y-115520800D02*
X79504806Y-118263800D01*
X79504806Y-120343800D02*
X79504806Y-123086800D01*
X79544806Y-115526800D02*
X79544806Y-118263800D01*
X79544806Y-120343800D02*
X79544806Y-123080800D01*
X79584806Y-115533800D02*
X79584806Y-118263800D01*
X79584806Y-120343800D02*
X79584806Y-123073800D01*
X79624806Y-115541800D02*
X79624806Y-118263800D01*
X79624806Y-120343800D02*
X79624806Y-123065800D01*
X79664806Y-115548800D02*
X79664806Y-118263800D01*
X79664806Y-120343800D02*
X79664806Y-123058800D01*
X79704806Y-115557800D02*
X79704806Y-118263800D01*
X79704806Y-120343800D02*
X79704806Y-123049800D01*
X79744806Y-115565800D02*
X79744806Y-118263800D01*
X79744806Y-120343800D02*
X79744806Y-123041800D01*
X79784806Y-115574800D02*
X79784806Y-118263800D01*
X79784806Y-120343800D02*
X79784806Y-123032800D01*
X79824806Y-115584800D02*
X79824806Y-118263800D01*
X79824806Y-120343800D02*
X79824806Y-123022800D01*
X79864806Y-115594800D02*
X79864806Y-118263800D01*
X79864806Y-120343800D02*
X79864806Y-123012800D01*
X79904806Y-115604800D02*
X79904806Y-118263800D01*
X79904806Y-120343800D02*
X79904806Y-123002800D01*
X79944806Y-115615800D02*
X79944806Y-118263800D01*
X79944806Y-120343800D02*
X79944806Y-122991800D01*
X79984806Y-115627800D02*
X79984806Y-118263800D01*
X79984806Y-120343800D02*
X79984806Y-122979800D01*
X80024806Y-115639800D02*
X80024806Y-118263800D01*
X80024806Y-120343800D02*
X80024806Y-122967800D01*
X80064806Y-115651800D02*
X80064806Y-118263800D01*
X80064806Y-120343800D02*
X80064806Y-122955800D01*
X80104806Y-115664800D02*
X80104806Y-118263800D01*
X80104806Y-120343800D02*
X80104806Y-122942800D01*
X80144806Y-115677800D02*
X80144806Y-118263800D01*
X80144806Y-120343800D02*
X80144806Y-122929800D01*
X80184806Y-115691800D02*
X80184806Y-118263800D01*
X80184806Y-120343800D02*
X80184806Y-122915800D01*
X80224806Y-115705800D02*
X80224806Y-118263800D01*
X80224806Y-120343800D02*
X80224806Y-122901800D01*
X80264806Y-115720800D02*
X80264806Y-118263800D01*
X80264806Y-120343800D02*
X80264806Y-122886800D01*
X80304806Y-115735800D02*
X80304806Y-118263800D01*
X80304806Y-120343800D02*
X80304806Y-122871800D01*
X80344806Y-115751800D02*
X80344806Y-118263800D01*
X80344806Y-120343800D02*
X80344806Y-122855800D01*
X80384806Y-115767800D02*
X80384806Y-118263800D01*
X80384806Y-120343800D02*
X80384806Y-122839800D01*
X80424806Y-115784800D02*
X80424806Y-118263800D01*
X80424806Y-120343800D02*
X80424806Y-122822800D01*
X80464806Y-115801800D02*
X80464806Y-118263800D01*
X80464806Y-120343800D02*
X80464806Y-122805800D01*
X80504806Y-115819800D02*
X80504806Y-118263800D01*
X80504806Y-120343800D02*
X80504806Y-122787800D01*
X80544806Y-115838800D02*
X80544806Y-118263800D01*
X80544806Y-120343800D02*
X80544806Y-122768800D01*
X80584806Y-115857800D02*
X80584806Y-118263800D01*
X80584806Y-120343800D02*
X80584806Y-122749800D01*
X80624806Y-115876800D02*
X80624806Y-118263800D01*
X80624806Y-120343800D02*
X80624806Y-122730800D01*
X80664806Y-115896800D02*
X80664806Y-118263800D01*
X80664806Y-120343800D02*
X80664806Y-122710800D01*
X80704806Y-115917800D02*
X80704806Y-118263800D01*
X80704806Y-120343800D02*
X80704806Y-122689800D01*
X80744806Y-115938800D02*
X80744806Y-118263800D01*
X80744806Y-120343800D02*
X80744806Y-122668800D01*
X80784806Y-115960800D02*
X80784806Y-118263800D01*
X80784806Y-120343800D02*
X80784806Y-122646800D01*
X80824806Y-115983800D02*
X80824806Y-118263800D01*
X80824806Y-120343800D02*
X80824806Y-122623800D01*
X80864806Y-116006800D02*
X80864806Y-118263800D01*
X80864806Y-120343800D02*
X80864806Y-122600800D01*
X80904806Y-116030800D02*
X80904806Y-118263800D01*
X80904806Y-120343800D02*
X80904806Y-122576800D01*
X80944806Y-116054800D02*
X80944806Y-118263800D01*
X80944806Y-120343800D02*
X80944806Y-122552800D01*
X80984806Y-116079800D02*
X80984806Y-118263800D01*
X80984806Y-120343800D02*
X80984806Y-122527800D01*
X81024806Y-116105800D02*
X81024806Y-118263800D01*
X81024806Y-120343800D02*
X81024806Y-122501800D01*
X81064806Y-116132800D02*
X81064806Y-118263800D01*
X81064806Y-120343800D02*
X81064806Y-122474800D01*
X81104806Y-116159800D02*
X81104806Y-118263800D01*
X81104806Y-120343800D02*
X81104806Y-122447800D01*
X81144806Y-116187800D02*
X81144806Y-118263800D01*
X81144806Y-120343800D02*
X81144806Y-122419800D01*
X81184806Y-116216800D02*
X81184806Y-118263800D01*
X81184806Y-120343800D02*
X81184806Y-122390800D01*
X81224806Y-116246800D02*
X81224806Y-122360800D01*
X81264806Y-116276800D02*
X81264806Y-122330800D01*
X81304806Y-116307800D02*
X81304806Y-122299800D01*
X81344806Y-116339800D02*
X81344806Y-122267800D01*
X81384806Y-116372800D02*
X81384806Y-122234800D01*
X81424806Y-116406800D02*
X81424806Y-122200800D01*
X81464806Y-116441800D02*
X81464806Y-122165800D01*
X81504806Y-116476800D02*
X81504806Y-122130800D01*
X81544806Y-116513800D02*
X81544806Y-122093800D01*
X81584806Y-116551800D02*
X81584806Y-122055800D01*
X81624806Y-116590800D02*
X81624806Y-122016800D01*
X81664806Y-116630800D02*
X81664806Y-121976800D01*
X81704806Y-116672800D02*
X81704806Y-121934800D01*
X81744806Y-116714800D02*
X81744806Y-121892800D01*
X81784806Y-116758800D02*
X81784806Y-121848800D01*
X81824806Y-116803800D02*
X81824806Y-121803800D01*
X81864806Y-116850800D02*
X81864806Y-121756800D01*
X81904806Y-116898800D02*
X81904806Y-121708800D01*
X81944806Y-116948800D02*
X81944806Y-121658800D01*
X81984806Y-117000800D02*
X81984806Y-121606800D01*
X82024806Y-117053800D02*
X82024806Y-121553800D01*
X82064806Y-117109800D02*
X82064806Y-121497800D01*
X82104806Y-117167800D02*
X82104806Y-121439800D01*
X82144806Y-117227800D02*
X82144806Y-121379800D01*
X82184806Y-117289800D02*
X82184806Y-121317800D01*
X82224806Y-117354800D02*
X82224806Y-121252800D01*
X82264806Y-117423800D02*
X82264806Y-121183800D01*
X82304806Y-117495800D02*
X82304806Y-121111800D01*
X82344806Y-117570800D02*
X82344806Y-121036800D01*
X82384806Y-117650800D02*
X82384806Y-120956800D01*
X82424806Y-117735800D02*
X82424806Y-120871800D01*
X82464806Y-117825800D02*
X82464806Y-120781800D01*
X82504806Y-117923800D02*
X82504806Y-120683800D01*
X82544806Y-118029800D02*
X82544806Y-120577800D01*
X82584806Y-118145800D02*
X82584806Y-120461800D01*
X82624806Y-118276800D02*
X82624806Y-120330800D01*
X82664806Y-118427800D02*
X82664806Y-120179800D01*
X82704806Y-118610800D02*
X82704806Y-119996800D01*
X82744806Y-118862800D02*
X82744806Y-119744800D01*
X82774806Y-119303800D02*
G75*
G02*
X75034806Y-119303800I-3870000J0D01*
G01*
X75034806Y-119303800D02*
G75*
G02*
X82774806Y-119303800I3870000J0D01*
G01*
%TO.C,R10*%
X124297933Y-104096400D02*
G75*
G02*
X124297933Y-102456400I-417133J820000D01*
G01*
%TO.C,T1*%
X75786000Y-88857000D02*
X93886000Y-88857000D01*
X75786000Y-106957000D02*
X75786000Y-88857000D01*
X93886000Y-88857000D02*
X93886000Y-106957000D01*
X93886000Y-106957000D02*
X75786000Y-106957000D01*
%TO.C,R4*%
X108880133Y-109151000D02*
G75*
G02*
X108880133Y-107511000I-417133J820000D01*
G01*
%TO.C,F1*%
X61563000Y-80689000D02*
X61563000Y-86189000D01*
X61563000Y-80689000D02*
X82963000Y-80689000D01*
X82963000Y-86189000D02*
X61563000Y-86189000D01*
X82963000Y-86189000D02*
X82963000Y-80689000D01*
%TO.C,R2*%
X146726133Y-86672000D02*
G75*
G02*
X146726133Y-85032000I-417133J820000D01*
G01*
%TO.C,C12*%
X58408000Y-110564500D02*
X59908000Y-110564500D01*
X59018000Y-112764500D02*
X60158000Y-112764500D01*
X59158000Y-109814500D02*
X59158000Y-111314500D01*
X60158000Y-110394500D02*
X60158000Y-115134500D01*
X60158000Y-110394500D02*
X61658000Y-110394500D01*
X60158000Y-115134500D02*
X61658000Y-115134500D01*
X61658000Y-110394500D02*
X62408000Y-111144500D01*
X61658000Y-115134500D02*
X62408000Y-114384500D01*
X62408000Y-111144500D02*
X63158000Y-110394500D01*
X62408000Y-114384500D02*
X63158000Y-115134500D01*
X63158000Y-110394500D02*
X70398000Y-110394500D01*
X63158000Y-115134500D02*
X70398000Y-115134500D01*
X70398000Y-110394500D02*
X70398000Y-115134500D01*
X71538000Y-112764500D02*
X70398000Y-112764500D01*
%TO.C,C3*%
X128534395Y-87995000D02*
X129284395Y-87995000D01*
X128909395Y-87620000D02*
X128909395Y-88370000D01*
X132676606Y-86340000D02*
X132676606Y-94000000D01*
X132716606Y-86340000D02*
X132716606Y-94000000D01*
X132756606Y-86341000D02*
X132756606Y-93999000D01*
X132796606Y-86342000D02*
X132796606Y-93998000D01*
X132836606Y-86343000D02*
X132836606Y-93997000D01*
X132876606Y-86345000D02*
X132876606Y-93995000D01*
X132916606Y-86347000D02*
X132916606Y-89130000D01*
X132916606Y-91210000D02*
X132916606Y-93993000D01*
X132956606Y-86350000D02*
X132956606Y-89130000D01*
X132956606Y-91210000D02*
X132956606Y-93990000D01*
X132996606Y-86353000D02*
X132996606Y-89130000D01*
X132996606Y-91210000D02*
X132996606Y-93987000D01*
X133036606Y-86357000D02*
X133036606Y-89130000D01*
X133036606Y-91210000D02*
X133036606Y-93983000D01*
X133076606Y-86361000D02*
X133076606Y-89130000D01*
X133076606Y-91210000D02*
X133076606Y-93979000D01*
X133116606Y-86365000D02*
X133116606Y-89130000D01*
X133116606Y-91210000D02*
X133116606Y-93975000D01*
X133156606Y-86370000D02*
X133156606Y-89130000D01*
X133156606Y-91210000D02*
X133156606Y-93970000D01*
X133196606Y-86375000D02*
X133196606Y-89130000D01*
X133196606Y-91210000D02*
X133196606Y-93965000D01*
X133236606Y-86381000D02*
X133236606Y-89130000D01*
X133236606Y-91210000D02*
X133236606Y-93959000D01*
X133276606Y-86387000D02*
X133276606Y-89130000D01*
X133276606Y-91210000D02*
X133276606Y-93953000D01*
X133316606Y-86393000D02*
X133316606Y-89130000D01*
X133316606Y-91210000D02*
X133316606Y-93947000D01*
X133356606Y-86400000D02*
X133356606Y-89130000D01*
X133356606Y-91210000D02*
X133356606Y-93940000D01*
X133396606Y-86408000D02*
X133396606Y-89130000D01*
X133396606Y-91210000D02*
X133396606Y-93932000D01*
X133436606Y-86415000D02*
X133436606Y-89130000D01*
X133436606Y-91210000D02*
X133436606Y-93925000D01*
X133476606Y-86424000D02*
X133476606Y-89130000D01*
X133476606Y-91210000D02*
X133476606Y-93916000D01*
X133516606Y-86432000D02*
X133516606Y-89130000D01*
X133516606Y-91210000D02*
X133516606Y-93908000D01*
X133556606Y-86441000D02*
X133556606Y-89130000D01*
X133556606Y-91210000D02*
X133556606Y-93899000D01*
X133596606Y-86451000D02*
X133596606Y-89130000D01*
X133596606Y-91210000D02*
X133596606Y-93889000D01*
X133636606Y-86461000D02*
X133636606Y-89130000D01*
X133636606Y-91210000D02*
X133636606Y-93879000D01*
X133676606Y-86471000D02*
X133676606Y-89130000D01*
X133676606Y-91210000D02*
X133676606Y-93869000D01*
X133716606Y-86482000D02*
X133716606Y-89130000D01*
X133716606Y-91210000D02*
X133716606Y-93858000D01*
X133756606Y-86494000D02*
X133756606Y-89130000D01*
X133756606Y-91210000D02*
X133756606Y-93846000D01*
X133796606Y-86506000D02*
X133796606Y-89130000D01*
X133796606Y-91210000D02*
X133796606Y-93834000D01*
X133836606Y-86518000D02*
X133836606Y-89130000D01*
X133836606Y-91210000D02*
X133836606Y-93822000D01*
X133876606Y-86531000D02*
X133876606Y-89130000D01*
X133876606Y-91210000D02*
X133876606Y-93809000D01*
X133916606Y-86544000D02*
X133916606Y-89130000D01*
X133916606Y-91210000D02*
X133916606Y-93796000D01*
X133956606Y-86558000D02*
X133956606Y-89130000D01*
X133956606Y-91210000D02*
X133956606Y-93782000D01*
X133996606Y-86572000D02*
X133996606Y-89130000D01*
X133996606Y-91210000D02*
X133996606Y-93768000D01*
X134036606Y-86587000D02*
X134036606Y-89130000D01*
X134036606Y-91210000D02*
X134036606Y-93753000D01*
X134076606Y-86602000D02*
X134076606Y-89130000D01*
X134076606Y-91210000D02*
X134076606Y-93738000D01*
X134116606Y-86618000D02*
X134116606Y-89130000D01*
X134116606Y-91210000D02*
X134116606Y-93722000D01*
X134156606Y-86634000D02*
X134156606Y-89130000D01*
X134156606Y-91210000D02*
X134156606Y-93706000D01*
X134196606Y-86651000D02*
X134196606Y-89130000D01*
X134196606Y-91210000D02*
X134196606Y-93689000D01*
X134236606Y-86668000D02*
X134236606Y-89130000D01*
X134236606Y-91210000D02*
X134236606Y-93672000D01*
X134276606Y-86686000D02*
X134276606Y-89130000D01*
X134276606Y-91210000D02*
X134276606Y-93654000D01*
X134316606Y-86705000D02*
X134316606Y-89130000D01*
X134316606Y-91210000D02*
X134316606Y-93635000D01*
X134356606Y-86724000D02*
X134356606Y-89130000D01*
X134356606Y-91210000D02*
X134356606Y-93616000D01*
X134396606Y-86743000D02*
X134396606Y-89130000D01*
X134396606Y-91210000D02*
X134396606Y-93597000D01*
X134436606Y-86763000D02*
X134436606Y-89130000D01*
X134436606Y-91210000D02*
X134436606Y-93577000D01*
X134476606Y-86784000D02*
X134476606Y-89130000D01*
X134476606Y-91210000D02*
X134476606Y-93556000D01*
X134516606Y-86805000D02*
X134516606Y-89130000D01*
X134516606Y-91210000D02*
X134516606Y-93535000D01*
X134556606Y-86827000D02*
X134556606Y-89130000D01*
X134556606Y-91210000D02*
X134556606Y-93513000D01*
X134596606Y-86850000D02*
X134596606Y-89130000D01*
X134596606Y-91210000D02*
X134596606Y-93490000D01*
X134636606Y-86873000D02*
X134636606Y-89130000D01*
X134636606Y-91210000D02*
X134636606Y-93467000D01*
X134676606Y-86897000D02*
X134676606Y-89130000D01*
X134676606Y-91210000D02*
X134676606Y-93443000D01*
X134716606Y-86921000D02*
X134716606Y-89130000D01*
X134716606Y-91210000D02*
X134716606Y-93419000D01*
X134756606Y-86946000D02*
X134756606Y-89130000D01*
X134756606Y-91210000D02*
X134756606Y-93394000D01*
X134796606Y-86972000D02*
X134796606Y-89130000D01*
X134796606Y-91210000D02*
X134796606Y-93368000D01*
X134836606Y-86999000D02*
X134836606Y-89130000D01*
X134836606Y-91210000D02*
X134836606Y-93341000D01*
X134876606Y-87026000D02*
X134876606Y-89130000D01*
X134876606Y-91210000D02*
X134876606Y-93314000D01*
X134916606Y-87054000D02*
X134916606Y-89130000D01*
X134916606Y-91210000D02*
X134916606Y-93286000D01*
X134956606Y-87083000D02*
X134956606Y-89130000D01*
X134956606Y-91210000D02*
X134956606Y-93257000D01*
X134996606Y-87113000D02*
X134996606Y-93227000D01*
X135036606Y-87143000D02*
X135036606Y-93197000D01*
X135076606Y-87174000D02*
X135076606Y-93166000D01*
X135116606Y-87206000D02*
X135116606Y-93134000D01*
X135156606Y-87239000D02*
X135156606Y-93101000D01*
X135196606Y-87273000D02*
X135196606Y-93067000D01*
X135236606Y-87308000D02*
X135236606Y-93032000D01*
X135276606Y-87343000D02*
X135276606Y-92997000D01*
X135316606Y-87380000D02*
X135316606Y-92960000D01*
X135356606Y-87418000D02*
X135356606Y-92922000D01*
X135396606Y-87457000D02*
X135396606Y-92883000D01*
X135436606Y-87497000D02*
X135436606Y-92843000D01*
X135476606Y-87539000D02*
X135476606Y-92801000D01*
X135516606Y-87581000D02*
X135516606Y-92759000D01*
X135556606Y-87625000D02*
X135556606Y-92715000D01*
X135596606Y-87670000D02*
X135596606Y-92670000D01*
X135636606Y-87717000D02*
X135636606Y-92623000D01*
X135676606Y-87765000D02*
X135676606Y-92575000D01*
X135716606Y-87815000D02*
X135716606Y-92525000D01*
X135756606Y-87867000D02*
X135756606Y-92473000D01*
X135796606Y-87920000D02*
X135796606Y-92420000D01*
X135836606Y-87976000D02*
X135836606Y-92364000D01*
X135876606Y-88034000D02*
X135876606Y-92306000D01*
X135916606Y-88094000D02*
X135916606Y-92246000D01*
X135956606Y-88156000D02*
X135956606Y-92184000D01*
X135996606Y-88221000D02*
X135996606Y-92119000D01*
X136036606Y-88290000D02*
X136036606Y-92050000D01*
X136076606Y-88362000D02*
X136076606Y-91978000D01*
X136116606Y-88437000D02*
X136116606Y-91903000D01*
X136156606Y-88517000D02*
X136156606Y-91823000D01*
X136196606Y-88602000D02*
X136196606Y-91738000D01*
X136236606Y-88692000D02*
X136236606Y-91648000D01*
X136276606Y-88790000D02*
X136276606Y-91550000D01*
X136316606Y-88896000D02*
X136316606Y-91444000D01*
X136356606Y-89012000D02*
X136356606Y-91328000D01*
X136396606Y-89143000D02*
X136396606Y-91197000D01*
X136436606Y-89294000D02*
X136436606Y-91046000D01*
X136476606Y-89477000D02*
X136476606Y-90863000D01*
X136516606Y-89729000D02*
X136516606Y-90611000D01*
X136546606Y-90170000D02*
G75*
G02*
X128806606Y-90170000I-3870000J0D01*
G01*
X128806606Y-90170000D02*
G75*
G02*
X136546606Y-90170000I3870000J0D01*
G01*
%TO.C,R8*%
X84180867Y-111829000D02*
G75*
G02*
X84180867Y-113469000I417133J-820000D01*
G01*
%TO.C,TR1*%
X161322000Y-83996000D02*
X161322000Y-106236000D01*
X161322000Y-83996000D02*
X185562000Y-83996000D01*
X164442000Y-103616000D02*
X164442000Y-86616000D01*
X164942000Y-86616000D02*
X164442000Y-86616000D01*
X166942000Y-86616000D02*
X169942000Y-86616000D01*
X169942000Y-103616000D02*
X167442000Y-103616000D01*
X171942000Y-86616000D02*
X174942000Y-86616000D01*
X171942000Y-103616000D02*
X179942000Y-103616000D01*
X176942000Y-86616000D02*
X179942000Y-86616000D01*
X181942000Y-86616000D02*
X182442000Y-86616000D01*
X181942000Y-103616000D02*
X182442000Y-103616000D01*
X182442000Y-103616000D02*
X182442000Y-86616000D01*
X185562000Y-106236000D02*
X161322000Y-106236000D01*
X185562000Y-106236000D02*
X185562000Y-83996000D01*
%TD*%
M02*
