%TF.GenerationSoftware,KiCad,Pcbnew,10.0.3*%
%TF.CreationDate,2026-06-16T19:29:15+05:45*%
%TF.ProjectId,60w smps,36307720-736d-4707-932e-6b696361645f,rev?*%
%TF.SameCoordinates,Original*%
%TF.FileFunction,Copper,L2,Bot*%
%TF.FilePolarity,Positive*%
%FSLAX46Y46*%
G04 Gerber Fmt 4.6, Leading zero omitted, Abs format (unit mm)*
G04 Created by KiCad (PCBNEW 10.0.3) date 2026-06-16 19:29:15*
%MOMM*%
%LPD*%
G01*
G04 APERTURE LIST*
G04 Aperture macros list*
%AMRoundRect*
0 Rectangle with rounded corners*
0 $1 Rounding radius*
0 $2 $3 $4 $5 $6 $7 $8 $9 X,Y pos of 4 corners*
0 Add a 4 corners polygon primitive as box body*
4,1,4,$2,$3,$4,$5,$6,$7,$8,$9,$2,$3,0*
0 Add four circle primitives for the rounded corners*
1,1,$1+$1,$2,$3*
1,1,$1+$1,$4,$5*
1,1,$1+$1,$6,$7*
1,1,$1+$1,$8,$9*
0 Add four rect primitives between the rounded corners*
20,1,$1+$1,$2,$3,$4,$5,0*
20,1,$1+$1,$4,$5,$6,$7,0*
20,1,$1+$1,$6,$7,$8,$9,0*
20,1,$1+$1,$8,$9,$2,$3,0*%
G04 Aperture macros list end*
%TA.AperFunction,ComponentPad*%
%ADD10RoundRect,0.249999X-0.850001X-0.850001X0.850001X-0.850001X0.850001X0.850001X-0.850001X0.850001X0*%
%TD*%
%TA.AperFunction,ComponentPad*%
%ADD11C,2.200000*%
%TD*%
%TA.AperFunction,ComponentPad*%
%ADD12RoundRect,0.249999X0.850001X0.850001X-0.850001X0.850001X-0.850001X-0.850001X0.850001X-0.850001X0*%
%TD*%
%TA.AperFunction,ComponentPad*%
%ADD13RoundRect,0.250000X0.750000X0.750000X-0.750000X0.750000X-0.750000X-0.750000X0.750000X-0.750000X0*%
%TD*%
%TA.AperFunction,ComponentPad*%
%ADD14C,2.000000*%
%TD*%
%TA.AperFunction,ComponentPad*%
%ADD15RoundRect,0.250000X-0.550000X-0.550000X0.550000X-0.550000X0.550000X0.550000X-0.550000X0.550000X0*%
%TD*%
%TA.AperFunction,ComponentPad*%
%ADD16C,1.600000*%
%TD*%
%TA.AperFunction,ComponentPad*%
%ADD17C,1.400000*%
%TD*%
%TA.AperFunction,ComponentPad*%
%ADD18RoundRect,0.250001X-1.149999X1.149999X-1.149999X-1.149999X1.149999X-1.149999X1.149999X1.149999X0*%
%TD*%
%TA.AperFunction,ComponentPad*%
%ADD19C,2.800000*%
%TD*%
%TA.AperFunction,ComponentPad*%
%ADD20RoundRect,0.250000X0.750000X-0.750000X0.750000X0.750000X-0.750000X0.750000X-0.750000X-0.750000X0*%
%TD*%
%TA.AperFunction,ComponentPad*%
%ADD21RoundRect,0.250000X0.550000X-0.550000X0.550000X0.550000X-0.550000X0.550000X-0.550000X-0.550000X0*%
%TD*%
%TA.AperFunction,ComponentPad*%
%ADD22O,1.600000X1.600000*%
%TD*%
%TA.AperFunction,ComponentPad*%
%ADD23RoundRect,0.250000X-0.750000X-0.750000X0.750000X-0.750000X0.750000X0.750000X-0.750000X0.750000X0*%
%TD*%
%TA.AperFunction,ComponentPad*%
%ADD24R,1.050000X1.500000*%
%TD*%
%TA.AperFunction,ComponentPad*%
%ADD25O,1.050000X1.500000*%
%TD*%
%TA.AperFunction,ComponentPad*%
%ADD26RoundRect,0.250001X1.149999X-1.149999X1.149999X1.149999X-1.149999X1.149999X-1.149999X-1.149999X0*%
%TD*%
%TA.AperFunction,ComponentPad*%
%ADD27R,1.520000X1.520000*%
%TD*%
%TA.AperFunction,ComponentPad*%
%ADD28C,1.520000*%
%TD*%
%TA.AperFunction,ComponentPad*%
%ADD29R,2.000000X2.000000*%
%TD*%
%TA.AperFunction,Conductor*%
%ADD30C,0.200000*%
%TD*%
%TA.AperFunction,Conductor*%
%ADD31C,1.500000*%
%TD*%
%TA.AperFunction,Conductor*%
%ADD32C,1.000000*%
%TD*%
%TA.AperFunction,Conductor*%
%ADD33C,0.500000*%
%TD*%
G04 APERTURE END LIST*
D10*
%TO.P,D1,1,K_1*%
%TO.N,Net-(D1-K)*%
X99314000Y-86868000D03*
D11*
%TO.P,D1,2,A_2*%
%TO.N,GND*%
X109474000Y-86868000D03*
%TD*%
D10*
%TO.P,D6,1,K_1*%
%TO.N,/R2*%
X150368000Y-80772000D03*
D11*
%TO.P,D6,2,A_2*%
%TO.N,/t6*%
X160528000Y-80772000D03*
%TD*%
D12*
%TO.P,D5,1,K_1*%
%TO.N,Net-(D5-K)*%
X149098000Y-104140000D03*
D11*
%TO.P,D5,2,A_2*%
%TO.N,/Q1*%
X138938000Y-104140000D03*
%TD*%
D13*
%TO.P,C10,1*%
%TO.N,GND*%
X72905000Y-104659500D03*
D14*
%TO.P,C10,2*%
%TO.N,/R2*%
X57905000Y-104659500D03*
%TD*%
D15*
%TO.P,C2,1*%
%TO.N,Net-(D1-K)*%
X88373606Y-82804000D03*
D16*
%TO.P,C2,2*%
%TO.N,Net-(D3-K)*%
X90873606Y-82804000D03*
%TD*%
D15*
%TO.P,C4,1*%
%TO.N,Net-(D2-K)*%
X148884000Y-92710000D03*
D16*
%TO.P,C4,2*%
%TO.N,Net-(D5-K)*%
X151384000Y-92710000D03*
%TD*%
D10*
%TO.P,D2,1,K_1*%
%TO.N,Net-(D2-K)*%
X114935000Y-86741000D03*
D11*
%TO.P,D2,2,A_2*%
%TO.N,Net-(D1-K)*%
X125095000Y-86741000D03*
%TD*%
D17*
%TO.P,R1,1*%
%TO.N,/220v AC*%
X70494400Y-99568000D03*
%TO.P,R1,2*%
%TO.N,Net-(T1-SB)*%
X72394400Y-99568000D03*
%TD*%
D10*
%TO.P,D3,1,K_1*%
%TO.N,Net-(D3-K)*%
X99568000Y-94742000D03*
D11*
%TO.P,D3,2,A_2*%
%TO.N,GND*%
X109728000Y-94742000D03*
%TD*%
D18*
%TO.P,J1,1,Pin_1_1*%
%TO.N,Net-(J1-Pin_1)*%
X55499000Y-91520000D03*
D19*
%TO.P,J1,2,Pin_2_2*%
%TO.N,/220v AC*%
X55499000Y-96520000D03*
%TD*%
D10*
%TO.P,D7,1,K_1*%
%TO.N,Net-(D7-K)*%
X99695000Y-102108000D03*
D11*
%TO.P,D7,2,A_2*%
%TO.N,GND*%
X109855000Y-102108000D03*
%TD*%
D20*
%TO.P,C9,1*%
%TO.N,Net-(D2-K)*%
X140831500Y-98305000D03*
D14*
%TO.P,C9,2*%
%TO.N,GND*%
X140831500Y-83305000D03*
%TD*%
D17*
%TO.P,R6,1*%
%TO.N,Net-(U1-FB)*%
X121798000Y-109093000D03*
%TO.P,R6,2*%
%TO.N,Net-(U1-COMP)*%
X123698000Y-109093000D03*
%TD*%
D15*
%TO.P,C1,1*%
%TO.N,Net-(T1-SB)*%
X66529606Y-93853000D03*
D16*
%TO.P,C1,2*%
%TO.N,Net-(T1-AA)*%
X69029606Y-93853000D03*
%TD*%
D10*
%TO.P,D4,1,K_1*%
%TO.N,Net-(D2-K)*%
X114808000Y-94488000D03*
D11*
%TO.P,D4,2,A_2*%
%TO.N,Net-(D3-K)*%
X124968000Y-94488000D03*
%TD*%
D21*
%TO.P,U1,1,COMP_1*%
%TO.N,Net-(U1-COMP)*%
X146126200Y-119603600D03*
D16*
%TO.P,U1,2,FB_2*%
%TO.N,Net-(U1-FB)*%
X148666200Y-119603600D03*
%TO.P,U1,3,CS_3*%
%TO.N,Net-(U1-CS)*%
X151206200Y-119603600D03*
%TO.P,U1,4,RC_4*%
%TO.N,Net-(U1-RC)*%
X153746200Y-119603600D03*
%TO.P,U1,5,GND_5*%
%TO.N,GND*%
X153746200Y-111983600D03*
%TO.P,U1,6,OUT_6*%
%TO.N,Net-(U1-OUT)*%
X151206200Y-111983600D03*
%TO.P,U1,7,VCC_7*%
%TO.N,/R2*%
X148666200Y-111983600D03*
%TO.P,U1,8,VREF_8*%
%TO.N,Net-(U1-VREF)*%
X146126200Y-111983600D03*
%TD*%
%TO.P,L1,1,1_1*%
%TO.N,Net-(D7-K)*%
X126978400Y-116027200D03*
D22*
%TO.P,L1,2,2_2*%
%TO.N,/DC+*%
X136978400Y-116027200D03*
%TD*%
D15*
%TO.P,C7,1*%
%TO.N,Net-(U1-VREF)*%
X115864000Y-103251000D03*
D16*
%TO.P,C7,2*%
%TO.N,GND*%
X118364000Y-103251000D03*
%TD*%
D15*
%TO.P,C8,1*%
%TO.N,Net-(U1-RC)*%
X131256400Y-102717600D03*
D16*
%TO.P,C8,2*%
%TO.N,GND*%
X133756400Y-102717600D03*
%TD*%
D23*
%TO.P,C11,1*%
%TO.N,Net-(D7-K)*%
X91052000Y-113653500D03*
D14*
%TO.P,C11,2*%
%TO.N,GND*%
X106052000Y-113653500D03*
%TD*%
D24*
%TO.P,Q1,1,S_1*%
%TO.N,Net-(Q1-S)*%
X155194000Y-103124000D03*
D25*
%TO.P,Q1,2,G_2*%
%TO.N,Net-(Q1-G)*%
X156464000Y-103124000D03*
%TO.P,Q1,3,D_3*%
%TO.N,/Q1*%
X157734000Y-103124000D03*
%TD*%
D15*
%TO.P,C5,1*%
%TO.N,Net-(U1-FB)*%
X114467000Y-114427000D03*
D16*
%TO.P,C5,2*%
%TO.N,Net-(U1-COMP)*%
X116967000Y-114427000D03*
%TD*%
D26*
%TO.P,J2,1,Pin_1_1*%
%TO.N,/DC+*%
X194056000Y-95932000D03*
D19*
%TO.P,J2,2,Pin_2_2*%
%TO.N,GND*%
X194056000Y-90932000D03*
%TD*%
D15*
%TO.P,C6,1*%
%TO.N,GND*%
X77654806Y-119303800D03*
D16*
%TO.P,C6,2*%
%TO.N,Net-(U1-CS)*%
X80154806Y-119303800D03*
%TD*%
D17*
%TO.P,R10,1*%
%TO.N,Net-(U1-VREF)*%
X123880800Y-103276400D03*
%TO.P,R10,2*%
%TO.N,Net-(U1-RC)*%
X125780800Y-103276400D03*
%TD*%
D27*
%TO.P,T1,1,AA_1*%
%TO.N,Net-(T1-AA)*%
X91186000Y-94107000D03*
D28*
%TO.P,T1,3,SA_3*%
%TO.N,Net-(D1-K)*%
X91186000Y-101727000D03*
%TO.P,T1,4,SB_4*%
%TO.N,Net-(T1-SB)*%
X78486000Y-101727000D03*
%TO.P,T1,6*%
%TO.N,N/C*%
X78486000Y-94107000D03*
%TD*%
D17*
%TO.P,R4,1*%
%TO.N,Net-(U1-FB)*%
X108463000Y-108331000D03*
%TO.P,R4,2*%
%TO.N,GND*%
X110363000Y-108331000D03*
%TD*%
D14*
%TO.P,F1,1*%
%TO.N,Net-(J1-Pin_1)*%
X66563000Y-83439000D03*
%TO.P,F1,2*%
%TO.N,Net-(T1-AA)*%
X77963000Y-83439000D03*
%TD*%
D17*
%TO.P,R2,1*%
%TO.N,Net-(D2-K)*%
X146309000Y-85852000D03*
%TO.P,R2,2*%
%TO.N,/R2*%
X148209000Y-85852000D03*
%TD*%
D23*
%TO.P,C12,1*%
%TO.N,/DC+*%
X57778000Y-112764500D03*
D14*
%TO.P,C12,2*%
%TO.N,GND*%
X72778000Y-112764500D03*
%TD*%
D15*
%TO.P,C3,1*%
%TO.N,Net-(D2-K)*%
X131426606Y-90170000D03*
D16*
%TO.P,C3,2*%
%TO.N,GND*%
X133926606Y-90170000D03*
%TD*%
D17*
%TO.P,R8,1*%
%TO.N,Net-(U1-CS)*%
X84598000Y-112649000D03*
%TO.P,R8,2*%
%TO.N,Net-(Q1-S)*%
X82698000Y-112649000D03*
%TD*%
D29*
%TO.P,TR1,1*%
%TO.N,GND*%
X165942000Y-102616000D03*
D14*
%TO.P,TR1,2*%
%TO.N,N/C*%
X170942000Y-102616000D03*
%TO.P,TR1,4*%
%TO.N,GND*%
X180942000Y-102616000D03*
%TO.P,TR1,5*%
X180942000Y-87616000D03*
%TO.P,TR1,6*%
%TO.N,/t6*%
X175942000Y-87616000D03*
%TO.P,TR1,7*%
%TO.N,/Q1*%
X170942000Y-87616000D03*
%TO.P,TR1,8*%
%TO.N,Net-(D2-K)*%
X165942000Y-87616000D03*
%TD*%
%TO.N,Net-(Q1-S)*%
D30*
X82698000Y-109834000D02*
X82698000Y-112649000D01*
X82880200Y-109651800D02*
X82698000Y-109834000D01*
X84683600Y-109651800D02*
X82880200Y-109651800D01*
X92159000Y-117127200D02*
X84683600Y-109651800D01*
X127434035Y-117127200D02*
X92159000Y-117127200D01*
X129634035Y-114927200D02*
X127434035Y-117127200D01*
X148425435Y-114927200D02*
X129634035Y-114927200D01*
X152646200Y-119147965D02*
X148425435Y-114927200D01*
X152646200Y-120059235D02*
X152646200Y-119147965D01*
X154201835Y-120703600D02*
X153290565Y-120703600D01*
X158203800Y-109015629D02*
X158203800Y-116701635D01*
X158203800Y-116701635D02*
X154201835Y-120703600D01*
X153290565Y-120703600D02*
X152646200Y-120059235D01*
X155194000Y-106005829D02*
X158203800Y-109015629D01*
X155194000Y-103124000D02*
X155194000Y-106005829D01*
%TO.N,Net-(T1-SB)*%
D31*
X72394400Y-99568000D02*
X76327000Y-99568000D01*
X76327000Y-99568000D02*
X78486000Y-101727000D01*
%TO.N,Net-(T1-AA)*%
X69029606Y-92372394D02*
X77963000Y-83439000D01*
X88631000Y-94107000D02*
X91186000Y-94107000D01*
X77963000Y-83439000D02*
X88631000Y-94107000D01*
X69029606Y-93853000D02*
X69029606Y-92372394D01*
%TO.N,Net-(D1-K)*%
X88373606Y-82804000D02*
X88373606Y-76497794D01*
X90195400Y-74676000D02*
X96266000Y-74676000D01*
X125095000Y-86741000D02*
X119659400Y-81305400D01*
X99314000Y-77724000D02*
X99314000Y-81305400D01*
X119659400Y-81305400D02*
X99314000Y-81305400D01*
X96266000Y-74676000D02*
X99314000Y-77724000D01*
X99314000Y-81305400D02*
X99314000Y-86868000D01*
X88373606Y-76497794D02*
X90195400Y-74676000D01*
%TO.N,Net-(D3-K)*%
X90873606Y-86047606D02*
X99568000Y-94742000D01*
X123647200Y-97891600D02*
X124968000Y-96570800D01*
X124968000Y-96570800D02*
X124968000Y-94488000D01*
X99568000Y-94742000D02*
X102717600Y-97891600D01*
X102717600Y-97891600D02*
X123647200Y-97891600D01*
X90873606Y-82804000D02*
X90873606Y-86047606D01*
%TO.N,Net-(D2-K)*%
D32*
X165942000Y-87616000D02*
X163423000Y-90135000D01*
X139561606Y-98305000D02*
X131426606Y-90170000D01*
X143289000Y-98305000D02*
X148884000Y-92710000D01*
D31*
X114935000Y-86741000D02*
X114935000Y-94361000D01*
D32*
X140831500Y-98305000D02*
X139561606Y-98305000D01*
D31*
X114935000Y-94361000D02*
X114808000Y-94488000D01*
D32*
X140831500Y-98305000D02*
X143289000Y-98305000D01*
D31*
X146309000Y-90135000D02*
X148884000Y-92710000D01*
X146309000Y-85852000D02*
X146309000Y-90135000D01*
X118364000Y-90170000D02*
X131426606Y-90170000D01*
X114935000Y-86741000D02*
X118364000Y-90170000D01*
D32*
X163423000Y-90135000D02*
X146309000Y-90135000D01*
%TO.N,Net-(U1-FB)*%
X112522000Y-114427000D02*
X114467000Y-114427000D01*
X114467000Y-111389800D02*
X114467000Y-114427000D01*
X108463000Y-108331000D02*
X108463000Y-110368000D01*
X108463000Y-110368000D02*
X112522000Y-114427000D01*
X116763800Y-109093000D02*
X114467000Y-111389800D01*
X121798000Y-109093000D02*
X116763800Y-109093000D01*
%TO.N,Net-(U1-COMP)*%
X123698000Y-110082949D02*
X123698000Y-109093000D01*
X116967000Y-114427000D02*
X119353949Y-114427000D01*
X119353949Y-114427000D02*
X123698000Y-110082949D01*
%TO.N,Net-(U1-CS)*%
D31*
X84598000Y-114860606D02*
X80154806Y-119303800D01*
X84598000Y-112649000D02*
X84598000Y-114860606D01*
%TO.N,Net-(U1-VREF)*%
D33*
X132588000Y-111983600D02*
X123880800Y-103276400D01*
X123880800Y-103276400D02*
X120959800Y-100355400D01*
X146126200Y-111983600D02*
X132588000Y-111983600D01*
X115864000Y-100874200D02*
X115864000Y-103251000D01*
X116382800Y-100355400D02*
X115864000Y-100874200D01*
X120959800Y-100355400D02*
X116382800Y-100355400D01*
%TO.N,Net-(U1-RC)*%
D32*
X126339600Y-102717600D02*
X125780800Y-103276400D01*
X137363200Y-109347000D02*
X157403800Y-109347000D01*
X131256400Y-102717600D02*
X126339600Y-102717600D01*
X131256400Y-102717600D02*
X131256400Y-103240200D01*
X131256400Y-103240200D02*
X137363200Y-109347000D01*
X157403800Y-109347000D02*
X157403800Y-115946000D01*
X157403800Y-115946000D02*
X153746200Y-119603600D01*
%TO.N,/R2*%
X148666200Y-111983600D02*
X148666200Y-112064800D01*
X148209000Y-82931000D02*
X150368000Y-80772000D01*
X148209000Y-85852000D02*
X148209000Y-82931000D01*
%TO.N,Net-(D7-K)*%
D31*
X99695000Y-102108000D02*
X99695000Y-105010500D01*
D32*
X126978400Y-116027200D02*
X93425700Y-116027200D01*
D31*
X99695000Y-105010500D02*
X91052000Y-113653500D01*
D32*
X93425700Y-116027200D02*
X91052000Y-113653500D01*
%TO.N,/DC+*%
D31*
X132308600Y-123672600D02*
X133146800Y-123672600D01*
X133146800Y-123672600D02*
X136978400Y-119841000D01*
X194056000Y-95932000D02*
X166213800Y-123774200D01*
X132410200Y-123774200D02*
X132308600Y-123672600D01*
X166213800Y-123774200D02*
X132410200Y-123774200D01*
X136978400Y-119841000D02*
X136978400Y-116027200D01*
X57778000Y-112764500D02*
X68686100Y-123672600D01*
X68686100Y-123672600D02*
X132308600Y-123672600D01*
%TO.N,/Q1*%
D32*
X157734000Y-103124000D02*
X157734000Y-102436588D01*
X157734000Y-102436588D02*
X156515012Y-101217600D01*
X156515012Y-101217600D02*
X141860400Y-101217600D01*
X141860400Y-101217600D02*
X138938000Y-104140000D01*
X157734000Y-100824000D02*
X170942000Y-87616000D01*
X157734000Y-103124000D02*
X157734000Y-100824000D01*
%TO.N,/t6*%
X160528000Y-80772000D02*
X169098000Y-80772000D01*
X169098000Y-80772000D02*
X175942000Y-87616000D01*
%TO.N,Net-(J1-Pin_1)*%
D31*
X58482000Y-91520000D02*
X66563000Y-83439000D01*
X55499000Y-91520000D02*
X58482000Y-91520000D01*
%TO.N,/220v AC*%
X67446400Y-96520000D02*
X70494400Y-99568000D01*
X55499000Y-96520000D02*
X67446400Y-96520000D01*
%TD*%
%TA.AperFunction,Conductor*%
%TO.N,GND*%
G36*
X199451144Y-73189585D02*
G01*
X199496899Y-73242389D01*
X199508105Y-73293621D01*
X199628000Y-126575416D01*
X199608466Y-126642500D01*
X199555765Y-126688373D01*
X199502693Y-126699688D01*
X50025550Y-125124402D01*
X49958722Y-125104012D01*
X49913526Y-125050729D01*
X49902864Y-124999105D01*
X50040231Y-111964483D01*
X56277500Y-111964483D01*
X56277500Y-113564501D01*
X56277501Y-113564518D01*
X56288000Y-113667296D01*
X56288001Y-113667299D01*
X56338582Y-113819940D01*
X56343186Y-113833834D01*
X56435288Y-113983156D01*
X56559344Y-114107212D01*
X56708666Y-114199314D01*
X56875203Y-114254499D01*
X56977991Y-114265000D01*
X57458663Y-114264999D01*
X57525702Y-114284683D01*
X57546344Y-114301318D01*
X67871454Y-124626428D01*
X68030695Y-124742124D01*
X68113554Y-124784342D01*
X68206069Y-124831482D01*
X68206071Y-124831482D01*
X68206074Y-124831484D01*
X68306418Y-124864087D01*
X68393273Y-124892309D01*
X68587678Y-124923100D01*
X68587683Y-124923100D01*
X131881405Y-124923100D01*
X131925449Y-124931861D01*
X131925541Y-124931579D01*
X131927928Y-124932354D01*
X131928860Y-124932540D01*
X131930174Y-124933084D01*
X132117374Y-124993909D01*
X132194860Y-125006181D01*
X132311778Y-125024700D01*
X132311783Y-125024700D01*
X166312222Y-125024700D01*
X166506626Y-124993909D01*
X166506629Y-124993908D01*
X166693826Y-124933084D01*
X166869205Y-124843724D01*
X167028446Y-124728028D01*
X193887655Y-97868819D01*
X193948978Y-97835334D01*
X193975336Y-97832500D01*
X195256003Y-97832500D01*
X195256008Y-97832500D01*
X195358797Y-97821999D01*
X195525334Y-97766814D01*
X195674655Y-97674711D01*
X195798711Y-97550655D01*
X195890814Y-97401334D01*
X195945999Y-97234797D01*
X195956500Y-97132008D01*
X195956500Y-94731992D01*
X195945999Y-94629203D01*
X195890814Y-94462666D01*
X195884857Y-94453009D01*
X195798713Y-94313348D01*
X195798710Y-94313344D01*
X195674655Y-94189289D01*
X195674651Y-94189286D01*
X195525337Y-94097187D01*
X195525335Y-94097186D01*
X195442065Y-94069593D01*
X195358797Y-94042001D01*
X195358795Y-94042000D01*
X195256015Y-94031500D01*
X195256008Y-94031500D01*
X192855992Y-94031500D01*
X192855984Y-94031500D01*
X192753204Y-94042000D01*
X192753203Y-94042001D01*
X192586664Y-94097186D01*
X192586662Y-94097187D01*
X192437348Y-94189286D01*
X192437344Y-94189289D01*
X192313289Y-94313344D01*
X192313286Y-94313348D01*
X192221187Y-94462662D01*
X192221186Y-94462664D01*
X192166001Y-94629203D01*
X192166000Y-94629204D01*
X192155500Y-94731984D01*
X192155500Y-96012664D01*
X192135815Y-96079703D01*
X192119181Y-96100345D01*
X165732145Y-122487381D01*
X165670822Y-122520866D01*
X165644464Y-122523700D01*
X136363536Y-122523700D01*
X136296497Y-122504015D01*
X136250742Y-122451211D01*
X136240798Y-122382053D01*
X136269823Y-122318497D01*
X136275855Y-122312019D01*
X137932229Y-120655645D01*
X138047924Y-120496405D01*
X138137284Y-120321026D01*
X138198109Y-120133826D01*
X138218788Y-120003264D01*
X138221616Y-119985410D01*
X138228900Y-119939421D01*
X138228900Y-116406700D01*
X138234969Y-116368382D01*
X138246877Y-116331734D01*
X138278900Y-116129552D01*
X138278900Y-115924848D01*
X138246877Y-115722666D01*
X138246875Y-115722662D01*
X138246875Y-115722657D01*
X138236270Y-115690017D01*
X138234275Y-115620176D01*
X138270356Y-115560343D01*
X138333057Y-115529516D01*
X138354201Y-115527700D01*
X148125338Y-115527700D01*
X148192377Y-115547385D01*
X148213019Y-115564019D01*
X150820819Y-118171819D01*
X150854304Y-118233142D01*
X150849320Y-118302834D01*
X150807448Y-118358767D01*
X150771457Y-118377430D01*
X150706981Y-118398380D01*
X150706978Y-118398381D01*
X150524586Y-118491315D01*
X150358986Y-118611628D01*
X150214228Y-118756386D01*
X150093915Y-118921986D01*
X150046685Y-119014680D01*
X149998710Y-119065476D01*
X149930889Y-119082271D01*
X149864754Y-119059734D01*
X149825715Y-119014680D01*
X149809940Y-118983720D01*
X149778487Y-118921990D01*
X149726221Y-118850051D01*
X149658171Y-118756386D01*
X149513413Y-118611628D01*
X149347813Y-118491315D01*
X149347812Y-118491314D01*
X149347810Y-118491313D01*
X149236666Y-118434682D01*
X149165423Y-118398381D01*
X148970734Y-118335122D01*
X148782890Y-118305371D01*
X148768552Y-118303100D01*
X148563848Y-118303100D01*
X148549510Y-118305371D01*
X148361665Y-118335122D01*
X148166976Y-118398381D01*
X147984586Y-118491315D01*
X147818986Y-118611628D01*
X147674232Y-118756382D01*
X147674228Y-118756387D01*
X147606178Y-118850051D01*
X147550848Y-118892717D01*
X147481235Y-118898696D01*
X147419440Y-118866090D01*
X147388154Y-118816170D01*
X147368344Y-118756387D01*
X147361014Y-118734266D01*
X147268912Y-118584944D01*
X147144856Y-118460888D01*
X146995534Y-118368786D01*
X146828997Y-118313601D01*
X146828995Y-118313600D01*
X146726210Y-118303100D01*
X145526198Y-118303100D01*
X145526181Y-118303101D01*
X145423403Y-118313600D01*
X145423400Y-118313601D01*
X145256868Y-118368785D01*
X145256863Y-118368787D01*
X145107542Y-118460889D01*
X144983489Y-118584942D01*
X144891387Y-118734263D01*
X144891386Y-118734266D01*
X144836201Y-118900803D01*
X144836201Y-118900804D01*
X144836200Y-118900804D01*
X144825700Y-119003583D01*
X144825700Y-120203601D01*
X144825701Y-120203618D01*
X144836200Y-120306396D01*
X144836201Y-120306399D01*
X144853018Y-120357148D01*
X144891386Y-120472934D01*
X144983488Y-120622256D01*
X145107544Y-120746312D01*
X145256866Y-120838414D01*
X145423403Y-120893599D01*
X145526191Y-120904100D01*
X146726208Y-120904099D01*
X146828997Y-120893599D01*
X146995534Y-120838414D01*
X147144856Y-120746312D01*
X147268912Y-120622256D01*
X147361014Y-120472934D01*
X147388155Y-120391027D01*
X147427926Y-120333584D01*
X147492442Y-120306761D01*
X147561218Y-120319076D01*
X147606177Y-120357147D01*
X147648998Y-120416084D01*
X147674234Y-120450819D01*
X147818986Y-120595571D01*
X147973949Y-120708156D01*
X147984590Y-120715887D01*
X148100807Y-120775103D01*
X148166976Y-120808818D01*
X148166978Y-120808818D01*
X148166981Y-120808820D01*
X148258056Y-120838412D01*
X148361665Y-120872077D01*
X148462757Y-120888088D01*
X148563848Y-120904100D01*
X148563849Y-120904100D01*
X148768551Y-120904100D01*
X148768552Y-120904100D01*
X148970734Y-120872077D01*
X149165419Y-120808820D01*
X149347810Y-120715887D01*
X149476682Y-120622257D01*
X149513413Y-120595571D01*
X149513415Y-120595568D01*
X149513419Y-120595566D01*
X149658166Y-120450819D01*
X149658168Y-120450815D01*
X149658171Y-120450813D01*
X149778484Y-120285214D01*
X149778483Y-120285214D01*
X149778487Y-120285210D01*
X149825716Y-120192517D01*
X149873689Y-120141723D01*
X149941510Y-120124928D01*
X150007645Y-120147465D01*
X150046683Y-120192517D01*
X150052340Y-120203618D01*
X150093915Y-120285214D01*
X150214228Y-120450813D01*
X150358986Y-120595571D01*
X150513949Y-120708156D01*
X150524590Y-120715887D01*
X150640807Y-120775103D01*
X150706976Y-120808818D01*
X150706978Y-120808818D01*
X150706981Y-120808820D01*
X150798056Y-120838412D01*
X150901665Y-120872077D01*
X151002757Y-120888088D01*
X151103848Y-120904100D01*
X151103849Y-120904100D01*
X151308551Y-120904100D01*
X151308552Y-120904100D01*
X151510734Y-120872077D01*
X151705419Y-120808820D01*
X151887810Y-120715887D01*
X152016682Y-120622257D01*
X152053413Y-120595571D01*
X152053415Y-120595568D01*
X152053419Y-120595566D01*
X152105676Y-120543309D01*
X152113611Y-120538975D01*
X152119032Y-120531733D01*
X152143803Y-120522489D01*
X152166999Y-120509824D01*
X152176018Y-120510469D01*
X152184493Y-120507307D01*
X152210324Y-120512922D01*
X152236691Y-120514808D01*
X152245736Y-120520620D01*
X152252768Y-120522149D01*
X152265447Y-120531639D01*
X152265654Y-120531330D01*
X152265657Y-120531332D01*
X152272167Y-120536669D01*
X152280988Y-120543271D01*
X152281025Y-120543295D01*
X152284544Y-120546814D01*
X152284545Y-120546816D01*
X152284549Y-120546820D01*
X152284554Y-120546824D01*
X152921849Y-121184120D01*
X152921851Y-121184121D01*
X152921855Y-121184124D01*
X153058774Y-121263173D01*
X153058781Y-121263177D01*
X153211508Y-121304101D01*
X153211510Y-121304101D01*
X153377219Y-121304101D01*
X153377235Y-121304100D01*
X154115166Y-121304100D01*
X154115182Y-121304101D01*
X154122778Y-121304101D01*
X154280889Y-121304101D01*
X154280892Y-121304101D01*
X154433620Y-121263177D01*
X154483739Y-121234239D01*
X154570551Y-121184120D01*
X154682355Y-121072316D01*
X154682355Y-121072314D01*
X154692563Y-121062107D01*
X154692565Y-121062104D01*
X158572513Y-117182156D01*
X158572516Y-117182155D01*
X158684320Y-117070351D01*
X158734439Y-116983539D01*
X158763377Y-116933420D01*
X158804300Y-116780692D01*
X158804300Y-116622578D01*
X158804300Y-109104688D01*
X158804301Y-109104675D01*
X158804301Y-108936574D01*
X158804301Y-108936572D01*
X158763377Y-108783844D01*
X158709275Y-108690137D01*
X158684320Y-108646913D01*
X158572516Y-108535109D01*
X158572513Y-108535107D01*
X155830819Y-105793413D01*
X155797334Y-105732090D01*
X155794500Y-105705732D01*
X155794500Y-104466115D01*
X155814185Y-104399076D01*
X155866989Y-104353321D01*
X155875167Y-104349933D01*
X155914958Y-104335092D01*
X155961331Y-104317796D01*
X155962430Y-104316972D01*
X155963717Y-104316492D01*
X155969112Y-104313547D01*
X155969535Y-104314322D01*
X156027887Y-104292552D01*
X156084198Y-104301673D01*
X156164873Y-104335091D01*
X156330777Y-104368091D01*
X156362992Y-104374499D01*
X156362996Y-104374500D01*
X156362997Y-104374500D01*
X156565004Y-104374500D01*
X156565005Y-104374499D01*
X156763127Y-104335091D01*
X156949756Y-104257786D01*
X157030110Y-104204094D01*
X157096786Y-104183217D01*
X157164166Y-104201701D01*
X157167865Y-104204078D01*
X157248244Y-104257786D01*
X157434873Y-104335091D01*
X157600777Y-104368091D01*
X157632992Y-104374499D01*
X157632996Y-104374500D01*
X157632997Y-104374500D01*
X157835004Y-104374500D01*
X157835005Y-104374499D01*
X158033127Y-104335091D01*
X158219756Y-104257786D01*
X158387718Y-104145558D01*
X158530558Y-104002718D01*
X158631927Y-103851008D01*
X158642782Y-103834762D01*
X158642782Y-103834761D01*
X158642786Y-103834756D01*
X158720091Y-103648127D01*
X158759500Y-103450003D01*
X158759500Y-102797997D01*
X158736444Y-102682086D01*
X158736091Y-102679903D01*
X158736292Y-102678300D01*
X158734500Y-102660101D01*
X158734500Y-101568155D01*
X164442000Y-101568155D01*
X164442000Y-102366000D01*
X165566722Y-102366000D01*
X165522667Y-102442306D01*
X165492000Y-102556756D01*
X165492000Y-102675244D01*
X165522667Y-102789694D01*
X165566722Y-102866000D01*
X164442000Y-102866000D01*
X164442000Y-103663844D01*
X164448401Y-103723372D01*
X164448403Y-103723379D01*
X164498645Y-103858086D01*
X164498649Y-103858093D01*
X164584809Y-103973187D01*
X164584812Y-103973190D01*
X164699906Y-104059350D01*
X164699913Y-104059354D01*
X164834620Y-104109596D01*
X164834627Y-104109598D01*
X164894155Y-104115999D01*
X164894172Y-104116000D01*
X165692000Y-104116000D01*
X165692000Y-102991277D01*
X165768306Y-103035333D01*
X165882756Y-103066000D01*
X166001244Y-103066000D01*
X166115694Y-103035333D01*
X166192000Y-102991277D01*
X166192000Y-104116000D01*
X166989828Y-104116000D01*
X166989844Y-104115999D01*
X167049372Y-104109598D01*
X167049379Y-104109596D01*
X167184086Y-104059354D01*
X167184093Y-104059350D01*
X167299187Y-103973190D01*
X167299190Y-103973187D01*
X167385350Y-103858093D01*
X167385354Y-103858086D01*
X167435596Y-103723379D01*
X167435598Y-103723372D01*
X167441999Y-103663844D01*
X167442000Y-103663827D01*
X167442000Y-102866000D01*
X166317278Y-102866000D01*
X166361333Y-102789694D01*
X166392000Y-102675244D01*
X166392000Y-102556756D01*
X166376230Y-102497902D01*
X169441500Y-102497902D01*
X169441500Y-102734097D01*
X169478446Y-102967368D01*
X169551433Y-103191996D01*
X169607051Y-103301151D01*
X169658657Y-103402433D01*
X169797483Y-103593510D01*
X169964490Y-103760517D01*
X170155567Y-103899343D01*
X170199779Y-103921870D01*
X170366003Y-104006566D01*
X170366005Y-104006566D01*
X170366008Y-104006568D01*
X170415879Y-104022772D01*
X170590631Y-104079553D01*
X170823903Y-104116500D01*
X170823908Y-104116500D01*
X171060097Y-104116500D01*
X171293368Y-104079553D01*
X171294870Y-104079065D01*
X171517992Y-104006568D01*
X171728433Y-103899343D01*
X171919510Y-103760517D01*
X172086517Y-103593510D01*
X172225343Y-103402433D01*
X172332568Y-103191992D01*
X172405553Y-102967368D01*
X172413182Y-102919201D01*
X172442500Y-102734097D01*
X172442500Y-102497947D01*
X179442000Y-102497947D01*
X179442000Y-102734052D01*
X179478934Y-102967247D01*
X179551897Y-103191802D01*
X179659087Y-103402174D01*
X179719338Y-103485104D01*
X179719340Y-103485105D01*
X180499861Y-102704584D01*
X180522667Y-102789694D01*
X180581910Y-102892306D01*
X180665694Y-102976090D01*
X180768306Y-103035333D01*
X180853415Y-103058138D01*
X180072893Y-103838658D01*
X180155828Y-103898914D01*
X180366197Y-104006102D01*
X180590752Y-104079065D01*
X180590751Y-104079065D01*
X180823948Y-104116000D01*
X181060052Y-104116000D01*
X181293247Y-104079065D01*
X181517802Y-104006102D01*
X181728163Y-103898918D01*
X181728169Y-103898914D01*
X181811104Y-103838658D01*
X181811105Y-103838658D01*
X181030584Y-103058138D01*
X181115694Y-103035333D01*
X181218306Y-102976090D01*
X181302090Y-102892306D01*
X181361333Y-102789694D01*
X181384138Y-102704584D01*
X182164658Y-103485105D01*
X182164658Y-103485104D01*
X182224914Y-103402169D01*
X182224918Y-103402163D01*
X182332102Y-103191802D01*
X182405065Y-102967247D01*
X182442000Y-102734052D01*
X182442000Y-102497947D01*
X182405065Y-102264752D01*
X182332101Y-102040193D01*
X182224914Y-101829828D01*
X182164658Y-101746894D01*
X182164658Y-101746893D01*
X181384137Y-102527414D01*
X181361333Y-102442306D01*
X181302090Y-102339694D01*
X181218306Y-102255910D01*
X181115694Y-102196667D01*
X181030584Y-102173861D01*
X181811105Y-101393340D01*
X181811104Y-101393338D01*
X181728174Y-101333087D01*
X181517802Y-101225897D01*
X181293247Y-101152934D01*
X181293248Y-101152934D01*
X181060052Y-101116000D01*
X180823948Y-101116000D01*
X180590752Y-101152934D01*
X180366197Y-101225897D01*
X180155830Y-101333084D01*
X180072894Y-101393340D01*
X180853415Y-102173861D01*
X180768306Y-102196667D01*
X180665694Y-102255910D01*
X180581910Y-102339694D01*
X180522667Y-102442306D01*
X180499861Y-102527415D01*
X179719340Y-101746894D01*
X179659084Y-101829830D01*
X179551899Y-102040193D01*
X179551898Y-102040193D01*
X179478934Y-102264752D01*
X179442000Y-102497947D01*
X172442500Y-102497947D01*
X172442500Y-102497902D01*
X172405553Y-102264631D01*
X172354754Y-102108289D01*
X172332568Y-102040008D01*
X172332566Y-102040005D01*
X172332566Y-102040003D01*
X172261578Y-101900683D01*
X172225343Y-101829567D01*
X172086517Y-101638490D01*
X171919510Y-101471483D01*
X171728433Y-101332657D01*
X171517996Y-101225433D01*
X171293368Y-101152446D01*
X171060097Y-101115500D01*
X171060092Y-101115500D01*
X170823908Y-101115500D01*
X170823903Y-101115500D01*
X170590631Y-101152446D01*
X170366003Y-101225433D01*
X170155566Y-101332657D01*
X170098783Y-101373913D01*
X169964490Y-101471483D01*
X169964488Y-101471485D01*
X169964487Y-101471485D01*
X169797485Y-101638487D01*
X169797485Y-101638488D01*
X169797483Y-101638490D01*
X169742428Y-101714266D01*
X169658657Y-101829566D01*
X169551433Y-102040003D01*
X169478446Y-102264631D01*
X169441500Y-102497902D01*
X166376230Y-102497902D01*
X166361333Y-102442306D01*
X166317278Y-102366000D01*
X167442000Y-102366000D01*
X167442000Y-101568172D01*
X167441999Y-101568155D01*
X167435598Y-101508627D01*
X167435596Y-101508620D01*
X167385354Y-101373913D01*
X167385350Y-101373906D01*
X167299190Y-101258812D01*
X167299187Y-101258809D01*
X167184093Y-101172649D01*
X167184086Y-101172645D01*
X167049379Y-101122403D01*
X167049372Y-101122401D01*
X166989844Y-101116000D01*
X166192000Y-101116000D01*
X166192000Y-102240722D01*
X166115694Y-102196667D01*
X166001244Y-102166000D01*
X165882756Y-102166000D01*
X165768306Y-102196667D01*
X165692000Y-102240722D01*
X165692000Y-101116000D01*
X164894155Y-101116000D01*
X164834627Y-101122401D01*
X164834620Y-101122403D01*
X164699913Y-101172645D01*
X164699906Y-101172649D01*
X164584812Y-101258809D01*
X164584809Y-101258812D01*
X164498649Y-101373906D01*
X164498645Y-101373913D01*
X164448403Y-101508620D01*
X164448401Y-101508627D01*
X164442000Y-101568155D01*
X158734500Y-101568155D01*
X158734500Y-101289782D01*
X158754185Y-101222743D01*
X158770819Y-101202101D01*
X167667956Y-92304965D01*
X169165455Y-90807466D01*
X192156000Y-90807466D01*
X192156000Y-91056533D01*
X192188508Y-91303463D01*
X192252973Y-91544049D01*
X192348283Y-91774148D01*
X192348288Y-91774159D01*
X192472813Y-91989841D01*
X192472819Y-91989849D01*
X192547400Y-92087045D01*
X193454958Y-91179487D01*
X193479978Y-91239890D01*
X193551112Y-91346351D01*
X193641649Y-91436888D01*
X193748110Y-91508022D01*
X193808511Y-91533041D01*
X192900953Y-92440598D01*
X192998150Y-92515180D01*
X192998158Y-92515186D01*
X193213840Y-92639711D01*
X193213851Y-92639716D01*
X193443950Y-92735026D01*
X193684536Y-92799491D01*
X193931466Y-92832000D01*
X194180534Y-92832000D01*
X194427463Y-92799491D01*
X194668049Y-92735026D01*
X194898148Y-92639716D01*
X194898159Y-92639711D01*
X195113855Y-92515178D01*
X195211045Y-92440600D01*
X195211045Y-92440597D01*
X194303488Y-91533041D01*
X194363890Y-91508022D01*
X194470351Y-91436888D01*
X194560888Y-91346351D01*
X194632022Y-91239890D01*
X194657041Y-91179489D01*
X195564597Y-92087045D01*
X195564600Y-92087045D01*
X195639178Y-91989855D01*
X195763711Y-91774159D01*
X195763716Y-91774148D01*
X195859026Y-91544049D01*
X195923491Y-91303463D01*
X195956000Y-91056533D01*
X195956000Y-90807466D01*
X195923491Y-90560536D01*
X195859026Y-90319950D01*
X195763716Y-90089851D01*
X195763711Y-90089840D01*
X195639186Y-89874158D01*
X195639180Y-89874150D01*
X195564598Y-89776953D01*
X194657041Y-90684510D01*
X194632022Y-90624110D01*
X194560888Y-90517649D01*
X194470351Y-90427112D01*
X194363890Y-90355978D01*
X194303487Y-90330957D01*
X195211045Y-89423400D01*
X195113849Y-89348819D01*
X195113841Y-89348813D01*
X194898159Y-89224288D01*
X194898148Y-89224283D01*
X194668049Y-89128973D01*
X194427463Y-89064508D01*
X194180534Y-89032000D01*
X193931466Y-89032000D01*
X193684536Y-89064508D01*
X193443950Y-89128973D01*
X193213851Y-89224283D01*
X193213847Y-89224285D01*
X192998143Y-89348823D01*
X192900953Y-89423399D01*
X192900953Y-89423400D01*
X193808511Y-90330958D01*
X193748110Y-90355978D01*
X193641649Y-90427112D01*
X193551112Y-90517649D01*
X193479978Y-90624110D01*
X193454958Y-90684511D01*
X192547400Y-89776953D01*
X192547399Y-89776953D01*
X192472823Y-89874143D01*
X192348285Y-90089847D01*
X192348283Y-90089851D01*
X192252973Y-90319950D01*
X192188508Y-90560536D01*
X192156000Y-90807466D01*
X169165455Y-90807466D01*
X170820102Y-89152819D01*
X170881425Y-89119334D01*
X170907783Y-89116500D01*
X171060097Y-89116500D01*
X171293368Y-89079553D01*
X171294870Y-89079065D01*
X171517992Y-89006568D01*
X171728433Y-88899343D01*
X171919510Y-88760517D01*
X172086517Y-88593510D01*
X172225343Y-88402433D01*
X172332568Y-88191992D01*
X172405553Y-87967368D01*
X172420848Y-87870798D01*
X172442500Y-87734097D01*
X172442500Y-87497902D01*
X172405553Y-87264631D01*
X172371689Y-87160412D01*
X172332568Y-87040008D01*
X172332566Y-87040005D01*
X172332566Y-87040003D01*
X172250408Y-86878760D01*
X172225343Y-86829567D01*
X172086517Y-86638490D01*
X171919510Y-86471483D01*
X171728433Y-86332657D01*
X171689532Y-86312836D01*
X171517996Y-86225433D01*
X171293368Y-86152446D01*
X171060097Y-86115500D01*
X171060092Y-86115500D01*
X170823908Y-86115500D01*
X170823903Y-86115500D01*
X170590631Y-86152446D01*
X170366003Y-86225433D01*
X170155566Y-86332657D01*
X170072047Y-86393338D01*
X169964490Y-86471483D01*
X169964488Y-86471485D01*
X169964487Y-86471485D01*
X169797485Y-86638487D01*
X169797485Y-86638488D01*
X169797483Y-86638490D01*
X169750606Y-86703011D01*
X169658657Y-86829566D01*
X169551433Y-87040003D01*
X169478446Y-87264631D01*
X169441500Y-87497902D01*
X169441500Y-87650217D01*
X169421815Y-87717256D01*
X169405181Y-87737898D01*
X157097468Y-100045610D01*
X157097450Y-100045628D01*
X157096220Y-100046859D01*
X157096218Y-100046861D01*
X156956861Y-100186218D01*
X156938344Y-100213928D01*
X156931159Y-100221530D01*
X156909643Y-100234074D01*
X156890535Y-100250043D01*
X156879985Y-100251367D01*
X156870800Y-100256723D01*
X156845918Y-100255644D01*
X156821209Y-100258746D01*
X156810753Y-100256325D01*
X156671497Y-100228626D01*
X156671496Y-100228625D01*
X156635824Y-100221530D01*
X156613554Y-100217100D01*
X156613553Y-100217100D01*
X141761859Y-100217100D01*
X141730162Y-100223405D01*
X141600707Y-100249154D01*
X141568564Y-100255548D01*
X141505953Y-100281483D01*
X141386488Y-100330966D01*
X141386479Y-100330971D01*
X141289483Y-100395783D01*
X141222616Y-100440461D01*
X141222613Y-100440464D01*
X139159651Y-102503427D01*
X139098328Y-102536912D01*
X139068834Y-102538919D01*
X139068834Y-102539500D01*
X139063962Y-102539500D01*
X138812038Y-102539500D01*
X138745738Y-102550001D01*
X138563214Y-102578910D01*
X138323616Y-102656760D01*
X138099151Y-102771132D01*
X137895350Y-102919201D01*
X137895345Y-102919205D01*
X137717205Y-103097345D01*
X137717201Y-103097350D01*
X137569132Y-103301151D01*
X137454760Y-103525616D01*
X137376910Y-103765214D01*
X137361972Y-103859528D01*
X137337500Y-104014038D01*
X137337500Y-104265962D01*
X137374027Y-104496585D01*
X137376910Y-104514785D01*
X137454760Y-104754383D01*
X137533413Y-104908747D01*
X137562843Y-104966507D01*
X137569132Y-104978848D01*
X137717201Y-105182649D01*
X137717205Y-105182654D01*
X137895345Y-105360794D01*
X137895350Y-105360798D01*
X138073117Y-105489952D01*
X138099155Y-105508870D01*
X138242184Y-105581747D01*
X138323616Y-105623239D01*
X138323618Y-105623239D01*
X138323621Y-105623241D01*
X138563215Y-105701090D01*
X138812038Y-105740500D01*
X138812039Y-105740500D01*
X139063961Y-105740500D01*
X139063962Y-105740500D01*
X139312785Y-105701090D01*
X139552379Y-105623241D01*
X139776845Y-105508870D01*
X139980656Y-105360793D01*
X140158793Y-105182656D01*
X140306870Y-104978845D01*
X140421241Y-104754379D01*
X140499090Y-104514785D01*
X140538500Y-104265962D01*
X140538500Y-104014038D01*
X140538500Y-104009166D01*
X140540028Y-104009166D01*
X140552979Y-103947415D01*
X140574567Y-103918351D01*
X141252937Y-103239982D01*
X147497500Y-103239982D01*
X147497500Y-105040017D01*
X147508000Y-105142796D01*
X147521209Y-105182657D01*
X147563186Y-105309335D01*
X147655288Y-105458656D01*
X147779344Y-105582712D01*
X147928665Y-105674814D01*
X148095202Y-105729999D01*
X148197990Y-105740500D01*
X148197995Y-105740500D01*
X149998005Y-105740500D01*
X149998010Y-105740500D01*
X150100798Y-105729999D01*
X150267335Y-105674814D01*
X150416656Y-105582712D01*
X150540712Y-105458656D01*
X150632814Y-105309335D01*
X150687999Y-105142798D01*
X150698500Y-105040010D01*
X150698500Y-103239990D01*
X150687999Y-103137202D01*
X150632814Y-102970665D01*
X150540712Y-102821344D01*
X150416656Y-102697288D01*
X150292192Y-102620518D01*
X150267337Y-102605187D01*
X150267332Y-102605185D01*
X150265863Y-102604698D01*
X150100798Y-102550001D01*
X150100796Y-102550000D01*
X149998017Y-102539500D01*
X149998010Y-102539500D01*
X148197990Y-102539500D01*
X148197982Y-102539500D01*
X148095203Y-102550000D01*
X148095202Y-102550001D01*
X148012669Y-102577349D01*
X147928667Y-102605185D01*
X147928662Y-102605187D01*
X147779342Y-102697289D01*
X147655289Y-102821342D01*
X147563187Y-102970662D01*
X147563185Y-102970667D01*
X147541757Y-103035333D01*
X147508001Y-103137202D01*
X147508001Y-103137203D01*
X147508000Y-103137203D01*
X147497500Y-103239982D01*
X141252937Y-103239982D01*
X142238502Y-102254419D01*
X142299825Y-102220934D01*
X142326183Y-102218100D01*
X154044500Y-102218100D01*
X154111539Y-102237785D01*
X154157294Y-102290589D01*
X154168500Y-102342100D01*
X154168500Y-103921870D01*
X154168501Y-103921876D01*
X154174908Y-103981483D01*
X154225202Y-104116328D01*
X154225206Y-104116335D01*
X154311452Y-104231544D01*
X154311455Y-104231547D01*
X154426664Y-104317793D01*
X154426671Y-104317797D01*
X154512833Y-104349933D01*
X154568766Y-104391804D01*
X154593184Y-104457268D01*
X154593500Y-104466115D01*
X154593500Y-105919159D01*
X154593499Y-105919177D01*
X154593499Y-106084883D01*
X154593498Y-106084883D01*
X154634424Y-106237616D01*
X154647924Y-106260998D01*
X154647925Y-106261000D01*
X154713477Y-106374541D01*
X154713481Y-106374546D01*
X154832349Y-106493414D01*
X154832355Y-106493419D01*
X156473755Y-108134819D01*
X156507240Y-108196142D01*
X156502256Y-108265834D01*
X156460384Y-108321767D01*
X156394920Y-108346184D01*
X156386074Y-108346500D01*
X137828983Y-108346500D01*
X137761944Y-108326815D01*
X137741302Y-108310181D01*
X133660402Y-104229281D01*
X133626917Y-104167958D01*
X133631901Y-104098266D01*
X133673773Y-104042333D01*
X133739237Y-104017916D01*
X133748083Y-104017600D01*
X133858717Y-104017600D01*
X134060817Y-103985590D01*
X134255431Y-103922355D01*
X134437749Y-103829459D01*
X134482321Y-103797074D01*
X133802846Y-103117600D01*
X133809061Y-103117600D01*
X133910794Y-103090341D01*
X134002006Y-103037680D01*
X134076480Y-102963206D01*
X134129141Y-102871994D01*
X134156400Y-102770261D01*
X134156400Y-102764047D01*
X134835874Y-103443521D01*
X134868259Y-103398949D01*
X134961155Y-103216631D01*
X135024390Y-103022017D01*
X135056400Y-102819917D01*
X135056400Y-102615282D01*
X135024390Y-102413182D01*
X134961155Y-102218568D01*
X134868259Y-102036250D01*
X134835874Y-101991677D01*
X134835874Y-101991676D01*
X134156400Y-102671151D01*
X134156400Y-102664939D01*
X134129141Y-102563206D01*
X134076480Y-102471994D01*
X134002006Y-102397520D01*
X133910794Y-102344859D01*
X133809061Y-102317600D01*
X133802846Y-102317600D01*
X134482322Y-101638124D01*
X134482321Y-101638123D01*
X134437759Y-101605747D01*
X134437750Y-101605741D01*
X134255431Y-101512844D01*
X134060817Y-101449609D01*
X133858717Y-101417600D01*
X133654083Y-101417600D01*
X133451982Y-101449609D01*
X133257368Y-101512844D01*
X133075044Y-101605743D01*
X133030477Y-101638123D01*
X133030477Y-101638124D01*
X133709954Y-102317600D01*
X133703739Y-102317600D01*
X133602006Y-102344859D01*
X133510794Y-102397520D01*
X133436320Y-102471994D01*
X133383659Y-102563206D01*
X133356400Y-102664939D01*
X133356400Y-102671153D01*
X132676924Y-101991677D01*
X132639119Y-101994653D01*
X132570741Y-101980289D01*
X132520984Y-101931238D01*
X132518510Y-101926549D01*
X132514501Y-101918542D01*
X132491214Y-101848266D01*
X132399112Y-101698944D01*
X132275056Y-101574888D01*
X132125734Y-101482786D01*
X131959197Y-101427601D01*
X131959195Y-101427600D01*
X131856410Y-101417100D01*
X130656398Y-101417100D01*
X130656381Y-101417101D01*
X130553603Y-101427600D01*
X130553600Y-101427601D01*
X130387068Y-101482785D01*
X130387063Y-101482787D01*
X130237745Y-101574887D01*
X130131850Y-101680782D01*
X130070527Y-101714266D01*
X130044169Y-101717100D01*
X126444275Y-101717100D01*
X126444255Y-101717099D01*
X126438141Y-101717099D01*
X126241060Y-101717099D01*
X126241057Y-101717099D01*
X126047772Y-101755546D01*
X126047764Y-101755548D01*
X125865688Y-101830966D01*
X125865679Y-101830971D01*
X125701819Y-101940459D01*
X125701815Y-101940462D01*
X125572297Y-102069981D01*
X125510974Y-102103466D01*
X125504023Y-102104772D01*
X125499684Y-102105459D01*
X125319965Y-102163854D01*
X125151600Y-102249640D01*
X125064379Y-102313010D01*
X124998727Y-102360710D01*
X124998725Y-102360712D01*
X124998724Y-102360712D01*
X124918481Y-102440956D01*
X124857158Y-102474441D01*
X124787466Y-102469457D01*
X124743119Y-102440956D01*
X124662875Y-102360712D01*
X124662873Y-102360710D01*
X124509999Y-102249640D01*
X124486732Y-102237785D01*
X124341636Y-102163854D01*
X124161918Y-102105459D01*
X123975286Y-102075900D01*
X123975281Y-102075900D01*
X123793030Y-102075900D01*
X123725991Y-102056215D01*
X123705349Y-102039581D01*
X121438221Y-99772452D01*
X121438214Y-99772446D01*
X121364529Y-99723212D01*
X121364529Y-99723213D01*
X121315291Y-99690313D01*
X121178717Y-99633743D01*
X121178707Y-99633740D01*
X121033720Y-99604900D01*
X121033718Y-99604900D01*
X116308882Y-99604900D01*
X116308880Y-99604900D01*
X116163892Y-99633740D01*
X116163886Y-99633742D01*
X116027308Y-99690314D01*
X116027296Y-99690321D01*
X115978069Y-99723213D01*
X115904388Y-99772444D01*
X115904380Y-99772450D01*
X115281052Y-100395778D01*
X115281046Y-100395785D01*
X115233797Y-100466499D01*
X115233798Y-100466500D01*
X115198914Y-100518708D01*
X115142343Y-100655282D01*
X115142340Y-100655292D01*
X115113500Y-100800279D01*
X115113500Y-101887267D01*
X115093815Y-101954306D01*
X115041011Y-102000061D01*
X115028506Y-102004972D01*
X114994671Y-102016184D01*
X114994663Y-102016187D01*
X114845342Y-102108289D01*
X114721289Y-102232342D01*
X114629187Y-102381663D01*
X114629185Y-102381668D01*
X114603246Y-102459949D01*
X114574001Y-102548203D01*
X114574001Y-102548204D01*
X114574000Y-102548204D01*
X114563500Y-102650983D01*
X114563500Y-103851001D01*
X114563501Y-103851018D01*
X114574000Y-103953796D01*
X114574001Y-103953799D01*
X114627750Y-104116000D01*
X114629186Y-104120334D01*
X114721288Y-104269656D01*
X114845344Y-104393712D01*
X114994666Y-104485814D01*
X115161203Y-104540999D01*
X115263991Y-104551500D01*
X116464008Y-104551499D01*
X116566797Y-104540999D01*
X116733334Y-104485814D01*
X116882656Y-104393712D01*
X117006712Y-104269656D01*
X117098814Y-104120334D01*
X117122102Y-104050054D01*
X117126110Y-104042050D01*
X117144060Y-104022772D01*
X117159055Y-104001116D01*
X117167495Y-103997606D01*
X117173725Y-103990917D01*
X117199249Y-103984404D01*
X117223571Y-103974292D01*
X117239834Y-103974048D01*
X117241425Y-103973643D01*
X117242523Y-103974008D01*
X117246719Y-103973946D01*
X117284525Y-103976921D01*
X117964000Y-103297446D01*
X117964000Y-103303661D01*
X117991259Y-103405394D01*
X118043920Y-103496606D01*
X118118394Y-103571080D01*
X118209606Y-103623741D01*
X118311339Y-103651000D01*
X118317553Y-103651000D01*
X117638076Y-104330474D01*
X117682650Y-104362859D01*
X117864968Y-104455755D01*
X118059582Y-104518990D01*
X118261683Y-104551000D01*
X118466317Y-104551000D01*
X118668417Y-104518990D01*
X118863031Y-104455755D01*
X119045349Y-104362859D01*
X119089921Y-104330474D01*
X118410447Y-103651000D01*
X118416661Y-103651000D01*
X118518394Y-103623741D01*
X118609606Y-103571080D01*
X118684080Y-103496606D01*
X118736741Y-103405394D01*
X118764000Y-103303661D01*
X118764000Y-103297448D01*
X119443474Y-103976922D01*
X119443474Y-103976921D01*
X119475859Y-103932349D01*
X119568755Y-103750031D01*
X119631990Y-103555417D01*
X119664000Y-103353317D01*
X119664000Y-103148682D01*
X119631990Y-102946582D01*
X119568755Y-102751968D01*
X119475859Y-102569650D01*
X119443474Y-102525077D01*
X119443474Y-102525076D01*
X118764000Y-103204551D01*
X118764000Y-103198339D01*
X118736741Y-103096606D01*
X118684080Y-103005394D01*
X118609606Y-102930920D01*
X118518394Y-102878259D01*
X118416661Y-102851000D01*
X118410446Y-102851000D01*
X119089922Y-102171524D01*
X119089921Y-102171523D01*
X119045359Y-102139147D01*
X119045350Y-102139141D01*
X118863031Y-102046244D01*
X118668417Y-101983009D01*
X118466317Y-101951000D01*
X118261683Y-101951000D01*
X118059582Y-101983009D01*
X117864968Y-102046244D01*
X117682644Y-102139143D01*
X117638077Y-102171523D01*
X117638077Y-102171524D01*
X118317554Y-102851000D01*
X118311339Y-102851000D01*
X118209606Y-102878259D01*
X118118394Y-102930920D01*
X118043920Y-103005394D01*
X117991259Y-103096606D01*
X117964000Y-103198339D01*
X117964000Y-103204553D01*
X117284524Y-102525077D01*
X117246719Y-102528053D01*
X117178341Y-102513689D01*
X117128584Y-102464638D01*
X117126110Y-102459949D01*
X117122101Y-102451942D01*
X117098814Y-102381666D01*
X117006712Y-102232344D01*
X116882656Y-102108288D01*
X116764795Y-102035591D01*
X116733336Y-102016187D01*
X116733335Y-102016186D01*
X116733334Y-102016186D01*
X116733328Y-102016184D01*
X116699494Y-102004972D01*
X116642050Y-101965199D01*
X116615228Y-101900683D01*
X116614500Y-101887267D01*
X116614500Y-101236430D01*
X116623144Y-101206989D01*
X116629668Y-101177003D01*
X116633422Y-101171987D01*
X116634185Y-101169391D01*
X116650819Y-101148749D01*
X116657349Y-101142219D01*
X116718672Y-101108734D01*
X116745030Y-101105900D01*
X120597570Y-101105900D01*
X120664609Y-101125585D01*
X120685251Y-101142219D01*
X122643981Y-103100949D01*
X122677466Y-103162272D01*
X122680300Y-103188630D01*
X122680300Y-103370886D01*
X122709859Y-103557518D01*
X122768254Y-103737236D01*
X122837464Y-103873067D01*
X122854040Y-103905599D01*
X122965110Y-104058473D01*
X123098727Y-104192090D01*
X123251601Y-104303160D01*
X123314271Y-104335092D01*
X123419963Y-104388945D01*
X123419965Y-104388945D01*
X123419968Y-104388947D01*
X123516297Y-104420246D01*
X123599681Y-104447340D01*
X123786314Y-104476900D01*
X123968571Y-104476900D01*
X124035610Y-104496585D01*
X124056252Y-104513219D01*
X132005048Y-112462015D01*
X132005049Y-112462016D01*
X132064206Y-112521173D01*
X132109585Y-112566552D01*
X132232498Y-112648680D01*
X132232511Y-112648687D01*
X132369082Y-112705256D01*
X132369087Y-112705258D01*
X132369091Y-112705258D01*
X132369092Y-112705259D01*
X132514079Y-112734100D01*
X132514082Y-112734100D01*
X145000782Y-112734100D01*
X145067821Y-112753785D01*
X145101100Y-112785215D01*
X145134228Y-112830812D01*
X145134232Y-112830817D01*
X145278986Y-112975571D01*
X145419553Y-113077697D01*
X145444590Y-113095887D01*
X145557662Y-113153500D01*
X145626976Y-113188818D01*
X145626978Y-113188818D01*
X145626981Y-113188820D01*
X145706844Y-113214769D01*
X145821665Y-113252077D01*
X145900100Y-113264500D01*
X146023848Y-113284100D01*
X146023849Y-113284100D01*
X146228551Y-113284100D01*
X146228552Y-113284100D01*
X146430734Y-113252077D01*
X146625419Y-113188820D01*
X146807810Y-113095887D01*
X146900790Y-113028332D01*
X146973413Y-112975571D01*
X146973415Y-112975568D01*
X146973419Y-112975566D01*
X147118166Y-112830819D01*
X147118168Y-112830815D01*
X147118171Y-112830813D01*
X147238484Y-112665214D01*
X147238486Y-112665211D01*
X147238487Y-112665210D01*
X147285716Y-112572517D01*
X147333689Y-112521723D01*
X147401510Y-112504928D01*
X147467645Y-112527465D01*
X147506683Y-112572517D01*
X147512619Y-112584166D01*
X147553915Y-112665214D01*
X147674228Y-112830813D01*
X147818986Y-112975571D01*
X147959553Y-113077697D01*
X147984590Y-113095887D01*
X148097662Y-113153500D01*
X148166976Y-113188818D01*
X148166978Y-113188818D01*
X148166981Y-113188820D01*
X148246844Y-113214769D01*
X148361665Y-113252077D01*
X148440100Y-113264500D01*
X148563848Y-113284100D01*
X148563849Y-113284100D01*
X148768551Y-113284100D01*
X148768552Y-113284100D01*
X148970734Y-113252077D01*
X149165419Y-113188820D01*
X149347810Y-113095887D01*
X149440790Y-113028332D01*
X149513413Y-112975571D01*
X149513415Y-112975568D01*
X149513419Y-112975566D01*
X149658166Y-112830819D01*
X149658168Y-112830815D01*
X149658171Y-112830813D01*
X149778484Y-112665214D01*
X149778486Y-112665211D01*
X149778487Y-112665210D01*
X149825716Y-112572517D01*
X149873689Y-112521723D01*
X149941510Y-112504928D01*
X150007645Y-112527465D01*
X150046683Y-112572517D01*
X150052619Y-112584166D01*
X150093915Y-112665214D01*
X150214228Y-112830813D01*
X150358986Y-112975571D01*
X150499553Y-113077697D01*
X150524590Y-113095887D01*
X150637662Y-113153500D01*
X150706976Y-113188818D01*
X150706978Y-113188818D01*
X150706981Y-113188820D01*
X150786844Y-113214769D01*
X150901665Y-113252077D01*
X150980100Y-113264500D01*
X151103848Y-113284100D01*
X151103849Y-113284100D01*
X151308551Y-113284100D01*
X151308552Y-113284100D01*
X151510734Y-113252077D01*
X151705419Y-113188820D01*
X151887810Y-113095887D01*
X151980790Y-113028332D01*
X152053413Y-112975571D01*
X152053415Y-112975568D01*
X152053419Y-112975566D01*
X152198166Y-112830819D01*
X152198168Y-112830815D01*
X152198171Y-112830813D01*
X152318486Y-112665211D01*
X152318615Y-112664959D01*
X152365995Y-112571969D01*
X152413969Y-112521173D01*
X152481790Y-112504378D01*
X152547925Y-112526915D01*
X152586965Y-112571969D01*
X152634341Y-112664950D01*
X152634347Y-112664959D01*
X152666723Y-112709521D01*
X152666724Y-112709522D01*
X153346200Y-112030046D01*
X153346200Y-112036261D01*
X153373459Y-112137994D01*
X153426120Y-112229206D01*
X153500594Y-112303680D01*
X153591806Y-112356341D01*
X153693539Y-112383600D01*
X153699753Y-112383600D01*
X153020276Y-113063074D01*
X153064850Y-113095459D01*
X153247168Y-113188355D01*
X153441782Y-113251590D01*
X153643883Y-113283600D01*
X153848517Y-113283600D01*
X154050617Y-113251590D01*
X154245231Y-113188355D01*
X154427549Y-113095459D01*
X154472121Y-113063074D01*
X153792647Y-112383600D01*
X153798861Y-112383600D01*
X153900594Y-112356341D01*
X153991806Y-112303680D01*
X154066280Y-112229206D01*
X154118941Y-112137994D01*
X154146200Y-112036261D01*
X154146200Y-112030047D01*
X154825674Y-112709521D01*
X154858059Y-112664949D01*
X154950955Y-112482631D01*
X155014190Y-112288017D01*
X155046200Y-112085917D01*
X155046200Y-111881282D01*
X155014190Y-111679182D01*
X154950955Y-111484568D01*
X154858059Y-111302250D01*
X154825674Y-111257677D01*
X154825674Y-111257676D01*
X154146200Y-111937151D01*
X154146200Y-111930939D01*
X154118941Y-111829206D01*
X154066280Y-111737994D01*
X153991806Y-111663520D01*
X153900594Y-111610859D01*
X153798861Y-111583600D01*
X153792646Y-111583600D01*
X154472122Y-110904124D01*
X154472121Y-110904123D01*
X154427559Y-110871747D01*
X154427550Y-110871741D01*
X154245231Y-110778844D01*
X154050617Y-110715609D01*
X153848517Y-110683600D01*
X153643883Y-110683600D01*
X153441782Y-110715609D01*
X153247168Y-110778844D01*
X153064844Y-110871743D01*
X153020277Y-110904123D01*
X153020277Y-110904124D01*
X153699754Y-111583600D01*
X153693539Y-111583600D01*
X153591806Y-111610859D01*
X153500594Y-111663520D01*
X153426120Y-111737994D01*
X153373459Y-111829206D01*
X153346200Y-111930939D01*
X153346200Y-111937153D01*
X152666724Y-111257677D01*
X152666723Y-111257677D01*
X152634343Y-111302244D01*
X152586965Y-111395230D01*
X152538990Y-111446026D01*
X152471169Y-111462821D01*
X152405034Y-111440283D01*
X152365995Y-111395230D01*
X152332599Y-111329687D01*
X152318487Y-111301990D01*
X152318485Y-111301987D01*
X152318484Y-111301985D01*
X152198171Y-111136386D01*
X152053413Y-110991628D01*
X151887813Y-110871315D01*
X151887812Y-110871314D01*
X151887810Y-110871313D01*
X151830105Y-110841911D01*
X151705423Y-110778381D01*
X151510734Y-110715122D01*
X151336195Y-110687478D01*
X151308552Y-110683100D01*
X151103848Y-110683100D01*
X151079529Y-110686951D01*
X150901665Y-110715122D01*
X150706976Y-110778381D01*
X150524586Y-110871315D01*
X150358986Y-110991628D01*
X150214228Y-111136386D01*
X150093915Y-111301986D01*
X150046685Y-111394680D01*
X149998710Y-111445476D01*
X149930889Y-111462271D01*
X149864754Y-111439734D01*
X149825715Y-111394680D01*
X149792599Y-111329687D01*
X149778487Y-111301990D01*
X149746292Y-111257677D01*
X149658171Y-111136386D01*
X149513413Y-110991628D01*
X149347813Y-110871315D01*
X149347812Y-110871314D01*
X149347810Y-110871313D01*
X149290105Y-110841911D01*
X149165423Y-110778381D01*
X148970734Y-110715122D01*
X148796195Y-110687478D01*
X148768552Y-110683100D01*
X148563848Y-110683100D01*
X148539529Y-110686951D01*
X148361665Y-110715122D01*
X148166976Y-110778381D01*
X147984586Y-110871315D01*
X147818986Y-110991628D01*
X147674228Y-111136386D01*
X147553915Y-111301986D01*
X147506685Y-111394680D01*
X147458710Y-111445476D01*
X147390889Y-111462271D01*
X147324754Y-111439734D01*
X147285715Y-111394680D01*
X147252599Y-111329687D01*
X147238487Y-111301990D01*
X147206292Y-111257677D01*
X147118171Y-111136386D01*
X146973413Y-110991628D01*
X146807813Y-110871315D01*
X146807812Y-110871314D01*
X146807810Y-110871313D01*
X146750105Y-110841911D01*
X146625423Y-110778381D01*
X146430734Y-110715122D01*
X146256195Y-110687478D01*
X146228552Y-110683100D01*
X146023848Y-110683100D01*
X145999529Y-110686951D01*
X145821665Y-110715122D01*
X145626976Y-110778381D01*
X145444586Y-110871315D01*
X145278986Y-110991628D01*
X145134232Y-111136382D01*
X145134228Y-111136387D01*
X145101100Y-111181985D01*
X145045771Y-111224651D01*
X145000782Y-111233100D01*
X132950229Y-111233100D01*
X132883190Y-111213415D01*
X132862548Y-111196781D01*
X126238490Y-104572722D01*
X126205005Y-104511399D01*
X126209989Y-104441707D01*
X126251861Y-104385774D01*
X126269876Y-104374556D01*
X126282564Y-104368091D01*
X126409999Y-104303160D01*
X126562873Y-104192090D01*
X126696490Y-104058473D01*
X126807560Y-103905599D01*
X126868598Y-103785805D01*
X126916573Y-103735009D01*
X126979083Y-103718100D01*
X130044169Y-103718100D01*
X130111208Y-103737785D01*
X130131850Y-103754418D01*
X130237744Y-103860312D01*
X130387066Y-103952414D01*
X130498090Y-103989204D01*
X130553602Y-104007599D01*
X130571282Y-104009405D01*
X130635974Y-104035800D01*
X130646361Y-104045081D01*
X136586060Y-109984781D01*
X136586061Y-109984782D01*
X136694779Y-110093500D01*
X136725419Y-110124140D01*
X136811248Y-110181489D01*
X136889286Y-110233632D01*
X136962457Y-110263940D01*
X137071364Y-110309051D01*
X137264654Y-110347499D01*
X137264657Y-110347500D01*
X137264659Y-110347500D01*
X137461740Y-110347500D01*
X156279300Y-110347500D01*
X156346339Y-110367185D01*
X156392094Y-110419989D01*
X156403300Y-110471500D01*
X156403300Y-115480217D01*
X156383615Y-115547256D01*
X156366981Y-115567898D01*
X153657997Y-118276881D01*
X153596674Y-118310366D01*
X153589715Y-118311673D01*
X153441668Y-118335122D01*
X153246978Y-118398381D01*
X153064591Y-118491312D01*
X153064589Y-118491313D01*
X153019482Y-118524085D01*
X152953675Y-118547564D01*
X152885621Y-118531738D01*
X152858917Y-118511447D01*
X148913025Y-114565555D01*
X148913023Y-114565552D01*
X148794152Y-114446681D01*
X148794151Y-114446680D01*
X148707339Y-114396560D01*
X148707339Y-114396559D01*
X148707335Y-114396558D01*
X148657220Y-114367623D01*
X148504492Y-114326699D01*
X148346378Y-114326699D01*
X148338782Y-114326699D01*
X148338766Y-114326700D01*
X129720704Y-114326700D01*
X129720688Y-114326699D01*
X129713092Y-114326699D01*
X129554978Y-114326699D01*
X129447622Y-114355465D01*
X129402245Y-114367624D01*
X129402244Y-114367625D01*
X129352131Y-114396559D01*
X129352130Y-114396560D01*
X129308724Y-114421620D01*
X129265320Y-114446679D01*
X129265317Y-114446681D01*
X129153513Y-114558486D01*
X128304437Y-115407561D01*
X128243114Y-115441046D01*
X128173422Y-115436062D01*
X128117489Y-115394190D01*
X128106272Y-115376176D01*
X128090686Y-115345588D01*
X127970371Y-115179986D01*
X127825613Y-115035228D01*
X127660013Y-114914915D01*
X127660012Y-114914914D01*
X127660010Y-114914913D01*
X127601407Y-114885053D01*
X127477623Y-114821981D01*
X127282934Y-114758722D01*
X127108395Y-114731078D01*
X127080752Y-114726700D01*
X126876048Y-114726700D01*
X126851729Y-114730551D01*
X126673865Y-114758722D01*
X126479176Y-114821981D01*
X126296786Y-114914915D01*
X126194263Y-114989401D01*
X126176970Y-115001967D01*
X126175523Y-115003018D01*
X126109717Y-115026498D01*
X126102638Y-115026700D01*
X120468531Y-115026700D01*
X120401492Y-115007015D01*
X120355737Y-114954211D01*
X120345793Y-114885053D01*
X120374818Y-114821497D01*
X120380850Y-114815019D01*
X121365593Y-113830276D01*
X124335778Y-110860090D01*
X124335782Y-110860088D01*
X124475139Y-110720731D01*
X124584632Y-110556863D01*
X124608723Y-110498703D01*
X124652267Y-110393578D01*
X124660049Y-110374789D01*
X124660051Y-110374785D01*
X124698500Y-110181489D01*
X124698500Y-109984409D01*
X124698500Y-109798632D01*
X124718185Y-109731593D01*
X124722177Y-109725753D01*
X124724760Y-109722199D01*
X124810547Y-109553832D01*
X124868940Y-109374118D01*
X124882053Y-109291326D01*
X124898500Y-109187486D01*
X124898500Y-108998513D01*
X124868940Y-108811881D01*
X124829382Y-108690137D01*
X124810547Y-108632168D01*
X124810545Y-108632165D01*
X124810545Y-108632163D01*
X124757312Y-108527689D01*
X124724760Y-108463801D01*
X124613690Y-108310927D01*
X124480073Y-108177310D01*
X124327199Y-108066240D01*
X124158836Y-107980454D01*
X123979118Y-107922059D01*
X123792486Y-107892500D01*
X123792481Y-107892500D01*
X123603519Y-107892500D01*
X123603514Y-107892500D01*
X123416881Y-107922059D01*
X123237163Y-107980454D01*
X123068800Y-108066240D01*
X123000182Y-108116095D01*
X122915927Y-108177310D01*
X122915925Y-108177312D01*
X122915924Y-108177312D01*
X122835681Y-108257556D01*
X122774358Y-108291041D01*
X122704666Y-108286057D01*
X122660319Y-108257556D01*
X122580075Y-108177312D01*
X122580073Y-108177310D01*
X122427199Y-108066240D01*
X122258836Y-107980454D01*
X122079118Y-107922059D01*
X121892486Y-107892500D01*
X121892481Y-107892500D01*
X121703519Y-107892500D01*
X121703514Y-107892500D01*
X121516881Y-107922059D01*
X121337163Y-107980454D01*
X121168799Y-108066240D01*
X121165254Y-108068817D01*
X121099448Y-108092298D01*
X121092367Y-108092500D01*
X116665254Y-108092500D01*
X116633191Y-108098876D01*
X116633192Y-108098877D01*
X116471970Y-108130946D01*
X116471964Y-108130948D01*
X116380925Y-108168658D01*
X116289884Y-108206368D01*
X116289883Y-108206368D01*
X116166845Y-108288579D01*
X116166846Y-108288580D01*
X116126018Y-108315859D01*
X116126015Y-108315862D01*
X114348379Y-110093500D01*
X113829220Y-110612659D01*
X113829218Y-110612661D01*
X113782046Y-110659833D01*
X113689859Y-110752019D01*
X113580371Y-110915880D01*
X113580364Y-110915893D01*
X113543133Y-111005780D01*
X113510963Y-111083446D01*
X113510962Y-111083450D01*
X113504948Y-111097967D01*
X113504947Y-111097971D01*
X113466500Y-111291254D01*
X113466500Y-113214769D01*
X113457855Y-113244209D01*
X113451332Y-113274196D01*
X113447577Y-113279211D01*
X113446815Y-113281808D01*
X113430181Y-113302450D01*
X113342450Y-113390181D01*
X113281127Y-113423666D01*
X113254769Y-113426500D01*
X112987782Y-113426500D01*
X112920743Y-113406815D01*
X112900101Y-113390181D01*
X109499819Y-109989899D01*
X109466334Y-109928576D01*
X109463500Y-109902218D01*
X109463500Y-109404120D01*
X109483185Y-109337081D01*
X109535989Y-109291326D01*
X109605147Y-109281382D01*
X109660386Y-109303802D01*
X109734062Y-109357331D01*
X109902362Y-109443085D01*
X110081997Y-109501451D01*
X110268553Y-109531000D01*
X110457447Y-109531000D01*
X110644002Y-109501451D01*
X110823637Y-109443085D01*
X110991937Y-109357331D01*
X111017328Y-109338883D01*
X111017328Y-109338882D01*
X110359446Y-108681000D01*
X110409078Y-108681000D01*
X110498095Y-108657148D01*
X110577905Y-108611070D01*
X110643070Y-108545905D01*
X110689148Y-108466095D01*
X110713000Y-108377078D01*
X110713000Y-108330999D01*
X110716554Y-108330999D01*
X110716554Y-108331000D01*
X111370882Y-108985328D01*
X111370883Y-108985328D01*
X111389331Y-108959937D01*
X111475085Y-108791637D01*
X111533451Y-108612002D01*
X111563000Y-108425447D01*
X111563000Y-108236552D01*
X111533451Y-108049997D01*
X111475085Y-107870362D01*
X111389329Y-107702059D01*
X111370883Y-107676670D01*
X111370882Y-107676669D01*
X110716554Y-108330999D01*
X110713000Y-108330999D01*
X110713000Y-108284922D01*
X110689148Y-108195905D01*
X110643070Y-108116095D01*
X110577905Y-108050930D01*
X110498095Y-108004852D01*
X110409078Y-107981000D01*
X110316922Y-107981000D01*
X110227905Y-108004852D01*
X110148095Y-108050930D01*
X110082930Y-108116095D01*
X110036852Y-108195905D01*
X110013000Y-108284922D01*
X110013000Y-108334554D01*
X109609560Y-107931114D01*
X109579310Y-107881750D01*
X109575546Y-107870166D01*
X109489759Y-107701800D01*
X109471500Y-107676669D01*
X109378690Y-107548927D01*
X109245073Y-107415310D01*
X109118179Y-107323116D01*
X109708669Y-107323116D01*
X110363000Y-107977446D01*
X110363001Y-107977446D01*
X111017328Y-107323116D01*
X110991933Y-107304666D01*
X110823637Y-107218914D01*
X110644002Y-107160548D01*
X110457447Y-107131000D01*
X110268553Y-107131000D01*
X110081997Y-107160548D01*
X109902362Y-107218914D01*
X109734060Y-107304669D01*
X109708670Y-107323116D01*
X109708669Y-107323116D01*
X109118179Y-107323116D01*
X109092199Y-107304240D01*
X108923836Y-107218454D01*
X108744118Y-107160059D01*
X108557486Y-107130500D01*
X108557481Y-107130500D01*
X108368519Y-107130500D01*
X108368514Y-107130500D01*
X108181881Y-107160059D01*
X108002163Y-107218454D01*
X107833800Y-107304240D01*
X107746579Y-107367610D01*
X107680927Y-107415310D01*
X107680925Y-107415312D01*
X107680924Y-107415312D01*
X107547312Y-107548924D01*
X107547312Y-107548925D01*
X107547310Y-107548927D01*
X107499610Y-107614579D01*
X107436240Y-107701800D01*
X107350454Y-107870163D01*
X107292059Y-108049881D01*
X107262500Y-108236513D01*
X107262500Y-108425486D01*
X107292059Y-108612118D01*
X107350454Y-108791836D01*
X107436239Y-108960198D01*
X107436240Y-108960199D01*
X107438814Y-108963742D01*
X107462297Y-109029546D01*
X107462500Y-109036632D01*
X107462500Y-110466544D01*
X107500947Y-110659833D01*
X107500949Y-110659836D01*
X107523038Y-110713165D01*
X107526171Y-110720729D01*
X107576366Y-110841911D01*
X107576371Y-110841920D01*
X107685859Y-111005780D01*
X107685863Y-111005785D01*
X107829537Y-111149459D01*
X107829559Y-111149479D01*
X111495099Y-114815019D01*
X111528584Y-114876342D01*
X111523600Y-114946034D01*
X111481728Y-115001967D01*
X111416264Y-115026384D01*
X111407418Y-115026700D01*
X107043400Y-115026700D01*
X106976361Y-115007015D01*
X106930606Y-114954211D01*
X106919782Y-114892972D01*
X106921105Y-114876158D01*
X106181408Y-114136462D01*
X106244993Y-114119425D01*
X106359007Y-114053599D01*
X106452099Y-113960507D01*
X106517925Y-113846493D01*
X106534962Y-113782908D01*
X107274658Y-114522605D01*
X107274658Y-114522604D01*
X107334914Y-114439669D01*
X107334918Y-114439663D01*
X107442102Y-114229302D01*
X107515065Y-114004747D01*
X107552000Y-113771552D01*
X107552000Y-113535447D01*
X107515065Y-113302252D01*
X107442102Y-113077697D01*
X107334914Y-112867328D01*
X107274658Y-112784394D01*
X107274658Y-112784393D01*
X106534962Y-113524090D01*
X106517925Y-113460507D01*
X106452099Y-113346493D01*
X106359007Y-113253401D01*
X106244993Y-113187575D01*
X106181409Y-113170537D01*
X106921105Y-112430840D01*
X106921104Y-112430838D01*
X106838174Y-112370587D01*
X106627802Y-112263397D01*
X106403247Y-112190434D01*
X106403248Y-112190434D01*
X106170052Y-112153500D01*
X105933948Y-112153500D01*
X105700752Y-112190434D01*
X105476197Y-112263397D01*
X105265830Y-112370584D01*
X105182894Y-112430840D01*
X105922591Y-113170537D01*
X105859007Y-113187575D01*
X105744993Y-113253401D01*
X105651901Y-113346493D01*
X105586075Y-113460507D01*
X105569037Y-113524091D01*
X104829340Y-112784394D01*
X104769084Y-112867330D01*
X104661897Y-113077697D01*
X104588934Y-113302252D01*
X104552000Y-113535447D01*
X104552000Y-113771552D01*
X104588934Y-114004747D01*
X104661897Y-114229302D01*
X104769087Y-114439674D01*
X104829338Y-114522604D01*
X104829340Y-114522605D01*
X105569037Y-113782908D01*
X105586075Y-113846493D01*
X105651901Y-113960507D01*
X105744993Y-114053599D01*
X105859007Y-114119425D01*
X105922590Y-114136462D01*
X105182893Y-114876158D01*
X105184217Y-114892972D01*
X105169853Y-114961349D01*
X105120801Y-115011105D01*
X105060599Y-115026700D01*
X93891483Y-115026700D01*
X93824444Y-115007015D01*
X93803802Y-114990381D01*
X92731378Y-113917957D01*
X92697893Y-113856634D01*
X92702877Y-113786942D01*
X92731378Y-113742595D01*
X96571755Y-109902218D01*
X100648828Y-105825146D01*
X100764524Y-105665905D01*
X100853884Y-105490526D01*
X100914709Y-105303326D01*
X100933821Y-105182656D01*
X100940134Y-105142796D01*
X100945500Y-105108921D01*
X100945500Y-103661957D01*
X100965185Y-103594918D01*
X101004407Y-103556416D01*
X101013656Y-103550712D01*
X101137712Y-103426656D01*
X101229814Y-103277335D01*
X101284999Y-103110798D01*
X101295500Y-103008010D01*
X101295500Y-101982071D01*
X108255000Y-101982071D01*
X108255000Y-102233928D01*
X108294397Y-102482669D01*
X108372219Y-102722184D01*
X108486557Y-102946583D01*
X108560748Y-103048697D01*
X108560748Y-103048698D01*
X109331212Y-102278234D01*
X109342482Y-102320292D01*
X109414890Y-102445708D01*
X109517292Y-102548110D01*
X109642708Y-102620518D01*
X109684765Y-102631787D01*
X108914300Y-103402250D01*
X109016416Y-103476442D01*
X109240815Y-103590780D01*
X109480330Y-103668602D01*
X109729072Y-103708000D01*
X109980928Y-103708000D01*
X110229669Y-103668602D01*
X110469184Y-103590780D01*
X110693575Y-103476446D01*
X110693581Y-103476442D01*
X110795697Y-103402250D01*
X110795698Y-103402250D01*
X110025234Y-102631787D01*
X110067292Y-102620518D01*
X110192708Y-102548110D01*
X110295110Y-102445708D01*
X110367518Y-102320292D01*
X110378787Y-102278235D01*
X111149250Y-103048698D01*
X111149250Y-103048697D01*
X111223442Y-102946581D01*
X111223446Y-102946575D01*
X111337780Y-102722184D01*
X111415602Y-102482669D01*
X111455000Y-102233928D01*
X111455000Y-101982071D01*
X111415602Y-101733330D01*
X111337780Y-101493815D01*
X111223442Y-101269416D01*
X111149250Y-101167301D01*
X111149250Y-101167300D01*
X110378787Y-101937764D01*
X110367518Y-101895708D01*
X110295110Y-101770292D01*
X110192708Y-101667890D01*
X110067292Y-101595482D01*
X110025232Y-101584212D01*
X110795698Y-100813748D01*
X110693583Y-100739557D01*
X110469184Y-100625219D01*
X110229669Y-100547397D01*
X109980928Y-100508000D01*
X109729072Y-100508000D01*
X109480330Y-100547397D01*
X109240815Y-100625219D01*
X109016413Y-100739559D01*
X108914301Y-100813747D01*
X108914300Y-100813748D01*
X109684765Y-101584212D01*
X109642708Y-101595482D01*
X109517292Y-101667890D01*
X109414890Y-101770292D01*
X109342482Y-101895708D01*
X109331212Y-101937765D01*
X108560748Y-101167300D01*
X108560747Y-101167301D01*
X108486559Y-101269413D01*
X108372219Y-101493815D01*
X108294397Y-101733330D01*
X108255000Y-101982071D01*
X101295500Y-101982071D01*
X101295500Y-101207990D01*
X101284999Y-101105202D01*
X101229814Y-100938665D01*
X101137712Y-100789344D01*
X101013656Y-100665288D01*
X100864335Y-100573186D01*
X100697798Y-100518001D01*
X100697796Y-100518000D01*
X100595017Y-100507500D01*
X100595010Y-100507500D01*
X98794990Y-100507500D01*
X98794982Y-100507500D01*
X98692203Y-100518000D01*
X98692202Y-100518001D01*
X98609669Y-100545349D01*
X98525667Y-100573185D01*
X98525662Y-100573187D01*
X98376342Y-100665289D01*
X98252289Y-100789342D01*
X98160187Y-100938662D01*
X98160186Y-100938665D01*
X98105001Y-101105202D01*
X98105001Y-101105203D01*
X98105000Y-101105203D01*
X98094500Y-101207982D01*
X98094500Y-103008017D01*
X98105000Y-103110796D01*
X98157402Y-103268933D01*
X98160186Y-103277335D01*
X98252288Y-103426656D01*
X98376344Y-103550712D01*
X98385591Y-103556416D01*
X98432318Y-103608360D01*
X98444500Y-103661957D01*
X98444500Y-104441163D01*
X98424815Y-104508202D01*
X98408181Y-104528844D01*
X90820343Y-112116681D01*
X90759020Y-112150166D01*
X90732662Y-112153000D01*
X90251998Y-112153000D01*
X90251980Y-112153001D01*
X90149203Y-112163500D01*
X90149200Y-112163501D01*
X89982668Y-112218685D01*
X89982663Y-112218687D01*
X89833342Y-112310789D01*
X89709289Y-112434842D01*
X89617187Y-112584163D01*
X89617186Y-112584166D01*
X89562001Y-112750703D01*
X89562001Y-112750704D01*
X89562000Y-112750704D01*
X89551500Y-112853483D01*
X89551500Y-113371103D01*
X89531815Y-113438142D01*
X89479011Y-113483897D01*
X89409853Y-113493841D01*
X89346297Y-113464816D01*
X89339819Y-113458784D01*
X85171190Y-109290155D01*
X85171188Y-109290152D01*
X85052317Y-109171281D01*
X85052309Y-109171275D01*
X84951499Y-109113073D01*
X84951497Y-109113072D01*
X84915390Y-109092225D01*
X84915389Y-109092224D01*
X84902863Y-109088867D01*
X84762657Y-109051299D01*
X84604543Y-109051299D01*
X84596947Y-109051299D01*
X84596931Y-109051300D01*
X82966870Y-109051300D01*
X82966854Y-109051299D01*
X82959258Y-109051299D01*
X82801143Y-109051299D01*
X82724779Y-109071761D01*
X82648414Y-109092223D01*
X82648409Y-109092226D01*
X82511490Y-109171275D01*
X82511482Y-109171281D01*
X82217481Y-109465282D01*
X82217477Y-109465287D01*
X82199662Y-109496146D01*
X82199661Y-109496148D01*
X82138423Y-109602215D01*
X82097499Y-109754943D01*
X82097499Y-109754945D01*
X82097499Y-109923046D01*
X82097500Y-109923059D01*
X82097500Y-111538207D01*
X82077815Y-111605246D01*
X82046386Y-111638525D01*
X81915925Y-111733311D01*
X81782312Y-111866924D01*
X81782312Y-111866925D01*
X81782310Y-111866927D01*
X81735802Y-111930939D01*
X81671240Y-112019800D01*
X81585454Y-112188163D01*
X81527059Y-112367881D01*
X81497500Y-112554513D01*
X81497500Y-112743486D01*
X81527059Y-112930118D01*
X81585454Y-113109836D01*
X81646898Y-113230425D01*
X81671240Y-113278199D01*
X81782310Y-113431073D01*
X81915927Y-113564690D01*
X82068801Y-113675760D01*
X82148347Y-113716290D01*
X82237163Y-113761545D01*
X82237165Y-113761545D01*
X82237168Y-113761547D01*
X82315325Y-113786942D01*
X82416881Y-113819940D01*
X82603514Y-113849500D01*
X82603519Y-113849500D01*
X82792486Y-113849500D01*
X82979118Y-113819940D01*
X83158832Y-113761547D01*
X83167201Y-113757282D01*
X83235867Y-113744383D01*
X83300609Y-113770656D01*
X83340870Y-113827760D01*
X83347500Y-113867765D01*
X83347500Y-114291269D01*
X83327815Y-114358308D01*
X83311181Y-114378950D01*
X79538916Y-118151214D01*
X79507533Y-118174016D01*
X79473192Y-118191514D01*
X79307592Y-118311828D01*
X79162838Y-118456582D01*
X79121893Y-118512939D01*
X79066563Y-118555604D01*
X78996950Y-118561583D01*
X78935155Y-118528977D01*
X78903869Y-118479056D01*
X78889165Y-118434682D01*
X78889162Y-118434675D01*
X78797121Y-118285454D01*
X78673151Y-118161484D01*
X78523930Y-118069443D01*
X78523925Y-118069441D01*
X78357503Y-118014294D01*
X78357496Y-118014293D01*
X78254792Y-118003800D01*
X77904806Y-118003800D01*
X77904806Y-118988114D01*
X77900412Y-118983720D01*
X77809200Y-118931059D01*
X77707467Y-118903800D01*
X77602145Y-118903800D01*
X77500412Y-118931059D01*
X77409200Y-118983720D01*
X77404806Y-118988114D01*
X77404806Y-118003800D01*
X77054834Y-118003800D01*
X77054818Y-118003801D01*
X76952108Y-118014294D01*
X76785686Y-118069441D01*
X76785681Y-118069443D01*
X76636460Y-118161484D01*
X76512490Y-118285454D01*
X76420449Y-118434675D01*
X76420447Y-118434680D01*
X76365300Y-118601102D01*
X76365299Y-118601109D01*
X76354806Y-118703813D01*
X76354806Y-119053800D01*
X77339120Y-119053800D01*
X77334726Y-119058194D01*
X77282065Y-119149406D01*
X77254806Y-119251139D01*
X77254806Y-119356461D01*
X77282065Y-119458194D01*
X77334726Y-119549406D01*
X77339120Y-119553800D01*
X76354807Y-119553800D01*
X76354807Y-119903786D01*
X76365300Y-120006497D01*
X76420447Y-120172919D01*
X76420449Y-120172924D01*
X76512490Y-120322145D01*
X76636460Y-120446115D01*
X76785681Y-120538156D01*
X76785686Y-120538158D01*
X76952108Y-120593305D01*
X76952115Y-120593306D01*
X77054825Y-120603799D01*
X77404805Y-120603799D01*
X77404806Y-120603798D01*
X77404806Y-119619486D01*
X77409200Y-119623880D01*
X77500412Y-119676541D01*
X77602145Y-119703800D01*
X77707467Y-119703800D01*
X77809200Y-119676541D01*
X77900412Y-119623880D01*
X77904806Y-119619486D01*
X77904806Y-120603799D01*
X78254778Y-120603799D01*
X78254792Y-120603798D01*
X78357503Y-120593305D01*
X78523925Y-120538158D01*
X78523930Y-120538156D01*
X78673151Y-120446115D01*
X78797121Y-120322145D01*
X78889162Y-120172924D01*
X78889165Y-120172917D01*
X78903869Y-120128543D01*
X78943641Y-120071098D01*
X79008156Y-120044274D01*
X79076932Y-120056588D01*
X79121894Y-120094661D01*
X79162840Y-120151019D01*
X79307592Y-120295771D01*
X79438706Y-120391029D01*
X79473196Y-120416087D01*
X79584764Y-120472934D01*
X79655582Y-120509018D01*
X79655584Y-120509018D01*
X79655587Y-120509020D01*
X79745265Y-120538158D01*
X79850271Y-120572277D01*
X79951363Y-120588288D01*
X80052454Y-120604300D01*
X80052455Y-120604300D01*
X80257157Y-120604300D01*
X80257158Y-120604300D01*
X80459340Y-120572277D01*
X80654025Y-120509020D01*
X80836416Y-120416087D01*
X80949973Y-120333584D01*
X81002019Y-120295771D01*
X81002021Y-120295768D01*
X81002025Y-120295766D01*
X81146772Y-120151019D01*
X81267093Y-119985410D01*
X81284586Y-119951075D01*
X81307388Y-119919690D01*
X85551828Y-115675252D01*
X85667524Y-115516011D01*
X85756884Y-115340632D01*
X85817709Y-115153433D01*
X85836431Y-115035228D01*
X85848500Y-114959028D01*
X85848500Y-112550577D01*
X85817709Y-112356173D01*
X85776454Y-112229206D01*
X85756884Y-112168975D01*
X85756882Y-112168972D01*
X85756882Y-112168970D01*
X85689263Y-112036261D01*
X85667524Y-111993595D01*
X85551828Y-111834354D01*
X85412646Y-111695172D01*
X85253405Y-111579476D01*
X85237343Y-111571292D01*
X85078029Y-111490117D01*
X84890826Y-111429290D01*
X84696422Y-111398500D01*
X84696417Y-111398500D01*
X84499583Y-111398500D01*
X84499578Y-111398500D01*
X84305173Y-111429290D01*
X84117970Y-111490117D01*
X83942594Y-111579476D01*
X83783355Y-111695171D01*
X83700325Y-111778201D01*
X83698474Y-111779211D01*
X83697405Y-111781026D01*
X83667948Y-111795878D01*
X83639001Y-111811685D01*
X83636900Y-111811534D01*
X83635018Y-111812484D01*
X83602218Y-111809054D01*
X83569310Y-111806701D01*
X83566961Y-111805367D01*
X83565527Y-111805218D01*
X83558789Y-111800730D01*
X83535121Y-111787298D01*
X83529793Y-111783030D01*
X83480073Y-111733310D01*
X83347266Y-111636819D01*
X83344977Y-111634986D01*
X83326577Y-111608650D01*
X83306948Y-111583194D01*
X83306270Y-111579583D01*
X83304961Y-111577710D01*
X83304712Y-111571292D01*
X83298500Y-111538207D01*
X83298500Y-110376300D01*
X83318185Y-110309261D01*
X83370989Y-110263506D01*
X83422500Y-110252300D01*
X84383503Y-110252300D01*
X84450542Y-110271985D01*
X84471184Y-110288619D01*
X91674139Y-117491574D01*
X91674149Y-117491585D01*
X91678479Y-117495915D01*
X91678480Y-117495916D01*
X91790284Y-117607720D01*
X91877095Y-117657839D01*
X91877097Y-117657841D01*
X91915151Y-117679811D01*
X91927215Y-117686777D01*
X92079943Y-117727700D01*
X127347366Y-117727700D01*
X127347382Y-117727701D01*
X127354978Y-117727701D01*
X127513089Y-117727701D01*
X127513092Y-117727701D01*
X127665820Y-117686777D01*
X127715939Y-117657839D01*
X127802751Y-117607720D01*
X127914555Y-117495916D01*
X127914555Y-117495914D01*
X127924763Y-117485707D01*
X127924764Y-117485704D01*
X129846451Y-115564019D01*
X129907774Y-115530534D01*
X129934132Y-115527700D01*
X135602599Y-115527700D01*
X135669638Y-115547385D01*
X135715393Y-115600189D01*
X135725337Y-115669347D01*
X135720530Y-115690017D01*
X135709924Y-115722657D01*
X135709923Y-115722664D01*
X135677900Y-115924848D01*
X135677900Y-116129551D01*
X135709922Y-116331730D01*
X135709922Y-116331731D01*
X135721831Y-116368382D01*
X135727900Y-116406700D01*
X135727900Y-119271664D01*
X135708215Y-119338703D01*
X135691581Y-119359345D01*
X132665145Y-122385781D01*
X132603822Y-122419266D01*
X132577464Y-122422100D01*
X69255436Y-122422100D01*
X69188397Y-122402415D01*
X69167755Y-122385781D01*
X59428421Y-112646447D01*
X71278000Y-112646447D01*
X71278000Y-112882552D01*
X71314934Y-113115747D01*
X71387897Y-113340302D01*
X71495087Y-113550674D01*
X71555338Y-113633604D01*
X71555340Y-113633605D01*
X72295037Y-112893908D01*
X72312075Y-112957493D01*
X72377901Y-113071507D01*
X72470993Y-113164599D01*
X72585007Y-113230425D01*
X72648590Y-113247462D01*
X71908893Y-113987158D01*
X71991828Y-114047414D01*
X72202197Y-114154602D01*
X72426752Y-114227565D01*
X72426751Y-114227565D01*
X72659948Y-114264500D01*
X72896052Y-114264500D01*
X73129247Y-114227565D01*
X73353802Y-114154602D01*
X73564163Y-114047418D01*
X73564169Y-114047414D01*
X73647104Y-113987158D01*
X73647105Y-113987158D01*
X72907408Y-113247462D01*
X72970993Y-113230425D01*
X73085007Y-113164599D01*
X73178099Y-113071507D01*
X73243925Y-112957493D01*
X73260962Y-112893908D01*
X74000658Y-113633605D01*
X74000658Y-113633604D01*
X74060914Y-113550669D01*
X74060918Y-113550663D01*
X74168102Y-113340302D01*
X74241065Y-113115747D01*
X74278000Y-112882552D01*
X74278000Y-112646447D01*
X74241065Y-112413252D01*
X74168102Y-112188697D01*
X74060914Y-111978328D01*
X74000658Y-111895394D01*
X74000658Y-111895393D01*
X73260962Y-112635090D01*
X73243925Y-112571507D01*
X73178099Y-112457493D01*
X73085007Y-112364401D01*
X72970993Y-112298575D01*
X72907409Y-112281537D01*
X73647105Y-111541840D01*
X73647104Y-111541838D01*
X73564174Y-111481587D01*
X73353802Y-111374397D01*
X73129247Y-111301434D01*
X73129248Y-111301434D01*
X72896052Y-111264500D01*
X72659948Y-111264500D01*
X72426752Y-111301434D01*
X72202197Y-111374397D01*
X71991830Y-111481584D01*
X71908894Y-111541840D01*
X72648591Y-112281537D01*
X72585007Y-112298575D01*
X72470993Y-112364401D01*
X72377901Y-112457493D01*
X72312075Y-112571507D01*
X72295037Y-112635091D01*
X71555340Y-111895394D01*
X71495084Y-111978330D01*
X71387897Y-112188697D01*
X71314934Y-112413252D01*
X71278000Y-112646447D01*
X59428421Y-112646447D01*
X59314818Y-112532844D01*
X59281333Y-112471521D01*
X59278499Y-112445163D01*
X59278499Y-111964498D01*
X59278498Y-111964481D01*
X59267999Y-111861703D01*
X59267998Y-111861700D01*
X59258935Y-111834351D01*
X59212814Y-111695166D01*
X59120712Y-111545844D01*
X58996656Y-111421788D01*
X58847334Y-111329686D01*
X58680797Y-111274501D01*
X58680795Y-111274500D01*
X58578010Y-111264000D01*
X56977998Y-111264000D01*
X56977981Y-111264001D01*
X56875203Y-111274500D01*
X56875200Y-111274501D01*
X56708668Y-111329685D01*
X56708663Y-111329687D01*
X56559342Y-111421789D01*
X56435289Y-111545842D01*
X56343187Y-111695163D01*
X56343186Y-111695166D01*
X56288001Y-111861703D01*
X56288001Y-111861704D01*
X56288000Y-111861704D01*
X56277500Y-111964483D01*
X50040231Y-111964483D01*
X50118460Y-104541402D01*
X56404500Y-104541402D01*
X56404500Y-104777597D01*
X56441446Y-105010868D01*
X56514433Y-105235496D01*
X56621657Y-105445933D01*
X56760483Y-105637010D01*
X56927490Y-105804017D01*
X57118567Y-105942843D01*
X57217991Y-105993502D01*
X57329003Y-106050066D01*
X57329005Y-106050066D01*
X57329008Y-106050068D01*
X57449412Y-106089189D01*
X57553631Y-106123053D01*
X57786903Y-106160000D01*
X57786908Y-106160000D01*
X58023097Y-106160000D01*
X58256368Y-106123053D01*
X58480992Y-106050068D01*
X58691433Y-105942843D01*
X58882510Y-105804017D01*
X59049517Y-105637010D01*
X59188343Y-105445933D01*
X59295568Y-105235492D01*
X59368553Y-105010868D01*
X59395816Y-104838740D01*
X59405500Y-104777597D01*
X59405500Y-104541402D01*
X59368553Y-104308131D01*
X59330848Y-104192087D01*
X59295568Y-104083508D01*
X59295566Y-104083505D01*
X59295566Y-104083503D01*
X59208516Y-103912659D01*
X59201731Y-103899342D01*
X59188343Y-103873067D01*
X59178495Y-103859513D01*
X71405000Y-103859513D01*
X71405000Y-104409500D01*
X72471988Y-104409500D01*
X72439075Y-104466507D01*
X72405000Y-104593674D01*
X72405000Y-104725326D01*
X72439075Y-104852493D01*
X72471988Y-104909500D01*
X71405001Y-104909500D01*
X71405001Y-105459486D01*
X71415494Y-105562197D01*
X71470641Y-105728619D01*
X71470643Y-105728624D01*
X71562684Y-105877845D01*
X71686654Y-106001815D01*
X71835875Y-106093856D01*
X71835880Y-106093858D01*
X72002302Y-106149005D01*
X72002309Y-106149006D01*
X72105019Y-106159499D01*
X72654999Y-106159499D01*
X72655000Y-106159498D01*
X72655000Y-105092512D01*
X72712007Y-105125425D01*
X72839174Y-105159500D01*
X72970826Y-105159500D01*
X73097993Y-105125425D01*
X73155000Y-105092512D01*
X73155000Y-106159499D01*
X73704972Y-106159499D01*
X73704986Y-106159498D01*
X73807697Y-106149005D01*
X73974119Y-106093858D01*
X73974124Y-106093856D01*
X74123345Y-106001815D01*
X74247315Y-105877845D01*
X74339356Y-105728624D01*
X74339358Y-105728619D01*
X74394505Y-105562197D01*
X74394506Y-105562190D01*
X74404999Y-105459486D01*
X74405000Y-105459473D01*
X74405000Y-104909500D01*
X73338012Y-104909500D01*
X73370925Y-104852493D01*
X73405000Y-104725326D01*
X73405000Y-104593674D01*
X73370925Y-104466507D01*
X73338012Y-104409500D01*
X74404999Y-104409500D01*
X74404999Y-103859528D01*
X74404998Y-103859513D01*
X74394505Y-103756802D01*
X74339358Y-103590380D01*
X74339356Y-103590375D01*
X74247315Y-103441154D01*
X74123345Y-103317184D01*
X73974124Y-103225143D01*
X73974119Y-103225141D01*
X73807697Y-103169994D01*
X73807690Y-103169993D01*
X73704986Y-103159500D01*
X73155000Y-103159500D01*
X73155000Y-104226488D01*
X73097993Y-104193575D01*
X72970826Y-104159500D01*
X72839174Y-104159500D01*
X72712007Y-104193575D01*
X72655000Y-104226488D01*
X72655000Y-103159500D01*
X72105028Y-103159500D01*
X72105012Y-103159501D01*
X72002302Y-103169994D01*
X71835880Y-103225141D01*
X71835875Y-103225143D01*
X71686654Y-103317184D01*
X71562684Y-103441154D01*
X71470643Y-103590375D01*
X71470641Y-103590380D01*
X71415494Y-103756802D01*
X71415493Y-103756809D01*
X71405000Y-103859513D01*
X59178495Y-103859513D01*
X59049517Y-103681990D01*
X58882510Y-103514983D01*
X58691433Y-103376157D01*
X58646607Y-103353317D01*
X58480996Y-103268933D01*
X58256368Y-103195946D01*
X58023097Y-103159000D01*
X58023092Y-103159000D01*
X57786908Y-103159000D01*
X57786903Y-103159000D01*
X57553631Y-103195946D01*
X57329003Y-103268933D01*
X57118566Y-103376157D01*
X57009550Y-103455362D01*
X56927490Y-103514983D01*
X56927488Y-103514985D01*
X56927487Y-103514985D01*
X56760485Y-103681987D01*
X56760485Y-103681988D01*
X56760483Y-103681990D01*
X56711048Y-103750031D01*
X56621657Y-103873066D01*
X56514433Y-104083503D01*
X56441446Y-104308131D01*
X56404500Y-104541402D01*
X50118460Y-104541402D01*
X50204308Y-96395441D01*
X53598500Y-96395441D01*
X53598500Y-96644558D01*
X53598501Y-96644575D01*
X53628203Y-96870187D01*
X53631018Y-96891565D01*
X53673691Y-97050824D01*
X53695498Y-97132207D01*
X53790830Y-97362361D01*
X53790837Y-97362376D01*
X53915400Y-97578126D01*
X54067060Y-97775774D01*
X54067066Y-97775781D01*
X54243218Y-97951933D01*
X54243225Y-97951939D01*
X54440873Y-98103599D01*
X54656623Y-98228162D01*
X54656638Y-98228169D01*
X54755825Y-98269253D01*
X54886793Y-98323502D01*
X55127435Y-98387982D01*
X55374435Y-98420500D01*
X55374442Y-98420500D01*
X55623558Y-98420500D01*
X55623565Y-98420500D01*
X55870565Y-98387982D01*
X56111207Y-98323502D01*
X56341373Y-98228164D01*
X56557127Y-98103599D01*
X56754776Y-97951938D01*
X56754781Y-97951933D01*
X56899896Y-97806819D01*
X56961219Y-97773334D01*
X56987577Y-97770500D01*
X66877064Y-97770500D01*
X66944103Y-97790185D01*
X66964745Y-97806819D01*
X69679754Y-100521828D01*
X69838995Y-100637524D01*
X69873857Y-100655287D01*
X70014369Y-100726882D01*
X70014371Y-100726882D01*
X70014374Y-100726884D01*
X70053384Y-100739559D01*
X70201573Y-100787709D01*
X70395979Y-100818500D01*
X70395984Y-100818500D01*
X70592822Y-100818500D01*
X70787226Y-100787709D01*
X70974426Y-100726884D01*
X71149805Y-100637524D01*
X71309046Y-100521828D01*
X71356719Y-100474155D01*
X71418042Y-100440670D01*
X71487734Y-100445654D01*
X71532081Y-100474155D01*
X71579754Y-100521828D01*
X71738995Y-100637524D01*
X71821855Y-100679743D01*
X71914370Y-100726882D01*
X71914372Y-100726882D01*
X71914375Y-100726884D01*
X72014717Y-100759487D01*
X72101573Y-100787709D01*
X72295978Y-100818500D01*
X72295983Y-100818500D01*
X75757664Y-100818500D01*
X75824703Y-100838185D01*
X75845345Y-100854819D01*
X77480064Y-102489538D01*
X77492700Y-102504333D01*
X77516371Y-102536912D01*
X77524544Y-102548161D01*
X77664839Y-102688456D01*
X77825354Y-102805077D01*
X77915484Y-102851000D01*
X78002131Y-102895149D01*
X78002133Y-102895149D01*
X78002136Y-102895151D01*
X78190832Y-102956463D01*
X78288814Y-102971981D01*
X78386791Y-102987500D01*
X78386796Y-102987500D01*
X78585209Y-102987500D01*
X78674278Y-102973392D01*
X78781168Y-102956463D01*
X78969864Y-102895151D01*
X79146646Y-102805077D01*
X79307161Y-102688456D01*
X79447456Y-102548161D01*
X79564077Y-102387646D01*
X79654151Y-102210864D01*
X79715463Y-102022168D01*
X79743006Y-101848266D01*
X79746500Y-101826209D01*
X79746500Y-101627790D01*
X89925500Y-101627790D01*
X89925500Y-101826209D01*
X89955590Y-102016187D01*
X89956537Y-102022168D01*
X90002574Y-102163853D01*
X90017850Y-102210868D01*
X90058470Y-102290589D01*
X90107923Y-102387646D01*
X90224544Y-102548161D01*
X90364839Y-102688456D01*
X90525354Y-102805077D01*
X90615484Y-102851000D01*
X90702131Y-102895149D01*
X90702133Y-102895149D01*
X90702136Y-102895151D01*
X90890832Y-102956463D01*
X90988814Y-102971981D01*
X91086791Y-102987500D01*
X91086796Y-102987500D01*
X91285209Y-102987500D01*
X91374278Y-102973392D01*
X91481168Y-102956463D01*
X91669864Y-102895151D01*
X91846646Y-102805077D01*
X92007161Y-102688456D01*
X92147456Y-102548161D01*
X92264077Y-102387646D01*
X92354151Y-102210864D01*
X92415463Y-102022168D01*
X92443006Y-101848266D01*
X92446500Y-101826209D01*
X92446500Y-101627790D01*
X92421743Y-101471483D01*
X92415463Y-101431832D01*
X92354151Y-101243136D01*
X92354149Y-101243133D01*
X92354149Y-101243131D01*
X92316576Y-101169391D01*
X92264077Y-101066354D01*
X92147456Y-100905839D01*
X92007161Y-100765544D01*
X91846646Y-100648923D01*
X91789922Y-100620021D01*
X91669868Y-100558850D01*
X91624596Y-100544140D01*
X91481168Y-100497537D01*
X91481162Y-100497536D01*
X91285209Y-100466500D01*
X91285204Y-100466500D01*
X91086796Y-100466500D01*
X91086791Y-100466500D01*
X90890837Y-100497536D01*
X90890835Y-100497536D01*
X90890832Y-100497537D01*
X90796484Y-100528193D01*
X90702131Y-100558850D01*
X90525352Y-100648924D01*
X90525349Y-100648926D01*
X90439255Y-100711477D01*
X90364839Y-100765544D01*
X90364837Y-100765546D01*
X90364836Y-100765546D01*
X90224546Y-100905836D01*
X90224546Y-100905837D01*
X90224544Y-100905839D01*
X90200697Y-100938662D01*
X90107926Y-101066349D01*
X90107924Y-101066352D01*
X90017850Y-101243131D01*
X89988761Y-101332657D01*
X89956537Y-101431832D01*
X89956536Y-101431835D01*
X89956536Y-101431837D01*
X89925500Y-101627790D01*
X79746500Y-101627790D01*
X79721743Y-101471483D01*
X79715463Y-101431832D01*
X79654151Y-101243136D01*
X79654149Y-101243133D01*
X79654149Y-101243131D01*
X79616576Y-101169391D01*
X79564077Y-101066354D01*
X79447456Y-100905839D01*
X79307161Y-100765544D01*
X79303366Y-100762787D01*
X79263333Y-100733700D01*
X79248538Y-100721064D01*
X77141648Y-98614174D01*
X77141646Y-98614172D01*
X76982405Y-98498476D01*
X76807030Y-98409117D01*
X76619826Y-98348290D01*
X76425422Y-98317500D01*
X76425417Y-98317500D01*
X72295983Y-98317500D01*
X72295978Y-98317500D01*
X72101573Y-98348290D01*
X71914370Y-98409117D01*
X71738994Y-98498476D01*
X71648141Y-98564485D01*
X71579754Y-98614172D01*
X71579752Y-98614174D01*
X71579751Y-98614174D01*
X71532081Y-98661845D01*
X71470758Y-98695330D01*
X71401066Y-98690346D01*
X71356719Y-98661845D01*
X68261048Y-95566174D01*
X68261046Y-95566172D01*
X68101805Y-95450476D01*
X67926430Y-95361117D01*
X67739226Y-95300290D01*
X67544822Y-95269500D01*
X67544817Y-95269500D01*
X67541619Y-95269500D01*
X67540446Y-95269155D01*
X67539967Y-95269118D01*
X67539974Y-95269017D01*
X67474580Y-95249815D01*
X67428825Y-95197011D01*
X67418881Y-95127853D01*
X67447906Y-95064297D01*
X67476520Y-95039962D01*
X67548262Y-94995712D01*
X67672318Y-94871656D01*
X67764420Y-94722334D01*
X67779032Y-94678237D01*
X67818801Y-94620796D01*
X67883317Y-94593972D01*
X67952093Y-94606286D01*
X67997054Y-94644358D01*
X68037638Y-94700217D01*
X68182392Y-94844971D01*
X68332863Y-94954292D01*
X68347996Y-94965287D01*
X68464213Y-95024503D01*
X68530382Y-95058218D01*
X68530384Y-95058218D01*
X68530387Y-95058220D01*
X68621468Y-95087814D01*
X68725071Y-95121477D01*
X68826163Y-95137488D01*
X68927254Y-95153500D01*
X68927255Y-95153500D01*
X69131957Y-95153500D01*
X69131958Y-95153500D01*
X69334140Y-95121477D01*
X69528825Y-95058220D01*
X69711216Y-94965287D01*
X69840088Y-94871657D01*
X69876819Y-94844971D01*
X69876821Y-94844968D01*
X69876825Y-94844966D01*
X70021572Y-94700219D01*
X70021574Y-94700215D01*
X70021577Y-94700213D01*
X70084241Y-94613962D01*
X70141893Y-94534610D01*
X70234826Y-94352219D01*
X70298083Y-94157534D01*
X70321801Y-94007790D01*
X77225500Y-94007790D01*
X77225500Y-94206209D01*
X77250181Y-94362038D01*
X77256537Y-94402168D01*
X77295689Y-94522664D01*
X77317850Y-94590868D01*
X77379021Y-94710922D01*
X77407923Y-94767646D01*
X77524544Y-94928161D01*
X77664839Y-95068456D01*
X77825354Y-95185077D01*
X77938800Y-95242880D01*
X78002131Y-95275149D01*
X78002133Y-95275149D01*
X78002136Y-95275151D01*
X78190832Y-95336463D01*
X78288814Y-95351981D01*
X78386791Y-95367500D01*
X78386796Y-95367500D01*
X78585209Y-95367500D01*
X78674278Y-95353392D01*
X78781168Y-95336463D01*
X78969864Y-95275151D01*
X79146646Y-95185077D01*
X79307161Y-95068456D01*
X79447456Y-94928161D01*
X79564077Y-94767646D01*
X79654151Y-94590864D01*
X79715463Y-94402168D01*
X79732392Y-94295278D01*
X79746500Y-94206209D01*
X79746500Y-94007790D01*
X79725248Y-93873616D01*
X79715463Y-93811832D01*
X79654151Y-93623136D01*
X79654149Y-93623133D01*
X79654149Y-93623131D01*
X79597431Y-93511816D01*
X79564077Y-93446354D01*
X79447456Y-93285839D01*
X79307161Y-93145544D01*
X79146646Y-93028923D01*
X79069179Y-92989452D01*
X78969868Y-92938850D01*
X78920305Y-92922746D01*
X78781168Y-92877537D01*
X78763199Y-92874691D01*
X78585209Y-92846500D01*
X78585204Y-92846500D01*
X78386796Y-92846500D01*
X78386791Y-92846500D01*
X78190837Y-92877536D01*
X78190835Y-92877536D01*
X78190832Y-92877537D01*
X78111832Y-92903206D01*
X78002131Y-92938850D01*
X77825352Y-93028924D01*
X77825349Y-93028926D01*
X77792531Y-93052770D01*
X77664839Y-93145544D01*
X77664837Y-93145546D01*
X77664836Y-93145546D01*
X77524546Y-93285836D01*
X77524546Y-93285837D01*
X77524544Y-93285839D01*
X77500697Y-93318662D01*
X77407926Y-93446349D01*
X77407924Y-93446352D01*
X77317850Y-93623131D01*
X77287193Y-93717484D01*
X77256537Y-93811832D01*
X77256536Y-93811835D01*
X77256536Y-93811837D01*
X77225500Y-94007790D01*
X70321801Y-94007790D01*
X70330106Y-93955352D01*
X70330106Y-93750648D01*
X70298083Y-93548466D01*
X70286175Y-93511816D01*
X70280106Y-93473498D01*
X70280106Y-92941730D01*
X70299791Y-92874691D01*
X70316425Y-92854049D01*
X77875319Y-85295155D01*
X77936642Y-85261670D01*
X78006334Y-85266654D01*
X78050681Y-85295155D01*
X87677172Y-94921646D01*
X87816354Y-95060828D01*
X87975595Y-95176524D01*
X88150975Y-95265884D01*
X88264116Y-95302646D01*
X88338173Y-95326709D01*
X88393718Y-95335506D01*
X88532578Y-95357500D01*
X88532583Y-95357500D01*
X88729416Y-95357500D01*
X90288868Y-95357500D01*
X90317380Y-95360822D01*
X90318510Y-95361088D01*
X90318517Y-95361091D01*
X90378127Y-95367500D01*
X91993872Y-95367499D01*
X92053483Y-95361091D01*
X92188331Y-95310796D01*
X92303546Y-95224546D01*
X92389796Y-95109331D01*
X92440091Y-94974483D01*
X92446500Y-94914873D01*
X92446499Y-93299128D01*
X92440091Y-93239517D01*
X92432977Y-93220444D01*
X92389797Y-93104671D01*
X92389793Y-93104664D01*
X92303547Y-92989455D01*
X92303544Y-92989452D01*
X92188335Y-92903206D01*
X92188328Y-92903202D01*
X92053482Y-92852908D01*
X92053483Y-92852908D01*
X91993883Y-92846501D01*
X91993881Y-92846500D01*
X91993873Y-92846500D01*
X91993864Y-92846500D01*
X90378129Y-92846500D01*
X90378123Y-92846501D01*
X90318516Y-92852908D01*
X90317382Y-92853177D01*
X90288867Y-92856500D01*
X89200336Y-92856500D01*
X89133297Y-92836815D01*
X89112655Y-92820181D01*
X79463783Y-83171309D01*
X79430298Y-83109986D01*
X79428995Y-83103052D01*
X79426553Y-83087632D01*
X79353568Y-82863008D01*
X79353566Y-82863005D01*
X79353566Y-82863003D01*
X79271351Y-82701648D01*
X79246343Y-82652567D01*
X79107517Y-82461490D01*
X78940510Y-82294483D01*
X78749433Y-82155657D01*
X78684143Y-82122390D01*
X78538996Y-82048433D01*
X78314368Y-81975446D01*
X78081097Y-81938500D01*
X78081092Y-81938500D01*
X77844908Y-81938500D01*
X77844903Y-81938500D01*
X77611631Y-81975446D01*
X77387003Y-82048433D01*
X77176566Y-82155657D01*
X77095288Y-82214710D01*
X76985490Y-82294483D01*
X76985488Y-82294485D01*
X76985487Y-82294485D01*
X76818485Y-82461487D01*
X76818485Y-82461488D01*
X76818483Y-82461490D01*
X76776823Y-82518830D01*
X76679657Y-82652566D01*
X76572433Y-82863005D01*
X76499447Y-83087631D01*
X76497008Y-83103030D01*
X76467076Y-83166163D01*
X76462216Y-83171308D01*
X68075780Y-91557745D01*
X68075778Y-91557748D01*
X68026091Y-91626135D01*
X67960082Y-91716988D01*
X67870723Y-91892363D01*
X67848322Y-91961307D01*
X67839047Y-91989855D01*
X67835742Y-92000026D01*
X67809896Y-92079567D01*
X67779106Y-92273971D01*
X67779106Y-92641770D01*
X67759421Y-92708809D01*
X67706617Y-92754564D01*
X67637459Y-92764508D01*
X67573903Y-92735483D01*
X67567425Y-92729451D01*
X67548263Y-92710289D01*
X67548262Y-92710288D01*
X67398940Y-92618186D01*
X67232403Y-92563001D01*
X67232401Y-92563000D01*
X67129616Y-92552500D01*
X65929604Y-92552500D01*
X65929587Y-92552501D01*
X65826809Y-92563000D01*
X65826806Y-92563001D01*
X65660274Y-92618185D01*
X65660269Y-92618187D01*
X65510948Y-92710289D01*
X65386895Y-92834342D01*
X65294793Y-92983663D01*
X65294791Y-92983668D01*
X65287802Y-93004759D01*
X65239607Y-93150203D01*
X65239607Y-93150204D01*
X65239606Y-93150204D01*
X65229106Y-93252983D01*
X65229106Y-94453001D01*
X65229107Y-94453018D01*
X65239606Y-94555796D01*
X65239607Y-94555799D01*
X65294791Y-94722331D01*
X65294793Y-94722336D01*
X65322740Y-94767646D01*
X65386894Y-94871656D01*
X65510950Y-94995712D01*
X65582690Y-95039961D01*
X65629414Y-95091909D01*
X65640637Y-95160872D01*
X65612793Y-95224954D01*
X65554725Y-95263810D01*
X65517593Y-95269500D01*
X56987577Y-95269500D01*
X56920538Y-95249815D01*
X56899896Y-95233181D01*
X56754781Y-95088066D01*
X56754774Y-95088060D01*
X56557126Y-94936400D01*
X56341376Y-94811837D01*
X56341361Y-94811830D01*
X56111207Y-94716498D01*
X55870561Y-94652017D01*
X55623575Y-94619501D01*
X55623570Y-94619500D01*
X55623565Y-94619500D01*
X55374435Y-94619500D01*
X55374429Y-94619500D01*
X55374424Y-94619501D01*
X55127438Y-94652017D01*
X54886792Y-94716498D01*
X54656638Y-94811830D01*
X54656623Y-94811837D01*
X54440873Y-94936400D01*
X54243225Y-95088060D01*
X54243218Y-95088066D01*
X54067066Y-95264218D01*
X54067060Y-95264225D01*
X53915400Y-95461873D01*
X53790837Y-95677623D01*
X53790830Y-95677638D01*
X53695498Y-95907792D01*
X53631017Y-96148438D01*
X53598501Y-96395424D01*
X53598500Y-96395441D01*
X50204308Y-96395441D01*
X50268335Y-90319984D01*
X53598500Y-90319984D01*
X53598500Y-92720015D01*
X53609000Y-92822795D01*
X53609001Y-92822797D01*
X53631392Y-92890368D01*
X53664186Y-92989335D01*
X53664187Y-92989337D01*
X53756286Y-93138651D01*
X53756289Y-93138655D01*
X53880344Y-93262710D01*
X53880348Y-93262713D01*
X54029662Y-93354812D01*
X54029664Y-93354813D01*
X54029666Y-93354814D01*
X54196203Y-93409999D01*
X54298992Y-93420500D01*
X54298997Y-93420500D01*
X56699003Y-93420500D01*
X56699008Y-93420500D01*
X56801797Y-93409999D01*
X56968334Y-93354814D01*
X57117655Y-93262711D01*
X57241711Y-93138655D01*
X57333814Y-92989334D01*
X57378164Y-92855494D01*
X57417935Y-92798051D01*
X57482451Y-92771228D01*
X57495869Y-92770500D01*
X58580422Y-92770500D01*
X58774826Y-92739709D01*
X58789239Y-92735026D01*
X58962026Y-92678884D01*
X59137405Y-92589524D01*
X59296646Y-92473828D01*
X66830692Y-84939781D01*
X66892013Y-84906298D01*
X66898947Y-84904995D01*
X66914368Y-84902553D01*
X67138992Y-84829568D01*
X67349433Y-84722343D01*
X67540510Y-84583517D01*
X67707517Y-84416510D01*
X67846343Y-84225433D01*
X67953568Y-84014992D01*
X68026553Y-83790368D01*
X68063500Y-83557097D01*
X68063500Y-83320902D01*
X68026553Y-83087631D01*
X67953566Y-82863003D01*
X67871351Y-82701648D01*
X67846343Y-82652567D01*
X67707517Y-82461490D01*
X67540510Y-82294483D01*
X67349433Y-82155657D01*
X67284143Y-82122390D01*
X67138996Y-82048433D01*
X66914368Y-81975446D01*
X66681097Y-81938500D01*
X66681092Y-81938500D01*
X66444908Y-81938500D01*
X66444903Y-81938500D01*
X66211631Y-81975446D01*
X65987003Y-82048433D01*
X65776566Y-82155657D01*
X65695288Y-82214710D01*
X65585490Y-82294483D01*
X65585488Y-82294485D01*
X65585487Y-82294485D01*
X65418485Y-82461487D01*
X65418485Y-82461488D01*
X65418483Y-82461490D01*
X65376823Y-82518830D01*
X65279657Y-82652566D01*
X65172433Y-82863005D01*
X65099447Y-83087632D01*
X65097008Y-83103029D01*
X65067076Y-83166162D01*
X65062216Y-83171307D01*
X58000345Y-90233181D01*
X57939022Y-90266666D01*
X57912664Y-90269500D01*
X57495869Y-90269500D01*
X57428830Y-90249815D01*
X57383075Y-90197011D01*
X57378166Y-90184513D01*
X57333814Y-90050666D01*
X57325127Y-90036583D01*
X57241713Y-89901348D01*
X57241710Y-89901344D01*
X57117655Y-89777289D01*
X57117651Y-89777286D01*
X56968337Y-89685187D01*
X56968335Y-89685186D01*
X56885065Y-89657593D01*
X56801797Y-89630001D01*
X56801795Y-89630000D01*
X56699015Y-89619500D01*
X56699008Y-89619500D01*
X54298992Y-89619500D01*
X54298984Y-89619500D01*
X54196204Y-89630000D01*
X54196203Y-89630001D01*
X54029664Y-89685186D01*
X54029662Y-89685187D01*
X53880348Y-89777286D01*
X53880344Y-89777289D01*
X53756289Y-89901344D01*
X53756286Y-89901348D01*
X53664187Y-90050662D01*
X53664186Y-90050664D01*
X53609001Y-90217203D01*
X53609000Y-90217204D01*
X53598500Y-90319984D01*
X50268335Y-90319984D01*
X50439974Y-74033396D01*
X50439973Y-74033395D01*
X50439973Y-74033394D01*
X50413764Y-74004107D01*
X50383726Y-73941024D01*
X50392562Y-73871715D01*
X50437467Y-73818186D01*
X50504183Y-73797432D01*
X50505335Y-73797419D01*
X89233046Y-73569793D01*
X89300197Y-73589082D01*
X89346262Y-73641616D01*
X89356611Y-73710715D01*
X89327961Y-73774441D01*
X89321453Y-73781471D01*
X87419780Y-75683145D01*
X87419778Y-75683148D01*
X87370091Y-75751535D01*
X87304082Y-75842388D01*
X87214275Y-76018645D01*
X87213214Y-76022406D01*
X87153897Y-76204963D01*
X87153897Y-76204966D01*
X87123106Y-76399371D01*
X87123106Y-81961993D01*
X87116812Y-82000997D01*
X87083607Y-82101203D01*
X87083606Y-82101204D01*
X87073106Y-82203983D01*
X87073106Y-83404001D01*
X87073107Y-83404018D01*
X87083606Y-83506796D01*
X87083607Y-83506799D01*
X87118470Y-83612007D01*
X87138792Y-83673334D01*
X87230894Y-83822656D01*
X87354950Y-83946712D01*
X87504272Y-84038814D01*
X87670809Y-84093999D01*
X87773597Y-84104500D01*
X88973614Y-84104499D01*
X89076403Y-84093999D01*
X89242940Y-84038814D01*
X89392262Y-83946712D01*
X89411425Y-83927549D01*
X89472748Y-83894064D01*
X89542440Y-83899048D01*
X89598373Y-83940920D01*
X89622790Y-84006384D01*
X89623106Y-84015230D01*
X89623106Y-86146028D01*
X89653896Y-86340432D01*
X89714723Y-86527636D01*
X89768957Y-86634075D01*
X89804082Y-86703011D01*
X89919778Y-86862252D01*
X89919780Y-86862254D01*
X97931181Y-94873655D01*
X97964666Y-94934978D01*
X97967500Y-94961336D01*
X97967500Y-95642017D01*
X97978000Y-95744796D01*
X98033185Y-95911332D01*
X98033187Y-95911337D01*
X98045138Y-95930712D01*
X98125288Y-96060656D01*
X98249344Y-96184712D01*
X98398665Y-96276814D01*
X98565202Y-96331999D01*
X98667990Y-96342500D01*
X99348664Y-96342500D01*
X99415703Y-96362185D01*
X99436345Y-96378819D01*
X101902954Y-98845428D01*
X102062195Y-98961124D01*
X102237574Y-99050484D01*
X102237576Y-99050484D01*
X102237579Y-99050486D01*
X102237577Y-99050486D01*
X102334998Y-99082139D01*
X102405382Y-99105008D01*
X102424774Y-99111309D01*
X102511178Y-99124993D01*
X102619178Y-99142100D01*
X102619183Y-99142100D01*
X123745622Y-99142100D01*
X123940026Y-99111309D01*
X123959418Y-99105008D01*
X124127226Y-99050484D01*
X124302605Y-98961124D01*
X124461846Y-98845428D01*
X125921828Y-97385446D01*
X126037524Y-97226205D01*
X126108786Y-97086344D01*
X126126884Y-97050825D01*
X126187709Y-96863626D01*
X126218500Y-96669222D01*
X126218500Y-95530056D01*
X126238185Y-95463017D01*
X126242163Y-95457196D01*
X126336870Y-95326845D01*
X126451241Y-95102379D01*
X126529090Y-94862785D01*
X126568500Y-94613962D01*
X126568500Y-94362038D01*
X126529090Y-94113215D01*
X126451241Y-93873621D01*
X126451239Y-93873618D01*
X126451239Y-93873616D01*
X126388583Y-93750648D01*
X126336870Y-93649155D01*
X126286142Y-93579334D01*
X126188798Y-93445350D01*
X126188794Y-93445345D01*
X126010654Y-93267205D01*
X126010649Y-93267201D01*
X125806848Y-93119132D01*
X125806847Y-93119131D01*
X125806845Y-93119130D01*
X125728337Y-93079128D01*
X125582383Y-93004760D01*
X125342785Y-92926910D01*
X125316495Y-92922746D01*
X125093962Y-92887500D01*
X124842038Y-92887500D01*
X124742900Y-92903202D01*
X124593214Y-92926910D01*
X124353616Y-93004760D01*
X124129151Y-93119132D01*
X123925350Y-93267201D01*
X123925345Y-93267205D01*
X123747205Y-93445345D01*
X123747201Y-93445350D01*
X123599132Y-93649151D01*
X123484760Y-93873616D01*
X123406910Y-94113214D01*
X123392182Y-94206204D01*
X123367500Y-94362038D01*
X123367500Y-94613962D01*
X123373528Y-94652018D01*
X123406910Y-94862785D01*
X123484760Y-95102383D01*
X123585600Y-95300291D01*
X123599130Y-95326845D01*
X123693819Y-95457173D01*
X123717298Y-95522976D01*
X123717500Y-95530056D01*
X123717500Y-96001464D01*
X123697815Y-96068503D01*
X123681181Y-96089145D01*
X123165545Y-96604781D01*
X123104222Y-96638266D01*
X123077864Y-96641100D01*
X103286936Y-96641100D01*
X103219897Y-96621415D01*
X103199255Y-96604781D01*
X101210545Y-94616071D01*
X108128000Y-94616071D01*
X108128000Y-94867928D01*
X108167397Y-95116669D01*
X108245219Y-95356184D01*
X108359557Y-95580583D01*
X108433748Y-95682697D01*
X108433748Y-95682698D01*
X109204212Y-94912234D01*
X109215482Y-94954292D01*
X109287890Y-95079708D01*
X109390292Y-95182110D01*
X109515708Y-95254518D01*
X109557765Y-95265787D01*
X108787300Y-96036250D01*
X108889416Y-96110442D01*
X109113815Y-96224780D01*
X109353330Y-96302602D01*
X109602072Y-96342000D01*
X109853928Y-96342000D01*
X110102669Y-96302602D01*
X110342184Y-96224780D01*
X110566575Y-96110446D01*
X110566581Y-96110442D01*
X110668697Y-96036250D01*
X110668698Y-96036250D01*
X109898234Y-95265787D01*
X109940292Y-95254518D01*
X110065708Y-95182110D01*
X110168110Y-95079708D01*
X110240518Y-94954292D01*
X110251787Y-94912235D01*
X111022250Y-95682698D01*
X111022250Y-95682697D01*
X111096442Y-95580581D01*
X111096446Y-95580575D01*
X111210780Y-95356184D01*
X111288602Y-95116669D01*
X111328000Y-94867928D01*
X111328000Y-94616071D01*
X111288602Y-94367330D01*
X111210780Y-94127815D01*
X111096442Y-93903416D01*
X111022250Y-93801301D01*
X111022250Y-93801300D01*
X110251787Y-94571764D01*
X110240518Y-94529708D01*
X110168110Y-94404292D01*
X110065708Y-94301890D01*
X109940292Y-94229482D01*
X109898233Y-94218212D01*
X110528465Y-93587982D01*
X113207500Y-93587982D01*
X113207500Y-95388017D01*
X113218000Y-95490796D01*
X113242978Y-95566174D01*
X113273186Y-95657335D01*
X113365288Y-95806656D01*
X113489344Y-95930712D01*
X113638665Y-96022814D01*
X113805202Y-96077999D01*
X113907990Y-96088500D01*
X113907995Y-96088500D01*
X115708005Y-96088500D01*
X115708010Y-96088500D01*
X115810798Y-96077999D01*
X115977335Y-96022814D01*
X116126656Y-95930712D01*
X116250712Y-95806656D01*
X116342814Y-95657335D01*
X116397999Y-95490798D01*
X116408500Y-95388010D01*
X116408500Y-93587990D01*
X116397999Y-93485202D01*
X116342814Y-93318665D01*
X116250712Y-93169344D01*
X116221819Y-93140451D01*
X116188334Y-93079128D01*
X116185500Y-93052770D01*
X116185500Y-90059336D01*
X116205185Y-89992297D01*
X116257989Y-89946542D01*
X116327147Y-89936598D01*
X116390703Y-89965623D01*
X116397181Y-89971655D01*
X117410171Y-90984645D01*
X117410172Y-90984646D01*
X117549354Y-91123828D01*
X117708595Y-91239524D01*
X117883975Y-91328884D01*
X117963456Y-91354709D01*
X118071173Y-91389709D01*
X118141547Y-91400855D01*
X118265578Y-91420500D01*
X118265583Y-91420500D01*
X118462416Y-91420500D01*
X130584599Y-91420500D01*
X130623603Y-91426794D01*
X130723809Y-91459999D01*
X130826597Y-91470500D01*
X131260823Y-91470499D01*
X131327862Y-91490183D01*
X131348503Y-91506817D01*
X138784466Y-98942781D01*
X138784467Y-98942782D01*
X138923824Y-99082139D01*
X139087692Y-99191632D01*
X139194351Y-99235811D01*
X139269770Y-99267051D01*
X139305187Y-99274095D01*
X139313281Y-99276908D01*
X139335019Y-99292427D01*
X139358686Y-99304807D01*
X139363845Y-99313006D01*
X139370147Y-99317505D01*
X139376160Y-99332578D01*
X139390290Y-99355033D01*
X139395015Y-99369293D01*
X139396686Y-99374334D01*
X139488788Y-99523656D01*
X139612844Y-99647712D01*
X139762166Y-99739814D01*
X139928703Y-99794999D01*
X140031491Y-99805500D01*
X141631508Y-99805499D01*
X141734297Y-99794999D01*
X141900834Y-99739814D01*
X142050156Y-99647712D01*
X142174212Y-99523656D01*
X142266314Y-99374334D01*
X142266314Y-99374332D01*
X142270105Y-99368187D01*
X142271899Y-99369293D01*
X142311187Y-99324663D01*
X142377408Y-99305500D01*
X143387542Y-99305500D01*
X143418566Y-99299328D01*
X143484188Y-99286275D01*
X143580836Y-99267051D01*
X143634165Y-99244961D01*
X143762914Y-99191632D01*
X143926782Y-99082139D01*
X144066139Y-98942782D01*
X144066140Y-98942779D01*
X144073206Y-98935714D01*
X144073209Y-98935710D01*
X148962101Y-94046818D01*
X149023424Y-94013333D01*
X149049782Y-94010499D01*
X149484002Y-94010499D01*
X149484008Y-94010499D01*
X149586797Y-93999999D01*
X149753334Y-93944814D01*
X149902656Y-93852712D01*
X150026712Y-93728656D01*
X150118814Y-93579334D01*
X150133426Y-93535237D01*
X150173195Y-93477796D01*
X150237711Y-93450972D01*
X150306487Y-93463286D01*
X150351448Y-93501358D01*
X150392032Y-93557217D01*
X150536786Y-93701971D01*
X150673505Y-93801301D01*
X150702390Y-93822287D01*
X150818607Y-93881503D01*
X150884776Y-93915218D01*
X150884778Y-93915218D01*
X150884781Y-93915220D01*
X150975856Y-93944812D01*
X151079465Y-93978477D01*
X151180557Y-93994488D01*
X151281648Y-94010500D01*
X151281649Y-94010500D01*
X151486351Y-94010500D01*
X151486352Y-94010500D01*
X151688534Y-93978477D01*
X151883219Y-93915220D01*
X152065610Y-93822287D01*
X152164213Y-93750648D01*
X152231213Y-93701971D01*
X152231215Y-93701968D01*
X152231219Y-93701966D01*
X152375966Y-93557219D01*
X152375968Y-93557215D01*
X152375971Y-93557213D01*
X152453158Y-93450972D01*
X152496287Y-93391610D01*
X152589220Y-93209219D01*
X152652477Y-93014534D01*
X152684500Y-92812352D01*
X152684500Y-92607648D01*
X152681629Y-92589523D01*
X152652477Y-92405465D01*
X152619822Y-92304965D01*
X152589220Y-92210781D01*
X152589218Y-92210778D01*
X152589218Y-92210776D01*
X152526173Y-92087045D01*
X152496287Y-92028390D01*
X152447549Y-91961307D01*
X152375971Y-91862786D01*
X152231213Y-91718028D01*
X152065613Y-91597715D01*
X152065612Y-91597714D01*
X152065610Y-91597713D01*
X152005898Y-91567288D01*
X151883223Y-91504781D01*
X151688534Y-91441522D01*
X151513995Y-91413878D01*
X151486352Y-91409500D01*
X151281648Y-91409500D01*
X151257329Y-91413351D01*
X151079465Y-91441522D01*
X150884776Y-91504781D01*
X150702386Y-91597715D01*
X150536786Y-91718028D01*
X150392032Y-91862782D01*
X150392031Y-91862784D01*
X150351447Y-91918642D01*
X150296117Y-91961307D01*
X150226503Y-91967285D01*
X150164709Y-91934678D01*
X150133425Y-91884760D01*
X150118814Y-91840666D01*
X150026712Y-91691344D01*
X149902656Y-91567288D01*
X149753334Y-91475186D01*
X149586797Y-91420001D01*
X149586795Y-91420000D01*
X149484016Y-91409500D01*
X149484009Y-91409500D01*
X149403336Y-91409500D01*
X149373895Y-91400855D01*
X149343909Y-91394332D01*
X149338893Y-91390577D01*
X149336297Y-91389815D01*
X149315655Y-91373181D01*
X149289655Y-91347181D01*
X149256170Y-91285858D01*
X149261154Y-91216166D01*
X149303026Y-91160233D01*
X149368490Y-91135816D01*
X149377336Y-91135500D01*
X163521542Y-91135500D01*
X163547145Y-91130406D01*
X163618188Y-91116275D01*
X163714836Y-91097051D01*
X163778935Y-91070500D01*
X163896914Y-91021632D01*
X164060782Y-90912139D01*
X164200139Y-90772782D01*
X164200140Y-90772779D01*
X164207206Y-90765714D01*
X164207208Y-90765710D01*
X165820101Y-89152819D01*
X165881424Y-89119334D01*
X165907782Y-89116500D01*
X166060097Y-89116500D01*
X166293368Y-89079553D01*
X166294870Y-89079065D01*
X166517992Y-89006568D01*
X166728433Y-88899343D01*
X166919510Y-88760517D01*
X167086517Y-88593510D01*
X167225343Y-88402433D01*
X167332568Y-88191992D01*
X167405553Y-87967368D01*
X167420848Y-87870798D01*
X167442500Y-87734097D01*
X167442500Y-87497902D01*
X167405553Y-87264631D01*
X167371689Y-87160412D01*
X167332568Y-87040008D01*
X167332566Y-87040005D01*
X167332566Y-87040003D01*
X167250408Y-86878760D01*
X167225343Y-86829567D01*
X167086517Y-86638490D01*
X166919510Y-86471483D01*
X166728433Y-86332657D01*
X166689532Y-86312836D01*
X166517996Y-86225433D01*
X166293368Y-86152446D01*
X166060097Y-86115500D01*
X166060092Y-86115500D01*
X165823908Y-86115500D01*
X165823903Y-86115500D01*
X165590631Y-86152446D01*
X165366003Y-86225433D01*
X165155566Y-86332657D01*
X165072047Y-86393338D01*
X164964490Y-86471483D01*
X164964488Y-86471485D01*
X164964487Y-86471485D01*
X164797485Y-86638487D01*
X164797485Y-86638488D01*
X164797483Y-86638490D01*
X164750606Y-86703011D01*
X164658657Y-86829566D01*
X164551433Y-87040003D01*
X164478446Y-87264631D01*
X164441500Y-87497902D01*
X164441500Y-87650218D01*
X164421815Y-87717257D01*
X164405181Y-87737899D01*
X163044899Y-89098181D01*
X162983576Y-89131666D01*
X162957218Y-89134500D01*
X147683500Y-89134500D01*
X147616461Y-89114815D01*
X147570706Y-89062011D01*
X147559500Y-89010500D01*
X147559500Y-87070765D01*
X147579185Y-87003726D01*
X147631989Y-86957971D01*
X147701147Y-86948027D01*
X147739796Y-86960281D01*
X147748168Y-86964547D01*
X147868748Y-87003726D01*
X147927881Y-87022940D01*
X148114514Y-87052500D01*
X148114519Y-87052500D01*
X148303486Y-87052500D01*
X148490118Y-87022940D01*
X148549252Y-87003726D01*
X148669832Y-86964547D01*
X148838199Y-86878760D01*
X148991073Y-86767690D01*
X149124690Y-86634073D01*
X149235760Y-86481199D01*
X149321547Y-86312832D01*
X149379940Y-86133118D01*
X149406093Y-85967995D01*
X149409500Y-85946486D01*
X149409500Y-85757513D01*
X149379940Y-85570881D01*
X149331676Y-85422342D01*
X149321547Y-85391168D01*
X149321545Y-85391165D01*
X149321545Y-85391163D01*
X149258104Y-85266654D01*
X149235760Y-85222801D01*
X149235758Y-85222798D01*
X149235757Y-85222796D01*
X149233179Y-85219247D01*
X149209702Y-85153439D01*
X149209500Y-85146366D01*
X149209500Y-83396782D01*
X149229185Y-83329743D01*
X149245819Y-83309101D01*
X150146101Y-82408819D01*
X150207424Y-82375334D01*
X150233782Y-82372500D01*
X151268005Y-82372500D01*
X151268010Y-82372500D01*
X151370798Y-82361999D01*
X151537335Y-82306814D01*
X151686656Y-82214712D01*
X151810712Y-82090656D01*
X151902814Y-81941335D01*
X151957999Y-81774798D01*
X151968500Y-81672010D01*
X151968500Y-80646038D01*
X158927500Y-80646038D01*
X158927500Y-80897962D01*
X158942695Y-80993898D01*
X158966910Y-81146785D01*
X159044760Y-81386383D01*
X159159132Y-81610848D01*
X159307201Y-81814649D01*
X159307205Y-81814654D01*
X159485345Y-81992794D01*
X159485350Y-81992798D01*
X159634558Y-82101203D01*
X159689155Y-82140870D01*
X159813037Y-82203991D01*
X159913616Y-82255239D01*
X159913618Y-82255239D01*
X159913621Y-82255241D01*
X160153215Y-82333090D01*
X160402038Y-82372500D01*
X160402039Y-82372500D01*
X160653961Y-82372500D01*
X160653962Y-82372500D01*
X160902785Y-82333090D01*
X161142379Y-82255241D01*
X161366845Y-82140870D01*
X161570656Y-81992793D01*
X161748793Y-81814656D01*
X161748793Y-81814655D01*
X161752238Y-81811211D01*
X161753312Y-81812285D01*
X161806180Y-81777775D01*
X161841962Y-81772500D01*
X168632218Y-81772500D01*
X168699257Y-81792185D01*
X168719899Y-81808819D01*
X174405181Y-87494101D01*
X174438666Y-87555424D01*
X174441500Y-87581782D01*
X174441500Y-87734097D01*
X174478446Y-87967368D01*
X174551433Y-88191996D01*
X174627610Y-88341500D01*
X174658657Y-88402433D01*
X174797483Y-88593510D01*
X174964490Y-88760517D01*
X175155567Y-88899343D01*
X175225911Y-88935185D01*
X175366003Y-89006566D01*
X175366005Y-89006566D01*
X175366008Y-89006568D01*
X175486412Y-89045689D01*
X175590631Y-89079553D01*
X175823903Y-89116500D01*
X175823908Y-89116500D01*
X176060097Y-89116500D01*
X176293368Y-89079553D01*
X176294870Y-89079065D01*
X176517992Y-89006568D01*
X176728433Y-88899343D01*
X176919510Y-88760517D01*
X177086517Y-88593510D01*
X177225343Y-88402433D01*
X177332568Y-88191992D01*
X177405553Y-87967368D01*
X177420848Y-87870798D01*
X177442500Y-87734097D01*
X177442500Y-87497947D01*
X179442000Y-87497947D01*
X179442000Y-87734052D01*
X179478934Y-87967247D01*
X179551897Y-88191802D01*
X179659087Y-88402174D01*
X179719338Y-88485104D01*
X179719340Y-88485105D01*
X180499861Y-87704584D01*
X180522667Y-87789694D01*
X180581910Y-87892306D01*
X180665694Y-87976090D01*
X180768306Y-88035333D01*
X180853415Y-88058138D01*
X180072893Y-88838658D01*
X180155828Y-88898914D01*
X180366197Y-89006102D01*
X180590752Y-89079065D01*
X180590751Y-89079065D01*
X180823948Y-89116000D01*
X181060052Y-89116000D01*
X181293247Y-89079065D01*
X181517802Y-89006102D01*
X181728163Y-88898918D01*
X181728169Y-88898914D01*
X181811104Y-88838658D01*
X181811105Y-88838658D01*
X181030584Y-88058138D01*
X181115694Y-88035333D01*
X181218306Y-87976090D01*
X181302090Y-87892306D01*
X181361333Y-87789694D01*
X181384138Y-87704584D01*
X182164658Y-88485105D01*
X182164658Y-88485104D01*
X182224914Y-88402169D01*
X182224918Y-88402163D01*
X182332102Y-88191802D01*
X182405065Y-87967247D01*
X182442000Y-87734052D01*
X182442000Y-87497947D01*
X182405065Y-87264752D01*
X182332102Y-87040197D01*
X182224914Y-86829828D01*
X182164658Y-86746894D01*
X182164658Y-86746893D01*
X181384137Y-87527414D01*
X181361333Y-87442306D01*
X181302090Y-87339694D01*
X181218306Y-87255910D01*
X181115694Y-87196667D01*
X181030584Y-87173861D01*
X181811105Y-86393340D01*
X181811104Y-86393338D01*
X181728174Y-86333087D01*
X181517802Y-86225897D01*
X181293247Y-86152934D01*
X181293248Y-86152934D01*
X181060052Y-86116000D01*
X180823948Y-86116000D01*
X180590752Y-86152934D01*
X180366197Y-86225897D01*
X180155830Y-86333084D01*
X180072894Y-86393340D01*
X180853415Y-87173861D01*
X180768306Y-87196667D01*
X180665694Y-87255910D01*
X180581910Y-87339694D01*
X180522667Y-87442306D01*
X180499861Y-87527415D01*
X179719340Y-86746894D01*
X179659084Y-86829830D01*
X179551897Y-87040197D01*
X179478934Y-87264752D01*
X179442000Y-87497947D01*
X177442500Y-87497947D01*
X177442500Y-87497902D01*
X177405553Y-87264631D01*
X177371689Y-87160412D01*
X177332568Y-87040008D01*
X177332566Y-87040005D01*
X177332566Y-87040003D01*
X177250408Y-86878760D01*
X177225343Y-86829567D01*
X177086517Y-86638490D01*
X176919510Y-86471483D01*
X176728433Y-86332657D01*
X176689532Y-86312836D01*
X176517996Y-86225433D01*
X176293368Y-86152446D01*
X176060097Y-86115500D01*
X176060092Y-86115500D01*
X175907783Y-86115500D01*
X175840744Y-86095815D01*
X175820102Y-86079181D01*
X169882209Y-80141289D01*
X169882206Y-80141285D01*
X169882206Y-80141286D01*
X169875139Y-80134219D01*
X169875139Y-80134218D01*
X169735782Y-79994861D01*
X169735781Y-79994860D01*
X169735780Y-79994859D01*
X169571920Y-79885371D01*
X169571911Y-79885366D01*
X169499315Y-79855296D01*
X169443165Y-79832038D01*
X169389836Y-79809949D01*
X169389832Y-79809948D01*
X169389828Y-79809946D01*
X169293188Y-79790724D01*
X169196544Y-79771500D01*
X169196541Y-79771500D01*
X161841962Y-79771500D01*
X161774923Y-79751815D01*
X161752650Y-79732376D01*
X161752238Y-79732789D01*
X161570654Y-79551205D01*
X161570649Y-79551201D01*
X161366848Y-79403132D01*
X161366847Y-79403131D01*
X161366845Y-79403130D01*
X161296747Y-79367413D01*
X161142383Y-79288760D01*
X160902785Y-79210910D01*
X160653962Y-79171500D01*
X160402038Y-79171500D01*
X160335738Y-79182001D01*
X160153214Y-79210910D01*
X159913616Y-79288760D01*
X159689151Y-79403132D01*
X159485350Y-79551201D01*
X159485345Y-79551205D01*
X159307205Y-79729345D01*
X159307201Y-79729350D01*
X159159132Y-79933151D01*
X159044760Y-80157616D01*
X158966910Y-80397214D01*
X158966910Y-80397215D01*
X158927500Y-80646038D01*
X151968500Y-80646038D01*
X151968500Y-79871990D01*
X151957999Y-79769202D01*
X151902814Y-79602665D01*
X151810712Y-79453344D01*
X151686656Y-79329288D01*
X151537335Y-79237186D01*
X151370798Y-79182001D01*
X151370796Y-79182000D01*
X151268017Y-79171500D01*
X151268010Y-79171500D01*
X149467990Y-79171500D01*
X149467982Y-79171500D01*
X149365203Y-79182000D01*
X149365202Y-79182001D01*
X149282669Y-79209349D01*
X149198667Y-79237185D01*
X149198662Y-79237187D01*
X149049342Y-79329289D01*
X148925289Y-79453342D01*
X148833187Y-79602662D01*
X148833186Y-79602665D01*
X148778001Y-79769202D01*
X148778001Y-79769203D01*
X148778000Y-79769203D01*
X148767500Y-79871982D01*
X148767500Y-80906217D01*
X148747815Y-80973256D01*
X148731181Y-80993898D01*
X148126299Y-81598780D01*
X147571221Y-82153858D01*
X147571218Y-82153861D01*
X147521096Y-82203983D01*
X147431859Y-82293219D01*
X147322371Y-82457079D01*
X147322364Y-82457092D01*
X147246950Y-82639160D01*
X147246947Y-82639170D01*
X147208500Y-82832456D01*
X147208500Y-84716457D01*
X147188815Y-84783496D01*
X147136011Y-84829251D01*
X147066853Y-84839195D01*
X147011615Y-84816775D01*
X146964409Y-84782478D01*
X146789029Y-84693117D01*
X146601826Y-84632290D01*
X146407422Y-84601500D01*
X146407417Y-84601500D01*
X146210583Y-84601500D01*
X146210578Y-84601500D01*
X146016173Y-84632290D01*
X145828970Y-84693117D01*
X145653594Y-84782476D01*
X145575528Y-84839195D01*
X145494354Y-84898172D01*
X145494352Y-84898174D01*
X145494351Y-84898174D01*
X145355174Y-85037351D01*
X145355174Y-85037352D01*
X145355172Y-85037354D01*
X145305485Y-85105741D01*
X145239476Y-85196594D01*
X145150117Y-85371970D01*
X145089290Y-85559173D01*
X145058500Y-85753577D01*
X145058500Y-90233422D01*
X145089290Y-90427826D01*
X145150117Y-90615030D01*
X145230497Y-90772782D01*
X145239476Y-90790405D01*
X145355172Y-90949646D01*
X145355174Y-90949648D01*
X147204622Y-92799096D01*
X147238107Y-92860419D01*
X147233123Y-92930111D01*
X147204622Y-92974458D01*
X142910899Y-97268181D01*
X142849576Y-97301666D01*
X142823218Y-97304500D01*
X142377408Y-97304500D01*
X142310369Y-97284815D01*
X142271863Y-97240728D01*
X142270105Y-97241813D01*
X142265777Y-97234796D01*
X142174212Y-97086344D01*
X142050156Y-96962288D01*
X141935489Y-96891561D01*
X141900836Y-96870187D01*
X141900831Y-96870185D01*
X141881037Y-96863626D01*
X141734297Y-96815001D01*
X141734295Y-96815000D01*
X141631510Y-96804500D01*
X140031498Y-96804500D01*
X140031481Y-96804501D01*
X139928703Y-96815000D01*
X139928700Y-96815001D01*
X139762166Y-96870186D01*
X139762163Y-96870187D01*
X139709260Y-96902817D01*
X139641867Y-96921256D01*
X139575204Y-96900332D01*
X139556485Y-96884958D01*
X136973417Y-94301890D01*
X134282395Y-91610869D01*
X134248911Y-91549547D01*
X134253895Y-91479855D01*
X134295767Y-91423922D01*
X134331759Y-91405258D01*
X134425635Y-91374755D01*
X134607955Y-91281859D01*
X134652527Y-91249474D01*
X133973052Y-90570000D01*
X133979267Y-90570000D01*
X134081000Y-90542741D01*
X134172212Y-90490080D01*
X134246686Y-90415606D01*
X134299347Y-90324394D01*
X134326606Y-90222661D01*
X134326606Y-90216447D01*
X135006080Y-90895921D01*
X135038465Y-90851349D01*
X135131361Y-90669031D01*
X135194596Y-90474417D01*
X135226606Y-90272317D01*
X135226606Y-90067682D01*
X135194596Y-89865582D01*
X135131361Y-89670968D01*
X135038465Y-89488650D01*
X135006080Y-89444077D01*
X135006080Y-89444076D01*
X134326606Y-90123551D01*
X134326606Y-90117339D01*
X134299347Y-90015606D01*
X134246686Y-89924394D01*
X134172212Y-89849920D01*
X134081000Y-89797259D01*
X133979267Y-89770000D01*
X133973052Y-89770000D01*
X134652528Y-89090524D01*
X134652527Y-89090523D01*
X134607965Y-89058147D01*
X134607956Y-89058141D01*
X134425637Y-88965244D01*
X134231023Y-88902009D01*
X134028923Y-88870000D01*
X133824289Y-88870000D01*
X133622188Y-88902009D01*
X133427574Y-88965244D01*
X133245250Y-89058143D01*
X133200683Y-89090523D01*
X133200683Y-89090524D01*
X133880160Y-89770000D01*
X133873945Y-89770000D01*
X133772212Y-89797259D01*
X133681000Y-89849920D01*
X133606526Y-89924394D01*
X133553865Y-90015606D01*
X133526606Y-90117339D01*
X133526606Y-90123553D01*
X132847130Y-89444077D01*
X132809325Y-89447053D01*
X132740947Y-89432689D01*
X132691190Y-89383638D01*
X132688716Y-89378949D01*
X132684707Y-89370942D01*
X132661420Y-89300666D01*
X132569318Y-89151344D01*
X132445262Y-89027288D01*
X132295940Y-88935186D01*
X132129403Y-88880001D01*
X132129401Y-88880000D01*
X132026616Y-88869500D01*
X130826604Y-88869500D01*
X130826587Y-88869501D01*
X130723809Y-88880000D01*
X130723806Y-88880001D01*
X130623603Y-88913206D01*
X130584599Y-88919500D01*
X118933336Y-88919500D01*
X118866297Y-88899815D01*
X118845655Y-88883181D01*
X116571819Y-86609345D01*
X116538334Y-86548022D01*
X116535500Y-86521664D01*
X116535500Y-85840995D01*
X116535499Y-85840982D01*
X116524999Y-85738203D01*
X116511898Y-85698667D01*
X116469814Y-85571665D01*
X116377712Y-85422344D01*
X116253656Y-85298288D01*
X116125510Y-85219247D01*
X116104337Y-85206187D01*
X116104332Y-85206185D01*
X116045400Y-85186657D01*
X115937798Y-85151001D01*
X115937796Y-85151000D01*
X115835017Y-85140500D01*
X115835010Y-85140500D01*
X114034990Y-85140500D01*
X114034982Y-85140500D01*
X113932203Y-85151000D01*
X113932202Y-85151001D01*
X113849669Y-85178349D01*
X113765667Y-85206185D01*
X113765662Y-85206187D01*
X113616342Y-85298289D01*
X113492289Y-85422342D01*
X113400187Y-85571662D01*
X113400185Y-85571667D01*
X113372349Y-85655669D01*
X113345001Y-85738202D01*
X113345001Y-85738203D01*
X113345000Y-85738203D01*
X113334500Y-85840982D01*
X113334500Y-87641017D01*
X113345000Y-87743796D01*
X113360209Y-87789694D01*
X113400186Y-87910335D01*
X113492288Y-88059656D01*
X113616344Y-88183712D01*
X113625591Y-88189416D01*
X113672318Y-88241360D01*
X113684500Y-88294957D01*
X113684500Y-92855707D01*
X113664815Y-92922746D01*
X113625597Y-92961245D01*
X113489347Y-93045285D01*
X113489343Y-93045288D01*
X113365289Y-93169342D01*
X113273187Y-93318662D01*
X113273185Y-93318667D01*
X113254996Y-93373559D01*
X113218001Y-93485202D01*
X113218001Y-93485203D01*
X113218000Y-93485203D01*
X113207500Y-93587982D01*
X110528465Y-93587982D01*
X110619295Y-93497152D01*
X110668698Y-93447748D01*
X110566583Y-93373557D01*
X110342184Y-93259219D01*
X110102669Y-93181397D01*
X109853928Y-93142000D01*
X109602072Y-93142000D01*
X109353330Y-93181397D01*
X109113815Y-93259219D01*
X108889413Y-93373559D01*
X108787301Y-93447747D01*
X108787300Y-93447748D01*
X109557765Y-94218212D01*
X109515708Y-94229482D01*
X109390292Y-94301890D01*
X109287890Y-94404292D01*
X109215482Y-94529708D01*
X109204212Y-94571765D01*
X108433748Y-93801300D01*
X108433747Y-93801301D01*
X108359559Y-93903413D01*
X108245219Y-94127815D01*
X108167397Y-94367330D01*
X108128000Y-94616071D01*
X101210545Y-94616071D01*
X101204819Y-94610345D01*
X101171334Y-94549022D01*
X101168500Y-94522664D01*
X101168500Y-93841995D01*
X101168499Y-93841982D01*
X101165419Y-93811837D01*
X101157999Y-93739202D01*
X101102814Y-93572665D01*
X101010712Y-93423344D01*
X100886656Y-93299288D01*
X100737335Y-93207186D01*
X100570798Y-93152001D01*
X100570796Y-93152000D01*
X100468017Y-93141500D01*
X100468010Y-93141500D01*
X99787336Y-93141500D01*
X99720297Y-93121815D01*
X99699655Y-93105181D01*
X92160425Y-85565951D01*
X92126940Y-85504628D01*
X92124106Y-85478270D01*
X92124106Y-83183500D01*
X92130175Y-83145182D01*
X92130943Y-83142818D01*
X92142083Y-83108534D01*
X92174106Y-82906352D01*
X92174106Y-82701648D01*
X92152796Y-82567106D01*
X92142083Y-82499465D01*
X92088024Y-82333089D01*
X92078826Y-82304781D01*
X92078824Y-82304778D01*
X92078824Y-82304776D01*
X92027471Y-82203991D01*
X91985893Y-82122390D01*
X91956794Y-82082338D01*
X91865577Y-81956786D01*
X91720819Y-81812028D01*
X91555219Y-81691715D01*
X91555218Y-81691714D01*
X91555216Y-81691713D01*
X91498259Y-81662691D01*
X91372829Y-81598781D01*
X91178140Y-81535522D01*
X91003601Y-81507878D01*
X90975958Y-81503500D01*
X90771254Y-81503500D01*
X90746935Y-81507351D01*
X90569071Y-81535522D01*
X90374382Y-81598781D01*
X90191992Y-81691715D01*
X90026392Y-81812028D01*
X89881634Y-81956786D01*
X89848424Y-82002498D01*
X89793095Y-82045164D01*
X89723481Y-82051143D01*
X89661686Y-82018538D01*
X89627329Y-81957699D01*
X89624106Y-81929613D01*
X89624106Y-77067130D01*
X89643791Y-77000091D01*
X89660425Y-76979449D01*
X90677056Y-75962819D01*
X90738379Y-75929334D01*
X90764737Y-75926500D01*
X95696664Y-75926500D01*
X95763703Y-75946185D01*
X95784345Y-75962819D01*
X98027181Y-78205655D01*
X98060666Y-78266978D01*
X98063500Y-78293336D01*
X98063500Y-85314042D01*
X98043815Y-85381081D01*
X98004598Y-85419580D01*
X97995344Y-85425287D01*
X97871289Y-85549342D01*
X97779187Y-85698662D01*
X97779186Y-85698665D01*
X97724001Y-85865202D01*
X97724001Y-85865203D01*
X97724000Y-85865203D01*
X97713500Y-85967982D01*
X97713500Y-87768017D01*
X97724000Y-87870796D01*
X97758891Y-87976090D01*
X97779186Y-88037335D01*
X97871288Y-88186656D01*
X97995344Y-88310712D01*
X98144665Y-88402814D01*
X98311202Y-88457999D01*
X98413990Y-88468500D01*
X98413995Y-88468500D01*
X100214005Y-88468500D01*
X100214010Y-88468500D01*
X100316798Y-88457999D01*
X100483335Y-88402814D01*
X100632656Y-88310712D01*
X100756712Y-88186656D01*
X100848814Y-88037335D01*
X100903999Y-87870798D01*
X100914500Y-87768010D01*
X100914500Y-86742071D01*
X107874000Y-86742071D01*
X107874000Y-86993928D01*
X107913397Y-87242669D01*
X107991219Y-87482184D01*
X108105557Y-87706583D01*
X108179748Y-87808697D01*
X108179748Y-87808698D01*
X108950212Y-87038234D01*
X108961482Y-87080292D01*
X109033890Y-87205708D01*
X109136292Y-87308110D01*
X109261708Y-87380518D01*
X109303765Y-87391787D01*
X108533300Y-88162250D01*
X108635416Y-88236442D01*
X108859815Y-88350780D01*
X109099330Y-88428602D01*
X109348072Y-88468000D01*
X109599928Y-88468000D01*
X109848669Y-88428602D01*
X110088184Y-88350780D01*
X110312575Y-88236446D01*
X110312581Y-88236442D01*
X110414697Y-88162250D01*
X110414698Y-88162250D01*
X109644234Y-87391787D01*
X109686292Y-87380518D01*
X109811708Y-87308110D01*
X109914110Y-87205708D01*
X109986518Y-87080292D01*
X109997787Y-87038235D01*
X110768250Y-87808698D01*
X110768250Y-87808697D01*
X110842442Y-87706581D01*
X110842446Y-87706575D01*
X110956780Y-87482184D01*
X111034602Y-87242669D01*
X111074000Y-86993928D01*
X111074000Y-86742071D01*
X111034602Y-86493330D01*
X110956780Y-86253815D01*
X110842442Y-86029416D01*
X110768250Y-85927301D01*
X110768250Y-85927300D01*
X109997787Y-86697764D01*
X109986518Y-86655708D01*
X109914110Y-86530292D01*
X109811708Y-86427890D01*
X109686292Y-86355482D01*
X109644232Y-86344212D01*
X110414698Y-85573748D01*
X110312583Y-85499557D01*
X110088184Y-85385219D01*
X109848669Y-85307397D01*
X109599928Y-85268000D01*
X109348072Y-85268000D01*
X109099330Y-85307397D01*
X108859815Y-85385219D01*
X108635413Y-85499559D01*
X108533301Y-85573747D01*
X108533300Y-85573748D01*
X109303765Y-86344212D01*
X109261708Y-86355482D01*
X109136292Y-86427890D01*
X109033890Y-86530292D01*
X108961482Y-86655708D01*
X108950212Y-86697765D01*
X108179748Y-85927300D01*
X108179747Y-85927301D01*
X108105559Y-86029413D01*
X107991219Y-86253815D01*
X107913397Y-86493330D01*
X107874000Y-86742071D01*
X100914500Y-86742071D01*
X100914500Y-85967990D01*
X100903999Y-85865202D01*
X100848814Y-85698665D01*
X100756712Y-85549344D01*
X100632656Y-85425288D01*
X100632655Y-85425287D01*
X100623402Y-85419580D01*
X100576678Y-85367632D01*
X100564500Y-85314042D01*
X100564500Y-82679900D01*
X100584185Y-82612861D01*
X100636989Y-82567106D01*
X100688500Y-82555900D01*
X119090064Y-82555900D01*
X119157103Y-82575585D01*
X119177745Y-82592219D01*
X123473916Y-86888390D01*
X123507401Y-86949713D01*
X123508708Y-86956672D01*
X123533909Y-87115782D01*
X123533910Y-87115785D01*
X123611759Y-87355379D01*
X123682441Y-87494101D01*
X123726132Y-87579848D01*
X123874201Y-87783649D01*
X123874205Y-87783654D01*
X124052345Y-87961794D01*
X124052350Y-87961798D01*
X124195773Y-88066000D01*
X124256155Y-88109870D01*
X124358957Y-88162250D01*
X124480616Y-88224239D01*
X124480618Y-88224239D01*
X124480621Y-88224241D01*
X124720215Y-88302090D01*
X124969038Y-88341500D01*
X124969039Y-88341500D01*
X125220961Y-88341500D01*
X125220962Y-88341500D01*
X125469785Y-88302090D01*
X125709379Y-88224241D01*
X125933845Y-88109870D01*
X126137656Y-87961793D01*
X126315793Y-87783656D01*
X126463870Y-87579845D01*
X126578241Y-87355379D01*
X126656090Y-87115785D01*
X126695500Y-86866962D01*
X126695500Y-86615038D01*
X126656090Y-86366215D01*
X126578241Y-86126621D01*
X126578239Y-86126618D01*
X126578239Y-86126616D01*
X126497417Y-85967995D01*
X126463870Y-85902155D01*
X126358782Y-85757513D01*
X126315798Y-85698350D01*
X126315794Y-85698345D01*
X126137654Y-85520205D01*
X126137649Y-85520201D01*
X125933848Y-85372132D01*
X125933847Y-85372131D01*
X125933845Y-85372130D01*
X125709379Y-85257759D01*
X125469785Y-85179910D01*
X125469783Y-85179909D01*
X125310672Y-85154708D01*
X125247538Y-85124778D01*
X125242390Y-85119916D01*
X123309421Y-83186947D01*
X139331500Y-83186947D01*
X139331500Y-83423052D01*
X139368434Y-83656247D01*
X139441397Y-83880802D01*
X139548587Y-84091174D01*
X139608838Y-84174104D01*
X139608840Y-84174105D01*
X140348537Y-83434408D01*
X140365575Y-83497993D01*
X140431401Y-83612007D01*
X140524493Y-83705099D01*
X140638507Y-83770925D01*
X140702090Y-83787962D01*
X139962393Y-84527658D01*
X140045328Y-84587914D01*
X140255697Y-84695102D01*
X140480252Y-84768065D01*
X140480251Y-84768065D01*
X140713448Y-84805000D01*
X140949552Y-84805000D01*
X141182747Y-84768065D01*
X141407302Y-84695102D01*
X141617663Y-84587918D01*
X141617669Y-84587914D01*
X141700604Y-84527658D01*
X141700605Y-84527658D01*
X140960908Y-83787962D01*
X141024493Y-83770925D01*
X141138507Y-83705099D01*
X141231599Y-83612007D01*
X141297425Y-83497993D01*
X141314462Y-83434409D01*
X142054158Y-84174105D01*
X142054158Y-84174104D01*
X142114414Y-84091169D01*
X142114418Y-84091163D01*
X142221602Y-83880802D01*
X142294565Y-83656247D01*
X142331500Y-83423052D01*
X142331500Y-83186947D01*
X142294565Y-82953752D01*
X142221602Y-82729197D01*
X142114414Y-82518828D01*
X142054158Y-82435894D01*
X142054158Y-82435893D01*
X141314462Y-83175590D01*
X141297425Y-83112007D01*
X141231599Y-82997993D01*
X141138507Y-82904901D01*
X141024493Y-82839075D01*
X140960909Y-82822037D01*
X141700605Y-82082340D01*
X141700604Y-82082338D01*
X141617674Y-82022087D01*
X141407302Y-81914897D01*
X141182747Y-81841934D01*
X141182748Y-81841934D01*
X140949552Y-81805000D01*
X140713448Y-81805000D01*
X140480252Y-81841934D01*
X140255697Y-81914897D01*
X140045330Y-82022084D01*
X139962394Y-82082340D01*
X140702091Y-82822037D01*
X140638507Y-82839075D01*
X140524493Y-82904901D01*
X140431401Y-82997993D01*
X140365575Y-83112007D01*
X140348537Y-83175591D01*
X139608840Y-82435894D01*
X139548584Y-82518830D01*
X139441397Y-82729197D01*
X139368434Y-82953752D01*
X139331500Y-83186947D01*
X123309421Y-83186947D01*
X120474048Y-80351574D01*
X120474046Y-80351572D01*
X120314805Y-80235876D01*
X120139430Y-80146517D01*
X119952226Y-80085690D01*
X119757822Y-80054900D01*
X119757817Y-80054900D01*
X100688500Y-80054900D01*
X100621461Y-80035215D01*
X100575706Y-79982411D01*
X100564500Y-79930900D01*
X100564500Y-77625577D01*
X100546586Y-77512483D01*
X100533709Y-77431174D01*
X100533708Y-77431170D01*
X100533708Y-77431169D01*
X100474391Y-77248612D01*
X100473329Y-77244847D01*
X100383523Y-77068594D01*
X100267828Y-76909354D01*
X97093235Y-73734761D01*
X97059750Y-73673438D01*
X97064734Y-73603746D01*
X97106606Y-73547813D01*
X97172070Y-73523396D01*
X97180159Y-73523083D01*
X157269468Y-73169902D01*
X157270197Y-73169900D01*
X199384105Y-73169900D01*
X199451144Y-73189585D01*
G37*
%TD.AperFunction*%
%TD*%
M02*
