%TF.GenerationSoftware,KiCad,Pcbnew,10.0.3*%
%TF.CreationDate,2026-06-16T19:29:18+05:45*%
%TF.ProjectId,60w smps,36307720-736d-4707-932e-6b696361645f,rev?*%
%TF.SameCoordinates,Original*%
%TF.FileFunction,Plated,1,2,PTH,Drill*%
%TF.FilePolarity,Positive*%
%FSLAX46Y46*%
G04 Gerber Fmt 4.6, Leading zero omitted, Abs format (unit mm)*
G04 Created by KiCad (PCBNEW 10.0.3) date 2026-06-16 19:29:19*
%MOMM*%
%LPD*%
G01*
G04 APERTURE LIST*
%TA.AperFunction,ComponentDrill*%
%ADD10C,0.700000*%
%TD*%
%TA.AperFunction,ComponentDrill*%
%ADD11C,0.750000*%
%TD*%
%TA.AperFunction,ComponentDrill*%
%ADD12C,0.800000*%
%TD*%
%TA.AperFunction,ComponentDrill*%
%ADD13C,0.810000*%
%TD*%
%TA.AperFunction,ComponentDrill*%
%ADD14C,0.850000*%
%TD*%
%TA.AperFunction,ComponentDrill*%
%ADD15C,0.900000*%
%TD*%
%TA.AperFunction,ComponentDrill*%
%ADD16C,1.000000*%
%TD*%
%TA.AperFunction,ComponentDrill*%
%ADD17C,1.100000*%
%TD*%
%TA.AperFunction,ComponentDrill*%
%ADD18C,1.300000*%
%TD*%
G04 APERTURE END LIST*
D10*
%TO.C,R1*%
X70494400Y-99568000D03*
X72394400Y-99568000D03*
%TO.C,R8*%
X82698000Y-112649000D03*
X84598000Y-112649000D03*
%TO.C,R4*%
X108463000Y-108331000D03*
X110363000Y-108331000D03*
%TO.C,R6*%
X121798000Y-109093000D03*
X123698000Y-109093000D03*
%TO.C,R10*%
X123880800Y-103276400D03*
X125780800Y-103276400D03*
%TO.C,R2*%
X146309000Y-85852000D03*
X148209000Y-85852000D03*
D11*
%TO.C,Q1*%
X155194000Y-103124000D03*
X156464000Y-103124000D03*
X157734000Y-103124000D03*
D12*
%TO.C,C1*%
X66529606Y-93853000D03*
X69029606Y-93853000D03*
%TO.C,C6*%
X77654806Y-119303800D03*
X80154806Y-119303800D03*
%TO.C,C2*%
X88373606Y-82804000D03*
X90873606Y-82804000D03*
%TO.C,C5*%
X114467000Y-114427000D03*
%TO.C,C7*%
X115864000Y-103251000D03*
%TO.C,C5*%
X116967000Y-114427000D03*
%TO.C,C7*%
X118364000Y-103251000D03*
%TO.C,C8*%
X131256400Y-102717600D03*
%TO.C,C3*%
X131426606Y-90170000D03*
%TO.C,C8*%
X133756400Y-102717600D03*
%TO.C,C3*%
X133926606Y-90170000D03*
%TO.C,U1*%
X146126200Y-111983600D03*
X146126200Y-119603600D03*
X148666200Y-111983600D03*
X148666200Y-119603600D03*
%TO.C,C4*%
X148884000Y-92710000D03*
%TO.C,U1*%
X151206200Y-111983600D03*
X151206200Y-119603600D03*
%TO.C,C4*%
X151384000Y-92710000D03*
%TO.C,U1*%
X153746200Y-111983600D03*
X153746200Y-119603600D03*
D13*
%TO.C,T1*%
X78486000Y-94107000D03*
X78486000Y-101727000D03*
X91186000Y-94107000D03*
X91186000Y-101727000D03*
D14*
%TO.C,L1*%
X126978400Y-116027200D03*
X136978400Y-116027200D03*
D15*
%TO.C,TR1*%
X165942000Y-87616000D03*
X165942000Y-102616000D03*
X170942000Y-87616000D03*
X170942000Y-102616000D03*
X175942000Y-87616000D03*
X180942000Y-87616000D03*
X180942000Y-102616000D03*
D16*
%TO.C,C12*%
X57778000Y-112764500D03*
%TO.C,C10*%
X57905000Y-104659500D03*
%TO.C,F1*%
X66563000Y-83439000D03*
%TO.C,C12*%
X72778000Y-112764500D03*
%TO.C,C10*%
X72905000Y-104659500D03*
%TO.C,F1*%
X77963000Y-83439000D03*
%TO.C,C11*%
X91052000Y-113653500D03*
X106052000Y-113653500D03*
%TO.C,C9*%
X140831500Y-83305000D03*
X140831500Y-98305000D03*
D17*
%TO.C,D1*%
X99314000Y-86868000D03*
%TO.C,D3*%
X99568000Y-94742000D03*
%TO.C,D7*%
X99695000Y-102108000D03*
%TO.C,D1*%
X109474000Y-86868000D03*
%TO.C,D3*%
X109728000Y-94742000D03*
%TO.C,D7*%
X109855000Y-102108000D03*
%TO.C,D4*%
X114808000Y-94488000D03*
%TO.C,D2*%
X114935000Y-86741000D03*
%TO.C,D4*%
X124968000Y-94488000D03*
%TO.C,D2*%
X125095000Y-86741000D03*
%TO.C,D5*%
X138938000Y-104140000D03*
X149098000Y-104140000D03*
%TO.C,D6*%
X150368000Y-80772000D03*
X160528000Y-80772000D03*
D18*
%TO.C,J1*%
X55499000Y-91520000D03*
X55499000Y-96520000D03*
%TO.C,J2*%
X194056000Y-90932000D03*
X194056000Y-95932000D03*
M02*
