%TF.GenerationSoftware,KiCad,Pcbnew,10.0.3*%
%TF.CreationDate,2026-07-05T12:37:52+05:45*%
%TF.ProjectId,Arduino R3,41726475-696e-46f2-9052-332e6b696361,rev?*%
%TF.SameCoordinates,Original*%
%TF.FileFunction,Plated,1,4,PTH,Mixed*%
%TF.FilePolarity,Positive*%
%FSLAX46Y46*%
G04 Gerber Fmt 4.6, Leading zero omitted, Abs format (unit mm)*
G04 Created by KiCad (PCBNEW 10.0.3) date 2026-07-05 12:37:52*
%MOMM*%
%LPD*%
G01*
G04 APERTURE LIST*
%TA.AperFunction,ViaDrill*%
%ADD10C,0.300000*%
%TD*%
%TA.AperFunction,ComponentDrill*%
%ADD11C,0.800000*%
%TD*%
%TA.AperFunction,ComponentDrill*%
%ADD12C,0.850000*%
%TD*%
%TA.AperFunction,ComponentDrill*%
%ADD13C,0.950000*%
%TD*%
G04 aperture for slot hole*
%TA.AperFunction,ComponentDrill*%
%ADD14C,1.000000*%
%TD*%
%TA.AperFunction,ComponentDrill*%
%ADD15C,1.000000*%
%TD*%
%TA.AperFunction,ComponentDrill*%
%ADD16C,2.300000*%
%TD*%
G04 APERTURE END LIST*
D10*
X86500000Y-100500000D03*
X87125000Y-108125000D03*
X88627896Y-96445104D03*
X89353267Y-96396425D03*
X89400000Y-98300000D03*
X90500000Y-99500000D03*
X91200000Y-101900000D03*
X91500000Y-83400000D03*
X92150000Y-112400000D03*
X92257000Y-98300657D03*
X92300000Y-99950000D03*
X92437000Y-89800657D03*
X92600000Y-78700000D03*
X92766667Y-101500000D03*
X92925000Y-92300000D03*
X93100000Y-97000000D03*
X93350000Y-108000000D03*
X93500000Y-114100000D03*
X93527000Y-98627710D03*
X93900000Y-110750000D03*
X94000000Y-101900000D03*
X94226999Y-96477710D03*
X94300000Y-99700000D03*
X94823604Y-100273604D03*
X94906372Y-98738920D03*
X94916540Y-97278750D03*
X95100000Y-111427500D03*
X95370000Y-92100000D03*
X96650000Y-111427500D03*
X97300000Y-109850000D03*
X97423000Y-94650000D03*
X98000000Y-102500000D03*
X98150000Y-115650000D03*
X98340874Y-105195582D03*
X98650000Y-90600000D03*
X99035498Y-110847998D03*
X100100000Y-113873000D03*
X100700000Y-94100000D03*
X101604289Y-112154289D03*
X102065000Y-95200000D03*
X102281122Y-111708385D03*
X102600000Y-109600000D03*
X103000000Y-111600000D03*
X103715000Y-95200000D03*
X103762500Y-113650000D03*
X103762500Y-114600000D03*
X103877000Y-85150646D03*
X104550000Y-109500000D03*
X104700000Y-119050000D03*
X105700000Y-101294500D03*
X105725000Y-97300000D03*
X105900000Y-115600000D03*
X106037500Y-115550000D03*
X106900000Y-102200000D03*
X107900000Y-98173000D03*
X107950000Y-104900000D03*
X108100000Y-102850000D03*
X108300000Y-99227000D03*
X108750000Y-84700000D03*
X108800000Y-113550000D03*
X108900000Y-81800000D03*
X109050000Y-88100000D03*
X109062500Y-93800000D03*
X109100000Y-86500000D03*
X109150000Y-99300000D03*
X109600000Y-106600000D03*
X110050000Y-98700000D03*
X110100000Y-112000000D03*
X110900000Y-94000000D03*
X110937500Y-90000000D03*
X110937500Y-96200000D03*
X111650000Y-111900000D03*
X111750000Y-81127000D03*
X112050000Y-123200000D03*
X113257656Y-93950282D03*
X113800000Y-96250000D03*
X114450000Y-83691448D03*
X114950000Y-89850000D03*
X115750000Y-105450000D03*
X116950000Y-81604053D03*
X117900000Y-104442000D03*
X118450000Y-104969000D03*
X120163853Y-99543856D03*
X120900000Y-99553000D03*
X121100000Y-105496000D03*
X121700000Y-115550000D03*
X125100000Y-111250000D03*
X125117952Y-103827000D03*
X125563854Y-105363854D03*
X125700000Y-114150000D03*
X126171952Y-104020636D03*
X126600000Y-110650000D03*
X126900000Y-102900000D03*
X128125000Y-119100000D03*
X128250000Y-100750000D03*
X128310374Y-100025508D03*
X128450000Y-103550000D03*
X128468916Y-113127070D03*
X128550000Y-101950000D03*
X129000000Y-111647285D03*
X129200000Y-106800000D03*
X130279050Y-100116241D03*
X130500000Y-107877000D03*
X130900000Y-100625714D03*
X131750000Y-113872361D03*
X132493285Y-110593285D03*
X133299361Y-114399361D03*
X133722646Y-92927354D03*
X134550000Y-113900000D03*
X135700000Y-93950000D03*
X136072007Y-112372007D03*
X136450000Y-98850000D03*
X138787500Y-90250000D03*
X138800000Y-92150000D03*
X138800000Y-93850000D03*
X139135358Y-88619614D03*
X139500000Y-113000000D03*
X140800000Y-97300000D03*
X141767104Y-88750000D03*
X141900000Y-112600000D03*
X142900000Y-100850000D03*
X146600000Y-99420000D03*
D11*
%TO.C,X1*%
X98800000Y-106400000D03*
X102600000Y-106400000D03*
D12*
%TO.C,U5*%
X111740000Y-109000000D03*
X111740000Y-116920000D03*
X114280000Y-109000000D03*
X114280000Y-116920000D03*
X116820000Y-109000000D03*
X116820000Y-116920000D03*
X119360000Y-109000000D03*
X119360000Y-116920000D03*
X121900000Y-109000000D03*
X121900000Y-116920000D03*
X124440000Y-109000000D03*
X124440000Y-116920000D03*
X126980000Y-109000000D03*
X126980000Y-116920000D03*
X129520000Y-109000000D03*
X129520000Y-116920000D03*
X132060000Y-109000000D03*
X132060000Y-116920000D03*
X134600000Y-109000000D03*
X134600000Y-116920000D03*
X137140000Y-109000000D03*
X137140000Y-116920000D03*
X139680000Y-109000000D03*
X139680000Y-116920000D03*
X142220000Y-109000000D03*
X142220000Y-116920000D03*
X144760000Y-109000000D03*
X144760000Y-116920000D03*
D13*
%TO.C,J2*%
X86187500Y-92250000D03*
X86187500Y-94750000D03*
X88187500Y-92250000D03*
X88187500Y-94750000D03*
%TO.C,J1*%
D14*
X82373333Y-124100000D02*
X82373333Y-122100000D01*
X86373333Y-127800000D02*
X84373333Y-127800000D01*
X88573333Y-124350000D02*
X88573333Y-121850000D01*
D15*
%TO.C,J3*%
X95460000Y-83200000D03*
X95460000Y-85740000D03*
X98000000Y-83200000D03*
X98000000Y-85740000D03*
X100540000Y-83200000D03*
X100540000Y-85740000D03*
%TO.C,J5*%
X100940000Y-79500000D03*
X103480000Y-79500000D03*
X106020000Y-79500000D03*
X108560000Y-79500000D03*
X111100000Y-79500000D03*
%TO.C,J8*%
X111160000Y-127500000D03*
%TO.C,J5*%
X113640000Y-79500000D03*
%TO.C,J8*%
X113700000Y-127500000D03*
%TO.C,J5*%
X116180000Y-79500000D03*
%TO.C,J8*%
X116240000Y-127500000D03*
%TO.C,J5*%
X118720000Y-79500000D03*
%TO.C,J8*%
X118780000Y-127500000D03*
%TO.C,J5*%
X121260000Y-79500000D03*
%TO.C,J8*%
X121320000Y-127500000D03*
%TO.C,J5*%
X123800000Y-79500000D03*
%TO.C,J8*%
X123860000Y-127500000D03*
X126400000Y-127500000D03*
%TO.C,J7*%
X127760000Y-79500000D03*
%TO.C,J8*%
X128940000Y-127500000D03*
%TO.C,J7*%
X130300000Y-79500000D03*
X132840000Y-79500000D03*
%TO.C,J6*%
X132860000Y-127500000D03*
%TO.C,J7*%
X135380000Y-79500000D03*
%TO.C,J6*%
X135400000Y-127500000D03*
%TO.C,J7*%
X137920000Y-79500000D03*
%TO.C,J6*%
X137940000Y-127500000D03*
%TO.C,J7*%
X140460000Y-79500000D03*
%TO.C,J6*%
X140480000Y-127500000D03*
%TO.C,J7*%
X143000000Y-79500000D03*
%TO.C,J6*%
X143020000Y-127500000D03*
%TO.C,J9*%
X144060000Y-99420000D03*
X144060000Y-101960000D03*
X144060000Y-104500000D03*
%TO.C,J7*%
X145540000Y-79500000D03*
%TO.C,J6*%
X145560000Y-127500000D03*
%TO.C,J9*%
X146600000Y-99420000D03*
X146600000Y-101960000D03*
X146600000Y-104500000D03*
D16*
%TO.C,J2*%
X83327500Y-87500000D03*
X83327500Y-99500000D03*
M02*
