%TF.GenerationSoftware,KiCad,Pcbnew,10.0.3*%
%TF.CreationDate,2026-07-05T12:37:48+05:45*%
%TF.ProjectId,Arduino R3,41726475-696e-46f2-9052-332e6b696361,rev?*%
%TF.SameCoordinates,Original*%
%TF.FileFunction,Copper,L4,Bot*%
%TF.FilePolarity,Positive*%
%FSLAX46Y46*%
G04 Gerber Fmt 4.6, Leading zero omitted, Abs format (unit mm)*
G04 Created by KiCad (PCBNEW 10.0.3) date 2026-07-05 12:37:48*
%MOMM*%
%LPD*%
G01*
G04 APERTURE LIST*
G04 Aperture macros list*
%AMRoundRect*
0 Rectangle with rounded corners*
0 $1 Rounding radius*
0 $2 $3 $4 $5 $6 $7 $8 $9 X,Y pos of 4 corners*
0 Add a 4 corners polygon primitive as box body*
4,1,4,$2,$3,$4,$5,$6,$7,$8,$9,$2,$3,0*
0 Add four circle primitives for the rounded corners*
1,1,$1+$1,$2,$3*
1,1,$1+$1,$4,$5*
1,1,$1+$1,$6,$7*
1,1,$1+$1,$8,$9*
0 Add four rect primitives between the rounded corners*
20,1,$1+$1,$2,$3,$4,$5,0*
20,1,$1+$1,$4,$5,$6,$7,0*
20,1,$1+$1,$6,$7,$8,$9,0*
20,1,$1+$1,$8,$9,$2,$3,0*%
G04 Aperture macros list end*
%TA.AperFunction,ComponentPad*%
%ADD10R,1.700000X1.700000*%
%TD*%
%TA.AperFunction,ComponentPad*%
%ADD11C,1.700000*%
%TD*%
%TA.AperFunction,ComponentPad*%
%ADD12C,4.000000*%
%TD*%
%TA.AperFunction,ComponentPad*%
%ADD13C,1.600000*%
%TD*%
%TA.AperFunction,ComponentPad*%
%ADD14RoundRect,0.250000X-0.550000X0.550000X-0.550000X-0.550000X0.550000X-0.550000X0.550000X0.550000X0*%
%TD*%
%TA.AperFunction,ComponentPad*%
%ADD15O,4.000000X2.000000*%
%TD*%
%TA.AperFunction,ComponentPad*%
%ADD16O,2.000000X4.000000*%
%TD*%
%TA.AperFunction,ComponentPad*%
%ADD17R,2.000000X4.500000*%
%TD*%
%TA.AperFunction,ComponentPad*%
%ADD18C,1.500000*%
%TD*%
%TA.AperFunction,ComponentPad*%
%ADD19R,1.358000X1.358000*%
%TD*%
%TA.AperFunction,ComponentPad*%
%ADD20C,1.358000*%
%TD*%
%TA.AperFunction,ViaPad*%
%ADD21C,0.600000*%
%TD*%
%TA.AperFunction,Conductor*%
%ADD22C,0.200000*%
%TD*%
%TA.AperFunction,Conductor*%
%ADD23C,0.400000*%
%TD*%
G04 APERTURE END LIST*
D10*
%TO.P,J5,1,Pin_1_1*%
%TO.N,/IO8*%
X123800000Y-79500000D03*
D11*
%TO.P,J5,2,Pin_2_2*%
%TO.N,/IO9*%
X121260000Y-79500000D03*
%TO.P,J5,3,Pin_3_3*%
%TO.N,Net-(J5-Pin_3)*%
X118720000Y-79500000D03*
%TO.P,J5,4,Pin_4_4*%
%TO.N,Net-(J5-Pin_4)*%
X116180000Y-79500000D03*
%TO.P,J5,5,Pin_5_5*%
%TO.N,Net-(J5-Pin_5)*%
X113640000Y-79500000D03*
%TO.P,J5,6,Pin_6_6*%
%TO.N,/SCK*%
X111100000Y-79500000D03*
%TO.P,J5,7,Pin_7_7*%
%TO.N,GND*%
X108560000Y-79500000D03*
%TO.P,J5,8,Pin_8_8*%
%TO.N,/AREF*%
X106020000Y-79500000D03*
%TO.P,J5,9,Pin_9_9*%
%TO.N,/AD4*%
X103480000Y-79500000D03*
%TO.P,J5,10,Pin_10_10*%
%TO.N,/AD5*%
X100940000Y-79500000D03*
%TD*%
D10*
%TO.P,J6,1,Pin_1_1*%
%TO.N,/AD0*%
X132860000Y-127500000D03*
D11*
%TO.P,J6,2,Pin_2_2*%
%TO.N,/AD1*%
X135400000Y-127500000D03*
%TO.P,J6,3,Pin_3_3*%
%TO.N,/AD2*%
X137940000Y-127500000D03*
%TO.P,J6,4,Pin_4_4*%
%TO.N,/AD3*%
X140480000Y-127500000D03*
%TO.P,J6,5,Pin_5_5*%
%TO.N,/AD4*%
X143020000Y-127500000D03*
%TO.P,J6,6,Pin_6_6*%
%TO.N,/AD5*%
X145560000Y-127500000D03*
%TD*%
D12*
%TO.P,J2,SH,Shield_SH*%
%TO.N,Net-(J2-Shield)*%
X83327500Y-87500000D03*
X83327500Y-99500000D03*
D13*
%TO.P,J2,4,GND_4*%
%TO.N,Net-(J2-GND)*%
X86187500Y-94750000D03*
%TO.P,J2,3,D+_3*%
%TO.N,Net-(J2-D+)*%
X86187500Y-92250000D03*
%TO.P,J2,2,D-_2*%
%TO.N,Net-(J2-D-)*%
X88187500Y-92250000D03*
D14*
%TO.P,J2,1,VBUS_1*%
%TO.N,Net-(J2-VBUS)*%
X88187500Y-94750000D03*
%TD*%
D15*
%TO.P,J1,3*%
%TO.N,GND*%
X85373333Y-127800000D03*
D16*
%TO.P,J1,2*%
X82373333Y-123100000D03*
D17*
%TO.P,J1,1*%
%TO.N,Net-(D1-A)*%
X88573333Y-123100000D03*
%TD*%
D10*
%TO.P,J7,1,Pin_1_1*%
%TO.N,/IO7*%
X127760000Y-79500000D03*
D11*
%TO.P,J7,2,Pin_2_2*%
%TO.N,/IO6*%
X130300000Y-79500000D03*
%TO.P,J7,3,Pin_3_3*%
%TO.N,/IO5*%
X132840000Y-79500000D03*
%TO.P,J7,4,Pin_4_4*%
%TO.N,/IO4*%
X135380000Y-79500000D03*
%TO.P,J7,5,Pin_5_5*%
%TO.N,/IO3*%
X137920000Y-79500000D03*
%TO.P,J7,6,Pin_6_6*%
%TO.N,/IO2*%
X140460000Y-79500000D03*
%TO.P,J7,7,Pin_7_7*%
%TO.N,/IO1*%
X143000000Y-79500000D03*
%TO.P,J7,8,Pin_8_8*%
%TO.N,/IO0*%
X145540000Y-79500000D03*
%TD*%
%TO.P,J3,6,Pin_6_6*%
%TO.N,GND*%
X95460000Y-85740000D03*
%TO.P,J3,5,Pin_5_5*%
%TO.N,Net-(D2-A)*%
X95460000Y-83200000D03*
%TO.P,J3,4,Pin_4_4*%
%TO.N,/MOSI2*%
X98000000Y-85740000D03*
%TO.P,J3,3,Pin_3_3*%
%TO.N,/SCK2*%
X98000000Y-83200000D03*
%TO.P,J3,2,Pin_2_2*%
%TO.N,+5V*%
X100540000Y-85740000D03*
D10*
%TO.P,J3,1,Pin_1_1*%
%TO.N,/MISO2*%
X100540000Y-83200000D03*
%TD*%
%TO.P,J9,1,Pin_1_1*%
%TO.N,Net-(J5-Pin_5)*%
X144060000Y-99420000D03*
D11*
%TO.P,J9,2,Pin_2_2*%
%TO.N,+5V*%
X146600000Y-99420000D03*
%TO.P,J9,3,Pin_3_3*%
%TO.N,/SCK*%
X144060000Y-101960000D03*
%TO.P,J9,4,Pin_4_4*%
%TO.N,Net-(J5-Pin_4)*%
X146600000Y-101960000D03*
%TO.P,J9,5,Pin_5_5*%
%TO.N,Net-(J8-Pin_3)*%
X144060000Y-104500000D03*
%TO.P,J9,6,Pin_6_6*%
%TO.N,GND*%
X146600000Y-104500000D03*
%TD*%
D18*
%TO.P,X1,1,1_1*%
%TO.N,Net-(U1-PC0{slash}XTAL2)*%
X102600000Y-106400000D03*
%TO.P,X1,2,2_2*%
%TO.N,Net-(U1-XTAL1)*%
X98800000Y-106400000D03*
%TD*%
D10*
%TO.P,J8,1,Pin_1_1*%
%TO.N,unconnected-(J8-Pin_1-Pad1)*%
X128940000Y-127500000D03*
D11*
%TO.P,J8,2,Pin_2_2*%
%TO.N,+5V*%
X126400000Y-127500000D03*
%TO.P,J8,3,Pin_3_3*%
%TO.N,Net-(J8-Pin_3)*%
X123860000Y-127500000D03*
%TO.P,J8,4,Pin_4_4*%
%TO.N,+3V3*%
X121320000Y-127500000D03*
%TO.P,J8,5,Pin_5_5*%
%TO.N,+5V*%
X118780000Y-127500000D03*
%TO.P,J8,6,Pin_6_6*%
%TO.N,GND*%
X116240000Y-127500000D03*
%TO.P,J8,7,Pin_7_7*%
X113700000Y-127500000D03*
%TO.P,J8,8,Pin_8_8*%
%TO.N,VIN*%
X111160000Y-127500000D03*
%TD*%
D19*
%TO.P,U5,1,PC6/~{RESET}_1*%
%TO.N,/RST*%
X144760000Y-109000000D03*
D20*
%TO.P,U5,2,PD0_2*%
%TO.N,/IO0*%
X142220000Y-109000000D03*
%TO.P,U5,3,PD1_3*%
%TO.N,/IO1*%
X139680000Y-109000000D03*
%TO.P,U5,4,PD2_4*%
%TO.N,/IO2*%
X137140000Y-109000000D03*
%TO.P,U5,5,PD3_5*%
%TO.N,/IO3*%
X134600000Y-109000000D03*
%TO.P,U5,6,PD4_6*%
%TO.N,/IO4*%
X132060000Y-109000000D03*
%TO.P,U5,7,VCC_7*%
%TO.N,+5V*%
X129520000Y-109000000D03*
%TO.P,U5,8,GND_8*%
%TO.N,GND*%
X126980000Y-109000000D03*
%TO.P,U5,9,PB6_9*%
%TO.N,unconnected-(U5-PB6-Pad9)*%
X124440000Y-109000000D03*
%TO.P,U5,10,PB7_10*%
%TO.N,unconnected-(U5-PB7-Pad10)*%
X121900000Y-109000000D03*
%TO.P,U5,11,PD5_11*%
%TO.N,/IO5*%
X119360000Y-109000000D03*
%TO.P,U5,12,PD6_12*%
%TO.N,/IO6*%
X116820000Y-109000000D03*
%TO.P,U5,13,PD7_13*%
%TO.N,/IO7*%
X114280000Y-109000000D03*
%TO.P,U5,14,PB0_14*%
%TO.N,/IO8*%
X111740000Y-109000000D03*
%TO.P,U5,15,PB1_15*%
%TO.N,/IO9*%
X111740000Y-116920000D03*
%TO.P,U5,16,PB2_16*%
%TO.N,Net-(J5-Pin_3)*%
X114280000Y-116920000D03*
%TO.P,U5,17,PB3_17*%
%TO.N,Net-(J5-Pin_4)*%
X116820000Y-116920000D03*
%TO.P,U5,18,PB4_18*%
%TO.N,Net-(J5-Pin_5)*%
X119360000Y-116920000D03*
%TO.P,U5,19,PB5_19*%
%TO.N,/SCK*%
X121900000Y-116920000D03*
%TO.P,U5,20,AVCC_20*%
%TO.N,+5V*%
X124440000Y-116920000D03*
%TO.P,U5,21,AREF_21*%
%TO.N,/AREF*%
X126980000Y-116920000D03*
%TO.P,U5,22,GND__1_22*%
%TO.N,GND*%
X129520000Y-116920000D03*
%TO.P,U5,23,PC0_23*%
%TO.N,/AD0*%
X132060000Y-116920000D03*
%TO.P,U5,24,PC1_24*%
%TO.N,/AD1*%
X134600000Y-116920000D03*
%TO.P,U5,25,PC2_25*%
%TO.N,/AD2*%
X137140000Y-116920000D03*
%TO.P,U5,26,PC3_26*%
%TO.N,/AD3*%
X139680000Y-116920000D03*
%TO.P,U5,27,PC4_27*%
%TO.N,/AD4*%
X142220000Y-116920000D03*
%TO.P,U5,28,PC5_28*%
%TO.N,/AD5*%
X144760000Y-116920000D03*
%TD*%
D21*
%TO.N,/MISO2*%
X100700000Y-94100000D03*
X103877000Y-85150646D03*
%TO.N,GND*%
X105725000Y-97300000D03*
X105700000Y-101294500D03*
%TO.N,Net-(U1-UCAP)*%
X93100000Y-97000000D03*
X94916540Y-97278750D03*
%TO.N,Net-(U1-D-)*%
X94300000Y-99700000D03*
%TO.N,Net-(U1-D+)*%
X94906372Y-98738920D03*
%TO.N,/USBVCC*%
X94823604Y-100273604D03*
%TO.N,Net-(J2-Shield)*%
X90500000Y-99500000D03*
%TO.N,GND*%
X97300000Y-109850000D03*
%TO.N,+5V*%
X99035498Y-110847998D03*
X98150000Y-115650000D03*
%TO.N,Net-(J2-GND)*%
X92300000Y-99950000D03*
X108100000Y-102850000D03*
%TO.N,GND*%
X134550000Y-113900000D03*
X139500000Y-113000000D03*
X141900000Y-112600000D03*
X103762500Y-114600000D03*
X101604289Y-112154289D03*
X93500000Y-114100000D03*
%TO.N,/TX_LED*%
X107900000Y-98173000D03*
%TO.N,/RX_LED*%
X109062500Y-93800000D03*
X108300000Y-99227000D03*
%TO.N,Net-(U1-D+)*%
X94226999Y-96477710D03*
%TO.N,Net-(U1-D-)*%
X92925000Y-92300000D03*
%TO.N,Net-(D2-A)*%
X91200000Y-101900000D03*
X93527000Y-98627710D03*
X102065000Y-95200000D03*
X97423000Y-94650000D03*
%TO.N,Net-(J4-Pin_2)*%
X95370000Y-92100000D03*
X98650000Y-90600000D03*
%TO.N,+5V*%
X98000000Y-102500000D03*
%TO.N,/USBVCC*%
X92766667Y-101500000D03*
X107950000Y-104900000D03*
%TO.N,Net-(U3A-+)*%
X102281122Y-111708385D03*
X109600000Y-106600000D03*
%TO.N,GND*%
X95100000Y-111427500D03*
%TO.N,*%
X92150000Y-112400000D03*
X93900000Y-110750000D03*
%TO.N,Net-(U1-XTAL1)*%
X93350000Y-108000000D03*
%TO.N,Net-(U1-PC0{slash}XTAL2)*%
X98340874Y-105195582D03*
X96650000Y-111427500D03*
%TO.N,Net-(U1-XTAL1)*%
X102600000Y-109600000D03*
%TO.N,Net-(U1-PC0{slash}XTAL2)*%
X104550000Y-109500000D03*
%TO.N,GND*%
X114950000Y-89850000D03*
X110937500Y-90000000D03*
%TO.N,Net-(D5-A)*%
X110900000Y-94000000D03*
X113257656Y-93950282D03*
%TO.N,Net-(D6-A)*%
X110937500Y-96200000D03*
X113800000Y-96250000D03*
%TO.N,Net-(J5-Pin_4)*%
X117900000Y-104442000D03*
X120163853Y-99543856D03*
X116950000Y-81604053D03*
%TO.N,Net-(J5-Pin_3)*%
X133722646Y-92927354D03*
X118450000Y-104969000D03*
X120900000Y-99553000D03*
%TO.N,+5V*%
X130500000Y-107877000D03*
%TO.N,GND*%
X126900000Y-102900000D03*
X125117952Y-103827000D03*
X131750000Y-113872361D03*
X128468916Y-113127070D03*
%TO.N,/SCK*%
X110100000Y-112000000D03*
X111650000Y-111900000D03*
X121700000Y-115550000D03*
%TO.N,GND*%
X141767104Y-88750000D03*
X139135358Y-88619614D03*
X138787500Y-90250000D03*
%TO.N,/SCK*%
X114450000Y-83691448D03*
X128550000Y-101950000D03*
X115750000Y-105450000D03*
X103000000Y-111600000D03*
X111750000Y-81127000D03*
%TO.N,Net-(J8-Pin_3)*%
X133299361Y-114399361D03*
X125100000Y-111250000D03*
X121100000Y-105496000D03*
X110050000Y-98700000D03*
%TO.N,/AD5*%
X128450000Y-103550000D03*
X129000000Y-111647285D03*
X136072007Y-112372007D03*
%TO.N,/AD4*%
X126171952Y-104020636D03*
X126600000Y-110650000D03*
%TO.N,/AREF*%
X125563854Y-105363854D03*
X125700000Y-114150000D03*
%TO.N,GND*%
X108900000Y-81800000D03*
%TO.N,Net-(U3B--)*%
X109150000Y-99300000D03*
X106900000Y-102200000D03*
%TO.N,+3V3*%
X100100000Y-113873000D03*
X108800000Y-113550000D03*
%TO.N,Net-(U1-PD3)*%
X128310374Y-100025508D03*
X130279050Y-100116241D03*
%TO.N,Net-(U1-PD2)*%
X128250000Y-100750000D03*
X130900000Y-100625714D03*
%TO.N,+5V*%
X135700000Y-93950000D03*
X146600000Y-99420000D03*
X142900000Y-100850000D03*
X132493285Y-110593285D03*
%TO.N,Net-(J5-Pin_5)*%
X136450000Y-98850000D03*
%TO.N,/IO0*%
X140800000Y-97300000D03*
%TO.N,+5V*%
X129200000Y-106800000D03*
X138800000Y-93850000D03*
X138800000Y-92150000D03*
X128125000Y-119100000D03*
X112050000Y-123200000D03*
X103762500Y-113650000D03*
X105900000Y-115600000D03*
X106037500Y-115550000D03*
X104700000Y-119050000D03*
X87125000Y-108125000D03*
X94000000Y-101900000D03*
X103715000Y-95200000D03*
X109050000Y-88100000D03*
X109100000Y-86500000D03*
X108750000Y-84700000D03*
X92600000Y-78700000D03*
X91500000Y-83400000D03*
%TO.N,Net-(J2-Shield)*%
X92437000Y-89800657D03*
X92257000Y-98300657D03*
%TO.N,Net-(J2-D+)*%
X89400000Y-98300000D03*
X89353267Y-96396425D03*
%TO.N,Net-(J2-VBUS)*%
X86500000Y-100500000D03*
X88627896Y-96445104D03*
%TD*%
%TO.N,/MISO2*%
D22*
X103877000Y-85150646D02*
X103877000Y-90923000D01*
X103877000Y-90923000D02*
X100700000Y-94100000D01*
%TO.N,Net-(U3B--)*%
X109050000Y-99300000D02*
X109150000Y-99300000D01*
X106900000Y-102200000D02*
X109050000Y-99300000D01*
%TO.N,GND*%
X106125000Y-96900000D02*
X105725000Y-97300000D01*
X108427000Y-98391291D02*
X108427000Y-97127000D01*
X108118291Y-98700000D02*
X108427000Y-98391291D01*
X108081709Y-98700000D02*
X108118291Y-98700000D01*
X105700000Y-101294500D02*
X105700000Y-101081709D01*
X108200000Y-96900000D02*
X106125000Y-96900000D01*
X108427000Y-97127000D02*
X108200000Y-96900000D01*
X105700000Y-101081709D02*
X108081709Y-98700000D01*
%TO.N,Net-(U1-UCAP)*%
X93100000Y-95950000D02*
X93100000Y-97000000D01*
X93950000Y-95100000D02*
X93100000Y-95950000D01*
X94800000Y-95100000D02*
X93950000Y-95100000D01*
X95050000Y-95350000D02*
X94800000Y-95100000D01*
X95050000Y-97145290D02*
X95050000Y-95350000D01*
X94916540Y-97278750D02*
X95050000Y-97145290D01*
%TO.N,Net-(U1-D-)*%
X92450000Y-92300000D02*
X92925000Y-92300000D01*
X92400000Y-92350000D02*
X92450000Y-92300000D01*
X92300000Y-92350000D02*
X92400000Y-92350000D01*
X92300000Y-97100000D02*
X92300000Y-92350000D01*
X93000000Y-97800000D02*
X92300000Y-97100000D01*
X93505004Y-97800000D02*
X93000000Y-97800000D01*
X94300000Y-98594996D02*
X93505004Y-97800000D01*
X94300000Y-99700000D02*
X94300000Y-98594996D01*
%TO.N,Net-(U1-D+)*%
X94226999Y-98059547D02*
X94226999Y-96477710D01*
X94906372Y-98738920D02*
X94226999Y-98059547D01*
%TO.N,/USBVCC*%
X94823604Y-100273604D02*
X94823604Y-101023604D01*
X94823604Y-101023604D02*
X95050000Y-101250000D01*
X104850000Y-101800000D02*
X107950000Y-104900000D01*
X95500000Y-102000000D02*
X104850000Y-101800000D01*
X95050000Y-101250000D02*
X95500000Y-102000000D01*
X92766667Y-101500000D02*
X95050000Y-101250000D01*
%TO.N,Net-(D2-A)*%
X91150000Y-101950000D02*
X91150000Y-102450000D01*
X93527000Y-99573000D02*
X91150000Y-101950000D01*
X93527000Y-98627710D02*
X93527000Y-99573000D01*
%TO.N,+5V*%
X94550000Y-102450000D02*
X93950000Y-102450000D01*
X94600000Y-102500000D02*
X94550000Y-102450000D01*
X98000000Y-102500000D02*
X94600000Y-102500000D01*
%TO.N,Net-(J2-Shield)*%
X90350000Y-99350000D02*
X90500000Y-99500000D01*
X90350000Y-91850000D02*
X90350000Y-99350000D01*
X92200000Y-90700000D02*
X91500000Y-90700000D01*
X92400000Y-90500000D02*
X92200000Y-90700000D01*
X91500000Y-90700000D02*
X90350000Y-91850000D01*
X92400000Y-89837657D02*
X92400000Y-90500000D01*
X92437000Y-89800657D02*
X92400000Y-89837657D01*
%TO.N,GND*%
D23*
X101300000Y-109850000D02*
X97300000Y-109850000D01*
X101604289Y-110154289D02*
X101300000Y-109850000D01*
X101604289Y-112154289D02*
X101604289Y-110154289D01*
%TO.N,+5V*%
D22*
X98150000Y-111733496D02*
X99035498Y-110847998D01*
X98150000Y-115650000D02*
X98150000Y-111733496D01*
%TO.N,Net-(J2-GND)*%
X91750000Y-100500000D02*
X92300000Y-99950000D01*
X90050000Y-100500000D02*
X91750000Y-100500000D01*
X89300000Y-101250000D02*
X90050000Y-100500000D01*
X90350000Y-103800000D02*
X89300000Y-102750000D01*
X103750000Y-103800000D02*
X90350000Y-103800000D01*
X105600000Y-105650000D02*
X103750000Y-103800000D01*
X107945291Y-105650000D02*
X105600000Y-105650000D01*
X108477000Y-105118291D02*
X107945291Y-105650000D01*
X108477000Y-103227000D02*
X108477000Y-105118291D01*
X108100000Y-102850000D02*
X108477000Y-103227000D01*
X89300000Y-102750000D02*
X89300000Y-101250000D01*
%TO.N,GND*%
X134522361Y-113872361D02*
X131750000Y-113872361D01*
X139900000Y-112600000D02*
X139500000Y-113000000D01*
X141900000Y-112600000D02*
X139900000Y-112600000D01*
X134550000Y-113900000D02*
X134522361Y-113872361D01*
%TO.N,+3V3*%
D23*
X100100000Y-115500000D02*
X100100000Y-113873000D01*
X101226349Y-116626349D02*
X100100000Y-115500000D01*
X110023651Y-116626349D02*
X108800000Y-115402699D01*
X110023651Y-116626349D02*
X101226349Y-116626349D01*
%TO.N,GND*%
X101604289Y-112441789D02*
X103762500Y-114600000D01*
X101604289Y-112154289D02*
X101604289Y-112441789D01*
D22*
X95100000Y-112500000D02*
X93500000Y-114100000D01*
X95100000Y-111427500D02*
X95100000Y-112500000D01*
%TO.N,/TX_LED*%
X107900000Y-98173000D02*
X106493000Y-99580000D01*
X106493000Y-99580000D02*
X100637500Y-99580000D01*
%TO.N,/RX_LED*%
X109150000Y-93800000D02*
X109062500Y-93800000D01*
X109900000Y-94550000D02*
X109150000Y-93800000D01*
X108300000Y-99227000D02*
X109900000Y-97627000D01*
X109900000Y-97627000D02*
X109900000Y-94550000D01*
%TO.N,Net-(U1-D-)*%
X93325000Y-92700000D02*
X92925000Y-92300000D01*
X93700000Y-92700000D02*
X93325000Y-92700000D01*
%TO.N,Net-(D2-A)*%
X101515000Y-94650000D02*
X102065000Y-95200000D01*
X97423000Y-94650000D02*
X101515000Y-94650000D01*
%TO.N,Net-(J4-Pin_2)*%
X96870000Y-90600000D02*
X95370000Y-92100000D01*
X98650000Y-90600000D02*
X96870000Y-90600000D01*
%TO.N,Net-(U3A-+)*%
X110173000Y-107173000D02*
X109600000Y-106600000D01*
X110173000Y-111473000D02*
X110173000Y-107173000D01*
X109250000Y-111473000D02*
X110173000Y-111473000D01*
X109050000Y-111673000D02*
X109250000Y-111473000D01*
X103923000Y-111673000D02*
X109050000Y-111673000D01*
X103323000Y-111073000D02*
X103923000Y-111673000D01*
X102781709Y-111073000D02*
X103323000Y-111073000D01*
X102281122Y-111573587D02*
X102781709Y-111073000D01*
X102281122Y-111708385D02*
X102281122Y-111573587D01*
%TO.N,*%
X92250000Y-112400000D02*
X92150000Y-112400000D01*
X93900000Y-110750000D02*
X92250000Y-112400000D01*
%TO.N,Net-(U1-XTAL1)*%
X99250000Y-105950000D02*
X98800000Y-106400000D01*
X99250000Y-104750000D02*
X99250000Y-105950000D01*
X99168582Y-104668582D02*
X99250000Y-104750000D01*
X96681418Y-104668582D02*
X99168582Y-104668582D01*
X93350000Y-108000000D02*
X96681418Y-104668582D01*
%TO.N,Net-(U1-PC0{slash}XTAL2)*%
X96650000Y-106886456D02*
X98340874Y-105195582D01*
X96650000Y-111427500D02*
X96650000Y-106886456D01*
%TO.N,Net-(U1-XTAL1)*%
X102000000Y-109600000D02*
X102600000Y-109600000D01*
X98800000Y-106400000D02*
X102000000Y-109600000D01*
%TO.N,Net-(U1-PC0{slash}XTAL2)*%
X102600000Y-107550000D02*
X104550000Y-109500000D01*
X102600000Y-106400000D02*
X102600000Y-107550000D01*
%TO.N,GND*%
X114800000Y-90000000D02*
X114950000Y-89850000D01*
X110937500Y-90000000D02*
X114800000Y-90000000D01*
%TO.N,Net-(D5-A)*%
X113207938Y-94000000D02*
X110900000Y-94000000D01*
X113257656Y-93950282D02*
X113207938Y-94000000D01*
%TO.N,Net-(D6-A)*%
X113800000Y-96250000D02*
X110937500Y-96200000D01*
%TO.N,Net-(J5-Pin_4)*%
X118100000Y-101800000D02*
X120163853Y-99543856D01*
X118100000Y-104100000D02*
X118100000Y-101800000D01*
X117900000Y-104442000D02*
X118100000Y-104100000D01*
X116180000Y-80834053D02*
X116950000Y-81604053D01*
X116180000Y-79500000D02*
X116180000Y-80834053D01*
%TO.N,Net-(J5-Pin_3)*%
X137204354Y-92927354D02*
X133722646Y-92927354D01*
X137900000Y-92150000D02*
X137204354Y-92927354D01*
X137800000Y-89600000D02*
X137900000Y-92150000D01*
X138450000Y-88950000D02*
X137800000Y-89600000D01*
X138450000Y-88559681D02*
X138450000Y-88950000D01*
X141967104Y-83994104D02*
X141967104Y-88050000D01*
X138959681Y-88050000D02*
X138450000Y-88559681D01*
X124924552Y-83627000D02*
X141600000Y-83627000D01*
X123101605Y-81804053D02*
X124924552Y-83627000D01*
X121024053Y-81804053D02*
X123101605Y-81804053D01*
X141600000Y-83627000D02*
X141967104Y-83994104D01*
X118720000Y-79500000D02*
X121024053Y-81804053D01*
X141967104Y-88050000D02*
X138959681Y-88050000D01*
X120900000Y-99553000D02*
X118450000Y-102003000D01*
X118450000Y-102003000D02*
X118450000Y-104969000D01*
%TO.N,+5V*%
X129520000Y-109000000D02*
X129520000Y-108857000D01*
X129520000Y-108857000D02*
X130500000Y-107877000D01*
%TO.N,GND*%
X126044952Y-102900000D02*
X126900000Y-102900000D01*
X125117952Y-103827000D02*
X126044952Y-102900000D01*
X129214207Y-113872361D02*
X131750000Y-113872361D01*
X128468916Y-113127070D02*
X129214207Y-113872361D01*
%TO.N,/SCK*%
X110100000Y-112000000D02*
X110500000Y-112000000D01*
X115300000Y-115550000D02*
X111650000Y-111900000D01*
X121700000Y-115550000D02*
X115300000Y-115550000D01*
%TO.N,GND*%
X141636718Y-88619614D02*
X141767104Y-88750000D01*
X139135358Y-88619614D02*
X141636718Y-88619614D01*
%TO.N,/SCK*%
X111750000Y-80150000D02*
X111100000Y-79500000D01*
X111750000Y-81127000D02*
X111750000Y-80150000D01*
X114450000Y-83491448D02*
X114450000Y-83691448D01*
X121691656Y-83491448D02*
X114450000Y-83491448D01*
X134929328Y-96729120D02*
X121691656Y-83491448D01*
X135669000Y-100201635D02*
X134929328Y-99461963D01*
X135477000Y-103373000D02*
X135669000Y-103181000D01*
X129723000Y-103373000D02*
X135477000Y-103373000D01*
X128550000Y-102200000D02*
X129723000Y-103373000D01*
X135669000Y-103181000D02*
X135669000Y-100201635D01*
X113546274Y-105450000D02*
X115750000Y-105450000D01*
X134929328Y-99461963D02*
X134929328Y-96729120D01*
X110500000Y-108496274D02*
X113546274Y-105450000D01*
X128550000Y-101950000D02*
X128550000Y-102200000D01*
X110500000Y-112000000D02*
X110500000Y-108496274D01*
X103400000Y-112000000D02*
X110100000Y-112000000D01*
X103000000Y-111600000D02*
X103400000Y-112000000D01*
%TO.N,Net-(J8-Pin_3)*%
X128249361Y-114399361D02*
X133299361Y-114399361D01*
X125100000Y-111250000D02*
X128249361Y-114399361D01*
X116846000Y-105496000D02*
X121100000Y-105496000D01*
X110050000Y-98700000D02*
X116846000Y-105496000D01*
%TO.N,/AD5*%
X104604448Y-83164448D02*
X100940000Y-79500000D01*
X121827104Y-83164448D02*
X104604448Y-83164448D01*
X135256328Y-96593672D02*
X121827104Y-83164448D01*
X135256328Y-99326515D02*
X135256328Y-96593672D01*
X135996000Y-100066187D02*
X135256328Y-99326515D01*
X135996000Y-103554000D02*
X135996000Y-100066187D01*
X135850000Y-103700000D02*
X135996000Y-103554000D01*
X128600000Y-103700000D02*
X135850000Y-103700000D01*
X128450000Y-103550000D02*
X128600000Y-103700000D01*
X136072007Y-112372007D02*
X135300000Y-111600000D01*
X135300000Y-111600000D02*
X129047285Y-111600000D01*
X129047285Y-111600000D02*
X129000000Y-111647285D01*
%TO.N,/AD4*%
X106817448Y-82837448D02*
X103480000Y-79500000D01*
X121962552Y-82837448D02*
X106817448Y-82837448D01*
X135660552Y-96535448D02*
X121962552Y-82837448D01*
X135596000Y-99203739D02*
X135596000Y-96600000D01*
X136323000Y-99930739D02*
X135596000Y-99203739D01*
X136323000Y-104027000D02*
X136323000Y-99930739D01*
X136227448Y-104122552D02*
X136323000Y-104027000D01*
X126273868Y-104122552D02*
X136227448Y-104122552D01*
X126171952Y-104020636D02*
X126273868Y-104122552D01*
X135596000Y-96600000D02*
X135660552Y-96535448D01*
X127070285Y-111120285D02*
X126600000Y-110650000D01*
X136420285Y-111120285D02*
X127070285Y-111120285D01*
X142220000Y-116920000D02*
X136420285Y-111120285D01*
%TO.N,/AREF*%
X125700000Y-114150000D02*
X125700000Y-115640000D01*
X136688000Y-104449552D02*
X126478156Y-104449552D01*
X136688000Y-99888000D02*
X136688000Y-104449552D01*
X136650000Y-99850000D02*
X136688000Y-99888000D01*
X136650000Y-99700000D02*
X136650000Y-99850000D01*
X136554709Y-99700000D02*
X136650000Y-99700000D01*
X135923000Y-99068291D02*
X136554709Y-99700000D01*
X125700000Y-115640000D02*
X126980000Y-116920000D01*
X136123000Y-96535448D02*
X135923000Y-96735448D01*
X122150000Y-82562448D02*
X136123000Y-96535448D01*
X122150000Y-82458053D02*
X122150000Y-82562448D01*
X108812762Y-82458053D02*
X122150000Y-82458053D01*
X126478156Y-104449552D02*
X125563854Y-105363854D01*
X106020000Y-79665291D02*
X108812762Y-82458053D01*
X135923000Y-96735448D02*
X135923000Y-99068291D01*
X106020000Y-79500000D02*
X106020000Y-79665291D01*
%TO.N,GND*%
X108560000Y-81460000D02*
X108900000Y-81800000D01*
X108560000Y-79500000D02*
X108560000Y-81460000D01*
%TO.N,+3V3*%
D23*
X108800000Y-115402699D02*
X108800000Y-113550000D01*
X120897301Y-127500000D02*
X110023651Y-116626349D01*
X121320000Y-127500000D02*
X120897301Y-127500000D01*
%TO.N,Net-(J5-Pin_4)*%
D22*
X119854000Y-119954000D02*
X116820000Y-116920000D01*
X137123000Y-119954000D02*
X119854000Y-119954000D01*
X137300000Y-119777000D02*
X137123000Y-119954000D01*
X145035448Y-119777000D02*
X137300000Y-119777000D01*
X146327000Y-118485448D02*
X145035448Y-119777000D01*
X146327000Y-113050000D02*
X146327000Y-118485448D01*
X147677000Y-111700000D02*
X146327000Y-113050000D01*
X147677000Y-103037000D02*
X147677000Y-111700000D01*
X146600000Y-101960000D02*
X147677000Y-103037000D01*
%TO.N,/SCK*%
X121900000Y-118350000D02*
X121900000Y-116920000D01*
X123177000Y-119627000D02*
X121900000Y-118350000D01*
X136523000Y-119627000D02*
X123177000Y-119627000D01*
X136700000Y-119450000D02*
X136523000Y-119627000D01*
X144900000Y-119450000D02*
X136700000Y-119450000D01*
X146000000Y-118350000D02*
X144900000Y-119450000D01*
X146000000Y-108050000D02*
X146000000Y-118350000D01*
X146150000Y-107900000D02*
X146000000Y-108050000D01*
X145523000Y-107273000D02*
X146150000Y-107900000D01*
X145523000Y-103423000D02*
X145523000Y-107273000D01*
X144060000Y-101960000D02*
X145523000Y-103423000D01*
%TO.N,Net-(U1-PD2)*%
X128300000Y-100700000D02*
X128250000Y-100750000D01*
X130900000Y-100625714D02*
X128300000Y-100700000D01*
%TO.N,Net-(U1-PD3)*%
X128434866Y-100150000D02*
X128310374Y-100025508D01*
X130279050Y-100116241D02*
X130245291Y-100150000D01*
X130245291Y-100150000D02*
X128434866Y-100150000D01*
%TO.N,+5V*%
X135800000Y-93850000D02*
X135700000Y-93950000D01*
X138800000Y-93850000D02*
X135800000Y-93850000D01*
X129520000Y-110516570D02*
X129520000Y-109000000D01*
X132493285Y-110593285D02*
X129596715Y-110593285D01*
X129596715Y-110593285D02*
X129520000Y-110516570D01*
X145170000Y-100850000D02*
X142900000Y-100850000D01*
X146600000Y-99420000D02*
X145170000Y-100850000D01*
%TO.N,Net-(J5-Pin_5)*%
X122496136Y-82131053D02*
X116271053Y-82131053D01*
X122496136Y-82446136D02*
X122496136Y-82131053D01*
X116271053Y-82131053D02*
X113640000Y-79500000D01*
X136450000Y-96400000D02*
X122496136Y-82446136D01*
X136450000Y-98850000D02*
X136450000Y-96400000D01*
%TO.N,/IO9*%
X110834000Y-116014000D02*
X111740000Y-116920000D01*
X110834000Y-108624722D02*
X110834000Y-116014000D01*
X113435722Y-106023000D02*
X110834000Y-108624722D01*
X125650000Y-106023000D02*
X113435722Y-106023000D01*
X126858000Y-104815000D02*
X125650000Y-106023000D01*
X142294104Y-91331208D02*
X137015000Y-96610312D01*
X137015000Y-96610312D02*
X137015000Y-104585000D01*
X136785000Y-104815000D02*
X126858000Y-104815000D01*
X142294104Y-83785448D02*
X142294104Y-91331208D01*
X141808656Y-83300000D02*
X142294104Y-83785448D01*
X125060000Y-83300000D02*
X141808656Y-83300000D01*
X121260000Y-79500000D02*
X125060000Y-83300000D01*
X137015000Y-104585000D02*
X136785000Y-104815000D01*
%TO.N,/IO8*%
X123800000Y-80950000D02*
X123800000Y-79500000D01*
X125754000Y-82904000D02*
X123800000Y-80950000D01*
X141875104Y-82904000D02*
X125754000Y-82904000D01*
X142621104Y-83650000D02*
X141875104Y-82904000D01*
X142621104Y-91466656D02*
X142621104Y-83650000D01*
X137008000Y-105142000D02*
X137342000Y-104808000D01*
X127006104Y-105142000D02*
X137008000Y-105142000D01*
X137342000Y-104808000D02*
X137342000Y-96745760D01*
X137342000Y-96745760D02*
X142621104Y-91466656D01*
X125798104Y-106350000D02*
X127006104Y-105142000D01*
X111740000Y-109000000D02*
X114390000Y-106350000D01*
X114390000Y-106350000D02*
X125798104Y-106350000D01*
%TO.N,/IO7*%
X130837000Y-82577000D02*
X127760000Y-79500000D01*
X142377000Y-82577000D02*
X130837000Y-82577000D01*
X142948104Y-83148104D02*
X142377000Y-82577000D01*
X137669000Y-96881208D02*
X142948104Y-91602104D01*
X127141552Y-105469000D02*
X137514552Y-105469000D01*
X125914552Y-106696000D02*
X127141552Y-105469000D01*
X137514552Y-105469000D02*
X137669000Y-105314552D01*
X116584000Y-106696000D02*
X125914552Y-106696000D01*
X142948104Y-91602104D02*
X142948104Y-83148104D01*
X114280000Y-109000000D02*
X116584000Y-106696000D01*
X137669000Y-105314552D02*
X137669000Y-96881208D01*
%TO.N,/IO6*%
X118797000Y-107023000D02*
X116820000Y-109000000D01*
X126050000Y-107023000D02*
X118797000Y-107023000D01*
X127277000Y-105796000D02*
X126050000Y-107023000D01*
X137650000Y-105796000D02*
X127277000Y-105796000D01*
X137996000Y-97016656D02*
X137996000Y-105450000D01*
X137996000Y-105450000D02*
X137650000Y-105796000D01*
X143275104Y-82374896D02*
X143275104Y-91737552D01*
X143150208Y-82250000D02*
X143275104Y-82374896D01*
X133050000Y-82250000D02*
X143150208Y-82250000D01*
X143275104Y-91737552D02*
X137996000Y-97016656D01*
X130300000Y-79500000D02*
X133050000Y-82250000D01*
%TO.N,/IO5*%
X135221000Y-81881000D02*
X132840000Y-79500000D01*
X143243656Y-81881000D02*
X135221000Y-81881000D01*
X143842000Y-82479344D02*
X143243656Y-81881000D01*
X143842000Y-91633104D02*
X143842000Y-82479344D01*
X138323000Y-97152104D02*
X143842000Y-91633104D01*
X138323000Y-105977000D02*
X138323000Y-97152104D01*
X138177000Y-106123000D02*
X138323000Y-105977000D01*
X134427000Y-106123000D02*
X138177000Y-106123000D01*
X133200000Y-107350000D02*
X134427000Y-106123000D01*
X121010000Y-107350000D02*
X133200000Y-107350000D01*
X119360000Y-109000000D02*
X121010000Y-107350000D01*
%TO.N,/IO4*%
X137434000Y-81554000D02*
X135380000Y-79500000D01*
X143379104Y-81554000D02*
X137434000Y-81554000D01*
X144169000Y-82343896D02*
X143379104Y-81554000D01*
X144169000Y-91768552D02*
X144169000Y-82343896D01*
X138650000Y-97287552D02*
X144169000Y-91768552D01*
X138650000Y-106450000D02*
X138650000Y-97287552D01*
X134610000Y-106450000D02*
X138650000Y-106450000D01*
X132060000Y-109000000D02*
X134610000Y-106450000D01*
%TO.N,/IO3*%
X139647000Y-81227000D02*
X137920000Y-79500000D01*
X144496000Y-91904000D02*
X144496000Y-82208448D01*
X139026000Y-97374000D02*
X144496000Y-91904000D01*
X139026000Y-106574000D02*
X139026000Y-97374000D01*
X143514552Y-81227000D02*
X139647000Y-81227000D01*
X138800000Y-106800000D02*
X139026000Y-106574000D01*
X136800000Y-106800000D02*
X138800000Y-106800000D01*
X144496000Y-82208448D02*
X143514552Y-81227000D01*
X134600000Y-109000000D02*
X136800000Y-106800000D01*
%TO.N,/IO2*%
X140460000Y-79910000D02*
X140460000Y-79500000D01*
X141450000Y-80900000D02*
X140460000Y-79910000D01*
X143650000Y-80900000D02*
X141450000Y-80900000D01*
X144823000Y-82073000D02*
X143650000Y-80900000D01*
X144823000Y-92100000D02*
X144823000Y-82073000D01*
X144792261Y-92100000D02*
X144823000Y-92100000D01*
X139353000Y-97539261D02*
X144792261Y-92100000D01*
X139353000Y-106787000D02*
X139353000Y-97539261D01*
X137140000Y-109000000D02*
X139353000Y-106787000D01*
%TO.N,/IO1*%
X143700000Y-79500000D02*
X143000000Y-79500000D01*
X145150000Y-92250000D02*
X145150000Y-80950000D01*
X143050000Y-94350000D02*
X145150000Y-92250000D01*
X139680000Y-97674709D02*
X143004709Y-94350000D01*
X145150000Y-80950000D02*
X143700000Y-79500000D01*
X139680000Y-109000000D02*
X139680000Y-97674709D01*
X143004709Y-94350000D02*
X143050000Y-94350000D01*
%TO.N,/IO0*%
X142220000Y-98720000D02*
X140800000Y-97300000D01*
X142220000Y-109000000D02*
X142220000Y-98720000D01*
%TO.N,Net-(J2-Shield)*%
X92257000Y-89980657D02*
X92437000Y-89800657D01*
%TO.N,Net-(J2-D+)*%
X89353267Y-96396425D02*
X89353267Y-98253267D01*
X89353267Y-98253267D02*
X89400000Y-98300000D01*
%TO.N,Net-(J2-VBUS)*%
X88627896Y-98372104D02*
X86500000Y-100500000D01*
X88627896Y-96445104D02*
X88627896Y-98372104D01*
%TD*%
%TA.AperFunction,Conductor*%
%TO.N,+5V*%
G36*
X99124340Y-84088068D02*
G01*
X99180274Y-84129939D01*
X99197189Y-84160917D01*
X99246202Y-84292328D01*
X99246206Y-84292335D01*
X99332452Y-84407544D01*
X99332455Y-84407547D01*
X99447664Y-84493793D01*
X99447671Y-84493797D01*
X99492618Y-84510561D01*
X99582517Y-84544091D01*
X99642127Y-84550500D01*
X99652685Y-84550499D01*
X99719723Y-84570179D01*
X99740372Y-84586818D01*
X100410591Y-85257037D01*
X100347007Y-85274075D01*
X100232993Y-85339901D01*
X100139901Y-85432993D01*
X100074075Y-85547007D01*
X100057037Y-85610591D01*
X99424728Y-84978282D01*
X99424727Y-84978282D01*
X99385380Y-85032440D01*
X99385376Y-85032446D01*
X99380760Y-85041505D01*
X99332781Y-85092297D01*
X99264959Y-85109087D01*
X99198826Y-85086543D01*
X99159794Y-85041493D01*
X99155051Y-85032184D01*
X99155049Y-85032181D01*
X99155048Y-85032179D01*
X99030109Y-84860213D01*
X98879786Y-84709890D01*
X98707820Y-84584951D01*
X98707115Y-84584591D01*
X98699054Y-84580485D01*
X98648259Y-84532512D01*
X98631463Y-84464692D01*
X98653999Y-84398556D01*
X98699054Y-84359515D01*
X98707816Y-84355051D01*
X98879792Y-84230104D01*
X98993329Y-84116566D01*
X99054648Y-84083084D01*
X99124340Y-84088068D01*
G37*
%TD.AperFunction*%
%TA.AperFunction,Conductor*%
G36*
X100468813Y-78020185D02*
G01*
X100514568Y-78072989D01*
X100524512Y-78142147D01*
X100495487Y-78205703D01*
X100440093Y-78242430D01*
X100421588Y-78248443D01*
X100421585Y-78248444D01*
X100232179Y-78344951D01*
X100060213Y-78469890D01*
X99909890Y-78620213D01*
X99784951Y-78792179D01*
X99688444Y-78981585D01*
X99622753Y-79183760D01*
X99589500Y-79393713D01*
X99589500Y-79606286D01*
X99622753Y-79816239D01*
X99688444Y-80018414D01*
X99784951Y-80207820D01*
X99909890Y-80379786D01*
X100060213Y-80530109D01*
X100232179Y-80655048D01*
X100232181Y-80655049D01*
X100232184Y-80655051D01*
X100421588Y-80751557D01*
X100623757Y-80817246D01*
X100833713Y-80850500D01*
X100833714Y-80850500D01*
X101046286Y-80850500D01*
X101046287Y-80850500D01*
X101256243Y-80817246D01*
X101298523Y-80803507D01*
X101368362Y-80801511D01*
X101424522Y-80833757D01*
X104119587Y-83528822D01*
X104119597Y-83528833D01*
X104123927Y-83533163D01*
X104123928Y-83533164D01*
X104235732Y-83644968D01*
X104322543Y-83695087D01*
X104322545Y-83695089D01*
X104360599Y-83717059D01*
X104372663Y-83724025D01*
X104525391Y-83764948D01*
X113546673Y-83764948D01*
X113613712Y-83784633D01*
X113659467Y-83837437D01*
X113668290Y-83864756D01*
X113680261Y-83924939D01*
X113680264Y-83924949D01*
X113740602Y-84070620D01*
X113740609Y-84070633D01*
X113828210Y-84201736D01*
X113828213Y-84201740D01*
X113939707Y-84313234D01*
X113939711Y-84313237D01*
X114070814Y-84400838D01*
X114070827Y-84400845D01*
X114216498Y-84461183D01*
X114216503Y-84461185D01*
X114371153Y-84491947D01*
X114371156Y-84491948D01*
X114371158Y-84491948D01*
X114528844Y-84491948D01*
X114528845Y-84491947D01*
X114683497Y-84461185D01*
X114829179Y-84400842D01*
X114960289Y-84313237D01*
X115071789Y-84201737D01*
X115101359Y-84157483D01*
X115108325Y-84147058D01*
X115161937Y-84102252D01*
X115211427Y-84091948D01*
X121391559Y-84091948D01*
X121458598Y-84111633D01*
X121479240Y-84128267D01*
X134292509Y-96941536D01*
X134325994Y-97002859D01*
X134328828Y-97029217D01*
X134328828Y-99375293D01*
X134328827Y-99375311D01*
X134328827Y-99541017D01*
X134328826Y-99541017D01*
X134369751Y-99693749D01*
X134369752Y-99693750D01*
X134382891Y-99716508D01*
X134392700Y-99733497D01*
X134446690Y-99827011D01*
X134448809Y-99830680D01*
X134567677Y-99949548D01*
X134567683Y-99949553D01*
X135032181Y-100414051D01*
X135065666Y-100475374D01*
X135068500Y-100501732D01*
X135068500Y-102648500D01*
X135048815Y-102715539D01*
X134996011Y-102761294D01*
X134944500Y-102772500D01*
X130023098Y-102772500D01*
X129956059Y-102752815D01*
X129935417Y-102736181D01*
X129377055Y-102177820D01*
X129343570Y-102116497D01*
X129343119Y-102065945D01*
X129345206Y-102055457D01*
X129350500Y-102028842D01*
X129350500Y-101871158D01*
X129350500Y-101871155D01*
X129350499Y-101871153D01*
X129339091Y-101813801D01*
X129319737Y-101716503D01*
X129309565Y-101691945D01*
X129259397Y-101570827D01*
X129259395Y-101570823D01*
X129259394Y-101570821D01*
X129188914Y-101465341D01*
X129168037Y-101398665D01*
X129186521Y-101331285D01*
X129238500Y-101284594D01*
X129288474Y-101272502D01*
X130340891Y-101242433D01*
X130408464Y-101260194D01*
X130413322Y-101263280D01*
X130520814Y-101335104D01*
X130520827Y-101335111D01*
X130652645Y-101389711D01*
X130666503Y-101395451D01*
X130775083Y-101417049D01*
X130821153Y-101426213D01*
X130821156Y-101426214D01*
X130821158Y-101426214D01*
X130978844Y-101426214D01*
X130978845Y-101426213D01*
X131133497Y-101395451D01*
X131246166Y-101348781D01*
X131279172Y-101335111D01*
X131279172Y-101335110D01*
X131279179Y-101335108D01*
X131410289Y-101247503D01*
X131521789Y-101136003D01*
X131609394Y-101004893D01*
X131617716Y-100984803D01*
X131632443Y-100949248D01*
X131669737Y-100859211D01*
X131700500Y-100704556D01*
X131700500Y-100546872D01*
X131700500Y-100546869D01*
X131700499Y-100546867D01*
X131678451Y-100436025D01*
X131669737Y-100392217D01*
X131660875Y-100370821D01*
X131609397Y-100246541D01*
X131609390Y-100246528D01*
X131521789Y-100115425D01*
X131521786Y-100115421D01*
X131410292Y-100003927D01*
X131410288Y-100003924D01*
X131279185Y-99916323D01*
X131279172Y-99916316D01*
X131133501Y-99855978D01*
X131133492Y-99855975D01*
X131094102Y-99848140D01*
X131032191Y-99815754D01*
X131003734Y-99773977D01*
X130988444Y-99737062D01*
X130988442Y-99737059D01*
X130988440Y-99737055D01*
X130900839Y-99605952D01*
X130900836Y-99605948D01*
X130789342Y-99494454D01*
X130789338Y-99494451D01*
X130658235Y-99406850D01*
X130658222Y-99406843D01*
X130512551Y-99346505D01*
X130512539Y-99346502D01*
X130357895Y-99315741D01*
X130357892Y-99315741D01*
X130200208Y-99315741D01*
X130200205Y-99315741D01*
X130045560Y-99346502D01*
X130045548Y-99346505D01*
X129899877Y-99406843D01*
X129899864Y-99406850D01*
X129768761Y-99494451D01*
X129768757Y-99494454D01*
X129750031Y-99513181D01*
X129688708Y-99546666D01*
X129662350Y-99549500D01*
X129017807Y-99549500D01*
X128950768Y-99529815D01*
X128930126Y-99513181D01*
X128820666Y-99403721D01*
X128820662Y-99403718D01*
X128689559Y-99316117D01*
X128689546Y-99316110D01*
X128543875Y-99255772D01*
X128543863Y-99255769D01*
X128389219Y-99225008D01*
X128389216Y-99225008D01*
X128231532Y-99225008D01*
X128231529Y-99225008D01*
X128076884Y-99255769D01*
X128076872Y-99255772D01*
X127931201Y-99316110D01*
X127931188Y-99316117D01*
X127800085Y-99403718D01*
X127800081Y-99403721D01*
X127688587Y-99515215D01*
X127688584Y-99515219D01*
X127600983Y-99646322D01*
X127600976Y-99646335D01*
X127540638Y-99792006D01*
X127540635Y-99792018D01*
X127509874Y-99946661D01*
X127509874Y-100104354D01*
X127540634Y-100258996D01*
X127540637Y-100259006D01*
X127544275Y-100267788D01*
X127551742Y-100337258D01*
X127542144Y-100364864D01*
X127542937Y-100365193D01*
X127480264Y-100516498D01*
X127480261Y-100516510D01*
X127449500Y-100671153D01*
X127449500Y-100828846D01*
X127480261Y-100983489D01*
X127480264Y-100983501D01*
X127540602Y-101129172D01*
X127540609Y-101129185D01*
X127628210Y-101260288D01*
X127628213Y-101260292D01*
X127739707Y-101371786D01*
X127739715Y-101371792D01*
X127798995Y-101411402D01*
X127843801Y-101465014D01*
X127852508Y-101534339D01*
X127842194Y-101564885D01*
X127842937Y-101565193D01*
X127780264Y-101716498D01*
X127780261Y-101716510D01*
X127749500Y-101871153D01*
X127749500Y-102028846D01*
X127780261Y-102183489D01*
X127780264Y-102183501D01*
X127840602Y-102329172D01*
X127840609Y-102329185D01*
X127928210Y-102460288D01*
X127928213Y-102460292D01*
X128039708Y-102571787D01*
X128039711Y-102571789D01*
X128107080Y-102616803D01*
X128151884Y-102670414D01*
X128160592Y-102739739D01*
X128130438Y-102802767D01*
X128085645Y-102834465D01*
X128070823Y-102840604D01*
X128070814Y-102840609D01*
X127939711Y-102928210D01*
X127939707Y-102928213D01*
X127912181Y-102955740D01*
X127850858Y-102989225D01*
X127781166Y-102984241D01*
X127725233Y-102942369D01*
X127700816Y-102876905D01*
X127700500Y-102868059D01*
X127700500Y-102821155D01*
X127700499Y-102821153D01*
X127688592Y-102761294D01*
X127669737Y-102666503D01*
X127662280Y-102648500D01*
X127609397Y-102520827D01*
X127609390Y-102520814D01*
X127521789Y-102389711D01*
X127521786Y-102389707D01*
X127410292Y-102278213D01*
X127410288Y-102278210D01*
X127279185Y-102190609D01*
X127279172Y-102190602D01*
X127133501Y-102130264D01*
X127133489Y-102130261D01*
X126978845Y-102099500D01*
X126978842Y-102099500D01*
X126821158Y-102099500D01*
X126821155Y-102099500D01*
X126666510Y-102130261D01*
X126666498Y-102130264D01*
X126520827Y-102190602D01*
X126520814Y-102190609D01*
X126389125Y-102278602D01*
X126371078Y-102284252D01*
X126355169Y-102294477D01*
X126324207Y-102298928D01*
X126322447Y-102299480D01*
X126320234Y-102299500D01*
X126131621Y-102299500D01*
X126131605Y-102299499D01*
X126124009Y-102299499D01*
X125965895Y-102299499D01*
X125855156Y-102329172D01*
X125813166Y-102340423D01*
X125778251Y-102360582D01*
X125778250Y-102360582D01*
X125676239Y-102419477D01*
X125676234Y-102419481D01*
X125103291Y-102992425D01*
X125041968Y-103025910D01*
X125039802Y-103026361D01*
X124884460Y-103057261D01*
X124884450Y-103057264D01*
X124738779Y-103117602D01*
X124738766Y-103117609D01*
X124607663Y-103205210D01*
X124607659Y-103205213D01*
X124496165Y-103316707D01*
X124496162Y-103316711D01*
X124408561Y-103447814D01*
X124408554Y-103447827D01*
X124348216Y-103593498D01*
X124348213Y-103593510D01*
X124317452Y-103748153D01*
X124317452Y-103905846D01*
X124348213Y-104060489D01*
X124348216Y-104060501D01*
X124408554Y-104206172D01*
X124408561Y-104206185D01*
X124496162Y-104337288D01*
X124496165Y-104337292D01*
X124607659Y-104448786D01*
X124607663Y-104448789D01*
X124738766Y-104536390D01*
X124738779Y-104536397D01*
X124876780Y-104593558D01*
X124884455Y-104596737D01*
X124919194Y-104603647D01*
X124981104Y-104636031D01*
X125015678Y-104696746D01*
X125011939Y-104766516D01*
X124982684Y-104812944D01*
X124942068Y-104853560D01*
X124942064Y-104853565D01*
X124854463Y-104984668D01*
X124854456Y-104984681D01*
X124794118Y-105130352D01*
X124794115Y-105130364D01*
X124763354Y-105285007D01*
X124763354Y-105298500D01*
X124743669Y-105365539D01*
X124690865Y-105411294D01*
X124639354Y-105422500D01*
X122003327Y-105422500D01*
X121936288Y-105402815D01*
X121890533Y-105350011D01*
X121881710Y-105322692D01*
X121869738Y-105262508D01*
X121869737Y-105262507D01*
X121869737Y-105262503D01*
X121842749Y-105197347D01*
X121809397Y-105116827D01*
X121809390Y-105116814D01*
X121721789Y-104985711D01*
X121721786Y-104985707D01*
X121610292Y-104874213D01*
X121610288Y-104874210D01*
X121479185Y-104786609D01*
X121479172Y-104786602D01*
X121333501Y-104726264D01*
X121333489Y-104726261D01*
X121178845Y-104695500D01*
X121178842Y-104695500D01*
X121021158Y-104695500D01*
X121021155Y-104695500D01*
X120866510Y-104726261D01*
X120866498Y-104726264D01*
X120720827Y-104786602D01*
X120720814Y-104786609D01*
X120589125Y-104874602D01*
X120522447Y-104895480D01*
X120520234Y-104895500D01*
X119353327Y-104895500D01*
X119286288Y-104875815D01*
X119240533Y-104823011D01*
X119231710Y-104795692D01*
X119219738Y-104735508D01*
X119219737Y-104735507D01*
X119219737Y-104735503D01*
X119212623Y-104718327D01*
X119159397Y-104589827D01*
X119159390Y-104589814D01*
X119071398Y-104458125D01*
X119050520Y-104391447D01*
X119050500Y-104389234D01*
X119050500Y-102303097D01*
X119070185Y-102236058D01*
X119086819Y-102215416D01*
X119996532Y-101305703D01*
X120914662Y-100387572D01*
X120975983Y-100354089D01*
X120978150Y-100353638D01*
X121060495Y-100337258D01*
X121133497Y-100322737D01*
X121279179Y-100262394D01*
X121410289Y-100174789D01*
X121521789Y-100063289D01*
X121609394Y-99932179D01*
X121669737Y-99786497D01*
X121700500Y-99631842D01*
X121700500Y-99474158D01*
X121700500Y-99474155D01*
X121700499Y-99474153D01*
X121691878Y-99430812D01*
X121669737Y-99319503D01*
X121669735Y-99319498D01*
X121609397Y-99173827D01*
X121609390Y-99173814D01*
X121521789Y-99042711D01*
X121521786Y-99042707D01*
X121410292Y-98931213D01*
X121410288Y-98931210D01*
X121279185Y-98843609D01*
X121279172Y-98843602D01*
X121133501Y-98783264D01*
X121133489Y-98783261D01*
X120978845Y-98752500D01*
X120978842Y-98752500D01*
X120821158Y-98752500D01*
X120821155Y-98752500D01*
X120666505Y-98783261D01*
X120666497Y-98783264D01*
X120590412Y-98814778D01*
X120520942Y-98822245D01*
X120495513Y-98814778D01*
X120397350Y-98774119D01*
X120397346Y-98774118D01*
X120397341Y-98774116D01*
X120242698Y-98743356D01*
X120242695Y-98743356D01*
X120085011Y-98743356D01*
X120085008Y-98743356D01*
X119930363Y-98774117D01*
X119930351Y-98774120D01*
X119784680Y-98834458D01*
X119784667Y-98834465D01*
X119653564Y-98922066D01*
X119653560Y-98922069D01*
X119542066Y-99033563D01*
X119542063Y-99033567D01*
X119454462Y-99164670D01*
X119454455Y-99164683D01*
X119394117Y-99310354D01*
X119394114Y-99310366D01*
X119363353Y-99465009D01*
X119363353Y-99481100D01*
X119343668Y-99548139D01*
X119330846Y-99564796D01*
X117667796Y-101382791D01*
X117667797Y-101382792D01*
X117665929Y-101384833D01*
X117619480Y-101431284D01*
X117612703Y-101443019D01*
X117603583Y-101452990D01*
X117603564Y-101453010D01*
X117603559Y-101453016D01*
X117574541Y-101508873D01*
X117571894Y-101513702D01*
X117540424Y-101568212D01*
X117540422Y-101568217D01*
X117540414Y-101568250D01*
X117530690Y-101593290D01*
X117530670Y-101593327D01*
X117517096Y-101654792D01*
X117517097Y-101654793D01*
X117516503Y-101657483D01*
X117499500Y-101720943D01*
X117499500Y-101734490D01*
X117496584Y-101747697D01*
X117496582Y-101747699D01*
X117496577Y-101747722D01*
X117496577Y-101747724D01*
X117499377Y-101810605D01*
X117499500Y-101816120D01*
X117499500Y-103680572D01*
X117479815Y-103747611D01*
X117444392Y-103783674D01*
X117389707Y-103820213D01*
X117278213Y-103931707D01*
X117278210Y-103931711D01*
X117190609Y-104062814D01*
X117190602Y-104062827D01*
X117130264Y-104208498D01*
X117130261Y-104208510D01*
X117099500Y-104363153D01*
X117099500Y-104520846D01*
X117113963Y-104593558D01*
X117107736Y-104663150D01*
X117064872Y-104718327D01*
X116998982Y-104741571D01*
X116930986Y-104725503D01*
X116904665Y-104705430D01*
X110884574Y-98685339D01*
X110851089Y-98624016D01*
X110850638Y-98621849D01*
X110819738Y-98466510D01*
X110819737Y-98466503D01*
X110775515Y-98359741D01*
X110759397Y-98320827D01*
X110759390Y-98320814D01*
X110671789Y-98189711D01*
X110671786Y-98189707D01*
X110560291Y-98078212D01*
X110515579Y-98048337D01*
X110492759Y-98033088D01*
X110447954Y-97979477D01*
X110439247Y-97910153D01*
X110454264Y-97867985D01*
X110459577Y-97858784D01*
X110500501Y-97706057D01*
X110500501Y-97547942D01*
X110500501Y-97540347D01*
X110500500Y-97540329D01*
X110500500Y-97071022D01*
X110520185Y-97003983D01*
X110572989Y-96958228D01*
X110642147Y-96948284D01*
X110671949Y-96956459D01*
X110704003Y-96969737D01*
X110853631Y-96999500D01*
X110858653Y-97000499D01*
X110858656Y-97000500D01*
X110858658Y-97000500D01*
X111016344Y-97000500D01*
X111016345Y-97000499D01*
X111170997Y-96969737D01*
X111289104Y-96920816D01*
X111316672Y-96909397D01*
X111316672Y-96909396D01*
X111316679Y-96909394D01*
X111433445Y-96831372D01*
X111500120Y-96810496D01*
X111504460Y-96810495D01*
X113209081Y-96840268D01*
X113275763Y-96861120D01*
X113285582Y-96868400D01*
X113289713Y-96871791D01*
X113420814Y-96959390D01*
X113420827Y-96959397D01*
X113528469Y-97003983D01*
X113566503Y-97019737D01*
X113694755Y-97045248D01*
X113721153Y-97050499D01*
X113721156Y-97050500D01*
X113721158Y-97050500D01*
X113878844Y-97050500D01*
X113878845Y-97050499D01*
X114033497Y-97019737D01*
X114179179Y-96959394D01*
X114310289Y-96871789D01*
X114421789Y-96760289D01*
X114509394Y-96629179D01*
X114569737Y-96483497D01*
X114600500Y-96328842D01*
X114600500Y-96171158D01*
X114600500Y-96171155D01*
X114600499Y-96171153D01*
X114590918Y-96122987D01*
X114569737Y-96016503D01*
X114569735Y-96016498D01*
X114509397Y-95870827D01*
X114509390Y-95870814D01*
X114421789Y-95739711D01*
X114421786Y-95739707D01*
X114310292Y-95628213D01*
X114310288Y-95628210D01*
X114179185Y-95540609D01*
X114179172Y-95540602D01*
X114033501Y-95480264D01*
X114033489Y-95480261D01*
X113878845Y-95449500D01*
X113878842Y-95449500D01*
X113721158Y-95449500D01*
X113721155Y-95449500D01*
X113566510Y-95480261D01*
X113566498Y-95480264D01*
X113420827Y-95540602D01*
X113420809Y-95540612D01*
X113304056Y-95618624D01*
X113237379Y-95639502D01*
X113233000Y-95639503D01*
X111528420Y-95609730D01*
X111461735Y-95588878D01*
X111451919Y-95581600D01*
X111447790Y-95578211D01*
X111316685Y-95490609D01*
X111316672Y-95490602D01*
X111171001Y-95430264D01*
X111170989Y-95430261D01*
X111016345Y-95399500D01*
X111016342Y-95399500D01*
X110858658Y-95399500D01*
X110858655Y-95399500D01*
X110704010Y-95430261D01*
X110704002Y-95430263D01*
X110671951Y-95443539D01*
X110602481Y-95451006D01*
X110540003Y-95419731D01*
X110504351Y-95359641D01*
X110500500Y-95328977D01*
X110500500Y-94886555D01*
X110520185Y-94819516D01*
X110572989Y-94773761D01*
X110642147Y-94763817D01*
X110660411Y-94768840D01*
X110660676Y-94767969D01*
X110666492Y-94769732D01*
X110666503Y-94769737D01*
X110812285Y-94798735D01*
X110821153Y-94800499D01*
X110821156Y-94800500D01*
X110821158Y-94800500D01*
X110978844Y-94800500D01*
X110978845Y-94800499D01*
X111133497Y-94769737D01*
X111279179Y-94709394D01*
X111279185Y-94709390D01*
X111410875Y-94621398D01*
X111477553Y-94600520D01*
X111479766Y-94600500D01*
X112752299Y-94600500D01*
X112819338Y-94620185D01*
X112821142Y-94621366D01*
X112878477Y-94659676D01*
X112878479Y-94659677D01*
X112878483Y-94659679D01*
X112998515Y-94709397D01*
X113024159Y-94720019D01*
X113116325Y-94738352D01*
X113178809Y-94750781D01*
X113178812Y-94750782D01*
X113178814Y-94750782D01*
X113336500Y-94750782D01*
X113336501Y-94750781D01*
X113491153Y-94720019D01*
X113636835Y-94659676D01*
X113767945Y-94572071D01*
X113879445Y-94460571D01*
X113967050Y-94329461D01*
X114027393Y-94183779D01*
X114058156Y-94029124D01*
X114058156Y-93871440D01*
X114058156Y-93871437D01*
X114058155Y-93871435D01*
X114041530Y-93787855D01*
X114027393Y-93716785D01*
X114010563Y-93676154D01*
X113967053Y-93571109D01*
X113967046Y-93571096D01*
X113879445Y-93439993D01*
X113879442Y-93439989D01*
X113767947Y-93328494D01*
X113767944Y-93328492D01*
X113636841Y-93240891D01*
X113636828Y-93240884D01*
X113491157Y-93180546D01*
X113491145Y-93180543D01*
X113336501Y-93149782D01*
X113336498Y-93149782D01*
X113178814Y-93149782D01*
X113178811Y-93149782D01*
X113024166Y-93180543D01*
X113024154Y-93180546D01*
X112878483Y-93240884D01*
X112878470Y-93240891D01*
X112747367Y-93328492D01*
X112747365Y-93328494D01*
X112712680Y-93363180D01*
X112651358Y-93396666D01*
X112624998Y-93399500D01*
X111479766Y-93399500D01*
X111412727Y-93379815D01*
X111410875Y-93378602D01*
X111279185Y-93290609D01*
X111279172Y-93290602D01*
X111133501Y-93230264D01*
X111133489Y-93230261D01*
X110978845Y-93199500D01*
X110978842Y-93199500D01*
X110821158Y-93199500D01*
X110821155Y-93199500D01*
X110666510Y-93230261D01*
X110666498Y-93230264D01*
X110520827Y-93290602D01*
X110520814Y-93290609D01*
X110389711Y-93378210D01*
X110389707Y-93378213D01*
X110278213Y-93489707D01*
X110278210Y-93489711D01*
X110190609Y-93620814D01*
X110190604Y-93620824D01*
X110153092Y-93711387D01*
X110132504Y-93736934D01*
X110112841Y-93763201D01*
X110110691Y-93764002D01*
X110109251Y-93765790D01*
X110078116Y-93776152D01*
X110047377Y-93787618D01*
X110045134Y-93787130D01*
X110042957Y-93787855D01*
X110011158Y-93779738D01*
X109979104Y-93772766D01*
X109976655Y-93770932D01*
X109975257Y-93770576D01*
X109950850Y-93751615D01*
X109875346Y-93676111D01*
X109841861Y-93614788D01*
X109841432Y-93612734D01*
X109832237Y-93566503D01*
X109814033Y-93522554D01*
X109771897Y-93420827D01*
X109771890Y-93420814D01*
X109684289Y-93289711D01*
X109684286Y-93289707D01*
X109572792Y-93178213D01*
X109572788Y-93178210D01*
X109441685Y-93090609D01*
X109441672Y-93090602D01*
X109296001Y-93030264D01*
X109295989Y-93030261D01*
X109141345Y-92999500D01*
X109141342Y-92999500D01*
X108983658Y-92999500D01*
X108983655Y-92999500D01*
X108829010Y-93030261D01*
X108828998Y-93030264D01*
X108683327Y-93090602D01*
X108683314Y-93090609D01*
X108552211Y-93178210D01*
X108552207Y-93178213D01*
X108440713Y-93289707D01*
X108440710Y-93289711D01*
X108353109Y-93420814D01*
X108353102Y-93420827D01*
X108292764Y-93566498D01*
X108292761Y-93566510D01*
X108262000Y-93721153D01*
X108262000Y-93878846D01*
X108292761Y-94033489D01*
X108292764Y-94033501D01*
X108353102Y-94179172D01*
X108353109Y-94179185D01*
X108440710Y-94310288D01*
X108440713Y-94310292D01*
X108552207Y-94421786D01*
X108552211Y-94421789D01*
X108683314Y-94509390D01*
X108683327Y-94509397D01*
X108828998Y-94569735D01*
X108829003Y-94569737D01*
X108983653Y-94600499D01*
X108983656Y-94600500D01*
X108983658Y-94600500D01*
X109049903Y-94600500D01*
X109079343Y-94609144D01*
X109109330Y-94615668D01*
X109114345Y-94619422D01*
X109116942Y-94620185D01*
X109137584Y-94636819D01*
X109263181Y-94762416D01*
X109296666Y-94823739D01*
X109299500Y-94850097D01*
X109299500Y-97326902D01*
X109279815Y-97393941D01*
X109263181Y-97414583D01*
X109239181Y-97438583D01*
X109177858Y-97472068D01*
X109108166Y-97467084D01*
X109052233Y-97425212D01*
X109027816Y-97359748D01*
X109027500Y-97350902D01*
X109027500Y-97047943D01*
X109022945Y-97030946D01*
X109022944Y-97030941D01*
X109008637Y-96977545D01*
X108986577Y-96895216D01*
X108945620Y-96824276D01*
X108907524Y-96758290D01*
X108907521Y-96758286D01*
X108907520Y-96758284D01*
X108795716Y-96646480D01*
X108795715Y-96646479D01*
X108791385Y-96642149D01*
X108791374Y-96642139D01*
X108687590Y-96538355D01*
X108687588Y-96538352D01*
X108568717Y-96419481D01*
X108568716Y-96419480D01*
X108476539Y-96366262D01*
X108476538Y-96366261D01*
X108431790Y-96340425D01*
X108431787Y-96340423D01*
X108370693Y-96324053D01*
X108279057Y-96299499D01*
X108120943Y-96299499D01*
X108113347Y-96299499D01*
X108113331Y-96299500D01*
X106045940Y-96299500D01*
X106005019Y-96310464D01*
X106005019Y-96310465D01*
X105967751Y-96320451D01*
X105893214Y-96340423D01*
X105893209Y-96340426D01*
X105756290Y-96419475D01*
X105756282Y-96419481D01*
X105710336Y-96465427D01*
X105649013Y-96498911D01*
X105646848Y-96499362D01*
X105491508Y-96530261D01*
X105491498Y-96530264D01*
X105345827Y-96590602D01*
X105345814Y-96590609D01*
X105214711Y-96678210D01*
X105214707Y-96678213D01*
X105103213Y-96789707D01*
X105103210Y-96789711D01*
X105015609Y-96920814D01*
X105015602Y-96920827D01*
X104955264Y-97066498D01*
X104955261Y-97066510D01*
X104924500Y-97221153D01*
X104924500Y-97378843D01*
X104955261Y-97533489D01*
X104955264Y-97533501D01*
X105015602Y-97679172D01*
X105015609Y-97679185D01*
X105103210Y-97810288D01*
X105103213Y-97810292D01*
X105214707Y-97921786D01*
X105214711Y-97921789D01*
X105345814Y-98009390D01*
X105345827Y-98009397D01*
X105485298Y-98067167D01*
X105491503Y-98069737D01*
X105614275Y-98094158D01*
X105646153Y-98100499D01*
X105646156Y-98100500D01*
X105646158Y-98100500D01*
X105803844Y-98100500D01*
X105803845Y-98100499D01*
X105958497Y-98069737D01*
X106104179Y-98009394D01*
X106235289Y-97921789D01*
X106346789Y-97810289D01*
X106434394Y-97679179D01*
X106441215Y-97662711D01*
X106476698Y-97577048D01*
X106520538Y-97522644D01*
X106586833Y-97500579D01*
X106591259Y-97500500D01*
X107154609Y-97500500D01*
X107221648Y-97520185D01*
X107267403Y-97572989D01*
X107277347Y-97642147D01*
X107257711Y-97693391D01*
X107190609Y-97793814D01*
X107190602Y-97793827D01*
X107130264Y-97939498D01*
X107130261Y-97939508D01*
X107099361Y-98094850D01*
X107066976Y-98156761D01*
X107065425Y-98158339D01*
X106280584Y-98943181D01*
X106219261Y-98976666D01*
X106192903Y-98979500D01*
X100558443Y-98979500D01*
X100405716Y-99020423D01*
X100405709Y-99020426D01*
X100268790Y-99099475D01*
X100268782Y-99099481D01*
X100156981Y-99211282D01*
X100156975Y-99211290D01*
X100077926Y-99348209D01*
X100077923Y-99348216D01*
X100037000Y-99500943D01*
X100037000Y-99659057D01*
X100077523Y-99810289D01*
X100077923Y-99811783D01*
X100077926Y-99811790D01*
X100156975Y-99948709D01*
X100156979Y-99948714D01*
X100156980Y-99948716D01*
X100268784Y-100060520D01*
X100268786Y-100060521D01*
X100268790Y-100060524D01*
X100331881Y-100096949D01*
X100405716Y-100139577D01*
X100558443Y-100180500D01*
X105452611Y-100180500D01*
X105473856Y-100186738D01*
X105495945Y-100188318D01*
X105506728Y-100196390D01*
X105519650Y-100200185D01*
X105534149Y-100216918D01*
X105551878Y-100230190D01*
X105556585Y-100242810D01*
X105565405Y-100252989D01*
X105568556Y-100274906D01*
X105576295Y-100295654D01*
X105573432Y-100308814D01*
X105575349Y-100322147D01*
X105566149Y-100342290D01*
X105561443Y-100363927D01*
X105548173Y-100381653D01*
X105546324Y-100385703D01*
X105540299Y-100392174D01*
X105459693Y-100472780D01*
X105383579Y-100548894D01*
X105343355Y-100575771D01*
X105320822Y-100585105D01*
X105320818Y-100585107D01*
X105189715Y-100672707D01*
X105189707Y-100672713D01*
X105078213Y-100784207D01*
X105078210Y-100784211D01*
X104990609Y-100915314D01*
X104990602Y-100915327D01*
X104930264Y-101060998D01*
X104930261Y-101061008D01*
X104922567Y-101099691D01*
X104908897Y-101125822D01*
X104897670Y-101153096D01*
X104892885Y-101156433D01*
X104890182Y-101161602D01*
X104864549Y-101176197D01*
X104840364Y-101193068D01*
X104832739Y-101194312D01*
X104829466Y-101196176D01*
X104805645Y-101199410D01*
X104803296Y-101199499D01*
X104770943Y-101199499D01*
X104765611Y-101200926D01*
X104752091Y-101201439D01*
X104751803Y-101201366D01*
X104750048Y-101201500D01*
X95907559Y-101390643D01*
X95840114Y-101372396D01*
X95798579Y-101330470D01*
X95596597Y-100993833D01*
X95587360Y-100974982D01*
X95584129Y-100966673D01*
X95581025Y-100958689D01*
X95559915Y-100929896D01*
X95557659Y-100926819D01*
X95551939Y-100918300D01*
X95551101Y-100916934D01*
X95530519Y-100881284D01*
X95527241Y-100878006D01*
X95524599Y-100873695D01*
X95524253Y-100873259D01*
X95524250Y-100873254D01*
X95514491Y-100863818D01*
X95479980Y-100803070D01*
X95483790Y-100733305D01*
X95497580Y-100705788D01*
X95532998Y-100652783D01*
X95593341Y-100507101D01*
X95624104Y-100352446D01*
X95624104Y-100194762D01*
X95624104Y-100194759D01*
X95624103Y-100194757D01*
X95608322Y-100115421D01*
X95593341Y-100040107D01*
X95580621Y-100009397D01*
X95533001Y-99894431D01*
X95532994Y-99894418D01*
X95445393Y-99763315D01*
X95445390Y-99763311D01*
X95333896Y-99651817D01*
X95333888Y-99651811D01*
X95311746Y-99637016D01*
X95266940Y-99583404D01*
X95258233Y-99514079D01*
X95288387Y-99451052D01*
X95311745Y-99430812D01*
X95352292Y-99403719D01*
X95416661Y-99360709D01*
X95528161Y-99249209D01*
X95615766Y-99118099D01*
X95676109Y-98972417D01*
X95706872Y-98817762D01*
X95706872Y-98660078D01*
X95706872Y-98660075D01*
X95706871Y-98660073D01*
X95686773Y-98559036D01*
X95676109Y-98505423D01*
X95623950Y-98379499D01*
X95615769Y-98359747D01*
X95615762Y-98359734D01*
X95528161Y-98228631D01*
X95528158Y-98228627D01*
X95416663Y-98117132D01*
X95413973Y-98115335D01*
X95412881Y-98114028D01*
X95411953Y-98113267D01*
X95412097Y-98113090D01*
X95369167Y-98061723D01*
X95360460Y-97992398D01*
X95390614Y-97929370D01*
X95413973Y-97909130D01*
X95423252Y-97902928D01*
X95426829Y-97900539D01*
X95538329Y-97789039D01*
X95625934Y-97657929D01*
X95686277Y-97512247D01*
X95717040Y-97357592D01*
X95717040Y-97199908D01*
X95717040Y-97199905D01*
X95717039Y-97199903D01*
X95712892Y-97179054D01*
X95686277Y-97045253D01*
X95680351Y-97030946D01*
X95659939Y-96981666D01*
X95650500Y-96934214D01*
X95650500Y-95270945D01*
X95650500Y-95270943D01*
X95609577Y-95118216D01*
X95572811Y-95054534D01*
X95530524Y-94981290D01*
X95530521Y-94981286D01*
X95530520Y-94981284D01*
X95418716Y-94869480D01*
X95418715Y-94869479D01*
X95414385Y-94865149D01*
X95414374Y-94865139D01*
X95287590Y-94738355D01*
X95287588Y-94738352D01*
X95168717Y-94619481D01*
X95168716Y-94619480D01*
X95085010Y-94571153D01*
X96622500Y-94571153D01*
X96622500Y-94728846D01*
X96653261Y-94883489D01*
X96653264Y-94883501D01*
X96713602Y-95029172D01*
X96713609Y-95029185D01*
X96801210Y-95160288D01*
X96801213Y-95160292D01*
X96912707Y-95271786D01*
X96912711Y-95271789D01*
X97043814Y-95359390D01*
X97043827Y-95359397D01*
X97189498Y-95419735D01*
X97189503Y-95419737D01*
X97309163Y-95443539D01*
X97344153Y-95450499D01*
X97344156Y-95450500D01*
X97344158Y-95450500D01*
X97501844Y-95450500D01*
X97501845Y-95450499D01*
X97656497Y-95419737D01*
X97802179Y-95359394D01*
X97816225Y-95350009D01*
X97933875Y-95271398D01*
X98000553Y-95250520D01*
X98002766Y-95250500D01*
X101157098Y-95250500D01*
X101224137Y-95270185D01*
X101269892Y-95322989D01*
X101278715Y-95350308D01*
X101295261Y-95433491D01*
X101295264Y-95433501D01*
X101355602Y-95579172D01*
X101355609Y-95579185D01*
X101443210Y-95710288D01*
X101443213Y-95710292D01*
X101554707Y-95821786D01*
X101554711Y-95821789D01*
X101685814Y-95909390D01*
X101685827Y-95909397D01*
X101831498Y-95969735D01*
X101831503Y-95969737D01*
X101986153Y-96000499D01*
X101986156Y-96000500D01*
X101986158Y-96000500D01*
X102143844Y-96000500D01*
X102143845Y-96000499D01*
X102298497Y-95969737D01*
X102444179Y-95909394D01*
X102575289Y-95821789D01*
X102686789Y-95710289D01*
X102774394Y-95579179D01*
X102775754Y-95575897D01*
X102805813Y-95503326D01*
X102834737Y-95433497D01*
X102865500Y-95278842D01*
X102865500Y-95121158D01*
X102865500Y-95121155D01*
X102865499Y-95121153D01*
X102856361Y-95075212D01*
X102834737Y-94966503D01*
X102808819Y-94903931D01*
X102774397Y-94820827D01*
X102774390Y-94820814D01*
X102686789Y-94689711D01*
X102686786Y-94689707D01*
X102575292Y-94578213D01*
X102575288Y-94578210D01*
X102444185Y-94490609D01*
X102444172Y-94490602D01*
X102298501Y-94430264D01*
X102298491Y-94430261D01*
X102143149Y-94399361D01*
X102126392Y-94390595D01*
X102107914Y-94386576D01*
X102082877Y-94367833D01*
X102081238Y-94366976D01*
X102079660Y-94365425D01*
X102002590Y-94288355D01*
X102002588Y-94288352D01*
X101883717Y-94169481D01*
X101883712Y-94169477D01*
X101777450Y-94108127D01*
X101777448Y-94108126D01*
X101767559Y-94102416D01*
X101719346Y-94051849D01*
X101706125Y-93983242D01*
X101732094Y-93918378D01*
X101741874Y-93907359D01*
X104235506Y-91413728D01*
X104235511Y-91413724D01*
X104245714Y-91403520D01*
X104245716Y-91403520D01*
X104357520Y-91291716D01*
X104436577Y-91154784D01*
X104477500Y-91002057D01*
X104477500Y-89921153D01*
X110137000Y-89921153D01*
X110137000Y-90078846D01*
X110167761Y-90233489D01*
X110167764Y-90233501D01*
X110228102Y-90379172D01*
X110228109Y-90379185D01*
X110315710Y-90510288D01*
X110315713Y-90510292D01*
X110427207Y-90621786D01*
X110427211Y-90621789D01*
X110558314Y-90709390D01*
X110558327Y-90709397D01*
X110703998Y-90769735D01*
X110704003Y-90769737D01*
X110858653Y-90800499D01*
X110858656Y-90800500D01*
X110858658Y-90800500D01*
X111016344Y-90800500D01*
X111016345Y-90800499D01*
X111170997Y-90769737D01*
X111316679Y-90709394D01*
X111345791Y-90689942D01*
X111448375Y-90621398D01*
X111515053Y-90600520D01*
X111517266Y-90600500D01*
X114645396Y-90600500D01*
X114692844Y-90609937D01*
X114716503Y-90619737D01*
X114716508Y-90619738D01*
X114716511Y-90619739D01*
X114871153Y-90650499D01*
X114871156Y-90650500D01*
X114871158Y-90650500D01*
X115028844Y-90650500D01*
X115028845Y-90650499D01*
X115183497Y-90619737D01*
X115329179Y-90559394D01*
X115460289Y-90471789D01*
X115571789Y-90360289D01*
X115659394Y-90229179D01*
X115663414Y-90219475D01*
X115696156Y-90140426D01*
X115719737Y-90083497D01*
X115750500Y-89928842D01*
X115750500Y-89771158D01*
X115750500Y-89771155D01*
X115750499Y-89771153D01*
X115737228Y-89704438D01*
X115719737Y-89616503D01*
X115688300Y-89540606D01*
X115659397Y-89470827D01*
X115659390Y-89470814D01*
X115571789Y-89339711D01*
X115571786Y-89339707D01*
X115460292Y-89228213D01*
X115460288Y-89228210D01*
X115329185Y-89140609D01*
X115329172Y-89140602D01*
X115183501Y-89080264D01*
X115183489Y-89080261D01*
X115028845Y-89049500D01*
X115028842Y-89049500D01*
X114871158Y-89049500D01*
X114871155Y-89049500D01*
X114716510Y-89080261D01*
X114716498Y-89080264D01*
X114570827Y-89140602D01*
X114570814Y-89140609D01*
X114439711Y-89228210D01*
X114439707Y-89228213D01*
X114328211Y-89339709D01*
X114325086Y-89344388D01*
X114271475Y-89389194D01*
X114221982Y-89399500D01*
X111517266Y-89399500D01*
X111450227Y-89379815D01*
X111448375Y-89378602D01*
X111316685Y-89290609D01*
X111316672Y-89290602D01*
X111171001Y-89230264D01*
X111170989Y-89230261D01*
X111016345Y-89199500D01*
X111016342Y-89199500D01*
X110858658Y-89199500D01*
X110858655Y-89199500D01*
X110704010Y-89230261D01*
X110703998Y-89230264D01*
X110558327Y-89290602D01*
X110558314Y-89290609D01*
X110427211Y-89378210D01*
X110427207Y-89378213D01*
X110315713Y-89489707D01*
X110315710Y-89489711D01*
X110228109Y-89620814D01*
X110228102Y-89620827D01*
X110167764Y-89766498D01*
X110167761Y-89766510D01*
X110137000Y-89921153D01*
X104477500Y-89921153D01*
X104477500Y-85730411D01*
X104497185Y-85663372D01*
X104498398Y-85661520D01*
X104517733Y-85632584D01*
X104586394Y-85529825D01*
X104646737Y-85384143D01*
X104677500Y-85229488D01*
X104677500Y-85071804D01*
X104677500Y-85071801D01*
X104677499Y-85071799D01*
X104671473Y-85041505D01*
X104646737Y-84917149D01*
X104623154Y-84860213D01*
X104586397Y-84771473D01*
X104586390Y-84771460D01*
X104498789Y-84640357D01*
X104498786Y-84640353D01*
X104387292Y-84528859D01*
X104387288Y-84528856D01*
X104256185Y-84441255D01*
X104256172Y-84441248D01*
X104110501Y-84380910D01*
X104110489Y-84380907D01*
X103955845Y-84350146D01*
X103955842Y-84350146D01*
X103798158Y-84350146D01*
X103798155Y-84350146D01*
X103643510Y-84380907D01*
X103643498Y-84380910D01*
X103497827Y-84441248D01*
X103497814Y-84441255D01*
X103366711Y-84528856D01*
X103366707Y-84528859D01*
X103255213Y-84640353D01*
X103255210Y-84640357D01*
X103167609Y-84771460D01*
X103167602Y-84771473D01*
X103107264Y-84917144D01*
X103107261Y-84917156D01*
X103076500Y-85071799D01*
X103076500Y-85229492D01*
X103107261Y-85384135D01*
X103107264Y-85384147D01*
X103167602Y-85529818D01*
X103167609Y-85529831D01*
X103255602Y-85661520D01*
X103276480Y-85728197D01*
X103276500Y-85730411D01*
X103276500Y-90622903D01*
X103256815Y-90689942D01*
X103240181Y-90710584D01*
X100685339Y-93265425D01*
X100624016Y-93298910D01*
X100621850Y-93299361D01*
X100466508Y-93330261D01*
X100466498Y-93330264D01*
X100320827Y-93390602D01*
X100320814Y-93390609D01*
X100189711Y-93478210D01*
X100189707Y-93478213D01*
X100078213Y-93589707D01*
X100078210Y-93589711D01*
X99990609Y-93720814D01*
X99990602Y-93720827D01*
X99930264Y-93866498D01*
X99930261Y-93866508D01*
X99913715Y-93949692D01*
X99881330Y-94011603D01*
X99820614Y-94046177D01*
X99792098Y-94049500D01*
X98002766Y-94049500D01*
X97935727Y-94029815D01*
X97933875Y-94028602D01*
X97802185Y-93940609D01*
X97802172Y-93940602D01*
X97656501Y-93880264D01*
X97656489Y-93880261D01*
X97501845Y-93849500D01*
X97501842Y-93849500D01*
X97344158Y-93849500D01*
X97344155Y-93849500D01*
X97189510Y-93880261D01*
X97189498Y-93880264D01*
X97043827Y-93940602D01*
X97043814Y-93940609D01*
X96912711Y-94028210D01*
X96912707Y-94028213D01*
X96801213Y-94139707D01*
X96801210Y-94139711D01*
X96713609Y-94270814D01*
X96713602Y-94270827D01*
X96653264Y-94416498D01*
X96653261Y-94416510D01*
X96622500Y-94571153D01*
X95085010Y-94571153D01*
X95064960Y-94559577D01*
X95064959Y-94559576D01*
X95031783Y-94540422D01*
X94975881Y-94525443D01*
X94879057Y-94499499D01*
X94720943Y-94499499D01*
X94713347Y-94499499D01*
X94713331Y-94499500D01*
X94036670Y-94499500D01*
X94036654Y-94499499D01*
X94029058Y-94499499D01*
X93870943Y-94499499D01*
X93794579Y-94519961D01*
X93718214Y-94540423D01*
X93718209Y-94540426D01*
X93581290Y-94619475D01*
X93581282Y-94619481D01*
X93112181Y-95088583D01*
X93050858Y-95122068D01*
X92981166Y-95117084D01*
X92925233Y-95075212D01*
X92900816Y-95009748D01*
X92900500Y-95000902D01*
X92900500Y-93363086D01*
X92920185Y-93296047D01*
X92972989Y-93250292D01*
X93042147Y-93240348D01*
X93061369Y-93244694D01*
X93074544Y-93248796D01*
X93093216Y-93259577D01*
X93205019Y-93289534D01*
X93245942Y-93300500D01*
X93245943Y-93300500D01*
X93245944Y-93300500D01*
X93779055Y-93300500D01*
X93779057Y-93300500D01*
X93931784Y-93259577D01*
X94068716Y-93180520D01*
X94180520Y-93068716D01*
X94259577Y-92931784D01*
X94300500Y-92779057D01*
X94300500Y-92620943D01*
X94259577Y-92468216D01*
X94234307Y-92424446D01*
X94180524Y-92331290D01*
X94180518Y-92331282D01*
X94068717Y-92219481D01*
X94068709Y-92219475D01*
X93931790Y-92140426D01*
X93931786Y-92140424D01*
X93931784Y-92140423D01*
X93924811Y-92138554D01*
X93911588Y-92135011D01*
X93911540Y-92134998D01*
X93779057Y-92099500D01*
X93773590Y-92099500D01*
X93760591Y-92096155D01*
X93736765Y-92081954D01*
X93711407Y-92070735D01*
X93706373Y-92063841D01*
X93700573Y-92060384D01*
X93693539Y-92046263D01*
X93676933Y-92023519D01*
X93675953Y-92021153D01*
X94569500Y-92021153D01*
X94569500Y-92178846D01*
X94600261Y-92333489D01*
X94600264Y-92333501D01*
X94660602Y-92479172D01*
X94660609Y-92479185D01*
X94748210Y-92610288D01*
X94748213Y-92610292D01*
X94859707Y-92721786D01*
X94859711Y-92721789D01*
X94990814Y-92809390D01*
X94990827Y-92809397D01*
X95136498Y-92869735D01*
X95136503Y-92869737D01*
X95291153Y-92900499D01*
X95291156Y-92900500D01*
X95291158Y-92900500D01*
X95448844Y-92900500D01*
X95448845Y-92900499D01*
X95603497Y-92869737D01*
X95749179Y-92809394D01*
X95880289Y-92721789D01*
X95991789Y-92610289D01*
X96079394Y-92479179D01*
X96139737Y-92333497D01*
X96162718Y-92217963D01*
X96170638Y-92178150D01*
X96179402Y-92161393D01*
X96183423Y-92142914D01*
X96202167Y-92117875D01*
X96203023Y-92116239D01*
X96204523Y-92114711D01*
X96287820Y-92031414D01*
X96349142Y-91997930D01*
X96418834Y-92002914D01*
X96474767Y-92044786D01*
X96499184Y-92110250D01*
X96499500Y-92119096D01*
X96499500Y-92178846D01*
X96530261Y-92333489D01*
X96530264Y-92333501D01*
X96590602Y-92479172D01*
X96590609Y-92479185D01*
X96678210Y-92610288D01*
X96678213Y-92610292D01*
X96789707Y-92721786D01*
X96789711Y-92721789D01*
X96920814Y-92809390D01*
X96920827Y-92809397D01*
X97066498Y-92869735D01*
X97066503Y-92869737D01*
X97221153Y-92900499D01*
X97221156Y-92900500D01*
X97221158Y-92900500D01*
X97378844Y-92900500D01*
X97378845Y-92900499D01*
X97533497Y-92869737D01*
X97679179Y-92809394D01*
X97810289Y-92721789D01*
X97921789Y-92610289D01*
X98009394Y-92479179D01*
X98069737Y-92333497D01*
X98100500Y-92178842D01*
X98100500Y-92021158D01*
X98100500Y-92021155D01*
X98100499Y-92021153D01*
X99039500Y-92021153D01*
X99039500Y-92178846D01*
X99070261Y-92333489D01*
X99070264Y-92333501D01*
X99130602Y-92479172D01*
X99130609Y-92479185D01*
X99218210Y-92610288D01*
X99218213Y-92610292D01*
X99329707Y-92721786D01*
X99329711Y-92721789D01*
X99460814Y-92809390D01*
X99460827Y-92809397D01*
X99606498Y-92869735D01*
X99606503Y-92869737D01*
X99761153Y-92900499D01*
X99761156Y-92900500D01*
X99761158Y-92900500D01*
X99918844Y-92900500D01*
X99918845Y-92900499D01*
X100073497Y-92869737D01*
X100219179Y-92809394D01*
X100350289Y-92721789D01*
X100461789Y-92610289D01*
X100549394Y-92479179D01*
X100609737Y-92333497D01*
X100640500Y-92178842D01*
X100640500Y-92021158D01*
X100640500Y-92021155D01*
X100640499Y-92021153D01*
X100632570Y-91981290D01*
X100609737Y-91866503D01*
X100578224Y-91790423D01*
X100549397Y-91720827D01*
X100549390Y-91720814D01*
X100461789Y-91589711D01*
X100461786Y-91589707D01*
X100350292Y-91478213D01*
X100350288Y-91478210D01*
X100219185Y-91390609D01*
X100219172Y-91390602D01*
X100073501Y-91330264D01*
X100073489Y-91330261D01*
X99918845Y-91299500D01*
X99918842Y-91299500D01*
X99761158Y-91299500D01*
X99761155Y-91299500D01*
X99606510Y-91330261D01*
X99606498Y-91330264D01*
X99460827Y-91390602D01*
X99460814Y-91390609D01*
X99329711Y-91478210D01*
X99329707Y-91478213D01*
X99218213Y-91589707D01*
X99218210Y-91589711D01*
X99130609Y-91720814D01*
X99130602Y-91720827D01*
X99070264Y-91866498D01*
X99070261Y-91866510D01*
X99039500Y-92021153D01*
X98100499Y-92021153D01*
X98092570Y-91981290D01*
X98069737Y-91866503D01*
X98038224Y-91790423D01*
X98009397Y-91720827D01*
X98009390Y-91720814D01*
X97921789Y-91589711D01*
X97921786Y-91589707D01*
X97810292Y-91478213D01*
X97810288Y-91478210D01*
X97734548Y-91427602D01*
X97689743Y-91373990D01*
X97681036Y-91304665D01*
X97711190Y-91241637D01*
X97770634Y-91204918D01*
X97803439Y-91200500D01*
X98070234Y-91200500D01*
X98137273Y-91220185D01*
X98139125Y-91221398D01*
X98270814Y-91309390D01*
X98270827Y-91309397D01*
X98416498Y-91369735D01*
X98416503Y-91369737D01*
X98571153Y-91400499D01*
X98571156Y-91400500D01*
X98571158Y-91400500D01*
X98728844Y-91400500D01*
X98728845Y-91400499D01*
X98883497Y-91369737D01*
X99029179Y-91309394D01*
X99160289Y-91221789D01*
X99271789Y-91110289D01*
X99359394Y-90979179D01*
X99359576Y-90978741D01*
X99400865Y-90879059D01*
X99419737Y-90833497D01*
X99450500Y-90678842D01*
X99450500Y-90521158D01*
X99440256Y-90469658D01*
X99446483Y-90400068D01*
X99489345Y-90344890D01*
X99555235Y-90321645D01*
X99600255Y-90329354D01*
X99600676Y-90327969D01*
X99606492Y-90329732D01*
X99606503Y-90329737D01*
X99760092Y-90360288D01*
X99761153Y-90360499D01*
X99761156Y-90360500D01*
X99761158Y-90360500D01*
X99918844Y-90360500D01*
X99918845Y-90360499D01*
X100073497Y-90329737D01*
X100219179Y-90269394D01*
X100350289Y-90181789D01*
X100461789Y-90070289D01*
X100549394Y-89939179D01*
X100556859Y-89921158D01*
X100577706Y-89870827D01*
X100609737Y-89793497D01*
X100640500Y-89638842D01*
X100640500Y-89481158D01*
X100640500Y-89481155D01*
X100640499Y-89481153D01*
X100631396Y-89435390D01*
X100609737Y-89326503D01*
X100602878Y-89309944D01*
X100549397Y-89180827D01*
X100549390Y-89180814D01*
X100461789Y-89049711D01*
X100461786Y-89049707D01*
X100350292Y-88938213D01*
X100350288Y-88938210D01*
X100219185Y-88850609D01*
X100219172Y-88850602D01*
X100073501Y-88790264D01*
X100073489Y-88790261D01*
X99918845Y-88759500D01*
X99918842Y-88759500D01*
X99761158Y-88759500D01*
X99761155Y-88759500D01*
X99606510Y-88790261D01*
X99606498Y-88790264D01*
X99460827Y-88850602D01*
X99460814Y-88850609D01*
X99329711Y-88938210D01*
X99329707Y-88938213D01*
X99218213Y-89049707D01*
X99218210Y-89049711D01*
X99130609Y-89180814D01*
X99130602Y-89180827D01*
X99070264Y-89326498D01*
X99070261Y-89326510D01*
X99039500Y-89481153D01*
X99039500Y-89638846D01*
X99049743Y-89690341D01*
X99043516Y-89759933D01*
X99000653Y-89815110D01*
X98934763Y-89838354D01*
X98889743Y-89830649D01*
X98889324Y-89832031D01*
X98883500Y-89830264D01*
X98883497Y-89830263D01*
X98883492Y-89830262D01*
X98883489Y-89830261D01*
X98728845Y-89799500D01*
X98728842Y-89799500D01*
X98571158Y-89799500D01*
X98571155Y-89799500D01*
X98416510Y-89830261D01*
X98416498Y-89830264D01*
X98270827Y-89890602D01*
X98270809Y-89890612D01*
X98265543Y-89894131D01*
X98198865Y-89915006D01*
X98131486Y-89896519D01*
X98084798Y-89844538D01*
X98073624Y-89775567D01*
X98075037Y-89766851D01*
X98097619Y-89653326D01*
X98100500Y-89638844D01*
X98100500Y-89481155D01*
X98100499Y-89481153D01*
X98091396Y-89435390D01*
X98069737Y-89326503D01*
X98062878Y-89309944D01*
X98009397Y-89180827D01*
X98009390Y-89180814D01*
X97921789Y-89049711D01*
X97921786Y-89049707D01*
X97810292Y-88938213D01*
X97810288Y-88938210D01*
X97679185Y-88850609D01*
X97679172Y-88850602D01*
X97533501Y-88790264D01*
X97533489Y-88790261D01*
X97378845Y-88759500D01*
X97378842Y-88759500D01*
X97221158Y-88759500D01*
X97221155Y-88759500D01*
X97066510Y-88790261D01*
X97066498Y-88790264D01*
X96920827Y-88850602D01*
X96920814Y-88850609D01*
X96789711Y-88938210D01*
X96789707Y-88938213D01*
X96678213Y-89049707D01*
X96678210Y-89049711D01*
X96590609Y-89180814D01*
X96590602Y-89180827D01*
X96530264Y-89326498D01*
X96530261Y-89326510D01*
X96499500Y-89481153D01*
X96499500Y-89638846D01*
X96530261Y-89793489D01*
X96530264Y-89793501D01*
X96592022Y-89942599D01*
X96599491Y-90012068D01*
X96568216Y-90074547D01*
X96539461Y-90097438D01*
X96501287Y-90119477D01*
X96501282Y-90119481D01*
X95355339Y-91265425D01*
X95294016Y-91298910D01*
X95291850Y-91299361D01*
X95136508Y-91330261D01*
X95136498Y-91330264D01*
X94990827Y-91390602D01*
X94990814Y-91390609D01*
X94859711Y-91478210D01*
X94859707Y-91478213D01*
X94748213Y-91589707D01*
X94748210Y-91589711D01*
X94660609Y-91720814D01*
X94660602Y-91720827D01*
X94600264Y-91866498D01*
X94600261Y-91866510D01*
X94569500Y-92021153D01*
X93675953Y-92021153D01*
X93634397Y-91920827D01*
X93634390Y-91920814D01*
X93546789Y-91789711D01*
X93546786Y-91789707D01*
X93435292Y-91678213D01*
X93435288Y-91678210D01*
X93304185Y-91590609D01*
X93304172Y-91590602D01*
X93158501Y-91530264D01*
X93158489Y-91530261D01*
X93003845Y-91499500D01*
X93003842Y-91499500D01*
X92846158Y-91499500D01*
X92846155Y-91499500D01*
X92691510Y-91530261D01*
X92691498Y-91530264D01*
X92545827Y-91590602D01*
X92545814Y-91590609D01*
X92409646Y-91681595D01*
X92409528Y-91681418D01*
X92408685Y-91682435D01*
X92386910Y-91692344D01*
X92376898Y-91697773D01*
X92371450Y-91699499D01*
X92370943Y-91699499D01*
X92218216Y-91740423D01*
X92188972Y-91757305D01*
X92176102Y-91761383D01*
X92174441Y-91761418D01*
X92170750Y-91762947D01*
X92068218Y-91790422D01*
X92068209Y-91790426D01*
X91931290Y-91869475D01*
X91931282Y-91869481D01*
X91819481Y-91981282D01*
X91819475Y-91981290D01*
X91740426Y-92118209D01*
X91740423Y-92118216D01*
X91699500Y-92270943D01*
X91699500Y-97013330D01*
X91699499Y-97013348D01*
X91699499Y-97179054D01*
X91699498Y-97179054D01*
X91699499Y-97179057D01*
X91734064Y-97308055D01*
X91740423Y-97331784D01*
X91740424Y-97331788D01*
X91767591Y-97378843D01*
X91767592Y-97378843D01*
X91819477Y-97468713D01*
X91820817Y-97470458D01*
X91821489Y-97472196D01*
X91823543Y-97475754D01*
X91822988Y-97476074D01*
X91846014Y-97535626D01*
X91831978Y-97604071D01*
X91791336Y-97649049D01*
X91746713Y-97678865D01*
X91746707Y-97678870D01*
X91635213Y-97790364D01*
X91635210Y-97790368D01*
X91547609Y-97921471D01*
X91547602Y-97921484D01*
X91487264Y-98067155D01*
X91487261Y-98067167D01*
X91456500Y-98221810D01*
X91456500Y-98379503D01*
X91487261Y-98534146D01*
X91487264Y-98534158D01*
X91547602Y-98679829D01*
X91547609Y-98679842D01*
X91635210Y-98810945D01*
X91635213Y-98810949D01*
X91746707Y-98922443D01*
X91746711Y-98922446D01*
X91877814Y-99010047D01*
X91877821Y-99010051D01*
X91903040Y-99020497D01*
X91957443Y-99064336D01*
X91979509Y-99130630D01*
X91962231Y-99198330D01*
X91924480Y-99238160D01*
X91789707Y-99328213D01*
X91678213Y-99439707D01*
X91678210Y-99439711D01*
X91590609Y-99570814D01*
X91590602Y-99570827D01*
X91530264Y-99716498D01*
X91530261Y-99716508D01*
X91513715Y-99799692D01*
X91481330Y-99861603D01*
X91420614Y-99896177D01*
X91392098Y-99899500D01*
X91386555Y-99899500D01*
X91319516Y-99879815D01*
X91273761Y-99827011D01*
X91263817Y-99757853D01*
X91268840Y-99739588D01*
X91267969Y-99739324D01*
X91269731Y-99733509D01*
X91269737Y-99733497D01*
X91300500Y-99578842D01*
X91300500Y-99421158D01*
X91300500Y-99421155D01*
X91300499Y-99421153D01*
X91297653Y-99406843D01*
X91269737Y-99266503D01*
X91257997Y-99238160D01*
X91209397Y-99120827D01*
X91209390Y-99120814D01*
X91121789Y-98989711D01*
X91121786Y-98989707D01*
X91010292Y-98878213D01*
X91010284Y-98878207D01*
X91005605Y-98875080D01*
X90960802Y-98821466D01*
X90950500Y-98771981D01*
X90950500Y-92150097D01*
X90970185Y-92083058D01*
X90986819Y-92062416D01*
X91712417Y-91336819D01*
X91773740Y-91303334D01*
X91800098Y-91300500D01*
X92113331Y-91300500D01*
X92113347Y-91300501D01*
X92120943Y-91300501D01*
X92279054Y-91300501D01*
X92279057Y-91300501D01*
X92431785Y-91259577D01*
X92497235Y-91221789D01*
X92568716Y-91180520D01*
X92680520Y-91068716D01*
X92680520Y-91068715D01*
X92697948Y-91051287D01*
X92697953Y-91051280D01*
X92880520Y-90868716D01*
X92959577Y-90731784D01*
X93000501Y-90579057D01*
X93000501Y-90420942D01*
X93000501Y-90420596D01*
X93020186Y-90353557D01*
X93036816Y-90332918D01*
X93058789Y-90310946D01*
X93146394Y-90179836D01*
X93206737Y-90034154D01*
X93237500Y-89879499D01*
X93237500Y-89721815D01*
X93237500Y-89721812D01*
X93237499Y-89721810D01*
X93228995Y-89679057D01*
X93206737Y-89567160D01*
X93199836Y-89550500D01*
X93146397Y-89421484D01*
X93146390Y-89421471D01*
X93058789Y-89290368D01*
X93058786Y-89290364D01*
X92947292Y-89178870D01*
X92947288Y-89178867D01*
X92816185Y-89091266D01*
X92816172Y-89091259D01*
X92670501Y-89030921D01*
X92670489Y-89030918D01*
X92515845Y-89000157D01*
X92515842Y-89000157D01*
X92358158Y-89000157D01*
X92358155Y-89000157D01*
X92203510Y-89030918D01*
X92203498Y-89030921D01*
X92057827Y-89091259D01*
X92057814Y-89091266D01*
X91926711Y-89178867D01*
X91926707Y-89178870D01*
X91815213Y-89290364D01*
X91815210Y-89290368D01*
X91727609Y-89421471D01*
X91727602Y-89421484D01*
X91667264Y-89567155D01*
X91667261Y-89567167D01*
X91636500Y-89721810D01*
X91636500Y-89879500D01*
X91639886Y-89896519D01*
X91650783Y-89951308D01*
X91644557Y-90020898D01*
X91601695Y-90076076D01*
X91535806Y-90099321D01*
X91529167Y-90099499D01*
X91420943Y-90099499D01*
X91346386Y-90119477D01*
X91268214Y-90140423D01*
X91268209Y-90140426D01*
X91131290Y-90219475D01*
X91131282Y-90219481D01*
X89869481Y-91481282D01*
X89869475Y-91481290D01*
X89832282Y-91545712D01*
X89832282Y-91545713D01*
X89790423Y-91618215D01*
X89749499Y-91770943D01*
X89749499Y-91770945D01*
X89749499Y-91939046D01*
X89749500Y-91939059D01*
X89749500Y-95508858D01*
X89743129Y-95530551D01*
X89741342Y-95553091D01*
X89733475Y-95563431D01*
X89729815Y-95575897D01*
X89712730Y-95590701D01*
X89699039Y-95608698D01*
X89686829Y-95613144D01*
X89677011Y-95621652D01*
X89654633Y-95624869D01*
X89633387Y-95632607D01*
X89615357Y-95630516D01*
X89607853Y-95631596D01*
X89598203Y-95629816D01*
X89589662Y-95627888D01*
X89586764Y-95626688D01*
X89566337Y-95622624D01*
X89564756Y-95622268D01*
X89535560Y-95606030D01*
X89505948Y-95590540D01*
X89505133Y-95589108D01*
X89503695Y-95588309D01*
X89487914Y-95558869D01*
X89471376Y-95529824D01*
X89471449Y-95528152D01*
X89470686Y-95526728D01*
X89472542Y-95503326D01*
X89474347Y-95462306D01*
X89477499Y-95452797D01*
X89488000Y-95350009D01*
X89487999Y-94149992D01*
X89483722Y-94108127D01*
X89477499Y-94047203D01*
X89477498Y-94047200D01*
X89471737Y-94029815D01*
X89422314Y-93880666D01*
X89330212Y-93731344D01*
X89206156Y-93607288D01*
X89070028Y-93523324D01*
X89056836Y-93515187D01*
X89056831Y-93515185D01*
X89027036Y-93505312D01*
X89012739Y-93500574D01*
X88955295Y-93460802D01*
X88928472Y-93396286D01*
X88940787Y-93327510D01*
X88978859Y-93282550D01*
X88980361Y-93281459D01*
X89034719Y-93241966D01*
X89179466Y-93097219D01*
X89179468Y-93097215D01*
X89179471Y-93097213D01*
X89250462Y-92999500D01*
X89299787Y-92931610D01*
X89392720Y-92749219D01*
X89455977Y-92554534D01*
X89488000Y-92352352D01*
X89488000Y-92147648D01*
X89469590Y-92031415D01*
X89455977Y-91945465D01*
X89400838Y-91775766D01*
X89392720Y-91750781D01*
X89392718Y-91750778D01*
X89392718Y-91750776D01*
X89335833Y-91639135D01*
X89299787Y-91568390D01*
X89272087Y-91530264D01*
X89179471Y-91402786D01*
X89034713Y-91258028D01*
X88869113Y-91137715D01*
X88869112Y-91137714D01*
X88869110Y-91137713D01*
X88812153Y-91108691D01*
X88686723Y-91044781D01*
X88492034Y-90981522D01*
X88317495Y-90953878D01*
X88289852Y-90949500D01*
X88085148Y-90949500D01*
X88060829Y-90953351D01*
X87882965Y-90981522D01*
X87688276Y-91044781D01*
X87505886Y-91137715D01*
X87340286Y-91258028D01*
X87340282Y-91258032D01*
X87275181Y-91323134D01*
X87213858Y-91356619D01*
X87144166Y-91351635D01*
X87099819Y-91323134D01*
X87034713Y-91258028D01*
X86869113Y-91137715D01*
X86869112Y-91137714D01*
X86869110Y-91137713D01*
X86812153Y-91108691D01*
X86686723Y-91044781D01*
X86492034Y-90981522D01*
X86317495Y-90953878D01*
X86289852Y-90949500D01*
X86085148Y-90949500D01*
X86060829Y-90953351D01*
X85882965Y-90981522D01*
X85688276Y-91044781D01*
X85505886Y-91137715D01*
X85340286Y-91258028D01*
X85195528Y-91402786D01*
X85075215Y-91568386D01*
X84982281Y-91750776D01*
X84919022Y-91945465D01*
X84887000Y-92147648D01*
X84887000Y-92352351D01*
X84919022Y-92554534D01*
X84982281Y-92749223D01*
X85075215Y-92931613D01*
X85195528Y-93097213D01*
X85340286Y-93241971D01*
X85505888Y-93362286D01*
X85559328Y-93389516D01*
X85610123Y-93437490D01*
X85626918Y-93505312D01*
X85604380Y-93571446D01*
X85559328Y-93610484D01*
X85505888Y-93637713D01*
X85340286Y-93758028D01*
X85195528Y-93902786D01*
X85075215Y-94068386D01*
X84982281Y-94250776D01*
X84919022Y-94445465D01*
X84887000Y-94647648D01*
X84887000Y-94852351D01*
X84919022Y-95054534D01*
X84982281Y-95249223D01*
X85038543Y-95359641D01*
X85074527Y-95430264D01*
X85075215Y-95431613D01*
X85195528Y-95597213D01*
X85340286Y-95741971D01*
X85452980Y-95823846D01*
X85505890Y-95862287D01*
X85622107Y-95921503D01*
X85688276Y-95955218D01*
X85688278Y-95955218D01*
X85688281Y-95955220D01*
X85732954Y-95969735D01*
X85882965Y-96018477D01*
X85984057Y-96034488D01*
X86085148Y-96050500D01*
X86085149Y-96050500D01*
X86289851Y-96050500D01*
X86289852Y-96050500D01*
X86492034Y-96018477D01*
X86686719Y-95955220D01*
X86869110Y-95862287D01*
X86939413Y-95811208D01*
X87005217Y-95787729D01*
X87073271Y-95803554D01*
X87099978Y-95823846D01*
X87168844Y-95892712D01*
X87318166Y-95984814D01*
X87484703Y-96039999D01*
X87587491Y-96050500D01*
X87739835Y-96050499D01*
X87806874Y-96070183D01*
X87852629Y-96122987D01*
X87862573Y-96192145D01*
X87858500Y-96210481D01*
X87858158Y-96211607D01*
X87827396Y-96366257D01*
X87827396Y-96523950D01*
X87858157Y-96678593D01*
X87858160Y-96678605D01*
X87918498Y-96824276D01*
X87918505Y-96824289D01*
X88006498Y-96955978D01*
X88027376Y-97022655D01*
X88027396Y-97024869D01*
X88027396Y-98072007D01*
X88007711Y-98139046D01*
X87991077Y-98159688D01*
X86485339Y-99665425D01*
X86424016Y-99698910D01*
X86421850Y-99699361D01*
X86266508Y-99730261D01*
X86266498Y-99730264D01*
X86120827Y-99790602D01*
X86120816Y-99790608D01*
X86007866Y-99866079D01*
X85941189Y-99886956D01*
X85873809Y-99868471D01*
X85827119Y-99816492D01*
X85815756Y-99749092D01*
X85816857Y-99739324D01*
X85828000Y-99640425D01*
X85828000Y-99359575D01*
X85812281Y-99220060D01*
X85796557Y-99080505D01*
X85796554Y-99080487D01*
X85782861Y-99020496D01*
X85734060Y-98806682D01*
X85641301Y-98541592D01*
X85527870Y-98306050D01*
X85519446Y-98288557D01*
X85519445Y-98288555D01*
X85370023Y-98050752D01*
X85194916Y-97831175D01*
X84996325Y-97632584D01*
X84776748Y-97457477D01*
X84538945Y-97308055D01*
X84538942Y-97308053D01*
X84285911Y-97186200D01*
X84020829Y-97093443D01*
X84020817Y-97093439D01*
X83747012Y-97030945D01*
X83746994Y-97030942D01*
X83467931Y-96999500D01*
X83467925Y-96999500D01*
X83187075Y-96999500D01*
X83187068Y-96999500D01*
X82908005Y-97030942D01*
X82907987Y-97030945D01*
X82634182Y-97093439D01*
X82634170Y-97093443D01*
X82369088Y-97186200D01*
X82116057Y-97308053D01*
X81878253Y-97457476D01*
X81658675Y-97632583D01*
X81460083Y-97831175D01*
X81284976Y-98050753D01*
X81135553Y-98288557D01*
X81013700Y-98541588D01*
X80920943Y-98806670D01*
X80920939Y-98806682D01*
X80858445Y-99080487D01*
X80858442Y-99080505D01*
X80827000Y-99359568D01*
X80827000Y-99640431D01*
X80858442Y-99919494D01*
X80858445Y-99919512D01*
X80920939Y-100193317D01*
X80920943Y-100193329D01*
X81013700Y-100458411D01*
X81135553Y-100711442D01*
X81135555Y-100711445D01*
X81284977Y-100949248D01*
X81374095Y-101060998D01*
X81447540Y-101153096D01*
X81460084Y-101168825D01*
X81658675Y-101367416D01*
X81878252Y-101542523D01*
X82116055Y-101691945D01*
X82369092Y-101813801D01*
X82533009Y-101871158D01*
X82634170Y-101906556D01*
X82634182Y-101906560D01*
X82907991Y-101969055D01*
X82907997Y-101969055D01*
X82908005Y-101969057D01*
X83094047Y-101990018D01*
X83187069Y-102000499D01*
X83187072Y-102000500D01*
X83187075Y-102000500D01*
X83467928Y-102000500D01*
X83467929Y-102000499D01*
X83610555Y-101984429D01*
X83746994Y-101969057D01*
X83746999Y-101969056D01*
X83747009Y-101969055D01*
X84020818Y-101906560D01*
X84285908Y-101813801D01*
X84538945Y-101691945D01*
X84776748Y-101542523D01*
X84996325Y-101367416D01*
X85194916Y-101168825D01*
X85370023Y-100949248D01*
X85513299Y-100721226D01*
X85565632Y-100674937D01*
X85634685Y-100664289D01*
X85698533Y-100692664D01*
X85732852Y-100739748D01*
X85790602Y-100879172D01*
X85790609Y-100879185D01*
X85878210Y-101010288D01*
X85878213Y-101010292D01*
X85989707Y-101121786D01*
X85989711Y-101121789D01*
X86120814Y-101209390D01*
X86120827Y-101209397D01*
X86245279Y-101260946D01*
X86266503Y-101269737D01*
X86421153Y-101300499D01*
X86421156Y-101300500D01*
X86421158Y-101300500D01*
X86578844Y-101300500D01*
X86578845Y-101300499D01*
X86733497Y-101269737D01*
X86879179Y-101209394D01*
X87010289Y-101121789D01*
X87121789Y-101010289D01*
X87209394Y-100879179D01*
X87269737Y-100733497D01*
X87290879Y-100627208D01*
X87300638Y-100578150D01*
X87333023Y-100516239D01*
X87334519Y-100514715D01*
X88840374Y-99008859D01*
X88901695Y-98975376D01*
X88971387Y-98980360D01*
X88996945Y-98993441D01*
X89020812Y-99009389D01*
X89020827Y-99009397D01*
X89158558Y-99066446D01*
X89166503Y-99069737D01*
X89316005Y-99099475D01*
X89321153Y-99100499D01*
X89321156Y-99100500D01*
X89321158Y-99100500D01*
X89478844Y-99100500D01*
X89600242Y-99076352D01*
X89669834Y-99082579D01*
X89725011Y-99125442D01*
X89748256Y-99191331D01*
X89738996Y-99245419D01*
X89730263Y-99266502D01*
X89730260Y-99266511D01*
X89699500Y-99421153D01*
X89699500Y-99578846D01*
X89730261Y-99733489D01*
X89730263Y-99733497D01*
X89774791Y-99841000D01*
X89782260Y-99910469D01*
X89750984Y-99972948D01*
X89722231Y-99995839D01*
X89681284Y-100019479D01*
X88819481Y-100881282D01*
X88819475Y-100881290D01*
X88774791Y-100958687D01*
X88774791Y-100958688D01*
X88740423Y-101018214D01*
X88740423Y-101018215D01*
X88699499Y-101170943D01*
X88699499Y-101170945D01*
X88699499Y-101339046D01*
X88699500Y-101339059D01*
X88699500Y-102663330D01*
X88699499Y-102663348D01*
X88699499Y-102829054D01*
X88699498Y-102829054D01*
X88726067Y-102928210D01*
X88740423Y-102981785D01*
X88765899Y-103025910D01*
X88769358Y-103031900D01*
X88769359Y-103031904D01*
X88769360Y-103031904D01*
X88817363Y-103115050D01*
X88819479Y-103118714D01*
X88819481Y-103118717D01*
X88938349Y-103237585D01*
X88938355Y-103237590D01*
X89865139Y-104164374D01*
X89865149Y-104164385D01*
X89869479Y-104168715D01*
X89869480Y-104168716D01*
X89981284Y-104280520D01*
X90055789Y-104323535D01*
X90118215Y-104359577D01*
X90270942Y-104400500D01*
X90270943Y-104400500D01*
X95800902Y-104400500D01*
X95867941Y-104420185D01*
X95913696Y-104472989D01*
X95923640Y-104542147D01*
X95894615Y-104605703D01*
X95888583Y-104612181D01*
X93335339Y-107165425D01*
X93274016Y-107198910D01*
X93271850Y-107199361D01*
X93116508Y-107230261D01*
X93116498Y-107230264D01*
X92970827Y-107290602D01*
X92970814Y-107290609D01*
X92839711Y-107378210D01*
X92839707Y-107378213D01*
X92728213Y-107489707D01*
X92728210Y-107489711D01*
X92640609Y-107620814D01*
X92640602Y-107620827D01*
X92580264Y-107766498D01*
X92580261Y-107766510D01*
X92549500Y-107921153D01*
X92549500Y-108078846D01*
X92580261Y-108233489D01*
X92580264Y-108233501D01*
X92640602Y-108379172D01*
X92640609Y-108379185D01*
X92728210Y-108510288D01*
X92728213Y-108510292D01*
X92839707Y-108621786D01*
X92839711Y-108621789D01*
X92970814Y-108709390D01*
X92970827Y-108709397D01*
X93102063Y-108763756D01*
X93116503Y-108769737D01*
X93266729Y-108799619D01*
X93271153Y-108800499D01*
X93271156Y-108800500D01*
X93271158Y-108800500D01*
X93428844Y-108800500D01*
X93428845Y-108800499D01*
X93583497Y-108769737D01*
X93700488Y-108721278D01*
X93729172Y-108709397D01*
X93729172Y-108709396D01*
X93729179Y-108709394D01*
X93860289Y-108621789D01*
X93971789Y-108510289D01*
X94059394Y-108379179D01*
X94119737Y-108233497D01*
X94146226Y-108100328D01*
X94150638Y-108078150D01*
X94183023Y-108016239D01*
X94184517Y-108014717D01*
X96893835Y-105305401D01*
X96920762Y-105290697D01*
X96946581Y-105274105D01*
X96952781Y-105273213D01*
X96955158Y-105271916D01*
X96981516Y-105269082D01*
X97118777Y-105269082D01*
X97185816Y-105288767D01*
X97231571Y-105341571D01*
X97241515Y-105410729D01*
X97212490Y-105474285D01*
X97206460Y-105480760D01*
X96709010Y-105978210D01*
X96281286Y-106405934D01*
X96169481Y-106517738D01*
X96169479Y-106517741D01*
X96140340Y-106568213D01*
X96140339Y-106568215D01*
X96090423Y-106654670D01*
X96090423Y-106654671D01*
X96049499Y-106807399D01*
X96049499Y-106807401D01*
X96049499Y-106975502D01*
X96049500Y-106975515D01*
X96049500Y-110847734D01*
X96044171Y-110865879D01*
X96043834Y-110884787D01*
X96030334Y-110913003D01*
X96029815Y-110914773D01*
X96028602Y-110916625D01*
X95978102Y-110992203D01*
X95924490Y-111037008D01*
X95855165Y-111045715D01*
X95792137Y-111015560D01*
X95771898Y-110992203D01*
X95721789Y-110917211D01*
X95721786Y-110917207D01*
X95610292Y-110805713D01*
X95610288Y-110805710D01*
X95479185Y-110718109D01*
X95479172Y-110718102D01*
X95333501Y-110657764D01*
X95333489Y-110657761D01*
X95178845Y-110627000D01*
X95178842Y-110627000D01*
X95021158Y-110627000D01*
X95021155Y-110627000D01*
X94866510Y-110657761D01*
X94866503Y-110657762D01*
X94850261Y-110664490D01*
X94780791Y-110671955D01*
X94718313Y-110640676D01*
X94682664Y-110580586D01*
X94681204Y-110574152D01*
X94669737Y-110516503D01*
X94662943Y-110500100D01*
X94609397Y-110370827D01*
X94609390Y-110370814D01*
X94521789Y-110239711D01*
X94521786Y-110239707D01*
X94410292Y-110128213D01*
X94410288Y-110128210D01*
X94279185Y-110040609D01*
X94279172Y-110040602D01*
X94133501Y-109980264D01*
X94133489Y-109980261D01*
X93978845Y-109949500D01*
X93978842Y-109949500D01*
X93821158Y-109949500D01*
X93821155Y-109949500D01*
X93666510Y-109980261D01*
X93666498Y-109980264D01*
X93520827Y-110040602D01*
X93520814Y-110040609D01*
X93389711Y-110128210D01*
X93389707Y-110128213D01*
X93278213Y-110239707D01*
X93278210Y-110239711D01*
X93190609Y-110370814D01*
X93190602Y-110370827D01*
X93130264Y-110516498D01*
X93130261Y-110516508D01*
X93099361Y-110671850D01*
X93066976Y-110733761D01*
X93065425Y-110735339D01*
X92237584Y-111563181D01*
X92176261Y-111596666D01*
X92149903Y-111599500D01*
X92071155Y-111599500D01*
X91916510Y-111630261D01*
X91916498Y-111630264D01*
X91770827Y-111690602D01*
X91770814Y-111690609D01*
X91639711Y-111778210D01*
X91639707Y-111778213D01*
X91528213Y-111889707D01*
X91528210Y-111889711D01*
X91440609Y-112020814D01*
X91440602Y-112020827D01*
X91380264Y-112166498D01*
X91380261Y-112166510D01*
X91349500Y-112321153D01*
X91349500Y-112478846D01*
X91380261Y-112633489D01*
X91380264Y-112633501D01*
X91440602Y-112779172D01*
X91440609Y-112779185D01*
X91528210Y-112910288D01*
X91528213Y-112910292D01*
X91639707Y-113021786D01*
X91639711Y-113021789D01*
X91770814Y-113109390D01*
X91770827Y-113109397D01*
X91916498Y-113169735D01*
X91916503Y-113169737D01*
X92071153Y-113200499D01*
X92071156Y-113200500D01*
X92071158Y-113200500D01*
X92228844Y-113200500D01*
X92228845Y-113200499D01*
X92383497Y-113169737D01*
X92529179Y-113109394D01*
X92660289Y-113021789D01*
X92771789Y-112910289D01*
X92859394Y-112779179D01*
X92919737Y-112633497D01*
X92925807Y-112602979D01*
X92958191Y-112541070D01*
X92959743Y-112539491D01*
X93430522Y-112068712D01*
X93914662Y-111584572D01*
X93929942Y-111576117D01*
X93941696Y-111564097D01*
X93971652Y-111553037D01*
X93974625Y-111551392D01*
X93978515Y-111550500D01*
X93978842Y-111550500D01*
X94133497Y-111519737D01*
X94159338Y-111509033D01*
X94169469Y-111506710D01*
X94194384Y-111508211D01*
X94219201Y-111505543D01*
X94228656Y-111510276D01*
X94239212Y-111510912D01*
X94259361Y-111525645D01*
X94281681Y-111536818D01*
X94287076Y-111545911D01*
X94295612Y-111552153D01*
X94304597Y-111575441D01*
X94317333Y-111596907D01*
X94318802Y-111603382D01*
X94330261Y-111660989D01*
X94330264Y-111661001D01*
X94390602Y-111806672D01*
X94390609Y-111806685D01*
X94478602Y-111938374D01*
X94484252Y-111956420D01*
X94494477Y-111972330D01*
X94498928Y-112003289D01*
X94499480Y-112005051D01*
X94499500Y-112007265D01*
X94499500Y-112199902D01*
X94479815Y-112266941D01*
X94463181Y-112287583D01*
X93485339Y-113265425D01*
X93424016Y-113298910D01*
X93421850Y-113299361D01*
X93266508Y-113330261D01*
X93266498Y-113330264D01*
X93120827Y-113390602D01*
X93120814Y-113390609D01*
X92989711Y-113478210D01*
X92989707Y-113478213D01*
X92878213Y-113589707D01*
X92878210Y-113589711D01*
X92790609Y-113720814D01*
X92790602Y-113720827D01*
X92730264Y-113866498D01*
X92730261Y-113866510D01*
X92699500Y-114021153D01*
X92699500Y-114178846D01*
X92730261Y-114333489D01*
X92730264Y-114333501D01*
X92790602Y-114479172D01*
X92790609Y-114479185D01*
X92878210Y-114610288D01*
X92878213Y-114610292D01*
X92989707Y-114721786D01*
X92989711Y-114721789D01*
X93120814Y-114809390D01*
X93120827Y-114809397D01*
X93196181Y-114840609D01*
X93266503Y-114869737D01*
X93421153Y-114900499D01*
X93421156Y-114900500D01*
X93421158Y-114900500D01*
X93578844Y-114900500D01*
X93578845Y-114900499D01*
X93733497Y-114869737D01*
X93879179Y-114809394D01*
X94010289Y-114721789D01*
X94121789Y-114610289D01*
X94209394Y-114479179D01*
X94269737Y-114333497D01*
X94292151Y-114220814D01*
X94300638Y-114178150D01*
X94333023Y-114116239D01*
X94334517Y-114114717D01*
X95580520Y-112868716D01*
X95659577Y-112731784D01*
X95700501Y-112579057D01*
X95700501Y-112420942D01*
X95700501Y-112413347D01*
X95700500Y-112413329D01*
X95700500Y-112007265D01*
X95705828Y-111989119D01*
X95706166Y-111970212D01*
X95719665Y-111941995D01*
X95720185Y-111940226D01*
X95721398Y-111938374D01*
X95771898Y-111862796D01*
X95825510Y-111817991D01*
X95894835Y-111809284D01*
X95957863Y-111839439D01*
X95978102Y-111862796D01*
X96028210Y-111937788D01*
X96028213Y-111937792D01*
X96139707Y-112049286D01*
X96139711Y-112049289D01*
X96270814Y-112136890D01*
X96270827Y-112136897D01*
X96400779Y-112190724D01*
X96416503Y-112197237D01*
X96571153Y-112227999D01*
X96571156Y-112228000D01*
X96571158Y-112228000D01*
X96728844Y-112228000D01*
X96728845Y-112227999D01*
X96883497Y-112197237D01*
X97029179Y-112136894D01*
X97160289Y-112049289D01*
X97271789Y-111937789D01*
X97359394Y-111806679D01*
X97364947Y-111793274D01*
X97386818Y-111740470D01*
X97419737Y-111660997D01*
X97450500Y-111506342D01*
X97450500Y-111348658D01*
X97450500Y-111348655D01*
X97450499Y-111348653D01*
X97446558Y-111328842D01*
X97419737Y-111194003D01*
X97418328Y-111190602D01*
X97359397Y-111048327D01*
X97359390Y-111048314D01*
X97271398Y-110916625D01*
X97265747Y-110898578D01*
X97255523Y-110882669D01*
X97251071Y-110851707D01*
X97250520Y-110849947D01*
X97250500Y-110847734D01*
X97250500Y-110774500D01*
X97270185Y-110707461D01*
X97322989Y-110661706D01*
X97374500Y-110650500D01*
X97378844Y-110650500D01*
X97378845Y-110650499D01*
X97533497Y-110619737D01*
X97650778Y-110571158D01*
X97677864Y-110559939D01*
X97725316Y-110550500D01*
X100779789Y-110550500D01*
X100846828Y-110570185D01*
X100892583Y-110622989D01*
X100903789Y-110674500D01*
X100903789Y-111728973D01*
X100894350Y-111776425D01*
X100834553Y-111920787D01*
X100834550Y-111920799D01*
X100803789Y-112075442D01*
X100803789Y-112233135D01*
X100834550Y-112387778D01*
X100834553Y-112387790D01*
X100894892Y-112533463D01*
X100894894Y-112533466D01*
X100894895Y-112533468D01*
X100898678Y-112539130D01*
X100900281Y-112541528D01*
X100918795Y-112586226D01*
X100930707Y-112646111D01*
X100930710Y-112646121D01*
X100983511Y-112773596D01*
X101060176Y-112888334D01*
X101060177Y-112888335D01*
X102966428Y-114794585D01*
X102993308Y-114834814D01*
X103053102Y-114979172D01*
X103053109Y-114979185D01*
X103140710Y-115110288D01*
X103140713Y-115110292D01*
X103252207Y-115221786D01*
X103252211Y-115221789D01*
X103383314Y-115309390D01*
X103383327Y-115309397D01*
X103520611Y-115366261D01*
X103529003Y-115369737D01*
X103637231Y-115391265D01*
X103683653Y-115400499D01*
X103683656Y-115400500D01*
X103683658Y-115400500D01*
X103841344Y-115400500D01*
X103841345Y-115400499D01*
X103995997Y-115369737D01*
X104141679Y-115309394D01*
X104272789Y-115221789D01*
X104384289Y-115110289D01*
X104471894Y-114979179D01*
X104532237Y-114833497D01*
X104563000Y-114678842D01*
X104563000Y-114521158D01*
X104563000Y-114521155D01*
X104562999Y-114521153D01*
X104540947Y-114410292D01*
X104532237Y-114366503D01*
X104518562Y-114333489D01*
X104471897Y-114220827D01*
X104471890Y-114220814D01*
X104384289Y-114089711D01*
X104384286Y-114089707D01*
X104272792Y-113978213D01*
X104272788Y-113978210D01*
X104141685Y-113890609D01*
X104141672Y-113890602D01*
X103997314Y-113830808D01*
X103957085Y-113803928D01*
X102751451Y-112598294D01*
X102735224Y-112568576D01*
X102718456Y-112539130D01*
X102718517Y-112537981D01*
X102717966Y-112536971D01*
X102720382Y-112503178D01*
X102722195Y-112469360D01*
X102722867Y-112468426D01*
X102722950Y-112467279D01*
X102743237Y-112440179D01*
X102763061Y-112412688D01*
X102764133Y-112412266D01*
X102764822Y-112411346D01*
X102796547Y-112399512D01*
X102828079Y-112387107D01*
X102829591Y-112387188D01*
X102830286Y-112386929D01*
X102863323Y-112388996D01*
X102921847Y-112400637D01*
X102983758Y-112433021D01*
X102985337Y-112434573D01*
X103031284Y-112480520D01*
X103031286Y-112480521D01*
X103031290Y-112480524D01*
X103155636Y-112552314D01*
X103168216Y-112559577D01*
X103280019Y-112589534D01*
X103320942Y-112600500D01*
X103320943Y-112600500D01*
X108377098Y-112600500D01*
X108444137Y-112620185D01*
X108489892Y-112672989D01*
X108499836Y-112742147D01*
X108470811Y-112805703D01*
X108424549Y-112839062D01*
X108420821Y-112840605D01*
X108420814Y-112840609D01*
X108289711Y-112928210D01*
X108289707Y-112928213D01*
X108178213Y-113039707D01*
X108178210Y-113039711D01*
X108090609Y-113170814D01*
X108090602Y-113170827D01*
X108030264Y-113316498D01*
X108030261Y-113316510D01*
X107999500Y-113471153D01*
X107999500Y-113628846D01*
X108030261Y-113783489D01*
X108030264Y-113783501D01*
X108090061Y-113927864D01*
X108099500Y-113975316D01*
X108099500Y-115333705D01*
X108099500Y-115471693D01*
X108099500Y-115471695D01*
X108099499Y-115471695D01*
X108126418Y-115607022D01*
X108126421Y-115607032D01*
X108179221Y-115734504D01*
X108182098Y-115739886D01*
X108180604Y-115740684D01*
X108199065Y-115799627D01*
X108180585Y-115867008D01*
X108128609Y-115913702D01*
X108075085Y-115925849D01*
X101567868Y-115925849D01*
X101500829Y-115906164D01*
X101480187Y-115889530D01*
X100836819Y-115246162D01*
X100803334Y-115184839D01*
X100800500Y-115158481D01*
X100800500Y-114298316D01*
X100809939Y-114250864D01*
X100840058Y-114178150D01*
X100869737Y-114106497D01*
X100900500Y-113951842D01*
X100900500Y-113794158D01*
X100900500Y-113794155D01*
X100900499Y-113794153D01*
X100895857Y-113770815D01*
X100869737Y-113639503D01*
X100862400Y-113621789D01*
X100809397Y-113493827D01*
X100809390Y-113493814D01*
X100721789Y-113362711D01*
X100721786Y-113362707D01*
X100610292Y-113251213D01*
X100610288Y-113251210D01*
X100479185Y-113163609D01*
X100479172Y-113163602D01*
X100333501Y-113103264D01*
X100333489Y-113103261D01*
X100178845Y-113072500D01*
X100178842Y-113072500D01*
X100021158Y-113072500D01*
X100021155Y-113072500D01*
X99866510Y-113103261D01*
X99866498Y-113103264D01*
X99720827Y-113163602D01*
X99720814Y-113163609D01*
X99589711Y-113251210D01*
X99589707Y-113251213D01*
X99478213Y-113362707D01*
X99478210Y-113362711D01*
X99390609Y-113493814D01*
X99390602Y-113493827D01*
X99330264Y-113639498D01*
X99330261Y-113639510D01*
X99299500Y-113794153D01*
X99299500Y-113951846D01*
X99330261Y-114106489D01*
X99330264Y-114106501D01*
X99390061Y-114250864D01*
X99399500Y-114298316D01*
X99399500Y-115431006D01*
X99399500Y-115568994D01*
X99399500Y-115568996D01*
X99399499Y-115568996D01*
X99426418Y-115704322D01*
X99426421Y-115704332D01*
X99479222Y-115831807D01*
X99555887Y-115946545D01*
X100779803Y-117170461D01*
X100894541Y-117247126D01*
X101022016Y-117299927D01*
X101022021Y-117299929D01*
X101022025Y-117299929D01*
X101022026Y-117299930D01*
X101157352Y-117326849D01*
X101157355Y-117326849D01*
X101157356Y-117326849D01*
X109682132Y-117326849D01*
X109749171Y-117346534D01*
X109769813Y-117363168D01*
X118415900Y-126009255D01*
X118449385Y-126070578D01*
X118444401Y-126140270D01*
X118402529Y-126196203D01*
X118366538Y-126214867D01*
X118261781Y-126248905D01*
X118072439Y-126345380D01*
X118018282Y-126384727D01*
X118018282Y-126384728D01*
X118650591Y-127017037D01*
X118587007Y-127034075D01*
X118472993Y-127099901D01*
X118379901Y-127192993D01*
X118314075Y-127307007D01*
X118297037Y-127370591D01*
X117664728Y-126738282D01*
X117664727Y-126738282D01*
X117625380Y-126792440D01*
X117625376Y-126792446D01*
X117620760Y-126801505D01*
X117572781Y-126852297D01*
X117504959Y-126869087D01*
X117438826Y-126846543D01*
X117399794Y-126801493D01*
X117395051Y-126792184D01*
X117395049Y-126792181D01*
X117395048Y-126792179D01*
X117270109Y-126620213D01*
X117119786Y-126469890D01*
X116947820Y-126344951D01*
X116758414Y-126248444D01*
X116758413Y-126248443D01*
X116758412Y-126248443D01*
X116556243Y-126182754D01*
X116556241Y-126182753D01*
X116556240Y-126182753D01*
X116394957Y-126157208D01*
X116346287Y-126149500D01*
X116133713Y-126149500D01*
X116085042Y-126157208D01*
X115923760Y-126182753D01*
X115721585Y-126248444D01*
X115532179Y-126344951D01*
X115360213Y-126469890D01*
X115209890Y-126620213D01*
X115084949Y-126792182D01*
X115080484Y-126800946D01*
X115032509Y-126851742D01*
X114964688Y-126868536D01*
X114898553Y-126845998D01*
X114859516Y-126800946D01*
X114855050Y-126792182D01*
X114730109Y-126620213D01*
X114579786Y-126469890D01*
X114407820Y-126344951D01*
X114218414Y-126248444D01*
X114218413Y-126248443D01*
X114218412Y-126248443D01*
X114016243Y-126182754D01*
X114016241Y-126182753D01*
X114016240Y-126182753D01*
X113854957Y-126157208D01*
X113806287Y-126149500D01*
X113593713Y-126149500D01*
X113545042Y-126157208D01*
X113383760Y-126182753D01*
X113181585Y-126248444D01*
X112992179Y-126344951D01*
X112820213Y-126469890D01*
X112669890Y-126620213D01*
X112544949Y-126792182D01*
X112540484Y-126800946D01*
X112492509Y-126851742D01*
X112424688Y-126868536D01*
X112358553Y-126845998D01*
X112319516Y-126800946D01*
X112315050Y-126792182D01*
X112190109Y-126620213D01*
X112039786Y-126469890D01*
X111867820Y-126344951D01*
X111678414Y-126248444D01*
X111678413Y-126248443D01*
X111678412Y-126248443D01*
X111476243Y-126182754D01*
X111476241Y-126182753D01*
X111476240Y-126182753D01*
X111314957Y-126157208D01*
X111266287Y-126149500D01*
X111053713Y-126149500D01*
X111005042Y-126157208D01*
X110843760Y-126182753D01*
X110641585Y-126248444D01*
X110452179Y-126344951D01*
X110280213Y-126469890D01*
X110129890Y-126620213D01*
X110004951Y-126792179D01*
X109908444Y-126981585D01*
X109842753Y-127183760D01*
X109809500Y-127393713D01*
X109809500Y-127606286D01*
X109842753Y-127816239D01*
X109908444Y-128018414D01*
X110004951Y-128207820D01*
X110129890Y-128379786D01*
X110280213Y-128530109D01*
X110452179Y-128655048D01*
X110452181Y-128655049D01*
X110452184Y-128655051D01*
X110641588Y-128751557D01*
X110660092Y-128757569D01*
X110717768Y-128797006D01*
X110744966Y-128861365D01*
X110733051Y-128930211D01*
X110685807Y-128981687D01*
X110621774Y-128999500D01*
X87595222Y-128999500D01*
X87528183Y-128979815D01*
X87482428Y-128927011D01*
X87472484Y-128857853D01*
X87501509Y-128794297D01*
X87507541Y-128787819D01*
X87517850Y-128777510D01*
X87656676Y-128586433D01*
X87763901Y-128375992D01*
X87836886Y-128151368D01*
X87857944Y-128018412D01*
X87873833Y-127918097D01*
X87873833Y-127681902D01*
X87836886Y-127448631D01*
X87797561Y-127327602D01*
X87763901Y-127224008D01*
X87763899Y-127224005D01*
X87763899Y-127224003D01*
X87656675Y-127013566D01*
X87646819Y-127000000D01*
X87517850Y-126822490D01*
X87350843Y-126655483D01*
X87159766Y-126516657D01*
X86949329Y-126409433D01*
X86724701Y-126336446D01*
X86491430Y-126299500D01*
X86491425Y-126299500D01*
X84255241Y-126299500D01*
X84255236Y-126299500D01*
X84021964Y-126336446D01*
X83797336Y-126409433D01*
X83586899Y-126516657D01*
X83494994Y-126583431D01*
X83395823Y-126655483D01*
X83395821Y-126655485D01*
X83395820Y-126655485D01*
X83228818Y-126822487D01*
X83228818Y-126822488D01*
X83228816Y-126822490D01*
X83195362Y-126868536D01*
X83089990Y-127013566D01*
X82982766Y-127224003D01*
X82909779Y-127448631D01*
X82872833Y-127681902D01*
X82872833Y-127918097D01*
X82909779Y-128151368D01*
X82982766Y-128375996D01*
X83089990Y-128586433D01*
X83228816Y-128777510D01*
X83228818Y-128777512D01*
X83239125Y-128787819D01*
X83272610Y-128849142D01*
X83267626Y-128918834D01*
X83225754Y-128974767D01*
X83160290Y-128999184D01*
X83151444Y-128999500D01*
X80324500Y-128999500D01*
X80257461Y-128979815D01*
X80211706Y-128927011D01*
X80200500Y-128875500D01*
X80200500Y-121981902D01*
X80872833Y-121981902D01*
X80872833Y-124218097D01*
X80909779Y-124451368D01*
X80982766Y-124675996D01*
X81089990Y-124886433D01*
X81228816Y-125077510D01*
X81395823Y-125244517D01*
X81586900Y-125383343D01*
X81686324Y-125434002D01*
X81797336Y-125490566D01*
X81797338Y-125490566D01*
X81797341Y-125490568D01*
X81917745Y-125529689D01*
X82021964Y-125563553D01*
X82255236Y-125600500D01*
X82255241Y-125600500D01*
X82491430Y-125600500D01*
X82724701Y-125563553D01*
X82949325Y-125490568D01*
X83159766Y-125383343D01*
X83350843Y-125244517D01*
X83517850Y-125077510D01*
X83656676Y-124886433D01*
X83763901Y-124675992D01*
X83836886Y-124451368D01*
X83873833Y-124218097D01*
X83873833Y-121981902D01*
X83836886Y-121748631D01*
X83763899Y-121524003D01*
X83656675Y-121313566D01*
X83517850Y-121122490D01*
X83350843Y-120955483D01*
X83159766Y-120816657D01*
X83131265Y-120802135D01*
X87072833Y-120802135D01*
X87072833Y-125397870D01*
X87072834Y-125397876D01*
X87079241Y-125457483D01*
X87129535Y-125592328D01*
X87129539Y-125592335D01*
X87215785Y-125707544D01*
X87215788Y-125707547D01*
X87330997Y-125793793D01*
X87331004Y-125793797D01*
X87465850Y-125844091D01*
X87465849Y-125844091D01*
X87472777Y-125844835D01*
X87525460Y-125850500D01*
X89621205Y-125850499D01*
X89680816Y-125844091D01*
X89815664Y-125793796D01*
X89930879Y-125707546D01*
X90017129Y-125592331D01*
X90067424Y-125457483D01*
X90073833Y-125397873D01*
X90073832Y-120802128D01*
X90067424Y-120742517D01*
X90055084Y-120709433D01*
X90017130Y-120607671D01*
X90017126Y-120607664D01*
X89930880Y-120492455D01*
X89930877Y-120492452D01*
X89815668Y-120406206D01*
X89815661Y-120406202D01*
X89680815Y-120355908D01*
X89680816Y-120355908D01*
X89621216Y-120349501D01*
X89621214Y-120349500D01*
X89621206Y-120349500D01*
X89621197Y-120349500D01*
X87525462Y-120349500D01*
X87525456Y-120349501D01*
X87465849Y-120355908D01*
X87331004Y-120406202D01*
X87330997Y-120406206D01*
X87215788Y-120492452D01*
X87215785Y-120492455D01*
X87129539Y-120607664D01*
X87129535Y-120607671D01*
X87079241Y-120742517D01*
X87072834Y-120802116D01*
X87072834Y-120802123D01*
X87072833Y-120802135D01*
X83131265Y-120802135D01*
X83131251Y-120802128D01*
X82949329Y-120709433D01*
X82724701Y-120636446D01*
X82491430Y-120599500D01*
X82491425Y-120599500D01*
X82255241Y-120599500D01*
X82255236Y-120599500D01*
X82021964Y-120636446D01*
X81797336Y-120709433D01*
X81586899Y-120816657D01*
X81477883Y-120895862D01*
X81395823Y-120955483D01*
X81395821Y-120955485D01*
X81395820Y-120955485D01*
X81228818Y-121122487D01*
X81228818Y-121122488D01*
X81228816Y-121122490D01*
X81169195Y-121204550D01*
X81089990Y-121313566D01*
X80982766Y-121524003D01*
X80909779Y-121748631D01*
X80872833Y-121981902D01*
X80200500Y-121981902D01*
X80200500Y-87359568D01*
X80827000Y-87359568D01*
X80827000Y-87640431D01*
X80858442Y-87919494D01*
X80858445Y-87919512D01*
X80920939Y-88193317D01*
X80920943Y-88193329D01*
X81013700Y-88458411D01*
X81135553Y-88711442D01*
X81135555Y-88711445D01*
X81284977Y-88949248D01*
X81460084Y-89168825D01*
X81658675Y-89367416D01*
X81878252Y-89542523D01*
X82116055Y-89691945D01*
X82369092Y-89813801D01*
X82532026Y-89870814D01*
X82634170Y-89906556D01*
X82634182Y-89906560D01*
X82907991Y-89969055D01*
X82907997Y-89969055D01*
X82908005Y-89969057D01*
X83094047Y-89990018D01*
X83187069Y-90000499D01*
X83187072Y-90000500D01*
X83187075Y-90000500D01*
X83467928Y-90000500D01*
X83467929Y-90000499D01*
X83610555Y-89984429D01*
X83746994Y-89969057D01*
X83746999Y-89969056D01*
X83747009Y-89969055D01*
X84020818Y-89906560D01*
X84285908Y-89813801D01*
X84538945Y-89691945D01*
X84776748Y-89542523D01*
X84996325Y-89367416D01*
X85194916Y-89168825D01*
X85370023Y-88949248D01*
X85519445Y-88711445D01*
X85641301Y-88458408D01*
X85734060Y-88193318D01*
X85796555Y-87919509D01*
X85828000Y-87640425D01*
X85828000Y-87359575D01*
X85797683Y-87090500D01*
X85796557Y-87080505D01*
X85796554Y-87080487D01*
X85734060Y-86806682D01*
X85734056Y-86806670D01*
X85668664Y-86619792D01*
X85641301Y-86541592D01*
X85519445Y-86288555D01*
X85370023Y-86050752D01*
X85194916Y-85831175D01*
X84996325Y-85632584D01*
X84776748Y-85457477D01*
X84612504Y-85354275D01*
X84538942Y-85308053D01*
X84285911Y-85186200D01*
X84020829Y-85093443D01*
X84020817Y-85093439D01*
X83747012Y-85030945D01*
X83746994Y-85030942D01*
X83467931Y-84999500D01*
X83467925Y-84999500D01*
X83187075Y-84999500D01*
X83187068Y-84999500D01*
X82908005Y-85030942D01*
X82907987Y-85030945D01*
X82634182Y-85093439D01*
X82634170Y-85093443D01*
X82369088Y-85186200D01*
X82116057Y-85308053D01*
X81878253Y-85457476D01*
X81658675Y-85632583D01*
X81460083Y-85831175D01*
X81284976Y-86050753D01*
X81135553Y-86288557D01*
X81013700Y-86541588D01*
X80920943Y-86806670D01*
X80920939Y-86806682D01*
X80858445Y-87080487D01*
X80858442Y-87080505D01*
X80827000Y-87359568D01*
X80200500Y-87359568D01*
X80200500Y-83093713D01*
X94109500Y-83093713D01*
X94109500Y-83306287D01*
X94142754Y-83516243D01*
X94200864Y-83695087D01*
X94208444Y-83718414D01*
X94304951Y-83907820D01*
X94429890Y-84079786D01*
X94580213Y-84230109D01*
X94752182Y-84355050D01*
X94760946Y-84359516D01*
X94811742Y-84407491D01*
X94828536Y-84475312D01*
X94805998Y-84541447D01*
X94760946Y-84580484D01*
X94752182Y-84584949D01*
X94580213Y-84709890D01*
X94429890Y-84860213D01*
X94304951Y-85032179D01*
X94208444Y-85221585D01*
X94142753Y-85423760D01*
X94109500Y-85633713D01*
X94109500Y-85846286D01*
X94142753Y-86056239D01*
X94208444Y-86258414D01*
X94304951Y-86447820D01*
X94429890Y-86619786D01*
X94580213Y-86770109D01*
X94752179Y-86895048D01*
X94752181Y-86895049D01*
X94752184Y-86895051D01*
X94941588Y-86991557D01*
X95143757Y-87057246D01*
X95353713Y-87090500D01*
X95353714Y-87090500D01*
X95566286Y-87090500D01*
X95566287Y-87090500D01*
X95776243Y-87057246D01*
X95978412Y-86991557D01*
X96167816Y-86895051D01*
X96222572Y-86855269D01*
X96339786Y-86770109D01*
X96339788Y-86770106D01*
X96339792Y-86770104D01*
X96490104Y-86619792D01*
X96490106Y-86619788D01*
X96490109Y-86619786D01*
X96615048Y-86447820D01*
X96615047Y-86447820D01*
X96615051Y-86447816D01*
X96619514Y-86439054D01*
X96667488Y-86388259D01*
X96735308Y-86371463D01*
X96801444Y-86393999D01*
X96840486Y-86439056D01*
X96844951Y-86447820D01*
X96969890Y-86619786D01*
X97120213Y-86770109D01*
X97292179Y-86895048D01*
X97292181Y-86895049D01*
X97292184Y-86895051D01*
X97481588Y-86991557D01*
X97683757Y-87057246D01*
X97893713Y-87090500D01*
X97893714Y-87090500D01*
X98106286Y-87090500D01*
X98106287Y-87090500D01*
X98316243Y-87057246D01*
X98518412Y-86991557D01*
X98707816Y-86895051D01*
X98762572Y-86855269D01*
X98879786Y-86770109D01*
X98879788Y-86770106D01*
X98879792Y-86770104D01*
X99030104Y-86619792D01*
X99030106Y-86619788D01*
X99030109Y-86619786D01*
X99115890Y-86501717D01*
X99155051Y-86447816D01*
X99159793Y-86438508D01*
X99207763Y-86387711D01*
X99275583Y-86370911D01*
X99341719Y-86393445D01*
X99380763Y-86438500D01*
X99385373Y-86447547D01*
X99424728Y-86501716D01*
X100057037Y-85869408D01*
X100074075Y-85932993D01*
X100139901Y-86047007D01*
X100232993Y-86140099D01*
X100347007Y-86205925D01*
X100410590Y-86222962D01*
X99778282Y-86855269D01*
X99778282Y-86855270D01*
X99832449Y-86894624D01*
X100021782Y-86991095D01*
X100223870Y-87056757D01*
X100433754Y-87090000D01*
X100646246Y-87090000D01*
X100856127Y-87056757D01*
X100856130Y-87056757D01*
X101058217Y-86991095D01*
X101247554Y-86894622D01*
X101301716Y-86855270D01*
X101301717Y-86855270D01*
X100669408Y-86222962D01*
X100732993Y-86205925D01*
X100847007Y-86140099D01*
X100940099Y-86047007D01*
X101005925Y-85932993D01*
X101022962Y-85869408D01*
X101655270Y-86501717D01*
X101655270Y-86501716D01*
X101694622Y-86447554D01*
X101791095Y-86258217D01*
X101856757Y-86056130D01*
X101856757Y-86056127D01*
X101890000Y-85846246D01*
X101890000Y-85633753D01*
X101856757Y-85423872D01*
X101856757Y-85423869D01*
X101791095Y-85221782D01*
X101694624Y-85032449D01*
X101655270Y-84978282D01*
X101655269Y-84978282D01*
X101022962Y-85610590D01*
X101005925Y-85547007D01*
X100940099Y-85432993D01*
X100847007Y-85339901D01*
X100732993Y-85274075D01*
X100669409Y-85257037D01*
X101339627Y-84586818D01*
X101400950Y-84553333D01*
X101427307Y-84550499D01*
X101437872Y-84550499D01*
X101497483Y-84544091D01*
X101632331Y-84493796D01*
X101747546Y-84407546D01*
X101833796Y-84292331D01*
X101884091Y-84157483D01*
X101890500Y-84097873D01*
X101890499Y-82302128D01*
X101884091Y-82242517D01*
X101882810Y-82239083D01*
X101833797Y-82107671D01*
X101833793Y-82107664D01*
X101747547Y-81992455D01*
X101747544Y-81992452D01*
X101632335Y-81906206D01*
X101632328Y-81906202D01*
X101497482Y-81855908D01*
X101497483Y-81855908D01*
X101437883Y-81849501D01*
X101437881Y-81849500D01*
X101437873Y-81849500D01*
X101437864Y-81849500D01*
X99642129Y-81849500D01*
X99642123Y-81849501D01*
X99582516Y-81855908D01*
X99447671Y-81906202D01*
X99447664Y-81906206D01*
X99332455Y-81992452D01*
X99332452Y-81992455D01*
X99246206Y-82107664D01*
X99246203Y-82107669D01*
X99197189Y-82239083D01*
X99155317Y-82295016D01*
X99089853Y-82319433D01*
X99021580Y-82304581D01*
X98993326Y-82283430D01*
X98879786Y-82169890D01*
X98707820Y-82044951D01*
X98518414Y-81948444D01*
X98518413Y-81948443D01*
X98518412Y-81948443D01*
X98316243Y-81882754D01*
X98316241Y-81882753D01*
X98316240Y-81882753D01*
X98154957Y-81857208D01*
X98106287Y-81849500D01*
X97893713Y-81849500D01*
X97845042Y-81857208D01*
X97683760Y-81882753D01*
X97481585Y-81948444D01*
X97292179Y-82044951D01*
X97120213Y-82169890D01*
X96969890Y-82320213D01*
X96844949Y-82492182D01*
X96840484Y-82500946D01*
X96792509Y-82551742D01*
X96724688Y-82568536D01*
X96658553Y-82545998D01*
X96619516Y-82500946D01*
X96615050Y-82492182D01*
X96490109Y-82320213D01*
X96339786Y-82169890D01*
X96167820Y-82044951D01*
X95978414Y-81948444D01*
X95978413Y-81948443D01*
X95978412Y-81948443D01*
X95776243Y-81882754D01*
X95776241Y-81882753D01*
X95776240Y-81882753D01*
X95614957Y-81857208D01*
X95566287Y-81849500D01*
X95353713Y-81849500D01*
X95305042Y-81857208D01*
X95143760Y-81882753D01*
X94941585Y-81948444D01*
X94752179Y-82044951D01*
X94580213Y-82169890D01*
X94429890Y-82320213D01*
X94304951Y-82492179D01*
X94208444Y-82681585D01*
X94142753Y-82883760D01*
X94109500Y-83093713D01*
X80200500Y-83093713D01*
X80200500Y-78124500D01*
X80220185Y-78057461D01*
X80272989Y-78011706D01*
X80324500Y-78000500D01*
X100401774Y-78000500D01*
X100468813Y-78020185D01*
G37*
%TD.AperFunction*%
%TA.AperFunction,Conductor*%
G36*
X118314075Y-127692993D02*
G01*
X118379901Y-127807007D01*
X118472993Y-127900099D01*
X118587007Y-127965925D01*
X118650590Y-127982962D01*
X118018282Y-128615269D01*
X118018282Y-128615270D01*
X118072449Y-128654624D01*
X118261782Y-128751095D01*
X118281706Y-128757569D01*
X118339381Y-128797006D01*
X118366580Y-128861365D01*
X118354665Y-128930211D01*
X118307421Y-128981687D01*
X118243388Y-128999500D01*
X116778226Y-128999500D01*
X116711187Y-128979815D01*
X116665432Y-128927011D01*
X116655488Y-128857853D01*
X116684513Y-128794297D01*
X116739906Y-128757569D01*
X116758412Y-128751557D01*
X116947816Y-128655051D01*
X117034138Y-128592335D01*
X117119786Y-128530109D01*
X117119788Y-128530106D01*
X117119792Y-128530104D01*
X117270104Y-128379792D01*
X117270106Y-128379788D01*
X117270109Y-128379786D01*
X117355890Y-128261717D01*
X117395051Y-128207816D01*
X117399793Y-128198508D01*
X117447763Y-128147711D01*
X117515583Y-128130911D01*
X117581719Y-128153445D01*
X117620763Y-128198500D01*
X117625373Y-128207547D01*
X117664728Y-128261716D01*
X118297037Y-127629408D01*
X118314075Y-127692993D01*
G37*
%TD.AperFunction*%
%TA.AperFunction,Conductor*%
G36*
X119895270Y-128261717D02*
G01*
X119895270Y-128261716D01*
X119934622Y-128207555D01*
X119939232Y-128198507D01*
X119987205Y-128147709D01*
X120055025Y-128130912D01*
X120121161Y-128153447D01*
X120160204Y-128198504D01*
X120164949Y-128207817D01*
X120289890Y-128379786D01*
X120440213Y-128530109D01*
X120612179Y-128655048D01*
X120612181Y-128655049D01*
X120612184Y-128655051D01*
X120801588Y-128751557D01*
X120820092Y-128757569D01*
X120877768Y-128797006D01*
X120904966Y-128861365D01*
X120893051Y-128930211D01*
X120845807Y-128981687D01*
X120781774Y-128999500D01*
X119316612Y-128999500D01*
X119249573Y-128979815D01*
X119203818Y-128927011D01*
X119193874Y-128857853D01*
X119222899Y-128794297D01*
X119278294Y-128757569D01*
X119298217Y-128751095D01*
X119487554Y-128654622D01*
X119541716Y-128615270D01*
X119541717Y-128615270D01*
X118909408Y-127982962D01*
X118972993Y-127965925D01*
X119087007Y-127900099D01*
X119180099Y-127807007D01*
X119245925Y-127692993D01*
X119262962Y-127629408D01*
X119895270Y-128261717D01*
G37*
%TD.AperFunction*%
%TA.AperFunction,Conductor*%
G36*
X125934075Y-127692993D02*
G01*
X125999901Y-127807007D01*
X126092993Y-127900099D01*
X126207007Y-127965925D01*
X126270590Y-127982962D01*
X125638282Y-128615269D01*
X125638282Y-128615270D01*
X125692449Y-128654624D01*
X125881782Y-128751095D01*
X125901706Y-128757569D01*
X125959381Y-128797006D01*
X125986580Y-128861365D01*
X125974665Y-128930211D01*
X125927421Y-128981687D01*
X125863388Y-128999500D01*
X124398226Y-128999500D01*
X124331187Y-128979815D01*
X124285432Y-128927011D01*
X124275488Y-128857853D01*
X124304513Y-128794297D01*
X124359906Y-128757569D01*
X124378412Y-128751557D01*
X124567816Y-128655051D01*
X124654138Y-128592335D01*
X124739786Y-128530109D01*
X124739788Y-128530106D01*
X124739792Y-128530104D01*
X124890104Y-128379792D01*
X124890106Y-128379788D01*
X124890109Y-128379786D01*
X124975890Y-128261717D01*
X125015051Y-128207816D01*
X125019793Y-128198508D01*
X125067763Y-128147711D01*
X125135583Y-128130911D01*
X125201719Y-128153445D01*
X125240763Y-128198500D01*
X125245373Y-128207547D01*
X125284728Y-128261716D01*
X125917037Y-127629408D01*
X125934075Y-127692993D01*
G37*
%TD.AperFunction*%
%TA.AperFunction,Conductor*%
G36*
X127553181Y-128299628D02*
G01*
X127586666Y-128360951D01*
X127589500Y-128387300D01*
X127589500Y-128397865D01*
X127589501Y-128397876D01*
X127595908Y-128457483D01*
X127646202Y-128592328D01*
X127646206Y-128592335D01*
X127732452Y-128707544D01*
X127732455Y-128707547D01*
X127824208Y-128776234D01*
X127866079Y-128832168D01*
X127871063Y-128901859D01*
X127837577Y-128963182D01*
X127776254Y-128996666D01*
X127749897Y-128999500D01*
X126936612Y-128999500D01*
X126869573Y-128979815D01*
X126823818Y-128927011D01*
X126813874Y-128857853D01*
X126842899Y-128794297D01*
X126898294Y-128757569D01*
X126918217Y-128751095D01*
X127107554Y-128654622D01*
X127161716Y-128615270D01*
X127161717Y-128615270D01*
X126529408Y-127982962D01*
X126592993Y-127965925D01*
X126707007Y-127900099D01*
X126800099Y-127807007D01*
X126865925Y-127692993D01*
X126882962Y-127629408D01*
X127553181Y-128299628D01*
G37*
%TD.AperFunction*%
%TA.AperFunction,Conductor*%
G36*
X147142539Y-78020185D02*
G01*
X147188294Y-78072989D01*
X147199500Y-78124500D01*
X147199500Y-90469959D01*
X147195212Y-90505551D01*
X147199500Y-90535567D01*
X147199500Y-90565892D01*
X147203027Y-90579055D01*
X147206853Y-90593334D01*
X147209830Y-90607885D01*
X147213848Y-90636007D01*
X147213851Y-90636020D01*
X147222297Y-90655794D01*
X147222298Y-90655794D01*
X147225759Y-90663896D01*
X147233608Y-90693186D01*
X147251533Y-90724233D01*
X147254759Y-90731785D01*
X147265613Y-90757197D01*
X147265615Y-90757199D01*
X147265616Y-90757202D01*
X147268042Y-90760292D01*
X147278897Y-90774122D01*
X147284341Y-90781058D01*
X147299500Y-90807314D01*
X147324842Y-90832656D01*
X147329434Y-90838506D01*
X147329438Y-90838510D01*
X147346986Y-90860865D01*
X147371245Y-90879059D01*
X147392686Y-90900500D01*
X147423731Y-90918424D01*
X149064148Y-92148735D01*
X149149900Y-92213049D01*
X149191721Y-92269020D01*
X149199500Y-92312249D01*
X149199500Y-125687749D01*
X149179815Y-125754788D01*
X149149900Y-125786949D01*
X147429681Y-127077112D01*
X147423728Y-127081576D01*
X147392686Y-127099500D01*
X147371248Y-127120936D01*
X147364204Y-127126220D01*
X147364202Y-127126222D01*
X147346985Y-127139135D01*
X147346983Y-127139136D01*
X147329444Y-127161478D01*
X147329445Y-127161479D01*
X147324843Y-127167341D01*
X147299500Y-127192686D01*
X147284339Y-127218944D01*
X147278897Y-127225878D01*
X147265616Y-127242796D01*
X147265616Y-127242797D01*
X147254455Y-127268925D01*
X147247813Y-127282207D01*
X147233609Y-127306809D01*
X147228037Y-127327602D01*
X147228036Y-127327601D01*
X147225756Y-127336108D01*
X147213849Y-127363988D01*
X147208779Y-127399474D01*
X147206852Y-127406668D01*
X147199500Y-127434104D01*
X147199500Y-127455618D01*
X147198254Y-127473152D01*
X147195212Y-127494448D01*
X147198610Y-127522652D01*
X147199500Y-127537484D01*
X147199500Y-128875500D01*
X147179815Y-128942539D01*
X147127011Y-128988294D01*
X147075500Y-128999500D01*
X146098226Y-128999500D01*
X146031187Y-128979815D01*
X145985432Y-128927011D01*
X145975488Y-128857853D01*
X146004513Y-128794297D01*
X146059906Y-128757569D01*
X146078412Y-128751557D01*
X146267816Y-128655051D01*
X146354138Y-128592335D01*
X146439786Y-128530109D01*
X146439788Y-128530106D01*
X146439792Y-128530104D01*
X146590104Y-128379792D01*
X146590106Y-128379788D01*
X146590109Y-128379786D01*
X146715048Y-128207820D01*
X146715047Y-128207820D01*
X146715051Y-128207816D01*
X146811557Y-128018412D01*
X146877246Y-127816243D01*
X146910500Y-127606287D01*
X146910500Y-127393713D01*
X146877246Y-127183757D01*
X146811557Y-126981588D01*
X146715051Y-126792184D01*
X146715049Y-126792181D01*
X146715048Y-126792179D01*
X146590109Y-126620213D01*
X146439786Y-126469890D01*
X146267820Y-126344951D01*
X146078414Y-126248444D01*
X146078413Y-126248443D01*
X146078412Y-126248443D01*
X145876243Y-126182754D01*
X145876241Y-126182753D01*
X145876240Y-126182753D01*
X145714957Y-126157208D01*
X145666287Y-126149500D01*
X145453713Y-126149500D01*
X145405042Y-126157208D01*
X145243760Y-126182753D01*
X145041585Y-126248444D01*
X144852179Y-126344951D01*
X144680213Y-126469890D01*
X144529890Y-126620213D01*
X144404949Y-126792182D01*
X144400484Y-126800946D01*
X144352509Y-126851742D01*
X144284688Y-126868536D01*
X144218553Y-126845998D01*
X144179516Y-126800946D01*
X144175050Y-126792182D01*
X144050109Y-126620213D01*
X143899786Y-126469890D01*
X143727820Y-126344951D01*
X143538414Y-126248444D01*
X143538413Y-126248443D01*
X143538412Y-126248443D01*
X143336243Y-126182754D01*
X143336241Y-126182753D01*
X143336240Y-126182753D01*
X143174957Y-126157208D01*
X143126287Y-126149500D01*
X142913713Y-126149500D01*
X142865042Y-126157208D01*
X142703760Y-126182753D01*
X142501585Y-126248444D01*
X142312179Y-126344951D01*
X142140213Y-126469890D01*
X141989890Y-126620213D01*
X141864949Y-126792182D01*
X141860484Y-126800946D01*
X141812509Y-126851742D01*
X141744688Y-126868536D01*
X141678553Y-126845998D01*
X141639516Y-126800946D01*
X141635050Y-126792182D01*
X141510109Y-126620213D01*
X141359786Y-126469890D01*
X141187820Y-126344951D01*
X140998414Y-126248444D01*
X140998413Y-126248443D01*
X140998412Y-126248443D01*
X140796243Y-126182754D01*
X140796241Y-126182753D01*
X140796240Y-126182753D01*
X140634957Y-126157208D01*
X140586287Y-126149500D01*
X140373713Y-126149500D01*
X140325042Y-126157208D01*
X140163760Y-126182753D01*
X139961585Y-126248444D01*
X139772179Y-126344951D01*
X139600213Y-126469890D01*
X139449890Y-126620213D01*
X139324949Y-126792182D01*
X139320484Y-126800946D01*
X139272509Y-126851742D01*
X139204688Y-126868536D01*
X139138553Y-126845998D01*
X139099516Y-126800946D01*
X139095050Y-126792182D01*
X138970109Y-126620213D01*
X138819786Y-126469890D01*
X138647820Y-126344951D01*
X138458414Y-126248444D01*
X138458413Y-126248443D01*
X138458412Y-126248443D01*
X138256243Y-126182754D01*
X138256241Y-126182753D01*
X138256240Y-126182753D01*
X138094957Y-126157208D01*
X138046287Y-126149500D01*
X137833713Y-126149500D01*
X137785042Y-126157208D01*
X137623760Y-126182753D01*
X137421585Y-126248444D01*
X137232179Y-126344951D01*
X137060213Y-126469890D01*
X136909890Y-126620213D01*
X136784949Y-126792182D01*
X136780484Y-126800946D01*
X136732509Y-126851742D01*
X136664688Y-126868536D01*
X136598553Y-126845998D01*
X136559516Y-126800946D01*
X136555050Y-126792182D01*
X136430109Y-126620213D01*
X136279786Y-126469890D01*
X136107820Y-126344951D01*
X135918414Y-126248444D01*
X135918413Y-126248443D01*
X135918412Y-126248443D01*
X135716243Y-126182754D01*
X135716241Y-126182753D01*
X135716240Y-126182753D01*
X135554957Y-126157208D01*
X135506287Y-126149500D01*
X135293713Y-126149500D01*
X135245042Y-126157208D01*
X135083760Y-126182753D01*
X134881585Y-126248444D01*
X134692179Y-126344951D01*
X134520215Y-126469889D01*
X134406673Y-126583431D01*
X134345350Y-126616915D01*
X134275658Y-126611931D01*
X134219725Y-126570059D01*
X134202810Y-126539082D01*
X134153797Y-126407671D01*
X134153793Y-126407664D01*
X134067547Y-126292455D01*
X134067544Y-126292452D01*
X133952335Y-126206206D01*
X133952328Y-126206202D01*
X133817482Y-126155908D01*
X133817483Y-126155908D01*
X133757883Y-126149501D01*
X133757881Y-126149500D01*
X133757873Y-126149500D01*
X133757864Y-126149500D01*
X131962129Y-126149500D01*
X131962123Y-126149501D01*
X131902516Y-126155908D01*
X131767671Y-126206202D01*
X131767664Y-126206206D01*
X131652455Y-126292452D01*
X131652452Y-126292455D01*
X131566206Y-126407664D01*
X131566202Y-126407671D01*
X131515908Y-126542517D01*
X131511510Y-126583431D01*
X131509501Y-126602123D01*
X131509500Y-126602135D01*
X131509500Y-128397870D01*
X131509501Y-128397876D01*
X131515908Y-128457483D01*
X131566202Y-128592328D01*
X131566206Y-128592335D01*
X131652452Y-128707544D01*
X131652455Y-128707547D01*
X131744208Y-128776234D01*
X131786079Y-128832168D01*
X131791063Y-128901859D01*
X131757577Y-128963182D01*
X131696254Y-128996666D01*
X131669897Y-128999500D01*
X130130103Y-128999500D01*
X130063064Y-128979815D01*
X130017309Y-128927011D01*
X130007365Y-128857853D01*
X130036390Y-128794297D01*
X130055792Y-128776234D01*
X130115240Y-128731730D01*
X130147546Y-128707546D01*
X130233796Y-128592331D01*
X130284091Y-128457483D01*
X130290500Y-128397873D01*
X130290499Y-126602128D01*
X130284091Y-126542517D01*
X130237807Y-126418424D01*
X130233797Y-126407671D01*
X130233793Y-126407664D01*
X130147547Y-126292455D01*
X130147544Y-126292452D01*
X130032335Y-126206206D01*
X130032328Y-126206202D01*
X129897482Y-126155908D01*
X129897483Y-126155908D01*
X129837883Y-126149501D01*
X129837881Y-126149500D01*
X129837873Y-126149500D01*
X129837864Y-126149500D01*
X128042129Y-126149500D01*
X128042123Y-126149501D01*
X127982516Y-126155908D01*
X127847671Y-126206202D01*
X127847664Y-126206206D01*
X127732455Y-126292452D01*
X127732452Y-126292455D01*
X127646206Y-126407664D01*
X127646202Y-126407671D01*
X127595908Y-126542517D01*
X127591510Y-126583431D01*
X127589501Y-126602123D01*
X127589500Y-126602135D01*
X127589500Y-126612690D01*
X127569815Y-126679729D01*
X127553181Y-126700371D01*
X126882962Y-127370590D01*
X126865925Y-127307007D01*
X126800099Y-127192993D01*
X126707007Y-127099901D01*
X126592993Y-127034075D01*
X126529409Y-127017037D01*
X127161716Y-126384728D01*
X127107550Y-126345375D01*
X126918217Y-126248904D01*
X126716129Y-126183242D01*
X126506246Y-126150000D01*
X126293754Y-126150000D01*
X126083872Y-126183242D01*
X126083869Y-126183242D01*
X125881782Y-126248904D01*
X125692439Y-126345380D01*
X125638282Y-126384727D01*
X125638282Y-126384728D01*
X126270591Y-127017037D01*
X126207007Y-127034075D01*
X126092993Y-127099901D01*
X125999901Y-127192993D01*
X125934075Y-127307007D01*
X125917037Y-127370591D01*
X125284728Y-126738282D01*
X125284727Y-126738282D01*
X125245380Y-126792440D01*
X125245376Y-126792446D01*
X125240760Y-126801505D01*
X125192781Y-126852297D01*
X125124959Y-126869087D01*
X125058826Y-126846543D01*
X125019794Y-126801493D01*
X125015051Y-126792184D01*
X125015049Y-126792181D01*
X125015048Y-126792179D01*
X124890109Y-126620213D01*
X124739786Y-126469890D01*
X124567820Y-126344951D01*
X124378414Y-126248444D01*
X124378413Y-126248443D01*
X124378412Y-126248443D01*
X124176243Y-126182754D01*
X124176241Y-126182753D01*
X124176240Y-126182753D01*
X124014957Y-126157208D01*
X123966287Y-126149500D01*
X123753713Y-126149500D01*
X123705042Y-126157208D01*
X123543760Y-126182753D01*
X123341585Y-126248444D01*
X123152179Y-126344951D01*
X122980213Y-126469890D01*
X122829890Y-126620213D01*
X122704949Y-126792182D01*
X122700484Y-126800946D01*
X122652509Y-126851742D01*
X122584688Y-126868536D01*
X122518553Y-126845998D01*
X122479516Y-126800946D01*
X122475050Y-126792182D01*
X122350109Y-126620213D01*
X122199786Y-126469890D01*
X122027820Y-126344951D01*
X121838414Y-126248444D01*
X121838413Y-126248443D01*
X121838412Y-126248443D01*
X121636243Y-126182754D01*
X121636241Y-126182753D01*
X121636240Y-126182753D01*
X121474957Y-126157208D01*
X121426287Y-126149500D01*
X121213713Y-126149500D01*
X121165042Y-126157208D01*
X121003760Y-126182753D01*
X120801581Y-126248445D01*
X120772426Y-126263300D01*
X120703756Y-126276195D01*
X120639017Y-126249917D01*
X120628453Y-126240495D01*
X112436855Y-118048896D01*
X112403370Y-117987573D01*
X112408354Y-117917881D01*
X112450226Y-117861948D01*
X112451514Y-117860996D01*
X112508393Y-117819672D01*
X112639672Y-117688393D01*
X112748799Y-117538193D01*
X112833085Y-117372771D01*
X112890457Y-117196200D01*
X112890457Y-117196197D01*
X112891962Y-117191567D01*
X112894147Y-117192277D01*
X112924203Y-117139914D01*
X112986224Y-117107740D01*
X113055794Y-117114205D01*
X113110824Y-117157256D01*
X113126692Y-117192004D01*
X113128038Y-117191567D01*
X113129542Y-117196197D01*
X113129543Y-117196200D01*
X113186915Y-117372771D01*
X113271201Y-117538193D01*
X113380328Y-117688393D01*
X113511607Y-117819672D01*
X113661807Y-117928799D01*
X113827229Y-118013085D01*
X114003800Y-118070457D01*
X114066925Y-118080455D01*
X114187166Y-118099500D01*
X114187171Y-118099500D01*
X114372834Y-118099500D01*
X114474701Y-118083365D01*
X114556200Y-118070457D01*
X114732771Y-118013085D01*
X114898193Y-117928799D01*
X115048393Y-117819672D01*
X115179672Y-117688393D01*
X115288799Y-117538193D01*
X115373085Y-117372771D01*
X115430457Y-117196200D01*
X115430457Y-117196197D01*
X115431962Y-117191567D01*
X115434147Y-117192277D01*
X115464203Y-117139914D01*
X115526224Y-117107740D01*
X115595794Y-117114205D01*
X115650824Y-117157256D01*
X115666692Y-117192004D01*
X115668038Y-117191567D01*
X115669542Y-117196197D01*
X115669543Y-117196200D01*
X115726915Y-117372771D01*
X115811201Y-117538193D01*
X115920328Y-117688393D01*
X116051607Y-117819672D01*
X116201807Y-117928799D01*
X116367229Y-118013085D01*
X116543800Y-118070457D01*
X116606925Y-118080455D01*
X116727166Y-118099500D01*
X116727171Y-118099500D01*
X116912833Y-118099500D01*
X116980892Y-118088719D01*
X117055398Y-118076919D01*
X117124690Y-118085873D01*
X117162476Y-118111711D01*
X119369139Y-120318374D01*
X119369149Y-120318385D01*
X119373479Y-120322715D01*
X119373480Y-120322716D01*
X119485284Y-120434520D01*
X119572095Y-120484639D01*
X119572097Y-120484641D01*
X119610151Y-120506611D01*
X119622215Y-120513577D01*
X119774943Y-120554501D01*
X119774946Y-120554501D01*
X119940653Y-120554501D01*
X119940669Y-120554500D01*
X137036331Y-120554500D01*
X137036347Y-120554501D01*
X137043943Y-120554501D01*
X137202054Y-120554501D01*
X137202057Y-120554501D01*
X137354785Y-120513577D01*
X137404904Y-120484639D01*
X137491716Y-120434520D01*
X137520704Y-120405531D01*
X137530397Y-120398944D01*
X137552951Y-120391686D01*
X137573741Y-120380334D01*
X137595498Y-120377994D01*
X137596908Y-120377541D01*
X137597717Y-120377756D01*
X137600099Y-120377500D01*
X144948779Y-120377500D01*
X144948795Y-120377501D01*
X144956391Y-120377501D01*
X145114502Y-120377501D01*
X145114505Y-120377501D01*
X145267233Y-120336577D01*
X145317352Y-120307639D01*
X145404164Y-120257520D01*
X145515968Y-120145716D01*
X145515968Y-120145714D01*
X145526176Y-120135507D01*
X145526178Y-120135504D01*
X146685506Y-118976176D01*
X146685511Y-118976172D01*
X146695714Y-118965968D01*
X146695716Y-118965968D01*
X146807520Y-118854164D01*
X146886577Y-118717232D01*
X146927500Y-118564505D01*
X146927500Y-113350096D01*
X146947185Y-113283057D01*
X146963814Y-113262419D01*
X148035506Y-112190727D01*
X148035511Y-112190724D01*
X148045714Y-112180520D01*
X148045716Y-112180520D01*
X148157520Y-112068716D01*
X148211916Y-111974499D01*
X148236577Y-111931785D01*
X148277500Y-111779058D01*
X148277500Y-111620943D01*
X148277500Y-103126059D01*
X148277501Y-103126046D01*
X148277501Y-102957945D01*
X148277501Y-102957943D01*
X148236577Y-102805215D01*
X148197273Y-102737139D01*
X148157520Y-102668284D01*
X148045716Y-102556480D01*
X148045715Y-102556479D01*
X148041385Y-102552149D01*
X148041374Y-102552139D01*
X147933757Y-102444522D01*
X147900272Y-102383199D01*
X147903507Y-102318523D01*
X147917246Y-102276243D01*
X147950500Y-102066287D01*
X147950500Y-101853713D01*
X147917246Y-101643757D01*
X147851557Y-101441588D01*
X147755051Y-101252184D01*
X147755049Y-101252181D01*
X147755048Y-101252179D01*
X147630109Y-101080213D01*
X147479786Y-100929890D01*
X147307817Y-100804949D01*
X147298504Y-100800204D01*
X147247707Y-100752230D01*
X147230912Y-100684409D01*
X147253449Y-100618274D01*
X147298507Y-100579232D01*
X147307555Y-100574622D01*
X147361716Y-100535270D01*
X147361717Y-100535270D01*
X146729408Y-99902962D01*
X146792993Y-99885925D01*
X146907007Y-99820099D01*
X147000099Y-99727007D01*
X147065925Y-99612993D01*
X147082962Y-99549408D01*
X147715270Y-100181717D01*
X147715270Y-100181716D01*
X147754622Y-100127554D01*
X147851095Y-99938217D01*
X147916757Y-99736130D01*
X147916757Y-99736127D01*
X147950000Y-99526246D01*
X147950000Y-99313753D01*
X147916757Y-99103872D01*
X147916757Y-99103869D01*
X147851095Y-98901782D01*
X147754624Y-98712449D01*
X147715270Y-98658282D01*
X147715269Y-98658282D01*
X147082962Y-99290590D01*
X147065925Y-99227007D01*
X147000099Y-99112993D01*
X146907007Y-99019901D01*
X146792993Y-98954075D01*
X146729409Y-98937037D01*
X147361716Y-98304728D01*
X147307550Y-98265375D01*
X147118217Y-98168904D01*
X146916129Y-98103242D01*
X146706246Y-98070000D01*
X146493754Y-98070000D01*
X146283872Y-98103242D01*
X146283869Y-98103242D01*
X146081782Y-98168904D01*
X145892439Y-98265380D01*
X145838282Y-98304727D01*
X145838282Y-98304728D01*
X146470591Y-98937037D01*
X146407007Y-98954075D01*
X146292993Y-99019901D01*
X146199901Y-99112993D01*
X146134075Y-99227007D01*
X146117037Y-99290591D01*
X145446818Y-98620372D01*
X145413333Y-98559049D01*
X145413330Y-98559036D01*
X145410499Y-98546015D01*
X145410499Y-98522128D01*
X145404091Y-98462517D01*
X145373129Y-98379503D01*
X145353798Y-98327673D01*
X145353793Y-98327664D01*
X145267547Y-98212455D01*
X145267544Y-98212452D01*
X145152335Y-98126206D01*
X145152328Y-98126202D01*
X145017482Y-98075908D01*
X145017483Y-98075908D01*
X144957883Y-98069501D01*
X144957881Y-98069500D01*
X144957873Y-98069500D01*
X144957864Y-98069500D01*
X143162129Y-98069500D01*
X143162123Y-98069501D01*
X143102516Y-98075908D01*
X142967671Y-98126202D01*
X142967664Y-98126206D01*
X142852455Y-98212452D01*
X142813732Y-98264179D01*
X142799461Y-98274861D01*
X142788779Y-98289132D01*
X142772072Y-98295363D01*
X142757797Y-98306050D01*
X142740015Y-98307321D01*
X142723315Y-98313551D01*
X142705891Y-98309761D01*
X142688106Y-98311033D01*
X142672460Y-98302489D01*
X142655042Y-98298701D01*
X142626789Y-98277551D01*
X142626787Y-98277550D01*
X142605581Y-98256345D01*
X142588716Y-98239480D01*
X142588713Y-98239478D01*
X141634574Y-97285339D01*
X141601089Y-97224016D01*
X141600638Y-97221849D01*
X141569738Y-97066510D01*
X141569737Y-97066503D01*
X141569735Y-97066498D01*
X141509397Y-96920827D01*
X141509391Y-96920816D01*
X141475299Y-96869793D01*
X141454422Y-96803116D01*
X141472907Y-96735736D01*
X141490717Y-96713226D01*
X143300016Y-94903927D01*
X143319341Y-94889097D01*
X143319596Y-94888757D01*
X143320938Y-94887871D01*
X143325681Y-94884232D01*
X143325680Y-94884232D01*
X143331904Y-94880639D01*
X143418716Y-94830520D01*
X143530520Y-94718716D01*
X143530520Y-94718714D01*
X143540728Y-94708507D01*
X143540730Y-94708504D01*
X145508506Y-92740728D01*
X145508511Y-92740724D01*
X145518714Y-92730520D01*
X145518716Y-92730520D01*
X145630520Y-92618716D01*
X145709577Y-92481784D01*
X145748090Y-92338052D01*
X145750499Y-92329063D01*
X145750500Y-92329057D01*
X145750500Y-81039059D01*
X145750500Y-81029060D01*
X145750501Y-81029058D01*
X145750501Y-80939898D01*
X145770186Y-80872858D01*
X145822991Y-80827104D01*
X145822995Y-80827103D01*
X145851543Y-80818499D01*
X145851515Y-80818381D01*
X145853593Y-80817882D01*
X145855107Y-80817425D01*
X145856243Y-80817246D01*
X146058412Y-80751557D01*
X146247816Y-80655051D01*
X146300587Y-80616711D01*
X146419786Y-80530109D01*
X146419788Y-80530106D01*
X146419792Y-80530104D01*
X146570104Y-80379792D01*
X146570106Y-80379788D01*
X146570109Y-80379786D01*
X146695048Y-80207820D01*
X146695047Y-80207820D01*
X146695051Y-80207816D01*
X146791557Y-80018412D01*
X146857246Y-79816243D01*
X146890500Y-79606287D01*
X146890500Y-79393713D01*
X146857246Y-79183757D01*
X146791557Y-78981588D01*
X146695051Y-78792184D01*
X146695049Y-78792181D01*
X146695048Y-78792179D01*
X146570109Y-78620213D01*
X146419786Y-78469890D01*
X146247820Y-78344951D01*
X146058414Y-78248444D01*
X146058413Y-78248443D01*
X146058412Y-78248443D01*
X146039907Y-78242430D01*
X145982232Y-78202994D01*
X145955034Y-78138635D01*
X145966949Y-78069789D01*
X146014193Y-78018313D01*
X146078226Y-78000500D01*
X147075500Y-78000500D01*
X147142539Y-78020185D01*
G37*
%TD.AperFunction*%
%TA.AperFunction,Conductor*%
G36*
X125432847Y-117559295D02*
G01*
X125432848Y-117559294D01*
X125448364Y-117537940D01*
X125448368Y-117537933D01*
X125532620Y-117372583D01*
X125591475Y-117191449D01*
X125593398Y-117192073D01*
X125623923Y-117138861D01*
X125685937Y-117106673D01*
X125755508Y-117113121D01*
X125810549Y-117156159D01*
X125826901Y-117191936D01*
X125828038Y-117191567D01*
X125829542Y-117196197D01*
X125829543Y-117196200D01*
X125886915Y-117372771D01*
X125971201Y-117538193D01*
X126080328Y-117688393D01*
X126211607Y-117819672D01*
X126361807Y-117928799D01*
X126527229Y-118013085D01*
X126703800Y-118070457D01*
X126766925Y-118080455D01*
X126887166Y-118099500D01*
X126887171Y-118099500D01*
X127072834Y-118099500D01*
X127174701Y-118083365D01*
X127256200Y-118070457D01*
X127432771Y-118013085D01*
X127598193Y-117928799D01*
X127748393Y-117819672D01*
X127879672Y-117688393D01*
X127988799Y-117538193D01*
X128073085Y-117372771D01*
X128130457Y-117196200D01*
X128130457Y-117196197D01*
X128131962Y-117191567D01*
X128134147Y-117192277D01*
X128164203Y-117139914D01*
X128226224Y-117107740D01*
X128295794Y-117114205D01*
X128350824Y-117157256D01*
X128366692Y-117192004D01*
X128368038Y-117191567D01*
X128369542Y-117196197D01*
X128369543Y-117196200D01*
X128426915Y-117372771D01*
X128511201Y-117538193D01*
X128620328Y-117688393D01*
X128751607Y-117819672D01*
X128901807Y-117928799D01*
X129067229Y-118013085D01*
X129243800Y-118070457D01*
X129306925Y-118080455D01*
X129427166Y-118099500D01*
X129427171Y-118099500D01*
X129612834Y-118099500D01*
X129714701Y-118083365D01*
X129796200Y-118070457D01*
X129972771Y-118013085D01*
X130138193Y-117928799D01*
X130288393Y-117819672D01*
X130419672Y-117688393D01*
X130528799Y-117538193D01*
X130613085Y-117372771D01*
X130670457Y-117196200D01*
X130670457Y-117196197D01*
X130671962Y-117191567D01*
X130674147Y-117192277D01*
X130704203Y-117139914D01*
X130766224Y-117107740D01*
X130835794Y-117114205D01*
X130890824Y-117157256D01*
X130906692Y-117192004D01*
X130908038Y-117191567D01*
X130909542Y-117196197D01*
X130909543Y-117196200D01*
X130966915Y-117372771D01*
X131051201Y-117538193D01*
X131160328Y-117688393D01*
X131291607Y-117819672D01*
X131441807Y-117928799D01*
X131607229Y-118013085D01*
X131783800Y-118070457D01*
X131846925Y-118080455D01*
X131967166Y-118099500D01*
X131967171Y-118099500D01*
X132152834Y-118099500D01*
X132254701Y-118083365D01*
X132336200Y-118070457D01*
X132512771Y-118013085D01*
X132678193Y-117928799D01*
X132828393Y-117819672D01*
X132959672Y-117688393D01*
X133068799Y-117538193D01*
X133153085Y-117372771D01*
X133210457Y-117196200D01*
X133210457Y-117196197D01*
X133211962Y-117191567D01*
X133214147Y-117192277D01*
X133244203Y-117139914D01*
X133306224Y-117107740D01*
X133375794Y-117114205D01*
X133430824Y-117157256D01*
X133446692Y-117192004D01*
X133448038Y-117191567D01*
X133449542Y-117196197D01*
X133449543Y-117196200D01*
X133506915Y-117372771D01*
X133591201Y-117538193D01*
X133700328Y-117688393D01*
X133831607Y-117819672D01*
X133981807Y-117928799D01*
X134147229Y-118013085D01*
X134323800Y-118070457D01*
X134386925Y-118080455D01*
X134507166Y-118099500D01*
X134507171Y-118099500D01*
X134692834Y-118099500D01*
X134794701Y-118083365D01*
X134876200Y-118070457D01*
X135052771Y-118013085D01*
X135218193Y-117928799D01*
X135368393Y-117819672D01*
X135499672Y-117688393D01*
X135608799Y-117538193D01*
X135693085Y-117372771D01*
X135750457Y-117196200D01*
X135750457Y-117196197D01*
X135751962Y-117191567D01*
X135754147Y-117192277D01*
X135784203Y-117139914D01*
X135846224Y-117107740D01*
X135915794Y-117114205D01*
X135970824Y-117157256D01*
X135986692Y-117192004D01*
X135988038Y-117191567D01*
X135989542Y-117196197D01*
X135989543Y-117196200D01*
X136046915Y-117372771D01*
X136131201Y-117538193D01*
X136240328Y-117688393D01*
X136371607Y-117819672D01*
X136521807Y-117928799D01*
X136687229Y-118013085D01*
X136863800Y-118070457D01*
X136926925Y-118080455D01*
X137047166Y-118099500D01*
X137047171Y-118099500D01*
X137232834Y-118099500D01*
X137334701Y-118083365D01*
X137416200Y-118070457D01*
X137592771Y-118013085D01*
X137758193Y-117928799D01*
X137908393Y-117819672D01*
X138039672Y-117688393D01*
X138148799Y-117538193D01*
X138233085Y-117372771D01*
X138290457Y-117196200D01*
X138290457Y-117196197D01*
X138291962Y-117191567D01*
X138294147Y-117192277D01*
X138324203Y-117139914D01*
X138386224Y-117107740D01*
X138455794Y-117114205D01*
X138510824Y-117157256D01*
X138526692Y-117192004D01*
X138528038Y-117191567D01*
X138529542Y-117196197D01*
X138529543Y-117196200D01*
X138586915Y-117372771D01*
X138671201Y-117538193D01*
X138780328Y-117688393D01*
X138911607Y-117819672D01*
X139061807Y-117928799D01*
X139227229Y-118013085D01*
X139403800Y-118070457D01*
X139466925Y-118080455D01*
X139587166Y-118099500D01*
X139587171Y-118099500D01*
X139772834Y-118099500D01*
X139874701Y-118083365D01*
X139956200Y-118070457D01*
X140132771Y-118013085D01*
X140298193Y-117928799D01*
X140448393Y-117819672D01*
X140579672Y-117688393D01*
X140688799Y-117538193D01*
X140773085Y-117372771D01*
X140830457Y-117196200D01*
X140830457Y-117196197D01*
X140831962Y-117191567D01*
X140834147Y-117192277D01*
X140864203Y-117139914D01*
X140926224Y-117107740D01*
X140995794Y-117114205D01*
X141050824Y-117157256D01*
X141066692Y-117192004D01*
X141068038Y-117191567D01*
X141069542Y-117196197D01*
X141069543Y-117196200D01*
X141126915Y-117372771D01*
X141211201Y-117538193D01*
X141320328Y-117688393D01*
X141451607Y-117819672D01*
X141601807Y-117928799D01*
X141767229Y-118013085D01*
X141943800Y-118070457D01*
X142006925Y-118080455D01*
X142127166Y-118099500D01*
X142127171Y-118099500D01*
X142312834Y-118099500D01*
X142414701Y-118083365D01*
X142496200Y-118070457D01*
X142672771Y-118013085D01*
X142838193Y-117928799D01*
X142988393Y-117819672D01*
X143119672Y-117688393D01*
X143228799Y-117538193D01*
X143313085Y-117372771D01*
X143370457Y-117196200D01*
X143370457Y-117196197D01*
X143371962Y-117191567D01*
X143374147Y-117192277D01*
X143404203Y-117139914D01*
X143466224Y-117107740D01*
X143535794Y-117114205D01*
X143590824Y-117157256D01*
X143606692Y-117192004D01*
X143608038Y-117191567D01*
X143609542Y-117196197D01*
X143609543Y-117196200D01*
X143666915Y-117372771D01*
X143751201Y-117538193D01*
X143860328Y-117688393D01*
X143991607Y-117819672D01*
X144141807Y-117928799D01*
X144307229Y-118013085D01*
X144483800Y-118070457D01*
X144546925Y-118080455D01*
X144667166Y-118099500D01*
X144667171Y-118099500D01*
X144852834Y-118099500D01*
X145036194Y-118070458D01*
X145036194Y-118070457D01*
X145036200Y-118070457D01*
X145128782Y-118040374D01*
X145198618Y-118038379D01*
X145258451Y-118074459D01*
X145289280Y-118137160D01*
X145281316Y-118206574D01*
X145254777Y-118245987D01*
X144687584Y-118813181D01*
X144626261Y-118846666D01*
X144599903Y-118849500D01*
X136786670Y-118849500D01*
X136786654Y-118849499D01*
X136779058Y-118849499D01*
X136620943Y-118849499D01*
X136468215Y-118890423D01*
X136337366Y-118965969D01*
X136331281Y-118969482D01*
X136310583Y-118990181D01*
X136249260Y-119023666D01*
X136222902Y-119026500D01*
X123477098Y-119026500D01*
X123410059Y-119006815D01*
X123389417Y-118990181D01*
X122536819Y-118137583D01*
X122522115Y-118110655D01*
X122505523Y-118084837D01*
X122504631Y-118078636D01*
X122503334Y-118076260D01*
X122500500Y-118049902D01*
X122500500Y-118004835D01*
X122520185Y-117937796D01*
X122551614Y-117904517D01*
X122668393Y-117819672D01*
X122799672Y-117688393D01*
X122908799Y-117538193D01*
X122993085Y-117372771D01*
X123050457Y-117196200D01*
X123050457Y-117196197D01*
X123051962Y-117191567D01*
X123053852Y-117192181D01*
X123084436Y-117138863D01*
X123146449Y-117106673D01*
X123216020Y-117113120D01*
X123271062Y-117156156D01*
X123287367Y-117191825D01*
X123288525Y-117191449D01*
X123347379Y-117372583D01*
X123431629Y-117537931D01*
X123447151Y-117559294D01*
X123447151Y-117559295D01*
X124018274Y-116988172D01*
X124043963Y-117084044D01*
X124099916Y-117180956D01*
X124179044Y-117260084D01*
X124275956Y-117316037D01*
X124371827Y-117341725D01*
X123800704Y-117912847D01*
X123800704Y-117912848D01*
X123822068Y-117928370D01*
X123987416Y-118012620D01*
X124163916Y-118069968D01*
X124347212Y-118099000D01*
X124532788Y-118099000D01*
X124716083Y-118069968D01*
X124892583Y-118012620D01*
X125057933Y-117928368D01*
X125057940Y-117928364D01*
X125079294Y-117912848D01*
X125079295Y-117912847D01*
X124508173Y-117341725D01*
X124604044Y-117316037D01*
X124700956Y-117260084D01*
X124780084Y-117180956D01*
X124836037Y-117084044D01*
X124861725Y-116988172D01*
X125432847Y-117559295D01*
G37*
%TD.AperFunction*%
%TA.AperFunction,Conductor*%
G36*
X125755794Y-109194205D02*
G01*
X125810824Y-109237256D01*
X125826692Y-109272004D01*
X125828038Y-109271567D01*
X125829542Y-109276197D01*
X125829543Y-109276200D01*
X125886915Y-109452771D01*
X125971201Y-109618193D01*
X126080328Y-109768393D01*
X126080330Y-109768395D01*
X126132995Y-109821060D01*
X126166480Y-109882383D01*
X126161496Y-109952075D01*
X126119624Y-110008008D01*
X126114208Y-110011841D01*
X126089712Y-110028209D01*
X126089707Y-110028213D01*
X125978213Y-110139707D01*
X125978210Y-110139711D01*
X125890609Y-110270814D01*
X125890602Y-110270827D01*
X125830264Y-110416498D01*
X125830261Y-110416508D01*
X125803489Y-110551099D01*
X125771104Y-110613010D01*
X125710388Y-110647584D01*
X125640618Y-110643843D01*
X125612981Y-110630009D01*
X125479185Y-110540609D01*
X125479172Y-110540602D01*
X125333501Y-110480264D01*
X125333489Y-110480261D01*
X125178845Y-110449500D01*
X125178842Y-110449500D01*
X125021158Y-110449500D01*
X125021155Y-110449500D01*
X124866510Y-110480261D01*
X124866498Y-110480264D01*
X124720827Y-110540602D01*
X124720814Y-110540609D01*
X124589711Y-110628210D01*
X124589707Y-110628213D01*
X124478213Y-110739707D01*
X124478210Y-110739711D01*
X124390609Y-110870814D01*
X124390602Y-110870827D01*
X124330264Y-111016498D01*
X124330261Y-111016510D01*
X124299500Y-111171153D01*
X124299500Y-111328846D01*
X124330261Y-111483489D01*
X124330264Y-111483501D01*
X124390602Y-111629172D01*
X124390609Y-111629185D01*
X124478210Y-111760288D01*
X124478213Y-111760292D01*
X124589707Y-111871786D01*
X124589711Y-111871789D01*
X124720814Y-111959390D01*
X124720827Y-111959397D01*
X124866498Y-112019735D01*
X124866503Y-112019737D01*
X124931147Y-112032595D01*
X125021849Y-112050638D01*
X125083760Y-112083023D01*
X125085339Y-112084574D01*
X126280463Y-113279698D01*
X126313948Y-113341021D01*
X126308964Y-113410713D01*
X126267092Y-113466646D01*
X126201628Y-113491063D01*
X126133355Y-113476211D01*
X126123891Y-113470481D01*
X126079185Y-113440609D01*
X126079172Y-113440602D01*
X125933501Y-113380264D01*
X125933489Y-113380261D01*
X125778845Y-113349500D01*
X125778842Y-113349500D01*
X125621158Y-113349500D01*
X125621155Y-113349500D01*
X125466510Y-113380261D01*
X125466498Y-113380264D01*
X125320827Y-113440602D01*
X125320814Y-113440609D01*
X125189711Y-113528210D01*
X125189707Y-113528213D01*
X125078213Y-113639707D01*
X125078210Y-113639711D01*
X124990609Y-113770814D01*
X124990602Y-113770827D01*
X124930264Y-113916498D01*
X124930261Y-113916510D01*
X124899500Y-114071153D01*
X124899500Y-114228846D01*
X124930261Y-114383489D01*
X124930264Y-114383501D01*
X124990602Y-114529172D01*
X124990609Y-114529185D01*
X125078602Y-114660874D01*
X125099480Y-114727551D01*
X125099500Y-114729765D01*
X125099500Y-115560939D01*
X125099499Y-115560943D01*
X125099499Y-115719057D01*
X125099935Y-115720687D01*
X125099961Y-115730372D01*
X125092339Y-115756578D01*
X125088135Y-115783543D01*
X125082725Y-115789637D01*
X125080450Y-115797462D01*
X125059871Y-115815386D01*
X125041755Y-115835799D01*
X125033909Y-115838001D01*
X125027765Y-115843354D01*
X125000762Y-115847308D01*
X124974487Y-115854685D01*
X124965501Y-115852471D01*
X124958633Y-115853477D01*
X124945609Y-115847570D01*
X124919667Y-115841179D01*
X124892586Y-115827380D01*
X124716083Y-115770031D01*
X124532788Y-115741000D01*
X124347212Y-115741000D01*
X124163916Y-115770031D01*
X123987416Y-115827379D01*
X123822065Y-115911631D01*
X123800704Y-115927150D01*
X123800704Y-115927151D01*
X124371828Y-116498274D01*
X124275956Y-116523963D01*
X124179044Y-116579916D01*
X124099916Y-116659044D01*
X124043963Y-116755956D01*
X124018274Y-116851827D01*
X123447151Y-116280704D01*
X123447150Y-116280704D01*
X123431631Y-116302065D01*
X123347379Y-116467416D01*
X123288525Y-116648551D01*
X123286622Y-116647932D01*
X123256001Y-116701210D01*
X123193961Y-116733346D01*
X123124394Y-116726840D01*
X123069389Y-116683756D01*
X123053103Y-116648062D01*
X123051962Y-116648433D01*
X123050457Y-116643800D01*
X122993085Y-116467229D01*
X122908799Y-116301807D01*
X122799672Y-116151607D01*
X122668393Y-116020328D01*
X122518193Y-115911201D01*
X122517878Y-115910972D01*
X122475213Y-115855642D01*
X122469147Y-115786462D01*
X122472416Y-115770031D01*
X122486839Y-115697520D01*
X122500500Y-115628844D01*
X122500500Y-115471155D01*
X122500499Y-115471153D01*
X122492513Y-115431006D01*
X122469737Y-115316503D01*
X122440601Y-115246162D01*
X122409397Y-115170827D01*
X122409390Y-115170814D01*
X122321789Y-115039711D01*
X122321786Y-115039707D01*
X122210292Y-114928213D01*
X122210287Y-114928209D01*
X122079185Y-114840609D01*
X122079172Y-114840602D01*
X121933501Y-114780264D01*
X121933489Y-114780261D01*
X121778845Y-114749500D01*
X121778842Y-114749500D01*
X121621158Y-114749500D01*
X121621155Y-114749500D01*
X121466510Y-114780261D01*
X121466498Y-114780264D01*
X121320827Y-114840602D01*
X121320814Y-114840609D01*
X121189125Y-114928602D01*
X121122447Y-114949480D01*
X121120234Y-114949500D01*
X115600098Y-114949500D01*
X115533059Y-114929815D01*
X115512417Y-114913181D01*
X112484573Y-111885337D01*
X112451088Y-111824014D01*
X112450637Y-111821847D01*
X112447620Y-111806679D01*
X112419737Y-111666503D01*
X112406497Y-111634538D01*
X112359397Y-111520827D01*
X112359390Y-111520814D01*
X112271789Y-111389711D01*
X112271786Y-111389707D01*
X112160292Y-111278213D01*
X112160288Y-111278210D01*
X112029185Y-111190609D01*
X112029172Y-111190602D01*
X111883501Y-111130264D01*
X111883489Y-111130261D01*
X111728845Y-111099500D01*
X111728842Y-111099500D01*
X111571158Y-111099500D01*
X111571149Y-111099500D01*
X111570641Y-111099550D01*
X111570378Y-111099500D01*
X111565066Y-111099500D01*
X111565066Y-111098492D01*
X111501996Y-111086524D01*
X111451291Y-111038454D01*
X111434500Y-110976146D01*
X111434500Y-110291001D01*
X111454185Y-110223962D01*
X111506989Y-110178207D01*
X111576147Y-110168263D01*
X111577817Y-110168515D01*
X111616389Y-110174624D01*
X111647168Y-110179500D01*
X111647171Y-110179500D01*
X111832834Y-110179500D01*
X111934701Y-110163365D01*
X112016200Y-110150457D01*
X112192771Y-110093085D01*
X112358193Y-110008799D01*
X112508393Y-109899672D01*
X112639672Y-109768393D01*
X112748799Y-109618193D01*
X112833085Y-109452771D01*
X112890457Y-109276200D01*
X112890457Y-109276197D01*
X112891962Y-109271567D01*
X112894147Y-109272277D01*
X112924203Y-109219914D01*
X112986224Y-109187740D01*
X113055794Y-109194205D01*
X113110824Y-109237256D01*
X113126692Y-109272004D01*
X113128038Y-109271567D01*
X113129542Y-109276197D01*
X113129543Y-109276200D01*
X113186915Y-109452771D01*
X113271201Y-109618193D01*
X113380328Y-109768393D01*
X113511607Y-109899672D01*
X113661807Y-110008799D01*
X113827229Y-110093085D01*
X114003800Y-110150457D01*
X114072564Y-110161348D01*
X114187166Y-110179500D01*
X114187171Y-110179500D01*
X114372834Y-110179500D01*
X114474701Y-110163365D01*
X114556200Y-110150457D01*
X114732771Y-110093085D01*
X114898193Y-110008799D01*
X115048393Y-109899672D01*
X115179672Y-109768393D01*
X115288799Y-109618193D01*
X115373085Y-109452771D01*
X115430457Y-109276200D01*
X115430457Y-109276197D01*
X115431962Y-109271567D01*
X115434147Y-109272277D01*
X115464203Y-109219914D01*
X115526224Y-109187740D01*
X115595794Y-109194205D01*
X115650824Y-109237256D01*
X115666692Y-109272004D01*
X115668038Y-109271567D01*
X115669542Y-109276197D01*
X115669543Y-109276200D01*
X115726915Y-109452771D01*
X115811201Y-109618193D01*
X115920328Y-109768393D01*
X116051607Y-109899672D01*
X116201807Y-110008799D01*
X116367229Y-110093085D01*
X116543800Y-110150457D01*
X116612564Y-110161348D01*
X116727166Y-110179500D01*
X116727171Y-110179500D01*
X116912834Y-110179500D01*
X117014701Y-110163365D01*
X117096200Y-110150457D01*
X117272771Y-110093085D01*
X117438193Y-110008799D01*
X117588393Y-109899672D01*
X117719672Y-109768393D01*
X117828799Y-109618193D01*
X117913085Y-109452771D01*
X117970457Y-109276200D01*
X117970457Y-109276197D01*
X117971962Y-109271567D01*
X117974147Y-109272277D01*
X118004203Y-109219914D01*
X118066224Y-109187740D01*
X118135794Y-109194205D01*
X118190824Y-109237256D01*
X118206692Y-109272004D01*
X118208038Y-109271567D01*
X118209542Y-109276197D01*
X118209543Y-109276200D01*
X118266915Y-109452771D01*
X118351201Y-109618193D01*
X118460328Y-109768393D01*
X118591607Y-109899672D01*
X118741807Y-110008799D01*
X118907229Y-110093085D01*
X119083800Y-110150457D01*
X119152564Y-110161348D01*
X119267166Y-110179500D01*
X119267171Y-110179500D01*
X119452834Y-110179500D01*
X119554701Y-110163365D01*
X119636200Y-110150457D01*
X119812771Y-110093085D01*
X119978193Y-110008799D01*
X120128393Y-109899672D01*
X120259672Y-109768393D01*
X120368799Y-109618193D01*
X120453085Y-109452771D01*
X120510457Y-109276200D01*
X120510457Y-109276197D01*
X120511962Y-109271567D01*
X120514147Y-109272277D01*
X120544203Y-109219914D01*
X120606224Y-109187740D01*
X120675794Y-109194205D01*
X120730824Y-109237256D01*
X120746692Y-109272004D01*
X120748038Y-109271567D01*
X120749542Y-109276197D01*
X120749543Y-109276200D01*
X120806915Y-109452771D01*
X120891201Y-109618193D01*
X121000328Y-109768393D01*
X121131607Y-109899672D01*
X121281807Y-110008799D01*
X121447229Y-110093085D01*
X121623800Y-110150457D01*
X121692564Y-110161348D01*
X121807166Y-110179500D01*
X121807171Y-110179500D01*
X121992834Y-110179500D01*
X122094701Y-110163365D01*
X122176200Y-110150457D01*
X122352771Y-110093085D01*
X122518193Y-110008799D01*
X122668393Y-109899672D01*
X122799672Y-109768393D01*
X122908799Y-109618193D01*
X122993085Y-109452771D01*
X123050457Y-109276200D01*
X123050457Y-109276197D01*
X123051962Y-109271567D01*
X123054147Y-109272277D01*
X123084203Y-109219914D01*
X123146224Y-109187740D01*
X123215794Y-109194205D01*
X123270824Y-109237256D01*
X123286692Y-109272004D01*
X123288038Y-109271567D01*
X123289542Y-109276197D01*
X123289543Y-109276200D01*
X123346915Y-109452771D01*
X123431201Y-109618193D01*
X123540328Y-109768393D01*
X123671607Y-109899672D01*
X123821807Y-110008799D01*
X123987229Y-110093085D01*
X124163800Y-110150457D01*
X124232564Y-110161348D01*
X124347166Y-110179500D01*
X124347171Y-110179500D01*
X124532834Y-110179500D01*
X124634701Y-110163365D01*
X124716200Y-110150457D01*
X124892771Y-110093085D01*
X125058193Y-110008799D01*
X125208393Y-109899672D01*
X125339672Y-109768393D01*
X125448799Y-109618193D01*
X125533085Y-109452771D01*
X125590457Y-109276200D01*
X125590457Y-109276197D01*
X125591962Y-109271567D01*
X125594147Y-109272277D01*
X125624203Y-109219914D01*
X125686224Y-109187740D01*
X125755794Y-109194205D01*
G37*
%TD.AperFunction*%
%TA.AperFunction,Conductor*%
G36*
X130512847Y-109639295D02*
G01*
X130512848Y-109639294D01*
X130528364Y-109617940D01*
X130528368Y-109617933D01*
X130612620Y-109452583D01*
X130671475Y-109271449D01*
X130673398Y-109272073D01*
X130703923Y-109218861D01*
X130765937Y-109186673D01*
X130835508Y-109193121D01*
X130890549Y-109236159D01*
X130906901Y-109271936D01*
X130908038Y-109271567D01*
X130909542Y-109276197D01*
X130909543Y-109276200D01*
X130966915Y-109452771D01*
X131051201Y-109618193D01*
X131160328Y-109768393D01*
X131291607Y-109899672D01*
X131441807Y-110008799D01*
X131607229Y-110093085D01*
X131783800Y-110150457D01*
X131852564Y-110161348D01*
X131967166Y-110179500D01*
X131967171Y-110179500D01*
X132152834Y-110179500D01*
X132254701Y-110163365D01*
X132336200Y-110150457D01*
X132512771Y-110093085D01*
X132678193Y-110008799D01*
X132828393Y-109899672D01*
X132959672Y-109768393D01*
X133068799Y-109618193D01*
X133153085Y-109452771D01*
X133210457Y-109276200D01*
X133210457Y-109276197D01*
X133211962Y-109271567D01*
X133214147Y-109272277D01*
X133244203Y-109219914D01*
X133306224Y-109187740D01*
X133375794Y-109194205D01*
X133430824Y-109237256D01*
X133446692Y-109272004D01*
X133448038Y-109271567D01*
X133449542Y-109276197D01*
X133449543Y-109276200D01*
X133506915Y-109452771D01*
X133591201Y-109618193D01*
X133700328Y-109768393D01*
X133831607Y-109899672D01*
X133981807Y-110008799D01*
X134147229Y-110093085D01*
X134323800Y-110150457D01*
X134392564Y-110161348D01*
X134507166Y-110179500D01*
X134507171Y-110179500D01*
X134692834Y-110179500D01*
X134794701Y-110163365D01*
X134876200Y-110150457D01*
X135052771Y-110093085D01*
X135218193Y-110008799D01*
X135368393Y-109899672D01*
X135499672Y-109768393D01*
X135608799Y-109618193D01*
X135693085Y-109452771D01*
X135750457Y-109276200D01*
X135750457Y-109276197D01*
X135751962Y-109271567D01*
X135754147Y-109272277D01*
X135784203Y-109219914D01*
X135846224Y-109187740D01*
X135915794Y-109194205D01*
X135970824Y-109237256D01*
X135986692Y-109272004D01*
X135988038Y-109271567D01*
X135989542Y-109276197D01*
X135989543Y-109276200D01*
X136046915Y-109452771D01*
X136131201Y-109618193D01*
X136240328Y-109768393D01*
X136371607Y-109899672D01*
X136521807Y-110008799D01*
X136687229Y-110093085D01*
X136863800Y-110150457D01*
X136932564Y-110161348D01*
X137047166Y-110179500D01*
X137047171Y-110179500D01*
X137232834Y-110179500D01*
X137334701Y-110163365D01*
X137416200Y-110150457D01*
X137592771Y-110093085D01*
X137758193Y-110008799D01*
X137908393Y-109899672D01*
X138039672Y-109768393D01*
X138148799Y-109618193D01*
X138233085Y-109452771D01*
X138290457Y-109276200D01*
X138290457Y-109276197D01*
X138291962Y-109271567D01*
X138294147Y-109272277D01*
X138324203Y-109219914D01*
X138386224Y-109187740D01*
X138455794Y-109194205D01*
X138510824Y-109237256D01*
X138526692Y-109272004D01*
X138528038Y-109271567D01*
X138529542Y-109276197D01*
X138529543Y-109276200D01*
X138586915Y-109452771D01*
X138671201Y-109618193D01*
X138780328Y-109768393D01*
X138911607Y-109899672D01*
X139061807Y-110008799D01*
X139227229Y-110093085D01*
X139403800Y-110150457D01*
X139472564Y-110161348D01*
X139587166Y-110179500D01*
X139587171Y-110179500D01*
X139772834Y-110179500D01*
X139874701Y-110163365D01*
X139956200Y-110150457D01*
X140132771Y-110093085D01*
X140298193Y-110008799D01*
X140448393Y-109899672D01*
X140579672Y-109768393D01*
X140688799Y-109618193D01*
X140773085Y-109452771D01*
X140830457Y-109276200D01*
X140830457Y-109276197D01*
X140831962Y-109271567D01*
X140834147Y-109272277D01*
X140864203Y-109219914D01*
X140926224Y-109187740D01*
X140995794Y-109194205D01*
X141050824Y-109237256D01*
X141066692Y-109272004D01*
X141068038Y-109271567D01*
X141069542Y-109276197D01*
X141069543Y-109276200D01*
X141126915Y-109452771D01*
X141211201Y-109618193D01*
X141320328Y-109768393D01*
X141451607Y-109899672D01*
X141601807Y-110008799D01*
X141767229Y-110093085D01*
X141943800Y-110150457D01*
X142012564Y-110161348D01*
X142127166Y-110179500D01*
X142127171Y-110179500D01*
X142312834Y-110179500D01*
X142414701Y-110163365D01*
X142496200Y-110150457D01*
X142672771Y-110093085D01*
X142838193Y-110008799D01*
X142988393Y-109899672D01*
X143119672Y-109768393D01*
X143228799Y-109618193D01*
X143313085Y-109452771D01*
X143338570Y-109374334D01*
X143378006Y-109316661D01*
X143442364Y-109289462D01*
X143511211Y-109301376D01*
X143562687Y-109348620D01*
X143580500Y-109412654D01*
X143580500Y-109726869D01*
X143580501Y-109726876D01*
X143586908Y-109786483D01*
X143637202Y-109921328D01*
X143637206Y-109921335D01*
X143723452Y-110036544D01*
X143723455Y-110036547D01*
X143838664Y-110122793D01*
X143838671Y-110122797D01*
X143973517Y-110173091D01*
X143973516Y-110173091D01*
X143980444Y-110173835D01*
X144033127Y-110179500D01*
X145275500Y-110179499D01*
X145342539Y-110199184D01*
X145388294Y-110251987D01*
X145399500Y-110303499D01*
X145399500Y-115719708D01*
X145379815Y-115786747D01*
X145327011Y-115832502D01*
X145257853Y-115842446D01*
X145219206Y-115830193D01*
X145212776Y-115826917D01*
X145212773Y-115826916D01*
X145212771Y-115826915D01*
X145036200Y-115769543D01*
X145036198Y-115769542D01*
X145036196Y-115769542D01*
X144852834Y-115740500D01*
X144852829Y-115740500D01*
X144667171Y-115740500D01*
X144667166Y-115740500D01*
X144483803Y-115769542D01*
X144307226Y-115826916D01*
X144141806Y-115911201D01*
X144093163Y-115946543D01*
X143991607Y-116020328D01*
X143991605Y-116020330D01*
X143991604Y-116020330D01*
X143860330Y-116151604D01*
X143860330Y-116151605D01*
X143860328Y-116151607D01*
X143827068Y-116197385D01*
X143751201Y-116301806D01*
X143666916Y-116467226D01*
X143666915Y-116467228D01*
X143666915Y-116467229D01*
X143615680Y-116624914D01*
X143608038Y-116648433D01*
X143605864Y-116647726D01*
X143575752Y-116700129D01*
X143513714Y-116732271D01*
X143444148Y-116725771D01*
X143389139Y-116682692D01*
X143373295Y-116647999D01*
X143371962Y-116648433D01*
X143370457Y-116643800D01*
X143313085Y-116467229D01*
X143228799Y-116301807D01*
X143119672Y-116151607D01*
X142988393Y-116020328D01*
X142838193Y-115911201D01*
X142682372Y-115831807D01*
X142672773Y-115826916D01*
X142672772Y-115826915D01*
X142672771Y-115826915D01*
X142496200Y-115769543D01*
X142496198Y-115769542D01*
X142496196Y-115769542D01*
X142312834Y-115740500D01*
X142312829Y-115740500D01*
X142127171Y-115740500D01*
X142127166Y-115740500D01*
X141984603Y-115763080D01*
X141915310Y-115754126D01*
X141877524Y-115728288D01*
X139973700Y-113824464D01*
X139940215Y-113763141D01*
X139945199Y-113693449D01*
X139987071Y-113637516D01*
X139992462Y-113633700D01*
X140010289Y-113621789D01*
X140121789Y-113510289D01*
X140209394Y-113379179D01*
X140216217Y-113362707D01*
X140251698Y-113277048D01*
X140295538Y-113222644D01*
X140361833Y-113200579D01*
X140366259Y-113200500D01*
X141320234Y-113200500D01*
X141387273Y-113220185D01*
X141389125Y-113221398D01*
X141520814Y-113309390D01*
X141520827Y-113309397D01*
X141666498Y-113369735D01*
X141666503Y-113369737D01*
X141821153Y-113400499D01*
X141821156Y-113400500D01*
X141821158Y-113400500D01*
X141978844Y-113400500D01*
X141978845Y-113400499D01*
X142133497Y-113369737D01*
X142279179Y-113309394D01*
X142410289Y-113221789D01*
X142521789Y-113110289D01*
X142609394Y-112979179D01*
X142669737Y-112833497D01*
X142700500Y-112678842D01*
X142700500Y-112521158D01*
X142700500Y-112521155D01*
X142700499Y-112521153D01*
X142697342Y-112505280D01*
X142669737Y-112366503D01*
X142660843Y-112345031D01*
X142609397Y-112220827D01*
X142609390Y-112220814D01*
X142521789Y-112089711D01*
X142521786Y-112089707D01*
X142410292Y-111978213D01*
X142410288Y-111978210D01*
X142279185Y-111890609D01*
X142279172Y-111890602D01*
X142133501Y-111830264D01*
X142133489Y-111830261D01*
X141978845Y-111799500D01*
X141978842Y-111799500D01*
X141821158Y-111799500D01*
X141821155Y-111799500D01*
X141666510Y-111830261D01*
X141666498Y-111830264D01*
X141520827Y-111890602D01*
X141520814Y-111890609D01*
X141389125Y-111978602D01*
X141322447Y-111999480D01*
X141320234Y-111999500D01*
X139820936Y-111999500D01*
X139804277Y-112003964D01*
X139804278Y-112003965D01*
X139668214Y-112040423D01*
X139668209Y-112040426D01*
X139531290Y-112119475D01*
X139531282Y-112119481D01*
X139485336Y-112165427D01*
X139424013Y-112198911D01*
X139421848Y-112199362D01*
X139266508Y-112230261D01*
X139266498Y-112230264D01*
X139120827Y-112290602D01*
X139120814Y-112290609D01*
X138989711Y-112378210D01*
X138989707Y-112378213D01*
X138878213Y-112489707D01*
X138878208Y-112489713D01*
X138866317Y-112507510D01*
X138812705Y-112552314D01*
X138743379Y-112561021D01*
X138680352Y-112530866D01*
X138675535Y-112526299D01*
X136907875Y-110758640D01*
X136907873Y-110758637D01*
X136789002Y-110639766D01*
X136789001Y-110639765D01*
X136695757Y-110585931D01*
X136652070Y-110560708D01*
X136499342Y-110519784D01*
X136341228Y-110519784D01*
X136333632Y-110519784D01*
X136333616Y-110519785D01*
X127492045Y-110519785D01*
X127425006Y-110500100D01*
X127379251Y-110447296D01*
X127376701Y-110441302D01*
X127372605Y-110430923D01*
X127369737Y-110416503D01*
X127310062Y-110272435D01*
X127309692Y-110271496D01*
X127306632Y-110237690D01*
X127303006Y-110203962D01*
X127303491Y-110202991D01*
X127303394Y-110201911D01*
X127319082Y-110171844D01*
X127334281Y-110141483D01*
X127335247Y-110140866D01*
X127335717Y-110139967D01*
X127344701Y-110134838D01*
X127386715Y-110108049D01*
X127432771Y-110093085D01*
X127598193Y-110008799D01*
X127748393Y-109899672D01*
X127879672Y-109768393D01*
X127988799Y-109618193D01*
X128073085Y-109452771D01*
X128130457Y-109276200D01*
X128130457Y-109276197D01*
X128131962Y-109271567D01*
X128133852Y-109272181D01*
X128164436Y-109218863D01*
X128226449Y-109186673D01*
X128296020Y-109193120D01*
X128351062Y-109236156D01*
X128367367Y-109271825D01*
X128368525Y-109271449D01*
X128427379Y-109452583D01*
X128511629Y-109617931D01*
X128527151Y-109639294D01*
X128527151Y-109639295D01*
X129098274Y-109068172D01*
X129123963Y-109164044D01*
X129179916Y-109260956D01*
X129259044Y-109340084D01*
X129355956Y-109396037D01*
X129451827Y-109421725D01*
X128880704Y-109992847D01*
X128880704Y-109992848D01*
X128902068Y-110008370D01*
X129067416Y-110092620D01*
X129243916Y-110149968D01*
X129427212Y-110179000D01*
X129612788Y-110179000D01*
X129796083Y-110149968D01*
X129972583Y-110092620D01*
X130137933Y-110008368D01*
X130137940Y-110008364D01*
X130159294Y-109992848D01*
X130159295Y-109992847D01*
X129588173Y-109421725D01*
X129684044Y-109396037D01*
X129780956Y-109340084D01*
X129860084Y-109260956D01*
X129916037Y-109164044D01*
X129941725Y-109068172D01*
X130512847Y-109639295D01*
G37*
%TD.AperFunction*%
%TA.AperFunction,Conductor*%
G36*
X128839730Y-107970185D02*
G01*
X128860372Y-107986819D01*
X129451828Y-108578274D01*
X129355956Y-108603963D01*
X129259044Y-108659916D01*
X129179916Y-108739044D01*
X129123963Y-108835956D01*
X129098274Y-108931827D01*
X128527150Y-108360704D01*
X128511631Y-108382065D01*
X128427379Y-108547416D01*
X128368525Y-108728551D01*
X128366622Y-108727932D01*
X128336001Y-108781210D01*
X128273961Y-108813346D01*
X128204394Y-108806840D01*
X128149389Y-108763756D01*
X128133103Y-108728062D01*
X128131962Y-108728433D01*
X128130457Y-108723800D01*
X128073085Y-108547229D01*
X127988799Y-108381807D01*
X127879672Y-108231607D01*
X127810246Y-108162181D01*
X127776761Y-108100858D01*
X127781745Y-108031166D01*
X127823617Y-107975233D01*
X127889081Y-107950816D01*
X127897927Y-107950500D01*
X128772691Y-107950500D01*
X128839730Y-107970185D01*
G37*
%TD.AperFunction*%
%TA.AperFunction,Conductor*%
G36*
X131209112Y-107970185D02*
G01*
X131254867Y-108022989D01*
X131264811Y-108092147D01*
X131235786Y-108155703D01*
X131229754Y-108162181D01*
X131160330Y-108231604D01*
X131160330Y-108231605D01*
X131160328Y-108231607D01*
X131133367Y-108268716D01*
X131051201Y-108381806D01*
X130966916Y-108547226D01*
X130966915Y-108547228D01*
X130966915Y-108547229D01*
X130910363Y-108721278D01*
X130908038Y-108728433D01*
X130906166Y-108727825D01*
X130875494Y-108781202D01*
X130813456Y-108813344D01*
X130743890Y-108806844D01*
X130688881Y-108763765D01*
X130672638Y-108728172D01*
X130671475Y-108728551D01*
X130612620Y-108547416D01*
X130528370Y-108382068D01*
X130512847Y-108360704D01*
X129941725Y-108931826D01*
X129916037Y-108835956D01*
X129860084Y-108739044D01*
X129780956Y-108659916D01*
X129684044Y-108603963D01*
X129588172Y-108578274D01*
X130179628Y-107986819D01*
X130240951Y-107953334D01*
X130267309Y-107950500D01*
X131142073Y-107950500D01*
X131209112Y-107970185D01*
G37*
%TD.AperFunction*%
%TA.AperFunction,Conductor*%
G36*
X133071942Y-106416185D02*
G01*
X133117697Y-106468989D01*
X133127641Y-106538147D01*
X133098616Y-106601703D01*
X133092584Y-106608181D01*
X132987584Y-106713181D01*
X132926261Y-106746666D01*
X132899903Y-106749500D01*
X127472097Y-106749500D01*
X127450851Y-106743261D01*
X127428763Y-106741682D01*
X127417979Y-106733609D01*
X127405058Y-106729815D01*
X127390558Y-106713081D01*
X127372830Y-106699810D01*
X127368122Y-106687189D01*
X127359303Y-106677011D01*
X127356151Y-106655093D01*
X127348413Y-106634346D01*
X127351275Y-106621185D01*
X127349359Y-106607853D01*
X127358558Y-106587709D01*
X127363265Y-106566073D01*
X127376533Y-106548347D01*
X127378384Y-106544297D01*
X127384416Y-106537819D01*
X127489416Y-106432819D01*
X127550739Y-106399334D01*
X127577097Y-106396500D01*
X133004903Y-106396500D01*
X133071942Y-106416185D01*
G37*
%TD.AperFunction*%
%TA.AperFunction,Conductor*%
G36*
X94722806Y-101909714D02*
G01*
X94773846Y-101956907D01*
X94940351Y-102234416D01*
X94943085Y-102239701D01*
X94985682Y-102309969D01*
X94985683Y-102309969D01*
X94985781Y-102310131D01*
X95025750Y-102376746D01*
X95026751Y-102377714D01*
X95027475Y-102378908D01*
X95027476Y-102378909D01*
X95027477Y-102378910D01*
X95083623Y-102432706D01*
X95083624Y-102432706D01*
X95083690Y-102432769D01*
X95139419Y-102486653D01*
X95140634Y-102487327D01*
X95141644Y-102488295D01*
X95209746Y-102525695D01*
X95277660Y-102563397D01*
X95279015Y-102563736D01*
X95280236Y-102564406D01*
X95355446Y-102582843D01*
X95431054Y-102601746D01*
X95431058Y-102601745D01*
X95432201Y-102601876D01*
X95432439Y-102601903D01*
X95433756Y-102602053D01*
X95433799Y-102602052D01*
X95433803Y-102602053D01*
X95511265Y-102600395D01*
X95511461Y-102600392D01*
X95589147Y-102599085D01*
X95589150Y-102599084D01*
X95593847Y-102599005D01*
X95599776Y-102598502D01*
X104553699Y-102406974D01*
X104621142Y-102425221D01*
X104644030Y-102443265D01*
X107038584Y-104837819D01*
X107072069Y-104899142D01*
X107067085Y-104968834D01*
X107025213Y-105024767D01*
X106959749Y-105049184D01*
X106950903Y-105049500D01*
X105900097Y-105049500D01*
X105833058Y-105029815D01*
X105812416Y-105013181D01*
X104237590Y-103438355D01*
X104237588Y-103438352D01*
X104118717Y-103319481D01*
X104118709Y-103319475D01*
X104023781Y-103264669D01*
X104023779Y-103264668D01*
X103981790Y-103240425D01*
X103981789Y-103240424D01*
X103962711Y-103235312D01*
X103829057Y-103199499D01*
X103670943Y-103199499D01*
X103663347Y-103199499D01*
X103663331Y-103199500D01*
X91515603Y-103199500D01*
X91448564Y-103179815D01*
X91402809Y-103127011D01*
X91392865Y-103057853D01*
X91421890Y-102994297D01*
X91453603Y-102968113D01*
X91498193Y-102942369D01*
X91518716Y-102930520D01*
X91630520Y-102818716D01*
X91709577Y-102681784D01*
X91750500Y-102529057D01*
X91750500Y-102529048D01*
X91751561Y-102520997D01*
X91753915Y-102521307D01*
X91770185Y-102465901D01*
X91786820Y-102445258D01*
X91821786Y-102410292D01*
X91821789Y-102410289D01*
X91909394Y-102279179D01*
X91969737Y-102133497D01*
X91973978Y-102112178D01*
X92006362Y-102050267D01*
X92067078Y-102015693D01*
X92136847Y-102019432D01*
X92183276Y-102048688D01*
X92256374Y-102121786D01*
X92256378Y-102121789D01*
X92387481Y-102209390D01*
X92387494Y-102209397D01*
X92489709Y-102251735D01*
X92533170Y-102269737D01*
X92657546Y-102294477D01*
X92687820Y-102300499D01*
X92687823Y-102300500D01*
X92687825Y-102300500D01*
X92845511Y-102300500D01*
X92845512Y-102300499D01*
X93000164Y-102269737D01*
X93112833Y-102223067D01*
X93145839Y-102209397D01*
X93145839Y-102209396D01*
X93145846Y-102209394D01*
X93159509Y-102200265D01*
X93276953Y-102121791D01*
X93276952Y-102121791D01*
X93276956Y-102121789D01*
X93328737Y-102070006D01*
X93390060Y-102036521D01*
X93402910Y-102034425D01*
X94654022Y-101897443D01*
X94722806Y-101909714D01*
G37*
%TD.AperFunction*%
%TA.AperFunction,Conductor*%
G36*
X146134075Y-99612993D02*
G01*
X146199901Y-99727007D01*
X146292993Y-99820099D01*
X146407007Y-99885925D01*
X146470590Y-99902962D01*
X145838282Y-100535269D01*
X145838282Y-100535270D01*
X145892452Y-100574626D01*
X145892451Y-100574626D01*
X145901495Y-100579234D01*
X145952292Y-100627208D01*
X145969087Y-100695029D01*
X145946550Y-100761164D01*
X145901499Y-100800202D01*
X145892182Y-100804949D01*
X145720213Y-100929890D01*
X145569890Y-101080213D01*
X145444949Y-101252182D01*
X145440484Y-101260946D01*
X145392509Y-101311742D01*
X145324688Y-101328536D01*
X145258553Y-101305998D01*
X145219516Y-101260946D01*
X145215050Y-101252182D01*
X145090109Y-101080213D01*
X144976569Y-100966673D01*
X144943084Y-100905350D01*
X144948068Y-100835658D01*
X144989940Y-100779725D01*
X145020915Y-100762810D01*
X145152331Y-100713796D01*
X145267546Y-100627546D01*
X145353796Y-100512331D01*
X145404091Y-100377483D01*
X145410500Y-100317873D01*
X145410499Y-100307312D01*
X145430179Y-100240275D01*
X145446818Y-100219626D01*
X146117037Y-99549408D01*
X146134075Y-99612993D01*
G37*
%TD.AperFunction*%
%TA.AperFunction,Conductor*%
G36*
X141083217Y-89228758D02*
G01*
X141113204Y-89235282D01*
X141118219Y-89239036D01*
X141120816Y-89239799D01*
X141141458Y-89256433D01*
X141256811Y-89371786D01*
X141256815Y-89371789D01*
X141387918Y-89459390D01*
X141387931Y-89459397D01*
X141533602Y-89519735D01*
X141533607Y-89519737D01*
X141593797Y-89531709D01*
X141655705Y-89564093D01*
X141690280Y-89624808D01*
X141693604Y-89653326D01*
X141693604Y-91031110D01*
X141673919Y-91098149D01*
X141657285Y-91118791D01*
X136925337Y-95850739D01*
X136864014Y-95884224D01*
X136794322Y-95879240D01*
X136749975Y-95850739D01*
X134638771Y-93739535D01*
X134605286Y-93678212D01*
X134610270Y-93608520D01*
X134652142Y-93552587D01*
X134717606Y-93528170D01*
X134726452Y-93527854D01*
X137142166Y-93527854D01*
X137158677Y-93531311D01*
X137221000Y-93527854D01*
X137283411Y-93527854D01*
X137287289Y-93526814D01*
X137312534Y-93522776D01*
X137316549Y-93522554D01*
X137375851Y-93503084D01*
X137436138Y-93486931D01*
X137450748Y-93478495D01*
X137466775Y-93473234D01*
X137519007Y-93439086D01*
X137573070Y-93407874D01*
X137585000Y-93395943D01*
X137599118Y-93386714D01*
X137638461Y-93342747D01*
X137643148Y-93337794D01*
X137684874Y-93296070D01*
X137686888Y-93292579D01*
X137701868Y-93271893D01*
X138344236Y-92554077D01*
X138394599Y-92499603D01*
X138396903Y-92495224D01*
X138400203Y-92491537D01*
X138433243Y-92426196D01*
X138434147Y-92424446D01*
X138468228Y-92359682D01*
X138468230Y-92359679D01*
X138468231Y-92359672D01*
X138469397Y-92356514D01*
X138469403Y-92356498D01*
X138470258Y-92354181D01*
X138470268Y-92354153D01*
X138470350Y-92353930D01*
X138470444Y-92353603D01*
X138471554Y-92350438D01*
X138471555Y-92350437D01*
X138486754Y-92277841D01*
X138503137Y-92205465D01*
X138502943Y-92200519D01*
X138503957Y-92195677D01*
X138499901Y-92122567D01*
X138499808Y-92120596D01*
X138499715Y-92118216D01*
X138462035Y-91157376D01*
X138479078Y-91089619D01*
X138530048Y-91041830D01*
X138598764Y-91029184D01*
X138610132Y-91030902D01*
X138708655Y-91050500D01*
X138708658Y-91050500D01*
X138866344Y-91050500D01*
X138866345Y-91050499D01*
X139020997Y-91019737D01*
X139166679Y-90959394D01*
X139297789Y-90871789D01*
X139409289Y-90760289D01*
X139496894Y-90629179D01*
X139557237Y-90483497D01*
X139588000Y-90328842D01*
X139588000Y-90171158D01*
X139588000Y-90171155D01*
X139587999Y-90171153D01*
X139577721Y-90119481D01*
X139557237Y-90016503D01*
X139555400Y-90012068D01*
X139496897Y-89870827D01*
X139496890Y-89870814D01*
X139409289Y-89739711D01*
X139409286Y-89739707D01*
X139297792Y-89628213D01*
X139297788Y-89628210D01*
X139287529Y-89621355D01*
X139242724Y-89567742D01*
X139234017Y-89498417D01*
X139264172Y-89435390D01*
X139323615Y-89398671D01*
X139332203Y-89396641D01*
X139368855Y-89389351D01*
X139481524Y-89342681D01*
X139514530Y-89329011D01*
X139514530Y-89329010D01*
X139514537Y-89329008D01*
X139518286Y-89326503D01*
X139646233Y-89241012D01*
X139712911Y-89220134D01*
X139715124Y-89220114D01*
X141053777Y-89220114D01*
X141083217Y-89228758D01*
G37*
%TD.AperFunction*%
%TD*%
M02*
