%TF.GenerationSoftware,KiCad,Pcbnew,10.0.3*%
%TF.CreationDate,2026-07-05T12:37:48+05:45*%
%TF.ProjectId,Arduino R3,41726475-696e-46f2-9052-332e6b696361,rev?*%
%TF.SameCoordinates,Original*%
%TF.FileFunction,Paste,Top*%
%TF.FilePolarity,Positive*%
%FSLAX46Y46*%
G04 Gerber Fmt 4.6, Leading zero omitted, Abs format (unit mm)*
G04 Created by KiCad (PCBNEW 10.0.3) date 2026-07-05 12:37:48*
%MOMM*%
%LPD*%
G01*
G04 APERTURE LIST*
G04 Aperture macros list*
%AMRoundRect*
0 Rectangle with rounded corners*
0 $1 Rounding radius*
0 $2 $3 $4 $5 $6 $7 $8 $9 X,Y pos of 4 corners*
0 Add a 4 corners polygon primitive as box body*
4,1,4,$2,$3,$4,$5,$6,$7,$8,$9,$2,$3,0*
0 Add four circle primitives for the rounded corners*
1,1,$1+$1,$2,$3*
1,1,$1+$1,$4,$5*
1,1,$1+$1,$6,$7*
1,1,$1+$1,$8,$9*
0 Add four rect primitives between the rounded corners*
20,1,$1+$1,$2,$3,$4,$5,0*
20,1,$1+$1,$4,$5,$6,$7,0*
20,1,$1+$1,$6,$7,$8,$9,0*
20,1,$1+$1,$8,$9,$2,$3,0*%
G04 Aperture macros list end*
%ADD10RoundRect,0.225000X-0.225000X-0.250000X0.225000X-0.250000X0.225000X0.250000X-0.225000X0.250000X0*%
%ADD11RoundRect,0.243750X-0.243750X-0.456250X0.243750X-0.456250X0.243750X0.456250X-0.243750X0.456250X0*%
%ADD12RoundRect,0.200000X-0.200000X-0.275000X0.200000X-0.275000X0.200000X0.275000X-0.200000X0.275000X0*%
%ADD13R,1.800000X0.900000*%
%ADD14RoundRect,0.079500X-0.079500X-0.100500X0.079500X-0.100500X0.079500X0.100500X-0.079500X0.100500X0*%
%ADD15RoundRect,0.207500X0.207500X-0.207500X0.207500X0.207500X-0.207500X0.207500X-0.207500X-0.207500X0*%
%ADD16RoundRect,0.062500X0.062500X-0.375000X0.062500X0.375000X-0.062500X0.375000X-0.062500X-0.375000X0*%
%ADD17RoundRect,0.062500X0.375000X-0.062500X0.375000X0.062500X-0.375000X0.062500X-0.375000X-0.062500X0*%
%ADD18R,0.300000X0.500000*%
%ADD19R,0.650000X0.850000*%
%ADD20RoundRect,0.067500X0.067500X0.067500X-0.067500X0.067500X-0.067500X-0.067500X0.067500X-0.067500X0*%
%ADD21RoundRect,0.250001X1.399999X-0.487499X1.399999X0.487499X-1.399999X0.487499X-1.399999X-0.487499X0*%
%ADD22RoundRect,0.250000X0.262500X0.450000X-0.262500X0.450000X-0.262500X-0.450000X0.262500X-0.450000X0*%
%ADD23RoundRect,0.250000X0.500000X1.100000X-0.500000X1.100000X-0.500000X-1.100000X0.500000X-1.100000X0*%
%ADD24RoundRect,0.200000X0.200000X0.275000X-0.200000X0.275000X-0.200000X-0.275000X0.200000X-0.275000X0*%
%ADD25RoundRect,0.250000X-0.450000X-0.250000X0.450000X-0.250000X0.450000X0.250000X-0.450000X0.250000X0*%
%ADD26RoundRect,0.250000X-0.262500X-0.450000X0.262500X-0.450000X0.262500X0.450000X-0.262500X0.450000X0*%
%ADD27RoundRect,0.250000X0.250000X0.475000X-0.250000X0.475000X-0.250000X-0.475000X0.250000X-0.475000X0*%
%ADD28RoundRect,0.250000X-0.475000X0.250000X-0.475000X-0.250000X0.475000X-0.250000X0.475000X0.250000X0*%
%ADD29RoundRect,0.150000X-0.512500X-0.150000X0.512500X-0.150000X0.512500X0.150000X-0.512500X0.150000X0*%
%ADD30RoundRect,0.250000X-0.250000X-0.475000X0.250000X-0.475000X0.250000X0.475000X-0.250000X0.475000X0*%
%ADD31RoundRect,0.243750X0.243750X0.456250X-0.243750X0.456250X-0.243750X-0.456250X0.243750X-0.456250X0*%
%ADD32RoundRect,0.225000X-0.250000X0.225000X-0.250000X-0.225000X0.250000X-0.225000X0.250000X0.225000X0*%
%ADD33RoundRect,0.225000X0.250000X-0.225000X0.250000X0.225000X-0.250000X0.225000X-0.250000X-0.225000X0*%
%ADD34RoundRect,0.250000X0.375000X0.625000X-0.375000X0.625000X-0.375000X-0.625000X0.375000X-0.625000X0*%
%ADD35RoundRect,0.250000X-1.000000X1.750000X-1.000000X-1.750000X1.000000X-1.750000X1.000000X1.750000X0*%
%ADD36RoundRect,0.375000X0.625000X0.375000X-0.625000X0.375000X-0.625000X-0.375000X0.625000X-0.375000X0*%
%ADD37RoundRect,0.500000X0.500000X1.400000X-0.500000X1.400000X-0.500000X-1.400000X0.500000X-1.400000X0*%
%ADD38RoundRect,0.250000X-0.625000X0.375000X-0.625000X-0.375000X0.625000X-0.375000X0.625000X0.375000X0*%
%ADD39R,1.600000X1.400000*%
%ADD40R,0.400000X1.900000*%
G04 APERTURE END LIST*
D10*
%TO.C,C14*%
X129200000Y-106800000D03*
X127650000Y-106800000D03*
%TD*%
D11*
%TO.C,D7*%
X140662500Y-90250000D03*
X138787500Y-90250000D03*
%TD*%
D12*
%TO.C,R15*%
X140450000Y-92150000D03*
X138800000Y-92150000D03*
%TD*%
%TO.C,R16*%
X140450000Y-93850000D03*
X138800000Y-93850000D03*
%TD*%
D13*
%TO.C,J4*%
X101770000Y-92100000D03*
X95370000Y-92100000D03*
X101770000Y-89560000D03*
X95370000Y-89560000D03*
%TD*%
D14*
%TO.C,L1*%
X91755000Y-99300000D03*
X92445000Y-99300000D03*
%TD*%
%TO.C,TH1*%
X92265000Y-98300000D03*
X91575000Y-98300000D03*
%TD*%
%TO.C,TH2*%
X92445000Y-89800000D03*
X91755000Y-89800000D03*
%TD*%
D15*
%TO.C,U1*%
X97170000Y-99360000D03*
X98200000Y-99360000D03*
X99230000Y-99360000D03*
X97170000Y-98330000D03*
X98200000Y-98330000D03*
X99230000Y-98330000D03*
X97170000Y-97300000D03*
X98200000Y-97300000D03*
X99230000Y-97300000D03*
D16*
X96450000Y-100767500D03*
X96950000Y-100767500D03*
X97450000Y-100767500D03*
X97950000Y-100767500D03*
X98450000Y-100767500D03*
X98950000Y-100767500D03*
X99450000Y-100767500D03*
X99950000Y-100767500D03*
D17*
X100637500Y-100080000D03*
X100637500Y-99580000D03*
X100637500Y-99080000D03*
X100637500Y-98580000D03*
X100637500Y-98080000D03*
X100637500Y-97580000D03*
X100637500Y-97080000D03*
X100637500Y-96580000D03*
D16*
X99950000Y-95892500D03*
X99450000Y-95892500D03*
X98950000Y-95892500D03*
X98450000Y-95892500D03*
X97950000Y-95892500D03*
X97450000Y-95892500D03*
X96950000Y-95892500D03*
X96450000Y-95892500D03*
D17*
X95762500Y-96580000D03*
X95762500Y-97080000D03*
X95762500Y-97580000D03*
X95762500Y-98080000D03*
X95762500Y-98580000D03*
X95762500Y-99080000D03*
X95762500Y-99580000D03*
X95762500Y-100080000D03*
%TD*%
D18*
%TO.C,U3*%
X99112500Y-110900000D03*
X99612500Y-110900000D03*
X100112500Y-110900000D03*
X100612500Y-110900000D03*
X100612500Y-112700000D03*
X100112500Y-112700000D03*
X99612500Y-112700000D03*
X99112500Y-112700000D03*
D19*
X100300000Y-111800000D03*
X99425000Y-111800000D03*
%TD*%
D10*
%TO.C,C7*%
X93100000Y-97000000D03*
X91550000Y-97000000D03*
%TD*%
D20*
%TO.C,C12*%
X146850000Y-107500000D03*
X147400000Y-107500000D03*
%TD*%
D21*
%TO.C,F1*%
X83100000Y-108662500D03*
X83100000Y-104337500D03*
%TD*%
D22*
%TO.C,R3*%
X124012500Y-103300000D03*
X122187500Y-103300000D03*
%TD*%
D12*
%TO.C,R7*%
X107950000Y-106600000D03*
X109600000Y-106600000D03*
%TD*%
%TO.C,R9*%
X105725000Y-97300000D03*
X104075000Y-97300000D03*
%TD*%
D23*
%TO.C,D1*%
X95900000Y-114500000D03*
X91100000Y-114500000D03*
%TD*%
D10*
%TO.C,C8*%
X129675000Y-119100000D03*
X128125000Y-119100000D03*
%TD*%
D24*
%TO.C,R8*%
X107975000Y-104800000D03*
X109625000Y-104800000D03*
%TD*%
%TO.C,R6*%
X102065000Y-95200000D03*
X103715000Y-95200000D03*
%TD*%
D20*
%TO.C,C13*%
X146825000Y-106800000D03*
X147375000Y-106800000D03*
%TD*%
D25*
%TO.C,Q1*%
X87200000Y-106150000D03*
X87200000Y-108050000D03*
X89400000Y-107100000D03*
%TD*%
D26*
%TO.C,R1*%
X104425000Y-109600000D03*
X102600000Y-109600000D03*
%TD*%
D12*
%TO.C,R13*%
X140725000Y-97250000D03*
X139075000Y-97250000D03*
%TD*%
D27*
%TO.C,C10*%
X123400000Y-121200000D03*
X125300000Y-121200000D03*
%TD*%
D24*
%TO.C,R11*%
X110700000Y-88100000D03*
X109050000Y-88100000D03*
%TD*%
D28*
%TO.C,C6*%
X108800000Y-113550000D03*
X108800000Y-115450000D03*
%TD*%
D11*
%TO.C,D5*%
X110937500Y-93800000D03*
X109062500Y-93800000D03*
%TD*%
D29*
%TO.C,U4*%
X106037500Y-113650000D03*
X106037500Y-115550000D03*
X103762500Y-115550000D03*
X103762500Y-114600000D03*
X103762500Y-113650000D03*
%TD*%
D30*
%TO.C,C3*%
X113950000Y-123200000D03*
X112050000Y-123200000D03*
%TD*%
D10*
%TO.C,C5*%
X96650000Y-111427500D03*
X95100000Y-111427500D03*
%TD*%
D31*
%TO.C,D3*%
X109062500Y-90000000D03*
X110937500Y-90000000D03*
%TD*%
D12*
%TO.C,R5*%
X91275000Y-95400000D03*
X92925000Y-95400000D03*
%TD*%
D32*
%TO.C,C11*%
X102500000Y-98775000D03*
X102500000Y-97225000D03*
%TD*%
D33*
%TO.C,C4*%
X93475000Y-107852500D03*
X93475000Y-109402500D03*
%TD*%
D11*
%TO.C,D6*%
X109062500Y-96200000D03*
X110937500Y-96200000D03*
%TD*%
D30*
%TO.C,C9*%
X108750000Y-84700000D03*
X110650000Y-84700000D03*
%TD*%
D34*
%TO.C,D2*%
X93950000Y-102450000D03*
X91150000Y-102450000D03*
%TD*%
D35*
%TO.C,C2*%
X104700000Y-125150000D03*
X104700000Y-119050000D03*
%TD*%
D12*
%TO.C,R10*%
X92600000Y-78700000D03*
X90950000Y-78700000D03*
%TD*%
%TO.C,R14*%
X138925000Y-95550000D03*
X140575000Y-95550000D03*
%TD*%
D24*
%TO.C,R12*%
X110750000Y-86500000D03*
X109100000Y-86500000D03*
%TD*%
D36*
%TO.C,U2*%
X88050000Y-111400000D03*
D37*
X81750000Y-113700000D03*
D36*
X88050000Y-113700000D03*
X88050000Y-116000000D03*
%TD*%
D35*
%TO.C,C1*%
X95100000Y-125000000D03*
X95100000Y-118900000D03*
%TD*%
D24*
%TO.C,R2*%
X110825000Y-91900000D03*
X109175000Y-91900000D03*
%TD*%
D38*
%TO.C,D4*%
X91500000Y-83400000D03*
X91500000Y-80600000D03*
%TD*%
D39*
%TO.C,SW1*%
X89000000Y-83350000D03*
X81000000Y-83350000D03*
X89000000Y-78850000D03*
X81000000Y-78850000D03*
%TD*%
D12*
%TO.C,R4*%
X91275000Y-92300000D03*
X92925000Y-92300000D03*
%TD*%
D40*
%TO.C,Y1*%
X122000000Y-105800000D03*
X123200000Y-105800000D03*
X124400000Y-105800000D03*
%TD*%
M02*
