%TF.GenerationSoftware,KiCad,Pcbnew,10.0.3*%
%TF.CreationDate,2026-07-08T14:02:05+05:45*%
%TF.ProjectId,Air Quality Sensor Board,41697220-5175-4616-9c69-74792053656e,rev?*%
%TF.SameCoordinates,Original*%
%TF.FileFunction,Copper,L3,Inr*%
%TF.FilePolarity,Positive*%
%FSLAX46Y46*%
G04 Gerber Fmt 4.6, Leading zero omitted, Abs format (unit mm)*
G04 Created by KiCad (PCBNEW 10.0.3) date 2026-07-08 14:02:05*
%MOMM*%
%LPD*%
G01*
G04 APERTURE LIST*
%TA.AperFunction,ComponentPad*%
%ADD10R,1.508000X1.508000*%
%TD*%
%TA.AperFunction,ComponentPad*%
%ADD11C,1.508000*%
%TD*%
%TA.AperFunction,ComponentPad*%
%ADD12C,3.000000*%
%TD*%
%TA.AperFunction,ComponentPad*%
%ADD13O,0.900000X1.800000*%
%TD*%
%TA.AperFunction,ComponentPad*%
%ADD14O,0.900000X1.500000*%
%TD*%
%TA.AperFunction,ComponentPad*%
%ADD15R,2.000000X2.000000*%
%TD*%
%TA.AperFunction,ComponentPad*%
%ADD16C,2.000000*%
%TD*%
%TA.AperFunction,ComponentPad*%
%ADD17R,1.350000X1.350000*%
%TD*%
%TA.AperFunction,ComponentPad*%
%ADD18C,1.350000*%
%TD*%
%TA.AperFunction,ViaPad*%
%ADD19C,0.600000*%
%TD*%
G04 APERTURE END LIST*
D10*
%TO.N,GND*%
%TO.C,U4*%
X140370000Y-63602500D03*
D11*
%TO.N,+3V3*%
X142910000Y-63602500D03*
%TO.N,/SCL*%
X145450000Y-63602500D03*
%TO.N,/SDA*%
X147990000Y-63602500D03*
D12*
%TO.N,N/C*%
X133180000Y-64102500D03*
X155180000Y-64102500D03*
X155180000Y-86102500D03*
X133180000Y-86102500D03*
%TD*%
D13*
%TO.N,GND*%
%TO.C,J1*%
X137070000Y-109570000D03*
D14*
X138340000Y-105250000D03*
X147640000Y-105250000D03*
D13*
X148910000Y-109570000D03*
%TD*%
D15*
%TO.N,Net-(BZ1-+)*%
%TO.C,BZ1*%
X116190000Y-67340000D03*
D16*
%TO.N,GND*%
X123790000Y-67340000D03*
%TD*%
D17*
%TO.N,/TX*%
%TO.C,J3*%
X167200000Y-98900000D03*
D18*
%TO.N,/RX*%
X167200000Y-100900000D03*
%TO.N,GND*%
X167200000Y-102900000D03*
%TO.N,+3V3*%
X167200000Y-104900000D03*
%TD*%
D19*
%TO.N,+3V3*%
X167870700Y-97240000D03*
%TO.N,Net-(U2-VDD)*%
X127507500Y-73910000D03*
X128350000Y-71693000D03*
X127535000Y-78240000D03*
X126546178Y-76550363D03*
%TO.N,GND*%
X129450000Y-77930000D03*
X128307500Y-72760000D03*
X139490000Y-104470000D03*
X143290000Y-102200000D03*
X147440854Y-99513854D03*
X147150000Y-101880000D03*
%TO.N,/R_LED*%
X167770000Y-78720000D03*
X162365500Y-79290000D03*
%TO.N,/B_LED*%
X142762354Y-100037646D03*
X155970000Y-95123000D03*
X161847149Y-65372851D03*
X143380000Y-98624000D03*
%TO.N,/R_LED*%
X162310000Y-68360000D03*
X167772500Y-72030000D03*
X167770000Y-78720000D03*
%TO.N,/G_LED*%
X154190000Y-94626300D03*
X156460000Y-91429000D03*
X162682354Y-91429000D03*
X167800000Y-80800000D03*
X167822500Y-74230000D03*
X164500000Y-63520000D03*
X167752500Y-67860000D03*
%TO.N,/R_LED*%
X160697500Y-63350000D03*
X167930000Y-64550000D03*
X146460000Y-90494646D03*
X142748000Y-90620000D03*
%TO.N,+3V3*%
X142332354Y-89967646D03*
X147350000Y-96190000D03*
X147390000Y-94373000D03*
%TO.N,/SWDIO*%
X140400000Y-96020000D03*
X164797000Y-95620000D03*
%TO.N,/SWDCLK*%
X141300000Y-97550000D03*
X153420000Y-93337000D03*
%TO.N,/RX*%
X163510000Y-92283000D03*
X163532997Y-94626300D03*
%TO.N,/TX*%
X164250000Y-92810000D03*
X164260000Y-94626300D03*
%TO.N,/SCL*%
X140259500Y-68793000D03*
X142600000Y-70230000D03*
%TO.N,+3V3*%
X129370000Y-69720000D03*
X119880000Y-79150000D03*
X124815000Y-75280000D03*
X127475000Y-75980000D03*
X129370000Y-80450000D03*
X127410000Y-82940000D03*
X127500000Y-85710000D03*
X119880000Y-85450000D03*
X124440000Y-88840000D03*
%TO.N,GND*%
X144025000Y-94560000D03*
%TO.N,+3V3*%
X139190000Y-97620000D03*
X139270000Y-95440000D03*
X139300000Y-93240000D03*
X139400000Y-91040000D03*
%TD*%
M02*
