%TF.GenerationSoftware,KiCad,Pcbnew,10.0.3*%
%TF.CreationDate,2026-07-08T14:02:05+05:45*%
%TF.ProjectId,Air Quality Sensor Board,41697220-5175-4616-9c69-74792053656e,rev?*%
%TF.SameCoordinates,Original*%
%TF.FileFunction,Soldermask,Bot*%
%TF.FilePolarity,Negative*%
%FSLAX46Y46*%
G04 Gerber Fmt 4.6, Leading zero omitted, Abs format (unit mm)*
G04 Created by KiCad (PCBNEW 10.0.3) date 2026-07-08 14:02:05*
%MOMM*%
%LPD*%
G01*
G04 APERTURE LIST*
G04 APERTURE END LIST*
G36*
X137242208Y-108704254D02*
G01*
X137343943Y-108762991D01*
X137427009Y-108846057D01*
X137485746Y-108947792D01*
X137516150Y-109061263D01*
X137520000Y-109120000D01*
X137520000Y-110020000D01*
X137516150Y-110078737D01*
X137485746Y-110192208D01*
X137427009Y-110293943D01*
X137343943Y-110377009D01*
X137242208Y-110435746D01*
X137128737Y-110466150D01*
X137011263Y-110466150D01*
X136897792Y-110435746D01*
X136796057Y-110377009D01*
X136712991Y-110293943D01*
X136654254Y-110192208D01*
X136623850Y-110078737D01*
X136620000Y-110020000D01*
X136620000Y-109120000D01*
X136623850Y-109061263D01*
X136654254Y-108947792D01*
X136712991Y-108846057D01*
X136796057Y-108762991D01*
X136897792Y-108704254D01*
X137011263Y-108673850D01*
X137128737Y-108673850D01*
X137242208Y-108704254D01*
G37*
G36*
X149082208Y-108704254D02*
G01*
X149183943Y-108762991D01*
X149267009Y-108846057D01*
X149325746Y-108947792D01*
X149356150Y-109061263D01*
X149360000Y-109120000D01*
X149360000Y-110020000D01*
X149356150Y-110078737D01*
X149325746Y-110192208D01*
X149267009Y-110293943D01*
X149183943Y-110377009D01*
X149082208Y-110435746D01*
X148968737Y-110466150D01*
X148851263Y-110466150D01*
X148737792Y-110435746D01*
X148636057Y-110377009D01*
X148552991Y-110293943D01*
X148494254Y-110192208D01*
X148463850Y-110078737D01*
X148460000Y-110020000D01*
X148460000Y-109120000D01*
X148463850Y-109061263D01*
X148494254Y-108947792D01*
X148552991Y-108846057D01*
X148636057Y-108762991D01*
X148737792Y-108704254D01*
X148851263Y-108673850D01*
X148968737Y-108673850D01*
X149082208Y-108704254D01*
G37*
G36*
X139604805Y-105442836D02*
G01*
X139672628Y-105481994D01*
X139728006Y-105537372D01*
X139767164Y-105605195D01*
X139787433Y-105680842D01*
X139787433Y-105759158D01*
X139767164Y-105834805D01*
X139728006Y-105902628D01*
X139672628Y-105958006D01*
X139604805Y-105997164D01*
X139529158Y-106017433D01*
X139450842Y-106017433D01*
X139375195Y-105997164D01*
X139307372Y-105958006D01*
X139251994Y-105902628D01*
X139212836Y-105834805D01*
X139192567Y-105759158D01*
X139192567Y-105680842D01*
X139212836Y-105605195D01*
X139251994Y-105537372D01*
X139307372Y-105481994D01*
X139375195Y-105442836D01*
X139450842Y-105422567D01*
X139529158Y-105422567D01*
X139604805Y-105442836D01*
G37*
G36*
X146604805Y-105442836D02*
G01*
X146672628Y-105481994D01*
X146728006Y-105537372D01*
X146767164Y-105605195D01*
X146787433Y-105680842D01*
X146787433Y-105759158D01*
X146767164Y-105834805D01*
X146728006Y-105902628D01*
X146672628Y-105958006D01*
X146604805Y-105997164D01*
X146529158Y-106017433D01*
X146450842Y-106017433D01*
X146375195Y-105997164D01*
X146307372Y-105958006D01*
X146251994Y-105902628D01*
X146212836Y-105834805D01*
X146192567Y-105759158D01*
X146192567Y-105680842D01*
X146212836Y-105605195D01*
X146251994Y-105537372D01*
X146307372Y-105481994D01*
X146375195Y-105442836D01*
X146450842Y-105422567D01*
X146529158Y-105422567D01*
X146604805Y-105442836D01*
G37*
G36*
X138512208Y-104534254D02*
G01*
X138613943Y-104592991D01*
X138697009Y-104676057D01*
X138755746Y-104777792D01*
X138786150Y-104891263D01*
X138790000Y-104950000D01*
X138790000Y-105550000D01*
X138786150Y-105608737D01*
X138755746Y-105722208D01*
X138697009Y-105823943D01*
X138613943Y-105907009D01*
X138512208Y-105965746D01*
X138398737Y-105996150D01*
X138281263Y-105996150D01*
X138167792Y-105965746D01*
X138066057Y-105907009D01*
X137982991Y-105823943D01*
X137924254Y-105722208D01*
X137893850Y-105608737D01*
X137890000Y-105550000D01*
X137890000Y-104950000D01*
X137893850Y-104891263D01*
X137924254Y-104777792D01*
X137982991Y-104676057D01*
X138066057Y-104592991D01*
X138167792Y-104534254D01*
X138281263Y-104503850D01*
X138398737Y-104503850D01*
X138512208Y-104534254D01*
G37*
G36*
X147812208Y-104534254D02*
G01*
X147913943Y-104592991D01*
X147997009Y-104676057D01*
X148055746Y-104777792D01*
X148086150Y-104891263D01*
X148090000Y-104950000D01*
X148090000Y-105550000D01*
X148086150Y-105608737D01*
X148055746Y-105722208D01*
X147997009Y-105823943D01*
X147913943Y-105907009D01*
X147812208Y-105965746D01*
X147698737Y-105996150D01*
X147581263Y-105996150D01*
X147467792Y-105965746D01*
X147366057Y-105907009D01*
X147282991Y-105823943D01*
X147224254Y-105722208D01*
X147193850Y-105608737D01*
X147190000Y-105550000D01*
X147190000Y-104950000D01*
X147193850Y-104891263D01*
X147224254Y-104777792D01*
X147282991Y-104676057D01*
X147366057Y-104592991D01*
X147467792Y-104534254D01*
X147581263Y-104503850D01*
X147698737Y-104503850D01*
X147812208Y-104534254D01*
G37*
G36*
X167395942Y-104254065D02*
G01*
X167518193Y-104304703D01*
X167628215Y-104378218D01*
X167721782Y-104471785D01*
X167795297Y-104581807D01*
X167845935Y-104704058D01*
X167871750Y-104833838D01*
X167871750Y-104966162D01*
X167845935Y-105095942D01*
X167795297Y-105218193D01*
X167721782Y-105328215D01*
X167628215Y-105421782D01*
X167518193Y-105495297D01*
X167395942Y-105545935D01*
X167266162Y-105571750D01*
X167133838Y-105571750D01*
X167004058Y-105545935D01*
X166881807Y-105495297D01*
X166771785Y-105421782D01*
X166678218Y-105328215D01*
X166604703Y-105218193D01*
X166554065Y-105095942D01*
X166528250Y-104966162D01*
X166528250Y-104833838D01*
X166554065Y-104704058D01*
X166604703Y-104581807D01*
X166678218Y-104471785D01*
X166771785Y-104378218D01*
X166881807Y-104304703D01*
X167004058Y-104254065D01*
X167133838Y-104228250D01*
X167266162Y-104228250D01*
X167395942Y-104254065D01*
G37*
G36*
X167395942Y-102254065D02*
G01*
X167518193Y-102304703D01*
X167628215Y-102378218D01*
X167721782Y-102471785D01*
X167795297Y-102581807D01*
X167845935Y-102704058D01*
X167871750Y-102833838D01*
X167871750Y-102966162D01*
X167845935Y-103095942D01*
X167795297Y-103218193D01*
X167721782Y-103328215D01*
X167628215Y-103421782D01*
X167518193Y-103495297D01*
X167395942Y-103545935D01*
X167266162Y-103571750D01*
X167133838Y-103571750D01*
X167004058Y-103545935D01*
X166881807Y-103495297D01*
X166771785Y-103421782D01*
X166678218Y-103328215D01*
X166604703Y-103218193D01*
X166554065Y-103095942D01*
X166528250Y-102966162D01*
X166528250Y-102833838D01*
X166554065Y-102704058D01*
X166604703Y-102581807D01*
X166678218Y-102471785D01*
X166771785Y-102378218D01*
X166881807Y-102304703D01*
X167004058Y-102254065D01*
X167133838Y-102228250D01*
X167266162Y-102228250D01*
X167395942Y-102254065D01*
G37*
G36*
X167395942Y-100254065D02*
G01*
X167518193Y-100304703D01*
X167628215Y-100378218D01*
X167721782Y-100471785D01*
X167795297Y-100581807D01*
X167845935Y-100704058D01*
X167871750Y-100833838D01*
X167871750Y-100966162D01*
X167845935Y-101095942D01*
X167795297Y-101218193D01*
X167721782Y-101328215D01*
X167628215Y-101421782D01*
X167518193Y-101495297D01*
X167395942Y-101545935D01*
X167266162Y-101571750D01*
X167133838Y-101571750D01*
X167004058Y-101545935D01*
X166881807Y-101495297D01*
X166771785Y-101421782D01*
X166678218Y-101328215D01*
X166604703Y-101218193D01*
X166554065Y-101095942D01*
X166528250Y-100966162D01*
X166528250Y-100833838D01*
X166554065Y-100704058D01*
X166604703Y-100581807D01*
X166678218Y-100471785D01*
X166771785Y-100378218D01*
X166881807Y-100304703D01*
X167004058Y-100254065D01*
X167133838Y-100228250D01*
X167266162Y-100228250D01*
X167395942Y-100254065D01*
G37*
G36*
X167875000Y-99575000D02*
G01*
X166525000Y-99575000D01*
X166525000Y-98225000D01*
X167875000Y-98225000D01*
X167875000Y-99575000D01*
G37*
G36*
X167004543Y-95532402D02*
G01*
X167116520Y-95597052D01*
X167207948Y-95688480D01*
X167272598Y-95800457D01*
X167306063Y-95925350D01*
X167306063Y-96054650D01*
X167272598Y-96179543D01*
X167207948Y-96291520D01*
X167116520Y-96382948D01*
X167004543Y-96447598D01*
X166879650Y-96481063D01*
X166750350Y-96481063D01*
X166625457Y-96447598D01*
X166513480Y-96382948D01*
X166422052Y-96291520D01*
X166357402Y-96179543D01*
X166323937Y-96054650D01*
X166323937Y-95925350D01*
X166357402Y-95800457D01*
X166422052Y-95688480D01*
X166513480Y-95597052D01*
X166625457Y-95532402D01*
X166750350Y-95498937D01*
X166879650Y-95498937D01*
X167004543Y-95532402D01*
G37*
G36*
X165988543Y-90452402D02*
G01*
X166100520Y-90517052D01*
X166191948Y-90608480D01*
X166256598Y-90720457D01*
X166290063Y-90845350D01*
X166290063Y-90974650D01*
X166256598Y-91099543D01*
X166191948Y-91211520D01*
X166100520Y-91302948D01*
X165988543Y-91367598D01*
X165863650Y-91401063D01*
X165734350Y-91401063D01*
X165609457Y-91367598D01*
X165497480Y-91302948D01*
X165406052Y-91211520D01*
X165341402Y-91099543D01*
X165307937Y-90974650D01*
X165307937Y-90845350D01*
X165341402Y-90720457D01*
X165406052Y-90608480D01*
X165497480Y-90517052D01*
X165609457Y-90452402D01*
X165734350Y-90418937D01*
X165863650Y-90418937D01*
X165988543Y-90452402D01*
G37*
G36*
X168020543Y-90452402D02*
G01*
X168132520Y-90517052D01*
X168223948Y-90608480D01*
X168288598Y-90720457D01*
X168322063Y-90845350D01*
X168322063Y-90974650D01*
X168288598Y-91099543D01*
X168223948Y-91211520D01*
X168132520Y-91302948D01*
X168020543Y-91367598D01*
X167895650Y-91401063D01*
X167766350Y-91401063D01*
X167641457Y-91367598D01*
X167529480Y-91302948D01*
X167438052Y-91211520D01*
X167373402Y-91099543D01*
X167339937Y-90974650D01*
X167339937Y-90845350D01*
X167373402Y-90720457D01*
X167438052Y-90608480D01*
X167529480Y-90517052D01*
X167641457Y-90452402D01*
X167766350Y-90418937D01*
X167895650Y-90418937D01*
X168020543Y-90452402D01*
G37*
G36*
X133553979Y-84544763D02*
G01*
X133793059Y-84622445D01*
X134017043Y-84736570D01*
X134220416Y-84884330D01*
X134398170Y-85062084D01*
X134545930Y-85265457D01*
X134660055Y-85489441D01*
X134737737Y-85728521D01*
X134777062Y-85976809D01*
X134777062Y-86228191D01*
X134737737Y-86476479D01*
X134660055Y-86715559D01*
X134545930Y-86939543D01*
X134398170Y-87142916D01*
X134220416Y-87320670D01*
X134017043Y-87468430D01*
X133793059Y-87582555D01*
X133553979Y-87660237D01*
X133305691Y-87699562D01*
X133054309Y-87699562D01*
X132806021Y-87660237D01*
X132566941Y-87582555D01*
X132342957Y-87468430D01*
X132139584Y-87320670D01*
X131961830Y-87142916D01*
X131814070Y-86939543D01*
X131699945Y-86715559D01*
X131622263Y-86476479D01*
X131582938Y-86228191D01*
X131582938Y-85976809D01*
X131622263Y-85728521D01*
X131699945Y-85489441D01*
X131814070Y-85265457D01*
X131961830Y-85062084D01*
X132139584Y-84884330D01*
X132342957Y-84736570D01*
X132566941Y-84622445D01*
X132806021Y-84544763D01*
X133054309Y-84505438D01*
X133305691Y-84505438D01*
X133553979Y-84544763D01*
G37*
G36*
X155553979Y-84544763D02*
G01*
X155793059Y-84622445D01*
X156017043Y-84736570D01*
X156220416Y-84884330D01*
X156398170Y-85062084D01*
X156545930Y-85265457D01*
X156660055Y-85489441D01*
X156737737Y-85728521D01*
X156777062Y-85976809D01*
X156777062Y-86228191D01*
X156737737Y-86476479D01*
X156660055Y-86715559D01*
X156545930Y-86939543D01*
X156398170Y-87142916D01*
X156220416Y-87320670D01*
X156017043Y-87468430D01*
X155793059Y-87582555D01*
X155553979Y-87660237D01*
X155305691Y-87699562D01*
X155054309Y-87699562D01*
X154806021Y-87660237D01*
X154566941Y-87582555D01*
X154342957Y-87468430D01*
X154139584Y-87320670D01*
X153961830Y-87142916D01*
X153814070Y-86939543D01*
X153699945Y-86715559D01*
X153622263Y-86476479D01*
X153582938Y-86228191D01*
X153582938Y-85976809D01*
X153622263Y-85728521D01*
X153699945Y-85489441D01*
X153814070Y-85265457D01*
X153961830Y-85062084D01*
X154139584Y-84884330D01*
X154342957Y-84736570D01*
X154566941Y-84622445D01*
X154806021Y-84544763D01*
X155054309Y-84505438D01*
X155305691Y-84505438D01*
X155553979Y-84544763D01*
G37*
G36*
X117190000Y-68340000D02*
G01*
X115190000Y-68340000D01*
X115190000Y-66340000D01*
X117190000Y-66340000D01*
X117190000Y-68340000D01*
G37*
G36*
X124080285Y-66383060D02*
G01*
X124261397Y-66458079D01*
X124424393Y-66566990D01*
X124563010Y-66705607D01*
X124671921Y-66868603D01*
X124746940Y-67049715D01*
X124785185Y-67241983D01*
X124785185Y-67438017D01*
X124746940Y-67630285D01*
X124671921Y-67811397D01*
X124563010Y-67974393D01*
X124424393Y-68113010D01*
X124261397Y-68221921D01*
X124080285Y-68296940D01*
X123888017Y-68335185D01*
X123691983Y-68335185D01*
X123499715Y-68296940D01*
X123318603Y-68221921D01*
X123155607Y-68113010D01*
X123016990Y-67974393D01*
X122908079Y-67811397D01*
X122833060Y-67630285D01*
X122794815Y-67438017D01*
X122794815Y-67241983D01*
X122833060Y-67049715D01*
X122908079Y-66868603D01*
X123016990Y-66705607D01*
X123155607Y-66566990D01*
X123318603Y-66458079D01*
X123499715Y-66383060D01*
X123691983Y-66344815D01*
X123888017Y-66344815D01*
X124080285Y-66383060D01*
G37*
G36*
X133553979Y-62544763D02*
G01*
X133793059Y-62622445D01*
X134017043Y-62736570D01*
X134220416Y-62884330D01*
X134398170Y-63062084D01*
X134545930Y-63265457D01*
X134660055Y-63489441D01*
X134737737Y-63728521D01*
X134777062Y-63976809D01*
X134777062Y-64228191D01*
X134737737Y-64476479D01*
X134660055Y-64715559D01*
X134545930Y-64939543D01*
X134398170Y-65142916D01*
X134220416Y-65320670D01*
X134017043Y-65468430D01*
X133793059Y-65582555D01*
X133553979Y-65660237D01*
X133305691Y-65699562D01*
X133054309Y-65699562D01*
X132806021Y-65660237D01*
X132566941Y-65582555D01*
X132342957Y-65468430D01*
X132139584Y-65320670D01*
X131961830Y-65142916D01*
X131814070Y-64939543D01*
X131699945Y-64715559D01*
X131622263Y-64476479D01*
X131582938Y-64228191D01*
X131582938Y-63976809D01*
X131622263Y-63728521D01*
X131699945Y-63489441D01*
X131814070Y-63265457D01*
X131961830Y-63062084D01*
X132139584Y-62884330D01*
X132342957Y-62736570D01*
X132566941Y-62622445D01*
X132806021Y-62544763D01*
X133054309Y-62505438D01*
X133305691Y-62505438D01*
X133553979Y-62544763D01*
G37*
G36*
X155553979Y-62544763D02*
G01*
X155793059Y-62622445D01*
X156017043Y-62736570D01*
X156220416Y-62884330D01*
X156398170Y-63062084D01*
X156545930Y-63265457D01*
X156660055Y-63489441D01*
X156737737Y-63728521D01*
X156777062Y-63976809D01*
X156777062Y-64228191D01*
X156737737Y-64476479D01*
X156660055Y-64715559D01*
X156545930Y-64939543D01*
X156398170Y-65142916D01*
X156220416Y-65320670D01*
X156017043Y-65468430D01*
X155793059Y-65582555D01*
X155553979Y-65660237D01*
X155305691Y-65699562D01*
X155054309Y-65699562D01*
X154806021Y-65660237D01*
X154566941Y-65582555D01*
X154342957Y-65468430D01*
X154139584Y-65320670D01*
X153961830Y-65142916D01*
X153814070Y-64939543D01*
X153699945Y-64715559D01*
X153622263Y-64476479D01*
X153582938Y-64228191D01*
X153582938Y-63976809D01*
X153622263Y-63728521D01*
X153699945Y-63489441D01*
X153814070Y-63265457D01*
X153961830Y-63062084D01*
X154139584Y-62884330D01*
X154342957Y-62736570D01*
X154566941Y-62622445D01*
X154806021Y-62544763D01*
X155054309Y-62505438D01*
X155305691Y-62505438D01*
X155553979Y-62544763D01*
G37*
G36*
X141163034Y-62754264D02*
G01*
X141196125Y-62776375D01*
X141218236Y-62809466D01*
X141226000Y-62848500D01*
X141226000Y-64356500D01*
X141218236Y-64395534D01*
X141196125Y-64428625D01*
X141163034Y-64450736D01*
X141124000Y-64458500D01*
X139616000Y-64458500D01*
X139576966Y-64450736D01*
X139543875Y-64428625D01*
X139521764Y-64395534D01*
X139514000Y-64356500D01*
X139514000Y-62848500D01*
X139521764Y-62809466D01*
X139543875Y-62776375D01*
X139576966Y-62754264D01*
X139616000Y-62746500D01*
X141124000Y-62746500D01*
X141163034Y-62754264D01*
G37*
G36*
X143158484Y-62783359D02*
G01*
X143313516Y-62847575D01*
X143453041Y-62940803D01*
X143571697Y-63059459D01*
X143664925Y-63198984D01*
X143729141Y-63354016D01*
X143761878Y-63518597D01*
X143761878Y-63686403D01*
X143729141Y-63850984D01*
X143664925Y-64006016D01*
X143571697Y-64145541D01*
X143453041Y-64264197D01*
X143313516Y-64357425D01*
X143158484Y-64421641D01*
X142993903Y-64454378D01*
X142826097Y-64454378D01*
X142661516Y-64421641D01*
X142506484Y-64357425D01*
X142366959Y-64264197D01*
X142248303Y-64145541D01*
X142155075Y-64006016D01*
X142090859Y-63850984D01*
X142058122Y-63686403D01*
X142058122Y-63518597D01*
X142090859Y-63354016D01*
X142155075Y-63198984D01*
X142248303Y-63059459D01*
X142366959Y-62940803D01*
X142506484Y-62847575D01*
X142661516Y-62783359D01*
X142826097Y-62750622D01*
X142993903Y-62750622D01*
X143158484Y-62783359D01*
G37*
G36*
X145698484Y-62783359D02*
G01*
X145853516Y-62847575D01*
X145993041Y-62940803D01*
X146111697Y-63059459D01*
X146204925Y-63198984D01*
X146269141Y-63354016D01*
X146301878Y-63518597D01*
X146301878Y-63686403D01*
X146269141Y-63850984D01*
X146204925Y-64006016D01*
X146111697Y-64145541D01*
X145993041Y-64264197D01*
X145853516Y-64357425D01*
X145698484Y-64421641D01*
X145533903Y-64454378D01*
X145366097Y-64454378D01*
X145201516Y-64421641D01*
X145046484Y-64357425D01*
X144906959Y-64264197D01*
X144788303Y-64145541D01*
X144695075Y-64006016D01*
X144630859Y-63850984D01*
X144598122Y-63686403D01*
X144598122Y-63518597D01*
X144630859Y-63354016D01*
X144695075Y-63198984D01*
X144788303Y-63059459D01*
X144906959Y-62940803D01*
X145046484Y-62847575D01*
X145201516Y-62783359D01*
X145366097Y-62750622D01*
X145533903Y-62750622D01*
X145698484Y-62783359D01*
G37*
G36*
X148238484Y-62783359D02*
G01*
X148393516Y-62847575D01*
X148533041Y-62940803D01*
X148651697Y-63059459D01*
X148744925Y-63198984D01*
X148809141Y-63354016D01*
X148841878Y-63518597D01*
X148841878Y-63686403D01*
X148809141Y-63850984D01*
X148744925Y-64006016D01*
X148651697Y-64145541D01*
X148533041Y-64264197D01*
X148393516Y-64357425D01*
X148238484Y-64421641D01*
X148073903Y-64454378D01*
X147906097Y-64454378D01*
X147741516Y-64421641D01*
X147586484Y-64357425D01*
X147446959Y-64264197D01*
X147328303Y-64145541D01*
X147235075Y-64006016D01*
X147170859Y-63850984D01*
X147138122Y-63686403D01*
X147138122Y-63518597D01*
X147170859Y-63354016D01*
X147235075Y-63198984D01*
X147328303Y-63059459D01*
X147446959Y-62940803D01*
X147586484Y-62847575D01*
X147741516Y-62783359D01*
X147906097Y-62750622D01*
X148073903Y-62750622D01*
X148238484Y-62783359D01*
G37*
M02*
