%TF.GenerationSoftware,KiCad,Pcbnew,10.0.3*%
%TF.CreationDate,2026-07-08T14:02:05+05:45*%
%TF.ProjectId,Air Quality Sensor Board,41697220-5175-4616-9c69-74792053656e,rev?*%
%TF.SameCoordinates,Original*%
%TF.FileFunction,Copper,L1,Top*%
%TF.FilePolarity,Positive*%
%FSLAX46Y46*%
G04 Gerber Fmt 4.6, Leading zero omitted, Abs format (unit mm)*
G04 Created by KiCad (PCBNEW 10.0.3) date 2026-07-08 14:02:05*
%MOMM*%
%LPD*%
G01*
G04 APERTURE LIST*
G04 Aperture macros list*
%AMRoundRect*
0 Rectangle with rounded corners*
0 $1 Rounding radius*
0 $2 $3 $4 $5 $6 $7 $8 $9 X,Y pos of 4 corners*
0 Add a 4 corners polygon primitive as box body*
4,1,4,$2,$3,$4,$5,$6,$7,$8,$9,$2,$3,0*
0 Add four circle primitives for the rounded corners*
1,1,$1+$1,$2,$3*
1,1,$1+$1,$4,$5*
1,1,$1+$1,$6,$7*
1,1,$1+$1,$8,$9*
0 Add four rect primitives between the rounded corners*
20,1,$1+$1,$2,$3,$4,$5,0*
20,1,$1+$1,$4,$5,$6,$7,0*
20,1,$1+$1,$6,$7,$8,$9,0*
20,1,$1+$1,$8,$9,$2,$3,0*%
%AMFreePoly0*
4,1,14,0.628536,0.853536,0.630000,0.850000,0.630000,-0.850000,0.628536,-0.853536,0.625000,-0.855000,-0.625000,-0.855000,-0.628536,-0.853536,-0.630000,-0.850000,-0.630000,0.550000,-0.628536,0.553536,-0.328536,0.853536,-0.325000,0.855000,0.625000,0.855000,0.628536,0.853536,0.628536,0.853536,$1*%
G04 Aperture macros list end*
%TA.AperFunction,SMDPad,CuDef*%
%ADD10RoundRect,0.250000X0.250000X0.475000X-0.250000X0.475000X-0.250000X-0.475000X0.250000X-0.475000X0*%
%TD*%
%TA.AperFunction,SMDPad,CuDef*%
%ADD11RoundRect,0.250000X0.500000X0.250000X-0.500000X0.250000X-0.500000X-0.250000X0.500000X-0.250000X0*%
%TD*%
%TA.AperFunction,SMDPad,CuDef*%
%ADD12RoundRect,0.250000X-0.262500X-0.450000X0.262500X-0.450000X0.262500X0.450000X-0.262500X0.450000X0*%
%TD*%
%TA.AperFunction,SMDPad,CuDef*%
%ADD13R,1.140000X1.470000*%
%TD*%
%TA.AperFunction,SMDPad,CuDef*%
%ADD14RoundRect,0.250000X0.262500X0.450000X-0.262500X0.450000X-0.262500X-0.450000X0.262500X-0.450000X0*%
%TD*%
%TA.AperFunction,ConnectorPad*%
%ADD15C,0.787400*%
%TD*%
%TA.AperFunction,ComponentPad*%
%ADD16R,1.508000X1.508000*%
%TD*%
%TA.AperFunction,ComponentPad*%
%ADD17C,1.508000*%
%TD*%
%TA.AperFunction,ComponentPad*%
%ADD18C,3.000000*%
%TD*%
%TA.AperFunction,SMDPad,CuDef*%
%ADD19RoundRect,0.250000X-0.250000X-0.475000X0.250000X-0.475000X0.250000X0.475000X-0.250000X0.475000X0*%
%TD*%
%TA.AperFunction,SMDPad,CuDef*%
%ADD20R,0.400000X0.550000*%
%TD*%
%TA.AperFunction,SMDPad,CuDef*%
%ADD21FreePoly0,90.000000*%
%TD*%
%TA.AperFunction,SMDPad,CuDef*%
%ADD22RoundRect,0.200000X-0.200000X-0.500000X0.200000X-0.500000X0.200000X0.500000X-0.200000X0.500000X0*%
%TD*%
%TA.AperFunction,SMDPad,CuDef*%
%ADD23RoundRect,0.075000X-0.075000X-0.625000X0.075000X-0.625000X0.075000X0.625000X-0.075000X0.625000X0*%
%TD*%
%TA.AperFunction,ComponentPad*%
%ADD24O,0.900000X1.800000*%
%TD*%
%TA.AperFunction,ComponentPad*%
%ADD25O,0.900000X1.500000*%
%TD*%
%TA.AperFunction,SMDPad,CuDef*%
%ADD26RoundRect,0.062500X0.375000X0.062500X-0.375000X0.062500X-0.375000X-0.062500X0.375000X-0.062500X0*%
%TD*%
%TA.AperFunction,SMDPad,CuDef*%
%ADD27RoundRect,0.062500X0.062500X0.375000X-0.062500X0.375000X-0.062500X-0.375000X0.062500X-0.375000X0*%
%TD*%
%TA.AperFunction,HeatsinkPad*%
%ADD28R,3.450000X3.450000*%
%TD*%
%TA.AperFunction,ComponentPad*%
%ADD29R,2.000000X2.000000*%
%TD*%
%TA.AperFunction,ComponentPad*%
%ADD30C,2.000000*%
%TD*%
%TA.AperFunction,SMDPad,CuDef*%
%ADD31RoundRect,0.250000X-0.375000X-1.075000X0.375000X-1.075000X0.375000X1.075000X-0.375000X1.075000X0*%
%TD*%
%TA.AperFunction,ComponentPad*%
%ADD32R,1.350000X1.350000*%
%TD*%
%TA.AperFunction,ComponentPad*%
%ADD33C,1.350000*%
%TD*%
%TA.AperFunction,SMDPad,CuDef*%
%ADD34RoundRect,0.375000X0.375000X-0.625000X0.375000X0.625000X-0.375000X0.625000X-0.375000X-0.625000X0*%
%TD*%
%TA.AperFunction,SMDPad,CuDef*%
%ADD35RoundRect,0.500000X1.400000X-0.500000X1.400000X0.500000X-1.400000X0.500000X-1.400000X-0.500000X0*%
%TD*%
%TA.AperFunction,SMDPad,CuDef*%
%ADD36RoundRect,0.150000X-0.587500X-0.150000X0.587500X-0.150000X0.587500X0.150000X-0.587500X0.150000X0*%
%TD*%
%TA.AperFunction,SMDPad,CuDef*%
%ADD37RoundRect,0.250000X-0.475000X0.250000X-0.475000X-0.250000X0.475000X-0.250000X0.475000X0.250000X0*%
%TD*%
%TA.AperFunction,ViaPad*%
%ADD38C,0.600000*%
%TD*%
%TA.AperFunction,Conductor*%
%ADD39C,0.200000*%
%TD*%
%TA.AperFunction,Conductor*%
%ADD40C,0.600000*%
%TD*%
%TA.AperFunction,Conductor*%
%ADD41C,0.400000*%
%TD*%
G04 APERTURE END LIST*
D10*
%TO.P,C1,1*%
%TO.N,+3V3*%
X139400000Y-91040000D03*
%TO.P,C1,2*%
%TO.N,GND*%
X137500000Y-91040000D03*
%TD*%
D11*
%TO.P,D4,1,RA_1*%
%TO.N,Net-(D4-RA)*%
X160042500Y-79305000D03*
%TO.P,D4,2,K_2*%
%TO.N,GND*%
X160042500Y-80705000D03*
%TO.P,D4,3,BA_3*%
%TO.N,Net-(D4-BA)*%
X163542500Y-80705000D03*
%TO.P,D4,4,GA_4*%
%TO.N,Net-(D4-GA)*%
X163542500Y-79305000D03*
%TD*%
D12*
%TO.P,R19,1*%
%TO.N,Net-(J1-CC1)*%
X141670000Y-101900000D03*
%TO.P,R19,2*%
%TO.N,GND*%
X143495000Y-101900000D03*
%TD*%
%TO.P,R5,1*%
%TO.N,Net-(D3-RA)*%
X165947500Y-72030000D03*
%TO.P,R5,2*%
%TO.N,/R_LED*%
X167772500Y-72030000D03*
%TD*%
%TO.P,R6,1*%
%TO.N,Net-(D3-GA)*%
X165997500Y-74230000D03*
%TO.P,R6,2*%
%TO.N,/G_LED*%
X167822500Y-74230000D03*
%TD*%
D10*
%TO.P,C4,1*%
%TO.N,+3V3*%
X139300000Y-93240000D03*
%TO.P,C4,2*%
%TO.N,GND*%
X137400000Y-93240000D03*
%TD*%
D13*
%TO.P,FL1,1*%
%TO.N,Net-(FL1-Pad1)*%
X139770000Y-101730000D03*
%TO.P,FL1,2*%
%TO.N,+5V*%
X137990000Y-101730000D03*
%TD*%
D14*
%TO.P,R17,1*%
%TO.N,+3V3*%
X129370000Y-80450000D03*
%TO.P,R17,2*%
%TO.N,Net-(U2-VDD)*%
X127545000Y-80450000D03*
%TD*%
D15*
%TO.P,J2,1*%
%TO.N,+3V3*%
X167450000Y-94720000D03*
%TO.P,J2,2*%
%TO.N,/SWDIO*%
X166180000Y-94720000D03*
%TO.P,J2,3*%
%TO.N,/RST*%
X167450000Y-93450000D03*
%TO.P,J2,4*%
%TO.N,/SWDCLK*%
X166180000Y-93450000D03*
%TO.P,J2,5*%
%TO.N,GND*%
X167450000Y-92180000D03*
%TO.P,J2,6*%
%TO.N,unconnected-(J2-Pad6)*%
X166180000Y-92180000D03*
%TD*%
D12*
%TO.P,R8,1*%
%TO.N,Net-(D4-RA)*%
X165907500Y-78700000D03*
%TO.P,R8,2*%
%TO.N,/R_LED*%
X167732500Y-78700000D03*
%TD*%
%TO.P,R10,1*%
%TO.N,Net-(D4-BA)*%
X165977500Y-82960000D03*
%TO.P,R10,2*%
%TO.N,/B_LED*%
X167802500Y-82960000D03*
%TD*%
D16*
%TO.P,U4,1,GND_1*%
%TO.N,GND*%
X140370000Y-63602500D03*
D17*
%TO.P,U4,2,VCC_IN_2*%
%TO.N,+3V3*%
X142910000Y-63602500D03*
%TO.P,U4,3,SCL_3*%
%TO.N,/SCL*%
X145450000Y-63602500D03*
%TO.P,U4,4,SDA_4*%
%TO.N,/SDA*%
X147990000Y-63602500D03*
D18*
%TO.P,U4,S1*%
%TO.N,N/C*%
X133180000Y-64102500D03*
%TO.P,U4,S2*%
X155180000Y-64102500D03*
%TO.P,U4,S3*%
X155180000Y-86102500D03*
%TO.P,U4,S4*%
X133180000Y-86102500D03*
%TD*%
D19*
%TO.P,C6,1*%
%TO.N,Net-(U2-VDD)*%
X127535000Y-78240000D03*
%TO.P,C6,2*%
%TO.N,GND*%
X129435000Y-78240000D03*
%TD*%
D20*
%TO.P,U2,1,VDD_1*%
%TO.N,Net-(U2-VDD)*%
X127507500Y-73910000D03*
%TO.P,U2,2,VSS_2*%
%TO.N,GND*%
X128307500Y-73910000D03*
%TO.P,U2,3,SDA_3*%
%TO.N,/SDA*%
X129107500Y-73910000D03*
%TO.P,U2,4,N/A_4*%
%TO.N,GND*%
X129107500Y-71610000D03*
%TO.P,U2,5,VDDH_5*%
%TO.N,Net-(U2-VDD)*%
X128307500Y-71610000D03*
%TO.P,U2,6,SCL_6*%
%TO.N,/SCL*%
X127507500Y-71610000D03*
D21*
%TO.P,U2,7,EXP_7*%
%TO.N,GND*%
X128307500Y-72760000D03*
%TD*%
D19*
%TO.P,C7,1*%
%TO.N,+5V*%
X127750000Y-88580000D03*
%TO.P,C7,2*%
%TO.N,GND*%
X129650000Y-88580000D03*
%TD*%
D12*
%TO.P,R14,1*%
%TO.N,/BUZ*%
X117437500Y-75900000D03*
%TO.P,R14,2*%
%TO.N,Net-(Q1-B)*%
X119262500Y-75900000D03*
%TD*%
%TO.P,R4,1*%
%TO.N,Net-(D1-BA)*%
X166177500Y-63160000D03*
%TO.P,R4,2*%
%TO.N,/B_LED*%
X168002500Y-63160000D03*
%TD*%
D10*
%TO.P,C2,1*%
%TO.N,+3V3*%
X139190000Y-97620000D03*
%TO.P,C2,2*%
%TO.N,GND*%
X137290000Y-97620000D03*
%TD*%
D22*
%TO.P,J1,A1,GND_A1*%
%TO.N,GND*%
X139490000Y-104470000D03*
%TO.P,J1,A4,VBUS_A4*%
%TO.N,Net-(FL1-Pad1)*%
X140490000Y-104470000D03*
D23*
%TO.P,J1,A5,CC1_A5*%
%TO.N,Net-(J1-CC1)*%
X141740000Y-104470000D03*
%TO.P,J1,A6,D+_A6*%
%TO.N,unconnected-(J1-D+-PadA6)*%
X142740000Y-104470000D03*
%TO.P,J1,A7,D-_A7*%
%TO.N,unconnected-(J1-D--PadA7)*%
X143240000Y-104470000D03*
%TO.P,J1,A8,SBU1_A8*%
%TO.N,unconnected-(J1-SBU1-PadA8)*%
X144240000Y-104470000D03*
D22*
%TO.P,J1,A9,VBUS_A9*%
%TO.N,Net-(FL1-Pad1)*%
X145490000Y-104470000D03*
%TO.P,J1,A12,GND_A12*%
%TO.N,GND*%
X146490000Y-104470000D03*
%TO.P,J1,B1,GND_B1*%
X146490000Y-104470000D03*
%TO.P,J1,B4,VBUS_B4*%
%TO.N,Net-(FL1-Pad1)*%
X145490000Y-104470000D03*
D23*
%TO.P,J1,B5,CC2_B5*%
%TO.N,Net-(J1-CC2)*%
X144740000Y-104470000D03*
%TO.P,J1,B6,D+_B6*%
%TO.N,unconnected-(J1-D+-PadB6)*%
X143740000Y-104470000D03*
%TO.P,J1,B7,D-_B7*%
%TO.N,unconnected-(J1-D--PadB7)*%
X142240000Y-104470000D03*
%TO.P,J1,B8,SBU2_B8*%
%TO.N,unconnected-(J1-SBU2-PadB8)*%
X141240000Y-104470000D03*
D22*
%TO.P,J1,B9,VBUS_B9*%
%TO.N,Net-(FL1-Pad1)*%
X140490000Y-104470000D03*
%TO.P,J1,B12,GND_B12*%
%TO.N,GND*%
X139490000Y-104470000D03*
D24*
%TO.P,J1,SH,SHIELD_SH*%
X137070000Y-109570000D03*
D25*
X138340000Y-105250000D03*
X147640000Y-105250000D03*
D24*
X148910000Y-109570000D03*
%TD*%
D26*
%TO.P,U1,1,VDD_1*%
%TO.N,+3V3*%
X146462500Y-96310000D03*
%TO.P,U1,2,PC14_2*%
%TO.N,unconnected-(U1-PC14-Pad2)*%
X146462500Y-95810000D03*
%TO.P,U1,3,PC15_3*%
%TO.N,unconnected-(U1-PC15-Pad3)*%
X146462500Y-95310000D03*
%TO.P,U1,4,PF2_4*%
%TO.N,/RST*%
X146462500Y-94810000D03*
%TO.P,U1,5,VDDA_5*%
%TO.N,+3V3*%
X146462500Y-94310000D03*
%TO.P,U1,6,PA0_6*%
%TO.N,unconnected-(U1-PA0-Pad6)*%
X146462500Y-93810000D03*
%TO.P,U1,7,PA1_7*%
%TO.N,unconnected-(U1-PA1-Pad7)*%
X146462500Y-93310000D03*
%TO.P,U1,8,PA2_8*%
%TO.N,/TX*%
X146462500Y-92810000D03*
D27*
%TO.P,U1,9,PA3_9*%
%TO.N,/RX*%
X145775000Y-92122500D03*
%TO.P,U1,10,PA4_10*%
%TO.N,unconnected-(U1-PA4-Pad10)*%
X145275000Y-92122500D03*
%TO.P,U1,11,PA5_11*%
%TO.N,unconnected-(U1-PA5-Pad11)*%
X144775000Y-92122500D03*
%TO.P,U1,12,PA6_12*%
%TO.N,/SDA*%
X144275000Y-92122500D03*
%TO.P,U1,13,PA7_13*%
%TO.N,/SCL*%
X143775000Y-92122500D03*
%TO.P,U1,14,PB0_14*%
%TO.N,/BUZ*%
X143275000Y-92122500D03*
%TO.P,U1,15,PB1_15*%
%TO.N,/R_LED*%
X142775000Y-92122500D03*
%TO.P,U1,16,VSS_16*%
%TO.N,GND*%
X142275000Y-92122500D03*
D26*
%TO.P,U1,17,VDD_17*%
%TO.N,+3V3*%
X141587500Y-92810000D03*
%TO.P,U1,18,PA8_18*%
%TO.N,unconnected-(U1-PA8-Pad18)*%
X141587500Y-93310000D03*
%TO.P,U1,19,PA9_19*%
%TO.N,unconnected-(U1-PA9-Pad19)*%
X141587500Y-93810000D03*
%TO.P,U1,20,PA10_20*%
%TO.N,unconnected-(U1-PA10-Pad20)*%
X141587500Y-94310000D03*
%TO.P,U1,21,PA11_21*%
%TO.N,unconnected-(U1-PA11-Pad21)*%
X141587500Y-94810000D03*
%TO.P,U1,22,PA12_22*%
%TO.N,unconnected-(U1-PA12-Pad22)*%
X141587500Y-95310000D03*
%TO.P,U1,23,PA13_23*%
%TO.N,/SWDIO*%
X141587500Y-95810000D03*
%TO.P,U1,24,PA14_24*%
%TO.N,/SWDCLK*%
X141587500Y-96310000D03*
D27*
%TO.P,U1,25,PA15_25*%
%TO.N,unconnected-(U1-PA15-Pad25)*%
X142275000Y-96997500D03*
%TO.P,U1,26,PB3_26*%
%TO.N,/G_LED*%
X142775000Y-96997500D03*
%TO.P,U1,27,PB4_27*%
%TO.N,/B_LED*%
X143275000Y-96997500D03*
%TO.P,U1,28,PB5_28*%
%TO.N,unconnected-(U1-PB5-Pad28)*%
X143775000Y-96997500D03*
%TO.P,U1,29,PB6_29*%
%TO.N,unconnected-(U1-PB6-Pad29)*%
X144275000Y-96997500D03*
%TO.P,U1,30,PB7_30*%
%TO.N,unconnected-(U1-PB7-Pad30)*%
X144775000Y-96997500D03*
%TO.P,U1,31,PF3_31*%
%TO.N,/BOOT*%
X145275000Y-96997500D03*
%TO.P,U1,32,VSS_32*%
%TO.N,GND*%
X145775000Y-96997500D03*
D28*
%TO.P,U1,33,VSS_33*%
X144025000Y-94560000D03*
%TD*%
D29*
%TO.P,BZ1,1,+_1*%
%TO.N,Net-(BZ1-+)*%
X116190000Y-67340000D03*
D30*
%TO.P,BZ1,2,-_2*%
%TO.N,GND*%
X123790000Y-67340000D03*
%TD*%
D12*
%TO.P,R1,1*%
%TO.N,/BOOT*%
X144505000Y-98910000D03*
%TO.P,R1,2*%
%TO.N,GND*%
X146330000Y-98910000D03*
%TD*%
%TO.P,R2,1*%
%TO.N,Net-(D1-RA)*%
X158872500Y-63350000D03*
%TO.P,R2,2*%
%TO.N,/R_LED*%
X160697500Y-63350000D03*
%TD*%
%TO.P,R18,1*%
%TO.N,Net-(J1-CC2)*%
X145325000Y-101880000D03*
%TO.P,R18,2*%
%TO.N,GND*%
X147150000Y-101880000D03*
%TD*%
D31*
%TO.P,D5,1,K_1*%
%TO.N,Net-(D5-K)*%
X121640000Y-88840000D03*
%TO.P,D5,2,A_2*%
%TO.N,+3V3*%
X124440000Y-88840000D03*
%TD*%
D12*
%TO.P,R16,1*%
%TO.N,+3V3*%
X127475000Y-75980000D03*
%TO.P,R16,2*%
%TO.N,/SDA*%
X129300000Y-75980000D03*
%TD*%
D32*
%TO.P,J3,1,Pin_1_1*%
%TO.N,/TX*%
X167200000Y-98900000D03*
D33*
%TO.P,J3,2,Pin_2_2*%
%TO.N,/RX*%
X167200000Y-100900000D03*
%TO.P,J3,3,Pin_3_3*%
%TO.N,GND*%
X167200000Y-102900000D03*
%TO.P,J3,4,Pin_4_4*%
%TO.N,+3V3*%
X167200000Y-104900000D03*
%TD*%
D19*
%TO.P,C8,1*%
%TO.N,+3V3*%
X127410000Y-82940000D03*
%TO.P,C8,2*%
%TO.N,GND*%
X129310000Y-82940000D03*
%TD*%
D34*
%TO.P,U3,1,GND_1*%
%TO.N,GND*%
X117580000Y-85450000D03*
%TO.P,U3,2,VO_2*%
%TO.N,+3V3*%
X119880000Y-85450000D03*
D35*
X119880000Y-79150000D03*
D34*
%TO.P,U3,3,VI_3*%
%TO.N,+5V*%
X122180000Y-85450000D03*
%TD*%
D10*
%TO.P,C3,1*%
%TO.N,+3V3*%
X139270000Y-95440000D03*
%TO.P,C3,2*%
%TO.N,GND*%
X137370000Y-95440000D03*
%TD*%
D14*
%TO.P,R15,1*%
%TO.N,+3V3*%
X129370000Y-69720000D03*
%TO.P,R15,2*%
%TO.N,/SCL*%
X127545000Y-69720000D03*
%TD*%
D36*
%TO.P,Q1,1,B_1*%
%TO.N,Net-(Q1-B)*%
X122940000Y-74330000D03*
%TO.P,Q1,2,E_2*%
%TO.N,Net-(BZ1-+)*%
X122940000Y-76230000D03*
%TO.P,Q1,3,C_3*%
%TO.N,+3V3*%
X124815000Y-75280000D03*
%TD*%
D19*
%TO.P,C9,1*%
%TO.N,+3V3*%
X127500000Y-85710000D03*
%TO.P,C9,2*%
%TO.N,GND*%
X129400000Y-85710000D03*
%TD*%
D12*
%TO.P,R13,1*%
%TO.N,Net-(D2-BA)*%
X165987500Y-69900000D03*
%TO.P,R13,2*%
%TO.N,/B_LED*%
X167812500Y-69900000D03*
%TD*%
%TO.P,R7,1*%
%TO.N,Net-(D3-BA)*%
X165997500Y-76620000D03*
%TO.P,R7,2*%
%TO.N,/B_LED*%
X167822500Y-76620000D03*
%TD*%
%TO.P,R3,1*%
%TO.N,Net-(D1-GA)*%
X162550000Y-63260000D03*
%TO.P,R3,2*%
%TO.N,/G_LED*%
X164375000Y-63260000D03*
%TD*%
%TO.P,R9,1*%
%TO.N,Net-(D4-GA)*%
X165975000Y-80800000D03*
%TO.P,R9,2*%
%TO.N,/G_LED*%
X167800000Y-80800000D03*
%TD*%
%TO.P,R12,1*%
%TO.N,Net-(D2-GA)*%
X165927500Y-67860000D03*
%TO.P,R12,2*%
%TO.N,/G_LED*%
X167752500Y-67860000D03*
%TD*%
%TO.P,R11,1*%
%TO.N,Net-(D2-RA)*%
X166040000Y-65730000D03*
%TO.P,R11,2*%
%TO.N,/R_LED*%
X167865000Y-65730000D03*
%TD*%
D11*
%TO.P,D2,1,RA_1*%
%TO.N,Net-(D2-RA)*%
X160042500Y-70265000D03*
%TO.P,D2,2,K_2*%
%TO.N,GND*%
X160042500Y-71665000D03*
%TO.P,D2,3,BA_3*%
%TO.N,Net-(D2-BA)*%
X163542500Y-71665000D03*
%TO.P,D2,4,GA_4*%
%TO.N,Net-(D2-GA)*%
X163542500Y-70265000D03*
%TD*%
D37*
%TO.P,C5,1*%
%TO.N,/RST*%
X148790000Y-94900000D03*
%TO.P,C5,2*%
%TO.N,GND*%
X148790000Y-96800000D03*
%TD*%
D11*
%TO.P,D1,1,RA_1*%
%TO.N,Net-(D1-RA)*%
X160042500Y-65745000D03*
%TO.P,D1,2,K_2*%
%TO.N,GND*%
X160042500Y-67145000D03*
%TO.P,D1,3,BA_3*%
%TO.N,Net-(D1-BA)*%
X163542500Y-67145000D03*
%TO.P,D1,4,GA_4*%
%TO.N,Net-(D1-GA)*%
X163542500Y-65745000D03*
%TD*%
D12*
%TO.P,R20,1*%
%TO.N,Net-(D5-K)*%
X116607500Y-89210000D03*
%TO.P,R20,2*%
%TO.N,GND*%
X118432500Y-89210000D03*
%TD*%
D11*
%TO.P,D3,1,RA_1*%
%TO.N,Net-(D3-RA)*%
X160042500Y-74785000D03*
%TO.P,D3,2,K_2*%
%TO.N,GND*%
X160042500Y-76185000D03*
%TO.P,D3,3,BA_3*%
%TO.N,Net-(D3-BA)*%
X163542500Y-76185000D03*
%TO.P,D3,4,GA_4*%
%TO.N,Net-(D3-GA)*%
X163542500Y-74785000D03*
%TD*%
D38*
%TO.N,+3V3*%
X167870700Y-97240000D03*
%TO.N,Net-(U2-VDD)*%
X127507500Y-73910000D03*
X128350000Y-71693000D03*
X127535000Y-78240000D03*
X126546178Y-76550363D03*
%TO.N,GND*%
X129450000Y-77930000D03*
X128307500Y-72760000D03*
X139490000Y-104470000D03*
X143290000Y-102200000D03*
X147440854Y-99513854D03*
X147150000Y-101880000D03*
%TO.N,/R_LED*%
X167770000Y-78720000D03*
X162365500Y-79290000D03*
%TO.N,/B_LED*%
X142762354Y-100037646D03*
X155970000Y-95123000D03*
X161847149Y-65372851D03*
X143380000Y-98624000D03*
%TO.N,/R_LED*%
X162310000Y-68360000D03*
X167772500Y-72030000D03*
X167770000Y-78720000D03*
%TO.N,/G_LED*%
X154190000Y-94626300D03*
X156460000Y-91429000D03*
X162682354Y-91429000D03*
X167800000Y-80800000D03*
X167822500Y-74230000D03*
X164500000Y-63520000D03*
X167752500Y-67860000D03*
%TO.N,/R_LED*%
X160697500Y-63350000D03*
X167930000Y-64550000D03*
X146460000Y-90494646D03*
X142748000Y-90620000D03*
%TO.N,+3V3*%
X142332354Y-89967646D03*
X147350000Y-96190000D03*
X147390000Y-94373000D03*
%TO.N,/SWDIO*%
X140400000Y-96020000D03*
X164797000Y-95620000D03*
%TO.N,/SWDCLK*%
X141300000Y-97550000D03*
X153420000Y-93337000D03*
%TO.N,/RX*%
X163510000Y-92283000D03*
X163532997Y-94626300D03*
%TO.N,/TX*%
X164250000Y-92810000D03*
X164260000Y-94626300D03*
%TO.N,/SCL*%
X140259500Y-68793000D03*
X142600000Y-70230000D03*
%TO.N,+3V3*%
X129370000Y-69720000D03*
X119880000Y-79150000D03*
X124815000Y-75280000D03*
X127475000Y-75980000D03*
X129370000Y-80450000D03*
X127410000Y-82940000D03*
X127500000Y-85710000D03*
X119880000Y-85450000D03*
X124440000Y-88840000D03*
%TO.N,GND*%
X144025000Y-94560000D03*
%TO.N,+3V3*%
X139190000Y-97620000D03*
X139270000Y-95440000D03*
X139300000Y-93240000D03*
X139400000Y-91040000D03*
%TD*%
%TO.N,Net-(U2-VDD)*%
D39*
X127545000Y-78915000D02*
X127545000Y-80450000D01*
X127535000Y-78905000D02*
X127545000Y-78915000D01*
X127535000Y-78240000D02*
X127535000Y-78905000D01*
%TO.N,+3V3*%
X167870700Y-95140700D02*
X167870700Y-97240000D01*
X167450000Y-94720000D02*
X167870700Y-95140700D01*
%TO.N,GND*%
X168397700Y-93127700D02*
X167450000Y-92180000D01*
X168397700Y-101702300D02*
X168397700Y-93127700D01*
X167200000Y-102900000D02*
X168397700Y-101702300D01*
X129107500Y-71960000D02*
X129107500Y-71610000D01*
X128307500Y-72760000D02*
X129107500Y-71960000D01*
%TO.N,Net-(U2-VDD)*%
X128307500Y-71650500D02*
X128350000Y-71693000D01*
X128307500Y-71610000D02*
X128307500Y-71650500D01*
X126546178Y-74871322D02*
X126546178Y-76550363D01*
X127507500Y-73910000D02*
X126546178Y-74871322D01*
%TO.N,GND*%
X128307500Y-72760000D02*
X128307500Y-73910000D01*
X129435000Y-77945000D02*
X129450000Y-77930000D01*
X129435000Y-78240000D02*
X129435000Y-77945000D01*
%TO.N,Net-(FL1-Pad1)*%
X140490000Y-105170000D02*
X140490000Y-104470000D01*
X144840000Y-105820000D02*
X141140000Y-105820000D01*
X145490000Y-105170000D02*
X144840000Y-105820000D01*
X145490000Y-104470000D02*
X145490000Y-105170000D01*
X141140000Y-105820000D02*
X140490000Y-105170000D01*
%TO.N,GND*%
X143495000Y-101995000D02*
X143290000Y-102200000D01*
X143495000Y-101900000D02*
X143495000Y-101995000D01*
X146570000Y-100734000D02*
X147150000Y-101314000D01*
X144206000Y-100734000D02*
X146570000Y-100734000D01*
X143495000Y-101445000D02*
X144206000Y-100734000D01*
X143495000Y-101900000D02*
X143495000Y-101445000D01*
X147150000Y-101314000D02*
X147150000Y-101880000D01*
X146837000Y-98910000D02*
X147440854Y-99513854D01*
X146330000Y-98910000D02*
X146837000Y-98910000D01*
X146330000Y-97580000D02*
X146330000Y-98910000D01*
X145775000Y-96997500D02*
X145775000Y-97025000D01*
X145775000Y-97025000D02*
X146330000Y-97580000D01*
X145775000Y-96310000D02*
X144025000Y-94560000D01*
X145775000Y-96997500D02*
X145775000Y-96310000D01*
%TO.N,/TX*%
X164270000Y-94636300D02*
X164260000Y-94626300D01*
X164270000Y-97620000D02*
X164270000Y-94636300D01*
X165900000Y-99250000D02*
X164270000Y-97620000D01*
X166310000Y-99250000D02*
X165900000Y-99250000D01*
X167200000Y-98900000D02*
X166660000Y-98900000D01*
X166660000Y-98900000D02*
X166310000Y-99250000D01*
%TO.N,/RX*%
X163532997Y-96799997D02*
X163532997Y-94626300D01*
X163530000Y-96802994D02*
X163532997Y-96799997D01*
X163530000Y-97650000D02*
X163530000Y-96802994D01*
X163635448Y-97765448D02*
X163635448Y-97755448D01*
X163635448Y-97755448D02*
X163530000Y-97650000D01*
X166440000Y-100590000D02*
X164000000Y-98150000D01*
X164000000Y-98150000D02*
X164000000Y-98130000D01*
X166890000Y-100590000D02*
X166440000Y-100590000D01*
X167200000Y-100900000D02*
X166890000Y-100590000D01*
X164000000Y-98130000D02*
X163635448Y-97765448D01*
%TO.N,/R_LED*%
X162565500Y-79759506D02*
X162565500Y-79490000D01*
X162810994Y-80005000D02*
X162565500Y-79759506D01*
X162565500Y-80250494D02*
X162810994Y-80005000D01*
X163540000Y-91370000D02*
X163540000Y-81432000D01*
X162565500Y-81159506D02*
X162565500Y-80250494D01*
X147921354Y-91956000D02*
X162954000Y-91956000D01*
X162954000Y-91956000D02*
X163540000Y-91370000D01*
X162837994Y-81432000D02*
X162565500Y-81159506D01*
X146460000Y-90494646D02*
X147921354Y-91956000D01*
X163540000Y-81432000D02*
X162837994Y-81432000D01*
X162565500Y-79490000D02*
X162365500Y-79290000D01*
%TO.N,/B_LED*%
X167180000Y-69900000D02*
X166980000Y-69700000D01*
X167812500Y-69900000D02*
X167180000Y-69900000D01*
X166980000Y-69700000D02*
X166980000Y-64182500D01*
X143380000Y-98624000D02*
X143380000Y-97102500D01*
X143380000Y-97102500D02*
X143275000Y-96997500D01*
X143131708Y-100407000D02*
X142762354Y-100037646D01*
X147755448Y-100407000D02*
X143131708Y-100407000D01*
X155970000Y-95760000D02*
X155078776Y-96651224D01*
X155970000Y-95123000D02*
X155970000Y-95760000D01*
X151511224Y-96651224D02*
X147755448Y-100407000D01*
X155078776Y-96651224D02*
X151511224Y-96651224D01*
X161810500Y-62605494D02*
X161810500Y-65336202D01*
X162182994Y-62233000D02*
X161810500Y-62605494D01*
X167075500Y-62233000D02*
X162182994Y-62233000D01*
X161810500Y-65336202D02*
X161847149Y-65372851D01*
X168002500Y-63160000D02*
X167075500Y-62233000D01*
%TO.N,/R_LED*%
X162310000Y-66580994D02*
X160697500Y-64968494D01*
X162310000Y-68360000D02*
X162310000Y-66580994D01*
X160697500Y-64968494D02*
X160697500Y-63350000D01*
X167750000Y-78700000D02*
X167770000Y-78720000D01*
X167732500Y-78700000D02*
X167750000Y-78700000D01*
%TO.N,/G_LED*%
X147620000Y-100080000D02*
X143550000Y-100080000D01*
X143550000Y-100080000D02*
X142775000Y-99305000D01*
X142775000Y-99305000D02*
X142775000Y-96997500D01*
X151690000Y-96010000D02*
X147620000Y-100080000D01*
X154190000Y-95330000D02*
X153510000Y-96010000D01*
X154190000Y-94626300D02*
X154190000Y-95330000D01*
X153510000Y-96010000D02*
X151690000Y-96010000D01*
X162682354Y-91429000D02*
X156460000Y-91429000D01*
X164375000Y-63395000D02*
X164500000Y-63520000D01*
X164375000Y-63260000D02*
X164375000Y-63395000D01*
%TO.N,/R_LED*%
X167865000Y-64615000D02*
X167930000Y-64550000D01*
X167865000Y-65730000D02*
X167865000Y-64615000D01*
%TO.N,/B_LED*%
X166970000Y-82127500D02*
X167802500Y-82960000D01*
X167822500Y-76620000D02*
X166970000Y-77472500D01*
X166970000Y-77472500D02*
X166970000Y-82127500D01*
X166980000Y-64182500D02*
X168002500Y-63160000D01*
X166980000Y-75777500D02*
X166980000Y-69700000D01*
X167822500Y-76620000D02*
X166980000Y-75777500D01*
%TO.N,Net-(D1-RA)*%
X158872500Y-64575000D02*
X158872500Y-63350000D01*
X160042500Y-65745000D02*
X158872500Y-64575000D01*
%TO.N,Net-(D1-GA)*%
X162550000Y-64752500D02*
X162550000Y-63260000D01*
X163542500Y-65745000D02*
X162550000Y-64752500D01*
%TO.N,Net-(D1-BA)*%
X164519500Y-64818000D02*
X166177500Y-63160000D01*
X164519500Y-66918000D02*
X164519500Y-64818000D01*
X164292500Y-67145000D02*
X164519500Y-66918000D01*
X163542500Y-67145000D02*
X164292500Y-67145000D01*
%TO.N,Net-(D2-RA)*%
X161854006Y-70265000D02*
X160042500Y-70265000D01*
X166040000Y-66079006D02*
X161854006Y-70265000D01*
X166040000Y-65730000D02*
X166040000Y-66079006D01*
%TO.N,Net-(D2-GA)*%
X165927500Y-67880000D02*
X163542500Y-70265000D01*
X165927500Y-67860000D02*
X165927500Y-67880000D01*
%TO.N,Net-(D2-BA)*%
X165987500Y-69900000D02*
X164222500Y-71665000D01*
X164222500Y-71665000D02*
X163542500Y-71665000D01*
%TO.N,Net-(D3-RA)*%
X162435500Y-72392000D02*
X160042500Y-74785000D01*
X165585500Y-72392000D02*
X162435500Y-72392000D01*
X165947500Y-72030000D02*
X165585500Y-72392000D01*
%TO.N,Net-(D3-BA)*%
X163977500Y-76620000D02*
X163542500Y-76185000D01*
X165997500Y-76620000D02*
X163977500Y-76620000D01*
%TO.N,Net-(D3-GA)*%
X164097500Y-74230000D02*
X163542500Y-74785000D01*
X165997500Y-74230000D02*
X164097500Y-74230000D01*
%TO.N,Net-(D4-RA)*%
X165785500Y-78578000D02*
X160769500Y-78578000D01*
X160769500Y-78578000D02*
X160042500Y-79305000D01*
X165907500Y-78700000D02*
X165785500Y-78578000D01*
%TO.N,Net-(D4-GA)*%
X164480000Y-79305000D02*
X165975000Y-80800000D01*
X163542500Y-79305000D02*
X164480000Y-79305000D01*
%TO.N,Net-(D4-BA)*%
X165797500Y-82960000D02*
X165977500Y-82960000D01*
X163542500Y-80705000D02*
X165797500Y-82960000D01*
%TO.N,/R_LED*%
X142775000Y-90647000D02*
X142748000Y-90620000D01*
X142775000Y-92122500D02*
X142775000Y-90647000D01*
%TO.N,GND*%
X142275000Y-92810000D02*
X144025000Y-94560000D01*
X142275000Y-92122500D02*
X142275000Y-92810000D01*
%TO.N,+3V3*%
X141587500Y-90712500D02*
X142332354Y-89967646D01*
X141587500Y-92810000D02*
X141587500Y-90712500D01*
X139730000Y-92810000D02*
X139300000Y-93240000D01*
X141587500Y-92810000D02*
X139730000Y-92810000D01*
X146582500Y-96190000D02*
X146462500Y-96310000D01*
X147350000Y-96190000D02*
X146582500Y-96190000D01*
X147327000Y-94310000D02*
X147390000Y-94373000D01*
X146462500Y-94310000D02*
X147327000Y-94310000D01*
%TO.N,/SWDIO*%
X140610000Y-95810000D02*
X141587500Y-95810000D01*
X140400000Y-96020000D02*
X140610000Y-95810000D01*
X165697000Y-94720000D02*
X164797000Y-95620000D01*
X166180000Y-94720000D02*
X165697000Y-94720000D01*
%TO.N,/SWDCLK*%
X141300000Y-96597500D02*
X141587500Y-96310000D01*
X141300000Y-97550000D02*
X141300000Y-96597500D01*
X153855300Y-93772300D02*
X153420000Y-93337000D01*
X165857700Y-93772300D02*
X153855300Y-93772300D01*
X166180000Y-93450000D02*
X165857700Y-93772300D01*
%TO.N,/RX*%
X145935500Y-92283000D02*
X145775000Y-92122500D01*
X163510000Y-92283000D02*
X145935500Y-92283000D01*
%TO.N,/TX*%
X146462500Y-92810000D02*
X164250000Y-92810000D01*
X168070700Y-98029300D02*
X167200000Y-98900000D01*
%TO.N,/RST*%
X166800700Y-94099300D02*
X167450000Y-93450000D01*
X149590700Y-94099300D02*
X166800700Y-94099300D01*
X148790000Y-94900000D02*
X149590700Y-94099300D01*
X146552500Y-94900000D02*
X146462500Y-94810000D01*
X148790000Y-94900000D02*
X146552500Y-94900000D01*
%TO.N,/BOOT*%
X145275000Y-98140000D02*
X145275000Y-96997500D01*
X144505000Y-98910000D02*
X145275000Y-98140000D01*
%TO.N,Net-(J1-CC2)*%
X144740000Y-102465000D02*
X145325000Y-101880000D01*
X144740000Y-104470000D02*
X144740000Y-102465000D01*
%TO.N,Net-(J1-CC1)*%
X141740000Y-101970000D02*
X141670000Y-101900000D01*
X141740000Y-104470000D02*
X141740000Y-101970000D01*
%TO.N,Net-(FL1-Pad1)*%
X140490000Y-102450000D02*
X139770000Y-101730000D01*
X140490000Y-104470000D02*
X140490000Y-102450000D01*
%TO.N,/SDA*%
X144275000Y-71015000D02*
X142645000Y-69385000D01*
X144275000Y-92122500D02*
X144275000Y-71015000D01*
X142645000Y-69385000D02*
X147990000Y-64040000D01*
%TO.N,/SCL*%
X143775000Y-71405000D02*
X142600000Y-70230000D01*
X143775000Y-92122500D02*
X143775000Y-71405000D01*
%TO.N,/SDA*%
X147990000Y-64040000D02*
X147990000Y-63602500D01*
X141720000Y-70310000D02*
X142645000Y-69385000D01*
X132707500Y-70310000D02*
X141720000Y-70310000D01*
X129107500Y-73910000D02*
X132707500Y-70310000D01*
X129107500Y-75787500D02*
X129300000Y-75980000D01*
X129107500Y-73910000D02*
X129107500Y-75787500D01*
%TO.N,/SCL*%
X140259500Y-68793000D02*
X145450000Y-63602500D01*
X128472000Y-68793000D02*
X140259500Y-68793000D01*
X127545000Y-69720000D02*
X128472000Y-68793000D01*
X127545000Y-69720000D02*
X127545000Y-71572500D01*
X127545000Y-71572500D02*
X127507500Y-71610000D01*
%TO.N,Net-(Q1-B)*%
X118260000Y-75980000D02*
X118340000Y-75900000D01*
X118260000Y-76260052D02*
X118260000Y-75980000D01*
X118756948Y-76757000D02*
X118260000Y-76260052D01*
X123687816Y-76757000D02*
X118756948Y-76757000D01*
X123904500Y-76540316D02*
X123687816Y-76757000D01*
X118340000Y-75900000D02*
X119262500Y-75900000D01*
X123904500Y-75919684D02*
X123904500Y-76540316D01*
X122940000Y-74955184D02*
X123904500Y-75919684D01*
X122940000Y-74330000D02*
X122940000Y-74955184D01*
%TO.N,/BUZ*%
X118621500Y-77084000D02*
X117437500Y-75900000D01*
X143275000Y-90165000D02*
X130194000Y-77084000D01*
X130194000Y-77084000D02*
X118621500Y-77084000D01*
X143275000Y-92122500D02*
X143275000Y-90165000D01*
%TO.N,Net-(D5-K)*%
X121015000Y-88215000D02*
X121640000Y-88840000D01*
X117602500Y-88215000D02*
X121015000Y-88215000D01*
X116607500Y-89210000D02*
X117602500Y-88215000D01*
%TO.N,+5V*%
D40*
X124620000Y-85450000D02*
X122180000Y-85450000D01*
X127750000Y-88580000D02*
X124620000Y-85450000D01*
X127750000Y-91490000D02*
X137990000Y-101730000D01*
X127750000Y-88580000D02*
X127750000Y-91490000D01*
%TO.N,Net-(BZ1-+)*%
D41*
X116190000Y-69480000D02*
X122940000Y-76230000D01*
X116190000Y-67340000D02*
X116190000Y-69480000D01*
%TD*%
%TA.AperFunction,Conductor*%
%TO.N,GND*%
G36*
X168512539Y-61260185D02*
G01*
X168558294Y-61312989D01*
X168569500Y-61364500D01*
X168569500Y-61849121D01*
X168549815Y-61916160D01*
X168497011Y-61961915D01*
X168427853Y-61971859D01*
X168419556Y-61970377D01*
X168417800Y-61970001D01*
X168315016Y-61959500D01*
X167702597Y-61959500D01*
X167673156Y-61950855D01*
X167643170Y-61944332D01*
X167638154Y-61940577D01*
X167635558Y-61939815D01*
X167614916Y-61923181D01*
X167563090Y-61871355D01*
X167563088Y-61871352D01*
X167444217Y-61752481D01*
X167444216Y-61752480D01*
X167357404Y-61702360D01*
X167357404Y-61702359D01*
X167357400Y-61702358D01*
X167307285Y-61673423D01*
X167154557Y-61632499D01*
X166996443Y-61632499D01*
X166988847Y-61632499D01*
X166988831Y-61632500D01*
X162262051Y-61632500D01*
X162103937Y-61632500D01*
X161951209Y-61673423D01*
X161951208Y-61673423D01*
X161951206Y-61673424D01*
X161951203Y-61673425D01*
X161901090Y-61702359D01*
X161901089Y-61702360D01*
X161857683Y-61727420D01*
X161814279Y-61752479D01*
X161814276Y-61752481D01*
X161441784Y-62124974D01*
X161441783Y-62124975D01*
X161387674Y-62179083D01*
X161326351Y-62212567D01*
X161260991Y-62209107D01*
X161112799Y-62160001D01*
X161112795Y-62160000D01*
X161010010Y-62149500D01*
X160384998Y-62149500D01*
X160384980Y-62149501D01*
X160282203Y-62160000D01*
X160282200Y-62160001D01*
X160115668Y-62215185D01*
X160115663Y-62215187D01*
X159966342Y-62307289D01*
X159872681Y-62400951D01*
X159811358Y-62434436D01*
X159741666Y-62429452D01*
X159697319Y-62400951D01*
X159603657Y-62307289D01*
X159603656Y-62307288D01*
X159510888Y-62250069D01*
X159454336Y-62215187D01*
X159454331Y-62215185D01*
X159435989Y-62209107D01*
X159287797Y-62160001D01*
X159287795Y-62160000D01*
X159185010Y-62149500D01*
X158559998Y-62149500D01*
X158559980Y-62149501D01*
X158457203Y-62160000D01*
X158457200Y-62160001D01*
X158290668Y-62215185D01*
X158290663Y-62215187D01*
X158141342Y-62307289D01*
X158017289Y-62431342D01*
X157925187Y-62580663D01*
X157925185Y-62580668D01*
X157916654Y-62606413D01*
X157870001Y-62747203D01*
X157870001Y-62747204D01*
X157870000Y-62747204D01*
X157859500Y-62849983D01*
X157859500Y-63850001D01*
X157859501Y-63850019D01*
X157870000Y-63952796D01*
X157870001Y-63952799D01*
X157893100Y-64022505D01*
X157925186Y-64119334D01*
X158017288Y-64268656D01*
X158141344Y-64392712D01*
X158213096Y-64436968D01*
X158259819Y-64488913D01*
X158271999Y-64542506D01*
X158271999Y-64654054D01*
X158271998Y-64654054D01*
X158271999Y-64654057D01*
X158312923Y-64806785D01*
X158336017Y-64846785D01*
X158391977Y-64943712D01*
X158391981Y-64943717D01*
X158510849Y-65062585D01*
X158510855Y-65062590D01*
X158759719Y-65311454D01*
X158793204Y-65372777D01*
X158795396Y-65411734D01*
X158792001Y-65444974D01*
X158792000Y-65444997D01*
X158792000Y-66045001D01*
X158792001Y-66045019D01*
X158802500Y-66147796D01*
X158802501Y-66147799D01*
X158857685Y-66314331D01*
X158857689Y-66314340D01*
X158898422Y-66380379D01*
X158916862Y-66447772D01*
X158898423Y-66510570D01*
X158858145Y-66575873D01*
X158858141Y-66575880D01*
X158802994Y-66742302D01*
X158802993Y-66742309D01*
X158792500Y-66845013D01*
X158792500Y-66895000D01*
X161292499Y-66895000D01*
X161292499Y-66845028D01*
X161292498Y-66845013D01*
X161282006Y-66742304D01*
X161278043Y-66730345D01*
X161275641Y-66660516D01*
X161311372Y-66600474D01*
X161373893Y-66569281D01*
X161443352Y-66576841D01*
X161483430Y-66603659D01*
X161673181Y-66793410D01*
X161706666Y-66854733D01*
X161709500Y-66881091D01*
X161709500Y-67780234D01*
X161689815Y-67847273D01*
X161688602Y-67849125D01*
X161600609Y-67980814D01*
X161600602Y-67980827D01*
X161540264Y-68126498D01*
X161540261Y-68126510D01*
X161509500Y-68281153D01*
X161509500Y-68438846D01*
X161540261Y-68593489D01*
X161540264Y-68593501D01*
X161600602Y-68739172D01*
X161600609Y-68739185D01*
X161688210Y-68870288D01*
X161688213Y-68870292D01*
X161799707Y-68981786D01*
X161799711Y-68981789D01*
X161930814Y-69069390D01*
X161930827Y-69069397D01*
X161949972Y-69077327D01*
X162004376Y-69121167D01*
X162026441Y-69187461D01*
X162009162Y-69255161D01*
X161990201Y-69279569D01*
X161641590Y-69628181D01*
X161580267Y-69661666D01*
X161553909Y-69664500D01*
X161277298Y-69664500D01*
X161210259Y-69644815D01*
X161171759Y-69605597D01*
X161135212Y-69546344D01*
X161011156Y-69422288D01*
X160861834Y-69330186D01*
X160695297Y-69275001D01*
X160695295Y-69275000D01*
X160592510Y-69264500D01*
X159492498Y-69264500D01*
X159492480Y-69264501D01*
X159389703Y-69275000D01*
X159389700Y-69275001D01*
X159223168Y-69330185D01*
X159223163Y-69330187D01*
X159073842Y-69422289D01*
X158949789Y-69546342D01*
X158857687Y-69695663D01*
X158857686Y-69695666D01*
X158802501Y-69862203D01*
X158802501Y-69862204D01*
X158802500Y-69862204D01*
X158792000Y-69964983D01*
X158792000Y-70565001D01*
X158792001Y-70565019D01*
X158802500Y-70667796D01*
X158802501Y-70667799D01*
X158857685Y-70834331D01*
X158857689Y-70834340D01*
X158898422Y-70900379D01*
X158916862Y-70967772D01*
X158898423Y-71030570D01*
X158858145Y-71095873D01*
X158858141Y-71095880D01*
X158802994Y-71262302D01*
X158802993Y-71262309D01*
X158792500Y-71365013D01*
X158792500Y-71415000D01*
X161292499Y-71415000D01*
X161292499Y-71365028D01*
X161292498Y-71365013D01*
X161282005Y-71262302D01*
X161226858Y-71095880D01*
X161226853Y-71095869D01*
X161201396Y-71054597D01*
X161182955Y-70987205D01*
X161203877Y-70920541D01*
X161257519Y-70875771D01*
X161306934Y-70865500D01*
X161767337Y-70865500D01*
X161767353Y-70865501D01*
X161774949Y-70865501D01*
X161933060Y-70865501D01*
X161933063Y-70865501D01*
X162085791Y-70824577D01*
X162157430Y-70783216D01*
X162179483Y-70770483D01*
X162247381Y-70754011D01*
X162313408Y-70776863D01*
X162348439Y-70815132D01*
X162355067Y-70826432D01*
X162357686Y-70834334D01*
X162398848Y-70901070D01*
X162399547Y-70902261D01*
X162407691Y-70934850D01*
X162416569Y-70967297D01*
X162416153Y-70968711D01*
X162416487Y-70970046D01*
X162411005Y-70986243D01*
X162398130Y-71030094D01*
X162357686Y-71095666D01*
X162302501Y-71262203D01*
X162302501Y-71262204D01*
X162302500Y-71262204D01*
X162292000Y-71364983D01*
X162292000Y-71713618D01*
X162272315Y-71780657D01*
X162222467Y-71825015D01*
X162211680Y-71830288D01*
X162203715Y-71832423D01*
X162187500Y-71841785D01*
X162183812Y-71843913D01*
X162183796Y-71843922D01*
X162066790Y-71911475D01*
X162066782Y-71911481D01*
X161954978Y-72023286D01*
X160230082Y-73748181D01*
X160168759Y-73781666D01*
X160142401Y-73784500D01*
X159492498Y-73784500D01*
X159492480Y-73784501D01*
X159389703Y-73795000D01*
X159389700Y-73795001D01*
X159223168Y-73850185D01*
X159223163Y-73850187D01*
X159073842Y-73942289D01*
X158949789Y-74066342D01*
X158857687Y-74215663D01*
X158857685Y-74215668D01*
X158843569Y-74258269D01*
X158802501Y-74382203D01*
X158802501Y-74382204D01*
X158802500Y-74382204D01*
X158792000Y-74484983D01*
X158792000Y-75085001D01*
X158792001Y-75085019D01*
X158802500Y-75187796D01*
X158802501Y-75187799D01*
X158857685Y-75354331D01*
X158857689Y-75354340D01*
X158898422Y-75420379D01*
X158916862Y-75487772D01*
X158898423Y-75550570D01*
X158858145Y-75615873D01*
X158858141Y-75615880D01*
X158802994Y-75782302D01*
X158802993Y-75782309D01*
X158792500Y-75885013D01*
X158792500Y-75935000D01*
X161292499Y-75935000D01*
X161292499Y-75885028D01*
X161292498Y-75885013D01*
X161282005Y-75782302D01*
X161226858Y-75615880D01*
X161226854Y-75615871D01*
X161186577Y-75550571D01*
X161168137Y-75483179D01*
X161186577Y-75420379D01*
X161227314Y-75354334D01*
X161282499Y-75187797D01*
X161293000Y-75085009D01*
X161292999Y-74484992D01*
X161289602Y-74451737D01*
X161302372Y-74383044D01*
X161325276Y-74351457D01*
X162647916Y-73028819D01*
X162709239Y-72995334D01*
X162735597Y-72992500D01*
X165084770Y-72992500D01*
X165114210Y-73001144D01*
X165144197Y-73007668D01*
X165149212Y-73011422D01*
X165151809Y-73012185D01*
X165172451Y-73028819D01*
X165210951Y-73067319D01*
X165244436Y-73128642D01*
X165239452Y-73198334D01*
X165210951Y-73242681D01*
X165142289Y-73311342D01*
X165050187Y-73460663D01*
X165050185Y-73460668D01*
X165022405Y-73544504D01*
X164982632Y-73601949D01*
X164918116Y-73628772D01*
X164904699Y-73629500D01*
X164184170Y-73629500D01*
X164184154Y-73629499D01*
X164176558Y-73629499D01*
X164018443Y-73629499D01*
X163942079Y-73649961D01*
X163865714Y-73670423D01*
X163865709Y-73670426D01*
X163728791Y-73749475D01*
X163722339Y-73754426D01*
X163721250Y-73753006D01*
X163668745Y-73781669D01*
X163642401Y-73784500D01*
X162992498Y-73784500D01*
X162992480Y-73784501D01*
X162889703Y-73795000D01*
X162889700Y-73795001D01*
X162723168Y-73850185D01*
X162723163Y-73850187D01*
X162573842Y-73942289D01*
X162449789Y-74066342D01*
X162357687Y-74215663D01*
X162357685Y-74215668D01*
X162343569Y-74258269D01*
X162302501Y-74382203D01*
X162302501Y-74382204D01*
X162302500Y-74382204D01*
X162292000Y-74484983D01*
X162292000Y-75085001D01*
X162292001Y-75085019D01*
X162302500Y-75187796D01*
X162302501Y-75187799D01*
X162325389Y-75256868D01*
X162357686Y-75354334D01*
X162398129Y-75419903D01*
X162398130Y-75419905D01*
X162416569Y-75487297D01*
X162398130Y-75550094D01*
X162357686Y-75615666D01*
X162302501Y-75782203D01*
X162302501Y-75782204D01*
X162302500Y-75782204D01*
X162292000Y-75884983D01*
X162292000Y-76485001D01*
X162292001Y-76485019D01*
X162302500Y-76587796D01*
X162302501Y-76587799D01*
X162329520Y-76669336D01*
X162357686Y-76754334D01*
X162449788Y-76903656D01*
X162573844Y-77027712D01*
X162723166Y-77119814D01*
X162889703Y-77174999D01*
X162992491Y-77185500D01*
X163751489Y-77185499D01*
X163783583Y-77189724D01*
X163828576Y-77201780D01*
X163898443Y-77220501D01*
X163898444Y-77220501D01*
X164064153Y-77220501D01*
X164064169Y-77220500D01*
X164904699Y-77220500D01*
X164971738Y-77240185D01*
X165017493Y-77292989D01*
X165022405Y-77305496D01*
X165050185Y-77389331D01*
X165050187Y-77389336D01*
X165146080Y-77544803D01*
X165144628Y-77545698D01*
X165167404Y-77602160D01*
X165154361Y-77670802D01*
X165131679Y-77701951D01*
X165052288Y-77781343D01*
X165052287Y-77781344D01*
X164967631Y-77918596D01*
X164915683Y-77965321D01*
X164862092Y-77977500D01*
X160690442Y-77977500D01*
X160537714Y-78018423D01*
X160514066Y-78032077D01*
X160514065Y-78032077D01*
X160400787Y-78097477D01*
X160400782Y-78097481D01*
X160288978Y-78209286D01*
X160288977Y-78209287D01*
X160230081Y-78268182D01*
X160168758Y-78301666D01*
X160142401Y-78304500D01*
X159492498Y-78304500D01*
X159492480Y-78304501D01*
X159389703Y-78315000D01*
X159389700Y-78315001D01*
X159223168Y-78370185D01*
X159223163Y-78370187D01*
X159073842Y-78462289D01*
X158949789Y-78586342D01*
X158857687Y-78735663D01*
X158857685Y-78735668D01*
X158847959Y-78765019D01*
X158802501Y-78902203D01*
X158802501Y-78902204D01*
X158802500Y-78902204D01*
X158792000Y-79004983D01*
X158792000Y-79605001D01*
X158792001Y-79605019D01*
X158802500Y-79707796D01*
X158802501Y-79707799D01*
X158857685Y-79874331D01*
X158857689Y-79874340D01*
X158898422Y-79940379D01*
X158916862Y-80007772D01*
X158898423Y-80070570D01*
X158858145Y-80135873D01*
X158858141Y-80135880D01*
X158802994Y-80302302D01*
X158802993Y-80302309D01*
X158792500Y-80405013D01*
X158792500Y-80455000D01*
X161292499Y-80455000D01*
X161292499Y-80405028D01*
X161292498Y-80405013D01*
X161282005Y-80302302D01*
X161226858Y-80135880D01*
X161226854Y-80135871D01*
X161186577Y-80070571D01*
X161168137Y-80003179D01*
X161186577Y-79940379D01*
X161227314Y-79874334D01*
X161282499Y-79707797D01*
X161293000Y-79605009D01*
X161292999Y-79302499D01*
X161295549Y-79293813D01*
X161294261Y-79284853D01*
X161305238Y-79260816D01*
X161312683Y-79235461D01*
X161319525Y-79229532D01*
X161323286Y-79221297D01*
X161345517Y-79207010D01*
X161365487Y-79189706D01*
X161376002Y-79187418D01*
X161382064Y-79183523D01*
X161416999Y-79178500D01*
X161441000Y-79178500D01*
X161508039Y-79198185D01*
X161553794Y-79250989D01*
X161565000Y-79302500D01*
X161565000Y-79368846D01*
X161595761Y-79523489D01*
X161595764Y-79523501D01*
X161656102Y-79669172D01*
X161656109Y-79669185D01*
X161743710Y-79800288D01*
X161743713Y-79800292D01*
X161855207Y-79911786D01*
X161855211Y-79911789D01*
X161933454Y-79964070D01*
X161978259Y-80017682D01*
X161986966Y-80087007D01*
X161984340Y-80099256D01*
X161964999Y-80171437D01*
X161964999Y-80171439D01*
X161964999Y-80339540D01*
X161965000Y-80339553D01*
X161965000Y-81072836D01*
X161964999Y-81072854D01*
X161964999Y-81238560D01*
X161964998Y-81238560D01*
X162005923Y-81391291D01*
X162034858Y-81441406D01*
X162034859Y-81441410D01*
X162034860Y-81441410D01*
X162084979Y-81528220D01*
X162084981Y-81528223D01*
X162214220Y-81657462D01*
X162214225Y-81657466D01*
X162469278Y-81912520D01*
X162469280Y-81912521D01*
X162469284Y-81912524D01*
X162606203Y-81991573D01*
X162606210Y-81991577D01*
X162758937Y-82032501D01*
X162758939Y-82032501D01*
X162815500Y-82032501D01*
X162882539Y-82052186D01*
X162928294Y-82104990D01*
X162939500Y-82156501D01*
X162939500Y-90512872D01*
X162919815Y-90579911D01*
X162867011Y-90625666D01*
X162797853Y-90635610D01*
X162791309Y-90634489D01*
X162761200Y-90628500D01*
X162761196Y-90628500D01*
X162603512Y-90628500D01*
X162603509Y-90628500D01*
X162448864Y-90659261D01*
X162448852Y-90659264D01*
X162303181Y-90719602D01*
X162303168Y-90719609D01*
X162171479Y-90807602D01*
X162104801Y-90828480D01*
X162102588Y-90828500D01*
X157039766Y-90828500D01*
X156972727Y-90808815D01*
X156970875Y-90807602D01*
X156839185Y-90719609D01*
X156839172Y-90719602D01*
X156693501Y-90659264D01*
X156693489Y-90659261D01*
X156538845Y-90628500D01*
X156538842Y-90628500D01*
X156381158Y-90628500D01*
X156381155Y-90628500D01*
X156226510Y-90659261D01*
X156226498Y-90659264D01*
X156080827Y-90719602D01*
X156080814Y-90719609D01*
X155949711Y-90807210D01*
X155949707Y-90807213D01*
X155838213Y-90918707D01*
X155838210Y-90918711D01*
X155750609Y-91049814D01*
X155750602Y-91049827D01*
X155690264Y-91195498D01*
X155690261Y-91195508D01*
X155678290Y-91255692D01*
X155645905Y-91317603D01*
X155585189Y-91352177D01*
X155556673Y-91355500D01*
X148221452Y-91355500D01*
X148154413Y-91335815D01*
X148133771Y-91319181D01*
X147294573Y-90479983D01*
X147261088Y-90418660D01*
X147260637Y-90416493D01*
X147259445Y-90410499D01*
X147229737Y-90261149D01*
X147226242Y-90252712D01*
X147169397Y-90115473D01*
X147169390Y-90115460D01*
X147081789Y-89984357D01*
X147081786Y-89984353D01*
X146970292Y-89872859D01*
X146970288Y-89872856D01*
X146839185Y-89785255D01*
X146839172Y-89785248D01*
X146693501Y-89724910D01*
X146693489Y-89724907D01*
X146538845Y-89694146D01*
X146538842Y-89694146D01*
X146381158Y-89694146D01*
X146381155Y-89694146D01*
X146226510Y-89724907D01*
X146226498Y-89724910D01*
X146080827Y-89785248D01*
X146080814Y-89785255D01*
X145949711Y-89872856D01*
X145949707Y-89872859D01*
X145838213Y-89984353D01*
X145838210Y-89984357D01*
X145750609Y-90115460D01*
X145750602Y-90115473D01*
X145690264Y-90261144D01*
X145690261Y-90261156D01*
X145659500Y-90415799D01*
X145659500Y-90573492D01*
X145690261Y-90728135D01*
X145690264Y-90728147D01*
X145750602Y-90873818D01*
X145750609Y-90873831D01*
X145829306Y-90991609D01*
X145830385Y-90995056D01*
X145833023Y-90997526D01*
X145840748Y-91028153D01*
X145850184Y-91058287D01*
X145849228Y-91061770D01*
X145850112Y-91065273D01*
X145840054Y-91095209D01*
X145831699Y-91125667D01*
X145829011Y-91128081D01*
X145827861Y-91131505D01*
X145803215Y-91151252D01*
X145779720Y-91172357D01*
X145775327Y-91173597D01*
X145773335Y-91175194D01*
X145761171Y-91177595D01*
X145739113Y-91183826D01*
X145732667Y-91184500D01*
X145675600Y-91184501D01*
X145565528Y-91198991D01*
X145555820Y-91203012D01*
X145537908Y-91204887D01*
X145520475Y-91201691D01*
X145502853Y-91203567D01*
X145492477Y-91200518D01*
X145492323Y-91201095D01*
X145484470Y-91198990D01*
X145374401Y-91184500D01*
X145175596Y-91184500D01*
X145065531Y-91198989D01*
X145057678Y-91201094D01*
X145056802Y-91197824D01*
X145002853Y-91203567D01*
X144998120Y-91202613D01*
X144987550Y-91200265D01*
X144984472Y-91198991D01*
X144977928Y-91198129D01*
X144972621Y-91196951D01*
X144946594Y-91182593D01*
X144919410Y-91170565D01*
X144916333Y-91165900D01*
X144911442Y-91163202D01*
X144897307Y-91137050D01*
X144880944Y-91112237D01*
X144879811Y-91104677D01*
X144878221Y-91101735D01*
X144878607Y-91096640D01*
X144875500Y-91075899D01*
X144875500Y-85971372D01*
X153179500Y-85971372D01*
X153179500Y-86233627D01*
X153198600Y-86378695D01*
X153213730Y-86493616D01*
X153281602Y-86746918D01*
X153281605Y-86746928D01*
X153381953Y-86989190D01*
X153381958Y-86989200D01*
X153513075Y-87216303D01*
X153672718Y-87424351D01*
X153672726Y-87424360D01*
X153858140Y-87609774D01*
X153858148Y-87609781D01*
X153858149Y-87609782D01*
X153900557Y-87642323D01*
X154066196Y-87769424D01*
X154293299Y-87900541D01*
X154293309Y-87900546D01*
X154535571Y-88000894D01*
X154535581Y-88000898D01*
X154788884Y-88068770D01*
X155048880Y-88103000D01*
X155048887Y-88103000D01*
X155311113Y-88103000D01*
X155311120Y-88103000D01*
X155571116Y-88068770D01*
X155824419Y-88000898D01*
X156066697Y-87900543D01*
X156293803Y-87769424D01*
X156501851Y-87609782D01*
X156501855Y-87609777D01*
X156501860Y-87609774D01*
X156687274Y-87424360D01*
X156687277Y-87424355D01*
X156687282Y-87424351D01*
X156846924Y-87216303D01*
X156978043Y-86989197D01*
X156995274Y-86947599D01*
X157027683Y-86869356D01*
X157078398Y-86746919D01*
X157146270Y-86493616D01*
X157180500Y-86233620D01*
X157180500Y-85971380D01*
X157146270Y-85711384D01*
X157078398Y-85458081D01*
X157078394Y-85458071D01*
X156978046Y-85215809D01*
X156978041Y-85215799D01*
X156846924Y-84988696D01*
X156687281Y-84780648D01*
X156687274Y-84780640D01*
X156501860Y-84595226D01*
X156501851Y-84595218D01*
X156293803Y-84435575D01*
X156066700Y-84304458D01*
X156066690Y-84304453D01*
X155824428Y-84204105D01*
X155824421Y-84204103D01*
X155824419Y-84204102D01*
X155571116Y-84136230D01*
X155513339Y-84128623D01*
X155311127Y-84102000D01*
X155311120Y-84102000D01*
X155048880Y-84102000D01*
X155048872Y-84102000D01*
X154817772Y-84132426D01*
X154788884Y-84136230D01*
X154542396Y-84202276D01*
X154535581Y-84204102D01*
X154535571Y-84204105D01*
X154293309Y-84304453D01*
X154293299Y-84304458D01*
X154066196Y-84435575D01*
X153858148Y-84595218D01*
X153672718Y-84780648D01*
X153513075Y-84988696D01*
X153381958Y-85215799D01*
X153381953Y-85215809D01*
X153281605Y-85458071D01*
X153281602Y-85458081D01*
X153216781Y-85700000D01*
X153213730Y-85711385D01*
X153179500Y-85971372D01*
X144875500Y-85971372D01*
X144875500Y-81004986D01*
X158792501Y-81004986D01*
X158802994Y-81107697D01*
X158858141Y-81274119D01*
X158858143Y-81274124D01*
X158950184Y-81423345D01*
X159074154Y-81547315D01*
X159223375Y-81639356D01*
X159223380Y-81639358D01*
X159389802Y-81694505D01*
X159389809Y-81694506D01*
X159492519Y-81704999D01*
X159792499Y-81704999D01*
X160292500Y-81704999D01*
X160592472Y-81704999D01*
X160592486Y-81704998D01*
X160695197Y-81694505D01*
X160861619Y-81639358D01*
X160861624Y-81639356D01*
X161010845Y-81547315D01*
X161134815Y-81423345D01*
X161226856Y-81274124D01*
X161226858Y-81274119D01*
X161282005Y-81107697D01*
X161282006Y-81107690D01*
X161292499Y-81004986D01*
X161292500Y-81004973D01*
X161292500Y-80955000D01*
X160292500Y-80955000D01*
X160292500Y-81704999D01*
X159792499Y-81704999D01*
X159792500Y-81704998D01*
X159792500Y-80955000D01*
X158792501Y-80955000D01*
X158792501Y-81004986D01*
X144875500Y-81004986D01*
X144875500Y-76484986D01*
X158792501Y-76484986D01*
X158802994Y-76587697D01*
X158858141Y-76754119D01*
X158858143Y-76754124D01*
X158950184Y-76903345D01*
X159074154Y-77027315D01*
X159223375Y-77119356D01*
X159223380Y-77119358D01*
X159389802Y-77174505D01*
X159389809Y-77174506D01*
X159492519Y-77184999D01*
X159792499Y-77184999D01*
X160292500Y-77184999D01*
X160592472Y-77184999D01*
X160592486Y-77184998D01*
X160695197Y-77174505D01*
X160861619Y-77119358D01*
X160861624Y-77119356D01*
X161010845Y-77027315D01*
X161134815Y-76903345D01*
X161226856Y-76754124D01*
X161226858Y-76754119D01*
X161282005Y-76587697D01*
X161282006Y-76587690D01*
X161292499Y-76484986D01*
X161292500Y-76484973D01*
X161292500Y-76435000D01*
X160292500Y-76435000D01*
X160292500Y-77184999D01*
X159792499Y-77184999D01*
X159792500Y-77184998D01*
X159792500Y-76435000D01*
X158792501Y-76435000D01*
X158792501Y-76484986D01*
X144875500Y-76484986D01*
X144875500Y-71964986D01*
X158792501Y-71964986D01*
X158802994Y-72067697D01*
X158858141Y-72234119D01*
X158858143Y-72234124D01*
X158950184Y-72383345D01*
X159074154Y-72507315D01*
X159223375Y-72599356D01*
X159223380Y-72599358D01*
X159389802Y-72654505D01*
X159389809Y-72654506D01*
X159492519Y-72664999D01*
X159792499Y-72664999D01*
X160292500Y-72664999D01*
X160592472Y-72664999D01*
X160592486Y-72664998D01*
X160695197Y-72654505D01*
X160861619Y-72599358D01*
X160861624Y-72599356D01*
X161010845Y-72507315D01*
X161134815Y-72383345D01*
X161226856Y-72234124D01*
X161226858Y-72234119D01*
X161282005Y-72067697D01*
X161282006Y-72067690D01*
X161292499Y-71964986D01*
X161292500Y-71964973D01*
X161292500Y-71915000D01*
X160292500Y-71915000D01*
X160292500Y-72664999D01*
X159792499Y-72664999D01*
X159792500Y-72664998D01*
X159792500Y-71915000D01*
X158792501Y-71915000D01*
X158792501Y-71964986D01*
X144875500Y-71964986D01*
X144875500Y-70935945D01*
X144875500Y-70935943D01*
X144850036Y-70840909D01*
X144834577Y-70783215D01*
X144774244Y-70678716D01*
X144755520Y-70646284D01*
X144643716Y-70534480D01*
X144643713Y-70534478D01*
X143581916Y-69472681D01*
X143548431Y-69411358D01*
X143553415Y-69341666D01*
X143581916Y-69297319D01*
X145434249Y-67444986D01*
X158792501Y-67444986D01*
X158802994Y-67547697D01*
X158858141Y-67714119D01*
X158858143Y-67714124D01*
X158950184Y-67863345D01*
X159074154Y-67987315D01*
X159223375Y-68079356D01*
X159223380Y-68079358D01*
X159389802Y-68134505D01*
X159389809Y-68134506D01*
X159492519Y-68144999D01*
X159792499Y-68144999D01*
X160292500Y-68144999D01*
X160592472Y-68144999D01*
X160592486Y-68144998D01*
X160695197Y-68134505D01*
X160861619Y-68079358D01*
X160861624Y-68079356D01*
X161010845Y-67987315D01*
X161134815Y-67863345D01*
X161226856Y-67714124D01*
X161226858Y-67714119D01*
X161282005Y-67547697D01*
X161282006Y-67547690D01*
X161292499Y-67444986D01*
X161292500Y-67444973D01*
X161292500Y-67395000D01*
X160292500Y-67395000D01*
X160292500Y-68144999D01*
X159792499Y-68144999D01*
X159792500Y-68144998D01*
X159792500Y-67395000D01*
X158792501Y-67395000D01*
X158792501Y-67444986D01*
X145434249Y-67444986D01*
X147985916Y-64893319D01*
X148047239Y-64859834D01*
X148073597Y-64857000D01*
X148088736Y-64857000D01*
X148283763Y-64826110D01*
X148286108Y-64825348D01*
X148471561Y-64765091D01*
X148647501Y-64675444D01*
X148753288Y-64598586D01*
X148807246Y-64559384D01*
X148807248Y-64559381D01*
X148807252Y-64559379D01*
X148946879Y-64419752D01*
X148946881Y-64419748D01*
X148946884Y-64419746D01*
X149022554Y-64315593D01*
X149062944Y-64260001D01*
X149152591Y-64084061D01*
X149189206Y-63971372D01*
X153179500Y-63971372D01*
X153179500Y-64233627D01*
X153201977Y-64404344D01*
X153213730Y-64493616D01*
X153276461Y-64727733D01*
X153281602Y-64746918D01*
X153281605Y-64746928D01*
X153381953Y-64989190D01*
X153381958Y-64989200D01*
X153513075Y-65216303D01*
X153672718Y-65424351D01*
X153672726Y-65424360D01*
X153858140Y-65609774D01*
X153858148Y-65609781D01*
X154066196Y-65769424D01*
X154293299Y-65900541D01*
X154293309Y-65900546D01*
X154535571Y-66000894D01*
X154535581Y-66000898D01*
X154788884Y-66068770D01*
X155048880Y-66103000D01*
X155048887Y-66103000D01*
X155311113Y-66103000D01*
X155311120Y-66103000D01*
X155571116Y-66068770D01*
X155824419Y-66000898D01*
X156066697Y-65900543D01*
X156293803Y-65769424D01*
X156501851Y-65609782D01*
X156501855Y-65609777D01*
X156501860Y-65609774D01*
X156687274Y-65424360D01*
X156687277Y-65424355D01*
X156687282Y-65424351D01*
X156846924Y-65216303D01*
X156978043Y-64989197D01*
X157078398Y-64746919D01*
X157146270Y-64493616D01*
X157180500Y-64233620D01*
X157180500Y-63971380D01*
X157146270Y-63711384D01*
X157078398Y-63458081D01*
X157016538Y-63308737D01*
X156978046Y-63215809D01*
X156978041Y-63215799D01*
X156846924Y-62988696D01*
X156687281Y-62780648D01*
X156687274Y-62780640D01*
X156501860Y-62595226D01*
X156501851Y-62595218D01*
X156293803Y-62435575D01*
X156066700Y-62304458D01*
X156066690Y-62304453D01*
X155824428Y-62204105D01*
X155824421Y-62204103D01*
X155824419Y-62204102D01*
X155571116Y-62136230D01*
X155513339Y-62128623D01*
X155311127Y-62102000D01*
X155311120Y-62102000D01*
X155048880Y-62102000D01*
X155048872Y-62102000D01*
X154817772Y-62132426D01*
X154788884Y-62136230D01*
X154628954Y-62179083D01*
X154535581Y-62204102D01*
X154535571Y-62204105D01*
X154293309Y-62304453D01*
X154293299Y-62304458D01*
X154066196Y-62435575D01*
X153858148Y-62595218D01*
X153672718Y-62780648D01*
X153513075Y-62988696D01*
X153381958Y-63215799D01*
X153381953Y-63215809D01*
X153281605Y-63458071D01*
X153281602Y-63458081D01*
X153216451Y-63701231D01*
X153213730Y-63711385D01*
X153179500Y-63971372D01*
X149189206Y-63971372D01*
X149213610Y-63896263D01*
X149226113Y-63817323D01*
X149244500Y-63701236D01*
X149244500Y-63503763D01*
X149213610Y-63308736D01*
X149157671Y-63136575D01*
X149152591Y-63120939D01*
X149062944Y-62944999D01*
X149051681Y-62929497D01*
X148946884Y-62785253D01*
X148807246Y-62645615D01*
X148647504Y-62529558D01*
X148647503Y-62529557D01*
X148647501Y-62529556D01*
X148471561Y-62439909D01*
X148471558Y-62439908D01*
X148283763Y-62378889D01*
X148088736Y-62348000D01*
X148088731Y-62348000D01*
X147891269Y-62348000D01*
X147891264Y-62348000D01*
X147696236Y-62378889D01*
X147508441Y-62439908D01*
X147332495Y-62529558D01*
X147172753Y-62645615D01*
X147033115Y-62785253D01*
X146917058Y-62944995D01*
X146917056Y-62944999D01*
X146836805Y-63102500D01*
X146830485Y-63114903D01*
X146782510Y-63165699D01*
X146714689Y-63182494D01*
X146648554Y-63159956D01*
X146609515Y-63114903D01*
X146522944Y-62944999D01*
X146511681Y-62929497D01*
X146406884Y-62785253D01*
X146267246Y-62645615D01*
X146107504Y-62529558D01*
X146107503Y-62529557D01*
X146107501Y-62529556D01*
X145931561Y-62439909D01*
X145931558Y-62439908D01*
X145743763Y-62378889D01*
X145548736Y-62348000D01*
X145548731Y-62348000D01*
X145351269Y-62348000D01*
X145351264Y-62348000D01*
X145156236Y-62378889D01*
X144968441Y-62439908D01*
X144792495Y-62529558D01*
X144632753Y-62645615D01*
X144493115Y-62785253D01*
X144377058Y-62944995D01*
X144377056Y-62944999D01*
X144296805Y-63102500D01*
X144290485Y-63114903D01*
X144242510Y-63165699D01*
X144174689Y-63182494D01*
X144108554Y-63159956D01*
X144069515Y-63114903D01*
X143982944Y-62944999D01*
X143971681Y-62929497D01*
X143866884Y-62785253D01*
X143727246Y-62645615D01*
X143567504Y-62529558D01*
X143567503Y-62529557D01*
X143567501Y-62529556D01*
X143391561Y-62439909D01*
X143391558Y-62439908D01*
X143203763Y-62378889D01*
X143008736Y-62348000D01*
X143008731Y-62348000D01*
X142811269Y-62348000D01*
X142811264Y-62348000D01*
X142616236Y-62378889D01*
X142428441Y-62439908D01*
X142252495Y-62529558D01*
X142092753Y-62645615D01*
X141953115Y-62785253D01*
X141848318Y-62929497D01*
X141792989Y-62972163D01*
X141723375Y-62978142D01*
X141661580Y-62945537D01*
X141627223Y-62884698D01*
X141624000Y-62856612D01*
X141624000Y-62800672D01*
X141623999Y-62800655D01*
X141617598Y-62741127D01*
X141617596Y-62741120D01*
X141567354Y-62606413D01*
X141567350Y-62606406D01*
X141481190Y-62491312D01*
X141481187Y-62491309D01*
X141366093Y-62405149D01*
X141366086Y-62405145D01*
X141231379Y-62354903D01*
X141231372Y-62354901D01*
X141171844Y-62348500D01*
X140620000Y-62348500D01*
X140620000Y-63169488D01*
X140562993Y-63136575D01*
X140435826Y-63102500D01*
X140304174Y-63102500D01*
X140177007Y-63136575D01*
X140120000Y-63169488D01*
X140120000Y-62348500D01*
X139568155Y-62348500D01*
X139508627Y-62354901D01*
X139508620Y-62354903D01*
X139373913Y-62405145D01*
X139373906Y-62405149D01*
X139258812Y-62491309D01*
X139258809Y-62491312D01*
X139172649Y-62606406D01*
X139172645Y-62606413D01*
X139122403Y-62741120D01*
X139122401Y-62741127D01*
X139116000Y-62800655D01*
X139116000Y-63352500D01*
X139936988Y-63352500D01*
X139904075Y-63409507D01*
X139870000Y-63536674D01*
X139870000Y-63668326D01*
X139904075Y-63795493D01*
X139936988Y-63852500D01*
X139116000Y-63852500D01*
X139116000Y-64404344D01*
X139122401Y-64463872D01*
X139122403Y-64463879D01*
X139172645Y-64598586D01*
X139172649Y-64598593D01*
X139258809Y-64713687D01*
X139258812Y-64713690D01*
X139373906Y-64799850D01*
X139373913Y-64799854D01*
X139508620Y-64850096D01*
X139508627Y-64850098D01*
X139568155Y-64856499D01*
X139568172Y-64856500D01*
X140120000Y-64856500D01*
X140120000Y-64035512D01*
X140177007Y-64068425D01*
X140304174Y-64102500D01*
X140435826Y-64102500D01*
X140562993Y-64068425D01*
X140620000Y-64035512D01*
X140620000Y-64856500D01*
X141171828Y-64856500D01*
X141171844Y-64856499D01*
X141231372Y-64850098D01*
X141231379Y-64850096D01*
X141366086Y-64799854D01*
X141366093Y-64799850D01*
X141481187Y-64713690D01*
X141481190Y-64713687D01*
X141567350Y-64598593D01*
X141567354Y-64598586D01*
X141617596Y-64463879D01*
X141617598Y-64463872D01*
X141623999Y-64404344D01*
X141624000Y-64404327D01*
X141624000Y-64348387D01*
X141643685Y-64281348D01*
X141696489Y-64235593D01*
X141765647Y-64225649D01*
X141829203Y-64254674D01*
X141848314Y-64275497D01*
X141935001Y-64394812D01*
X141953121Y-64419752D01*
X142092753Y-64559384D01*
X142223058Y-64654054D01*
X142252499Y-64675444D01*
X142428439Y-64765091D01*
X142535417Y-64799850D01*
X142616236Y-64826110D01*
X142811264Y-64857000D01*
X142811269Y-64857000D01*
X143008733Y-64857000D01*
X143019315Y-64855323D01*
X143032848Y-64853180D01*
X143102141Y-64862133D01*
X143155594Y-64907128D01*
X143176235Y-64973879D01*
X143157512Y-65041193D01*
X143139929Y-65063334D01*
X140244839Y-67958425D01*
X140183516Y-67991910D01*
X140181350Y-67992361D01*
X140026008Y-68023261D01*
X140025998Y-68023264D01*
X139880327Y-68083602D01*
X139880314Y-68083609D01*
X139748625Y-68171602D01*
X139681947Y-68192480D01*
X139679734Y-68192500D01*
X128558669Y-68192500D01*
X128558653Y-68192499D01*
X128551057Y-68192499D01*
X128392943Y-68192499D01*
X128285587Y-68221265D01*
X128240210Y-68233424D01*
X128240209Y-68233425D01*
X128190096Y-68262359D01*
X128190095Y-68262360D01*
X128157536Y-68281158D01*
X128103285Y-68312479D01*
X128103282Y-68312481D01*
X127991478Y-68424286D01*
X127991477Y-68424287D01*
X127932581Y-68483182D01*
X127871258Y-68516666D01*
X127844901Y-68519500D01*
X127232498Y-68519500D01*
X127232480Y-68519501D01*
X127129703Y-68530000D01*
X127129700Y-68530001D01*
X126963168Y-68585185D01*
X126963163Y-68585187D01*
X126813842Y-68677289D01*
X126689789Y-68801342D01*
X126597687Y-68950663D01*
X126597686Y-68950666D01*
X126542501Y-69117203D01*
X126542501Y-69117204D01*
X126542500Y-69117204D01*
X126532000Y-69219983D01*
X126532000Y-70220001D01*
X126532001Y-70220019D01*
X126542500Y-70322796D01*
X126542501Y-70322799D01*
X126597685Y-70489331D01*
X126597686Y-70489334D01*
X126689788Y-70638656D01*
X126813844Y-70762712D01*
X126885596Y-70806968D01*
X126892419Y-70814554D01*
X126901703Y-70818794D01*
X126915390Y-70840092D01*
X126932321Y-70858915D01*
X126934965Y-70870551D01*
X126939477Y-70877572D01*
X126944500Y-70912507D01*
X126944500Y-70943467D01*
X126924815Y-71010506D01*
X126919767Y-71017778D01*
X126863704Y-71092668D01*
X126863702Y-71092671D01*
X126813410Y-71227513D01*
X126813409Y-71227517D01*
X126807000Y-71287127D01*
X126807000Y-71287134D01*
X126807000Y-71287135D01*
X126807000Y-71932870D01*
X126807001Y-71932876D01*
X126813408Y-71992483D01*
X126863702Y-72127328D01*
X126863704Y-72127331D01*
X126917767Y-72199549D01*
X126942184Y-72265011D01*
X126942500Y-72273859D01*
X126942500Y-72510000D01*
X128057499Y-72510000D01*
X128059842Y-72507657D01*
X128121164Y-72474171D01*
X128171715Y-72473720D01*
X128271153Y-72493499D01*
X128271156Y-72493500D01*
X128433500Y-72493500D01*
X128442185Y-72496050D01*
X128451147Y-72494762D01*
X128475187Y-72505740D01*
X128500539Y-72513185D01*
X128506466Y-72520025D01*
X128514703Y-72523787D01*
X128528992Y-72546021D01*
X128546294Y-72565989D01*
X128548581Y-72576503D01*
X128552477Y-72582565D01*
X128557500Y-72617500D01*
X128557500Y-72636000D01*
X128537815Y-72703039D01*
X128485011Y-72748794D01*
X128433500Y-72760000D01*
X128307500Y-72760000D01*
X128307500Y-72886000D01*
X128287815Y-72953039D01*
X128235011Y-72998794D01*
X128183500Y-73010000D01*
X126942500Y-73010000D01*
X126942500Y-73085002D01*
X126945393Y-73138989D01*
X126945394Y-73138992D01*
X126958236Y-73189305D01*
X126957164Y-73219292D01*
X126958576Y-73249272D01*
X126955890Y-73254967D01*
X126955742Y-73259130D01*
X126945441Y-73282030D01*
X126941754Y-73288407D01*
X126863704Y-73392669D01*
X126831375Y-73479345D01*
X126826175Y-73488341D01*
X126824704Y-73489741D01*
X126821926Y-73495171D01*
X126798107Y-73530819D01*
X126798102Y-73530828D01*
X126737764Y-73676498D01*
X126737761Y-73676508D01*
X126706862Y-73831848D01*
X126674477Y-73893759D01*
X126672926Y-73895337D01*
X126177464Y-74390800D01*
X126065659Y-74502604D01*
X126065657Y-74502607D01*
X126026400Y-74570604D01*
X126026399Y-74570605D01*
X126010807Y-74597611D01*
X125960240Y-74645827D01*
X125891633Y-74659049D01*
X125826768Y-74633081D01*
X125815739Y-74623292D01*
X125804370Y-74611923D01*
X125804362Y-74611917D01*
X125662896Y-74528255D01*
X125662893Y-74528254D01*
X125505073Y-74482402D01*
X125505067Y-74482401D01*
X125468201Y-74479500D01*
X125468194Y-74479500D01*
X124302000Y-74479500D01*
X124234961Y-74459815D01*
X124189206Y-74407011D01*
X124178000Y-74355500D01*
X124178000Y-74114313D01*
X124177999Y-74114298D01*
X124177668Y-74110097D01*
X124175098Y-74077431D01*
X124171876Y-74066342D01*
X124135835Y-73942288D01*
X124129244Y-73919602D01*
X124045581Y-73778135D01*
X124045579Y-73778133D01*
X124045576Y-73778129D01*
X123929370Y-73661923D01*
X123929362Y-73661917D01*
X123787896Y-73578255D01*
X123787893Y-73578254D01*
X123630073Y-73532402D01*
X123630067Y-73532401D01*
X123593201Y-73529500D01*
X123593194Y-73529500D01*
X122286806Y-73529500D01*
X122286798Y-73529500D01*
X122249932Y-73532401D01*
X122249926Y-73532402D01*
X122092106Y-73578254D01*
X122092103Y-73578255D01*
X121950637Y-73661917D01*
X121950629Y-73661923D01*
X121834423Y-73778129D01*
X121834416Y-73778138D01*
X121783635Y-73864005D01*
X121732565Y-73911689D01*
X121663824Y-73924192D01*
X121599235Y-73897546D01*
X121589222Y-73888565D01*
X116926819Y-69226162D01*
X116912115Y-69199234D01*
X116895523Y-69173416D01*
X116894631Y-69167215D01*
X116893334Y-69164839D01*
X116890500Y-69138481D01*
X116890500Y-68964499D01*
X116910185Y-68897460D01*
X116962989Y-68851705D01*
X117014500Y-68840499D01*
X117237871Y-68840499D01*
X117237872Y-68840499D01*
X117297483Y-68834091D01*
X117432331Y-68783796D01*
X117547546Y-68697546D01*
X117633796Y-68582331D01*
X117684091Y-68447483D01*
X117690500Y-68387873D01*
X117690499Y-67221947D01*
X122290000Y-67221947D01*
X122290000Y-67458052D01*
X122326934Y-67691247D01*
X122399897Y-67915802D01*
X122507087Y-68126174D01*
X122567338Y-68209104D01*
X122567340Y-68209105D01*
X123307037Y-67469408D01*
X123324075Y-67532993D01*
X123389901Y-67647007D01*
X123482993Y-67740099D01*
X123597007Y-67805925D01*
X123660590Y-67822962D01*
X122920893Y-68562658D01*
X123003828Y-68622914D01*
X123214197Y-68730102D01*
X123438752Y-68803065D01*
X123438751Y-68803065D01*
X123671948Y-68840000D01*
X123908052Y-68840000D01*
X124141247Y-68803065D01*
X124365802Y-68730102D01*
X124576163Y-68622918D01*
X124576169Y-68622914D01*
X124659104Y-68562658D01*
X124659105Y-68562658D01*
X123919408Y-67822962D01*
X123982993Y-67805925D01*
X124097007Y-67740099D01*
X124190099Y-67647007D01*
X124255925Y-67532993D01*
X124272962Y-67469409D01*
X125012658Y-68209105D01*
X125012658Y-68209104D01*
X125072914Y-68126169D01*
X125072918Y-68126163D01*
X125180102Y-67915802D01*
X125253065Y-67691247D01*
X125290000Y-67458052D01*
X125290000Y-67221947D01*
X125253065Y-66988752D01*
X125180102Y-66764197D01*
X125072914Y-66553828D01*
X125012658Y-66470894D01*
X125012658Y-66470893D01*
X124272962Y-67210590D01*
X124255925Y-67147007D01*
X124190099Y-67032993D01*
X124097007Y-66939901D01*
X123982993Y-66874075D01*
X123919409Y-66857037D01*
X124659105Y-66117340D01*
X124659104Y-66117338D01*
X124576174Y-66057087D01*
X124365802Y-65949897D01*
X124141247Y-65876934D01*
X124141248Y-65876934D01*
X123908052Y-65840000D01*
X123671948Y-65840000D01*
X123438752Y-65876934D01*
X123214197Y-65949897D01*
X123003830Y-66057084D01*
X122920894Y-66117340D01*
X123660591Y-66857037D01*
X123597007Y-66874075D01*
X123482993Y-66939901D01*
X123389901Y-67032993D01*
X123324075Y-67147007D01*
X123307037Y-67210591D01*
X122567340Y-66470894D01*
X122507084Y-66553830D01*
X122399897Y-66764197D01*
X122326934Y-66988752D01*
X122290000Y-67221947D01*
X117690499Y-67221947D01*
X117690499Y-66292128D01*
X117684091Y-66232517D01*
X117684090Y-66232514D01*
X117674922Y-66207931D01*
X117633797Y-66097671D01*
X117633793Y-66097664D01*
X117547547Y-65982455D01*
X117547544Y-65982452D01*
X117432335Y-65896206D01*
X117432328Y-65896202D01*
X117297482Y-65845908D01*
X117297483Y-65845908D01*
X117237883Y-65839501D01*
X117237881Y-65839500D01*
X117237873Y-65839500D01*
X117237864Y-65839500D01*
X115142129Y-65839500D01*
X115142123Y-65839501D01*
X115082516Y-65845908D01*
X114947671Y-65896202D01*
X114947664Y-65896206D01*
X114832455Y-65982452D01*
X114832452Y-65982455D01*
X114746206Y-66097664D01*
X114746202Y-66097671D01*
X114695908Y-66232517D01*
X114689501Y-66292116D01*
X114689501Y-66292123D01*
X114689500Y-66292135D01*
X114689500Y-68387870D01*
X114689501Y-68387876D01*
X114695908Y-68447483D01*
X114746202Y-68582328D01*
X114746206Y-68582335D01*
X114832452Y-68697544D01*
X114832455Y-68697547D01*
X114947664Y-68783793D01*
X114947671Y-68783797D01*
X114992618Y-68800561D01*
X115082517Y-68834091D01*
X115142127Y-68840500D01*
X115365500Y-68840499D01*
X115432539Y-68860183D01*
X115478294Y-68912987D01*
X115489500Y-68964499D01*
X115489500Y-69411006D01*
X115489500Y-69548994D01*
X115489500Y-69548996D01*
X115489499Y-69548996D01*
X115516418Y-69684322D01*
X115516421Y-69684332D01*
X115569222Y-69811807D01*
X115645887Y-69926545D01*
X115645888Y-69926546D01*
X121664162Y-75944819D01*
X121697647Y-76006142D01*
X121692663Y-76075834D01*
X121650791Y-76131767D01*
X121585327Y-76156184D01*
X121576481Y-76156500D01*
X120399500Y-76156500D01*
X120332461Y-76136815D01*
X120286706Y-76084011D01*
X120275500Y-76032500D01*
X120275499Y-75399998D01*
X120275498Y-75399980D01*
X120264999Y-75297203D01*
X120264998Y-75297200D01*
X120228745Y-75187796D01*
X120209814Y-75130666D01*
X120117712Y-74981344D01*
X119993656Y-74857288D01*
X119900888Y-74800069D01*
X119844336Y-74765187D01*
X119844331Y-74765185D01*
X119842862Y-74764698D01*
X119677797Y-74710001D01*
X119677795Y-74710000D01*
X119575010Y-74699500D01*
X118949998Y-74699500D01*
X118949980Y-74699501D01*
X118847203Y-74710000D01*
X118847200Y-74710001D01*
X118680668Y-74765185D01*
X118680663Y-74765187D01*
X118531342Y-74857289D01*
X118437681Y-74950951D01*
X118376358Y-74984436D01*
X118306666Y-74979452D01*
X118262319Y-74950951D01*
X118168657Y-74857289D01*
X118168656Y-74857288D01*
X118075888Y-74800069D01*
X118019336Y-74765187D01*
X118019331Y-74765185D01*
X118017862Y-74764698D01*
X117852797Y-74710001D01*
X117852795Y-74710000D01*
X117750010Y-74699500D01*
X117124998Y-74699500D01*
X117124980Y-74699501D01*
X117022203Y-74710000D01*
X117022200Y-74710001D01*
X116855668Y-74765185D01*
X116855663Y-74765187D01*
X116706342Y-74857289D01*
X116582289Y-74981342D01*
X116490187Y-75130663D01*
X116490185Y-75130668D01*
X116484224Y-75148657D01*
X116435001Y-75297203D01*
X116435001Y-75297204D01*
X116435000Y-75297204D01*
X116424500Y-75399983D01*
X116424500Y-76400001D01*
X116424501Y-76400019D01*
X116435000Y-76502796D01*
X116435001Y-76502799D01*
X116463134Y-76587697D01*
X116490186Y-76669334D01*
X116582288Y-76818656D01*
X116706344Y-76942712D01*
X116855666Y-77034814D01*
X117022203Y-77089999D01*
X117124991Y-77100500D01*
X117737402Y-77100499D01*
X117804441Y-77120183D01*
X117825083Y-77136818D01*
X118140978Y-77452713D01*
X118140980Y-77452716D01*
X118189241Y-77500977D01*
X118222725Y-77562301D01*
X118220128Y-77598605D01*
X118217740Y-77631991D01*
X118217739Y-77631992D01*
X118217739Y-77631993D01*
X118175867Y-77687926D01*
X118175854Y-77687930D01*
X118135671Y-77707872D01*
X118106956Y-77716088D01*
X118028656Y-77756989D01*
X117926593Y-77810302D01*
X117926591Y-77810303D01*
X117926590Y-77810304D01*
X117768890Y-77938890D01*
X117640304Y-78096590D01*
X117640302Y-78096593D01*
X117593196Y-78186772D01*
X117546089Y-78276954D01*
X117509006Y-78406557D01*
X117493060Y-78462288D01*
X117490114Y-78472583D01*
X117490113Y-78472586D01*
X117479500Y-78591966D01*
X117479500Y-79708028D01*
X117479501Y-79708034D01*
X117490113Y-79827415D01*
X117546089Y-80023045D01*
X117546090Y-80023048D01*
X117546091Y-80023049D01*
X117640302Y-80203407D01*
X117640304Y-80203409D01*
X117768890Y-80361109D01*
X117822735Y-80405013D01*
X117926593Y-80489698D01*
X118106951Y-80583909D01*
X118302582Y-80639886D01*
X118421963Y-80650500D01*
X121338036Y-80650499D01*
X121457418Y-80639886D01*
X121653049Y-80583909D01*
X121833407Y-80489698D01*
X121991109Y-80361109D01*
X122119698Y-80203407D01*
X122213909Y-80023049D01*
X122269886Y-79827418D01*
X122280500Y-79708037D01*
X122280499Y-78591964D01*
X122269886Y-78472582D01*
X122213909Y-78276951D01*
X122119698Y-78096593D01*
X122055959Y-78018423D01*
X121991109Y-77938890D01*
X121949057Y-77904602D01*
X121909540Y-77846981D01*
X121907448Y-77777143D01*
X121943446Y-77717260D01*
X122006104Y-77686345D01*
X122027418Y-77684500D01*
X126410500Y-77684500D01*
X126477539Y-77704185D01*
X126523294Y-77756989D01*
X126534500Y-77808500D01*
X126534500Y-78765001D01*
X126534501Y-78765019D01*
X126545000Y-78867796D01*
X126545001Y-78867799D01*
X126556402Y-78902203D01*
X126600186Y-79034334D01*
X126692094Y-79183342D01*
X126692289Y-79183657D01*
X126777200Y-79268568D01*
X126810685Y-79329891D01*
X126805701Y-79399583D01*
X126777201Y-79443929D01*
X126689789Y-79531342D01*
X126597687Y-79680663D01*
X126597685Y-79680668D01*
X126588695Y-79707799D01*
X126542501Y-79847203D01*
X126542501Y-79847204D01*
X126542500Y-79847204D01*
X126532000Y-79949983D01*
X126532000Y-80950001D01*
X126532001Y-80950019D01*
X126542500Y-81052796D01*
X126542501Y-81052799D01*
X126597685Y-81219331D01*
X126597687Y-81219336D01*
X126689789Y-81368657D01*
X126813844Y-81492712D01*
X126900076Y-81545900D01*
X126946801Y-81597848D01*
X126958024Y-81666810D01*
X126930180Y-81730893D01*
X126873987Y-81769144D01*
X126840669Y-81780185D01*
X126840663Y-81780187D01*
X126691342Y-81872289D01*
X126567289Y-81996342D01*
X126475187Y-82145663D01*
X126475185Y-82145668D01*
X126447349Y-82229670D01*
X126420001Y-82312203D01*
X126420001Y-82312204D01*
X126420000Y-82312204D01*
X126409500Y-82414983D01*
X126409500Y-83465001D01*
X126409501Y-83465019D01*
X126420000Y-83567796D01*
X126420001Y-83567799D01*
X126473528Y-83729331D01*
X126475186Y-83734334D01*
X126567288Y-83883656D01*
X126691344Y-84007712D01*
X126840666Y-84099814D01*
X127007203Y-84154999D01*
X127109991Y-84165500D01*
X127710008Y-84165499D01*
X127710016Y-84165498D01*
X127710019Y-84165498D01*
X127766302Y-84159748D01*
X127812797Y-84154999D01*
X127979334Y-84099814D01*
X128128656Y-84007712D01*
X128252712Y-83883656D01*
X128254752Y-83880347D01*
X128256745Y-83878555D01*
X128257193Y-83877989D01*
X128257289Y-83878065D01*
X128306694Y-83833623D01*
X128375656Y-83822395D01*
X128439740Y-83850234D01*
X128465829Y-83880339D01*
X128467681Y-83883341D01*
X128467683Y-83883344D01*
X128591654Y-84007315D01*
X128740875Y-84099356D01*
X128740880Y-84099358D01*
X128907302Y-84154505D01*
X128907309Y-84154506D01*
X129010019Y-84164999D01*
X129560000Y-84164999D01*
X129609972Y-84164999D01*
X129609986Y-84164998D01*
X129712697Y-84154505D01*
X129879119Y-84099358D01*
X129879124Y-84099356D01*
X130028345Y-84007315D01*
X130152315Y-83883345D01*
X130244356Y-83734124D01*
X130244358Y-83734119D01*
X130299505Y-83567697D01*
X130299506Y-83567690D01*
X130309999Y-83464986D01*
X130310000Y-83464973D01*
X130310000Y-83190000D01*
X129560000Y-83190000D01*
X129560000Y-84164999D01*
X129010019Y-84164999D01*
X129059999Y-84164998D01*
X129060000Y-84164998D01*
X129060000Y-83064000D01*
X129079685Y-82996961D01*
X129132489Y-82951206D01*
X129184000Y-82940000D01*
X129310000Y-82940000D01*
X129310000Y-82814000D01*
X129329685Y-82746961D01*
X129382489Y-82701206D01*
X129434000Y-82690000D01*
X130309999Y-82690000D01*
X130309999Y-82415028D01*
X130309998Y-82415013D01*
X130299505Y-82312302D01*
X130244358Y-82145880D01*
X130244356Y-82145875D01*
X130152315Y-81996654D01*
X130028344Y-81872683D01*
X130028340Y-81872680D01*
X129924329Y-81808525D01*
X129877604Y-81756577D01*
X129866383Y-81687615D01*
X129894226Y-81623533D01*
X129945613Y-81588555D01*
X129945291Y-81587864D01*
X129949539Y-81585882D01*
X129950423Y-81585281D01*
X129951834Y-81584814D01*
X130101156Y-81492712D01*
X130225212Y-81368656D01*
X130317314Y-81219334D01*
X130372499Y-81052797D01*
X130383000Y-80950009D01*
X130382999Y-79949992D01*
X130375270Y-79874334D01*
X130372499Y-79847203D01*
X130372498Y-79847200D01*
X130332328Y-79725976D01*
X130317314Y-79680666D01*
X130225212Y-79531344D01*
X130164945Y-79471077D01*
X130131460Y-79409754D01*
X130136444Y-79340062D01*
X130164945Y-79295714D01*
X130277317Y-79183342D01*
X130369356Y-79034124D01*
X130369358Y-79034119D01*
X130424505Y-78867697D01*
X130424506Y-78867690D01*
X130434999Y-78764986D01*
X130434999Y-78473596D01*
X130454683Y-78406557D01*
X130507487Y-78360802D01*
X130576646Y-78350858D01*
X130640201Y-78379883D01*
X130646680Y-78385915D01*
X141641633Y-89380868D01*
X141675118Y-89442191D01*
X141670134Y-89511883D01*
X141657055Y-89537439D01*
X141622962Y-89588462D01*
X141622956Y-89588473D01*
X141562618Y-89734144D01*
X141562615Y-89734154D01*
X141531716Y-89889494D01*
X141499331Y-89951405D01*
X141497780Y-89952983D01*
X141218786Y-90231978D01*
X141106981Y-90343782D01*
X141106979Y-90343784D01*
X141081378Y-90388129D01*
X141068462Y-90410500D01*
X141048018Y-90445910D01*
X141028346Y-90479983D01*
X141027923Y-90480715D01*
X140986999Y-90633443D01*
X140986999Y-90633445D01*
X140986999Y-90801546D01*
X140987000Y-90801559D01*
X140987000Y-92085500D01*
X140967315Y-92152539D01*
X140914511Y-92198294D01*
X140863000Y-92209500D01*
X140316230Y-92209500D01*
X140249191Y-92189815D01*
X140203436Y-92137011D01*
X140193492Y-92067853D01*
X140222517Y-92004297D01*
X140228549Y-91997819D01*
X140234018Y-91992350D01*
X140242712Y-91983656D01*
X140334814Y-91834334D01*
X140389999Y-91667797D01*
X140400500Y-91565009D01*
X140400499Y-90514992D01*
X140400282Y-90512872D01*
X140389999Y-90412203D01*
X140389998Y-90412200D01*
X140367517Y-90344358D01*
X140334814Y-90245666D01*
X140242712Y-90096344D01*
X140118656Y-89972288D01*
X139969334Y-89880186D01*
X139802797Y-89825001D01*
X139802795Y-89825000D01*
X139700010Y-89814500D01*
X139099998Y-89814500D01*
X139099980Y-89814501D01*
X138997203Y-89825000D01*
X138997200Y-89825001D01*
X138830668Y-89880185D01*
X138830663Y-89880187D01*
X138681342Y-89972289D01*
X138557288Y-90096343D01*
X138557283Y-90096349D01*
X138555241Y-90099661D01*
X138553247Y-90101453D01*
X138552807Y-90102011D01*
X138552711Y-90101935D01*
X138503291Y-90146383D01*
X138434328Y-90157602D01*
X138370247Y-90129755D01*
X138344168Y-90099656D01*
X138342319Y-90096659D01*
X138342316Y-90096655D01*
X138218345Y-89972684D01*
X138069124Y-89880643D01*
X138069119Y-89880641D01*
X137902697Y-89825494D01*
X137902690Y-89825493D01*
X137799986Y-89815000D01*
X137750000Y-89815000D01*
X137750000Y-92271000D01*
X137730315Y-92338039D01*
X137677511Y-92383794D01*
X137656672Y-92388327D01*
X137650000Y-92395000D01*
X137650000Y-94513638D01*
X137630315Y-94580677D01*
X137620000Y-94593477D01*
X137620000Y-96671000D01*
X137600315Y-96738039D01*
X137575190Y-96759809D01*
X137540000Y-96795000D01*
X137540000Y-98844999D01*
X137589972Y-98844999D01*
X137589986Y-98844998D01*
X137692697Y-98834505D01*
X137859119Y-98779358D01*
X137859124Y-98779356D01*
X138008345Y-98687315D01*
X138132318Y-98563342D01*
X138134165Y-98560348D01*
X138135969Y-98558724D01*
X138136798Y-98557677D01*
X138136976Y-98557818D01*
X138186110Y-98513621D01*
X138255073Y-98502396D01*
X138319156Y-98530236D01*
X138345243Y-98560341D01*
X138347288Y-98563656D01*
X138471344Y-98687712D01*
X138620666Y-98779814D01*
X138787203Y-98834999D01*
X138889991Y-98845500D01*
X139490008Y-98845499D01*
X139490016Y-98845498D01*
X139490019Y-98845498D01*
X139546302Y-98839748D01*
X139592797Y-98834999D01*
X139759334Y-98779814D01*
X139908656Y-98687712D01*
X140032712Y-98563656D01*
X140124814Y-98414334D01*
X140179999Y-98247797D01*
X140190500Y-98145009D01*
X140190499Y-97094992D01*
X140181460Y-97006510D01*
X140179999Y-96992203D01*
X140179998Y-96992200D01*
X140176120Y-96980496D01*
X140173718Y-96910667D01*
X140209450Y-96850626D01*
X140271970Y-96819433D01*
X140318025Y-96819876D01*
X140321158Y-96820500D01*
X140321159Y-96820500D01*
X140478843Y-96820500D01*
X140494564Y-96817372D01*
X140551309Y-96806085D01*
X140572291Y-96807962D01*
X140593147Y-96804964D01*
X140606395Y-96811014D01*
X140620899Y-96812312D01*
X140637536Y-96825236D01*
X140656703Y-96833989D01*
X140664576Y-96846240D01*
X140676077Y-96855174D01*
X140683086Y-96875043D01*
X140694477Y-96892767D01*
X140698011Y-96917347D01*
X140699322Y-96921063D01*
X140699500Y-96927702D01*
X140699500Y-96970234D01*
X140679815Y-97037273D01*
X140678602Y-97039125D01*
X140590609Y-97170814D01*
X140590602Y-97170827D01*
X140530264Y-97316498D01*
X140530261Y-97316510D01*
X140499500Y-97471153D01*
X140499500Y-97628846D01*
X140530261Y-97783489D01*
X140530264Y-97783501D01*
X140590602Y-97929172D01*
X140590609Y-97929185D01*
X140678210Y-98060288D01*
X140678213Y-98060292D01*
X140789707Y-98171786D01*
X140789711Y-98171789D01*
X140920814Y-98259390D01*
X140920827Y-98259397D01*
X141036482Y-98307302D01*
X141066503Y-98319737D01*
X141161821Y-98338697D01*
X141221153Y-98350499D01*
X141221156Y-98350500D01*
X141221158Y-98350500D01*
X141378844Y-98350500D01*
X141378845Y-98350499D01*
X141533497Y-98319737D01*
X141679179Y-98259394D01*
X141810289Y-98171789D01*
X141921789Y-98060289D01*
X141947398Y-98021961D01*
X142001009Y-97977158D01*
X142070334Y-97968449D01*
X142133362Y-97998604D01*
X142170081Y-98058046D01*
X142174500Y-98090853D01*
X142174500Y-99225939D01*
X142174499Y-99225943D01*
X142174499Y-99384057D01*
X142182638Y-99414435D01*
X142183202Y-99428176D01*
X142177935Y-99449272D01*
X142177417Y-99471011D01*
X142169101Y-99484653D01*
X142166278Y-99495965D01*
X142156735Y-99504943D01*
X142146995Y-99520925D01*
X142140569Y-99527351D01*
X142140562Y-99527360D01*
X142052963Y-99658460D01*
X142052956Y-99658473D01*
X141992618Y-99804144D01*
X141992615Y-99804156D01*
X141961854Y-99958799D01*
X141961854Y-100116492D01*
X141992615Y-100271135D01*
X141992618Y-100271147D01*
X142052956Y-100416818D01*
X142052963Y-100416831D01*
X142114491Y-100508913D01*
X142135369Y-100575590D01*
X142116885Y-100642971D01*
X142064906Y-100689661D01*
X141998791Y-100701162D01*
X141982528Y-100699501D01*
X141982512Y-100699500D01*
X141982509Y-100699500D01*
X141982503Y-100699500D01*
X141357498Y-100699500D01*
X141357480Y-100699501D01*
X141254703Y-100710000D01*
X141254700Y-100710001D01*
X141088168Y-100765185D01*
X141088159Y-100765189D01*
X140973029Y-100836202D01*
X140905637Y-100854642D01*
X140838973Y-100833719D01*
X140794204Y-100780077D01*
X140791751Y-100773996D01*
X140783797Y-100752671D01*
X140783793Y-100752664D01*
X140697547Y-100637455D01*
X140697544Y-100637452D01*
X140582335Y-100551206D01*
X140582328Y-100551202D01*
X140447482Y-100500908D01*
X140447483Y-100500908D01*
X140387883Y-100494501D01*
X140387881Y-100494500D01*
X140387873Y-100494500D01*
X140387864Y-100494500D01*
X139152129Y-100494500D01*
X139152123Y-100494501D01*
X139092516Y-100500908D01*
X138957671Y-100551202D01*
X138957667Y-100551204D01*
X138954306Y-100553721D01*
X138950375Y-100555186D01*
X138949886Y-100555454D01*
X138949847Y-100555383D01*
X138888840Y-100578134D01*
X138820568Y-100563279D01*
X138805694Y-100553721D01*
X138802332Y-100551204D01*
X138802328Y-100551202D01*
X138667482Y-100500908D01*
X138667483Y-100500908D01*
X138607883Y-100494501D01*
X138607881Y-100494500D01*
X138607873Y-100494500D01*
X138607865Y-100494500D01*
X137937940Y-100494500D01*
X137870901Y-100474815D01*
X137850259Y-100458181D01*
X135537064Y-98144986D01*
X136290001Y-98144986D01*
X136300494Y-98247697D01*
X136355641Y-98414119D01*
X136355643Y-98414124D01*
X136447684Y-98563345D01*
X136571654Y-98687315D01*
X136720875Y-98779356D01*
X136720880Y-98779358D01*
X136887302Y-98834505D01*
X136887309Y-98834506D01*
X136990019Y-98844999D01*
X137039999Y-98844998D01*
X137040000Y-98844998D01*
X137040000Y-97870000D01*
X136290001Y-97870000D01*
X136290001Y-98144986D01*
X135537064Y-98144986D01*
X134487091Y-97095013D01*
X136290000Y-97095013D01*
X136290000Y-97370000D01*
X137040000Y-97370000D01*
X137040000Y-96389000D01*
X137059685Y-96321961D01*
X137084809Y-96300190D01*
X137120000Y-96265000D01*
X137120000Y-95690000D01*
X136370001Y-95690000D01*
X136370001Y-95964986D01*
X136380494Y-96067697D01*
X136435641Y-96234119D01*
X136435643Y-96234124D01*
X136527684Y-96383345D01*
X136546658Y-96402319D01*
X136580143Y-96463642D01*
X136575159Y-96533334D01*
X136546658Y-96577681D01*
X136447684Y-96676654D01*
X136355643Y-96825875D01*
X136355641Y-96825880D01*
X136300494Y-96992302D01*
X136300493Y-96992309D01*
X136290000Y-97095013D01*
X134487091Y-97095013D01*
X132307091Y-94915013D01*
X136370000Y-94915013D01*
X136370000Y-95190000D01*
X137120000Y-95190000D01*
X137120000Y-94166362D01*
X137139685Y-94099323D01*
X137150000Y-94086522D01*
X137150000Y-93490000D01*
X136400001Y-93490000D01*
X136400001Y-93764986D01*
X136410494Y-93867697D01*
X136465641Y-94034119D01*
X136465643Y-94034124D01*
X136557684Y-94183345D01*
X136611657Y-94237318D01*
X136645142Y-94298641D01*
X136640158Y-94368333D01*
X136611658Y-94412679D01*
X136527684Y-94496654D01*
X136435643Y-94645875D01*
X136435641Y-94645880D01*
X136380494Y-94812302D01*
X136380493Y-94812309D01*
X136370000Y-94915013D01*
X132307091Y-94915013D01*
X130107091Y-92715013D01*
X136400000Y-92715013D01*
X136400000Y-92990000D01*
X137150000Y-92990000D01*
X137150000Y-92009000D01*
X137169685Y-91941961D01*
X137222489Y-91896206D01*
X137243327Y-91891672D01*
X137250000Y-91885000D01*
X137250000Y-91290000D01*
X136500001Y-91290000D01*
X136500001Y-91564986D01*
X136510494Y-91667697D01*
X136565641Y-91834119D01*
X136565643Y-91834124D01*
X136657684Y-91983345D01*
X136676658Y-92002319D01*
X136710143Y-92063642D01*
X136705159Y-92133334D01*
X136676658Y-92177681D01*
X136557684Y-92296654D01*
X136465643Y-92445875D01*
X136465641Y-92445880D01*
X136410494Y-92612302D01*
X136410493Y-92612309D01*
X136400000Y-92715013D01*
X130107091Y-92715013D01*
X128586819Y-91194741D01*
X128553334Y-91133418D01*
X128550500Y-91107060D01*
X128550500Y-90515013D01*
X136500000Y-90515013D01*
X136500000Y-90790000D01*
X137250000Y-90790000D01*
X137250000Y-89815000D01*
X137249999Y-89814999D01*
X137200029Y-89815000D01*
X137200011Y-89815001D01*
X137097302Y-89825494D01*
X136930880Y-89880641D01*
X136930875Y-89880643D01*
X136781654Y-89972684D01*
X136657684Y-90096654D01*
X136565643Y-90245875D01*
X136565641Y-90245880D01*
X136510494Y-90412302D01*
X136510493Y-90412309D01*
X136500000Y-90515013D01*
X128550500Y-90515013D01*
X128550500Y-89617230D01*
X128557399Y-89593733D01*
X128560098Y-89569396D01*
X128568010Y-89557596D01*
X128570185Y-89550191D01*
X128578208Y-89539103D01*
X128582263Y-89534104D01*
X128592712Y-89523656D01*
X128598960Y-89513525D01*
X128604001Y-89507313D01*
X128626435Y-89491847D01*
X128646694Y-89473623D01*
X128654780Y-89472306D01*
X128661526Y-89467656D01*
X128688758Y-89466774D01*
X128715656Y-89462395D01*
X128723172Y-89465660D01*
X128731359Y-89465395D01*
X128754744Y-89479375D01*
X128779740Y-89490234D01*
X128787085Y-89498709D01*
X128791329Y-89501247D01*
X128794071Y-89506771D01*
X128805829Y-89520339D01*
X128807681Y-89523341D01*
X128807683Y-89523344D01*
X128931654Y-89647315D01*
X129080875Y-89739356D01*
X129080880Y-89739358D01*
X129247302Y-89794505D01*
X129247309Y-89794506D01*
X129350019Y-89804999D01*
X129900000Y-89804999D01*
X129949972Y-89804999D01*
X129949986Y-89804998D01*
X130052697Y-89794505D01*
X130219119Y-89739358D01*
X130219124Y-89739356D01*
X130368345Y-89647315D01*
X130492315Y-89523345D01*
X130584356Y-89374124D01*
X130584358Y-89374119D01*
X130639505Y-89207697D01*
X130639506Y-89207690D01*
X130649999Y-89104986D01*
X130650000Y-89104973D01*
X130650000Y-88830000D01*
X129900000Y-88830000D01*
X129900000Y-89804999D01*
X129350019Y-89804999D01*
X129399999Y-89804998D01*
X129400000Y-89804998D01*
X129400000Y-88330000D01*
X129900000Y-88330000D01*
X130649999Y-88330000D01*
X130649999Y-88055028D01*
X130649998Y-88055013D01*
X130639505Y-87952302D01*
X130584358Y-87785880D01*
X130584356Y-87785875D01*
X130492315Y-87636654D01*
X130368345Y-87512684D01*
X130219124Y-87420643D01*
X130219119Y-87420641D01*
X130052697Y-87365494D01*
X130052690Y-87365493D01*
X129949986Y-87355000D01*
X129900000Y-87355000D01*
X129900000Y-88330000D01*
X129400000Y-88330000D01*
X129400000Y-87355000D01*
X129399999Y-87354999D01*
X129350029Y-87355000D01*
X129350011Y-87355001D01*
X129247302Y-87365494D01*
X129080880Y-87420641D01*
X129080875Y-87420643D01*
X128931654Y-87512684D01*
X128807683Y-87636655D01*
X128807679Y-87636660D01*
X128805826Y-87639665D01*
X128804018Y-87641290D01*
X128803202Y-87642323D01*
X128803025Y-87642183D01*
X128753874Y-87686385D01*
X128684911Y-87697601D01*
X128620831Y-87669752D01*
X128594753Y-87639653D01*
X128594737Y-87639628D01*
X128592712Y-87636344D01*
X128468656Y-87512288D01*
X128360639Y-87445663D01*
X128319336Y-87420187D01*
X128319331Y-87420185D01*
X128317862Y-87419698D01*
X128152797Y-87365001D01*
X128152795Y-87365000D01*
X128050016Y-87354500D01*
X128050009Y-87354500D01*
X127707940Y-87354500D01*
X127678499Y-87345855D01*
X127648513Y-87339332D01*
X127643497Y-87335577D01*
X127640901Y-87334815D01*
X127620259Y-87318181D01*
X127449258Y-87147180D01*
X127415773Y-87085857D01*
X127420757Y-87016165D01*
X127462629Y-86960232D01*
X127528093Y-86935815D01*
X127536939Y-86935499D01*
X127800002Y-86935499D01*
X127800008Y-86935499D01*
X127902797Y-86924999D01*
X128069334Y-86869814D01*
X128218656Y-86777712D01*
X128342712Y-86653656D01*
X128344752Y-86650347D01*
X128346745Y-86648555D01*
X128347193Y-86647989D01*
X128347289Y-86648065D01*
X128396694Y-86603623D01*
X128465656Y-86592395D01*
X128529740Y-86620234D01*
X128555829Y-86650339D01*
X128557681Y-86653341D01*
X128557683Y-86653344D01*
X128681654Y-86777315D01*
X128830875Y-86869356D01*
X128830880Y-86869358D01*
X128997302Y-86924505D01*
X128997309Y-86924506D01*
X129100019Y-86934999D01*
X129650000Y-86934999D01*
X129699972Y-86934999D01*
X129699986Y-86934998D01*
X129802697Y-86924505D01*
X129969119Y-86869358D01*
X129969124Y-86869356D01*
X130118345Y-86777315D01*
X130242315Y-86653345D01*
X130334356Y-86504124D01*
X130334358Y-86504119D01*
X130389505Y-86337697D01*
X130389506Y-86337690D01*
X130399999Y-86234986D01*
X130400000Y-86234973D01*
X130400000Y-85971372D01*
X131179500Y-85971372D01*
X131179500Y-86233627D01*
X131198600Y-86378695D01*
X131213730Y-86493616D01*
X131281602Y-86746918D01*
X131281605Y-86746928D01*
X131381953Y-86989190D01*
X131381958Y-86989200D01*
X131513075Y-87216303D01*
X131672718Y-87424351D01*
X131672726Y-87424360D01*
X131858140Y-87609774D01*
X131858148Y-87609781D01*
X131858149Y-87609782D01*
X131900557Y-87642323D01*
X132066196Y-87769424D01*
X132293299Y-87900541D01*
X132293309Y-87900546D01*
X132535571Y-88000894D01*
X132535581Y-88000898D01*
X132788884Y-88068770D01*
X133048880Y-88103000D01*
X133048887Y-88103000D01*
X133311113Y-88103000D01*
X133311120Y-88103000D01*
X133571116Y-88068770D01*
X133824419Y-88000898D01*
X134066697Y-87900543D01*
X134293803Y-87769424D01*
X134501851Y-87609782D01*
X134501855Y-87609777D01*
X134501860Y-87609774D01*
X134687274Y-87424360D01*
X134687277Y-87424355D01*
X134687282Y-87424351D01*
X134846924Y-87216303D01*
X134978043Y-86989197D01*
X134995274Y-86947599D01*
X135027683Y-86869356D01*
X135078398Y-86746919D01*
X135146270Y-86493616D01*
X135180500Y-86233620D01*
X135180500Y-85971380D01*
X135146270Y-85711384D01*
X135078398Y-85458081D01*
X135078394Y-85458071D01*
X134978046Y-85215809D01*
X134978041Y-85215799D01*
X134846924Y-84988696D01*
X134687281Y-84780648D01*
X134687274Y-84780640D01*
X134501860Y-84595226D01*
X134501851Y-84595218D01*
X134293803Y-84435575D01*
X134066700Y-84304458D01*
X134066690Y-84304453D01*
X133824428Y-84204105D01*
X133824421Y-84204103D01*
X133824419Y-84204102D01*
X133571116Y-84136230D01*
X133513339Y-84128623D01*
X133311127Y-84102000D01*
X133311120Y-84102000D01*
X133048880Y-84102000D01*
X133048872Y-84102000D01*
X132817772Y-84132426D01*
X132788884Y-84136230D01*
X132542396Y-84202276D01*
X132535581Y-84204102D01*
X132535571Y-84204105D01*
X132293309Y-84304453D01*
X132293299Y-84304458D01*
X132066196Y-84435575D01*
X131858148Y-84595218D01*
X131672718Y-84780648D01*
X131513075Y-84988696D01*
X131381958Y-85215799D01*
X131381953Y-85215809D01*
X131281605Y-85458071D01*
X131281602Y-85458081D01*
X131216781Y-85700000D01*
X131213730Y-85711385D01*
X131179500Y-85971372D01*
X130400000Y-85971372D01*
X130400000Y-85960000D01*
X129650000Y-85960000D01*
X129650000Y-86934999D01*
X129100019Y-86934999D01*
X129149999Y-86934998D01*
X129150000Y-86934998D01*
X129150000Y-85460000D01*
X129650000Y-85460000D01*
X130399999Y-85460000D01*
X130399999Y-85185028D01*
X130399998Y-85185013D01*
X130389505Y-85082302D01*
X130334358Y-84915880D01*
X130334356Y-84915875D01*
X130242315Y-84766654D01*
X130118345Y-84642684D01*
X129969124Y-84550643D01*
X129969119Y-84550641D01*
X129802697Y-84495494D01*
X129802690Y-84495493D01*
X129699986Y-84485000D01*
X129650000Y-84485000D01*
X129650000Y-85460000D01*
X129150000Y-85460000D01*
X129150000Y-84485000D01*
X129149999Y-84484999D01*
X129100029Y-84485000D01*
X129100011Y-84485001D01*
X128997302Y-84495494D01*
X128830880Y-84550641D01*
X128830875Y-84550643D01*
X128681654Y-84642684D01*
X128557683Y-84766655D01*
X128557679Y-84766660D01*
X128555826Y-84769665D01*
X128554018Y-84771290D01*
X128553202Y-84772323D01*
X128553025Y-84772183D01*
X128503874Y-84816385D01*
X128434911Y-84827601D01*
X128370831Y-84799752D01*
X128344753Y-84769653D01*
X128344737Y-84769628D01*
X128342712Y-84766344D01*
X128218656Y-84642288D01*
X128069334Y-84550186D01*
X127902797Y-84495001D01*
X127902795Y-84495000D01*
X127800010Y-84484500D01*
X127199998Y-84484500D01*
X127199980Y-84484501D01*
X127097203Y-84495000D01*
X127097200Y-84495001D01*
X126930668Y-84550185D01*
X126930663Y-84550187D01*
X126781342Y-84642289D01*
X126657289Y-84766342D01*
X126565187Y-84915663D01*
X126565185Y-84915668D01*
X126565115Y-84915880D01*
X126510001Y-85082203D01*
X126510001Y-85082204D01*
X126510000Y-85082204D01*
X126499500Y-85184983D01*
X126499500Y-85898059D01*
X126479815Y-85965098D01*
X126427011Y-86010853D01*
X126357853Y-86020797D01*
X126294297Y-85991772D01*
X126287819Y-85985740D01*
X125130292Y-84828213D01*
X125130288Y-84828210D01*
X124999185Y-84740609D01*
X124999172Y-84740602D01*
X124853501Y-84680264D01*
X124853489Y-84680261D01*
X124698845Y-84649500D01*
X124698842Y-84649500D01*
X123510461Y-84649500D01*
X123443422Y-84629815D01*
X123397667Y-84577011D01*
X123390127Y-84555427D01*
X123381642Y-84521312D01*
X123381641Y-84521307D01*
X123330000Y-84417182D01*
X123297032Y-84350707D01*
X123297030Y-84350704D01*
X123177722Y-84202278D01*
X123177721Y-84202277D01*
X123029295Y-84082969D01*
X123029292Y-84082967D01*
X122858697Y-83998360D01*
X122673892Y-83952400D01*
X122652506Y-83950950D01*
X122631123Y-83949500D01*
X122631120Y-83949500D01*
X121728877Y-83949500D01*
X121728874Y-83949501D01*
X121686113Y-83952399D01*
X121686112Y-83952399D01*
X121501303Y-83998360D01*
X121330707Y-84082967D01*
X121330704Y-84082969D01*
X121182278Y-84202277D01*
X121182277Y-84202278D01*
X121126647Y-84271486D01*
X121069304Y-84311405D01*
X120999482Y-84313985D01*
X120939349Y-84278406D01*
X120933353Y-84271486D01*
X120877722Y-84202278D01*
X120877721Y-84202277D01*
X120729295Y-84082969D01*
X120729292Y-84082967D01*
X120558697Y-83998360D01*
X120373892Y-83952400D01*
X120352506Y-83950950D01*
X120331123Y-83949500D01*
X120331120Y-83949500D01*
X119428877Y-83949500D01*
X119428874Y-83949501D01*
X119386113Y-83952399D01*
X119386112Y-83952399D01*
X119201303Y-83998360D01*
X119030707Y-84082967D01*
X119030704Y-84082969D01*
X118882280Y-84202276D01*
X118882278Y-84202278D01*
X118854625Y-84236678D01*
X118826326Y-84271885D01*
X118768982Y-84311803D01*
X118699160Y-84314383D01*
X118639027Y-84278804D01*
X118633031Y-84271884D01*
X118577364Y-84202630D01*
X118429025Y-84083392D01*
X118429022Y-84083390D01*
X118258523Y-83998831D01*
X118073824Y-83952897D01*
X118031097Y-83950000D01*
X117830000Y-83950000D01*
X117830000Y-86950000D01*
X118031097Y-86950000D01*
X118073824Y-86947102D01*
X118258523Y-86901168D01*
X118429022Y-86816609D01*
X118429025Y-86816607D01*
X118577366Y-86697367D01*
X118577367Y-86697366D01*
X118633033Y-86628115D01*
X118690376Y-86588196D01*
X118760198Y-86585616D01*
X118820331Y-86621194D01*
X118826305Y-86628089D01*
X118882278Y-86697722D01*
X118882280Y-86697724D01*
X119030704Y-86817030D01*
X119030707Y-86817032D01*
X119201302Y-86901639D01*
X119201303Y-86901639D01*
X119201307Y-86901641D01*
X119386111Y-86947600D01*
X119428877Y-86950500D01*
X120331122Y-86950499D01*
X120373889Y-86947600D01*
X120558693Y-86901641D01*
X120729296Y-86817030D01*
X120877722Y-86697722D01*
X120933353Y-86628514D01*
X120990696Y-86588595D01*
X121060518Y-86586015D01*
X121120651Y-86621594D01*
X121126647Y-86628514D01*
X121181992Y-86697367D01*
X121182278Y-86697722D01*
X121301871Y-86793853D01*
X121341790Y-86851196D01*
X121344370Y-86921018D01*
X121308792Y-86981151D01*
X121246351Y-87012503D01*
X121224194Y-87014500D01*
X121215003Y-87014500D01*
X121214980Y-87014501D01*
X121112203Y-87025000D01*
X121112200Y-87025001D01*
X120945668Y-87080185D01*
X120945663Y-87080187D01*
X120796342Y-87172289D01*
X120672289Y-87296342D01*
X120580187Y-87445663D01*
X120580185Y-87445668D01*
X120552405Y-87529504D01*
X120512632Y-87586949D01*
X120448116Y-87613772D01*
X120434699Y-87614500D01*
X117523440Y-87614500D01*
X117482519Y-87625464D01*
X117482519Y-87625465D01*
X117445251Y-87635451D01*
X117370714Y-87655423D01*
X117370709Y-87655426D01*
X117233790Y-87734475D01*
X117233782Y-87734481D01*
X117121980Y-87846283D01*
X117121980Y-87846284D01*
X117121978Y-87846286D01*
X117016061Y-87952203D01*
X116995082Y-87973182D01*
X116933759Y-88006666D01*
X116907401Y-88009500D01*
X116294998Y-88009500D01*
X116294980Y-88009501D01*
X116192203Y-88020000D01*
X116192200Y-88020001D01*
X116025668Y-88075185D01*
X116025663Y-88075187D01*
X115876342Y-88167289D01*
X115752289Y-88291342D01*
X115660187Y-88440663D01*
X115660186Y-88440666D01*
X115605001Y-88607203D01*
X115605001Y-88607204D01*
X115605000Y-88607204D01*
X115594500Y-88709983D01*
X115594500Y-89710001D01*
X115594501Y-89710019D01*
X115605000Y-89812796D01*
X115605001Y-89812799D01*
X115657982Y-89972684D01*
X115660186Y-89979334D01*
X115752288Y-90128656D01*
X115876344Y-90252712D01*
X116025666Y-90344814D01*
X116192203Y-90399999D01*
X116294991Y-90410500D01*
X116920008Y-90410499D01*
X116920016Y-90410498D01*
X116920019Y-90410498D01*
X116976302Y-90404748D01*
X117022797Y-90399999D01*
X117189334Y-90344814D01*
X117338656Y-90252712D01*
X117432675Y-90158692D01*
X117493994Y-90125210D01*
X117563686Y-90130194D01*
X117608034Y-90158695D01*
X117701654Y-90252315D01*
X117850875Y-90344356D01*
X117850880Y-90344358D01*
X118017302Y-90399505D01*
X118017309Y-90399506D01*
X118120019Y-90409999D01*
X118682500Y-90409999D01*
X118744972Y-90409999D01*
X118744986Y-90409998D01*
X118847697Y-90399505D01*
X119014119Y-90344358D01*
X119014124Y-90344356D01*
X119163345Y-90252315D01*
X119287315Y-90128345D01*
X119379356Y-89979124D01*
X119379358Y-89979119D01*
X119434505Y-89812697D01*
X119434506Y-89812690D01*
X119444999Y-89709986D01*
X119445000Y-89709973D01*
X119445000Y-89460000D01*
X118682500Y-89460000D01*
X118682500Y-90409999D01*
X118120019Y-90409999D01*
X118182499Y-90409998D01*
X118182500Y-90409998D01*
X118182500Y-89334000D01*
X118202185Y-89266961D01*
X118254989Y-89221206D01*
X118306500Y-89210000D01*
X118432500Y-89210000D01*
X118432500Y-89084000D01*
X118452185Y-89016961D01*
X118504989Y-88971206D01*
X118556500Y-88960000D01*
X119444999Y-88960000D01*
X119444999Y-88939500D01*
X119464684Y-88872461D01*
X119517488Y-88826706D01*
X119568999Y-88815500D01*
X120390500Y-88815500D01*
X120457539Y-88835185D01*
X120503294Y-88887989D01*
X120514500Y-88939500D01*
X120514500Y-89965001D01*
X120514501Y-89965018D01*
X120525000Y-90067796D01*
X120525001Y-90067799D01*
X120580185Y-90234331D01*
X120580187Y-90234336D01*
X120596730Y-90261156D01*
X120672288Y-90383656D01*
X120796344Y-90507712D01*
X120945666Y-90599814D01*
X121112203Y-90654999D01*
X121214991Y-90665500D01*
X122065008Y-90665499D01*
X122065016Y-90665498D01*
X122065019Y-90665498D01*
X122126074Y-90659261D01*
X122167797Y-90654999D01*
X122334334Y-90599814D01*
X122483656Y-90507712D01*
X122607712Y-90383656D01*
X122699814Y-90234334D01*
X122754999Y-90067797D01*
X122765500Y-89965009D01*
X122765499Y-87714992D01*
X122765412Y-87714145D01*
X122754999Y-87612203D01*
X122754998Y-87612200D01*
X122727595Y-87529504D01*
X122699814Y-87445666D01*
X122607712Y-87296344D01*
X122483656Y-87172288D01*
X122483649Y-87172284D01*
X122482997Y-87171768D01*
X122482659Y-87171291D01*
X122478549Y-87167181D01*
X122479251Y-87166478D01*
X122442619Y-87114747D01*
X122439478Y-87044948D01*
X122474571Y-86984531D01*
X122536758Y-86952679D01*
X122559904Y-86950499D01*
X122631122Y-86950499D01*
X122631123Y-86950499D01*
X122631123Y-86950498D01*
X122673889Y-86947600D01*
X122858693Y-86901641D01*
X123029296Y-86817030D01*
X123177722Y-86697722D01*
X123297030Y-86549296D01*
X123381641Y-86378693D01*
X123384920Y-86365506D01*
X123390127Y-86344573D01*
X123425409Y-86284266D01*
X123487695Y-86252608D01*
X123510461Y-86250500D01*
X124237060Y-86250500D01*
X124304099Y-86270185D01*
X124324741Y-86286819D01*
X124840741Y-86802819D01*
X124874226Y-86864142D01*
X124869242Y-86933834D01*
X124827370Y-86989767D01*
X124761906Y-87014184D01*
X124753060Y-87014500D01*
X124014998Y-87014500D01*
X124014980Y-87014501D01*
X123912203Y-87025000D01*
X123912200Y-87025001D01*
X123745668Y-87080185D01*
X123745663Y-87080187D01*
X123596342Y-87172289D01*
X123472289Y-87296342D01*
X123380187Y-87445663D01*
X123380185Y-87445668D01*
X123358110Y-87512288D01*
X123325001Y-87612203D01*
X123325001Y-87612204D01*
X123325000Y-87612204D01*
X123314500Y-87714983D01*
X123314500Y-89965001D01*
X123314501Y-89965018D01*
X123325000Y-90067796D01*
X123325001Y-90067799D01*
X123380185Y-90234331D01*
X123380187Y-90234336D01*
X123396730Y-90261156D01*
X123472288Y-90383656D01*
X123596344Y-90507712D01*
X123745666Y-90599814D01*
X123912203Y-90654999D01*
X124014991Y-90665500D01*
X124865008Y-90665499D01*
X124865016Y-90665498D01*
X124865019Y-90665498D01*
X124926074Y-90659261D01*
X124967797Y-90654999D01*
X125134334Y-90599814D01*
X125283656Y-90507712D01*
X125407712Y-90383656D01*
X125499814Y-90234334D01*
X125554999Y-90067797D01*
X125565500Y-89965009D01*
X125565499Y-87826938D01*
X125585184Y-87759900D01*
X125637987Y-87714145D01*
X125707146Y-87704201D01*
X125770702Y-87733226D01*
X125777180Y-87739258D01*
X126713181Y-88675259D01*
X126746666Y-88736582D01*
X126749500Y-88762940D01*
X126749500Y-89105001D01*
X126749501Y-89105019D01*
X126760000Y-89207796D01*
X126760001Y-89207799D01*
X126815115Y-89374119D01*
X126815186Y-89374334D01*
X126907096Y-89523345D01*
X126907289Y-89523657D01*
X126913181Y-89529549D01*
X126946666Y-89590872D01*
X126949500Y-89617230D01*
X126949500Y-91568846D01*
X126980261Y-91723489D01*
X126980264Y-91723501D01*
X127040602Y-91869172D01*
X127040609Y-91869185D01*
X127128210Y-92000288D01*
X127128213Y-92000292D01*
X136883181Y-101755259D01*
X136916666Y-101816582D01*
X136919500Y-101842940D01*
X136919500Y-102512870D01*
X136919501Y-102512876D01*
X136925908Y-102572483D01*
X136976202Y-102707328D01*
X136976206Y-102707335D01*
X137062452Y-102822544D01*
X137062455Y-102822547D01*
X137177664Y-102908793D01*
X137177671Y-102908797D01*
X137312517Y-102959091D01*
X137312516Y-102959091D01*
X137319444Y-102959835D01*
X137372127Y-102965500D01*
X138607872Y-102965499D01*
X138667483Y-102959091D01*
X138802331Y-102908796D01*
X138805686Y-102906284D01*
X138809614Y-102904818D01*
X138810112Y-102904547D01*
X138810151Y-102904618D01*
X138871146Y-102881864D01*
X138939420Y-102896712D01*
X138954307Y-102906279D01*
X138957669Y-102908796D01*
X138957670Y-102908796D01*
X138957671Y-102908797D01*
X138993915Y-102922315D01*
X139092517Y-102959091D01*
X139152127Y-102965500D01*
X139765500Y-102965499D01*
X139774186Y-102968049D01*
X139783147Y-102966761D01*
X139807183Y-102977738D01*
X139832539Y-102985183D01*
X139838467Y-102992025D01*
X139846703Y-102995786D01*
X139860989Y-103018017D01*
X139878294Y-103037987D01*
X139880581Y-103048502D01*
X139884477Y-103054564D01*
X139889500Y-103089499D01*
X139889500Y-103147209D01*
X139869815Y-103214248D01*
X139817011Y-103260003D01*
X139754282Y-103270701D01*
X139746565Y-103270000D01*
X139233417Y-103270000D01*
X139162897Y-103276408D01*
X139162892Y-103276409D01*
X139000603Y-103326981D01*
X138855124Y-103414926D01*
X138821802Y-103448249D01*
X139453681Y-104080128D01*
X139487166Y-104141451D01*
X139490000Y-104167809D01*
X139490000Y-104524190D01*
X139470315Y-104591229D01*
X139417511Y-104636984D01*
X139348353Y-104646928D01*
X139284797Y-104617903D01*
X139278319Y-104611871D01*
X138590000Y-103923552D01*
X138575447Y-103929581D01*
X138570315Y-103947060D01*
X138517511Y-103992815D01*
X138448353Y-104002759D01*
X138441817Y-104001640D01*
X138433570Y-104000000D01*
X138246430Y-104000000D01*
X138062902Y-104036506D01*
X138062894Y-104036508D01*
X137890008Y-104108119D01*
X137889999Y-104108124D01*
X137734411Y-104212085D01*
X137695025Y-104251472D01*
X138154644Y-104711091D01*
X138099940Y-104765795D01*
X138060444Y-104834204D01*
X138040000Y-104910504D01*
X138040000Y-105589496D01*
X138060444Y-105665796D01*
X138099940Y-105734205D01*
X138154643Y-105788908D01*
X137695025Y-106248527D01*
X137734411Y-106287914D01*
X137865635Y-106375595D01*
X137910440Y-106429207D01*
X137919965Y-106492575D01*
X137919500Y-106496703D01*
X137919500Y-108326634D01*
X137899815Y-108393673D01*
X137847011Y-108439428D01*
X137777853Y-108449372D01*
X137714297Y-108420347D01*
X137707819Y-108414315D01*
X137675593Y-108382089D01*
X137675589Y-108382086D01*
X137520000Y-108278124D01*
X137519991Y-108278119D01*
X137347105Y-108206508D01*
X137347097Y-108206506D01*
X137163570Y-108170000D01*
X136976430Y-108170000D01*
X136792902Y-108206506D01*
X136792894Y-108206508D01*
X136620008Y-108278119D01*
X136619999Y-108278124D01*
X136464411Y-108382085D01*
X136350025Y-108496472D01*
X136815082Y-108961529D01*
X136790444Y-109004204D01*
X136770000Y-109080504D01*
X136770000Y-109623552D01*
X136128773Y-108982325D01*
X136120000Y-109026434D01*
X136120000Y-110113571D01*
X136156506Y-110297097D01*
X136156510Y-110297112D01*
X136159182Y-110303563D01*
X136166648Y-110373033D01*
X136135370Y-110435510D01*
X136102968Y-110458012D01*
X136103853Y-110459544D01*
X135982686Y-110529500D01*
X135982683Y-110529502D01*
X135889502Y-110622683D01*
X135889500Y-110622686D01*
X135823608Y-110736812D01*
X135789500Y-110864108D01*
X135789500Y-110915500D01*
X135769815Y-110982539D01*
X135717011Y-111028294D01*
X135665500Y-111039500D01*
X113874500Y-111039500D01*
X113807461Y-111019815D01*
X113761706Y-110967011D01*
X113750500Y-110915500D01*
X113750500Y-104856428D01*
X137390000Y-104856428D01*
X137390000Y-105643571D01*
X137423658Y-105812787D01*
X137423659Y-105812787D01*
X137986447Y-105250000D01*
X137986447Y-105249999D01*
X137423659Y-104687211D01*
X137423658Y-104687211D01*
X137390000Y-104856428D01*
X113750500Y-104856428D01*
X113750500Y-86151096D01*
X116330000Y-86151096D01*
X116332897Y-86193824D01*
X116378831Y-86378523D01*
X116463390Y-86549022D01*
X116463392Y-86549025D01*
X116582632Y-86697366D01*
X116582633Y-86697367D01*
X116730974Y-86816607D01*
X116730977Y-86816609D01*
X116901476Y-86901168D01*
X117086175Y-86947102D01*
X117128903Y-86950000D01*
X117330000Y-86950000D01*
X117330000Y-85700000D01*
X116330000Y-85700000D01*
X116330000Y-86151096D01*
X113750500Y-86151096D01*
X113750500Y-84748903D01*
X116330000Y-84748903D01*
X116330000Y-85200000D01*
X117330000Y-85200000D01*
X117330000Y-83950000D01*
X117128903Y-83950000D01*
X117086175Y-83952897D01*
X116901476Y-83998831D01*
X116730977Y-84083390D01*
X116730974Y-84083392D01*
X116582633Y-84202632D01*
X116582632Y-84202633D01*
X116463392Y-84350974D01*
X116463390Y-84350977D01*
X116378831Y-84521476D01*
X116332897Y-84706175D01*
X116330000Y-84748903D01*
X113750500Y-84748903D01*
X113750500Y-63971372D01*
X131179500Y-63971372D01*
X131179500Y-64233627D01*
X131201977Y-64404344D01*
X131213730Y-64493616D01*
X131276461Y-64727733D01*
X131281602Y-64746918D01*
X131281605Y-64746928D01*
X131381953Y-64989190D01*
X131381958Y-64989200D01*
X131513075Y-65216303D01*
X131672718Y-65424351D01*
X131672726Y-65424360D01*
X131858140Y-65609774D01*
X131858148Y-65609781D01*
X132066196Y-65769424D01*
X132293299Y-65900541D01*
X132293309Y-65900546D01*
X132535571Y-66000894D01*
X132535581Y-66000898D01*
X132788884Y-66068770D01*
X133048880Y-66103000D01*
X133048887Y-66103000D01*
X133311113Y-66103000D01*
X133311120Y-66103000D01*
X133571116Y-66068770D01*
X133824419Y-66000898D01*
X134066697Y-65900543D01*
X134293803Y-65769424D01*
X134501851Y-65609782D01*
X134501855Y-65609777D01*
X134501860Y-65609774D01*
X134687274Y-65424360D01*
X134687277Y-65424355D01*
X134687282Y-65424351D01*
X134846924Y-65216303D01*
X134978043Y-64989197D01*
X135078398Y-64746919D01*
X135146270Y-64493616D01*
X135180500Y-64233620D01*
X135180500Y-63971380D01*
X135164520Y-63850001D01*
X135160218Y-63817323D01*
X135155892Y-63784473D01*
X135146270Y-63711384D01*
X135078398Y-63458081D01*
X135016538Y-63308737D01*
X134978046Y-63215809D01*
X134978041Y-63215799D01*
X134846927Y-62988701D01*
X134767122Y-62884698D01*
X134687282Y-62780649D01*
X134687281Y-62780648D01*
X134687274Y-62780640D01*
X134501860Y-62595226D01*
X134501851Y-62595218D01*
X134293803Y-62435575D01*
X134066700Y-62304458D01*
X134066690Y-62304453D01*
X133824428Y-62204105D01*
X133824421Y-62204103D01*
X133824419Y-62204102D01*
X133571116Y-62136230D01*
X133513339Y-62128623D01*
X133311127Y-62102000D01*
X133311120Y-62102000D01*
X133048880Y-62102000D01*
X133048872Y-62102000D01*
X132817772Y-62132426D01*
X132788884Y-62136230D01*
X132628954Y-62179083D01*
X132535581Y-62204102D01*
X132535571Y-62204105D01*
X132293309Y-62304453D01*
X132293299Y-62304458D01*
X132066196Y-62435575D01*
X131858148Y-62595218D01*
X131672718Y-62780648D01*
X131513075Y-62988696D01*
X131381958Y-63215799D01*
X131381953Y-63215809D01*
X131281605Y-63458071D01*
X131281602Y-63458081D01*
X131216451Y-63701231D01*
X131213730Y-63711385D01*
X131179500Y-63971372D01*
X113750500Y-63971372D01*
X113750500Y-61364500D01*
X113770185Y-61297461D01*
X113822989Y-61251706D01*
X113874500Y-61240500D01*
X168445500Y-61240500D01*
X168512539Y-61260185D01*
G37*
%TD.AperFunction*%
%TA.AperFunction,Conductor*%
G36*
X162660135Y-94708745D02*
G01*
X162691029Y-94716046D01*
X162693413Y-94718517D01*
X162696709Y-94719485D01*
X162717498Y-94743477D01*
X162739545Y-94766325D01*
X162741089Y-94770702D01*
X162742464Y-94772289D01*
X162751287Y-94799608D01*
X162763258Y-94859791D01*
X162763261Y-94859801D01*
X162823599Y-95005472D01*
X162823606Y-95005485D01*
X162911599Y-95137174D01*
X162932477Y-95203851D01*
X162932497Y-95206065D01*
X162932497Y-96696425D01*
X162932482Y-96698324D01*
X162932246Y-96713682D01*
X162929499Y-96723937D01*
X162929499Y-96882051D01*
X162929500Y-96882054D01*
X162929500Y-96892972D01*
X162929500Y-97563330D01*
X162929499Y-97563348D01*
X162929499Y-97729054D01*
X162929498Y-97729054D01*
X162929499Y-97729057D01*
X162970423Y-97881785D01*
X162993069Y-97921009D01*
X163049477Y-98018712D01*
X163049481Y-98018717D01*
X163129723Y-98098959D01*
X163132613Y-98101947D01*
X163142322Y-98112330D01*
X163154928Y-98134164D01*
X163266732Y-98245968D01*
X163266734Y-98245969D01*
X163275280Y-98254515D01*
X163480614Y-98459849D01*
X163500320Y-98485530D01*
X163519480Y-98518716D01*
X163519482Y-98518718D01*
X163638349Y-98637585D01*
X163638355Y-98637590D01*
X165959478Y-100958713D01*
X165959480Y-100958716D01*
X165967341Y-100966577D01*
X166001887Y-101001124D01*
X166035371Y-101062447D01*
X166035370Y-101062449D01*
X166036677Y-101069404D01*
X166053445Y-101175266D01*
X166053445Y-101175268D01*
X166110619Y-101351232D01*
X166110620Y-101351235D01*
X166194622Y-101516096D01*
X166303379Y-101665787D01*
X166434213Y-101796621D01*
X166434216Y-101796623D01*
X166508831Y-101850834D01*
X166523806Y-101870254D01*
X167153554Y-102500000D01*
X167147339Y-102500000D01*
X167045606Y-102527259D01*
X166954394Y-102579920D01*
X166879920Y-102654394D01*
X166827259Y-102745606D01*
X166800000Y-102847339D01*
X166800000Y-102853553D01*
X166210015Y-102263568D01*
X166195049Y-102284167D01*
X166111084Y-102448956D01*
X166111083Y-102448959D01*
X166053933Y-102624852D01*
X166025000Y-102807526D01*
X166025000Y-102992473D01*
X166053933Y-103175147D01*
X166111083Y-103351040D01*
X166111084Y-103351043D01*
X166195050Y-103515834D01*
X166210015Y-103536430D01*
X166210016Y-103536431D01*
X166800000Y-102946447D01*
X166800000Y-102952661D01*
X166827259Y-103054394D01*
X166879920Y-103145606D01*
X166954394Y-103220080D01*
X167045606Y-103272741D01*
X167147339Y-103300000D01*
X167153553Y-103300000D01*
X166539355Y-103914196D01*
X166508833Y-103949163D01*
X166434213Y-104003378D01*
X166303381Y-104134210D01*
X166303381Y-104134211D01*
X166303379Y-104134213D01*
X166278970Y-104167809D01*
X166194622Y-104283903D01*
X166110620Y-104448764D01*
X166110619Y-104448767D01*
X166053445Y-104624734D01*
X166024500Y-104807486D01*
X166024500Y-104992513D01*
X166053445Y-105175265D01*
X166110619Y-105351232D01*
X166110620Y-105351235D01*
X166190250Y-105507515D01*
X166194622Y-105516096D01*
X166303379Y-105665787D01*
X166434213Y-105796621D01*
X166583904Y-105905378D01*
X166664763Y-105946577D01*
X166748764Y-105989379D01*
X166748767Y-105989380D01*
X166829838Y-106015721D01*
X166924736Y-106046555D01*
X167107486Y-106075500D01*
X167107487Y-106075500D01*
X167292513Y-106075500D01*
X167292514Y-106075500D01*
X167475264Y-106046555D01*
X167651235Y-105989379D01*
X167816096Y-105905378D01*
X167965787Y-105796621D01*
X168096621Y-105665787D01*
X168205378Y-105516096D01*
X168289379Y-105351235D01*
X168327569Y-105233698D01*
X168367006Y-105176023D01*
X168431365Y-105148824D01*
X168500211Y-105160738D01*
X168551687Y-105207982D01*
X168569500Y-105272016D01*
X168569500Y-110915500D01*
X168549815Y-110982539D01*
X168497011Y-111028294D01*
X168445500Y-111039500D01*
X150314500Y-111039500D01*
X150247461Y-111019815D01*
X150201706Y-110967011D01*
X150190500Y-110915500D01*
X150190500Y-110864110D01*
X150190500Y-110864108D01*
X150156392Y-110736814D01*
X150090500Y-110622686D01*
X149997314Y-110529500D01*
X149883186Y-110463608D01*
X149883185Y-110463607D01*
X149876147Y-110459544D01*
X149877511Y-110457181D01*
X149833514Y-110421716D01*
X149811458Y-110355418D01*
X149820820Y-110303555D01*
X149823491Y-110297105D01*
X149823493Y-110297097D01*
X149859999Y-110113571D01*
X149860000Y-110113569D01*
X149860000Y-109026430D01*
X149851226Y-108982325D01*
X149851225Y-108982325D01*
X149210000Y-109623551D01*
X149210000Y-109080504D01*
X149189556Y-109004204D01*
X149164917Y-108961529D01*
X149629975Y-108496472D01*
X149515588Y-108382085D01*
X149360000Y-108278124D01*
X149359991Y-108278119D01*
X149187105Y-108206508D01*
X149187097Y-108206506D01*
X149003570Y-108170000D01*
X148816430Y-108170000D01*
X148632902Y-108206506D01*
X148632894Y-108206508D01*
X148460008Y-108278119D01*
X148459999Y-108278124D01*
X148304410Y-108382086D01*
X148304406Y-108382089D01*
X148272181Y-108414315D01*
X148210858Y-108447800D01*
X148141166Y-108442816D01*
X148085233Y-108400944D01*
X148060816Y-108335480D01*
X148060500Y-108326634D01*
X148060500Y-106496711D01*
X148060500Y-106496706D01*
X148060498Y-106496701D01*
X148060035Y-106492586D01*
X148060500Y-106489930D01*
X148060500Y-106489742D01*
X148060533Y-106489742D01*
X148072087Y-106423764D01*
X148114365Y-106375595D01*
X148245585Y-106287916D01*
X148245587Y-106287915D01*
X148284974Y-106248527D01*
X147825356Y-105788909D01*
X147880060Y-105734205D01*
X147919556Y-105665796D01*
X147940000Y-105589496D01*
X147940000Y-105249999D01*
X147993553Y-105249999D01*
X147993553Y-105250000D01*
X148556339Y-105812786D01*
X148556340Y-105812786D01*
X148589999Y-105643571D01*
X148590000Y-105643569D01*
X148590000Y-104856432D01*
X148589999Y-104856428D01*
X148556340Y-104687212D01*
X148556339Y-104687212D01*
X147993553Y-105249999D01*
X147940000Y-105249999D01*
X147940000Y-104910504D01*
X147919556Y-104834204D01*
X147880060Y-104765795D01*
X147825356Y-104711091D01*
X148284975Y-104251472D01*
X148245588Y-104212085D01*
X148090000Y-104108124D01*
X148089991Y-104108119D01*
X147917105Y-104036508D01*
X147917097Y-104036506D01*
X147733570Y-104000000D01*
X147546434Y-104000000D01*
X147538189Y-104001640D01*
X147468598Y-103995411D01*
X147413421Y-103952548D01*
X147405450Y-103929954D01*
X147389998Y-103923553D01*
X146701681Y-104611871D01*
X146640358Y-104645356D01*
X146570666Y-104640372D01*
X146514733Y-104598500D01*
X146490316Y-104533036D01*
X146490000Y-104524190D01*
X146490000Y-104167809D01*
X146509685Y-104100770D01*
X146526319Y-104080128D01*
X147158198Y-103448249D01*
X147124875Y-103414926D01*
X146979395Y-103326980D01*
X146979396Y-103326980D01*
X146926392Y-103310464D01*
X146868244Y-103271727D01*
X146840270Y-103207702D01*
X146851352Y-103138716D01*
X146875601Y-103104398D01*
X146900000Y-103079999D01*
X147400000Y-103079999D01*
X147462472Y-103079999D01*
X147462486Y-103079998D01*
X147565197Y-103069505D01*
X147731619Y-103014358D01*
X147731624Y-103014356D01*
X147880845Y-102922315D01*
X148004815Y-102798345D01*
X148042310Y-102737557D01*
X148042312Y-102737554D01*
X148096853Y-102649130D01*
X148096858Y-102649119D01*
X148152005Y-102482697D01*
X148152006Y-102482690D01*
X148162499Y-102379986D01*
X148162500Y-102379973D01*
X148162500Y-102130000D01*
X147400000Y-102130000D01*
X147400000Y-103079999D01*
X146900000Y-103079999D01*
X146900000Y-102004000D01*
X146919685Y-101936961D01*
X146972489Y-101891206D01*
X147024000Y-101880000D01*
X147150000Y-101880000D01*
X147150000Y-101754000D01*
X147169685Y-101686961D01*
X147222489Y-101641206D01*
X147274000Y-101630000D01*
X148162499Y-101630000D01*
X148162499Y-101380028D01*
X148162498Y-101380013D01*
X148152005Y-101277302D01*
X148096858Y-101110880D01*
X148096853Y-101110869D01*
X148069456Y-101066452D01*
X148051015Y-100999060D01*
X148071937Y-100932396D01*
X148090418Y-100910675D01*
X148100752Y-100901036D01*
X148124164Y-100887520D01*
X148235968Y-100775716D01*
X148235969Y-100775713D01*
X151723640Y-97288043D01*
X151784963Y-97254558D01*
X151811321Y-97251724D01*
X154992107Y-97251724D01*
X154992123Y-97251725D01*
X154999719Y-97251725D01*
X155157830Y-97251725D01*
X155157833Y-97251725D01*
X155310561Y-97210801D01*
X155389982Y-97164947D01*
X155447492Y-97131744D01*
X155559296Y-97019940D01*
X155559296Y-97019938D01*
X155569500Y-97009735D01*
X155569504Y-97009730D01*
X156328506Y-96250728D01*
X156328511Y-96250724D01*
X156338714Y-96240520D01*
X156338716Y-96240520D01*
X156450520Y-96128716D01*
X156504818Y-96034669D01*
X156529577Y-95991785D01*
X156570500Y-95839057D01*
X156570500Y-95702765D01*
X156590185Y-95635726D01*
X156591398Y-95633874D01*
X156593824Y-95630244D01*
X156679394Y-95502179D01*
X156739737Y-95356497D01*
X156770500Y-95201842D01*
X156770500Y-95044158D01*
X156770500Y-95044155D01*
X156770499Y-95044153D01*
X156767325Y-95028197D01*
X156739737Y-94889503D01*
X156739735Y-94889498D01*
X156732177Y-94871250D01*
X156724710Y-94801781D01*
X156755986Y-94739302D01*
X156816076Y-94703651D01*
X156846739Y-94699800D01*
X162629670Y-94699800D01*
X162660135Y-94708745D01*
G37*
%TD.AperFunction*%
%TA.AperFunction,Conductor*%
G36*
X168189983Y-103536430D02*
G01*
X168189984Y-103536430D01*
X168204942Y-103515845D01*
X168204947Y-103515836D01*
X168288915Y-103351043D01*
X168288916Y-103351040D01*
X168327569Y-103232078D01*
X168367006Y-103174403D01*
X168431365Y-103147204D01*
X168500211Y-103159118D01*
X168551687Y-103206362D01*
X168569500Y-103270396D01*
X168569500Y-104527983D01*
X168549815Y-104595022D01*
X168497011Y-104640777D01*
X168427853Y-104650721D01*
X168364297Y-104621696D01*
X168327569Y-104566301D01*
X168289380Y-104448767D01*
X168289379Y-104448764D01*
X168205377Y-104283903D01*
X168096621Y-104134213D01*
X167965787Y-104003379D01*
X167964934Y-104002759D01*
X167891165Y-103949162D01*
X167876190Y-103929742D01*
X167246448Y-103300000D01*
X167252661Y-103300000D01*
X167354394Y-103272741D01*
X167445606Y-103220080D01*
X167520080Y-103145606D01*
X167572741Y-103054394D01*
X167600000Y-102952661D01*
X167600000Y-102946447D01*
X168189983Y-103536430D01*
G37*
%TD.AperFunction*%
%TA.AperFunction,Conductor*%
G36*
X168500211Y-101160738D02*
G01*
X168551687Y-101207982D01*
X168569500Y-101272016D01*
X168569500Y-102529603D01*
X168549815Y-102596642D01*
X168497011Y-102642397D01*
X168427853Y-102652341D01*
X168364297Y-102623316D01*
X168327569Y-102567921D01*
X168288916Y-102448959D01*
X168288915Y-102448956D01*
X168204949Y-102284165D01*
X168189983Y-102263568D01*
X167600000Y-102853551D01*
X167600000Y-102847339D01*
X167572741Y-102745606D01*
X167520080Y-102654394D01*
X167445606Y-102579920D01*
X167354394Y-102527259D01*
X167252661Y-102500000D01*
X167246447Y-102500000D01*
X167860675Y-101885771D01*
X167891165Y-101850836D01*
X167965787Y-101796621D01*
X168096621Y-101665787D01*
X168205378Y-101516096D01*
X168289379Y-101351235D01*
X168327569Y-101233698D01*
X168367006Y-101176023D01*
X168431365Y-101148824D01*
X168500211Y-101160738D01*
G37*
%TD.AperFunction*%
%TA.AperFunction,Conductor*%
G36*
X168504926Y-99723621D02*
G01*
X168554332Y-99773026D01*
X168569500Y-99832454D01*
X168569500Y-100527983D01*
X168549815Y-100595022D01*
X168497011Y-100640777D01*
X168427853Y-100650721D01*
X168364297Y-100621696D01*
X168327569Y-100566301D01*
X168289380Y-100448767D01*
X168289379Y-100448764D01*
X168205377Y-100283903D01*
X168196106Y-100271143D01*
X168121453Y-100168392D01*
X168097974Y-100102586D01*
X168113799Y-100034532D01*
X168147459Y-99996241D01*
X168232546Y-99932546D01*
X168318796Y-99817331D01*
X168323713Y-99804149D01*
X168329318Y-99789121D01*
X168371189Y-99733187D01*
X168436653Y-99708770D01*
X168504926Y-99723621D01*
G37*
%TD.AperFunction*%
%TA.AperFunction,Conductor*%
G36*
X148983039Y-96819685D02*
G01*
X149028794Y-96872489D01*
X149040000Y-96924000D01*
X149040000Y-97759402D01*
X149020315Y-97826441D01*
X149003681Y-97847083D01*
X147554181Y-99296583D01*
X147492858Y-99330068D01*
X147423166Y-99325084D01*
X147367233Y-99283212D01*
X147342816Y-99217748D01*
X147342500Y-99208902D01*
X147342500Y-99160000D01*
X146454000Y-99160000D01*
X146386961Y-99140315D01*
X146341206Y-99087511D01*
X146330000Y-99036000D01*
X146330000Y-98784000D01*
X146349685Y-98716961D01*
X146402489Y-98671206D01*
X146454000Y-98660000D01*
X147342499Y-98660000D01*
X147342499Y-98410028D01*
X147342498Y-98410013D01*
X147332005Y-98307302D01*
X147276858Y-98140880D01*
X147276856Y-98140875D01*
X147184815Y-97991654D01*
X147060845Y-97867684D01*
X146911624Y-97775643D01*
X146911619Y-97775641D01*
X146745197Y-97720494D01*
X146745190Y-97720493D01*
X146642486Y-97710000D01*
X146492128Y-97710000D01*
X146425089Y-97690315D01*
X146379334Y-97637511D01*
X146369390Y-97568353D01*
X146377566Y-97538548D01*
X146385522Y-97519339D01*
X146399999Y-97409377D01*
X146400000Y-97409363D01*
X146400000Y-97101982D01*
X146391195Y-97085857D01*
X146396179Y-97016165D01*
X146438051Y-96960232D01*
X146503515Y-96935815D01*
X146512348Y-96935499D01*
X146874400Y-96935499D01*
X146874402Y-96935499D01*
X146934367Y-96927604D01*
X146980771Y-96921496D01*
X147044407Y-96929873D01*
X147116503Y-96959737D01*
X147220865Y-96980496D01*
X147271153Y-96990499D01*
X147271156Y-96990500D01*
X147271158Y-96990500D01*
X147428832Y-96990500D01*
X147428842Y-96990500D01*
X147428851Y-96990498D01*
X147429603Y-96990424D01*
X147430004Y-96990500D01*
X147434934Y-96990500D01*
X147434934Y-96991434D01*
X147498251Y-97003436D01*
X147548966Y-97051496D01*
X147565128Y-97101224D01*
X147575494Y-97202697D01*
X147630641Y-97369119D01*
X147630643Y-97369124D01*
X147722684Y-97518345D01*
X147846654Y-97642315D01*
X147995875Y-97734356D01*
X147995880Y-97734358D01*
X148162302Y-97789505D01*
X148162309Y-97789506D01*
X148265019Y-97799999D01*
X148539999Y-97799999D01*
X148540000Y-97799998D01*
X148540000Y-96924000D01*
X148559685Y-96856961D01*
X148612489Y-96811206D01*
X148664000Y-96800000D01*
X148916000Y-96800000D01*
X148983039Y-96819685D01*
G37*
%TD.AperFunction*%
%TA.AperFunction,Conductor*%
G36*
X145057514Y-93044501D02*
G01*
X145057674Y-93043905D01*
X145065524Y-93046008D01*
X145065526Y-93046008D01*
X145065528Y-93046009D01*
X145175599Y-93060500D01*
X145374400Y-93060499D01*
X145387039Y-93058835D01*
X145456073Y-93069600D01*
X145508329Y-93115980D01*
X145527215Y-93183249D01*
X145526164Y-93197952D01*
X145524500Y-93210596D01*
X145524500Y-93409403D01*
X145538989Y-93519468D01*
X145541094Y-93527322D01*
X145537814Y-93528200D01*
X145543581Y-93582073D01*
X145540517Y-93592522D01*
X145541095Y-93592677D01*
X145538990Y-93600529D01*
X145524500Y-93710598D01*
X145524500Y-93909403D01*
X145538989Y-94019468D01*
X145541094Y-94027322D01*
X145537814Y-94028200D01*
X145543581Y-94082073D01*
X145540517Y-94092522D01*
X145541095Y-94092677D01*
X145538990Y-94100529D01*
X145524500Y-94210598D01*
X145524500Y-94409403D01*
X145538989Y-94519468D01*
X145541094Y-94527322D01*
X145537814Y-94528200D01*
X145543581Y-94582073D01*
X145540517Y-94592522D01*
X145541095Y-94592677D01*
X145538990Y-94600529D01*
X145524500Y-94710598D01*
X145524500Y-94909403D01*
X145538989Y-95019468D01*
X145541094Y-95027322D01*
X145537814Y-95028200D01*
X145543581Y-95082073D01*
X145540517Y-95092522D01*
X145541095Y-95092677D01*
X145538990Y-95100529D01*
X145524500Y-95210598D01*
X145524500Y-95409403D01*
X145538989Y-95519468D01*
X145541094Y-95527322D01*
X145537814Y-95528200D01*
X145543581Y-95582073D01*
X145540517Y-95592522D01*
X145541095Y-95592677D01*
X145538991Y-95600528D01*
X145524500Y-95710598D01*
X145524500Y-95909400D01*
X145526165Y-95922045D01*
X145515396Y-95991080D01*
X145469013Y-96043333D01*
X145401743Y-96062215D01*
X145387046Y-96061164D01*
X145374401Y-96059500D01*
X145175596Y-96059500D01*
X145065531Y-96073989D01*
X145057678Y-96076094D01*
X145056802Y-96072824D01*
X145002853Y-96078567D01*
X144992477Y-96075518D01*
X144992323Y-96076095D01*
X144984470Y-96073990D01*
X144874401Y-96059500D01*
X144675596Y-96059500D01*
X144565531Y-96073989D01*
X144557678Y-96076094D01*
X144556802Y-96072824D01*
X144502853Y-96078567D01*
X144492477Y-96075518D01*
X144492323Y-96076095D01*
X144484470Y-96073990D01*
X144374401Y-96059500D01*
X144175596Y-96059500D01*
X144065531Y-96073989D01*
X144057678Y-96076094D01*
X144056802Y-96072824D01*
X144002853Y-96078567D01*
X143992477Y-96075518D01*
X143992323Y-96076095D01*
X143984470Y-96073990D01*
X143874401Y-96059500D01*
X143675596Y-96059500D01*
X143565531Y-96073989D01*
X143557678Y-96076094D01*
X143556802Y-96072824D01*
X143502853Y-96078567D01*
X143492477Y-96075518D01*
X143492323Y-96076095D01*
X143484470Y-96073990D01*
X143374401Y-96059500D01*
X143175596Y-96059500D01*
X143065531Y-96073989D01*
X143057678Y-96076094D01*
X143056802Y-96072824D01*
X143002853Y-96078567D01*
X142992477Y-96075518D01*
X142992323Y-96076095D01*
X142984470Y-96073990D01*
X142874401Y-96059500D01*
X142675598Y-96059500D01*
X142662953Y-96061165D01*
X142593918Y-96050395D01*
X142541665Y-96004012D01*
X142522784Y-95936742D01*
X142523836Y-95922039D01*
X142524560Y-95916540D01*
X142525500Y-95909401D01*
X142525499Y-95710600D01*
X142523934Y-95698714D01*
X142515710Y-95636240D01*
X142511009Y-95600528D01*
X142511008Y-95600527D01*
X142511008Y-95600522D01*
X142508905Y-95592674D01*
X142512207Y-95591789D01*
X142506392Y-95538075D01*
X142509501Y-95527485D01*
X142508905Y-95527326D01*
X142511008Y-95519475D01*
X142511008Y-95519474D01*
X142511009Y-95519472D01*
X142525500Y-95409401D01*
X142525499Y-95210600D01*
X142524346Y-95201844D01*
X142519579Y-95165630D01*
X142511009Y-95100528D01*
X142511008Y-95100525D01*
X142508905Y-95092674D01*
X142512207Y-95091789D01*
X142506392Y-95038075D01*
X142509501Y-95027485D01*
X142508905Y-95027326D01*
X142511008Y-95019475D01*
X142511008Y-95019474D01*
X142511009Y-95019472D01*
X142525500Y-94909401D01*
X142525499Y-94710600D01*
X142511009Y-94600528D01*
X142511008Y-94600525D01*
X142508905Y-94592674D01*
X142512207Y-94591789D01*
X142506392Y-94538075D01*
X142509501Y-94527485D01*
X142508905Y-94527326D01*
X142511008Y-94519475D01*
X142511008Y-94519474D01*
X142511009Y-94519472D01*
X142525500Y-94409401D01*
X142525499Y-94210600D01*
X142511009Y-94100528D01*
X142511008Y-94100525D01*
X142508905Y-94092674D01*
X142512207Y-94091789D01*
X142506392Y-94038075D01*
X142509501Y-94027485D01*
X142508905Y-94027326D01*
X142511008Y-94019475D01*
X142511008Y-94019474D01*
X142511009Y-94019472D01*
X142525500Y-93909401D01*
X142525499Y-93710600D01*
X142511009Y-93600528D01*
X142511008Y-93600525D01*
X142508905Y-93592674D01*
X142512207Y-93591789D01*
X142506392Y-93538075D01*
X142509501Y-93527485D01*
X142508905Y-93527326D01*
X142511008Y-93519475D01*
X142511008Y-93519474D01*
X142511009Y-93519472D01*
X142525500Y-93409401D01*
X142525499Y-93210600D01*
X142525498Y-93210596D01*
X142523835Y-93197960D01*
X142534601Y-93128925D01*
X142580981Y-93076669D01*
X142648249Y-93057784D01*
X142662959Y-93058836D01*
X142663945Y-93058965D01*
X142675599Y-93060500D01*
X142874400Y-93060499D01*
X142874401Y-93060499D01*
X142895024Y-93057784D01*
X142984472Y-93046009D01*
X142984475Y-93046007D01*
X142992326Y-93043905D01*
X142993210Y-93047207D01*
X143046925Y-93041392D01*
X143057514Y-93044501D01*
X143057674Y-93043905D01*
X143065524Y-93046008D01*
X143065526Y-93046008D01*
X143065528Y-93046009D01*
X143175599Y-93060500D01*
X143374400Y-93060499D01*
X143374401Y-93060499D01*
X143395024Y-93057784D01*
X143484472Y-93046009D01*
X143484475Y-93046007D01*
X143492326Y-93043905D01*
X143493210Y-93047207D01*
X143546925Y-93041392D01*
X143557514Y-93044501D01*
X143557674Y-93043905D01*
X143565524Y-93046008D01*
X143565526Y-93046008D01*
X143565528Y-93046009D01*
X143675599Y-93060500D01*
X143874400Y-93060499D01*
X143874401Y-93060499D01*
X143895024Y-93057784D01*
X143984472Y-93046009D01*
X143984475Y-93046007D01*
X143992326Y-93043905D01*
X143993210Y-93047207D01*
X144046925Y-93041392D01*
X144057514Y-93044501D01*
X144057674Y-93043905D01*
X144065524Y-93046008D01*
X144065526Y-93046008D01*
X144065528Y-93046009D01*
X144175599Y-93060500D01*
X144374400Y-93060499D01*
X144374401Y-93060499D01*
X144395024Y-93057784D01*
X144484472Y-93046009D01*
X144484475Y-93046007D01*
X144492326Y-93043905D01*
X144493210Y-93047207D01*
X144546925Y-93041392D01*
X144557514Y-93044501D01*
X144557674Y-93043905D01*
X144565524Y-93046008D01*
X144565526Y-93046008D01*
X144565528Y-93046009D01*
X144675599Y-93060500D01*
X144874400Y-93060499D01*
X144874401Y-93060499D01*
X144895024Y-93057784D01*
X144984472Y-93046009D01*
X144984475Y-93046007D01*
X144992326Y-93043905D01*
X144993210Y-93047207D01*
X145046925Y-93041392D01*
X145057514Y-93044501D01*
G37*
%TD.AperFunction*%
%TA.AperFunction,Conductor*%
G36*
X168486752Y-93547470D02*
G01*
X168543425Y-93588336D01*
X168569006Y-93653354D01*
X168569500Y-93664407D01*
X168569500Y-94505592D01*
X168549815Y-94572631D01*
X168497011Y-94618386D01*
X168427853Y-94628330D01*
X168364297Y-94599305D01*
X168326523Y-94540527D01*
X168323883Y-94529783D01*
X168309838Y-94459178D01*
X168309837Y-94459171D01*
X168242430Y-94296437D01*
X168147182Y-94153889D01*
X168126305Y-94087214D01*
X168144789Y-94019834D01*
X168147168Y-94016131D01*
X168242430Y-93873563D01*
X168309837Y-93710829D01*
X168319071Y-93664407D01*
X168323883Y-93640216D01*
X168356267Y-93578305D01*
X168416983Y-93543731D01*
X168486752Y-93547470D01*
G37*
%TD.AperFunction*%
%TA.AperFunction,Conductor*%
G36*
X164345703Y-82357884D02*
G01*
X164352181Y-82363916D01*
X164928181Y-82939917D01*
X164961666Y-83001240D01*
X164964500Y-83027598D01*
X164964500Y-83460001D01*
X164964501Y-83460019D01*
X164975000Y-83562796D01*
X164975001Y-83562799D01*
X165030185Y-83729331D01*
X165030186Y-83729334D01*
X165122288Y-83878656D01*
X165246344Y-84002712D01*
X165395666Y-84094814D01*
X165562203Y-84149999D01*
X165664991Y-84160500D01*
X166290008Y-84160499D01*
X166290016Y-84160498D01*
X166290019Y-84160498D01*
X166359924Y-84153357D01*
X166392797Y-84149999D01*
X166559334Y-84094814D01*
X166708656Y-84002712D01*
X166802319Y-83909049D01*
X166863642Y-83875564D01*
X166933334Y-83880548D01*
X166977681Y-83909049D01*
X167071344Y-84002712D01*
X167220666Y-84094814D01*
X167387203Y-84149999D01*
X167489991Y-84160500D01*
X168115008Y-84160499D01*
X168115016Y-84160498D01*
X168115019Y-84160498D01*
X168184924Y-84153357D01*
X168217797Y-84149999D01*
X168384334Y-84094814D01*
X168384343Y-84094808D01*
X168390882Y-84091760D01*
X168391962Y-84094076D01*
X168447789Y-84078798D01*
X168514454Y-84099717D01*
X168559226Y-84153357D01*
X168569500Y-84202777D01*
X168569500Y-90294416D01*
X168549815Y-90361455D01*
X168497011Y-90407210D01*
X168427853Y-90417154D01*
X168364297Y-90388129D01*
X168357819Y-90382097D01*
X168306423Y-90330701D01*
X168306419Y-90330698D01*
X168184275Y-90249083D01*
X168184266Y-90249078D01*
X168048544Y-90192861D01*
X168048545Y-90192861D01*
X168048542Y-90192860D01*
X168048538Y-90192859D01*
X168048534Y-90192858D01*
X167904459Y-90164200D01*
X167904455Y-90164200D01*
X167757545Y-90164200D01*
X167757540Y-90164200D01*
X167613465Y-90192858D01*
X167613455Y-90192861D01*
X167477733Y-90249078D01*
X167477724Y-90249083D01*
X167355580Y-90330698D01*
X167355576Y-90330701D01*
X167251701Y-90434576D01*
X167251698Y-90434580D01*
X167170083Y-90556724D01*
X167170078Y-90556733D01*
X167113861Y-90692455D01*
X167113858Y-90692465D01*
X167085200Y-90836540D01*
X167085200Y-90983459D01*
X167113858Y-91127534D01*
X167113862Y-91127548D01*
X167145729Y-91204483D01*
X167153198Y-91273953D01*
X167121922Y-91336432D01*
X167078622Y-91366496D01*
X167026675Y-91388013D01*
X167017618Y-91394064D01*
X168235934Y-92612380D01*
X168241985Y-92603326D01*
X168241985Y-92603325D01*
X168309354Y-92440683D01*
X168309356Y-92440677D01*
X168323883Y-92367649D01*
X168356268Y-92305738D01*
X168416984Y-92271164D01*
X168486753Y-92274904D01*
X168543425Y-92315771D01*
X168569007Y-92380789D01*
X168569500Y-92391841D01*
X168569500Y-93235592D01*
X168549815Y-93302631D01*
X168497011Y-93348386D01*
X168427853Y-93358330D01*
X168364297Y-93329305D01*
X168326523Y-93270527D01*
X168323883Y-93259783D01*
X168311585Y-93197960D01*
X168309837Y-93189171D01*
X168242430Y-93026437D01*
X168242428Y-93026434D01*
X168242426Y-93026430D01*
X168144571Y-92879981D01*
X168144568Y-92879977D01*
X168020022Y-92755431D01*
X168020018Y-92755428D01*
X167873569Y-92657573D01*
X167873560Y-92657568D01*
X167710829Y-92590163D01*
X167710821Y-92590161D01*
X167549809Y-92558134D01*
X167487898Y-92525749D01*
X167453324Y-92465034D01*
X167450000Y-92436517D01*
X167450000Y-92180000D01*
X167193483Y-92180000D01*
X167126444Y-92160315D01*
X167080689Y-92107511D01*
X167071866Y-92080191D01*
X167039867Y-91919322D01*
X167039837Y-91919171D01*
X166972430Y-91756437D01*
X166972427Y-91756432D01*
X166972426Y-91756430D01*
X166874571Y-91609981D01*
X166874568Y-91609977D01*
X166750022Y-91485431D01*
X166750018Y-91485428D01*
X166603569Y-91387573D01*
X166603559Y-91387568D01*
X166551569Y-91366033D01*
X166497166Y-91322192D01*
X166475101Y-91255898D01*
X166484459Y-91204024D01*
X166516140Y-91127542D01*
X166544800Y-90983455D01*
X166544800Y-90836545D01*
X166516140Y-90692458D01*
X166459920Y-90556731D01*
X166459919Y-90556730D01*
X166459916Y-90556724D01*
X166378301Y-90434580D01*
X166378298Y-90434576D01*
X166274423Y-90330701D01*
X166274419Y-90330698D01*
X166152275Y-90249083D01*
X166152266Y-90249078D01*
X166016544Y-90192861D01*
X166016545Y-90192861D01*
X166016542Y-90192860D01*
X166016538Y-90192859D01*
X166016534Y-90192858D01*
X165872459Y-90164200D01*
X165872455Y-90164200D01*
X165725545Y-90164200D01*
X165725540Y-90164200D01*
X165581465Y-90192858D01*
X165581455Y-90192861D01*
X165445733Y-90249078D01*
X165445724Y-90249083D01*
X165323580Y-90330698D01*
X165323576Y-90330701D01*
X165219701Y-90434576D01*
X165219698Y-90434580D01*
X165138083Y-90556724D01*
X165138078Y-90556733D01*
X165081861Y-90692455D01*
X165081858Y-90692465D01*
X165053200Y-90836540D01*
X165053200Y-90983459D01*
X165081487Y-91125667D01*
X165081860Y-91127542D01*
X165082083Y-91128081D01*
X165138078Y-91263266D01*
X165138083Y-91263275D01*
X165219698Y-91385419D01*
X165219701Y-91385423D01*
X165323577Y-91489299D01*
X165323580Y-91489301D01*
X165388117Y-91532423D01*
X165432922Y-91586034D01*
X165441629Y-91655359D01*
X165422329Y-91704415D01*
X165387572Y-91756432D01*
X165387568Y-91756439D01*
X165320163Y-91919170D01*
X165320161Y-91919178D01*
X165285800Y-92091924D01*
X165285800Y-92268075D01*
X165320161Y-92440821D01*
X165320163Y-92440829D01*
X165387568Y-92603560D01*
X165387573Y-92603569D01*
X165482816Y-92746109D01*
X165503694Y-92812786D01*
X165485210Y-92880167D01*
X165482816Y-92883890D01*
X165387571Y-93026434D01*
X165387569Y-93026438D01*
X165359065Y-93095253D01*
X165346521Y-93110818D01*
X165338217Y-93129003D01*
X165325046Y-93137467D01*
X165315224Y-93149656D01*
X165296257Y-93155968D01*
X165279439Y-93166777D01*
X165251876Y-93170739D01*
X165248929Y-93171721D01*
X165244504Y-93171800D01*
X165145311Y-93171800D01*
X165078272Y-93152115D01*
X165032517Y-93099311D01*
X165022573Y-93030153D01*
X165023694Y-93023609D01*
X165050499Y-92888846D01*
X165050500Y-92888844D01*
X165050500Y-92731155D01*
X165050499Y-92731153D01*
X165019737Y-92576503D01*
X164998714Y-92525749D01*
X164959397Y-92430827D01*
X164959390Y-92430814D01*
X164871789Y-92299711D01*
X164871786Y-92299707D01*
X164760292Y-92188213D01*
X164760288Y-92188210D01*
X164629185Y-92100609D01*
X164629172Y-92100602D01*
X164483501Y-92040264D01*
X164483489Y-92040261D01*
X164322868Y-92008311D01*
X164323400Y-92005631D01*
X164269524Y-91983859D01*
X164231931Y-91934090D01*
X164219394Y-91903821D01*
X164219393Y-91903819D01*
X164219392Y-91903817D01*
X164131789Y-91772711D01*
X164131786Y-91772707D01*
X164116084Y-91757005D01*
X164082599Y-91695682D01*
X164087583Y-91625990D01*
X164096381Y-91607319D01*
X164099577Y-91601785D01*
X164140500Y-91449057D01*
X164140500Y-91290943D01*
X164140500Y-82451597D01*
X164160185Y-82384558D01*
X164212989Y-82338803D01*
X164282147Y-82328859D01*
X164345703Y-82357884D01*
G37*
%TD.AperFunction*%
%TA.AperFunction,Conductor*%
G36*
X139746773Y-69413185D02*
G01*
X139748625Y-69414398D01*
X139850394Y-69482398D01*
X139895199Y-69536010D01*
X139903906Y-69605335D01*
X139873752Y-69668363D01*
X139814309Y-69705082D01*
X139781503Y-69709500D01*
X132794169Y-69709500D01*
X132794153Y-69709499D01*
X132786557Y-69709499D01*
X132628443Y-69709499D01*
X132552079Y-69729961D01*
X132475712Y-69750423D01*
X132475711Y-69750424D01*
X132426119Y-69779057D01*
X132338787Y-69829477D01*
X132338782Y-69829481D01*
X132226978Y-69941286D01*
X129981218Y-72187045D01*
X129919895Y-72220530D01*
X129850203Y-72215546D01*
X129794270Y-72173674D01*
X129769853Y-72108210D01*
X129777356Y-72056029D01*
X129801096Y-71992380D01*
X129801098Y-71992372D01*
X129807499Y-71932844D01*
X129807500Y-71932827D01*
X129807500Y-71810000D01*
X129274500Y-71810000D01*
X129271169Y-71809022D01*
X129267793Y-71809818D01*
X129237893Y-71799251D01*
X129207461Y-71790315D01*
X129205188Y-71787692D01*
X129201916Y-71786536D01*
X129182466Y-71761469D01*
X129161706Y-71737511D01*
X129160583Y-71733267D01*
X129159084Y-71731335D01*
X129156592Y-71718176D01*
X129150987Y-71696982D01*
X129150500Y-71691504D01*
X129150500Y-71614158D01*
X129138063Y-71551637D01*
X129137472Y-71544982D01*
X129143053Y-71517007D01*
X129145595Y-71488600D01*
X129149800Y-71483186D01*
X129151142Y-71476463D01*
X129170960Y-71455946D01*
X129188458Y-71433423D01*
X129194922Y-71431142D01*
X129199686Y-71426211D01*
X129227451Y-71419666D01*
X129254348Y-71410178D01*
X129260985Y-71410000D01*
X129807500Y-71410000D01*
X129807500Y-71287172D01*
X129807499Y-71287155D01*
X129801098Y-71227627D01*
X129801096Y-71227620D01*
X129750854Y-71092913D01*
X129746603Y-71085128D01*
X129747860Y-71084441D01*
X129726765Y-71027891D01*
X129741615Y-70959617D01*
X129791018Y-70910210D01*
X129811441Y-70901335D01*
X129951834Y-70854814D01*
X130101156Y-70762712D01*
X130225212Y-70638656D01*
X130317314Y-70489334D01*
X130372499Y-70322797D01*
X130383000Y-70220009D01*
X130382999Y-69517499D01*
X130402683Y-69450461D01*
X130455487Y-69404706D01*
X130506999Y-69393500D01*
X139679734Y-69393500D01*
X139746773Y-69413185D01*
G37*
%TD.AperFunction*%
%TD*%
M02*
