%TF.GenerationSoftware,KiCad,Pcbnew,10.0.3*%
%TF.CreationDate,2026-06-20T01:28:51+05:45*%
%TF.ProjectId,one digit updown counter,6f6e6520-6469-4676-9974-207570646f77,rev?*%
%TF.SameCoordinates,Original*%
%TF.FileFunction,Soldermask,Top*%
%TF.FilePolarity,Negative*%
%FSLAX46Y46*%
G04 Gerber Fmt 4.6, Leading zero omitted, Abs format (unit mm)*
G04 Created by KiCad (PCBNEW 10.0.3) date 2026-06-20 01:28:51*
%MOMM*%
%LPD*%
G01*
G04 APERTURE LIST*
G04 APERTURE END LIST*
G36*
X160429848Y-93350964D02*
G01*
X160480040Y-93356787D01*
X160497189Y-93364359D01*
X160520670Y-93369030D01*
X160545807Y-93385826D01*
X160565695Y-93394608D01*
X160579278Y-93408191D01*
X160601776Y-93423224D01*
X160616808Y-93445721D01*
X160630391Y-93459304D01*
X160639171Y-93479189D01*
X160655970Y-93504330D01*
X160660640Y-93527811D01*
X160668212Y-93544959D01*
X160674036Y-93595163D01*
X160674999Y-93600002D01*
X160674999Y-93603458D01*
X160675000Y-93603467D01*
X160675000Y-94790197D01*
X160675000Y-95899999D01*
X160674034Y-95904851D01*
X160668212Y-95955040D01*
X160660641Y-95972185D01*
X160655970Y-95995670D01*
X160639170Y-96020812D01*
X160630391Y-96040695D01*
X160616810Y-96054275D01*
X160601776Y-96076776D01*
X160579275Y-96091810D01*
X160565695Y-96105391D01*
X160545812Y-96114170D01*
X160520670Y-96130970D01*
X160497187Y-96135640D01*
X160480040Y-96143212D01*
X160429836Y-96149036D01*
X160424998Y-96149999D01*
X160421541Y-96149999D01*
X160421533Y-96150000D01*
X158128467Y-96150000D01*
X158128466Y-96149999D01*
X158125001Y-96150000D01*
X158120149Y-96149035D01*
X158069959Y-96143212D01*
X158052812Y-96135640D01*
X158029330Y-96130970D01*
X158004189Y-96114171D01*
X157984304Y-96105391D01*
X157970721Y-96091808D01*
X157948224Y-96076776D01*
X157933191Y-96054278D01*
X157919608Y-96040695D01*
X157910826Y-96020807D01*
X157894030Y-95995670D01*
X157889360Y-95972191D01*
X157881787Y-95955040D01*
X157875963Y-95904836D01*
X157875001Y-95899998D01*
X157875000Y-95896540D01*
X157875000Y-95896532D01*
X157875000Y-93603467D01*
X157875000Y-93603466D01*
X157875000Y-93600001D01*
X157875964Y-93595151D01*
X157881787Y-93544959D01*
X157889359Y-93527808D01*
X157894030Y-93504330D01*
X157910825Y-93479193D01*
X157919608Y-93459304D01*
X157933193Y-93445718D01*
X157948224Y-93423224D01*
X157970718Y-93408193D01*
X157984304Y-93394608D01*
X158004193Y-93385825D01*
X158029330Y-93369030D01*
X158052807Y-93364360D01*
X158069959Y-93356787D01*
X158120165Y-93350963D01*
X158125002Y-93350001D01*
X158128458Y-93350000D01*
X158128467Y-93350000D01*
X160421533Y-93350000D01*
X160424999Y-93350000D01*
X160429848Y-93350964D01*
G37*
G36*
X164601824Y-93388682D02*
G01*
X164810757Y-93456569D01*
X165006498Y-93556304D01*
X165184227Y-93685432D01*
X165339568Y-93840773D01*
X165468696Y-94018502D01*
X165568431Y-94214243D01*
X165636318Y-94423176D01*
X165670684Y-94640157D01*
X165670684Y-94859843D01*
X165636318Y-95076824D01*
X165568431Y-95285757D01*
X165468696Y-95481498D01*
X165339568Y-95659227D01*
X165184227Y-95814568D01*
X165006498Y-95943696D01*
X164810757Y-96043431D01*
X164601824Y-96111318D01*
X164384843Y-96145684D01*
X164165157Y-96145684D01*
X163948176Y-96111318D01*
X163739243Y-96043431D01*
X163543502Y-95943696D01*
X163365773Y-95814568D01*
X163210432Y-95659227D01*
X163081304Y-95481498D01*
X162981569Y-95285757D01*
X162913682Y-95076824D01*
X162879316Y-94859843D01*
X162879316Y-94640157D01*
X162913682Y-94423176D01*
X162981569Y-94214243D01*
X163081304Y-94018502D01*
X163210432Y-93840773D01*
X163365773Y-93685432D01*
X163543502Y-93556304D01*
X163739243Y-93456569D01*
X163948176Y-93388682D01*
X164165157Y-93354316D01*
X164384843Y-93354316D01*
X164601824Y-93388682D01*
G37*
G36*
X143040285Y-93543060D02*
G01*
X143221397Y-93618079D01*
X143384393Y-93726990D01*
X143523010Y-93865607D01*
X143631921Y-94028603D01*
X143706940Y-94209715D01*
X143745185Y-94401983D01*
X143745185Y-94598017D01*
X143706940Y-94790285D01*
X143631921Y-94971397D01*
X143523010Y-95134393D01*
X143384393Y-95273010D01*
X143221397Y-95381921D01*
X143040285Y-95456940D01*
X142848017Y-95495185D01*
X142651983Y-95495185D01*
X142459715Y-95456940D01*
X142278603Y-95381921D01*
X142115607Y-95273010D01*
X141976990Y-95134393D01*
X141868079Y-94971397D01*
X141793060Y-94790285D01*
X141754815Y-94598017D01*
X141754815Y-94401983D01*
X141793060Y-94209715D01*
X141868079Y-94028603D01*
X141976990Y-93865607D01*
X142115607Y-93726990D01*
X142278603Y-93618079D01*
X142459715Y-93543060D01*
X142651983Y-93504815D01*
X142848017Y-93504815D01*
X143040285Y-93543060D01*
G37*
G36*
X149540285Y-93543060D02*
G01*
X149721397Y-93618079D01*
X149884393Y-93726990D01*
X150023010Y-93865607D01*
X150131921Y-94028603D01*
X150206940Y-94209715D01*
X150245185Y-94401983D01*
X150245185Y-94598017D01*
X150206940Y-94790285D01*
X150131921Y-94971397D01*
X150023010Y-95134393D01*
X149884393Y-95273010D01*
X149721397Y-95381921D01*
X149540285Y-95456940D01*
X149348017Y-95495185D01*
X149151983Y-95495185D01*
X148959715Y-95456940D01*
X148778603Y-95381921D01*
X148615607Y-95273010D01*
X148476990Y-95134393D01*
X148368079Y-94971397D01*
X148293060Y-94790285D01*
X148254815Y-94598017D01*
X148254815Y-94401983D01*
X148293060Y-94209715D01*
X148368079Y-94028603D01*
X148476990Y-93865607D01*
X148615607Y-93726990D01*
X148778603Y-93618079D01*
X148959715Y-93543060D01*
X149151983Y-93504815D01*
X149348017Y-93504815D01*
X149540285Y-93543060D01*
G37*
G36*
X154203199Y-93620142D02*
G01*
X154329978Y-93672655D01*
X154444075Y-93748893D01*
X154541107Y-93845925D01*
X154617345Y-93960022D01*
X154669858Y-94086801D01*
X154696629Y-94221388D01*
X154696629Y-94358612D01*
X154669858Y-94493199D01*
X154617345Y-94619978D01*
X154541107Y-94734075D01*
X154444075Y-94831107D01*
X154329978Y-94907345D01*
X154203199Y-94959858D01*
X154068612Y-94986629D01*
X153931388Y-94986629D01*
X153796801Y-94959858D01*
X153670022Y-94907345D01*
X153555925Y-94831107D01*
X153458893Y-94734075D01*
X153382655Y-94619978D01*
X153330142Y-94493199D01*
X153303371Y-94358612D01*
X153303371Y-94221388D01*
X153330142Y-94086801D01*
X153382655Y-93960022D01*
X153458893Y-93845925D01*
X153555925Y-93748893D01*
X153670022Y-93672655D01*
X153796801Y-93620142D01*
X153931388Y-93593371D01*
X154068612Y-93593371D01*
X154203199Y-93620142D01*
G37*
G36*
X143040285Y-89043060D02*
G01*
X143221397Y-89118079D01*
X143384393Y-89226990D01*
X143523010Y-89365607D01*
X143631921Y-89528603D01*
X143706940Y-89709715D01*
X143745185Y-89901983D01*
X143745185Y-90098017D01*
X143706940Y-90290285D01*
X143631921Y-90471397D01*
X143523010Y-90634393D01*
X143384393Y-90773010D01*
X143221397Y-90881921D01*
X143040285Y-90956940D01*
X142848017Y-90995185D01*
X142651983Y-90995185D01*
X142459715Y-90956940D01*
X142278603Y-90881921D01*
X142115607Y-90773010D01*
X141976990Y-90634393D01*
X141868079Y-90471397D01*
X141793060Y-90290285D01*
X141754815Y-90098017D01*
X141754815Y-89901983D01*
X141793060Y-89709715D01*
X141868079Y-89528603D01*
X141976990Y-89365607D01*
X142115607Y-89226990D01*
X142278603Y-89118079D01*
X142459715Y-89043060D01*
X142651983Y-89004815D01*
X142848017Y-89004815D01*
X143040285Y-89043060D01*
G37*
G36*
X149540285Y-89043060D02*
G01*
X149721397Y-89118079D01*
X149884393Y-89226990D01*
X150023010Y-89365607D01*
X150131921Y-89528603D01*
X150206940Y-89709715D01*
X150245185Y-89901983D01*
X150245185Y-90098017D01*
X150206940Y-90290285D01*
X150131921Y-90471397D01*
X150023010Y-90634393D01*
X149884393Y-90773010D01*
X149721397Y-90881921D01*
X149540285Y-90956940D01*
X149348017Y-90995185D01*
X149151983Y-90995185D01*
X148959715Y-90956940D01*
X148778603Y-90881921D01*
X148615607Y-90773010D01*
X148476990Y-90634393D01*
X148368079Y-90471397D01*
X148293060Y-90290285D01*
X148254815Y-90098017D01*
X148254815Y-89901983D01*
X148293060Y-89709715D01*
X148368079Y-89528603D01*
X148476990Y-89365607D01*
X148615607Y-89226990D01*
X148778603Y-89118079D01*
X148959715Y-89043060D01*
X149151983Y-89004815D01*
X149348017Y-89004815D01*
X149540285Y-89043060D01*
G37*
G36*
X154203199Y-88540142D02*
G01*
X154329978Y-88592655D01*
X154444075Y-88668893D01*
X154541107Y-88765925D01*
X154617345Y-88880022D01*
X154669858Y-89006801D01*
X154696629Y-89141388D01*
X154696629Y-89278612D01*
X154669858Y-89413199D01*
X154617345Y-89539978D01*
X154541107Y-89654075D01*
X154444075Y-89751107D01*
X154329978Y-89827345D01*
X154203199Y-89879858D01*
X154068612Y-89906629D01*
X153931388Y-89906629D01*
X153796801Y-89879858D01*
X153670022Y-89827345D01*
X153555925Y-89751107D01*
X153458893Y-89654075D01*
X153382655Y-89539978D01*
X153330142Y-89413199D01*
X153303371Y-89278612D01*
X153303371Y-89141388D01*
X153330142Y-89006801D01*
X153382655Y-88880022D01*
X153458893Y-88765925D01*
X153555925Y-88668893D01*
X153670022Y-88592655D01*
X153796801Y-88540142D01*
X153931388Y-88513371D01*
X154068612Y-88513371D01*
X154203199Y-88540142D01*
G37*
G36*
X167873199Y-87580142D02*
G01*
X167999978Y-87632655D01*
X168114075Y-87708893D01*
X168211107Y-87805925D01*
X168287345Y-87920022D01*
X168339858Y-88046801D01*
X168366629Y-88181388D01*
X168366629Y-88318612D01*
X168339858Y-88453199D01*
X168287345Y-88579978D01*
X168211107Y-88694075D01*
X168114075Y-88791107D01*
X167999978Y-88867345D01*
X167873199Y-88919858D01*
X167738612Y-88946629D01*
X167601388Y-88946629D01*
X167466801Y-88919858D01*
X167340022Y-88867345D01*
X167225925Y-88791107D01*
X167128893Y-88694075D01*
X167052655Y-88579978D01*
X167000142Y-88453199D01*
X166973371Y-88318612D01*
X166973371Y-88181388D01*
X167000142Y-88046801D01*
X167052655Y-87920022D01*
X167128893Y-87805925D01*
X167225925Y-87708893D01*
X167340022Y-87632655D01*
X167466801Y-87580142D01*
X167601388Y-87553371D01*
X167738612Y-87553371D01*
X167873199Y-87580142D01*
G37*
G36*
X172953199Y-87580142D02*
G01*
X173079978Y-87632655D01*
X173194075Y-87708893D01*
X173291107Y-87805925D01*
X173367345Y-87920022D01*
X173419858Y-88046801D01*
X173446629Y-88181388D01*
X173446629Y-88318612D01*
X173419858Y-88453199D01*
X173367345Y-88579978D01*
X173291107Y-88694075D01*
X173194075Y-88791107D01*
X173079978Y-88867345D01*
X172953199Y-88919858D01*
X172818612Y-88946629D01*
X172681388Y-88946629D01*
X172546801Y-88919858D01*
X172420022Y-88867345D01*
X172305925Y-88791107D01*
X172208893Y-88694075D01*
X172132655Y-88579978D01*
X172080142Y-88453199D01*
X172053371Y-88318612D01*
X172053371Y-88181388D01*
X172080142Y-88046801D01*
X172132655Y-87920022D01*
X172208893Y-87805925D01*
X172305925Y-87708893D01*
X172420022Y-87632655D01*
X172546801Y-87580142D01*
X172681388Y-87553371D01*
X172818612Y-87553371D01*
X172953199Y-87580142D01*
G37*
G36*
X157172228Y-86624448D02*
G01*
X157317117Y-86684463D01*
X157447515Y-86771592D01*
X157558408Y-86882485D01*
X157645537Y-87012883D01*
X157705552Y-87157772D01*
X157736148Y-87311586D01*
X157736148Y-87468414D01*
X157705552Y-87622228D01*
X157645537Y-87767117D01*
X157558408Y-87897515D01*
X157447515Y-88008408D01*
X157317117Y-88095537D01*
X157172228Y-88155552D01*
X157018414Y-88186148D01*
X156861586Y-88186148D01*
X156707772Y-88155552D01*
X156562883Y-88095537D01*
X156432485Y-88008408D01*
X156321592Y-87897515D01*
X156234463Y-87767117D01*
X156174448Y-87622228D01*
X156143852Y-87468414D01*
X156143852Y-87311586D01*
X156174448Y-87157772D01*
X156234463Y-87012883D01*
X156321592Y-86882485D01*
X156432485Y-86771592D01*
X156562883Y-86684463D01*
X156707772Y-86624448D01*
X156861586Y-86593852D01*
X157018414Y-86593852D01*
X157172228Y-86624448D01*
G37*
G36*
X164792228Y-86624448D02*
G01*
X164937117Y-86684463D01*
X165067515Y-86771592D01*
X165178408Y-86882485D01*
X165265537Y-87012883D01*
X165325552Y-87157772D01*
X165356148Y-87311586D01*
X165356148Y-87468414D01*
X165325552Y-87622228D01*
X165265537Y-87767117D01*
X165178408Y-87897515D01*
X165067515Y-88008408D01*
X164937117Y-88095537D01*
X164792228Y-88155552D01*
X164638414Y-88186148D01*
X164481586Y-88186148D01*
X164327772Y-88155552D01*
X164182883Y-88095537D01*
X164052485Y-88008408D01*
X163941592Y-87897515D01*
X163854463Y-87767117D01*
X163794448Y-87622228D01*
X163763852Y-87468414D01*
X163763852Y-87311586D01*
X163794448Y-87157772D01*
X163854463Y-87012883D01*
X163941592Y-86882485D01*
X164052485Y-86771592D01*
X164182883Y-86684463D01*
X164327772Y-86624448D01*
X164481586Y-86593852D01*
X164638414Y-86593852D01*
X164792228Y-86624448D01*
G37*
G36*
X167873199Y-84430142D02*
G01*
X167999978Y-84482655D01*
X168114075Y-84558893D01*
X168211107Y-84655925D01*
X168287345Y-84770022D01*
X168339858Y-84896801D01*
X168366629Y-85031388D01*
X168366629Y-85168612D01*
X168339858Y-85303199D01*
X168287345Y-85429978D01*
X168211107Y-85544075D01*
X168114075Y-85641107D01*
X167999978Y-85717345D01*
X167873199Y-85769858D01*
X167738612Y-85796629D01*
X167601388Y-85796629D01*
X167466801Y-85769858D01*
X167340022Y-85717345D01*
X167225925Y-85641107D01*
X167128893Y-85544075D01*
X167052655Y-85429978D01*
X167000142Y-85303199D01*
X166973371Y-85168612D01*
X166973371Y-85031388D01*
X167000142Y-84896801D01*
X167052655Y-84770022D01*
X167128893Y-84655925D01*
X167225925Y-84558893D01*
X167340022Y-84482655D01*
X167466801Y-84430142D01*
X167601388Y-84403371D01*
X167738612Y-84403371D01*
X167873199Y-84430142D01*
G37*
G36*
X172953199Y-84430142D02*
G01*
X173079978Y-84482655D01*
X173194075Y-84558893D01*
X173291107Y-84655925D01*
X173367345Y-84770022D01*
X173419858Y-84896801D01*
X173446629Y-85031388D01*
X173446629Y-85168612D01*
X173419858Y-85303199D01*
X173367345Y-85429978D01*
X173291107Y-85544075D01*
X173194075Y-85641107D01*
X173079978Y-85717345D01*
X172953199Y-85769858D01*
X172818612Y-85796629D01*
X172681388Y-85796629D01*
X172546801Y-85769858D01*
X172420022Y-85717345D01*
X172305925Y-85641107D01*
X172208893Y-85544075D01*
X172132655Y-85429978D01*
X172080142Y-85303199D01*
X172053371Y-85168612D01*
X172053371Y-85031388D01*
X172080142Y-84896801D01*
X172132655Y-84770022D01*
X172208893Y-84655925D01*
X172305925Y-84558893D01*
X172420022Y-84482655D01*
X172546801Y-84430142D01*
X172681388Y-84403371D01*
X172818612Y-84403371D01*
X172953199Y-84430142D01*
G37*
G36*
X157172228Y-84084448D02*
G01*
X157317117Y-84144463D01*
X157447515Y-84231592D01*
X157558408Y-84342485D01*
X157645537Y-84472883D01*
X157705552Y-84617772D01*
X157736148Y-84771586D01*
X157736148Y-84928414D01*
X157705552Y-85082228D01*
X157645537Y-85227117D01*
X157558408Y-85357515D01*
X157447515Y-85468408D01*
X157317117Y-85555537D01*
X157172228Y-85615552D01*
X157018414Y-85646148D01*
X156861586Y-85646148D01*
X156707772Y-85615552D01*
X156562883Y-85555537D01*
X156432485Y-85468408D01*
X156321592Y-85357515D01*
X156234463Y-85227117D01*
X156174448Y-85082228D01*
X156143852Y-84928414D01*
X156143852Y-84771586D01*
X156174448Y-84617772D01*
X156234463Y-84472883D01*
X156321592Y-84342485D01*
X156432485Y-84231592D01*
X156562883Y-84144463D01*
X156707772Y-84084448D01*
X156861586Y-84053852D01*
X157018414Y-84053852D01*
X157172228Y-84084448D01*
G37*
G36*
X164792228Y-84084448D02*
G01*
X164937117Y-84144463D01*
X165067515Y-84231592D01*
X165178408Y-84342485D01*
X165265537Y-84472883D01*
X165325552Y-84617772D01*
X165356148Y-84771586D01*
X165356148Y-84928414D01*
X165325552Y-85082228D01*
X165265537Y-85227117D01*
X165178408Y-85357515D01*
X165067515Y-85468408D01*
X164937117Y-85555537D01*
X164792228Y-85615552D01*
X164638414Y-85646148D01*
X164481586Y-85646148D01*
X164327772Y-85615552D01*
X164182883Y-85555537D01*
X164052485Y-85468408D01*
X163941592Y-85357515D01*
X163854463Y-85227117D01*
X163794448Y-85082228D01*
X163763852Y-84928414D01*
X163763852Y-84771586D01*
X163794448Y-84617772D01*
X163854463Y-84472883D01*
X163941592Y-84342485D01*
X164052485Y-84231592D01*
X164182883Y-84144463D01*
X164327772Y-84084448D01*
X164481586Y-84053852D01*
X164638414Y-84053852D01*
X164792228Y-84084448D01*
G37*
G36*
X142790285Y-83043060D02*
G01*
X142971397Y-83118079D01*
X143134393Y-83226990D01*
X143273010Y-83365607D01*
X143381921Y-83528603D01*
X143456940Y-83709715D01*
X143495185Y-83901983D01*
X143495185Y-84098017D01*
X143456940Y-84290285D01*
X143381921Y-84471397D01*
X143273010Y-84634393D01*
X143134393Y-84773010D01*
X142971397Y-84881921D01*
X142790285Y-84956940D01*
X142598017Y-84995185D01*
X142401983Y-84995185D01*
X142209715Y-84956940D01*
X142028603Y-84881921D01*
X141865607Y-84773010D01*
X141726990Y-84634393D01*
X141618079Y-84471397D01*
X141543060Y-84290285D01*
X141504815Y-84098017D01*
X141504815Y-83901983D01*
X141543060Y-83709715D01*
X141618079Y-83528603D01*
X141726990Y-83365607D01*
X141865607Y-83226990D01*
X142028603Y-83118079D01*
X142209715Y-83043060D01*
X142401983Y-83004815D01*
X142598017Y-83004815D01*
X142790285Y-83043060D01*
G37*
G36*
X149290285Y-83043060D02*
G01*
X149471397Y-83118079D01*
X149634393Y-83226990D01*
X149773010Y-83365607D01*
X149881921Y-83528603D01*
X149956940Y-83709715D01*
X149995185Y-83901983D01*
X149995185Y-84098017D01*
X149956940Y-84290285D01*
X149881921Y-84471397D01*
X149773010Y-84634393D01*
X149634393Y-84773010D01*
X149471397Y-84881921D01*
X149290285Y-84956940D01*
X149098017Y-84995185D01*
X148901983Y-84995185D01*
X148709715Y-84956940D01*
X148528603Y-84881921D01*
X148365607Y-84773010D01*
X148226990Y-84634393D01*
X148118079Y-84471397D01*
X148043060Y-84290285D01*
X148004815Y-84098017D01*
X148004815Y-83901983D01*
X148043060Y-83709715D01*
X148118079Y-83528603D01*
X148226990Y-83365607D01*
X148365607Y-83226990D01*
X148528603Y-83118079D01*
X148709715Y-83043060D01*
X148901983Y-83004815D01*
X149098017Y-83004815D01*
X149290285Y-83043060D01*
G37*
G36*
X153953199Y-83370142D02*
G01*
X154079978Y-83422655D01*
X154194075Y-83498893D01*
X154291107Y-83595925D01*
X154367345Y-83710022D01*
X154419858Y-83836801D01*
X154446629Y-83971388D01*
X154446629Y-84108612D01*
X154419858Y-84243199D01*
X154367345Y-84369978D01*
X154291107Y-84484075D01*
X154194075Y-84581107D01*
X154079978Y-84657345D01*
X153953199Y-84709858D01*
X153818612Y-84736629D01*
X153681388Y-84736629D01*
X153546801Y-84709858D01*
X153420022Y-84657345D01*
X153305925Y-84581107D01*
X153208893Y-84484075D01*
X153132655Y-84369978D01*
X153080142Y-84243199D01*
X153053371Y-84108612D01*
X153053371Y-83971388D01*
X153080142Y-83836801D01*
X153132655Y-83710022D01*
X153208893Y-83595925D01*
X153305925Y-83498893D01*
X153420022Y-83422655D01*
X153546801Y-83370142D01*
X153681388Y-83343371D01*
X153818612Y-83343371D01*
X153953199Y-83370142D01*
G37*
G36*
X157172228Y-81544448D02*
G01*
X157317117Y-81604463D01*
X157447515Y-81691592D01*
X157558408Y-81802485D01*
X157645537Y-81932883D01*
X157705552Y-82077772D01*
X157736148Y-82231586D01*
X157736148Y-82388414D01*
X157705552Y-82542228D01*
X157645537Y-82687117D01*
X157558408Y-82817515D01*
X157447515Y-82928408D01*
X157317117Y-83015537D01*
X157172228Y-83075552D01*
X157018414Y-83106148D01*
X156861586Y-83106148D01*
X156707772Y-83075552D01*
X156562883Y-83015537D01*
X156432485Y-82928408D01*
X156321592Y-82817515D01*
X156234463Y-82687117D01*
X156174448Y-82542228D01*
X156143852Y-82388414D01*
X156143852Y-82231586D01*
X156174448Y-82077772D01*
X156234463Y-81932883D01*
X156321592Y-81802485D01*
X156432485Y-81691592D01*
X156562883Y-81604463D01*
X156707772Y-81544448D01*
X156861586Y-81513852D01*
X157018414Y-81513852D01*
X157172228Y-81544448D01*
G37*
G36*
X164792228Y-81544448D02*
G01*
X164937117Y-81604463D01*
X165067515Y-81691592D01*
X165178408Y-81802485D01*
X165265537Y-81932883D01*
X165325552Y-82077772D01*
X165356148Y-82231586D01*
X165356148Y-82388414D01*
X165325552Y-82542228D01*
X165265537Y-82687117D01*
X165178408Y-82817515D01*
X165067515Y-82928408D01*
X164937117Y-83015537D01*
X164792228Y-83075552D01*
X164638414Y-83106148D01*
X164481586Y-83106148D01*
X164327772Y-83075552D01*
X164182883Y-83015537D01*
X164052485Y-82928408D01*
X163941592Y-82817515D01*
X163854463Y-82687117D01*
X163794448Y-82542228D01*
X163763852Y-82388414D01*
X163763852Y-82231586D01*
X163794448Y-82077772D01*
X163854463Y-81932883D01*
X163941592Y-81802485D01*
X164052485Y-81691592D01*
X164182883Y-81604463D01*
X164327772Y-81544448D01*
X164481586Y-81513852D01*
X164638414Y-81513852D01*
X164792228Y-81544448D01*
G37*
G36*
X176982228Y-81144448D02*
G01*
X177127117Y-81204463D01*
X177257515Y-81291592D01*
X177368408Y-81402485D01*
X177455537Y-81532883D01*
X177515552Y-81677772D01*
X177546148Y-81831586D01*
X177546148Y-81988414D01*
X177515552Y-82142228D01*
X177455537Y-82287117D01*
X177368408Y-82417515D01*
X177257515Y-82528408D01*
X177127117Y-82615537D01*
X176982228Y-82675552D01*
X176828414Y-82706148D01*
X176671586Y-82706148D01*
X176517772Y-82675552D01*
X176372883Y-82615537D01*
X176242485Y-82528408D01*
X176131592Y-82417515D01*
X176044463Y-82287117D01*
X175984448Y-82142228D01*
X175953852Y-81988414D01*
X175953852Y-81831586D01*
X175984448Y-81677772D01*
X176044463Y-81532883D01*
X176131592Y-81402485D01*
X176242485Y-81291592D01*
X176372883Y-81204463D01*
X176517772Y-81144448D01*
X176671586Y-81113852D01*
X176828414Y-81113852D01*
X176982228Y-81144448D01*
G37*
G36*
X182062228Y-81144448D02*
G01*
X182207117Y-81204463D01*
X182337515Y-81291592D01*
X182448408Y-81402485D01*
X182535537Y-81532883D01*
X182595552Y-81677772D01*
X182626148Y-81831586D01*
X182626148Y-81988414D01*
X182595552Y-82142228D01*
X182535537Y-82287117D01*
X182448408Y-82417515D01*
X182337515Y-82528408D01*
X182207117Y-82615537D01*
X182062228Y-82675552D01*
X181908414Y-82706148D01*
X181751586Y-82706148D01*
X181597772Y-82675552D01*
X181452883Y-82615537D01*
X181322485Y-82528408D01*
X181211592Y-82417515D01*
X181124463Y-82287117D01*
X181064448Y-82142228D01*
X181033852Y-81988414D01*
X181033852Y-81831586D01*
X181064448Y-81677772D01*
X181124463Y-81532883D01*
X181211592Y-81402485D01*
X181322485Y-81291592D01*
X181452883Y-81204463D01*
X181597772Y-81144448D01*
X181751586Y-81113852D01*
X181908414Y-81113852D01*
X182062228Y-81144448D01*
G37*
G36*
X167873199Y-81280142D02*
G01*
X167999978Y-81332655D01*
X168114075Y-81408893D01*
X168211107Y-81505925D01*
X168287345Y-81620022D01*
X168339858Y-81746801D01*
X168366629Y-81881388D01*
X168366629Y-82018612D01*
X168339858Y-82153199D01*
X168287345Y-82279978D01*
X168211107Y-82394075D01*
X168114075Y-82491107D01*
X167999978Y-82567345D01*
X167873199Y-82619858D01*
X167738612Y-82646629D01*
X167601388Y-82646629D01*
X167466801Y-82619858D01*
X167340022Y-82567345D01*
X167225925Y-82491107D01*
X167128893Y-82394075D01*
X167052655Y-82279978D01*
X167000142Y-82153199D01*
X166973371Y-82018612D01*
X166973371Y-81881388D01*
X167000142Y-81746801D01*
X167052655Y-81620022D01*
X167128893Y-81505925D01*
X167225925Y-81408893D01*
X167340022Y-81332655D01*
X167466801Y-81280142D01*
X167601388Y-81253371D01*
X167738612Y-81253371D01*
X167873199Y-81280142D01*
G37*
G36*
X172953199Y-81280142D02*
G01*
X173079978Y-81332655D01*
X173194075Y-81408893D01*
X173291107Y-81505925D01*
X173367345Y-81620022D01*
X173419858Y-81746801D01*
X173446629Y-81881388D01*
X173446629Y-82018612D01*
X173419858Y-82153199D01*
X173367345Y-82279978D01*
X173291107Y-82394075D01*
X173194075Y-82491107D01*
X173079978Y-82567345D01*
X172953199Y-82619858D01*
X172818612Y-82646629D01*
X172681388Y-82646629D01*
X172546801Y-82619858D01*
X172420022Y-82567345D01*
X172305925Y-82491107D01*
X172208893Y-82394075D01*
X172132655Y-82279978D01*
X172080142Y-82153199D01*
X172053371Y-82018612D01*
X172053371Y-81881388D01*
X172080142Y-81746801D01*
X172132655Y-81620022D01*
X172208893Y-81505925D01*
X172305925Y-81408893D01*
X172420022Y-81332655D01*
X172546801Y-81280142D01*
X172681388Y-81253371D01*
X172818612Y-81253371D01*
X172953199Y-81280142D01*
G37*
G36*
X157172228Y-79004448D02*
G01*
X157317117Y-79064463D01*
X157447515Y-79151592D01*
X157558408Y-79262485D01*
X157645537Y-79392883D01*
X157705552Y-79537772D01*
X157736148Y-79691586D01*
X157736148Y-79848414D01*
X157705552Y-80002228D01*
X157645537Y-80147117D01*
X157558408Y-80277515D01*
X157447515Y-80388408D01*
X157317117Y-80475537D01*
X157172228Y-80535552D01*
X157018414Y-80566148D01*
X156861586Y-80566148D01*
X156707772Y-80535552D01*
X156562883Y-80475537D01*
X156432485Y-80388408D01*
X156321592Y-80277515D01*
X156234463Y-80147117D01*
X156174448Y-80002228D01*
X156143852Y-79848414D01*
X156143852Y-79691586D01*
X156174448Y-79537772D01*
X156234463Y-79392883D01*
X156321592Y-79262485D01*
X156432485Y-79151592D01*
X156562883Y-79064463D01*
X156707772Y-79004448D01*
X156861586Y-78973852D01*
X157018414Y-78973852D01*
X157172228Y-79004448D01*
G37*
G36*
X164792228Y-79004448D02*
G01*
X164937117Y-79064463D01*
X165067515Y-79151592D01*
X165178408Y-79262485D01*
X165265537Y-79392883D01*
X165325552Y-79537772D01*
X165356148Y-79691586D01*
X165356148Y-79848414D01*
X165325552Y-80002228D01*
X165265537Y-80147117D01*
X165178408Y-80277515D01*
X165067515Y-80388408D01*
X164937117Y-80475537D01*
X164792228Y-80535552D01*
X164638414Y-80566148D01*
X164481586Y-80566148D01*
X164327772Y-80535552D01*
X164182883Y-80475537D01*
X164052485Y-80388408D01*
X163941592Y-80277515D01*
X163854463Y-80147117D01*
X163794448Y-80002228D01*
X163763852Y-79848414D01*
X163763852Y-79691586D01*
X163794448Y-79537772D01*
X163854463Y-79392883D01*
X163941592Y-79262485D01*
X164052485Y-79151592D01*
X164182883Y-79064463D01*
X164327772Y-79004448D01*
X164481586Y-78973852D01*
X164638414Y-78973852D01*
X164792228Y-79004448D01*
G37*
G36*
X142790285Y-78543060D02*
G01*
X142971397Y-78618079D01*
X143134393Y-78726990D01*
X143273010Y-78865607D01*
X143381921Y-79028603D01*
X143456940Y-79209715D01*
X143495185Y-79401983D01*
X143495185Y-79598017D01*
X143456940Y-79790285D01*
X143381921Y-79971397D01*
X143273010Y-80134393D01*
X143134393Y-80273010D01*
X142971397Y-80381921D01*
X142790285Y-80456940D01*
X142598017Y-80495185D01*
X142401983Y-80495185D01*
X142209715Y-80456940D01*
X142028603Y-80381921D01*
X141865607Y-80273010D01*
X141726990Y-80134393D01*
X141618079Y-79971397D01*
X141543060Y-79790285D01*
X141504815Y-79598017D01*
X141504815Y-79401983D01*
X141543060Y-79209715D01*
X141618079Y-79028603D01*
X141726990Y-78865607D01*
X141865607Y-78726990D01*
X142028603Y-78618079D01*
X142209715Y-78543060D01*
X142401983Y-78504815D01*
X142598017Y-78504815D01*
X142790285Y-78543060D01*
G37*
G36*
X149290285Y-78543060D02*
G01*
X149471397Y-78618079D01*
X149634393Y-78726990D01*
X149773010Y-78865607D01*
X149881921Y-79028603D01*
X149956940Y-79209715D01*
X149995185Y-79401983D01*
X149995185Y-79598017D01*
X149956940Y-79790285D01*
X149881921Y-79971397D01*
X149773010Y-80134393D01*
X149634393Y-80273010D01*
X149471397Y-80381921D01*
X149290285Y-80456940D01*
X149098017Y-80495185D01*
X148901983Y-80495185D01*
X148709715Y-80456940D01*
X148528603Y-80381921D01*
X148365607Y-80273010D01*
X148226990Y-80134393D01*
X148118079Y-79971397D01*
X148043060Y-79790285D01*
X148004815Y-79598017D01*
X148004815Y-79401983D01*
X148043060Y-79209715D01*
X148118079Y-79028603D01*
X148226990Y-78865607D01*
X148365607Y-78726990D01*
X148528603Y-78618079D01*
X148709715Y-78543060D01*
X148901983Y-78504815D01*
X149098017Y-78504815D01*
X149290285Y-78543060D01*
G37*
G36*
X176982228Y-78604448D02*
G01*
X177127117Y-78664463D01*
X177257515Y-78751592D01*
X177368408Y-78862485D01*
X177455537Y-78992883D01*
X177515552Y-79137772D01*
X177546148Y-79291586D01*
X177546148Y-79448414D01*
X177515552Y-79602228D01*
X177455537Y-79747117D01*
X177368408Y-79877515D01*
X177257515Y-79988408D01*
X177127117Y-80075537D01*
X176982228Y-80135552D01*
X176828414Y-80166148D01*
X176671586Y-80166148D01*
X176517772Y-80135552D01*
X176372883Y-80075537D01*
X176242485Y-79988408D01*
X176131592Y-79877515D01*
X176044463Y-79747117D01*
X175984448Y-79602228D01*
X175953852Y-79448414D01*
X175953852Y-79291586D01*
X175984448Y-79137772D01*
X176044463Y-78992883D01*
X176131592Y-78862485D01*
X176242485Y-78751592D01*
X176372883Y-78664463D01*
X176517772Y-78604448D01*
X176671586Y-78573852D01*
X176828414Y-78573852D01*
X176982228Y-78604448D01*
G37*
G36*
X182062228Y-78604448D02*
G01*
X182207117Y-78664463D01*
X182337515Y-78751592D01*
X182448408Y-78862485D01*
X182535537Y-78992883D01*
X182595552Y-79137772D01*
X182626148Y-79291586D01*
X182626148Y-79448414D01*
X182595552Y-79602228D01*
X182535537Y-79747117D01*
X182448408Y-79877515D01*
X182337515Y-79988408D01*
X182207117Y-80075537D01*
X182062228Y-80135552D01*
X181908414Y-80166148D01*
X181751586Y-80166148D01*
X181597772Y-80135552D01*
X181452883Y-80075537D01*
X181322485Y-79988408D01*
X181211592Y-79877515D01*
X181124463Y-79747117D01*
X181064448Y-79602228D01*
X181033852Y-79448414D01*
X181033852Y-79291586D01*
X181064448Y-79137772D01*
X181124463Y-78992883D01*
X181211592Y-78862485D01*
X181322485Y-78751592D01*
X181452883Y-78664463D01*
X181597772Y-78604448D01*
X181751586Y-78573852D01*
X181908414Y-78573852D01*
X182062228Y-78604448D01*
G37*
G36*
X153953199Y-78290142D02*
G01*
X154079978Y-78342655D01*
X154194075Y-78418893D01*
X154291107Y-78515925D01*
X154367345Y-78630022D01*
X154419858Y-78756801D01*
X154446629Y-78891388D01*
X154446629Y-79028612D01*
X154419858Y-79163199D01*
X154367345Y-79289978D01*
X154291107Y-79404075D01*
X154194075Y-79501107D01*
X154079978Y-79577345D01*
X153953199Y-79629858D01*
X153818612Y-79656629D01*
X153681388Y-79656629D01*
X153546801Y-79629858D01*
X153420022Y-79577345D01*
X153305925Y-79501107D01*
X153208893Y-79404075D01*
X153132655Y-79289978D01*
X153080142Y-79163199D01*
X153053371Y-79028612D01*
X153053371Y-78891388D01*
X153080142Y-78756801D01*
X153132655Y-78630022D01*
X153208893Y-78515925D01*
X153305925Y-78418893D01*
X153420022Y-78342655D01*
X153546801Y-78290142D01*
X153681388Y-78263371D01*
X153818612Y-78263371D01*
X153953199Y-78290142D01*
G37*
G36*
X167873199Y-78130142D02*
G01*
X167999978Y-78182655D01*
X168114075Y-78258893D01*
X168211107Y-78355925D01*
X168287345Y-78470022D01*
X168339858Y-78596801D01*
X168366629Y-78731388D01*
X168366629Y-78868612D01*
X168339858Y-79003199D01*
X168287345Y-79129978D01*
X168211107Y-79244075D01*
X168114075Y-79341107D01*
X167999978Y-79417345D01*
X167873199Y-79469858D01*
X167738612Y-79496629D01*
X167601388Y-79496629D01*
X167466801Y-79469858D01*
X167340022Y-79417345D01*
X167225925Y-79341107D01*
X167128893Y-79244075D01*
X167052655Y-79129978D01*
X167000142Y-79003199D01*
X166973371Y-78868612D01*
X166973371Y-78731388D01*
X167000142Y-78596801D01*
X167052655Y-78470022D01*
X167128893Y-78355925D01*
X167225925Y-78258893D01*
X167340022Y-78182655D01*
X167466801Y-78130142D01*
X167601388Y-78103371D01*
X167738612Y-78103371D01*
X167873199Y-78130142D01*
G37*
G36*
X172953199Y-78130142D02*
G01*
X173079978Y-78182655D01*
X173194075Y-78258893D01*
X173291107Y-78355925D01*
X173367345Y-78470022D01*
X173419858Y-78596801D01*
X173446629Y-78731388D01*
X173446629Y-78868612D01*
X173419858Y-79003199D01*
X173367345Y-79129978D01*
X173291107Y-79244075D01*
X173194075Y-79341107D01*
X173079978Y-79417345D01*
X172953199Y-79469858D01*
X172818612Y-79496629D01*
X172681388Y-79496629D01*
X172546801Y-79469858D01*
X172420022Y-79417345D01*
X172305925Y-79341107D01*
X172208893Y-79244075D01*
X172132655Y-79129978D01*
X172080142Y-79003199D01*
X172053371Y-78868612D01*
X172053371Y-78731388D01*
X172080142Y-78596801D01*
X172132655Y-78470022D01*
X172208893Y-78355925D01*
X172305925Y-78258893D01*
X172420022Y-78182655D01*
X172546801Y-78130142D01*
X172681388Y-78103371D01*
X172818612Y-78103371D01*
X172953199Y-78130142D01*
G37*
G36*
X157172228Y-76464448D02*
G01*
X157317117Y-76524463D01*
X157447515Y-76611592D01*
X157558408Y-76722485D01*
X157645537Y-76852883D01*
X157705552Y-76997772D01*
X157736148Y-77151586D01*
X157736148Y-77308414D01*
X157705552Y-77462228D01*
X157645537Y-77607117D01*
X157558408Y-77737515D01*
X157447515Y-77848408D01*
X157317117Y-77935537D01*
X157172228Y-77995552D01*
X157018414Y-78026148D01*
X156861586Y-78026148D01*
X156707772Y-77995552D01*
X156562883Y-77935537D01*
X156432485Y-77848408D01*
X156321592Y-77737515D01*
X156234463Y-77607117D01*
X156174448Y-77462228D01*
X156143852Y-77308414D01*
X156143852Y-77151586D01*
X156174448Y-76997772D01*
X156234463Y-76852883D01*
X156321592Y-76722485D01*
X156432485Y-76611592D01*
X156562883Y-76524463D01*
X156707772Y-76464448D01*
X156861586Y-76433852D01*
X157018414Y-76433852D01*
X157172228Y-76464448D01*
G37*
G36*
X164792228Y-76464448D02*
G01*
X164937117Y-76524463D01*
X165067515Y-76611592D01*
X165178408Y-76722485D01*
X165265537Y-76852883D01*
X165325552Y-76997772D01*
X165356148Y-77151586D01*
X165356148Y-77308414D01*
X165325552Y-77462228D01*
X165265537Y-77607117D01*
X165178408Y-77737515D01*
X165067515Y-77848408D01*
X164937117Y-77935537D01*
X164792228Y-77995552D01*
X164638414Y-78026148D01*
X164481586Y-78026148D01*
X164327772Y-77995552D01*
X164182883Y-77935537D01*
X164052485Y-77848408D01*
X163941592Y-77737515D01*
X163854463Y-77607117D01*
X163794448Y-77462228D01*
X163763852Y-77308414D01*
X163763852Y-77151586D01*
X163794448Y-76997772D01*
X163854463Y-76852883D01*
X163941592Y-76722485D01*
X164052485Y-76611592D01*
X164182883Y-76524463D01*
X164327772Y-76464448D01*
X164481586Y-76433852D01*
X164638414Y-76433852D01*
X164792228Y-76464448D01*
G37*
G36*
X176982228Y-76064448D02*
G01*
X177127117Y-76124463D01*
X177257515Y-76211592D01*
X177368408Y-76322485D01*
X177455537Y-76452883D01*
X177515552Y-76597772D01*
X177546148Y-76751586D01*
X177546148Y-76908414D01*
X177515552Y-77062228D01*
X177455537Y-77207117D01*
X177368408Y-77337515D01*
X177257515Y-77448408D01*
X177127117Y-77535537D01*
X176982228Y-77595552D01*
X176828414Y-77626148D01*
X176671586Y-77626148D01*
X176517772Y-77595552D01*
X176372883Y-77535537D01*
X176242485Y-77448408D01*
X176131592Y-77337515D01*
X176044463Y-77207117D01*
X175984448Y-77062228D01*
X175953852Y-76908414D01*
X175953852Y-76751586D01*
X175984448Y-76597772D01*
X176044463Y-76452883D01*
X176131592Y-76322485D01*
X176242485Y-76211592D01*
X176372883Y-76124463D01*
X176517772Y-76064448D01*
X176671586Y-76033852D01*
X176828414Y-76033852D01*
X176982228Y-76064448D01*
G37*
G36*
X182062228Y-76064448D02*
G01*
X182207117Y-76124463D01*
X182337515Y-76211592D01*
X182448408Y-76322485D01*
X182535537Y-76452883D01*
X182595552Y-76597772D01*
X182626148Y-76751586D01*
X182626148Y-76908414D01*
X182595552Y-77062228D01*
X182535537Y-77207117D01*
X182448408Y-77337515D01*
X182337515Y-77448408D01*
X182207117Y-77535537D01*
X182062228Y-77595552D01*
X181908414Y-77626148D01*
X181751586Y-77626148D01*
X181597772Y-77595552D01*
X181452883Y-77535537D01*
X181322485Y-77448408D01*
X181211592Y-77337515D01*
X181124463Y-77207117D01*
X181064448Y-77062228D01*
X181033852Y-76908414D01*
X181033852Y-76751586D01*
X181064448Y-76597772D01*
X181124463Y-76452883D01*
X181211592Y-76322485D01*
X181322485Y-76211592D01*
X181452883Y-76124463D01*
X181597772Y-76064448D01*
X181751586Y-76033852D01*
X181908414Y-76033852D01*
X182062228Y-76064448D01*
G37*
G36*
X167873199Y-74980142D02*
G01*
X167999978Y-75032655D01*
X168114075Y-75108893D01*
X168211107Y-75205925D01*
X168287345Y-75320022D01*
X168339858Y-75446801D01*
X168366629Y-75581388D01*
X168366629Y-75718612D01*
X168339858Y-75853199D01*
X168287345Y-75979978D01*
X168211107Y-76094075D01*
X168114075Y-76191107D01*
X167999978Y-76267345D01*
X167873199Y-76319858D01*
X167738612Y-76346629D01*
X167601388Y-76346629D01*
X167466801Y-76319858D01*
X167340022Y-76267345D01*
X167225925Y-76191107D01*
X167128893Y-76094075D01*
X167052655Y-75979978D01*
X167000142Y-75853199D01*
X166973371Y-75718612D01*
X166973371Y-75581388D01*
X167000142Y-75446801D01*
X167052655Y-75320022D01*
X167128893Y-75205925D01*
X167225925Y-75108893D01*
X167340022Y-75032655D01*
X167466801Y-74980142D01*
X167601388Y-74953371D01*
X167738612Y-74953371D01*
X167873199Y-74980142D01*
G37*
G36*
X172953199Y-74980142D02*
G01*
X173079978Y-75032655D01*
X173194075Y-75108893D01*
X173291107Y-75205925D01*
X173367345Y-75320022D01*
X173419858Y-75446801D01*
X173446629Y-75581388D01*
X173446629Y-75718612D01*
X173419858Y-75853199D01*
X173367345Y-75979978D01*
X173291107Y-76094075D01*
X173194075Y-76191107D01*
X173079978Y-76267345D01*
X172953199Y-76319858D01*
X172818612Y-76346629D01*
X172681388Y-76346629D01*
X172546801Y-76319858D01*
X172420022Y-76267345D01*
X172305925Y-76191107D01*
X172208893Y-76094075D01*
X172132655Y-75979978D01*
X172080142Y-75853199D01*
X172053371Y-75718612D01*
X172053371Y-75581388D01*
X172080142Y-75446801D01*
X172132655Y-75320022D01*
X172208893Y-75205925D01*
X172305925Y-75108893D01*
X172420022Y-75032655D01*
X172546801Y-74980142D01*
X172681388Y-74953371D01*
X172818612Y-74953371D01*
X172953199Y-74980142D01*
G37*
G36*
X157172228Y-73924448D02*
G01*
X157317117Y-73984463D01*
X157447515Y-74071592D01*
X157558408Y-74182485D01*
X157645537Y-74312883D01*
X157705552Y-74457772D01*
X157736148Y-74611586D01*
X157736148Y-74768414D01*
X157705552Y-74922228D01*
X157645537Y-75067117D01*
X157558408Y-75197515D01*
X157447515Y-75308408D01*
X157317117Y-75395537D01*
X157172228Y-75455552D01*
X157018414Y-75486148D01*
X156861586Y-75486148D01*
X156707772Y-75455552D01*
X156562883Y-75395537D01*
X156432485Y-75308408D01*
X156321592Y-75197515D01*
X156234463Y-75067117D01*
X156174448Y-74922228D01*
X156143852Y-74768414D01*
X156143852Y-74611586D01*
X156174448Y-74457772D01*
X156234463Y-74312883D01*
X156321592Y-74182485D01*
X156432485Y-74071592D01*
X156562883Y-73984463D01*
X156707772Y-73924448D01*
X156861586Y-73893852D01*
X157018414Y-73893852D01*
X157172228Y-73924448D01*
G37*
G36*
X164792228Y-73924448D02*
G01*
X164937117Y-73984463D01*
X165067515Y-74071592D01*
X165178408Y-74182485D01*
X165265537Y-74312883D01*
X165325552Y-74457772D01*
X165356148Y-74611586D01*
X165356148Y-74768414D01*
X165325552Y-74922228D01*
X165265537Y-75067117D01*
X165178408Y-75197515D01*
X165067515Y-75308408D01*
X164937117Y-75395537D01*
X164792228Y-75455552D01*
X164638414Y-75486148D01*
X164481586Y-75486148D01*
X164327772Y-75455552D01*
X164182883Y-75395537D01*
X164052485Y-75308408D01*
X163941592Y-75197515D01*
X163854463Y-75067117D01*
X163794448Y-74922228D01*
X163763852Y-74768414D01*
X163763852Y-74611586D01*
X163794448Y-74457772D01*
X163854463Y-74312883D01*
X163941592Y-74182485D01*
X164052485Y-74071592D01*
X164182883Y-73984463D01*
X164327772Y-73924448D01*
X164481586Y-73893852D01*
X164638414Y-73893852D01*
X164792228Y-73924448D01*
G37*
G36*
X176982228Y-73524448D02*
G01*
X177127117Y-73584463D01*
X177257515Y-73671592D01*
X177368408Y-73782485D01*
X177455537Y-73912883D01*
X177515552Y-74057772D01*
X177546148Y-74211586D01*
X177546148Y-74368414D01*
X177515552Y-74522228D01*
X177455537Y-74667117D01*
X177368408Y-74797515D01*
X177257515Y-74908408D01*
X177127117Y-74995537D01*
X176982228Y-75055552D01*
X176828414Y-75086148D01*
X176671586Y-75086148D01*
X176517772Y-75055552D01*
X176372883Y-74995537D01*
X176242485Y-74908408D01*
X176131592Y-74797515D01*
X176044463Y-74667117D01*
X175984448Y-74522228D01*
X175953852Y-74368414D01*
X175953852Y-74211586D01*
X175984448Y-74057772D01*
X176044463Y-73912883D01*
X176131592Y-73782485D01*
X176242485Y-73671592D01*
X176372883Y-73584463D01*
X176517772Y-73524448D01*
X176671586Y-73493852D01*
X176828414Y-73493852D01*
X176982228Y-73524448D01*
G37*
G36*
X182062228Y-73524448D02*
G01*
X182207117Y-73584463D01*
X182337515Y-73671592D01*
X182448408Y-73782485D01*
X182535537Y-73912883D01*
X182595552Y-74057772D01*
X182626148Y-74211586D01*
X182626148Y-74368414D01*
X182595552Y-74522228D01*
X182535537Y-74667117D01*
X182448408Y-74797515D01*
X182337515Y-74908408D01*
X182207117Y-74995537D01*
X182062228Y-75055552D01*
X181908414Y-75086148D01*
X181751586Y-75086148D01*
X181597772Y-75055552D01*
X181452883Y-74995537D01*
X181322485Y-74908408D01*
X181211592Y-74797515D01*
X181124463Y-74667117D01*
X181064448Y-74522228D01*
X181033852Y-74368414D01*
X181033852Y-74211586D01*
X181064448Y-74057772D01*
X181124463Y-73912883D01*
X181211592Y-73782485D01*
X181322485Y-73671592D01*
X181452883Y-73584463D01*
X181597772Y-73524448D01*
X181751586Y-73493852D01*
X181908414Y-73493852D01*
X182062228Y-73524448D01*
G37*
G36*
X153953199Y-73620142D02*
G01*
X154079978Y-73672655D01*
X154194075Y-73748893D01*
X154291107Y-73845925D01*
X154367345Y-73960022D01*
X154419858Y-74086801D01*
X154446629Y-74221388D01*
X154446629Y-74358612D01*
X154419858Y-74493199D01*
X154367345Y-74619978D01*
X154291107Y-74734075D01*
X154194075Y-74831107D01*
X154079978Y-74907345D01*
X153953199Y-74959858D01*
X153818612Y-74986629D01*
X153681388Y-74986629D01*
X153546801Y-74959858D01*
X153420022Y-74907345D01*
X153305925Y-74831107D01*
X153208893Y-74734075D01*
X153132655Y-74619978D01*
X153080142Y-74493199D01*
X153053371Y-74358612D01*
X153053371Y-74221388D01*
X153080142Y-74086801D01*
X153132655Y-73960022D01*
X153208893Y-73845925D01*
X153305925Y-73748893D01*
X153420022Y-73672655D01*
X153546801Y-73620142D01*
X153681388Y-73593371D01*
X153818612Y-73593371D01*
X153953199Y-73620142D01*
G37*
G36*
X142790285Y-72793060D02*
G01*
X142971397Y-72868079D01*
X143134393Y-72976990D01*
X143273010Y-73115607D01*
X143381921Y-73278603D01*
X143456940Y-73459715D01*
X143495185Y-73651983D01*
X143495185Y-73848017D01*
X143456940Y-74040285D01*
X143381921Y-74221397D01*
X143273010Y-74384393D01*
X143134393Y-74523010D01*
X142971397Y-74631921D01*
X142790285Y-74706940D01*
X142598017Y-74745185D01*
X142401983Y-74745185D01*
X142209715Y-74706940D01*
X142028603Y-74631921D01*
X141865607Y-74523010D01*
X141726990Y-74384393D01*
X141618079Y-74221397D01*
X141543060Y-74040285D01*
X141504815Y-73848017D01*
X141504815Y-73651983D01*
X141543060Y-73459715D01*
X141618079Y-73278603D01*
X141726990Y-73115607D01*
X141865607Y-72976990D01*
X142028603Y-72868079D01*
X142209715Y-72793060D01*
X142401983Y-72754815D01*
X142598017Y-72754815D01*
X142790285Y-72793060D01*
G37*
G36*
X149290285Y-72793060D02*
G01*
X149471397Y-72868079D01*
X149634393Y-72976990D01*
X149773010Y-73115607D01*
X149881921Y-73278603D01*
X149956940Y-73459715D01*
X149995185Y-73651983D01*
X149995185Y-73848017D01*
X149956940Y-74040285D01*
X149881921Y-74221397D01*
X149773010Y-74384393D01*
X149634393Y-74523010D01*
X149471397Y-74631921D01*
X149290285Y-74706940D01*
X149098017Y-74745185D01*
X148901983Y-74745185D01*
X148709715Y-74706940D01*
X148528603Y-74631921D01*
X148365607Y-74523010D01*
X148226990Y-74384393D01*
X148118079Y-74221397D01*
X148043060Y-74040285D01*
X148004815Y-73848017D01*
X148004815Y-73651983D01*
X148043060Y-73459715D01*
X148118079Y-73278603D01*
X148226990Y-73115607D01*
X148365607Y-72976990D01*
X148528603Y-72868079D01*
X148709715Y-72793060D01*
X148901983Y-72754815D01*
X149098017Y-72754815D01*
X149290285Y-72793060D01*
G37*
G36*
X167873199Y-71830142D02*
G01*
X167999978Y-71882655D01*
X168114075Y-71958893D01*
X168211107Y-72055925D01*
X168287345Y-72170022D01*
X168339858Y-72296801D01*
X168366629Y-72431388D01*
X168366629Y-72568612D01*
X168339858Y-72703199D01*
X168287345Y-72829978D01*
X168211107Y-72944075D01*
X168114075Y-73041107D01*
X167999978Y-73117345D01*
X167873199Y-73169858D01*
X167738612Y-73196629D01*
X167601388Y-73196629D01*
X167466801Y-73169858D01*
X167340022Y-73117345D01*
X167225925Y-73041107D01*
X167128893Y-72944075D01*
X167052655Y-72829978D01*
X167000142Y-72703199D01*
X166973371Y-72568612D01*
X166973371Y-72431388D01*
X167000142Y-72296801D01*
X167052655Y-72170022D01*
X167128893Y-72055925D01*
X167225925Y-71958893D01*
X167340022Y-71882655D01*
X167466801Y-71830142D01*
X167601388Y-71803371D01*
X167738612Y-71803371D01*
X167873199Y-71830142D01*
G37*
G36*
X172953199Y-71830142D02*
G01*
X173079978Y-71882655D01*
X173194075Y-71958893D01*
X173291107Y-72055925D01*
X173367345Y-72170022D01*
X173419858Y-72296801D01*
X173446629Y-72431388D01*
X173446629Y-72568612D01*
X173419858Y-72703199D01*
X173367345Y-72829978D01*
X173291107Y-72944075D01*
X173194075Y-73041107D01*
X173079978Y-73117345D01*
X172953199Y-73169858D01*
X172818612Y-73196629D01*
X172681388Y-73196629D01*
X172546801Y-73169858D01*
X172420022Y-73117345D01*
X172305925Y-73041107D01*
X172208893Y-72944075D01*
X172132655Y-72829978D01*
X172080142Y-72703199D01*
X172053371Y-72568612D01*
X172053371Y-72431388D01*
X172080142Y-72296801D01*
X172132655Y-72170022D01*
X172208893Y-72055925D01*
X172305925Y-71958893D01*
X172420022Y-71882655D01*
X172546801Y-71830142D01*
X172681388Y-71803371D01*
X172818612Y-71803371D01*
X172953199Y-71830142D01*
G37*
G36*
X157172228Y-71384448D02*
G01*
X157317117Y-71444463D01*
X157447515Y-71531592D01*
X157558408Y-71642485D01*
X157645537Y-71772883D01*
X157705552Y-71917772D01*
X157736148Y-72071586D01*
X157736148Y-72228414D01*
X157705552Y-72382228D01*
X157645537Y-72527117D01*
X157558408Y-72657515D01*
X157447515Y-72768408D01*
X157317117Y-72855537D01*
X157172228Y-72915552D01*
X157018414Y-72946148D01*
X156861586Y-72946148D01*
X156707772Y-72915552D01*
X156562883Y-72855537D01*
X156432485Y-72768408D01*
X156321592Y-72657515D01*
X156234463Y-72527117D01*
X156174448Y-72382228D01*
X156143852Y-72228414D01*
X156143852Y-72071586D01*
X156174448Y-71917772D01*
X156234463Y-71772883D01*
X156321592Y-71642485D01*
X156432485Y-71531592D01*
X156562883Y-71444463D01*
X156707772Y-71384448D01*
X156861586Y-71353852D01*
X157018414Y-71353852D01*
X157172228Y-71384448D01*
G37*
G36*
X164792228Y-71384448D02*
G01*
X164937117Y-71444463D01*
X165067515Y-71531592D01*
X165178408Y-71642485D01*
X165265537Y-71772883D01*
X165325552Y-71917772D01*
X165356148Y-72071586D01*
X165356148Y-72228414D01*
X165325552Y-72382228D01*
X165265537Y-72527117D01*
X165178408Y-72657515D01*
X165067515Y-72768408D01*
X164937117Y-72855537D01*
X164792228Y-72915552D01*
X164638414Y-72946148D01*
X164481586Y-72946148D01*
X164327772Y-72915552D01*
X164182883Y-72855537D01*
X164052485Y-72768408D01*
X163941592Y-72657515D01*
X163854463Y-72527117D01*
X163794448Y-72382228D01*
X163763852Y-72228414D01*
X163763852Y-72071586D01*
X163794448Y-71917772D01*
X163854463Y-71772883D01*
X163941592Y-71642485D01*
X164052485Y-71531592D01*
X164182883Y-71444463D01*
X164327772Y-71384448D01*
X164481586Y-71353852D01*
X164638414Y-71353852D01*
X164792228Y-71384448D01*
G37*
G36*
X177550000Y-72550000D02*
G01*
X175950000Y-72550000D01*
X175950000Y-70950000D01*
X177550000Y-70950000D01*
X177550000Y-72550000D01*
G37*
G36*
X182062228Y-70984448D02*
G01*
X182207117Y-71044463D01*
X182337515Y-71131592D01*
X182448408Y-71242485D01*
X182535537Y-71372883D01*
X182595552Y-71517772D01*
X182626148Y-71671586D01*
X182626148Y-71828414D01*
X182595552Y-71982228D01*
X182535537Y-72127117D01*
X182448408Y-72257515D01*
X182337515Y-72368408D01*
X182207117Y-72455537D01*
X182062228Y-72515552D01*
X181908414Y-72546148D01*
X181751586Y-72546148D01*
X181597772Y-72515552D01*
X181452883Y-72455537D01*
X181322485Y-72368408D01*
X181211592Y-72257515D01*
X181124463Y-72127117D01*
X181064448Y-71982228D01*
X181033852Y-71828414D01*
X181033852Y-71671586D01*
X181064448Y-71517772D01*
X181124463Y-71372883D01*
X181211592Y-71242485D01*
X181322485Y-71131592D01*
X181452883Y-71044463D01*
X181597772Y-70984448D01*
X181751586Y-70953852D01*
X181908414Y-70953852D01*
X182062228Y-70984448D01*
G37*
G36*
X157494850Y-68810964D02*
G01*
X157545040Y-68816787D01*
X157562189Y-68824359D01*
X157585671Y-68829030D01*
X157610810Y-68845827D01*
X157630696Y-68854608D01*
X157644277Y-68868189D01*
X157666777Y-68883223D01*
X157681810Y-68905722D01*
X157695391Y-68919303D01*
X157704170Y-68939186D01*
X157720970Y-68964329D01*
X157725641Y-68987812D01*
X157733212Y-69004959D01*
X157739033Y-69055139D01*
X157740000Y-69060000D01*
X157740000Y-70160000D01*
X157739032Y-70164863D01*
X157733212Y-70215040D01*
X157725641Y-70232185D01*
X157720970Y-70255671D01*
X157704169Y-70280815D01*
X157695391Y-70300696D01*
X157681812Y-70314274D01*
X157666777Y-70336777D01*
X157644274Y-70351812D01*
X157630696Y-70365391D01*
X157610815Y-70374169D01*
X157585671Y-70390970D01*
X157562185Y-70395641D01*
X157545040Y-70403212D01*
X157494861Y-70409032D01*
X157490000Y-70410000D01*
X156390000Y-70410000D01*
X156385138Y-70409032D01*
X156334959Y-70403212D01*
X156317812Y-70395641D01*
X156294329Y-70390970D01*
X156269186Y-70374170D01*
X156249303Y-70365391D01*
X156235722Y-70351810D01*
X156213223Y-70336777D01*
X156198189Y-70314277D01*
X156184608Y-70300696D01*
X156175827Y-70280810D01*
X156159030Y-70255671D01*
X156154359Y-70232189D01*
X156146787Y-70215040D01*
X156140964Y-70164849D01*
X156140000Y-70160000D01*
X156140000Y-69060000D01*
X156140964Y-69055150D01*
X156146787Y-69004959D01*
X156154359Y-68987808D01*
X156159030Y-68964329D01*
X156175826Y-68939191D01*
X156184608Y-68919303D01*
X156198191Y-68905719D01*
X156213223Y-68883223D01*
X156235719Y-68868191D01*
X156249303Y-68854608D01*
X156269191Y-68845826D01*
X156294329Y-68829030D01*
X156317808Y-68824359D01*
X156334959Y-68816787D01*
X156385151Y-68810964D01*
X156390000Y-68810000D01*
X157490000Y-68810000D01*
X157494850Y-68810964D01*
G37*
G36*
X164792228Y-68844448D02*
G01*
X164937117Y-68904463D01*
X165067515Y-68991592D01*
X165178408Y-69102485D01*
X165265537Y-69232883D01*
X165325552Y-69377772D01*
X165356148Y-69531586D01*
X165356148Y-69688414D01*
X165325552Y-69842228D01*
X165265537Y-69987117D01*
X165178408Y-70117515D01*
X165067515Y-70228408D01*
X164937117Y-70315537D01*
X164792228Y-70375552D01*
X164638414Y-70406148D01*
X164481586Y-70406148D01*
X164327772Y-70375552D01*
X164182883Y-70315537D01*
X164052485Y-70228408D01*
X163941592Y-70117515D01*
X163854463Y-69987117D01*
X163794448Y-69842228D01*
X163763852Y-69688414D01*
X163763852Y-69531586D01*
X163794448Y-69377772D01*
X163854463Y-69232883D01*
X163941592Y-69102485D01*
X164052485Y-68991592D01*
X164182883Y-68904463D01*
X164327772Y-68844448D01*
X164481586Y-68813852D01*
X164638414Y-68813852D01*
X164792228Y-68844448D01*
G37*
G36*
X142790285Y-68293060D02*
G01*
X142971397Y-68368079D01*
X143134393Y-68476990D01*
X143273010Y-68615607D01*
X143381921Y-68778603D01*
X143456940Y-68959715D01*
X143495185Y-69151983D01*
X143495185Y-69348017D01*
X143456940Y-69540285D01*
X143381921Y-69721397D01*
X143273010Y-69884393D01*
X143134393Y-70023010D01*
X142971397Y-70131921D01*
X142790285Y-70206940D01*
X142598017Y-70245185D01*
X142401983Y-70245185D01*
X142209715Y-70206940D01*
X142028603Y-70131921D01*
X141865607Y-70023010D01*
X141726990Y-69884393D01*
X141618079Y-69721397D01*
X141543060Y-69540285D01*
X141504815Y-69348017D01*
X141504815Y-69151983D01*
X141543060Y-68959715D01*
X141618079Y-68778603D01*
X141726990Y-68615607D01*
X141865607Y-68476990D01*
X142028603Y-68368079D01*
X142209715Y-68293060D01*
X142401983Y-68254815D01*
X142598017Y-68254815D01*
X142790285Y-68293060D01*
G37*
G36*
X149290285Y-68293060D02*
G01*
X149471397Y-68368079D01*
X149634393Y-68476990D01*
X149773010Y-68615607D01*
X149881921Y-68778603D01*
X149956940Y-68959715D01*
X149995185Y-69151983D01*
X149995185Y-69348017D01*
X149956940Y-69540285D01*
X149881921Y-69721397D01*
X149773010Y-69884393D01*
X149634393Y-70023010D01*
X149471397Y-70131921D01*
X149290285Y-70206940D01*
X149098017Y-70245185D01*
X148901983Y-70245185D01*
X148709715Y-70206940D01*
X148528603Y-70131921D01*
X148365607Y-70023010D01*
X148226990Y-69884393D01*
X148118079Y-69721397D01*
X148043060Y-69540285D01*
X148004815Y-69348017D01*
X148004815Y-69151983D01*
X148043060Y-68959715D01*
X148118079Y-68778603D01*
X148226990Y-68615607D01*
X148365607Y-68476990D01*
X148528603Y-68368079D01*
X148709715Y-68293060D01*
X148901983Y-68254815D01*
X149098017Y-68254815D01*
X149290285Y-68293060D01*
G37*
G36*
X167873199Y-68680142D02*
G01*
X167999978Y-68732655D01*
X168114075Y-68808893D01*
X168211107Y-68905925D01*
X168287345Y-69020022D01*
X168339858Y-69146801D01*
X168366629Y-69281388D01*
X168366629Y-69418612D01*
X168339858Y-69553199D01*
X168287345Y-69679978D01*
X168211107Y-69794075D01*
X168114075Y-69891107D01*
X167999978Y-69967345D01*
X167873199Y-70019858D01*
X167738612Y-70046629D01*
X167601388Y-70046629D01*
X167466801Y-70019858D01*
X167340022Y-69967345D01*
X167225925Y-69891107D01*
X167128893Y-69794075D01*
X167052655Y-69679978D01*
X167000142Y-69553199D01*
X166973371Y-69418612D01*
X166973371Y-69281388D01*
X167000142Y-69146801D01*
X167052655Y-69020022D01*
X167128893Y-68905925D01*
X167225925Y-68808893D01*
X167340022Y-68732655D01*
X167466801Y-68680142D01*
X167601388Y-68653371D01*
X167738612Y-68653371D01*
X167873199Y-68680142D01*
G37*
G36*
X172953199Y-68680142D02*
G01*
X173079978Y-68732655D01*
X173194075Y-68808893D01*
X173291107Y-68905925D01*
X173367345Y-69020022D01*
X173419858Y-69146801D01*
X173446629Y-69281388D01*
X173446629Y-69418612D01*
X173419858Y-69553199D01*
X173367345Y-69679978D01*
X173291107Y-69794075D01*
X173194075Y-69891107D01*
X173079978Y-69967345D01*
X172953199Y-70019858D01*
X172818612Y-70046629D01*
X172681388Y-70046629D01*
X172546801Y-70019858D01*
X172420022Y-69967345D01*
X172305925Y-69891107D01*
X172208893Y-69794075D01*
X172132655Y-69679978D01*
X172080142Y-69553199D01*
X172053371Y-69418612D01*
X172053371Y-69281388D01*
X172080142Y-69146801D01*
X172132655Y-69020022D01*
X172208893Y-68905925D01*
X172305925Y-68808893D01*
X172420022Y-68732655D01*
X172546801Y-68680142D01*
X172681388Y-68653371D01*
X172818612Y-68653371D01*
X172953199Y-68680142D01*
G37*
G36*
X153953199Y-68540142D02*
G01*
X154079978Y-68592655D01*
X154194075Y-68668893D01*
X154291107Y-68765925D01*
X154367345Y-68880022D01*
X154419858Y-69006801D01*
X154446629Y-69141388D01*
X154446629Y-69278612D01*
X154419858Y-69413199D01*
X154367345Y-69539978D01*
X154291107Y-69654075D01*
X154194075Y-69751107D01*
X154079978Y-69827345D01*
X153953199Y-69879858D01*
X153818612Y-69906629D01*
X153681388Y-69906629D01*
X153546801Y-69879858D01*
X153420022Y-69827345D01*
X153305925Y-69751107D01*
X153208893Y-69654075D01*
X153132655Y-69539978D01*
X153080142Y-69413199D01*
X153053371Y-69278612D01*
X153053371Y-69141388D01*
X153080142Y-69006801D01*
X153132655Y-68880022D01*
X153208893Y-68765925D01*
X153305925Y-68668893D01*
X153420022Y-68592655D01*
X153546801Y-68540142D01*
X153681388Y-68513371D01*
X153818612Y-68513371D01*
X153953199Y-68540142D01*
G37*
G36*
X159982228Y-64734448D02*
G01*
X160127117Y-64794463D01*
X160257515Y-64881592D01*
X160368408Y-64992485D01*
X160455537Y-65122883D01*
X160515552Y-65267772D01*
X160546148Y-65421586D01*
X160546148Y-65578414D01*
X160515552Y-65732228D01*
X160455537Y-65877117D01*
X160368408Y-66007515D01*
X160257515Y-66118408D01*
X160127117Y-66205537D01*
X159982228Y-66265552D01*
X159828414Y-66296148D01*
X159671586Y-66296148D01*
X159517772Y-66265552D01*
X159372883Y-66205537D01*
X159242485Y-66118408D01*
X159131592Y-66007515D01*
X159044463Y-65877117D01*
X158984448Y-65732228D01*
X158953852Y-65578414D01*
X158953852Y-65421586D01*
X158984448Y-65267772D01*
X159044463Y-65122883D01*
X159131592Y-64992485D01*
X159242485Y-64881592D01*
X159372883Y-64794463D01*
X159517772Y-64734448D01*
X159671586Y-64703852D01*
X159828414Y-64703852D01*
X159982228Y-64734448D01*
G37*
G36*
X162482228Y-64734448D02*
G01*
X162627117Y-64794463D01*
X162757515Y-64881592D01*
X162868408Y-64992485D01*
X162955537Y-65122883D01*
X163015552Y-65267772D01*
X163046148Y-65421586D01*
X163046148Y-65578414D01*
X163015552Y-65732228D01*
X162955537Y-65877117D01*
X162868408Y-66007515D01*
X162757515Y-66118408D01*
X162627117Y-66205537D01*
X162482228Y-66265552D01*
X162328414Y-66296148D01*
X162171586Y-66296148D01*
X162017772Y-66265552D01*
X161872883Y-66205537D01*
X161742485Y-66118408D01*
X161631592Y-66007515D01*
X161544463Y-65877117D01*
X161484448Y-65732228D01*
X161453852Y-65578414D01*
X161453852Y-65421586D01*
X161484448Y-65267772D01*
X161544463Y-65122883D01*
X161631592Y-64992485D01*
X161742485Y-64881592D01*
X161872883Y-64794463D01*
X162017772Y-64734448D01*
X162171586Y-64703852D01*
X162328414Y-64703852D01*
X162482228Y-64734448D01*
G37*
M02*
