%TF.GenerationSoftware,KiCad,Pcbnew,10.0.3*%
%TF.CreationDate,2026-07-07T12:03:59+05:45*%
%TF.ProjectId,DS3231 RTC Module,44533332-3331-4205-9254-43204d6f6475,rev?*%
%TF.SameCoordinates,Original*%
%TF.FileFunction,Soldermask,Top*%
%TF.FilePolarity,Negative*%
%FSLAX46Y46*%
G04 Gerber Fmt 4.6, Leading zero omitted, Abs format (unit mm)*
G04 Created by KiCad (PCBNEW 10.0.3) date 2026-07-07 12:03:59*
%MOMM*%
%LPD*%
G01*
G04 APERTURE LIST*
G04 APERTURE END LIST*
G36*
X178150672Y-101516508D02*
G01*
X178390735Y-101580833D01*
X178620349Y-101675942D01*
X178835583Y-101800208D01*
X179032757Y-101951504D01*
X179208496Y-102127243D01*
X179359792Y-102324417D01*
X179484058Y-102539651D01*
X179579167Y-102769265D01*
X179643492Y-103009328D01*
X179675932Y-103255734D01*
X179675932Y-103504266D01*
X179643492Y-103750672D01*
X179579167Y-103990735D01*
X179484058Y-104220349D01*
X179359792Y-104435583D01*
X179208496Y-104632757D01*
X179032757Y-104808496D01*
X178835583Y-104959792D01*
X178620349Y-105084058D01*
X178390735Y-105179167D01*
X178150672Y-105243492D01*
X177904266Y-105275932D01*
X177655734Y-105275932D01*
X177409328Y-105243492D01*
X177169265Y-105179167D01*
X176939651Y-105084058D01*
X176724417Y-104959792D01*
X176527243Y-104808496D01*
X176351504Y-104632757D01*
X176200208Y-104435583D01*
X176075942Y-104220349D01*
X175980833Y-103990735D01*
X175916508Y-103750672D01*
X175884068Y-103504266D01*
X175884068Y-103255734D01*
X175916508Y-103009328D01*
X175980833Y-102769265D01*
X176075942Y-102539651D01*
X176200208Y-102324417D01*
X176351504Y-102127243D01*
X176527243Y-101951504D01*
X176724417Y-101800208D01*
X176939651Y-101675942D01*
X177169265Y-101580833D01*
X177409328Y-101516508D01*
X177655734Y-101484068D01*
X177904266Y-101484068D01*
X178150672Y-101516508D01*
G37*
G36*
X165843536Y-102776464D02*
G01*
X165844701Y-102779278D01*
X165901327Y-102779278D01*
X165905263Y-102779278D01*
X165906557Y-102779448D01*
X166032636Y-102813230D01*
X166033842Y-102813730D01*
X166037244Y-102815694D01*
X166037246Y-102815695D01*
X166143473Y-102877025D01*
X166143475Y-102877026D01*
X166146881Y-102878993D01*
X166147917Y-102879787D01*
X166240213Y-102972083D01*
X166241007Y-102973119D01*
X166306270Y-103086158D01*
X166306770Y-103087364D01*
X166340552Y-103213443D01*
X166340722Y-103214737D01*
X166340722Y-103275298D01*
X166343536Y-103276464D01*
X166345000Y-103280000D01*
X166345000Y-103780000D01*
X166343536Y-103783536D01*
X166340251Y-103784895D01*
X166340000Y-103786160D01*
X166340000Y-104073838D01*
X166340251Y-104075104D01*
X166343536Y-104076464D01*
X166345000Y-104080000D01*
X166345000Y-104580000D01*
X166343536Y-104583536D01*
X166340722Y-104584701D01*
X166340722Y-104645263D01*
X166340552Y-104646557D01*
X166306770Y-104772636D01*
X166306270Y-104773842D01*
X166241007Y-104886881D01*
X166240213Y-104887917D01*
X166147917Y-104980213D01*
X166146881Y-104981007D01*
X166033842Y-105046270D01*
X166032636Y-105046770D01*
X165906557Y-105080552D01*
X165905263Y-105080722D01*
X165844701Y-105080722D01*
X165843536Y-105083536D01*
X165840000Y-105085000D01*
X165828066Y-105085000D01*
X165351934Y-105085000D01*
X165340000Y-105085000D01*
X165336464Y-105083536D01*
X165335299Y-105080722D01*
X165278673Y-105080722D01*
X165274737Y-105080722D01*
X165273443Y-105080552D01*
X165147364Y-105046770D01*
X165146158Y-105046270D01*
X165033119Y-104981007D01*
X165032083Y-104980213D01*
X164939787Y-104887917D01*
X164938993Y-104886881D01*
X164873730Y-104773842D01*
X164873230Y-104772636D01*
X164839448Y-104646557D01*
X164839278Y-104645263D01*
X164839278Y-104584701D01*
X164836464Y-104583536D01*
X164835000Y-104580000D01*
X164835000Y-104080000D01*
X164836464Y-104076464D01*
X164839748Y-104075104D01*
X164840000Y-104073838D01*
X164840000Y-103786160D01*
X164839748Y-103784895D01*
X164836464Y-103783536D01*
X164835000Y-103780000D01*
X164835000Y-103280000D01*
X164836464Y-103276464D01*
X164839278Y-103275298D01*
X164839278Y-103214737D01*
X164839448Y-103213443D01*
X164873230Y-103087364D01*
X164873730Y-103086158D01*
X164875692Y-103082758D01*
X164875695Y-103082753D01*
X164937025Y-102976526D01*
X164937028Y-102976520D01*
X164938993Y-102973119D01*
X164939787Y-102972083D01*
X165032083Y-102879787D01*
X165033119Y-102878993D01*
X165036520Y-102877028D01*
X165036526Y-102877025D01*
X165142753Y-102815695D01*
X165142758Y-102815692D01*
X165146158Y-102813730D01*
X165147364Y-102813230D01*
X165273443Y-102779448D01*
X165274737Y-102779278D01*
X165335299Y-102779278D01*
X165336464Y-102776464D01*
X165340000Y-102775000D01*
X165840000Y-102775000D01*
X165843536Y-102776464D01*
G37*
G36*
X169393536Y-102776464D02*
G01*
X169394701Y-102779278D01*
X169451327Y-102779278D01*
X169455263Y-102779278D01*
X169456557Y-102779448D01*
X169582636Y-102813230D01*
X169583842Y-102813730D01*
X169587244Y-102815694D01*
X169587246Y-102815695D01*
X169693473Y-102877025D01*
X169693475Y-102877026D01*
X169696881Y-102878993D01*
X169697917Y-102879787D01*
X169790213Y-102972083D01*
X169791007Y-102973119D01*
X169856270Y-103086158D01*
X169856770Y-103087364D01*
X169890552Y-103213443D01*
X169890722Y-103214737D01*
X169890722Y-103275298D01*
X169893536Y-103276464D01*
X169895000Y-103280000D01*
X169895000Y-103780000D01*
X169893536Y-103783536D01*
X169890251Y-103784895D01*
X169890000Y-103786160D01*
X169890000Y-104073838D01*
X169890251Y-104075104D01*
X169893536Y-104076464D01*
X169895000Y-104080000D01*
X169895000Y-104580000D01*
X169893536Y-104583536D01*
X169890722Y-104584701D01*
X169890722Y-104645263D01*
X169890552Y-104646557D01*
X169856770Y-104772636D01*
X169856270Y-104773842D01*
X169791007Y-104886881D01*
X169790213Y-104887917D01*
X169697917Y-104980213D01*
X169696881Y-104981007D01*
X169583842Y-105046270D01*
X169582636Y-105046770D01*
X169456557Y-105080552D01*
X169455263Y-105080722D01*
X169394701Y-105080722D01*
X169393536Y-105083536D01*
X169390000Y-105085000D01*
X169378066Y-105085000D01*
X168901934Y-105085000D01*
X168890000Y-105085000D01*
X168886464Y-105083536D01*
X168885299Y-105080722D01*
X168828673Y-105080722D01*
X168824737Y-105080722D01*
X168823443Y-105080552D01*
X168697364Y-105046770D01*
X168696158Y-105046270D01*
X168583119Y-104981007D01*
X168582083Y-104980213D01*
X168489787Y-104887917D01*
X168488993Y-104886881D01*
X168423730Y-104773842D01*
X168423230Y-104772636D01*
X168389448Y-104646557D01*
X168389278Y-104645263D01*
X168389278Y-104584701D01*
X168386464Y-104583536D01*
X168385000Y-104580000D01*
X168385000Y-104080000D01*
X168386464Y-104076464D01*
X168389748Y-104075104D01*
X168390000Y-104073838D01*
X168390000Y-103786160D01*
X168389748Y-103784895D01*
X168386464Y-103783536D01*
X168385000Y-103780000D01*
X168385000Y-103280000D01*
X168386464Y-103276464D01*
X168389278Y-103275298D01*
X168389278Y-103214737D01*
X168389448Y-103213443D01*
X168423230Y-103087364D01*
X168423730Y-103086158D01*
X168425692Y-103082758D01*
X168425695Y-103082753D01*
X168487025Y-102976526D01*
X168487028Y-102976520D01*
X168488993Y-102973119D01*
X168489787Y-102972083D01*
X168582083Y-102879787D01*
X168583119Y-102878993D01*
X168586520Y-102877028D01*
X168586526Y-102877025D01*
X168692753Y-102815695D01*
X168692758Y-102815692D01*
X168696158Y-102813730D01*
X168697364Y-102813230D01*
X168823443Y-102779448D01*
X168824737Y-102779278D01*
X168885299Y-102779278D01*
X168886464Y-102776464D01*
X168890000Y-102775000D01*
X169390000Y-102775000D01*
X169393536Y-102776464D01*
G37*
G36*
X172943536Y-102776464D02*
G01*
X172944701Y-102779278D01*
X173001327Y-102779278D01*
X173005263Y-102779278D01*
X173006557Y-102779448D01*
X173132636Y-102813230D01*
X173133842Y-102813730D01*
X173137244Y-102815694D01*
X173137246Y-102815695D01*
X173243473Y-102877025D01*
X173243475Y-102877026D01*
X173246881Y-102878993D01*
X173247917Y-102879787D01*
X173340213Y-102972083D01*
X173341007Y-102973119D01*
X173406270Y-103086158D01*
X173406770Y-103087364D01*
X173440552Y-103213443D01*
X173440722Y-103214737D01*
X173440722Y-103275298D01*
X173443536Y-103276464D01*
X173445000Y-103280000D01*
X173445000Y-103780000D01*
X173443536Y-103783536D01*
X173440251Y-103784895D01*
X173440000Y-103786160D01*
X173440000Y-104073838D01*
X173440251Y-104075104D01*
X173443536Y-104076464D01*
X173445000Y-104080000D01*
X173445000Y-104580000D01*
X173443536Y-104583536D01*
X173440722Y-104584701D01*
X173440722Y-104645263D01*
X173440552Y-104646557D01*
X173406770Y-104772636D01*
X173406270Y-104773842D01*
X173341007Y-104886881D01*
X173340213Y-104887917D01*
X173247917Y-104980213D01*
X173246881Y-104981007D01*
X173133842Y-105046270D01*
X173132636Y-105046770D01*
X173006557Y-105080552D01*
X173005263Y-105080722D01*
X172944701Y-105080722D01*
X172943536Y-105083536D01*
X172940000Y-105085000D01*
X172928066Y-105085000D01*
X172451934Y-105085000D01*
X172440000Y-105085000D01*
X172436464Y-105083536D01*
X172435299Y-105080722D01*
X172378673Y-105080722D01*
X172374737Y-105080722D01*
X172373443Y-105080552D01*
X172247364Y-105046770D01*
X172246158Y-105046270D01*
X172133119Y-104981007D01*
X172132083Y-104980213D01*
X172039787Y-104887917D01*
X172038993Y-104886881D01*
X171973730Y-104773842D01*
X171973230Y-104772636D01*
X171939448Y-104646557D01*
X171939278Y-104645263D01*
X171939278Y-104584701D01*
X171936464Y-104583536D01*
X171935000Y-104580000D01*
X171935000Y-104080000D01*
X171936464Y-104076464D01*
X171939748Y-104075104D01*
X171940000Y-104073838D01*
X171940000Y-103786160D01*
X171939748Y-103784895D01*
X171936464Y-103783536D01*
X171935000Y-103780000D01*
X171935000Y-103280000D01*
X171936464Y-103276464D01*
X171939278Y-103275298D01*
X171939278Y-103214737D01*
X171939448Y-103213443D01*
X171973230Y-103087364D01*
X171973730Y-103086158D01*
X171975692Y-103082758D01*
X171975695Y-103082753D01*
X172037025Y-102976526D01*
X172037028Y-102976520D01*
X172038993Y-102973119D01*
X172039787Y-102972083D01*
X172132083Y-102879787D01*
X172133119Y-102878993D01*
X172136520Y-102877028D01*
X172136526Y-102877025D01*
X172242753Y-102815695D01*
X172242758Y-102815692D01*
X172246158Y-102813730D01*
X172247364Y-102813230D01*
X172373443Y-102779448D01*
X172374737Y-102779278D01*
X172435299Y-102779278D01*
X172436464Y-102776464D01*
X172440000Y-102775000D01*
X172940000Y-102775000D01*
X172943536Y-102776464D01*
G37*
G36*
X159237735Y-102523973D02*
G01*
X159295158Y-102562342D01*
X159333527Y-102619765D01*
X159347000Y-102687500D01*
X159347000Y-104437500D01*
X159333527Y-104505235D01*
X159295158Y-104562658D01*
X159237735Y-104601027D01*
X159170000Y-104614500D01*
X158720000Y-104614500D01*
X158652265Y-104601027D01*
X158594842Y-104562658D01*
X158556473Y-104505235D01*
X158543000Y-104437500D01*
X158543000Y-102687500D01*
X158556473Y-102619765D01*
X158594842Y-102562342D01*
X158652265Y-102523973D01*
X158720000Y-102510500D01*
X159170000Y-102510500D01*
X159237735Y-102523973D01*
G37*
G36*
X160507735Y-102523973D02*
G01*
X160565158Y-102562342D01*
X160603527Y-102619765D01*
X160617000Y-102687500D01*
X160617000Y-104437500D01*
X160603527Y-104505235D01*
X160565158Y-104562658D01*
X160507735Y-104601027D01*
X160440000Y-104614500D01*
X159990000Y-104614500D01*
X159922265Y-104601027D01*
X159864842Y-104562658D01*
X159826473Y-104505235D01*
X159813000Y-104437500D01*
X159813000Y-102687500D01*
X159826473Y-102619765D01*
X159864842Y-102562342D01*
X159922265Y-102523973D01*
X159990000Y-102510500D01*
X160440000Y-102510500D01*
X160507735Y-102523973D01*
G37*
G36*
X161777735Y-102523973D02*
G01*
X161835158Y-102562342D01*
X161873527Y-102619765D01*
X161887000Y-102687500D01*
X161887000Y-104437500D01*
X161873527Y-104505235D01*
X161835158Y-104562658D01*
X161777735Y-104601027D01*
X161710000Y-104614500D01*
X161260000Y-104614500D01*
X161192265Y-104601027D01*
X161134842Y-104562658D01*
X161096473Y-104505235D01*
X161083000Y-104437500D01*
X161083000Y-102687500D01*
X161096473Y-102619765D01*
X161134842Y-102562342D01*
X161192265Y-102523973D01*
X161260000Y-102510500D01*
X161710000Y-102510500D01*
X161777735Y-102523973D01*
G37*
G36*
X163047735Y-102523973D02*
G01*
X163105158Y-102562342D01*
X163143527Y-102619765D01*
X163157000Y-102687500D01*
X163157000Y-104437500D01*
X163143527Y-104505235D01*
X163105158Y-104562658D01*
X163047735Y-104601027D01*
X162980000Y-104614500D01*
X162530000Y-104614500D01*
X162462265Y-104601027D01*
X162404842Y-104562658D01*
X162366473Y-104505235D01*
X162353000Y-104437500D01*
X162353000Y-102687500D01*
X162366473Y-102619765D01*
X162404842Y-102562342D01*
X162462265Y-102523973D01*
X162530000Y-102510500D01*
X162980000Y-102510500D01*
X163047735Y-102523973D01*
G37*
G36*
X150852687Y-102515056D02*
G01*
X150862918Y-102515056D01*
X150902893Y-102523007D01*
X151005074Y-102539191D01*
X151037943Y-102549870D01*
X151064799Y-102555213D01*
X151102700Y-102570912D01*
X151161741Y-102590096D01*
X151217052Y-102618278D01*
X151254967Y-102633983D01*
X151277742Y-102649201D01*
X151308528Y-102664887D01*
X151392217Y-102725690D01*
X151426113Y-102748339D01*
X151433347Y-102755573D01*
X151441798Y-102761713D01*
X151558286Y-102878201D01*
X151564425Y-102886651D01*
X151571661Y-102893887D01*
X151594312Y-102927787D01*
X151655112Y-103011471D01*
X151670796Y-103042254D01*
X151686017Y-103065033D01*
X151701723Y-103102952D01*
X151729903Y-103158258D01*
X151749084Y-103217292D01*
X151764787Y-103255201D01*
X151770130Y-103282062D01*
X151780808Y-103314925D01*
X151796990Y-103417098D01*
X151804944Y-103457082D01*
X151804944Y-103467313D01*
X151806578Y-103477630D01*
X151806578Y-103642369D01*
X151804944Y-103652685D01*
X151804944Y-103662918D01*
X151796990Y-103702905D01*
X151780808Y-103805074D01*
X151770130Y-103837935D01*
X151764787Y-103864799D01*
X151749083Y-103902711D01*
X151729903Y-103961741D01*
X151701726Y-104017041D01*
X151686017Y-104054967D01*
X151670794Y-104077749D01*
X151655112Y-104108528D01*
X151594320Y-104192200D01*
X151571661Y-104226113D01*
X151564423Y-104233350D01*
X151558286Y-104241798D01*
X151441798Y-104358286D01*
X151433350Y-104364423D01*
X151426113Y-104371661D01*
X151392200Y-104394320D01*
X151308528Y-104455112D01*
X151277749Y-104470794D01*
X151254967Y-104486017D01*
X151217041Y-104501726D01*
X151161741Y-104529903D01*
X151102711Y-104549083D01*
X151064799Y-104564787D01*
X151037935Y-104570130D01*
X151005074Y-104580808D01*
X150902902Y-104596990D01*
X150862918Y-104604944D01*
X150852687Y-104604944D01*
X150842370Y-104606578D01*
X150677630Y-104606578D01*
X150667313Y-104604944D01*
X150657082Y-104604944D01*
X150617098Y-104596990D01*
X150514925Y-104580808D01*
X150482062Y-104570130D01*
X150455201Y-104564787D01*
X150417292Y-104549084D01*
X150358258Y-104529903D01*
X150302952Y-104501723D01*
X150265033Y-104486017D01*
X150242254Y-104470796D01*
X150211471Y-104455112D01*
X150127787Y-104394312D01*
X150093887Y-104371661D01*
X150086651Y-104364425D01*
X150078201Y-104358286D01*
X149961713Y-104241798D01*
X149955573Y-104233347D01*
X149948339Y-104226113D01*
X149925690Y-104192217D01*
X149864887Y-104108528D01*
X149849201Y-104077742D01*
X149833983Y-104054967D01*
X149818278Y-104017052D01*
X149790096Y-103961741D01*
X149770912Y-103902700D01*
X149755213Y-103864799D01*
X149749870Y-103837943D01*
X149739191Y-103805074D01*
X149723008Y-103702895D01*
X149715056Y-103662918D01*
X149715056Y-103652686D01*
X149713422Y-103642369D01*
X149713422Y-103477630D01*
X149715056Y-103467312D01*
X149715056Y-103457082D01*
X149723007Y-103417108D01*
X149739191Y-103314925D01*
X149749871Y-103282054D01*
X149755213Y-103255201D01*
X149770910Y-103217303D01*
X149790096Y-103158258D01*
X149818280Y-103102942D01*
X149833983Y-103065033D01*
X149849199Y-103042260D01*
X149864887Y-103011471D01*
X149925699Y-102927770D01*
X149948339Y-102893887D01*
X149955570Y-102886655D01*
X149961713Y-102878201D01*
X150078201Y-102761713D01*
X150086655Y-102755570D01*
X150093887Y-102748339D01*
X150127770Y-102725699D01*
X150211471Y-102664887D01*
X150242260Y-102649199D01*
X150265033Y-102633983D01*
X150302942Y-102618280D01*
X150358258Y-102590096D01*
X150417303Y-102570910D01*
X150455201Y-102555213D01*
X150482054Y-102549871D01*
X150514925Y-102539191D01*
X150617108Y-102523007D01*
X150657082Y-102515056D01*
X150667313Y-102515056D01*
X150677630Y-102513422D01*
X150842370Y-102513422D01*
X150852687Y-102515056D01*
G37*
G36*
X147370000Y-102090000D02*
G01*
X145670000Y-102090000D01*
X145670000Y-100390000D01*
X147370000Y-100390000D01*
X147370000Y-102090000D01*
G37*
G36*
X172978324Y-99074352D02*
G01*
X173127017Y-99135943D01*
X173260837Y-99225358D01*
X173374642Y-99339163D01*
X173464057Y-99472983D01*
X173525648Y-99621676D01*
X173557047Y-99779528D01*
X173557047Y-99940472D01*
X173525648Y-100098324D01*
X173464057Y-100247017D01*
X173374642Y-100380837D01*
X173260837Y-100494642D01*
X173127017Y-100584057D01*
X172978324Y-100645648D01*
X172820472Y-100677047D01*
X172659528Y-100677047D01*
X172501676Y-100645648D01*
X172352983Y-100584057D01*
X172219163Y-100494642D01*
X172105358Y-100380837D01*
X172015943Y-100247017D01*
X171954352Y-100098324D01*
X171922953Y-99940472D01*
X171922953Y-99779528D01*
X171954352Y-99621676D01*
X172015943Y-99472983D01*
X172105358Y-99339163D01*
X172219163Y-99225358D01*
X172352983Y-99135943D01*
X172501676Y-99074352D01*
X172659528Y-99042953D01*
X172820472Y-99042953D01*
X172978324Y-99074352D01*
G37*
G36*
X178150672Y-96166508D02*
G01*
X178390735Y-96230833D01*
X178620349Y-96325942D01*
X178835583Y-96450208D01*
X179032757Y-96601504D01*
X179208496Y-96777243D01*
X179359792Y-96974417D01*
X179484058Y-97189651D01*
X179579167Y-97419265D01*
X179643492Y-97659328D01*
X179675932Y-97905734D01*
X179675932Y-98154266D01*
X179643492Y-98400672D01*
X179579167Y-98640735D01*
X179484058Y-98870349D01*
X179359792Y-99085583D01*
X179208496Y-99282757D01*
X179032757Y-99458496D01*
X178835583Y-99609792D01*
X178620349Y-99734058D01*
X178390735Y-99829167D01*
X178150672Y-99893492D01*
X177904266Y-99925932D01*
X177655734Y-99925932D01*
X177409328Y-99893492D01*
X177169265Y-99829167D01*
X176939651Y-99734058D01*
X176724417Y-99609792D01*
X176527243Y-99458496D01*
X176351504Y-99282757D01*
X176200208Y-99085583D01*
X176075942Y-98870349D01*
X175980833Y-98640735D01*
X175916508Y-98400672D01*
X175884068Y-98154266D01*
X175884068Y-97905734D01*
X175916508Y-97659328D01*
X175980833Y-97419265D01*
X176075942Y-97189651D01*
X176200208Y-96974417D01*
X176351504Y-96777243D01*
X176527243Y-96601504D01*
X176724417Y-96450208D01*
X176939651Y-96325942D01*
X177169265Y-96230833D01*
X177409328Y-96166508D01*
X177655734Y-96134068D01*
X177904266Y-96134068D01*
X178150672Y-96166508D01*
G37*
G36*
X159237735Y-97613973D02*
G01*
X159295158Y-97652342D01*
X159333527Y-97709765D01*
X159347000Y-97777500D01*
X159347000Y-99527500D01*
X159333527Y-99595235D01*
X159295158Y-99652658D01*
X159237735Y-99691027D01*
X159170000Y-99704500D01*
X158720000Y-99704500D01*
X158652265Y-99691027D01*
X158594842Y-99652658D01*
X158556473Y-99595235D01*
X158543000Y-99527500D01*
X158543000Y-97777500D01*
X158556473Y-97709765D01*
X158594842Y-97652342D01*
X158652265Y-97613973D01*
X158720000Y-97600500D01*
X159170000Y-97600500D01*
X159237735Y-97613973D01*
G37*
G36*
X160507735Y-97613973D02*
G01*
X160565158Y-97652342D01*
X160603527Y-97709765D01*
X160617000Y-97777500D01*
X160617000Y-99527500D01*
X160603527Y-99595235D01*
X160565158Y-99652658D01*
X160507735Y-99691027D01*
X160440000Y-99704500D01*
X159990000Y-99704500D01*
X159922265Y-99691027D01*
X159864842Y-99652658D01*
X159826473Y-99595235D01*
X159813000Y-99527500D01*
X159813000Y-97777500D01*
X159826473Y-97709765D01*
X159864842Y-97652342D01*
X159922265Y-97613973D01*
X159990000Y-97600500D01*
X160440000Y-97600500D01*
X160507735Y-97613973D01*
G37*
G36*
X161777735Y-97613973D02*
G01*
X161835158Y-97652342D01*
X161873527Y-97709765D01*
X161887000Y-97777500D01*
X161887000Y-99527500D01*
X161873527Y-99595235D01*
X161835158Y-99652658D01*
X161777735Y-99691027D01*
X161710000Y-99704500D01*
X161260000Y-99704500D01*
X161192265Y-99691027D01*
X161134842Y-99652658D01*
X161096473Y-99595235D01*
X161083000Y-99527500D01*
X161083000Y-97777500D01*
X161096473Y-97709765D01*
X161134842Y-97652342D01*
X161192265Y-97613973D01*
X161260000Y-97600500D01*
X161710000Y-97600500D01*
X161777735Y-97613973D01*
G37*
G36*
X163047735Y-97613973D02*
G01*
X163105158Y-97652342D01*
X163143527Y-97709765D01*
X163157000Y-97777500D01*
X163157000Y-99527500D01*
X163143527Y-99595235D01*
X163105158Y-99652658D01*
X163047735Y-99691027D01*
X162980000Y-99704500D01*
X162530000Y-99704500D01*
X162462265Y-99691027D01*
X162404842Y-99652658D01*
X162366473Y-99595235D01*
X162353000Y-99527500D01*
X162353000Y-97777500D01*
X162366473Y-97709765D01*
X162404842Y-97652342D01*
X162462265Y-97613973D01*
X162530000Y-97600500D01*
X162980000Y-97600500D01*
X163047735Y-97613973D01*
G37*
G36*
X146766742Y-97886601D02*
G01*
X146920687Y-97950367D01*
X147059234Y-98042941D01*
X147177059Y-98160766D01*
X147269633Y-98299313D01*
X147333399Y-98453258D01*
X147365907Y-98616685D01*
X147365907Y-98783315D01*
X147333399Y-98946742D01*
X147269633Y-99100687D01*
X147177059Y-99239234D01*
X147059234Y-99357059D01*
X146920687Y-99449633D01*
X146766742Y-99513399D01*
X146603315Y-99545907D01*
X146436685Y-99545907D01*
X146273258Y-99513399D01*
X146119313Y-99449633D01*
X145980766Y-99357059D01*
X145862941Y-99239234D01*
X145770367Y-99100687D01*
X145706601Y-98946742D01*
X145674093Y-98783315D01*
X145674093Y-98616685D01*
X145706601Y-98453258D01*
X145770367Y-98299313D01*
X145862941Y-98160766D01*
X145980766Y-98042941D01*
X146119313Y-97950367D01*
X146273258Y-97886601D01*
X146436685Y-97854093D01*
X146603315Y-97854093D01*
X146766742Y-97886601D01*
G37*
G36*
X154290000Y-98600000D02*
G01*
X153890000Y-98600000D01*
X153890000Y-97700000D01*
X154290000Y-97700000D01*
X154290000Y-98600000D01*
G37*
G36*
X155090000Y-98600000D02*
G01*
X154690000Y-98600000D01*
X154690000Y-97700000D01*
X155090000Y-97700000D01*
X155090000Y-98600000D01*
G37*
G36*
X155890000Y-98600000D02*
G01*
X155490000Y-98600000D01*
X155490000Y-97700000D01*
X155890000Y-97700000D01*
X155890000Y-98600000D01*
G37*
G36*
X156690000Y-98600000D02*
G01*
X156290000Y-98600000D01*
X156290000Y-97700000D01*
X156690000Y-97700000D01*
X156690000Y-98600000D01*
G37*
G36*
X146766742Y-95346601D02*
G01*
X146920687Y-95410367D01*
X147059234Y-95502941D01*
X147177059Y-95620766D01*
X147269633Y-95759313D01*
X147333399Y-95913258D01*
X147365907Y-96076685D01*
X147365907Y-96243315D01*
X147333399Y-96406742D01*
X147269633Y-96560687D01*
X147177059Y-96699234D01*
X147059234Y-96817059D01*
X146920687Y-96909633D01*
X146766742Y-96973399D01*
X146603315Y-97005907D01*
X146436685Y-97005907D01*
X146273258Y-96973399D01*
X146119313Y-96909633D01*
X145980766Y-96817059D01*
X145862941Y-96699234D01*
X145770367Y-96560687D01*
X145706601Y-96406742D01*
X145674093Y-96243315D01*
X145674093Y-96076685D01*
X145706601Y-95913258D01*
X145770367Y-95759313D01*
X145862941Y-95620766D01*
X145980766Y-95502941D01*
X146119313Y-95410367D01*
X146273258Y-95346601D01*
X146436685Y-95314093D01*
X146603315Y-95314093D01*
X146766742Y-95346601D01*
G37*
G36*
X154290000Y-96900000D02*
G01*
X153890000Y-96900000D01*
X153890000Y-96000000D01*
X154290000Y-96000000D01*
X154290000Y-96900000D01*
G37*
G36*
X155090000Y-96900000D02*
G01*
X154690000Y-96900000D01*
X154690000Y-96000000D01*
X155090000Y-96000000D01*
X155090000Y-96900000D01*
G37*
G36*
X155890000Y-96900000D02*
G01*
X155490000Y-96900000D01*
X155490000Y-96000000D01*
X155890000Y-96000000D01*
X155890000Y-96900000D01*
G37*
G36*
X156690000Y-96900000D02*
G01*
X156290000Y-96900000D01*
X156290000Y-96000000D01*
X156690000Y-96000000D01*
X156690000Y-96900000D01*
G37*
G36*
X150521100Y-95683464D02*
G01*
X150569860Y-95689121D01*
X150586520Y-95696477D01*
X150609529Y-95701054D01*
X150634161Y-95717513D01*
X150653414Y-95726014D01*
X150666564Y-95739164D01*
X150688607Y-95753893D01*
X150703335Y-95775935D01*
X150716485Y-95789085D01*
X150724985Y-95808336D01*
X150741446Y-95832971D01*
X150746023Y-95855981D01*
X150753378Y-95872639D01*
X150759033Y-95921389D01*
X150760000Y-95926250D01*
X150760000Y-96413750D01*
X150759032Y-96418612D01*
X150753378Y-96467360D01*
X150746023Y-96484016D01*
X150741446Y-96507029D01*
X150724983Y-96531665D01*
X150716485Y-96550914D01*
X150703337Y-96564061D01*
X150688607Y-96586107D01*
X150666561Y-96600837D01*
X150653414Y-96613985D01*
X150634165Y-96622483D01*
X150609529Y-96638946D01*
X150586516Y-96643523D01*
X150569860Y-96650878D01*
X150521111Y-96656532D01*
X150516250Y-96657500D01*
X149603750Y-96657500D01*
X149598888Y-96656532D01*
X149550139Y-96650878D01*
X149533481Y-96643523D01*
X149510471Y-96638946D01*
X149485836Y-96622485D01*
X149466585Y-96613985D01*
X149453435Y-96600835D01*
X149431393Y-96586107D01*
X149416664Y-96564064D01*
X149403514Y-96550914D01*
X149395013Y-96531661D01*
X149378554Y-96507029D01*
X149373977Y-96484020D01*
X149366621Y-96467360D01*
X149360964Y-96418599D01*
X149360000Y-96413750D01*
X149360000Y-95926250D01*
X149360964Y-95921400D01*
X149366621Y-95872639D01*
X149373977Y-95855977D01*
X149378554Y-95832971D01*
X149395011Y-95808340D01*
X149403514Y-95789085D01*
X149416666Y-95775932D01*
X149431393Y-95753893D01*
X149453432Y-95739166D01*
X149466585Y-95726014D01*
X149485840Y-95717511D01*
X149510471Y-95701054D01*
X149533477Y-95696477D01*
X149550139Y-95689121D01*
X149598901Y-95683464D01*
X149603750Y-95682500D01*
X150516250Y-95682500D01*
X150521100Y-95683464D01*
G37*
G36*
X159142403Y-94146418D02*
G01*
X159191066Y-94178934D01*
X159223582Y-94227597D01*
X159235000Y-94285000D01*
X159235000Y-96035000D01*
X159223582Y-96092403D01*
X159191066Y-96141066D01*
X159142403Y-96173582D01*
X159085000Y-96185000D01*
X158785000Y-96185000D01*
X158727597Y-96173582D01*
X158678934Y-96141066D01*
X158646418Y-96092403D01*
X158635000Y-96035000D01*
X158635000Y-94285000D01*
X158646418Y-94227597D01*
X158678934Y-94178934D01*
X158727597Y-94146418D01*
X158785000Y-94135000D01*
X159085000Y-94135000D01*
X159142403Y-94146418D01*
G37*
G36*
X160412403Y-94146418D02*
G01*
X160461066Y-94178934D01*
X160493582Y-94227597D01*
X160505000Y-94285000D01*
X160505000Y-96035000D01*
X160493582Y-96092403D01*
X160461066Y-96141066D01*
X160412403Y-96173582D01*
X160355000Y-96185000D01*
X160055000Y-96185000D01*
X159997597Y-96173582D01*
X159948934Y-96141066D01*
X159916418Y-96092403D01*
X159905000Y-96035000D01*
X159905000Y-94285000D01*
X159916418Y-94227597D01*
X159948934Y-94178934D01*
X159997597Y-94146418D01*
X160055000Y-94135000D01*
X160355000Y-94135000D01*
X160412403Y-94146418D01*
G37*
G36*
X161682403Y-94146418D02*
G01*
X161731066Y-94178934D01*
X161763582Y-94227597D01*
X161775000Y-94285000D01*
X161775000Y-96035000D01*
X161763582Y-96092403D01*
X161731066Y-96141066D01*
X161682403Y-96173582D01*
X161625000Y-96185000D01*
X161325000Y-96185000D01*
X161267597Y-96173582D01*
X161218934Y-96141066D01*
X161186418Y-96092403D01*
X161175000Y-96035000D01*
X161175000Y-94285000D01*
X161186418Y-94227597D01*
X161218934Y-94178934D01*
X161267597Y-94146418D01*
X161325000Y-94135000D01*
X161625000Y-94135000D01*
X161682403Y-94146418D01*
G37*
G36*
X162952403Y-94146418D02*
G01*
X163001066Y-94178934D01*
X163033582Y-94227597D01*
X163045000Y-94285000D01*
X163045000Y-96035000D01*
X163033582Y-96092403D01*
X163001066Y-96141066D01*
X162952403Y-96173582D01*
X162895000Y-96185000D01*
X162595000Y-96185000D01*
X162537597Y-96173582D01*
X162488934Y-96141066D01*
X162456418Y-96092403D01*
X162445000Y-96035000D01*
X162445000Y-94285000D01*
X162456418Y-94227597D01*
X162488934Y-94178934D01*
X162537597Y-94146418D01*
X162595000Y-94135000D01*
X162895000Y-94135000D01*
X162952403Y-94146418D01*
G37*
G36*
X164222403Y-94146418D02*
G01*
X164271066Y-94178934D01*
X164303582Y-94227597D01*
X164315000Y-94285000D01*
X164315000Y-96035000D01*
X164303582Y-96092403D01*
X164271066Y-96141066D01*
X164222403Y-96173582D01*
X164165000Y-96185000D01*
X163865000Y-96185000D01*
X163807597Y-96173582D01*
X163758934Y-96141066D01*
X163726418Y-96092403D01*
X163715000Y-96035000D01*
X163715000Y-94285000D01*
X163726418Y-94227597D01*
X163758934Y-94178934D01*
X163807597Y-94146418D01*
X163865000Y-94135000D01*
X164165000Y-94135000D01*
X164222403Y-94146418D01*
G37*
G36*
X165492403Y-94146418D02*
G01*
X165541066Y-94178934D01*
X165573582Y-94227597D01*
X165585000Y-94285000D01*
X165585000Y-96035000D01*
X165573582Y-96092403D01*
X165541066Y-96141066D01*
X165492403Y-96173582D01*
X165435000Y-96185000D01*
X165135000Y-96185000D01*
X165077597Y-96173582D01*
X165028934Y-96141066D01*
X164996418Y-96092403D01*
X164985000Y-96035000D01*
X164985000Y-94285000D01*
X164996418Y-94227597D01*
X165028934Y-94178934D01*
X165077597Y-94146418D01*
X165135000Y-94135000D01*
X165435000Y-94135000D01*
X165492403Y-94146418D01*
G37*
G36*
X166762403Y-94146418D02*
G01*
X166811066Y-94178934D01*
X166843582Y-94227597D01*
X166855000Y-94285000D01*
X166855000Y-96035000D01*
X166843582Y-96092403D01*
X166811066Y-96141066D01*
X166762403Y-96173582D01*
X166705000Y-96185000D01*
X166405000Y-96185000D01*
X166347597Y-96173582D01*
X166298934Y-96141066D01*
X166266418Y-96092403D01*
X166255000Y-96035000D01*
X166255000Y-94285000D01*
X166266418Y-94227597D01*
X166298934Y-94178934D01*
X166347597Y-94146418D01*
X166405000Y-94135000D01*
X166705000Y-94135000D01*
X166762403Y-94146418D01*
G37*
G36*
X168032403Y-94146418D02*
G01*
X168081066Y-94178934D01*
X168113582Y-94227597D01*
X168125000Y-94285000D01*
X168125000Y-96035000D01*
X168113582Y-96092403D01*
X168081066Y-96141066D01*
X168032403Y-96173582D01*
X167975000Y-96185000D01*
X167675000Y-96185000D01*
X167617597Y-96173582D01*
X167568934Y-96141066D01*
X167536418Y-96092403D01*
X167525000Y-96035000D01*
X167525000Y-94285000D01*
X167536418Y-94227597D01*
X167568934Y-94178934D01*
X167617597Y-94146418D01*
X167675000Y-94135000D01*
X167975000Y-94135000D01*
X168032403Y-94146418D01*
G37*
G36*
X152478324Y-94024352D02*
G01*
X152627017Y-94085943D01*
X152760837Y-94175358D01*
X152874642Y-94289163D01*
X152964057Y-94422983D01*
X153025648Y-94571676D01*
X153057047Y-94729528D01*
X153057047Y-94890472D01*
X153025648Y-95048324D01*
X152964057Y-95197017D01*
X152874642Y-95330837D01*
X152760837Y-95444642D01*
X152627017Y-95534057D01*
X152478324Y-95595648D01*
X152320472Y-95627047D01*
X152159528Y-95627047D01*
X152001676Y-95595648D01*
X151852983Y-95534057D01*
X151719163Y-95444642D01*
X151605358Y-95330837D01*
X151515943Y-95197017D01*
X151454352Y-95048324D01*
X151422953Y-94890472D01*
X151422953Y-94729528D01*
X151454352Y-94571676D01*
X151515943Y-94422983D01*
X151605358Y-94289163D01*
X151719163Y-94175358D01*
X151852983Y-94085943D01*
X152001676Y-94024352D01*
X152159528Y-93992953D01*
X152320472Y-93992953D01*
X152478324Y-94024352D01*
G37*
G36*
X154310000Y-95410000D02*
G01*
X153910000Y-95410000D01*
X153910000Y-94510000D01*
X154310000Y-94510000D01*
X154310000Y-95410000D01*
G37*
G36*
X155110000Y-95410000D02*
G01*
X154710000Y-95410000D01*
X154710000Y-94510000D01*
X155110000Y-94510000D01*
X155110000Y-95410000D01*
G37*
G36*
X155910000Y-95410000D02*
G01*
X155510000Y-95410000D01*
X155510000Y-94510000D01*
X155910000Y-94510000D01*
X155910000Y-95410000D01*
G37*
G36*
X156710000Y-95410000D02*
G01*
X156310000Y-95410000D01*
X156310000Y-94510000D01*
X156710000Y-94510000D01*
X156710000Y-95410000D01*
G37*
G36*
X150521100Y-93808464D02*
G01*
X150569860Y-93814121D01*
X150586520Y-93821477D01*
X150609529Y-93826054D01*
X150634161Y-93842513D01*
X150653414Y-93851014D01*
X150666564Y-93864164D01*
X150688607Y-93878893D01*
X150703335Y-93900935D01*
X150716485Y-93914085D01*
X150724985Y-93933336D01*
X150741446Y-93957971D01*
X150746023Y-93980981D01*
X150753378Y-93997639D01*
X150759033Y-94046389D01*
X150760000Y-94051250D01*
X150760000Y-94538750D01*
X150759032Y-94543612D01*
X150753378Y-94592360D01*
X150746023Y-94609016D01*
X150741446Y-94632029D01*
X150724983Y-94656665D01*
X150716485Y-94675914D01*
X150703337Y-94689061D01*
X150688607Y-94711107D01*
X150666561Y-94725837D01*
X150653414Y-94738985D01*
X150634165Y-94747483D01*
X150609529Y-94763946D01*
X150586516Y-94768523D01*
X150569860Y-94775878D01*
X150521111Y-94781532D01*
X150516250Y-94782500D01*
X149603750Y-94782500D01*
X149598888Y-94781532D01*
X149550139Y-94775878D01*
X149533481Y-94768523D01*
X149510471Y-94763946D01*
X149485836Y-94747485D01*
X149466585Y-94738985D01*
X149453435Y-94725835D01*
X149431393Y-94711107D01*
X149416664Y-94689064D01*
X149403514Y-94675914D01*
X149395013Y-94656661D01*
X149378554Y-94632029D01*
X149373977Y-94609020D01*
X149366621Y-94592360D01*
X149360964Y-94543599D01*
X149360000Y-94538750D01*
X149360000Y-94051250D01*
X149360964Y-94046400D01*
X149366621Y-93997639D01*
X149373977Y-93980977D01*
X149378554Y-93957971D01*
X149395011Y-93933340D01*
X149403514Y-93914085D01*
X149416666Y-93900932D01*
X149431393Y-93878893D01*
X149453432Y-93864166D01*
X149466585Y-93851014D01*
X149485840Y-93842511D01*
X149510471Y-93826054D01*
X149533477Y-93821477D01*
X149550139Y-93814121D01*
X149598901Y-93808464D01*
X149603750Y-93807500D01*
X150516250Y-93807500D01*
X150521100Y-93808464D01*
G37*
G36*
X178150672Y-90816508D02*
G01*
X178390735Y-90880833D01*
X178620349Y-90975942D01*
X178835583Y-91100208D01*
X179032757Y-91251504D01*
X179208496Y-91427243D01*
X179359792Y-91624417D01*
X179484058Y-91839651D01*
X179579167Y-92069265D01*
X179643492Y-92309328D01*
X179675932Y-92555734D01*
X179675932Y-92804266D01*
X179643492Y-93050672D01*
X179579167Y-93290735D01*
X179484058Y-93520349D01*
X179359792Y-93735583D01*
X179208496Y-93932757D01*
X179032757Y-94108496D01*
X178835583Y-94259792D01*
X178620349Y-94384058D01*
X178390735Y-94479167D01*
X178150672Y-94543492D01*
X177904266Y-94575932D01*
X177655734Y-94575932D01*
X177409328Y-94543492D01*
X177169265Y-94479167D01*
X176939651Y-94384058D01*
X176724417Y-94259792D01*
X176527243Y-94108496D01*
X176351504Y-93932757D01*
X176200208Y-93735583D01*
X176075942Y-93520349D01*
X175980833Y-93290735D01*
X175916508Y-93050672D01*
X175884068Y-92804266D01*
X175884068Y-92555734D01*
X175916508Y-92309328D01*
X175980833Y-92069265D01*
X176075942Y-91839651D01*
X176200208Y-91624417D01*
X176351504Y-91427243D01*
X176527243Y-91251504D01*
X176724417Y-91100208D01*
X176939651Y-90975942D01*
X177169265Y-90880833D01*
X177409328Y-90816508D01*
X177655734Y-90784068D01*
X177904266Y-90784068D01*
X178150672Y-90816508D01*
G37*
G36*
X146766742Y-92806601D02*
G01*
X146920687Y-92870367D01*
X147059234Y-92962941D01*
X147177059Y-93080766D01*
X147269633Y-93219313D01*
X147333399Y-93373258D01*
X147365907Y-93536685D01*
X147365907Y-93703315D01*
X147333399Y-93866742D01*
X147269633Y-94020687D01*
X147177059Y-94159234D01*
X147059234Y-94277059D01*
X146920687Y-94369633D01*
X146766742Y-94433399D01*
X146603315Y-94465907D01*
X146436685Y-94465907D01*
X146273258Y-94433399D01*
X146119313Y-94369633D01*
X145980766Y-94277059D01*
X145862941Y-94159234D01*
X145770367Y-94020687D01*
X145706601Y-93866742D01*
X145674093Y-93703315D01*
X145674093Y-93536685D01*
X145706601Y-93373258D01*
X145770367Y-93219313D01*
X145862941Y-93080766D01*
X145980766Y-92962941D01*
X146119313Y-92870367D01*
X146273258Y-92806601D01*
X146436685Y-92774093D01*
X146603315Y-92774093D01*
X146766742Y-92806601D01*
G37*
G36*
X154310000Y-93710000D02*
G01*
X153910000Y-93710000D01*
X153910000Y-92810000D01*
X154310000Y-92810000D01*
X154310000Y-93710000D01*
G37*
G36*
X155110000Y-93710000D02*
G01*
X154710000Y-93710000D01*
X154710000Y-92810000D01*
X155110000Y-92810000D01*
X155110000Y-93710000D01*
G37*
G36*
X155910000Y-93710000D02*
G01*
X155510000Y-93710000D01*
X155510000Y-92810000D01*
X155910000Y-92810000D01*
X155910000Y-93710000D01*
G37*
G36*
X156710000Y-93710000D02*
G01*
X156310000Y-93710000D01*
X156310000Y-92810000D01*
X156710000Y-92810000D01*
X156710000Y-93710000D01*
G37*
G36*
X154744850Y-91055964D02*
G01*
X154795040Y-91061787D01*
X154812189Y-91069359D01*
X154835671Y-91074030D01*
X154860810Y-91090827D01*
X154880696Y-91099608D01*
X154894277Y-91113189D01*
X154916777Y-91128223D01*
X154931810Y-91150722D01*
X154945391Y-91164303D01*
X154954170Y-91184186D01*
X154970970Y-91209329D01*
X154975641Y-91232812D01*
X154983212Y-91249959D01*
X154989033Y-91300139D01*
X154990000Y-91305000D01*
X154990000Y-91895000D01*
X154989032Y-91899863D01*
X154983212Y-91950040D01*
X154975641Y-91967185D01*
X154970970Y-91990671D01*
X154954169Y-92015815D01*
X154945391Y-92035696D01*
X154931812Y-92049274D01*
X154916777Y-92071777D01*
X154894274Y-92086812D01*
X154880696Y-92100391D01*
X154860815Y-92109169D01*
X154835671Y-92125970D01*
X154812185Y-92130641D01*
X154795040Y-92138212D01*
X154744861Y-92144032D01*
X154740000Y-92145000D01*
X153925000Y-92145000D01*
X153920138Y-92144032D01*
X153869959Y-92138212D01*
X153852812Y-92130641D01*
X153829329Y-92125970D01*
X153804186Y-92109170D01*
X153784303Y-92100391D01*
X153770722Y-92086810D01*
X153748223Y-92071777D01*
X153733189Y-92049277D01*
X153719608Y-92035696D01*
X153710827Y-92015810D01*
X153694030Y-91990671D01*
X153689359Y-91967189D01*
X153681787Y-91950040D01*
X153675964Y-91899849D01*
X153675000Y-91895000D01*
X153675000Y-91305000D01*
X153675964Y-91300150D01*
X153681787Y-91249959D01*
X153689359Y-91232808D01*
X153694030Y-91209329D01*
X153710826Y-91184191D01*
X153719608Y-91164303D01*
X153733191Y-91150719D01*
X153748223Y-91128223D01*
X153770719Y-91113191D01*
X153784303Y-91099608D01*
X153804191Y-91090826D01*
X153829329Y-91074030D01*
X153852808Y-91069359D01*
X153869959Y-91061787D01*
X153920151Y-91055964D01*
X153925000Y-91055000D01*
X154740000Y-91055000D01*
X154744850Y-91055964D01*
G37*
G36*
X156699850Y-91055964D02*
G01*
X156750040Y-91061787D01*
X156767189Y-91069359D01*
X156790671Y-91074030D01*
X156815810Y-91090827D01*
X156835696Y-91099608D01*
X156849277Y-91113189D01*
X156871777Y-91128223D01*
X156886810Y-91150722D01*
X156900391Y-91164303D01*
X156909170Y-91184186D01*
X156925970Y-91209329D01*
X156930641Y-91232812D01*
X156938212Y-91249959D01*
X156944033Y-91300139D01*
X156945000Y-91305000D01*
X156945000Y-91895000D01*
X156944032Y-91899863D01*
X156938212Y-91950040D01*
X156930641Y-91967185D01*
X156925970Y-91990671D01*
X156909169Y-92015815D01*
X156900391Y-92035696D01*
X156886812Y-92049274D01*
X156871777Y-92071777D01*
X156849274Y-92086812D01*
X156835696Y-92100391D01*
X156815815Y-92109169D01*
X156790671Y-92125970D01*
X156767185Y-92130641D01*
X156750040Y-92138212D01*
X156699861Y-92144032D01*
X156695000Y-92145000D01*
X155880000Y-92145000D01*
X155875138Y-92144032D01*
X155824959Y-92138212D01*
X155807812Y-92130641D01*
X155784329Y-92125970D01*
X155759186Y-92109170D01*
X155739303Y-92100391D01*
X155725722Y-92086810D01*
X155703223Y-92071777D01*
X155688189Y-92049277D01*
X155674608Y-92035696D01*
X155665827Y-92015810D01*
X155649030Y-91990671D01*
X155644359Y-91967189D01*
X155636787Y-91950040D01*
X155630964Y-91899849D01*
X155630000Y-91895000D01*
X155630000Y-91305000D01*
X155630964Y-91300150D01*
X155636787Y-91249959D01*
X155644359Y-91232808D01*
X155649030Y-91209329D01*
X155665826Y-91184191D01*
X155674608Y-91164303D01*
X155688191Y-91150719D01*
X155703223Y-91128223D01*
X155725719Y-91113191D01*
X155739303Y-91099608D01*
X155759191Y-91090826D01*
X155784329Y-91074030D01*
X155807808Y-91069359D01*
X155824959Y-91061787D01*
X155875151Y-91055964D01*
X155880000Y-91055000D01*
X156695000Y-91055000D01*
X156699850Y-91055964D01*
G37*
G36*
X146766742Y-90266601D02*
G01*
X146920687Y-90330367D01*
X147059234Y-90422941D01*
X147177059Y-90540766D01*
X147269633Y-90679313D01*
X147333399Y-90833258D01*
X147365907Y-90996685D01*
X147365907Y-91163315D01*
X147333399Y-91326742D01*
X147269633Y-91480687D01*
X147177059Y-91619234D01*
X147059234Y-91737059D01*
X146920687Y-91829633D01*
X146766742Y-91893399D01*
X146603315Y-91925907D01*
X146436685Y-91925907D01*
X146273258Y-91893399D01*
X146119313Y-91829633D01*
X145980766Y-91737059D01*
X145862941Y-91619234D01*
X145770367Y-91480687D01*
X145706601Y-91326742D01*
X145674093Y-91163315D01*
X145674093Y-90996685D01*
X145706601Y-90833258D01*
X145770367Y-90679313D01*
X145862941Y-90540766D01*
X145980766Y-90422941D01*
X146119313Y-90330367D01*
X146273258Y-90266601D01*
X146436685Y-90234093D01*
X146603315Y-90234093D01*
X146766742Y-90266601D01*
G37*
G36*
X172978324Y-88974352D02*
G01*
X173127017Y-89035943D01*
X173260837Y-89125358D01*
X173374642Y-89239163D01*
X173464057Y-89372983D01*
X173525648Y-89521676D01*
X173557047Y-89679528D01*
X173557047Y-89840472D01*
X173525648Y-89998324D01*
X173464057Y-90147017D01*
X173374642Y-90280837D01*
X173260837Y-90394642D01*
X173127017Y-90484057D01*
X172978324Y-90545648D01*
X172820472Y-90577047D01*
X172659528Y-90577047D01*
X172501676Y-90545648D01*
X172352983Y-90484057D01*
X172219163Y-90394642D01*
X172105358Y-90280837D01*
X172015943Y-90147017D01*
X171954352Y-89998324D01*
X171922953Y-89840472D01*
X171922953Y-89679528D01*
X171954352Y-89521676D01*
X172015943Y-89372983D01*
X172105358Y-89239163D01*
X172219163Y-89125358D01*
X172352983Y-89035943D01*
X172501676Y-88974352D01*
X172659528Y-88942953D01*
X172820472Y-88942953D01*
X172978324Y-88974352D01*
G37*
G36*
X154694850Y-89255964D02*
G01*
X154745040Y-89261787D01*
X154762189Y-89269359D01*
X154785671Y-89274030D01*
X154810810Y-89290827D01*
X154830696Y-89299608D01*
X154844277Y-89313189D01*
X154866777Y-89328223D01*
X154881810Y-89350722D01*
X154895391Y-89364303D01*
X154904170Y-89384186D01*
X154920970Y-89409329D01*
X154925641Y-89432812D01*
X154933212Y-89449959D01*
X154939033Y-89500139D01*
X154940000Y-89505000D01*
X154940000Y-90095000D01*
X154939032Y-90099863D01*
X154933212Y-90150040D01*
X154925641Y-90167185D01*
X154920970Y-90190671D01*
X154904169Y-90215815D01*
X154895391Y-90235696D01*
X154881812Y-90249274D01*
X154866777Y-90271777D01*
X154844274Y-90286812D01*
X154830696Y-90300391D01*
X154810815Y-90309169D01*
X154785671Y-90325970D01*
X154762185Y-90330641D01*
X154745040Y-90338212D01*
X154694861Y-90344032D01*
X154690000Y-90345000D01*
X153875000Y-90345000D01*
X153870138Y-90344032D01*
X153819959Y-90338212D01*
X153802812Y-90330641D01*
X153779329Y-90325970D01*
X153754186Y-90309170D01*
X153734303Y-90300391D01*
X153720722Y-90286810D01*
X153698223Y-90271777D01*
X153683189Y-90249277D01*
X153669608Y-90235696D01*
X153660827Y-90215810D01*
X153644030Y-90190671D01*
X153639359Y-90167189D01*
X153631787Y-90150040D01*
X153625964Y-90099849D01*
X153625000Y-90095000D01*
X153625000Y-89505000D01*
X153625964Y-89500150D01*
X153631787Y-89449959D01*
X153639359Y-89432808D01*
X153644030Y-89409329D01*
X153660826Y-89384191D01*
X153669608Y-89364303D01*
X153683191Y-89350719D01*
X153698223Y-89328223D01*
X153720719Y-89313191D01*
X153734303Y-89299608D01*
X153754191Y-89290826D01*
X153779329Y-89274030D01*
X153802808Y-89269359D01*
X153819959Y-89261787D01*
X153870151Y-89255964D01*
X153875000Y-89255000D01*
X154690000Y-89255000D01*
X154694850Y-89255964D01*
G37*
G36*
X156649850Y-89255964D02*
G01*
X156700040Y-89261787D01*
X156717189Y-89269359D01*
X156740671Y-89274030D01*
X156765810Y-89290827D01*
X156785696Y-89299608D01*
X156799277Y-89313189D01*
X156821777Y-89328223D01*
X156836810Y-89350722D01*
X156850391Y-89364303D01*
X156859170Y-89384186D01*
X156875970Y-89409329D01*
X156880641Y-89432812D01*
X156888212Y-89449959D01*
X156894033Y-89500139D01*
X156895000Y-89505000D01*
X156895000Y-90095000D01*
X156894032Y-90099863D01*
X156888212Y-90150040D01*
X156880641Y-90167185D01*
X156875970Y-90190671D01*
X156859169Y-90215815D01*
X156850391Y-90235696D01*
X156836812Y-90249274D01*
X156821777Y-90271777D01*
X156799274Y-90286812D01*
X156785696Y-90300391D01*
X156765815Y-90309169D01*
X156740671Y-90325970D01*
X156717185Y-90330641D01*
X156700040Y-90338212D01*
X156649861Y-90344032D01*
X156645000Y-90345000D01*
X155830000Y-90345000D01*
X155825138Y-90344032D01*
X155774959Y-90338212D01*
X155757812Y-90330641D01*
X155734329Y-90325970D01*
X155709186Y-90309170D01*
X155689303Y-90300391D01*
X155675722Y-90286810D01*
X155653223Y-90271777D01*
X155638189Y-90249277D01*
X155624608Y-90235696D01*
X155615827Y-90215810D01*
X155599030Y-90190671D01*
X155594359Y-90167189D01*
X155586787Y-90150040D01*
X155580964Y-90099849D01*
X155580000Y-90095000D01*
X155580000Y-89505000D01*
X155580964Y-89500150D01*
X155586787Y-89449959D01*
X155594359Y-89432808D01*
X155599030Y-89409329D01*
X155615826Y-89384191D01*
X155624608Y-89364303D01*
X155638191Y-89350719D01*
X155653223Y-89328223D01*
X155675719Y-89313191D01*
X155689303Y-89299608D01*
X155709191Y-89290826D01*
X155734329Y-89274030D01*
X155757808Y-89269359D01*
X155774959Y-89261787D01*
X155825151Y-89255964D01*
X155830000Y-89255000D01*
X156645000Y-89255000D01*
X156649850Y-89255964D01*
G37*
G36*
X146766742Y-87726601D02*
G01*
X146920687Y-87790367D01*
X147059234Y-87882941D01*
X147177059Y-88000766D01*
X147269633Y-88139313D01*
X147333399Y-88293258D01*
X147365907Y-88456685D01*
X147365907Y-88623315D01*
X147333399Y-88786742D01*
X147269633Y-88940687D01*
X147177059Y-89079234D01*
X147059234Y-89197059D01*
X146920687Y-89289633D01*
X146766742Y-89353399D01*
X146603315Y-89385907D01*
X146436685Y-89385907D01*
X146273258Y-89353399D01*
X146119313Y-89289633D01*
X145980766Y-89197059D01*
X145862941Y-89079234D01*
X145770367Y-88940687D01*
X145706601Y-88786742D01*
X145674093Y-88623315D01*
X145674093Y-88456685D01*
X145706601Y-88293258D01*
X145770367Y-88139313D01*
X145862941Y-88000766D01*
X145980766Y-87882941D01*
X146119313Y-87790367D01*
X146273258Y-87726601D01*
X146436685Y-87694093D01*
X146603315Y-87694093D01*
X146766742Y-87726601D01*
G37*
G36*
X178150672Y-85466508D02*
G01*
X178390735Y-85530833D01*
X178620349Y-85625942D01*
X178835583Y-85750208D01*
X179032757Y-85901504D01*
X179208496Y-86077243D01*
X179359792Y-86274417D01*
X179484058Y-86489651D01*
X179579167Y-86719265D01*
X179643492Y-86959328D01*
X179675932Y-87205734D01*
X179675932Y-87454266D01*
X179643492Y-87700672D01*
X179579167Y-87940735D01*
X179484058Y-88170349D01*
X179359792Y-88385583D01*
X179208496Y-88582757D01*
X179032757Y-88758496D01*
X178835583Y-88909792D01*
X178620349Y-89034058D01*
X178390735Y-89129167D01*
X178150672Y-89193492D01*
X177904266Y-89225932D01*
X177655734Y-89225932D01*
X177409328Y-89193492D01*
X177169265Y-89129167D01*
X176939651Y-89034058D01*
X176724417Y-88909792D01*
X176527243Y-88758496D01*
X176351504Y-88582757D01*
X176200208Y-88385583D01*
X176075942Y-88170349D01*
X175980833Y-87940735D01*
X175916508Y-87700672D01*
X175884068Y-87454266D01*
X175884068Y-87205734D01*
X175916508Y-86959328D01*
X175980833Y-86719265D01*
X176075942Y-86489651D01*
X176200208Y-86274417D01*
X176351504Y-86077243D01*
X176527243Y-85901504D01*
X176724417Y-85750208D01*
X176939651Y-85625942D01*
X177169265Y-85530833D01*
X177409328Y-85466508D01*
X177655734Y-85434068D01*
X177904266Y-85434068D01*
X178150672Y-85466508D01*
G37*
G36*
X154532350Y-87655964D02*
G01*
X154579679Y-87661455D01*
X154595853Y-87668596D01*
X154618387Y-87673079D01*
X154642511Y-87689198D01*
X154661132Y-87697420D01*
X154673848Y-87710136D01*
X154695438Y-87724562D01*
X154709863Y-87746151D01*
X154722579Y-87758867D01*
X154730800Y-87777486D01*
X154746921Y-87801613D01*
X154751403Y-87824147D01*
X154758544Y-87840319D01*
X154764033Y-87887640D01*
X154765000Y-87892500D01*
X154765000Y-88367500D01*
X154764032Y-88372362D01*
X154758544Y-88419679D01*
X154751404Y-88435849D01*
X154746921Y-88458387D01*
X154730798Y-88482516D01*
X154722579Y-88501132D01*
X154709865Y-88513845D01*
X154695438Y-88535438D01*
X154673845Y-88549865D01*
X154661132Y-88562579D01*
X154642515Y-88570799D01*
X154618387Y-88586921D01*
X154595850Y-88591403D01*
X154579680Y-88598544D01*
X154532361Y-88604033D01*
X154527500Y-88605000D01*
X154027500Y-88605000D01*
X154022638Y-88604033D01*
X153975320Y-88598544D01*
X153959148Y-88591403D01*
X153936613Y-88586921D01*
X153912485Y-88570800D01*
X153893867Y-88562579D01*
X153881151Y-88549863D01*
X153859562Y-88535438D01*
X153845136Y-88513848D01*
X153832420Y-88501132D01*
X153824198Y-88482511D01*
X153808079Y-88458387D01*
X153803596Y-88435854D01*
X153796455Y-88419680D01*
X153790964Y-88372348D01*
X153790000Y-88367500D01*
X153790000Y-87892500D01*
X153790964Y-87887651D01*
X153796455Y-87840320D01*
X153803597Y-87824144D01*
X153808079Y-87801613D01*
X153824197Y-87777490D01*
X153832420Y-87758867D01*
X153845138Y-87746148D01*
X153859562Y-87724562D01*
X153881148Y-87710138D01*
X153893867Y-87697420D01*
X153912490Y-87689196D01*
X153936613Y-87673079D01*
X153959143Y-87668597D01*
X153975319Y-87661455D01*
X154022652Y-87655964D01*
X154027500Y-87655000D01*
X154527500Y-87655000D01*
X154532350Y-87655964D01*
G37*
G36*
X156357350Y-87655964D02*
G01*
X156404679Y-87661455D01*
X156420853Y-87668596D01*
X156443387Y-87673079D01*
X156467511Y-87689198D01*
X156486132Y-87697420D01*
X156498848Y-87710136D01*
X156520438Y-87724562D01*
X156534863Y-87746151D01*
X156547579Y-87758867D01*
X156555800Y-87777486D01*
X156571921Y-87801613D01*
X156576403Y-87824147D01*
X156583544Y-87840319D01*
X156589033Y-87887640D01*
X156590000Y-87892500D01*
X156590000Y-88367500D01*
X156589032Y-88372362D01*
X156583544Y-88419679D01*
X156576404Y-88435849D01*
X156571921Y-88458387D01*
X156555798Y-88482516D01*
X156547579Y-88501132D01*
X156534865Y-88513845D01*
X156520438Y-88535438D01*
X156498845Y-88549865D01*
X156486132Y-88562579D01*
X156467515Y-88570799D01*
X156443387Y-88586921D01*
X156420850Y-88591403D01*
X156404680Y-88598544D01*
X156357361Y-88604033D01*
X156352500Y-88605000D01*
X155852500Y-88605000D01*
X155847638Y-88604033D01*
X155800320Y-88598544D01*
X155784148Y-88591403D01*
X155761613Y-88586921D01*
X155737485Y-88570800D01*
X155718867Y-88562579D01*
X155706151Y-88549863D01*
X155684562Y-88535438D01*
X155670136Y-88513848D01*
X155657420Y-88501132D01*
X155649198Y-88482511D01*
X155633079Y-88458387D01*
X155628596Y-88435854D01*
X155621455Y-88419680D01*
X155615964Y-88372348D01*
X155615000Y-88367500D01*
X155615000Y-87892500D01*
X155615964Y-87887651D01*
X155621455Y-87840320D01*
X155628597Y-87824144D01*
X155633079Y-87801613D01*
X155649197Y-87777490D01*
X155657420Y-87758867D01*
X155670138Y-87746148D01*
X155684562Y-87724562D01*
X155706148Y-87710138D01*
X155718867Y-87697420D01*
X155737490Y-87689196D01*
X155761613Y-87673079D01*
X155784143Y-87668597D01*
X155800319Y-87661455D01*
X155847652Y-87655964D01*
X155852500Y-87655000D01*
X156352500Y-87655000D01*
X156357350Y-87655964D01*
G37*
G36*
X150822687Y-85345056D02*
G01*
X150832918Y-85345056D01*
X150872893Y-85353007D01*
X150975074Y-85369191D01*
X151007943Y-85379870D01*
X151034799Y-85385213D01*
X151072700Y-85400912D01*
X151131741Y-85420096D01*
X151187052Y-85448278D01*
X151224967Y-85463983D01*
X151247742Y-85479201D01*
X151278528Y-85494887D01*
X151362217Y-85555690D01*
X151396113Y-85578339D01*
X151403347Y-85585573D01*
X151411798Y-85591713D01*
X151528286Y-85708201D01*
X151534425Y-85716651D01*
X151541661Y-85723887D01*
X151564312Y-85757787D01*
X151625112Y-85841471D01*
X151640796Y-85872254D01*
X151656017Y-85895033D01*
X151671723Y-85932952D01*
X151699903Y-85988258D01*
X151719084Y-86047292D01*
X151734787Y-86085201D01*
X151740130Y-86112062D01*
X151750808Y-86144925D01*
X151766990Y-86247098D01*
X151774944Y-86287082D01*
X151774944Y-86297313D01*
X151776578Y-86307630D01*
X151776578Y-86472369D01*
X151774944Y-86482685D01*
X151774944Y-86492918D01*
X151766990Y-86532905D01*
X151750808Y-86635074D01*
X151740130Y-86667935D01*
X151734787Y-86694799D01*
X151719083Y-86732711D01*
X151699903Y-86791741D01*
X151671726Y-86847041D01*
X151656017Y-86884967D01*
X151640794Y-86907749D01*
X151625112Y-86938528D01*
X151564320Y-87022200D01*
X151541661Y-87056113D01*
X151534423Y-87063350D01*
X151528286Y-87071798D01*
X151411798Y-87188286D01*
X151403350Y-87194423D01*
X151396113Y-87201661D01*
X151362200Y-87224320D01*
X151278528Y-87285112D01*
X151247749Y-87300794D01*
X151224967Y-87316017D01*
X151187041Y-87331726D01*
X151131741Y-87359903D01*
X151072711Y-87379083D01*
X151034799Y-87394787D01*
X151007935Y-87400130D01*
X150975074Y-87410808D01*
X150872902Y-87426990D01*
X150832918Y-87434944D01*
X150822687Y-87434944D01*
X150812370Y-87436578D01*
X150647630Y-87436578D01*
X150637313Y-87434944D01*
X150627082Y-87434944D01*
X150587098Y-87426990D01*
X150484925Y-87410808D01*
X150452062Y-87400130D01*
X150425201Y-87394787D01*
X150387292Y-87379084D01*
X150328258Y-87359903D01*
X150272952Y-87331723D01*
X150235033Y-87316017D01*
X150212254Y-87300796D01*
X150181471Y-87285112D01*
X150097787Y-87224312D01*
X150063887Y-87201661D01*
X150056651Y-87194425D01*
X150048201Y-87188286D01*
X149931713Y-87071798D01*
X149925573Y-87063347D01*
X149918339Y-87056113D01*
X149895690Y-87022217D01*
X149834887Y-86938528D01*
X149819201Y-86907742D01*
X149803983Y-86884967D01*
X149788278Y-86847052D01*
X149760096Y-86791741D01*
X149740912Y-86732700D01*
X149725213Y-86694799D01*
X149719870Y-86667943D01*
X149709191Y-86635074D01*
X149693008Y-86532895D01*
X149685056Y-86492918D01*
X149685056Y-86482686D01*
X149683422Y-86472369D01*
X149683422Y-86307630D01*
X149685056Y-86297312D01*
X149685056Y-86287082D01*
X149693007Y-86247108D01*
X149709191Y-86144925D01*
X149719871Y-86112054D01*
X149725213Y-86085201D01*
X149740910Y-86047303D01*
X149760096Y-85988258D01*
X149788280Y-85932942D01*
X149803983Y-85895033D01*
X149819199Y-85872260D01*
X149834887Y-85841471D01*
X149895699Y-85757770D01*
X149918339Y-85723887D01*
X149925570Y-85716655D01*
X149931713Y-85708201D01*
X150048201Y-85591713D01*
X150056655Y-85585570D01*
X150063887Y-85578339D01*
X150097770Y-85555699D01*
X150181471Y-85494887D01*
X150212260Y-85479199D01*
X150235033Y-85463983D01*
X150272942Y-85448280D01*
X150328258Y-85420096D01*
X150387303Y-85400910D01*
X150425201Y-85385213D01*
X150452054Y-85379871D01*
X150484925Y-85369191D01*
X150587108Y-85353007D01*
X150627082Y-85345056D01*
X150637313Y-85345056D01*
X150647630Y-85343422D01*
X150812370Y-85343422D01*
X150822687Y-85345056D01*
G37*
G36*
X159142403Y-84846418D02*
G01*
X159191066Y-84878934D01*
X159223582Y-84927597D01*
X159235000Y-84985000D01*
X159235000Y-86735000D01*
X159223582Y-86792403D01*
X159191066Y-86841066D01*
X159142403Y-86873582D01*
X159085000Y-86885000D01*
X158785000Y-86885000D01*
X158727597Y-86873582D01*
X158678934Y-86841066D01*
X158646418Y-86792403D01*
X158635000Y-86735000D01*
X158635000Y-84985000D01*
X158646418Y-84927597D01*
X158678934Y-84878934D01*
X158727597Y-84846418D01*
X158785000Y-84835000D01*
X159085000Y-84835000D01*
X159142403Y-84846418D01*
G37*
G36*
X160412403Y-84846418D02*
G01*
X160461066Y-84878934D01*
X160493582Y-84927597D01*
X160505000Y-84985000D01*
X160505000Y-86735000D01*
X160493582Y-86792403D01*
X160461066Y-86841066D01*
X160412403Y-86873582D01*
X160355000Y-86885000D01*
X160055000Y-86885000D01*
X159997597Y-86873582D01*
X159948934Y-86841066D01*
X159916418Y-86792403D01*
X159905000Y-86735000D01*
X159905000Y-84985000D01*
X159916418Y-84927597D01*
X159948934Y-84878934D01*
X159997597Y-84846418D01*
X160055000Y-84835000D01*
X160355000Y-84835000D01*
X160412403Y-84846418D01*
G37*
G36*
X161682403Y-84846418D02*
G01*
X161731066Y-84878934D01*
X161763582Y-84927597D01*
X161775000Y-84985000D01*
X161775000Y-86735000D01*
X161763582Y-86792403D01*
X161731066Y-86841066D01*
X161682403Y-86873582D01*
X161625000Y-86885000D01*
X161325000Y-86885000D01*
X161267597Y-86873582D01*
X161218934Y-86841066D01*
X161186418Y-86792403D01*
X161175000Y-86735000D01*
X161175000Y-84985000D01*
X161186418Y-84927597D01*
X161218934Y-84878934D01*
X161267597Y-84846418D01*
X161325000Y-84835000D01*
X161625000Y-84835000D01*
X161682403Y-84846418D01*
G37*
G36*
X162952403Y-84846418D02*
G01*
X163001066Y-84878934D01*
X163033582Y-84927597D01*
X163045000Y-84985000D01*
X163045000Y-86735000D01*
X163033582Y-86792403D01*
X163001066Y-86841066D01*
X162952403Y-86873582D01*
X162895000Y-86885000D01*
X162595000Y-86885000D01*
X162537597Y-86873582D01*
X162488934Y-86841066D01*
X162456418Y-86792403D01*
X162445000Y-86735000D01*
X162445000Y-84985000D01*
X162456418Y-84927597D01*
X162488934Y-84878934D01*
X162537597Y-84846418D01*
X162595000Y-84835000D01*
X162895000Y-84835000D01*
X162952403Y-84846418D01*
G37*
G36*
X164222403Y-84846418D02*
G01*
X164271066Y-84878934D01*
X164303582Y-84927597D01*
X164315000Y-84985000D01*
X164315000Y-86735000D01*
X164303582Y-86792403D01*
X164271066Y-86841066D01*
X164222403Y-86873582D01*
X164165000Y-86885000D01*
X163865000Y-86885000D01*
X163807597Y-86873582D01*
X163758934Y-86841066D01*
X163726418Y-86792403D01*
X163715000Y-86735000D01*
X163715000Y-84985000D01*
X163726418Y-84927597D01*
X163758934Y-84878934D01*
X163807597Y-84846418D01*
X163865000Y-84835000D01*
X164165000Y-84835000D01*
X164222403Y-84846418D01*
G37*
G36*
X165492403Y-84846418D02*
G01*
X165541066Y-84878934D01*
X165573582Y-84927597D01*
X165585000Y-84985000D01*
X165585000Y-86735000D01*
X165573582Y-86792403D01*
X165541066Y-86841066D01*
X165492403Y-86873582D01*
X165435000Y-86885000D01*
X165135000Y-86885000D01*
X165077597Y-86873582D01*
X165028934Y-86841066D01*
X164996418Y-86792403D01*
X164985000Y-86735000D01*
X164985000Y-84985000D01*
X164996418Y-84927597D01*
X165028934Y-84878934D01*
X165077597Y-84846418D01*
X165135000Y-84835000D01*
X165435000Y-84835000D01*
X165492403Y-84846418D01*
G37*
G36*
X166762403Y-84846418D02*
G01*
X166811066Y-84878934D01*
X166843582Y-84927597D01*
X166855000Y-84985000D01*
X166855000Y-86735000D01*
X166843582Y-86792403D01*
X166811066Y-86841066D01*
X166762403Y-86873582D01*
X166705000Y-86885000D01*
X166405000Y-86885000D01*
X166347597Y-86873582D01*
X166298934Y-86841066D01*
X166266418Y-86792403D01*
X166255000Y-86735000D01*
X166255000Y-84985000D01*
X166266418Y-84927597D01*
X166298934Y-84878934D01*
X166347597Y-84846418D01*
X166405000Y-84835000D01*
X166705000Y-84835000D01*
X166762403Y-84846418D01*
G37*
G36*
X168032403Y-84846418D02*
G01*
X168081066Y-84878934D01*
X168113582Y-84927597D01*
X168125000Y-84985000D01*
X168125000Y-86735000D01*
X168113582Y-86792403D01*
X168081066Y-86841066D01*
X168032403Y-86873582D01*
X167975000Y-86885000D01*
X167675000Y-86885000D01*
X167617597Y-86873582D01*
X167568934Y-86841066D01*
X167536418Y-86792403D01*
X167525000Y-86735000D01*
X167525000Y-84985000D01*
X167536418Y-84927597D01*
X167568934Y-84878934D01*
X167617597Y-84846418D01*
X167675000Y-84835000D01*
X167975000Y-84835000D01*
X168032403Y-84846418D01*
G37*
G36*
X154474850Y-85480964D02*
G01*
X154525040Y-85486787D01*
X154542189Y-85494359D01*
X154565671Y-85499030D01*
X154590810Y-85515827D01*
X154610696Y-85524608D01*
X154624277Y-85538189D01*
X154646777Y-85553223D01*
X154661810Y-85575722D01*
X154675391Y-85589303D01*
X154684170Y-85609186D01*
X154700970Y-85634329D01*
X154705641Y-85657812D01*
X154713212Y-85674959D01*
X154719033Y-85725139D01*
X154720000Y-85730000D01*
X154720000Y-86630000D01*
X154719032Y-86634863D01*
X154713212Y-86685040D01*
X154705641Y-86702185D01*
X154700970Y-86725671D01*
X154684169Y-86750815D01*
X154675391Y-86770696D01*
X154661812Y-86784274D01*
X154646777Y-86806777D01*
X154624274Y-86821812D01*
X154610696Y-86835391D01*
X154590815Y-86844169D01*
X154565671Y-86860970D01*
X154542185Y-86865641D01*
X154525040Y-86873212D01*
X154474861Y-86879032D01*
X154470000Y-86880000D01*
X153820000Y-86880000D01*
X153815138Y-86879032D01*
X153764959Y-86873212D01*
X153747812Y-86865641D01*
X153724329Y-86860970D01*
X153699186Y-86844170D01*
X153679303Y-86835391D01*
X153665722Y-86821810D01*
X153643223Y-86806777D01*
X153628189Y-86784277D01*
X153614608Y-86770696D01*
X153605827Y-86750810D01*
X153589030Y-86725671D01*
X153584359Y-86702189D01*
X153576787Y-86685040D01*
X153570964Y-86634849D01*
X153570000Y-86630000D01*
X153570000Y-85730000D01*
X153570964Y-85725150D01*
X153576787Y-85674959D01*
X153584359Y-85657808D01*
X153589030Y-85634329D01*
X153605826Y-85609191D01*
X153614608Y-85589303D01*
X153628191Y-85575719D01*
X153643223Y-85553223D01*
X153665719Y-85538191D01*
X153679303Y-85524608D01*
X153699191Y-85515826D01*
X153724329Y-85499030D01*
X153747808Y-85494359D01*
X153764959Y-85486787D01*
X153815151Y-85480964D01*
X153820000Y-85480000D01*
X154470000Y-85480000D01*
X154474850Y-85480964D01*
G37*
G36*
X156524850Y-85480964D02*
G01*
X156575040Y-85486787D01*
X156592189Y-85494359D01*
X156615671Y-85499030D01*
X156640810Y-85515827D01*
X156660696Y-85524608D01*
X156674277Y-85538189D01*
X156696777Y-85553223D01*
X156711810Y-85575722D01*
X156725391Y-85589303D01*
X156734170Y-85609186D01*
X156750970Y-85634329D01*
X156755641Y-85657812D01*
X156763212Y-85674959D01*
X156769033Y-85725139D01*
X156770000Y-85730000D01*
X156770000Y-86630000D01*
X156769032Y-86634863D01*
X156763212Y-86685040D01*
X156755641Y-86702185D01*
X156750970Y-86725671D01*
X156734169Y-86750815D01*
X156725391Y-86770696D01*
X156711812Y-86784274D01*
X156696777Y-86806777D01*
X156674274Y-86821812D01*
X156660696Y-86835391D01*
X156640815Y-86844169D01*
X156615671Y-86860970D01*
X156592185Y-86865641D01*
X156575040Y-86873212D01*
X156524861Y-86879032D01*
X156520000Y-86880000D01*
X155870000Y-86880000D01*
X155865138Y-86879032D01*
X155814959Y-86873212D01*
X155797812Y-86865641D01*
X155774329Y-86860970D01*
X155749186Y-86844170D01*
X155729303Y-86835391D01*
X155715722Y-86821810D01*
X155693223Y-86806777D01*
X155678189Y-86784277D01*
X155664608Y-86770696D01*
X155655827Y-86750810D01*
X155639030Y-86725671D01*
X155634359Y-86702189D01*
X155626787Y-86685040D01*
X155620964Y-86634849D01*
X155620000Y-86630000D01*
X155620000Y-85730000D01*
X155620964Y-85725150D01*
X155626787Y-85674959D01*
X155634359Y-85657808D01*
X155639030Y-85634329D01*
X155655826Y-85609191D01*
X155664608Y-85589303D01*
X155678191Y-85575719D01*
X155693223Y-85553223D01*
X155715719Y-85538191D01*
X155729303Y-85524608D01*
X155749191Y-85515826D01*
X155774329Y-85499030D01*
X155797808Y-85494359D01*
X155814959Y-85486787D01*
X155865151Y-85480964D01*
X155870000Y-85480000D01*
X156520000Y-85480000D01*
X156524850Y-85480964D01*
G37*
G36*
X170239850Y-85675964D02*
G01*
X170287179Y-85681455D01*
X170303353Y-85688596D01*
X170325887Y-85693079D01*
X170350011Y-85709198D01*
X170368632Y-85717420D01*
X170381348Y-85730136D01*
X170402938Y-85744562D01*
X170417363Y-85766151D01*
X170430079Y-85778867D01*
X170438300Y-85797486D01*
X170454421Y-85821613D01*
X170458903Y-85844147D01*
X170466044Y-85860319D01*
X170471533Y-85907640D01*
X170472500Y-85912500D01*
X170472500Y-86387500D01*
X170471532Y-86392362D01*
X170466044Y-86439679D01*
X170458904Y-86455849D01*
X170454421Y-86478387D01*
X170438298Y-86502516D01*
X170430079Y-86521132D01*
X170417365Y-86533845D01*
X170402938Y-86555438D01*
X170381345Y-86569865D01*
X170368632Y-86582579D01*
X170350015Y-86590799D01*
X170325887Y-86606921D01*
X170303350Y-86611403D01*
X170287180Y-86618544D01*
X170239861Y-86624033D01*
X170235000Y-86625000D01*
X169735000Y-86625000D01*
X169730138Y-86624033D01*
X169682820Y-86618544D01*
X169666648Y-86611403D01*
X169644113Y-86606921D01*
X169619985Y-86590800D01*
X169601367Y-86582579D01*
X169588651Y-86569863D01*
X169567062Y-86555438D01*
X169552636Y-86533848D01*
X169539920Y-86521132D01*
X169531698Y-86502511D01*
X169515579Y-86478387D01*
X169511096Y-86455854D01*
X169503955Y-86439680D01*
X169498464Y-86392348D01*
X169497500Y-86387500D01*
X169497500Y-85912500D01*
X169498464Y-85907651D01*
X169503955Y-85860320D01*
X169511097Y-85844144D01*
X169515579Y-85821613D01*
X169531697Y-85797490D01*
X169539920Y-85778867D01*
X169552638Y-85766148D01*
X169567062Y-85744562D01*
X169588648Y-85730138D01*
X169601367Y-85717420D01*
X169619990Y-85709196D01*
X169644113Y-85693079D01*
X169666643Y-85688597D01*
X169682819Y-85681455D01*
X169730152Y-85675964D01*
X169735000Y-85675000D01*
X170235000Y-85675000D01*
X170239850Y-85675964D01*
G37*
G36*
X172064850Y-85675964D02*
G01*
X172112179Y-85681455D01*
X172128353Y-85688596D01*
X172150887Y-85693079D01*
X172175011Y-85709198D01*
X172193632Y-85717420D01*
X172206348Y-85730136D01*
X172227938Y-85744562D01*
X172242363Y-85766151D01*
X172255079Y-85778867D01*
X172263300Y-85797486D01*
X172279421Y-85821613D01*
X172283903Y-85844147D01*
X172291044Y-85860319D01*
X172296533Y-85907640D01*
X172297500Y-85912500D01*
X172297500Y-86387500D01*
X172296532Y-86392362D01*
X172291044Y-86439679D01*
X172283904Y-86455849D01*
X172279421Y-86478387D01*
X172263298Y-86502516D01*
X172255079Y-86521132D01*
X172242365Y-86533845D01*
X172227938Y-86555438D01*
X172206345Y-86569865D01*
X172193632Y-86582579D01*
X172175015Y-86590799D01*
X172150887Y-86606921D01*
X172128350Y-86611403D01*
X172112180Y-86618544D01*
X172064861Y-86624033D01*
X172060000Y-86625000D01*
X171560000Y-86625000D01*
X171555138Y-86624033D01*
X171507820Y-86618544D01*
X171491648Y-86611403D01*
X171469113Y-86606921D01*
X171444985Y-86590800D01*
X171426367Y-86582579D01*
X171413651Y-86569863D01*
X171392062Y-86555438D01*
X171377636Y-86533848D01*
X171364920Y-86521132D01*
X171356698Y-86502511D01*
X171340579Y-86478387D01*
X171336096Y-86455854D01*
X171328955Y-86439680D01*
X171323464Y-86392348D01*
X171322500Y-86387500D01*
X171322500Y-85912500D01*
X171323464Y-85907651D01*
X171328955Y-85860320D01*
X171336097Y-85844144D01*
X171340579Y-85821613D01*
X171356697Y-85797490D01*
X171364920Y-85778867D01*
X171377638Y-85766148D01*
X171392062Y-85744562D01*
X171413648Y-85730138D01*
X171426367Y-85717420D01*
X171444990Y-85709196D01*
X171469113Y-85693079D01*
X171491643Y-85688597D01*
X171507819Y-85681455D01*
X171555152Y-85675964D01*
X171560000Y-85675000D01*
X172060000Y-85675000D01*
X172064850Y-85675964D01*
G37*
M02*
