%TF.GenerationSoftware,KiCad,Pcbnew,10.0.3*%
%TF.CreationDate,2026-07-07T12:03:59+05:45*%
%TF.ProjectId,DS3231 RTC Module,44533332-3331-4205-9254-43204d6f6475,rev?*%
%TF.SameCoordinates,Original*%
%TF.FileFunction,Legend,Top*%
%TF.FilePolarity,Positive*%
%FSLAX46Y46*%
G04 Gerber Fmt 4.6, Leading zero omitted, Abs format (unit mm)*
G04 Created by KiCad (PCBNEW 10.0.3) date 2026-07-07 12:03:59*
%MOMM*%
%LPD*%
G01*
G04 APERTURE LIST*
%ADD10C,0.100000*%
%ADD11C,0.150000*%
%ADD12C,0.200000*%
%ADD13C,0.000000*%
%ADD14C,0.120000*%
%ADD15C,0.127000*%
G04 APERTURE END LIST*
D10*
X169765788Y-84953609D02*
X169765788Y-84453609D01*
X169765788Y-84453609D02*
X169884836Y-84453609D01*
X169884836Y-84453609D02*
X169956264Y-84477419D01*
X169956264Y-84477419D02*
X170003883Y-84525038D01*
X170003883Y-84525038D02*
X170027693Y-84572657D01*
X170027693Y-84572657D02*
X170051502Y-84667895D01*
X170051502Y-84667895D02*
X170051502Y-84739323D01*
X170051502Y-84739323D02*
X170027693Y-84834561D01*
X170027693Y-84834561D02*
X170003883Y-84882180D01*
X170003883Y-84882180D02*
X169956264Y-84929800D01*
X169956264Y-84929800D02*
X169884836Y-84953609D01*
X169884836Y-84953609D02*
X169765788Y-84953609D01*
X170241979Y-84929800D02*
X170313407Y-84953609D01*
X170313407Y-84953609D02*
X170432455Y-84953609D01*
X170432455Y-84953609D02*
X170480074Y-84929800D01*
X170480074Y-84929800D02*
X170503883Y-84905990D01*
X170503883Y-84905990D02*
X170527693Y-84858371D01*
X170527693Y-84858371D02*
X170527693Y-84810752D01*
X170527693Y-84810752D02*
X170503883Y-84763133D01*
X170503883Y-84763133D02*
X170480074Y-84739323D01*
X170480074Y-84739323D02*
X170432455Y-84715514D01*
X170432455Y-84715514D02*
X170337217Y-84691704D01*
X170337217Y-84691704D02*
X170289598Y-84667895D01*
X170289598Y-84667895D02*
X170265788Y-84644085D01*
X170265788Y-84644085D02*
X170241979Y-84596466D01*
X170241979Y-84596466D02*
X170241979Y-84548847D01*
X170241979Y-84548847D02*
X170265788Y-84501228D01*
X170265788Y-84501228D02*
X170289598Y-84477419D01*
X170289598Y-84477419D02*
X170337217Y-84453609D01*
X170337217Y-84453609D02*
X170456264Y-84453609D01*
X170456264Y-84453609D02*
X170527693Y-84477419D01*
X170694359Y-84453609D02*
X171003883Y-84453609D01*
X171003883Y-84453609D02*
X170837216Y-84644085D01*
X170837216Y-84644085D02*
X170908645Y-84644085D01*
X170908645Y-84644085D02*
X170956264Y-84667895D01*
X170956264Y-84667895D02*
X170980073Y-84691704D01*
X170980073Y-84691704D02*
X171003883Y-84739323D01*
X171003883Y-84739323D02*
X171003883Y-84858371D01*
X171003883Y-84858371D02*
X170980073Y-84905990D01*
X170980073Y-84905990D02*
X170956264Y-84929800D01*
X170956264Y-84929800D02*
X170908645Y-84953609D01*
X170908645Y-84953609D02*
X170765788Y-84953609D01*
X170765788Y-84953609D02*
X170718169Y-84929800D01*
X170718169Y-84929800D02*
X170694359Y-84905990D01*
X171194359Y-84501228D02*
X171218168Y-84477419D01*
X171218168Y-84477419D02*
X171265787Y-84453609D01*
X171265787Y-84453609D02*
X171384835Y-84453609D01*
X171384835Y-84453609D02*
X171432454Y-84477419D01*
X171432454Y-84477419D02*
X171456263Y-84501228D01*
X171456263Y-84501228D02*
X171480073Y-84548847D01*
X171480073Y-84548847D02*
X171480073Y-84596466D01*
X171480073Y-84596466D02*
X171456263Y-84667895D01*
X171456263Y-84667895D02*
X171170549Y-84953609D01*
X171170549Y-84953609D02*
X171480073Y-84953609D01*
X171646739Y-84453609D02*
X171956263Y-84453609D01*
X171956263Y-84453609D02*
X171789596Y-84644085D01*
X171789596Y-84644085D02*
X171861025Y-84644085D01*
X171861025Y-84644085D02*
X171908644Y-84667895D01*
X171908644Y-84667895D02*
X171932453Y-84691704D01*
X171932453Y-84691704D02*
X171956263Y-84739323D01*
X171956263Y-84739323D02*
X171956263Y-84858371D01*
X171956263Y-84858371D02*
X171932453Y-84905990D01*
X171932453Y-84905990D02*
X171908644Y-84929800D01*
X171908644Y-84929800D02*
X171861025Y-84953609D01*
X171861025Y-84953609D02*
X171718168Y-84953609D01*
X171718168Y-84953609D02*
X171670549Y-84929800D01*
X171670549Y-84929800D02*
X171646739Y-84905990D01*
X172432453Y-84953609D02*
X172146739Y-84953609D01*
X172289596Y-84953609D02*
X172289596Y-84453609D01*
X172289596Y-84453609D02*
X172241977Y-84525038D01*
X172241977Y-84525038D02*
X172194358Y-84572657D01*
X172194358Y-84572657D02*
X172146739Y-84596466D01*
X173313404Y-84953609D02*
X173146738Y-84715514D01*
X173027690Y-84953609D02*
X173027690Y-84453609D01*
X173027690Y-84453609D02*
X173218166Y-84453609D01*
X173218166Y-84453609D02*
X173265785Y-84477419D01*
X173265785Y-84477419D02*
X173289595Y-84501228D01*
X173289595Y-84501228D02*
X173313404Y-84548847D01*
X173313404Y-84548847D02*
X173313404Y-84620276D01*
X173313404Y-84620276D02*
X173289595Y-84667895D01*
X173289595Y-84667895D02*
X173265785Y-84691704D01*
X173265785Y-84691704D02*
X173218166Y-84715514D01*
X173218166Y-84715514D02*
X173027690Y-84715514D01*
X173456262Y-84453609D02*
X173741976Y-84453609D01*
X173599119Y-84953609D02*
X173599119Y-84453609D01*
X174194356Y-84905990D02*
X174170547Y-84929800D01*
X174170547Y-84929800D02*
X174099118Y-84953609D01*
X174099118Y-84953609D02*
X174051499Y-84953609D01*
X174051499Y-84953609D02*
X173980071Y-84929800D01*
X173980071Y-84929800D02*
X173932452Y-84882180D01*
X173932452Y-84882180D02*
X173908642Y-84834561D01*
X173908642Y-84834561D02*
X173884833Y-84739323D01*
X173884833Y-84739323D02*
X173884833Y-84667895D01*
X173884833Y-84667895D02*
X173908642Y-84572657D01*
X173908642Y-84572657D02*
X173932452Y-84525038D01*
X173932452Y-84525038D02*
X173980071Y-84477419D01*
X173980071Y-84477419D02*
X174051499Y-84453609D01*
X174051499Y-84453609D02*
X174099118Y-84453609D01*
X174099118Y-84453609D02*
X174170547Y-84477419D01*
X174170547Y-84477419D02*
X174194356Y-84501228D01*
D11*
X177020588Y-100257438D02*
X176925350Y-100209819D01*
X176925350Y-100209819D02*
X176782493Y-100209819D01*
X176782493Y-100209819D02*
X176639636Y-100257438D01*
X176639636Y-100257438D02*
X176544398Y-100352676D01*
X176544398Y-100352676D02*
X176496779Y-100447914D01*
X176496779Y-100447914D02*
X176449160Y-100638390D01*
X176449160Y-100638390D02*
X176449160Y-100781247D01*
X176449160Y-100781247D02*
X176496779Y-100971723D01*
X176496779Y-100971723D02*
X176544398Y-101066961D01*
X176544398Y-101066961D02*
X176639636Y-101162200D01*
X176639636Y-101162200D02*
X176782493Y-101209819D01*
X176782493Y-101209819D02*
X176877731Y-101209819D01*
X176877731Y-101209819D02*
X177020588Y-101162200D01*
X177020588Y-101162200D02*
X177068207Y-101114580D01*
X177068207Y-101114580D02*
X177068207Y-100781247D01*
X177068207Y-100781247D02*
X176877731Y-100781247D01*
X177496779Y-101209819D02*
X177496779Y-100209819D01*
X177496779Y-100209819D02*
X178068207Y-101209819D01*
X178068207Y-101209819D02*
X178068207Y-100209819D01*
X178544398Y-101209819D02*
X178544398Y-100209819D01*
X178544398Y-100209819D02*
X178782493Y-100209819D01*
X178782493Y-100209819D02*
X178925350Y-100257438D01*
X178925350Y-100257438D02*
X179020588Y-100352676D01*
X179020588Y-100352676D02*
X179068207Y-100447914D01*
X179068207Y-100447914D02*
X179115826Y-100638390D01*
X179115826Y-100638390D02*
X179115826Y-100781247D01*
X179115826Y-100781247D02*
X179068207Y-100971723D01*
X179068207Y-100971723D02*
X179020588Y-101066961D01*
X179020588Y-101066961D02*
X178925350Y-101162200D01*
X178925350Y-101162200D02*
X178782493Y-101209819D01*
X178782493Y-101209819D02*
X178544398Y-101209819D01*
X176293922Y-94789819D02*
X176627255Y-95789819D01*
X176627255Y-95789819D02*
X176960588Y-94789819D01*
X177865350Y-95694580D02*
X177817731Y-95742200D01*
X177817731Y-95742200D02*
X177674874Y-95789819D01*
X177674874Y-95789819D02*
X177579636Y-95789819D01*
X177579636Y-95789819D02*
X177436779Y-95742200D01*
X177436779Y-95742200D02*
X177341541Y-95646961D01*
X177341541Y-95646961D02*
X177293922Y-95551723D01*
X177293922Y-95551723D02*
X177246303Y-95361247D01*
X177246303Y-95361247D02*
X177246303Y-95218390D01*
X177246303Y-95218390D02*
X177293922Y-95027914D01*
X177293922Y-95027914D02*
X177341541Y-94932676D01*
X177341541Y-94932676D02*
X177436779Y-94837438D01*
X177436779Y-94837438D02*
X177579636Y-94789819D01*
X177579636Y-94789819D02*
X177674874Y-94789819D01*
X177674874Y-94789819D02*
X177817731Y-94837438D01*
X177817731Y-94837438D02*
X177865350Y-94885057D01*
X178865350Y-95694580D02*
X178817731Y-95742200D01*
X178817731Y-95742200D02*
X178674874Y-95789819D01*
X178674874Y-95789819D02*
X178579636Y-95789819D01*
X178579636Y-95789819D02*
X178436779Y-95742200D01*
X178436779Y-95742200D02*
X178341541Y-95646961D01*
X178341541Y-95646961D02*
X178293922Y-95551723D01*
X178293922Y-95551723D02*
X178246303Y-95361247D01*
X178246303Y-95361247D02*
X178246303Y-95218390D01*
X178246303Y-95218390D02*
X178293922Y-95027914D01*
X178293922Y-95027914D02*
X178341541Y-94932676D01*
X178341541Y-94932676D02*
X178436779Y-94837438D01*
X178436779Y-94837438D02*
X178579636Y-94789819D01*
X178579636Y-94789819D02*
X178674874Y-94789819D01*
X178674874Y-94789819D02*
X178817731Y-94837438D01*
X178817731Y-94837438D02*
X178865350Y-94885057D01*
X176449160Y-90442200D02*
X176592017Y-90489819D01*
X176592017Y-90489819D02*
X176830112Y-90489819D01*
X176830112Y-90489819D02*
X176925350Y-90442200D01*
X176925350Y-90442200D02*
X176972969Y-90394580D01*
X176972969Y-90394580D02*
X177020588Y-90299342D01*
X177020588Y-90299342D02*
X177020588Y-90204104D01*
X177020588Y-90204104D02*
X176972969Y-90108866D01*
X176972969Y-90108866D02*
X176925350Y-90061247D01*
X176925350Y-90061247D02*
X176830112Y-90013628D01*
X176830112Y-90013628D02*
X176639636Y-89966009D01*
X176639636Y-89966009D02*
X176544398Y-89918390D01*
X176544398Y-89918390D02*
X176496779Y-89870771D01*
X176496779Y-89870771D02*
X176449160Y-89775533D01*
X176449160Y-89775533D02*
X176449160Y-89680295D01*
X176449160Y-89680295D02*
X176496779Y-89585057D01*
X176496779Y-89585057D02*
X176544398Y-89537438D01*
X176544398Y-89537438D02*
X176639636Y-89489819D01*
X176639636Y-89489819D02*
X176877731Y-89489819D01*
X176877731Y-89489819D02*
X177020588Y-89537438D01*
X177449160Y-90489819D02*
X177449160Y-89489819D01*
X177449160Y-89489819D02*
X177687255Y-89489819D01*
X177687255Y-89489819D02*
X177830112Y-89537438D01*
X177830112Y-89537438D02*
X177925350Y-89632676D01*
X177925350Y-89632676D02*
X177972969Y-89727914D01*
X177972969Y-89727914D02*
X178020588Y-89918390D01*
X178020588Y-89918390D02*
X178020588Y-90061247D01*
X178020588Y-90061247D02*
X177972969Y-90251723D01*
X177972969Y-90251723D02*
X177925350Y-90346961D01*
X177925350Y-90346961D02*
X177830112Y-90442200D01*
X177830112Y-90442200D02*
X177687255Y-90489819D01*
X177687255Y-90489819D02*
X177449160Y-90489819D01*
X178401541Y-90204104D02*
X178877731Y-90204104D01*
X178306303Y-90489819D02*
X178639636Y-89489819D01*
X178639636Y-89489819D02*
X178972969Y-90489819D01*
X176499160Y-84982200D02*
X176642017Y-85029819D01*
X176642017Y-85029819D02*
X176880112Y-85029819D01*
X176880112Y-85029819D02*
X176975350Y-84982200D01*
X176975350Y-84982200D02*
X177022969Y-84934580D01*
X177022969Y-84934580D02*
X177070588Y-84839342D01*
X177070588Y-84839342D02*
X177070588Y-84744104D01*
X177070588Y-84744104D02*
X177022969Y-84648866D01*
X177022969Y-84648866D02*
X176975350Y-84601247D01*
X176975350Y-84601247D02*
X176880112Y-84553628D01*
X176880112Y-84553628D02*
X176689636Y-84506009D01*
X176689636Y-84506009D02*
X176594398Y-84458390D01*
X176594398Y-84458390D02*
X176546779Y-84410771D01*
X176546779Y-84410771D02*
X176499160Y-84315533D01*
X176499160Y-84315533D02*
X176499160Y-84220295D01*
X176499160Y-84220295D02*
X176546779Y-84125057D01*
X176546779Y-84125057D02*
X176594398Y-84077438D01*
X176594398Y-84077438D02*
X176689636Y-84029819D01*
X176689636Y-84029819D02*
X176927731Y-84029819D01*
X176927731Y-84029819D02*
X177070588Y-84077438D01*
X178070588Y-84934580D02*
X178022969Y-84982200D01*
X178022969Y-84982200D02*
X177880112Y-85029819D01*
X177880112Y-85029819D02*
X177784874Y-85029819D01*
X177784874Y-85029819D02*
X177642017Y-84982200D01*
X177642017Y-84982200D02*
X177546779Y-84886961D01*
X177546779Y-84886961D02*
X177499160Y-84791723D01*
X177499160Y-84791723D02*
X177451541Y-84601247D01*
X177451541Y-84601247D02*
X177451541Y-84458390D01*
X177451541Y-84458390D02*
X177499160Y-84267914D01*
X177499160Y-84267914D02*
X177546779Y-84172676D01*
X177546779Y-84172676D02*
X177642017Y-84077438D01*
X177642017Y-84077438D02*
X177784874Y-84029819D01*
X177784874Y-84029819D02*
X177880112Y-84029819D01*
X177880112Y-84029819D02*
X178022969Y-84077438D01*
X178022969Y-84077438D02*
X178070588Y-84125057D01*
X178975350Y-85029819D02*
X178499160Y-85029819D01*
X178499160Y-85029819D02*
X178499160Y-84029819D01*
D12*
G36*
X166931844Y-98438430D02*
G01*
X166951296Y-98457882D01*
X166981101Y-98517492D01*
X166981101Y-98613135D01*
X166951296Y-98672743D01*
X166926627Y-98697413D01*
X166867018Y-98727219D01*
X166609673Y-98727219D01*
X166609673Y-98403409D01*
X166826779Y-98403409D01*
X166931844Y-98438430D01*
G37*
G36*
X166879008Y-97957024D02*
G01*
X166903677Y-97981692D01*
X166933482Y-98041302D01*
X166933482Y-98089326D01*
X166903677Y-98148935D01*
X166879008Y-98173603D01*
X166819399Y-98203409D01*
X166609673Y-98203409D01*
X166609673Y-97927219D01*
X166819399Y-97927219D01*
X166879008Y-97957024D01*
G37*
G36*
X171217557Y-97962240D02*
G01*
X171284630Y-98029313D01*
X171320082Y-98100218D01*
X171362053Y-98268099D01*
X171362053Y-98386337D01*
X171320082Y-98554218D01*
X171284629Y-98625124D01*
X171217558Y-98692197D01*
X171112493Y-98727219D01*
X170990625Y-98727219D01*
X170990625Y-97927219D01*
X171112493Y-97927219D01*
X171217557Y-97962240D01*
G37*
G36*
X169259960Y-97957024D02*
G01*
X169284629Y-97981692D01*
X169314434Y-98041302D01*
X169314434Y-98136945D01*
X169284629Y-98196554D01*
X169259960Y-98221222D01*
X169200351Y-98251028D01*
X168943006Y-98251028D01*
X168943006Y-97927219D01*
X169200351Y-97927219D01*
X169259960Y-97957024D01*
G37*
G36*
X172307579Y-97957024D02*
G01*
X172332248Y-97981692D01*
X172362053Y-98041302D01*
X172362053Y-98136945D01*
X172332248Y-98196554D01*
X172307579Y-98221222D01*
X172247970Y-98251028D01*
X171990625Y-98251028D01*
X171990625Y-97927219D01*
X172247970Y-97927219D01*
X172307579Y-97957024D01*
G37*
G36*
X173180454Y-98441504D02*
G01*
X172981749Y-98441504D01*
X173081101Y-98143446D01*
X173180454Y-98441504D01*
G37*
G36*
X173624760Y-99038330D02*
G01*
X166298562Y-99038330D01*
X166298562Y-97827219D01*
X166409673Y-97827219D01*
X166409673Y-98827219D01*
X166411594Y-98846728D01*
X166426526Y-98882776D01*
X166454116Y-98910366D01*
X166490164Y-98925298D01*
X166509673Y-98927219D01*
X166890625Y-98927219D01*
X166910134Y-98925298D01*
X166913454Y-98923922D01*
X166917038Y-98923668D01*
X166935346Y-98916662D01*
X167030584Y-98869043D01*
X167038979Y-98863758D01*
X167041421Y-98862747D01*
X167044168Y-98860491D01*
X167047174Y-98858600D01*
X167048904Y-98856605D01*
X167056574Y-98850310D01*
X167104193Y-98802690D01*
X167110485Y-98795023D01*
X167112482Y-98793292D01*
X167114375Y-98790284D01*
X167116630Y-98787537D01*
X167117641Y-98785095D01*
X167122925Y-98776701D01*
X167170544Y-98681464D01*
X167177550Y-98663155D01*
X167177804Y-98659571D01*
X167179180Y-98656251D01*
X167181101Y-98636742D01*
X167181101Y-98493885D01*
X167179180Y-98474376D01*
X167177804Y-98471055D01*
X167177550Y-98467472D01*
X167170544Y-98449163D01*
X167122925Y-98353926D01*
X167117639Y-98345529D01*
X167116629Y-98343089D01*
X167114375Y-98340343D01*
X167112482Y-98337335D01*
X167110484Y-98335602D01*
X167104192Y-98327936D01*
X167056574Y-98280317D01*
X167055785Y-98279669D01*
X167056573Y-98278882D01*
X167062865Y-98271215D01*
X167064863Y-98269483D01*
X167066756Y-98266474D01*
X167069010Y-98263729D01*
X167070020Y-98261288D01*
X167075306Y-98252892D01*
X167122925Y-98157655D01*
X167129931Y-98139346D01*
X167130185Y-98135762D01*
X167131561Y-98132442D01*
X167133482Y-98112933D01*
X167133482Y-98017695D01*
X167131561Y-97998186D01*
X167130185Y-97994865D01*
X167129931Y-97991282D01*
X167122925Y-97972973D01*
X167075306Y-97877736D01*
X167070020Y-97869339D01*
X167069010Y-97866899D01*
X167066756Y-97864153D01*
X167064863Y-97861145D01*
X167062865Y-97859412D01*
X167056573Y-97851746D01*
X167029815Y-97824987D01*
X167266841Y-97824987D01*
X167273597Y-97863416D01*
X167282450Y-97880907D01*
X167600149Y-98380148D01*
X167600149Y-98827219D01*
X167602070Y-98846728D01*
X167617002Y-98882776D01*
X167644592Y-98910366D01*
X167680640Y-98925298D01*
X167719658Y-98925298D01*
X167755706Y-98910366D01*
X167783296Y-98882776D01*
X167798228Y-98846728D01*
X167800149Y-98827219D01*
X167800149Y-98760091D01*
X168221118Y-98760091D01*
X168221118Y-98799109D01*
X168227581Y-98814711D01*
X168236050Y-98835158D01*
X168236054Y-98835162D01*
X168248486Y-98850311D01*
X168296105Y-98897929D01*
X168311258Y-98910366D01*
X168320261Y-98914095D01*
X168347307Y-98925298D01*
X168386325Y-98925298D01*
X168422373Y-98910366D01*
X168437527Y-98897930D01*
X168485145Y-98850311D01*
X168497582Y-98835158D01*
X168504334Y-98818856D01*
X168512513Y-98799110D01*
X168512514Y-98760092D01*
X168497583Y-98724043D01*
X168485146Y-98708890D01*
X168437527Y-98661270D01*
X168422374Y-98648833D01*
X168400180Y-98639640D01*
X168400042Y-98639583D01*
X168386325Y-98633901D01*
X168347307Y-98633901D01*
X168336749Y-98638274D01*
X168311259Y-98648832D01*
X168311258Y-98648833D01*
X168296104Y-98661270D01*
X168248486Y-98708890D01*
X168236049Y-98724043D01*
X168227090Y-98745673D01*
X168221118Y-98760091D01*
X167800149Y-98760091D01*
X167800149Y-98380148D01*
X167891701Y-98236281D01*
X168221118Y-98236281D01*
X168221118Y-98275299D01*
X168236050Y-98311347D01*
X168248486Y-98326501D01*
X168296105Y-98374119D01*
X168311258Y-98386556D01*
X168320261Y-98390285D01*
X168347307Y-98401488D01*
X168386325Y-98401488D01*
X168422373Y-98386556D01*
X168437527Y-98374120D01*
X168485145Y-98326501D01*
X168497582Y-98311348D01*
X168512513Y-98275299D01*
X168512513Y-98236281D01*
X168509653Y-98229377D01*
X168497582Y-98200232D01*
X168485145Y-98185079D01*
X168437527Y-98137460D01*
X168422373Y-98125024D01*
X168386325Y-98110092D01*
X168347307Y-98110092D01*
X168321816Y-98120650D01*
X168311258Y-98125024D01*
X168296105Y-98137461D01*
X168248486Y-98185079D01*
X168236051Y-98200232D01*
X168236050Y-98200233D01*
X168221118Y-98236281D01*
X167891701Y-98236281D01*
X168117848Y-97880906D01*
X168126701Y-97863416D01*
X168133065Y-97827219D01*
X168743006Y-97827219D01*
X168743006Y-98827219D01*
X168744927Y-98846728D01*
X168759859Y-98882776D01*
X168787449Y-98910366D01*
X168823497Y-98925298D01*
X168862515Y-98925298D01*
X168898563Y-98910366D01*
X168926153Y-98882776D01*
X168941085Y-98846728D01*
X168943006Y-98827219D01*
X168943006Y-98451028D01*
X169029036Y-98451028D01*
X169332511Y-98884565D01*
X169345272Y-98899446D01*
X169378177Y-98920415D01*
X169416602Y-98927196D01*
X169454696Y-98918756D01*
X169486661Y-98896381D01*
X169507630Y-98863476D01*
X169514411Y-98825052D01*
X169505971Y-98786957D01*
X169496357Y-98769873D01*
X169266389Y-98441347D01*
X169268679Y-98440471D01*
X169363917Y-98392852D01*
X169372313Y-98387566D01*
X169374753Y-98386556D01*
X169377499Y-98384302D01*
X169380507Y-98382409D01*
X169382236Y-98380414D01*
X169389907Y-98374120D01*
X169437525Y-98326501D01*
X169443817Y-98318834D01*
X169445815Y-98317102D01*
X169447708Y-98314093D01*
X169449962Y-98311348D01*
X169450972Y-98308907D01*
X169456258Y-98300511D01*
X169503877Y-98205274D01*
X169510883Y-98186965D01*
X169511137Y-98183381D01*
X169512513Y-98180061D01*
X169514434Y-98160552D01*
X169514434Y-98017695D01*
X169512513Y-97998186D01*
X169511137Y-97994865D01*
X169510883Y-97991282D01*
X169503877Y-97972973D01*
X169456258Y-97877736D01*
X169450972Y-97869339D01*
X169449962Y-97866899D01*
X169447708Y-97864153D01*
X169445815Y-97861145D01*
X169443817Y-97859412D01*
X169437525Y-97851746D01*
X169412999Y-97827219D01*
X169743006Y-97827219D01*
X169743006Y-98636742D01*
X169744927Y-98656251D01*
X169746302Y-98659571D01*
X169746557Y-98663155D01*
X169753563Y-98681463D01*
X169801182Y-98776701D01*
X169806465Y-98785093D01*
X169807477Y-98787537D01*
X169809733Y-98790286D01*
X169811625Y-98793291D01*
X169813619Y-98795020D01*
X169819914Y-98802690D01*
X169867532Y-98850310D01*
X169875200Y-98856603D01*
X169876932Y-98858600D01*
X169879940Y-98860493D01*
X169882686Y-98862747D01*
X169885126Y-98863757D01*
X169893523Y-98869043D01*
X169988760Y-98916662D01*
X170007069Y-98923668D01*
X170010652Y-98923922D01*
X170013973Y-98925298D01*
X170033482Y-98927219D01*
X170223958Y-98927219D01*
X170243467Y-98925298D01*
X170246787Y-98923922D01*
X170250371Y-98923668D01*
X170268679Y-98916662D01*
X170363917Y-98869043D01*
X170372312Y-98863758D01*
X170374754Y-98862747D01*
X170377501Y-98860491D01*
X170380507Y-98858600D01*
X170382237Y-98856605D01*
X170389907Y-98850310D01*
X170437526Y-98802690D01*
X170443818Y-98795023D01*
X170445815Y-98793292D01*
X170447708Y-98790284D01*
X170449963Y-98787537D01*
X170450974Y-98785095D01*
X170456258Y-98776701D01*
X170503877Y-98681464D01*
X170510883Y-98663155D01*
X170511137Y-98659571D01*
X170512513Y-98656251D01*
X170514434Y-98636742D01*
X170514434Y-97827219D01*
X170790625Y-97827219D01*
X170790625Y-98827219D01*
X170792546Y-98846728D01*
X170807478Y-98882776D01*
X170835068Y-98910366D01*
X170871116Y-98925298D01*
X170890625Y-98927219D01*
X171128720Y-98927219D01*
X171138593Y-98926246D01*
X171141227Y-98926434D01*
X171144690Y-98925646D01*
X171148229Y-98925298D01*
X171150671Y-98924286D01*
X171160343Y-98922087D01*
X171303199Y-98874468D01*
X171321100Y-98866477D01*
X171323815Y-98864122D01*
X171327135Y-98862747D01*
X171342288Y-98850310D01*
X171437526Y-98755071D01*
X171443818Y-98747404D01*
X171445815Y-98745673D01*
X171447708Y-98742665D01*
X171449963Y-98739918D01*
X171450974Y-98737476D01*
X171456258Y-98729082D01*
X171503877Y-98633845D01*
X171504423Y-98632416D01*
X171504853Y-98631837D01*
X171507774Y-98623660D01*
X171510883Y-98615536D01*
X171510934Y-98614815D01*
X171511448Y-98613377D01*
X171559067Y-98422901D01*
X171559567Y-98419519D01*
X171560132Y-98418156D01*
X171560855Y-98410805D01*
X171561935Y-98403508D01*
X171561717Y-98402049D01*
X171562053Y-98398647D01*
X171562053Y-98255790D01*
X171561717Y-98252387D01*
X171561935Y-98250929D01*
X171560855Y-98243631D01*
X171560132Y-98236281D01*
X171559567Y-98234917D01*
X171559067Y-98231536D01*
X171511448Y-98041060D01*
X171510934Y-98039621D01*
X171510883Y-98038901D01*
X171507774Y-98030776D01*
X171504853Y-98022600D01*
X171504423Y-98022020D01*
X171503877Y-98020592D01*
X171456258Y-97925355D01*
X171450971Y-97916956D01*
X171449962Y-97914519D01*
X171447710Y-97911775D01*
X171445815Y-97908764D01*
X171443817Y-97907031D01*
X171437526Y-97899365D01*
X171365380Y-97827219D01*
X171790625Y-97827219D01*
X171790625Y-98827219D01*
X171792546Y-98846728D01*
X171807478Y-98882776D01*
X171835068Y-98910366D01*
X171871116Y-98925298D01*
X171910134Y-98925298D01*
X171946182Y-98910366D01*
X171973772Y-98882776D01*
X171988704Y-98846728D01*
X171990625Y-98827219D01*
X171990625Y-98451028D01*
X172076655Y-98451028D01*
X172380130Y-98884565D01*
X172392891Y-98899446D01*
X172425796Y-98920415D01*
X172464221Y-98927196D01*
X172502315Y-98918756D01*
X172534280Y-98896381D01*
X172555249Y-98863476D01*
X172562030Y-98825052D01*
X172559739Y-98814712D01*
X172648553Y-98814712D01*
X172651319Y-98853632D01*
X172668769Y-98888531D01*
X172698245Y-98914096D01*
X172735261Y-98926434D01*
X172774181Y-98923668D01*
X172809080Y-98906218D01*
X172834645Y-98876742D01*
X172842636Y-98858842D01*
X172915082Y-98641504D01*
X173247120Y-98641504D01*
X173319566Y-98858841D01*
X173327557Y-98876742D01*
X173353122Y-98906218D01*
X173388021Y-98923667D01*
X173426941Y-98926434D01*
X173463957Y-98914095D01*
X173493433Y-98888530D01*
X173510883Y-98853631D01*
X173513649Y-98814711D01*
X173509302Y-98795596D01*
X173175969Y-97795596D01*
X173167978Y-97777696D01*
X173163293Y-97772294D01*
X173160100Y-97765908D01*
X173150631Y-97757695D01*
X173142413Y-97748220D01*
X173136021Y-97745023D01*
X173130624Y-97740343D01*
X173118730Y-97736378D01*
X173107514Y-97730770D01*
X173100386Y-97730263D01*
X173093608Y-97728004D01*
X173081103Y-97728893D01*
X173068594Y-97728004D01*
X173061812Y-97730264D01*
X173054688Y-97730771D01*
X173043479Y-97736374D01*
X173031578Y-97740342D01*
X173026177Y-97745025D01*
X173019789Y-97748220D01*
X173011573Y-97757691D01*
X173002102Y-97765907D01*
X172998907Y-97772296D01*
X172994224Y-97777696D01*
X172986233Y-97795597D01*
X172652900Y-98795596D01*
X172648553Y-98814712D01*
X172559739Y-98814712D01*
X172553590Y-98786957D01*
X172543976Y-98769873D01*
X172314008Y-98441347D01*
X172316298Y-98440471D01*
X172411536Y-98392852D01*
X172419932Y-98387566D01*
X172422372Y-98386556D01*
X172425118Y-98384302D01*
X172428126Y-98382409D01*
X172429855Y-98380414D01*
X172437526Y-98374120D01*
X172485144Y-98326501D01*
X172491436Y-98318834D01*
X172493434Y-98317102D01*
X172495327Y-98314093D01*
X172497581Y-98311348D01*
X172498591Y-98308907D01*
X172503877Y-98300511D01*
X172551496Y-98205274D01*
X172558502Y-98186965D01*
X172558756Y-98183381D01*
X172560132Y-98180061D01*
X172562053Y-98160552D01*
X172562053Y-98017695D01*
X172560132Y-97998186D01*
X172558756Y-97994865D01*
X172558502Y-97991282D01*
X172551496Y-97972973D01*
X172503877Y-97877736D01*
X172498591Y-97869339D01*
X172497581Y-97866899D01*
X172495327Y-97864153D01*
X172493434Y-97861145D01*
X172491436Y-97859412D01*
X172485144Y-97851746D01*
X172437526Y-97804127D01*
X172429855Y-97797832D01*
X172428126Y-97795838D01*
X172425118Y-97793944D01*
X172422372Y-97791691D01*
X172419932Y-97790680D01*
X172411536Y-97785395D01*
X172316298Y-97737776D01*
X172297990Y-97730770D01*
X172294406Y-97730515D01*
X172291086Y-97729140D01*
X172271577Y-97727219D01*
X171890625Y-97727219D01*
X171871116Y-97729140D01*
X171835068Y-97744072D01*
X171807478Y-97771662D01*
X171792546Y-97807710D01*
X171790625Y-97827219D01*
X171365380Y-97827219D01*
X171342288Y-97804127D01*
X171327134Y-97791691D01*
X171323815Y-97790316D01*
X171321100Y-97787961D01*
X171303199Y-97779970D01*
X171160343Y-97732351D01*
X171150671Y-97730151D01*
X171148229Y-97729140D01*
X171144690Y-97728791D01*
X171141227Y-97728004D01*
X171138593Y-97728191D01*
X171128720Y-97727219D01*
X170890625Y-97727219D01*
X170871116Y-97729140D01*
X170835068Y-97744072D01*
X170807478Y-97771662D01*
X170792546Y-97807710D01*
X170790625Y-97827219D01*
X170514434Y-97827219D01*
X170512513Y-97807710D01*
X170497581Y-97771662D01*
X170469991Y-97744072D01*
X170433943Y-97729140D01*
X170394925Y-97729140D01*
X170358877Y-97744072D01*
X170331287Y-97771662D01*
X170316355Y-97807710D01*
X170314434Y-97827219D01*
X170314434Y-98613135D01*
X170284629Y-98672743D01*
X170259960Y-98697413D01*
X170200351Y-98727219D01*
X170057089Y-98727219D01*
X169997479Y-98697414D01*
X169972812Y-98672746D01*
X169943006Y-98613134D01*
X169943006Y-97827219D01*
X169941085Y-97807710D01*
X169926153Y-97771662D01*
X169898563Y-97744072D01*
X169862515Y-97729140D01*
X169823497Y-97729140D01*
X169787449Y-97744072D01*
X169759859Y-97771662D01*
X169744927Y-97807710D01*
X169743006Y-97827219D01*
X169412999Y-97827219D01*
X169389907Y-97804127D01*
X169382236Y-97797832D01*
X169380507Y-97795838D01*
X169377499Y-97793944D01*
X169374753Y-97791691D01*
X169372313Y-97790680D01*
X169363917Y-97785395D01*
X169268679Y-97737776D01*
X169250371Y-97730770D01*
X169246787Y-97730515D01*
X169243467Y-97729140D01*
X169223958Y-97727219D01*
X168843006Y-97727219D01*
X168823497Y-97729140D01*
X168787449Y-97744072D01*
X168759859Y-97771662D01*
X168744927Y-97807710D01*
X168743006Y-97827219D01*
X168133065Y-97827219D01*
X168133457Y-97824987D01*
X168124993Y-97786898D01*
X168102597Y-97754947D01*
X168069679Y-97733999D01*
X168031250Y-97727244D01*
X167993161Y-97735708D01*
X167961211Y-97758104D01*
X167949116Y-97773531D01*
X167700148Y-98164765D01*
X167451182Y-97773531D01*
X167439088Y-97758104D01*
X167407137Y-97735708D01*
X167369048Y-97727244D01*
X167330619Y-97734000D01*
X167297701Y-97754947D01*
X167275305Y-97786898D01*
X167266841Y-97824987D01*
X167029815Y-97824987D01*
X167008955Y-97804127D01*
X167001284Y-97797832D01*
X166999555Y-97795838D01*
X166996547Y-97793944D01*
X166993801Y-97791691D01*
X166991361Y-97790680D01*
X166982965Y-97785395D01*
X166887727Y-97737776D01*
X166869419Y-97730770D01*
X166865835Y-97730515D01*
X166862515Y-97729140D01*
X166843006Y-97727219D01*
X166509673Y-97727219D01*
X166490164Y-97729140D01*
X166454116Y-97744072D01*
X166426526Y-97771662D01*
X166411594Y-97807710D01*
X166409673Y-97827219D01*
X166298562Y-97827219D01*
X166298562Y-97616108D01*
X173624760Y-97616108D01*
X173624760Y-99038330D01*
G37*
D11*
X172025714Y-101829104D02*
X172501904Y-101829104D01*
X171930476Y-102114819D02*
X172263809Y-101114819D01*
X172263809Y-101114819D02*
X172597142Y-102114819D01*
X172882857Y-101210057D02*
X172930476Y-101162438D01*
X172930476Y-101162438D02*
X173025714Y-101114819D01*
X173025714Y-101114819D02*
X173263809Y-101114819D01*
X173263809Y-101114819D02*
X173359047Y-101162438D01*
X173359047Y-101162438D02*
X173406666Y-101210057D01*
X173406666Y-101210057D02*
X173454285Y-101305295D01*
X173454285Y-101305295D02*
X173454285Y-101400533D01*
X173454285Y-101400533D02*
X173406666Y-101543390D01*
X173406666Y-101543390D02*
X172835238Y-102114819D01*
X172835238Y-102114819D02*
X173454285Y-102114819D01*
X168535714Y-101919104D02*
X169011904Y-101919104D01*
X168440476Y-102204819D02*
X168773809Y-101204819D01*
X168773809Y-101204819D02*
X169107142Y-102204819D01*
X169964285Y-102204819D02*
X169392857Y-102204819D01*
X169678571Y-102204819D02*
X169678571Y-101204819D01*
X169678571Y-101204819D02*
X169583333Y-101347676D01*
X169583333Y-101347676D02*
X169488095Y-101442914D01*
X169488095Y-101442914D02*
X169392857Y-101490533D01*
X164885714Y-101799104D02*
X165361904Y-101799104D01*
X164790476Y-102084819D02*
X165123809Y-101084819D01*
X165123809Y-101084819D02*
X165457142Y-102084819D01*
X165980952Y-101084819D02*
X166076190Y-101084819D01*
X166076190Y-101084819D02*
X166171428Y-101132438D01*
X166171428Y-101132438D02*
X166219047Y-101180057D01*
X166219047Y-101180057D02*
X166266666Y-101275295D01*
X166266666Y-101275295D02*
X166314285Y-101465771D01*
X166314285Y-101465771D02*
X166314285Y-101703866D01*
X166314285Y-101703866D02*
X166266666Y-101894342D01*
X166266666Y-101894342D02*
X166219047Y-101989580D01*
X166219047Y-101989580D02*
X166171428Y-102037200D01*
X166171428Y-102037200D02*
X166076190Y-102084819D01*
X166076190Y-102084819D02*
X165980952Y-102084819D01*
X165980952Y-102084819D02*
X165885714Y-102037200D01*
X165885714Y-102037200D02*
X165838095Y-101989580D01*
X165838095Y-101989580D02*
X165790476Y-101894342D01*
X165790476Y-101894342D02*
X165742857Y-101703866D01*
X165742857Y-101703866D02*
X165742857Y-101465771D01*
X165742857Y-101465771D02*
X165790476Y-101275295D01*
X165790476Y-101275295D02*
X165838095Y-101180057D01*
X165838095Y-101180057D02*
X165885714Y-101132438D01*
X165885714Y-101132438D02*
X165980952Y-101084819D01*
X153193809Y-84984819D02*
X153193809Y-83984819D01*
X153193809Y-83984819D02*
X153574761Y-83984819D01*
X153574761Y-83984819D02*
X153669999Y-84032438D01*
X153669999Y-84032438D02*
X153717618Y-84080057D01*
X153717618Y-84080057D02*
X153765237Y-84175295D01*
X153765237Y-84175295D02*
X153765237Y-84318152D01*
X153765237Y-84318152D02*
X153717618Y-84413390D01*
X153717618Y-84413390D02*
X153669999Y-84461009D01*
X153669999Y-84461009D02*
X153574761Y-84508628D01*
X153574761Y-84508628D02*
X153193809Y-84508628D01*
X154336666Y-84984819D02*
X154241428Y-84937200D01*
X154241428Y-84937200D02*
X154193809Y-84889580D01*
X154193809Y-84889580D02*
X154146190Y-84794342D01*
X154146190Y-84794342D02*
X154146190Y-84508628D01*
X154146190Y-84508628D02*
X154193809Y-84413390D01*
X154193809Y-84413390D02*
X154241428Y-84365771D01*
X154241428Y-84365771D02*
X154336666Y-84318152D01*
X154336666Y-84318152D02*
X154479523Y-84318152D01*
X154479523Y-84318152D02*
X154574761Y-84365771D01*
X154574761Y-84365771D02*
X154622380Y-84413390D01*
X154622380Y-84413390D02*
X154669999Y-84508628D01*
X154669999Y-84508628D02*
X154669999Y-84794342D01*
X154669999Y-84794342D02*
X154622380Y-84889580D01*
X154622380Y-84889580D02*
X154574761Y-84937200D01*
X154574761Y-84937200D02*
X154479523Y-84984819D01*
X154479523Y-84984819D02*
X154336666Y-84984819D01*
X155003333Y-84318152D02*
X155193809Y-84984819D01*
X155193809Y-84984819D02*
X155384285Y-84508628D01*
X155384285Y-84508628D02*
X155574761Y-84984819D01*
X155574761Y-84984819D02*
X155765237Y-84318152D01*
X156527142Y-84937200D02*
X156431904Y-84984819D01*
X156431904Y-84984819D02*
X156241428Y-84984819D01*
X156241428Y-84984819D02*
X156146190Y-84937200D01*
X156146190Y-84937200D02*
X156098571Y-84841961D01*
X156098571Y-84841961D02*
X156098571Y-84461009D01*
X156098571Y-84461009D02*
X156146190Y-84365771D01*
X156146190Y-84365771D02*
X156241428Y-84318152D01*
X156241428Y-84318152D02*
X156431904Y-84318152D01*
X156431904Y-84318152D02*
X156527142Y-84365771D01*
X156527142Y-84365771D02*
X156574761Y-84461009D01*
X156574761Y-84461009D02*
X156574761Y-84556247D01*
X156574761Y-84556247D02*
X156098571Y-84651485D01*
X157003333Y-84984819D02*
X157003333Y-84318152D01*
X157003333Y-84508628D02*
X157050952Y-84413390D01*
X157050952Y-84413390D02*
X157098571Y-84365771D01*
X157098571Y-84365771D02*
X157193809Y-84318152D01*
X157193809Y-84318152D02*
X157289047Y-84318152D01*
D13*
%TO.C,REF\u002A\u002A*%
G36*
X174089339Y-97062414D02*
G01*
X170593777Y-97062414D01*
X170593777Y-96211218D01*
X174089339Y-96211218D01*
X174089339Y-97062414D01*
G37*
G36*
X173069894Y-94480495D02*
G01*
X173075855Y-94480949D01*
X173081729Y-94481695D01*
X173087508Y-94482727D01*
X173093187Y-94484038D01*
X173098756Y-94485620D01*
X173104210Y-94487465D01*
X173109540Y-94489567D01*
X173114739Y-94491917D01*
X173119800Y-94494509D01*
X173124715Y-94497336D01*
X173129477Y-94500389D01*
X173134079Y-94503661D01*
X173138513Y-94507146D01*
X173142772Y-94510835D01*
X173146848Y-94514721D01*
X173150735Y-94518798D01*
X173154424Y-94523057D01*
X173157908Y-94527491D01*
X173161181Y-94532093D01*
X173164234Y-94536855D01*
X173167060Y-94541770D01*
X173169652Y-94546831D01*
X173172003Y-94552030D01*
X173174105Y-94557360D01*
X173175950Y-94562813D01*
X173177532Y-94568383D01*
X173178842Y-94574061D01*
X173179875Y-94579841D01*
X173180621Y-94585715D01*
X173181074Y-94591675D01*
X173181227Y-94597715D01*
X173181074Y-94603755D01*
X173180621Y-94609715D01*
X173179875Y-94615589D01*
X173178842Y-94621368D01*
X173177532Y-94627046D01*
X173175950Y-94632616D01*
X173174105Y-94638069D01*
X173172003Y-94643399D01*
X173169652Y-94648597D01*
X173167060Y-94653658D01*
X173164234Y-94658573D01*
X173161181Y-94663334D01*
X173157908Y-94667936D01*
X173154424Y-94672369D01*
X173150735Y-94676628D01*
X173146848Y-94680703D01*
X173142772Y-94684589D01*
X173138513Y-94688278D01*
X173134079Y-94691762D01*
X173129477Y-94695034D01*
X173124715Y-94698087D01*
X173119800Y-94700913D01*
X173114739Y-94703504D01*
X173109540Y-94705855D01*
X173104210Y-94707956D01*
X173098756Y-94709801D01*
X173093187Y-94711383D01*
X173087508Y-94712693D01*
X173081729Y-94713725D01*
X173075855Y-94714471D01*
X173069894Y-94714925D01*
X173063855Y-94715077D01*
X173057815Y-94714925D01*
X173051855Y-94714471D01*
X173045981Y-94713725D01*
X173040201Y-94712693D01*
X173034523Y-94711383D01*
X173028953Y-94709801D01*
X173023500Y-94707956D01*
X173018170Y-94705855D01*
X173012970Y-94703504D01*
X173007910Y-94700913D01*
X173002994Y-94698087D01*
X172998232Y-94695034D01*
X172993630Y-94691762D01*
X172989196Y-94688278D01*
X172984937Y-94684589D01*
X172980861Y-94680703D01*
X172976975Y-94676628D01*
X172973285Y-94672369D01*
X172969801Y-94667936D01*
X172966528Y-94663334D01*
X172963475Y-94658572D01*
X172960649Y-94653658D01*
X172958057Y-94648597D01*
X172955706Y-94643399D01*
X172953605Y-94638069D01*
X172951759Y-94632616D01*
X172950178Y-94627046D01*
X172948867Y-94621368D01*
X172947835Y-94615589D01*
X172947088Y-94609715D01*
X172946635Y-94603755D01*
X172946482Y-94597715D01*
X172946635Y-94591676D01*
X172947088Y-94585715D01*
X172947835Y-94579841D01*
X172948867Y-94574062D01*
X172950178Y-94568383D01*
X172951759Y-94562814D01*
X172953605Y-94557360D01*
X172955706Y-94552030D01*
X172958057Y-94546831D01*
X172960649Y-94541770D01*
X172963475Y-94536855D01*
X172966528Y-94532093D01*
X172969801Y-94527491D01*
X172973285Y-94523057D01*
X172976975Y-94518798D01*
X172980861Y-94514722D01*
X172984937Y-94510835D01*
X172989196Y-94507146D01*
X172993630Y-94503661D01*
X172998232Y-94500389D01*
X173002994Y-94497336D01*
X173007910Y-94494510D01*
X173012970Y-94491917D01*
X173018170Y-94489567D01*
X173023500Y-94487465D01*
X173028953Y-94485620D01*
X173034523Y-94484038D01*
X173040201Y-94482727D01*
X173045981Y-94481695D01*
X173051855Y-94480949D01*
X173057815Y-94480495D01*
X173063855Y-94480343D01*
X173069894Y-94480495D01*
G37*
G36*
X174480808Y-91197235D02*
G01*
X173557785Y-92137430D01*
X173576999Y-92137430D01*
X173576999Y-92558117D01*
X173302209Y-92558117D01*
X173155478Y-94132478D01*
X174240875Y-95275587D01*
X174168868Y-95343925D01*
X173406551Y-94539773D01*
X173407664Y-94546862D01*
X173408634Y-94553998D01*
X173409459Y-94561180D01*
X173410138Y-94568405D01*
X173410669Y-94575672D01*
X173411050Y-94582981D01*
X173411280Y-94590329D01*
X173411357Y-94597715D01*
X173410905Y-94615598D01*
X173409563Y-94633246D01*
X173407353Y-94650637D01*
X173404297Y-94667750D01*
X173400417Y-94684562D01*
X173395734Y-94701052D01*
X173390271Y-94717198D01*
X173384049Y-94732979D01*
X173377090Y-94748371D01*
X173369416Y-94763355D01*
X173361049Y-94777907D01*
X173352010Y-94792005D01*
X173342322Y-94805629D01*
X173332006Y-94818756D01*
X173321084Y-94831365D01*
X173309578Y-94843433D01*
X173297510Y-94854938D01*
X173284902Y-94865860D01*
X173271774Y-94876176D01*
X173258150Y-94885864D01*
X173244052Y-94894902D01*
X173229500Y-94903269D01*
X173214516Y-94910942D01*
X173199124Y-94917901D01*
X173183344Y-94924123D01*
X173167198Y-94929586D01*
X173150708Y-94934268D01*
X173133896Y-94938148D01*
X173116784Y-94941204D01*
X173099393Y-94943413D01*
X173081746Y-94944755D01*
X173063864Y-94945207D01*
X173039092Y-94944338D01*
X173014788Y-94941769D01*
X172991012Y-94937559D01*
X172967821Y-94931766D01*
X172945276Y-94924449D01*
X172923433Y-94915666D01*
X172902352Y-94905475D01*
X172882091Y-94893936D01*
X172862709Y-94881106D01*
X172844264Y-94867045D01*
X172826814Y-94851810D01*
X172810419Y-94835460D01*
X172795136Y-94818054D01*
X172781024Y-94799649D01*
X172768143Y-94780305D01*
X172756549Y-94760080D01*
X171906771Y-94760080D01*
X171906771Y-94941608D01*
X171683196Y-94941608D01*
X171683196Y-94759617D01*
X171680746Y-94759211D01*
X171678305Y-94758684D01*
X171675879Y-94758039D01*
X171673471Y-94757282D01*
X171671085Y-94756415D01*
X171668726Y-94755442D01*
X171666396Y-94754366D01*
X171664101Y-94753192D01*
X171659629Y-94750563D01*
X171655342Y-94747582D01*
X171651272Y-94744280D01*
X171647450Y-94740687D01*
X171643909Y-94736830D01*
X171640680Y-94732739D01*
X171637795Y-94728445D01*
X171636492Y-94726230D01*
X171635287Y-94723975D01*
X171634184Y-94721684D01*
X171633188Y-94719360D01*
X171632301Y-94717007D01*
X171631528Y-94714628D01*
X171630874Y-94712228D01*
X171630341Y-94709809D01*
X171629934Y-94707377D01*
X171629658Y-94704933D01*
X171581921Y-94150073D01*
X170397530Y-95356503D01*
X170326728Y-95286928D01*
X171555348Y-94036662D01*
X171693250Y-94036662D01*
X171745100Y-94639440D01*
X172718826Y-94639440D01*
X172718252Y-94634297D01*
X172717752Y-94629133D01*
X172717327Y-94623946D01*
X172716978Y-94618740D01*
X172716706Y-94613512D01*
X172716510Y-94608265D01*
X172716392Y-94603000D01*
X172716352Y-94597715D01*
X172883131Y-94597715D01*
X172883366Y-94607015D01*
X172884064Y-94616193D01*
X172885213Y-94625237D01*
X172886802Y-94634136D01*
X172888820Y-94642880D01*
X172891255Y-94651456D01*
X172894096Y-94659853D01*
X172897332Y-94668060D01*
X172900951Y-94676065D01*
X172904942Y-94683857D01*
X172909293Y-94691425D01*
X172913994Y-94698758D01*
X172919032Y-94705844D01*
X172924397Y-94712671D01*
X172930077Y-94719228D01*
X172936061Y-94725505D01*
X172942337Y-94731489D01*
X172948895Y-94737169D01*
X172955722Y-94742534D01*
X172962807Y-94747573D01*
X172970140Y-94752274D01*
X172977708Y-94756626D01*
X172985500Y-94760617D01*
X172993506Y-94764236D01*
X173001713Y-94767472D01*
X173010110Y-94770313D01*
X173018686Y-94772749D01*
X173027430Y-94774767D01*
X173036330Y-94776356D01*
X173045375Y-94777506D01*
X173054554Y-94778204D01*
X173063854Y-94778439D01*
X173073154Y-94778204D01*
X173082332Y-94777506D01*
X173091376Y-94776356D01*
X173100276Y-94774767D01*
X173109019Y-94772749D01*
X173117595Y-94770313D01*
X173125992Y-94767472D01*
X173134199Y-94764236D01*
X173142204Y-94760617D01*
X173149997Y-94756626D01*
X173157565Y-94752274D01*
X173164897Y-94747573D01*
X173171983Y-94742534D01*
X173178810Y-94737169D01*
X173185368Y-94731489D01*
X173191644Y-94725505D01*
X173197628Y-94719228D01*
X173203309Y-94712671D01*
X173208674Y-94705844D01*
X173213712Y-94698758D01*
X173218413Y-94691425D01*
X173222765Y-94683857D01*
X173226756Y-94676065D01*
X173230375Y-94668060D01*
X173233611Y-94659853D01*
X173236453Y-94651456D01*
X173238888Y-94642880D01*
X173240906Y-94634136D01*
X173242496Y-94625237D01*
X173243645Y-94616193D01*
X173244343Y-94607015D01*
X173244578Y-94597715D01*
X173244343Y-94588415D01*
X173243645Y-94579236D01*
X173242496Y-94570191D01*
X173240906Y-94561291D01*
X173238888Y-94552547D01*
X173236453Y-94543971D01*
X173233611Y-94535574D01*
X173230375Y-94527366D01*
X173226756Y-94519361D01*
X173222765Y-94511568D01*
X173218413Y-94504000D01*
X173213712Y-94496668D01*
X173208674Y-94489582D01*
X173203309Y-94482755D01*
X173197628Y-94476198D01*
X173191644Y-94469922D01*
X173185368Y-94463938D01*
X173178810Y-94458258D01*
X173171983Y-94452893D01*
X173164897Y-94447854D01*
X173157565Y-94443154D01*
X173149997Y-94438802D01*
X173142204Y-94434812D01*
X173134199Y-94431193D01*
X173125992Y-94427957D01*
X173117595Y-94425116D01*
X173109019Y-94422681D01*
X173100276Y-94420663D01*
X173091376Y-94419074D01*
X173082332Y-94417924D01*
X173073154Y-94417226D01*
X173063854Y-94416991D01*
X173054554Y-94417226D01*
X173045375Y-94417924D01*
X173036331Y-94419074D01*
X173027430Y-94420663D01*
X173018687Y-94422681D01*
X173010110Y-94425116D01*
X173001713Y-94427957D01*
X172993506Y-94431193D01*
X172985500Y-94434812D01*
X172977708Y-94438802D01*
X172970140Y-94443154D01*
X172962807Y-94447854D01*
X172955722Y-94452893D01*
X172948895Y-94458258D01*
X172942337Y-94463938D01*
X172936061Y-94469922D01*
X172930077Y-94476198D01*
X172924397Y-94482755D01*
X172919032Y-94489582D01*
X172913994Y-94496668D01*
X172909293Y-94504000D01*
X172904942Y-94511568D01*
X172900951Y-94519361D01*
X172897332Y-94527366D01*
X172894096Y-94535574D01*
X172891255Y-94543971D01*
X172888820Y-94552547D01*
X172886802Y-94561291D01*
X172885213Y-94570191D01*
X172884064Y-94579236D01*
X172883366Y-94588415D01*
X172883131Y-94597715D01*
X172716352Y-94597715D01*
X172716742Y-94581109D01*
X172717900Y-94564704D01*
X172719808Y-94548517D01*
X172722449Y-94532567D01*
X172725806Y-94516869D01*
X172729860Y-94501442D01*
X172734595Y-94486304D01*
X172739994Y-94471471D01*
X172746038Y-94456961D01*
X172752710Y-94442792D01*
X172759993Y-94428980D01*
X172767869Y-94415545D01*
X172776321Y-94402502D01*
X172785332Y-94389870D01*
X172794883Y-94377665D01*
X172804958Y-94365906D01*
X172815539Y-94354610D01*
X172826609Y-94343794D01*
X172838150Y-94333476D01*
X172850144Y-94323673D01*
X172862574Y-94314402D01*
X172875424Y-94305682D01*
X172888674Y-94297529D01*
X172902308Y-94289961D01*
X172916309Y-94282996D01*
X172930658Y-94276651D01*
X172945339Y-94270943D01*
X172960334Y-94265890D01*
X172975626Y-94261509D01*
X172991196Y-94257818D01*
X173007029Y-94254835D01*
X173023105Y-94252576D01*
X173033059Y-94145790D01*
X172322239Y-93395971D01*
X171693250Y-94036662D01*
X171555348Y-94036662D01*
X171570811Y-94020928D01*
X171448783Y-92602325D01*
X171569876Y-92602325D01*
X171682161Y-93907617D01*
X172253077Y-93326637D01*
X172390306Y-93326637D01*
X173045124Y-94016273D01*
X173181016Y-92558117D01*
X173167613Y-92558117D01*
X173167613Y-92534852D01*
X172390306Y-93326637D01*
X172253077Y-93326637D01*
X172254826Y-93324857D01*
X171569876Y-92602325D01*
X171448783Y-92602325D01*
X171436698Y-92461838D01*
X170253162Y-91213362D01*
X170253162Y-91075871D01*
X171423497Y-92308432D01*
X171393091Y-91954957D01*
X171514186Y-91954957D01*
X171556654Y-92448667D01*
X172322862Y-93255615D01*
X172776074Y-92794430D01*
X172137112Y-92794430D01*
X172137112Y-92553130D01*
X172876103Y-92553130D01*
X172876103Y-92692632D01*
X173114902Y-92449632D01*
X173312303Y-92449632D01*
X173471411Y-92449632D01*
X173471411Y-92245935D01*
X173451272Y-92245935D01*
X173318707Y-92380962D01*
X173312303Y-92449632D01*
X173114902Y-92449632D01*
X173167613Y-92395993D01*
X173167613Y-92137451D01*
X173220217Y-92137451D01*
X173237218Y-91954957D01*
X171514186Y-91954957D01*
X171393091Y-91954957D01*
X171392661Y-91949960D01*
X171247318Y-91949960D01*
X171247318Y-91829310D01*
X171375197Y-91829310D01*
X171830490Y-91829310D01*
X173232483Y-91829310D01*
X173226864Y-91817341D01*
X173220344Y-91805769D01*
X173212951Y-91794589D01*
X173204715Y-91783794D01*
X173195665Y-91773377D01*
X173185829Y-91763332D01*
X173175238Y-91753652D01*
X173163921Y-91744330D01*
X173151906Y-91735360D01*
X173139224Y-91726736D01*
X173125903Y-91718451D01*
X173111973Y-91710498D01*
X173082400Y-91695564D01*
X173050741Y-91681880D01*
X173017229Y-91669394D01*
X172982098Y-91658055D01*
X172945583Y-91647809D01*
X172907916Y-91638604D01*
X172869332Y-91630387D01*
X172830064Y-91623107D01*
X172790348Y-91616710D01*
X172750426Y-91611146D01*
X172750426Y-91723752D01*
X172157240Y-91723752D01*
X172157240Y-91603102D01*
X172157240Y-91598457D01*
X172117367Y-91601714D01*
X172076719Y-91605631D01*
X172035545Y-91610258D01*
X171994095Y-91615644D01*
X171952615Y-91621842D01*
X171911356Y-91628900D01*
X171870564Y-91636870D01*
X171830490Y-91645802D01*
X171830490Y-91829310D01*
X171375197Y-91829310D01*
X171375200Y-91829300D01*
X171504192Y-91829300D01*
X171624319Y-91829300D01*
X171624319Y-91719519D01*
X171614255Y-91725142D01*
X171604485Y-91730921D01*
X171595019Y-91736857D01*
X171585867Y-91742953D01*
X171577039Y-91749210D01*
X171568546Y-91755631D01*
X171560396Y-91762218D01*
X171552601Y-91768973D01*
X171545171Y-91775897D01*
X171538114Y-91782994D01*
X171531441Y-91790265D01*
X171525163Y-91797711D01*
X171519289Y-91805336D01*
X171513829Y-91813141D01*
X171508793Y-91821129D01*
X171504192Y-91829300D01*
X171375200Y-91829300D01*
X171376056Y-91826716D01*
X171376985Y-91824017D01*
X171377986Y-91821215D01*
X171379060Y-91818314D01*
X171380211Y-91815315D01*
X171381441Y-91812222D01*
X171382751Y-91809038D01*
X171384145Y-91805763D01*
X171392643Y-91787663D01*
X171402168Y-91770207D01*
X171412687Y-91753386D01*
X171424165Y-91737187D01*
X171436569Y-91721599D01*
X171449864Y-91706612D01*
X171464016Y-91692214D01*
X171478991Y-91678392D01*
X171494755Y-91665137D01*
X171511274Y-91652436D01*
X171520683Y-91645802D01*
X171528514Y-91640279D01*
X171546440Y-91628654D01*
X171565019Y-91617549D01*
X171584216Y-91606954D01*
X171603997Y-91596857D01*
X171624329Y-91587246D01*
X171624329Y-91547784D01*
X172277870Y-91547784D01*
X172277870Y-91603102D01*
X172629756Y-91603102D01*
X172629756Y-91547784D01*
X172277870Y-91547784D01*
X171624329Y-91547784D01*
X171624329Y-91507507D01*
X171830490Y-91507507D01*
X171830490Y-91519843D01*
X171871029Y-91511106D01*
X171911982Y-91503370D01*
X171953185Y-91496580D01*
X171994476Y-91490682D01*
X172035690Y-91485622D01*
X172076664Y-91481345D01*
X172117235Y-91477796D01*
X172157240Y-91474921D01*
X172157240Y-91427144D01*
X172750426Y-91427144D01*
X172750426Y-91488295D01*
X172830683Y-91499867D01*
X172870604Y-91506957D01*
X172910157Y-91514986D01*
X172949173Y-91524006D01*
X172987483Y-91534072D01*
X173024918Y-91545236D01*
X173061310Y-91557550D01*
X173096488Y-91571068D01*
X173130283Y-91585842D01*
X173162527Y-91601926D01*
X173193051Y-91619371D01*
X173221685Y-91638232D01*
X173248260Y-91658561D01*
X173272607Y-91680411D01*
X173294557Y-91703834D01*
X173300267Y-91696964D01*
X173306344Y-91690424D01*
X173312772Y-91684229D01*
X173319535Y-91678395D01*
X173326617Y-91672938D01*
X173334003Y-91667874D01*
X173341678Y-91663217D01*
X173349625Y-91658984D01*
X173357830Y-91655190D01*
X173366275Y-91651852D01*
X173374946Y-91648984D01*
X173383828Y-91646602D01*
X173392903Y-91644723D01*
X173402157Y-91643361D01*
X173411575Y-91642532D01*
X173421139Y-91642253D01*
X173429418Y-91642462D01*
X173437588Y-91643083D01*
X173445639Y-91644106D01*
X173453561Y-91645521D01*
X173461344Y-91647317D01*
X173468978Y-91649484D01*
X173476452Y-91652013D01*
X173483758Y-91654894D01*
X173490884Y-91658115D01*
X173497820Y-91661667D01*
X173504557Y-91665541D01*
X173511083Y-91669725D01*
X173517390Y-91674210D01*
X173523467Y-91678985D01*
X173529304Y-91684041D01*
X173534891Y-91689368D01*
X173540217Y-91694954D01*
X173545273Y-91700791D01*
X173550049Y-91706868D01*
X173554534Y-91713175D01*
X173558718Y-91719702D01*
X173562591Y-91726439D01*
X173566144Y-91733375D01*
X173569365Y-91740501D01*
X173572245Y-91747806D01*
X173574774Y-91755281D01*
X173576942Y-91762915D01*
X173578738Y-91770698D01*
X173580153Y-91778620D01*
X173581176Y-91786671D01*
X173581797Y-91794841D01*
X173582006Y-91803119D01*
X173581797Y-91811397D01*
X173581176Y-91819566D01*
X173580153Y-91827616D01*
X173578738Y-91835538D01*
X173576942Y-91843320D01*
X173574774Y-91850954D01*
X173572245Y-91858428D01*
X173569365Y-91865733D01*
X173566144Y-91872859D01*
X173562591Y-91879795D01*
X173558718Y-91886532D01*
X173554534Y-91893059D01*
X173550049Y-91899366D01*
X173545273Y-91905443D01*
X173540217Y-91911280D01*
X173534891Y-91916867D01*
X173529304Y-91922194D01*
X173523467Y-91927250D01*
X173517390Y-91932026D01*
X173511083Y-91936511D01*
X173504557Y-91940695D01*
X173497820Y-91944569D01*
X173490884Y-91948122D01*
X173483758Y-91951343D01*
X173476452Y-91954224D01*
X173468978Y-91956753D01*
X173461344Y-91958921D01*
X173453561Y-91960717D01*
X173445639Y-91962132D01*
X173437588Y-91963155D01*
X173429418Y-91963777D01*
X173421139Y-91963986D01*
X173417004Y-91963934D01*
X173412895Y-91963778D01*
X173408812Y-91963521D01*
X173404758Y-91963162D01*
X173400732Y-91962704D01*
X173396738Y-91962147D01*
X173392775Y-91961493D01*
X173388845Y-91960743D01*
X173384950Y-91959899D01*
X173381091Y-91958961D01*
X173377268Y-91957930D01*
X173373484Y-91956809D01*
X173369739Y-91955598D01*
X173366034Y-91954298D01*
X173362372Y-91952911D01*
X173358753Y-91951438D01*
X173341410Y-92137440D01*
X173421702Y-92137440D01*
X174480808Y-91059674D01*
X174480808Y-91197235D01*
G37*
%TO.C,J1*%
D14*
X147790000Y-102510000D02*
X146520000Y-102510000D01*
X147790000Y-101240000D02*
X147790000Y-102510000D01*
X145442642Y-99130000D02*
X145130000Y-99130000D01*
X145442642Y-98270000D02*
X145130000Y-98270000D01*
X145442642Y-96590000D02*
X145130000Y-96590000D01*
X145442642Y-95730000D02*
X145130000Y-95730000D01*
X145442642Y-94050000D02*
X145130000Y-94050000D01*
X145442642Y-93190000D02*
X145130000Y-93190000D01*
X145442642Y-91510000D02*
X145130000Y-91510000D01*
X145442642Y-90650000D02*
X145130000Y-90650000D01*
X145442642Y-88970000D02*
X145130000Y-88970000D01*
X145442642Y-88110000D02*
X145130000Y-88110000D01*
X145360000Y-101670000D02*
X145130000Y-101670000D01*
X145360000Y-100810000D02*
X145130000Y-100810000D01*
X145130000Y-99970000D02*
X142370000Y-99970000D01*
X145130000Y-97430000D02*
X142370000Y-97430000D01*
X145130000Y-94890000D02*
X142370000Y-94890000D01*
X145130000Y-92350000D02*
X142370000Y-92350000D01*
X145130000Y-89810000D02*
X142370000Y-89810000D01*
X142370000Y-99130000D02*
X136370000Y-99130000D01*
X142370000Y-96590000D02*
X136370000Y-96590000D01*
X142370000Y-94050000D02*
X136370000Y-94050000D01*
X142370000Y-91510000D02*
X136370000Y-91510000D01*
X142370000Y-88970000D02*
X136370000Y-88970000D01*
X136370000Y-99130000D02*
X136370000Y-98270000D01*
X136370000Y-98270000D02*
X142370000Y-98270000D01*
X136370000Y-96590000D02*
X136370000Y-95730000D01*
X136370000Y-95730000D02*
X142370000Y-95730000D01*
X136370000Y-94050000D02*
X136370000Y-93190000D01*
X136370000Y-93190000D02*
X142370000Y-93190000D01*
X136370000Y-91510000D02*
X136370000Y-90650000D01*
X136370000Y-90650000D02*
X142370000Y-90650000D01*
X136370000Y-88970000D02*
X136370000Y-88110000D01*
X136370000Y-88110000D02*
X142370000Y-88110000D01*
X142370000Y-87160000D02*
X145130000Y-87160000D01*
X145130000Y-102620000D01*
X142370000Y-102620000D01*
X142370000Y-87160000D01*
X136370000Y-100810000D02*
X142370000Y-100810000D01*
X142370000Y-101670000D01*
X136370000Y-101670000D01*
X136370000Y-100810000D01*
G36*
X136370000Y-100810000D02*
G01*
X142370000Y-100810000D01*
X142370000Y-101670000D01*
X136370000Y-101670000D01*
X136370000Y-100810000D01*
G37*
%TO.C,D1*%
X149100000Y-94232500D02*
X149100000Y-96917500D01*
X151020000Y-96917500D02*
X151020000Y-94232500D01*
X149100000Y-96917500D02*
X151020000Y-96917500D01*
%TO.C,U2*%
D15*
X158400000Y-102292500D02*
X158400000Y-99922500D01*
X163300000Y-102292500D02*
X163300000Y-99922500D01*
D12*
X159045000Y-105312500D02*
G75*
G02*
X158845000Y-105312500I-100000J0D01*
G01*
X158845000Y-105312500D02*
G75*
G02*
X159045000Y-105312500I100000J0D01*
G01*
D14*
%TO.C,U1*%
X168390000Y-85860000D02*
X168860000Y-85520000D01*
X168860000Y-86200000D01*
X168390000Y-85860000D01*
G36*
X168860000Y-86200000D02*
G01*
X168390000Y-85860000D01*
X168860000Y-85520000D01*
X168860000Y-86200000D01*
G37*
X158120000Y-94370000D02*
X158120000Y-86650000D01*
X158375000Y-94370000D02*
X158120000Y-94370000D01*
X168640000Y-94370000D02*
X168385000Y-94370000D01*
X158120000Y-86650000D02*
X158375000Y-86650000D01*
X168385000Y-86650000D02*
X168640000Y-86650000D01*
X168640000Y-86650000D02*
X168640000Y-94370000D01*
%TO.C,RN2*%
X153590000Y-93710000D02*
X153590000Y-94510000D01*
X157030000Y-93710000D02*
X157030000Y-94510000D01*
%TO.C,RN1*%
X153570000Y-96900000D02*
X153570000Y-97700000D01*
X157010000Y-96900000D02*
X157010000Y-97700000D01*
%TO.C,R2*%
X155444724Y-88652500D02*
X154935276Y-88652500D01*
X155444724Y-87607500D02*
X154935276Y-87607500D01*
%TO.C,R1*%
X170642776Y-86672500D02*
X171152224Y-86672500D01*
X170642776Y-85627500D02*
X171152224Y-85627500D01*
%TO.C,A2*%
X172990000Y-102530000D02*
G75*
G02*
X173690000Y-103230000I0J-700000D01*
G01*
X171690000Y-103230000D02*
G75*
G02*
X172390000Y-102530000I700000J0D01*
G01*
X173690000Y-104630000D02*
G75*
G02*
X172990000Y-105330000I-699999J-1D01*
G01*
X172390000Y-105330000D02*
G75*
G02*
X171690000Y-104630000I-1J699999D01*
G01*
X172390000Y-102530000D02*
X172990000Y-102530000D01*
X173690000Y-103230000D02*
X173690000Y-104630000D01*
X171690000Y-104630000D02*
X171690000Y-103230000D01*
X172990000Y-105330000D02*
X172390000Y-105330000D01*
%TO.C,A1*%
X169440000Y-102530000D02*
G75*
G02*
X170140000Y-103230000I0J-700000D01*
G01*
X168140000Y-103230000D02*
G75*
G02*
X168840000Y-102530000I700000J0D01*
G01*
X170140000Y-104630000D02*
G75*
G02*
X169440000Y-105330000I-699999J-1D01*
G01*
X168840000Y-105330000D02*
G75*
G02*
X168140000Y-104630000I-1J699999D01*
G01*
X168840000Y-102530000D02*
X169440000Y-102530000D01*
X170140000Y-103230000D02*
X170140000Y-104630000D01*
X168140000Y-104630000D02*
X168140000Y-103230000D01*
X169440000Y-105330000D02*
X168840000Y-105330000D01*
%TO.C,A0*%
X165890000Y-102530000D02*
G75*
G02*
X166590000Y-103230000I0J-700000D01*
G01*
X164590000Y-103230000D02*
G75*
G02*
X165290000Y-102530000I700000J0D01*
G01*
X166590000Y-104630000D02*
G75*
G02*
X165890000Y-105330000I-699999J-1D01*
G01*
X165290000Y-105330000D02*
G75*
G02*
X164590000Y-104630000I-1J699999D01*
G01*
X165290000Y-102530000D02*
X165890000Y-102530000D01*
X166590000Y-103230000D02*
X166590000Y-104630000D01*
X164590000Y-104630000D02*
X164590000Y-103230000D01*
X165890000Y-105330000D02*
X165290000Y-105330000D01*
%TO.C,Power*%
X156170000Y-85220000D02*
X153310000Y-85220000D01*
X153310000Y-87140000D02*
X156170000Y-87140000D01*
X153310000Y-85220000D02*
X153310000Y-87140000D01*
%TO.C,C2*%
X153415000Y-90795000D02*
X153415000Y-92405000D01*
X153415000Y-92405000D02*
X156310000Y-92405000D01*
X156310000Y-90795000D02*
X153415000Y-90795000D01*
%TO.C,C1*%
X153365000Y-88995000D02*
X153365000Y-90605000D01*
X153365000Y-90605000D02*
X156260000Y-90605000D01*
X156260000Y-88995000D02*
X153365000Y-88995000D01*
%TD*%
M02*
