%TF.GenerationSoftware,KiCad,Pcbnew,10.0.3*%
%TF.CreationDate,2026-07-07T12:03:59+05:45*%
%TF.ProjectId,DS3231 RTC Module,44533332-3331-4205-9254-43204d6f6475,rev?*%
%TF.SameCoordinates,Original*%
%TF.FileFunction,Paste,Top*%
%TF.FilePolarity,Positive*%
%FSLAX46Y46*%
G04 Gerber Fmt 4.6, Leading zero omitted, Abs format (unit mm)*
G04 Created by KiCad (PCBNEW 10.0.3) date 2026-07-07 12:03:59*
%MOMM*%
%LPD*%
G01*
G04 APERTURE LIST*
G04 Aperture macros list*
%AMRoundRect*
0 Rectangle with rounded corners*
0 $1 Rounding radius*
0 $2 $3 $4 $5 $6 $7 $8 $9 X,Y pos of 4 corners*
0 Add a 4 corners polygon primitive as box body*
4,1,4,$2,$3,$4,$5,$6,$7,$8,$9,$2,$3,0*
0 Add four circle primitives for the rounded corners*
1,1,$1+$1,$2,$3*
1,1,$1+$1,$4,$5*
1,1,$1+$1,$6,$7*
1,1,$1+$1,$8,$9*
0 Add four rect primitives between the rounded corners*
20,1,$1+$1,$2,$3,$4,$5,0*
20,1,$1+$1,$4,$5,$6,$7,0*
20,1,$1+$1,$6,$7,$8,$9,0*
20,1,$1+$1,$8,$9,$2,$3,0*%
G04 Aperture macros list end*
%ADD10RoundRect,0.243750X0.456250X-0.243750X0.456250X0.243750X-0.456250X0.243750X-0.456250X-0.243750X0*%
%ADD11RoundRect,0.075000X0.225000X-0.875000X0.225000X0.875000X-0.225000X0.875000X-0.225000X-0.875000X0*%
%ADD12RoundRect,0.150000X-0.150000X0.875000X-0.150000X-0.875000X0.150000X-0.875000X0.150000X0.875000X0*%
%ADD13R,0.400000X0.900000*%
%ADD14RoundRect,0.237500X0.250000X0.237500X-0.250000X0.237500X-0.250000X-0.237500X0.250000X-0.237500X0*%
%ADD15RoundRect,0.237500X-0.250000X-0.237500X0.250000X-0.237500X0.250000X0.237500X-0.250000X0.237500X0*%
%ADD16RoundRect,0.250000X-0.325000X-0.450000X0.325000X-0.450000X0.325000X0.450000X-0.325000X0.450000X0*%
%ADD17RoundRect,0.250000X-0.407500X-0.295000X0.407500X-0.295000X0.407500X0.295000X-0.407500X0.295000X0*%
G04 APERTURE END LIST*
D10*
%TO.C,D1*%
X150060000Y-94295000D03*
X150060000Y-96170000D03*
%TD*%
D11*
%TO.C,U2*%
X158945000Y-103562500D03*
X160215000Y-103562500D03*
X161485000Y-103562500D03*
X162755000Y-103562500D03*
X162755000Y-98652500D03*
X161485000Y-98652500D03*
X160215000Y-98652500D03*
X158945000Y-98652500D03*
%TD*%
D12*
%TO.C,U1*%
X167825000Y-95160000D03*
X166555000Y-95160000D03*
X165285000Y-95160000D03*
X164015000Y-95160000D03*
X162745000Y-95160000D03*
X161475000Y-95160000D03*
X160205000Y-95160000D03*
X158935000Y-95160000D03*
X158935000Y-85860000D03*
X160205000Y-85860000D03*
X161475000Y-85860000D03*
X162745000Y-85860000D03*
X164015000Y-85860000D03*
X165285000Y-85860000D03*
X166555000Y-85860000D03*
X167825000Y-85860000D03*
%TD*%
D13*
%TO.C,RN2*%
X154110000Y-94960000D03*
X154910000Y-94960000D03*
X155710000Y-94960000D03*
X156510000Y-94960000D03*
X156510000Y-93260000D03*
X155710000Y-93260000D03*
X154910000Y-93260000D03*
X154110000Y-93260000D03*
%TD*%
%TO.C,RN1*%
X154090000Y-98150000D03*
X154890000Y-98150000D03*
X155690000Y-98150000D03*
X156490000Y-98150000D03*
X156490000Y-96450000D03*
X155690000Y-96450000D03*
X154890000Y-96450000D03*
X154090000Y-96450000D03*
%TD*%
D14*
%TO.C,R2*%
X156102500Y-88130000D03*
X154277500Y-88130000D03*
%TD*%
D15*
%TO.C,R1*%
X171810000Y-86150000D03*
X169985000Y-86150000D03*
%TD*%
D16*
%TO.C,Power*%
X156195000Y-86180000D03*
X154145000Y-86180000D03*
%TD*%
D17*
%TO.C,C2*%
X154332500Y-91600000D03*
X156287500Y-91600000D03*
%TD*%
%TO.C,C1*%
X154282500Y-89800000D03*
X156237500Y-89800000D03*
%TD*%
M02*
