%TF.GenerationSoftware,KiCad,Pcbnew,10.0.3*%
%TF.CreationDate,2026-07-07T12:03:59+05:45*%
%TF.ProjectId,DS3231 RTC Module,44533332-3331-4205-9254-43204d6f6475,rev?*%
%TF.SameCoordinates,Original*%
%TF.FileFunction,Copper,L1,Top*%
%TF.FilePolarity,Positive*%
%FSLAX46Y46*%
G04 Gerber Fmt 4.6, Leading zero omitted, Abs format (unit mm)*
G04 Created by KiCad (PCBNEW 10.0.3) date 2026-07-07 12:03:59*
%MOMM*%
%LPD*%
G01*
G04 APERTURE LIST*
G04 Aperture macros list*
%AMRoundRect*
0 Rectangle with rounded corners*
0 $1 Rounding radius*
0 $2 $3 $4 $5 $6 $7 $8 $9 X,Y pos of 4 corners*
0 Add a 4 corners polygon primitive as box body*
4,1,4,$2,$3,$4,$5,$6,$7,$8,$9,$2,$3,0*
0 Add four circle primitives for the rounded corners*
1,1,$1+$1,$2,$3*
1,1,$1+$1,$4,$5*
1,1,$1+$1,$6,$7*
1,1,$1+$1,$8,$9*
0 Add four rect primitives between the rounded corners*
20,1,$1+$1,$2,$3,$4,$5,0*
20,1,$1+$1,$4,$5,$6,$7,0*
20,1,$1+$1,$6,$7,$8,$9,0*
20,1,$1+$1,$8,$9,$2,$3,0*%
%AMFreePoly0*
4,1,23,0.000000,0.745722,0.065263,0.745722,0.191342,0.711940,0.304381,0.646677,0.396677,0.554381,0.461940,0.441342,0.495722,0.315263,0.495722,0.250000,0.500000,0.250000,0.500000,-0.250000,0.495722,-0.250000,0.495722,-0.315263,0.461940,-0.441342,0.396677,-0.554381,0.304381,-0.646677,0.191342,-0.711940,0.065263,-0.745722,0.000000,-0.745722,0.000000,-0.750000,-0.500000,-0.750000,
-0.500000,0.750000,0.000000,0.750000,0.000000,0.745722,0.000000,0.745722,$1*%
%AMFreePoly1*
4,1,23,0.500000,-0.750000,0.000000,-0.750000,0.000000,-0.745722,-0.065263,-0.745722,-0.191342,-0.711940,-0.304381,-0.646677,-0.396677,-0.554381,-0.461940,-0.441342,-0.495722,-0.315263,-0.495722,-0.250000,-0.500000,-0.250000,-0.500000,0.250000,-0.495722,0.250000,-0.495722,0.315263,-0.461940,0.441342,-0.396677,0.554381,-0.304381,0.646677,-0.191342,0.711940,-0.065263,0.745722,0.000000,0.745722,
0.000000,0.750000,0.500000,0.750000,0.500000,-0.750000,0.500000,-0.750000,$1*%
G04 Aperture macros list end*
%TA.AperFunction,ComponentPad*%
%ADD10R,1.700000X1.700000*%
%TD*%
%TA.AperFunction,ComponentPad*%
%ADD11C,1.700000*%
%TD*%
%TA.AperFunction,SMDPad,CuDef*%
%ADD12RoundRect,0.243750X0.456250X-0.243750X0.456250X0.243750X-0.456250X0.243750X-0.456250X-0.243750X0*%
%TD*%
%TA.AperFunction,SMDPad,CuDef*%
%ADD13RoundRect,0.075000X0.225000X-0.875000X0.225000X0.875000X-0.225000X0.875000X-0.225000X-0.875000X0*%
%TD*%
%TA.AperFunction,SMDPad,CuDef*%
%ADD14RoundRect,0.150000X-0.150000X0.875000X-0.150000X-0.875000X0.150000X-0.875000X0.150000X0.875000X0*%
%TD*%
%TA.AperFunction,SMDPad,CuDef*%
%ADD15R,0.400000X0.900000*%
%TD*%
%TA.AperFunction,SMDPad,CuDef*%
%ADD16RoundRect,0.237500X0.250000X0.237500X-0.250000X0.237500X-0.250000X-0.237500X0.250000X-0.237500X0*%
%TD*%
%TA.AperFunction,SMDPad,CuDef*%
%ADD17RoundRect,0.237500X-0.250000X-0.237500X0.250000X-0.237500X0.250000X0.237500X-0.250000X0.237500X0*%
%TD*%
%TA.AperFunction,SMDPad,CuDef*%
%ADD18FreePoly0,90.000000*%
%TD*%
%TA.AperFunction,SMDPad,CuDef*%
%ADD19FreePoly1,90.000000*%
%TD*%
%TA.AperFunction,ComponentPad*%
%ADD20C,2.600000*%
%TD*%
%TA.AperFunction,ConnectorPad*%
%ADD21C,3.800000*%
%TD*%
%TA.AperFunction,SMDPad,CuDef*%
%ADD22RoundRect,0.250000X-0.325000X-0.450000X0.325000X-0.450000X0.325000X0.450000X-0.325000X0.450000X0*%
%TD*%
%TA.AperFunction,SMDPad,CuDef*%
%ADD23RoundRect,0.250000X-0.407500X-0.295000X0.407500X-0.295000X0.407500X0.295000X-0.407500X0.295000X0*%
%TD*%
%TA.AperFunction,ComponentPad*%
%ADD24C,1.438000*%
%TD*%
%TA.AperFunction,ViaPad*%
%ADD25C,0.600000*%
%TD*%
%TA.AperFunction,Conductor*%
%ADD26C,0.200000*%
%TD*%
%TA.AperFunction,Conductor*%
%ADD27C,0.400000*%
%TD*%
G04 APERTURE END LIST*
D10*
%TO.P,J1,1,Pin_1_1*%
%TO.N,GND*%
X146520000Y-101240000D03*
D11*
%TO.P,J1,2,Pin_2_2*%
%TO.N,VCC*%
X146520000Y-98700000D03*
%TO.P,J1,3,Pin_3_3*%
%TO.N,/SDA*%
X146520000Y-96160000D03*
%TO.P,J1,4,Pin_4_4*%
%TO.N,/SCL*%
X146520000Y-93620000D03*
%TO.P,J1,5,Pin_5_5*%
%TO.N,/SQW*%
X146520000Y-91080000D03*
%TO.P,J1,6,Pin_6_6*%
%TO.N,/32K*%
X146520000Y-88540000D03*
%TD*%
D12*
%TO.P,D1,2,A_2*%
%TO.N,Net-(D1-A)*%
X150060000Y-94295000D03*
%TO.P,D1,1,K_1*%
%TO.N,Net-(D1-K)*%
X150060000Y-96170000D03*
%TD*%
D13*
%TO.P,U2,1,A0_1*%
%TO.N,Net-(JP2-B)*%
X158945000Y-103562500D03*
%TO.P,U2,2,A1_2*%
%TO.N,Net-(JP1-B)*%
X160215000Y-103562500D03*
%TO.P,U2,3,A2_3*%
%TO.N,Net-(JP3-B)*%
X161485000Y-103562500D03*
%TO.P,U2,4*%
%TO.N,N/C*%
X162755000Y-103562500D03*
%TO.P,U2,5,VCC_5*%
%TO.N,VCC*%
X162755000Y-98652500D03*
%TO.P,U2,6,WP_6*%
%TO.N,GND*%
X161485000Y-98652500D03*
%TO.P,U2,7,SCL_7*%
%TO.N,/SCL*%
X160215000Y-98652500D03*
%TO.P,U2,8,SDA_8*%
%TO.N,/SDA*%
X158945000Y-98652500D03*
%TD*%
D14*
%TO.P,U1,16,SCL_16*%
%TO.N,/SDA*%
X167825000Y-95160000D03*
%TO.P,U1,15,SDA_15*%
%TO.N,/SCL*%
X166555000Y-95160000D03*
%TO.P,U1,14,VBAT_14*%
%TO.N,Net-(D1-K)*%
X165285000Y-95160000D03*
%TO.P,U1,13,GND_13*%
%TO.N,GND*%
X164015000Y-95160000D03*
%TO.P,U1,12,GND_12*%
X162745000Y-95160000D03*
%TO.P,U1,11,GND_11*%
X161475000Y-95160000D03*
%TO.P,U1,10,GND_10*%
X160205000Y-95160000D03*
%TO.P,U1,9,GND_9*%
X158935000Y-95160000D03*
%TO.P,U1,8,GND_8*%
X158935000Y-85860000D03*
%TO.P,U1,7,GND_7*%
X160205000Y-85860000D03*
%TO.P,U1,6,GND_6*%
X161475000Y-85860000D03*
%TO.P,U1,5,GND_5*%
X162745000Y-85860000D03*
%TO.P,U1,4,~{RST}_4*%
%TO.N,unconnected-(U1-~{RST}-Pad4)*%
X164015000Y-85860000D03*
%TO.P,U1,3,~{INT}/SQW_3*%
%TO.N,/SQW*%
X165285000Y-85860000D03*
%TO.P,U1,2,VCC_2*%
%TO.N,VCC*%
X166555000Y-85860000D03*
%TO.P,U1,1,32KHZ_1*%
%TO.N,/32K*%
X167825000Y-85860000D03*
%TD*%
D15*
%TO.P,RN2,1,R1.1_1*%
%TO.N,/SCL*%
X154110000Y-94960000D03*
%TO.P,RN2,2,R2.1_2*%
%TO.N,Net-(D1-K)*%
X154910000Y-94960000D03*
%TO.P,RN2,3,R3.1_3*%
%TO.N,/SQW*%
X155710000Y-94960000D03*
%TO.P,RN2,4,R4.1_4*%
%TO.N,/32K*%
X156510000Y-94960000D03*
%TO.P,RN2,5,R4.2_5*%
%TO.N,VCC*%
X156510000Y-93260000D03*
%TO.P,RN2,6,R3.2_6*%
X155710000Y-93260000D03*
%TO.P,RN2,7,R2.2_7*%
X154910000Y-93260000D03*
%TO.P,RN2,8,R1.2_8*%
X154110000Y-93260000D03*
%TD*%
%TO.P,RN1,1,R1.1_1*%
%TO.N,unconnected-(RN1-R1.1-Pad1)*%
X154090000Y-98150000D03*
%TO.P,RN1,2,R2.1_2*%
%TO.N,Net-(JP2-B)*%
X154890000Y-98150000D03*
%TO.P,RN1,3,R3.1_3*%
%TO.N,Net-(JP1-B)*%
X155690000Y-98150000D03*
%TO.P,RN1,4,R4.1_4*%
%TO.N,Net-(JP3-B)*%
X156490000Y-98150000D03*
%TO.P,RN1,5,R4.2_5*%
%TO.N,VCC*%
X156490000Y-96450000D03*
%TO.P,RN1,6,R3.2_6*%
X155690000Y-96450000D03*
%TO.P,RN1,7,R2.2_7*%
X154890000Y-96450000D03*
%TO.P,RN1,8,R1.2_8*%
X154090000Y-96450000D03*
%TD*%
D16*
%TO.P,R2,1*%
%TO.N,Net-(D2-A)*%
X156102500Y-88130000D03*
%TO.P,R2,2*%
%TO.N,VCC*%
X154277500Y-88130000D03*
%TD*%
D17*
%TO.P,R1,2*%
%TO.N,Net-(D1-A)*%
X171810000Y-86150000D03*
%TO.P,R1,1*%
%TO.N,VCC*%
X169985000Y-86150000D03*
%TD*%
D18*
%TO.P,A2,2,B_2*%
%TO.N,Net-(JP3-B)*%
X172690000Y-103280000D03*
D19*
%TO.P,A2,1,A_1*%
%TO.N,GND*%
X172690000Y-104580000D03*
%TD*%
D18*
%TO.P,A1,2,B_2*%
%TO.N,Net-(JP2-B)*%
X169140000Y-103280000D03*
D19*
%TO.P,A1,1,A_1*%
%TO.N,GND*%
X169140000Y-104580000D03*
%TD*%
D18*
%TO.P,A0,2,B_2*%
%TO.N,Net-(JP1-B)*%
X165590000Y-103280000D03*
D19*
%TO.P,A0,1,A_1*%
%TO.N,GND*%
X165590000Y-104580000D03*
%TD*%
D20*
%TO.P,H10,1,1_1*%
%TO.N,GND*%
X177780000Y-103380000D03*
D21*
X177780000Y-103380000D03*
%TD*%
D20*
%TO.P,H9,1,1_1*%
%TO.N,VCC*%
X177780000Y-98030000D03*
D21*
X177780000Y-98030000D03*
%TD*%
D20*
%TO.P,H8,1,1_1*%
%TO.N,/SDA*%
X177780000Y-92680000D03*
D21*
X177780000Y-92680000D03*
%TD*%
D20*
%TO.P,H7,1,1_1*%
%TO.N,/SCL*%
X177780000Y-87330000D03*
D21*
X177780000Y-87330000D03*
%TD*%
D22*
%TO.P,Power,2,A_2*%
%TO.N,Net-(D2-A)*%
X156195000Y-86180000D03*
%TO.P,Power,1,K_1*%
%TO.N,GND*%
X154145000Y-86180000D03*
%TD*%
D23*
%TO.P,C2,1*%
%TO.N,VCC*%
X154332500Y-91600000D03*
%TO.P,C2,2*%
%TO.N,GND*%
X156287500Y-91600000D03*
%TD*%
%TO.P,C1,1*%
%TO.N,VCC*%
X154282500Y-89800000D03*
%TO.P,C1,2*%
%TO.N,GND*%
X156237500Y-89800000D03*
%TD*%
D24*
%TO.P,BT1,P_1*%
%TO.N,Net-(D1-K)*%
X172740000Y-89760000D03*
%TO.P,BT1,P_2*%
X172740000Y-99860000D03*
%TO.P,BT1,N*%
%TO.N,GND*%
X152240000Y-94810000D03*
%TD*%
D25*
%TO.N,Net-(D1-K)*%
X161909582Y-101183789D03*
X150060000Y-96170000D03*
%TO.N,GND*%
X164015000Y-95160000D03*
X168352000Y-98260000D03*
X169130000Y-96180000D03*
X158935000Y-95160000D03*
X158700000Y-91790000D03*
X156287500Y-91600000D03*
X148780000Y-90250000D03*
%TO.N,/SQW*%
X155681410Y-95110000D03*
%TO.N,Net-(D1-K)*%
X153482998Y-94610000D03*
X154960000Y-95020000D03*
%TO.N,Net-(D1-A)*%
X150060000Y-94295000D03*
X157233144Y-95013658D03*
%TO.N,VCC*%
X156490000Y-96450000D03*
X162790000Y-98520000D03*
%TO.N,/SQW*%
X157589499Y-93261904D03*
%TO.N,Net-(JP2-B)*%
X158945000Y-103562500D03*
X169140000Y-103280000D03*
%TO.N,VCC*%
X154110000Y-93260000D03*
X154282500Y-89800000D03*
X154332500Y-91600000D03*
X166555000Y-85860000D03*
X169900000Y-86180000D03*
%TO.N,Net-(D1-K)*%
X165285000Y-95160000D03*
%TD*%
%TO.N,Net-(D1-K)*%
D26*
X168764553Y-91463000D02*
X171037000Y-91463000D01*
X165730001Y-93690000D02*
X166537553Y-93690000D01*
X166537553Y-93690000D02*
X168764553Y-91463000D01*
X171037000Y-91463000D02*
X172740000Y-89760000D01*
X165285000Y-94135001D02*
X165730001Y-93690000D01*
X165285000Y-95160000D02*
X165285000Y-94135001D01*
X167171000Y-96715448D02*
X166917776Y-96462224D01*
X166330604Y-101404500D02*
X167171000Y-100564104D01*
X166917776Y-96462224D02*
X166294908Y-96462224D01*
X166294908Y-96462224D02*
X165285000Y-95452316D01*
X167171000Y-100564104D02*
X167171000Y-96715448D01*
X162130293Y-101404500D02*
X166330604Y-101404500D01*
X165285000Y-95452316D02*
X165285000Y-95160000D01*
X161909582Y-101183789D02*
X162130293Y-101404500D01*
%TO.N,Net-(JP2-B)*%
X155363000Y-98930000D02*
X155363000Y-99980500D01*
X155363000Y-99980500D02*
X158945000Y-103562500D01*
X154890000Y-98457000D02*
X155363000Y-98930000D01*
X154890000Y-98150000D02*
X154890000Y-98457000D01*
%TO.N,Net-(JP3-B)*%
X156160000Y-98090000D02*
X156430000Y-98090000D01*
X156117000Y-98133000D02*
X156160000Y-98090000D01*
X156140000Y-99780000D02*
X156117000Y-99757000D01*
X156117000Y-99757000D02*
X156117000Y-98133000D01*
X158223000Y-101893000D02*
X156140000Y-99780000D01*
X156430000Y-98090000D02*
X156490000Y-98150000D01*
%TO.N,/SCL*%
X161219501Y-101239000D02*
X161712001Y-101731500D01*
X160390000Y-101239000D02*
X161219501Y-101239000D01*
X160215000Y-101145000D02*
X160309000Y-101239000D01*
X160309000Y-101239000D02*
X160390000Y-101239000D01*
X160215000Y-98652500D02*
X160215000Y-101145000D01*
%TO.N,/SDA*%
X159160000Y-101566000D02*
X161084053Y-101566000D01*
X161084053Y-101566000D02*
X161576553Y-102058500D01*
X158945000Y-101351000D02*
X159160000Y-101566000D01*
X158945000Y-98652500D02*
X158945000Y-101351000D01*
%TO.N,Net-(JP3-B)*%
X158223000Y-101893000D02*
X160765499Y-101893000D01*
%TO.N,Net-(JP1-B)*%
X155690000Y-99845052D02*
X158064948Y-102220000D01*
X155690000Y-98150000D02*
X155690000Y-99845052D01*
%TO.N,Net-(JP3-B)*%
X160765499Y-101893000D02*
X161485000Y-102612501D01*
X158200396Y-101893000D02*
X158223000Y-101893000D01*
%TO.N,Net-(JP1-B)*%
X159800000Y-102220000D02*
X160215000Y-102635000D01*
X158064948Y-102220000D02*
X159800000Y-102220000D01*
X160215000Y-102635000D02*
X160215000Y-103562500D01*
%TO.N,Net-(D1-A)*%
X160317783Y-91929019D02*
X157233144Y-95013658D01*
X164515177Y-88100000D02*
X160317783Y-91929019D01*
X171212500Y-88100000D02*
X164515177Y-88100000D01*
X171810000Y-86150000D02*
X171212500Y-88100000D01*
%TO.N,/SCL*%
X160215000Y-98002316D02*
X157849684Y-95637000D01*
X160215000Y-98652500D02*
X160215000Y-98002316D01*
%TO.N,Net-(D1-K)*%
D27*
X165285000Y-95160000D02*
X165285000Y-96184999D01*
%TO.N,GND*%
D26*
X168460000Y-98260000D02*
X168352000Y-98260000D01*
X169180000Y-97540000D02*
X168460000Y-98260000D01*
X169180000Y-96230000D02*
X169180000Y-97540000D01*
X169130000Y-96180000D02*
X169180000Y-96230000D01*
X158510000Y-91600000D02*
X158700000Y-91790000D01*
X156287500Y-91600000D02*
X158510000Y-91600000D01*
X156287500Y-89850000D02*
X156237500Y-89800000D01*
X156287500Y-91600000D02*
X156287500Y-89850000D01*
X148780000Y-91350000D02*
X148780000Y-90250000D01*
X152240000Y-94810000D02*
X148780000Y-91350000D01*
%TO.N,/SQW*%
X155710000Y-95081410D02*
X155681410Y-95110000D01*
X155710000Y-94960000D02*
X155710000Y-95081410D01*
%TO.N,Net-(D1-K)*%
X152217847Y-96170000D02*
X150060000Y-96170000D01*
X153482998Y-94610000D02*
X153482998Y-94904849D01*
X153482998Y-94904849D02*
X152217847Y-96170000D01*
X154910000Y-94970000D02*
X154960000Y-95020000D01*
X154910000Y-94960000D02*
X154910000Y-94970000D01*
%TO.N,/SCL*%
X147968448Y-97146000D02*
X152984000Y-97146000D01*
X152984000Y-97146000D02*
X153663000Y-96467000D01*
X153663000Y-96467000D02*
X153663000Y-95407000D01*
X147711224Y-96888776D02*
X147968448Y-97146000D01*
X147711224Y-94811224D02*
X147711224Y-96888776D01*
X153663000Y-95407000D02*
X154110000Y-94960000D01*
X146520000Y-93620000D02*
X147711224Y-94811224D01*
X175980000Y-89130000D02*
X177780000Y-87330000D01*
X175980000Y-90840000D02*
X175980000Y-89130000D01*
X175030000Y-91790000D02*
X175980000Y-90840000D01*
X168900001Y-91790000D02*
X175030000Y-91790000D01*
X166555000Y-95160000D02*
X166555000Y-94135001D01*
X166555000Y-94135001D02*
X168900001Y-91790000D01*
%TO.N,VCC*%
X162755000Y-98555000D02*
X162790000Y-98520000D01*
X162755000Y-98652500D02*
X162755000Y-98555000D01*
%TO.N,/SCL*%
X157849684Y-95637000D02*
X154483000Y-95637000D01*
X154483000Y-95637000D02*
X154110000Y-95264000D01*
X154110000Y-95264000D02*
X154110000Y-94960000D01*
X166466052Y-101731500D02*
X161712001Y-101731500D01*
X167498000Y-100699552D02*
X166466052Y-101731500D01*
X167498000Y-96580000D02*
X167498000Y-100699552D01*
X166960000Y-96042000D02*
X167498000Y-96580000D01*
X166960000Y-95565000D02*
X166960000Y-96042000D01*
X166555000Y-95160000D02*
X166960000Y-95565000D01*
%TO.N,/SDA*%
X175300000Y-95160000D02*
X177780000Y-92680000D01*
X167825000Y-95160000D02*
X175300000Y-95160000D01*
X167825000Y-100835000D02*
X167825000Y-95160000D01*
X166601500Y-102058500D02*
X167825000Y-100835000D01*
X161576553Y-102058500D02*
X166601500Y-102058500D01*
X157765500Y-97473000D02*
X158945000Y-98652500D01*
X147833000Y-97473000D02*
X157765500Y-97473000D01*
X146520000Y-96160000D02*
X147833000Y-97473000D01*
%TO.N,/SQW*%
X157771403Y-93080000D02*
X157589499Y-93261904D01*
X158080000Y-93080000D02*
X157771403Y-93080000D01*
X165285000Y-86432885D02*
X164377866Y-87340019D01*
X165285000Y-85860000D02*
X165285000Y-86432885D01*
X164377866Y-87340019D02*
X158080000Y-93080000D01*
%TO.N,/32K*%
X167825000Y-86715000D02*
X167825000Y-85860000D01*
X167460000Y-87670000D02*
X167825000Y-86715000D01*
X156510000Y-94960000D02*
X164600000Y-87580000D01*
X164600000Y-87580000D02*
X167460000Y-87670000D01*
X156510000Y-94400000D02*
X156510000Y-94960000D01*
X153369418Y-94060000D02*
X156170000Y-94060000D01*
X156170000Y-94060000D02*
X156510000Y-94400000D01*
X147849418Y-88540000D02*
X153369418Y-94060000D01*
X146520000Y-88540000D02*
X147849418Y-88540000D01*
%TO.N,Net-(JP1-B)*%
X160442001Y-104739500D02*
X163107170Y-104739500D01*
X160215000Y-104512499D02*
X160442001Y-104739500D01*
X163107170Y-104739500D02*
X164566670Y-103280000D01*
X160215000Y-103562500D02*
X160215000Y-104512499D01*
X164566670Y-103280000D02*
X165590000Y-103280000D01*
%TO.N,Net-(JP3-B)*%
X161485000Y-103562500D02*
X161485000Y-103145000D01*
X161485000Y-102612501D02*
X161485000Y-103562500D01*
X161712001Y-102385500D02*
X161485000Y-102612501D01*
X171795500Y-102385500D02*
X161712001Y-102385500D01*
X172690000Y-103280000D02*
X171795500Y-102385500D01*
%TO.N,Net-(D2-A)*%
D27*
X156102500Y-86272500D02*
X156195000Y-86180000D01*
X156102500Y-88130000D02*
X156102500Y-86272500D01*
%TO.N,VCC*%
X154277500Y-89795000D02*
X154282500Y-89800000D01*
X154277500Y-88130000D02*
X154277500Y-89795000D01*
X156510000Y-93260000D02*
X154110000Y-93260000D01*
X154090000Y-96450000D02*
X156490000Y-96450000D01*
%TD*%
%TA.AperFunction,Conductor*%
%TO.N,GND*%
G36*
X158317937Y-84320185D02*
G01*
X158363692Y-84372989D01*
X158373636Y-84442147D01*
X158344611Y-84505703D01*
X158338579Y-84512181D01*
X158267321Y-84583438D01*
X158267314Y-84583447D01*
X158183717Y-84724803D01*
X158183716Y-84724806D01*
X158137900Y-84882504D01*
X158137899Y-84882510D01*
X158135000Y-84919350D01*
X158135000Y-85610000D01*
X162621000Y-85610000D01*
X162688039Y-85629685D01*
X162733794Y-85682489D01*
X162745000Y-85734000D01*
X162745000Y-85860000D01*
X162871000Y-85860000D01*
X162938039Y-85879685D01*
X162983794Y-85932489D01*
X162995000Y-85984000D01*
X162995000Y-87382295D01*
X162995001Y-87382295D01*
X162997488Y-87382100D01*
X162997494Y-87382099D01*
X163134618Y-87342261D01*
X163204487Y-87342460D01*
X163263157Y-87380402D01*
X163292001Y-87444041D01*
X163281860Y-87513170D01*
X163252741Y-87552983D01*
X159813340Y-90687712D01*
X157905205Y-92426819D01*
X157882902Y-92447146D01*
X157857800Y-92459379D01*
X157834309Y-92474477D01*
X157823693Y-92476003D01*
X157820095Y-92477757D01*
X157799374Y-92479500D01*
X157771526Y-92479500D01*
X157747335Y-92477117D01*
X157712712Y-92470230D01*
X157668343Y-92461404D01*
X157668341Y-92461404D01*
X157510657Y-92461404D01*
X157466284Y-92470230D01*
X157396693Y-92464001D01*
X157341516Y-92421138D01*
X157318272Y-92355248D01*
X157334340Y-92287251D01*
X157336556Y-92283515D01*
X157379353Y-92214130D01*
X157379358Y-92214119D01*
X157434505Y-92047697D01*
X157434506Y-92047690D01*
X157444999Y-91944986D01*
X157445000Y-91944973D01*
X157445000Y-91850000D01*
X156411500Y-91850000D01*
X156344461Y-91830315D01*
X156298706Y-91777511D01*
X156287500Y-91726000D01*
X156287500Y-91600000D01*
X156161500Y-91600000D01*
X156094461Y-91580315D01*
X156048706Y-91527511D01*
X156037500Y-91476000D01*
X156037500Y-90975000D01*
X156023819Y-90961319D01*
X155990334Y-90899996D01*
X155987500Y-90873638D01*
X155987500Y-90425000D01*
X156487500Y-90425000D01*
X156501181Y-90438681D01*
X156534666Y-90500004D01*
X156537500Y-90526362D01*
X156537500Y-91350000D01*
X157444999Y-91350000D01*
X157444999Y-91255028D01*
X157444998Y-91255013D01*
X157434505Y-91152302D01*
X157379358Y-90985880D01*
X157379356Y-90985875D01*
X157287315Y-90836654D01*
X157213342Y-90762681D01*
X157179857Y-90701358D01*
X157184841Y-90631666D01*
X157213343Y-90587317D01*
X157237315Y-90563344D01*
X157329356Y-90414124D01*
X157329358Y-90414119D01*
X157384505Y-90247697D01*
X157384506Y-90247690D01*
X157394999Y-90144986D01*
X157395000Y-90144973D01*
X157395000Y-90050000D01*
X156487500Y-90050000D01*
X156487500Y-90425000D01*
X155987500Y-90425000D01*
X155987500Y-89924000D01*
X156007185Y-89856961D01*
X156059989Y-89811206D01*
X156111500Y-89800000D01*
X156237500Y-89800000D01*
X156237500Y-89674000D01*
X156257185Y-89606961D01*
X156309989Y-89561206D01*
X156361500Y-89550000D01*
X157394999Y-89550000D01*
X157394999Y-89455028D01*
X157394998Y-89455013D01*
X157384505Y-89352302D01*
X157329358Y-89185880D01*
X157329356Y-89185875D01*
X157237315Y-89036654D01*
X157113345Y-88912684D01*
X157052254Y-88875003D01*
X157005530Y-88823055D01*
X156994307Y-88754092D01*
X157011813Y-88704366D01*
X157025908Y-88681516D01*
X157080174Y-88517753D01*
X157090500Y-88416677D01*
X157090499Y-87843324D01*
X157080174Y-87742247D01*
X157025908Y-87578484D01*
X156935340Y-87431650D01*
X156935339Y-87431649D01*
X156935338Y-87431647D01*
X156930862Y-87425987D01*
X156932464Y-87424719D01*
X156903857Y-87372329D01*
X156908841Y-87302637D01*
X156950713Y-87246704D01*
X156959927Y-87240432D01*
X156965146Y-87237213D01*
X156988656Y-87222712D01*
X157112712Y-87098656D01*
X157204814Y-86949334D01*
X157254083Y-86800649D01*
X158135000Y-86800649D01*
X158137899Y-86837489D01*
X158137900Y-86837495D01*
X158183716Y-86995193D01*
X158183717Y-86995196D01*
X158267314Y-87136552D01*
X158267321Y-87136561D01*
X158383438Y-87252678D01*
X158383447Y-87252685D01*
X158524801Y-87336281D01*
X158682514Y-87382100D01*
X158682511Y-87382100D01*
X158684998Y-87382295D01*
X158685000Y-87382295D01*
X159185000Y-87382295D01*
X159185001Y-87382295D01*
X159187486Y-87382100D01*
X159345198Y-87336281D01*
X159486552Y-87252685D01*
X159492722Y-87247900D01*
X159494546Y-87250252D01*
X159543595Y-87223445D01*
X159613288Y-87228402D01*
X159646063Y-87249465D01*
X159647278Y-87247900D01*
X159653447Y-87252685D01*
X159794801Y-87336281D01*
X159952514Y-87382100D01*
X159952511Y-87382100D01*
X159954998Y-87382295D01*
X159955000Y-87382295D01*
X160455000Y-87382295D01*
X160455001Y-87382295D01*
X160457486Y-87382100D01*
X160615198Y-87336281D01*
X160756552Y-87252685D01*
X160762722Y-87247900D01*
X160764546Y-87250252D01*
X160813595Y-87223445D01*
X160883288Y-87228402D01*
X160916063Y-87249465D01*
X160917278Y-87247900D01*
X160923447Y-87252685D01*
X161064801Y-87336281D01*
X161222514Y-87382100D01*
X161222511Y-87382100D01*
X161224998Y-87382295D01*
X161225000Y-87382295D01*
X161725000Y-87382295D01*
X161725001Y-87382295D01*
X161727486Y-87382100D01*
X161885198Y-87336281D01*
X162026552Y-87252685D01*
X162032722Y-87247900D01*
X162034546Y-87250252D01*
X162083595Y-87223445D01*
X162153288Y-87228402D01*
X162186063Y-87249465D01*
X162187278Y-87247900D01*
X162193447Y-87252685D01*
X162334801Y-87336281D01*
X162492514Y-87382100D01*
X162492511Y-87382100D01*
X162494998Y-87382295D01*
X162495000Y-87382295D01*
X162495000Y-86110000D01*
X161725000Y-86110000D01*
X161725000Y-87382295D01*
X161225000Y-87382295D01*
X161225000Y-86110000D01*
X160455000Y-86110000D01*
X160455000Y-87382295D01*
X159955000Y-87382295D01*
X159955000Y-86110000D01*
X159185000Y-86110000D01*
X159185000Y-87382295D01*
X158685000Y-87382295D01*
X158685000Y-86110000D01*
X158135000Y-86110000D01*
X158135000Y-86800649D01*
X157254083Y-86800649D01*
X157259999Y-86782797D01*
X157270500Y-86680009D01*
X157270499Y-85679992D01*
X157270301Y-85678057D01*
X157259999Y-85577203D01*
X157259998Y-85577200D01*
X157246765Y-85537265D01*
X157204814Y-85410666D01*
X157112712Y-85261344D01*
X156988656Y-85137288D01*
X156839334Y-85045186D01*
X156672797Y-84990001D01*
X156672795Y-84990000D01*
X156570010Y-84979500D01*
X155819998Y-84979500D01*
X155819980Y-84979501D01*
X155717203Y-84990000D01*
X155717200Y-84990001D01*
X155550668Y-85045185D01*
X155550663Y-85045187D01*
X155401342Y-85137289D01*
X155277288Y-85261343D01*
X155277283Y-85261349D01*
X155275241Y-85264661D01*
X155273247Y-85266453D01*
X155272807Y-85267011D01*
X155272711Y-85266935D01*
X155223291Y-85311383D01*
X155154328Y-85322602D01*
X155090247Y-85294755D01*
X155064168Y-85264656D01*
X155062319Y-85261659D01*
X155062316Y-85261655D01*
X154938345Y-85137684D01*
X154789124Y-85045643D01*
X154789119Y-85045641D01*
X154622697Y-84990494D01*
X154622690Y-84990493D01*
X154519986Y-84980000D01*
X154395000Y-84980000D01*
X154395000Y-86056000D01*
X154375315Y-86123039D01*
X154322511Y-86168794D01*
X154271000Y-86180000D01*
X154145000Y-86180000D01*
X154145000Y-86306000D01*
X154125315Y-86373039D01*
X154072511Y-86418794D01*
X154021000Y-86430000D01*
X153070001Y-86430000D01*
X153070001Y-86679986D01*
X153080494Y-86782697D01*
X153135641Y-86949119D01*
X153135643Y-86949124D01*
X153227684Y-87098345D01*
X153351655Y-87222316D01*
X153351659Y-87222319D01*
X153407022Y-87256468D01*
X153453747Y-87308416D01*
X153464968Y-87377378D01*
X153447464Y-87427102D01*
X153354095Y-87578477D01*
X153354092Y-87578484D01*
X153299826Y-87742247D01*
X153299826Y-87742248D01*
X153299825Y-87742248D01*
X153289500Y-87843315D01*
X153289500Y-88416669D01*
X153289501Y-88416687D01*
X153299825Y-88517752D01*
X153324865Y-88593315D01*
X153354091Y-88681514D01*
X153354092Y-88681515D01*
X153354093Y-88681518D01*
X153365801Y-88700499D01*
X153403293Y-88761284D01*
X153410593Y-88773118D01*
X153429033Y-88840511D01*
X153408110Y-88907174D01*
X153392736Y-88925896D01*
X153282287Y-89036345D01*
X153190187Y-89185663D01*
X153190185Y-89185668D01*
X153176824Y-89225989D01*
X153135001Y-89352203D01*
X153135001Y-89352204D01*
X153135000Y-89352204D01*
X153124500Y-89454983D01*
X153124500Y-90145001D01*
X153124501Y-90145019D01*
X153135000Y-90247796D01*
X153135001Y-90247799D01*
X153175390Y-90369684D01*
X153190186Y-90414334D01*
X153281012Y-90561588D01*
X153282289Y-90563657D01*
X153355950Y-90637318D01*
X153389435Y-90698641D01*
X153384451Y-90768333D01*
X153355953Y-90812677D01*
X153332291Y-90836340D01*
X153332289Y-90836342D01*
X153332288Y-90836344D01*
X153332097Y-90836654D01*
X153240187Y-90985663D01*
X153240185Y-90985668D01*
X153235757Y-90999032D01*
X153185001Y-91152203D01*
X153185001Y-91152204D01*
X153185000Y-91152204D01*
X153174500Y-91254983D01*
X153174500Y-91945001D01*
X153174501Y-91945019D01*
X153185000Y-92047796D01*
X153185001Y-92047799D01*
X153205649Y-92110109D01*
X153240186Y-92214334D01*
X153332120Y-92363384D01*
X153332289Y-92363657D01*
X153428896Y-92460264D01*
X153462381Y-92521587D01*
X153457397Y-92591277D01*
X153415909Y-92702514D01*
X153415908Y-92702516D01*
X153409501Y-92762116D01*
X153409500Y-92762135D01*
X153409500Y-92834684D01*
X153407873Y-92842860D01*
X153408790Y-92847939D01*
X153400061Y-92882136D01*
X153365851Y-92964727D01*
X153322010Y-93019131D01*
X153255716Y-93041196D01*
X153188017Y-93023917D01*
X153163609Y-93004956D01*
X148337008Y-88178355D01*
X148337006Y-88178352D01*
X148218135Y-88059481D01*
X148218134Y-88059480D01*
X148131322Y-88009360D01*
X148131322Y-88009359D01*
X148131318Y-88009358D01*
X148081203Y-87980423D01*
X147928475Y-87939499D01*
X147805718Y-87939499D01*
X147738679Y-87919814D01*
X147695233Y-87871794D01*
X147680727Y-87843324D01*
X147675051Y-87832184D01*
X147675049Y-87832181D01*
X147675048Y-87832179D01*
X147550109Y-87660213D01*
X147399786Y-87509890D01*
X147227820Y-87384951D01*
X147038414Y-87288444D01*
X147038413Y-87288443D01*
X147038412Y-87288443D01*
X146836243Y-87222754D01*
X146836241Y-87222753D01*
X146836240Y-87222753D01*
X146662218Y-87195191D01*
X146626287Y-87189500D01*
X146413713Y-87189500D01*
X146377782Y-87195191D01*
X146203760Y-87222753D01*
X146001585Y-87288444D01*
X145812179Y-87384951D01*
X145640213Y-87509890D01*
X145489890Y-87660213D01*
X145364951Y-87832179D01*
X145268444Y-88021585D01*
X145202753Y-88223760D01*
X145172198Y-88416676D01*
X145169500Y-88433713D01*
X145169500Y-88646287D01*
X145175080Y-88681515D01*
X145198568Y-88829817D01*
X145202754Y-88856243D01*
X145266016Y-89050943D01*
X145268444Y-89058414D01*
X145364951Y-89247820D01*
X145489890Y-89419786D01*
X145640213Y-89570109D01*
X145812182Y-89695050D01*
X145820946Y-89699516D01*
X145871742Y-89747491D01*
X145888536Y-89815312D01*
X145865998Y-89881447D01*
X145820946Y-89920484D01*
X145812182Y-89924949D01*
X145640213Y-90049890D01*
X145489890Y-90200213D01*
X145364951Y-90372179D01*
X145268444Y-90561585D01*
X145268443Y-90561587D01*
X145268443Y-90561588D01*
X145245673Y-90631666D01*
X145202753Y-90763760D01*
X145169500Y-90973713D01*
X145169500Y-91186286D01*
X145202753Y-91396239D01*
X145268444Y-91598414D01*
X145364951Y-91787820D01*
X145489890Y-91959786D01*
X145640213Y-92110109D01*
X145812182Y-92235050D01*
X145820946Y-92239516D01*
X145871742Y-92287491D01*
X145888536Y-92355312D01*
X145865998Y-92421447D01*
X145820946Y-92460484D01*
X145812182Y-92464949D01*
X145640213Y-92589890D01*
X145489890Y-92740213D01*
X145364951Y-92912179D01*
X145268444Y-93101585D01*
X145202753Y-93303760D01*
X145169500Y-93513713D01*
X145169500Y-93726286D01*
X145202753Y-93936239D01*
X145202753Y-93936241D01*
X145202754Y-93936243D01*
X145266584Y-94132692D01*
X145268444Y-94138414D01*
X145364951Y-94327820D01*
X145489890Y-94499786D01*
X145640213Y-94650109D01*
X145812182Y-94775050D01*
X145820946Y-94779516D01*
X145871742Y-94827491D01*
X145888536Y-94895312D01*
X145865998Y-94961447D01*
X145820946Y-95000484D01*
X145812182Y-95004949D01*
X145640213Y-95129890D01*
X145489890Y-95280213D01*
X145364951Y-95452179D01*
X145268444Y-95641585D01*
X145202753Y-95843760D01*
X145189773Y-95925714D01*
X145169500Y-96053713D01*
X145169500Y-96266287D01*
X145174111Y-96295398D01*
X145200711Y-96463348D01*
X145202754Y-96476243D01*
X145255543Y-96638711D01*
X145268444Y-96678414D01*
X145364951Y-96867820D01*
X145489890Y-97039786D01*
X145640213Y-97190109D01*
X145812182Y-97315050D01*
X145820946Y-97319516D01*
X145871742Y-97367491D01*
X145888536Y-97435312D01*
X145865998Y-97501447D01*
X145820946Y-97540484D01*
X145812182Y-97544949D01*
X145640213Y-97669890D01*
X145489890Y-97820213D01*
X145364951Y-97992179D01*
X145268444Y-98181585D01*
X145202753Y-98383760D01*
X145169500Y-98593713D01*
X145169500Y-98806287D01*
X145179534Y-98869644D01*
X145192274Y-98950079D01*
X145202754Y-99016243D01*
X145263675Y-99203739D01*
X145268444Y-99218414D01*
X145364951Y-99407820D01*
X145489890Y-99579786D01*
X145603818Y-99693714D01*
X145637303Y-99755037D01*
X145632319Y-99824729D01*
X145590447Y-99880662D01*
X145559471Y-99897577D01*
X145427912Y-99946646D01*
X145427906Y-99946649D01*
X145312812Y-100032809D01*
X145312809Y-100032812D01*
X145226649Y-100147906D01*
X145226645Y-100147913D01*
X145176403Y-100282620D01*
X145176401Y-100282627D01*
X145170000Y-100342155D01*
X145170000Y-100990000D01*
X146086988Y-100990000D01*
X146054075Y-101047007D01*
X146020000Y-101174174D01*
X146020000Y-101305826D01*
X146054075Y-101432993D01*
X146086988Y-101490000D01*
X145170000Y-101490000D01*
X145170000Y-102137844D01*
X145176401Y-102197372D01*
X145176403Y-102197379D01*
X145226645Y-102332086D01*
X145226649Y-102332093D01*
X145312809Y-102447187D01*
X145312812Y-102447190D01*
X145427906Y-102533350D01*
X145427913Y-102533354D01*
X145562620Y-102583596D01*
X145562627Y-102583598D01*
X145622155Y-102589999D01*
X145622172Y-102590000D01*
X146270000Y-102590000D01*
X146270000Y-101673012D01*
X146327007Y-101705925D01*
X146454174Y-101740000D01*
X146585826Y-101740000D01*
X146712993Y-101705925D01*
X146770000Y-101673012D01*
X146770000Y-102590000D01*
X147417828Y-102590000D01*
X147417844Y-102589999D01*
X147477372Y-102583598D01*
X147477379Y-102583596D01*
X147612086Y-102533354D01*
X147612093Y-102533350D01*
X147727187Y-102447190D01*
X147727190Y-102447187D01*
X147813350Y-102332093D01*
X147813354Y-102332086D01*
X147863596Y-102197379D01*
X147863598Y-102197372D01*
X147869999Y-102137844D01*
X147870000Y-102137827D01*
X147870000Y-101490000D01*
X146953012Y-101490000D01*
X146985925Y-101432993D01*
X147020000Y-101305826D01*
X147020000Y-101174174D01*
X146985925Y-101047007D01*
X146953012Y-100990000D01*
X147870000Y-100990000D01*
X147870000Y-100342172D01*
X147869999Y-100342155D01*
X147863598Y-100282627D01*
X147863596Y-100282620D01*
X147813354Y-100147913D01*
X147813350Y-100147906D01*
X147727190Y-100032812D01*
X147727187Y-100032809D01*
X147612093Y-99946649D01*
X147612088Y-99946646D01*
X147480528Y-99897577D01*
X147424595Y-99855705D01*
X147400178Y-99790241D01*
X147415030Y-99721968D01*
X147436175Y-99693720D01*
X147550104Y-99579792D01*
X147574182Y-99546652D01*
X147675048Y-99407820D01*
X147675047Y-99407820D01*
X147675051Y-99407816D01*
X147771557Y-99218412D01*
X147837246Y-99016243D01*
X147870500Y-98806287D01*
X147870500Y-98593713D01*
X147837246Y-98383757D01*
X147789176Y-98235816D01*
X147787182Y-98165977D01*
X147823262Y-98106144D01*
X147885963Y-98075316D01*
X147907108Y-98073500D01*
X153265500Y-98073500D01*
X153332539Y-98093185D01*
X153378294Y-98145989D01*
X153389500Y-98197500D01*
X153389500Y-98647870D01*
X153389501Y-98647876D01*
X153395908Y-98707483D01*
X153446202Y-98842328D01*
X153446206Y-98842335D01*
X153532452Y-98957544D01*
X153532455Y-98957547D01*
X153647664Y-99043793D01*
X153647671Y-99043797D01*
X153689999Y-99059584D01*
X153782517Y-99094091D01*
X153842127Y-99100500D01*
X154337872Y-99100499D01*
X154397483Y-99094091D01*
X154446665Y-99075746D01*
X154464943Y-99074439D01*
X154482165Y-99068176D01*
X154505084Y-99071567D01*
X154516355Y-99070761D01*
X154517347Y-99070981D01*
X154525498Y-99072824D01*
X154582517Y-99094091D01*
X154642127Y-99100500D01*
X154647891Y-99100499D01*
X154659917Y-99103219D01*
X154681624Y-99115303D01*
X154705052Y-99123557D01*
X154720250Y-99136485D01*
X154726181Y-99142416D01*
X154759666Y-99203739D01*
X154762500Y-99230097D01*
X154762500Y-99893830D01*
X154762499Y-99893848D01*
X154762499Y-100059554D01*
X154762498Y-100059554D01*
X154803423Y-100212285D01*
X154816249Y-100234500D01*
X154882477Y-100349212D01*
X154882481Y-100349217D01*
X155001349Y-100468085D01*
X155001355Y-100468090D01*
X158108181Y-103574916D01*
X158141666Y-103636239D01*
X158144500Y-103662597D01*
X158144500Y-104475227D01*
X158154604Y-104551966D01*
X158159313Y-104587736D01*
X158217302Y-104727733D01*
X158309549Y-104847951D01*
X158429767Y-104940198D01*
X158569764Y-104998187D01*
X158682280Y-105013000D01*
X158682287Y-105013000D01*
X159207713Y-105013000D01*
X159207720Y-105013000D01*
X159320236Y-104998187D01*
X159460233Y-104940198D01*
X159504514Y-104906220D01*
X159569683Y-104881026D01*
X159636397Y-104894163D01*
X159646491Y-104899318D01*
X159699767Y-104940198D01*
X159839764Y-104998187D01*
X159840204Y-104998244D01*
X159845875Y-105001141D01*
X159852524Y-105007432D01*
X159877159Y-105023893D01*
X159957140Y-105103874D01*
X159957161Y-105103897D01*
X159991083Y-105137819D01*
X160024568Y-105199142D01*
X160019584Y-105268834D01*
X159977712Y-105324767D01*
X159912248Y-105349184D01*
X159903402Y-105349500D01*
X142824500Y-105349500D01*
X142757461Y-105329815D01*
X142711706Y-105277011D01*
X142700500Y-105225500D01*
X142700500Y-103457648D01*
X149459500Y-103457648D01*
X149459500Y-103662351D01*
X149491522Y-103864534D01*
X149554781Y-104059223D01*
X149607164Y-104162028D01*
X149646800Y-104239819D01*
X149647715Y-104241613D01*
X149768028Y-104407213D01*
X149912786Y-104551971D01*
X150067749Y-104664556D01*
X150078390Y-104672287D01*
X150187201Y-104727729D01*
X150260776Y-104765218D01*
X150260778Y-104765218D01*
X150260781Y-104765220D01*
X150365137Y-104799127D01*
X150455465Y-104828477D01*
X150556557Y-104844488D01*
X150657648Y-104860500D01*
X150657649Y-104860500D01*
X150862351Y-104860500D01*
X150862352Y-104860500D01*
X151064534Y-104828477D01*
X151259219Y-104765220D01*
X151441610Y-104672287D01*
X151534590Y-104604732D01*
X151607213Y-104551971D01*
X151607215Y-104551968D01*
X151607219Y-104551966D01*
X151751966Y-104407219D01*
X151751968Y-104407215D01*
X151751971Y-104407213D01*
X151844137Y-104280355D01*
X151872287Y-104241610D01*
X151965220Y-104059219D01*
X152028477Y-103864534D01*
X152060500Y-103662352D01*
X152060500Y-103457648D01*
X152028477Y-103255466D01*
X152015062Y-103214180D01*
X151965218Y-103060776D01*
X151911918Y-102956170D01*
X151872287Y-102878390D01*
X151840217Y-102834249D01*
X151751971Y-102712786D01*
X151607213Y-102568028D01*
X151441613Y-102447715D01*
X151441612Y-102447714D01*
X151441610Y-102447713D01*
X151384653Y-102418691D01*
X151259223Y-102354781D01*
X151064534Y-102291522D01*
X150889995Y-102263878D01*
X150862352Y-102259500D01*
X150657648Y-102259500D01*
X150633329Y-102263351D01*
X150455465Y-102291522D01*
X150260776Y-102354781D01*
X150078386Y-102447715D01*
X149912786Y-102568028D01*
X149768028Y-102712786D01*
X149647715Y-102878386D01*
X149554781Y-103060776D01*
X149491522Y-103255465D01*
X149459500Y-103457648D01*
X142700500Y-103457648D01*
X142700500Y-86287648D01*
X149429500Y-86287648D01*
X149429500Y-86492351D01*
X149461522Y-86694534D01*
X149524781Y-86889223D01*
X149617715Y-87071613D01*
X149738028Y-87237213D01*
X149882786Y-87381971D01*
X150037749Y-87494556D01*
X150048390Y-87502287D01*
X150163226Y-87560799D01*
X150230776Y-87595218D01*
X150230778Y-87595218D01*
X150230781Y-87595220D01*
X150335137Y-87629127D01*
X150425465Y-87658477D01*
X150436426Y-87660213D01*
X150627648Y-87690500D01*
X150627649Y-87690500D01*
X150832351Y-87690500D01*
X150832352Y-87690500D01*
X151034534Y-87658477D01*
X151229219Y-87595220D01*
X151411610Y-87502287D01*
X151536119Y-87411827D01*
X151577213Y-87381971D01*
X151577215Y-87381968D01*
X151577219Y-87381966D01*
X151721966Y-87237219D01*
X151721968Y-87237215D01*
X151721971Y-87237213D01*
X151794879Y-87136862D01*
X151842287Y-87071610D01*
X151935220Y-86889219D01*
X151998477Y-86694534D01*
X152030500Y-86492352D01*
X152030500Y-86287648D01*
X151998477Y-86085466D01*
X151935220Y-85890781D01*
X151935218Y-85890778D01*
X151935218Y-85890776D01*
X151869729Y-85762248D01*
X151842287Y-85708390D01*
X151842286Y-85708388D01*
X151821671Y-85680013D01*
X153070000Y-85680013D01*
X153070000Y-85930000D01*
X153895000Y-85930000D01*
X153895000Y-84980000D01*
X153770027Y-84980000D01*
X153770012Y-84980001D01*
X153667302Y-84990494D01*
X153500880Y-85045641D01*
X153500875Y-85045643D01*
X153351654Y-85137684D01*
X153227684Y-85261654D01*
X153135643Y-85410875D01*
X153135641Y-85410880D01*
X153080494Y-85577302D01*
X153080493Y-85577309D01*
X153070000Y-85680013D01*
X151821671Y-85680013D01*
X151721971Y-85542786D01*
X151577213Y-85398028D01*
X151411613Y-85277715D01*
X151411612Y-85277714D01*
X151411610Y-85277713D01*
X151335810Y-85239091D01*
X151229223Y-85184781D01*
X151034534Y-85121522D01*
X150859995Y-85093878D01*
X150832352Y-85089500D01*
X150627648Y-85089500D01*
X150603329Y-85093351D01*
X150425465Y-85121522D01*
X150230776Y-85184781D01*
X150048386Y-85277715D01*
X149882786Y-85398028D01*
X149738028Y-85542786D01*
X149617715Y-85708386D01*
X149524781Y-85890776D01*
X149461522Y-86085465D01*
X149429500Y-86287648D01*
X142700500Y-86287648D01*
X142700500Y-84424500D01*
X142720185Y-84357461D01*
X142772989Y-84311706D01*
X142824500Y-84300500D01*
X158250898Y-84300500D01*
X158317937Y-84320185D01*
G37*
%TD.AperFunction*%
%TA.AperFunction,Conductor*%
G36*
X179618834Y-94338499D02*
G01*
X179674767Y-94380371D01*
X179699184Y-94445835D01*
X179699500Y-94454681D01*
X179699500Y-96255319D01*
X179679815Y-96322358D01*
X179627011Y-96368113D01*
X179557853Y-96378057D01*
X179494297Y-96349032D01*
X179487819Y-96343000D01*
X179382084Y-96237265D01*
X179303482Y-96174582D01*
X179171289Y-96069162D01*
X178942997Y-95925716D01*
X178942994Y-95925714D01*
X178700082Y-95808734D01*
X178445602Y-95719687D01*
X178445594Y-95719684D01*
X178248446Y-95674687D01*
X178182732Y-95659688D01*
X178182728Y-95659687D01*
X178182719Y-95659686D01*
X177914813Y-95629500D01*
X177914809Y-95629500D01*
X177645191Y-95629500D01*
X177645186Y-95629500D01*
X177377280Y-95659686D01*
X177377268Y-95659688D01*
X177114405Y-95719684D01*
X177114397Y-95719687D01*
X176859917Y-95808734D01*
X176617005Y-95925714D01*
X176388712Y-96069161D01*
X176177915Y-96237265D01*
X175987265Y-96427915D01*
X175819161Y-96638712D01*
X175675714Y-96867005D01*
X175558734Y-97109917D01*
X175469687Y-97364397D01*
X175469684Y-97364405D01*
X175409688Y-97627268D01*
X175409686Y-97627280D01*
X175379500Y-97895186D01*
X175379500Y-98164813D01*
X175409686Y-98432719D01*
X175409687Y-98432728D01*
X175409688Y-98432732D01*
X175411611Y-98441158D01*
X175469684Y-98695594D01*
X175469687Y-98695602D01*
X175558734Y-98950082D01*
X175675714Y-99192994D01*
X175675716Y-99192997D01*
X175819162Y-99421289D01*
X175987266Y-99632085D01*
X176177915Y-99822734D01*
X176388711Y-99990838D01*
X176617003Y-100134284D01*
X176859921Y-100251267D01*
X177043114Y-100315369D01*
X177114397Y-100340312D01*
X177114405Y-100340315D01*
X177114408Y-100340315D01*
X177114409Y-100340316D01*
X177377268Y-100400312D01*
X177645187Y-100430499D01*
X177645188Y-100430500D01*
X177645191Y-100430500D01*
X177914812Y-100430500D01*
X177914812Y-100430499D01*
X178182732Y-100400312D01*
X178445591Y-100340316D01*
X178700079Y-100251267D01*
X178942997Y-100134284D01*
X179171289Y-99990838D01*
X179382085Y-99822734D01*
X179487819Y-99717000D01*
X179549142Y-99683515D01*
X179618834Y-99688499D01*
X179674767Y-99730371D01*
X179699184Y-99795835D01*
X179699500Y-99804681D01*
X179699500Y-105225500D01*
X179679815Y-105292539D01*
X179627011Y-105338294D01*
X179575500Y-105349500D01*
X163645768Y-105349500D01*
X163624522Y-105343261D01*
X163602439Y-105341683D01*
X163591654Y-105333610D01*
X163578729Y-105329815D01*
X163564230Y-105313082D01*
X163546504Y-105299814D01*
X163541795Y-105287191D01*
X163532974Y-105277011D01*
X163529823Y-105255097D01*
X163522084Y-105234351D01*
X163524947Y-105221186D01*
X163523030Y-105207853D01*
X163532228Y-105187711D01*
X163536934Y-105166077D01*
X163550204Y-105148349D01*
X163552055Y-105144297D01*
X163558069Y-105137836D01*
X163587690Y-105108216D01*
X163587691Y-105108213D01*
X164453618Y-104242286D01*
X164514939Y-104208803D01*
X164584631Y-104213787D01*
X164592809Y-104217175D01*
X164697580Y-104265023D01*
X164697583Y-104265023D01*
X164697584Y-104265024D01*
X164840000Y-104285500D01*
X164840003Y-104285500D01*
X166340000Y-104285500D01*
X166411940Y-104280355D01*
X166549992Y-104239819D01*
X166671032Y-104162031D01*
X166765254Y-104053294D01*
X166825024Y-103922416D01*
X166845500Y-103780000D01*
X166845500Y-103214174D01*
X166833916Y-103126185D01*
X166844681Y-103057150D01*
X166891061Y-103004894D01*
X166956855Y-102986000D01*
X167773145Y-102986000D01*
X167840184Y-103005685D01*
X167885939Y-103058489D01*
X167896084Y-103126186D01*
X167884500Y-103214166D01*
X167884500Y-103780002D01*
X167889644Y-103851940D01*
X167930182Y-103989994D01*
X168007967Y-104111030D01*
X168007971Y-104111034D01*
X168075959Y-104169946D01*
X168116706Y-104205254D01*
X168157174Y-104223735D01*
X168247580Y-104265023D01*
X168247583Y-104265023D01*
X168247584Y-104265024D01*
X168390000Y-104285500D01*
X168390003Y-104285500D01*
X169890000Y-104285500D01*
X169961940Y-104280355D01*
X170099992Y-104239819D01*
X170221032Y-104162031D01*
X170315254Y-104053294D01*
X170375024Y-103922416D01*
X170395500Y-103780000D01*
X170395500Y-103214174D01*
X170383916Y-103126185D01*
X170394681Y-103057150D01*
X170441061Y-103004894D01*
X170506855Y-102986000D01*
X171323145Y-102986000D01*
X171390184Y-103005685D01*
X171435939Y-103058489D01*
X171446084Y-103126186D01*
X171434500Y-103214166D01*
X171434500Y-103780002D01*
X171439644Y-103851940D01*
X171480182Y-103989994D01*
X171557967Y-104111030D01*
X171557971Y-104111034D01*
X171625959Y-104169946D01*
X171666706Y-104205254D01*
X171707174Y-104223735D01*
X171797580Y-104265023D01*
X171797583Y-104265023D01*
X171797584Y-104265024D01*
X171940000Y-104285500D01*
X171940003Y-104285500D01*
X173440000Y-104285500D01*
X173511940Y-104280355D01*
X173649992Y-104239819D01*
X173771032Y-104162031D01*
X173865254Y-104053294D01*
X173925024Y-103922416D01*
X173945500Y-103780000D01*
X173945500Y-103214174D01*
X173928275Y-103083338D01*
X173894200Y-102956171D01*
X173843701Y-102834257D01*
X173843698Y-102834252D01*
X173843697Y-102834249D01*
X173843696Y-102834248D01*
X173777879Y-102720250D01*
X173777875Y-102720243D01*
X173772149Y-102712781D01*
X173697544Y-102615555D01*
X173697541Y-102615551D01*
X173604449Y-102522459D01*
X173604444Y-102522455D01*
X173499767Y-102442132D01*
X173499749Y-102442120D01*
X173385751Y-102376303D01*
X173385750Y-102376302D01*
X173333794Y-102354781D01*
X173263829Y-102325800D01*
X173136662Y-102291725D01*
X173136661Y-102291724D01*
X173136658Y-102291724D01*
X173005833Y-102274500D01*
X173005826Y-102274500D01*
X172585097Y-102274500D01*
X172518058Y-102254815D01*
X172497416Y-102238181D01*
X172283090Y-102023855D01*
X172283088Y-102023852D01*
X172164217Y-101904981D01*
X172164216Y-101904980D01*
X172071211Y-101851284D01*
X172027285Y-101825923D01*
X171874557Y-101784999D01*
X171716443Y-101784999D01*
X171708847Y-101784999D01*
X171708831Y-101785000D01*
X168023597Y-101785000D01*
X167956558Y-101765315D01*
X167910803Y-101712511D01*
X167900859Y-101643353D01*
X167929884Y-101579797D01*
X167935907Y-101573326D01*
X168183509Y-101325724D01*
X168183514Y-101325721D01*
X168193714Y-101315520D01*
X168193716Y-101315520D01*
X168305520Y-101203716D01*
X168362668Y-101104732D01*
X168384577Y-101066785D01*
X168425500Y-100914058D01*
X168425500Y-100755943D01*
X168425500Y-99764017D01*
X171520500Y-99764017D01*
X171520500Y-99955982D01*
X171550527Y-100145567D01*
X171609846Y-100328130D01*
X171696992Y-100499160D01*
X171809811Y-100654444D01*
X171809815Y-100654449D01*
X171945550Y-100790184D01*
X171945555Y-100790188D01*
X172013980Y-100839901D01*
X172100843Y-100903010D01*
X172209821Y-100958537D01*
X172271869Y-100990153D01*
X172271871Y-100990153D01*
X172271874Y-100990155D01*
X172369730Y-101021950D01*
X172454432Y-101049472D01*
X172644018Y-101079500D01*
X172644023Y-101079500D01*
X172835982Y-101079500D01*
X173025567Y-101049472D01*
X173033153Y-101047007D01*
X173208126Y-100990155D01*
X173379157Y-100903010D01*
X173534451Y-100790183D01*
X173670183Y-100654451D01*
X173783010Y-100499157D01*
X173870155Y-100328126D01*
X173929472Y-100145567D01*
X173938560Y-100088186D01*
X173959500Y-99955982D01*
X173959500Y-99764017D01*
X173929472Y-99574432D01*
X173896555Y-99473125D01*
X173870155Y-99391874D01*
X173870153Y-99391871D01*
X173870153Y-99391869D01*
X173838537Y-99329821D01*
X173783010Y-99220843D01*
X173712328Y-99123557D01*
X173670188Y-99065555D01*
X173670184Y-99065550D01*
X173534449Y-98929815D01*
X173534444Y-98929811D01*
X173379160Y-98816992D01*
X173379159Y-98816991D01*
X173379157Y-98816990D01*
X173318057Y-98785858D01*
X173208130Y-98729846D01*
X173025567Y-98670527D01*
X172835982Y-98640500D01*
X172835977Y-98640500D01*
X172644023Y-98640500D01*
X172644018Y-98640500D01*
X172454432Y-98670527D01*
X172271869Y-98729846D01*
X172100839Y-98816992D01*
X171945555Y-98929811D01*
X171945550Y-98929815D01*
X171809815Y-99065550D01*
X171809811Y-99065555D01*
X171696992Y-99220839D01*
X171609846Y-99391869D01*
X171550527Y-99574432D01*
X171520500Y-99764017D01*
X168425500Y-99764017D01*
X168425500Y-96555808D01*
X168445185Y-96488769D01*
X168461820Y-96468126D01*
X168493076Y-96436870D01*
X168493081Y-96436865D01*
X168576744Y-96295398D01*
X168622598Y-96137569D01*
X168625500Y-96100694D01*
X168625500Y-95884500D01*
X168645185Y-95817461D01*
X168697989Y-95771706D01*
X168749500Y-95760500D01*
X175213331Y-95760500D01*
X175213347Y-95760501D01*
X175220943Y-95760501D01*
X175379054Y-95760501D01*
X175379057Y-95760501D01*
X175531785Y-95719577D01*
X175589136Y-95686465D01*
X175668716Y-95640520D01*
X175780520Y-95528716D01*
X175780520Y-95528714D01*
X175790724Y-95518511D01*
X175790727Y-95518506D01*
X176492660Y-94816574D01*
X176553981Y-94783091D01*
X176623673Y-94788075D01*
X176634137Y-94792535D01*
X176859921Y-94901267D01*
X177031906Y-94961447D01*
X177114397Y-94990312D01*
X177114405Y-94990315D01*
X177114408Y-94990315D01*
X177114409Y-94990316D01*
X177377268Y-95050312D01*
X177645187Y-95080499D01*
X177645188Y-95080500D01*
X177645191Y-95080500D01*
X177914812Y-95080500D01*
X177914812Y-95080499D01*
X178182732Y-95050312D01*
X178445591Y-94990316D01*
X178700079Y-94901267D01*
X178942997Y-94784284D01*
X179171289Y-94640838D01*
X179382085Y-94472734D01*
X179487819Y-94367000D01*
X179549142Y-94333515D01*
X179618834Y-94338499D01*
G37*
%TD.AperFunction*%
%TA.AperFunction,Conductor*%
G36*
X179642539Y-84320185D02*
G01*
X179688294Y-84372989D01*
X179699500Y-84424500D01*
X179699500Y-85555319D01*
X179679815Y-85622358D01*
X179627011Y-85668113D01*
X179557853Y-85678057D01*
X179494297Y-85649032D01*
X179487819Y-85643000D01*
X179382084Y-85537265D01*
X179274723Y-85451648D01*
X179171289Y-85369162D01*
X178942997Y-85225716D01*
X178942994Y-85225714D01*
X178700082Y-85108734D01*
X178445602Y-85019687D01*
X178445594Y-85019684D01*
X178248446Y-84974687D01*
X178182732Y-84959688D01*
X178182728Y-84959687D01*
X178182719Y-84959686D01*
X177914813Y-84929500D01*
X177914809Y-84929500D01*
X177645191Y-84929500D01*
X177645186Y-84929500D01*
X177377280Y-84959686D01*
X177377268Y-84959688D01*
X177114405Y-85019684D01*
X177114397Y-85019687D01*
X176859917Y-85108734D01*
X176617005Y-85225714D01*
X176388712Y-85369161D01*
X176177915Y-85537265D01*
X175987265Y-85727915D01*
X175819161Y-85938712D01*
X175675714Y-86167005D01*
X175558734Y-86409917D01*
X175469687Y-86664397D01*
X175469684Y-86664405D01*
X175409688Y-86927268D01*
X175409686Y-86927280D01*
X175379500Y-87195186D01*
X175379500Y-87464813D01*
X175409686Y-87732719D01*
X175409688Y-87732731D01*
X175469684Y-87995594D01*
X175469687Y-87995602D01*
X175558734Y-88250082D01*
X175667462Y-88475857D01*
X175671258Y-88498914D01*
X175679426Y-88520811D01*
X175676829Y-88532747D01*
X175678814Y-88544799D01*
X175669542Y-88566249D01*
X175664575Y-88589084D01*
X175652970Y-88604586D01*
X175651092Y-88608933D01*
X175643425Y-88617339D01*
X175611286Y-88649478D01*
X175499481Y-88761282D01*
X175499475Y-88761290D01*
X175458882Y-88831601D01*
X175458882Y-88831603D01*
X175420423Y-88898214D01*
X175420423Y-88898215D01*
X175379499Y-89050943D01*
X175379499Y-89050945D01*
X175379499Y-89219046D01*
X175379500Y-89219059D01*
X175379500Y-90539903D01*
X175359815Y-90606942D01*
X175343181Y-90627584D01*
X174817584Y-91153181D01*
X174756261Y-91186666D01*
X174729903Y-91189500D01*
X173069744Y-91189500D01*
X173002705Y-91169815D01*
X172956950Y-91117011D01*
X172947006Y-91047853D01*
X172976031Y-90984297D01*
X173031425Y-90947569D01*
X173093485Y-90927403D01*
X173208126Y-90890155D01*
X173379157Y-90803010D01*
X173534451Y-90690183D01*
X173670183Y-90554451D01*
X173783010Y-90399157D01*
X173870155Y-90228126D01*
X173929472Y-90045567D01*
X173948576Y-89924949D01*
X173959500Y-89855982D01*
X173959500Y-89664017D01*
X173929472Y-89474432D01*
X173889757Y-89352203D01*
X173870155Y-89291874D01*
X173870153Y-89291871D01*
X173870153Y-89291869D01*
X173816148Y-89185880D01*
X173783010Y-89120843D01*
X173764841Y-89095835D01*
X173670188Y-88965555D01*
X173670184Y-88965550D01*
X173534449Y-88829815D01*
X173534444Y-88829811D01*
X173379160Y-88716992D01*
X173379159Y-88716991D01*
X173379157Y-88716990D01*
X173311092Y-88682309D01*
X173208130Y-88629846D01*
X173025567Y-88570527D01*
X172835982Y-88540500D01*
X172835977Y-88540500D01*
X172644023Y-88540500D01*
X172644018Y-88540500D01*
X172454432Y-88570527D01*
X172271869Y-88629846D01*
X172100839Y-88716992D01*
X171945555Y-88829811D01*
X171945550Y-88829815D01*
X171809815Y-88965550D01*
X171809811Y-88965555D01*
X171696992Y-89120839D01*
X171609846Y-89291869D01*
X171550527Y-89474432D01*
X171520500Y-89664017D01*
X171520500Y-89855982D01*
X171548118Y-90030357D01*
X171539163Y-90099651D01*
X171513326Y-90137436D01*
X170824584Y-90826181D01*
X170763261Y-90859666D01*
X170736903Y-90862500D01*
X168851223Y-90862500D01*
X168851207Y-90862499D01*
X168843611Y-90862499D01*
X168685496Y-90862499D01*
X168609132Y-90882961D01*
X168532767Y-90903423D01*
X168532762Y-90903426D01*
X168395843Y-90982475D01*
X168395835Y-90982481D01*
X166325137Y-93053181D01*
X166263814Y-93086666D01*
X166237456Y-93089500D01*
X165650941Y-93089500D01*
X165610020Y-93100464D01*
X165610020Y-93100465D01*
X165572752Y-93110451D01*
X165498215Y-93130423D01*
X165498210Y-93130426D01*
X165361291Y-93209475D01*
X165361283Y-93209481D01*
X164916286Y-93654479D01*
X164916266Y-93654499D01*
X164914062Y-93656702D01*
X164881176Y-93679048D01*
X164881316Y-93679285D01*
X164877551Y-93681511D01*
X164875658Y-93682798D01*
X164874605Y-93683253D01*
X164733140Y-93766915D01*
X164726974Y-93771699D01*
X164725174Y-93769379D01*
X164675913Y-93796230D01*
X164606225Y-93791193D01*
X164573992Y-93770461D01*
X164572722Y-93772100D01*
X164566552Y-93767314D01*
X164425196Y-93683717D01*
X164425193Y-93683716D01*
X164267494Y-93637900D01*
X164267497Y-93637900D01*
X164265000Y-93637703D01*
X164265000Y-96682295D01*
X164265001Y-96682295D01*
X164267486Y-96682100D01*
X164425198Y-96636281D01*
X164552722Y-96560864D01*
X164620446Y-96543681D01*
X164686708Y-96565841D01*
X164718945Y-96598705D01*
X164740885Y-96631540D01*
X164740888Y-96631544D01*
X164838454Y-96729110D01*
X164838458Y-96729113D01*
X164953182Y-96805770D01*
X164953195Y-96805777D01*
X165041827Y-96842489D01*
X165080672Y-96858579D01*
X165080676Y-96858579D01*
X165080677Y-96858580D01*
X165216004Y-96885499D01*
X165216007Y-96885499D01*
X165353995Y-96885499D01*
X165446978Y-96867003D01*
X165489328Y-96858579D01*
X165616811Y-96805774D01*
X165635550Y-96793252D01*
X165702222Y-96772374D01*
X165769603Y-96790856D01*
X165792121Y-96808673D01*
X165926192Y-96942744D01*
X165926194Y-96942745D01*
X165926198Y-96942748D01*
X166012338Y-96992480D01*
X166063124Y-97021801D01*
X166215851Y-97062725D01*
X166215853Y-97062725D01*
X166381562Y-97062725D01*
X166381578Y-97062724D01*
X166446500Y-97062724D01*
X166513539Y-97082409D01*
X166559294Y-97135213D01*
X166570500Y-97186724D01*
X166570500Y-100264007D01*
X166550815Y-100331046D01*
X166534181Y-100351688D01*
X166118188Y-100767681D01*
X166056865Y-100801166D01*
X166030507Y-100804000D01*
X162684848Y-100804000D01*
X162617809Y-100784315D01*
X162581746Y-100748891D01*
X162531371Y-100673500D01*
X162531368Y-100673496D01*
X162419874Y-100562002D01*
X162419870Y-100561999D01*
X162288767Y-100474398D01*
X162288754Y-100474391D01*
X162143083Y-100414053D01*
X162143071Y-100414050D01*
X161988427Y-100383289D01*
X161988424Y-100383289D01*
X161830740Y-100383289D01*
X161830737Y-100383289D01*
X161676092Y-100414050D01*
X161676080Y-100414053D01*
X161530409Y-100474391D01*
X161530396Y-100474398D01*
X161399296Y-100561997D01*
X161399291Y-100562001D01*
X161359111Y-100602181D01*
X161332182Y-100616885D01*
X161306367Y-100633476D01*
X161300165Y-100634367D01*
X161297788Y-100635666D01*
X161271432Y-100638499D01*
X161140444Y-100638499D01*
X161140440Y-100638499D01*
X161132833Y-100638500D01*
X161132832Y-100638499D01*
X161132832Y-100638500D01*
X160939500Y-100638500D01*
X160872461Y-100618815D01*
X160826706Y-100566011D01*
X160815500Y-100514500D01*
X160815500Y-100151337D01*
X160835185Y-100084298D01*
X160887989Y-100038543D01*
X160957147Y-100028599D01*
X160986952Y-100036776D01*
X161109891Y-100087698D01*
X161109895Y-100087699D01*
X161222302Y-100102499D01*
X161222317Y-100102500D01*
X161235000Y-100102500D01*
X161235000Y-97202500D01*
X161735000Y-97202500D01*
X161735000Y-100102500D01*
X161747683Y-100102500D01*
X161747697Y-100102499D01*
X161860104Y-100087699D01*
X161860108Y-100087698D01*
X161999978Y-100029763D01*
X162044103Y-99995905D01*
X162109272Y-99970711D01*
X162177717Y-99984749D01*
X162195077Y-99995906D01*
X162239765Y-100030197D01*
X162239769Y-100030199D01*
X162255648Y-100036776D01*
X162379764Y-100088187D01*
X162486586Y-100102250D01*
X162488474Y-100102499D01*
X162492280Y-100103000D01*
X162492287Y-100103000D01*
X163017713Y-100103000D01*
X163017720Y-100103000D01*
X163130236Y-100088187D01*
X163270233Y-100030198D01*
X163390451Y-99937951D01*
X163482698Y-99817733D01*
X163540687Y-99677736D01*
X163555500Y-99565220D01*
X163555500Y-98785858D01*
X163559390Y-98759639D01*
X163558549Y-98759472D01*
X163590499Y-98598846D01*
X163590500Y-98598844D01*
X163590500Y-98441155D01*
X163558549Y-98280530D01*
X163559388Y-98280362D01*
X163555500Y-98254142D01*
X163555500Y-97739786D01*
X163555499Y-97739772D01*
X163554750Y-97734086D01*
X163540687Y-97627264D01*
X163482698Y-97487267D01*
X163390451Y-97367049D01*
X163270233Y-97274802D01*
X163270229Y-97274800D01*
X163206801Y-97248527D01*
X163130236Y-97216813D01*
X163116171Y-97214961D01*
X163017727Y-97202000D01*
X163017720Y-97202000D01*
X162492280Y-97202000D01*
X162492272Y-97202000D01*
X162379764Y-97216813D01*
X162379763Y-97216813D01*
X162239769Y-97274800D01*
X162239766Y-97274802D01*
X162195076Y-97309094D01*
X162129906Y-97334288D01*
X162061462Y-97320249D01*
X162044104Y-97309094D01*
X161999980Y-97275237D01*
X161999981Y-97275237D01*
X161860108Y-97217301D01*
X161860104Y-97217300D01*
X161747697Y-97202500D01*
X161735000Y-97202500D01*
X161235000Y-97202500D01*
X161222302Y-97202500D01*
X161109895Y-97217300D01*
X161109891Y-97217301D01*
X160970019Y-97275237D01*
X160925894Y-97309095D01*
X160860724Y-97334288D01*
X160792280Y-97320249D01*
X160774924Y-97309095D01*
X160730233Y-97274802D01*
X160730229Y-97274800D01*
X160666801Y-97248527D01*
X160590236Y-97216813D01*
X160576171Y-97214961D01*
X160477727Y-97202000D01*
X160477720Y-97202000D01*
X160315281Y-97202000D01*
X160248242Y-97182315D01*
X160227600Y-97165681D01*
X159936660Y-96874741D01*
X159903175Y-96813418D01*
X159908159Y-96743726D01*
X159940170Y-96696004D01*
X159955000Y-96682295D01*
X160455000Y-96682295D01*
X160455001Y-96682295D01*
X160457486Y-96682100D01*
X160615198Y-96636281D01*
X160756552Y-96552685D01*
X160762722Y-96547900D01*
X160764546Y-96550252D01*
X160813595Y-96523445D01*
X160883288Y-96528402D01*
X160916063Y-96549465D01*
X160917278Y-96547900D01*
X160923447Y-96552685D01*
X161064801Y-96636281D01*
X161222514Y-96682100D01*
X161222511Y-96682100D01*
X161224998Y-96682295D01*
X161225000Y-96682295D01*
X161725000Y-96682295D01*
X161725001Y-96682295D01*
X161727486Y-96682100D01*
X161885198Y-96636281D01*
X162026552Y-96552685D01*
X162032722Y-96547900D01*
X162034546Y-96550252D01*
X162083595Y-96523445D01*
X162153288Y-96528402D01*
X162186063Y-96549465D01*
X162187278Y-96547900D01*
X162193447Y-96552685D01*
X162334801Y-96636281D01*
X162492514Y-96682100D01*
X162492511Y-96682100D01*
X162494998Y-96682295D01*
X162495000Y-96682295D01*
X162995000Y-96682295D01*
X162995001Y-96682295D01*
X162997486Y-96682100D01*
X163155198Y-96636281D01*
X163296552Y-96552685D01*
X163302722Y-96547900D01*
X163304546Y-96550252D01*
X163353595Y-96523445D01*
X163423288Y-96528402D01*
X163456063Y-96549465D01*
X163457278Y-96547900D01*
X163463447Y-96552685D01*
X163604801Y-96636281D01*
X163762514Y-96682100D01*
X163762511Y-96682100D01*
X163764998Y-96682295D01*
X163765000Y-96682295D01*
X163765000Y-95410000D01*
X162995000Y-95410000D01*
X162995000Y-96682295D01*
X162495000Y-96682295D01*
X162495000Y-95410000D01*
X161725000Y-95410000D01*
X161725000Y-96682295D01*
X161225000Y-96682295D01*
X161225000Y-95410000D01*
X160455000Y-95410000D01*
X160455000Y-96682295D01*
X159955000Y-96682295D01*
X159955000Y-95410000D01*
X159059000Y-95410000D01*
X158991961Y-95390315D01*
X158946206Y-95337511D01*
X158935000Y-95286000D01*
X158935000Y-95034000D01*
X158954685Y-94966961D01*
X159007489Y-94921206D01*
X159059000Y-94910000D01*
X159955000Y-94910000D01*
X159955000Y-93637703D01*
X160455000Y-93637703D01*
X160455000Y-94910000D01*
X161225000Y-94910000D01*
X161225000Y-93637703D01*
X161725000Y-93637703D01*
X161725000Y-94910000D01*
X162495000Y-94910000D01*
X162495000Y-93637703D01*
X162995000Y-93637703D01*
X162995000Y-94910000D01*
X163765000Y-94910000D01*
X163765000Y-93637703D01*
X163762503Y-93637900D01*
X163604806Y-93683716D01*
X163604803Y-93683717D01*
X163463447Y-93767314D01*
X163457278Y-93772100D01*
X163455457Y-93769753D01*
X163406358Y-93796564D01*
X163336666Y-93791580D01*
X163303930Y-93770541D01*
X163302722Y-93772100D01*
X163296552Y-93767314D01*
X163155196Y-93683717D01*
X163155193Y-93683716D01*
X162997494Y-93637900D01*
X162997497Y-93637900D01*
X162995000Y-93637703D01*
X162495000Y-93637703D01*
X162492503Y-93637900D01*
X162334806Y-93683716D01*
X162334803Y-93683717D01*
X162193447Y-93767314D01*
X162187278Y-93772100D01*
X162185457Y-93769753D01*
X162136358Y-93796564D01*
X162066666Y-93791580D01*
X162033930Y-93770541D01*
X162032722Y-93772100D01*
X162026552Y-93767314D01*
X161885196Y-93683717D01*
X161885193Y-93683716D01*
X161727494Y-93637900D01*
X161727497Y-93637900D01*
X161725000Y-93637703D01*
X161225000Y-93637703D01*
X161222503Y-93637900D01*
X161064806Y-93683716D01*
X161064803Y-93683717D01*
X160923447Y-93767314D01*
X160917278Y-93772100D01*
X160915457Y-93769753D01*
X160866358Y-93796564D01*
X160796666Y-93791580D01*
X160763930Y-93770541D01*
X160762722Y-93772100D01*
X160756552Y-93767314D01*
X160615196Y-93683717D01*
X160615193Y-93683716D01*
X160457494Y-93637900D01*
X160457497Y-93637900D01*
X160455000Y-93637703D01*
X159955000Y-93637703D01*
X159952503Y-93637900D01*
X159794806Y-93683716D01*
X159794799Y-93683719D01*
X159703589Y-93737660D01*
X159635865Y-93754843D01*
X159569603Y-93732683D01*
X159525840Y-93678216D01*
X159518471Y-93608736D01*
X159549835Y-93546302D01*
X159552746Y-93543290D01*
X160730658Y-92365377D01*
X160734725Y-92361492D01*
X164190445Y-89209057D01*
X164712421Y-88732891D01*
X164775215Y-88702253D01*
X164795990Y-88700500D01*
X171201833Y-88700500D01*
X171270177Y-88702929D01*
X171280728Y-88700500D01*
X171291557Y-88700500D01*
X171355483Y-88683369D01*
X171359734Y-88682310D01*
X171424262Y-88667457D01*
X171433826Y-88662379D01*
X171444284Y-88659577D01*
X171503501Y-88625387D01*
X171563915Y-88593314D01*
X171571839Y-88585933D01*
X171581216Y-88580520D01*
X171629576Y-88532159D01*
X171679620Y-88485551D01*
X171685362Y-88476373D01*
X171693020Y-88468716D01*
X171727215Y-88409486D01*
X171763491Y-88351514D01*
X171766663Y-88341160D01*
X171772077Y-88331784D01*
X171789775Y-88265730D01*
X172116201Y-87200406D01*
X172154661Y-87142078D01*
X172204003Y-87117843D01*
X172203825Y-87117304D01*
X172207754Y-87116001D01*
X172208813Y-87115482D01*
X172210244Y-87115174D01*
X172210253Y-87115174D01*
X172374016Y-87060908D01*
X172520850Y-86970340D01*
X172642840Y-86848350D01*
X172733408Y-86701516D01*
X172787674Y-86537753D01*
X172798000Y-86436677D01*
X172797999Y-85863324D01*
X172797659Y-85860000D01*
X172787674Y-85762247D01*
X172769827Y-85708390D01*
X172733408Y-85598484D01*
X172642840Y-85451650D01*
X172520850Y-85329660D01*
X172410603Y-85261659D01*
X172374018Y-85239093D01*
X172374013Y-85239091D01*
X172333644Y-85225714D01*
X172210253Y-85184826D01*
X172210251Y-85184825D01*
X172109178Y-85174500D01*
X171510830Y-85174500D01*
X171510812Y-85174501D01*
X171409747Y-85184825D01*
X171245984Y-85239092D01*
X171245981Y-85239093D01*
X171099148Y-85329661D01*
X170985181Y-85443629D01*
X170923858Y-85477114D01*
X170854166Y-85472130D01*
X170809819Y-85443629D01*
X170695851Y-85329661D01*
X170695850Y-85329660D01*
X170585603Y-85261659D01*
X170549018Y-85239093D01*
X170549013Y-85239091D01*
X170508644Y-85225714D01*
X170385253Y-85184826D01*
X170385251Y-85184825D01*
X170284178Y-85174500D01*
X169685830Y-85174500D01*
X169685812Y-85174501D01*
X169584747Y-85184825D01*
X169420984Y-85239092D01*
X169420981Y-85239093D01*
X169274148Y-85329661D01*
X169152161Y-85451648D01*
X169061593Y-85598481D01*
X169061592Y-85598484D01*
X169007326Y-85762247D01*
X169007326Y-85762248D01*
X169007325Y-85762248D01*
X168997000Y-85863315D01*
X168997000Y-86436669D01*
X168997001Y-86436687D01*
X169007325Y-86537752D01*
X169043609Y-86647249D01*
X169059278Y-86694534D01*
X169061592Y-86701515D01*
X169061593Y-86701518D01*
X169095895Y-86757129D01*
X169152160Y-86848350D01*
X169274150Y-86970340D01*
X169420984Y-87060908D01*
X169584747Y-87115174D01*
X169685823Y-87125500D01*
X170284176Y-87125499D01*
X170284184Y-87125498D01*
X170284187Y-87125498D01*
X170339530Y-87119844D01*
X170385253Y-87115174D01*
X170549016Y-87060908D01*
X170695850Y-86970340D01*
X170695851Y-86970338D01*
X170701997Y-86966548D01*
X170703069Y-86968286D01*
X170758418Y-86945946D01*
X170827062Y-86958976D01*
X170877765Y-87007049D01*
X170894429Y-87074902D01*
X170889112Y-87105678D01*
X170811844Y-87357853D01*
X170804415Y-87382100D01*
X170795306Y-87411827D01*
X170756845Y-87470159D01*
X170692954Y-87498436D01*
X170676747Y-87499500D01*
X168413461Y-87499500D01*
X168346422Y-87479815D01*
X168300667Y-87427011D01*
X168290723Y-87357853D01*
X168319748Y-87294297D01*
X168350340Y-87268768D01*
X168360428Y-87262801D01*
X168376865Y-87253081D01*
X168493081Y-87136865D01*
X168576744Y-86995398D01*
X168622598Y-86837569D01*
X168625500Y-86800694D01*
X168625500Y-84919306D01*
X168622598Y-84882431D01*
X168576744Y-84724602D01*
X168493081Y-84583135D01*
X168493079Y-84583133D01*
X168493076Y-84583129D01*
X168422128Y-84512181D01*
X168388643Y-84450858D01*
X168393627Y-84381166D01*
X168435499Y-84325233D01*
X168500963Y-84300816D01*
X168509809Y-84300500D01*
X179575500Y-84300500D01*
X179642539Y-84320185D01*
G37*
%TD.AperFunction*%
%TA.AperFunction,Conductor*%
G36*
X147790315Y-89330149D02*
G01*
X147791577Y-89331394D01*
X151907057Y-93446874D01*
X151940542Y-93508197D01*
X151935558Y-93577889D01*
X151893686Y-93633822D01*
X151857696Y-93652485D01*
X151772066Y-93680308D01*
X151601098Y-93767421D01*
X151572068Y-93788513D01*
X151572068Y-93788514D01*
X152139168Y-94355614D01*
X152060517Y-94376689D01*
X151954484Y-94437908D01*
X151867908Y-94524484D01*
X151806689Y-94630517D01*
X151785614Y-94709168D01*
X151296819Y-94220373D01*
X151263334Y-94159050D01*
X151260500Y-94132692D01*
X151260500Y-94001657D01*
X151260499Y-94001644D01*
X151258137Y-93978521D01*
X151250087Y-93899725D01*
X151195362Y-93734575D01*
X151195358Y-93734569D01*
X151195357Y-93734566D01*
X151104028Y-93586500D01*
X151104025Y-93586496D01*
X150981003Y-93463474D01*
X150980999Y-93463471D01*
X150832933Y-93372142D01*
X150832927Y-93372139D01*
X150832925Y-93372138D01*
X150832922Y-93372137D01*
X150667776Y-93317413D01*
X150565855Y-93307000D01*
X150565848Y-93307000D01*
X149554152Y-93307000D01*
X149554144Y-93307000D01*
X149452223Y-93317413D01*
X149287077Y-93372137D01*
X149287066Y-93372142D01*
X149139000Y-93463471D01*
X149138996Y-93463474D01*
X149015974Y-93586496D01*
X149015971Y-93586500D01*
X148924642Y-93734566D01*
X148924637Y-93734577D01*
X148869913Y-93899723D01*
X148859500Y-94001644D01*
X148859500Y-94588355D01*
X148869913Y-94690276D01*
X148924637Y-94855422D01*
X148924642Y-94855433D01*
X149015971Y-95003499D01*
X149015974Y-95003503D01*
X149138996Y-95126525D01*
X149139000Y-95126528D01*
X149139703Y-95126962D01*
X149140083Y-95127385D01*
X149144664Y-95131007D01*
X149144045Y-95131789D01*
X149186428Y-95178910D01*
X149197649Y-95247872D01*
X149169806Y-95311954D01*
X149144544Y-95333842D01*
X149144664Y-95333993D01*
X149141315Y-95336640D01*
X149139703Y-95338038D01*
X149139000Y-95338471D01*
X149138996Y-95338474D01*
X149015974Y-95461496D01*
X149015971Y-95461500D01*
X148924642Y-95609566D01*
X148924637Y-95609577D01*
X148869913Y-95774723D01*
X148859500Y-95876644D01*
X148859500Y-96421500D01*
X148839815Y-96488539D01*
X148787011Y-96534294D01*
X148735500Y-96545500D01*
X148435724Y-96545500D01*
X148368685Y-96525815D01*
X148322930Y-96473011D01*
X148311724Y-96421500D01*
X148311724Y-94732169D01*
X148311723Y-94732165D01*
X148300499Y-94690276D01*
X148296157Y-94674069D01*
X148270801Y-94579439D01*
X148247924Y-94539815D01*
X148237542Y-94521833D01*
X148237541Y-94521832D01*
X148191745Y-94442510D01*
X148191744Y-94442508D01*
X148079940Y-94330704D01*
X148079939Y-94330703D01*
X148075609Y-94326373D01*
X148075598Y-94326363D01*
X147853757Y-94104522D01*
X147820272Y-94043199D01*
X147823507Y-93978523D01*
X147837246Y-93936243D01*
X147870500Y-93726287D01*
X147870500Y-93513713D01*
X147837246Y-93303757D01*
X147771557Y-93101588D01*
X147675051Y-92912184D01*
X147675049Y-92912181D01*
X147675048Y-92912179D01*
X147550109Y-92740213D01*
X147399786Y-92589890D01*
X147227820Y-92464951D01*
X147225955Y-92464001D01*
X147219054Y-92460485D01*
X147168259Y-92412512D01*
X147151463Y-92344692D01*
X147173999Y-92278556D01*
X147219054Y-92239515D01*
X147227816Y-92235051D01*
X147256335Y-92214331D01*
X147399786Y-92110109D01*
X147399788Y-92110106D01*
X147399792Y-92110104D01*
X147550104Y-91959792D01*
X147550106Y-91959788D01*
X147550109Y-91959786D01*
X147675048Y-91787820D01*
X147675047Y-91787820D01*
X147675051Y-91787816D01*
X147771557Y-91598412D01*
X147837246Y-91396243D01*
X147870500Y-91186287D01*
X147870500Y-90973713D01*
X147837246Y-90763757D01*
X147771557Y-90561588D01*
X147675051Y-90372184D01*
X147675049Y-90372181D01*
X147675048Y-90372179D01*
X147550109Y-90200213D01*
X147399786Y-90049890D01*
X147227820Y-89924951D01*
X147225953Y-89924000D01*
X147219054Y-89920485D01*
X147168259Y-89872512D01*
X147151463Y-89804692D01*
X147173999Y-89738556D01*
X147219054Y-89699515D01*
X147227816Y-89695051D01*
X147303154Y-89640315D01*
X147399786Y-89570109D01*
X147399788Y-89570106D01*
X147399792Y-89570104D01*
X147550104Y-89419792D01*
X147603579Y-89346189D01*
X147658906Y-89303525D01*
X147728519Y-89297544D01*
X147790315Y-89330149D01*
G37*
%TD.AperFunction*%
%TD*%
M02*
