%TF.GenerationSoftware,KiCad,Pcbnew,10.0.3*%
%TF.CreationDate,2026-07-07T12:03:59+05:45*%
%TF.ProjectId,DS3231 RTC Module,44533332-3331-4205-9254-43204d6f6475,rev?*%
%TF.SameCoordinates,Original*%
%TF.FileFunction,Soldermask,Bot*%
%TF.FilePolarity,Negative*%
%FSLAX46Y46*%
G04 Gerber Fmt 4.6, Leading zero omitted, Abs format (unit mm)*
G04 Created by KiCad (PCBNEW 10.0.3) date 2026-07-07 12:03:59*
%MOMM*%
%LPD*%
G01*
G04 APERTURE LIST*
G04 APERTURE END LIST*
G36*
X178150672Y-101516508D02*
G01*
X178390735Y-101580833D01*
X178620349Y-101675942D01*
X178835583Y-101800208D01*
X179032757Y-101951504D01*
X179208496Y-102127243D01*
X179359792Y-102324417D01*
X179484058Y-102539651D01*
X179579167Y-102769265D01*
X179643492Y-103009328D01*
X179675932Y-103255734D01*
X179675932Y-103504266D01*
X179643492Y-103750672D01*
X179579167Y-103990735D01*
X179484058Y-104220349D01*
X179359792Y-104435583D01*
X179208496Y-104632757D01*
X179032757Y-104808496D01*
X178835583Y-104959792D01*
X178620349Y-105084058D01*
X178390735Y-105179167D01*
X178150672Y-105243492D01*
X177904266Y-105275932D01*
X177655734Y-105275932D01*
X177409328Y-105243492D01*
X177169265Y-105179167D01*
X176939651Y-105084058D01*
X176724417Y-104959792D01*
X176527243Y-104808496D01*
X176351504Y-104632757D01*
X176200208Y-104435583D01*
X176075942Y-104220349D01*
X175980833Y-103990735D01*
X175916508Y-103750672D01*
X175884068Y-103504266D01*
X175884068Y-103255734D01*
X175916508Y-103009328D01*
X175980833Y-102769265D01*
X176075942Y-102539651D01*
X176200208Y-102324417D01*
X176351504Y-102127243D01*
X176527243Y-101951504D01*
X176724417Y-101800208D01*
X176939651Y-101675942D01*
X177169265Y-101580833D01*
X177409328Y-101516508D01*
X177655734Y-101484068D01*
X177904266Y-101484068D01*
X178150672Y-101516508D01*
G37*
G36*
X150852687Y-102515056D02*
G01*
X150862918Y-102515056D01*
X150902893Y-102523007D01*
X151005074Y-102539191D01*
X151037943Y-102549870D01*
X151064799Y-102555213D01*
X151102700Y-102570912D01*
X151161741Y-102590096D01*
X151217052Y-102618278D01*
X151254967Y-102633983D01*
X151277742Y-102649201D01*
X151308528Y-102664887D01*
X151392217Y-102725690D01*
X151426113Y-102748339D01*
X151433347Y-102755573D01*
X151441798Y-102761713D01*
X151558286Y-102878201D01*
X151564425Y-102886651D01*
X151571661Y-102893887D01*
X151594312Y-102927787D01*
X151655112Y-103011471D01*
X151670796Y-103042254D01*
X151686017Y-103065033D01*
X151701723Y-103102952D01*
X151729903Y-103158258D01*
X151749084Y-103217292D01*
X151764787Y-103255201D01*
X151770130Y-103282062D01*
X151780808Y-103314925D01*
X151796990Y-103417098D01*
X151804944Y-103457082D01*
X151804944Y-103467313D01*
X151806578Y-103477630D01*
X151806578Y-103642369D01*
X151804944Y-103652685D01*
X151804944Y-103662918D01*
X151796990Y-103702905D01*
X151780808Y-103805074D01*
X151770130Y-103837935D01*
X151764787Y-103864799D01*
X151749083Y-103902711D01*
X151729903Y-103961741D01*
X151701726Y-104017041D01*
X151686017Y-104054967D01*
X151670794Y-104077749D01*
X151655112Y-104108528D01*
X151594320Y-104192200D01*
X151571661Y-104226113D01*
X151564423Y-104233350D01*
X151558286Y-104241798D01*
X151441798Y-104358286D01*
X151433350Y-104364423D01*
X151426113Y-104371661D01*
X151392200Y-104394320D01*
X151308528Y-104455112D01*
X151277749Y-104470794D01*
X151254967Y-104486017D01*
X151217041Y-104501726D01*
X151161741Y-104529903D01*
X151102711Y-104549083D01*
X151064799Y-104564787D01*
X151037935Y-104570130D01*
X151005074Y-104580808D01*
X150902902Y-104596990D01*
X150862918Y-104604944D01*
X150852687Y-104604944D01*
X150842370Y-104606578D01*
X150677630Y-104606578D01*
X150667313Y-104604944D01*
X150657082Y-104604944D01*
X150617098Y-104596990D01*
X150514925Y-104580808D01*
X150482062Y-104570130D01*
X150455201Y-104564787D01*
X150417292Y-104549084D01*
X150358258Y-104529903D01*
X150302952Y-104501723D01*
X150265033Y-104486017D01*
X150242254Y-104470796D01*
X150211471Y-104455112D01*
X150127787Y-104394312D01*
X150093887Y-104371661D01*
X150086651Y-104364425D01*
X150078201Y-104358286D01*
X149961713Y-104241798D01*
X149955573Y-104233347D01*
X149948339Y-104226113D01*
X149925690Y-104192217D01*
X149864887Y-104108528D01*
X149849201Y-104077742D01*
X149833983Y-104054967D01*
X149818278Y-104017052D01*
X149790096Y-103961741D01*
X149770912Y-103902700D01*
X149755213Y-103864799D01*
X149749870Y-103837943D01*
X149739191Y-103805074D01*
X149723008Y-103702895D01*
X149715056Y-103662918D01*
X149715056Y-103652686D01*
X149713422Y-103642369D01*
X149713422Y-103477630D01*
X149715056Y-103467312D01*
X149715056Y-103457082D01*
X149723007Y-103417108D01*
X149739191Y-103314925D01*
X149749871Y-103282054D01*
X149755213Y-103255201D01*
X149770910Y-103217303D01*
X149790096Y-103158258D01*
X149818280Y-103102942D01*
X149833983Y-103065033D01*
X149849199Y-103042260D01*
X149864887Y-103011471D01*
X149925699Y-102927770D01*
X149948339Y-102893887D01*
X149955570Y-102886655D01*
X149961713Y-102878201D01*
X150078201Y-102761713D01*
X150086655Y-102755570D01*
X150093887Y-102748339D01*
X150127770Y-102725699D01*
X150211471Y-102664887D01*
X150242260Y-102649199D01*
X150265033Y-102633983D01*
X150302942Y-102618280D01*
X150358258Y-102590096D01*
X150417303Y-102570910D01*
X150455201Y-102555213D01*
X150482054Y-102549871D01*
X150514925Y-102539191D01*
X150617108Y-102523007D01*
X150657082Y-102515056D01*
X150667313Y-102515056D01*
X150677630Y-102513422D01*
X150842370Y-102513422D01*
X150852687Y-102515056D01*
G37*
G36*
X147370000Y-102090000D02*
G01*
X145670000Y-102090000D01*
X145670000Y-100390000D01*
X147370000Y-100390000D01*
X147370000Y-102090000D01*
G37*
G36*
X172978324Y-99074352D02*
G01*
X173127017Y-99135943D01*
X173260837Y-99225358D01*
X173374642Y-99339163D01*
X173464057Y-99472983D01*
X173525648Y-99621676D01*
X173557047Y-99779528D01*
X173557047Y-99940472D01*
X173525648Y-100098324D01*
X173464057Y-100247017D01*
X173374642Y-100380837D01*
X173260837Y-100494642D01*
X173127017Y-100584057D01*
X172978324Y-100645648D01*
X172820472Y-100677047D01*
X172659528Y-100677047D01*
X172501676Y-100645648D01*
X172352983Y-100584057D01*
X172219163Y-100494642D01*
X172105358Y-100380837D01*
X172015943Y-100247017D01*
X171954352Y-100098324D01*
X171922953Y-99940472D01*
X171922953Y-99779528D01*
X171954352Y-99621676D01*
X172015943Y-99472983D01*
X172105358Y-99339163D01*
X172219163Y-99225358D01*
X172352983Y-99135943D01*
X172501676Y-99074352D01*
X172659528Y-99042953D01*
X172820472Y-99042953D01*
X172978324Y-99074352D01*
G37*
G36*
X178150672Y-96166508D02*
G01*
X178390735Y-96230833D01*
X178620349Y-96325942D01*
X178835583Y-96450208D01*
X179032757Y-96601504D01*
X179208496Y-96777243D01*
X179359792Y-96974417D01*
X179484058Y-97189651D01*
X179579167Y-97419265D01*
X179643492Y-97659328D01*
X179675932Y-97905734D01*
X179675932Y-98154266D01*
X179643492Y-98400672D01*
X179579167Y-98640735D01*
X179484058Y-98870349D01*
X179359792Y-99085583D01*
X179208496Y-99282757D01*
X179032757Y-99458496D01*
X178835583Y-99609792D01*
X178620349Y-99734058D01*
X178390735Y-99829167D01*
X178150672Y-99893492D01*
X177904266Y-99925932D01*
X177655734Y-99925932D01*
X177409328Y-99893492D01*
X177169265Y-99829167D01*
X176939651Y-99734058D01*
X176724417Y-99609792D01*
X176527243Y-99458496D01*
X176351504Y-99282757D01*
X176200208Y-99085583D01*
X176075942Y-98870349D01*
X175980833Y-98640735D01*
X175916508Y-98400672D01*
X175884068Y-98154266D01*
X175884068Y-97905734D01*
X175916508Y-97659328D01*
X175980833Y-97419265D01*
X176075942Y-97189651D01*
X176200208Y-96974417D01*
X176351504Y-96777243D01*
X176527243Y-96601504D01*
X176724417Y-96450208D01*
X176939651Y-96325942D01*
X177169265Y-96230833D01*
X177409328Y-96166508D01*
X177655734Y-96134068D01*
X177904266Y-96134068D01*
X178150672Y-96166508D01*
G37*
G36*
X146766742Y-97886601D02*
G01*
X146920687Y-97950367D01*
X147059234Y-98042941D01*
X147177059Y-98160766D01*
X147269633Y-98299313D01*
X147333399Y-98453258D01*
X147365907Y-98616685D01*
X147365907Y-98783315D01*
X147333399Y-98946742D01*
X147269633Y-99100687D01*
X147177059Y-99239234D01*
X147059234Y-99357059D01*
X146920687Y-99449633D01*
X146766742Y-99513399D01*
X146603315Y-99545907D01*
X146436685Y-99545907D01*
X146273258Y-99513399D01*
X146119313Y-99449633D01*
X145980766Y-99357059D01*
X145862941Y-99239234D01*
X145770367Y-99100687D01*
X145706601Y-98946742D01*
X145674093Y-98783315D01*
X145674093Y-98616685D01*
X145706601Y-98453258D01*
X145770367Y-98299313D01*
X145862941Y-98160766D01*
X145980766Y-98042941D01*
X146119313Y-97950367D01*
X146273258Y-97886601D01*
X146436685Y-97854093D01*
X146603315Y-97854093D01*
X146766742Y-97886601D01*
G37*
G36*
X146766742Y-95346601D02*
G01*
X146920687Y-95410367D01*
X147059234Y-95502941D01*
X147177059Y-95620766D01*
X147269633Y-95759313D01*
X147333399Y-95913258D01*
X147365907Y-96076685D01*
X147365907Y-96243315D01*
X147333399Y-96406742D01*
X147269633Y-96560687D01*
X147177059Y-96699234D01*
X147059234Y-96817059D01*
X146920687Y-96909633D01*
X146766742Y-96973399D01*
X146603315Y-97005907D01*
X146436685Y-97005907D01*
X146273258Y-96973399D01*
X146119313Y-96909633D01*
X145980766Y-96817059D01*
X145862941Y-96699234D01*
X145770367Y-96560687D01*
X145706601Y-96406742D01*
X145674093Y-96243315D01*
X145674093Y-96076685D01*
X145706601Y-95913258D01*
X145770367Y-95759313D01*
X145862941Y-95620766D01*
X145980766Y-95502941D01*
X146119313Y-95410367D01*
X146273258Y-95346601D01*
X146436685Y-95314093D01*
X146603315Y-95314093D01*
X146766742Y-95346601D01*
G37*
G36*
X152478324Y-94024352D02*
G01*
X152627017Y-94085943D01*
X152760837Y-94175358D01*
X152874642Y-94289163D01*
X152964057Y-94422983D01*
X153025648Y-94571676D01*
X153057047Y-94729528D01*
X153057047Y-94890472D01*
X153025648Y-95048324D01*
X152964057Y-95197017D01*
X152874642Y-95330837D01*
X152760837Y-95444642D01*
X152627017Y-95534057D01*
X152478324Y-95595648D01*
X152320472Y-95627047D01*
X152159528Y-95627047D01*
X152001676Y-95595648D01*
X151852983Y-95534057D01*
X151719163Y-95444642D01*
X151605358Y-95330837D01*
X151515943Y-95197017D01*
X151454352Y-95048324D01*
X151422953Y-94890472D01*
X151422953Y-94729528D01*
X151454352Y-94571676D01*
X151515943Y-94422983D01*
X151605358Y-94289163D01*
X151719163Y-94175358D01*
X151852983Y-94085943D01*
X152001676Y-94024352D01*
X152159528Y-93992953D01*
X152320472Y-93992953D01*
X152478324Y-94024352D01*
G37*
G36*
X178150672Y-90816508D02*
G01*
X178390735Y-90880833D01*
X178620349Y-90975942D01*
X178835583Y-91100208D01*
X179032757Y-91251504D01*
X179208496Y-91427243D01*
X179359792Y-91624417D01*
X179484058Y-91839651D01*
X179579167Y-92069265D01*
X179643492Y-92309328D01*
X179675932Y-92555734D01*
X179675932Y-92804266D01*
X179643492Y-93050672D01*
X179579167Y-93290735D01*
X179484058Y-93520349D01*
X179359792Y-93735583D01*
X179208496Y-93932757D01*
X179032757Y-94108496D01*
X178835583Y-94259792D01*
X178620349Y-94384058D01*
X178390735Y-94479167D01*
X178150672Y-94543492D01*
X177904266Y-94575932D01*
X177655734Y-94575932D01*
X177409328Y-94543492D01*
X177169265Y-94479167D01*
X176939651Y-94384058D01*
X176724417Y-94259792D01*
X176527243Y-94108496D01*
X176351504Y-93932757D01*
X176200208Y-93735583D01*
X176075942Y-93520349D01*
X175980833Y-93290735D01*
X175916508Y-93050672D01*
X175884068Y-92804266D01*
X175884068Y-92555734D01*
X175916508Y-92309328D01*
X175980833Y-92069265D01*
X176075942Y-91839651D01*
X176200208Y-91624417D01*
X176351504Y-91427243D01*
X176527243Y-91251504D01*
X176724417Y-91100208D01*
X176939651Y-90975942D01*
X177169265Y-90880833D01*
X177409328Y-90816508D01*
X177655734Y-90784068D01*
X177904266Y-90784068D01*
X178150672Y-90816508D01*
G37*
G36*
X146766742Y-92806601D02*
G01*
X146920687Y-92870367D01*
X147059234Y-92962941D01*
X147177059Y-93080766D01*
X147269633Y-93219313D01*
X147333399Y-93373258D01*
X147365907Y-93536685D01*
X147365907Y-93703315D01*
X147333399Y-93866742D01*
X147269633Y-94020687D01*
X147177059Y-94159234D01*
X147059234Y-94277059D01*
X146920687Y-94369633D01*
X146766742Y-94433399D01*
X146603315Y-94465907D01*
X146436685Y-94465907D01*
X146273258Y-94433399D01*
X146119313Y-94369633D01*
X145980766Y-94277059D01*
X145862941Y-94159234D01*
X145770367Y-94020687D01*
X145706601Y-93866742D01*
X145674093Y-93703315D01*
X145674093Y-93536685D01*
X145706601Y-93373258D01*
X145770367Y-93219313D01*
X145862941Y-93080766D01*
X145980766Y-92962941D01*
X146119313Y-92870367D01*
X146273258Y-92806601D01*
X146436685Y-92774093D01*
X146603315Y-92774093D01*
X146766742Y-92806601D01*
G37*
G36*
X146766742Y-90266601D02*
G01*
X146920687Y-90330367D01*
X147059234Y-90422941D01*
X147177059Y-90540766D01*
X147269633Y-90679313D01*
X147333399Y-90833258D01*
X147365907Y-90996685D01*
X147365907Y-91163315D01*
X147333399Y-91326742D01*
X147269633Y-91480687D01*
X147177059Y-91619234D01*
X147059234Y-91737059D01*
X146920687Y-91829633D01*
X146766742Y-91893399D01*
X146603315Y-91925907D01*
X146436685Y-91925907D01*
X146273258Y-91893399D01*
X146119313Y-91829633D01*
X145980766Y-91737059D01*
X145862941Y-91619234D01*
X145770367Y-91480687D01*
X145706601Y-91326742D01*
X145674093Y-91163315D01*
X145674093Y-90996685D01*
X145706601Y-90833258D01*
X145770367Y-90679313D01*
X145862941Y-90540766D01*
X145980766Y-90422941D01*
X146119313Y-90330367D01*
X146273258Y-90266601D01*
X146436685Y-90234093D01*
X146603315Y-90234093D01*
X146766742Y-90266601D01*
G37*
G36*
X172978324Y-88974352D02*
G01*
X173127017Y-89035943D01*
X173260837Y-89125358D01*
X173374642Y-89239163D01*
X173464057Y-89372983D01*
X173525648Y-89521676D01*
X173557047Y-89679528D01*
X173557047Y-89840472D01*
X173525648Y-89998324D01*
X173464057Y-90147017D01*
X173374642Y-90280837D01*
X173260837Y-90394642D01*
X173127017Y-90484057D01*
X172978324Y-90545648D01*
X172820472Y-90577047D01*
X172659528Y-90577047D01*
X172501676Y-90545648D01*
X172352983Y-90484057D01*
X172219163Y-90394642D01*
X172105358Y-90280837D01*
X172015943Y-90147017D01*
X171954352Y-89998324D01*
X171922953Y-89840472D01*
X171922953Y-89679528D01*
X171954352Y-89521676D01*
X172015943Y-89372983D01*
X172105358Y-89239163D01*
X172219163Y-89125358D01*
X172352983Y-89035943D01*
X172501676Y-88974352D01*
X172659528Y-88942953D01*
X172820472Y-88942953D01*
X172978324Y-88974352D01*
G37*
G36*
X146766742Y-87726601D02*
G01*
X146920687Y-87790367D01*
X147059234Y-87882941D01*
X147177059Y-88000766D01*
X147269633Y-88139313D01*
X147333399Y-88293258D01*
X147365907Y-88456685D01*
X147365907Y-88623315D01*
X147333399Y-88786742D01*
X147269633Y-88940687D01*
X147177059Y-89079234D01*
X147059234Y-89197059D01*
X146920687Y-89289633D01*
X146766742Y-89353399D01*
X146603315Y-89385907D01*
X146436685Y-89385907D01*
X146273258Y-89353399D01*
X146119313Y-89289633D01*
X145980766Y-89197059D01*
X145862941Y-89079234D01*
X145770367Y-88940687D01*
X145706601Y-88786742D01*
X145674093Y-88623315D01*
X145674093Y-88456685D01*
X145706601Y-88293258D01*
X145770367Y-88139313D01*
X145862941Y-88000766D01*
X145980766Y-87882941D01*
X146119313Y-87790367D01*
X146273258Y-87726601D01*
X146436685Y-87694093D01*
X146603315Y-87694093D01*
X146766742Y-87726601D01*
G37*
G36*
X178150672Y-85466508D02*
G01*
X178390735Y-85530833D01*
X178620349Y-85625942D01*
X178835583Y-85750208D01*
X179032757Y-85901504D01*
X179208496Y-86077243D01*
X179359792Y-86274417D01*
X179484058Y-86489651D01*
X179579167Y-86719265D01*
X179643492Y-86959328D01*
X179675932Y-87205734D01*
X179675932Y-87454266D01*
X179643492Y-87700672D01*
X179579167Y-87940735D01*
X179484058Y-88170349D01*
X179359792Y-88385583D01*
X179208496Y-88582757D01*
X179032757Y-88758496D01*
X178835583Y-88909792D01*
X178620349Y-89034058D01*
X178390735Y-89129167D01*
X178150672Y-89193492D01*
X177904266Y-89225932D01*
X177655734Y-89225932D01*
X177409328Y-89193492D01*
X177169265Y-89129167D01*
X176939651Y-89034058D01*
X176724417Y-88909792D01*
X176527243Y-88758496D01*
X176351504Y-88582757D01*
X176200208Y-88385583D01*
X176075942Y-88170349D01*
X175980833Y-87940735D01*
X175916508Y-87700672D01*
X175884068Y-87454266D01*
X175884068Y-87205734D01*
X175916508Y-86959328D01*
X175980833Y-86719265D01*
X176075942Y-86489651D01*
X176200208Y-86274417D01*
X176351504Y-86077243D01*
X176527243Y-85901504D01*
X176724417Y-85750208D01*
X176939651Y-85625942D01*
X177169265Y-85530833D01*
X177409328Y-85466508D01*
X177655734Y-85434068D01*
X177904266Y-85434068D01*
X178150672Y-85466508D01*
G37*
G36*
X150822687Y-85345056D02*
G01*
X150832918Y-85345056D01*
X150872893Y-85353007D01*
X150975074Y-85369191D01*
X151007943Y-85379870D01*
X151034799Y-85385213D01*
X151072700Y-85400912D01*
X151131741Y-85420096D01*
X151187052Y-85448278D01*
X151224967Y-85463983D01*
X151247742Y-85479201D01*
X151278528Y-85494887D01*
X151362217Y-85555690D01*
X151396113Y-85578339D01*
X151403347Y-85585573D01*
X151411798Y-85591713D01*
X151528286Y-85708201D01*
X151534425Y-85716651D01*
X151541661Y-85723887D01*
X151564312Y-85757787D01*
X151625112Y-85841471D01*
X151640796Y-85872254D01*
X151656017Y-85895033D01*
X151671723Y-85932952D01*
X151699903Y-85988258D01*
X151719084Y-86047292D01*
X151734787Y-86085201D01*
X151740130Y-86112062D01*
X151750808Y-86144925D01*
X151766990Y-86247098D01*
X151774944Y-86287082D01*
X151774944Y-86297313D01*
X151776578Y-86307630D01*
X151776578Y-86472369D01*
X151774944Y-86482685D01*
X151774944Y-86492918D01*
X151766990Y-86532905D01*
X151750808Y-86635074D01*
X151740130Y-86667935D01*
X151734787Y-86694799D01*
X151719083Y-86732711D01*
X151699903Y-86791741D01*
X151671726Y-86847041D01*
X151656017Y-86884967D01*
X151640794Y-86907749D01*
X151625112Y-86938528D01*
X151564320Y-87022200D01*
X151541661Y-87056113D01*
X151534423Y-87063350D01*
X151528286Y-87071798D01*
X151411798Y-87188286D01*
X151403350Y-87194423D01*
X151396113Y-87201661D01*
X151362200Y-87224320D01*
X151278528Y-87285112D01*
X151247749Y-87300794D01*
X151224967Y-87316017D01*
X151187041Y-87331726D01*
X151131741Y-87359903D01*
X151072711Y-87379083D01*
X151034799Y-87394787D01*
X151007935Y-87400130D01*
X150975074Y-87410808D01*
X150872902Y-87426990D01*
X150832918Y-87434944D01*
X150822687Y-87434944D01*
X150812370Y-87436578D01*
X150647630Y-87436578D01*
X150637313Y-87434944D01*
X150627082Y-87434944D01*
X150587098Y-87426990D01*
X150484925Y-87410808D01*
X150452062Y-87400130D01*
X150425201Y-87394787D01*
X150387292Y-87379084D01*
X150328258Y-87359903D01*
X150272952Y-87331723D01*
X150235033Y-87316017D01*
X150212254Y-87300796D01*
X150181471Y-87285112D01*
X150097787Y-87224312D01*
X150063887Y-87201661D01*
X150056651Y-87194425D01*
X150048201Y-87188286D01*
X149931713Y-87071798D01*
X149925573Y-87063347D01*
X149918339Y-87056113D01*
X149895690Y-87022217D01*
X149834887Y-86938528D01*
X149819201Y-86907742D01*
X149803983Y-86884967D01*
X149788278Y-86847052D01*
X149760096Y-86791741D01*
X149740912Y-86732700D01*
X149725213Y-86694799D01*
X149719870Y-86667943D01*
X149709191Y-86635074D01*
X149693008Y-86532895D01*
X149685056Y-86492918D01*
X149685056Y-86482686D01*
X149683422Y-86472369D01*
X149683422Y-86307630D01*
X149685056Y-86297312D01*
X149685056Y-86287082D01*
X149693007Y-86247108D01*
X149709191Y-86144925D01*
X149719871Y-86112054D01*
X149725213Y-86085201D01*
X149740910Y-86047303D01*
X149760096Y-85988258D01*
X149788280Y-85932942D01*
X149803983Y-85895033D01*
X149819199Y-85872260D01*
X149834887Y-85841471D01*
X149895699Y-85757770D01*
X149918339Y-85723887D01*
X149925570Y-85716655D01*
X149931713Y-85708201D01*
X150048201Y-85591713D01*
X150056655Y-85585570D01*
X150063887Y-85578339D01*
X150097770Y-85555699D01*
X150181471Y-85494887D01*
X150212260Y-85479199D01*
X150235033Y-85463983D01*
X150272942Y-85448280D01*
X150328258Y-85420096D01*
X150387303Y-85400910D01*
X150425201Y-85385213D01*
X150452054Y-85379871D01*
X150484925Y-85369191D01*
X150587108Y-85353007D01*
X150627082Y-85345056D01*
X150637313Y-85345056D01*
X150647630Y-85343422D01*
X150812370Y-85343422D01*
X150822687Y-85345056D01*
G37*
M02*
