%TF.GenerationSoftware,KiCad,Pcbnew,10.0.3*%
%TF.CreationDate,2026-06-10T23:04:40+05:45*%
%TF.ProjectId,1channelrelay,31636861-6e6e-4656-9c72-656c61792e6b,rev?*%
%TF.SameCoordinates,Original*%
%TF.FileFunction,Copper,L2,Bot*%
%TF.FilePolarity,Positive*%
%FSLAX46Y46*%
G04 Gerber Fmt 4.6, Leading zero omitted, Abs format (unit mm)*
G04 Created by KiCad (PCBNEW 10.0.3) date 2026-06-10 23:04:40*
%MOMM*%
%LPD*%
G01*
G04 APERTURE LIST*
G04 Aperture macros list*
%AMRoundRect*
0 Rectangle with rounded corners*
0 $1 Rounding radius*
0 $2 $3 $4 $5 $6 $7 $8 $9 X,Y pos of 4 corners*
0 Add a 4 corners polygon primitive as box body*
4,1,4,$2,$3,$4,$5,$6,$7,$8,$9,$2,$3,0*
0 Add four circle primitives for the rounded corners*
1,1,$1+$1,$2,$3*
1,1,$1+$1,$4,$5*
1,1,$1+$1,$6,$7*
1,1,$1+$1,$8,$9*
0 Add four rect primitives between the rounded corners*
20,1,$1+$1,$2,$3,$4,$5,0*
20,1,$1+$1,$4,$5,$6,$7,0*
20,1,$1+$1,$6,$7,$8,$9,0*
20,1,$1+$1,$8,$9,$2,$3,0*%
G04 Aperture macros list end*
%TA.AperFunction,EtchedComponent*%
%ADD10C,0.010000*%
%TD*%
%TA.AperFunction,ComponentPad*%
%ADD11RoundRect,0.250000X1.000000X1.000000X-1.000000X1.000000X-1.000000X-1.000000X1.000000X-1.000000X0*%
%TD*%
%TA.AperFunction,ComponentPad*%
%ADD12C,2.500000*%
%TD*%
%TA.AperFunction,ComponentPad*%
%ADD13R,0.850000X0.850000*%
%TD*%
%TA.AperFunction,ComponentPad*%
%ADD14C,0.850000*%
%TD*%
%TA.AperFunction,ComponentPad*%
%ADD15C,2.400000*%
%TD*%
%TA.AperFunction,ComponentPad*%
%ADD16RoundRect,0.250000X-1.000000X-1.000000X1.000000X-1.000000X1.000000X1.000000X-1.000000X1.000000X0*%
%TD*%
%TA.AperFunction,Conductor*%
%ADD17C,1.000000*%
%TD*%
G04 APERTURE END LIST*
D10*
%TO.C,REF\u002A\u002A*%
X146811386Y-105775877D02*
X146787673Y-105790647D01*
X146761022Y-105812227D01*
X146761022Y-106133773D01*
X146761107Y-106227830D01*
X146761471Y-106301932D01*
X146762276Y-106358704D01*
X146763687Y-106400768D01*
X146765867Y-106430748D01*
X146768979Y-106451267D01*
X146773186Y-106464949D01*
X146778652Y-106474416D01*
X146782528Y-106479082D01*
X146813966Y-106499575D01*
X146849767Y-106498739D01*
X146881127Y-106481264D01*
X146907778Y-106459684D01*
X146907778Y-105812227D01*
X146881127Y-105790647D01*
X146855406Y-105774949D01*
X146834400Y-105769067D01*
X146811386Y-105775877D01*
%TA.AperFunction,EtchedComponent*%
G36*
X146855406Y-105774949D02*
G01*
X146881127Y-105790647D01*
X146907778Y-105812227D01*
X146907778Y-106459684D01*
X146881127Y-106481264D01*
X146849767Y-106498739D01*
X146813966Y-106499575D01*
X146782528Y-106479082D01*
X146778652Y-106474416D01*
X146773186Y-106464949D01*
X146768979Y-106451267D01*
X146765867Y-106430748D01*
X146763687Y-106400768D01*
X146762276Y-106358704D01*
X146761471Y-106301932D01*
X146761107Y-106227830D01*
X146761022Y-106133773D01*
X146761022Y-105812227D01*
X146787673Y-105790647D01*
X146811386Y-105775877D01*
X146834400Y-105769067D01*
X146855406Y-105774949D01*
G37*
%TD.AperFunction*%
X153923822Y-105791645D02*
X153917242Y-105799218D01*
X153912079Y-105808987D01*
X153908164Y-105823571D01*
X153905324Y-105845585D01*
X153903387Y-105877648D01*
X153902183Y-105922375D01*
X153901539Y-105982385D01*
X153901284Y-106060294D01*
X153901245Y-106135956D01*
X153901314Y-106229802D01*
X153901638Y-106303689D01*
X153902386Y-106360232D01*
X153903732Y-106402049D01*
X153905846Y-106431757D01*
X153908900Y-106451973D01*
X153913066Y-106465314D01*
X153918516Y-106474398D01*
X153923822Y-106480267D01*
X153956826Y-106499947D01*
X153991991Y-106498181D01*
X154023455Y-106476717D01*
X154030684Y-106468337D01*
X154036334Y-106458614D01*
X154040599Y-106444861D01*
X154043673Y-106424389D01*
X154045752Y-106394512D01*
X154047030Y-106352541D01*
X154047701Y-106295789D01*
X154047959Y-106221567D01*
X154048000Y-106137537D01*
X154048000Y-105824485D01*
X154020291Y-105796776D01*
X153986137Y-105773463D01*
X153953006Y-105772623D01*
X153923822Y-105791645D01*
%TA.AperFunction,EtchedComponent*%
G36*
X153986137Y-105773463D02*
G01*
X154020291Y-105796776D01*
X154048000Y-105824485D01*
X154048000Y-106137537D01*
X154047959Y-106221567D01*
X154047701Y-106295789D01*
X154047030Y-106352541D01*
X154045752Y-106394512D01*
X154043673Y-106424389D01*
X154040599Y-106444861D01*
X154036334Y-106458614D01*
X154030684Y-106468337D01*
X154023455Y-106476717D01*
X153991991Y-106498181D01*
X153956826Y-106499947D01*
X153923822Y-106480267D01*
X153918516Y-106474398D01*
X153913066Y-106465314D01*
X153908900Y-106451973D01*
X153905846Y-106431757D01*
X153903732Y-106402049D01*
X153902386Y-106360232D01*
X153901638Y-106303689D01*
X153901314Y-106229802D01*
X153901245Y-106135956D01*
X153901284Y-106060294D01*
X153901539Y-105982385D01*
X153902183Y-105922375D01*
X153903387Y-105877648D01*
X153905324Y-105845585D01*
X153908164Y-105823571D01*
X153912079Y-105808987D01*
X153917242Y-105799218D01*
X153923822Y-105791645D01*
X153953006Y-105772623D01*
X153986137Y-105773463D01*
G37*
%TD.AperFunction*%
X153273043Y-100526571D02*
X153176768Y-100550809D01*
X153090184Y-100593641D01*
X153015373Y-100653419D01*
X152954418Y-100728494D01*
X152909399Y-100817220D01*
X152883136Y-100913530D01*
X152877286Y-101010795D01*
X152892140Y-101104654D01*
X152925840Y-101192511D01*
X152976528Y-101271770D01*
X153042345Y-101339836D01*
X153121434Y-101394112D01*
X153211934Y-101432002D01*
X153263200Y-101444426D01*
X153307698Y-101451947D01*
X153341999Y-101454919D01*
X153374960Y-101453094D01*
X153415434Y-101446225D01*
X153448531Y-101439250D01*
X153541947Y-101407741D01*
X153625619Y-101356617D01*
X153697665Y-101287429D01*
X153756200Y-101201728D01*
X153770148Y-101174489D01*
X153786586Y-101138122D01*
X153796894Y-101107582D01*
X153802460Y-101075450D01*
X153804669Y-101034307D01*
X153804948Y-100988222D01*
X153800861Y-100903865D01*
X153787446Y-100834586D01*
X153762256Y-100773961D01*
X153722846Y-100715567D01*
X153684298Y-100671302D01*
X153612406Y-100605484D01*
X153537313Y-100560053D01*
X153454562Y-100532850D01*
X153376928Y-100522576D01*
X153273043Y-100526571D01*
%TA.AperFunction,EtchedComponent*%
G36*
X153454562Y-100532850D02*
G01*
X153537313Y-100560053D01*
X153612406Y-100605484D01*
X153684298Y-100671302D01*
X153722846Y-100715567D01*
X153762256Y-100773961D01*
X153787446Y-100834586D01*
X153800861Y-100903865D01*
X153804948Y-100988222D01*
X153804669Y-101034307D01*
X153802460Y-101075450D01*
X153796894Y-101107582D01*
X153786586Y-101138122D01*
X153770148Y-101174489D01*
X153756200Y-101201728D01*
X153697665Y-101287429D01*
X153625619Y-101356617D01*
X153541947Y-101407741D01*
X153448531Y-101439250D01*
X153415434Y-101446225D01*
X153374960Y-101453094D01*
X153341999Y-101454919D01*
X153307698Y-101451947D01*
X153263200Y-101444426D01*
X153211934Y-101432002D01*
X153121434Y-101394112D01*
X153042345Y-101339836D01*
X152976528Y-101271770D01*
X152925840Y-101192511D01*
X152892140Y-101104654D01*
X152877286Y-101010795D01*
X152883136Y-100913530D01*
X152909399Y-100817220D01*
X152954418Y-100728494D01*
X153015373Y-100653419D01*
X153090184Y-100593641D01*
X153176768Y-100550809D01*
X153273043Y-100526571D01*
X153376928Y-100522576D01*
X153454562Y-100532850D01*
G37*
%TD.AperFunction*%
X146036935Y-105769163D02*
X145958228Y-105769542D01*
X145897137Y-105770333D01*
X145851183Y-105771670D01*
X145817886Y-105773683D01*
X145794764Y-105776506D01*
X145779338Y-105780269D01*
X145769129Y-105785105D01*
X145764187Y-105788822D01*
X145738543Y-105821358D01*
X145735441Y-105855138D01*
X145751289Y-105885826D01*
X145761652Y-105898089D01*
X145772804Y-105906450D01*
X145788965Y-105911657D01*
X145814358Y-105914457D01*
X145853202Y-105915596D01*
X145909720Y-105915821D01*
X145920820Y-105915822D01*
X146066756Y-105915822D01*
X146066756Y-106186756D01*
X146066852Y-106272154D01*
X146067289Y-106337864D01*
X146068288Y-106386774D01*
X146070072Y-106421773D01*
X146072863Y-106445749D01*
X146076883Y-106461593D01*
X146082355Y-106472191D01*
X146089334Y-106480267D01*
X146122266Y-106500112D01*
X146156646Y-106498548D01*
X146187824Y-106475906D01*
X146190114Y-106473100D01*
X146197571Y-106462492D01*
X146203253Y-106450081D01*
X146207399Y-106432850D01*
X146210250Y-106407784D01*
X146212046Y-106371867D01*
X146213028Y-106322083D01*
X146213436Y-106255417D01*
X146213511Y-106179589D01*
X146213511Y-105915822D01*
X146352873Y-105915822D01*
X146412678Y-105915418D01*
X146454082Y-105913840D01*
X146481252Y-105910547D01*
X146498354Y-105904992D01*
X146509557Y-105896631D01*
X146510917Y-105895178D01*
X146527275Y-105861939D01*
X146525828Y-105824362D01*
X146507022Y-105791645D01*
X146499750Y-105785298D01*
X146490373Y-105780266D01*
X146476391Y-105776396D01*
X146455304Y-105773537D01*
X146424611Y-105771535D01*
X146381811Y-105770239D01*
X146324405Y-105769498D01*
X146249890Y-105769158D01*
X146155767Y-105769068D01*
X146135740Y-105769067D01*
X146036935Y-105769163D01*
%TA.AperFunction,EtchedComponent*%
G36*
X146155767Y-105769068D02*
G01*
X146249890Y-105769158D01*
X146324405Y-105769498D01*
X146381811Y-105770239D01*
X146424611Y-105771535D01*
X146455304Y-105773537D01*
X146476391Y-105776396D01*
X146490373Y-105780266D01*
X146499750Y-105785298D01*
X146507022Y-105791645D01*
X146525828Y-105824362D01*
X146527275Y-105861939D01*
X146510917Y-105895178D01*
X146509557Y-105896631D01*
X146498354Y-105904992D01*
X146481252Y-105910547D01*
X146454082Y-105913840D01*
X146412678Y-105915418D01*
X146352873Y-105915822D01*
X146213511Y-105915822D01*
X146213511Y-106179589D01*
X146213436Y-106255417D01*
X146213028Y-106322083D01*
X146212046Y-106371867D01*
X146210250Y-106407784D01*
X146207399Y-106432850D01*
X146203253Y-106450081D01*
X146197571Y-106462492D01*
X146190114Y-106473100D01*
X146187824Y-106475906D01*
X146156646Y-106498548D01*
X146122266Y-106500112D01*
X146089334Y-106480267D01*
X146082355Y-106472191D01*
X146076883Y-106461593D01*
X146072863Y-106445749D01*
X146070072Y-106421773D01*
X146068288Y-106386774D01*
X146067289Y-106337864D01*
X146066852Y-106272154D01*
X146066756Y-106186756D01*
X146066756Y-105915822D01*
X145920820Y-105915822D01*
X145909720Y-105915821D01*
X145853202Y-105915596D01*
X145814358Y-105914457D01*
X145788965Y-105911657D01*
X145772804Y-105906450D01*
X145761652Y-105898089D01*
X145751289Y-105885826D01*
X145735441Y-105855138D01*
X145738543Y-105821358D01*
X145764187Y-105788822D01*
X145769129Y-105785105D01*
X145779338Y-105780269D01*
X145794764Y-105776506D01*
X145817886Y-105773683D01*
X145851183Y-105771670D01*
X145897137Y-105770333D01*
X145958228Y-105769542D01*
X146036935Y-105769163D01*
X146135740Y-105769067D01*
X146155767Y-105769068D01*
G37*
%TD.AperFunction*%
X144771177Y-105774533D02*
X144739798Y-105796776D01*
X144712089Y-105824485D01*
X144712089Y-106133920D01*
X144712162Y-106225799D01*
X144712505Y-106297840D01*
X144713308Y-106352780D01*
X144714759Y-106393360D01*
X144717048Y-106422317D01*
X144720364Y-106442391D01*
X144724895Y-106456321D01*
X144730831Y-106466845D01*
X144735486Y-106473100D01*
X144766217Y-106497673D01*
X144801504Y-106500341D01*
X144833755Y-106485271D01*
X144844412Y-106476374D01*
X144851536Y-106464557D01*
X144855833Y-106445526D01*
X144858009Y-106414992D01*
X144858772Y-106368662D01*
X144858845Y-106332871D01*
X144858845Y-106198045D01*
X145355556Y-106198045D01*
X145355556Y-106320700D01*
X145356069Y-106376787D01*
X145358124Y-106415333D01*
X145362492Y-106441361D01*
X145369944Y-106459897D01*
X145378953Y-106473100D01*
X145409856Y-106497604D01*
X145444804Y-106500506D01*
X145478262Y-106483089D01*
X145487396Y-106473959D01*
X145493848Y-106461855D01*
X145498103Y-106443001D01*
X145500648Y-106413620D01*
X145501971Y-106369937D01*
X145502557Y-106308175D01*
X145502625Y-106294000D01*
X145503109Y-106177631D01*
X145503359Y-106081727D01*
X145503277Y-106004177D01*
X145502769Y-105942869D01*
X145501738Y-105895690D01*
X145500087Y-105860530D01*
X145497721Y-105835276D01*
X145494543Y-105817817D01*
X145490456Y-105806041D01*
X145485366Y-105797835D01*
X145479734Y-105791645D01*
X145447872Y-105771844D01*
X145414643Y-105774533D01*
X145383265Y-105796776D01*
X145370567Y-105811126D01*
X145362474Y-105826978D01*
X145357958Y-105849554D01*
X145355994Y-105884078D01*
X145355556Y-105935776D01*
X145355556Y-106051289D01*
X144858845Y-106051289D01*
X144858845Y-105932756D01*
X144858338Y-105878148D01*
X144856302Y-105841275D01*
X144851965Y-105817307D01*
X144844553Y-105801415D01*
X144836267Y-105791645D01*
X144804406Y-105771844D01*
X144771177Y-105774533D01*
%TA.AperFunction,EtchedComponent*%
G36*
X145479734Y-105791645D02*
G01*
X145485366Y-105797835D01*
X145490456Y-105806041D01*
X145494543Y-105817817D01*
X145497721Y-105835276D01*
X145500087Y-105860530D01*
X145501738Y-105895690D01*
X145502769Y-105942869D01*
X145503277Y-106004177D01*
X145503359Y-106081727D01*
X145503109Y-106177631D01*
X145502625Y-106294000D01*
X145502557Y-106308175D01*
X145501971Y-106369937D01*
X145500648Y-106413620D01*
X145498103Y-106443001D01*
X145493848Y-106461855D01*
X145487396Y-106473959D01*
X145478262Y-106483089D01*
X145444804Y-106500506D01*
X145409856Y-106497604D01*
X145378953Y-106473100D01*
X145369944Y-106459897D01*
X145362492Y-106441361D01*
X145358124Y-106415333D01*
X145356069Y-106376787D01*
X145355556Y-106320700D01*
X145355556Y-106198045D01*
X144858845Y-106198045D01*
X144858845Y-106332871D01*
X144858772Y-106368662D01*
X144858009Y-106414992D01*
X144855833Y-106445526D01*
X144851536Y-106464557D01*
X144844412Y-106476374D01*
X144833755Y-106485271D01*
X144801504Y-106500341D01*
X144766217Y-106497673D01*
X144735486Y-106473100D01*
X144730831Y-106466845D01*
X144724895Y-106456321D01*
X144720364Y-106442391D01*
X144717048Y-106422317D01*
X144714759Y-106393360D01*
X144713308Y-106352780D01*
X144712505Y-106297840D01*
X144712162Y-106225799D01*
X144712089Y-106133920D01*
X144712089Y-105824485D01*
X144739798Y-105796776D01*
X144771177Y-105774533D01*
X144804406Y-105771844D01*
X144836267Y-105791645D01*
X144844553Y-105801415D01*
X144851965Y-105817307D01*
X144856302Y-105841275D01*
X144858338Y-105878148D01*
X144858845Y-105932756D01*
X144858845Y-106051289D01*
X145355556Y-106051289D01*
X145355556Y-105935776D01*
X145355994Y-105884078D01*
X145357958Y-105849554D01*
X145362474Y-105826978D01*
X145370567Y-105811126D01*
X145383265Y-105796776D01*
X145414643Y-105774533D01*
X145447872Y-105771844D01*
X145479734Y-105791645D01*
G37*
%TD.AperFunction*%
X149981691Y-105769275D02*
X149852712Y-105773636D01*
X149743009Y-105786861D01*
X149650774Y-105809741D01*
X149574198Y-105843070D01*
X149511473Y-105887638D01*
X149460788Y-105944236D01*
X149420337Y-106013658D01*
X149419541Y-106015351D01*
X149395399Y-106077483D01*
X149386797Y-106132509D01*
X149393769Y-106187887D01*
X149416346Y-106251073D01*
X149420628Y-106260689D01*
X149449828Y-106316966D01*
X149482644Y-106360451D01*
X149524998Y-106397417D01*
X149582810Y-106434135D01*
X149586169Y-106436052D01*
X149636496Y-106460227D01*
X149693379Y-106478282D01*
X149760473Y-106490839D01*
X149841435Y-106498522D01*
X149939918Y-106501953D01*
X149974714Y-106502251D01*
X150140406Y-106502845D01*
X150163803Y-106473100D01*
X150170743Y-106463319D01*
X150176158Y-106451897D01*
X150180235Y-106436095D01*
X150183163Y-106413175D01*
X150185133Y-106380396D01*
X150185775Y-106356089D01*
X150029156Y-106356089D01*
X149935274Y-106356089D01*
X149880336Y-106354483D01*
X149823940Y-106350255D01*
X149777655Y-106344292D01*
X149774861Y-106343790D01*
X149692652Y-106321736D01*
X149628886Y-106288600D01*
X149581548Y-106242847D01*
X149548618Y-106182939D01*
X149542892Y-106167061D01*
X149537279Y-106142333D01*
X149539709Y-106117902D01*
X149551533Y-106085400D01*
X149558660Y-106069434D01*
X149582000Y-106027006D01*
X149610120Y-105997240D01*
X149641060Y-105976511D01*
X149703034Y-105949537D01*
X149782349Y-105929998D01*
X149874747Y-105918746D01*
X149941667Y-105916270D01*
X150029156Y-105915822D01*
X150029156Y-106356089D01*
X150185775Y-106356089D01*
X150186332Y-106335021D01*
X150186950Y-106274311D01*
X150187175Y-106195526D01*
X150187200Y-106133920D01*
X150187200Y-105824485D01*
X150159491Y-105796776D01*
X150147194Y-105785544D01*
X150133897Y-105777853D01*
X150115328Y-105773040D01*
X150087214Y-105770446D01*
X150045283Y-105769410D01*
X149985263Y-105769270D01*
X149981691Y-105769275D01*
%TA.AperFunction,EtchedComponent*%
G36*
X150185133Y-106380396D02*
G01*
X150183163Y-106413175D01*
X150180235Y-106436095D01*
X150176158Y-106451897D01*
X150170743Y-106463319D01*
X150163803Y-106473100D01*
X150140406Y-106502845D01*
X149974714Y-106502251D01*
X149939918Y-106501953D01*
X149841435Y-106498522D01*
X149760473Y-106490839D01*
X149693379Y-106478282D01*
X149636496Y-106460227D01*
X149586169Y-106436052D01*
X149582810Y-106434135D01*
X149524998Y-106397417D01*
X149482644Y-106360451D01*
X149449828Y-106316966D01*
X149420628Y-106260689D01*
X149416346Y-106251073D01*
X149393769Y-106187887D01*
X149388034Y-106142333D01*
X149537279Y-106142333D01*
X149542892Y-106167061D01*
X149548618Y-106182939D01*
X149581548Y-106242847D01*
X149628886Y-106288600D01*
X149692652Y-106321736D01*
X149774861Y-106343790D01*
X149777655Y-106344292D01*
X149823940Y-106350255D01*
X149880336Y-106354483D01*
X149935274Y-106356089D01*
X150029156Y-106356089D01*
X150029156Y-105915822D01*
X149941667Y-105916270D01*
X149874747Y-105918746D01*
X149782349Y-105929998D01*
X149703034Y-105949537D01*
X149641060Y-105976511D01*
X149610120Y-105997240D01*
X149582000Y-106027006D01*
X149558660Y-106069434D01*
X149551533Y-106085400D01*
X149539709Y-106117902D01*
X149537279Y-106142333D01*
X149388034Y-106142333D01*
X149386797Y-106132509D01*
X149395399Y-106077483D01*
X149419541Y-106015351D01*
X149420337Y-106013658D01*
X149460788Y-105944236D01*
X149511473Y-105887638D01*
X149574198Y-105843070D01*
X149650774Y-105809741D01*
X149743009Y-105786861D01*
X149852712Y-105773636D01*
X149981691Y-105769275D01*
X149985263Y-105769270D01*
X150045283Y-105769410D01*
X150087214Y-105770446D01*
X150115328Y-105773040D01*
X150133897Y-105777853D01*
X150147194Y-105785544D01*
X150159491Y-105796776D01*
X150187200Y-105824485D01*
X150187200Y-106133920D01*
X150187175Y-106195526D01*
X150186950Y-106274311D01*
X150186332Y-106335021D01*
X150185775Y-106356089D01*
X150185133Y-106380396D01*
G37*
%TD.AperFunction*%
X157121371Y-105769066D02*
X157081889Y-105769467D01*
X156966200Y-105772259D01*
X156869311Y-105780550D01*
X156787919Y-105795232D01*
X156718723Y-105817193D01*
X156658420Y-105847322D01*
X156603708Y-105886510D01*
X156584167Y-105903532D01*
X156551750Y-105943363D01*
X156522520Y-105997413D01*
X156499991Y-106057323D01*
X156487679Y-106114739D01*
X156486400Y-106135956D01*
X156494417Y-106194769D01*
X156515899Y-106259013D01*
X156546999Y-106319821D01*
X156583866Y-106368330D01*
X156589854Y-106374182D01*
X156640579Y-106415321D01*
X156696125Y-106447435D01*
X156759696Y-106471365D01*
X156834494Y-106487953D01*
X156923722Y-106498041D01*
X157030582Y-106502469D01*
X157079528Y-106502845D01*
X157141762Y-106502545D01*
X157185528Y-106501292D01*
X157214931Y-106498554D01*
X157234079Y-106493801D01*
X157247077Y-106486501D01*
X157254045Y-106480267D01*
X157260626Y-106472694D01*
X157265788Y-106462924D01*
X157269703Y-106448340D01*
X157272543Y-106426326D01*
X157274480Y-106394264D01*
X157275684Y-106349536D01*
X157276328Y-106289526D01*
X157276583Y-106211617D01*
X157276622Y-106135956D01*
X157276870Y-106035041D01*
X157276817Y-105954427D01*
X157275857Y-105915822D01*
X157129867Y-105915822D01*
X157129867Y-106356089D01*
X157036734Y-106356004D01*
X156980693Y-106354396D01*
X156921999Y-106350256D01*
X156873028Y-106344464D01*
X156871538Y-106344226D01*
X156792392Y-106325090D01*
X156731002Y-106295287D01*
X156684305Y-106252878D01*
X156654635Y-106206961D01*
X156636353Y-106156026D01*
X156637771Y-106108200D01*
X156658988Y-106056933D01*
X156700489Y-106003899D01*
X156757998Y-105964600D01*
X156832750Y-105938331D01*
X156882708Y-105929035D01*
X156939416Y-105922507D01*
X156999519Y-105917782D01*
X157050639Y-105915817D01*
X157053667Y-105915808D01*
X157129867Y-105915822D01*
X157275857Y-105915822D01*
X157275260Y-105891851D01*
X157270998Y-105845055D01*
X157262830Y-105811778D01*
X157249556Y-105789759D01*
X157229974Y-105776739D01*
X157202883Y-105770457D01*
X157167082Y-105768653D01*
X157121371Y-105769066D01*
%TA.AperFunction,EtchedComponent*%
G36*
X157276817Y-105954427D02*
G01*
X157276870Y-106035041D01*
X157276622Y-106135956D01*
X157276583Y-106211617D01*
X157276328Y-106289526D01*
X157275684Y-106349536D01*
X157274480Y-106394264D01*
X157272543Y-106426326D01*
X157269703Y-106448340D01*
X157265788Y-106462924D01*
X157260626Y-106472694D01*
X157254045Y-106480267D01*
X157247077Y-106486501D01*
X157234079Y-106493801D01*
X157214931Y-106498554D01*
X157185528Y-106501292D01*
X157141762Y-106502545D01*
X157079528Y-106502845D01*
X157030582Y-106502469D01*
X156923722Y-106498041D01*
X156834494Y-106487953D01*
X156759696Y-106471365D01*
X156696125Y-106447435D01*
X156640579Y-106415321D01*
X156589854Y-106374182D01*
X156583866Y-106368330D01*
X156546999Y-106319821D01*
X156515899Y-106259013D01*
X156494417Y-106194769D01*
X156489136Y-106156026D01*
X156636353Y-106156026D01*
X156654635Y-106206961D01*
X156684305Y-106252878D01*
X156731002Y-106295287D01*
X156792392Y-106325090D01*
X156871538Y-106344226D01*
X156873028Y-106344464D01*
X156921999Y-106350256D01*
X156980693Y-106354396D01*
X157036734Y-106356004D01*
X157129867Y-106356089D01*
X157129867Y-105915822D01*
X157053667Y-105915808D01*
X157050639Y-105915817D01*
X156999519Y-105917782D01*
X156939416Y-105922507D01*
X156882708Y-105929035D01*
X156832750Y-105938331D01*
X156757998Y-105964600D01*
X156700489Y-106003899D01*
X156658988Y-106056933D01*
X156637771Y-106108200D01*
X156636353Y-106156026D01*
X156489136Y-106156026D01*
X156486400Y-106135956D01*
X156487679Y-106114739D01*
X156499991Y-106057323D01*
X156522520Y-105997413D01*
X156551750Y-105943363D01*
X156584167Y-105903532D01*
X156603708Y-105886510D01*
X156658420Y-105847322D01*
X156718723Y-105817193D01*
X156787919Y-105795232D01*
X156869311Y-105780550D01*
X156966200Y-105772259D01*
X157081889Y-105769467D01*
X157121371Y-105769066D01*
X157167082Y-105768653D01*
X157202883Y-105770457D01*
X157229974Y-105776739D01*
X157249556Y-105789759D01*
X157262830Y-105811778D01*
X157270998Y-105845055D01*
X157275260Y-105891851D01*
X157275857Y-105915822D01*
X157276817Y-105954427D01*
G37*
%TD.AperFunction*%
X152300114Y-105773448D02*
X152276548Y-105787273D01*
X152245735Y-105809881D01*
X152206078Y-105842338D01*
X152155980Y-105885708D01*
X152093843Y-105941058D01*
X152018072Y-106009451D01*
X151931334Y-106088084D01*
X151750711Y-106251878D01*
X151745067Y-106032029D01*
X151743029Y-105956351D01*
X151741063Y-105899994D01*
X151738734Y-105859706D01*
X151735606Y-105832235D01*
X151731245Y-105814329D01*
X151725216Y-105802737D01*
X151717084Y-105794208D01*
X151712772Y-105790623D01*
X151678241Y-105771670D01*
X151645383Y-105774441D01*
X151619318Y-105790633D01*
X151592667Y-105812199D01*
X151589352Y-106127151D01*
X151588435Y-106219779D01*
X151587968Y-106292544D01*
X151588113Y-106348161D01*
X151589032Y-106389342D01*
X151590887Y-106418803D01*
X151593839Y-106439255D01*
X151598050Y-106453413D01*
X151603682Y-106463991D01*
X151609927Y-106472474D01*
X151623439Y-106488207D01*
X151636883Y-106498636D01*
X151652124Y-106502639D01*
X151671026Y-106499094D01*
X151695455Y-106486879D01*
X151727273Y-106464871D01*
X151768348Y-106431949D01*
X151820542Y-106386991D01*
X151885722Y-106328875D01*
X151959556Y-106262099D01*
X152224845Y-106021458D01*
X152230489Y-106240589D01*
X152232531Y-106316128D01*
X152234502Y-106372354D01*
X152236839Y-106412524D01*
X152239981Y-106439896D01*
X152244364Y-106457728D01*
X152250424Y-106469279D01*
X152258600Y-106477807D01*
X152262784Y-106481282D01*
X152299765Y-106500372D01*
X152334708Y-106497493D01*
X152365136Y-106473100D01*
X152372097Y-106463286D01*
X152377523Y-106451826D01*
X152381603Y-106435968D01*
X152384529Y-106412963D01*
X152386492Y-106380062D01*
X152387683Y-106334516D01*
X152388292Y-106273573D01*
X152388511Y-106194486D01*
X152388534Y-106135956D01*
X152388460Y-106044407D01*
X152388113Y-105972687D01*
X152387301Y-105918045D01*
X152385833Y-105877732D01*
X152383519Y-105848998D01*
X152380167Y-105829093D01*
X152375588Y-105815268D01*
X152369589Y-105804772D01*
X152365136Y-105798811D01*
X152353850Y-105784691D01*
X152343301Y-105774029D01*
X152331893Y-105767892D01*
X152318030Y-105767343D01*
X152300114Y-105773448D01*
%TA.AperFunction,EtchedComponent*%
G36*
X152331893Y-105767892D02*
G01*
X152343301Y-105774029D01*
X152353850Y-105784691D01*
X152365136Y-105798811D01*
X152369589Y-105804772D01*
X152375588Y-105815268D01*
X152380167Y-105829093D01*
X152383519Y-105848998D01*
X152385833Y-105877732D01*
X152387301Y-105918045D01*
X152388113Y-105972687D01*
X152388460Y-106044407D01*
X152388534Y-106135956D01*
X152388511Y-106194486D01*
X152388292Y-106273573D01*
X152387683Y-106334516D01*
X152386492Y-106380062D01*
X152384529Y-106412963D01*
X152381603Y-106435968D01*
X152377523Y-106451826D01*
X152372097Y-106463286D01*
X152365136Y-106473100D01*
X152334708Y-106497493D01*
X152299765Y-106500372D01*
X152262784Y-106481282D01*
X152258600Y-106477807D01*
X152250424Y-106469279D01*
X152244364Y-106457728D01*
X152239981Y-106439896D01*
X152236839Y-106412524D01*
X152234502Y-106372354D01*
X152232531Y-106316128D01*
X152230489Y-106240589D01*
X152224845Y-106021458D01*
X151959556Y-106262099D01*
X151885722Y-106328875D01*
X151820542Y-106386991D01*
X151768348Y-106431949D01*
X151727273Y-106464871D01*
X151695455Y-106486879D01*
X151671026Y-106499094D01*
X151652124Y-106502639D01*
X151636883Y-106498636D01*
X151623439Y-106488207D01*
X151609927Y-106472474D01*
X151603682Y-106463991D01*
X151598050Y-106453413D01*
X151593839Y-106439255D01*
X151590887Y-106418803D01*
X151589032Y-106389342D01*
X151588113Y-106348161D01*
X151587968Y-106292544D01*
X151588435Y-106219779D01*
X151589352Y-106127151D01*
X151592667Y-105812199D01*
X151619318Y-105790633D01*
X151645383Y-105774441D01*
X151678241Y-105771670D01*
X151712772Y-105790623D01*
X151717084Y-105794208D01*
X151725216Y-105802737D01*
X151731245Y-105814329D01*
X151735606Y-105832235D01*
X151738734Y-105859706D01*
X151741063Y-105899994D01*
X151743029Y-105956351D01*
X151745067Y-106032029D01*
X151750711Y-106251878D01*
X151931334Y-106088084D01*
X152018072Y-106009451D01*
X152093843Y-105941058D01*
X152155980Y-105885708D01*
X152206078Y-105842338D01*
X152245735Y-105809881D01*
X152276548Y-105787273D01*
X152300114Y-105773448D01*
X152318030Y-105767343D01*
X152331893Y-105767892D01*
G37*
%TD.AperFunction*%
X152950081Y-105774599D02*
X152881565Y-105786095D01*
X152828943Y-105803967D01*
X152794708Y-105827499D01*
X152785379Y-105840924D01*
X152775893Y-105872148D01*
X152782277Y-105900395D01*
X152802430Y-105927182D01*
X152833745Y-105939713D01*
X152879183Y-105938696D01*
X152914326Y-105931906D01*
X152992419Y-105918971D01*
X153072226Y-105917742D01*
X153161555Y-105928241D01*
X153186229Y-105932690D01*
X153269291Y-105956108D01*
X153334273Y-105990945D01*
X153380461Y-106036604D01*
X153407145Y-106092494D01*
X153412663Y-106121388D01*
X153409051Y-106180012D01*
X153385729Y-106231879D01*
X153344824Y-106275978D01*
X153288459Y-106311299D01*
X153218760Y-106336829D01*
X153137852Y-106351559D01*
X153047860Y-106354478D01*
X152950910Y-106344575D01*
X152945436Y-106343641D01*
X152906875Y-106336459D01*
X152885494Y-106329521D01*
X152876227Y-106319227D01*
X152874006Y-106301976D01*
X152873956Y-106292841D01*
X152873956Y-106254489D01*
X152942431Y-106254489D01*
X153002900Y-106250347D01*
X153044165Y-106237147D01*
X153068175Y-106213730D01*
X153076877Y-106178936D01*
X153076983Y-106174394D01*
X153071892Y-106144654D01*
X153054433Y-106123419D01*
X153021939Y-106109366D01*
X152971743Y-106101173D01*
X152923123Y-106098161D01*
X152852456Y-106096433D01*
X152801198Y-106099070D01*
X152766239Y-106108800D01*
X152744470Y-106128353D01*
X152732780Y-106160456D01*
X152728060Y-106207838D01*
X152727200Y-106270071D01*
X152728609Y-106339535D01*
X152732848Y-106386786D01*
X152739936Y-106412012D01*
X152741311Y-106413988D01*
X152780228Y-106445508D01*
X152837286Y-106470470D01*
X152908869Y-106488340D01*
X152991358Y-106498586D01*
X153081139Y-106500673D01*
X153174592Y-106494068D01*
X153229556Y-106485956D01*
X153315766Y-106461554D01*
X153395892Y-106421662D01*
X153462977Y-106369887D01*
X153473173Y-106359539D01*
X153506302Y-106316035D01*
X153536194Y-106262118D01*
X153559357Y-106205592D01*
X153572298Y-106154259D01*
X153573858Y-106134544D01*
X153567218Y-106093419D01*
X153549568Y-106042252D01*
X153524297Y-105988394D01*
X153494789Y-105939195D01*
X153468719Y-105906334D01*
X153407765Y-105857452D01*
X153328969Y-105818545D01*
X153235157Y-105790494D01*
X153129150Y-105774179D01*
X153032000Y-105770192D01*
X152950081Y-105774599D01*
%TA.AperFunction,EtchedComponent*%
G36*
X153129150Y-105774179D02*
G01*
X153235157Y-105790494D01*
X153328969Y-105818545D01*
X153407765Y-105857452D01*
X153468719Y-105906334D01*
X153494789Y-105939195D01*
X153524297Y-105988394D01*
X153549568Y-106042252D01*
X153567218Y-106093419D01*
X153573858Y-106134544D01*
X153572298Y-106154259D01*
X153559357Y-106205592D01*
X153536194Y-106262118D01*
X153506302Y-106316035D01*
X153473173Y-106359539D01*
X153462977Y-106369887D01*
X153395892Y-106421662D01*
X153315766Y-106461554D01*
X153229556Y-106485956D01*
X153174592Y-106494068D01*
X153081139Y-106500673D01*
X152991358Y-106498586D01*
X152908869Y-106488340D01*
X152837286Y-106470470D01*
X152780228Y-106445508D01*
X152741311Y-106413988D01*
X152739936Y-106412012D01*
X152732848Y-106386786D01*
X152728609Y-106339535D01*
X152727200Y-106270071D01*
X152728060Y-106207838D01*
X152732780Y-106160456D01*
X152744470Y-106128353D01*
X152766239Y-106108800D01*
X152801198Y-106099070D01*
X152852456Y-106096433D01*
X152923123Y-106098161D01*
X152971743Y-106101173D01*
X153021939Y-106109366D01*
X153054433Y-106123419D01*
X153071892Y-106144654D01*
X153076983Y-106174394D01*
X153076877Y-106178936D01*
X153068175Y-106213730D01*
X153044165Y-106237147D01*
X153002900Y-106250347D01*
X152942431Y-106254489D01*
X152873956Y-106254489D01*
X152873956Y-106292841D01*
X152874006Y-106301976D01*
X152876227Y-106319227D01*
X152885494Y-106329521D01*
X152906875Y-106336459D01*
X152945436Y-106343641D01*
X152950910Y-106344575D01*
X153047860Y-106354478D01*
X153137852Y-106351559D01*
X153218760Y-106336829D01*
X153288459Y-106311299D01*
X153344824Y-106275978D01*
X153385729Y-106231879D01*
X153409051Y-106180012D01*
X153412663Y-106121388D01*
X153407145Y-106092494D01*
X153380461Y-106036604D01*
X153334273Y-105990945D01*
X153269291Y-105956108D01*
X153186229Y-105932690D01*
X153161555Y-105928241D01*
X153072226Y-105917742D01*
X152992419Y-105918971D01*
X152914326Y-105931906D01*
X152879183Y-105938696D01*
X152833745Y-105939713D01*
X152802430Y-105927182D01*
X152782277Y-105900395D01*
X152775893Y-105872148D01*
X152785379Y-105840924D01*
X152794708Y-105827499D01*
X152828943Y-105803967D01*
X152881565Y-105786095D01*
X152950081Y-105774599D01*
X153032000Y-105770192D01*
X153129150Y-105774179D01*
G37*
%TD.AperFunction*%
X150769657Y-105769260D02*
X150693299Y-105770174D01*
X150634783Y-105772311D01*
X150591745Y-105776175D01*
X150561817Y-105782267D01*
X150542632Y-105791090D01*
X150531824Y-105803146D01*
X150527027Y-105818939D01*
X150525873Y-105838970D01*
X150525867Y-105841335D01*
X150526869Y-105863992D01*
X150531604Y-105881503D01*
X150542667Y-105894574D01*
X150562652Y-105903913D01*
X150594154Y-105910227D01*
X150639768Y-105914222D01*
X150702087Y-105916606D01*
X150783707Y-105918086D01*
X150808723Y-105918414D01*
X151050800Y-105921467D01*
X151054186Y-105986378D01*
X151057571Y-106051289D01*
X150889424Y-106051289D01*
X150823734Y-106051531D01*
X150776828Y-106052556D01*
X150744917Y-106054811D01*
X150724209Y-106058742D01*
X150710916Y-106064798D01*
X150701245Y-106073424D01*
X150701183Y-106073493D01*
X150683644Y-106107112D01*
X150684278Y-106143448D01*
X150702686Y-106174423D01*
X150706329Y-106177607D01*
X150719259Y-106185812D01*
X150736976Y-106191521D01*
X150763430Y-106195162D01*
X150802568Y-106197167D01*
X150858338Y-106197964D01*
X150894006Y-106198045D01*
X151056445Y-106198045D01*
X151056445Y-106356089D01*
X150809839Y-106356089D01*
X150728420Y-106356231D01*
X150666590Y-106356814D01*
X150621363Y-106358068D01*
X150589752Y-106360227D01*
X150568769Y-106363523D01*
X150555427Y-106368189D01*
X150546739Y-106374457D01*
X150544550Y-106376733D01*
X150528386Y-106408280D01*
X150527203Y-106444168D01*
X150540464Y-106475285D01*
X150550957Y-106485271D01*
X150561871Y-106490769D01*
X150578783Y-106495022D01*
X150604367Y-106498180D01*
X150641299Y-106500392D01*
X150692254Y-106501806D01*
X150759906Y-106502572D01*
X150846931Y-106502838D01*
X150866606Y-106502845D01*
X150955089Y-106502787D01*
X151023773Y-106502467D01*
X151075436Y-106501667D01*
X151112855Y-106500167D01*
X151138810Y-106497749D01*
X151156078Y-106494194D01*
X151167438Y-106489282D01*
X151175668Y-106482795D01*
X151180183Y-106478138D01*
X151186979Y-106469889D01*
X151192288Y-106459669D01*
X151196294Y-106444800D01*
X151199179Y-106422602D01*
X151201126Y-106390393D01*
X151202319Y-106345496D01*
X151202939Y-106285228D01*
X151203171Y-106206911D01*
X151203200Y-106140994D01*
X151203129Y-106048628D01*
X151202792Y-105976117D01*
X151202002Y-105920737D01*
X151200574Y-105879765D01*
X151198321Y-105850478D01*
X151195057Y-105830153D01*
X151190596Y-105816066D01*
X151184752Y-105805495D01*
X151179803Y-105798811D01*
X151156406Y-105769067D01*
X150866226Y-105769067D01*
X150769657Y-105769260D01*
%TA.AperFunction,EtchedComponent*%
G36*
X151179803Y-105798811D02*
G01*
X151184752Y-105805495D01*
X151190596Y-105816066D01*
X151195057Y-105830153D01*
X151198321Y-105850478D01*
X151200574Y-105879765D01*
X151202002Y-105920737D01*
X151202792Y-105976117D01*
X151203129Y-106048628D01*
X151203200Y-106140994D01*
X151203171Y-106206911D01*
X151202939Y-106285228D01*
X151202319Y-106345496D01*
X151201126Y-106390393D01*
X151199179Y-106422602D01*
X151196294Y-106444800D01*
X151192288Y-106459669D01*
X151186979Y-106469889D01*
X151180183Y-106478138D01*
X151175668Y-106482795D01*
X151167438Y-106489282D01*
X151156078Y-106494194D01*
X151138810Y-106497749D01*
X151112855Y-106500167D01*
X151075436Y-106501667D01*
X151023773Y-106502467D01*
X150955089Y-106502787D01*
X150866606Y-106502845D01*
X150846931Y-106502838D01*
X150759906Y-106502572D01*
X150692254Y-106501806D01*
X150641299Y-106500392D01*
X150604367Y-106498180D01*
X150578783Y-106495022D01*
X150561871Y-106490769D01*
X150550957Y-106485271D01*
X150540464Y-106475285D01*
X150527203Y-106444168D01*
X150528386Y-106408280D01*
X150544550Y-106376733D01*
X150546739Y-106374457D01*
X150555427Y-106368189D01*
X150568769Y-106363523D01*
X150589752Y-106360227D01*
X150621363Y-106358068D01*
X150666590Y-106356814D01*
X150728420Y-106356231D01*
X150809839Y-106356089D01*
X151056445Y-106356089D01*
X151056445Y-106198045D01*
X150894006Y-106198045D01*
X150858338Y-106197964D01*
X150802568Y-106197167D01*
X150763430Y-106195162D01*
X150736976Y-106191521D01*
X150719259Y-106185812D01*
X150706329Y-106177607D01*
X150702686Y-106174423D01*
X150684278Y-106143448D01*
X150683644Y-106107112D01*
X150701183Y-106073493D01*
X150701245Y-106073424D01*
X150710916Y-106064798D01*
X150724209Y-106058742D01*
X150744917Y-106054811D01*
X150776828Y-106052556D01*
X150823734Y-106051531D01*
X150889424Y-106051289D01*
X151057571Y-106051289D01*
X151054186Y-105986378D01*
X151050800Y-105921467D01*
X150808723Y-105918414D01*
X150783707Y-105918086D01*
X150702087Y-105916606D01*
X150639768Y-105914222D01*
X150594154Y-105910227D01*
X150562652Y-105903913D01*
X150542667Y-105894574D01*
X150531604Y-105881503D01*
X150526869Y-105863992D01*
X150525867Y-105841335D01*
X150525873Y-105838970D01*
X150527027Y-105818939D01*
X150531824Y-105803146D01*
X150542632Y-105791090D01*
X150561817Y-105782267D01*
X150591745Y-105776175D01*
X150634783Y-105772311D01*
X150693299Y-105770174D01*
X150769657Y-105769260D01*
X150866226Y-105769067D01*
X151156406Y-105769067D01*
X151179803Y-105798811D01*
G37*
%TD.AperFunction*%
X155712794Y-105769146D02*
X155643386Y-105769518D01*
X155590997Y-105770385D01*
X155552847Y-105771946D01*
X155526159Y-105774403D01*
X155508153Y-105777957D01*
X155496049Y-105782810D01*
X155487069Y-105789161D01*
X155483818Y-105792084D01*
X155464043Y-105823142D01*
X155460482Y-105858828D01*
X155473491Y-105890510D01*
X155479506Y-105896913D01*
X155489235Y-105903121D01*
X155504901Y-105907910D01*
X155529408Y-105911514D01*
X155565661Y-105914164D01*
X155616565Y-105916095D01*
X155685026Y-105917539D01*
X155747617Y-105918418D01*
X155995334Y-105921467D01*
X155998719Y-105986378D01*
X156002105Y-106051289D01*
X155833958Y-106051289D01*
X155760959Y-106051919D01*
X155707517Y-106054553D01*
X155670628Y-106060309D01*
X155647288Y-106070304D01*
X155634494Y-106085656D01*
X155629242Y-106107482D01*
X155628445Y-106127738D01*
X155630923Y-106152592D01*
X155640277Y-106170906D01*
X155659383Y-106183637D01*
X155691118Y-106191741D01*
X155738359Y-106196176D01*
X155803983Y-106197899D01*
X155839801Y-106198045D01*
X156000978Y-106198045D01*
X156000978Y-106356089D01*
X155752622Y-106356089D01*
X155671213Y-106356202D01*
X155609342Y-106356712D01*
X155563968Y-106357870D01*
X155532054Y-106359930D01*
X155510559Y-106363146D01*
X155496443Y-106367772D01*
X155486668Y-106374059D01*
X155481689Y-106378667D01*
X155464610Y-106405560D01*
X155459111Y-106429467D01*
X155466963Y-106458667D01*
X155481689Y-106480267D01*
X155489546Y-106487066D01*
X155499688Y-106492346D01*
X155514844Y-106496298D01*
X155537741Y-106499113D01*
X155571109Y-106500982D01*
X155617675Y-106502098D01*
X155680167Y-106502651D01*
X155761314Y-106502833D01*
X155803422Y-106502845D01*
X155893598Y-106502765D01*
X155963924Y-106502398D01*
X156017129Y-106501552D01*
X156055940Y-106500036D01*
X156083087Y-106497659D01*
X156101298Y-106494229D01*
X156113300Y-106489554D01*
X156121822Y-106483444D01*
X156125156Y-106480267D01*
X156131755Y-106472670D01*
X156136927Y-106462870D01*
X156140846Y-106448239D01*
X156143684Y-106426152D01*
X156145615Y-106393982D01*
X156146812Y-106349103D01*
X156147448Y-106288889D01*
X156147697Y-106210713D01*
X156147734Y-106137923D01*
X156147700Y-106044707D01*
X156147465Y-105971431D01*
X156146830Y-105915458D01*
X156145594Y-105874151D01*
X156143556Y-105844872D01*
X156140517Y-105824984D01*
X156136277Y-105811850D01*
X156130635Y-105802832D01*
X156123391Y-105795293D01*
X156121606Y-105793612D01*
X156112945Y-105786172D01*
X156102882Y-105780409D01*
X156088625Y-105776112D01*
X156067383Y-105773064D01*
X156036364Y-105771051D01*
X155992777Y-105769860D01*
X155933831Y-105769275D01*
X155856734Y-105769083D01*
X155802001Y-105769067D01*
X155712794Y-105769146D01*
%TA.AperFunction,EtchedComponent*%
G36*
X155856734Y-105769083D02*
G01*
X155933831Y-105769275D01*
X155992777Y-105769860D01*
X156036364Y-105771051D01*
X156067383Y-105773064D01*
X156088625Y-105776112D01*
X156102882Y-105780409D01*
X156112945Y-105786172D01*
X156121606Y-105793612D01*
X156123391Y-105795293D01*
X156130635Y-105802832D01*
X156136277Y-105811850D01*
X156140517Y-105824984D01*
X156143556Y-105844872D01*
X156145594Y-105874151D01*
X156146830Y-105915458D01*
X156147465Y-105971431D01*
X156147700Y-106044707D01*
X156147734Y-106137923D01*
X156147697Y-106210713D01*
X156147448Y-106288889D01*
X156146812Y-106349103D01*
X156145615Y-106393982D01*
X156143684Y-106426152D01*
X156140846Y-106448239D01*
X156136927Y-106462870D01*
X156131755Y-106472670D01*
X156125156Y-106480267D01*
X156121822Y-106483444D01*
X156113300Y-106489554D01*
X156101298Y-106494229D01*
X156083087Y-106497659D01*
X156055940Y-106500036D01*
X156017129Y-106501552D01*
X155963924Y-106502398D01*
X155893598Y-106502765D01*
X155803422Y-106502845D01*
X155761314Y-106502833D01*
X155680167Y-106502651D01*
X155617675Y-106502098D01*
X155571109Y-106500982D01*
X155537741Y-106499113D01*
X155514844Y-106496298D01*
X155499688Y-106492346D01*
X155489546Y-106487066D01*
X155481689Y-106480267D01*
X155466963Y-106458667D01*
X155459111Y-106429467D01*
X155464610Y-106405560D01*
X155481689Y-106378667D01*
X155486668Y-106374059D01*
X155496443Y-106367772D01*
X155510559Y-106363146D01*
X155532054Y-106359930D01*
X155563968Y-106357870D01*
X155609342Y-106356712D01*
X155671213Y-106356202D01*
X155752622Y-106356089D01*
X156000978Y-106356089D01*
X156000978Y-106198045D01*
X155839801Y-106198045D01*
X155803983Y-106197899D01*
X155738359Y-106196176D01*
X155691118Y-106191741D01*
X155659383Y-106183637D01*
X155640277Y-106170906D01*
X155630923Y-106152592D01*
X155628445Y-106127738D01*
X155629242Y-106107482D01*
X155634494Y-106085656D01*
X155647288Y-106070304D01*
X155670628Y-106060309D01*
X155707517Y-106054553D01*
X155760959Y-106051919D01*
X155833958Y-106051289D01*
X156002105Y-106051289D01*
X155998719Y-105986378D01*
X155995334Y-105921467D01*
X155747617Y-105918418D01*
X155685026Y-105917539D01*
X155616565Y-105916095D01*
X155565661Y-105914164D01*
X155529408Y-105911514D01*
X155504901Y-105907910D01*
X155489235Y-105903121D01*
X155479506Y-105896913D01*
X155473491Y-105890510D01*
X155460482Y-105858828D01*
X155464043Y-105823142D01*
X155483818Y-105792084D01*
X155487069Y-105789161D01*
X155496049Y-105782810D01*
X155508153Y-105777957D01*
X155526159Y-105774403D01*
X155552847Y-105771946D01*
X155590997Y-105770385D01*
X155643386Y-105769518D01*
X155712794Y-105769146D01*
X155802001Y-105769067D01*
X155856734Y-105769083D01*
G37*
%TD.AperFunction*%
X147255335Y-105771034D02*
X147235745Y-105778035D01*
X147234990Y-105778377D01*
X147208387Y-105798678D01*
X147193730Y-105819561D01*
X147190862Y-105829352D01*
X147191004Y-105842361D01*
X147195039Y-105860895D01*
X147203854Y-105887257D01*
X147218331Y-105923752D01*
X147239355Y-105972687D01*
X147267812Y-106036365D01*
X147304585Y-106117093D01*
X147324825Y-106161216D01*
X147361375Y-106239985D01*
X147395685Y-106312423D01*
X147426448Y-106375880D01*
X147452352Y-106427708D01*
X147472090Y-106465259D01*
X147484350Y-106485884D01*
X147486776Y-106488733D01*
X147517817Y-106501302D01*
X147552879Y-106499619D01*
X147581000Y-106484332D01*
X147582146Y-106483089D01*
X147593332Y-106466154D01*
X147612096Y-106433170D01*
X147636125Y-106388380D01*
X147663103Y-106336032D01*
X147672799Y-106316742D01*
X147745986Y-106170150D01*
X147825760Y-106329393D01*
X147854233Y-106384415D01*
X147880650Y-106432132D01*
X147902852Y-106468893D01*
X147918681Y-106491044D01*
X147924046Y-106495741D01*
X147965743Y-106502102D01*
X148000151Y-106488733D01*
X148010272Y-106474446D01*
X148027786Y-106442692D01*
X148051265Y-106396597D01*
X148079280Y-106339285D01*
X148110401Y-106273880D01*
X148143201Y-106203507D01*
X148176250Y-106131291D01*
X148208119Y-106060355D01*
X148237381Y-105993825D01*
X148262605Y-105934826D01*
X148282364Y-105886481D01*
X148295228Y-105851915D01*
X148299769Y-105834253D01*
X148299723Y-105833613D01*
X148288674Y-105811388D01*
X148266590Y-105788753D01*
X148265290Y-105787768D01*
X148238147Y-105772425D01*
X148213042Y-105772574D01*
X148203632Y-105775466D01*
X148192166Y-105781718D01*
X148179990Y-105794014D01*
X148165643Y-105814908D01*
X148147664Y-105846949D01*
X148124593Y-105892688D01*
X148094970Y-105954677D01*
X148068255Y-106011898D01*
X148037520Y-106078226D01*
X148009979Y-106137874D01*
X147987062Y-106187725D01*
X147970202Y-106224664D01*
X147960827Y-106245573D01*
X147959460Y-106248845D01*
X147953311Y-106243497D01*
X147939178Y-106221109D01*
X147918943Y-106184946D01*
X147894485Y-106138277D01*
X147884752Y-106119022D01*
X147851783Y-106054004D01*
X147826357Y-106006654D01*
X147806388Y-105974219D01*
X147789790Y-105953946D01*
X147774476Y-105943082D01*
X147758360Y-105938875D01*
X147747857Y-105938400D01*
X147729330Y-105940042D01*
X147713096Y-105946831D01*
X147696965Y-105961566D01*
X147678749Y-105987044D01*
X147656261Y-106026061D01*
X147627311Y-106081414D01*
X147611338Y-106112903D01*
X147585430Y-106163087D01*
X147562833Y-106204704D01*
X147545542Y-106234242D01*
X147535550Y-106248189D01*
X147534191Y-106248770D01*
X147527739Y-106237793D01*
X147513292Y-106209290D01*
X147492297Y-106166244D01*
X147466203Y-106111638D01*
X147436454Y-106048454D01*
X147421820Y-106017071D01*
X147383750Y-105936078D01*
X147353095Y-105873756D01*
X147328263Y-105828071D01*
X147307663Y-105796989D01*
X147289702Y-105778478D01*
X147272790Y-105770504D01*
X147255335Y-105771034D01*
%TA.AperFunction,EtchedComponent*%
G36*
X147289702Y-105778478D02*
G01*
X147307663Y-105796989D01*
X147328263Y-105828071D01*
X147353095Y-105873756D01*
X147383750Y-105936078D01*
X147421820Y-106017071D01*
X147436454Y-106048454D01*
X147466203Y-106111638D01*
X147492297Y-106166244D01*
X147513292Y-106209290D01*
X147527739Y-106237793D01*
X147534191Y-106248770D01*
X147535550Y-106248189D01*
X147545542Y-106234242D01*
X147562833Y-106204704D01*
X147585430Y-106163087D01*
X147611338Y-106112903D01*
X147627311Y-106081414D01*
X147656261Y-106026061D01*
X147678749Y-105987044D01*
X147696965Y-105961566D01*
X147713096Y-105946831D01*
X147729330Y-105940042D01*
X147747857Y-105938400D01*
X147758360Y-105938875D01*
X147774476Y-105943082D01*
X147789790Y-105953946D01*
X147806388Y-105974219D01*
X147826357Y-106006654D01*
X147851783Y-106054004D01*
X147884752Y-106119022D01*
X147894485Y-106138277D01*
X147918943Y-106184946D01*
X147939178Y-106221109D01*
X147953311Y-106243497D01*
X147959460Y-106248845D01*
X147960827Y-106245573D01*
X147970202Y-106224664D01*
X147987062Y-106187725D01*
X148009979Y-106137874D01*
X148037520Y-106078226D01*
X148068255Y-106011898D01*
X148094970Y-105954677D01*
X148124593Y-105892688D01*
X148147664Y-105846949D01*
X148165643Y-105814908D01*
X148179990Y-105794014D01*
X148192166Y-105781718D01*
X148203632Y-105775466D01*
X148213042Y-105772574D01*
X148238147Y-105772425D01*
X148265290Y-105787768D01*
X148266590Y-105788753D01*
X148288674Y-105811388D01*
X148299723Y-105833613D01*
X148299769Y-105834253D01*
X148295228Y-105851915D01*
X148282364Y-105886481D01*
X148262605Y-105934826D01*
X148237381Y-105993825D01*
X148208119Y-106060355D01*
X148176250Y-106131291D01*
X148143201Y-106203507D01*
X148110401Y-106273880D01*
X148079280Y-106339285D01*
X148051265Y-106396597D01*
X148027786Y-106442692D01*
X148010272Y-106474446D01*
X148000151Y-106488733D01*
X147965743Y-106502102D01*
X147924046Y-106495741D01*
X147918681Y-106491044D01*
X147902852Y-106468893D01*
X147880650Y-106432132D01*
X147854233Y-106384415D01*
X147825760Y-106329393D01*
X147745986Y-106170150D01*
X147672799Y-106316742D01*
X147663103Y-106336032D01*
X147636125Y-106388380D01*
X147612096Y-106433170D01*
X147593332Y-106466154D01*
X147582146Y-106483089D01*
X147581000Y-106484332D01*
X147552879Y-106499619D01*
X147517817Y-106501302D01*
X147486776Y-106488733D01*
X147484350Y-106485884D01*
X147472090Y-106465259D01*
X147452352Y-106427708D01*
X147426448Y-106375880D01*
X147395685Y-106312423D01*
X147361375Y-106239985D01*
X147324825Y-106161216D01*
X147304585Y-106117093D01*
X147267812Y-106036365D01*
X147239355Y-105972687D01*
X147218331Y-105923752D01*
X147203854Y-105887257D01*
X147195039Y-105860895D01*
X147191004Y-105842361D01*
X147190862Y-105829352D01*
X147193730Y-105819561D01*
X147208387Y-105798678D01*
X147234990Y-105778377D01*
X147235745Y-105778035D01*
X147255335Y-105771034D01*
X147272790Y-105770504D01*
X147289702Y-105778478D01*
G37*
%TD.AperFunction*%
X154691703Y-105770351D02*
X154616888Y-105775581D01*
X154547306Y-105783750D01*
X154487002Y-105794550D01*
X154440020Y-105807673D01*
X154410406Y-105822813D01*
X154405860Y-105827269D01*
X154390054Y-105861850D01*
X154394847Y-105897351D01*
X154419364Y-105927725D01*
X154420534Y-105928596D01*
X154434954Y-105937954D01*
X154450008Y-105942876D01*
X154471005Y-105943473D01*
X154503257Y-105939861D01*
X154552073Y-105932154D01*
X154556000Y-105931505D01*
X154628739Y-105922569D01*
X154707217Y-105918161D01*
X154785927Y-105918119D01*
X154859361Y-105922279D01*
X154922011Y-105930479D01*
X154968370Y-105942557D01*
X154971416Y-105943771D01*
X155005048Y-105962615D01*
X155016864Y-105981685D01*
X155007614Y-106000439D01*
X154978047Y-106018337D01*
X154928911Y-106034837D01*
X154860957Y-106049396D01*
X154815645Y-106056406D01*
X154721456Y-106069889D01*
X154646544Y-106082214D01*
X154587717Y-106094449D01*
X154541785Y-106107661D01*
X154505555Y-106122917D01*
X154475838Y-106141285D01*
X154449442Y-106163831D01*
X154428230Y-106185971D01*
X154403065Y-106216819D01*
X154390681Y-106243345D01*
X154386808Y-106276026D01*
X154386667Y-106287995D01*
X154389576Y-106327712D01*
X154401202Y-106357259D01*
X154421323Y-106383486D01*
X154462216Y-106423576D01*
X154507817Y-106454149D01*
X154561513Y-106476203D01*
X154626692Y-106490735D01*
X154706744Y-106498741D01*
X154805057Y-106501218D01*
X154821289Y-106501177D01*
X154886849Y-106499818D01*
X154951866Y-106496730D01*
X155009252Y-106492356D01*
X155051922Y-106487140D01*
X155055372Y-106486541D01*
X155097796Y-106476491D01*
X155133780Y-106463796D01*
X155154150Y-106452190D01*
X155173107Y-106421572D01*
X155174427Y-106385918D01*
X155158085Y-106354144D01*
X155154429Y-106350551D01*
X155139315Y-106339876D01*
X155120415Y-106335276D01*
X155091162Y-106336059D01*
X155055651Y-106340127D01*
X155015970Y-106343762D01*
X154960345Y-106346828D01*
X154895406Y-106349053D01*
X154827785Y-106350164D01*
X154810000Y-106350237D01*
X154742128Y-106349964D01*
X154692454Y-106348646D01*
X154656610Y-106345827D01*
X154630224Y-106341050D01*
X154608926Y-106333857D01*
X154596126Y-106327867D01*
X154568000Y-106311233D01*
X154550068Y-106296168D01*
X154547447Y-106291897D01*
X154552976Y-106274263D01*
X154579260Y-106257192D01*
X154624478Y-106241458D01*
X154686808Y-106227838D01*
X154705171Y-106224804D01*
X154801090Y-106209738D01*
X154877641Y-106197146D01*
X154937780Y-106186111D01*
X154984460Y-106175720D01*
X155020637Y-106165056D01*
X155049265Y-106153205D01*
X155073298Y-106139251D01*
X155095692Y-106122281D01*
X155119402Y-106101378D01*
X155127380Y-106094049D01*
X155155353Y-106066699D01*
X155170160Y-106045029D01*
X155175952Y-106020232D01*
X155176889Y-105988983D01*
X155166575Y-105927705D01*
X155135752Y-105875640D01*
X155084595Y-105832958D01*
X155013283Y-105799825D01*
X154962400Y-105784964D01*
X154907100Y-105775366D01*
X154840853Y-105769936D01*
X154767706Y-105768367D01*
X154691703Y-105770351D01*
%TA.AperFunction,EtchedComponent*%
G36*
X154840853Y-105769936D02*
G01*
X154907100Y-105775366D01*
X154962400Y-105784964D01*
X155013283Y-105799825D01*
X155084595Y-105832958D01*
X155135752Y-105875640D01*
X155166575Y-105927705D01*
X155176889Y-105988983D01*
X155175952Y-106020232D01*
X155170160Y-106045029D01*
X155155353Y-106066699D01*
X155127380Y-106094049D01*
X155119402Y-106101378D01*
X155095692Y-106122281D01*
X155073298Y-106139251D01*
X155049265Y-106153205D01*
X155020637Y-106165056D01*
X154984460Y-106175720D01*
X154937780Y-106186111D01*
X154877641Y-106197146D01*
X154801090Y-106209738D01*
X154705171Y-106224804D01*
X154686808Y-106227838D01*
X154624478Y-106241458D01*
X154579260Y-106257192D01*
X154552976Y-106274263D01*
X154547447Y-106291897D01*
X154550068Y-106296168D01*
X154568000Y-106311233D01*
X154596126Y-106327867D01*
X154608926Y-106333857D01*
X154630224Y-106341050D01*
X154656610Y-106345827D01*
X154692454Y-106348646D01*
X154742128Y-106349964D01*
X154810000Y-106350237D01*
X154827785Y-106350164D01*
X154895406Y-106349053D01*
X154960345Y-106346828D01*
X155015970Y-106343762D01*
X155055651Y-106340127D01*
X155091162Y-106336059D01*
X155120415Y-106335276D01*
X155139315Y-106339876D01*
X155154429Y-106350551D01*
X155158085Y-106354144D01*
X155174427Y-106385918D01*
X155173107Y-106421572D01*
X155154150Y-106452190D01*
X155133780Y-106463796D01*
X155097796Y-106476491D01*
X155055372Y-106486541D01*
X155051922Y-106487140D01*
X155009252Y-106492356D01*
X154951866Y-106496730D01*
X154886849Y-106499818D01*
X154821289Y-106501177D01*
X154805057Y-106501218D01*
X154706744Y-106498741D01*
X154626692Y-106490735D01*
X154561513Y-106476203D01*
X154507817Y-106454149D01*
X154462216Y-106423576D01*
X154421323Y-106383486D01*
X154401202Y-106357259D01*
X154389576Y-106327712D01*
X154386667Y-106287995D01*
X154386808Y-106276026D01*
X154390681Y-106243345D01*
X154403065Y-106216819D01*
X154428230Y-106185971D01*
X154449442Y-106163831D01*
X154475838Y-106141285D01*
X154505555Y-106122917D01*
X154541785Y-106107661D01*
X154587717Y-106094449D01*
X154646544Y-106082214D01*
X154721456Y-106069889D01*
X154815645Y-106056406D01*
X154860957Y-106049396D01*
X154928911Y-106034837D01*
X154978047Y-106018337D01*
X155007614Y-106000439D01*
X155016864Y-105981685D01*
X155005048Y-105962615D01*
X154971416Y-105943771D01*
X154968370Y-105942557D01*
X154922011Y-105930479D01*
X154859361Y-105922279D01*
X154785927Y-105918119D01*
X154707217Y-105918161D01*
X154628739Y-105922569D01*
X154556000Y-105931505D01*
X154552073Y-105932154D01*
X154503257Y-105939861D01*
X154471005Y-105943473D01*
X154450008Y-105942876D01*
X154434954Y-105937954D01*
X154420534Y-105928596D01*
X154419364Y-105927725D01*
X154394847Y-105897351D01*
X154390054Y-105861850D01*
X154405860Y-105827269D01*
X154410406Y-105822813D01*
X154440020Y-105807673D01*
X154487002Y-105794550D01*
X154547306Y-105783750D01*
X154616888Y-105775581D01*
X154691703Y-105770351D01*
X154767706Y-105768367D01*
X154840853Y-105769936D01*
G37*
%TD.AperFunction*%
X150671571Y-101449071D02*
X150511430Y-101470245D01*
X150347490Y-101510385D01*
X150177687Y-101569889D01*
X149999957Y-101649154D01*
X149988690Y-101654699D01*
X149930995Y-101682725D01*
X149879448Y-101706802D01*
X149837809Y-101725249D01*
X149809838Y-101736386D01*
X149800267Y-101738933D01*
X149781050Y-101743941D01*
X149776439Y-101748147D01*
X149781542Y-101758580D01*
X149797582Y-101784868D01*
X149822712Y-101824257D01*
X149855086Y-101873991D01*
X149892857Y-101931315D01*
X149934178Y-101993476D01*
X149977202Y-102057718D01*
X150020083Y-102121285D01*
X150060974Y-102181425D01*
X150098029Y-102235380D01*
X150129400Y-102280397D01*
X150153241Y-102313721D01*
X150167706Y-102332597D01*
X150169691Y-102334787D01*
X150179809Y-102330138D01*
X150202150Y-102312962D01*
X150232720Y-102286440D01*
X150248464Y-102271964D01*
X150344953Y-102196682D01*
X150451664Y-102141241D01*
X150567168Y-102106141D01*
X150690038Y-102091880D01*
X150759439Y-102093051D01*
X150880577Y-102110212D01*
X150989795Y-102146094D01*
X151087418Y-102200959D01*
X151173772Y-102275070D01*
X151249185Y-102368688D01*
X151313982Y-102482076D01*
X151351399Y-102568667D01*
X151395252Y-102704366D01*
X151427572Y-102851850D01*
X151448443Y-103007314D01*
X151457949Y-103166956D01*
X151456173Y-103326973D01*
X151443197Y-103483561D01*
X151419106Y-103632918D01*
X151383982Y-103771240D01*
X151337908Y-103894724D01*
X151321627Y-103928978D01*
X151253380Y-104043064D01*
X151172921Y-104139557D01*
X151081430Y-104217670D01*
X150980089Y-104276617D01*
X150870080Y-104315612D01*
X150752585Y-104333868D01*
X150711117Y-104335211D01*
X150589559Y-104324290D01*
X150469122Y-104291474D01*
X150351334Y-104237439D01*
X150237723Y-104162865D01*
X150146315Y-104084539D01*
X150099785Y-104040008D01*
X149918517Y-104337271D01*
X149873420Y-104411433D01*
X149832181Y-104479646D01*
X149796265Y-104539459D01*
X149767134Y-104588420D01*
X149746250Y-104624079D01*
X149735076Y-104643984D01*
X149733625Y-104647079D01*
X149741854Y-104656718D01*
X149767433Y-104673999D01*
X149807127Y-104697283D01*
X149857703Y-104724934D01*
X149915926Y-104755315D01*
X149978563Y-104786790D01*
X150042379Y-104817722D01*
X150104140Y-104846473D01*
X150160612Y-104871408D01*
X150208562Y-104890889D01*
X150232014Y-104899318D01*
X150365779Y-104937133D01*
X150503673Y-104962136D01*
X150651378Y-104975140D01*
X150778167Y-104977468D01*
X150846122Y-104976373D01*
X150911723Y-104974275D01*
X150969153Y-104971434D01*
X151012597Y-104968106D01*
X151026702Y-104966422D01*
X151165716Y-104937587D01*
X151307243Y-104892468D01*
X151444725Y-104833750D01*
X151571606Y-104764120D01*
X151649111Y-104711441D01*
X151776519Y-104603239D01*
X151894822Y-104476671D01*
X152001828Y-104334866D01*
X152095348Y-104180951D01*
X152173190Y-104018053D01*
X152217044Y-103900756D01*
X152267292Y-103717128D01*
X152300791Y-103522581D01*
X152317551Y-103321325D01*
X152317584Y-103117568D01*
X152300899Y-102915521D01*
X152267507Y-102719392D01*
X152217420Y-102533391D01*
X152213603Y-102521803D01*
X152150719Y-102359750D01*
X152073972Y-102211832D01*
X151980758Y-102073865D01*
X151868473Y-101941661D01*
X151824608Y-101896399D01*
X151688466Y-101772457D01*
X151548509Y-101669915D01*
X151402589Y-101587656D01*
X151248558Y-101524564D01*
X151084268Y-101479523D01*
X150988711Y-101462033D01*
X150829977Y-101446466D01*
X150671571Y-101449071D01*
%TA.AperFunction,EtchedComponent*%
G36*
X150988711Y-101462033D02*
G01*
X151084268Y-101479523D01*
X151248558Y-101524564D01*
X151402589Y-101587656D01*
X151548509Y-101669915D01*
X151688466Y-101772457D01*
X151824608Y-101896399D01*
X151868473Y-101941661D01*
X151980758Y-102073865D01*
X152073972Y-102211832D01*
X152150719Y-102359750D01*
X152213603Y-102521803D01*
X152217420Y-102533391D01*
X152267507Y-102719392D01*
X152300899Y-102915521D01*
X152317584Y-103117568D01*
X152317551Y-103321325D01*
X152300791Y-103522581D01*
X152267292Y-103717128D01*
X152217044Y-103900756D01*
X152173190Y-104018053D01*
X152095348Y-104180951D01*
X152001828Y-104334866D01*
X151894822Y-104476671D01*
X151776519Y-104603239D01*
X151649111Y-104711441D01*
X151571606Y-104764120D01*
X151444725Y-104833750D01*
X151307243Y-104892468D01*
X151165716Y-104937587D01*
X151026702Y-104966422D01*
X151012597Y-104968106D01*
X150969153Y-104971434D01*
X150911723Y-104974275D01*
X150846122Y-104976373D01*
X150778167Y-104977468D01*
X150651378Y-104975140D01*
X150503673Y-104962136D01*
X150365779Y-104937133D01*
X150232014Y-104899318D01*
X150208562Y-104890889D01*
X150160612Y-104871408D01*
X150104140Y-104846473D01*
X150042379Y-104817722D01*
X149978563Y-104786790D01*
X149915926Y-104755315D01*
X149857703Y-104724934D01*
X149807127Y-104697283D01*
X149767433Y-104673999D01*
X149741854Y-104656718D01*
X149733625Y-104647079D01*
X149735076Y-104643984D01*
X149746250Y-104624079D01*
X149767134Y-104588420D01*
X149796265Y-104539459D01*
X149832181Y-104479646D01*
X149873420Y-104411433D01*
X149918517Y-104337271D01*
X150099785Y-104040008D01*
X150146315Y-104084539D01*
X150237723Y-104162865D01*
X150351334Y-104237439D01*
X150469122Y-104291474D01*
X150589559Y-104324290D01*
X150711117Y-104335211D01*
X150752585Y-104333868D01*
X150870080Y-104315612D01*
X150980089Y-104276617D01*
X151081430Y-104217670D01*
X151172921Y-104139557D01*
X151253380Y-104043064D01*
X151321627Y-103928978D01*
X151337908Y-103894724D01*
X151383982Y-103771240D01*
X151419106Y-103632918D01*
X151443197Y-103483561D01*
X151456173Y-103326973D01*
X151457949Y-103166956D01*
X151448443Y-103007314D01*
X151427572Y-102851850D01*
X151395252Y-102704366D01*
X151351399Y-102568667D01*
X151313982Y-102482076D01*
X151249185Y-102368688D01*
X151173772Y-102275070D01*
X151087418Y-102200959D01*
X150989795Y-102146094D01*
X150880577Y-102110212D01*
X150759439Y-102093051D01*
X150690038Y-102091880D01*
X150567168Y-102106141D01*
X150451664Y-102141241D01*
X150344953Y-102196682D01*
X150248464Y-102271964D01*
X150232720Y-102286440D01*
X150202150Y-102312962D01*
X150179809Y-102330138D01*
X150169691Y-102334787D01*
X150167706Y-102332597D01*
X150153241Y-102313721D01*
X150129400Y-102280397D01*
X150098029Y-102235380D01*
X150060974Y-102181425D01*
X150020083Y-102121285D01*
X149977202Y-102057718D01*
X149934178Y-101993476D01*
X149892857Y-101931315D01*
X149855086Y-101873991D01*
X149822712Y-101824257D01*
X149797582Y-101784868D01*
X149781542Y-101758580D01*
X149776439Y-101748147D01*
X149781050Y-101743941D01*
X149800267Y-101738933D01*
X149809838Y-101736386D01*
X149837809Y-101725249D01*
X149879448Y-101706802D01*
X149930995Y-101682725D01*
X149988690Y-101654699D01*
X149999957Y-101649154D01*
X150177687Y-101569889D01*
X150347490Y-101510385D01*
X150511430Y-101470245D01*
X150671571Y-101449071D01*
X150829977Y-101446466D01*
X150988711Y-101462033D01*
G37*
%TD.AperFunction*%
X144813493Y-102972245D02*
X144813474Y-103206662D01*
X144813448Y-103419603D01*
X144813375Y-103612168D01*
X144813218Y-103785459D01*
X144812936Y-103940576D01*
X144812491Y-104078620D01*
X144811844Y-104200692D01*
X144810955Y-104307894D01*
X144809787Y-104401326D01*
X144808299Y-104482090D01*
X144806454Y-104551286D01*
X144804211Y-104610015D01*
X144801531Y-104659379D01*
X144798377Y-104700478D01*
X144794708Y-104734413D01*
X144790487Y-104762286D01*
X144785673Y-104785198D01*
X144780227Y-104804249D01*
X144774112Y-104820540D01*
X144767288Y-104835173D01*
X144759715Y-104849249D01*
X144751355Y-104863868D01*
X144746161Y-104872974D01*
X144711896Y-104933689D01*
X145570045Y-104933689D01*
X145570045Y-104837733D01*
X145570776Y-104794370D01*
X145572728Y-104761205D01*
X145575537Y-104743424D01*
X145576779Y-104741778D01*
X145588201Y-104748662D01*
X145610916Y-104766505D01*
X145633615Y-104785879D01*
X145688200Y-104826614D01*
X145757679Y-104867617D01*
X145834730Y-104905123D01*
X145912035Y-104935364D01*
X145942887Y-104945012D01*
X146011384Y-104959578D01*
X146094236Y-104969539D01*
X146183629Y-104974583D01*
X146271752Y-104974396D01*
X146350793Y-104968666D01*
X146388489Y-104962858D01*
X146526586Y-104924797D01*
X146653887Y-104867073D01*
X146769708Y-104790211D01*
X146873363Y-104694739D01*
X146964167Y-104581179D01*
X147030969Y-104470381D01*
X147085836Y-104353625D01*
X147127837Y-104234276D01*
X147157833Y-104108283D01*
X147176689Y-103971594D01*
X147185268Y-103820158D01*
X147185994Y-103742711D01*
X147183900Y-103685934D01*
X146354783Y-103685934D01*
X146354576Y-103779002D01*
X146351663Y-103866692D01*
X146346000Y-103943772D01*
X146337545Y-104005009D01*
X146334962Y-104017350D01*
X146303160Y-104124633D01*
X146261502Y-104211658D01*
X146209637Y-104278642D01*
X146147219Y-104325805D01*
X146073900Y-104353365D01*
X145989331Y-104361541D01*
X145893165Y-104350551D01*
X145829689Y-104334829D01*
X145780546Y-104316639D01*
X145726417Y-104290791D01*
X145685756Y-104267089D01*
X145615200Y-104220721D01*
X145615200Y-103070530D01*
X145682608Y-103026962D01*
X145761133Y-102986040D01*
X145845319Y-102959389D01*
X145930443Y-102947465D01*
X146011784Y-102950722D01*
X146084620Y-102969615D01*
X146116574Y-102985184D01*
X146174499Y-103028181D01*
X146223456Y-103084953D01*
X146264610Y-103157575D01*
X146299126Y-103248121D01*
X146328167Y-103358666D01*
X146329448Y-103364533D01*
X146339619Y-103426788D01*
X146347261Y-103504594D01*
X146352330Y-103592720D01*
X146354783Y-103685934D01*
X147183900Y-103685934D01*
X147178143Y-103529895D01*
X147156198Y-103334059D01*
X147120214Y-103155332D01*
X147070241Y-102993845D01*
X147006332Y-102849726D01*
X146928538Y-102723106D01*
X146836911Y-102614115D01*
X146731503Y-102522883D01*
X146686338Y-102491932D01*
X146585389Y-102435785D01*
X146482099Y-102396174D01*
X146372011Y-102372014D01*
X146250670Y-102362219D01*
X146158164Y-102363265D01*
X146028510Y-102374231D01*
X145915916Y-102396046D01*
X145817125Y-102429714D01*
X145728879Y-102476236D01*
X145680014Y-102510448D01*
X145650647Y-102532362D01*
X145628957Y-102547333D01*
X145620747Y-102551733D01*
X145619132Y-102540904D01*
X145617841Y-102510251D01*
X145616862Y-102462526D01*
X145616183Y-102400479D01*
X145615790Y-102326862D01*
X145615670Y-102244427D01*
X145615812Y-102155925D01*
X145616203Y-102064107D01*
X145616829Y-101971724D01*
X145617680Y-101881528D01*
X145618740Y-101796271D01*
X145619999Y-101718703D01*
X145621444Y-101651576D01*
X145623062Y-101597641D01*
X145624839Y-101559650D01*
X145625331Y-101552667D01*
X145632908Y-101482251D01*
X145644469Y-101427102D01*
X145662208Y-101379981D01*
X145688318Y-101333647D01*
X145694585Y-101324067D01*
X145719017Y-101287378D01*
X144813689Y-101287378D01*
X144813493Y-102972245D01*
%TA.AperFunction,EtchedComponent*%
G36*
X147185994Y-103742711D02*
G01*
X147185268Y-103820158D01*
X147176689Y-103971594D01*
X147157833Y-104108283D01*
X147127837Y-104234276D01*
X147085836Y-104353625D01*
X147030969Y-104470381D01*
X146964167Y-104581179D01*
X146873363Y-104694739D01*
X146769708Y-104790211D01*
X146653887Y-104867073D01*
X146526586Y-104924797D01*
X146388489Y-104962858D01*
X146350793Y-104968666D01*
X146271752Y-104974396D01*
X146183629Y-104974583D01*
X146094236Y-104969539D01*
X146011384Y-104959578D01*
X145942887Y-104945012D01*
X145912035Y-104935364D01*
X145834730Y-104905123D01*
X145757679Y-104867617D01*
X145688200Y-104826614D01*
X145633615Y-104785879D01*
X145610916Y-104766505D01*
X145588201Y-104748662D01*
X145576779Y-104741778D01*
X145575537Y-104743424D01*
X145572728Y-104761205D01*
X145570776Y-104794370D01*
X145570045Y-104837733D01*
X145570045Y-104933689D01*
X144711896Y-104933689D01*
X144746161Y-104872974D01*
X144751355Y-104863868D01*
X144759715Y-104849249D01*
X144767288Y-104835173D01*
X144774112Y-104820540D01*
X144780227Y-104804249D01*
X144785673Y-104785198D01*
X144790487Y-104762286D01*
X144794708Y-104734413D01*
X144798377Y-104700478D01*
X144801531Y-104659379D01*
X144804211Y-104610015D01*
X144806454Y-104551286D01*
X144808299Y-104482090D01*
X144809787Y-104401326D01*
X144810955Y-104307894D01*
X144811844Y-104200692D01*
X144812491Y-104078620D01*
X144812936Y-103940576D01*
X144813218Y-103785459D01*
X144813375Y-103612168D01*
X144813448Y-103419603D01*
X144813474Y-103206662D01*
X144813485Y-103070530D01*
X145615200Y-103070530D01*
X145615200Y-104220721D01*
X145685756Y-104267089D01*
X145726417Y-104290791D01*
X145780546Y-104316639D01*
X145829689Y-104334829D01*
X145893165Y-104350551D01*
X145989331Y-104361541D01*
X146073900Y-104353365D01*
X146147219Y-104325805D01*
X146209637Y-104278642D01*
X146261502Y-104211658D01*
X146303160Y-104124633D01*
X146334962Y-104017350D01*
X146337545Y-104005009D01*
X146346000Y-103943772D01*
X146351663Y-103866692D01*
X146354576Y-103779002D01*
X146354783Y-103685934D01*
X146352330Y-103592720D01*
X146347261Y-103504594D01*
X146339619Y-103426788D01*
X146329448Y-103364533D01*
X146328167Y-103358666D01*
X146299126Y-103248121D01*
X146264610Y-103157575D01*
X146223456Y-103084953D01*
X146174499Y-103028181D01*
X146116574Y-102985184D01*
X146084620Y-102969615D01*
X146011784Y-102950722D01*
X145930443Y-102947465D01*
X145845319Y-102959389D01*
X145761133Y-102986040D01*
X145682608Y-103026962D01*
X145615200Y-103070530D01*
X144813485Y-103070530D01*
X144813493Y-102972245D01*
X144813689Y-101287378D01*
X145719017Y-101287378D01*
X145694585Y-101324067D01*
X145688318Y-101333647D01*
X145662208Y-101379981D01*
X145644469Y-101427102D01*
X145632908Y-101482251D01*
X145625331Y-101552667D01*
X145624839Y-101559650D01*
X145623062Y-101597641D01*
X145621444Y-101651576D01*
X145619999Y-101718703D01*
X145618740Y-101796271D01*
X145617680Y-101881528D01*
X145616829Y-101971724D01*
X145616203Y-102064107D01*
X145615812Y-102155925D01*
X145615670Y-102244427D01*
X145615790Y-102326862D01*
X145616183Y-102400479D01*
X145616862Y-102462526D01*
X145617841Y-102510251D01*
X145619132Y-102540904D01*
X145620747Y-102551733D01*
X145628957Y-102547333D01*
X145650647Y-102532362D01*
X145680014Y-102510448D01*
X145728879Y-102476236D01*
X145817125Y-102429714D01*
X145915916Y-102396046D01*
X146028510Y-102374231D01*
X146158164Y-102363265D01*
X146250670Y-102362219D01*
X146372011Y-102372014D01*
X146482099Y-102396174D01*
X146585389Y-102435785D01*
X146686338Y-102491932D01*
X146731503Y-102522883D01*
X146836911Y-102614115D01*
X146928538Y-102723106D01*
X147006332Y-102849726D01*
X147070241Y-102993845D01*
X147120214Y-103155332D01*
X147156198Y-103334059D01*
X147178143Y-103529895D01*
X147183900Y-103685934D01*
X147185994Y-103742711D01*
G37*
%TD.AperFunction*%
X148326426Y-102366552D02*
X148174508Y-102386567D01*
X148039244Y-102420202D01*
X147919761Y-102467725D01*
X147815185Y-102529405D01*
X147737576Y-102592965D01*
X147668735Y-102667099D01*
X147614994Y-102746871D01*
X147572090Y-102839091D01*
X147556616Y-102882161D01*
X147543756Y-102921142D01*
X147532554Y-102957289D01*
X147522880Y-102992434D01*
X147514604Y-103028410D01*
X147507597Y-103067050D01*
X147501728Y-103110185D01*
X147496869Y-103159649D01*
X147492890Y-103217273D01*
X147489660Y-103284891D01*
X147487051Y-103364334D01*
X147484933Y-103457436D01*
X147483176Y-103566027D01*
X147481651Y-103691942D01*
X147480228Y-103837012D01*
X147478975Y-103979778D01*
X147477649Y-104135968D01*
X147476444Y-104271239D01*
X147475234Y-104387246D01*
X147473894Y-104485645D01*
X147472300Y-104568093D01*
X147470325Y-104636246D01*
X147467844Y-104691760D01*
X147464731Y-104736292D01*
X147460862Y-104771498D01*
X147456111Y-104799034D01*
X147450352Y-104820556D01*
X147443461Y-104837722D01*
X147435311Y-104852186D01*
X147425777Y-104865606D01*
X147414734Y-104879638D01*
X147410434Y-104885071D01*
X147394614Y-104907910D01*
X147387578Y-104923463D01*
X147387556Y-104923922D01*
X147398433Y-104926121D01*
X147429418Y-104928147D01*
X147478043Y-104929942D01*
X147541837Y-104931451D01*
X147618331Y-104932616D01*
X147705056Y-104933380D01*
X147799543Y-104933686D01*
X147810450Y-104933689D01*
X148233343Y-104933689D01*
X148236605Y-104837622D01*
X148239867Y-104741556D01*
X148301956Y-104792543D01*
X148399286Y-104860057D01*
X148509187Y-104914749D01*
X148595651Y-104944978D01*
X148664722Y-104959666D01*
X148748075Y-104969659D01*
X148837841Y-104974646D01*
X148926155Y-104974313D01*
X149005149Y-104968351D01*
X149041378Y-104962638D01*
X149181397Y-104924776D01*
X149307822Y-104869932D01*
X149419740Y-104798924D01*
X149516238Y-104712568D01*
X149596400Y-104611679D01*
X149659313Y-104497076D01*
X149703688Y-104370984D01*
X149716022Y-104314401D01*
X149723632Y-104252202D01*
X149727261Y-104177363D01*
X149727755Y-104143467D01*
X149727690Y-104140282D01*
X148967752Y-104140282D01*
X148958459Y-104215333D01*
X148930272Y-104279160D01*
X148881803Y-104334798D01*
X148876746Y-104339211D01*
X148828452Y-104374037D01*
X148776743Y-104396620D01*
X148716011Y-104408540D01*
X148640648Y-104411383D01*
X148622541Y-104410978D01*
X148568722Y-104408325D01*
X148528692Y-104402909D01*
X148493676Y-104392745D01*
X148454897Y-104375850D01*
X148444255Y-104370672D01*
X148383604Y-104334844D01*
X148336785Y-104292212D01*
X148324048Y-104276973D01*
X148279378Y-104220462D01*
X148279378Y-104024586D01*
X148279914Y-103945939D01*
X148281604Y-103887988D01*
X148284572Y-103848875D01*
X148288943Y-103826741D01*
X148293028Y-103820274D01*
X148308953Y-103817111D01*
X148342736Y-103814488D01*
X148389660Y-103812655D01*
X148445007Y-103811857D01*
X148453894Y-103811842D01*
X148574670Y-103817096D01*
X148677340Y-103833263D01*
X148763894Y-103860961D01*
X148836319Y-103900808D01*
X148891249Y-103947758D01*
X148935796Y-104005645D01*
X148960520Y-104068693D01*
X148967752Y-104140282D01*
X149727690Y-104140282D01*
X149725822Y-104049712D01*
X149717478Y-103970812D01*
X149701232Y-103899590D01*
X149675595Y-103828864D01*
X149651599Y-103776493D01*
X149592980Y-103681196D01*
X149514883Y-103593170D01*
X149419685Y-103514017D01*
X149309762Y-103445340D01*
X149187490Y-103388741D01*
X149055245Y-103345821D01*
X148990578Y-103330882D01*
X148854396Y-103308777D01*
X148705951Y-103294194D01*
X148554495Y-103287813D01*
X148427936Y-103289445D01*
X148266050Y-103296224D01*
X148273470Y-103237245D01*
X148292762Y-103138092D01*
X148323896Y-103057372D01*
X148367731Y-102994466D01*
X148425129Y-102948756D01*
X148496952Y-102919622D01*
X148584059Y-102906447D01*
X148687314Y-102908611D01*
X148725289Y-102912612D01*
X148866480Y-102937780D01*
X149003293Y-102978814D01*
X149097822Y-103016815D01*
X149142982Y-103036190D01*
X149181415Y-103051760D01*
X149207766Y-103061405D01*
X149215454Y-103063452D01*
X149225198Y-103054374D01*
X149241917Y-103025405D01*
X149265768Y-102976217D01*
X149296907Y-102906484D01*
X149335493Y-102815879D01*
X149342090Y-102800089D01*
X149372147Y-102727772D01*
X149399126Y-102662425D01*
X149421864Y-102606906D01*
X149439194Y-102564072D01*
X149449952Y-102536781D01*
X149453059Y-102527942D01*
X149443060Y-102523187D01*
X149416783Y-102517910D01*
X149388511Y-102514231D01*
X149358354Y-102509474D01*
X149310567Y-102500028D01*
X149249388Y-102486820D01*
X149179054Y-102470776D01*
X149103806Y-102452820D01*
X149075245Y-102445797D01*
X148970184Y-102420209D01*
X148882520Y-102400147D01*
X148807932Y-102384969D01*
X148742097Y-102374035D01*
X148680693Y-102366704D01*
X148619398Y-102362335D01*
X148553890Y-102360287D01*
X148495872Y-102359889D01*
X148326426Y-102366552D01*
%TA.AperFunction,EtchedComponent*%
G36*
X149727755Y-104143467D02*
G01*
X149727261Y-104177363D01*
X149723632Y-104252202D01*
X149716022Y-104314401D01*
X149703688Y-104370984D01*
X149659313Y-104497076D01*
X149596400Y-104611679D01*
X149516238Y-104712568D01*
X149419740Y-104798924D01*
X149307822Y-104869932D01*
X149181397Y-104924776D01*
X149041378Y-104962638D01*
X149005149Y-104968351D01*
X148926155Y-104974313D01*
X148837841Y-104974646D01*
X148748075Y-104969659D01*
X148664722Y-104959666D01*
X148595651Y-104944978D01*
X148509187Y-104914749D01*
X148399286Y-104860057D01*
X148301956Y-104792543D01*
X148239867Y-104741556D01*
X148236605Y-104837622D01*
X148233343Y-104933689D01*
X147810450Y-104933689D01*
X147799543Y-104933686D01*
X147705056Y-104933380D01*
X147618331Y-104932616D01*
X147541837Y-104931451D01*
X147478043Y-104929942D01*
X147429418Y-104928147D01*
X147398433Y-104926121D01*
X147387556Y-104923922D01*
X147387578Y-104923463D01*
X147394614Y-104907910D01*
X147410434Y-104885071D01*
X147414734Y-104879638D01*
X147425777Y-104865606D01*
X147435311Y-104852186D01*
X147443461Y-104837722D01*
X147450352Y-104820556D01*
X147456111Y-104799034D01*
X147460862Y-104771498D01*
X147464731Y-104736292D01*
X147467844Y-104691760D01*
X147470325Y-104636246D01*
X147472300Y-104568093D01*
X147473894Y-104485645D01*
X147475234Y-104387246D01*
X147476444Y-104271239D01*
X147477649Y-104135968D01*
X147478595Y-104024586D01*
X148279378Y-104024586D01*
X148279378Y-104220462D01*
X148324048Y-104276973D01*
X148336785Y-104292212D01*
X148383604Y-104334844D01*
X148444255Y-104370672D01*
X148454897Y-104375850D01*
X148493676Y-104392745D01*
X148528692Y-104402909D01*
X148568722Y-104408325D01*
X148622541Y-104410978D01*
X148640648Y-104411383D01*
X148716011Y-104408540D01*
X148776743Y-104396620D01*
X148828452Y-104374037D01*
X148876746Y-104339211D01*
X148881803Y-104334798D01*
X148930272Y-104279160D01*
X148958459Y-104215333D01*
X148967752Y-104140282D01*
X148960520Y-104068693D01*
X148935796Y-104005645D01*
X148891249Y-103947758D01*
X148836319Y-103900808D01*
X148763894Y-103860961D01*
X148677340Y-103833263D01*
X148574670Y-103817096D01*
X148453894Y-103811842D01*
X148445007Y-103811857D01*
X148389660Y-103812655D01*
X148342736Y-103814488D01*
X148308953Y-103817111D01*
X148293028Y-103820274D01*
X148288943Y-103826741D01*
X148284572Y-103848875D01*
X148281604Y-103887988D01*
X148279914Y-103945939D01*
X148279378Y-104024586D01*
X147478595Y-104024586D01*
X147478975Y-103979778D01*
X147480228Y-103837012D01*
X147481651Y-103691942D01*
X147483176Y-103566027D01*
X147484933Y-103457436D01*
X147487051Y-103364334D01*
X147489660Y-103284891D01*
X147492890Y-103217273D01*
X147496869Y-103159649D01*
X147501728Y-103110185D01*
X147507597Y-103067050D01*
X147514604Y-103028410D01*
X147522880Y-102992434D01*
X147532554Y-102957289D01*
X147543756Y-102921142D01*
X147556616Y-102882161D01*
X147572090Y-102839091D01*
X147614994Y-102746871D01*
X147668735Y-102667099D01*
X147737576Y-102592965D01*
X147815185Y-102529405D01*
X147919761Y-102467725D01*
X148039244Y-102420202D01*
X148174508Y-102386567D01*
X148326426Y-102366552D01*
X148495872Y-102359889D01*
X148553890Y-102360287D01*
X148619398Y-102362335D01*
X148680693Y-102366704D01*
X148742097Y-102374035D01*
X148807932Y-102384969D01*
X148882520Y-102400147D01*
X148970184Y-102420209D01*
X149075245Y-102445797D01*
X149103806Y-102452820D01*
X149179054Y-102470776D01*
X149249388Y-102486820D01*
X149310567Y-102500028D01*
X149358354Y-102509474D01*
X149388511Y-102514231D01*
X149416783Y-102517910D01*
X149443060Y-102523187D01*
X149453059Y-102527942D01*
X149449952Y-102536781D01*
X149439194Y-102564072D01*
X149421864Y-102606906D01*
X149399126Y-102662425D01*
X149372147Y-102727772D01*
X149342090Y-102800089D01*
X149335493Y-102815879D01*
X149296907Y-102906484D01*
X149265768Y-102976217D01*
X149241917Y-103025405D01*
X149225198Y-103054374D01*
X149215454Y-103063452D01*
X149207766Y-103061405D01*
X149181415Y-103051760D01*
X149142982Y-103036190D01*
X149097822Y-103016815D01*
X149003293Y-102978814D01*
X148866480Y-102937780D01*
X148725289Y-102912612D01*
X148687314Y-102908611D01*
X148584059Y-102906447D01*
X148496952Y-102919622D01*
X148425129Y-102948756D01*
X148367731Y-102994466D01*
X148323896Y-103057372D01*
X148292762Y-103138092D01*
X148273470Y-103237245D01*
X148266050Y-103296224D01*
X148427936Y-103289445D01*
X148554495Y-103287813D01*
X148705951Y-103294194D01*
X148854396Y-103308777D01*
X148990578Y-103330882D01*
X149055245Y-103345821D01*
X149187490Y-103388741D01*
X149309762Y-103445340D01*
X149419685Y-103514017D01*
X149514883Y-103593170D01*
X149592980Y-103681196D01*
X149651599Y-103776493D01*
X149675595Y-103828864D01*
X149701232Y-103899590D01*
X149717478Y-103970812D01*
X149725822Y-104049712D01*
X149727690Y-104140282D01*
X149727755Y-104143467D01*
G37*
%TD.AperFunction*%
X153946400Y-100989054D02*
X153935535Y-101102993D01*
X153903918Y-101210616D01*
X153853015Y-101309615D01*
X153784293Y-101397684D01*
X153699219Y-101472516D01*
X153602232Y-101530384D01*
X153495964Y-101570005D01*
X153388950Y-101588573D01*
X153283300Y-101587434D01*
X153181125Y-101567930D01*
X153084534Y-101531406D01*
X152995638Y-101479205D01*
X152916546Y-101412673D01*
X152849369Y-101333152D01*
X152796217Y-101241987D01*
X152759199Y-101140523D01*
X152740427Y-101030102D01*
X152738489Y-100980206D01*
X152738489Y-100892267D01*
X152686560Y-100892267D01*
X152650253Y-100895111D01*
X152623355Y-100906911D01*
X152596249Y-100930649D01*
X152557867Y-100969031D01*
X152557867Y-103160602D01*
X152557876Y-103422739D01*
X152557908Y-103663241D01*
X152557972Y-103883048D01*
X152558076Y-104083101D01*
X152558227Y-104264344D01*
X152558434Y-104427716D01*
X152558706Y-104574160D01*
X152559050Y-104704617D01*
X152559474Y-104820029D01*
X152559987Y-104921338D01*
X152560597Y-105009484D01*
X152561312Y-105085410D01*
X152562140Y-105150057D01*
X152563089Y-105204367D01*
X152564167Y-105249280D01*
X152565383Y-105285740D01*
X152566745Y-105314687D01*
X152568261Y-105337063D01*
X152569938Y-105353809D01*
X152571786Y-105365868D01*
X152573813Y-105374180D01*
X152576025Y-105379687D01*
X152577108Y-105381537D01*
X152581271Y-105388549D01*
X152584805Y-105394996D01*
X152588635Y-105400900D01*
X152593682Y-105406286D01*
X152600871Y-105411178D01*
X152611123Y-105415598D01*
X152625364Y-105419572D01*
X152644514Y-105423121D01*
X152669499Y-105426270D01*
X152701240Y-105429042D01*
X152740662Y-105431461D01*
X152788686Y-105433551D01*
X152846237Y-105435335D01*
X152914237Y-105436837D01*
X152993610Y-105438080D01*
X153085279Y-105439089D01*
X153190166Y-105439885D01*
X153309196Y-105440494D01*
X153443290Y-105440939D01*
X153593373Y-105441243D01*
X153760367Y-105441430D01*
X153945196Y-105441524D01*
X154148783Y-105441548D01*
X154372050Y-105441525D01*
X154615922Y-105441480D01*
X154881321Y-105441437D01*
X154919704Y-105441432D01*
X155186682Y-105441389D01*
X155432002Y-105441318D01*
X155656583Y-105441213D01*
X155861345Y-105441066D01*
X156047206Y-105440869D01*
X156215088Y-105440616D01*
X156365908Y-105440300D01*
X156500587Y-105439913D01*
X156620044Y-105439447D01*
X156725199Y-105438897D01*
X156816971Y-105438253D01*
X156896279Y-105437511D01*
X156964043Y-105436661D01*
X157021182Y-105435697D01*
X157068617Y-105434611D01*
X157107266Y-105433397D01*
X157138049Y-105432047D01*
X157161885Y-105430555D01*
X157179694Y-105428911D01*
X157192395Y-105427111D01*
X157200908Y-105425145D01*
X157205266Y-105423477D01*
X157213728Y-105419906D01*
X157221497Y-105417270D01*
X157228602Y-105414634D01*
X157235073Y-105411062D01*
X157240939Y-105405621D01*
X157246229Y-105397375D01*
X157250974Y-105385390D01*
X157255202Y-105368731D01*
X157258943Y-105346463D01*
X157262227Y-105317652D01*
X157265083Y-105281363D01*
X157267540Y-105236661D01*
X157269629Y-105182611D01*
X157271378Y-105118279D01*
X157272817Y-105042730D01*
X157273976Y-104955030D01*
X157274883Y-104854243D01*
X157275569Y-104739434D01*
X157276063Y-104609670D01*
X157276395Y-104464015D01*
X157276593Y-104301535D01*
X157276687Y-104121295D01*
X157276708Y-103922360D01*
X157276685Y-103703796D01*
X157276646Y-103464668D01*
X157276622Y-103204040D01*
X157276622Y-103161889D01*
X157276636Y-102898992D01*
X157276661Y-102657732D01*
X157276671Y-102437165D01*
X157276642Y-102236352D01*
X157276548Y-102054349D01*
X157276362Y-101890216D01*
X157276059Y-101743011D01*
X157275614Y-101611792D01*
X157275034Y-101501867D01*
X156972197Y-101501867D01*
X156932407Y-101559711D01*
X156921236Y-101575479D01*
X156911166Y-101589441D01*
X156902138Y-101602784D01*
X156894097Y-101616693D01*
X156886986Y-101632356D01*
X156880747Y-101650958D01*
X156875325Y-101673686D01*
X156870662Y-101701727D01*
X156866701Y-101736267D01*
X156863385Y-101778492D01*
X156860659Y-101829589D01*
X156858464Y-101890744D01*
X156856745Y-101963144D01*
X156855444Y-102047975D01*
X156854505Y-102146422D01*
X156853870Y-102259674D01*
X156853484Y-102388916D01*
X156853288Y-102535334D01*
X156853227Y-102700116D01*
X156853243Y-102884447D01*
X156853280Y-103089513D01*
X156853289Y-103212133D01*
X156853265Y-103429082D01*
X156853231Y-103624642D01*
X156853243Y-103799999D01*
X156853358Y-103956341D01*
X156853630Y-104094857D01*
X156854118Y-104216734D01*
X156854876Y-104323160D01*
X156855962Y-104415322D01*
X156857431Y-104494409D01*
X156859340Y-104561608D01*
X156861744Y-104618107D01*
X156864701Y-104665093D01*
X156868266Y-104703755D01*
X156872495Y-104735280D01*
X156877446Y-104760855D01*
X156883173Y-104781670D01*
X156889733Y-104798911D01*
X156897183Y-104813765D01*
X156905579Y-104827422D01*
X156914976Y-104841069D01*
X156925432Y-104855893D01*
X156931523Y-104864783D01*
X156970296Y-104922400D01*
X156438732Y-104922400D01*
X156315483Y-104922365D01*
X156212987Y-104922215D01*
X156129420Y-104921878D01*
X156062956Y-104921286D01*
X156011771Y-104920367D01*
X155974041Y-104919051D01*
X155947940Y-104917269D01*
X155931644Y-104914951D01*
X155923328Y-104912026D01*
X155921168Y-104908424D01*
X155923339Y-104904075D01*
X155924535Y-104902645D01*
X155949685Y-104865573D01*
X155975583Y-104812772D01*
X155999192Y-104750770D01*
X156007461Y-104724357D01*
X156012078Y-104706416D01*
X156015979Y-104685355D01*
X156019248Y-104659089D01*
X156021966Y-104625532D01*
X156024215Y-104582599D01*
X156026077Y-104528204D01*
X156027636Y-104460262D01*
X156028972Y-104376688D01*
X156030169Y-104275395D01*
X156031308Y-104154300D01*
X156031685Y-104109600D01*
X156032702Y-103984449D01*
X156033460Y-103880082D01*
X156033903Y-103794707D01*
X156033970Y-103726533D01*
X156033605Y-103673765D01*
X156032748Y-103634614D01*
X156031341Y-103607285D01*
X156029325Y-103589986D01*
X156026643Y-103580926D01*
X156023236Y-103578312D01*
X156019044Y-103580351D01*
X156014571Y-103584667D01*
X156004216Y-103597602D01*
X155982158Y-103626676D01*
X155949957Y-103669759D01*
X155909174Y-103724718D01*
X155861370Y-103789423D01*
X155808105Y-103861742D01*
X155750940Y-103939544D01*
X155691437Y-104020698D01*
X155631155Y-104103072D01*
X155571655Y-104184536D01*
X155514498Y-104262957D01*
X155461245Y-104336204D01*
X155413457Y-104402147D01*
X155372693Y-104458654D01*
X155340516Y-104503593D01*
X155318485Y-104534834D01*
X155313917Y-104541466D01*
X155290996Y-104578369D01*
X155264188Y-104626359D01*
X155238789Y-104675897D01*
X155235568Y-104682577D01*
X155213890Y-104730772D01*
X155201304Y-104768334D01*
X155195574Y-104804160D01*
X155194456Y-104846200D01*
X155195090Y-104922400D01*
X154040651Y-104922400D01*
X154131815Y-104828669D01*
X154178612Y-104778775D01*
X154228899Y-104722295D01*
X154274944Y-104668026D01*
X154295369Y-104642673D01*
X154325807Y-104603128D01*
X154365862Y-104549916D01*
X154414361Y-104484667D01*
X154470135Y-104409011D01*
X154532011Y-104324577D01*
X154598819Y-104232994D01*
X154669387Y-104135892D01*
X154742545Y-104034901D01*
X154817121Y-103931650D01*
X154891944Y-103827768D01*
X154965843Y-103724885D01*
X155037646Y-103624631D01*
X155106184Y-103528636D01*
X155170284Y-103438527D01*
X155228775Y-103355936D01*
X155280486Y-103282492D01*
X155324247Y-103219824D01*
X155358885Y-103169561D01*
X155383230Y-103133334D01*
X155396111Y-103112771D01*
X155397869Y-103108668D01*
X155389910Y-103097342D01*
X155369115Y-103070162D01*
X155336847Y-103028829D01*
X155294470Y-102975044D01*
X155243347Y-102910506D01*
X155184841Y-102836918D01*
X155120314Y-102755978D01*
X155051131Y-102669388D01*
X154978653Y-102578848D01*
X154904246Y-102486060D01*
X154844517Y-102411702D01*
X153833511Y-102411702D01*
X153827602Y-102424659D01*
X153813272Y-102446908D01*
X153812225Y-102448391D01*
X153793438Y-102478544D01*
X153773791Y-102515375D01*
X153769892Y-102523511D01*
X153766356Y-102531940D01*
X153763230Y-102542059D01*
X153760486Y-102555260D01*
X153758092Y-102572938D01*
X153756019Y-102596484D01*
X153754235Y-102627293D01*
X153752712Y-102666757D01*
X153751419Y-102716269D01*
X153750326Y-102777223D01*
X153749403Y-102851011D01*
X153748619Y-102939028D01*
X153747945Y-103042665D01*
X153747350Y-103163316D01*
X153746805Y-103302374D01*
X153746279Y-103461232D01*
X153745745Y-103640089D01*
X153745206Y-103825207D01*
X153744772Y-103989145D01*
X153744509Y-104133303D01*
X153744484Y-104259079D01*
X153744765Y-104367871D01*
X153745419Y-104461077D01*
X153746514Y-104540097D01*
X153748118Y-104606328D01*
X153750297Y-104661170D01*
X153753119Y-104706021D01*
X153756651Y-104742278D01*
X153760961Y-104771341D01*
X153766117Y-104794609D01*
X153772185Y-104813479D01*
X153779233Y-104829351D01*
X153787329Y-104843622D01*
X153796540Y-104857691D01*
X153805040Y-104870158D01*
X153822176Y-104896452D01*
X153832322Y-104914037D01*
X153833511Y-104917257D01*
X153822604Y-104918334D01*
X153791411Y-104919335D01*
X153742223Y-104920235D01*
X153677333Y-104921010D01*
X153599030Y-104921637D01*
X153509607Y-104922091D01*
X153411356Y-104922349D01*
X153342445Y-104922400D01*
X153237452Y-104922180D01*
X153140610Y-104921548D01*
X153054107Y-104920549D01*
X152980132Y-104919227D01*
X152920874Y-104917626D01*
X152878520Y-104915791D01*
X152855260Y-104913765D01*
X152851378Y-104912493D01*
X152859076Y-104897591D01*
X152867074Y-104889560D01*
X152880246Y-104872434D01*
X152897485Y-104842183D01*
X152909407Y-104817622D01*
X152936045Y-104758711D01*
X152939120Y-103581845D01*
X152942195Y-102404978D01*
X153387853Y-102404978D01*
X153485670Y-102405142D01*
X153576064Y-102405611D01*
X153656630Y-102406347D01*
X153724962Y-102407316D01*
X153778656Y-102408480D01*
X153815305Y-102409803D01*
X153832504Y-102411249D01*
X153833511Y-102411702D01*
X154844517Y-102411702D01*
X154829270Y-102392722D01*
X154755090Y-102300537D01*
X154683069Y-102211204D01*
X154614569Y-102126424D01*
X154550955Y-102047898D01*
X154493588Y-101977326D01*
X154443833Y-101916409D01*
X154403052Y-101866847D01*
X154385888Y-101846178D01*
X154299596Y-101745516D01*
X154222997Y-101662259D01*
X154154183Y-101594438D01*
X154091248Y-101540089D01*
X154081867Y-101532722D01*
X154042356Y-101502117D01*
X155174116Y-101501867D01*
X155168827Y-101549844D01*
X155172130Y-101607188D01*
X155193661Y-101675463D01*
X155233635Y-101755212D01*
X155278943Y-101827495D01*
X155295161Y-101850140D01*
X155323214Y-101887696D01*
X155361430Y-101938021D01*
X155408137Y-101998973D01*
X155461661Y-102068411D01*
X155520331Y-102144194D01*
X155582475Y-102224180D01*
X155646421Y-102306228D01*
X155710495Y-102388196D01*
X155773027Y-102467943D01*
X155832343Y-102543327D01*
X155886771Y-102612207D01*
X155934639Y-102672442D01*
X155974275Y-102721889D01*
X156004006Y-102758408D01*
X156022161Y-102779858D01*
X156025220Y-102783156D01*
X156028079Y-102775149D01*
X156030293Y-102744855D01*
X156031857Y-102692556D01*
X156032767Y-102618531D01*
X156033020Y-102523063D01*
X156032613Y-102406434D01*
X156031704Y-102286445D01*
X156030382Y-102154333D01*
X156028857Y-102042594D01*
X156026881Y-101949025D01*
X156024206Y-101871419D01*
X156020582Y-101807574D01*
X156015761Y-101755283D01*
X156009494Y-101712344D01*
X156001532Y-101676551D01*
X155991627Y-101645700D01*
X155979531Y-101617586D01*
X155964993Y-101590005D01*
X155950311Y-101564966D01*
X155912314Y-101501867D01*
X156972197Y-101501867D01*
X157275034Y-101501867D01*
X157275001Y-101495617D01*
X157274195Y-101393544D01*
X157273170Y-101304633D01*
X157271900Y-101227941D01*
X157270360Y-101162527D01*
X157268524Y-101107449D01*
X157266367Y-101061765D01*
X157263863Y-101024534D01*
X157260987Y-100994813D01*
X157257713Y-100971662D01*
X157254015Y-100954139D01*
X157249869Y-100941301D01*
X157245247Y-100932208D01*
X157240126Y-100925918D01*
X157234478Y-100921488D01*
X157228279Y-100917978D01*
X157221504Y-100914445D01*
X157215508Y-100910876D01*
X157210275Y-100908300D01*
X157202099Y-100905972D01*
X157189886Y-100903878D01*
X157172541Y-100902007D01*
X157148969Y-100900347D01*
X157118077Y-100898884D01*
X157078768Y-100897608D01*
X157029950Y-100896504D01*
X156970527Y-100895561D01*
X156899404Y-100894767D01*
X156815488Y-100894109D01*
X156717683Y-100893575D01*
X156604894Y-100893153D01*
X156476029Y-100892829D01*
X156329991Y-100892592D01*
X156165686Y-100892430D01*
X155982020Y-100892330D01*
X155777897Y-100892280D01*
X155566753Y-100892267D01*
X153946400Y-100892267D01*
X153946400Y-100989054D01*
%TA.AperFunction,EtchedComponent*%
G36*
X157275614Y-101611792D02*
G01*
X157276059Y-101743011D01*
X157276362Y-101890216D01*
X157276548Y-102054349D01*
X157276642Y-102236352D01*
X157276671Y-102437165D01*
X157276661Y-102657732D01*
X157276636Y-102898992D01*
X157276622Y-103161889D01*
X157276622Y-103204040D01*
X157276646Y-103464668D01*
X157276685Y-103703796D01*
X157276708Y-103922360D01*
X157276687Y-104121295D01*
X157276593Y-104301535D01*
X157276395Y-104464015D01*
X157276063Y-104609670D01*
X157275569Y-104739434D01*
X157274883Y-104854243D01*
X157273976Y-104955030D01*
X157272817Y-105042730D01*
X157271378Y-105118279D01*
X157269629Y-105182611D01*
X157267540Y-105236661D01*
X157265083Y-105281363D01*
X157262227Y-105317652D01*
X157258943Y-105346463D01*
X157255202Y-105368731D01*
X157250974Y-105385390D01*
X157246229Y-105397375D01*
X157240939Y-105405621D01*
X157235073Y-105411062D01*
X157228602Y-105414634D01*
X157221497Y-105417270D01*
X157213728Y-105419906D01*
X157205266Y-105423477D01*
X157200908Y-105425145D01*
X157192395Y-105427111D01*
X157179694Y-105428911D01*
X157161885Y-105430555D01*
X157138049Y-105432047D01*
X157107266Y-105433397D01*
X157068617Y-105434611D01*
X157021182Y-105435697D01*
X156964043Y-105436661D01*
X156896279Y-105437511D01*
X156816971Y-105438253D01*
X156725199Y-105438897D01*
X156620044Y-105439447D01*
X156500587Y-105439913D01*
X156365908Y-105440300D01*
X156215088Y-105440616D01*
X156047206Y-105440869D01*
X155861345Y-105441066D01*
X155656583Y-105441213D01*
X155432002Y-105441318D01*
X155186682Y-105441389D01*
X154919704Y-105441432D01*
X154881321Y-105441437D01*
X154615922Y-105441480D01*
X154372050Y-105441525D01*
X154148783Y-105441548D01*
X153945196Y-105441524D01*
X153760367Y-105441430D01*
X153593373Y-105441243D01*
X153443290Y-105440939D01*
X153309196Y-105440494D01*
X153190166Y-105439885D01*
X153085279Y-105439089D01*
X152993610Y-105438080D01*
X152914237Y-105436837D01*
X152846237Y-105435335D01*
X152788686Y-105433551D01*
X152740662Y-105431461D01*
X152701240Y-105429042D01*
X152669499Y-105426270D01*
X152644514Y-105423121D01*
X152625364Y-105419572D01*
X152611123Y-105415598D01*
X152600871Y-105411178D01*
X152593682Y-105406286D01*
X152588635Y-105400900D01*
X152584805Y-105394996D01*
X152581271Y-105388549D01*
X152577108Y-105381537D01*
X152576025Y-105379687D01*
X152573813Y-105374180D01*
X152571786Y-105365868D01*
X152569938Y-105353809D01*
X152568261Y-105337063D01*
X152566745Y-105314687D01*
X152565383Y-105285740D01*
X152564167Y-105249280D01*
X152563089Y-105204367D01*
X152562140Y-105150057D01*
X152561312Y-105085410D01*
X152560597Y-105009484D01*
X152559987Y-104921338D01*
X152559942Y-104912493D01*
X152851378Y-104912493D01*
X152855260Y-104913765D01*
X152878520Y-104915791D01*
X152920874Y-104917626D01*
X152980132Y-104919227D01*
X153054107Y-104920549D01*
X153140610Y-104921548D01*
X153237452Y-104922180D01*
X153342445Y-104922400D01*
X154040651Y-104922400D01*
X155195090Y-104922400D01*
X155194456Y-104846200D01*
X155195574Y-104804160D01*
X155201304Y-104768334D01*
X155213890Y-104730772D01*
X155235568Y-104682577D01*
X155238789Y-104675897D01*
X155264188Y-104626359D01*
X155290996Y-104578369D01*
X155313917Y-104541466D01*
X155318485Y-104534834D01*
X155340516Y-104503593D01*
X155372693Y-104458654D01*
X155413457Y-104402147D01*
X155461245Y-104336204D01*
X155514498Y-104262957D01*
X155571655Y-104184536D01*
X155631155Y-104103072D01*
X155691437Y-104020698D01*
X155750940Y-103939544D01*
X155808105Y-103861742D01*
X155861370Y-103789423D01*
X155909174Y-103724718D01*
X155949957Y-103669759D01*
X155982158Y-103626676D01*
X156004216Y-103597602D01*
X156014571Y-103584667D01*
X156019044Y-103580351D01*
X156023236Y-103578312D01*
X156026643Y-103580926D01*
X156029325Y-103589986D01*
X156031341Y-103607285D01*
X156032748Y-103634614D01*
X156033605Y-103673765D01*
X156033970Y-103726533D01*
X156033903Y-103794707D01*
X156033460Y-103880082D01*
X156032702Y-103984449D01*
X156031685Y-104109600D01*
X156031308Y-104154300D01*
X156030169Y-104275395D01*
X156028972Y-104376688D01*
X156027636Y-104460262D01*
X156026077Y-104528204D01*
X156024215Y-104582599D01*
X156021966Y-104625532D01*
X156019248Y-104659089D01*
X156015979Y-104685355D01*
X156012078Y-104706416D01*
X156007461Y-104724357D01*
X155999192Y-104750770D01*
X155975583Y-104812772D01*
X155949685Y-104865573D01*
X155924535Y-104902645D01*
X155923339Y-104904075D01*
X155921168Y-104908424D01*
X155923328Y-104912026D01*
X155931644Y-104914951D01*
X155947940Y-104917269D01*
X155974041Y-104919051D01*
X156011771Y-104920367D01*
X156062956Y-104921286D01*
X156129420Y-104921878D01*
X156212987Y-104922215D01*
X156315483Y-104922365D01*
X156438732Y-104922400D01*
X156970296Y-104922400D01*
X156931523Y-104864783D01*
X156925432Y-104855893D01*
X156914976Y-104841069D01*
X156905579Y-104827422D01*
X156897183Y-104813765D01*
X156889733Y-104798911D01*
X156883173Y-104781670D01*
X156877446Y-104760855D01*
X156872495Y-104735280D01*
X156868266Y-104703755D01*
X156864701Y-104665093D01*
X156861744Y-104618107D01*
X156859340Y-104561608D01*
X156857431Y-104494409D01*
X156855962Y-104415322D01*
X156854876Y-104323160D01*
X156854118Y-104216734D01*
X156853630Y-104094857D01*
X156853358Y-103956341D01*
X156853243Y-103799999D01*
X156853231Y-103624642D01*
X156853265Y-103429082D01*
X156853289Y-103212133D01*
X156853280Y-103089513D01*
X156853243Y-102884447D01*
X156853227Y-102700116D01*
X156853288Y-102535334D01*
X156853484Y-102388916D01*
X156853870Y-102259674D01*
X156854505Y-102146422D01*
X156855444Y-102047975D01*
X156856745Y-101963144D01*
X156858464Y-101890744D01*
X156860659Y-101829589D01*
X156863385Y-101778492D01*
X156866701Y-101736267D01*
X156870662Y-101701727D01*
X156875325Y-101673686D01*
X156880747Y-101650958D01*
X156886986Y-101632356D01*
X156894097Y-101616693D01*
X156902138Y-101602784D01*
X156911166Y-101589441D01*
X156921236Y-101575479D01*
X156932407Y-101559711D01*
X156972197Y-101501867D01*
X155912314Y-101501867D01*
X155950311Y-101564966D01*
X155964993Y-101590005D01*
X155979531Y-101617586D01*
X155991627Y-101645700D01*
X156001532Y-101676551D01*
X156009494Y-101712344D01*
X156015761Y-101755283D01*
X156020582Y-101807574D01*
X156024206Y-101871419D01*
X156026881Y-101949025D01*
X156028857Y-102042594D01*
X156030382Y-102154333D01*
X156031704Y-102286445D01*
X156032613Y-102406434D01*
X156033020Y-102523063D01*
X156032767Y-102618531D01*
X156031857Y-102692556D01*
X156030293Y-102744855D01*
X156028079Y-102775149D01*
X156025220Y-102783156D01*
X156022161Y-102779858D01*
X156004006Y-102758408D01*
X155974275Y-102721889D01*
X155934639Y-102672442D01*
X155886771Y-102612207D01*
X155832343Y-102543327D01*
X155773027Y-102467943D01*
X155710495Y-102388196D01*
X155646421Y-102306228D01*
X155582475Y-102224180D01*
X155520331Y-102144194D01*
X155461661Y-102068411D01*
X155408137Y-101998973D01*
X155361430Y-101938021D01*
X155323214Y-101887696D01*
X155295161Y-101850140D01*
X155278943Y-101827495D01*
X155233635Y-101755212D01*
X155193661Y-101675463D01*
X155172130Y-101607188D01*
X155168827Y-101549844D01*
X155174116Y-101501867D01*
X154042356Y-101502117D01*
X154081867Y-101532722D01*
X154091248Y-101540089D01*
X154154183Y-101594438D01*
X154222997Y-101662259D01*
X154299596Y-101745516D01*
X154385888Y-101846178D01*
X154403052Y-101866847D01*
X154443833Y-101916409D01*
X154493588Y-101977326D01*
X154550955Y-102047898D01*
X154614569Y-102126424D01*
X154683069Y-102211204D01*
X154755090Y-102300537D01*
X154829270Y-102392722D01*
X154844517Y-102411702D01*
X154904246Y-102486060D01*
X154978653Y-102578848D01*
X155051131Y-102669388D01*
X155120314Y-102755978D01*
X155184841Y-102836918D01*
X155243347Y-102910506D01*
X155294470Y-102975044D01*
X155336847Y-103028829D01*
X155369115Y-103070162D01*
X155389910Y-103097342D01*
X155397869Y-103108668D01*
X155396111Y-103112771D01*
X155383230Y-103133334D01*
X155358885Y-103169561D01*
X155324247Y-103219824D01*
X155280486Y-103282492D01*
X155228775Y-103355936D01*
X155170284Y-103438527D01*
X155106184Y-103528636D01*
X155037646Y-103624631D01*
X154965843Y-103724885D01*
X154891944Y-103827768D01*
X154817121Y-103931650D01*
X154742545Y-104034901D01*
X154669387Y-104135892D01*
X154598819Y-104232994D01*
X154532011Y-104324577D01*
X154470135Y-104409011D01*
X154414361Y-104484667D01*
X154365862Y-104549916D01*
X154325807Y-104603128D01*
X154295369Y-104642673D01*
X154274944Y-104668026D01*
X154228899Y-104722295D01*
X154178612Y-104778775D01*
X154131815Y-104828669D01*
X154040651Y-104922400D01*
X153342445Y-104922400D01*
X153411356Y-104922349D01*
X153509607Y-104922091D01*
X153599030Y-104921637D01*
X153677333Y-104921010D01*
X153742223Y-104920235D01*
X153791411Y-104919335D01*
X153822604Y-104918334D01*
X153833511Y-104917257D01*
X153832322Y-104914037D01*
X153822176Y-104896452D01*
X153805040Y-104870158D01*
X153796540Y-104857691D01*
X153787329Y-104843622D01*
X153779233Y-104829351D01*
X153772185Y-104813479D01*
X153766117Y-104794609D01*
X153760961Y-104771341D01*
X153756651Y-104742278D01*
X153753119Y-104706021D01*
X153750297Y-104661170D01*
X153748118Y-104606328D01*
X153746514Y-104540097D01*
X153745419Y-104461077D01*
X153744765Y-104367871D01*
X153744484Y-104259079D01*
X153744509Y-104133303D01*
X153744772Y-103989145D01*
X153745206Y-103825207D01*
X153745745Y-103640089D01*
X153746279Y-103461232D01*
X153746805Y-103302374D01*
X153747350Y-103163316D01*
X153747945Y-103042665D01*
X153748619Y-102939028D01*
X153749403Y-102851011D01*
X153750326Y-102777223D01*
X153751419Y-102716269D01*
X153752712Y-102666757D01*
X153754235Y-102627293D01*
X153756019Y-102596484D01*
X153758092Y-102572938D01*
X153760486Y-102555260D01*
X153763230Y-102542059D01*
X153766356Y-102531940D01*
X153769892Y-102523511D01*
X153773791Y-102515375D01*
X153793438Y-102478544D01*
X153812225Y-102448391D01*
X153813272Y-102446908D01*
X153827602Y-102424659D01*
X153833511Y-102411702D01*
X153832504Y-102411249D01*
X153815305Y-102409803D01*
X153778656Y-102408480D01*
X153724962Y-102407316D01*
X153656630Y-102406347D01*
X153576064Y-102405611D01*
X153485670Y-102405142D01*
X153387853Y-102404978D01*
X152942195Y-102404978D01*
X152939120Y-103581845D01*
X152936045Y-104758711D01*
X152909407Y-104817622D01*
X152897485Y-104842183D01*
X152880246Y-104872434D01*
X152867074Y-104889560D01*
X152859076Y-104897591D01*
X152851378Y-104912493D01*
X152559942Y-104912493D01*
X152559474Y-104820029D01*
X152559050Y-104704617D01*
X152558706Y-104574160D01*
X152558434Y-104427716D01*
X152558227Y-104264344D01*
X152558076Y-104083101D01*
X152557972Y-103883048D01*
X152557908Y-103663241D01*
X152557876Y-103422739D01*
X152557867Y-103160602D01*
X152557867Y-100969031D01*
X152596249Y-100930649D01*
X152623355Y-100906911D01*
X152650253Y-100895111D01*
X152686560Y-100892267D01*
X152738489Y-100892267D01*
X152738489Y-100980206D01*
X152740427Y-101030102D01*
X152759199Y-101140523D01*
X152796217Y-101241987D01*
X152849369Y-101333152D01*
X152916546Y-101412673D01*
X152995638Y-101479205D01*
X153084534Y-101531406D01*
X153181125Y-101567930D01*
X153283300Y-101587434D01*
X153388950Y-101588573D01*
X153495964Y-101570005D01*
X153602232Y-101530384D01*
X153699219Y-101472516D01*
X153784293Y-101397684D01*
X153853015Y-101309615D01*
X153903918Y-101210616D01*
X153935535Y-101102993D01*
X153946400Y-100989054D01*
X153946400Y-100892267D01*
X155566753Y-100892267D01*
X155777897Y-100892280D01*
X155982020Y-100892330D01*
X156165686Y-100892430D01*
X156329991Y-100892592D01*
X156476029Y-100892829D01*
X156604894Y-100893153D01*
X156717683Y-100893575D01*
X156815488Y-100894109D01*
X156899404Y-100894767D01*
X156970527Y-100895561D01*
X157029950Y-100896504D01*
X157078768Y-100897608D01*
X157118077Y-100898884D01*
X157148969Y-100900347D01*
X157172541Y-100902007D01*
X157189886Y-100903878D01*
X157202099Y-100905972D01*
X157210275Y-100908300D01*
X157215508Y-100910876D01*
X157221504Y-100914445D01*
X157228279Y-100917978D01*
X157234478Y-100921488D01*
X157240126Y-100925918D01*
X157245247Y-100932208D01*
X157249869Y-100941301D01*
X157254015Y-100954139D01*
X157257713Y-100971662D01*
X157260987Y-100994813D01*
X157263863Y-101024534D01*
X157266367Y-101061765D01*
X157268524Y-101107449D01*
X157270360Y-101162527D01*
X157271900Y-101227941D01*
X157273170Y-101304633D01*
X157274195Y-101393544D01*
X157275001Y-101495617D01*
X157275034Y-101501867D01*
X157275614Y-101611792D01*
G37*
%TD.AperFunction*%
%TD*%
D11*
%TO.P,J2,1,Pin_1_1*%
%TO.N,Net-(J2-Pin_1)*%
X156000000Y-72000000D03*
D12*
%TO.P,J2,2,Pin_2_2*%
%TO.N,Net-(J2-Pin_2)*%
X151000000Y-72000000D03*
%TO.P,J2,3,Pin_3_3*%
%TO.N,Net-(J2-Pin_3)*%
X146000000Y-72000000D03*
%TD*%
D13*
%TO.P,S.Pins,1,Pin_1_1*%
%TO.N,Net-(J1-Pin_1)*%
X151000000Y-108625000D03*
D14*
%TO.P,S.Pins,2,Pin_2_2*%
%TO.N,Net-(J1-Pin_2)*%
X150000000Y-108625000D03*
%TO.P,S.Pins,3,Pin_3_3*%
%TO.N,GND*%
X149000000Y-108625000D03*
%TD*%
D15*
%TO.P,K1,11*%
%TO.N,Net-(J2-Pin_3)*%
X151000000Y-79800000D03*
%TO.P,K1,12*%
%TO.N,Net-(J2-Pin_1)*%
X157000000Y-94000000D03*
%TO.P,K1,14*%
%TO.N,Net-(J2-Pin_2)*%
X145000000Y-94000000D03*
D16*
%TO.P,K1,A1*%
%TO.N,Net-(D1-A)*%
X145000000Y-81800000D03*
D15*
%TO.P,K1,A2*%
%TO.N,GND*%
X157000000Y-81800000D03*
%TD*%
%TO.N,Net-(J2-Pin_2)*%
D17*
X151000000Y-72000000D02*
X152900000Y-73900000D01*
X152900000Y-73900000D02*
X152900000Y-86100000D01*
X152900000Y-86100000D02*
X145000000Y-94000000D01*
%TO.N,Net-(J2-Pin_1)*%
X155100000Y-72900000D02*
X155100000Y-92100000D01*
X156000000Y-72000000D02*
X155100000Y-72900000D01*
X155100000Y-92100000D02*
X157000000Y-94000000D01*
%TO.N,Net-(J2-Pin_3)*%
X146000000Y-74800000D02*
X151000000Y-79800000D01*
X146000000Y-72000000D02*
X146000000Y-74800000D01*
%TD*%
M02*
