%TF.GenerationSoftware,KiCad,Pcbnew,10.0.3*%
%TF.CreationDate,2026-06-10T23:04:40+05:45*%
%TF.ProjectId,1channelrelay,31636861-6e6e-4656-9c72-656c61792e6b,rev?*%
%TF.SameCoordinates,Original*%
%TF.FileFunction,Legend,Bot*%
%TF.FilePolarity,Positive*%
%FSLAX46Y46*%
G04 Gerber Fmt 4.6, Leading zero omitted, Abs format (unit mm)*
G04 Created by KiCad (PCBNEW 10.0.3) date 2026-06-10 23:04:40*
%MOMM*%
%LPD*%
G01*
G04 APERTURE LIST*
%ADD10C,0.010000*%
G04 APERTURE END LIST*
D10*
%TO.C,REF\u002A\u002A*%
X145265381Y-108012472D02*
X145246307Y-108001092D01*
X145202579Y-107975512D01*
X145136381Y-107936998D01*
X145049898Y-107886814D01*
X144945315Y-107826225D01*
X144824817Y-107756497D01*
X144690588Y-107678893D01*
X144544813Y-107594680D01*
X144389677Y-107505121D01*
X144230000Y-107413002D01*
X144066883Y-107318924D01*
X143910291Y-107228598D01*
X143762494Y-107143335D01*
X143625760Y-107064443D01*
X143502358Y-106993231D01*
X143394556Y-106931009D01*
X143304623Y-106879087D01*
X143234827Y-106838772D01*
X143187436Y-106811376D01*
X143165214Y-106798493D01*
X143127670Y-106777493D01*
X143104169Y-106766075D01*
X143100080Y-106765449D01*
X143107758Y-106779364D01*
X143129797Y-106818059D01*
X143165029Y-106879513D01*
X143212289Y-106961702D01*
X143270411Y-107062604D01*
X143338229Y-107180195D01*
X143414576Y-107312454D01*
X143498286Y-107457358D01*
X143588194Y-107612883D01*
X143683133Y-107777008D01*
X143719268Y-107839451D01*
X143815917Y-108006513D01*
X143908062Y-108165926D01*
X143994525Y-108315645D01*
X144074129Y-108453624D01*
X144145695Y-108577815D01*
X144208045Y-108686173D01*
X144260002Y-108776652D01*
X144300387Y-108847204D01*
X144328022Y-108895785D01*
X144341728Y-108920346D01*
X144343026Y-108922915D01*
X144354780Y-108915431D01*
X144386205Y-108889386D01*
X144434406Y-108847441D01*
X144496490Y-108792254D01*
X144569561Y-108726483D01*
X144650724Y-108652788D01*
X144737084Y-108573827D01*
X144825747Y-108492260D01*
X144913818Y-108410746D01*
X144998401Y-108331943D01*
X145076603Y-108258510D01*
X145145528Y-108193107D01*
X145202281Y-108138392D01*
X145243968Y-108097023D01*
X145257637Y-108082836D01*
X145301799Y-108035820D01*
X145265381Y-108012472D01*
G36*
X143104169Y-106766075D02*
G01*
X143127670Y-106777493D01*
X143165214Y-106798493D01*
X143187436Y-106811376D01*
X143234827Y-106838772D01*
X143304623Y-106879087D01*
X143394556Y-106931009D01*
X143502358Y-106993231D01*
X143625760Y-107064443D01*
X143762494Y-107143335D01*
X143910291Y-107228598D01*
X144066883Y-107318924D01*
X144230000Y-107413002D01*
X144389677Y-107505121D01*
X144544813Y-107594680D01*
X144690588Y-107678893D01*
X144824817Y-107756497D01*
X144945315Y-107826225D01*
X145049898Y-107886814D01*
X145136381Y-107936998D01*
X145202579Y-107975512D01*
X145246307Y-108001092D01*
X145265381Y-108012472D01*
X145301799Y-108035820D01*
X145257637Y-108082836D01*
X145243968Y-108097023D01*
X145202281Y-108138392D01*
X145145528Y-108193107D01*
X145076603Y-108258510D01*
X144998401Y-108331943D01*
X144913818Y-108410746D01*
X144825747Y-108492260D01*
X144737084Y-108573827D01*
X144650724Y-108652788D01*
X144569561Y-108726483D01*
X144496490Y-108792254D01*
X144434406Y-108847441D01*
X144386205Y-108889386D01*
X144354780Y-108915431D01*
X144343026Y-108922915D01*
X144341728Y-108920346D01*
X144328022Y-108895785D01*
X144300387Y-108847204D01*
X144260002Y-108776652D01*
X144208045Y-108686173D01*
X144145695Y-108577815D01*
X144074129Y-108453624D01*
X143994525Y-108315645D01*
X143908062Y-108165926D01*
X143815917Y-108006513D01*
X143719268Y-107839451D01*
X143683133Y-107777008D01*
X143588194Y-107612883D01*
X143498286Y-107457358D01*
X143414576Y-107312454D01*
X143338229Y-107180195D01*
X143270411Y-107062604D01*
X143212289Y-106961702D01*
X143165029Y-106879513D01*
X143129797Y-106818059D01*
X143107758Y-106779364D01*
X143100080Y-106765449D01*
X143104169Y-106766075D01*
G37*
X148414165Y-109835957D02*
X148376755Y-109812935D01*
X148317486Y-109777466D01*
X148238882Y-109731004D01*
X148143462Y-109675004D01*
X148033750Y-109610919D01*
X147912266Y-109540204D01*
X147781532Y-109464313D01*
X147644070Y-109384701D01*
X147502402Y-109302822D01*
X147359049Y-109220130D01*
X147216533Y-109138079D01*
X147077376Y-109058124D01*
X146944099Y-108981719D01*
X146819224Y-108910318D01*
X146705273Y-108845376D01*
X146604767Y-108788347D01*
X146520228Y-108740685D01*
X146454178Y-108703845D01*
X146409138Y-108679280D01*
X146387630Y-108668446D01*
X146386286Y-108668049D01*
X146368035Y-108681499D01*
X146340118Y-108718886D01*
X146305275Y-108775765D01*
X146266246Y-108847688D01*
X146229157Y-108922985D01*
X146184183Y-109025440D01*
X146143774Y-109133183D01*
X146107031Y-109249927D01*
X146073058Y-109379382D01*
X146040956Y-109525260D01*
X146009827Y-109691274D01*
X145978773Y-109881134D01*
X145949855Y-110077531D01*
X145924200Y-110248166D01*
X145898802Y-110391455D01*
X145872398Y-110510992D01*
X145843727Y-110610370D01*
X145811527Y-110693182D01*
X145774535Y-110763022D01*
X145731488Y-110823482D01*
X145681125Y-110878155D01*
X145662417Y-110895786D01*
X145618861Y-110934000D01*
X145583318Y-110962268D01*
X145562417Y-110975382D01*
X145560703Y-110975732D01*
X145550194Y-110980320D01*
X145550076Y-110996242D01*
X145561746Y-111026734D01*
X145586604Y-111075032D01*
X145626048Y-111144373D01*
X145654413Y-111192561D01*
X145698753Y-111264417D01*
X145736721Y-111320258D01*
X145765584Y-111356333D01*
X145782612Y-111368887D01*
X145782736Y-111368879D01*
X145798963Y-111361094D01*
X145839600Y-111339108D01*
X145902433Y-111304197D01*
X145985248Y-111257637D01*
X146085828Y-111200705D01*
X146201960Y-111134677D01*
X146331429Y-111060828D01*
X146472020Y-110980436D01*
X146621518Y-110894776D01*
X146777708Y-110805124D01*
X146938376Y-110712757D01*
X147101307Y-110618951D01*
X147264287Y-110524982D01*
X147425100Y-110432126D01*
X147581532Y-110341660D01*
X147731367Y-110254859D01*
X147872392Y-110173000D01*
X148002391Y-110097359D01*
X148119151Y-110029213D01*
X148220455Y-109969837D01*
X148304089Y-109920507D01*
X148367838Y-109882500D01*
X148409489Y-109857093D01*
X148426825Y-109845560D01*
X148427195Y-109845077D01*
X148414165Y-109835957D01*
G36*
X146387630Y-108668446D02*
G01*
X146409138Y-108679280D01*
X146454178Y-108703845D01*
X146520228Y-108740685D01*
X146604767Y-108788347D01*
X146705273Y-108845376D01*
X146819224Y-108910318D01*
X146944099Y-108981719D01*
X147077376Y-109058124D01*
X147216533Y-109138079D01*
X147359049Y-109220130D01*
X147502402Y-109302822D01*
X147644070Y-109384701D01*
X147781532Y-109464313D01*
X147912266Y-109540204D01*
X148033750Y-109610919D01*
X148143462Y-109675004D01*
X148238882Y-109731004D01*
X148317486Y-109777466D01*
X148376755Y-109812935D01*
X148414165Y-109835957D01*
X148427195Y-109845077D01*
X148426825Y-109845560D01*
X148409489Y-109857093D01*
X148367838Y-109882500D01*
X148304089Y-109920507D01*
X148220455Y-109969837D01*
X148119151Y-110029213D01*
X148002391Y-110097359D01*
X147872392Y-110173000D01*
X147731367Y-110254859D01*
X147581532Y-110341660D01*
X147425100Y-110432126D01*
X147264287Y-110524982D01*
X147101307Y-110618951D01*
X146938376Y-110712757D01*
X146777708Y-110805124D01*
X146621518Y-110894776D01*
X146472020Y-110980436D01*
X146331429Y-111060828D01*
X146201960Y-111134677D01*
X146085828Y-111200705D01*
X145985248Y-111257637D01*
X145902433Y-111304197D01*
X145839600Y-111339108D01*
X145798963Y-111361094D01*
X145782736Y-111368879D01*
X145782612Y-111368887D01*
X145765584Y-111356333D01*
X145736721Y-111320258D01*
X145698753Y-111264417D01*
X145654413Y-111192561D01*
X145626048Y-111144373D01*
X145586604Y-111075032D01*
X145561746Y-111026734D01*
X145550076Y-110996242D01*
X145550194Y-110980320D01*
X145560703Y-110975732D01*
X145562417Y-110975382D01*
X145583318Y-110962268D01*
X145618861Y-110934000D01*
X145662417Y-110895786D01*
X145681125Y-110878155D01*
X145731488Y-110823482D01*
X145774535Y-110763022D01*
X145811527Y-110693182D01*
X145843727Y-110610370D01*
X145872398Y-110510992D01*
X145898802Y-110391455D01*
X145924200Y-110248166D01*
X145949855Y-110077531D01*
X145978773Y-109881134D01*
X146009827Y-109691274D01*
X146040956Y-109525260D01*
X146073058Y-109379382D01*
X146107031Y-109249927D01*
X146143774Y-109133183D01*
X146184183Y-109025440D01*
X146229157Y-108922985D01*
X146266246Y-108847688D01*
X146305275Y-108775765D01*
X146340118Y-108718886D01*
X146368035Y-108681499D01*
X146386286Y-108668049D01*
X146387630Y-108668446D01*
G37*
X145208842Y-111677906D02*
X145196264Y-111645381D01*
X145171288Y-111595807D01*
X145132124Y-111524626D01*
X145129012Y-111519084D01*
X145091524Y-111453526D01*
X145058681Y-111398202D01*
X145033795Y-111358545D01*
X145020180Y-111339988D01*
X145019513Y-111339469D01*
X145000610Y-111343952D01*
X144958395Y-111364514D01*
X144895168Y-111399817D01*
X144813228Y-111448520D01*
X144714878Y-111509282D01*
X144602415Y-111580764D01*
X144574835Y-111598555D01*
X144498301Y-111644907D01*
X144432444Y-111678658D01*
X144383218Y-111696847D01*
X144373493Y-111698714D01*
X144330688Y-111697885D01*
X144262791Y-111688606D01*
X144174157Y-111672032D01*
X144069141Y-111649320D01*
X143952098Y-111621627D01*
X143827384Y-111590110D01*
X143699355Y-111555925D01*
X143572366Y-111520229D01*
X143450772Y-111484179D01*
X143338928Y-111448932D01*
X143241190Y-111415644D01*
X143161913Y-111385472D01*
X143114878Y-111364439D01*
X143064775Y-111339663D01*
X143016832Y-111316270D01*
X143014207Y-111315003D01*
X142965780Y-111276301D01*
X142933172Y-111219816D01*
X142917546Y-111154061D01*
X142920063Y-111087549D01*
X142941886Y-111028795D01*
X142970618Y-110995742D01*
X143049417Y-110948141D01*
X143147622Y-110913261D01*
X143255221Y-110894123D01*
X143316220Y-110891412D01*
X143430065Y-110902330D01*
X143524340Y-110934376D01*
X143603621Y-110989274D01*
X143621267Y-111006393D01*
X143670765Y-111057339D01*
X144020638Y-111060837D01*
X144370511Y-111064336D01*
X144505469Y-110975182D01*
X144566555Y-110933346D01*
X144621507Y-110893055D01*
X144662664Y-110860057D01*
X144677808Y-110845874D01*
X144715190Y-110805719D01*
X144685902Y-110751335D01*
X144664916Y-110716961D01*
X144648622Y-110698154D01*
X144645693Y-110696951D01*
X144633272Y-110684097D01*
X144624023Y-110662104D01*
X144615687Y-110640850D01*
X144599851Y-110608306D01*
X144574967Y-110561678D01*
X144539491Y-110498171D01*
X144491877Y-110414992D01*
X144430578Y-110309347D01*
X144397068Y-110251938D01*
X144356929Y-110184406D01*
X144328341Y-110140115D01*
X144307961Y-110115145D01*
X144292447Y-110105577D01*
X144278454Y-110107492D01*
X144275204Y-110109089D01*
X144254734Y-110124624D01*
X144216335Y-110157864D01*
X144164304Y-110204938D01*
X144102934Y-110261972D01*
X144050910Y-110311300D01*
X143927433Y-110424970D01*
X143820409Y-110513895D01*
X143728760Y-110578866D01*
X143651412Y-110620679D01*
X143612134Y-110634783D01*
X143577751Y-110640608D01*
X143519101Y-110646625D01*
X143442883Y-110652304D01*
X143355798Y-110657116D01*
X143300732Y-110659381D01*
X143205536Y-110662541D01*
X143135938Y-110663931D01*
X143086591Y-110663142D01*
X143052146Y-110659765D01*
X143027257Y-110653392D01*
X143006575Y-110643613D01*
X142993947Y-110635933D01*
X142945274Y-110591579D01*
X142911355Y-110534426D01*
X142896562Y-110474292D01*
X142901914Y-110429227D01*
X142925070Y-110388424D01*
X142966538Y-110337276D01*
X143019088Y-110282958D01*
X143075484Y-110232643D01*
X143128495Y-110193506D01*
X143154111Y-110179095D01*
X143189186Y-110157509D01*
X143242611Y-110118247D01*
X143310211Y-110064898D01*
X143387810Y-110001048D01*
X143471232Y-109930285D01*
X143556302Y-109856196D01*
X143638845Y-109782368D01*
X143714684Y-109712389D01*
X143779644Y-109649845D01*
X143827331Y-109600740D01*
X143874968Y-109546221D01*
X143910092Y-109500358D01*
X143929051Y-109468189D01*
X143931136Y-109457511D01*
X143922726Y-109441147D01*
X143900154Y-109400329D01*
X143864776Y-109337414D01*
X143817946Y-109254756D01*
X143761019Y-109154711D01*
X143695351Y-109039634D01*
X143622297Y-108911881D01*
X143543212Y-108773806D01*
X143459452Y-108627766D01*
X143372371Y-108476116D01*
X143283324Y-108321210D01*
X143193668Y-108165405D01*
X143104757Y-108011056D01*
X143017946Y-107860518D01*
X142934591Y-107716146D01*
X142856046Y-107580296D01*
X142783667Y-107455323D01*
X142718810Y-107343583D01*
X142662829Y-107247430D01*
X142617080Y-107169221D01*
X142582917Y-107111311D01*
X142561696Y-107076054D01*
X142555037Y-107065835D01*
X142553720Y-107079598D01*
X142552441Y-107122896D01*
X142551204Y-107194286D01*
X142550017Y-107292327D01*
X142548885Y-107415578D01*
X142547814Y-107562597D01*
X142546811Y-107731943D01*
X142545881Y-107922174D01*
X142545032Y-108131849D01*
X142544268Y-108359527D01*
X142543597Y-108603765D01*
X142543024Y-108863123D01*
X142542556Y-109136159D01*
X142542198Y-109421432D01*
X142541958Y-109717500D01*
X142541841Y-110022921D01*
X142541829Y-110151076D01*
X142541829Y-113251030D01*
X142925153Y-113029947D01*
X143006320Y-112983144D01*
X143110834Y-112922898D01*
X143235199Y-112851222D01*
X143375918Y-112770131D01*
X143529497Y-112681638D01*
X143692438Y-112587760D01*
X143861246Y-112490509D01*
X144032425Y-112391900D01*
X144202479Y-112293947D01*
X144245488Y-112269175D01*
X144402143Y-112178848D01*
X144551197Y-112092711D01*
X144690432Y-112012058D01*
X144817629Y-111938184D01*
X144930568Y-111872383D01*
X145027032Y-111815950D01*
X145104800Y-111770179D01*
X145161654Y-111736365D01*
X145195375Y-111715802D01*
X145203960Y-111710047D01*
X145210811Y-111697942D01*
X145208842Y-111677906D01*
G36*
X142561696Y-107076054D02*
G01*
X142582917Y-107111311D01*
X142617080Y-107169221D01*
X142662829Y-107247430D01*
X142718810Y-107343583D01*
X142783667Y-107455323D01*
X142856046Y-107580296D01*
X142934591Y-107716146D01*
X143017946Y-107860518D01*
X143104757Y-108011056D01*
X143193668Y-108165405D01*
X143283324Y-108321210D01*
X143372371Y-108476116D01*
X143459452Y-108627766D01*
X143543212Y-108773806D01*
X143622297Y-108911881D01*
X143695351Y-109039634D01*
X143761019Y-109154711D01*
X143817946Y-109254756D01*
X143864776Y-109337414D01*
X143900154Y-109400329D01*
X143922726Y-109441147D01*
X143931136Y-109457511D01*
X143929051Y-109468189D01*
X143910092Y-109500358D01*
X143874968Y-109546221D01*
X143827331Y-109600740D01*
X143779644Y-109649845D01*
X143714684Y-109712389D01*
X143638845Y-109782368D01*
X143556302Y-109856196D01*
X143471232Y-109930285D01*
X143387810Y-110001048D01*
X143310211Y-110064898D01*
X143242611Y-110118247D01*
X143189186Y-110157509D01*
X143154111Y-110179095D01*
X143128495Y-110193506D01*
X143075484Y-110232643D01*
X143019088Y-110282958D01*
X142966538Y-110337276D01*
X142925070Y-110388424D01*
X142901914Y-110429227D01*
X142896562Y-110474292D01*
X142911355Y-110534426D01*
X142945274Y-110591579D01*
X142993947Y-110635933D01*
X143006575Y-110643613D01*
X143027257Y-110653392D01*
X143052146Y-110659765D01*
X143086591Y-110663142D01*
X143135938Y-110663931D01*
X143205536Y-110662541D01*
X143300732Y-110659381D01*
X143355798Y-110657116D01*
X143442883Y-110652304D01*
X143519101Y-110646625D01*
X143577751Y-110640608D01*
X143612134Y-110634783D01*
X143651412Y-110620679D01*
X143728760Y-110578866D01*
X143820409Y-110513895D01*
X143927433Y-110424970D01*
X144050910Y-110311300D01*
X144102934Y-110261972D01*
X144164304Y-110204938D01*
X144216335Y-110157864D01*
X144254734Y-110124624D01*
X144275204Y-110109089D01*
X144278454Y-110107492D01*
X144292447Y-110105577D01*
X144307961Y-110115145D01*
X144328341Y-110140115D01*
X144356929Y-110184406D01*
X144397068Y-110251938D01*
X144430578Y-110309347D01*
X144491877Y-110414992D01*
X144539491Y-110498171D01*
X144574967Y-110561678D01*
X144599851Y-110608306D01*
X144615687Y-110640850D01*
X144624023Y-110662104D01*
X144633272Y-110684097D01*
X144645693Y-110696951D01*
X144648622Y-110698154D01*
X144664916Y-110716961D01*
X144685902Y-110751335D01*
X144715190Y-110805719D01*
X144677808Y-110845874D01*
X144662664Y-110860057D01*
X144621507Y-110893055D01*
X144566555Y-110933346D01*
X144505469Y-110975182D01*
X144370511Y-111064336D01*
X144020638Y-111060837D01*
X143670765Y-111057339D01*
X143621267Y-111006393D01*
X143603621Y-110989274D01*
X143524340Y-110934376D01*
X143430065Y-110902330D01*
X143316220Y-110891412D01*
X143255221Y-110894123D01*
X143147622Y-110913261D01*
X143049417Y-110948141D01*
X142970618Y-110995742D01*
X142941886Y-111028795D01*
X142920063Y-111087549D01*
X142917546Y-111154061D01*
X142933172Y-111219816D01*
X142965780Y-111276301D01*
X143014207Y-111315003D01*
X143016832Y-111316270D01*
X143064775Y-111339663D01*
X143114878Y-111364439D01*
X143161913Y-111385472D01*
X143241190Y-111415644D01*
X143338928Y-111448932D01*
X143450772Y-111484179D01*
X143572366Y-111520229D01*
X143699355Y-111555925D01*
X143827384Y-111590110D01*
X143952098Y-111621627D01*
X144069141Y-111649320D01*
X144174157Y-111672032D01*
X144262791Y-111688606D01*
X144330688Y-111697885D01*
X144373493Y-111698714D01*
X144383218Y-111696847D01*
X144432444Y-111678658D01*
X144498301Y-111644907D01*
X144574835Y-111598555D01*
X144602415Y-111580764D01*
X144714878Y-111509282D01*
X144813228Y-111448520D01*
X144895168Y-111399817D01*
X144958395Y-111364514D01*
X145000610Y-111343952D01*
X145019513Y-111339469D01*
X145020180Y-111339988D01*
X145033795Y-111358545D01*
X145058681Y-111398202D01*
X145091524Y-111453526D01*
X145129012Y-111519084D01*
X145132124Y-111524626D01*
X145171288Y-111595807D01*
X145196264Y-111645381D01*
X145208842Y-111677906D01*
X145210811Y-111697942D01*
X145203960Y-111710047D01*
X145195375Y-111715802D01*
X145161654Y-111736365D01*
X145104800Y-111770179D01*
X145027032Y-111815950D01*
X144930568Y-111872383D01*
X144817629Y-111938184D01*
X144690432Y-112012058D01*
X144551197Y-112092711D01*
X144402143Y-112178848D01*
X144245488Y-112269175D01*
X144202479Y-112293947D01*
X144032425Y-112391900D01*
X143861246Y-112490509D01*
X143692438Y-112587760D01*
X143529497Y-112681638D01*
X143375918Y-112770131D01*
X143235199Y-112851222D01*
X143110834Y-112922898D01*
X143006320Y-112983144D01*
X142925153Y-113029947D01*
X142541829Y-113251030D01*
X142541829Y-110151076D01*
X142541841Y-110022921D01*
X142541958Y-109717500D01*
X142542198Y-109421432D01*
X142542556Y-109136159D01*
X142543024Y-108863123D01*
X142543597Y-108603765D01*
X142544268Y-108359527D01*
X142545032Y-108131849D01*
X142545881Y-107922174D01*
X142546811Y-107731943D01*
X142547814Y-107562597D01*
X142548885Y-107415578D01*
X142550017Y-107292327D01*
X142551204Y-107194286D01*
X142552441Y-107122896D01*
X142553720Y-107079598D01*
X142555037Y-107065835D01*
X142561696Y-107076054D01*
G37*
%TD*%
M02*
