%TF.GenerationSoftware,KiCad,Pcbnew,10.0.3*%
%TF.CreationDate,2026-07-27T14:34:05+05:45*%
%TF.ProjectId,Solid-state relay,536f6c69-642d-4737-9461-74652072656c,rev?*%
%TF.SameCoordinates,Original*%
%TF.FileFunction,Copper,L4,Bot*%
%TF.FilePolarity,Positive*%
%FSLAX46Y46*%
G04 Gerber Fmt 4.6, Leading zero omitted, Abs format (unit mm)*
G04 Created by KiCad (PCBNEW 10.0.3) date 2026-07-27 14:34:05*
%MOMM*%
%LPD*%
G01*
G04 APERTURE LIST*
G04 Aperture macros list*
%AMRoundRect*
0 Rectangle with rounded corners*
0 $1 Rounding radius*
0 $2 $3 $4 $5 $6 $7 $8 $9 X,Y pos of 4 corners*
0 Add a 4 corners polygon primitive as box body*
4,1,4,$2,$3,$4,$5,$6,$7,$8,$9,$2,$3,0*
0 Add four circle primitives for the rounded corners*
1,1,$1+$1,$2,$3*
1,1,$1+$1,$4,$5*
1,1,$1+$1,$6,$7*
1,1,$1+$1,$8,$9*
0 Add four rect primitives between the rounded corners*
20,1,$1+$1,$2,$3,$4,$5,0*
20,1,$1+$1,$4,$5,$6,$7,0*
20,1,$1+$1,$6,$7,$8,$9,0*
20,1,$1+$1,$8,$9,$2,$3,0*%
G04 Aperture macros list end*
%TA.AperFunction,ComponentPad*%
%ADD10C,2.800000*%
%TD*%
%TA.AperFunction,ComponentPad*%
%ADD11RoundRect,0.250001X-1.149999X-1.149999X1.149999X-1.149999X1.149999X1.149999X-1.149999X1.149999X0*%
%TD*%
%TA.AperFunction,ComponentPad*%
%ADD12C,1.400000*%
%TD*%
%TA.AperFunction,ComponentPad*%
%ADD13RoundRect,0.250000X-0.650000X0.650000X-0.650000X-0.650000X0.650000X-0.650000X0.650000X0.650000X0*%
%TD*%
%TA.AperFunction,ComponentPad*%
%ADD14C,1.800000*%
%TD*%
%TA.AperFunction,ComponentPad*%
%ADD15C,1.600000*%
%TD*%
%TA.AperFunction,ComponentPad*%
%ADD16R,1.500000X1.500000*%
%TD*%
%TA.AperFunction,ComponentPad*%
%ADD17R,1.905000X2.000000*%
%TD*%
%TA.AperFunction,ComponentPad*%
%ADD18O,1.905000X2.000000*%
%TD*%
%TA.AperFunction,ComponentPad*%
%ADD19C,1.500000*%
%TD*%
%TA.AperFunction,ComponentPad*%
%ADD20O,2.400000X1.600000*%
%TD*%
%TA.AperFunction,ComponentPad*%
%ADD21R,2.400000X1.600000*%
%TD*%
%TA.AperFunction,ComponentPad*%
%ADD22RoundRect,0.250000X-1.050000X-1.050000X1.050000X-1.050000X1.050000X1.050000X-1.050000X1.050000X0*%
%TD*%
%TA.AperFunction,ComponentPad*%
%ADD23C,2.600000*%
%TD*%
%TA.AperFunction,ComponentPad*%
%ADD24RoundRect,0.250000X-0.550000X-0.550000X0.550000X-0.550000X0.550000X0.550000X-0.550000X0.550000X0*%
%TD*%
%TA.AperFunction,ComponentPad*%
%ADD25C,2.000000*%
%TD*%
%TA.AperFunction,ComponentPad*%
%ADD26R,2.000000X2.000000*%
%TD*%
%TA.AperFunction,Conductor*%
%ADD27C,0.600000*%
%TD*%
%TA.AperFunction,Conductor*%
%ADD28C,0.200000*%
%TD*%
G04 APERTURE END LIST*
D10*
%TO.P,DZ1,2,A_2*%
%TO.N,GND_PWR*%
X153416000Y-69596000D03*
D11*
%TO.P,DZ1,1,K_1*%
%TO.N,Net-(DZ1-K)*%
X143256000Y-69596000D03*
%TD*%
D12*
%TO.P,R6,2*%
%TO.N,/+*%
X135890000Y-78740000D03*
%TO.P,R6,1*%
%TO.N,Net-(DZ1-K)*%
X130810000Y-78740000D03*
%TD*%
%TO.P,R5,1*%
%TO.N,Net-(Q2-E)*%
X123444000Y-78740000D03*
%TO.P,R5,2*%
%TO.N,Net-(Q4-G)*%
X128524000Y-78740000D03*
%TD*%
%TO.P,R4,1*%
%TO.N,Net-(Q1-C)*%
X121150000Y-73600000D03*
%TO.P,R4,2*%
%TO.N,Net-(Q2-B)*%
X116070000Y-73600000D03*
%TD*%
%TO.P,R3,1*%
%TO.N,Net-(DZ1-K)*%
X116070000Y-68850000D03*
%TO.P,R3,2*%
%TO.N,Net-(Q1-C)*%
X121150000Y-68850000D03*
%TD*%
%TO.P,R2,1*%
%TO.N,Net-(DZ1-K)*%
X116110000Y-71350000D03*
%TO.P,R2,2*%
%TO.N,Net-(Q1-B)*%
X121190000Y-71350000D03*
%TD*%
%TO.P,R1,1*%
%TO.N,Net-(SW2-C)*%
X102000000Y-76540000D03*
%TO.P,R1,2*%
%TO.N,Net-(OC1-Pad1)*%
X102000000Y-71460000D03*
%TD*%
D13*
%TO.P,D1,1,K_1*%
%TO.N,/+*%
X154178000Y-73152000D03*
D14*
%TO.P,D1,2,A_2*%
%TO.N,/A*%
X154178000Y-80772000D03*
%TD*%
D15*
%TO.P,SW2,3,A_3*%
%TO.N,unconnected-(SW2-A-Pad3)*%
X99250000Y-70210000D03*
%TO.P,SW2,2,C_2*%
%TO.N,Net-(SW2-C)*%
X99250000Y-75290000D03*
D16*
%TO.P,SW2,1,B_1*%
%TO.N,Net-(BT1-+)*%
X99250000Y-72750000D03*
%TD*%
D17*
%TO.P,Q4,1,G_1*%
%TO.N,Net-(Q4-G)*%
X144272000Y-76454000D03*
D18*
%TO.P,Q4,2,D_2*%
%TO.N,/A*%
X146812000Y-76454000D03*
%TO.P,Q4,3,S_3*%
%TO.N,GND_PWR*%
X149352000Y-76454000D03*
%TD*%
D16*
%TO.P,Q3,1,C_1*%
%TO.N,GND_PWR*%
X116078000Y-77470000D03*
D19*
%TO.P,Q3,2,B_2*%
%TO.N,Net-(Q2-B)*%
X118618000Y-77470000D03*
%TO.P,Q3,3,E_3*%
%TO.N,Net-(Q2-E)*%
X121158000Y-77470000D03*
%TD*%
D16*
%TO.P,Q2,1,C_1*%
%TO.N,Net-(DZ1-K)*%
X128524000Y-74800000D03*
D19*
%TO.P,Q2,2,B_2*%
%TO.N,Net-(Q2-B)*%
X125984000Y-74800000D03*
%TO.P,Q2,3,E_3*%
%TO.N,Net-(Q2-E)*%
X123444000Y-74800000D03*
%TD*%
%TO.P,Q1,3,E_3*%
%TO.N,GND_PWR*%
X123444000Y-69840000D03*
%TO.P,Q1,2,B_2*%
%TO.N,Net-(Q1-B)*%
X125984000Y-69840000D03*
D16*
%TO.P,Q1,1,C_1*%
%TO.N,Net-(Q1-C)*%
X128524000Y-69840000D03*
%TD*%
D20*
%TO.P,OC1,6*%
%TO.N,unconnected-(OC1-Pad6)*%
X113405000Y-69325000D03*
%TO.P,OC1,5*%
%TO.N,Net-(Q1-B)*%
X113405000Y-71865000D03*
%TO.P,OC1,4*%
%TO.N,GND_PWR*%
X113405000Y-74405000D03*
%TO.P,OC1,3,NC_3*%
%TO.N,unconnected-(OC1-NC-Pad3)*%
X105785000Y-74405000D03*
%TO.P,OC1,2*%
%TO.N,GND_CTRL*%
X105785000Y-71865000D03*
D21*
%TO.P,OC1,1*%
%TO.N,Net-(OC1-Pad1)*%
X105785000Y-69325000D03*
%TD*%
D22*
%TO.P,J2,1,Pin_1_1*%
%TO.N,/+*%
X106974000Y-86128500D03*
D23*
%TO.P,J2,2,Pin_2_2*%
%TO.N,/A*%
X111974000Y-86128500D03*
%TD*%
%TO.P,BAT,2,Pin_2_2*%
%TO.N,GND_PWR*%
X149098000Y-86106000D03*
D22*
%TO.P,BAT,1,Pin_1_1*%
%TO.N,/+*%
X144098000Y-86106000D03*
%TD*%
D24*
%TO.P,C1,1*%
%TO.N,Net-(DZ1-K)*%
X134518323Y-72136000D03*
D15*
%TO.P,C1,2*%
%TO.N,GND_PWR*%
X137018323Y-72136000D03*
%TD*%
D25*
%TO.P,3.7v,2,-_2*%
%TO.N,GND_CTRL*%
X152515000Y-57975000D03*
D26*
%TO.P,3.7v,1,+_1*%
%TO.N,Net-(BT1-+)*%
X100525000Y-57975000D03*
%TD*%
%TO.N,/A*%
D27*
X111974000Y-82336000D02*
X111974000Y-86128500D01*
X144584500Y-78994000D02*
X137287000Y-78994000D01*
X135636000Y-80645000D02*
X113665000Y-80645000D01*
X146812000Y-76766500D02*
X144584500Y-78994000D01*
X137287000Y-78994000D02*
X135636000Y-80645000D01*
X146812000Y-76454000D02*
X146812000Y-76766500D01*
X113665000Y-80645000D02*
X111974000Y-82336000D01*
%TO.N,Net-(Q4-G)*%
D28*
X130810000Y-76454000D02*
X144272000Y-76454000D01*
X128524000Y-78740000D02*
X130810000Y-76454000D01*
%TO.N,Net-(Q2-E)*%
X121158000Y-77086000D02*
X121158000Y-77470000D01*
X123444000Y-74800000D02*
X121158000Y-77086000D01*
%TO.N,Net-(DZ1-K)*%
X117060000Y-72300000D02*
X116110000Y-71350000D01*
X126024000Y-72300000D02*
X117060000Y-72300000D01*
X128524000Y-74800000D02*
X126024000Y-72300000D01*
%TO.N,Net-(Q1-B)*%
X124474000Y-71350000D02*
X125984000Y-69840000D01*
X121190000Y-71350000D02*
X124474000Y-71350000D01*
%TO.N,/A*%
D27*
X151130000Y-80772000D02*
X146812000Y-76454000D01*
X154178000Y-80772000D02*
X151130000Y-80772000D01*
%TD*%
M02*
